<svg width="800" height="400" style="background-color: white;"><g transform="translate(50,0)"><svg width="700" height="360"><g style="-webkit-tap-highlight-color: rgba(0, 0, 0, 0);"><rect width="700" height="360" style="fill: #ffffff;"></rect><g id="lines"><line class="line" stroke-width="1" stroke="#d7301f" x1="-397.1910112359551" y1="333" x2="-397.1910112359551" y2="360" visibility="hidden" style="stroke-dasharray: 3px, 3px;"></line></g><g><rect x="-402.1910112359551" y="355" width="10" height="10" visibility="hidden" style="fill: #ffffff; stroke: #d7301f;"></rect></g><g id="lines"><line class="line" stroke-width="1" stroke="#6a51a3" x1="-397.1910112359551" y1="333" x2="-397.1910112359551" y2="327.27272727272725" visibility="hidden" style="stroke-dasharray: 3px, 3px;"></line></g><g><rect x="-402.1910112359551" y="322.27272727272725" width="10" height="10" visibility="hidden" style="fill: #ffffff; stroke: #6a51a3;"></rect></g><g id="lines"><line class="line" stroke-width="1" stroke="#666666" x1="7.865168539325842" y1="333" x2="7.865168539325842" y2="292.7775781530722"></line><line class="line" stroke-width="1" stroke="#666666" x1="66.85393258426966" y1="333" x2="66.85393258426966" y2="322.9608336327704"></line><line class="line" stroke-width="1" stroke="#666666" x1="66.85393258426966" y1="333" x2="66.85393258426966" y2="322.9608336327704"></line><line class="line" stroke-width="1" stroke="#666666" x1="106.17977528089888" y1="333" x2="106.17977528089888" y2="322.9608336327704"></line><line class="line" stroke-width="1" stroke="#666666" x1="106.17977528089888" y1="333" x2="106.17977528089888" y2="322.9608336327704"></line><line class="line" stroke-width="1" stroke="#666666" x1="129.77528089887642" y1="333" x2="129.77528089887642" y2="322.9608336327704"></line><line class="line" stroke-width="1" stroke="#666666" x1="196.6292134831461" y1="333" x2="196.6292134831461" y2="322.9608336327704"></line><line class="line" stroke-width="1" stroke="#666666" x1="310.67415730337075" y1="333" x2="310.67415730337075" y2="322.9608336327704"></line><line class="line" stroke-width="1" stroke="#666666" x1="464.04494382022466" y1="333" x2="464.04494382022466" y2="29.75206611570252"></line><line class="line" stroke-width="1" stroke="#666666" x1="471.91011235955057" y1="333" x2="471.91011235955057" y2="279.8418972332016"></line><line class="line" stroke-width="1" stroke="#666666" x1="625.2808988764044" y1="333" x2="625.2808988764044" y2="322.9608336327704"></line><line class="line" stroke-width="1" stroke="#666666" x1="641.0112359550562" y1="333" x2="641.0112359550562" y2="318.6489399928135"></line><line class="line" stroke-width="1" stroke="#666666" x1="672.4719101123595" y1="333" x2="672.4719101123595" y2="305.7132590729429"></line></g><g id="circles"><circle r="4" cx="7.865168539325842" cy="292.7775781530722" style="fill: #4393c3; stroke: #666666; stroke-width: 1px;"></circle><circle r="4" cx="66.85393258426966" cy="322.9608336327704" style="fill: #666666; stroke: #666666; stroke-width: 1px;"></circle><circle r="4" cx="66.85393258426966" cy="322.9608336327704" style="fill: #bf812d; stroke: #666666; stroke-width: 1px;"></circle><circle r="4" cx="106.17977528089888" cy="322.9608336327704" style="fill: #666666; stroke: #666666; stroke-width: 1px;"></circle><circle r="4" cx="106.17977528089888" cy="322.9608336327704" style="fill: #666666; stroke: #666666; stroke-width: 1px;"></circle><circle r="4" cx="129.77528089887642" cy="322.9608336327704" style="fill: #666666; stroke: #666666; stroke-width: 1px;"></circle><circle r="4" cx="196.6292134831461" cy="322.9608336327704" style="fill: #4393c3; stroke: #666666; stroke-width: 1px;"></circle><circle r="4" cx="310.67415730337075" cy="322.9608336327704" style="fill: #bf812d; stroke: #666666; stroke-width: 1px;"></circle><circle r="4" cx="464.04494382022466" cy="29.75206611570252" style="fill: #bf812d; stroke: #666666; stroke-width: 1px;"></circle><circle r="4" cx="471.91011235955057" cy="279.8418972332016" style="fill: #bf812d; stroke: #666666; stroke-width: 1px;"></circle><circle r="4" cx="625.2808988764044" cy="322.9608336327704" style="fill: #4393c3; stroke: #666666; stroke-width: 1px;"></circle><circle r="4" cx="641.0112359550562" cy="318.6489399928135" style="fill: #bf812d; stroke: #666666; stroke-width: 1px;"></circle><circle r="4" cx="672.4719101123595" cy="305.7132590729429" style="fill: #bf812d; stroke: #666666; stroke-width: 1px;"></circle></g><g><rect x="0" y="333" width="700" height="12" style="fill: #ffffff; stroke-width: 1px; stroke: #666666;"></rect><rect x="129.77528089887642" y="333" width="534.8314606741573" height="12" style="fill: #aec7e8; stroke-width: 1px; stroke: #666666;"></rect></g><g><a target="_blank" xlink:href="http://pfam.xfam.org/family/"><text y="343" x="350" text-anchor="middle" style="color: rgb(102, 102, 102); font-weight: normal; font-size: 12px; font-family: Arial; cursor: pointer;"></text></a><a target="_blank" xlink:href="http://pfam.xfam.org/family/UQ_con"><text y="343" x="397.19101123595505" text-anchor="middle" style="color: rgb(102, 102, 102); font-weight: normal; font-size: 12px; font-family: Arial; cursor: pointer;">UQ_con</text></a></g><g><text y="358" x="0" text-anchor="middle" visibility="hidden" style="font-size: 13px;">M</text><text y="358" x="3.932584269662921" text-anchor="middle" visibility="hidden" style="font-size: 13px;">A</text><text y="358" x="7.865168539325842" text-anchor="middle" visibility="hidden" style="font-size: 13px;">S</text><text y="358" x="11.797752808988763" text-anchor="middle" visibility="hidden" style="font-size: 13px;">Q</text><text y="358" x="15.730337078651685" text-anchor="middle" visibility="hidden" style="font-size: 13px;">N</text><text y="358" x="19.662921348314605" text-anchor="middle" visibility="hidden" style="font-size: 13px;">R</text><text y="358" x="23.595505617977526" text-anchor="middle" visibility="hidden" style="font-size: 13px;">D</text><text y="358" x="27.528089887640448" text-anchor="middle" visibility="hidden" style="font-size: 13px;">P</text><text y="358" x="31.46067415730337" text-anchor="middle" visibility="hidden" style="font-size: 13px;">A</text><text y="358" x="35.39325842696629" text-anchor="middle" visibility="hidden" style="font-size: 13px;">A</text><text y="358" x="39.32584269662921" text-anchor="middle" visibility="hidden" style="font-size: 13px;">T</text><text y="358" x="43.258426966292134" text-anchor="middle" visibility="hidden" style="font-size: 13px;">S</text><text y="358" x="47.19101123595505" text-anchor="middle" visibility="hidden" style="font-size: 13px;">V</text><text y="358" x="51.12359550561798" text-anchor="middle" visibility="hidden" style="font-size: 13px;">A</text><text y="358" x="55.056179775280896" text-anchor="middle" visibility="hidden" style="font-size: 13px;">A</text><text y="358" x="58.98876404494382" text-anchor="middle" visibility="hidden" style="font-size: 13px;">A</text><text y="358" x="62.92134831460674" text-anchor="middle" visibility="hidden" style="font-size: 13px;">R</text><text y="358" x="66.85393258426966" text-anchor="middle" visibility="hidden" style="font-size: 13px;">K</text><text y="358" x="70.78651685393258" text-anchor="middle" visibility="hidden" style="font-size: 13px;">G</text><text y="358" x="74.71910112359551" text-anchor="middle" visibility="hidden" style="font-size: 13px;">A</text><text y="358" x="78.65168539325842" text-anchor="middle" visibility="hidden" style="font-size: 13px;">E</text><text y="358" x="82.58426966292134" text-anchor="middle" visibility="hidden" style="font-size: 13px;">P</text><text y="358" x="86.51685393258427" text-anchor="middle" visibility="hidden" style="font-size: 13px;">S</text><text y="358" x="90.4494382022472" text-anchor="middle" visibility="hidden" style="font-size: 13px;">G</text><text y="358" x="94.3820224719101" text-anchor="middle" visibility="hidden" style="font-size: 13px;">G</text><text y="358" x="98.31460674157304" text-anchor="middle" visibility="hidden" style="font-size: 13px;">A</text><text y="358" x="102.24719101123596" text-anchor="middle" visibility="hidden" style="font-size: 13px;">A</text><text y="358" x="106.17977528089888" text-anchor="middle" visibility="hidden" style="font-size: 13px;">R</text><text y="358" x="110.11235955056179" text-anchor="middle" visibility="hidden" style="font-size: 13px;">G</text><text y="358" x="114.04494382022473" text-anchor="middle" visibility="hidden" style="font-size: 13px;">P</text><text y="358" x="117.97752808988764" text-anchor="middle" visibility="hidden" style="font-size: 13px;">V</text><text y="358" x="121.91011235955057" text-anchor="middle" visibility="hidden" style="font-size: 13px;">G</text><text y="358" x="125.84269662921348" text-anchor="middle" visibility="hidden" style="font-size: 13px;">K</text><text y="358" x="129.77528089887642" text-anchor="middle" visibility="hidden" style="font-size: 13px;">R</text><text y="358" x="133.7078651685393" text-anchor="middle" visibility="hidden" style="font-size: 13px;">L</text><text y="358" x="137.64044943820224" text-anchor="middle" visibility="hidden" style="font-size: 13px;">Q</text><text y="358" x="141.57303370786516" text-anchor="middle" visibility="hidden" style="font-size: 13px;">Q</text><text y="358" x="145.5056179775281" text-anchor="middle" visibility="hidden" style="font-size: 13px;">E</text><text y="358" x="149.43820224719101" text-anchor="middle" visibility="hidden" style="font-size: 13px;">L</text><text y="358" x="153.37078651685394" text-anchor="middle" visibility="hidden" style="font-size: 13px;">M</text><text y="358" x="157.30337078651684" text-anchor="middle" visibility="hidden" style="font-size: 13px;">T</text><text y="358" x="161.2359550561798" text-anchor="middle" visibility="hidden" style="font-size: 13px;">L</text><text y="358" x="165.1685393258427" text-anchor="middle" visibility="hidden" style="font-size: 13px;">M</text><text y="358" x="169.1011235955056" text-anchor="middle" visibility="hidden" style="font-size: 13px;">M</text><text y="358" x="173.03370786516854" text-anchor="middle" visibility="hidden" style="font-size: 13px;">S</text><text y="358" x="176.96629213483146" text-anchor="middle" visibility="hidden" style="font-size: 13px;">G</text><text y="358" x="180.8988764044944" text-anchor="middle" visibility="hidden" style="font-size: 13px;">D</text><text y="358" x="184.83146067415728" text-anchor="middle" visibility="hidden" style="font-size: 13px;">K</text><text y="358" x="188.7640449438202" text-anchor="middle" visibility="hidden" style="font-size: 13px;">G</text><text y="358" x="192.69662921348316" text-anchor="middle" visibility="hidden" style="font-size: 13px;">I</text><text y="358" x="196.6292134831461" text-anchor="middle" visibility="hidden" style="font-size: 13px;">S</text><text y="358" x="200.56179775280899" text-anchor="middle" visibility="hidden" style="font-size: 13px;">A</text><text y="358" x="204.4943820224719" text-anchor="middle" visibility="hidden" style="font-size: 13px;">F</text><text y="358" x="208.42696629213484" text-anchor="middle" visibility="hidden" style="font-size: 13px;">P</text><text y="358" x="212.35955056179776" text-anchor="middle" visibility="hidden" style="font-size: 13px;">E</text><text y="358" x="216.29213483146066" text-anchor="middle" visibility="hidden" style="font-size: 13px;">S</text><text y="358" x="220.22471910112358" text-anchor="middle" visibility="hidden" style="font-size: 13px;">D</text><text y="358" x="224.1573033707865" text-anchor="middle" visibility="hidden" style="font-size: 13px;">N</text><text y="358" x="228.08988764044946" text-anchor="middle" visibility="hidden" style="font-size: 13px;">L</text><text y="358" x="232.02247191011233" text-anchor="middle" visibility="hidden" style="font-size: 13px;">F</text><text y="358" x="235.95505617977528" text-anchor="middle" visibility="hidden" style="font-size: 13px;">K</text><text y="358" x="239.8876404494382" text-anchor="middle" visibility="hidden" style="font-size: 13px;">W</text><text y="358" x="243.82022471910113" text-anchor="middle" visibility="hidden" style="font-size: 13px;">V</text><text y="358" x="247.75280898876403" text-anchor="middle" visibility="hidden" style="font-size: 13px;">G</text><text y="358" x="251.68539325842696" text-anchor="middle" visibility="hidden" style="font-size: 13px;">T</text><text y="358" x="255.61797752808988" text-anchor="middle" visibility="hidden" style="font-size: 13px;">I</text><text y="358" x="259.55056179775283" text-anchor="middle" visibility="hidden" style="font-size: 13px;">H</text><text y="358" x="263.4831460674157" text-anchor="middle" visibility="hidden" style="font-size: 13px;">G</text><text y="358" x="267.4157303370786" text-anchor="middle" visibility="hidden" style="font-size: 13px;">A</text><text y="358" x="271.34831460674155" text-anchor="middle" visibility="hidden" style="font-size: 13px;">A</text><text y="358" x="275.2808988764045" text-anchor="middle" visibility="hidden" style="font-size: 13px;">G</text><text y="358" x="279.2134831460674" text-anchor="middle" visibility="hidden" style="font-size: 13px;">T</text><text y="358" x="283.14606741573033" text-anchor="middle" visibility="hidden" style="font-size: 13px;">V</text><text y="358" x="287.07865168539325" text-anchor="middle" visibility="hidden" style="font-size: 13px;">Y</text><text y="358" x="291.0112359550562" text-anchor="middle" visibility="hidden" style="font-size: 13px;">E</text><text y="358" x="294.9438202247191" text-anchor="middle" visibility="hidden" style="font-size: 13px;">D</text><text y="358" x="298.87640449438203" text-anchor="middle" visibility="hidden" style="font-size: 13px;">L</text><text y="358" x="302.80898876404495" text-anchor="middle" visibility="hidden" style="font-size: 13px;">R</text><text y="358" x="306.7415730337079" text-anchor="middle" visibility="hidden" style="font-size: 13px;">Y</text><text y="358" x="310.67415730337075" text-anchor="middle" visibility="hidden" style="font-size: 13px;">K</text><text y="358" x="314.6067415730337" text-anchor="middle" visibility="hidden" style="font-size: 13px;">L</text><text y="358" x="318.53932584269666" text-anchor="middle" visibility="hidden" style="font-size: 13px;">S</text><text y="358" x="322.4719101123596" text-anchor="middle" visibility="hidden" style="font-size: 13px;">L</text><text y="358" x="326.40449438202245" text-anchor="middle" visibility="hidden" style="font-size: 13px;">E</text><text y="358" x="330.3370786516854" text-anchor="middle" visibility="hidden" style="font-size: 13px;">F</text><text y="358" x="334.2696629213483" text-anchor="middle" visibility="hidden" style="font-size: 13px;">P</text><text y="358" x="338.2022471910112" text-anchor="middle" visibility="hidden" style="font-size: 13px;">S</text><text y="358" x="342.13483146067415" text-anchor="middle" visibility="hidden" style="font-size: 13px;">G</text><text y="358" x="346.0674157303371" text-anchor="middle" visibility="hidden" style="font-size: 13px;">Y</text><text y="358" x="350" text-anchor="middle" visibility="hidden" style="font-size: 13px;">P</text><text y="358" x="353.9325842696629" text-anchor="middle" visibility="hidden" style="font-size: 13px;">Y</text><text y="358" x="357.86516853932585" text-anchor="middle" visibility="hidden" style="font-size: 13px;">N</text><text y="358" x="361.7977528089888" text-anchor="middle" visibility="hidden" style="font-size: 13px;">A</text><text y="358" x="365.7303370786517" text-anchor="middle" visibility="hidden" style="font-size: 13px;">P</text><text y="358" x="369.66292134831457" text-anchor="middle" visibility="hidden" style="font-size: 13px;">T</text><text y="358" x="373.5955056179775" text-anchor="middle" visibility="hidden" style="font-size: 13px;">V</text><text y="358" x="377.5280898876404" text-anchor="middle" visibility="hidden" style="font-size: 13px;">K</text><text y="358" x="381.46067415730334" text-anchor="middle" visibility="hidden" style="font-size: 13px;">F</text><text y="358" x="385.3932584269663" text-anchor="middle" visibility="hidden" style="font-size: 13px;">L</text><text y="358" x="389.32584269662925" text-anchor="middle" visibility="hidden" style="font-size: 13px;">T</text><text y="358" x="393.2584269662922" text-anchor="middle" visibility="hidden" style="font-size: 13px;">P</text><text y="358" x="397.1910112359551" text-anchor="middle" visibility="hidden" style="font-size: 13px;">C</text><text y="358" x="401.12359550561797" text-anchor="middle" visibility="hidden" style="font-size: 13px;">Y</text><text y="358" x="405.0561797752809" text-anchor="middle" visibility="hidden" style="font-size: 13px;">H</text><text y="358" x="408.9887640449438" text-anchor="middle" visibility="hidden" style="font-size: 13px;">P</text><text y="358" x="412.92134831460675" text-anchor="middle" visibility="hidden" style="font-size: 13px;">N</text><text y="358" x="416.85393258426967" text-anchor="middle" visibility="hidden" style="font-size: 13px;">V</text><text y="358" x="420.7865168539326" text-anchor="middle" visibility="hidden" style="font-size: 13px;">D</text><text y="358" x="424.7191011235955" text-anchor="middle" visibility="hidden" style="font-size: 13px;">T</text><text y="358" x="428.65168539325845" text-anchor="middle" visibility="hidden" style="font-size: 13px;">Q</text><text y="358" x="432.5842696629213" text-anchor="middle" visibility="hidden" style="font-size: 13px;">G</text><text y="358" x="436.51685393258424" text-anchor="middle" visibility="hidden" style="font-size: 13px;">N</text><text y="358" x="440.44943820224717" text-anchor="middle" visibility="hidden" style="font-size: 13px;">I</text><text y="358" x="444.3820224719101" text-anchor="middle" visibility="hidden" style="font-size: 13px;">C</text><text y="358" x="448.314606741573" text-anchor="middle" visibility="hidden" style="font-size: 13px;">L</text><text y="358" x="452.247191011236" text-anchor="middle" visibility="hidden" style="font-size: 13px;">D</text><text y="358" x="456.1797752808989" text-anchor="middle" visibility="hidden" style="font-size: 13px;">I</text><text y="358" x="460.11235955056185" text-anchor="middle" visibility="hidden" style="font-size: 13px;">L</text><text y="358" x="464.04494382022466" text-anchor="middle" visibility="hidden" style="font-size: 13px;">K</text><text y="358" x="467.97752808988764" text-anchor="middle" visibility="hidden" style="font-size: 13px;">E</text><text y="358" x="471.91011235955057" text-anchor="middle" visibility="hidden" style="font-size: 13px;">K</text><text y="358" x="475.8426966292135" text-anchor="middle" visibility="hidden" style="font-size: 13px;">W</text><text y="358" x="479.7752808988764" text-anchor="middle" visibility="hidden" style="font-size: 13px;">S</text><text y="358" x="483.70786516853934" text-anchor="middle" visibility="hidden" style="font-size: 13px;">A</text><text y="358" x="487.64044943820227" text-anchor="middle" visibility="hidden" style="font-size: 13px;">L</text><text y="358" x="491.5730337078652" text-anchor="middle" visibility="hidden" style="font-size: 13px;">Y</text><text y="358" x="495.50561797752806" text-anchor="middle" visibility="hidden" style="font-size: 13px;">D</text><text y="358" x="499.438202247191" text-anchor="middle" visibility="hidden" style="font-size: 13px;">V</text><text y="358" x="503.3707865168539" text-anchor="middle" visibility="hidden" style="font-size: 13px;">R</text><text y="358" x="507.30337078651684" text-anchor="middle" visibility="hidden" style="font-size: 13px;">T</text><text y="358" x="511.23595505617976" text-anchor="middle" visibility="hidden" style="font-size: 13px;">I</text><text y="358" x="515.1685393258427" text-anchor="middle" visibility="hidden" style="font-size: 13px;">L</text><text y="358" x="519.1011235955057" text-anchor="middle" visibility="hidden" style="font-size: 13px;">L</text><text y="358" x="523.0337078651686" text-anchor="middle" visibility="hidden" style="font-size: 13px;">S</text><text y="358" x="526.9662921348314" text-anchor="middle" visibility="hidden" style="font-size: 13px;">I</text><text y="358" x="530.8988764044943" text-anchor="middle" visibility="hidden" style="font-size: 13px;">Q</text><text y="358" x="534.8314606741573" text-anchor="middle" visibility="hidden" style="font-size: 13px;">S</text><text y="358" x="538.7640449438202" text-anchor="middle" visibility="hidden" style="font-size: 13px;">L</text><text y="358" x="542.6966292134831" text-anchor="middle" visibility="hidden" style="font-size: 13px;">L</text><text y="358" x="546.629213483146" text-anchor="middle" visibility="hidden" style="font-size: 13px;">G</text><text y="358" x="550.561797752809" text-anchor="middle" visibility="hidden" style="font-size: 13px;">E</text><text y="358" x="554.494382022472" text-anchor="middle" visibility="hidden" style="font-size: 13px;">P</text><text y="358" x="558.4269662921348" text-anchor="middle" visibility="hidden" style="font-size: 13px;">N</text><text y="358" x="562.3595505617977" text-anchor="middle" visibility="hidden" style="font-size: 13px;">I</text><text y="358" x="566.2921348314607" text-anchor="middle" visibility="hidden" style="font-size: 13px;">D</text><text y="358" x="570.2247191011236" text-anchor="middle" visibility="hidden" style="font-size: 13px;">S</text><text y="358" x="574.1573033707865" text-anchor="middle" visibility="hidden" style="font-size: 13px;">P</text><text y="358" x="578.0898876404494" text-anchor="middle" visibility="hidden" style="font-size: 13px;">L</text><text y="358" x="582.0224719101124" text-anchor="middle" visibility="hidden" style="font-size: 13px;">N</text><text y="358" x="585.9550561797753" text-anchor="middle" visibility="hidden" style="font-size: 13px;">T</text><text y="358" x="589.8876404494382" text-anchor="middle" visibility="hidden" style="font-size: 13px;">H</text><text y="358" x="593.8202247191011" text-anchor="middle" visibility="hidden" style="font-size: 13px;">A</text><text y="358" x="597.7528089887641" text-anchor="middle" visibility="hidden" style="font-size: 13px;">A</text><text y="358" x="601.685393258427" text-anchor="middle" visibility="hidden" style="font-size: 13px;">E</text><text y="358" x="605.6179775280899" text-anchor="middle" visibility="hidden" style="font-size: 13px;">L</text><text y="358" x="609.5505617977528" text-anchor="middle" visibility="hidden" style="font-size: 13px;">W</text><text y="358" x="613.4831460674158" text-anchor="middle" visibility="hidden" style="font-size: 13px;">K</text><text y="358" x="617.4157303370787" text-anchor="middle" visibility="hidden" style="font-size: 13px;">N</text><text y="358" x="621.3483146067415" text-anchor="middle" visibility="hidden" style="font-size: 13px;">P</text><text y="358" x="625.2808988764044" text-anchor="middle" visibility="hidden" style="font-size: 13px;">T</text><text y="358" x="629.2134831460673" text-anchor="middle" visibility="hidden" style="font-size: 13px;">A</text><text y="358" x="633.1460674157304" text-anchor="middle" visibility="hidden" style="font-size: 13px;">F</text><text y="358" x="637.0786516853933" text-anchor="middle" visibility="hidden" style="font-size: 13px;">K</text><text y="358" x="641.0112359550562" text-anchor="middle" visibility="hidden" style="font-size: 13px;">K</text><text y="358" x="644.9438202247192" text-anchor="middle" visibility="hidden" style="font-size: 13px;">Y</text><text y="358" x="648.8764044943821" text-anchor="middle" visibility="hidden" style="font-size: 13px;">L</text><text y="358" x="652.8089887640449" text-anchor="middle" visibility="hidden" style="font-size: 13px;">Q</text><text y="358" x="656.7415730337078" text-anchor="middle" visibility="hidden" style="font-size: 13px;">E</text><text y="358" x="660.6741573033707" text-anchor="middle" visibility="hidden" style="font-size: 13px;">T</text><text y="358" x="664.6067415730337" text-anchor="middle" visibility="hidden" style="font-size: 13px;">Y</text><text y="358" x="668.5393258426966" text-anchor="middle" visibility="hidden" style="font-size: 13px;">S</text><text y="358" x="672.4719101123595" text-anchor="middle" visibility="hidden" style="font-size: 13px;">K</text><text y="358" x="676.4044943820224" text-anchor="middle" visibility="hidden" style="font-size: 13px;">Q</text><text y="358" x="680.3370786516854" text-anchor="middle" visibility="hidden" style="font-size: 13px;">V</text><text y="358" x="684.2696629213483" text-anchor="middle" visibility="hidden" style="font-size: 13px;">T</text><text y="358" x="688.2022471910112" text-anchor="middle" visibility="hidden" style="font-size: 13px;">S</text><text y="358" x="692.1348314606741" text-anchor="middle" visibility="hidden" style="font-size: 13px;">Q</text><text y="358" x="696.0674157303371" text-anchor="middle" visibility="hidden" style="font-size: 13px;">E</text><text y="358" x="700" text-anchor="middle" visibility="hidden" style="font-size: 13px;">P</text></g></g></svg><g class="xAxis" transform="translate(0,360)" fill="none" font-size="10" font-family="sans-serif" text-anchor="middle"><path class="domain" stroke="#000" d="M0.5,6V0.5H700.5V6"></path><g class="tick" opacity="1" transform="translate(75.21910112359551,0)"><line stroke="#000" y2="6"></line><text fill="#000" y="9" dy="0.71em">20</text></g><g class="tick" opacity="1" transform="translate(153.87078651685394,0)"><line stroke="#000" y2="6"></line><text fill="#000" y="9" dy="0.71em">40</text></g><g class="tick" opacity="1" transform="translate(232.52247191011233,0)"><line stroke="#000" y2="6"></line><text fill="#000" y="9" dy="0.71em">60</text></g><g class="tick" opacity="1" transform="translate(311.17415730337075,0)"><line stroke="#000" y2="6"></line><text fill="#000" y="9" dy="0.71em">80</text></g><g class="tick" opacity="1" transform="translate(389.82584269662925,0)"><line stroke="#000" y2="6"></line><text fill="#000" y="9" dy="0.71em">100</text></g><g class="tick" opacity="1" transform="translate(468.47752808988764,0)"><line stroke="#000" y2="6"></line><text fill="#000" y="9" dy="0.71em">120</text></g><g class="tick" opacity="1" transform="translate(547.129213483146,0)"><line stroke="#000" y2="6"></line><text fill="#000" y="9" dy="0.71em">140</text></g><g class="tick" opacity="1" transform="translate(625.7808988764044,0)"><line stroke="#000" y2="6"></line><text fill="#000" y="9" dy="0.71em">160</text></g></g><text class="x label" text-anchor="end" x="700" y="390" style="font-size: 13px; font-family: Arial;">Residue number</text><g class="yAxis" fill="none" font-size="10" font-family="sans-serif" text-anchor="end"><path class="domain" stroke="#000" d="M-6,360.5H0.5V0.5H-6"></path><g class="tick" opacity="1" transform="translate(0,327.77272727272725)"><line stroke="#000" x2="-6"></line><text fill="#000" x="-9" dy="0.32em">0</text></g><g class="tick" opacity="1" transform="translate(0,284.65379087315847)"><line stroke="#000" x2="-6"></line><text fill="#000" x="-9" dy="0.32em">10</text></g><g class="tick" opacity="1" transform="translate(0,241.5348544735897)"><line stroke="#000" x2="-6"></line><text fill="#000" x="-9" dy="0.32em">20</text></g><g class="tick" opacity="1" transform="translate(0,198.41591807402085)"><line stroke="#000" x2="-6"></line><text fill="#000" x="-9" dy="0.32em">30</text></g><g class="tick" opacity="1" transform="translate(0,155.29698167445204)"><line stroke="#000" x2="-6"></line><text fill="#000" x="-9" dy="0.32em">40</text></g><g class="tick" opacity="1" transform="translate(0,112.1780452748832)"><line stroke="#000" x2="-6"></line><text fill="#000" x="-9" dy="0.32em">50</text></g><g class="tick" opacity="1" transform="translate(0,69.05910887531445)"><line stroke="#000" x2="-6"></line><text fill="#000" x="-9" dy="0.32em">60</text></g><g class="tick" opacity="1" transform="translate(0,25.940172475745612)"><line stroke="#000" x2="-6"></line><text fill="#000" x="-9" dy="0.32em">70</text></g></g><text class="y label" text-anchor="middle" y="-50" x="-180" dy="0.8em" transform="rotate(-90)" style="font-size: 13px; font-family: Arial;">Total number of references</text><g class="axisRed" fill="none" font-size="10" font-family="sans-serif" text-anchor="start" visibility="hidden" transform="translate(700, 0)"><path class="domain" stroke="#000" d="M6,360.5H0.5V0.5H6"></path><g class="tick" opacity="1" transform="translate(0,360.5)"><line stroke="#000" x2="6"></line><text fill="#000" x="9" dy="0.32em">0</text></g><text text-anchor="start" dx="5.2em" dy="-2.6em" transform="rotate(90)" visibility="hidden" style="font-size: 12px; font-family: Arial; fill: #d7301f;">No recurrent (&gt;2) missense mutations!</text></g><g class="axisPurple" fill="none" font-size="10" font-family="sans-serif" text-anchor="start" visibility="hidden"><path class="domain" stroke="#000" d="M6,360.5H0.5V0.5H6"></path><g class="tick" opacity="1" transform="translate(0,357.52479338842977)"><line stroke="#000" x2="6"></line><text fill="#000" x="9" dy="0.32em"></text></g><g class="tick" opacity="1" transform="translate(0,327.77272727272725)"><line stroke="#000" x2="6"></line><text fill="#000" x="9" dy="0.32em">0</text></g><g class="tick" opacity="1" transform="translate(0,298.0206611570248)"><line stroke="#000" x2="6"></line><text fill="#000" x="9" dy="0.32em">0.1</text></g><g class="tick" opacity="1" transform="translate(0,268.2685950413223)"><line stroke="#000" x2="6"></line><text fill="#000" x="9" dy="0.32em">0.2</text></g><g class="tick" opacity="1" transform="translate(0,238.51652892561984)"><line stroke="#000" x2="6"></line><text fill="#000" x="9" dy="0.32em">0.3</text></g><g class="tick" opacity="1" transform="translate(0,208.76446280991738)"><line stroke="#000" x2="6"></line><text fill="#000" x="9" dy="0.32em">0.4</text></g><g class="tick" opacity="1" transform="translate(0,179.0123966942149)"><line stroke="#000" x2="6"></line><text fill="#000" x="9" dy="0.32em">0.5</text></g><g class="tick" opacity="1" transform="translate(0,149.26033057851242)"><line stroke="#000" x2="6"></line><text fill="#000" x="9" dy="0.32em">0.6</text></g><g class="tick" opacity="1" transform="translate(0,119.50826446280996)"><line stroke="#000" x2="6"></line><text fill="#000" x="9" dy="0.32em">0.7</text></g><g class="tick" opacity="1" transform="translate(0,89.75619834710744)"><line stroke="#000" x2="6"></line><text fill="#000" x="9" dy="0.32em">0.8</text></g><g class="tick" opacity="1" transform="translate(0,60.00413223140498)"><line stroke="#000" x2="6"></line><text fill="#000" x="9" dy="0.32em">0.9</text></g><g class="tick" opacity="1" transform="translate(0,30.25206611570252)"><line stroke="#000" x2="6"></line><text fill="#000" x="9" dy="0.32em">1</text></g><g class="tick" opacity="1" transform="translate(0,0.5)"><line stroke="#000" x2="6"></line><text fill="#000" x="9" dy="0.32em">1.1</text></g><text text-anchor="start" x="10" y="10" visibility="hidden" style="font-size: 12px; font-family: Arial; fill: #807dba;">No disease causing germline SNPs known!</text></g><circle cx="636" cy="15" r="10" class="compassNav" style="fill: #ffffff; stroke: #666666; stroke-width: 1px;"></circle><path d="M440.935 12.574l3.966 82.766C399.416 41.904 331.674 8 256 8 134.813 8 33.933 94.924 12.296 209.824 10.908 217.193 16.604 224 24.103 224h49.084c5.57 0 10.377-3.842 11.676-9.259C103.407 137.408 172.931 80 256 80c60.893 0 114.512 30.856 146.104 77.801l-101.53-4.865c-6.845-.328-12.574 5.133-12.574 11.986v47.411c0 6.627 5.373 12 12 12h200.333c6.627 0 12-5.373 12-12V12c0-6.627-5.373-12-12-12h-47.411c-6.853 0-12.315 5.729-11.987 12.574zM256 432c-60.895 0-114.517-30.858-146.109-77.805l101.868 4.871c6.845.327 12.573-5.134 12.573-11.986v-47.412c0-6.627-5.373-12-12-12H12c-6.627 0-12 5.373-12 12V500c0 6.627 5.373 12 12 12h47.385c6.863 0 12.328-5.745 11.985-12.599l-4.129-82.575C112.725 470.166 180.405 504 256 504c121.187 0 222.067-86.924 243.704-201.824 1.388-7.369-4.308-14.176-11.807-14.176h-49.084c-5.57 0-10.377 3.842-11.676 9.259C408.593 374.592 339.069 432 256 432z" class="compassNav" transform="translate(631, 10) scale(0.02)" style="fill: #666666; stroke: #666666; stroke-width: 1px;"></path><circle cx="658" cy="15" r="10" class="compassNav" style="fill: #ffffff; stroke: #666666; stroke-width: 1px;"></circle><line class="compassNav" stroke-width="2" stroke="#666666" x1="654" y1="15" x2="662" y2="15"></line><line class="compassNav" stroke-width="2" stroke="#666666" x1="658" y1="11" x2="658" y2="19"></line><circle cx="614" cy="15" r="10" class="compassNav" style="fill: #ffffff; stroke: #666666; stroke-width: 1px;"></circle><line class="compassNav" stroke-width="2" stroke="#666666" x1="610" y1="15" x2="618" y2="15"></line><path d="M582 14 l20 -12 a100,40 0 0,0 0,24z" class="compassNav" style="fill: #ffffff; stroke: #666666; stroke-width: 1px;"></path><path d="M690 14 l-20 -12 a100,40 0 0,1 0,24z" class="compassNav" style="fill: #ffffff; stroke: #666666; stroke-width: 1px;"></path><path d="M216 0h80c13.3 0 24 10.7 24 24v168h87.7c17.8 0 26.7 21.5 14.1 34.1L269.7 378.3c-7.5 7.5-19.8 7.5-27.3 0L90.1 226.1c-12.6-12.6-3.7-34.1 14.1-34.1H192V24c0-13.3 10.7-24 24-24zm296 376v112c0 13.3-10.7 24-24 24H24c-13.3 0-24-10.7-24-24V376c0-13.3 10.7-24 24-24h146.7l49 49c20.1 20.1 52.5 20.1 72.6 0l49-49H488c13.3 0 24 10.7 24 24zm-124 88c0-11-9-20-20-20s-20 9-20 20 9 20 20 20 20-9 20-20zm64 0c0-11-9-20-20-20s-20 9-20 20 9 20 20 20 20-9 20-20z" class="compassNav" transform="translate(552,0) scale(0.05)" style="fill: #336699; stroke: #336699; stroke-width: 1px; cursor: pointer;"></path></g></svg>