<svg width="800" height="400" style="background-color: white;"><g transform="translate(50,0)"><svg width="700" height="360"><g style="-webkit-tap-highlight-color: rgba(0, 0, 0, 0);"><rect width="700" height="360" style="fill: #ffffff;"></rect><g id="lines"><line class="line" stroke-width="1" stroke="#d7301f" x1="-234.88372093023256" y1="333" x2="-234.88372093023256" y2="360" visibility="hidden" style="stroke-dasharray: 3px, 3px;"></line></g><g><rect x="-239.88372093023256" y="355" width="10" height="10" visibility="hidden" style="fill: #ffffff; stroke: #d7301f;"></rect></g><g id="lines"><line class="line" stroke-width="1" stroke="#6a51a3" x1="-234.88372093023256" y1="333" x2="-234.88372093023256" y2="327.27272727272725" visibility="hidden" style="stroke-dasharray: 3px, 3px;"></line></g><g><rect x="-239.88372093023256" y="322.27272727272725" width="10" height="10" visibility="hidden" style="fill: #ffffff; stroke: #6a51a3;"></rect></g><g id="lines"><line class="line" stroke-width="1" stroke="#666666" x1="127.90697674418605" y1="333" x2="127.90697674418605" y2="29.75206611570252"></line><line class="line" stroke-width="1" stroke="#666666" x1="218.6046511627907" y1="333" x2="218.6046511627907" y2="29.75206611570252"></line><line class="line" stroke-width="1" stroke="#666666" x1="316.27906976744185" y1="333" x2="316.27906976744185" y2="29.75206611570252"></line><line class="line" stroke-width="1" stroke="#666666" x1="520.9302325581396" y1="333" x2="520.9302325581396" y2="29.75206611570252"></line><line class="line" stroke-width="1" stroke="#666666" x1="660.4651162790698" y1="333" x2="660.4651162790698" y2="29.75206611570252"></line><line class="line" stroke-width="1" stroke="#666666" x1="679.0697674418604" y1="333" x2="679.0697674418604" y2="29.75206611570252"></line></g><g id="circles"><circle r="4" cx="127.90697674418605" cy="29.75206611570252" style="fill: #4393c3; stroke: #666666; stroke-width: 1px;"></circle><circle r="4" cx="218.6046511627907" cy="29.75206611570252" style="fill: #666666; stroke: #666666; stroke-width: 1px;"></circle><circle r="4" cx="316.27906976744185" cy="29.75206611570252" style="fill: #666666; stroke: #666666; stroke-width: 1px;"></circle><circle r="4" cx="520.9302325581396" cy="29.75206611570252" style="fill: #666666; stroke: #666666; stroke-width: 1px;"></circle><circle r="4" cx="660.4651162790698" cy="29.75206611570252" style="fill: #4393c3; stroke: #666666; stroke-width: 1px;"></circle><circle r="4" cx="679.0697674418604" cy="29.75206611570252" style="fill: #4393c3; stroke: #666666; stroke-width: 1px;"></circle></g><g><rect x="0" y="333" width="700" height="12" style="fill: #ffffff; stroke-width: 1px; stroke: #666666;"></rect><rect x="44.18604651162791" y="333" width="262.7906976744186" height="12" style="fill: #aec7e8; stroke-width: 1px; stroke: #666666;"></rect><rect x="320.93023255813955" y="333" width="200" height="12" style="fill: #ffbb78; stroke-width: 1px; stroke: #666666;"></rect><rect x="595.3488372093024" y="333" width="46.51162790697674" height="12" style="fill: #98df8a; stroke-width: 1px; stroke: #666666;"></rect></g><g><a target="_blank" xlink:href="http://pfam.xfam.org/family/"><text y="343" x="350" text-anchor="middle" style="color: rgb(102, 102, 102); font-weight: normal; font-size: 12px; font-family: Arial; cursor: pointer;"></text></a><a target="_blank" xlink:href="http://pfam.xfam.org/family/V-set"><text y="343" x="175.58139534883722" text-anchor="middle" style="color: rgb(102, 102, 102); font-weight: normal; font-size: 12px; font-family: Arial; cursor: pointer;">V-set</text></a><a target="_blank" xlink:href="http://pfam.xfam.org/family/C2-set_2"><text y="343" x="420.93023255813955" text-anchor="middle" style="color: rgb(102, 102, 102); font-weight: normal; font-size: 12px; font-family: Arial; cursor: pointer;">C2-set_2</text></a><a target="_blank" xlink:href="http://pfam.xfam.org/family/TM"><text y="343" x="618.6046511627908" text-anchor="middle" style="color: rgb(102, 102, 102); font-weight: normal; font-size: 12px; font-family: Arial; cursor: pointer;">TM</text></a></g><g><text y="358" x="0" text-anchor="middle" visibility="hidden" style="font-size: 13px;">M</text><text y="358" x="2.3255813953488373" text-anchor="middle" visibility="hidden" style="font-size: 13px;">R</text><text y="358" x="4.651162790697675" text-anchor="middle" visibility="hidden" style="font-size: 13px;">L</text><text y="358" x="6.976744186046512" text-anchor="middle" visibility="hidden" style="font-size: 13px;">G</text><text y="358" x="9.30232558139535" text-anchor="middle" visibility="hidden" style="font-size: 13px;">S</text><text y="358" x="11.627906976744187" text-anchor="middle" visibility="hidden" style="font-size: 13px;">P</text><text y="358" x="13.953488372093023" text-anchor="middle" visibility="hidden" style="font-size: 13px;">G</text><text y="358" x="16.27906976744186" text-anchor="middle" visibility="hidden" style="font-size: 13px;">L</text><text y="358" x="18.6046511627907" text-anchor="middle" visibility="hidden" style="font-size: 13px;">L</text><text y="358" x="20.930232558139537" text-anchor="middle" visibility="hidden" style="font-size: 13px;">F</text><text y="358" x="23.255813953488374" text-anchor="middle" visibility="hidden" style="font-size: 13px;">L</text><text y="358" x="25.581395348837212" text-anchor="middle" visibility="hidden" style="font-size: 13px;">L</text><text y="358" x="27.906976744186046" text-anchor="middle" visibility="hidden" style="font-size: 13px;">F</text><text y="358" x="30.232558139534884" text-anchor="middle" visibility="hidden" style="font-size: 13px;">S</text><text y="358" x="32.55813953488372" text-anchor="middle" visibility="hidden" style="font-size: 13px;">S</text><text y="358" x="34.883720930232556" text-anchor="middle" visibility="hidden" style="font-size: 13px;">L</text><text y="358" x="37.2093023255814" text-anchor="middle" visibility="hidden" style="font-size: 13px;">R</text><text y="358" x="39.53488372093023" text-anchor="middle" visibility="hidden" style="font-size: 13px;">A</text><text y="358" x="41.86046511627907" text-anchor="middle" visibility="hidden" style="font-size: 13px;">D</text><text y="358" x="44.18604651162791" text-anchor="middle" visibility="hidden" style="font-size: 13px;">T</text><text y="358" x="46.51162790697675" text-anchor="middle" visibility="hidden" style="font-size: 13px;">Q</text><text y="358" x="48.83720930232558" text-anchor="middle" visibility="hidden" style="font-size: 13px;">E</text><text y="358" x="51.162790697674424" text-anchor="middle" visibility="hidden" style="font-size: 13px;">K</text><text y="358" x="53.48837209302326" text-anchor="middle" visibility="hidden" style="font-size: 13px;">E</text><text y="358" x="55.81395348837209" text-anchor="middle" visibility="hidden" style="font-size: 13px;">V</text><text y="358" x="58.139534883720934" text-anchor="middle" visibility="hidden" style="font-size: 13px;">R</text><text y="358" x="60.46511627906977" text-anchor="middle" visibility="hidden" style="font-size: 13px;">A</text><text y="358" x="62.79069767441861" text-anchor="middle" visibility="hidden" style="font-size: 13px;">M</text><text y="358" x="65.11627906976744" text-anchor="middle" visibility="hidden" style="font-size: 13px;">V</text><text y="358" x="67.44186046511628" text-anchor="middle" visibility="hidden" style="font-size: 13px;">G</text><text y="358" x="69.76744186046511" text-anchor="middle" visibility="hidden" style="font-size: 13px;">S</text><text y="358" x="72.09302325581395" text-anchor="middle" visibility="hidden" style="font-size: 13px;">D</text><text y="358" x="74.4186046511628" text-anchor="middle" visibility="hidden" style="font-size: 13px;">V</text><text y="358" x="76.74418604651163" text-anchor="middle" visibility="hidden" style="font-size: 13px;">E</text><text y="358" x="79.06976744186046" text-anchor="middle" visibility="hidden" style="font-size: 13px;">L</text><text y="358" x="81.3953488372093" text-anchor="middle" visibility="hidden" style="font-size: 13px;">S</text><text y="358" x="83.72093023255815" text-anchor="middle" visibility="hidden" style="font-size: 13px;">C</text><text y="358" x="86.04651162790698" text-anchor="middle" visibility="hidden" style="font-size: 13px;">A</text><text y="358" x="88.37209302325581" text-anchor="middle" visibility="hidden" style="font-size: 13px;">C</text><text y="358" x="90.69767441860465" text-anchor="middle" visibility="hidden" style="font-size: 13px;">P</text><text y="358" x="93.0232558139535" text-anchor="middle" visibility="hidden" style="font-size: 13px;">E</text><text y="358" x="95.34883720930233" text-anchor="middle" visibility="hidden" style="font-size: 13px;">G</text><text y="358" x="97.67441860465117" text-anchor="middle" visibility="hidden" style="font-size: 13px;">S</text><text y="358" x="100" text-anchor="middle" visibility="hidden" style="font-size: 13px;">R</text><text y="358" x="102.32558139534885" text-anchor="middle" visibility="hidden" style="font-size: 13px;">F</text><text y="358" x="104.65116279069768" text-anchor="middle" visibility="hidden" style="font-size: 13px;">D</text><text y="358" x="106.97674418604652" text-anchor="middle" visibility="hidden" style="font-size: 13px;">L</text><text y="358" x="109.30232558139535" text-anchor="middle" visibility="hidden" style="font-size: 13px;">N</text><text y="358" x="111.62790697674419" text-anchor="middle" visibility="hidden" style="font-size: 13px;">D</text><text y="358" x="113.95348837209303" text-anchor="middle" visibility="hidden" style="font-size: 13px;">V</text><text y="358" x="116.27906976744187" text-anchor="middle" visibility="hidden" style="font-size: 13px;">Y</text><text y="358" x="118.6046511627907" text-anchor="middle" visibility="hidden" style="font-size: 13px;">V</text><text y="358" x="120.93023255813954" text-anchor="middle" visibility="hidden" style="font-size: 13px;">Y</text><text y="358" x="123.25581395348836" text-anchor="middle" visibility="hidden" style="font-size: 13px;">W</text><text y="358" x="125.58139534883722" text-anchor="middle" visibility="hidden" style="font-size: 13px;">Q</text><text y="358" x="127.90697674418605" text-anchor="middle" visibility="hidden" style="font-size: 13px;">T</text><text y="358" x="130.2325581395349" text-anchor="middle" visibility="hidden" style="font-size: 13px;">S</text><text y="358" x="132.5581395348837" text-anchor="middle" visibility="hidden" style="font-size: 13px;">E</text><text y="358" x="134.88372093023256" text-anchor="middle" visibility="hidden" style="font-size: 13px;">S</text><text y="358" x="137.2093023255814" text-anchor="middle" visibility="hidden" style="font-size: 13px;">K</text><text y="358" x="139.53488372093022" text-anchor="middle" visibility="hidden" style="font-size: 13px;">T</text><text y="358" x="141.86046511627907" text-anchor="middle" visibility="hidden" style="font-size: 13px;">V</text><text y="358" x="144.1860465116279" text-anchor="middle" visibility="hidden" style="font-size: 13px;">V</text><text y="358" x="146.51162790697674" text-anchor="middle" visibility="hidden" style="font-size: 13px;">T</text><text y="358" x="148.8372093023256" text-anchor="middle" visibility="hidden" style="font-size: 13px;">Y</text><text y="358" x="151.1627906976744" text-anchor="middle" visibility="hidden" style="font-size: 13px;">H</text><text y="358" x="153.48837209302326" text-anchor="middle" visibility="hidden" style="font-size: 13px;">I</text><text y="358" x="155.81395348837208" text-anchor="middle" visibility="hidden" style="font-size: 13px;">P</text><text y="358" x="158.13953488372093" text-anchor="middle" visibility="hidden" style="font-size: 13px;">Q</text><text y="358" x="160.46511627906978" text-anchor="middle" visibility="hidden" style="font-size: 13px;">N</text><text y="358" x="162.7906976744186" text-anchor="middle" visibility="hidden" style="font-size: 13px;">S</text><text y="358" x="165.11627906976744" text-anchor="middle" visibility="hidden" style="font-size: 13px;">S</text><text y="358" x="167.4418604651163" text-anchor="middle" visibility="hidden" style="font-size: 13px;">L</text><text y="358" x="169.7674418604651" text-anchor="middle" visibility="hidden" style="font-size: 13px;">E</text><text y="358" x="172.09302325581396" text-anchor="middle" visibility="hidden" style="font-size: 13px;">N</text><text y="358" x="174.41860465116278" text-anchor="middle" visibility="hidden" style="font-size: 13px;">V</text><text y="358" x="176.74418604651163" text-anchor="middle" visibility="hidden" style="font-size: 13px;">D</text><text y="358" x="179.06976744186048" text-anchor="middle" visibility="hidden" style="font-size: 13px;">S</text><text y="358" x="181.3953488372093" text-anchor="middle" visibility="hidden" style="font-size: 13px;">R</text><text y="358" x="183.72093023255815" text-anchor="middle" visibility="hidden" style="font-size: 13px;">Y</text><text y="358" x="186.046511627907" text-anchor="middle" visibility="hidden" style="font-size: 13px;">R</text><text y="358" x="188.37209302325581" text-anchor="middle" visibility="hidden" style="font-size: 13px;">N</text><text y="358" x="190.69767441860466" text-anchor="middle" visibility="hidden" style="font-size: 13px;">R</text><text y="358" x="193.02325581395348" text-anchor="middle" visibility="hidden" style="font-size: 13px;">A</text><text y="358" x="195.34883720930233" text-anchor="middle" visibility="hidden" style="font-size: 13px;">L</text><text y="358" x="197.67441860465118" text-anchor="middle" visibility="hidden" style="font-size: 13px;">M</text><text y="358" x="200" text-anchor="middle" visibility="hidden" style="font-size: 13px;">S</text><text y="358" x="202.32558139534885" text-anchor="middle" visibility="hidden" style="font-size: 13px;">P</text><text y="358" x="204.6511627906977" text-anchor="middle" visibility="hidden" style="font-size: 13px;">A</text><text y="358" x="206.97674418604652" text-anchor="middle" visibility="hidden" style="font-size: 13px;">G</text><text y="358" x="209.30232558139537" text-anchor="middle" visibility="hidden" style="font-size: 13px;">M</text><text y="358" x="211.62790697674419" text-anchor="middle" visibility="hidden" style="font-size: 13px;">L</text><text y="358" x="213.95348837209303" text-anchor="middle" visibility="hidden" style="font-size: 13px;">R</text><text y="358" x="216.27906976744188" text-anchor="middle" visibility="hidden" style="font-size: 13px;">G</text><text y="358" x="218.6046511627907" text-anchor="middle" visibility="hidden" style="font-size: 13px;">D</text><text y="358" x="220.93023255813955" text-anchor="middle" visibility="hidden" style="font-size: 13px;">F</text><text y="358" x="223.25581395348837" text-anchor="middle" visibility="hidden" style="font-size: 13px;">S</text><text y="358" x="225.58139534883722" text-anchor="middle" visibility="hidden" style="font-size: 13px;">L</text><text y="358" x="227.90697674418607" text-anchor="middle" visibility="hidden" style="font-size: 13px;">R</text><text y="358" x="230.2325581395349" text-anchor="middle" visibility="hidden" style="font-size: 13px;">L</text><text y="358" x="232.55813953488374" text-anchor="middle" visibility="hidden" style="font-size: 13px;">F</text><text y="358" x="234.88372093023256" text-anchor="middle" visibility="hidden" style="font-size: 13px;">N</text><text y="358" x="237.2093023255814" text-anchor="middle" visibility="hidden" style="font-size: 13px;">V</text><text y="358" x="239.53488372093025" text-anchor="middle" visibility="hidden" style="font-size: 13px;">T</text><text y="358" x="241.86046511627907" text-anchor="middle" visibility="hidden" style="font-size: 13px;">P</text><text y="358" x="244.18604651162792" text-anchor="middle" visibility="hidden" style="font-size: 13px;">Q</text><text y="358" x="246.5116279069767" text-anchor="middle" visibility="hidden" style="font-size: 13px;">D</text><text y="358" x="248.8372093023256" text-anchor="middle" visibility="hidden" style="font-size: 13px;">E</text><text y="358" x="251.16279069767444" text-anchor="middle" visibility="hidden" style="font-size: 13px;">Q</text><text y="358" x="253.48837209302326" text-anchor="middle" visibility="hidden" style="font-size: 13px;">K</text><text y="358" x="255.8139534883721" text-anchor="middle" visibility="hidden" style="font-size: 13px;">F</text><text y="358" x="258.1395348837209" text-anchor="middle" visibility="hidden" style="font-size: 13px;">H</text><text y="358" x="260.4651162790698" text-anchor="middle" visibility="hidden" style="font-size: 13px;">C</text><text y="358" x="262.7906976744186" text-anchor="middle" visibility="hidden" style="font-size: 13px;">L</text><text y="358" x="265.1162790697674" text-anchor="middle" visibility="hidden" style="font-size: 13px;">V</text><text y="358" x="267.4418604651163" text-anchor="middle" visibility="hidden" style="font-size: 13px;">L</text><text y="358" x="269.7674418604651" text-anchor="middle" visibility="hidden" style="font-size: 13px;">S</text><text y="358" x="272.09302325581393" text-anchor="middle" visibility="hidden" style="font-size: 13px;">Q</text><text y="358" x="274.4186046511628" text-anchor="middle" visibility="hidden" style="font-size: 13px;">S</text><text y="358" x="276.74418604651163" text-anchor="middle" visibility="hidden" style="font-size: 13px;">L</text><text y="358" x="279.06976744186045" text-anchor="middle" visibility="hidden" style="font-size: 13px;">G</text><text y="358" x="281.3953488372093" text-anchor="middle" visibility="hidden" style="font-size: 13px;">F</text><text y="358" x="283.72093023255815" text-anchor="middle" visibility="hidden" style="font-size: 13px;">Q</text><text y="358" x="286.04651162790697" text-anchor="middle" visibility="hidden" style="font-size: 13px;">E</text><text y="358" x="288.3720930232558" text-anchor="middle" visibility="hidden" style="font-size: 13px;">V</text><text y="358" x="290.69767441860466" text-anchor="middle" visibility="hidden" style="font-size: 13px;">L</text><text y="358" x="293.0232558139535" text-anchor="middle" visibility="hidden" style="font-size: 13px;">S</text><text y="358" x="295.3488372093023" text-anchor="middle" visibility="hidden" style="font-size: 13px;">V</text><text y="358" x="297.6744186046512" text-anchor="middle" visibility="hidden" style="font-size: 13px;">E</text><text y="358" x="300" text-anchor="middle" visibility="hidden" style="font-size: 13px;">V</text><text y="358" x="302.3255813953488" text-anchor="middle" visibility="hidden" style="font-size: 13px;">T</text><text y="358" x="304.6511627906977" text-anchor="middle" visibility="hidden" style="font-size: 13px;">L</text><text y="358" x="306.9767441860465" text-anchor="middle" visibility="hidden" style="font-size: 13px;">H</text><text y="358" x="309.30232558139534" text-anchor="middle" visibility="hidden" style="font-size: 13px;">V</text><text y="358" x="311.62790697674416" text-anchor="middle" visibility="hidden" style="font-size: 13px;">A</text><text y="358" x="313.95348837209303" text-anchor="middle" visibility="hidden" style="font-size: 13px;">A</text><text y="358" x="316.27906976744185" text-anchor="middle" visibility="hidden" style="font-size: 13px;">N</text><text y="358" x="318.6046511627907" text-anchor="middle" visibility="hidden" style="font-size: 13px;">F</text><text y="358" x="320.93023255813955" text-anchor="middle" visibility="hidden" style="font-size: 13px;">S</text><text y="358" x="323.25581395348837" text-anchor="middle" visibility="hidden" style="font-size: 13px;">V</text><text y="358" x="325.5813953488372" text-anchor="middle" visibility="hidden" style="font-size: 13px;">P</text><text y="358" x="327.90697674418607" text-anchor="middle" visibility="hidden" style="font-size: 13px;">V</text><text y="358" x="330.2325581395349" text-anchor="middle" visibility="hidden" style="font-size: 13px;">V</text><text y="358" x="332.5581395348837" text-anchor="middle" visibility="hidden" style="font-size: 13px;">S</text><text y="358" x="334.8837209302326" text-anchor="middle" visibility="hidden" style="font-size: 13px;">A</text><text y="358" x="337.2093023255814" text-anchor="middle" visibility="hidden" style="font-size: 13px;">P</text><text y="358" x="339.5348837209302" text-anchor="middle" visibility="hidden" style="font-size: 13px;">H</text><text y="358" x="341.86046511627904" text-anchor="middle" visibility="hidden" style="font-size: 13px;">S</text><text y="358" x="344.1860465116279" text-anchor="middle" visibility="hidden" style="font-size: 13px;">P</text><text y="358" x="346.51162790697674" text-anchor="middle" visibility="hidden" style="font-size: 13px;">S</text><text y="358" x="348.83720930232556" text-anchor="middle" visibility="hidden" style="font-size: 13px;">Q</text><text y="358" x="351.1627906976744" text-anchor="middle" visibility="hidden" style="font-size: 13px;">D</text><text y="358" x="353.48837209302326" text-anchor="middle" visibility="hidden" style="font-size: 13px;">E</text><text y="358" x="355.8139534883721" text-anchor="middle" visibility="hidden" style="font-size: 13px;">L</text><text y="358" x="358.13953488372096" text-anchor="middle" visibility="hidden" style="font-size: 13px;">T</text><text y="358" x="360.4651162790698" text-anchor="middle" visibility="hidden" style="font-size: 13px;">F</text><text y="358" x="362.7906976744186" text-anchor="middle" visibility="hidden" style="font-size: 13px;">T</text><text y="358" x="365.1162790697674" text-anchor="middle" visibility="hidden" style="font-size: 13px;">C</text><text y="358" x="367.4418604651163" text-anchor="middle" visibility="hidden" style="font-size: 13px;">T</text><text y="358" x="369.7674418604651" text-anchor="middle" visibility="hidden" style="font-size: 13px;">S</text><text y="358" x="372.093023255814" text-anchor="middle" visibility="hidden" style="font-size: 13px;">I</text><text y="358" x="374.41860465116275" text-anchor="middle" visibility="hidden" style="font-size: 13px;">N</text><text y="358" x="376.74418604651163" text-anchor="middle" visibility="hidden" style="font-size: 13px;">G</text><text y="358" x="379.06976744186045" text-anchor="middle" visibility="hidden" style="font-size: 13px;">Y</text><text y="358" x="381.3953488372093" text-anchor="middle" visibility="hidden" style="font-size: 13px;">P</text><text y="358" x="383.72093023255815" text-anchor="middle" visibility="hidden" style="font-size: 13px;">R</text><text y="358" x="386.04651162790697" text-anchor="middle" visibility="hidden" style="font-size: 13px;">P</text><text y="358" x="388.3720930232558" text-anchor="middle" visibility="hidden" style="font-size: 13px;">N</text><text y="358" x="390.69767441860466" text-anchor="middle" visibility="hidden" style="font-size: 13px;">V</text><text y="358" x="393.0232558139535" text-anchor="middle" visibility="hidden" style="font-size: 13px;">Y</text><text y="358" x="395.34883720930236" text-anchor="middle" visibility="hidden" style="font-size: 13px;">W</text><text y="358" x="397.6744186046511" text-anchor="middle" visibility="hidden" style="font-size: 13px;">I</text><text y="358" x="400" text-anchor="middle" visibility="hidden" style="font-size: 13px;">N</text><text y="358" x="402.3255813953488" text-anchor="middle" visibility="hidden" style="font-size: 13px;">K</text><text y="358" x="404.6511627906977" text-anchor="middle" visibility="hidden" style="font-size: 13px;">T</text><text y="358" x="406.9767441860465" text-anchor="middle" visibility="hidden" style="font-size: 13px;">D</text><text y="358" x="409.3023255813954" text-anchor="middle" visibility="hidden" style="font-size: 13px;">N</text><text y="358" x="411.62790697674416" text-anchor="middle" visibility="hidden" style="font-size: 13px;">S</text><text y="358" x="413.95348837209303" text-anchor="middle" visibility="hidden" style="font-size: 13px;">L</text><text y="358" x="416.27906976744185" text-anchor="middle" visibility="hidden" style="font-size: 13px;">L</text><text y="358" x="418.60465116279073" text-anchor="middle" visibility="hidden" style="font-size: 13px;">D</text><text y="358" x="420.93023255813955" text-anchor="middle" visibility="hidden" style="font-size: 13px;">Q</text><text y="358" x="423.25581395348837" text-anchor="middle" visibility="hidden" style="font-size: 13px;">A</text><text y="358" x="425.5813953488372" text-anchor="middle" visibility="hidden" style="font-size: 13px;">L</text><text y="358" x="427.90697674418607" text-anchor="middle" visibility="hidden" style="font-size: 13px;">Q</text><text y="358" x="430.2325581395349" text-anchor="middle" visibility="hidden" style="font-size: 13px;">N</text><text y="358" x="432.55813953488376" text-anchor="middle" visibility="hidden" style="font-size: 13px;">D</text><text y="358" x="434.8837209302325" text-anchor="middle" visibility="hidden" style="font-size: 13px;">T</text><text y="358" x="437.2093023255814" text-anchor="middle" visibility="hidden" style="font-size: 13px;">V</text><text y="358" x="439.5348837209302" text-anchor="middle" visibility="hidden" style="font-size: 13px;">F</text><text y="358" x="441.8604651162791" text-anchor="middle" visibility="hidden" style="font-size: 13px;">L</text><text y="358" x="444.1860465116279" text-anchor="middle" visibility="hidden" style="font-size: 13px;">N</text><text y="358" x="446.51162790697674" text-anchor="middle" visibility="hidden" style="font-size: 13px;">M</text><text y="358" x="448.83720930232556" text-anchor="middle" visibility="hidden" style="font-size: 13px;">R</text><text y="358" x="451.16279069767444" text-anchor="middle" visibility="hidden" style="font-size: 13px;">G</text><text y="358" x="453.48837209302326" text-anchor="middle" visibility="hidden" style="font-size: 13px;">L</text><text y="358" x="455.81395348837214" text-anchor="middle" visibility="hidden" style="font-size: 13px;">Y</text><text y="358" x="458.1395348837209" text-anchor="middle" visibility="hidden" style="font-size: 13px;">D</text><text y="358" x="460.4651162790698" text-anchor="middle" visibility="hidden" style="font-size: 13px;">V</text><text y="358" x="462.7906976744186" text-anchor="middle" visibility="hidden" style="font-size: 13px;">V</text><text y="358" x="465.1162790697675" text-anchor="middle" visibility="hidden" style="font-size: 13px;">S</text><text y="358" x="467.4418604651163" text-anchor="middle" visibility="hidden" style="font-size: 13px;">V</text><text y="358" x="469.7674418604651" text-anchor="middle" visibility="hidden" style="font-size: 13px;">L</text><text y="358" x="472.09302325581393" text-anchor="middle" visibility="hidden" style="font-size: 13px;">R</text><text y="358" x="474.4186046511628" text-anchor="middle" visibility="hidden" style="font-size: 13px;">I</text><text y="358" x="476.74418604651163" text-anchor="middle" visibility="hidden" style="font-size: 13px;">A</text><text y="358" x="479.0697674418605" text-anchor="middle" visibility="hidden" style="font-size: 13px;">R</text><text y="358" x="481.39534883720927" text-anchor="middle" visibility="hidden" style="font-size: 13px;">T</text><text y="358" x="483.72093023255815" text-anchor="middle" visibility="hidden" style="font-size: 13px;">P</text><text y="358" x="486.04651162790697" text-anchor="middle" visibility="hidden" style="font-size: 13px;">S</text><text y="358" x="488.37209302325584" text-anchor="middle" visibility="hidden" style="font-size: 13px;">V</text><text y="358" x="490.69767441860466" text-anchor="middle" visibility="hidden" style="font-size: 13px;">N</text><text y="358" x="493.0232558139534" text-anchor="middle" visibility="hidden" style="font-size: 13px;">I</text><text y="358" x="495.3488372093023" text-anchor="middle" visibility="hidden" style="font-size: 13px;">G</text><text y="358" x="497.6744186046512" text-anchor="middle" visibility="hidden" style="font-size: 13px;">C</text><text y="358" x="500" text-anchor="middle" visibility="hidden" style="font-size: 13px;">C</text><text y="358" x="502.3255813953489" text-anchor="middle" visibility="hidden" style="font-size: 13px;">I</text><text y="358" x="504.65116279069764" text-anchor="middle" visibility="hidden" style="font-size: 13px;">E</text><text y="358" x="506.9767441860465" text-anchor="middle" visibility="hidden" style="font-size: 13px;">N</text><text y="358" x="509.30232558139534" text-anchor="middle" visibility="hidden" style="font-size: 13px;">V</text><text y="358" x="511.6279069767442" text-anchor="middle" visibility="hidden" style="font-size: 13px;">L</text><text y="358" x="513.953488372093" text-anchor="middle" visibility="hidden" style="font-size: 13px;">L</text><text y="358" x="516.2790697674418" text-anchor="middle" visibility="hidden" style="font-size: 13px;">Q</text><text y="358" x="518.6046511627907" text-anchor="middle" visibility="hidden" style="font-size: 13px;">Q</text><text y="358" x="520.9302325581396" text-anchor="middle" visibility="hidden" style="font-size: 13px;">N</text><text y="358" x="523.2558139534884" text-anchor="middle" visibility="hidden" style="font-size: 13px;">L</text><text y="358" x="525.5813953488372" text-anchor="middle" visibility="hidden" style="font-size: 13px;">T</text><text y="358" x="527.9069767441861" text-anchor="middle" visibility="hidden" style="font-size: 13px;">V</text><text y="358" x="530.2325581395348" text-anchor="middle" visibility="hidden" style="font-size: 13px;">G</text><text y="358" x="532.5581395348837" text-anchor="middle" visibility="hidden" style="font-size: 13px;">S</text><text y="358" x="534.8837209302326" text-anchor="middle" visibility="hidden" style="font-size: 13px;">Q</text><text y="358" x="537.2093023255815" text-anchor="middle" visibility="hidden" style="font-size: 13px;">T</text><text y="358" x="539.5348837209302" text-anchor="middle" visibility="hidden" style="font-size: 13px;">G</text><text y="358" x="541.860465116279" text-anchor="middle" visibility="hidden" style="font-size: 13px;">N</text><text y="358" x="544.1860465116279" text-anchor="middle" visibility="hidden" style="font-size: 13px;">D</text><text y="358" x="546.5116279069767" text-anchor="middle" visibility="hidden" style="font-size: 13px;">I</text><text y="358" x="548.8372093023256" text-anchor="middle" visibility="hidden" style="font-size: 13px;">G</text><text y="358" x="551.1627906976745" text-anchor="middle" visibility="hidden" style="font-size: 13px;">E</text><text y="358" x="553.4883720930233" text-anchor="middle" visibility="hidden" style="font-size: 13px;">R</text><text y="358" x="555.8139534883721" text-anchor="middle" visibility="hidden" style="font-size: 13px;">D</text><text y="358" x="558.1395348837209" text-anchor="middle" visibility="hidden" style="font-size: 13px;">K</text><text y="358" x="560.4651162790698" text-anchor="middle" visibility="hidden" style="font-size: 13px;">I</text><text y="358" x="562.7906976744187" text-anchor="middle" visibility="hidden" style="font-size: 13px;">T</text><text y="358" x="565.1162790697674" text-anchor="middle" visibility="hidden" style="font-size: 13px;">E</text><text y="358" x="567.4418604651163" text-anchor="middle" visibility="hidden" style="font-size: 13px;">N</text><text y="358" x="569.7674418604652" text-anchor="middle" visibility="hidden" style="font-size: 13px;">P</text><text y="358" x="572.0930232558139" text-anchor="middle" visibility="hidden" style="font-size: 13px;">V</text><text y="358" x="574.4186046511628" text-anchor="middle" visibility="hidden" style="font-size: 13px;">S</text><text y="358" x="576.7441860465116" text-anchor="middle" visibility="hidden" style="font-size: 13px;">T</text><text y="358" x="579.0697674418604" text-anchor="middle" visibility="hidden" style="font-size: 13px;">G</text><text y="358" x="581.3953488372093" text-anchor="middle" visibility="hidden" style="font-size: 13px;">E</text><text y="358" x="583.7209302325582" text-anchor="middle" visibility="hidden" style="font-size: 13px;">K</text><text y="358" x="586.046511627907" text-anchor="middle" visibility="hidden" style="font-size: 13px;">N</text><text y="358" x="588.3720930232557" text-anchor="middle" visibility="hidden" style="font-size: 13px;">A</text><text y="358" x="590.6976744186046" text-anchor="middle" visibility="hidden" style="font-size: 13px;">A</text><text y="358" x="593.0232558139535" text-anchor="middle" visibility="hidden" style="font-size: 13px;">T</text><text y="358" x="595.3488372093024" text-anchor="middle" visibility="hidden" style="font-size: 13px;">W</text><text y="358" x="597.6744186046512" text-anchor="middle" visibility="hidden" style="font-size: 13px;">S</text><text y="358" x="600" text-anchor="middle" visibility="hidden" style="font-size: 13px;">I</text><text y="358" x="602.3255813953488" text-anchor="middle" visibility="hidden" style="font-size: 13px;">L</text><text y="358" x="604.6511627906976" text-anchor="middle" visibility="hidden" style="font-size: 13px;">A</text><text y="358" x="606.9767441860465" text-anchor="middle" visibility="hidden" style="font-size: 13px;">V</text><text y="358" x="609.3023255813954" text-anchor="middle" visibility="hidden" style="font-size: 13px;">L</text><text y="358" x="611.6279069767442" text-anchor="middle" visibility="hidden" style="font-size: 13px;">C</text><text y="358" x="613.953488372093" text-anchor="middle" visibility="hidden" style="font-size: 13px;">L</text><text y="358" x="616.2790697674419" text-anchor="middle" visibility="hidden" style="font-size: 13px;">L</text><text y="358" x="618.6046511627907" text-anchor="middle" visibility="hidden" style="font-size: 13px;">V</text><text y="358" x="620.9302325581396" text-anchor="middle" visibility="hidden" style="font-size: 13px;">V</text><text y="358" x="623.2558139534883" text-anchor="middle" visibility="hidden" style="font-size: 13px;">V</text><text y="358" x="625.5813953488372" text-anchor="middle" visibility="hidden" style="font-size: 13px;">A</text><text y="358" x="627.9069767441861" text-anchor="middle" visibility="hidden" style="font-size: 13px;">V</text><text y="358" x="630.232558139535" text-anchor="middle" visibility="hidden" style="font-size: 13px;">A</text><text y="358" x="632.5581395348837" text-anchor="middle" visibility="hidden" style="font-size: 13px;">I</text><text y="358" x="634.8837209302325" text-anchor="middle" visibility="hidden" style="font-size: 13px;">G</text><text y="358" x="637.2093023255813" text-anchor="middle" visibility="hidden" style="font-size: 13px;">W</text><text y="358" x="639.5348837209302" text-anchor="middle" visibility="hidden" style="font-size: 13px;">V</text><text y="358" x="641.8604651162791" text-anchor="middle" visibility="hidden" style="font-size: 13px;">C</text><text y="358" x="644.186046511628" text-anchor="middle" visibility="hidden" style="font-size: 13px;">R</text><text y="358" x="646.5116279069767" text-anchor="middle" visibility="hidden" style="font-size: 13px;">D</text><text y="358" x="648.8372093023255" text-anchor="middle" visibility="hidden" style="font-size: 13px;">R</text><text y="358" x="651.1627906976744" text-anchor="middle" visibility="hidden" style="font-size: 13px;">C</text><text y="358" x="653.4883720930233" text-anchor="middle" visibility="hidden" style="font-size: 13px;">L</text><text y="358" x="655.8139534883721" text-anchor="middle" visibility="hidden" style="font-size: 13px;">Q</text><text y="358" x="658.139534883721" text-anchor="middle" visibility="hidden" style="font-size: 13px;">H</text><text y="358" x="660.4651162790698" text-anchor="middle" visibility="hidden" style="font-size: 13px;">S</text><text y="358" x="662.7906976744185" text-anchor="middle" visibility="hidden" style="font-size: 13px;">Y</text><text y="358" x="665.1162790697674" text-anchor="middle" visibility="hidden" style="font-size: 13px;">A</text><text y="358" x="667.4418604651163" text-anchor="middle" visibility="hidden" style="font-size: 13px;">G</text><text y="358" x="669.7674418604652" text-anchor="middle" visibility="hidden" style="font-size: 13px;">A</text><text y="358" x="672.0930232558139" text-anchor="middle" visibility="hidden" style="font-size: 13px;">W</text><text y="358" x="674.4186046511628" text-anchor="middle" visibility="hidden" style="font-size: 13px;">A</text><text y="358" x="676.7441860465117" text-anchor="middle" visibility="hidden" style="font-size: 13px;">V</text><text y="358" x="679.0697674418604" text-anchor="middle" visibility="hidden" style="font-size: 13px;">S</text><text y="358" x="681.3953488372093" text-anchor="middle" visibility="hidden" style="font-size: 13px;">P</text><text y="358" x="683.7209302325581" text-anchor="middle" visibility="hidden" style="font-size: 13px;">E</text><text y="358" x="686.046511627907" text-anchor="middle" visibility="hidden" style="font-size: 13px;">T</text><text y="358" x="688.3720930232558" text-anchor="middle" visibility="hidden" style="font-size: 13px;">E</text><text y="358" x="690.6976744186047" text-anchor="middle" visibility="hidden" style="font-size: 13px;">L</text><text y="358" x="693.0232558139535" text-anchor="middle" visibility="hidden" style="font-size: 13px;">T</text><text y="358" x="695.3488372093022" text-anchor="middle" visibility="hidden" style="font-size: 13px;">G</text><text y="358" x="697.6744186046511" text-anchor="middle" visibility="hidden" style="font-size: 13px;">H</text><text y="358" x="700" text-anchor="middle" visibility="hidden" style="font-size: 13px;">V</text></g></g></svg><g class="xAxis" transform="translate(0,360)" fill="none" font-size="10" font-family="sans-serif" text-anchor="middle"><path class="domain" stroke="#000" d="M0.5,6V0.5H700.5V6"></path><g class="tick" opacity="1" transform="translate(44.68604651162791,0)"><line stroke="#000" y2="6"></line><text fill="#000" y="9" dy="0.71em">20</text></g><g class="tick" opacity="1" transform="translate(91.19767441860465,0)"><line stroke="#000" y2="6"></line><text fill="#000" y="9" dy="0.71em">40</text></g><g class="tick" opacity="1" transform="translate(137.7093023255814,0)"><line stroke="#000" y2="6"></line><text fill="#000" y="9" dy="0.71em">60</text></g><g class="tick" opacity="1" transform="translate(184.22093023255815,0)"><line stroke="#000" y2="6"></line><text fill="#000" y="9" dy="0.71em">80</text></g><g class="tick" opacity="1" transform="translate(230.7325581395349,0)"><line stroke="#000" y2="6"></line><text fill="#000" y="9" dy="0.71em">100</text></g><g class="tick" opacity="1" transform="translate(277.24418604651163,0)"><line stroke="#000" y2="6"></line><text fill="#000" y="9" dy="0.71em">120</text></g><g class="tick" opacity="1" transform="translate(323.75581395348837,0)"><line stroke="#000" y2="6"></line><text fill="#000" y="9" dy="0.71em">140</text></g><g class="tick" opacity="1" transform="translate(370.2674418604651,0)"><line stroke="#000" y2="6"></line><text fill="#000" y="9" dy="0.71em">160</text></g><g class="tick" opacity="1" transform="translate(416.77906976744185,0)"><line stroke="#000" y2="6"></line><text fill="#000" y="9" dy="0.71em">180</text></g><g class="tick" opacity="1" transform="translate(463.2906976744186,0)"><line stroke="#000" y2="6"></line><text fill="#000" y="9" dy="0.71em">200</text></g><g class="tick" opacity="1" transform="translate(509.80232558139534,0)"><line stroke="#000" y2="6"></line><text fill="#000" y="9" dy="0.71em">220</text></g><g class="tick" opacity="1" transform="translate(556.3139534883721,0)"><line stroke="#000" y2="6"></line><text fill="#000" y="9" dy="0.71em">240</text></g><g class="tick" opacity="1" transform="translate(602.8255813953488,0)"><line stroke="#000" y2="6"></line><text fill="#000" y="9" dy="0.71em">260</text></g><g class="tick" opacity="1" transform="translate(649.3372093023255,0)"><line stroke="#000" y2="6"></line><text fill="#000" y="9" dy="0.71em">280</text></g><g class="tick" opacity="1" transform="translate(695.8488372093022,0)"><line stroke="#000" y2="6"></line><text fill="#000" y="9" dy="0.71em">300</text></g></g><text class="x label" text-anchor="end" x="700" y="390" style="font-size: 13px; font-family: Arial;">Residue number</text><g class="yAxis" fill="none" font-size="10" font-family="sans-serif" text-anchor="end"><path class="domain" stroke="#000" d="M-6,360.5H0.5V0.5H-6"></path><g class="tick" opacity="1" transform="translate(0,357.52479338842977)"><line stroke="#000" x2="-6"></line><text fill="#000" x="-9" dy="0.32em"></text></g><g class="tick" opacity="1" transform="translate(0,327.77272727272725)"><line stroke="#000" x2="-6"></line><text fill="#000" x="-9" dy="0.32em">0</text></g><g class="tick" opacity="1" transform="translate(0,298.0206611570248)"><line stroke="#000" x2="-6"></line><text fill="#000" x="-9" dy="0.32em">0.1</text></g><g class="tick" opacity="1" transform="translate(0,268.2685950413223)"><line stroke="#000" x2="-6"></line><text fill="#000" x="-9" dy="0.32em">0.2</text></g><g class="tick" opacity="1" transform="translate(0,238.51652892561984)"><line stroke="#000" x2="-6"></line><text fill="#000" x="-9" dy="0.32em">0.3</text></g><g class="tick" opacity="1" transform="translate(0,208.76446280991738)"><line stroke="#000" x2="-6"></line><text fill="#000" x="-9" dy="0.32em">0.4</text></g><g class="tick" opacity="1" transform="translate(0,179.0123966942149)"><line stroke="#000" x2="-6"></line><text fill="#000" x="-9" dy="0.32em">0.5</text></g><g class="tick" opacity="1" transform="translate(0,149.26033057851242)"><line stroke="#000" x2="-6"></line><text fill="#000" x="-9" dy="0.32em">0.6</text></g><g class="tick" opacity="1" transform="translate(0,119.50826446280996)"><line stroke="#000" x2="-6"></line><text fill="#000" x="-9" dy="0.32em">0.7</text></g><g class="tick" opacity="1" transform="translate(0,89.75619834710744)"><line stroke="#000" x2="-6"></line><text fill="#000" x="-9" dy="0.32em">0.8</text></g><g class="tick" opacity="1" transform="translate(0,60.00413223140498)"><line stroke="#000" x2="-6"></line><text fill="#000" x="-9" dy="0.32em">0.9</text></g><g class="tick" opacity="1" transform="translate(0,30.25206611570252)"><line stroke="#000" x2="-6"></line><text fill="#000" x="-9" dy="0.32em">1</text></g><g class="tick" opacity="1" transform="translate(0,0.5)"><line stroke="#000" x2="-6"></line><text fill="#000" x="-9" dy="0.32em">1.1</text></g></g><text class="y label" text-anchor="middle" y="-50" x="-180" dy="0.8em" transform="rotate(-90)" style="font-size: 13px; font-family: Arial;">Total number of references</text><g class="axisRed" fill="none" font-size="10" font-family="sans-serif" text-anchor="start" visibility="hidden" transform="translate(700, 0)"><path class="domain" stroke="#000" d="M6,360.5H0.5V0.5H6"></path><g class="tick" opacity="1" transform="translate(0,360.5)"><line stroke="#000" x2="6"></line><text fill="#000" x="9" dy="0.32em">0</text></g><text text-anchor="start" dx="5.2em" dy="-2.6em" transform="rotate(90)" visibility="hidden" style="font-size: 12px; font-family: Arial; fill: #d7301f;">No recurrent (&gt;2) missense mutations!</text></g><g class="axisPurple" fill="none" font-size="10" font-family="sans-serif" text-anchor="start" visibility="hidden"><path class="domain" stroke="#000" d="M6,360.5H0.5V0.5H6"></path><g class="tick" opacity="1" transform="translate(0,357.52479338842977)"><line stroke="#000" x2="6"></line><text fill="#000" x="9" dy="0.32em"></text></g><g class="tick" opacity="1" transform="translate(0,327.77272727272725)"><line stroke="#000" x2="6"></line><text fill="#000" x="9" dy="0.32em">0</text></g><g class="tick" opacity="1" transform="translate(0,298.0206611570248)"><line stroke="#000" x2="6"></line><text fill="#000" x="9" dy="0.32em">0.1</text></g><g class="tick" opacity="1" transform="translate(0,268.2685950413223)"><line stroke="#000" x2="6"></line><text fill="#000" x="9" dy="0.32em">0.2</text></g><g class="tick" opacity="1" transform="translate(0,238.51652892561984)"><line stroke="#000" x2="6"></line><text fill="#000" x="9" dy="0.32em">0.3</text></g><g class="tick" opacity="1" transform="translate(0,208.76446280991738)"><line stroke="#000" x2="6"></line><text fill="#000" x="9" dy="0.32em">0.4</text></g><g class="tick" opacity="1" transform="translate(0,179.0123966942149)"><line stroke="#000" x2="6"></line><text fill="#000" x="9" dy="0.32em">0.5</text></g><g class="tick" opacity="1" transform="translate(0,149.26033057851242)"><line stroke="#000" x2="6"></line><text fill="#000" x="9" dy="0.32em">0.6</text></g><g class="tick" opacity="1" transform="translate(0,119.50826446280996)"><line stroke="#000" x2="6"></line><text fill="#000" x="9" dy="0.32em">0.7</text></g><g class="tick" opacity="1" transform="translate(0,89.75619834710744)"><line stroke="#000" x2="6"></line><text fill="#000" x="9" dy="0.32em">0.8</text></g><g class="tick" opacity="1" transform="translate(0,60.00413223140498)"><line stroke="#000" x2="6"></line><text fill="#000" x="9" dy="0.32em">0.9</text></g><g class="tick" opacity="1" transform="translate(0,30.25206611570252)"><line stroke="#000" x2="6"></line><text fill="#000" x="9" dy="0.32em">1</text></g><g class="tick" opacity="1" transform="translate(0,0.5)"><line stroke="#000" x2="6"></line><text fill="#000" x="9" dy="0.32em">1.1</text></g><text text-anchor="start" x="10" y="10" visibility="hidden" style="font-size: 12px; font-family: Arial; fill: #807dba;">No disease causing germline SNPs known!</text></g><circle cx="636" cy="15" r="10" class="compassNav" style="fill: #ffffff; stroke: #666666; stroke-width: 1px;"></circle><path d="M440.935 12.574l3.966 82.766C399.416 41.904 331.674 8 256 8 134.813 8 33.933 94.924 12.296 209.824 10.908 217.193 16.604 224 24.103 224h49.084c5.57 0 10.377-3.842 11.676-9.259C103.407 137.408 172.931 80 256 80c60.893 0 114.512 30.856 146.104 77.801l-101.53-4.865c-6.845-.328-12.574 5.133-12.574 11.986v47.411c0 6.627 5.373 12 12 12h200.333c6.627 0 12-5.373 12-12V12c0-6.627-5.373-12-12-12h-47.411c-6.853 0-12.315 5.729-11.987 12.574zM256 432c-60.895 0-114.517-30.858-146.109-77.805l101.868 4.871c6.845.327 12.573-5.134 12.573-11.986v-47.412c0-6.627-5.373-12-12-12H12c-6.627 0-12 5.373-12 12V500c0 6.627 5.373 12 12 12h47.385c6.863 0 12.328-5.745 11.985-12.599l-4.129-82.575C112.725 470.166 180.405 504 256 504c121.187 0 222.067-86.924 243.704-201.824 1.388-7.369-4.308-14.176-11.807-14.176h-49.084c-5.57 0-10.377 3.842-11.676 9.259C408.593 374.592 339.069 432 256 432z" class="compassNav" transform="translate(631, 10) scale(0.02)" style="fill: #666666; stroke: #666666; stroke-width: 1px;"></path><circle cx="658" cy="15" r="10" class="compassNav" style="fill: #ffffff; stroke: #666666; stroke-width: 1px;"></circle><line class="compassNav" stroke-width="2" stroke="#666666" x1="654" y1="15" x2="662" y2="15"></line><line class="compassNav" stroke-width="2" stroke="#666666" x1="658" y1="11" x2="658" y2="19"></line><circle cx="614" cy="15" r="10" class="compassNav" style="fill: #ffffff; stroke: #666666; stroke-width: 1px;"></circle><line class="compassNav" stroke-width="2" stroke="#666666" x1="610" y1="15" x2="618" y2="15"></line><path d="M582 14 l20 -12 a100,40 0 0,0 0,24z" class="compassNav" style="fill: #ffffff; stroke: #666666; stroke-width: 1px;"></path><path d="M690 14 l-20 -12 a100,40 0 0,1 0,24z" class="compassNav" style="fill: #ffffff; stroke: #666666; stroke-width: 1px;"></path><path d="M216 0h80c13.3 0 24 10.7 24 24v168h87.7c17.8 0 26.7 21.5 14.1 34.1L269.7 378.3c-7.5 7.5-19.8 7.5-27.3 0L90.1 226.1c-12.6-12.6-3.7-34.1 14.1-34.1H192V24c0-13.3 10.7-24 24-24zm296 376v112c0 13.3-10.7 24-24 24H24c-13.3 0-24-10.7-24-24V376c0-13.3 10.7-24 24-24h146.7l49 49c20.1 20.1 52.5 20.1 72.6 0l49-49H488c13.3 0 24 10.7 24 24zm-124 88c0-11-9-20-20-20s-20 9-20 20 9 20 20 20 20-9 20-20zm64 0c0-11-9-20-20-20s-20 9-20 20 9 20 20 20 20-9 20-20z" class="compassNav" transform="translate(552,0) scale(0.05)" style="fill: #336699; stroke: #336699; stroke-width: 1px; cursor: pointer;"></path></g></svg>