<svg width="800" height="400" style="background-color: white;"><g transform="translate(50,0)"><svg width="700" height="360"><g style="-webkit-tap-highlight-color: rgba(0, 0, 0, 0);"><rect width="700" height="360" style="fill: #ffffff;"></rect><g id="lines"><line class="line" stroke-width="1" stroke="#d7301f" x1="-505" y1="333" x2="-505" y2="360" visibility="hidden" style="stroke-dasharray: 3px, 3px;"></line></g><g><rect x="-510" y="355" width="10" height="10" visibility="hidden" style="fill: #ffffff; stroke: #d7301f;"></rect></g><g id="lines"><line class="line" stroke-width="1" stroke="#6a51a3" x1="-505" y1="333" x2="-505" y2="327.27272727272725" visibility="hidden" style="stroke-dasharray: 3px, 3px;"></line></g><g><rect x="-510" y="322.27272727272725" width="10" height="10" visibility="hidden" style="fill: #ffffff; stroke: #6a51a3;"></rect></g><g id="lines"><line class="line" stroke-width="1" stroke="#666666" x1="25" y1="333" x2="25" y2="323.68814099372696"></line><line class="line" stroke-width="1" stroke="#666666" x1="80" y1="333" x2="80" y2="287.842278203724"></line><line class="line" stroke-width="1" stroke="#666666" x1="89.99999999999999" y1="333" x2="89.99999999999999" y2="305.7652095987255"></line><line class="line" stroke-width="1" stroke="#666666" x1="94.99999999999999" y1="333" x2="94.99999999999999" y2="320.10355471472667"></line><line class="line" stroke-width="1" stroke="#666666" x1="145" y1="333" x2="145" y2="29.752066115702462"></line><line class="line" stroke-width="1" stroke="#666666" x1="359.99999999999994" y1="333" x2="359.99999999999994" y2="309.3497958777258"></line><line class="line" stroke-width="1" stroke="#666666" x1="430" y1="333" x2="430" y2="284.2576919247237"></line><line class="line" stroke-width="1" stroke="#666666" x1="435" y1="333" x2="435" y2="291.4268644827243"></line><line class="line" stroke-width="1" stroke="#666666" x1="445" y1="333" x2="445" y2="298.59603704072487"></line><line class="line" stroke-width="1" stroke="#666666" x1="455" y1="333" x2="455" y2="312.9343821567261"></line><line class="line" stroke-width="1" stroke="#666666" x1="475" y1="333" x2="475" y2="323.68814099372696"></line><line class="line" stroke-width="1" stroke="#666666" x1="690" y1="333" x2="690" y2="323.68814099372696"></line></g><g id="circles"><circle r="4" cx="25" cy="323.68814099372696" style="fill: #5aae61; stroke: #666666; stroke-width: 1px;"></circle><circle r="4" cx="80" cy="287.842278203724" style="fill: #4393c3; stroke: #666666; stroke-width: 1px;"></circle><circle r="4" cx="89.99999999999999" cy="305.7652095987255" style="fill: #bf812d; stroke: #666666; stroke-width: 1px;"></circle><circle r="4" cx="94.99999999999999" cy="320.10355471472667" style="fill: #4393c3; stroke: #666666; stroke-width: 1px;"></circle><circle r="4" cx="145" cy="29.752066115702462" style="fill: #4393c3; stroke: #666666; stroke-width: 1px;"></circle><circle r="4" cx="359.99999999999994" cy="309.3497958777258" style="fill: #bf812d; stroke: #666666; stroke-width: 1px;"></circle><circle r="4" cx="430" cy="284.2576919247237" style="fill: #bf812d; stroke: #666666; stroke-width: 1px;"></circle><circle r="4" cx="435" cy="291.4268644827243" style="fill: #4393c3; stroke: #666666; stroke-width: 1px;"></circle><circle r="4" cx="445" cy="298.59603704072487" style="fill: #4393c3; stroke: #666666; stroke-width: 1px;"></circle><circle r="4" cx="455" cy="312.9343821567261" style="fill: #4393c3; stroke: #666666; stroke-width: 1px;"></circle><circle r="4" cx="475" cy="323.68814099372696" style="fill: #4393c3; stroke: #666666; stroke-width: 1px;"></circle><circle r="4" cx="690" cy="323.68814099372696" style="fill: #4393c3; stroke: #666666; stroke-width: 1px;"></circle></g><g><rect x="0" y="333" width="700" height="12" style="fill: #ffffff; stroke-width: 1px; stroke: #666666;"></rect><rect x="240" y="333" width="440" height="12" style="fill: #aec7e8; stroke-width: 1px; stroke: #666666;"></rect><rect x="575" y="333" width="100" height="12" style="fill: #ffbb78; stroke-width: 1px; stroke: #666666;"></rect></g><g><a target="_blank" xlink:href="http://pfam.xfam.org/family/"><text y="343" x="350" text-anchor="middle" style="color: rgb(102, 102, 102); font-weight: normal; font-size: 12px; font-family: Arial; cursor: pointer;"></text></a><a target="_blank" xlink:href="http://pfam.xfam.org/family/Synaptobrevin"><text y="343" x="460" text-anchor="middle" style="color: rgb(102, 102, 102); font-weight: normal; font-size: 12px; font-family: Arial; cursor: pointer;">Synaptobrevin</text></a><a target="_blank" xlink:href="http://pfam.xfam.org/family/TM"><text y="343" x="625" text-anchor="middle" style="color: rgb(102, 102, 102); font-weight: normal; font-size: 12px; font-family: Arial; cursor: pointer;">TM</text></a></g><g><text y="358" x="0" text-anchor="middle" visibility="hidden" style="font-size: 13px;">M</text><text y="358" x="5" text-anchor="middle" visibility="hidden" style="font-size: 13px;">P</text><text y="358" x="10" text-anchor="middle" visibility="hidden" style="font-size: 13px;">P</text><text y="358" x="15" text-anchor="middle" visibility="hidden" style="font-size: 13px;">K</text><text y="358" x="20" text-anchor="middle" visibility="hidden" style="font-size: 13px;">F</text><text y="358" x="25" text-anchor="middle" visibility="hidden" style="font-size: 13px;">K</text><text y="358" x="30" text-anchor="middle" visibility="hidden" style="font-size: 13px;">R</text><text y="358" x="35" text-anchor="middle" visibility="hidden" style="font-size: 13px;">H</text><text y="358" x="40" text-anchor="middle" visibility="hidden" style="font-size: 13px;">L</text><text y="358" x="44.99999999999999" text-anchor="middle" visibility="hidden" style="font-size: 13px;">N</text><text y="358" x="50" text-anchor="middle" visibility="hidden" style="font-size: 13px;">D</text><text y="358" x="55" text-anchor="middle" visibility="hidden" style="font-size: 13px;">D</text><text y="358" x="60" text-anchor="middle" visibility="hidden" style="font-size: 13px;">D</text><text y="358" x="65" text-anchor="middle" visibility="hidden" style="font-size: 13px;">V</text><text y="358" x="70" text-anchor="middle" visibility="hidden" style="font-size: 13px;">T</text><text y="358" x="75" text-anchor="middle" visibility="hidden" style="font-size: 13px;">G</text><text y="358" x="80" text-anchor="middle" visibility="hidden" style="font-size: 13px;">S</text><text y="358" x="85" text-anchor="middle" visibility="hidden" style="font-size: 13px;">V</text><text y="358" x="89.99999999999999" text-anchor="middle" visibility="hidden" style="font-size: 13px;">K</text><text y="358" x="94.99999999999999" text-anchor="middle" visibility="hidden" style="font-size: 13px;">S</text><text y="358" x="100" text-anchor="middle" visibility="hidden" style="font-size: 13px;">E</text><text y="358" x="105" text-anchor="middle" visibility="hidden" style="font-size: 13px;">R</text><text y="358" x="110" text-anchor="middle" visibility="hidden" style="font-size: 13px;">R</text><text y="358" x="115" text-anchor="middle" visibility="hidden" style="font-size: 13px;">N</text><text y="358" x="120" text-anchor="middle" visibility="hidden" style="font-size: 13px;">L</text><text y="358" x="125" text-anchor="middle" visibility="hidden" style="font-size: 13px;">L</text><text y="358" x="130" text-anchor="middle" visibility="hidden" style="font-size: 13px;">E</text><text y="358" x="135" text-anchor="middle" visibility="hidden" style="font-size: 13px;">D</text><text y="358" x="140" text-anchor="middle" visibility="hidden" style="font-size: 13px;">D</text><text y="358" x="145" text-anchor="middle" visibility="hidden" style="font-size: 13px;">S</text><text y="358" x="150" text-anchor="middle" visibility="hidden" style="font-size: 13px;">D</text><text y="358" x="155" text-anchor="middle" visibility="hidden" style="font-size: 13px;">E</text><text y="358" x="160" text-anchor="middle" visibility="hidden" style="font-size: 13px;">E</text><text y="358" x="165" text-anchor="middle" visibility="hidden" style="font-size: 13px;">E</text><text y="358" x="170" text-anchor="middle" visibility="hidden" style="font-size: 13px;">D</text><text y="358" x="175" text-anchor="middle" visibility="hidden" style="font-size: 13px;">F</text><text y="358" x="179.99999999999997" text-anchor="middle" visibility="hidden" style="font-size: 13px;">F</text><text y="358" x="185" text-anchor="middle" visibility="hidden" style="font-size: 13px;">L</text><text y="358" x="189.99999999999997" text-anchor="middle" visibility="hidden" style="font-size: 13px;">R</text><text y="358" x="195" text-anchor="middle" visibility="hidden" style="font-size: 13px;">G</text><text y="358" x="200" text-anchor="middle" visibility="hidden" style="font-size: 13px;">P</text><text y="358" x="205" text-anchor="middle" visibility="hidden" style="font-size: 13px;">S</text><text y="358" x="210" text-anchor="middle" visibility="hidden" style="font-size: 13px;">G</text><text y="358" x="215" text-anchor="middle" visibility="hidden" style="font-size: 13px;">P</text><text y="358" x="220" text-anchor="middle" visibility="hidden" style="font-size: 13px;">R</text><text y="358" x="225.00000000000003" text-anchor="middle" visibility="hidden" style="font-size: 13px;">F</text><text y="358" x="230" text-anchor="middle" visibility="hidden" style="font-size: 13px;">G</text><text y="358" x="234.99999999999997" text-anchor="middle" visibility="hidden" style="font-size: 13px;">P</text><text y="358" x="240" text-anchor="middle" visibility="hidden" style="font-size: 13px;">R</text><text y="358" x="244.99999999999997" text-anchor="middle" visibility="hidden" style="font-size: 13px;">N</text><text y="358" x="250" text-anchor="middle" visibility="hidden" style="font-size: 13px;">D</text><text y="358" x="255" text-anchor="middle" visibility="hidden" style="font-size: 13px;">K</text><text y="358" x="260" text-anchor="middle" visibility="hidden" style="font-size: 13px;">I</text><text y="358" x="265" text-anchor="middle" visibility="hidden" style="font-size: 13px;">K</text><text y="358" x="270" text-anchor="middle" visibility="hidden" style="font-size: 13px;">H</text><text y="358" x="275" text-anchor="middle" visibility="hidden" style="font-size: 13px;">V</text><text y="358" x="280" text-anchor="middle" visibility="hidden" style="font-size: 13px;">Q</text><text y="358" x="285" text-anchor="middle" visibility="hidden" style="font-size: 13px;">N</text><text y="358" x="290" text-anchor="middle" visibility="hidden" style="font-size: 13px;">Q</text><text y="358" x="295" text-anchor="middle" visibility="hidden" style="font-size: 13px;">V</text><text y="358" x="300" text-anchor="middle" visibility="hidden" style="font-size: 13px;">D</text><text y="358" x="305" text-anchor="middle" visibility="hidden" style="font-size: 13px;">E</text><text y="358" x="310" text-anchor="middle" visibility="hidden" style="font-size: 13px;">V</text><text y="358" x="315" text-anchor="middle" visibility="hidden" style="font-size: 13px;">I</text><text y="358" x="320" text-anchor="middle" visibility="hidden" style="font-size: 13px;">D</text><text y="358" x="325" text-anchor="middle" visibility="hidden" style="font-size: 13px;">V</text><text y="358" x="330" text-anchor="middle" visibility="hidden" style="font-size: 13px;">M</text><text y="358" x="335" text-anchor="middle" visibility="hidden" style="font-size: 13px;">Q</text><text y="358" x="340" text-anchor="middle" visibility="hidden" style="font-size: 13px;">E</text><text y="358" x="345" text-anchor="middle" visibility="hidden" style="font-size: 13px;">N</text><text y="358" x="350" text-anchor="middle" visibility="hidden" style="font-size: 13px;">I</text><text y="358" x="355" text-anchor="middle" visibility="hidden" style="font-size: 13px;">T</text><text y="358" x="359.99999999999994" text-anchor="middle" visibility="hidden" style="font-size: 13px;">K</text><text y="358" x="365" text-anchor="middle" visibility="hidden" style="font-size: 13px;">V</text><text y="358" x="370" text-anchor="middle" visibility="hidden" style="font-size: 13px;">I</text><text y="358" x="375" text-anchor="middle" visibility="hidden" style="font-size: 13px;">E</text><text y="358" x="379.99999999999994" text-anchor="middle" visibility="hidden" style="font-size: 13px;">R</text><text y="358" x="385.00000000000006" text-anchor="middle" visibility="hidden" style="font-size: 13px;">G</text><text y="358" x="390" text-anchor="middle" visibility="hidden" style="font-size: 13px;">E</text><text y="358" x="395" text-anchor="middle" visibility="hidden" style="font-size: 13px;">R</text><text y="358" x="400" text-anchor="middle" visibility="hidden" style="font-size: 13px;">L</text><text y="358" x="405.00000000000006" text-anchor="middle" visibility="hidden" style="font-size: 13px;">D</text><text y="358" x="410" text-anchor="middle" visibility="hidden" style="font-size: 13px;">E</text><text y="358" x="415" text-anchor="middle" visibility="hidden" style="font-size: 13px;">L</text><text y="358" x="420" text-anchor="middle" visibility="hidden" style="font-size: 13px;">Q</text><text y="358" x="424.99999999999994" text-anchor="middle" visibility="hidden" style="font-size: 13px;">D</text><text y="358" x="430" text-anchor="middle" visibility="hidden" style="font-size: 13px;">K</text><text y="358" x="435" text-anchor="middle" visibility="hidden" style="font-size: 13px;">S</text><text y="358" x="440" text-anchor="middle" visibility="hidden" style="font-size: 13px;">E</text><text y="358" x="445" text-anchor="middle" visibility="hidden" style="font-size: 13px;">S</text><text y="358" x="450.00000000000006" text-anchor="middle" visibility="hidden" style="font-size: 13px;">L</text><text y="358" x="455" text-anchor="middle" visibility="hidden" style="font-size: 13px;">S</text><text y="358" x="460" text-anchor="middle" visibility="hidden" style="font-size: 13px;">D</text><text y="358" x="465" text-anchor="middle" visibility="hidden" style="font-size: 13px;">N</text><text y="358" x="469.99999999999994" text-anchor="middle" visibility="hidden" style="font-size: 13px;">A</text><text y="358" x="475" text-anchor="middle" visibility="hidden" style="font-size: 13px;">T</text><text y="358" x="480" text-anchor="middle" visibility="hidden" style="font-size: 13px;">A</text><text y="358" x="485" text-anchor="middle" visibility="hidden" style="font-size: 13px;">F</text><text y="358" x="489.99999999999994" text-anchor="middle" visibility="hidden" style="font-size: 13px;">S</text><text y="358" x="495.00000000000006" text-anchor="middle" visibility="hidden" style="font-size: 13px;">N</text><text y="358" x="500" text-anchor="middle" visibility="hidden" style="font-size: 13px;">R</text><text y="358" x="505" text-anchor="middle" visibility="hidden" style="font-size: 13px;">S</text><text y="358" x="510" text-anchor="middle" visibility="hidden" style="font-size: 13px;">K</text><text y="358" x="515" text-anchor="middle" visibility="hidden" style="font-size: 13px;">Q</text><text y="358" x="520" text-anchor="middle" visibility="hidden" style="font-size: 13px;">L</text><text y="358" x="525" text-anchor="middle" visibility="hidden" style="font-size: 13px;">R</text><text y="358" x="530" text-anchor="middle" visibility="hidden" style="font-size: 13px;">R</text><text y="358" x="535" text-anchor="middle" visibility="hidden" style="font-size: 13px;">Q</text><text y="358" x="540" text-anchor="middle" visibility="hidden" style="font-size: 13px;">M</text><text y="358" x="545" text-anchor="middle" visibility="hidden" style="font-size: 13px;">W</text><text y="358" x="550" text-anchor="middle" visibility="hidden" style="font-size: 13px;">W</text><text y="358" x="555" text-anchor="middle" visibility="hidden" style="font-size: 13px;">R</text><text y="358" x="560" text-anchor="middle" visibility="hidden" style="font-size: 13px;">G</text><text y="358" x="565" text-anchor="middle" visibility="hidden" style="font-size: 13px;">C</text><text y="358" x="570" text-anchor="middle" visibility="hidden" style="font-size: 13px;">K</text><text y="358" x="575" text-anchor="middle" visibility="hidden" style="font-size: 13px;">I</text><text y="358" x="580" text-anchor="middle" visibility="hidden" style="font-size: 13px;">K</text><text y="358" x="585" text-anchor="middle" visibility="hidden" style="font-size: 13px;">A</text><text y="358" x="590" text-anchor="middle" visibility="hidden" style="font-size: 13px;">I</text><text y="358" x="595" text-anchor="middle" visibility="hidden" style="font-size: 13px;">M</text><text y="358" x="600" text-anchor="middle" visibility="hidden" style="font-size: 13px;">A</text><text y="358" x="605" text-anchor="middle" visibility="hidden" style="font-size: 13px;">L</text><text y="358" x="610" text-anchor="middle" visibility="hidden" style="font-size: 13px;">V</text><text y="358" x="615" text-anchor="middle" visibility="hidden" style="font-size: 13px;">A</text><text y="358" x="620" text-anchor="middle" visibility="hidden" style="font-size: 13px;">A</text><text y="358" x="625" text-anchor="middle" visibility="hidden" style="font-size: 13px;">I</text><text y="358" x="630" text-anchor="middle" visibility="hidden" style="font-size: 13px;">L</text><text y="358" x="635" text-anchor="middle" visibility="hidden" style="font-size: 13px;">L</text><text y="358" x="640" text-anchor="middle" visibility="hidden" style="font-size: 13px;">L</text><text y="358" x="645" text-anchor="middle" visibility="hidden" style="font-size: 13px;">V</text><text y="358" x="650" text-anchor="middle" visibility="hidden" style="font-size: 13px;">I</text><text y="358" x="655" text-anchor="middle" visibility="hidden" style="font-size: 13px;">I</text><text y="358" x="660" text-anchor="middle" visibility="hidden" style="font-size: 13px;">I</text><text y="358" x="665" text-anchor="middle" visibility="hidden" style="font-size: 13px;">L</text><text y="358" x="670" text-anchor="middle" visibility="hidden" style="font-size: 13px;">I</text><text y="358" x="675" text-anchor="middle" visibility="hidden" style="font-size: 13px;">V</text><text y="358" x="680" text-anchor="middle" visibility="hidden" style="font-size: 13px;">M</text><text y="358" x="685" text-anchor="middle" visibility="hidden" style="font-size: 13px;">K</text><text y="358" x="690" text-anchor="middle" visibility="hidden" style="font-size: 13px;">Y</text><text y="358" x="695" text-anchor="middle" visibility="hidden" style="font-size: 13px;">R</text><text y="358" x="700" text-anchor="middle" visibility="hidden" style="font-size: 13px;">T</text></g></g></svg><g class="xAxis" transform="translate(0,360)" fill="none" font-size="10" font-family="sans-serif" text-anchor="middle"><path class="domain" stroke="#000" d="M0.5,6V0.5H700.5V6"></path><g class="tick" opacity="1" transform="translate(45.49999999999999,0)"><line stroke="#000" y2="6"></line><text fill="#000" y="9" dy="0.71em">10</text></g><g class="tick" opacity="1" transform="translate(95.49999999999999,0)"><line stroke="#000" y2="6"></line><text fill="#000" y="9" dy="0.71em">20</text></g><g class="tick" opacity="1" transform="translate(145.5,0)"><line stroke="#000" y2="6"></line><text fill="#000" y="9" dy="0.71em">30</text></g><g class="tick" opacity="1" transform="translate(195.5,0)"><line stroke="#000" y2="6"></line><text fill="#000" y="9" dy="0.71em">40</text></g><g class="tick" opacity="1" transform="translate(245.49999999999997,0)"><line stroke="#000" y2="6"></line><text fill="#000" y="9" dy="0.71em">50</text></g><g class="tick" opacity="1" transform="translate(295.5,0)"><line stroke="#000" y2="6"></line><text fill="#000" y="9" dy="0.71em">60</text></g><g class="tick" opacity="1" transform="translate(345.5,0)"><line stroke="#000" y2="6"></line><text fill="#000" y="9" dy="0.71em">70</text></g><g class="tick" opacity="1" transform="translate(395.5,0)"><line stroke="#000" y2="6"></line><text fill="#000" y="9" dy="0.71em">80</text></g><g class="tick" opacity="1" transform="translate(445.5,0)"><line stroke="#000" y2="6"></line><text fill="#000" y="9" dy="0.71em">90</text></g><g class="tick" opacity="1" transform="translate(495.50000000000006,0)"><line stroke="#000" y2="6"></line><text fill="#000" y="9" dy="0.71em">100</text></g><g class="tick" opacity="1" transform="translate(545.5,0)"><line stroke="#000" y2="6"></line><text fill="#000" y="9" dy="0.71em">110</text></g><g class="tick" opacity="1" transform="translate(595.5,0)"><line stroke="#000" y2="6"></line><text fill="#000" y="9" dy="0.71em">120</text></g><g class="tick" opacity="1" transform="translate(645.5,0)"><line stroke="#000" y2="6"></line><text fill="#000" y="9" dy="0.71em">130</text></g><g class="tick" opacity="1" transform="translate(695.5,0)"><line stroke="#000" y2="6"></line><text fill="#000" y="9" dy="0.71em">140</text></g></g><text class="x label" text-anchor="end" x="700" y="390" style="font-size: 13px; font-family: Arial;">Residue number</text><g class="yAxis" fill="none" font-size="10" font-family="sans-serif" text-anchor="end"><path class="domain" stroke="#000" d="M-6,360.5H0.5V0.5H-6"></path><g class="tick" opacity="1" transform="translate(0,327.77272727272725)"><line stroke="#000" x2="-6"></line><text fill="#000" x="-9" dy="0.32em">0</text></g><g class="tick" opacity="1" transform="translate(0,291.9268644827243)"><line stroke="#000" x2="-6"></line><text fill="#000" x="-9" dy="0.32em">10</text></g><g class="tick" opacity="1" transform="translate(0,256.0810016927213)"><line stroke="#000" x2="-6"></line><text fill="#000" x="-9" dy="0.32em">20</text></g><g class="tick" opacity="1" transform="translate(0,220.23513890271832)"><line stroke="#000" x2="-6"></line><text fill="#000" x="-9" dy="0.32em">30</text></g><g class="tick" opacity="1" transform="translate(0,184.38927611271532)"><line stroke="#000" x2="-6"></line><text fill="#000" x="-9" dy="0.32em">40</text></g><g class="tick" opacity="1" transform="translate(0,148.54341332271233)"><line stroke="#000" x2="-6"></line><text fill="#000" x="-9" dy="0.32em">50</text></g><g class="tick" opacity="1" transform="translate(0,112.69755053270936)"><line stroke="#000" x2="-6"></line><text fill="#000" x="-9" dy="0.32em">60</text></g><g class="tick" opacity="1" transform="translate(0,76.85168774270636)"><line stroke="#000" x2="-6"></line><text fill="#000" x="-9" dy="0.32em">70</text></g><g class="tick" opacity="1" transform="translate(0,41.005824952703335)"><line stroke="#000" x2="-6"></line><text fill="#000" x="-9" dy="0.32em">80</text></g><g class="tick" opacity="1" transform="translate(0,5.159962162700367)"><line stroke="#000" x2="-6"></line><text fill="#000" x="-9" dy="0.32em">90</text></g></g><text class="y label" text-anchor="middle" y="-50" x="-180" dy="0.8em" transform="rotate(-90)" style="font-size: 13px; font-family: Arial;">Total number of references</text><g class="axisRed" fill="none" font-size="10" font-family="sans-serif" text-anchor="start" visibility="hidden" transform="translate(700, 0)"><path class="domain" stroke="#000" d="M6,360.5H0.5V0.5H6"></path><g class="tick" opacity="1" transform="translate(0,360.5)"><line stroke="#000" x2="6"></line><text fill="#000" x="9" dy="0.32em">0</text></g><text text-anchor="start" dx="5.2em" dy="-2.6em" transform="rotate(90)" visibility="hidden" style="font-size: 12px; font-family: Arial; fill: #d7301f;">No recurrent (&gt;2) missense mutations!</text></g><g class="axisPurple" fill="none" font-size="10" font-family="sans-serif" text-anchor="start" visibility="hidden"><path class="domain" stroke="#000" d="M6,360.5H0.5V0.5H6"></path><g class="tick" opacity="1" transform="translate(0,357.52479338842977)"><line stroke="#000" x2="6"></line><text fill="#000" x="9" dy="0.32em"></text></g><g class="tick" opacity="1" transform="translate(0,327.77272727272725)"><line stroke="#000" x2="6"></line><text fill="#000" x="9" dy="0.32em">0</text></g><g class="tick" opacity="1" transform="translate(0,298.0206611570248)"><line stroke="#000" x2="6"></line><text fill="#000" x="9" dy="0.32em">0.1</text></g><g class="tick" opacity="1" transform="translate(0,268.2685950413223)"><line stroke="#000" x2="6"></line><text fill="#000" x="9" dy="0.32em">0.2</text></g><g class="tick" opacity="1" transform="translate(0,238.51652892561984)"><line stroke="#000" x2="6"></line><text fill="#000" x="9" dy="0.32em">0.3</text></g><g class="tick" opacity="1" transform="translate(0,208.76446280991738)"><line stroke="#000" x2="6"></line><text fill="#000" x="9" dy="0.32em">0.4</text></g><g class="tick" opacity="1" transform="translate(0,179.0123966942149)"><line stroke="#000" x2="6"></line><text fill="#000" x="9" dy="0.32em">0.5</text></g><g class="tick" opacity="1" transform="translate(0,149.26033057851242)"><line stroke="#000" x2="6"></line><text fill="#000" x="9" dy="0.32em">0.6</text></g><g class="tick" opacity="1" transform="translate(0,119.50826446280996)"><line stroke="#000" x2="6"></line><text fill="#000" x="9" dy="0.32em">0.7</text></g><g class="tick" opacity="1" transform="translate(0,89.75619834710744)"><line stroke="#000" x2="6"></line><text fill="#000" x="9" dy="0.32em">0.8</text></g><g class="tick" opacity="1" transform="translate(0,60.00413223140498)"><line stroke="#000" x2="6"></line><text fill="#000" x="9" dy="0.32em">0.9</text></g><g class="tick" opacity="1" transform="translate(0,30.25206611570252)"><line stroke="#000" x2="6"></line><text fill="#000" x="9" dy="0.32em">1</text></g><g class="tick" opacity="1" transform="translate(0,0.5)"><line stroke="#000" x2="6"></line><text fill="#000" x="9" dy="0.32em">1.1</text></g><text text-anchor="start" x="10" y="10" visibility="hidden" style="font-size: 12px; font-family: Arial; fill: #807dba;">No disease causing germline SNPs known!</text></g><circle cx="636" cy="15" r="10" class="compassNav" style="fill: #ffffff; stroke: #666666; stroke-width: 1px;"></circle><path d="M440.935 12.574l3.966 82.766C399.416 41.904 331.674 8 256 8 134.813 8 33.933 94.924 12.296 209.824 10.908 217.193 16.604 224 24.103 224h49.084c5.57 0 10.377-3.842 11.676-9.259C103.407 137.408 172.931 80 256 80c60.893 0 114.512 30.856 146.104 77.801l-101.53-4.865c-6.845-.328-12.574 5.133-12.574 11.986v47.411c0 6.627 5.373 12 12 12h200.333c6.627 0 12-5.373 12-12V12c0-6.627-5.373-12-12-12h-47.411c-6.853 0-12.315 5.729-11.987 12.574zM256 432c-60.895 0-114.517-30.858-146.109-77.805l101.868 4.871c6.845.327 12.573-5.134 12.573-11.986v-47.412c0-6.627-5.373-12-12-12H12c-6.627 0-12 5.373-12 12V500c0 6.627 5.373 12 12 12h47.385c6.863 0 12.328-5.745 11.985-12.599l-4.129-82.575C112.725 470.166 180.405 504 256 504c121.187 0 222.067-86.924 243.704-201.824 1.388-7.369-4.308-14.176-11.807-14.176h-49.084c-5.57 0-10.377 3.842-11.676 9.259C408.593 374.592 339.069 432 256 432z" class="compassNav" transform="translate(631, 10) scale(0.02)" style="fill: #666666; stroke: #666666; stroke-width: 1px;"></path><circle cx="658" cy="15" r="10" class="compassNav" style="fill: #ffffff; stroke: #666666; stroke-width: 1px;"></circle><line class="compassNav" stroke-width="2" stroke="#666666" x1="654" y1="15" x2="662" y2="15"></line><line class="compassNav" stroke-width="2" stroke="#666666" x1="658" y1="11" x2="658" y2="19"></line><circle cx="614" cy="15" r="10" class="compassNav" style="fill: #ffffff; stroke: #666666; stroke-width: 1px;"></circle><line class="compassNav" stroke-width="2" stroke="#666666" x1="610" y1="15" x2="618" y2="15"></line><path d="M582 14 l20 -12 a100,40 0 0,0 0,24z" class="compassNav" style="fill: #ffffff; stroke: #666666; stroke-width: 1px;"></path><path d="M690 14 l-20 -12 a100,40 0 0,1 0,24z" class="compassNav" style="fill: #ffffff; stroke: #666666; stroke-width: 1px;"></path><path d="M216 0h80c13.3 0 24 10.7 24 24v168h87.7c17.8 0 26.7 21.5 14.1 34.1L269.7 378.3c-7.5 7.5-19.8 7.5-27.3 0L90.1 226.1c-12.6-12.6-3.7-34.1 14.1-34.1H192V24c0-13.3 10.7-24 24-24zm296 376v112c0 13.3-10.7 24-24 24H24c-13.3 0-24-10.7-24-24V376c0-13.3 10.7-24 24-24h146.7l49 49c20.1 20.1 52.5 20.1 72.6 0l49-49H488c13.3 0 24 10.7 24 24zm-124 88c0-11-9-20-20-20s-20 9-20 20 9 20 20 20 20-9 20-20zm64 0c0-11-9-20-20-20s-20 9-20 20 9 20 20 20 20-9 20-20z" class="compassNav" transform="translate(552,0) scale(0.05)" style="fill: #336699; stroke: #336699; stroke-width: 1px; cursor: pointer;"></path></g></svg>