<svg width="800" height="400" style="background-color: white;"><g transform="translate(50,0)"><svg width="700" height="360"><g style="-webkit-tap-highlight-color: rgba(0, 0, 0, 0);"><rect width="700" height="360" style="fill: #ffffff;"></rect><g id="lines"><line class="line" stroke-width="1" stroke="#d7301f" x1="-268.8212927756654" y1="333" x2="-268.8212927756654" y2="360" visibility="hidden" style="stroke-dasharray: 3px, 3px;"></line></g><g><rect x="-273.8212927756654" y="355" width="10" height="10" visibility="hidden" style="fill: #ffffff; stroke: #d7301f;"></rect></g><g id="lines"><line class="line" stroke-width="1" stroke="#6a51a3" x1="-268.8212927756654" y1="333" x2="-268.8212927756654" y2="327.27272727272725" visibility="hidden" style="stroke-dasharray: 3px, 3px;"></line></g><g><rect x="-273.8212927756654" y="322.27272727272725" width="10" height="10" visibility="hidden" style="fill: #ffffff; stroke: #6a51a3;"></rect></g><g id="lines"><line class="line" stroke-width="1" stroke="#666666" x1="98.47908745247149" y1="333" x2="98.47908745247149" y2="315.1290268173385"></line><line class="line" stroke-width="1" stroke="#666666" x1="111.78707224334602" y1="333" x2="111.78707224334602" y2="321.2008770450329"></line><line class="line" stroke-width="1" stroke="#666666" x1="146.3878326996198" y1="333" x2="146.3878326996198" y2="315.1290268173385"></line><line class="line" stroke-width="1" stroke="#666666" x1="146.3878326996198" y1="333" x2="146.3878326996198" y2="315.1290268173385"></line><line class="line" stroke-width="1" stroke="#666666" x1="154.37262357414448" y1="333" x2="154.37262357414448" y2="315.1290268173385"></line><line class="line" stroke-width="1" stroke="#666666" x1="167.680608365019" y1="333" x2="167.680608365019" y2="321.2008770450329"></line><line class="line" stroke-width="1" stroke="#666666" x1="287.45247148288973" y1="333" x2="287.45247148288973" y2="321.2008770450329"></line><line class="line" stroke-width="1" stroke="#666666" x1="303.4220532319392" y1="333" x2="303.4220532319392" y2="321.2008770450329"></line><line class="line" stroke-width="1" stroke="#666666" x1="319.3916349809886" y1="333" x2="319.3916349809886" y2="321.2008770450329"></line><line class="line" stroke-width="1" stroke="#666666" x1="380.6083650190114" y1="333" x2="380.6083650190114" y2="321.2008770450329"></line><line class="line" stroke-width="1" stroke="#666666" x1="399.23954372623575" y1="333" x2="399.23954372623575" y2="321.2008770450329"></line><line class="line" stroke-width="1" stroke="#666666" x1="500.3802281368821" y1="333" x2="500.3802281368821" y2="321.2008770450329"></line><line class="line" stroke-width="1" stroke="#666666" x1="505.7034220532319" y1="333" x2="505.7034220532319" y2="321.2008770450329"></line><line class="line" stroke-width="1" stroke="#666666" x1="529.6577946768061" y1="333" x2="529.6577946768061" y2="309.05717658964414"></line><line class="line" stroke-width="1" stroke="#666666" x1="548.2889733840304" y1="333" x2="548.2889733840304" y2="315.1290268173385"></line><line class="line" stroke-width="1" stroke="#666666" x1="574.9049429657795" y1="333" x2="574.9049429657795" y2="321.2008770450329"></line><line class="line" stroke-width="1" stroke="#666666" x1="614.8288973384031" y1="333" x2="614.8288973384031" y2="309.05717658964414"></line><line class="line" stroke-width="1" stroke="#666666" x1="628.1368821292775" y1="333" x2="628.1368821292775" y2="321.2008770450329"></line><line class="line" stroke-width="1" stroke="#666666" x1="665.3992395437263" y1="333" x2="665.3992395437263" y2="321.2008770450329"></line><line class="line" stroke-width="1" stroke="#666666" x1="689.3536121673004" y1="333" x2="689.3536121673004" y2="315.1290268173385"></line><line class="line" stroke-width="1" stroke="#666666" x1="700" y1="333" x2="700" y2="29.752066115702462"></line></g><g id="circles"><circle r="4" cx="98.47908745247149" cy="315.1290268173385" style="fill: #4393c3; stroke: #666666; stroke-width: 1px;"></circle><circle r="4" cx="111.78707224334602" cy="321.2008770450329" style="fill: #5aae61; stroke: #666666; stroke-width: 1px;"></circle><circle r="4" cx="146.3878326996198" cy="315.1290268173385" style="fill: #5aae61; stroke: #666666; stroke-width: 1px;"></circle><circle r="4" cx="146.3878326996198" cy="315.1290268173385" style="fill: #bf812d; stroke: #666666; stroke-width: 1px;"></circle><circle r="4" cx="154.37262357414448" cy="315.1290268173385" style="fill: #4393c3; stroke: #666666; stroke-width: 1px;"></circle><circle r="4" cx="167.680608365019" cy="321.2008770450329" style="fill: #4393c3; stroke: #666666; stroke-width: 1px;"></circle><circle r="4" cx="287.45247148288973" cy="321.2008770450329" style="fill: #666666; stroke: #666666; stroke-width: 1px;"></circle><circle r="4" cx="303.4220532319392" cy="321.2008770450329" style="fill: #4393c3; stroke: #666666; stroke-width: 1px;"></circle><circle r="4" cx="319.3916349809886" cy="321.2008770450329" style="fill: #4393c3; stroke: #666666; stroke-width: 1px;"></circle><circle r="4" cx="380.6083650190114" cy="321.2008770450329" style="fill: #bf812d; stroke: #666666; stroke-width: 1px;"></circle><circle r="4" cx="399.23954372623575" cy="321.2008770450329" style="fill: #4393c3; stroke: #666666; stroke-width: 1px;"></circle><circle r="4" cx="500.3802281368821" cy="321.2008770450329" style="fill: #4393c3; stroke: #666666; stroke-width: 1px;"></circle><circle r="4" cx="505.7034220532319" cy="321.2008770450329" style="fill: #4393c3; stroke: #666666; stroke-width: 1px;"></circle><circle r="4" cx="529.6577946768061" cy="309.05717658964414" style="fill: #bf812d; stroke: #666666; stroke-width: 1px;"></circle><circle r="4" cx="548.2889733840304" cy="315.1290268173385" style="fill: #4393c3; stroke: #666666; stroke-width: 1px;"></circle><circle r="4" cx="574.9049429657795" cy="321.2008770450329" style="fill: #5aae61; stroke: #666666; stroke-width: 1px;"></circle><circle r="4" cx="614.8288973384031" cy="309.05717658964414" style="fill: #bf812d; stroke: #666666; stroke-width: 1px;"></circle><circle r="4" cx="628.1368821292775" cy="321.2008770450329" style="fill: #4393c3; stroke: #666666; stroke-width: 1px;"></circle><circle r="4" cx="665.3992395437263" cy="321.2008770450329" style="fill: #4393c3; stroke: #666666; stroke-width: 1px;"></circle><circle r="4" cx="689.3536121673004" cy="315.1290268173385" style="fill: #5aae61; stroke: #666666; stroke-width: 1px;"></circle><circle r="4" cx="700" cy="29.752066115702462" style="fill: #5aae61; stroke: #666666; stroke-width: 1px;"></circle></g><g><rect x="0" y="333" width="700" height="12" style="fill: #ffffff; stroke-width: 1px; stroke: #666666;"></rect><rect x="226.2357414448669" y="333" width="324.7148288973384" height="12" style="fill: #aec7e8; stroke-width: 1px; stroke: #666666;"></rect></g><g><a target="_blank" xlink:href="http://pfam.xfam.org/family/"><text y="343" x="350" text-anchor="middle" style="color: rgb(102, 102, 102); font-weight: normal; font-size: 12px; font-family: Arial; cursor: pointer;"></text></a><a target="_blank" xlink:href="http://pfam.xfam.org/family/Complex1_30kDa"><text y="343" x="388.5931558935361" text-anchor="middle" style="color: rgb(102, 102, 102); font-weight: normal; font-size: 12px; font-family: Arial; cursor: pointer;">Complex1_30kDa</text></a></g><g><text y="358" x="0" text-anchor="middle" visibility="hidden" style="font-size: 13px;">M</text><text y="358" x="2.661596958174905" text-anchor="middle" visibility="hidden" style="font-size: 13px;">A</text><text y="358" x="5.32319391634981" text-anchor="middle" visibility="hidden" style="font-size: 13px;">A</text><text y="358" x="7.984790874524715" text-anchor="middle" visibility="hidden" style="font-size: 13px;">A</text><text y="358" x="10.64638783269962" text-anchor="middle" visibility="hidden" style="font-size: 13px;">A</text><text y="358" x="13.307984790874524" text-anchor="middle" visibility="hidden" style="font-size: 13px;">V</text><text y="358" x="15.96958174904943" text-anchor="middle" visibility="hidden" style="font-size: 13px;">A</text><text y="358" x="18.631178707224333" text-anchor="middle" visibility="hidden" style="font-size: 13px;">R</text><text y="358" x="21.29277566539924" text-anchor="middle" visibility="hidden" style="font-size: 13px;">L</text><text y="358" x="23.954372623574145" text-anchor="middle" visibility="hidden" style="font-size: 13px;">W</text><text y="358" x="26.61596958174905" text-anchor="middle" visibility="hidden" style="font-size: 13px;">W</text><text y="358" x="29.277566539923953" text-anchor="middle" visibility="hidden" style="font-size: 13px;">R</text><text y="358" x="31.93916349809886" text-anchor="middle" visibility="hidden" style="font-size: 13px;">G</text><text y="358" x="34.60076045627376" text-anchor="middle" visibility="hidden" style="font-size: 13px;">I</text><text y="358" x="37.262357414448665" text-anchor="middle" visibility="hidden" style="font-size: 13px;">L</text><text y="358" x="39.92395437262358" text-anchor="middle" visibility="hidden" style="font-size: 13px;">G</text><text y="358" x="42.58555133079848" text-anchor="middle" visibility="hidden" style="font-size: 13px;">A</text><text y="358" x="45.247148288973385" text-anchor="middle" visibility="hidden" style="font-size: 13px;">S</text><text y="358" x="47.90874524714829" text-anchor="middle" visibility="hidden" style="font-size: 13px;">A</text><text y="358" x="50.570342205323186" text-anchor="middle" visibility="hidden" style="font-size: 13px;">L</text><text y="358" x="53.2319391634981" text-anchor="middle" visibility="hidden" style="font-size: 13px;">T</text><text y="358" x="55.89353612167301" text-anchor="middle" visibility="hidden" style="font-size: 13px;">R</text><text y="358" x="58.555133079847906" text-anchor="middle" visibility="hidden" style="font-size: 13px;">G</text><text y="358" x="61.21673003802281" text-anchor="middle" visibility="hidden" style="font-size: 13px;">T</text><text y="358" x="63.87832699619772" text-anchor="middle" visibility="hidden" style="font-size: 13px;">G</text><text y="358" x="66.53992395437263" text-anchor="middle" visibility="hidden" style="font-size: 13px;">R</text><text y="358" x="69.20152091254752" text-anchor="middle" visibility="hidden" style="font-size: 13px;">P</text><text y="358" x="71.86311787072243" text-anchor="middle" visibility="hidden" style="font-size: 13px;">S</text><text y="358" x="74.52471482889733" text-anchor="middle" visibility="hidden" style="font-size: 13px;">V</text><text y="358" x="77.18631178707224" text-anchor="middle" visibility="hidden" style="font-size: 13px;">L</text><text y="358" x="79.84790874524715" text-anchor="middle" visibility="hidden" style="font-size: 13px;">L</text><text y="358" x="82.50950570342205" text-anchor="middle" visibility="hidden" style="font-size: 13px;">L</text><text y="358" x="85.17110266159696" text-anchor="middle" visibility="hidden" style="font-size: 13px;">P</text><text y="358" x="87.83269961977186" text-anchor="middle" visibility="hidden" style="font-size: 13px;">V</text><text y="358" x="90.49429657794677" text-anchor="middle" visibility="hidden" style="font-size: 13px;">R</text><text y="358" x="93.15589353612167" text-anchor="middle" visibility="hidden" style="font-size: 13px;">R</text><text y="358" x="95.81749049429658" text-anchor="middle" visibility="hidden" style="font-size: 13px;">E</text><text y="358" x="98.47908745247149" text-anchor="middle" visibility="hidden" style="font-size: 13px;">S</text><text y="358" x="101.14068441064637" text-anchor="middle" visibility="hidden" style="font-size: 13px;">A</text><text y="358" x="103.80228136882128" text-anchor="middle" visibility="hidden" style="font-size: 13px;">G</text><text y="358" x="106.4638783269962" text-anchor="middle" visibility="hidden" style="font-size: 13px;">A</text><text y="358" x="109.1254752851711" text-anchor="middle" visibility="hidden" style="font-size: 13px;">D</text><text y="358" x="111.78707224334602" text-anchor="middle" visibility="hidden" style="font-size: 13px;">T</text><text y="358" x="114.44866920152091" text-anchor="middle" visibility="hidden" style="font-size: 13px;">R</text><text y="358" x="117.11026615969581" text-anchor="middle" visibility="hidden" style="font-size: 13px;">P</text><text y="358" x="119.77186311787072" text-anchor="middle" visibility="hidden" style="font-size: 13px;">T</text><text y="358" x="122.43346007604562" text-anchor="middle" visibility="hidden" style="font-size: 13px;">V</text><text y="358" x="125.09505703422053" text-anchor="middle" visibility="hidden" style="font-size: 13px;">R</text><text y="358" x="127.75665399239544" text-anchor="middle" visibility="hidden" style="font-size: 13px;">P</text><text y="358" x="130.41825095057035" text-anchor="middle" visibility="hidden" style="font-size: 13px;">R</text><text y="358" x="133.07984790874525" text-anchor="middle" visibility="hidden" style="font-size: 13px;">N</text><text y="358" x="135.74144486692015" text-anchor="middle" visibility="hidden" style="font-size: 13px;">D</text><text y="358" x="138.40304182509504" text-anchor="middle" visibility="hidden" style="font-size: 13px;">V</text><text y="358" x="141.06463878326997" text-anchor="middle" visibility="hidden" style="font-size: 13px;">A</text><text y="358" x="143.72623574144487" text-anchor="middle" visibility="hidden" style="font-size: 13px;">H</text><text y="358" x="146.3878326996198" text-anchor="middle" visibility="hidden" style="font-size: 13px;">K</text><text y="358" x="149.04942965779466" text-anchor="middle" visibility="hidden" style="font-size: 13px;">Q</text><text y="358" x="151.7110266159696" text-anchor="middle" visibility="hidden" style="font-size: 13px;">L</text><text y="358" x="154.37262357414448" text-anchor="middle" visibility="hidden" style="font-size: 13px;">S</text><text y="358" x="157.03422053231938" text-anchor="middle" visibility="hidden" style="font-size: 13px;">A</text><text y="358" x="159.6958174904943" text-anchor="middle" visibility="hidden" style="font-size: 13px;">F</text><text y="358" x="162.3574144486692" text-anchor="middle" visibility="hidden" style="font-size: 13px;">G</text><text y="358" x="165.0190114068441" text-anchor="middle" visibility="hidden" style="font-size: 13px;">E</text><text y="358" x="167.680608365019" text-anchor="middle" visibility="hidden" style="font-size: 13px;">Y</text><text y="358" x="170.34220532319392" text-anchor="middle" visibility="hidden" style="font-size: 13px;">V</text><text y="358" x="173.00380228136882" text-anchor="middle" visibility="hidden" style="font-size: 13px;">A</text><text y="358" x="175.66539923954372" text-anchor="middle" visibility="hidden" style="font-size: 13px;">E</text><text y="358" x="178.32699619771864" text-anchor="middle" visibility="hidden" style="font-size: 13px;">I</text><text y="358" x="180.98859315589354" text-anchor="middle" visibility="hidden" style="font-size: 13px;">L</text><text y="358" x="183.65019011406847" text-anchor="middle" visibility="hidden" style="font-size: 13px;">P</text><text y="358" x="186.31178707224333" text-anchor="middle" visibility="hidden" style="font-size: 13px;">K</text><text y="358" x="188.97338403041823" text-anchor="middle" visibility="hidden" style="font-size: 13px;">Y</text><text y="358" x="191.63498098859316" text-anchor="middle" visibility="hidden" style="font-size: 13px;">V</text><text y="358" x="194.29657794676805" text-anchor="middle" visibility="hidden" style="font-size: 13px;">Q</text><text y="358" x="196.95817490494298" text-anchor="middle" visibility="hidden" style="font-size: 13px;">Q</text><text y="358" x="199.61977186311788" text-anchor="middle" visibility="hidden" style="font-size: 13px;">V</text><text y="358" x="202.28136882129274" text-anchor="middle" visibility="hidden" style="font-size: 13px;">Q</text><text y="358" x="204.94296577946767" text-anchor="middle" visibility="hidden" style="font-size: 13px;">V</text><text y="358" x="207.60456273764257" text-anchor="middle" visibility="hidden" style="font-size: 13px;">S</text><text y="358" x="210.2661596958175" text-anchor="middle" visibility="hidden" style="font-size: 13px;">C</text><text y="358" x="212.9277566539924" text-anchor="middle" visibility="hidden" style="font-size: 13px;">F</text><text y="358" x="215.58935361216732" text-anchor="middle" visibility="hidden" style="font-size: 13px;">N</text><text y="358" x="218.2509505703422" text-anchor="middle" visibility="hidden" style="font-size: 13px;">E</text><text y="358" x="220.91254752851708" text-anchor="middle" visibility="hidden" style="font-size: 13px;">L</text><text y="358" x="223.57414448669203" text-anchor="middle" visibility="hidden" style="font-size: 13px;">E</text><text y="358" x="226.2357414448669" text-anchor="middle" visibility="hidden" style="font-size: 13px;">V</text><text y="358" x="228.89733840304183" text-anchor="middle" visibility="hidden" style="font-size: 13px;">C</text><text y="358" x="231.55893536121673" text-anchor="middle" visibility="hidden" style="font-size: 13px;">I</text><text y="358" x="234.22053231939162" text-anchor="middle" visibility="hidden" style="font-size: 13px;">H</text><text y="358" x="236.88212927756655" text-anchor="middle" visibility="hidden" style="font-size: 13px;">P</text><text y="358" x="239.54372623574145" text-anchor="middle" visibility="hidden" style="font-size: 13px;">D</text><text y="358" x="242.20532319391637" text-anchor="middle" visibility="hidden" style="font-size: 13px;">G</text><text y="358" x="244.86692015209124" text-anchor="middle" visibility="hidden" style="font-size: 13px;">V</text><text y="358" x="247.52851711026616" text-anchor="middle" visibility="hidden" style="font-size: 13px;">I</text><text y="358" x="250.19011406844106" text-anchor="middle" visibility="hidden" style="font-size: 13px;">P</text><text y="358" x="252.85171102661596" text-anchor="middle" visibility="hidden" style="font-size: 13px;">V</text><text y="358" x="255.51330798479088" text-anchor="middle" visibility="hidden" style="font-size: 13px;">L</text><text y="358" x="258.1749049429658" text-anchor="middle" visibility="hidden" style="font-size: 13px;">T</text><text y="358" x="260.8365019011407" text-anchor="middle" visibility="hidden" style="font-size: 13px;">F</text><text y="358" x="263.4980988593156" text-anchor="middle" visibility="hidden" style="font-size: 13px;">L</text><text y="358" x="266.1596958174905" text-anchor="middle" visibility="hidden" style="font-size: 13px;">R</text><text y="358" x="268.8212927756654" text-anchor="middle" visibility="hidden" style="font-size: 13px;">D</text><text y="358" x="271.4828897338403" text-anchor="middle" visibility="hidden" style="font-size: 13px;">H</text><text y="358" x="274.1444866920152" text-anchor="middle" visibility="hidden" style="font-size: 13px;">T</text><text y="358" x="276.8060836501901" text-anchor="middle" visibility="hidden" style="font-size: 13px;">N</text><text y="358" x="279.467680608365" text-anchor="middle" visibility="hidden" style="font-size: 13px;">A</text><text y="358" x="282.12927756653994" text-anchor="middle" visibility="hidden" style="font-size: 13px;">Q</text><text y="358" x="284.7908745247148" text-anchor="middle" visibility="hidden" style="font-size: 13px;">F</text><text y="358" x="287.45247148288973" text-anchor="middle" visibility="hidden" style="font-size: 13px;">K</text><text y="358" x="290.11406844106466" text-anchor="middle" visibility="hidden" style="font-size: 13px;">S</text><text y="358" x="292.7756653992396" text-anchor="middle" visibility="hidden" style="font-size: 13px;">L</text><text y="358" x="295.43726235741445" text-anchor="middle" visibility="hidden" style="font-size: 13px;">V</text><text y="358" x="298.0988593155893" text-anchor="middle" visibility="hidden" style="font-size: 13px;">D</text><text y="358" x="300.76045627376425" text-anchor="middle" visibility="hidden" style="font-size: 13px;">L</text><text y="358" x="303.4220532319392" text-anchor="middle" visibility="hidden" style="font-size: 13px;">T</text><text y="358" x="306.0836501901141" text-anchor="middle" visibility="hidden" style="font-size: 13px;">A</text><text y="358" x="308.74524714828897" text-anchor="middle" visibility="hidden" style="font-size: 13px;">V</text><text y="358" x="311.40684410646384" text-anchor="middle" visibility="hidden" style="font-size: 13px;">D</text><text y="358" x="314.06844106463876" text-anchor="middle" visibility="hidden" style="font-size: 13px;">V</text><text y="358" x="316.7300380228137" text-anchor="middle" visibility="hidden" style="font-size: 13px;">P</text><text y="358" x="319.3916349809886" text-anchor="middle" visibility="hidden" style="font-size: 13px;">T</text><text y="358" x="322.0532319391635" text-anchor="middle" visibility="hidden" style="font-size: 13px;">R</text><text y="358" x="324.7148288973384" text-anchor="middle" visibility="hidden" style="font-size: 13px;">Q</text><text y="358" x="327.37642585551333" text-anchor="middle" visibility="hidden" style="font-size: 13px;">N</text><text y="358" x="330.0380228136882" text-anchor="middle" visibility="hidden" style="font-size: 13px;">R</text><text y="358" x="332.6996197718631" text-anchor="middle" visibility="hidden" style="font-size: 13px;">F</text><text y="358" x="335.361216730038" text-anchor="middle" visibility="hidden" style="font-size: 13px;">E</text><text y="358" x="338.0228136882129" text-anchor="middle" visibility="hidden" style="font-size: 13px;">I</text><text y="358" x="340.68441064638785" text-anchor="middle" visibility="hidden" style="font-size: 13px;">V</text><text y="358" x="343.3460076045627" text-anchor="middle" visibility="hidden" style="font-size: 13px;">Y</text><text y="358" x="346.00760456273764" text-anchor="middle" visibility="hidden" style="font-size: 13px;">N</text><text y="358" x="348.6692015209125" text-anchor="middle" visibility="hidden" style="font-size: 13px;">L</text><text y="358" x="351.33079847908743" text-anchor="middle" visibility="hidden" style="font-size: 13px;">L</text><text y="358" x="353.99239543726236" text-anchor="middle" visibility="hidden" style="font-size: 13px;">S</text><text y="358" x="356.6539923954373" text-anchor="middle" visibility="hidden" style="font-size: 13px;">L</text><text y="358" x="359.31558935361215" text-anchor="middle" visibility="hidden" style="font-size: 13px;">R</text><text y="358" x="361.9771863117871" text-anchor="middle" visibility="hidden" style="font-size: 13px;">F</text><text y="358" x="364.638783269962" text-anchor="middle" visibility="hidden" style="font-size: 13px;">N</text><text y="358" x="367.30038022813693" text-anchor="middle" visibility="hidden" style="font-size: 13px;">S</text><text y="358" x="369.96197718631174" text-anchor="middle" visibility="hidden" style="font-size: 13px;">R</text><text y="358" x="372.62357414448667" text-anchor="middle" visibility="hidden" style="font-size: 13px;">I</text><text y="358" x="375.2851711026616" text-anchor="middle" visibility="hidden" style="font-size: 13px;">R</text><text y="358" x="377.94676806083646" text-anchor="middle" visibility="hidden" style="font-size: 13px;">V</text><text y="358" x="380.6083650190114" text-anchor="middle" visibility="hidden" style="font-size: 13px;">K</text><text y="358" x="383.2699619771863" text-anchor="middle" visibility="hidden" style="font-size: 13px;">T</text><text y="358" x="385.93155893536124" text-anchor="middle" visibility="hidden" style="font-size: 13px;">Y</text><text y="358" x="388.5931558935361" text-anchor="middle" visibility="hidden" style="font-size: 13px;">T</text><text y="358" x="391.25475285171103" text-anchor="middle" visibility="hidden" style="font-size: 13px;">D</text><text y="358" x="393.91634980988596" text-anchor="middle" visibility="hidden" style="font-size: 13px;">E</text><text y="358" x="396.5779467680608" text-anchor="middle" visibility="hidden" style="font-size: 13px;">L</text><text y="358" x="399.23954372623575" text-anchor="middle" visibility="hidden" style="font-size: 13px;">T</text><text y="358" x="401.9011406844107" text-anchor="middle" visibility="hidden" style="font-size: 13px;">P</text><text y="358" x="404.5627376425855" text-anchor="middle" visibility="hidden" style="font-size: 13px;">I</text><text y="358" x="407.2243346007604" text-anchor="middle" visibility="hidden" style="font-size: 13px;">E</text><text y="358" x="409.88593155893534" text-anchor="middle" visibility="hidden" style="font-size: 13px;">S</text><text y="358" x="412.5475285171103" text-anchor="middle" visibility="hidden" style="font-size: 13px;">A</text><text y="358" x="415.20912547528513" text-anchor="middle" visibility="hidden" style="font-size: 13px;">V</text><text y="358" x="417.87072243346006" text-anchor="middle" visibility="hidden" style="font-size: 13px;">S</text><text y="358" x="420.532319391635" text-anchor="middle" visibility="hidden" style="font-size: 13px;">V</text><text y="358" x="423.19391634980985" text-anchor="middle" visibility="hidden" style="font-size: 13px;">F</text><text y="358" x="425.8555133079848" text-anchor="middle" visibility="hidden" style="font-size: 13px;">K</text><text y="358" x="428.5171102661597" text-anchor="middle" visibility="hidden" style="font-size: 13px;">A</text><text y="358" x="431.17870722433463" text-anchor="middle" visibility="hidden" style="font-size: 13px;">A</text><text y="358" x="433.8403041825095" text-anchor="middle" visibility="hidden" style="font-size: 13px;">N</text><text y="358" x="436.5019011406844" text-anchor="middle" visibility="hidden" style="font-size: 13px;">W</text><text y="358" x="439.16349809885935" text-anchor="middle" visibility="hidden" style="font-size: 13px;">Y</text><text y="358" x="441.82509505703416" text-anchor="middle" visibility="hidden" style="font-size: 13px;">E</text><text y="358" x="444.48669201520914" text-anchor="middle" visibility="hidden" style="font-size: 13px;">R</text><text y="358" x="447.14828897338407" text-anchor="middle" visibility="hidden" style="font-size: 13px;">E</text><text y="358" x="449.809885931559" text-anchor="middle" visibility="hidden" style="font-size: 13px;">I</text><text y="358" x="452.4714828897338" text-anchor="middle" visibility="hidden" style="font-size: 13px;">W</text><text y="358" x="455.13307984790873" text-anchor="middle" visibility="hidden" style="font-size: 13px;">D</text><text y="358" x="457.79467680608366" text-anchor="middle" visibility="hidden" style="font-size: 13px;">M</text><text y="358" x="460.4562737642585" text-anchor="middle" visibility="hidden" style="font-size: 13px;">F</text><text y="358" x="463.11787072243345" text-anchor="middle" visibility="hidden" style="font-size: 13px;">G</text><text y="358" x="465.7794676806084" text-anchor="middle" visibility="hidden" style="font-size: 13px;">V</text><text y="358" x="468.44106463878325" text-anchor="middle" visibility="hidden" style="font-size: 13px;">F</text><text y="358" x="471.10266159695817" text-anchor="middle" visibility="hidden" style="font-size: 13px;">F</text><text y="358" x="473.7642585551331" text-anchor="middle" visibility="hidden" style="font-size: 13px;">A</text><text y="358" x="476.425855513308" text-anchor="middle" visibility="hidden" style="font-size: 13px;">N</text><text y="358" x="479.0874524714829" text-anchor="middle" visibility="hidden" style="font-size: 13px;">H</text><text y="358" x="481.7490494296578" text-anchor="middle" visibility="hidden" style="font-size: 13px;">P</text><text y="358" x="484.41064638783274" text-anchor="middle" visibility="hidden" style="font-size: 13px;">D</text><text y="358" x="487.07224334600755" text-anchor="middle" visibility="hidden" style="font-size: 13px;">L</text><text y="358" x="489.7338403041825" text-anchor="middle" visibility="hidden" style="font-size: 13px;">R</text><text y="358" x="492.3954372623574" text-anchor="middle" visibility="hidden" style="font-size: 13px;">R</text><text y="358" x="495.05703422053233" text-anchor="middle" visibility="hidden" style="font-size: 13px;">I</text><text y="358" x="497.7186311787072" text-anchor="middle" visibility="hidden" style="font-size: 13px;">L</text><text y="358" x="500.3802281368821" text-anchor="middle" visibility="hidden" style="font-size: 13px;">T</text><text y="358" x="503.04182509505705" text-anchor="middle" visibility="hidden" style="font-size: 13px;">D</text><text y="358" x="505.7034220532319" text-anchor="middle" visibility="hidden" style="font-size: 13px;">Y</text><text y="358" x="508.36501901140684" text-anchor="middle" visibility="hidden" style="font-size: 13px;">G</text><text y="358" x="511.02661596958177" text-anchor="middle" visibility="hidden" style="font-size: 13px;">F</text><text y="358" x="513.6882129277566" text-anchor="middle" visibility="hidden" style="font-size: 13px;">E</text><text y="358" x="516.3498098859316" text-anchor="middle" visibility="hidden" style="font-size: 13px;">G</text><text y="358" x="519.0114068441064" text-anchor="middle" visibility="hidden" style="font-size: 13px;">H</text><text y="358" x="521.6730038022814" text-anchor="middle" visibility="hidden" style="font-size: 13px;">P</text><text y="358" x="524.3346007604563" text-anchor="middle" visibility="hidden" style="font-size: 13px;">F</text><text y="358" x="526.9961977186312" text-anchor="middle" visibility="hidden" style="font-size: 13px;">R</text><text y="358" x="529.6577946768061" text-anchor="middle" visibility="hidden" style="font-size: 13px;">K</text><text y="358" x="532.319391634981" text-anchor="middle" visibility="hidden" style="font-size: 13px;">D</text><text y="358" x="534.9809885931559" text-anchor="middle" visibility="hidden" style="font-size: 13px;">F</text><text y="358" x="537.6425855513309" text-anchor="middle" visibility="hidden" style="font-size: 13px;">P</text><text y="358" x="540.3041825095057" text-anchor="middle" visibility="hidden" style="font-size: 13px;">L</text><text y="358" x="542.9657794676806" text-anchor="middle" visibility="hidden" style="font-size: 13px;">S</text><text y="358" x="545.6273764258555" text-anchor="middle" visibility="hidden" style="font-size: 13px;">G</text><text y="358" x="548.2889733840304" text-anchor="middle" visibility="hidden" style="font-size: 13px;">Y</text><text y="358" x="550.9505703422053" text-anchor="middle" visibility="hidden" style="font-size: 13px;">V</text><text y="358" x="553.6121673003802" text-anchor="middle" visibility="hidden" style="font-size: 13px;">E</text><text y="358" x="556.2737642585552" text-anchor="middle" visibility="hidden" style="font-size: 13px;">L</text><text y="358" x="558.93536121673" text-anchor="middle" visibility="hidden" style="font-size: 13px;">R</text><text y="358" x="561.5969581749049" text-anchor="middle" visibility="hidden" style="font-size: 13px;">Y</text><text y="358" x="564.2585551330799" text-anchor="middle" visibility="hidden" style="font-size: 13px;">D</text><text y="358" x="566.9201520912547" text-anchor="middle" visibility="hidden" style="font-size: 13px;">D</text><text y="358" x="569.5817490494296" text-anchor="middle" visibility="hidden" style="font-size: 13px;">E</text><text y="358" x="572.2433460076046" text-anchor="middle" visibility="hidden" style="font-size: 13px;">V</text><text y="358" x="574.9049429657795" text-anchor="middle" visibility="hidden" style="font-size: 13px;">K</text><text y="358" x="577.5665399239543" text-anchor="middle" visibility="hidden" style="font-size: 13px;">R</text><text y="358" x="580.2281368821293" text-anchor="middle" visibility="hidden" style="font-size: 13px;">V</text><text y="358" x="582.8897338403042" text-anchor="middle" visibility="hidden" style="font-size: 13px;">V</text><text y="358" x="585.5513307984792" text-anchor="middle" visibility="hidden" style="font-size: 13px;">A</text><text y="358" x="588.2129277566539" text-anchor="middle" visibility="hidden" style="font-size: 13px;">E</text><text y="358" x="590.8745247148289" text-anchor="middle" visibility="hidden" style="font-size: 13px;">P</text><text y="358" x="593.5361216730038" text-anchor="middle" visibility="hidden" style="font-size: 13px;">V</text><text y="358" x="596.1977186311786" text-anchor="middle" visibility="hidden" style="font-size: 13px;">E</text><text y="358" x="598.8593155893536" text-anchor="middle" visibility="hidden" style="font-size: 13px;">L</text><text y="358" x="601.5209125475285" text-anchor="middle" visibility="hidden" style="font-size: 13px;">A</text><text y="358" x="604.1825095057035" text-anchor="middle" visibility="hidden" style="font-size: 13px;">Q</text><text y="358" x="606.8441064638783" text-anchor="middle" visibility="hidden" style="font-size: 13px;">E</text><text y="358" x="609.5057034220532" text-anchor="middle" visibility="hidden" style="font-size: 13px;">F</text><text y="358" x="612.1673003802282" text-anchor="middle" visibility="hidden" style="font-size: 13px;">R</text><text y="358" x="614.8288973384031" text-anchor="middle" visibility="hidden" style="font-size: 13px;">K</text><text y="358" x="617.4904942965779" text-anchor="middle" visibility="hidden" style="font-size: 13px;">F</text><text y="358" x="620.1520912547529" text-anchor="middle" visibility="hidden" style="font-size: 13px;">D</text><text y="358" x="622.8136882129277" text-anchor="middle" visibility="hidden" style="font-size: 13px;">L</text><text y="358" x="625.4752851711027" text-anchor="middle" visibility="hidden" style="font-size: 13px;">N</text><text y="358" x="628.1368821292775" text-anchor="middle" visibility="hidden" style="font-size: 13px;">S</text><text y="358" x="630.7984790874525" text-anchor="middle" visibility="hidden" style="font-size: 13px;">P</text><text y="358" x="633.4600760456274" text-anchor="middle" visibility="hidden" style="font-size: 13px;">W</text><text y="358" x="636.1216730038022" text-anchor="middle" visibility="hidden" style="font-size: 13px;">E</text><text y="358" x="638.7832699619772" text-anchor="middle" visibility="hidden" style="font-size: 13px;">A</text><text y="358" x="641.4448669201521" text-anchor="middle" visibility="hidden" style="font-size: 13px;">F</text><text y="358" x="644.106463878327" text-anchor="middle" visibility="hidden" style="font-size: 13px;">P</text><text y="358" x="646.768060836502" text-anchor="middle" visibility="hidden" style="font-size: 13px;">V</text><text y="358" x="649.4296577946768" text-anchor="middle" visibility="hidden" style="font-size: 13px;">Y</text><text y="358" x="652.0912547528517" text-anchor="middle" visibility="hidden" style="font-size: 13px;">R</text><text y="358" x="654.7528517110267" text-anchor="middle" visibility="hidden" style="font-size: 13px;">Q</text><text y="358" x="657.4144486692015" text-anchor="middle" visibility="hidden" style="font-size: 13px;">P</text><text y="358" x="660.0760456273764" text-anchor="middle" visibility="hidden" style="font-size: 13px;">P</text><text y="358" x="662.7376425855513" text-anchor="middle" visibility="hidden" style="font-size: 13px;">E</text><text y="358" x="665.3992395437263" text-anchor="middle" visibility="hidden" style="font-size: 13px;">S</text><text y="358" x="668.0608365019011" text-anchor="middle" visibility="hidden" style="font-size: 13px;">L</text><text y="358" x="670.722433460076" text-anchor="middle" visibility="hidden" style="font-size: 13px;">K</text><text y="358" x="673.384030418251" text-anchor="middle" visibility="hidden" style="font-size: 13px;">L</text><text y="358" x="676.0456273764258" text-anchor="middle" visibility="hidden" style="font-size: 13px;">E</text><text y="358" x="678.7072243346007" text-anchor="middle" visibility="hidden" style="font-size: 13px;">A</text><text y="358" x="681.3688212927757" text-anchor="middle" visibility="hidden" style="font-size: 13px;">G</text><text y="358" x="684.0304182509506" text-anchor="middle" visibility="hidden" style="font-size: 13px;">D</text><text y="358" x="686.6920152091254" text-anchor="middle" visibility="hidden" style="font-size: 13px;">K</text><text y="358" x="689.3536121673004" text-anchor="middle" visibility="hidden" style="font-size: 13px;">K</text><text y="358" x="692.0152091254753" text-anchor="middle" visibility="hidden" style="font-size: 13px;">P</text><text y="358" x="694.6768060836503" text-anchor="middle" visibility="hidden" style="font-size: 13px;">D</text><text y="358" x="697.338403041825" text-anchor="middle" visibility="hidden" style="font-size: 13px;">A</text><text y="358" x="700" text-anchor="middle" visibility="hidden" style="font-size: 13px;">K</text></g></g></svg><g class="xAxis" transform="translate(0,360)" fill="none" font-size="10" font-family="sans-serif" text-anchor="middle"><path class="domain" stroke="#000" d="M0.5,6V0.5H700.5V6"></path><g class="tick" opacity="1" transform="translate(51.070342205323186,0)"><line stroke="#000" y2="6"></line><text fill="#000" y="9" dy="0.71em">20</text></g><g class="tick" opacity="1" transform="translate(104.30228136882128,0)"><line stroke="#000" y2="6"></line><text fill="#000" y="9" dy="0.71em">40</text></g><g class="tick" opacity="1" transform="translate(157.53422053231938,0)"><line stroke="#000" y2="6"></line><text fill="#000" y="9" dy="0.71em">60</text></g><g class="tick" opacity="1" transform="translate(210.7661596958175,0)"><line stroke="#000" y2="6"></line><text fill="#000" y="9" dy="0.71em">80</text></g><g class="tick" opacity="1" transform="translate(263.9980988593156,0)"><line stroke="#000" y2="6"></line><text fill="#000" y="9" dy="0.71em">100</text></g><g class="tick" opacity="1" transform="translate(317.2300380228137,0)"><line stroke="#000" y2="6"></line><text fill="#000" y="9" dy="0.71em">120</text></g><g class="tick" opacity="1" transform="translate(370.46197718631174,0)"><line stroke="#000" y2="6"></line><text fill="#000" y="9" dy="0.71em">140</text></g><g class="tick" opacity="1" transform="translate(423.69391634980985,0)"><line stroke="#000" y2="6"></line><text fill="#000" y="9" dy="0.71em">160</text></g><g class="tick" opacity="1" transform="translate(476.925855513308,0)"><line stroke="#000" y2="6"></line><text fill="#000" y="9" dy="0.71em">180</text></g><g class="tick" opacity="1" transform="translate(530.1577946768061,0)"><line stroke="#000" y2="6"></line><text fill="#000" y="9" dy="0.71em">200</text></g><g class="tick" opacity="1" transform="translate(583.3897338403042,0)"><line stroke="#000" y2="6"></line><text fill="#000" y="9" dy="0.71em">220</text></g><g class="tick" opacity="1" transform="translate(636.6216730038022,0)"><line stroke="#000" y2="6"></line><text fill="#000" y="9" dy="0.71em">240</text></g><g class="tick" opacity="1" transform="translate(689.8536121673004,0)"><line stroke="#000" y2="6"></line><text fill="#000" y="9" dy="0.71em">260</text></g></g><text class="x label" text-anchor="end" x="700" y="390" style="font-size: 13px; font-family: Arial;">Residue number</text><g class="yAxis" fill="none" font-size="10" font-family="sans-serif" text-anchor="end"><path class="domain" stroke="#000" d="M-6,360.5H0.5V0.5H-6"></path><g class="tick" opacity="1" transform="translate(0,358.1319784111992)"><line stroke="#000" x2="-6"></line><text fill="#000" x="-9" dy="0.32em"></text></g><g class="tick" opacity="1" transform="translate(0,327.77272727272725)"><line stroke="#000" x2="-6"></line><text fill="#000" x="-9" dy="0.32em">0</text></g><g class="tick" opacity="1" transform="translate(0,297.41347613425535)"><line stroke="#000" x2="-6"></line><text fill="#000" x="-9" dy="0.32em">5</text></g><g class="tick" opacity="1" transform="translate(0,267.05422499578344)"><line stroke="#000" x2="-6"></line><text fill="#000" x="-9" dy="0.32em">10</text></g><g class="tick" opacity="1" transform="translate(0,236.6949738573115)"><line stroke="#000" x2="-6"></line><text fill="#000" x="-9" dy="0.32em">15</text></g><g class="tick" opacity="1" transform="translate(0,206.3357227188396)"><line stroke="#000" x2="-6"></line><text fill="#000" x="-9" dy="0.32em">20</text></g><g class="tick" opacity="1" transform="translate(0,175.9764715803677)"><line stroke="#000" x2="-6"></line><text fill="#000" x="-9" dy="0.32em">25</text></g><g class="tick" opacity="1" transform="translate(0,145.61722044189574)"><line stroke="#000" x2="-6"></line><text fill="#000" x="-9" dy="0.32em">30</text></g><g class="tick" opacity="1" transform="translate(0,115.25796930342383)"><line stroke="#000" x2="-6"></line><text fill="#000" x="-9" dy="0.32em">35</text></g><g class="tick" opacity="1" transform="translate(0,84.89871816495196)"><line stroke="#000" x2="-6"></line><text fill="#000" x="-9" dy="0.32em">40</text></g><g class="tick" opacity="1" transform="translate(0,54.53946702648)"><line stroke="#000" x2="-6"></line><text fill="#000" x="-9" dy="0.32em">45</text></g><g class="tick" opacity="1" transform="translate(0,24.180215888008092)"><line stroke="#000" x2="-6"></line><text fill="#000" x="-9" dy="0.32em">50</text></g></g><text class="y label" text-anchor="middle" y="-50" x="-180" dy="0.8em" transform="rotate(-90)" style="font-size: 13px; font-family: Arial;">Total number of references</text><g class="axisRed" fill="none" font-size="10" font-family="sans-serif" text-anchor="start" visibility="hidden" transform="translate(700, 0)"><path class="domain" stroke="#000" d="M6,360.5H0.5V0.5H6"></path><g class="tick" opacity="1" transform="translate(0,360.5)"><line stroke="#000" x2="6"></line><text fill="#000" x="9" dy="0.32em">0</text></g><text text-anchor="start" dx="5.2em" dy="-2.6em" transform="rotate(90)" visibility="hidden" style="font-size: 12px; font-family: Arial; fill: #d7301f;">No recurrent (&gt;2) missense mutations!</text></g><g class="axisPurple" fill="none" font-size="10" font-family="sans-serif" text-anchor="start" visibility="hidden"><path class="domain" stroke="#000" d="M6,360.5H0.5V0.5H6"></path><g class="tick" opacity="1" transform="translate(0,357.52479338842977)"><line stroke="#000" x2="6"></line><text fill="#000" x="9" dy="0.32em"></text></g><g class="tick" opacity="1" transform="translate(0,327.77272727272725)"><line stroke="#000" x2="6"></line><text fill="#000" x="9" dy="0.32em">0</text></g><g class="tick" opacity="1" transform="translate(0,298.0206611570248)"><line stroke="#000" x2="6"></line><text fill="#000" x="9" dy="0.32em">0.1</text></g><g class="tick" opacity="1" transform="translate(0,268.2685950413223)"><line stroke="#000" x2="6"></line><text fill="#000" x="9" dy="0.32em">0.2</text></g><g class="tick" opacity="1" transform="translate(0,238.51652892561984)"><line stroke="#000" x2="6"></line><text fill="#000" x="9" dy="0.32em">0.3</text></g><g class="tick" opacity="1" transform="translate(0,208.76446280991738)"><line stroke="#000" x2="6"></line><text fill="#000" x="9" dy="0.32em">0.4</text></g><g class="tick" opacity="1" transform="translate(0,179.0123966942149)"><line stroke="#000" x2="6"></line><text fill="#000" x="9" dy="0.32em">0.5</text></g><g class="tick" opacity="1" transform="translate(0,149.26033057851242)"><line stroke="#000" x2="6"></line><text fill="#000" x="9" dy="0.32em">0.6</text></g><g class="tick" opacity="1" transform="translate(0,119.50826446280996)"><line stroke="#000" x2="6"></line><text fill="#000" x="9" dy="0.32em">0.7</text></g><g class="tick" opacity="1" transform="translate(0,89.75619834710744)"><line stroke="#000" x2="6"></line><text fill="#000" x="9" dy="0.32em">0.8</text></g><g class="tick" opacity="1" transform="translate(0,60.00413223140498)"><line stroke="#000" x2="6"></line><text fill="#000" x="9" dy="0.32em">0.9</text></g><g class="tick" opacity="1" transform="translate(0,30.25206611570252)"><line stroke="#000" x2="6"></line><text fill="#000" x="9" dy="0.32em">1</text></g><g class="tick" opacity="1" transform="translate(0,0.5)"><line stroke="#000" x2="6"></line><text fill="#000" x="9" dy="0.32em">1.1</text></g><text text-anchor="start" x="10" y="10" visibility="hidden" style="font-size: 12px; font-family: Arial; fill: #807dba;">No disease causing germline SNPs known!</text></g><circle cx="636" cy="15" r="10" class="compassNav" style="fill: #ffffff; stroke: #666666; stroke-width: 1px;"></circle><path d="M440.935 12.574l3.966 82.766C399.416 41.904 331.674 8 256 8 134.813 8 33.933 94.924 12.296 209.824 10.908 217.193 16.604 224 24.103 224h49.084c5.57 0 10.377-3.842 11.676-9.259C103.407 137.408 172.931 80 256 80c60.893 0 114.512 30.856 146.104 77.801l-101.53-4.865c-6.845-.328-12.574 5.133-12.574 11.986v47.411c0 6.627 5.373 12 12 12h200.333c6.627 0 12-5.373 12-12V12c0-6.627-5.373-12-12-12h-47.411c-6.853 0-12.315 5.729-11.987 12.574zM256 432c-60.895 0-114.517-30.858-146.109-77.805l101.868 4.871c6.845.327 12.573-5.134 12.573-11.986v-47.412c0-6.627-5.373-12-12-12H12c-6.627 0-12 5.373-12 12V500c0 6.627 5.373 12 12 12h47.385c6.863 0 12.328-5.745 11.985-12.599l-4.129-82.575C112.725 470.166 180.405 504 256 504c121.187 0 222.067-86.924 243.704-201.824 1.388-7.369-4.308-14.176-11.807-14.176h-49.084c-5.57 0-10.377 3.842-11.676 9.259C408.593 374.592 339.069 432 256 432z" class="compassNav" transform="translate(631, 10) scale(0.02)" style="fill: #666666; stroke: #666666; stroke-width: 1px;"></path><circle cx="658" cy="15" r="10" class="compassNav" style="fill: #ffffff; stroke: #666666; stroke-width: 1px;"></circle><line class="compassNav" stroke-width="2" stroke="#666666" x1="654" y1="15" x2="662" y2="15"></line><line class="compassNav" stroke-width="2" stroke="#666666" x1="658" y1="11" x2="658" y2="19"></line><circle cx="614" cy="15" r="10" class="compassNav" style="fill: #ffffff; stroke: #666666; stroke-width: 1px;"></circle><line class="compassNav" stroke-width="2" stroke="#666666" x1="610" y1="15" x2="618" y2="15"></line><path d="M582 14 l20 -12 a100,40 0 0,0 0,24z" class="compassNav" style="fill: #ffffff; stroke: #666666; stroke-width: 1px;"></path><path d="M690 14 l-20 -12 a100,40 0 0,1 0,24z" class="compassNav" style="fill: #ffffff; stroke: #666666; stroke-width: 1px;"></path><path d="M216 0h80c13.3 0 24 10.7 24 24v168h87.7c17.8 0 26.7 21.5 14.1 34.1L269.7 378.3c-7.5 7.5-19.8 7.5-27.3 0L90.1 226.1c-12.6-12.6-3.7-34.1 14.1-34.1H192V24c0-13.3 10.7-24 24-24zm296 376v112c0 13.3-10.7 24-24 24H24c-13.3 0-24-10.7-24-24V376c0-13.3 10.7-24 24-24h146.7l49 49c20.1 20.1 52.5 20.1 72.6 0l49-49H488c13.3 0 24 10.7 24 24zm-124 88c0-11-9-20-20-20s-20 9-20 20 9 20 20 20 20-9 20-20zm64 0c0-11-9-20-20-20s-20 9-20 20 9 20 20 20 20-9 20-20z" class="compassNav" transform="translate(552,0) scale(0.05)" style="fill: #336699; stroke: #336699; stroke-width: 1px; cursor: pointer;"></path></g></svg>