<svg width="800" height="400" style="background-color: white;"><g transform="translate(50,0)"><svg width="700" height="360"><g style="-webkit-tap-highlight-color: rgba(0, 0, 0, 0);"><rect width="700" height="360" style="fill: #ffffff;"></rect><g id="lines"><line class="line" stroke-width="1" stroke="#d7301f" x1="-752.1276595744681" y1="333" x2="-752.1276595744681" y2="360" visibility="hidden" style="stroke-dasharray: 3px, 3px;"></line></g><g><rect x="-757.1276595744681" y="355" width="10" height="10" visibility="hidden" style="fill: #ffffff; stroke: #d7301f;"></rect></g><g id="lines"><line class="line" stroke-width="1" stroke="#6a51a3" x1="-752.1276595744681" y1="333" x2="-752.1276595744681" y2="327.27272727272725" visibility="hidden" style="stroke-dasharray: 3px, 3px;"></line></g><g><rect x="-757.1276595744681" y="322.27272727272725" width="10" height="10" visibility="hidden" style="fill: #ffffff; stroke: #6a51a3;"></rect></g><g id="lines"><line class="line" stroke-width="1" stroke="#666666" x1="342.55319148936167" y1="333" x2="342.55319148936167" y2="29.75206611570252"></line><line class="line" stroke-width="1" stroke="#666666" x1="417.02127659574467" y1="333" x2="417.02127659574467" y2="29.75206611570252"></line><line class="line" stroke-width="1" stroke="#666666" x1="536.1702127659574" y1="333" x2="536.1702127659574" y2="29.75206611570252"></line></g><g id="circles"><circle r="4" cx="342.55319148936167" cy="29.75206611570252" style="fill: #5aae61; stroke: #666666; stroke-width: 1px;"></circle><circle r="4" cx="417.02127659574467" cy="29.75206611570252" style="fill: #5aae61; stroke: #666666; stroke-width: 1px;"></circle><circle r="4" cx="536.1702127659574" cy="29.75206611570252" style="fill: #4393c3; stroke: #666666; stroke-width: 1px;"></circle></g><g><rect x="0" y="333" width="700" height="12" style="fill: #ffffff; stroke-width: 1px; stroke: #666666;"></rect><rect x="156.38297872340425" y="333" width="506.3829787234042" height="12" style="fill: #aec7e8; stroke-width: 1px; stroke: #666666;"></rect></g><g><a target="_blank" xlink:href="http://pfam.xfam.org/family/"><text y="343" x="350" text-anchor="middle" style="color: rgb(102, 102, 102); font-weight: normal; font-size: 12px; font-family: Arial; cursor: pointer;"></text></a><a target="_blank" xlink:href="http://pfam.xfam.org/family/Uteroglobin"><text y="343" x="409.57446808510633" text-anchor="middle" style="color: rgb(102, 102, 102); font-weight: normal; font-size: 12px; font-family: Arial; cursor: pointer;">Uteroglobin</text></a></g><g><text y="358" x="0" text-anchor="middle" visibility="hidden" style="font-size: 13px;">M</text><text y="358" x="7.446808510638298" text-anchor="middle" visibility="hidden" style="font-size: 13px;">K</text><text y="358" x="14.893617021276595" text-anchor="middle" visibility="hidden" style="font-size: 13px;">L</text><text y="358" x="22.340425531914892" text-anchor="middle" visibility="hidden" style="font-size: 13px;">L</text><text y="358" x="29.78723404255319" text-anchor="middle" visibility="hidden" style="font-size: 13px;">M</text><text y="358" x="37.23404255319149" text-anchor="middle" visibility="hidden" style="font-size: 13px;">V</text><text y="358" x="44.680851063829785" text-anchor="middle" visibility="hidden" style="font-size: 13px;">L</text><text y="358" x="52.12765957446808" text-anchor="middle" visibility="hidden" style="font-size: 13px;">M</text><text y="358" x="59.57446808510638" text-anchor="middle" visibility="hidden" style="font-size: 13px;">L</text><text y="358" x="67.02127659574468" text-anchor="middle" visibility="hidden" style="font-size: 13px;">A</text><text y="358" x="74.46808510638299" text-anchor="middle" visibility="hidden" style="font-size: 13px;">A</text><text y="358" x="81.91489361702128" text-anchor="middle" visibility="hidden" style="font-size: 13px;">L</text><text y="358" x="89.36170212765957" text-anchor="middle" visibility="hidden" style="font-size: 13px;">L</text><text y="358" x="96.80851063829788" text-anchor="middle" visibility="hidden" style="font-size: 13px;">L</text><text y="358" x="104.25531914893617" text-anchor="middle" visibility="hidden" style="font-size: 13px;">H</text><text y="358" x="111.70212765957447" text-anchor="middle" visibility="hidden" style="font-size: 13px;">C</text><text y="358" x="119.14893617021276" text-anchor="middle" visibility="hidden" style="font-size: 13px;">Y</text><text y="358" x="126.59574468085107" text-anchor="middle" visibility="hidden" style="font-size: 13px;">A</text><text y="358" x="134.04255319148936" text-anchor="middle" visibility="hidden" style="font-size: 13px;">D</text><text y="358" x="141.48936170212764" text-anchor="middle" visibility="hidden" style="font-size: 13px;">S</text><text y="358" x="148.93617021276597" text-anchor="middle" visibility="hidden" style="font-size: 13px;">G</text><text y="358" x="156.38297872340425" text-anchor="middle" visibility="hidden" style="font-size: 13px;">C</text><text y="358" x="163.82978723404256" text-anchor="middle" visibility="hidden" style="font-size: 13px;">K</text><text y="358" x="171.27659574468083" text-anchor="middle" visibility="hidden" style="font-size: 13px;">L</text><text y="358" x="178.72340425531914" text-anchor="middle" visibility="hidden" style="font-size: 13px;">L</text><text y="358" x="186.17021276595744" text-anchor="middle" visibility="hidden" style="font-size: 13px;">E</text><text y="358" x="193.61702127659575" text-anchor="middle" visibility="hidden" style="font-size: 13px;">D</text><text y="358" x="201.06382978723406" text-anchor="middle" visibility="hidden" style="font-size: 13px;">M</text><text y="358" x="208.51063829787233" text-anchor="middle" visibility="hidden" style="font-size: 13px;">V</text><text y="358" x="215.95744680851064" text-anchor="middle" visibility="hidden" style="font-size: 13px;">E</text><text y="358" x="223.40425531914894" text-anchor="middle" visibility="hidden" style="font-size: 13px;">K</text><text y="358" x="230.85106382978722" text-anchor="middle" visibility="hidden" style="font-size: 13px;">T</text><text y="358" x="238.29787234042553" text-anchor="middle" visibility="hidden" style="font-size: 13px;">I</text><text y="358" x="245.74468085106383" text-anchor="middle" visibility="hidden" style="font-size: 13px;">N</text><text y="358" x="253.19148936170214" text-anchor="middle" visibility="hidden" style="font-size: 13px;">S</text><text y="358" x="260.6382978723404" text-anchor="middle" visibility="hidden" style="font-size: 13px;">D</text><text y="358" x="268.0851063829787" text-anchor="middle" visibility="hidden" style="font-size: 13px;">I</text><text y="358" x="275.53191489361706" text-anchor="middle" visibility="hidden" style="font-size: 13px;">S</text><text y="358" x="282.9787234042553" text-anchor="middle" visibility="hidden" style="font-size: 13px;">I</text><text y="358" x="290.4255319148936" text-anchor="middle" visibility="hidden" style="font-size: 13px;">P</text><text y="358" x="297.87234042553195" text-anchor="middle" visibility="hidden" style="font-size: 13px;">E</text><text y="358" x="305.3191489361702" text-anchor="middle" visibility="hidden" style="font-size: 13px;">Y</text><text y="358" x="312.7659574468085" text-anchor="middle" visibility="hidden" style="font-size: 13px;">K</text><text y="358" x="320.2127659574468" text-anchor="middle" visibility="hidden" style="font-size: 13px;">E</text><text y="358" x="327.6595744680851" text-anchor="middle" visibility="hidden" style="font-size: 13px;">L</text><text y="358" x="335.10638297872345" text-anchor="middle" visibility="hidden" style="font-size: 13px;">L</text><text y="358" x="342.55319148936167" text-anchor="middle" visibility="hidden" style="font-size: 13px;">Q</text><text y="358" x="350" text-anchor="middle" visibility="hidden" style="font-size: 13px;">E</text><text y="358" x="357.4468085106383" text-anchor="middle" visibility="hidden" style="font-size: 13px;">F</text><text y="358" x="364.8936170212766" text-anchor="middle" visibility="hidden" style="font-size: 13px;">I</text><text y="358" x="372.3404255319149" text-anchor="middle" visibility="hidden" style="font-size: 13px;">D</text><text y="358" x="379.78723404255317" text-anchor="middle" visibility="hidden" style="font-size: 13px;">S</text><text y="358" x="387.2340425531915" text-anchor="middle" visibility="hidden" style="font-size: 13px;">D</text><text y="358" x="394.6808510638298" text-anchor="middle" visibility="hidden" style="font-size: 13px;">A</text><text y="358" x="402.1276595744681" text-anchor="middle" visibility="hidden" style="font-size: 13px;">A</text><text y="358" x="409.5744680851064" text-anchor="middle" visibility="hidden" style="font-size: 13px;">A</text><text y="358" x="417.02127659574467" text-anchor="middle" visibility="hidden" style="font-size: 13px;">E</text><text y="358" x="424.468085106383" text-anchor="middle" visibility="hidden" style="font-size: 13px;">A</text><text y="358" x="431.9148936170213" text-anchor="middle" visibility="hidden" style="font-size: 13px;">M</text><text y="358" x="439.36170212765956" text-anchor="middle" visibility="hidden" style="font-size: 13px;">G</text><text y="358" x="446.8085106382979" text-anchor="middle" visibility="hidden" style="font-size: 13px;">K</text><text y="358" x="454.25531914893617" text-anchor="middle" visibility="hidden" style="font-size: 13px;">F</text><text y="358" x="461.70212765957444" text-anchor="middle" visibility="hidden" style="font-size: 13px;">K</text><text y="358" x="469.1489361702128" text-anchor="middle" visibility="hidden" style="font-size: 13px;">Q</text><text y="358" x="476.59574468085106" text-anchor="middle" visibility="hidden" style="font-size: 13px;">C</text><text y="358" x="484.0425531914894" text-anchor="middle" visibility="hidden" style="font-size: 13px;">F</text><text y="358" x="491.48936170212767" text-anchor="middle" visibility="hidden" style="font-size: 13px;">L</text><text y="358" x="498.93617021276594" text-anchor="middle" visibility="hidden" style="font-size: 13px;">N</text><text y="358" x="506.3829787234043" text-anchor="middle" visibility="hidden" style="font-size: 13px;">Q</text><text y="358" x="513.8297872340426" text-anchor="middle" visibility="hidden" style="font-size: 13px;">S</text><text y="358" x="521.2765957446808" text-anchor="middle" visibility="hidden" style="font-size: 13px;">H</text><text y="358" x="528.7234042553192" text-anchor="middle" visibility="hidden" style="font-size: 13px;">R</text><text y="358" x="536.1702127659574" text-anchor="middle" visibility="hidden" style="font-size: 13px;">T</text><text y="358" x="543.6170212765957" text-anchor="middle" visibility="hidden" style="font-size: 13px;">L</text><text y="358" x="551.0638297872341" text-anchor="middle" visibility="hidden" style="font-size: 13px;">K</text><text y="358" x="558.5106382978723" text-anchor="middle" visibility="hidden" style="font-size: 13px;">N</text><text y="358" x="565.9574468085106" text-anchor="middle" visibility="hidden" style="font-size: 13px;">F</text><text y="358" x="573.404255319149" text-anchor="middle" visibility="hidden" style="font-size: 13px;">G</text><text y="358" x="580.8510638297872" text-anchor="middle" visibility="hidden" style="font-size: 13px;">L</text><text y="358" x="588.2978723404256" text-anchor="middle" visibility="hidden" style="font-size: 13px;">M</text><text y="358" x="595.7446808510639" text-anchor="middle" visibility="hidden" style="font-size: 13px;">M</text><text y="358" x="603.1914893617021" text-anchor="middle" visibility="hidden" style="font-size: 13px;">H</text><text y="358" x="610.6382978723404" text-anchor="middle" visibility="hidden" style="font-size: 13px;">T</text><text y="358" x="618.0851063829787" text-anchor="middle" visibility="hidden" style="font-size: 13px;">V</text><text y="358" x="625.531914893617" text-anchor="middle" visibility="hidden" style="font-size: 13px;">Y</text><text y="358" x="632.9787234042553" text-anchor="middle" visibility="hidden" style="font-size: 13px;">D</text><text y="358" x="640.4255319148936" text-anchor="middle" visibility="hidden" style="font-size: 13px;">S</text><text y="358" x="647.8723404255319" text-anchor="middle" visibility="hidden" style="font-size: 13px;">I</text><text y="358" x="655.3191489361702" text-anchor="middle" visibility="hidden" style="font-size: 13px;">W</text><text y="358" x="662.7659574468084" text-anchor="middle" visibility="hidden" style="font-size: 13px;">C</text><text y="358" x="670.2127659574469" text-anchor="middle" visibility="hidden" style="font-size: 13px;">N</text><text y="358" x="677.6595744680851" text-anchor="middle" visibility="hidden" style="font-size: 13px;">M</text><text y="358" x="685.1063829787233" text-anchor="middle" visibility="hidden" style="font-size: 13px;">K</text><text y="358" x="692.5531914893618" text-anchor="middle" visibility="hidden" style="font-size: 13px;">S</text><text y="358" x="700" text-anchor="middle" visibility="hidden" style="font-size: 13px;">N</text></g></g></svg><g class="xAxis" transform="translate(0,360)" fill="none" font-size="10" font-family="sans-serif" text-anchor="middle"><path class="domain" stroke="#000" d="M0.5,6V0.5H700.5V6"></path><g class="tick" opacity="1" transform="translate(67.52127659574468,0)"><line stroke="#000" y2="6"></line><text fill="#000" y="9" dy="0.71em">10</text></g><g class="tick" opacity="1" transform="translate(141.98936170212764,0)"><line stroke="#000" y2="6"></line><text fill="#000" y="9" dy="0.71em">20</text></g><g class="tick" opacity="1" transform="translate(216.45744680851064,0)"><line stroke="#000" y2="6"></line><text fill="#000" y="9" dy="0.71em">30</text></g><g class="tick" opacity="1" transform="translate(290.9255319148936,0)"><line stroke="#000" y2="6"></line><text fill="#000" y="9" dy="0.71em">40</text></g><g class="tick" opacity="1" transform="translate(365.3936170212766,0)"><line stroke="#000" y2="6"></line><text fill="#000" y="9" dy="0.71em">50</text></g><g class="tick" opacity="1" transform="translate(439.86170212765956,0)"><line stroke="#000" y2="6"></line><text fill="#000" y="9" dy="0.71em">60</text></g><g class="tick" opacity="1" transform="translate(514.3297872340426,0)"><line stroke="#000" y2="6"></line><text fill="#000" y="9" dy="0.71em">70</text></g><g class="tick" opacity="1" transform="translate(588.7978723404256,0)"><line stroke="#000" y2="6"></line><text fill="#000" y="9" dy="0.71em">80</text></g><g class="tick" opacity="1" transform="translate(663.2659574468084,0)"><line stroke="#000" y2="6"></line><text fill="#000" y="9" dy="0.71em">90</text></g></g><text class="x label" text-anchor="end" x="700" y="390" style="font-size: 13px; font-family: Arial;">Residue number</text><g class="yAxis" fill="none" font-size="10" font-family="sans-serif" text-anchor="end"><path class="domain" stroke="#000" d="M-6,360.5H0.5V0.5H-6"></path><g class="tick" opacity="1" transform="translate(0,357.52479338842977)"><line stroke="#000" x2="-6"></line><text fill="#000" x="-9" dy="0.32em"></text></g><g class="tick" opacity="1" transform="translate(0,327.77272727272725)"><line stroke="#000" x2="-6"></line><text fill="#000" x="-9" dy="0.32em">0</text></g><g class="tick" opacity="1" transform="translate(0,298.0206611570248)"><line stroke="#000" x2="-6"></line><text fill="#000" x="-9" dy="0.32em">0.1</text></g><g class="tick" opacity="1" transform="translate(0,268.2685950413223)"><line stroke="#000" x2="-6"></line><text fill="#000" x="-9" dy="0.32em">0.2</text></g><g class="tick" opacity="1" transform="translate(0,238.51652892561984)"><line stroke="#000" x2="-6"></line><text fill="#000" x="-9" dy="0.32em">0.3</text></g><g class="tick" opacity="1" transform="translate(0,208.76446280991738)"><line stroke="#000" x2="-6"></line><text fill="#000" x="-9" dy="0.32em">0.4</text></g><g class="tick" opacity="1" transform="translate(0,179.0123966942149)"><line stroke="#000" x2="-6"></line><text fill="#000" x="-9" dy="0.32em">0.5</text></g><g class="tick" opacity="1" transform="translate(0,149.26033057851242)"><line stroke="#000" x2="-6"></line><text fill="#000" x="-9" dy="0.32em">0.6</text></g><g class="tick" opacity="1" transform="translate(0,119.50826446280996)"><line stroke="#000" x2="-6"></line><text fill="#000" x="-9" dy="0.32em">0.7</text></g><g class="tick" opacity="1" transform="translate(0,89.75619834710744)"><line stroke="#000" x2="-6"></line><text fill="#000" x="-9" dy="0.32em">0.8</text></g><g class="tick" opacity="1" transform="translate(0,60.00413223140498)"><line stroke="#000" x2="-6"></line><text fill="#000" x="-9" dy="0.32em">0.9</text></g><g class="tick" opacity="1" transform="translate(0,30.25206611570252)"><line stroke="#000" x2="-6"></line><text fill="#000" x="-9" dy="0.32em">1</text></g><g class="tick" opacity="1" transform="translate(0,0.5)"><line stroke="#000" x2="-6"></line><text fill="#000" x="-9" dy="0.32em">1.1</text></g></g><text class="y label" text-anchor="middle" y="-50" x="-180" dy="0.8em" transform="rotate(-90)" style="font-size: 13px; font-family: Arial;">Total number of references</text><g class="axisRed" fill="none" font-size="10" font-family="sans-serif" text-anchor="start" visibility="hidden" transform="translate(700, 0)"><path class="domain" stroke="#000" d="M6,360.5H0.5V0.5H6"></path><g class="tick" opacity="1" transform="translate(0,360.5)"><line stroke="#000" x2="6"></line><text fill="#000" x="9" dy="0.32em">0</text></g><text text-anchor="start" dx="5.2em" dy="-2.6em" transform="rotate(90)" visibility="hidden" style="font-size: 12px; font-family: Arial; fill: #d7301f;">No recurrent (&gt;2) missense mutations!</text></g><g class="axisPurple" fill="none" font-size="10" font-family="sans-serif" text-anchor="start" visibility="hidden"><path class="domain" stroke="#000" d="M6,360.5H0.5V0.5H6"></path><g class="tick" opacity="1" transform="translate(0,357.52479338842977)"><line stroke="#000" x2="6"></line><text fill="#000" x="9" dy="0.32em"></text></g><g class="tick" opacity="1" transform="translate(0,327.77272727272725)"><line stroke="#000" x2="6"></line><text fill="#000" x="9" dy="0.32em">0</text></g><g class="tick" opacity="1" transform="translate(0,298.0206611570248)"><line stroke="#000" x2="6"></line><text fill="#000" x="9" dy="0.32em">0.1</text></g><g class="tick" opacity="1" transform="translate(0,268.2685950413223)"><line stroke="#000" x2="6"></line><text fill="#000" x="9" dy="0.32em">0.2</text></g><g class="tick" opacity="1" transform="translate(0,238.51652892561984)"><line stroke="#000" x2="6"></line><text fill="#000" x="9" dy="0.32em">0.3</text></g><g class="tick" opacity="1" transform="translate(0,208.76446280991738)"><line stroke="#000" x2="6"></line><text fill="#000" x="9" dy="0.32em">0.4</text></g><g class="tick" opacity="1" transform="translate(0,179.0123966942149)"><line stroke="#000" x2="6"></line><text fill="#000" x="9" dy="0.32em">0.5</text></g><g class="tick" opacity="1" transform="translate(0,149.26033057851242)"><line stroke="#000" x2="6"></line><text fill="#000" x="9" dy="0.32em">0.6</text></g><g class="tick" opacity="1" transform="translate(0,119.50826446280996)"><line stroke="#000" x2="6"></line><text fill="#000" x="9" dy="0.32em">0.7</text></g><g class="tick" opacity="1" transform="translate(0,89.75619834710744)"><line stroke="#000" x2="6"></line><text fill="#000" x="9" dy="0.32em">0.8</text></g><g class="tick" opacity="1" transform="translate(0,60.00413223140498)"><line stroke="#000" x2="6"></line><text fill="#000" x="9" dy="0.32em">0.9</text></g><g class="tick" opacity="1" transform="translate(0,30.25206611570252)"><line stroke="#000" x2="6"></line><text fill="#000" x="9" dy="0.32em">1</text></g><g class="tick" opacity="1" transform="translate(0,0.5)"><line stroke="#000" x2="6"></line><text fill="#000" x="9" dy="0.32em">1.1</text></g><text text-anchor="start" x="10" y="10" visibility="hidden" style="font-size: 12px; font-family: Arial; fill: #807dba;">No disease causing germline SNPs known!</text></g><circle cx="636" cy="15" r="10" class="compassNav" style="fill: #ffffff; stroke: #666666; stroke-width: 1px;"></circle><path d="M440.935 12.574l3.966 82.766C399.416 41.904 331.674 8 256 8 134.813 8 33.933 94.924 12.296 209.824 10.908 217.193 16.604 224 24.103 224h49.084c5.57 0 10.377-3.842 11.676-9.259C103.407 137.408 172.931 80 256 80c60.893 0 114.512 30.856 146.104 77.801l-101.53-4.865c-6.845-.328-12.574 5.133-12.574 11.986v47.411c0 6.627 5.373 12 12 12h200.333c6.627 0 12-5.373 12-12V12c0-6.627-5.373-12-12-12h-47.411c-6.853 0-12.315 5.729-11.987 12.574zM256 432c-60.895 0-114.517-30.858-146.109-77.805l101.868 4.871c6.845.327 12.573-5.134 12.573-11.986v-47.412c0-6.627-5.373-12-12-12H12c-6.627 0-12 5.373-12 12V500c0 6.627 5.373 12 12 12h47.385c6.863 0 12.328-5.745 11.985-12.599l-4.129-82.575C112.725 470.166 180.405 504 256 504c121.187 0 222.067-86.924 243.704-201.824 1.388-7.369-4.308-14.176-11.807-14.176h-49.084c-5.57 0-10.377 3.842-11.676 9.259C408.593 374.592 339.069 432 256 432z" class="compassNav" transform="translate(631, 10) scale(0.02)" style="fill: #666666; stroke: #666666; stroke-width: 1px;"></path><circle cx="658" cy="15" r="10" class="compassNav" style="fill: #ffffff; stroke: #666666; stroke-width: 1px;"></circle><line class="compassNav" stroke-width="2" stroke="#666666" x1="654" y1="15" x2="662" y2="15"></line><line class="compassNav" stroke-width="2" stroke="#666666" x1="658" y1="11" x2="658" y2="19"></line><circle cx="614" cy="15" r="10" class="compassNav" style="fill: #ffffff; stroke: #666666; stroke-width: 1px;"></circle><line class="compassNav" stroke-width="2" stroke="#666666" x1="610" y1="15" x2="618" y2="15"></line><path d="M582 14 l20 -12 a100,40 0 0,0 0,24z" class="compassNav" style="fill: #ffffff; stroke: #666666; stroke-width: 1px;"></path><path d="M690 14 l-20 -12 a100,40 0 0,1 0,24z" class="compassNav" style="fill: #ffffff; stroke: #666666; stroke-width: 1px;"></path><path d="M216 0h80c13.3 0 24 10.7 24 24v168h87.7c17.8 0 26.7 21.5 14.1 34.1L269.7 378.3c-7.5 7.5-19.8 7.5-27.3 0L90.1 226.1c-12.6-12.6-3.7-34.1 14.1-34.1H192V24c0-13.3 10.7-24 24-24zm296 376v112c0 13.3-10.7 24-24 24H24c-13.3 0-24-10.7-24-24V376c0-13.3 10.7-24 24-24h146.7l49 49c20.1 20.1 52.5 20.1 72.6 0l49-49H488c13.3 0 24 10.7 24 24zm-124 88c0-11-9-20-20-20s-20 9-20 20 9 20 20 20 20-9 20-20zm64 0c0-11-9-20-20-20s-20 9-20 20 9 20 20 20 20-9 20-20z" class="compassNav" transform="translate(552,0) scale(0.05)" style="fill: #336699; stroke: #336699; stroke-width: 1px; cursor: pointer;"></path></g></svg>