<svg width="800" height="400" style="background-color: white;"><g transform="translate(50,0)"><svg width="700" height="360"><g style="-webkit-tap-highlight-color: rgba(0, 0, 0, 0);"><rect width="700" height="360" style="fill: #ffffff;"></rect><g id="lines"><line class="line" stroke-width="1" stroke="#d7301f" x1="-322.83105022831046" y1="333" x2="-322.83105022831046" y2="360" visibility="hidden" style="stroke-dasharray: 3px, 3px;"></line></g><g><rect x="-327.83105022831046" y="355" width="10" height="10" visibility="hidden" style="fill: #ffffff; stroke: #d7301f;"></rect></g><g id="lines"><line class="line" stroke-width="1" stroke="#6a51a3" x1="-322.83105022831046" y1="333" x2="-322.83105022831046" y2="327.27272727272725" visibility="hidden" style="stroke-dasharray: 3px, 3px;"></line></g><g><rect x="-327.83105022831046" y="322.27272727272725" width="10" height="10" visibility="hidden" style="fill: #ffffff; stroke: #6a51a3;"></rect></g><g id="lines"><line class="line" stroke-width="1" stroke="#666666" x1="22.37442922374429" y1="333" x2="22.37442922374429" y2="29.75206611570252"></line><line class="line" stroke-width="1" stroke="#666666" x1="57.534246575342465" y1="333" x2="57.534246575342465" y2="29.75206611570252"></line><line class="line" stroke-width="1" stroke="#666666" x1="83.10502283105022" y1="333" x2="83.10502283105022" y2="29.75206611570252"></line><line class="line" stroke-width="1" stroke="#666666" x1="399.5433789954338" y1="333" x2="399.5433789954338" y2="29.75206611570252"></line><line class="line" stroke-width="1" stroke="#666666" x1="405.93607305936075" y1="333" x2="405.93607305936075" y2="29.75206611570252"></line><line class="line" stroke-width="1" stroke="#666666" x1="418.72146118721463" y1="333" x2="418.72146118721463" y2="29.75206611570252"></line><line class="line" stroke-width="1" stroke="#666666" x1="425.11415525114154" y1="333" x2="425.11415525114154" y2="29.75206611570252"></line><line class="line" stroke-width="1" stroke="#666666" x1="508.2191780821918" y1="333" x2="508.2191780821918" y2="29.75206611570252"></line><line class="line" stroke-width="1" stroke="#666666" x1="687.2146118721461" y1="333" x2="687.2146118721461" y2="29.75206611570252"></line></g><g id="circles"><circle r="4" cx="22.37442922374429" cy="29.75206611570252" style="fill: #4393c3; stroke: #666666; stroke-width: 1px;"></circle><circle r="4" cx="57.534246575342465" cy="29.75206611570252" style="fill: #4393c3; stroke: #666666; stroke-width: 1px;"></circle><circle r="4" cx="83.10502283105022" cy="29.75206611570252" style="fill: #4393c3; stroke: #666666; stroke-width: 1px;"></circle><circle r="4" cx="399.5433789954338" cy="29.75206611570252" style="fill: #4393c3; stroke: #666666; stroke-width: 1px;"></circle><circle r="4" cx="405.93607305936075" cy="29.75206611570252" style="fill: #4393c3; stroke: #666666; stroke-width: 1px;"></circle><circle r="4" cx="418.72146118721463" cy="29.75206611570252" style="fill: #4393c3; stroke: #666666; stroke-width: 1px;"></circle><circle r="4" cx="425.11415525114154" cy="29.75206611570252" style="fill: #4393c3; stroke: #666666; stroke-width: 1px;"></circle><circle r="4" cx="508.2191780821918" cy="29.75206611570252" style="fill: #666666; stroke: #666666; stroke-width: 1px;"></circle><circle r="4" cx="687.2146118721461" cy="29.75206611570252" style="fill: #666666; stroke: #666666; stroke-width: 1px;"></circle></g><g><rect x="0" y="333" width="700" height="12" style="fill: #ffffff; stroke-width: 1px; stroke: #666666;"></rect><rect x="156.62100456621005" y="333" width="530.5936073059361" height="12" style="fill: #aec7e8; stroke-width: 1px; stroke: #666666;"></rect></g><g><a target="_blank" xlink:href="http://pfam.xfam.org/family/"><text y="343" x="350" text-anchor="middle" style="color: rgb(102, 102, 102); font-weight: normal; font-size: 12px; font-family: Arial; cursor: pointer;"></text></a><a target="_blank" xlink:href="http://pfam.xfam.org/family/Pyrid_oxidase_2"><text y="343" x="421.917808219178" text-anchor="middle" style="color: rgb(102, 102, 102); font-weight: normal; font-size: 12px; font-family: Arial; cursor: pointer;">Pyrid_oxidase_2</text></a></g><g><text y="358" x="0" text-anchor="middle" visibility="hidden" style="font-size: 13px;">M</text><text y="358" x="3.1963470319634704" text-anchor="middle" visibility="hidden" style="font-size: 13px;">A</text><text y="358" x="6.392694063926941" text-anchor="middle" visibility="hidden" style="font-size: 13px;">G</text><text y="358" x="9.58904109589041" text-anchor="middle" visibility="hidden" style="font-size: 13px;">L</text><text y="358" x="12.785388127853881" text-anchor="middle" visibility="hidden" style="font-size: 13px;">S</text><text y="358" x="15.981735159817351" text-anchor="middle" visibility="hidden" style="font-size: 13px;">R</text><text y="358" x="19.17808219178082" text-anchor="middle" visibility="hidden" style="font-size: 13px;">G</text><text y="358" x="22.37442922374429" text-anchor="middle" visibility="hidden" style="font-size: 13px;">S</text><text y="358" x="25.570776255707763" text-anchor="middle" visibility="hidden" style="font-size: 13px;">A</text><text y="358" x="28.767123287671232" text-anchor="middle" visibility="hidden" style="font-size: 13px;">R</text><text y="358" x="31.963470319634702" text-anchor="middle" visibility="hidden" style="font-size: 13px;">A</text><text y="358" x="35.15981735159817" text-anchor="middle" visibility="hidden" style="font-size: 13px;">L</text><text y="358" x="38.35616438356164" text-anchor="middle" visibility="hidden" style="font-size: 13px;">L</text><text y="358" x="41.55251141552511" text-anchor="middle" visibility="hidden" style="font-size: 13px;">A</text><text y="358" x="44.74885844748858" text-anchor="middle" visibility="hidden" style="font-size: 13px;">A</text><text y="358" x="47.94520547945205" text-anchor="middle" visibility="hidden" style="font-size: 13px;">L</text><text y="358" x="51.141552511415526" text-anchor="middle" visibility="hidden" style="font-size: 13px;">L</text><text y="358" x="54.337899543378995" text-anchor="middle" visibility="hidden" style="font-size: 13px;">A</text><text y="358" x="57.534246575342465" text-anchor="middle" visibility="hidden" style="font-size: 13px;">S</text><text y="358" x="60.730593607305934" text-anchor="middle" visibility="hidden" style="font-size: 13px;">T</text><text y="358" x="63.926940639269404" text-anchor="middle" visibility="hidden" style="font-size: 13px;">L</text><text y="358" x="67.12328767123287" text-anchor="middle" visibility="hidden" style="font-size: 13px;">L</text><text y="358" x="70.31963470319634" text-anchor="middle" visibility="hidden" style="font-size: 13px;">A</text><text y="358" x="73.51598173515981" text-anchor="middle" visibility="hidden" style="font-size: 13px;">L</text><text y="358" x="76.71232876712328" text-anchor="middle" visibility="hidden" style="font-size: 13px;">L</text><text y="358" x="79.90867579908675" text-anchor="middle" visibility="hidden" style="font-size: 13px;">V</text><text y="358" x="83.10502283105022" text-anchor="middle" visibility="hidden" style="font-size: 13px;">S</text><text y="358" x="86.30136986301369" text-anchor="middle" visibility="hidden" style="font-size: 13px;">P</text><text y="358" x="89.49771689497716" text-anchor="middle" visibility="hidden" style="font-size: 13px;">A</text><text y="358" x="92.69406392694063" text-anchor="middle" visibility="hidden" style="font-size: 13px;">R</text><text y="358" x="95.8904109589041" text-anchor="middle" visibility="hidden" style="font-size: 13px;">G</text><text y="358" x="99.08675799086757" text-anchor="middle" visibility="hidden" style="font-size: 13px;">R</text><text y="358" x="102.28310502283105" text-anchor="middle" visibility="hidden" style="font-size: 13px;">G</text><text y="358" x="105.47945205479452" text-anchor="middle" visibility="hidden" style="font-size: 13px;">G</text><text y="358" x="108.67579908675799" text-anchor="middle" visibility="hidden" style="font-size: 13px;">R</text><text y="358" x="111.87214611872146" text-anchor="middle" visibility="hidden" style="font-size: 13px;">D</text><text y="358" x="115.06849315068493" text-anchor="middle" visibility="hidden" style="font-size: 13px;">H</text><text y="358" x="118.2648401826484" text-anchor="middle" visibility="hidden" style="font-size: 13px;">G</text><text y="358" x="121.46118721461187" text-anchor="middle" visibility="hidden" style="font-size: 13px;">D</text><text y="358" x="124.65753424657534" text-anchor="middle" visibility="hidden" style="font-size: 13px;">W</text><text y="358" x="127.85388127853881" text-anchor="middle" visibility="hidden" style="font-size: 13px;">D</text><text y="358" x="131.05022831050226" text-anchor="middle" visibility="hidden" style="font-size: 13px;">E</text><text y="358" x="134.24657534246575" text-anchor="middle" visibility="hidden" style="font-size: 13px;">A</text><text y="358" x="137.44292237442923" text-anchor="middle" visibility="hidden" style="font-size: 13px;">S</text><text y="358" x="140.63926940639269" text-anchor="middle" visibility="hidden" style="font-size: 13px;">R</text><text y="358" x="143.83561643835617" text-anchor="middle" visibility="hidden" style="font-size: 13px;">L</text><text y="358" x="147.03196347031962" text-anchor="middle" visibility="hidden" style="font-size: 13px;">P</text><text y="358" x="150.2283105022831" text-anchor="middle" visibility="hidden" style="font-size: 13px;">P</text><text y="358" x="153.42465753424656" text-anchor="middle" visibility="hidden" style="font-size: 13px;">L</text><text y="358" x="156.62100456621005" text-anchor="middle" visibility="hidden" style="font-size: 13px;">P</text><text y="358" x="159.8173515981735" text-anchor="middle" visibility="hidden" style="font-size: 13px;">P</text><text y="358" x="163.013698630137" text-anchor="middle" visibility="hidden" style="font-size: 13px;">R</text><text y="358" x="166.21004566210044" text-anchor="middle" visibility="hidden" style="font-size: 13px;">E</text><text y="358" x="169.40639269406392" text-anchor="middle" visibility="hidden" style="font-size: 13px;">D</text><text y="358" x="172.60273972602738" text-anchor="middle" visibility="hidden" style="font-size: 13px;">A</text><text y="358" x="175.79908675799086" text-anchor="middle" visibility="hidden" style="font-size: 13px;">A</text><text y="358" x="178.99543378995432" text-anchor="middle" visibility="hidden" style="font-size: 13px;">R</text><text y="358" x="182.1917808219178" text-anchor="middle" visibility="hidden" style="font-size: 13px;">V</text><text y="358" x="185.38812785388126" text-anchor="middle" visibility="hidden" style="font-size: 13px;">A</text><text y="358" x="188.58447488584474" text-anchor="middle" visibility="hidden" style="font-size: 13px;">R</text><text y="358" x="191.7808219178082" text-anchor="middle" visibility="hidden" style="font-size: 13px;">F</text><text y="358" x="194.97716894977168" text-anchor="middle" visibility="hidden" style="font-size: 13px;">V</text><text y="358" x="198.17351598173514" text-anchor="middle" visibility="hidden" style="font-size: 13px;">T</text><text y="358" x="201.36986301369862" text-anchor="middle" visibility="hidden" style="font-size: 13px;">H</text><text y="358" x="204.5662100456621" text-anchor="middle" visibility="hidden" style="font-size: 13px;">V</text><text y="358" x="207.76255707762556" text-anchor="middle" visibility="hidden" style="font-size: 13px;">S</text><text y="358" x="210.95890410958904" text-anchor="middle" visibility="hidden" style="font-size: 13px;">D</text><text y="358" x="214.1552511415525" text-anchor="middle" visibility="hidden" style="font-size: 13px;">W</text><text y="358" x="217.35159817351598" text-anchor="middle" visibility="hidden" style="font-size: 13px;">G</text><text y="358" x="220.54794520547944" text-anchor="middle" visibility="hidden" style="font-size: 13px;">A</text><text y="358" x="223.74429223744292" text-anchor="middle" visibility="hidden" style="font-size: 13px;">L</text><text y="358" x="226.94063926940638" text-anchor="middle" visibility="hidden" style="font-size: 13px;">A</text><text y="358" x="230.13698630136986" text-anchor="middle" visibility="hidden" style="font-size: 13px;">T</text><text y="358" x="233.33333333333331" text-anchor="middle" visibility="hidden" style="font-size: 13px;">I</text><text y="358" x="236.5296803652968" text-anchor="middle" visibility="hidden" style="font-size: 13px;">S</text><text y="358" x="239.72602739726025" text-anchor="middle" visibility="hidden" style="font-size: 13px;">T</text><text y="358" x="242.92237442922374" text-anchor="middle" visibility="hidden" style="font-size: 13px;">L</text><text y="358" x="246.1187214611872" text-anchor="middle" visibility="hidden" style="font-size: 13px;">E</text><text y="358" x="249.31506849315068" text-anchor="middle" visibility="hidden" style="font-size: 13px;">A</text><text y="358" x="252.51141552511413" text-anchor="middle" visibility="hidden" style="font-size: 13px;">V</text><text y="358" x="255.70776255707761" text-anchor="middle" visibility="hidden" style="font-size: 13px;">R</text><text y="358" x="258.90410958904107" text-anchor="middle" visibility="hidden" style="font-size: 13px;">G</text><text y="358" x="262.1004566210045" text-anchor="middle" visibility="hidden" style="font-size: 13px;">R</text><text y="358" x="265.29680365296804" text-anchor="middle" visibility="hidden" style="font-size: 13px;">P</text><text y="358" x="268.4931506849315" text-anchor="middle" visibility="hidden" style="font-size: 13px;">F</text><text y="358" x="271.68949771689495" text-anchor="middle" visibility="hidden" style="font-size: 13px;">A</text><text y="358" x="274.88584474885846" text-anchor="middle" visibility="hidden" style="font-size: 13px;">D</text><text y="358" x="278.0821917808219" text-anchor="middle" visibility="hidden" style="font-size: 13px;">V</text><text y="358" x="281.27853881278537" text-anchor="middle" visibility="hidden" style="font-size: 13px;">L</text><text y="358" x="284.4748858447488" text-anchor="middle" visibility="hidden" style="font-size: 13px;">S</text><text y="358" x="287.67123287671234" text-anchor="middle" visibility="hidden" style="font-size: 13px;">L</text><text y="358" x="290.8675799086758" text-anchor="middle" visibility="hidden" style="font-size: 13px;">S</text><text y="358" x="294.06392694063925" text-anchor="middle" visibility="hidden" style="font-size: 13px;">D</text><text y="358" x="297.2602739726027" text-anchor="middle" visibility="hidden" style="font-size: 13px;">G</text><text y="358" x="300.4566210045662" text-anchor="middle" visibility="hidden" style="font-size: 13px;">P</text><text y="358" x="303.65296803652967" text-anchor="middle" visibility="hidden" style="font-size: 13px;">P</text><text y="358" x="306.8493150684931" text-anchor="middle" visibility="hidden" style="font-size: 13px;">G</text><text y="358" x="310.0456621004566" text-anchor="middle" visibility="hidden" style="font-size: 13px;">A</text><text y="358" x="313.2420091324201" text-anchor="middle" visibility="hidden" style="font-size: 13px;">G</text><text y="358" x="316.43835616438355" text-anchor="middle" visibility="hidden" style="font-size: 13px;">S</text><text y="358" x="319.634703196347" text-anchor="middle" visibility="hidden" style="font-size: 13px;">G</text><text y="358" x="322.83105022831046" text-anchor="middle" visibility="hidden" style="font-size: 13px;">V</text><text y="358" x="326.027397260274" text-anchor="middle" visibility="hidden" style="font-size: 13px;">P</text><text y="358" x="329.2237442922374" text-anchor="middle" visibility="hidden" style="font-size: 13px;">Y</text><text y="358" x="332.4200913242009" text-anchor="middle" visibility="hidden" style="font-size: 13px;">F</text><text y="358" x="335.61643835616434" text-anchor="middle" visibility="hidden" style="font-size: 13px;">Y</text><text y="358" x="338.81278538812785" text-anchor="middle" visibility="hidden" style="font-size: 13px;">L</text><text y="358" x="342.0091324200913" text-anchor="middle" visibility="hidden" style="font-size: 13px;">S</text><text y="358" x="345.20547945205476" text-anchor="middle" visibility="hidden" style="font-size: 13px;">P</text><text y="358" x="348.4018264840183" text-anchor="middle" visibility="hidden" style="font-size: 13px;">L</text><text y="358" x="351.5981735159817" text-anchor="middle" visibility="hidden" style="font-size: 13px;">Q</text><text y="358" x="354.79452054794524" text-anchor="middle" visibility="hidden" style="font-size: 13px;">L</text><text y="358" x="357.99086757990864" text-anchor="middle" visibility="hidden" style="font-size: 13px;">S</text><text y="358" x="361.18721461187215" text-anchor="middle" visibility="hidden" style="font-size: 13px;">V</text><text y="358" x="364.3835616438356" text-anchor="middle" visibility="hidden" style="font-size: 13px;">S</text><text y="358" x="367.5799086757991" text-anchor="middle" visibility="hidden" style="font-size: 13px;">N</text><text y="358" x="370.7762557077625" text-anchor="middle" visibility="hidden" style="font-size: 13px;">L</text><text y="358" x="373.972602739726" text-anchor="middle" visibility="hidden" style="font-size: 13px;">Q</text><text y="358" x="377.1689497716895" text-anchor="middle" visibility="hidden" style="font-size: 13px;">E</text><text y="358" x="380.365296803653" text-anchor="middle" visibility="hidden" style="font-size: 13px;">N</text><text y="358" x="383.5616438356164" text-anchor="middle" visibility="hidden" style="font-size: 13px;">P</text><text y="358" x="386.7579908675799" text-anchor="middle" visibility="hidden" style="font-size: 13px;">Y</text><text y="358" x="389.95433789954336" text-anchor="middle" visibility="hidden" style="font-size: 13px;">A</text><text y="358" x="393.1506849315069" text-anchor="middle" visibility="hidden" style="font-size: 13px;">T</text><text y="358" x="396.3470319634703" text-anchor="middle" visibility="hidden" style="font-size: 13px;">L</text><text y="358" x="399.5433789954338" text-anchor="middle" visibility="hidden" style="font-size: 13px;">T</text><text y="358" x="402.73972602739724" text-anchor="middle" visibility="hidden" style="font-size: 13px;">M</text><text y="358" x="405.93607305936075" text-anchor="middle" visibility="hidden" style="font-size: 13px;">T</text><text y="358" x="409.1324200913242" text-anchor="middle" visibility="hidden" style="font-size: 13px;">L</text><text y="358" x="412.32876712328766" text-anchor="middle" visibility="hidden" style="font-size: 13px;">A</text><text y="358" x="415.5251141552511" text-anchor="middle" visibility="hidden" style="font-size: 13px;">Q</text><text y="358" x="418.72146118721463" text-anchor="middle" visibility="hidden" style="font-size: 13px;">T</text><text y="358" x="421.9178082191781" text-anchor="middle" visibility="hidden" style="font-size: 13px;">N</text><text y="358" x="425.11415525114154" text-anchor="middle" visibility="hidden" style="font-size: 13px;">F</text><text y="358" x="428.310502283105" text-anchor="middle" visibility="hidden" style="font-size: 13px;">C</text><text y="358" x="431.5068493150685" text-anchor="middle" visibility="hidden" style="font-size: 13px;">K</text><text y="358" x="434.70319634703196" text-anchor="middle" visibility="hidden" style="font-size: 13px;">K</text><text y="358" x="437.8995433789955" text-anchor="middle" visibility="hidden" style="font-size: 13px;">H</text><text y="358" x="441.0958904109589" text-anchor="middle" visibility="hidden" style="font-size: 13px;">G</text><text y="358" x="444.2922374429224" text-anchor="middle" visibility="hidden" style="font-size: 13px;">F</text><text y="358" x="447.48858447488584" text-anchor="middle" visibility="hidden" style="font-size: 13px;">D</text><text y="358" x="450.68493150684935" text-anchor="middle" visibility="hidden" style="font-size: 13px;">P</text><text y="358" x="453.88127853881275" text-anchor="middle" visibility="hidden" style="font-size: 13px;">Q</text><text y="358" x="457.07762557077626" text-anchor="middle" visibility="hidden" style="font-size: 13px;">S</text><text y="358" x="460.2739726027397" text-anchor="middle" visibility="hidden" style="font-size: 13px;">P</text><text y="358" x="463.47031963470323" text-anchor="middle" visibility="hidden" style="font-size: 13px;">L</text><text y="358" x="466.66666666666663" text-anchor="middle" visibility="hidden" style="font-size: 13px;">C</text><text y="358" x="469.86301369863014" text-anchor="middle" visibility="hidden" style="font-size: 13px;">V</text><text y="358" x="473.0593607305936" text-anchor="middle" visibility="hidden" style="font-size: 13px;">H</text><text y="358" x="476.2557077625571" text-anchor="middle" visibility="hidden" style="font-size: 13px;">I</text><text y="358" x="479.4520547945205" text-anchor="middle" visibility="hidden" style="font-size: 13px;">M</text><text y="358" x="482.648401826484" text-anchor="middle" visibility="hidden" style="font-size: 13px;">L</text><text y="358" x="485.8447488584475" text-anchor="middle" visibility="hidden" style="font-size: 13px;">S</text><text y="358" x="489.041095890411" text-anchor="middle" visibility="hidden" style="font-size: 13px;">G</text><text y="358" x="492.2374429223744" text-anchor="middle" visibility="hidden" style="font-size: 13px;">T</text><text y="358" x="495.4337899543379" text-anchor="middle" visibility="hidden" style="font-size: 13px;">V</text><text y="358" x="498.63013698630135" text-anchor="middle" visibility="hidden" style="font-size: 13px;">T</text><text y="358" x="501.82648401826486" text-anchor="middle" visibility="hidden" style="font-size: 13px;">K</text><text y="358" x="505.02283105022826" text-anchor="middle" visibility="hidden" style="font-size: 13px;">V</text><text y="358" x="508.2191780821918" text-anchor="middle" visibility="hidden" style="font-size: 13px;">N</text><text y="358" x="511.41552511415523" text-anchor="middle" visibility="hidden" style="font-size: 13px;">E</text><text y="358" x="514.6118721461187" text-anchor="middle" visibility="hidden" style="font-size: 13px;">T</text><text y="358" x="517.8082191780821" text-anchor="middle" visibility="hidden" style="font-size: 13px;">E</text><text y="358" x="521.0045662100457" text-anchor="middle" visibility="hidden" style="font-size: 13px;">M</text><text y="358" x="524.200913242009" text-anchor="middle" visibility="hidden" style="font-size: 13px;">D</text><text y="358" x="527.3972602739726" text-anchor="middle" visibility="hidden" style="font-size: 13px;">I</text><text y="358" x="530.5936073059361" text-anchor="middle" visibility="hidden" style="font-size: 13px;">A</text><text y="358" x="533.7899543378995" text-anchor="middle" visibility="hidden" style="font-size: 13px;">K</text><text y="358" x="536.986301369863" text-anchor="middle" visibility="hidden" style="font-size: 13px;">H</text><text y="358" x="540.1826484018264" text-anchor="middle" visibility="hidden" style="font-size: 13px;">S</text><text y="358" x="543.3789954337899" text-anchor="middle" visibility="hidden" style="font-size: 13px;">L</text><text y="358" x="546.5753424657535" text-anchor="middle" visibility="hidden" style="font-size: 13px;">F</text><text y="358" x="549.7716894977169" text-anchor="middle" visibility="hidden" style="font-size: 13px;">I</text><text y="358" x="552.9680365296804" text-anchor="middle" visibility="hidden" style="font-size: 13px;">R</text><text y="358" x="556.1643835616438" text-anchor="middle" visibility="hidden" style="font-size: 13px;">H</text><text y="358" x="559.3607305936073" text-anchor="middle" visibility="hidden" style="font-size: 13px;">P</text><text y="358" x="562.5570776255707" text-anchor="middle" visibility="hidden" style="font-size: 13px;">E</text><text y="358" x="565.7534246575343" text-anchor="middle" visibility="hidden" style="font-size: 13px;">M</text><text y="358" x="568.9497716894977" text-anchor="middle" visibility="hidden" style="font-size: 13px;">K</text><text y="358" x="572.1461187214612" text-anchor="middle" visibility="hidden" style="font-size: 13px;">T</text><text y="358" x="575.3424657534247" text-anchor="middle" visibility="hidden" style="font-size: 13px;">W</text><text y="358" x="578.5388127853881" text-anchor="middle" visibility="hidden" style="font-size: 13px;">P</text><text y="358" x="581.7351598173516" text-anchor="middle" visibility="hidden" style="font-size: 13px;">S</text><text y="358" x="584.931506849315" text-anchor="middle" visibility="hidden" style="font-size: 13px;">S</text><text y="358" x="588.1278538812785" text-anchor="middle" visibility="hidden" style="font-size: 13px;">H</text><text y="358" x="591.3242009132421" text-anchor="middle" visibility="hidden" style="font-size: 13px;">N</text><text y="358" x="594.5205479452054" text-anchor="middle" visibility="hidden" style="font-size: 13px;">W</text><text y="358" x="597.716894977169" text-anchor="middle" visibility="hidden" style="font-size: 13px;">F</text><text y="358" x="600.9132420091324" text-anchor="middle" visibility="hidden" style="font-size: 13px;">F</text><text y="358" x="604.1095890410959" text-anchor="middle" visibility="hidden" style="font-size: 13px;">A</text><text y="358" x="607.3059360730593" text-anchor="middle" visibility="hidden" style="font-size: 13px;">K</text><text y="358" x="610.5022831050228" text-anchor="middle" visibility="hidden" style="font-size: 13px;">L</text><text y="358" x="613.6986301369863" text-anchor="middle" visibility="hidden" style="font-size: 13px;">N</text><text y="358" x="616.8949771689498" text-anchor="middle" visibility="hidden" style="font-size: 13px;">I</text><text y="358" x="620.0913242009132" text-anchor="middle" visibility="hidden" style="font-size: 13px;">T</text><text y="358" x="623.2876712328767" text-anchor="middle" visibility="hidden" style="font-size: 13px;">N</text><text y="358" x="626.4840182648402" text-anchor="middle" visibility="hidden" style="font-size: 13px;">I</text><text y="358" x="629.6803652968036" text-anchor="middle" visibility="hidden" style="font-size: 13px;">W</text><text y="358" x="632.8767123287671" text-anchor="middle" visibility="hidden" style="font-size: 13px;">V</text><text y="358" x="636.0730593607306" text-anchor="middle" visibility="hidden" style="font-size: 13px;">L</text><text y="358" x="639.269406392694" text-anchor="middle" visibility="hidden" style="font-size: 13px;">D</text><text y="358" x="642.4657534246576" text-anchor="middle" visibility="hidden" style="font-size: 13px;">Y</text><text y="358" x="645.6621004566209" text-anchor="middle" visibility="hidden" style="font-size: 13px;">F</text><text y="358" x="648.8584474885845" text-anchor="middle" visibility="hidden" style="font-size: 13px;">G</text><text y="358" x="652.054794520548" text-anchor="middle" visibility="hidden" style="font-size: 13px;">G</text><text y="358" x="655.2511415525114" text-anchor="middle" visibility="hidden" style="font-size: 13px;">P</text><text y="358" x="658.4474885844749" text-anchor="middle" visibility="hidden" style="font-size: 13px;">K</text><text y="358" x="661.6438356164383" text-anchor="middle" visibility="hidden" style="font-size: 13px;">I</text><text y="358" x="664.8401826484018" text-anchor="middle" visibility="hidden" style="font-size: 13px;">V</text><text y="358" x="668.0365296803653" text-anchor="middle" visibility="hidden" style="font-size: 13px;">T</text><text y="358" x="671.2328767123287" text-anchor="middle" visibility="hidden" style="font-size: 13px;">P</text><text y="358" x="674.4292237442922" text-anchor="middle" visibility="hidden" style="font-size: 13px;">E</text><text y="358" x="677.6255707762557" text-anchor="middle" visibility="hidden" style="font-size: 13px;">E</text><text y="358" x="680.8219178082192" text-anchor="middle" visibility="hidden" style="font-size: 13px;">Y</text><text y="358" x="684.0182648401826" text-anchor="middle" visibility="hidden" style="font-size: 13px;">Y</text><text y="358" x="687.2146118721461" text-anchor="middle" visibility="hidden" style="font-size: 13px;">N</text><text y="358" x="690.4109589041095" text-anchor="middle" visibility="hidden" style="font-size: 13px;">V</text><text y="358" x="693.6073059360731" text-anchor="middle" visibility="hidden" style="font-size: 13px;">T</text><text y="358" x="696.8036529680365" text-anchor="middle" visibility="hidden" style="font-size: 13px;">V</text><text y="358" x="700" text-anchor="middle" visibility="hidden" style="font-size: 13px;">Q</text></g></g></svg><g class="xAxis" transform="translate(0,360)" fill="none" font-size="10" font-family="sans-serif" text-anchor="middle"><path class="domain" stroke="#000" d="M0.5,6V0.5H700.5V6"></path><g class="tick" opacity="1" transform="translate(61.230593607305934,0)"><line stroke="#000" y2="6"></line><text fill="#000" y="9" dy="0.71em">20</text></g><g class="tick" opacity="1" transform="translate(125.15753424657534,0)"><line stroke="#000" y2="6"></line><text fill="#000" y="9" dy="0.71em">40</text></g><g class="tick" opacity="1" transform="translate(189.08447488584474,0)"><line stroke="#000" y2="6"></line><text fill="#000" y="9" dy="0.71em">60</text></g><g class="tick" opacity="1" transform="translate(253.01141552511413,0)"><line stroke="#000" y2="6"></line><text fill="#000" y="9" dy="0.71em">80</text></g><g class="tick" opacity="1" transform="translate(316.93835616438355,0)"><line stroke="#000" y2="6"></line><text fill="#000" y="9" dy="0.71em">100</text></g><g class="tick" opacity="1" transform="translate(380.865296803653,0)"><line stroke="#000" y2="6"></line><text fill="#000" y="9" dy="0.71em">120</text></g><g class="tick" opacity="1" transform="translate(444.7922374429224,0)"><line stroke="#000" y2="6"></line><text fill="#000" y="9" dy="0.71em">140</text></g><g class="tick" opacity="1" transform="translate(508.7191780821918,0)"><line stroke="#000" y2="6"></line><text fill="#000" y="9" dy="0.71em">160</text></g><g class="tick" opacity="1" transform="translate(572.6461187214612,0)"><line stroke="#000" y2="6"></line><text fill="#000" y="9" dy="0.71em">180</text></g><g class="tick" opacity="1" transform="translate(636.5730593607306,0)"><line stroke="#000" y2="6"></line><text fill="#000" y="9" dy="0.71em">200</text></g><g class="tick" opacity="1" transform="translate(700.5,0)"><line stroke="#000" y2="6"></line><text fill="#000" y="9" dy="0.71em">220</text></g></g><text class="x label" text-anchor="end" x="700" y="390" style="font-size: 13px; font-family: Arial;">Residue number</text><g class="yAxis" fill="none" font-size="10" font-family="sans-serif" text-anchor="end"><path class="domain" stroke="#000" d="M-6,360.5H0.5V0.5H-6"></path><g class="tick" opacity="1" transform="translate(0,357.52479338842977)"><line stroke="#000" x2="-6"></line><text fill="#000" x="-9" dy="0.32em"></text></g><g class="tick" opacity="1" transform="translate(0,327.77272727272725)"><line stroke="#000" x2="-6"></line><text fill="#000" x="-9" dy="0.32em">0</text></g><g class="tick" opacity="1" transform="translate(0,298.0206611570248)"><line stroke="#000" x2="-6"></line><text fill="#000" x="-9" dy="0.32em">0.1</text></g><g class="tick" opacity="1" transform="translate(0,268.2685950413223)"><line stroke="#000" x2="-6"></line><text fill="#000" x="-9" dy="0.32em">0.2</text></g><g class="tick" opacity="1" transform="translate(0,238.51652892561984)"><line stroke="#000" x2="-6"></line><text fill="#000" x="-9" dy="0.32em">0.3</text></g><g class="tick" opacity="1" transform="translate(0,208.76446280991738)"><line stroke="#000" x2="-6"></line><text fill="#000" x="-9" dy="0.32em">0.4</text></g><g class="tick" opacity="1" transform="translate(0,179.0123966942149)"><line stroke="#000" x2="-6"></line><text fill="#000" x="-9" dy="0.32em">0.5</text></g><g class="tick" opacity="1" transform="translate(0,149.26033057851242)"><line stroke="#000" x2="-6"></line><text fill="#000" x="-9" dy="0.32em">0.6</text></g><g class="tick" opacity="1" transform="translate(0,119.50826446280996)"><line stroke="#000" x2="-6"></line><text fill="#000" x="-9" dy="0.32em">0.7</text></g><g class="tick" opacity="1" transform="translate(0,89.75619834710744)"><line stroke="#000" x2="-6"></line><text fill="#000" x="-9" dy="0.32em">0.8</text></g><g class="tick" opacity="1" transform="translate(0,60.00413223140498)"><line stroke="#000" x2="-6"></line><text fill="#000" x="-9" dy="0.32em">0.9</text></g><g class="tick" opacity="1" transform="translate(0,30.25206611570252)"><line stroke="#000" x2="-6"></line><text fill="#000" x="-9" dy="0.32em">1</text></g><g class="tick" opacity="1" transform="translate(0,0.5)"><line stroke="#000" x2="-6"></line><text fill="#000" x="-9" dy="0.32em">1.1</text></g></g><text class="y label" text-anchor="middle" y="-50" x="-180" dy="0.8em" transform="rotate(-90)" style="font-size: 13px; font-family: Arial;">Total number of references</text><g class="axisRed" fill="none" font-size="10" font-family="sans-serif" text-anchor="start" visibility="hidden" transform="translate(700, 0)"><path class="domain" stroke="#000" d="M6,360.5H0.5V0.5H6"></path><g class="tick" opacity="1" transform="translate(0,360.5)"><line stroke="#000" x2="6"></line><text fill="#000" x="9" dy="0.32em">0</text></g><text text-anchor="start" dx="5.2em" dy="-2.6em" transform="rotate(90)" visibility="hidden" style="font-size: 12px; font-family: Arial; fill: #d7301f;">No recurrent (&gt;2) missense mutations!</text></g><g class="axisPurple" fill="none" font-size="10" font-family="sans-serif" text-anchor="start" visibility="hidden"><path class="domain" stroke="#000" d="M6,360.5H0.5V0.5H6"></path><g class="tick" opacity="1" transform="translate(0,357.52479338842977)"><line stroke="#000" x2="6"></line><text fill="#000" x="9" dy="0.32em"></text></g><g class="tick" opacity="1" transform="translate(0,327.77272727272725)"><line stroke="#000" x2="6"></line><text fill="#000" x="9" dy="0.32em">0</text></g><g class="tick" opacity="1" transform="translate(0,298.0206611570248)"><line stroke="#000" x2="6"></line><text fill="#000" x="9" dy="0.32em">0.1</text></g><g class="tick" opacity="1" transform="translate(0,268.2685950413223)"><line stroke="#000" x2="6"></line><text fill="#000" x="9" dy="0.32em">0.2</text></g><g class="tick" opacity="1" transform="translate(0,238.51652892561984)"><line stroke="#000" x2="6"></line><text fill="#000" x="9" dy="0.32em">0.3</text></g><g class="tick" opacity="1" transform="translate(0,208.76446280991738)"><line stroke="#000" x2="6"></line><text fill="#000" x="9" dy="0.32em">0.4</text></g><g class="tick" opacity="1" transform="translate(0,179.0123966942149)"><line stroke="#000" x2="6"></line><text fill="#000" x="9" dy="0.32em">0.5</text></g><g class="tick" opacity="1" transform="translate(0,149.26033057851242)"><line stroke="#000" x2="6"></line><text fill="#000" x="9" dy="0.32em">0.6</text></g><g class="tick" opacity="1" transform="translate(0,119.50826446280996)"><line stroke="#000" x2="6"></line><text fill="#000" x="9" dy="0.32em">0.7</text></g><g class="tick" opacity="1" transform="translate(0,89.75619834710744)"><line stroke="#000" x2="6"></line><text fill="#000" x="9" dy="0.32em">0.8</text></g><g class="tick" opacity="1" transform="translate(0,60.00413223140498)"><line stroke="#000" x2="6"></line><text fill="#000" x="9" dy="0.32em">0.9</text></g><g class="tick" opacity="1" transform="translate(0,30.25206611570252)"><line stroke="#000" x2="6"></line><text fill="#000" x="9" dy="0.32em">1</text></g><g class="tick" opacity="1" transform="translate(0,0.5)"><line stroke="#000" x2="6"></line><text fill="#000" x="9" dy="0.32em">1.1</text></g><text text-anchor="start" x="10" y="10" visibility="hidden" style="font-size: 12px; font-family: Arial; fill: #807dba;">No disease causing germline SNPs known!</text></g><circle cx="636" cy="15" r="10" class="compassNav" style="fill: #ffffff; stroke: #666666; stroke-width: 1px;"></circle><path d="M440.935 12.574l3.966 82.766C399.416 41.904 331.674 8 256 8 134.813 8 33.933 94.924 12.296 209.824 10.908 217.193 16.604 224 24.103 224h49.084c5.57 0 10.377-3.842 11.676-9.259C103.407 137.408 172.931 80 256 80c60.893 0 114.512 30.856 146.104 77.801l-101.53-4.865c-6.845-.328-12.574 5.133-12.574 11.986v47.411c0 6.627 5.373 12 12 12h200.333c6.627 0 12-5.373 12-12V12c0-6.627-5.373-12-12-12h-47.411c-6.853 0-12.315 5.729-11.987 12.574zM256 432c-60.895 0-114.517-30.858-146.109-77.805l101.868 4.871c6.845.327 12.573-5.134 12.573-11.986v-47.412c0-6.627-5.373-12-12-12H12c-6.627 0-12 5.373-12 12V500c0 6.627 5.373 12 12 12h47.385c6.863 0 12.328-5.745 11.985-12.599l-4.129-82.575C112.725 470.166 180.405 504 256 504c121.187 0 222.067-86.924 243.704-201.824 1.388-7.369-4.308-14.176-11.807-14.176h-49.084c-5.57 0-10.377 3.842-11.676 9.259C408.593 374.592 339.069 432 256 432z" class="compassNav" transform="translate(631, 10) scale(0.02)" style="fill: #666666; stroke: #666666; stroke-width: 1px;"></path><circle cx="658" cy="15" r="10" class="compassNav" style="fill: #ffffff; stroke: #666666; stroke-width: 1px;"></circle><line class="compassNav" stroke-width="2" stroke="#666666" x1="654" y1="15" x2="662" y2="15"></line><line class="compassNav" stroke-width="2" stroke="#666666" x1="658" y1="11" x2="658" y2="19"></line><circle cx="614" cy="15" r="10" class="compassNav" style="fill: #ffffff; stroke: #666666; stroke-width: 1px;"></circle><line class="compassNav" stroke-width="2" stroke="#666666" x1="610" y1="15" x2="618" y2="15"></line><path d="M582 14 l20 -12 a100,40 0 0,0 0,24z" class="compassNav" style="fill: #ffffff; stroke: #666666; stroke-width: 1px;"></path><path d="M690 14 l-20 -12 a100,40 0 0,1 0,24z" class="compassNav" style="fill: #ffffff; stroke: #666666; stroke-width: 1px;"></path><path d="M216 0h80c13.3 0 24 10.7 24 24v168h87.7c17.8 0 26.7 21.5 14.1 34.1L269.7 378.3c-7.5 7.5-19.8 7.5-27.3 0L90.1 226.1c-12.6-12.6-3.7-34.1 14.1-34.1H192V24c0-13.3 10.7-24 24-24zm296 376v112c0 13.3-10.7 24-24 24H24c-13.3 0-24-10.7-24-24V376c0-13.3 10.7-24 24-24h146.7l49 49c20.1 20.1 52.5 20.1 72.6 0l49-49H488c13.3 0 24 10.7 24 24zm-124 88c0-11-9-20-20-20s-20 9-20 20 9 20 20 20 20-9 20-20zm64 0c0-11-9-20-20-20s-20 9-20 20 9 20 20 20 20-9 20-20z" class="compassNav" transform="translate(552,0) scale(0.05)" style="fill: #336699; stroke: #336699; stroke-width: 1px; cursor: pointer;"></path></g></svg>