<svg width="800" height="400" style="background-color: white;"><g transform="translate(50,0)"><svg width="700" height="360"><g style="-webkit-tap-highlight-color: rgba(0, 0, 0, 0);"><rect width="700" height="360" style="fill: #ffffff;"></rect><g id="lines"><line class="line" stroke-width="1" stroke="#d7301f" x1="-441.875" y1="333" x2="-441.875" y2="360" visibility="hidden" style="stroke-dasharray: 3px, 3px;"></line></g><g><rect x="-446.875" y="355" width="10" height="10" visibility="hidden" style="fill: #ffffff; stroke: #d7301f;"></rect></g><g id="lines"><line class="line" stroke-width="1" stroke="#6a51a3" x1="-441.875" y1="333" x2="-441.875" y2="327.27272727272725" visibility="hidden" style="stroke-dasharray: 3px, 3px;"></line></g><g><rect x="-446.875" y="322.27272727272725" width="10" height="10" visibility="hidden" style="fill: #ffffff; stroke: #6a51a3;"></rect></g><g id="lines"><line class="line" stroke-width="1" stroke="#666666" x1="35" y1="333" x2="35" y2="325.40152814595353"></line><line class="line" stroke-width="1" stroke="#666666" x1="105" y1="333" x2="105" y2="325.40152814595353"></line><line class="line" stroke-width="1" stroke="#666666" x1="105" y1="333" x2="105" y2="323.5303290191798"></line><line class="line" stroke-width="1" stroke="#666666" x1="126.875" y1="333" x2="126.875" y2="325.40152814595353"></line><line class="line" stroke-width="1" stroke="#666666" x1="135.625" y1="333" x2="135.625" y2="323.5303290191798"></line><line class="line" stroke-width="1" stroke="#666666" x1="135.625" y1="333" x2="135.625" y2="325.40152814595353"></line><line class="line" stroke-width="1" stroke="#666666" x1="135.625" y1="333" x2="135.625" y2="323.5303290191798"></line><line class="line" stroke-width="1" stroke="#666666" x1="166.25" y1="333" x2="166.25" y2="325.40152814595353"></line><line class="line" stroke-width="1" stroke="#666666" x1="188.125" y1="333" x2="188.125" y2="325.40152814595353"></line><line class="line" stroke-width="1" stroke="#666666" x1="205.625" y1="333" x2="205.625" y2="263.65195696242006"></line><line class="line" stroke-width="1" stroke="#666666" x1="205.625" y1="333" x2="205.625" y2="325.40152814595353"></line><line class="line" stroke-width="1" stroke="#666666" x1="205.625" y1="333" x2="205.625" y2="323.5303290191798"></line><line class="line" stroke-width="1" stroke="#666666" x1="240.625" y1="333" x2="240.625" y2="293.59114299079994"></line><line class="line" stroke-width="1" stroke="#666666" x1="244.99999999999997" y1="333" x2="244.99999999999997" y2="325.40152814595353"></line><line class="line" stroke-width="1" stroke="#666666" x1="249.375" y1="333" x2="249.375" y2="325.40152814595353"></line><line class="line" stroke-width="1" stroke="#666666" x1="249.375" y1="333" x2="249.375" y2="325.40152814595353"></line><line class="line" stroke-width="1" stroke="#666666" x1="249.375" y1="333" x2="249.375" y2="325.40152814595353"></line><line class="line" stroke-width="1" stroke="#666666" x1="271.25" y1="333" x2="271.25" y2="239.32636831436145"></line><line class="line" stroke-width="1" stroke="#666666" x1="271.25" y1="333" x2="271.25" y2="325.40152814595353"></line><line class="line" stroke-width="1" stroke="#666666" x1="271.25" y1="333" x2="271.25" y2="323.5303290191798"></line><line class="line" stroke-width="1" stroke="#666666" x1="306.25" y1="333" x2="306.25" y2="321.65912989240604"></line><line class="line" stroke-width="1" stroke="#666666" x1="310.625" y1="333" x2="310.625" y2="29.75206611570252"></line><line class="line" stroke-width="1" stroke="#666666" x1="310.625" y1="333" x2="310.625" y2="323.5303290191798"></line><line class="line" stroke-width="1" stroke="#666666" x1="315" y1="333" x2="315" y2="301.0759394978949"></line><line class="line" stroke-width="1" stroke="#666666" x1="315" y1="333" x2="315" y2="325.40152814595353"></line><line class="line" stroke-width="1" stroke="#666666" x1="336.875" y1="333" x2="336.875" y2="317.91673163885855"></line><line class="line" stroke-width="1" stroke="#666666" x1="336.875" y1="333" x2="336.875" y2="323.5303290191798"></line><line class="line" stroke-width="1" stroke="#666666" x1="367.5" y1="333" x2="367.5" y2="306.68953687821613"></line><line class="line" stroke-width="1" stroke="#666666" x1="367.5" y1="333" x2="367.5" y2="323.5303290191798"></line><line class="line" stroke-width="1" stroke="#666666" x1="367.5" y1="333" x2="367.5" y2="323.5303290191798"></line><line class="line" stroke-width="1" stroke="#666666" x1="371.875" y1="333" x2="371.875" y2="323.5303290191798"></line><line class="line" stroke-width="1" stroke="#666666" x1="411.25" y1="333" x2="411.25" y2="308.56073600498985"></line><line class="line" stroke-width="1" stroke="#666666" x1="411.25" y1="333" x2="411.25" y2="325.40152814595353"></line><line class="line" stroke-width="1" stroke="#666666" x1="411.25" y1="333" x2="411.25" y2="323.5303290191798"></line><line class="line" stroke-width="1" stroke="#666666" x1="428.75000000000006" y1="333" x2="428.75000000000006" y2="317.91673163885855"></line><line class="line" stroke-width="1" stroke="#666666" x1="428.75000000000006" y1="333" x2="428.75000000000006" y2="323.5303290191798"></line><line class="line" stroke-width="1" stroke="#666666" x1="433.125" y1="333" x2="433.125" y2="317.91673163885855"></line><line class="line" stroke-width="1" stroke="#666666" x1="459.375" y1="333" x2="459.375" y2="319.7879307656323"></line><line class="line" stroke-width="1" stroke="#666666" x1="472.50000000000006" y1="333" x2="472.50000000000006" y2="325.40152814595353"></line><line class="line" stroke-width="1" stroke="#666666" x1="472.50000000000006" y1="333" x2="472.50000000000006" y2="325.40152814595353"></line><line class="line" stroke-width="1" stroke="#666666" x1="507.5" y1="333" x2="507.5" y2="306.68953687821613"></line><line class="line" stroke-width="1" stroke="#666666" x1="507.5" y1="333" x2="507.5" y2="325.40152814595353"></line><line class="line" stroke-width="1" stroke="#666666" x1="507.5" y1="333" x2="507.5" y2="323.5303290191798"></line><line class="line" stroke-width="1" stroke="#666666" x1="525" y1="333" x2="525" y2="325.40152814595353"></line><line class="line" stroke-width="1" stroke="#666666" x1="533.75" y1="333" x2="533.75" y2="325.40152814595353"></line><line class="line" stroke-width="1" stroke="#666666" x1="573.125" y1="333" x2="573.125" y2="323.5303290191798"></line><line class="line" stroke-width="1" stroke="#666666" x1="625.625" y1="333" x2="625.625" y2="310.4319351317636"></line><line class="line" stroke-width="1" stroke="#666666" x1="625.625" y1="333" x2="625.625" y2="323.5303290191798"></line><line class="line" stroke-width="1" stroke="#666666" x1="638.75" y1="333" x2="638.75" y2="317.91673163885855"></line><line class="line" stroke-width="1" stroke="#666666" x1="643.125" y1="333" x2="643.125" y2="304.8183377514424"></line><line class="line" stroke-width="1" stroke="#666666" x1="643.125" y1="333" x2="643.125" y2="325.40152814595353"></line><line class="line" stroke-width="1" stroke="#666666" x1="647.5" y1="333" x2="647.5" y2="286.106346483705"></line><line class="line" stroke-width="1" stroke="#666666" x1="647.5" y1="333" x2="647.5" y2="325.40152814595353"></line><line class="line" stroke-width="1" stroke="#666666" x1="647.5" y1="333" x2="647.5" y2="323.5303290191798"></line><line class="line" stroke-width="1" stroke="#666666" x1="651.875" y1="333" x2="651.875" y2="267.3943552159676"></line><line class="line" stroke-width="1" stroke="#666666" x1="660.625" y1="333" x2="660.625" y2="286.106346483705"></line></g><g id="circles"><circle r="4" cx="35" cy="325.40152814595353" style="fill: #5aae61; stroke: #666666; stroke-width: 1px;"></circle><circle r="4" cx="105" cy="325.40152814595353" style="fill: #5aae61; stroke: #666666; stroke-width: 1px;"></circle><circle r="4" cx="105" cy="323.5303290191798" style="fill: #666666; stroke: #666666; stroke-width: 1px;"></circle><circle r="4" cx="126.875" cy="325.40152814595353" style="fill: #4393c3; stroke: #666666; stroke-width: 1px;"></circle><circle r="4" cx="135.625" cy="323.5303290191798" style="fill: #bf812d; stroke: #666666; stroke-width: 1px;"></circle><circle r="4" cx="135.625" cy="325.40152814595353" style="fill: #666666; stroke: #666666; stroke-width: 1px;"></circle><circle r="4" cx="135.625" cy="323.5303290191798" style="fill: #5aae61; stroke: #666666; stroke-width: 1px;"></circle><circle r="4" cx="166.25" cy="325.40152814595353" style="fill: #4393c3; stroke: #666666; stroke-width: 1px;"></circle><circle r="4" cx="188.125" cy="325.40152814595353" style="fill: #4393c3; stroke: #666666; stroke-width: 1px;"></circle><circle r="4" cx="205.625" cy="263.65195696242006" style="fill: #5aae61; stroke: #666666; stroke-width: 1px;"></circle><circle r="4" cx="205.625" cy="325.40152814595353" style="fill: #bf812d; stroke: #666666; stroke-width: 1px;"></circle><circle r="4" cx="205.625" cy="323.5303290191798" style="fill: #666666; stroke: #666666; stroke-width: 1px;"></circle><circle r="4" cx="240.625" cy="293.59114299079994" style="fill: #4393c3; stroke: #666666; stroke-width: 1px;"></circle><circle r="4" cx="244.99999999999997" cy="325.40152814595353" style="fill: #4393c3; stroke: #666666; stroke-width: 1px;"></circle><circle r="4" cx="249.375" cy="325.40152814595353" style="fill: #5aae61; stroke: #666666; stroke-width: 1px;"></circle><circle r="4" cx="249.375" cy="325.40152814595353" style="fill: #bf812d; stroke: #666666; stroke-width: 1px;"></circle><circle r="4" cx="249.375" cy="325.40152814595353" style="fill: #666666; stroke: #666666; stroke-width: 1px;"></circle><circle r="4" cx="271.25" cy="239.32636831436145" style="fill: #5aae61; stroke: #666666; stroke-width: 1px;"></circle><circle r="4" cx="271.25" cy="325.40152814595353" style="fill: #bf812d; stroke: #666666; stroke-width: 1px;"></circle><circle r="4" cx="271.25" cy="323.5303290191798" style="fill: #666666; stroke: #666666; stroke-width: 1px;"></circle><circle r="4" cx="306.25" cy="321.65912989240604" style="fill: #5aae61; stroke: #666666; stroke-width: 1px;"></circle><circle r="4" cx="310.625" cy="29.75206611570252" style="fill: #5aae61; stroke: #666666; stroke-width: 1px;"></circle><circle r="4" cx="310.625" cy="323.5303290191798" style="fill: #666666; stroke: #666666; stroke-width: 1px;"></circle><circle r="4" cx="315" cy="301.0759394978949" style="fill: #5aae61; stroke: #666666; stroke-width: 1px;"></circle><circle r="4" cx="315" cy="325.40152814595353" style="fill: #666666; stroke: #666666; stroke-width: 1px;"></circle><circle r="4" cx="336.875" cy="317.91673163885855" style="fill: #5aae61; stroke: #666666; stroke-width: 1px;"></circle><circle r="4" cx="336.875" cy="323.5303290191798" style="fill: #666666; stroke: #666666; stroke-width: 1px;"></circle><circle r="4" cx="367.5" cy="306.68953687821613" style="fill: #5aae61; stroke: #666666; stroke-width: 1px;"></circle><circle r="4" cx="367.5" cy="323.5303290191798" style="fill: #bf812d; stroke: #666666; stroke-width: 1px;"></circle><circle r="4" cx="367.5" cy="323.5303290191798" style="fill: #666666; stroke: #666666; stroke-width: 1px;"></circle><circle r="4" cx="371.875" cy="323.5303290191798" style="fill: #4393c3; stroke: #666666; stroke-width: 1px;"></circle><circle r="4" cx="411.25" cy="308.56073600498985" style="fill: #5aae61; stroke: #666666; stroke-width: 1px;"></circle><circle r="4" cx="411.25" cy="325.40152814595353" style="fill: #bf812d; stroke: #666666; stroke-width: 1px;"></circle><circle r="4" cx="411.25" cy="323.5303290191798" style="fill: #666666; stroke: #666666; stroke-width: 1px;"></circle><circle r="4" cx="428.75000000000006" cy="317.91673163885855" style="fill: #5aae61; stroke: #666666; stroke-width: 1px;"></circle><circle r="4" cx="428.75000000000006" cy="323.5303290191798" style="fill: #666666; stroke: #666666; stroke-width: 1px;"></circle><circle r="4" cx="433.125" cy="317.91673163885855" style="fill: #4393c3; stroke: #666666; stroke-width: 1px;"></circle><circle r="4" cx="459.375" cy="319.7879307656323" style="fill: #4393c3; stroke: #666666; stroke-width: 1px;"></circle><circle r="4" cx="472.50000000000006" cy="325.40152814595353" style="fill: #5aae61; stroke: #666666; stroke-width: 1px;"></circle><circle r="4" cx="472.50000000000006" cy="325.40152814595353" style="fill: #666666; stroke: #666666; stroke-width: 1px;"></circle><circle r="4" cx="507.5" cy="306.68953687821613" style="fill: #5aae61; stroke: #666666; stroke-width: 1px;"></circle><circle r="4" cx="507.5" cy="325.40152814595353" style="fill: #bf812d; stroke: #666666; stroke-width: 1px;"></circle><circle r="4" cx="507.5" cy="323.5303290191798" style="fill: #666666; stroke: #666666; stroke-width: 1px;"></circle><circle r="4" cx="525" cy="325.40152814595353" style="fill: #5aae61; stroke: #666666; stroke-width: 1px;"></circle><circle r="4" cx="533.75" cy="325.40152814595353" style="fill: #5aae61; stroke: #666666; stroke-width: 1px;"></circle><circle r="4" cx="573.125" cy="323.5303290191798" style="fill: #4393c3; stroke: #666666; stroke-width: 1px;"></circle><circle r="4" cx="625.625" cy="310.4319351317636" style="fill: #5aae61; stroke: #666666; stroke-width: 1px;"></circle><circle r="4" cx="625.625" cy="323.5303290191798" style="fill: #666666; stroke: #666666; stroke-width: 1px;"></circle><circle r="4" cx="638.75" cy="317.91673163885855" style="fill: #5aae61; stroke: #666666; stroke-width: 1px;"></circle><circle r="4" cx="643.125" cy="304.8183377514424" style="fill: #5aae61; stroke: #666666; stroke-width: 1px;"></circle><circle r="4" cx="643.125" cy="325.40152814595353" style="fill: #666666; stroke: #666666; stroke-width: 1px;"></circle><circle r="4" cx="647.5" cy="286.106346483705" style="fill: #5aae61; stroke: #666666; stroke-width: 1px;"></circle><circle r="4" cx="647.5" cy="325.40152814595353" style="fill: #bf812d; stroke: #666666; stroke-width: 1px;"></circle><circle r="4" cx="647.5" cy="323.5303290191798" style="fill: #666666; stroke: #666666; stroke-width: 1px;"></circle><circle r="4" cx="651.875" cy="267.3943552159676" style="fill: #4393c3; stroke: #666666; stroke-width: 1px;"></circle><circle r="4" cx="660.625" cy="286.106346483705" style="fill: #4393c3; stroke: #666666; stroke-width: 1px;"></circle></g><g><rect x="0" y="333" width="700" height="12" style="fill: #ffffff; stroke-width: 1px; stroke: #666666;"></rect><rect x="8.75" y="333" width="665" height="12" style="fill: #aec7e8; stroke-width: 1px; stroke: #666666;"></rect></g><g><a target="_blank" xlink:href="http://pfam.xfam.org/family/"><text y="343" x="350" text-anchor="middle" style="color: rgb(102, 102, 102); font-weight: normal; font-size: 12px; font-family: Arial; cursor: pointer;"></text></a><a target="_blank" xlink:href="http://pfam.xfam.org/family/Mt_ATP-synt_D"><text y="343" x="341.25" text-anchor="middle" style="color: rgb(102, 102, 102); font-weight: normal; font-size: 12px; font-family: Arial; cursor: pointer;">Mt_ATP-synt_D</text></a></g><g><text y="358" x="0" text-anchor="middle" visibility="hidden" style="font-size: 13px;">M</text><text y="358" x="4.375" text-anchor="middle" visibility="hidden" style="font-size: 13px;">A</text><text y="358" x="8.75" text-anchor="middle" visibility="hidden" style="font-size: 13px;">G</text><text y="358" x="13.125" text-anchor="middle" visibility="hidden" style="font-size: 13px;">R</text><text y="358" x="17.5" text-anchor="middle" visibility="hidden" style="font-size: 13px;">K</text><text y="358" x="21.875" text-anchor="middle" visibility="hidden" style="font-size: 13px;">L</text><text y="358" x="26.25" text-anchor="middle" visibility="hidden" style="font-size: 13px;">A</text><text y="358" x="30.624999999999996" text-anchor="middle" visibility="hidden" style="font-size: 13px;">L</text><text y="358" x="35" text-anchor="middle" visibility="hidden" style="font-size: 13px;">K</text><text y="358" x="39.375" text-anchor="middle" visibility="hidden" style="font-size: 13px;">T</text><text y="358" x="43.75" text-anchor="middle" visibility="hidden" style="font-size: 13px;">I</text><text y="358" x="48.12500000000001" text-anchor="middle" visibility="hidden" style="font-size: 13px;">D</text><text y="358" x="52.5" text-anchor="middle" visibility="hidden" style="font-size: 13px;">W</text><text y="358" x="56.875" text-anchor="middle" visibility="hidden" style="font-size: 13px;">V</text><text y="358" x="61.24999999999999" text-anchor="middle" visibility="hidden" style="font-size: 13px;">A</text><text y="358" x="65.625" text-anchor="middle" visibility="hidden" style="font-size: 13px;">F</text><text y="358" x="70" text-anchor="middle" visibility="hidden" style="font-size: 13px;">A</text><text y="358" x="74.375" text-anchor="middle" visibility="hidden" style="font-size: 13px;">E</text><text y="358" x="78.75" text-anchor="middle" visibility="hidden" style="font-size: 13px;">I</text><text y="358" x="83.125" text-anchor="middle" visibility="hidden" style="font-size: 13px;">I</text><text y="358" x="87.5" text-anchor="middle" visibility="hidden" style="font-size: 13px;">P</text><text y="358" x="91.875" text-anchor="middle" visibility="hidden" style="font-size: 13px;">Q</text><text y="358" x="96.25000000000001" text-anchor="middle" visibility="hidden" style="font-size: 13px;">N</text><text y="358" x="100.62499999999999" text-anchor="middle" visibility="hidden" style="font-size: 13px;">Q</text><text y="358" x="105" text-anchor="middle" visibility="hidden" style="font-size: 13px;">K</text><text y="358" x="109.375" text-anchor="middle" visibility="hidden" style="font-size: 13px;">A</text><text y="358" x="113.75" text-anchor="middle" visibility="hidden" style="font-size: 13px;">I</text><text y="358" x="118.12500000000001" text-anchor="middle" visibility="hidden" style="font-size: 13px;">A</text><text y="358" x="122.49999999999999" text-anchor="middle" visibility="hidden" style="font-size: 13px;">S</text><text y="358" x="126.875" text-anchor="middle" visibility="hidden" style="font-size: 13px;">S</text><text y="358" x="131.25" text-anchor="middle" visibility="hidden" style="font-size: 13px;">L</text><text y="358" x="135.625" text-anchor="middle" visibility="hidden" style="font-size: 13px;">K</text><text y="358" x="140" text-anchor="middle" visibility="hidden" style="font-size: 13px;">S</text><text y="358" x="144.375" text-anchor="middle" visibility="hidden" style="font-size: 13px;">W</text><text y="358" x="148.75" text-anchor="middle" visibility="hidden" style="font-size: 13px;">N</text><text y="358" x="153.125" text-anchor="middle" visibility="hidden" style="font-size: 13px;">E</text><text y="358" x="157.5" text-anchor="middle" visibility="hidden" style="font-size: 13px;">T</text><text y="358" x="161.875" text-anchor="middle" visibility="hidden" style="font-size: 13px;">L</text><text y="358" x="166.25" text-anchor="middle" visibility="hidden" style="font-size: 13px;">T</text><text y="358" x="170.625" text-anchor="middle" visibility="hidden" style="font-size: 13px;">S</text><text y="358" x="175" text-anchor="middle" visibility="hidden" style="font-size: 13px;">R</text><text y="358" x="179.37499999999997" text-anchor="middle" visibility="hidden" style="font-size: 13px;">L</text><text y="358" x="183.75" text-anchor="middle" visibility="hidden" style="font-size: 13px;">A</text><text y="358" x="188.125" text-anchor="middle" visibility="hidden" style="font-size: 13px;">A</text><text y="358" x="192.50000000000003" text-anchor="middle" visibility="hidden" style="font-size: 13px;">L</text><text y="358" x="196.875" text-anchor="middle" visibility="hidden" style="font-size: 13px;">P</text><text y="358" x="201.24999999999997" text-anchor="middle" visibility="hidden" style="font-size: 13px;">E</text><text y="358" x="205.625" text-anchor="middle" visibility="hidden" style="font-size: 13px;">N</text><text y="358" x="210" text-anchor="middle" visibility="hidden" style="font-size: 13px;">P</text><text y="358" x="214.37500000000003" text-anchor="middle" visibility="hidden" style="font-size: 13px;">P</text><text y="358" x="218.75" text-anchor="middle" visibility="hidden" style="font-size: 13px;">A</text><text y="358" x="223.12499999999997" text-anchor="middle" visibility="hidden" style="font-size: 13px;">I</text><text y="358" x="227.5" text-anchor="middle" visibility="hidden" style="font-size: 13px;">D</text><text y="358" x="231.875" text-anchor="middle" visibility="hidden" style="font-size: 13px;">W</text><text y="358" x="236.25000000000003" text-anchor="middle" visibility="hidden" style="font-size: 13px;">A</text><text y="358" x="240.625" text-anchor="middle" visibility="hidden" style="font-size: 13px;">Y</text><text y="358" x="244.99999999999997" text-anchor="middle" visibility="hidden" style="font-size: 13px;">Y</text><text y="358" x="249.375" text-anchor="middle" visibility="hidden" style="font-size: 13px;">K</text><text y="358" x="253.75" text-anchor="middle" visibility="hidden" style="font-size: 13px;">A</text><text y="358" x="258.125" text-anchor="middle" visibility="hidden" style="font-size: 13px;">N</text><text y="358" x="262.5" text-anchor="middle" visibility="hidden" style="font-size: 13px;">V</text><text y="358" x="266.875" text-anchor="middle" visibility="hidden" style="font-size: 13px;">A</text><text y="358" x="271.25" text-anchor="middle" visibility="hidden" style="font-size: 13px;">K</text><text y="358" x="275.625" text-anchor="middle" visibility="hidden" style="font-size: 13px;">A</text><text y="358" x="280" text-anchor="middle" visibility="hidden" style="font-size: 13px;">G</text><text y="358" x="284.375" text-anchor="middle" visibility="hidden" style="font-size: 13px;">L</text><text y="358" x="288.75" text-anchor="middle" visibility="hidden" style="font-size: 13px;">V</text><text y="358" x="293.125" text-anchor="middle" visibility="hidden" style="font-size: 13px;">D</text><text y="358" x="297.5" text-anchor="middle" visibility="hidden" style="font-size: 13px;">D</text><text y="358" x="301.875" text-anchor="middle" visibility="hidden" style="font-size: 13px;">F</text><text y="358" x="306.25" text-anchor="middle" visibility="hidden" style="font-size: 13px;">E</text><text y="358" x="310.625" text-anchor="middle" visibility="hidden" style="font-size: 13px;">K</text><text y="358" x="315" text-anchor="middle" visibility="hidden" style="font-size: 13px;">K</text><text y="358" x="319.375" text-anchor="middle" visibility="hidden" style="font-size: 13px;">F</text><text y="358" x="323.75" text-anchor="middle" visibility="hidden" style="font-size: 13px;">N</text><text y="358" x="328.125" text-anchor="middle" visibility="hidden" style="font-size: 13px;">A</text><text y="358" x="332.5" text-anchor="middle" visibility="hidden" style="font-size: 13px;">L</text><text y="358" x="336.875" text-anchor="middle" visibility="hidden" style="font-size: 13px;">K</text><text y="358" x="341.25" text-anchor="middle" visibility="hidden" style="font-size: 13px;">V</text><text y="358" x="345.625" text-anchor="middle" visibility="hidden" style="font-size: 13px;">P</text><text y="358" x="350" text-anchor="middle" visibility="hidden" style="font-size: 13px;">V</text><text y="358" x="354.375" text-anchor="middle" visibility="hidden" style="font-size: 13px;">P</text><text y="358" x="358.74999999999994" text-anchor="middle" visibility="hidden" style="font-size: 13px;">E</text><text y="358" x="363.12500000000006" text-anchor="middle" visibility="hidden" style="font-size: 13px;">D</text><text y="358" x="367.5" text-anchor="middle" visibility="hidden" style="font-size: 13px;">K</text><text y="358" x="371.875" text-anchor="middle" visibility="hidden" style="font-size: 13px;">Y</text><text y="358" x="376.25" text-anchor="middle" visibility="hidden" style="font-size: 13px;">T</text><text y="358" x="380.62499999999994" text-anchor="middle" visibility="hidden" style="font-size: 13px;">A</text><text y="358" x="385.00000000000006" text-anchor="middle" visibility="hidden" style="font-size: 13px;">Q</text><text y="358" x="389.375" text-anchor="middle" visibility="hidden" style="font-size: 13px;">V</text><text y="358" x="393.75" text-anchor="middle" visibility="hidden" style="font-size: 13px;">D</text><text y="358" x="398.125" text-anchor="middle" visibility="hidden" style="font-size: 13px;">A</text><text y="358" x="402.49999999999994" text-anchor="middle" visibility="hidden" style="font-size: 13px;">E</text><text y="358" x="406.87500000000006" text-anchor="middle" visibility="hidden" style="font-size: 13px;">E</text><text y="358" x="411.25" text-anchor="middle" visibility="hidden" style="font-size: 13px;">K</text><text y="358" x="415.625" text-anchor="middle" visibility="hidden" style="font-size: 13px;">E</text><text y="358" x="420" text-anchor="middle" visibility="hidden" style="font-size: 13px;">D</text><text y="358" x="424.37499999999994" text-anchor="middle" visibility="hidden" style="font-size: 13px;">V</text><text y="358" x="428.75000000000006" text-anchor="middle" visibility="hidden" style="font-size: 13px;">K</text><text y="358" x="433.125" text-anchor="middle" visibility="hidden" style="font-size: 13px;">S</text><text y="358" x="437.5" text-anchor="middle" visibility="hidden" style="font-size: 13px;">C</text><text y="358" x="441.875" text-anchor="middle" visibility="hidden" style="font-size: 13px;">A</text><text y="358" x="446.24999999999994" text-anchor="middle" visibility="hidden" style="font-size: 13px;">E</text><text y="358" x="450.62500000000006" text-anchor="middle" visibility="hidden" style="font-size: 13px;">W</text><text y="358" x="455" text-anchor="middle" visibility="hidden" style="font-size: 13px;">V</text><text y="358" x="459.375" text-anchor="middle" visibility="hidden" style="font-size: 13px;">S</text><text y="358" x="463.75" text-anchor="middle" visibility="hidden" style="font-size: 13px;">L</text><text y="358" x="468.12499999999994" text-anchor="middle" visibility="hidden" style="font-size: 13px;">S</text><text y="358" x="472.50000000000006" text-anchor="middle" visibility="hidden" style="font-size: 13px;">K</text><text y="358" x="476.875" text-anchor="middle" visibility="hidden" style="font-size: 13px;">A</text><text y="358" x="481.25" text-anchor="middle" visibility="hidden" style="font-size: 13px;">R</text><text y="358" x="485.625" text-anchor="middle" visibility="hidden" style="font-size: 13px;">I</text><text y="358" x="489.99999999999994" text-anchor="middle" visibility="hidden" style="font-size: 13px;">V</text><text y="358" x="494.37500000000006" text-anchor="middle" visibility="hidden" style="font-size: 13px;">E</text><text y="358" x="498.75" text-anchor="middle" visibility="hidden" style="font-size: 13px;">Y</text><text y="358" x="503.125" text-anchor="middle" visibility="hidden" style="font-size: 13px;">E</text><text y="358" x="507.5" text-anchor="middle" visibility="hidden" style="font-size: 13px;">K</text><text y="358" x="511.87499999999994" text-anchor="middle" visibility="hidden" style="font-size: 13px;">E</text><text y="358" x="516.25" text-anchor="middle" visibility="hidden" style="font-size: 13px;">M</text><text y="358" x="520.625" text-anchor="middle" visibility="hidden" style="font-size: 13px;">E</text><text y="358" x="525" text-anchor="middle" visibility="hidden" style="font-size: 13px;">K</text><text y="358" x="529.375" text-anchor="middle" visibility="hidden" style="font-size: 13px;">M</text><text y="358" x="533.75" text-anchor="middle" visibility="hidden" style="font-size: 13px;">K</text><text y="358" x="538.125" text-anchor="middle" visibility="hidden" style="font-size: 13px;">N</text><text y="358" x="542.5" text-anchor="middle" visibility="hidden" style="font-size: 13px;">L</text><text y="358" x="546.875" text-anchor="middle" visibility="hidden" style="font-size: 13px;">I</text><text y="358" x="551.25" text-anchor="middle" visibility="hidden" style="font-size: 13px;">P</text><text y="358" x="555.625" text-anchor="middle" visibility="hidden" style="font-size: 13px;">F</text><text y="358" x="560" text-anchor="middle" visibility="hidden" style="font-size: 13px;">D</text><text y="358" x="564.375" text-anchor="middle" visibility="hidden" style="font-size: 13px;">Q</text><text y="358" x="568.75" text-anchor="middle" visibility="hidden" style="font-size: 13px;">M</text><text y="358" x="573.125" text-anchor="middle" visibility="hidden" style="font-size: 13px;">T</text><text y="358" x="577.5" text-anchor="middle" visibility="hidden" style="font-size: 13px;">I</text><text y="358" x="581.875" text-anchor="middle" visibility="hidden" style="font-size: 13px;">E</text><text y="358" x="586.25" text-anchor="middle" visibility="hidden" style="font-size: 13px;">D</text><text y="358" x="590.625" text-anchor="middle" visibility="hidden" style="font-size: 13px;">L</text><text y="358" x="595" text-anchor="middle" visibility="hidden" style="font-size: 13px;">N</text><text y="358" x="599.375" text-anchor="middle" visibility="hidden" style="font-size: 13px;">E</text><text y="358" x="603.75" text-anchor="middle" visibility="hidden" style="font-size: 13px;">A</text><text y="358" x="608.125" text-anchor="middle" visibility="hidden" style="font-size: 13px;">F</text><text y="358" x="612.5" text-anchor="middle" visibility="hidden" style="font-size: 13px;">P</text><text y="358" x="616.875" text-anchor="middle" visibility="hidden" style="font-size: 13px;">E</text><text y="358" x="621.25" text-anchor="middle" visibility="hidden" style="font-size: 13px;">T</text><text y="358" x="625.625" text-anchor="middle" visibility="hidden" style="font-size: 13px;">K</text><text y="358" x="630" text-anchor="middle" visibility="hidden" style="font-size: 13px;">L</text><text y="358" x="634.375" text-anchor="middle" visibility="hidden" style="font-size: 13px;">D</text><text y="358" x="638.75" text-anchor="middle" visibility="hidden" style="font-size: 13px;">K</text><text y="358" x="643.125" text-anchor="middle" visibility="hidden" style="font-size: 13px;">K</text><text y="358" x="647.5" text-anchor="middle" visibility="hidden" style="font-size: 13px;">K</text><text y="358" x="651.875" text-anchor="middle" visibility="hidden" style="font-size: 13px;">Y</text><text y="358" x="656.25" text-anchor="middle" visibility="hidden" style="font-size: 13px;">P</text><text y="358" x="660.625" text-anchor="middle" visibility="hidden" style="font-size: 13px;">Y</text><text y="358" x="665" text-anchor="middle" visibility="hidden" style="font-size: 13px;">W</text><text y="358" x="669.375" text-anchor="middle" visibility="hidden" style="font-size: 13px;">P</text><text y="358" x="673.75" text-anchor="middle" visibility="hidden" style="font-size: 13px;">H</text><text y="358" x="678.125" text-anchor="middle" visibility="hidden" style="font-size: 13px;">Q</text><text y="358" x="682.5" text-anchor="middle" visibility="hidden" style="font-size: 13px;">P</text><text y="358" x="686.875" text-anchor="middle" visibility="hidden" style="font-size: 13px;">I</text><text y="358" x="691.25" text-anchor="middle" visibility="hidden" style="font-size: 13px;">E</text><text y="358" x="695.625" text-anchor="middle" visibility="hidden" style="font-size: 13px;">N</text><text y="358" x="700" text-anchor="middle" visibility="hidden" style="font-size: 13px;">L</text></g></g></svg><g class="xAxis" transform="translate(0,360)" fill="none" font-size="10" font-family="sans-serif" text-anchor="middle"><path class="domain" stroke="#000" d="M0.5,6V0.5H700.5V6"></path><g class="tick" opacity="1" transform="translate(83.625,0)"><line stroke="#000" y2="6"></line><text fill="#000" y="9" dy="0.71em">20</text></g><g class="tick" opacity="1" transform="translate(171.125,0)"><line stroke="#000" y2="6"></line><text fill="#000" y="9" dy="0.71em">40</text></g><g class="tick" opacity="1" transform="translate(258.625,0)"><line stroke="#000" y2="6"></line><text fill="#000" y="9" dy="0.71em">60</text></g><g class="tick" opacity="1" transform="translate(346.125,0)"><line stroke="#000" y2="6"></line><text fill="#000" y="9" dy="0.71em">80</text></g><g class="tick" opacity="1" transform="translate(433.625,0)"><line stroke="#000" y2="6"></line><text fill="#000" y="9" dy="0.71em">100</text></g><g class="tick" opacity="1" transform="translate(521.125,0)"><line stroke="#000" y2="6"></line><text fill="#000" y="9" dy="0.71em">120</text></g><g class="tick" opacity="1" transform="translate(608.625,0)"><line stroke="#000" y2="6"></line><text fill="#000" y="9" dy="0.71em">140</text></g><g class="tick" opacity="1" transform="translate(696.125,0)"><line stroke="#000" y2="6"></line><text fill="#000" y="9" dy="0.71em">160</text></g></g><text class="x label" text-anchor="end" x="700" y="390" style="font-size: 13px; font-family: Arial;">Residue number</text><g class="yAxis" fill="none" font-size="10" font-family="sans-serif" text-anchor="end"><path class="domain" stroke="#000" d="M-6,360.5H0.5V0.5H-6"></path><g class="tick" opacity="1" transform="translate(0,327.77272727272725)"><line stroke="#000" x2="-6"></line><text fill="#000" x="-9" dy="0.32em">0</text></g><g class="tick" opacity="1" transform="translate(0,290.34874473725245)"><line stroke="#000" x2="-6"></line><text fill="#000" x="-9" dy="0.32em">20</text></g><g class="tick" opacity="1" transform="translate(0,252.92476220177764)"><line stroke="#000" x2="-6"></line><text fill="#000" x="-9" dy="0.32em">40</text></g><g class="tick" opacity="1" transform="translate(0,215.5007796663028)"><line stroke="#000" x2="-6"></line><text fill="#000" x="-9" dy="0.32em">60</text></g><g class="tick" opacity="1" transform="translate(0,178.07679713082803)"><line stroke="#000" x2="-6"></line><text fill="#000" x="-9" dy="0.32em">80</text></g><g class="tick" opacity="1" transform="translate(0,140.6528145953532)"><line stroke="#000" x2="-6"></line><text fill="#000" x="-9" dy="0.32em">100</text></g><g class="tick" opacity="1" transform="translate(0,103.22883205987836)"><line stroke="#000" x2="-6"></line><text fill="#000" x="-9" dy="0.32em">120</text></g><g class="tick" opacity="1" transform="translate(0,65.80484952440355)"><line stroke="#000" x2="-6"></line><text fill="#000" x="-9" dy="0.32em">140</text></g><g class="tick" opacity="1" transform="translate(0,28.380866988928744)"><line stroke="#000" x2="-6"></line><text fill="#000" x="-9" dy="0.32em">160</text></g></g><text class="y label" text-anchor="middle" y="-50" x="-180" dy="0.8em" transform="rotate(-90)" style="font-size: 13px; font-family: Arial;">Total number of references</text><g class="axisRed" fill="none" font-size="10" font-family="sans-serif" text-anchor="start" visibility="hidden" transform="translate(700, 0)"><path class="domain" stroke="#000" d="M6,360.5H0.5V0.5H6"></path><g class="tick" opacity="1" transform="translate(0,360.5)"><line stroke="#000" x2="6"></line><text fill="#000" x="9" dy="0.32em">0</text></g><text text-anchor="start" dx="5.2em" dy="-2.6em" transform="rotate(90)" visibility="hidden" style="font-size: 12px; font-family: Arial; fill: #d7301f;">No recurrent (&gt;2) missense mutations!</text></g><g class="axisPurple" fill="none" font-size="10" font-family="sans-serif" text-anchor="start" visibility="hidden"><path class="domain" stroke="#000" d="M6,360.5H0.5V0.5H6"></path><g class="tick" opacity="1" transform="translate(0,357.52479338842977)"><line stroke="#000" x2="6"></line><text fill="#000" x="9" dy="0.32em"></text></g><g class="tick" opacity="1" transform="translate(0,327.77272727272725)"><line stroke="#000" x2="6"></line><text fill="#000" x="9" dy="0.32em">0</text></g><g class="tick" opacity="1" transform="translate(0,298.0206611570248)"><line stroke="#000" x2="6"></line><text fill="#000" x="9" dy="0.32em">0.1</text></g><g class="tick" opacity="1" transform="translate(0,268.2685950413223)"><line stroke="#000" x2="6"></line><text fill="#000" x="9" dy="0.32em">0.2</text></g><g class="tick" opacity="1" transform="translate(0,238.51652892561984)"><line stroke="#000" x2="6"></line><text fill="#000" x="9" dy="0.32em">0.3</text></g><g class="tick" opacity="1" transform="translate(0,208.76446280991738)"><line stroke="#000" x2="6"></line><text fill="#000" x="9" dy="0.32em">0.4</text></g><g class="tick" opacity="1" transform="translate(0,179.0123966942149)"><line stroke="#000" x2="6"></line><text fill="#000" x="9" dy="0.32em">0.5</text></g><g class="tick" opacity="1" transform="translate(0,149.26033057851242)"><line stroke="#000" x2="6"></line><text fill="#000" x="9" dy="0.32em">0.6</text></g><g class="tick" opacity="1" transform="translate(0,119.50826446280996)"><line stroke="#000" x2="6"></line><text fill="#000" x="9" dy="0.32em">0.7</text></g><g class="tick" opacity="1" transform="translate(0,89.75619834710744)"><line stroke="#000" x2="6"></line><text fill="#000" x="9" dy="0.32em">0.8</text></g><g class="tick" opacity="1" transform="translate(0,60.00413223140498)"><line stroke="#000" x2="6"></line><text fill="#000" x="9" dy="0.32em">0.9</text></g><g class="tick" opacity="1" transform="translate(0,30.25206611570252)"><line stroke="#000" x2="6"></line><text fill="#000" x="9" dy="0.32em">1</text></g><g class="tick" opacity="1" transform="translate(0,0.5)"><line stroke="#000" x2="6"></line><text fill="#000" x="9" dy="0.32em">1.1</text></g><text text-anchor="start" x="10" y="10" visibility="hidden" style="font-size: 12px; font-family: Arial; fill: #807dba;">No disease causing germline SNPs known!</text></g><circle cx="636" cy="15" r="10" class="compassNav" style="fill: #ffffff; stroke: #666666; stroke-width: 1px;"></circle><path d="M440.935 12.574l3.966 82.766C399.416 41.904 331.674 8 256 8 134.813 8 33.933 94.924 12.296 209.824 10.908 217.193 16.604 224 24.103 224h49.084c5.57 0 10.377-3.842 11.676-9.259C103.407 137.408 172.931 80 256 80c60.893 0 114.512 30.856 146.104 77.801l-101.53-4.865c-6.845-.328-12.574 5.133-12.574 11.986v47.411c0 6.627 5.373 12 12 12h200.333c6.627 0 12-5.373 12-12V12c0-6.627-5.373-12-12-12h-47.411c-6.853 0-12.315 5.729-11.987 12.574zM256 432c-60.895 0-114.517-30.858-146.109-77.805l101.868 4.871c6.845.327 12.573-5.134 12.573-11.986v-47.412c0-6.627-5.373-12-12-12H12c-6.627 0-12 5.373-12 12V500c0 6.627 5.373 12 12 12h47.385c6.863 0 12.328-5.745 11.985-12.599l-4.129-82.575C112.725 470.166 180.405 504 256 504c121.187 0 222.067-86.924 243.704-201.824 1.388-7.369-4.308-14.176-11.807-14.176h-49.084c-5.57 0-10.377 3.842-11.676 9.259C408.593 374.592 339.069 432 256 432z" class="compassNav" transform="translate(631, 10) scale(0.02)" style="fill: #666666; stroke: #666666; stroke-width: 1px;"></path><circle cx="658" cy="15" r="10" class="compassNav" style="fill: #ffffff; stroke: #666666; stroke-width: 1px;"></circle><line class="compassNav" stroke-width="2" stroke="#666666" x1="654" y1="15" x2="662" y2="15"></line><line class="compassNav" stroke-width="2" stroke="#666666" x1="658" y1="11" x2="658" y2="19"></line><circle cx="614" cy="15" r="10" class="compassNav" style="fill: #ffffff; stroke: #666666; stroke-width: 1px;"></circle><line class="compassNav" stroke-width="2" stroke="#666666" x1="610" y1="15" x2="618" y2="15"></line><path d="M582 14 l20 -12 a100,40 0 0,0 0,24z" class="compassNav" style="fill: #ffffff; stroke: #666666; stroke-width: 1px;"></path><path d="M690 14 l-20 -12 a100,40 0 0,1 0,24z" class="compassNav" style="fill: #ffffff; stroke: #666666; stroke-width: 1px;"></path><path d="M216 0h80c13.3 0 24 10.7 24 24v168h87.7c17.8 0 26.7 21.5 14.1 34.1L269.7 378.3c-7.5 7.5-19.8 7.5-27.3 0L90.1 226.1c-12.6-12.6-3.7-34.1 14.1-34.1H192V24c0-13.3 10.7-24 24-24zm296 376v112c0 13.3-10.7 24-24 24H24c-13.3 0-24-10.7-24-24V376c0-13.3 10.7-24 24-24h146.7l49 49c20.1 20.1 52.5 20.1 72.6 0l49-49H488c13.3 0 24 10.7 24 24zm-124 88c0-11-9-20-20-20s-20 9-20 20 9 20 20 20 20-9 20-20zm64 0c0-11-9-20-20-20s-20 9-20 20 9 20 20 20 20-9 20-20z" class="compassNav" transform="translate(552,0) scale(0.05)" style="fill: #336699; stroke: #336699; stroke-width: 1px; cursor: pointer;"></path></g></svg>