<svg width="800" height="400" style="background-color: white;"><g transform="translate(50,0)"><svg width="700" height="360"><g style="-webkit-tap-highlight-color: rgba(0, 0, 0, 0);"><rect width="700" height="360" style="fill: #ffffff;"></rect><g id="lines"><line class="line" stroke-width="1" stroke="#d7301f" x1="-378.0748663101605" y1="333" x2="-378.0748663101605" y2="360" visibility="hidden" style="stroke-dasharray: 3px, 3px;"></line></g><g><rect x="-383.0748663101605" y="355" width="10" height="10" visibility="hidden" style="fill: #ffffff; stroke: #d7301f;"></rect></g><g id="lines"><line class="line" stroke-width="1" stroke="#6a51a3" x1="-378.0748663101605" y1="333" x2="-378.0748663101605" y2="327.27272727272725" visibility="hidden" style="stroke-dasharray: 3px, 3px;"></line></g><g><rect x="-383.0748663101605" y="322.27272727272725" width="10" height="10" visibility="hidden" style="fill: #ffffff; stroke: #6a51a3;"></rect></g><g id="lines"><line class="line" stroke-width="1" stroke="#666666" x1="63.63636363636364" y1="333" x2="63.63636363636364" y2="320.6611570247934"></line><line class="line" stroke-width="1" stroke="#666666" x1="112.29946524064171" y1="333" x2="112.29946524064171" y2="261.1570247933885"></line><line class="line" stroke-width="1" stroke="#666666" x1="561.4973262032086" y1="333" x2="561.4973262032086" y2="214.87603305785126"></line><line class="line" stroke-width="1" stroke="#666666" x1="587.7005347593583" y1="333" x2="587.7005347593583" y2="214.87603305785126"></line><line class="line" stroke-width="1" stroke="#666666" x1="662.5668449197861" y1="333" x2="662.5668449197861" y2="320.6611570247934"></line><line class="line" stroke-width="1" stroke="#666666" x1="670.0534759358289" y1="333" x2="670.0534759358289" y2="314.0495867768595"></line><line class="line" stroke-width="1" stroke="#666666" x1="677.5401069518716" y1="333" x2="677.5401069518716" y2="201.6528925619835"></line><line class="line" stroke-width="1" stroke="#666666" x1="685.0267379679144" y1="333" x2="685.0267379679144" y2="314.0495867768595"></line><line class="line" stroke-width="1" stroke="#666666" x1="688.7700534759358" y1="333" x2="688.7700534759358" y2="29.752066115702462"></line></g><g id="circles"><circle r="4" cx="63.63636363636364" cy="320.6611570247934" style="fill: #4393c3; stroke: #666666; stroke-width: 1px;"></circle><circle r="4" cx="112.29946524064171" cy="261.1570247933885" style="fill: #bf812d; stroke: #666666; stroke-width: 1px;"></circle><circle r="4" cx="561.4973262032086" cy="214.87603305785126" style="fill: #bf812d; stroke: #666666; stroke-width: 1px;"></circle><circle r="4" cx="587.7005347593583" cy="214.87603305785126" style="fill: #bf812d; stroke: #666666; stroke-width: 1px;"></circle><circle r="4" cx="662.5668449197861" cy="320.6611570247934" style="fill: #bf812d; stroke: #666666; stroke-width: 1px;"></circle><circle r="4" cx="670.0534759358289" cy="314.0495867768595" style="fill: #4393c3; stroke: #666666; stroke-width: 1px;"></circle><circle r="4" cx="677.5401069518716" cy="201.6528925619835" style="fill: #4393c3; stroke: #666666; stroke-width: 1px;"></circle><circle r="4" cx="685.0267379679144" cy="314.0495867768595" style="fill: #4393c3; stroke: #666666; stroke-width: 1px;"></circle><circle r="4" cx="688.7700534759358" cy="29.752066115702462" style="fill: #bf812d; stroke: #666666; stroke-width: 1px;"></circle></g><g><rect x="0" y="333" width="700" height="12" style="fill: #ffffff; stroke-width: 1px; stroke: #666666;"></rect><rect x="7.4866310160427805" y="333" width="550.2673796791444" height="12" style="fill: #aec7e8; stroke-width: 1px; stroke: #666666;"></rect><rect x="131.01604278074865" y="333" width="74.86631016042782" height="12" style="fill: #ffbb78; stroke-width: 1px; stroke: #666666;"></rect><rect x="209.62566844919783" y="333" width="74.86631016042784" height="12" style="fill: #ffbb78; stroke-width: 1px; stroke: #666666;"></rect><rect x="348.1283422459893" y="333" width="74.86631016042782" height="12" style="fill: #ffbb78; stroke-width: 1px; stroke: #666666;"></rect><rect x="426.7379679144385" y="333" width="74.86631016042776" height="12" style="fill: #ffbb78; stroke-width: 1px; stroke: #666666;"></rect></g><g><a target="_blank" xlink:href="http://pfam.xfam.org/family/"><text y="343" x="350" text-anchor="middle" style="color: rgb(102, 102, 102); font-weight: normal; font-size: 12px; font-family: Arial; cursor: pointer;"></text></a><a target="_blank" xlink:href="http://pfam.xfam.org/family/PRA1"><text y="343" x="282.620320855615" text-anchor="middle" style="color: rgb(102, 102, 102); font-weight: normal; font-size: 12px; font-family: Arial; cursor: pointer;">PRA1</text></a><a target="_blank" xlink:href="http://pfam.xfam.org/family/TM"><text y="343" x="168.44919786096256" text-anchor="middle" style="color: rgb(102, 102, 102); font-weight: normal; font-size: 12px; font-family: Arial; cursor: pointer;">TM</text></a><a target="_blank" xlink:href="http://pfam.xfam.org/family/TM"><text y="343" x="247.05882352941177" text-anchor="middle" style="color: rgb(102, 102, 102); font-weight: normal; font-size: 12px; font-family: Arial; cursor: pointer;">TM</text></a><a target="_blank" xlink:href="http://pfam.xfam.org/family/TM"><text y="343" x="385.5614973262032" text-anchor="middle" style="color: rgb(102, 102, 102); font-weight: normal; font-size: 12px; font-family: Arial; cursor: pointer;">TM</text></a><a target="_blank" xlink:href="http://pfam.xfam.org/family/TM"><text y="343" x="464.17112299465236" text-anchor="middle" style="color: rgb(102, 102, 102); font-weight: normal; font-size: 12px; font-family: Arial; cursor: pointer;">TM</text></a></g><g><text y="358" x="0" text-anchor="middle" visibility="hidden" style="font-size: 13px;">M</text><text y="358" x="3.7433155080213902" text-anchor="middle" visibility="hidden" style="font-size: 13px;">D</text><text y="358" x="7.4866310160427805" text-anchor="middle" visibility="hidden" style="font-size: 13px;">V</text><text y="358" x="11.229946524064172" text-anchor="middle" visibility="hidden" style="font-size: 13px;">N</text><text y="358" x="14.973262032085561" text-anchor="middle" visibility="hidden" style="font-size: 13px;">I</text><text y="358" x="18.71657754010695" text-anchor="middle" visibility="hidden" style="font-size: 13px;">A</text><text y="358" x="22.459893048128343" text-anchor="middle" visibility="hidden" style="font-size: 13px;">P</text><text y="358" x="26.20320855614973" text-anchor="middle" visibility="hidden" style="font-size: 13px;">L</text><text y="358" x="29.946524064171122" text-anchor="middle" visibility="hidden" style="font-size: 13px;">R</text><text y="358" x="33.68983957219251" text-anchor="middle" visibility="hidden" style="font-size: 13px;">A</text><text y="358" x="37.4331550802139" text-anchor="middle" visibility="hidden" style="font-size: 13px;">W</text><text y="358" x="41.1764705882353" text-anchor="middle" visibility="hidden" style="font-size: 13px;">D</text><text y="358" x="44.919786096256686" text-anchor="middle" visibility="hidden" style="font-size: 13px;">D</text><text y="358" x="48.663101604278076" text-anchor="middle" visibility="hidden" style="font-size: 13px;">F</text><text y="358" x="52.40641711229946" text-anchor="middle" visibility="hidden" style="font-size: 13px;">F</text><text y="358" x="56.149732620320854" text-anchor="middle" visibility="hidden" style="font-size: 13px;">P</text><text y="358" x="59.893048128342244" text-anchor="middle" visibility="hidden" style="font-size: 13px;">G</text><text y="358" x="63.63636363636364" text-anchor="middle" visibility="hidden" style="font-size: 13px;">S</text><text y="358" x="67.37967914438502" text-anchor="middle" visibility="hidden" style="font-size: 13px;">D</text><text y="358" x="71.12299465240642" text-anchor="middle" visibility="hidden" style="font-size: 13px;">R</text><text y="358" x="74.8663101604278" text-anchor="middle" visibility="hidden" style="font-size: 13px;">F</text><text y="358" x="78.6096256684492" text-anchor="middle" visibility="hidden" style="font-size: 13px;">A</text><text y="358" x="82.3529411764706" text-anchor="middle" visibility="hidden" style="font-size: 13px;">R</text><text y="358" x="86.09625668449198" text-anchor="middle" visibility="hidden" style="font-size: 13px;">P</text><text y="358" x="89.83957219251337" text-anchor="middle" visibility="hidden" style="font-size: 13px;">D</text><text y="358" x="93.58288770053477" text-anchor="middle" visibility="hidden" style="font-size: 13px;">F</text><text y="358" x="97.32620320855615" text-anchor="middle" visibility="hidden" style="font-size: 13px;">R</text><text y="358" x="101.06951871657753" text-anchor="middle" visibility="hidden" style="font-size: 13px;">D</text><text y="358" x="104.81283422459892" text-anchor="middle" visibility="hidden" style="font-size: 13px;">I</text><text y="358" x="108.55614973262033" text-anchor="middle" visibility="hidden" style="font-size: 13px;">S</text><text y="358" x="112.29946524064171" text-anchor="middle" visibility="hidden" style="font-size: 13px;">K</text><text y="358" x="116.0427807486631" text-anchor="middle" visibility="hidden" style="font-size: 13px;">W</text><text y="358" x="119.78609625668449" text-anchor="middle" visibility="hidden" style="font-size: 13px;">N</text><text y="358" x="123.52941176470588" text-anchor="middle" visibility="hidden" style="font-size: 13px;">N</text><text y="358" x="127.27272727272728" text-anchor="middle" visibility="hidden" style="font-size: 13px;">R</text><text y="358" x="131.01604278074865" text-anchor="middle" visibility="hidden" style="font-size: 13px;">V</text><text y="358" x="134.75935828877004" text-anchor="middle" visibility="hidden" style="font-size: 13px;">V</text><text y="358" x="138.50267379679144" text-anchor="middle" visibility="hidden" style="font-size: 13px;">S</text><text y="358" x="142.24598930481284" text-anchor="middle" visibility="hidden" style="font-size: 13px;">N</text><text y="358" x="145.98930481283423" text-anchor="middle" visibility="hidden" style="font-size: 13px;">L</text><text y="358" x="149.7326203208556" text-anchor="middle" visibility="hidden" style="font-size: 13px;">L</text><text y="358" x="153.475935828877" text-anchor="middle" visibility="hidden" style="font-size: 13px;">Y</text><text y="358" x="157.2192513368984" text-anchor="middle" visibility="hidden" style="font-size: 13px;">Y</text><text y="358" x="160.9625668449198" text-anchor="middle" visibility="hidden" style="font-size: 13px;">Q</text><text y="358" x="164.7058823529412" text-anchor="middle" visibility="hidden" style="font-size: 13px;">T</text><text y="358" x="168.44919786096256" text-anchor="middle" visibility="hidden" style="font-size: 13px;">N</text><text y="358" x="172.19251336898395" text-anchor="middle" visibility="hidden" style="font-size: 13px;">Y</text><text y="358" x="175.93582887700535" text-anchor="middle" visibility="hidden" style="font-size: 13px;">L</text><text y="358" x="179.67914438502675" text-anchor="middle" visibility="hidden" style="font-size: 13px;">V</text><text y="358" x="183.4224598930481" text-anchor="middle" visibility="hidden" style="font-size: 13px;">V</text><text y="358" x="187.16577540106954" text-anchor="middle" visibility="hidden" style="font-size: 13px;">A</text><text y="358" x="190.9090909090909" text-anchor="middle" visibility="hidden" style="font-size: 13px;">A</text><text y="358" x="194.6524064171123" text-anchor="middle" visibility="hidden" style="font-size: 13px;">M</text><text y="358" x="198.3957219251337" text-anchor="middle" visibility="hidden" style="font-size: 13px;">M</text><text y="358" x="202.13903743315507" text-anchor="middle" visibility="hidden" style="font-size: 13px;">I</text><text y="358" x="205.88235294117646" text-anchor="middle" visibility="hidden" style="font-size: 13px;">S</text><text y="358" x="209.62566844919783" text-anchor="middle" visibility="hidden" style="font-size: 13px;">I</text><text y="358" x="213.36898395721926" text-anchor="middle" visibility="hidden" style="font-size: 13px;">V</text><text y="358" x="217.11229946524065" text-anchor="middle" visibility="hidden" style="font-size: 13px;">G</text><text y="358" x="220.85561497326202" text-anchor="middle" visibility="hidden" style="font-size: 13px;">F</text><text y="358" x="224.59893048128342" text-anchor="middle" visibility="hidden" style="font-size: 13px;">L</text><text y="358" x="228.34224598930484" text-anchor="middle" visibility="hidden" style="font-size: 13px;">S</text><text y="358" x="232.0855614973262" text-anchor="middle" visibility="hidden" style="font-size: 13px;">P</text><text y="358" x="235.8288770053476" text-anchor="middle" visibility="hidden" style="font-size: 13px;">F</text><text y="358" x="239.57219251336898" text-anchor="middle" visibility="hidden" style="font-size: 13px;">N</text><text y="358" x="243.31550802139037" text-anchor="middle" visibility="hidden" style="font-size: 13px;">M</text><text y="358" x="247.05882352941177" text-anchor="middle" visibility="hidden" style="font-size: 13px;">I</text><text y="358" x="250.80213903743314" text-anchor="middle" visibility="hidden" style="font-size: 13px;">L</text><text y="358" x="254.54545454545456" text-anchor="middle" visibility="hidden" style="font-size: 13px;">G</text><text y="358" x="258.2887700534759" text-anchor="middle" visibility="hidden" style="font-size: 13px;">G</text><text y="358" x="262.0320855614973" text-anchor="middle" visibility="hidden" style="font-size: 13px;">I</text><text y="358" x="265.77540106951875" text-anchor="middle" visibility="hidden" style="font-size: 13px;">V</text><text y="358" x="269.5187165775401" text-anchor="middle" visibility="hidden" style="font-size: 13px;">V</text><text y="358" x="273.2620320855615" text-anchor="middle" visibility="hidden" style="font-size: 13px;">V</text><text y="358" x="277.0053475935829" text-anchor="middle" visibility="hidden" style="font-size: 13px;">L</text><text y="358" x="280.7486631016043" text-anchor="middle" visibility="hidden" style="font-size: 13px;">V</text><text y="358" x="284.4919786096257" text-anchor="middle" visibility="hidden" style="font-size: 13px;">F</text><text y="358" x="288.2352941176471" text-anchor="middle" visibility="hidden" style="font-size: 13px;">T</text><text y="358" x="291.97860962566847" text-anchor="middle" visibility="hidden" style="font-size: 13px;">G</text><text y="358" x="295.72192513368987" text-anchor="middle" visibility="hidden" style="font-size: 13px;">F</text><text y="358" x="299.4652406417112" text-anchor="middle" visibility="hidden" style="font-size: 13px;">V</text><text y="358" x="303.2085561497326" text-anchor="middle" visibility="hidden" style="font-size: 13px;">W</text><text y="358" x="306.951871657754" text-anchor="middle" visibility="hidden" style="font-size: 13px;">A</text><text y="358" x="310.6951871657754" text-anchor="middle" visibility="hidden" style="font-size: 13px;">A</text><text y="358" x="314.4385026737968" text-anchor="middle" visibility="hidden" style="font-size: 13px;">H</text><text y="358" x="318.1818181818182" text-anchor="middle" visibility="hidden" style="font-size: 13px;">N</text><text y="358" x="321.9251336898396" text-anchor="middle" visibility="hidden" style="font-size: 13px;">K</text><text y="358" x="325.668449197861" text-anchor="middle" visibility="hidden" style="font-size: 13px;">D</text><text y="358" x="329.4117647058824" text-anchor="middle" visibility="hidden" style="font-size: 13px;">V</text><text y="358" x="333.1550802139038" text-anchor="middle" visibility="hidden" style="font-size: 13px;">L</text><text y="358" x="336.8983957219251" text-anchor="middle" visibility="hidden" style="font-size: 13px;">R</text><text y="358" x="340.6417112299465" text-anchor="middle" visibility="hidden" style="font-size: 13px;">R</text><text y="358" x="344.3850267379679" text-anchor="middle" visibility="hidden" style="font-size: 13px;">M</text><text y="358" x="348.1283422459893" text-anchor="middle" visibility="hidden" style="font-size: 13px;">K</text><text y="358" x="351.8716577540107" text-anchor="middle" visibility="hidden" style="font-size: 13px;">K</text><text y="358" x="355.6149732620321" text-anchor="middle" visibility="hidden" style="font-size: 13px;">R</text><text y="358" x="359.3582887700535" text-anchor="middle" visibility="hidden" style="font-size: 13px;">Y</text><text y="358" x="363.10160427807483" text-anchor="middle" visibility="hidden" style="font-size: 13px;">P</text><text y="358" x="366.8449197860962" text-anchor="middle" visibility="hidden" style="font-size: 13px;">T</text><text y="358" x="370.5882352941176" text-anchor="middle" visibility="hidden" style="font-size: 13px;">T</text><text y="358" x="374.3315508021391" text-anchor="middle" visibility="hidden" style="font-size: 13px;">F</text><text y="358" x="378.0748663101605" text-anchor="middle" visibility="hidden" style="font-size: 13px;">V</text><text y="358" x="381.8181818181818" text-anchor="middle" visibility="hidden" style="font-size: 13px;">M</text><text y="358" x="385.5614973262032" text-anchor="middle" visibility="hidden" style="font-size: 13px;">V</text><text y="358" x="389.3048128342246" text-anchor="middle" visibility="hidden" style="font-size: 13px;">V</text><text y="358" x="393.048128342246" text-anchor="middle" visibility="hidden" style="font-size: 13px;">M</text><text y="358" x="396.7914438502674" text-anchor="middle" visibility="hidden" style="font-size: 13px;">L</text><text y="358" x="400.53475935828874" text-anchor="middle" visibility="hidden" style="font-size: 13px;">A</text><text y="358" x="404.27807486631013" text-anchor="middle" visibility="hidden" style="font-size: 13px;">S</text><text y="358" x="408.02139037433153" text-anchor="middle" visibility="hidden" style="font-size: 13px;">Y</text><text y="358" x="411.7647058823529" text-anchor="middle" visibility="hidden" style="font-size: 13px;">F</text><text y="358" x="415.5080213903744" text-anchor="middle" visibility="hidden" style="font-size: 13px;">L</text><text y="358" x="419.25133689839566" text-anchor="middle" visibility="hidden" style="font-size: 13px;">I</text><text y="358" x="422.9946524064171" text-anchor="middle" visibility="hidden" style="font-size: 13px;">S</text><text y="358" x="426.7379679144385" text-anchor="middle" visibility="hidden" style="font-size: 13px;">M</text><text y="358" x="430.4812834224599" text-anchor="middle" visibility="hidden" style="font-size: 13px;">F</text><text y="358" x="434.2245989304813" text-anchor="middle" visibility="hidden" style="font-size: 13px;">G</text><text y="358" x="437.96791443850265" text-anchor="middle" visibility="hidden" style="font-size: 13px;">G</text><text y="358" x="441.71122994652404" text-anchor="middle" visibility="hidden" style="font-size: 13px;">V</text><text y="358" x="445.45454545454544" text-anchor="middle" visibility="hidden" style="font-size: 13px;">M</text><text y="358" x="449.19786096256684" text-anchor="middle" visibility="hidden" style="font-size: 13px;">V</text><text y="358" x="452.94117647058823" text-anchor="middle" visibility="hidden" style="font-size: 13px;">F</text><text y="358" x="456.6844919786097" text-anchor="middle" visibility="hidden" style="font-size: 13px;">V</text><text y="358" x="460.42780748663097" text-anchor="middle" visibility="hidden" style="font-size: 13px;">F</text><text y="358" x="464.1711229946524" text-anchor="middle" visibility="hidden" style="font-size: 13px;">G</text><text y="358" x="467.9144385026738" text-anchor="middle" visibility="hidden" style="font-size: 13px;">I</text><text y="358" x="471.6577540106952" text-anchor="middle" visibility="hidden" style="font-size: 13px;">T</text><text y="358" x="475.4010695187166" text-anchor="middle" visibility="hidden" style="font-size: 13px;">F</text><text y="358" x="479.14438502673795" text-anchor="middle" visibility="hidden" style="font-size: 13px;">P</text><text y="358" x="482.88770053475935" text-anchor="middle" visibility="hidden" style="font-size: 13px;">L</text><text y="358" x="486.63101604278074" text-anchor="middle" visibility="hidden" style="font-size: 13px;">L</text><text y="358" x="490.37433155080214" text-anchor="middle" visibility="hidden" style="font-size: 13px;">L</text><text y="358" x="494.11764705882354" text-anchor="middle" visibility="hidden" style="font-size: 13px;">M</text><text y="358" x="497.8609625668449" text-anchor="middle" visibility="hidden" style="font-size: 13px;">F</text><text y="358" x="501.6042780748663" text-anchor="middle" visibility="hidden" style="font-size: 13px;">I</text><text y="358" x="505.3475935828877" text-anchor="middle" visibility="hidden" style="font-size: 13px;">H</text><text y="358" x="509.0909090909091" text-anchor="middle" visibility="hidden" style="font-size: 13px;">A</text><text y="358" x="512.8342245989305" text-anchor="middle" visibility="hidden" style="font-size: 13px;">S</text><text y="358" x="516.5775401069518" text-anchor="middle" visibility="hidden" style="font-size: 13px;">L</text><text y="358" x="520.3208556149732" text-anchor="middle" visibility="hidden" style="font-size: 13px;">R</text><text y="358" x="524.0641711229946" text-anchor="middle" visibility="hidden" style="font-size: 13px;">L</text><text y="358" x="527.8074866310161" text-anchor="middle" visibility="hidden" style="font-size: 13px;">R</text><text y="358" x="531.5508021390375" text-anchor="middle" visibility="hidden" style="font-size: 13px;">N</text><text y="358" x="535.2941176470588" text-anchor="middle" visibility="hidden" style="font-size: 13px;">L</text><text y="358" x="539.0374331550802" text-anchor="middle" visibility="hidden" style="font-size: 13px;">K</text><text y="358" x="542.7807486631016" text-anchor="middle" visibility="hidden" style="font-size: 13px;">N</text><text y="358" x="546.524064171123" text-anchor="middle" visibility="hidden" style="font-size: 13px;">K</text><text y="358" x="550.2673796791444" text-anchor="middle" visibility="hidden" style="font-size: 13px;">L</text><text y="358" x="554.0106951871658" text-anchor="middle" visibility="hidden" style="font-size: 13px;">E</text><text y="358" x="557.7540106951872" text-anchor="middle" visibility="hidden" style="font-size: 13px;">N</text><text y="358" x="561.4973262032086" text-anchor="middle" visibility="hidden" style="font-size: 13px;">K</text><text y="358" x="565.24064171123" text-anchor="middle" visibility="hidden" style="font-size: 13px;">M</text><text y="358" x="568.9839572192514" text-anchor="middle" visibility="hidden" style="font-size: 13px;">E</text><text y="358" x="572.7272727272727" text-anchor="middle" visibility="hidden" style="font-size: 13px;">G</text><text y="358" x="576.4705882352941" text-anchor="middle" visibility="hidden" style="font-size: 13px;">I</text><text y="358" x="580.2139037433155" text-anchor="middle" visibility="hidden" style="font-size: 13px;">G</text><text y="358" x="583.9572192513369" text-anchor="middle" visibility="hidden" style="font-size: 13px;">L</text><text y="358" x="587.7005347593583" text-anchor="middle" visibility="hidden" style="font-size: 13px;">K</text><text y="358" x="591.4438502673797" text-anchor="middle" visibility="hidden" style="font-size: 13px;">R</text><text y="358" x="595.187165775401" text-anchor="middle" visibility="hidden" style="font-size: 13px;">T</text><text y="358" x="598.9304812834224" text-anchor="middle" visibility="hidden" style="font-size: 13px;">P</text><text y="358" x="602.6737967914438" text-anchor="middle" visibility="hidden" style="font-size: 13px;">M</text><text y="358" x="606.4171122994652" text-anchor="middle" visibility="hidden" style="font-size: 13px;">G</text><text y="358" x="610.1604278074867" text-anchor="middle" visibility="hidden" style="font-size: 13px;">I</text><text y="358" x="613.903743315508" text-anchor="middle" visibility="hidden" style="font-size: 13px;">V</text><text y="358" x="617.6470588235294" text-anchor="middle" visibility="hidden" style="font-size: 13px;">L</text><text y="358" x="621.3903743315508" text-anchor="middle" visibility="hidden" style="font-size: 13px;">D</text><text y="358" x="625.1336898395722" text-anchor="middle" visibility="hidden" style="font-size: 13px;">A</text><text y="358" x="628.8770053475936" text-anchor="middle" visibility="hidden" style="font-size: 13px;">L</text><text y="358" x="632.620320855615" text-anchor="middle" visibility="hidden" style="font-size: 13px;">E</text><text y="358" x="636.3636363636364" text-anchor="middle" visibility="hidden" style="font-size: 13px;">Q</text><text y="358" x="640.1069518716578" text-anchor="middle" visibility="hidden" style="font-size: 13px;">Q</text><text y="358" x="643.8502673796792" text-anchor="middle" visibility="hidden" style="font-size: 13px;">E</text><text y="358" x="647.5935828877006" text-anchor="middle" visibility="hidden" style="font-size: 13px;">E</text><text y="358" x="651.336898395722" text-anchor="middle" visibility="hidden" style="font-size: 13px;">G</text><text y="358" x="655.0802139037432" text-anchor="middle" visibility="hidden" style="font-size: 13px;">I</text><text y="358" x="658.8235294117648" text-anchor="middle" visibility="hidden" style="font-size: 13px;">N</text><text y="358" x="662.5668449197861" text-anchor="middle" visibility="hidden" style="font-size: 13px;">R</text><text y="358" x="666.3101604278075" text-anchor="middle" visibility="hidden" style="font-size: 13px;">L</text><text y="358" x="670.0534759358289" text-anchor="middle" visibility="hidden" style="font-size: 13px;">T</text><text y="358" x="673.7967914438502" text-anchor="middle" visibility="hidden" style="font-size: 13px;">D</text><text y="358" x="677.5401069518716" text-anchor="middle" visibility="hidden" style="font-size: 13px;">Y</text><text y="358" x="681.283422459893" text-anchor="middle" visibility="hidden" style="font-size: 13px;">I</text><text y="358" x="685.0267379679144" text-anchor="middle" visibility="hidden" style="font-size: 13px;">S</text><text y="358" x="688.7700534759358" text-anchor="middle" visibility="hidden" style="font-size: 13px;">K</text><text y="358" x="692.5133689839572" text-anchor="middle" visibility="hidden" style="font-size: 13px;">V</text><text y="358" x="696.2566844919786" text-anchor="middle" visibility="hidden" style="font-size: 13px;">K</text><text y="358" x="700" text-anchor="middle" visibility="hidden" style="font-size: 13px;">E</text></g></g></svg><g class="xAxis" transform="translate(0,360)" fill="none" font-size="10" font-family="sans-serif" text-anchor="middle"><path class="domain" stroke="#000" d="M0.5,6V0.5H700.5V6"></path><g class="tick" opacity="1" transform="translate(71.62299465240642,0)"><line stroke="#000" y2="6"></line><text fill="#000" y="9" dy="0.71em">20</text></g><g class="tick" opacity="1" transform="translate(146.48930481283423,0)"><line stroke="#000" y2="6"></line><text fill="#000" y="9" dy="0.71em">40</text></g><g class="tick" opacity="1" transform="translate(221.35561497326202,0)"><line stroke="#000" y2="6"></line><text fill="#000" y="9" dy="0.71em">60</text></g><g class="tick" opacity="1" transform="translate(296.22192513368987,0)"><line stroke="#000" y2="6"></line><text fill="#000" y="9" dy="0.71em">80</text></g><g class="tick" opacity="1" transform="translate(371.0882352941176,0)"><line stroke="#000" y2="6"></line><text fill="#000" y="9" dy="0.71em">100</text></g><g class="tick" opacity="1" transform="translate(445.95454545454544,0)"><line stroke="#000" y2="6"></line><text fill="#000" y="9" dy="0.71em">120</text></g><g class="tick" opacity="1" transform="translate(520.8208556149732,0)"><line stroke="#000" y2="6"></line><text fill="#000" y="9" dy="0.71em">140</text></g><g class="tick" opacity="1" transform="translate(595.687165775401,0)"><line stroke="#000" y2="6"></line><text fill="#000" y="9" dy="0.71em">160</text></g><g class="tick" opacity="1" transform="translate(670.5534759358289,0)"><line stroke="#000" y2="6"></line><text fill="#000" y="9" dy="0.71em">180</text></g></g><text class="x label" text-anchor="end" x="700" y="390" style="font-size: 13px; font-family: Arial;">Residue number</text><g class="yAxis" fill="none" font-size="10" font-family="sans-serif" text-anchor="end"><path class="domain" stroke="#000" d="M-6,360.5H0.5V0.5H-6"></path><g class="tick" opacity="1" transform="translate(0,327.77272727272725)"><line stroke="#000" x2="-6"></line><text fill="#000" x="-9" dy="0.32em">0</text></g><g class="tick" opacity="1" transform="translate(0,294.71487603305786)"><line stroke="#000" x2="-6"></line><text fill="#000" x="-9" dy="0.32em">5</text></g><g class="tick" opacity="1" transform="translate(0,261.6570247933885)"><line stroke="#000" x2="-6"></line><text fill="#000" x="-9" dy="0.32em">10</text></g><g class="tick" opacity="1" transform="translate(0,228.59917355371903)"><line stroke="#000" x2="-6"></line><text fill="#000" x="-9" dy="0.32em">15</text></g><g class="tick" opacity="1" transform="translate(0,195.5413223140496)"><line stroke="#000" x2="-6"></line><text fill="#000" x="-9" dy="0.32em">20</text></g><g class="tick" opacity="1" transform="translate(0,162.4834710743802)"><line stroke="#000" x2="-6"></line><text fill="#000" x="-9" dy="0.32em">25</text></g><g class="tick" opacity="1" transform="translate(0,129.42561983471072)"><line stroke="#000" x2="-6"></line><text fill="#000" x="-9" dy="0.32em">30</text></g><g class="tick" opacity="1" transform="translate(0,96.3677685950413)"><line stroke="#000" x2="-6"></line><text fill="#000" x="-9" dy="0.32em">35</text></g><g class="tick" opacity="1" transform="translate(0,63.30991735537191)"><line stroke="#000" x2="-6"></line><text fill="#000" x="-9" dy="0.32em">40</text></g><g class="tick" opacity="1" transform="translate(0,30.252066115702462)"><line stroke="#000" x2="-6"></line><text fill="#000" x="-9" dy="0.32em">45</text></g></g><text class="y label" text-anchor="middle" y="-50" x="-180" dy="0.8em" transform="rotate(-90)" style="font-size: 13px; font-family: Arial;">Total number of references</text><g class="axisRed" fill="none" font-size="10" font-family="sans-serif" text-anchor="start" visibility="hidden" transform="translate(700, 0)"><path class="domain" stroke="#000" d="M6,360.5H0.5V0.5H6"></path><g class="tick" opacity="1" transform="translate(0,360.5)"><line stroke="#000" x2="6"></line><text fill="#000" x="9" dy="0.32em">0</text></g><text text-anchor="start" dx="5.2em" dy="-2.6em" transform="rotate(90)" visibility="hidden" style="font-size: 12px; font-family: Arial; fill: #d7301f;">No recurrent (&gt;2) missense mutations!</text></g><g class="axisPurple" fill="none" font-size="10" font-family="sans-serif" text-anchor="start" visibility="hidden"><path class="domain" stroke="#000" d="M6,360.5H0.5V0.5H6"></path><g class="tick" opacity="1" transform="translate(0,357.52479338842977)"><line stroke="#000" x2="6"></line><text fill="#000" x="9" dy="0.32em"></text></g><g class="tick" opacity="1" transform="translate(0,327.77272727272725)"><line stroke="#000" x2="6"></line><text fill="#000" x="9" dy="0.32em">0</text></g><g class="tick" opacity="1" transform="translate(0,298.0206611570248)"><line stroke="#000" x2="6"></line><text fill="#000" x="9" dy="0.32em">0.1</text></g><g class="tick" opacity="1" transform="translate(0,268.2685950413223)"><line stroke="#000" x2="6"></line><text fill="#000" x="9" dy="0.32em">0.2</text></g><g class="tick" opacity="1" transform="translate(0,238.51652892561984)"><line stroke="#000" x2="6"></line><text fill="#000" x="9" dy="0.32em">0.3</text></g><g class="tick" opacity="1" transform="translate(0,208.76446280991738)"><line stroke="#000" x2="6"></line><text fill="#000" x="9" dy="0.32em">0.4</text></g><g class="tick" opacity="1" transform="translate(0,179.0123966942149)"><line stroke="#000" x2="6"></line><text fill="#000" x="9" dy="0.32em">0.5</text></g><g class="tick" opacity="1" transform="translate(0,149.26033057851242)"><line stroke="#000" x2="6"></line><text fill="#000" x="9" dy="0.32em">0.6</text></g><g class="tick" opacity="1" transform="translate(0,119.50826446280996)"><line stroke="#000" x2="6"></line><text fill="#000" x="9" dy="0.32em">0.7</text></g><g class="tick" opacity="1" transform="translate(0,89.75619834710744)"><line stroke="#000" x2="6"></line><text fill="#000" x="9" dy="0.32em">0.8</text></g><g class="tick" opacity="1" transform="translate(0,60.00413223140498)"><line stroke="#000" x2="6"></line><text fill="#000" x="9" dy="0.32em">0.9</text></g><g class="tick" opacity="1" transform="translate(0,30.25206611570252)"><line stroke="#000" x2="6"></line><text fill="#000" x="9" dy="0.32em">1</text></g><g class="tick" opacity="1" transform="translate(0,0.5)"><line stroke="#000" x2="6"></line><text fill="#000" x="9" dy="0.32em">1.1</text></g><text text-anchor="start" x="10" y="10" visibility="hidden" style="font-size: 12px; font-family: Arial; fill: #807dba;">No disease causing germline SNPs known!</text></g><circle cx="636" cy="15" r="10" class="compassNav" style="fill: #ffffff; stroke: #666666; stroke-width: 1px;"></circle><path d="M440.935 12.574l3.966 82.766C399.416 41.904 331.674 8 256 8 134.813 8 33.933 94.924 12.296 209.824 10.908 217.193 16.604 224 24.103 224h49.084c5.57 0 10.377-3.842 11.676-9.259C103.407 137.408 172.931 80 256 80c60.893 0 114.512 30.856 146.104 77.801l-101.53-4.865c-6.845-.328-12.574 5.133-12.574 11.986v47.411c0 6.627 5.373 12 12 12h200.333c6.627 0 12-5.373 12-12V12c0-6.627-5.373-12-12-12h-47.411c-6.853 0-12.315 5.729-11.987 12.574zM256 432c-60.895 0-114.517-30.858-146.109-77.805l101.868 4.871c6.845.327 12.573-5.134 12.573-11.986v-47.412c0-6.627-5.373-12-12-12H12c-6.627 0-12 5.373-12 12V500c0 6.627 5.373 12 12 12h47.385c6.863 0 12.328-5.745 11.985-12.599l-4.129-82.575C112.725 470.166 180.405 504 256 504c121.187 0 222.067-86.924 243.704-201.824 1.388-7.369-4.308-14.176-11.807-14.176h-49.084c-5.57 0-10.377 3.842-11.676 9.259C408.593 374.592 339.069 432 256 432z" class="compassNav" transform="translate(631, 10) scale(0.02)" style="fill: #666666; stroke: #666666; stroke-width: 1px;"></path><circle cx="658" cy="15" r="10" class="compassNav" style="fill: #ffffff; stroke: #666666; stroke-width: 1px;"></circle><line class="compassNav" stroke-width="2" stroke="#666666" x1="654" y1="15" x2="662" y2="15"></line><line class="compassNav" stroke-width="2" stroke="#666666" x1="658" y1="11" x2="658" y2="19"></line><circle cx="614" cy="15" r="10" class="compassNav" style="fill: #ffffff; stroke: #666666; stroke-width: 1px;"></circle><line class="compassNav" stroke-width="2" stroke="#666666" x1="610" y1="15" x2="618" y2="15"></line><path d="M582 14 l20 -12 a100,40 0 0,0 0,24z" class="compassNav" style="fill: #ffffff; stroke: #666666; stroke-width: 1px;"></path><path d="M690 14 l-20 -12 a100,40 0 0,1 0,24z" class="compassNav" style="fill: #ffffff; stroke: #666666; stroke-width: 1px;"></path><path d="M216 0h80c13.3 0 24 10.7 24 24v168h87.7c17.8 0 26.7 21.5 14.1 34.1L269.7 378.3c-7.5 7.5-19.8 7.5-27.3 0L90.1 226.1c-12.6-12.6-3.7-34.1 14.1-34.1H192V24c0-13.3 10.7-24 24-24zm296 376v112c0 13.3-10.7 24-24 24H24c-13.3 0-24-10.7-24-24V376c0-13.3 10.7-24 24-24h146.7l49 49c20.1 20.1 52.5 20.1 72.6 0l49-49H488c13.3 0 24 10.7 24 24zm-124 88c0-11-9-20-20-20s-20 9-20 20 9 20 20 20 20-9 20-20zm64 0c0-11-9-20-20-20s-20 9-20 20 9 20 20 20 20-9 20-20z" class="compassNav" transform="translate(552,0) scale(0.05)" style="fill: #336699; stroke: #336699; stroke-width: 1px; cursor: pointer;"></path></g></svg>