<svg width="800" height="400" style="background-color: white;"><g transform="translate(50,0)"><svg width="700" height="360"><g style="-webkit-tap-highlight-color: rgba(0, 0, 0, 0);"><rect width="700" height="360" style="fill: #ffffff;"></rect><g id="lines"><line class="line" stroke-width="1" stroke="#d7301f" x1="-275.0972762645914" y1="333" x2="-275.0972762645914" y2="360" visibility="hidden" style="stroke-dasharray: 3px, 3px;"></line></g><g><rect x="-280.0972762645914" y="355" width="10" height="10" visibility="hidden" style="fill: #ffffff; stroke: #d7301f;"></rect></g><g id="lines"><line class="line" stroke-width="1" stroke="#6a51a3" x1="-275.0972762645914" y1="333" x2="-275.0972762645914" y2="327.27272727272725" visibility="hidden" style="stroke-dasharray: 3px, 3px;"></line></g><g><rect x="-280.0972762645914" y="322.27272727272725" width="10" height="10" visibility="hidden" style="fill: #ffffff; stroke: #6a51a3;"></rect></g><g id="lines"><line class="line" stroke-width="1" stroke="#666666" x1="122.568093385214" y1="333" x2="122.568093385214" y2="290.08264462809916"></line><line class="line" stroke-width="1" stroke="#666666" x1="130.73929961089493" y1="333" x2="130.73929961089493" y2="29.752066115702462"></line><line class="line" stroke-width="1" stroke="#666666" x1="138.91050583657588" y1="333" x2="138.91050583657588" y2="314.87603305785126"></line><line class="line" stroke-width="1" stroke="#666666" x1="217.8988326848249" y1="333" x2="217.8988326848249" y2="314.87603305785126"></line><line class="line" stroke-width="1" stroke="#666666" x1="245.136186770428" y1="333" x2="245.136186770428" y2="314.87603305785126"></line><line class="line" stroke-width="1" stroke="#666666" x1="247.85992217898834" y1="333" x2="247.85992217898834" y2="302.4793388429752"></line><line class="line" stroke-width="1" stroke="#666666" x1="345.91439688715957" y1="333" x2="345.91439688715957" y2="314.87603305785126"></line><line class="line" stroke-width="1" stroke="#666666" x1="482.1011673151751" y1="333" x2="482.1011673151751" y2="290.08264462809916"></line><line class="line" stroke-width="1" stroke="#666666" x1="487.5486381322957" y1="333" x2="487.5486381322957" y2="290.08264462809916"></line><line class="line" stroke-width="1" stroke="#666666" x1="512.0622568093385" y1="333" x2="512.0622568093385" y2="314.87603305785126"></line><line class="line" stroke-width="1" stroke="#666666" x1="552.9182879377431" y1="333" x2="552.9182879377431" y2="302.4793388429752"></line><line class="line" stroke-width="1" stroke="#666666" x1="593.7743190661479" y1="333" x2="593.7743190661479" y2="314.87603305785126"></line><line class="line" stroke-width="1" stroke="#666666" x1="593.7743190661479" y1="333" x2="593.7743190661479" y2="314.87603305785126"></line><line class="line" stroke-width="1" stroke="#666666" x1="675.4863813229572" y1="333" x2="675.4863813229572" y2="314.87603305785126"></line><line class="line" stroke-width="1" stroke="#666666" x1="689.1050583657589" y1="333" x2="689.1050583657589" y2="290.08264462809916"></line><line class="line" stroke-width="1" stroke="#666666" x1="697.2762645914397" y1="333" x2="697.2762645914397" y2="302.4793388429752"></line></g><g id="circles"><circle r="4" cx="122.568093385214" cy="290.08264462809916" style="fill: #4393c3; stroke: #666666; stroke-width: 1px;"></circle><circle r="4" cx="130.73929961089493" cy="29.752066115702462" style="fill: #4393c3; stroke: #666666; stroke-width: 1px;"></circle><circle r="4" cx="138.91050583657588" cy="314.87603305785126" style="fill: #4393c3; stroke: #666666; stroke-width: 1px;"></circle><circle r="4" cx="217.8988326848249" cy="314.87603305785126" style="fill: #666666; stroke: #666666; stroke-width: 1px;"></circle><circle r="4" cx="245.136186770428" cy="314.87603305785126" style="fill: #4393c3; stroke: #666666; stroke-width: 1px;"></circle><circle r="4" cx="247.85992217898834" cy="302.4793388429752" style="fill: #4393c3; stroke: #666666; stroke-width: 1px;"></circle><circle r="4" cx="345.91439688715957" cy="314.87603305785126" style="fill: #bf812d; stroke: #666666; stroke-width: 1px;"></circle><circle r="4" cx="482.1011673151751" cy="290.08264462809916" style="fill: #4393c3; stroke: #666666; stroke-width: 1px;"></circle><circle r="4" cx="487.5486381322957" cy="290.08264462809916" style="fill: #5aae61; stroke: #666666; stroke-width: 1px;"></circle><circle r="4" cx="512.0622568093385" cy="314.87603305785126" style="fill: #4393c3; stroke: #666666; stroke-width: 1px;"></circle><circle r="4" cx="552.9182879377431" cy="302.4793388429752" style="fill: #4393c3; stroke: #666666; stroke-width: 1px;"></circle><circle r="4" cx="593.7743190661479" cy="314.87603305785126" style="fill: #5aae61; stroke: #666666; stroke-width: 1px;"></circle><circle r="4" cx="593.7743190661479" cy="314.87603305785126" style="fill: #bf812d; stroke: #666666; stroke-width: 1px;"></circle><circle r="4" cx="675.4863813229572" cy="314.87603305785126" style="fill: #4393c3; stroke: #666666; stroke-width: 1px;"></circle><circle r="4" cx="689.1050583657589" cy="290.08264462809916" style="fill: #bf812d; stroke: #666666; stroke-width: 1px;"></circle><circle r="4" cx="697.2762645914397" cy="302.4793388429752" style="fill: #4393c3; stroke: #666666; stroke-width: 1px;"></circle></g><g><rect x="0" y="333" width="700" height="12" style="fill: #ffffff; stroke-width: 1px; stroke: #666666;"></rect><rect x="32.68482490272373" y="333" width="612.8404669260701" height="12" style="fill: #aec7e8; stroke-width: 1px; stroke: #666666;"></rect></g><g><a target="_blank" xlink:href="http://pfam.xfam.org/family/"><text y="343" x="350" text-anchor="middle" style="color: rgb(102, 102, 102); font-weight: normal; font-size: 12px; font-family: Arial; cursor: pointer;"></text></a><a target="_blank" xlink:href="http://pfam.xfam.org/family/Glucosamine_iso"><text y="343" x="339.10505836575874" text-anchor="middle" style="color: rgb(102, 102, 102); font-weight: normal; font-size: 12px; font-family: Arial; cursor: pointer;">Glucosamine_iso</text></a></g><g><text y="358" x="0" text-anchor="middle" visibility="hidden" style="font-size: 13px;">M</text><text y="358" x="2.7237354085603114" text-anchor="middle" visibility="hidden" style="font-size: 13px;">A</text><text y="358" x="5.447470817120623" text-anchor="middle" visibility="hidden" style="font-size: 13px;">A</text><text y="358" x="8.171206225680933" text-anchor="middle" visibility="hidden" style="font-size: 13px;">P</text><text y="358" x="10.894941634241246" text-anchor="middle" visibility="hidden" style="font-size: 13px;">A</text><text y="358" x="13.618677042801556" text-anchor="middle" visibility="hidden" style="font-size: 13px;">P</text><text y="358" x="16.342412451361866" text-anchor="middle" visibility="hidden" style="font-size: 13px;">G</text><text y="358" x="19.06614785992218" text-anchor="middle" visibility="hidden" style="font-size: 13px;">L</text><text y="358" x="21.78988326848249" text-anchor="middle" visibility="hidden" style="font-size: 13px;">I</text><text y="358" x="24.513618677042803" text-anchor="middle" visibility="hidden" style="font-size: 13px;">S</text><text y="358" x="27.237354085603112" text-anchor="middle" visibility="hidden" style="font-size: 13px;">V</text><text y="358" x="29.961089494163424" text-anchor="middle" visibility="hidden" style="font-size: 13px;">F</text><text y="358" x="32.68482490272373" text-anchor="middle" visibility="hidden" style="font-size: 13px;">S</text><text y="358" x="35.40856031128405" text-anchor="middle" visibility="hidden" style="font-size: 13px;">S</text><text y="358" x="38.13229571984436" text-anchor="middle" visibility="hidden" style="font-size: 13px;">S</text><text y="358" x="40.85603112840467" text-anchor="middle" visibility="hidden" style="font-size: 13px;">Q</text><text y="358" x="43.57976653696498" text-anchor="middle" visibility="hidden" style="font-size: 13px;">E</text><text y="358" x="46.30350194552529" text-anchor="middle" visibility="hidden" style="font-size: 13px;">L</text><text y="358" x="49.02723735408561" text-anchor="middle" visibility="hidden" style="font-size: 13px;">G</text><text y="358" x="51.750972762645915" text-anchor="middle" visibility="hidden" style="font-size: 13px;">A</text><text y="358" x="54.474708171206224" text-anchor="middle" visibility="hidden" style="font-size: 13px;">A</text><text y="358" x="57.19844357976654" text-anchor="middle" visibility="hidden" style="font-size: 13px;">L</text><text y="358" x="59.92217898832685" text-anchor="middle" visibility="hidden" style="font-size: 13px;">A</text><text y="358" x="62.64591439688716" text-anchor="middle" visibility="hidden" style="font-size: 13px;">Q</text><text y="358" x="65.36964980544747" text-anchor="middle" visibility="hidden" style="font-size: 13px;">L</text><text y="358" x="68.09338521400778" text-anchor="middle" visibility="hidden" style="font-size: 13px;">V</text><text y="358" x="70.8171206225681" text-anchor="middle" visibility="hidden" style="font-size: 13px;">A</text><text y="358" x="73.5408560311284" text-anchor="middle" visibility="hidden" style="font-size: 13px;">Q</text><text y="358" x="76.26459143968872" text-anchor="middle" visibility="hidden" style="font-size: 13px;">R</text><text y="358" x="78.98832684824903" text-anchor="middle" visibility="hidden" style="font-size: 13px;">A</text><text y="358" x="81.71206225680935" text-anchor="middle" visibility="hidden" style="font-size: 13px;">A</text><text y="358" x="84.43579766536965" text-anchor="middle" visibility="hidden" style="font-size: 13px;">C</text><text y="358" x="87.15953307392996" text-anchor="middle" visibility="hidden" style="font-size: 13px;">C</text><text y="358" x="89.88326848249027" text-anchor="middle" visibility="hidden" style="font-size: 13px;">L</text><text y="358" x="92.60700389105058" text-anchor="middle" visibility="hidden" style="font-size: 13px;">A</text><text y="358" x="95.33073929961088" text-anchor="middle" visibility="hidden" style="font-size: 13px;">G</text><text y="358" x="98.05447470817121" text-anchor="middle" visibility="hidden" style="font-size: 13px;">A</text><text y="358" x="100.77821011673151" text-anchor="middle" visibility="hidden" style="font-size: 13px;">R</text><text y="358" x="103.50194552529183" text-anchor="middle" visibility="hidden" style="font-size: 13px;">A</text><text y="358" x="106.22568093385213" text-anchor="middle" visibility="hidden" style="font-size: 13px;">R</text><text y="358" x="108.94941634241245" text-anchor="middle" visibility="hidden" style="font-size: 13px;">F</text><text y="358" x="111.67315175097275" text-anchor="middle" visibility="hidden" style="font-size: 13px;">A</text><text y="358" x="114.39688715953308" text-anchor="middle" visibility="hidden" style="font-size: 13px;">L</text><text y="358" x="117.12062256809338" text-anchor="middle" visibility="hidden" style="font-size: 13px;">G</text><text y="358" x="119.8443579766537" text-anchor="middle" visibility="hidden" style="font-size: 13px;">L</text><text y="358" x="122.568093385214" text-anchor="middle" visibility="hidden" style="font-size: 13px;">S</text><text y="358" x="125.29182879377431" text-anchor="middle" visibility="hidden" style="font-size: 13px;">G</text><text y="358" x="128.01556420233462" text-anchor="middle" visibility="hidden" style="font-size: 13px;">G</text><text y="358" x="130.73929961089493" text-anchor="middle" visibility="hidden" style="font-size: 13px;">S</text><text y="358" x="133.46303501945525" text-anchor="middle" visibility="hidden" style="font-size: 13px;">L</text><text y="358" x="136.18677042801556" text-anchor="middle" visibility="hidden" style="font-size: 13px;">V</text><text y="358" x="138.91050583657588" text-anchor="middle" visibility="hidden" style="font-size: 13px;">S</text><text y="358" x="141.6342412451362" text-anchor="middle" visibility="hidden" style="font-size: 13px;">M</text><text y="358" x="144.35797665369648" text-anchor="middle" visibility="hidden" style="font-size: 13px;">L</text><text y="358" x="147.0817120622568" text-anchor="middle" visibility="hidden" style="font-size: 13px;">A</text><text y="358" x="149.8054474708171" text-anchor="middle" visibility="hidden" style="font-size: 13px;">R</text><text y="358" x="152.52918287937743" text-anchor="middle" visibility="hidden" style="font-size: 13px;">E</text><text y="358" x="155.25291828793775" text-anchor="middle" visibility="hidden" style="font-size: 13px;">L</text><text y="358" x="157.97665369649806" text-anchor="middle" visibility="hidden" style="font-size: 13px;">P</text><text y="358" x="160.70038910505835" text-anchor="middle" visibility="hidden" style="font-size: 13px;">A</text><text y="358" x="163.4241245136187" text-anchor="middle" visibility="hidden" style="font-size: 13px;">A</text><text y="358" x="166.14785992217898" text-anchor="middle" visibility="hidden" style="font-size: 13px;">V</text><text y="358" x="168.8715953307393" text-anchor="middle" visibility="hidden" style="font-size: 13px;">A</text><text y="358" x="171.5953307392996" text-anchor="middle" visibility="hidden" style="font-size: 13px;">P</text><text y="358" x="174.31906614785993" text-anchor="middle" visibility="hidden" style="font-size: 13px;">A</text><text y="358" x="177.04280155642022" text-anchor="middle" visibility="hidden" style="font-size: 13px;">G</text><text y="358" x="179.76653696498053" text-anchor="middle" visibility="hidden" style="font-size: 13px;">P</text><text y="358" x="182.49027237354088" text-anchor="middle" visibility="hidden" style="font-size: 13px;">A</text><text y="358" x="185.21400778210116" text-anchor="middle" visibility="hidden" style="font-size: 13px;">S</text><text y="358" x="187.93774319066148" text-anchor="middle" visibility="hidden" style="font-size: 13px;">L</text><text y="358" x="190.66147859922177" text-anchor="middle" visibility="hidden" style="font-size: 13px;">A</text><text y="358" x="193.3852140077821" text-anchor="middle" visibility="hidden" style="font-size: 13px;">R</text><text y="358" x="196.10894941634243" text-anchor="middle" visibility="hidden" style="font-size: 13px;">W</text><text y="358" x="198.8326848249027" text-anchor="middle" visibility="hidden" style="font-size: 13px;">T</text><text y="358" x="201.55642023346303" text-anchor="middle" visibility="hidden" style="font-size: 13px;">L</text><text y="358" x="204.28015564202335" text-anchor="middle" visibility="hidden" style="font-size: 13px;">G</text><text y="358" x="207.00389105058366" text-anchor="middle" visibility="hidden" style="font-size: 13px;">F</text><text y="358" x="209.72762645914395" text-anchor="middle" visibility="hidden" style="font-size: 13px;">C</text><text y="358" x="212.45136186770426" text-anchor="middle" visibility="hidden" style="font-size: 13px;">D</text><text y="358" x="215.1750972762646" text-anchor="middle" visibility="hidden" style="font-size: 13px;">E</text><text y="358" x="217.8988326848249" text-anchor="middle" visibility="hidden" style="font-size: 13px;">R</text><text y="358" x="220.6225680933852" text-anchor="middle" visibility="hidden" style="font-size: 13px;">L</text><text y="358" x="223.3463035019455" text-anchor="middle" visibility="hidden" style="font-size: 13px;">V</text><text y="358" x="226.07003891050584" text-anchor="middle" visibility="hidden" style="font-size: 13px;">P</text><text y="358" x="228.79377431906616" text-anchor="middle" visibility="hidden" style="font-size: 13px;">F</text><text y="358" x="231.51750972762645" text-anchor="middle" visibility="hidden" style="font-size: 13px;">D</text><text y="358" x="234.24124513618676" text-anchor="middle" visibility="hidden" style="font-size: 13px;">H</text><text y="358" x="236.9649805447471" text-anchor="middle" visibility="hidden" style="font-size: 13px;">A</text><text y="358" x="239.6887159533074" text-anchor="middle" visibility="hidden" style="font-size: 13px;">E</text><text y="358" x="242.4124513618677" text-anchor="middle" visibility="hidden" style="font-size: 13px;">S</text><text y="358" x="245.136186770428" text-anchor="middle" visibility="hidden" style="font-size: 13px;">T</text><text y="358" x="247.85992217898834" text-anchor="middle" visibility="hidden" style="font-size: 13px;">Y</text><text y="358" x="250.58365758754863" text-anchor="middle" visibility="hidden" style="font-size: 13px;">G</text><text y="358" x="253.30739299610894" text-anchor="middle" visibility="hidden" style="font-size: 13px;">L</text><text y="358" x="256.03112840466923" text-anchor="middle" visibility="hidden" style="font-size: 13px;">Y</text><text y="358" x="258.7548638132296" text-anchor="middle" visibility="hidden" style="font-size: 13px;">R</text><text y="358" x="261.47859922178986" text-anchor="middle" visibility="hidden" style="font-size: 13px;">T</text><text y="358" x="264.2023346303502" text-anchor="middle" visibility="hidden" style="font-size: 13px;">H</text><text y="358" x="266.9260700389105" text-anchor="middle" visibility="hidden" style="font-size: 13px;">L</text><text y="358" x="269.64980544747084" text-anchor="middle" visibility="hidden" style="font-size: 13px;">L</text><text y="358" x="272.3735408560311" text-anchor="middle" visibility="hidden" style="font-size: 13px;">S</text><text y="358" x="275.0972762645914" text-anchor="middle" visibility="hidden" style="font-size: 13px;">R</text><text y="358" x="277.82101167315176" text-anchor="middle" visibility="hidden" style="font-size: 13px;">L</text><text y="358" x="280.5447470817121" text-anchor="middle" visibility="hidden" style="font-size: 13px;">P</text><text y="358" x="283.2684824902724" text-anchor="middle" visibility="hidden" style="font-size: 13px;">I</text><text y="358" x="285.9922178988327" text-anchor="middle" visibility="hidden" style="font-size: 13px;">P</text><text y="358" x="288.71595330739297" text-anchor="middle" visibility="hidden" style="font-size: 13px;">E</text><text y="358" x="291.4396887159533" text-anchor="middle" visibility="hidden" style="font-size: 13px;">S</text><text y="358" x="294.1634241245136" text-anchor="middle" visibility="hidden" style="font-size: 13px;">Q</text><text y="358" x="296.88715953307394" text-anchor="middle" visibility="hidden" style="font-size: 13px;">V</text><text y="358" x="299.6108949416342" text-anchor="middle" visibility="hidden" style="font-size: 13px;">I</text><text y="358" x="302.3346303501946" text-anchor="middle" visibility="hidden" style="font-size: 13px;">T</text><text y="358" x="305.05836575875486" text-anchor="middle" visibility="hidden" style="font-size: 13px;">I</text><text y="358" x="307.78210116731515" text-anchor="middle" visibility="hidden" style="font-size: 13px;">N</text><text y="358" x="310.5058365758755" text-anchor="middle" visibility="hidden" style="font-size: 13px;">P</text><text y="358" x="313.22957198443584" text-anchor="middle" visibility="hidden" style="font-size: 13px;">E</text><text y="358" x="315.9533073929961" text-anchor="middle" visibility="hidden" style="font-size: 13px;">L</text><text y="358" x="318.6770428015564" text-anchor="middle" visibility="hidden" style="font-size: 13px;">P</text><text y="358" x="321.4007782101167" text-anchor="middle" visibility="hidden" style="font-size: 13px;">V</text><text y="358" x="324.12451361867704" text-anchor="middle" visibility="hidden" style="font-size: 13px;">E</text><text y="358" x="326.8482490272374" text-anchor="middle" visibility="hidden" style="font-size: 13px;">E</text><text y="358" x="329.5719844357977" text-anchor="middle" visibility="hidden" style="font-size: 13px;">A</text><text y="358" x="332.29571984435796" text-anchor="middle" visibility="hidden" style="font-size: 13px;">A</text><text y="358" x="335.0194552529183" text-anchor="middle" visibility="hidden" style="font-size: 13px;">E</text><text y="358" x="337.7431906614786" text-anchor="middle" visibility="hidden" style="font-size: 13px;">D</text><text y="358" x="340.4669260700389" text-anchor="middle" visibility="hidden" style="font-size: 13px;">Y</text><text y="358" x="343.1906614785992" text-anchor="middle" visibility="hidden" style="font-size: 13px;">A</text><text y="358" x="345.91439688715957" text-anchor="middle" visibility="hidden" style="font-size: 13px;">K</text><text y="358" x="348.63813229571986" text-anchor="middle" visibility="hidden" style="font-size: 13px;">K</text><text y="358" x="351.36186770428014" text-anchor="middle" visibility="hidden" style="font-size: 13px;">L</text><text y="358" x="354.08560311284043" text-anchor="middle" visibility="hidden" style="font-size: 13px;">R</text><text y="358" x="356.8093385214008" text-anchor="middle" visibility="hidden" style="font-size: 13px;">Q</text><text y="358" x="359.53307392996106" text-anchor="middle" visibility="hidden" style="font-size: 13px;">A</text><text y="358" x="362.2568093385214" text-anchor="middle" visibility="hidden" style="font-size: 13px;">F</text><text y="358" x="364.98054474708175" text-anchor="middle" visibility="hidden" style="font-size: 13px;">Q</text><text y="358" x="367.70428015564204" text-anchor="middle" visibility="hidden" style="font-size: 13px;">G</text><text y="358" x="370.4280155642023" text-anchor="middle" visibility="hidden" style="font-size: 13px;">D</text><text y="358" x="373.1517509727626" text-anchor="middle" visibility="hidden" style="font-size: 13px;">S</text><text y="358" x="375.87548638132296" text-anchor="middle" visibility="hidden" style="font-size: 13px;">I</text><text y="358" x="378.59922178988325" text-anchor="middle" visibility="hidden" style="font-size: 13px;">P</text><text y="358" x="381.32295719844353" text-anchor="middle" visibility="hidden" style="font-size: 13px;">V</text><text y="358" x="384.04669260700393" text-anchor="middle" visibility="hidden" style="font-size: 13px;">F</text><text y="358" x="386.7704280155642" text-anchor="middle" visibility="hidden" style="font-size: 13px;">D</text><text y="358" x="389.4941634241245" text-anchor="middle" visibility="hidden" style="font-size: 13px;">L</text><text y="358" x="392.21789883268485" text-anchor="middle" visibility="hidden" style="font-size: 13px;">L</text><text y="358" x="394.94163424124514" text-anchor="middle" visibility="hidden" style="font-size: 13px;">I</text><text y="358" x="397.6653696498054" text-anchor="middle" visibility="hidden" style="font-size: 13px;">L</text><text y="358" x="400.3891050583657" text-anchor="middle" visibility="hidden" style="font-size: 13px;">G</text><text y="358" x="403.11284046692606" text-anchor="middle" visibility="hidden" style="font-size: 13px;">V</text><text y="358" x="405.8365758754864" text-anchor="middle" visibility="hidden" style="font-size: 13px;">G</text><text y="358" x="408.5603112840467" text-anchor="middle" visibility="hidden" style="font-size: 13px;">P</text><text y="358" x="411.28404669260703" text-anchor="middle" visibility="hidden" style="font-size: 13px;">D</text><text y="358" x="414.0077821011673" text-anchor="middle" visibility="hidden" style="font-size: 13px;">G</text><text y="358" x="416.7315175097276" text-anchor="middle" visibility="hidden" style="font-size: 13px;">H</text><text y="358" x="419.4552529182879" text-anchor="middle" visibility="hidden" style="font-size: 13px;">T</text><text y="358" x="422.17898832684824" text-anchor="middle" visibility="hidden" style="font-size: 13px;">C</text><text y="358" x="424.90272373540853" text-anchor="middle" visibility="hidden" style="font-size: 13px;">S</text><text y="358" x="427.62645914396893" text-anchor="middle" visibility="hidden" style="font-size: 13px;">L</text><text y="358" x="430.3501945525292" text-anchor="middle" visibility="hidden" style="font-size: 13px;">F</text><text y="358" x="433.0739299610895" text-anchor="middle" visibility="hidden" style="font-size: 13px;">P</text><text y="358" x="435.7976653696498" text-anchor="middle" visibility="hidden" style="font-size: 13px;">D</text><text y="358" x="438.52140077821014" text-anchor="middle" visibility="hidden" style="font-size: 13px;">H</text><text y="358" x="441.2451361867704" text-anchor="middle" visibility="hidden" style="font-size: 13px;">P</text><text y="358" x="443.9688715953307" text-anchor="middle" visibility="hidden" style="font-size: 13px;">L</text><text y="358" x="446.692607003891" text-anchor="middle" visibility="hidden" style="font-size: 13px;">L</text><text y="358" x="449.4163424124514" text-anchor="middle" visibility="hidden" style="font-size: 13px;">Q</text><text y="358" x="452.1400778210117" text-anchor="middle" visibility="hidden" style="font-size: 13px;">E</text><text y="358" x="454.863813229572" text-anchor="middle" visibility="hidden" style="font-size: 13px;">R</text><text y="358" x="457.5875486381323" text-anchor="middle" visibility="hidden" style="font-size: 13px;">E</text><text y="358" x="460.3112840466926" text-anchor="middle" visibility="hidden" style="font-size: 13px;">K</text><text y="358" x="463.0350194552529" text-anchor="middle" visibility="hidden" style="font-size: 13px;">I</text><text y="358" x="465.7587548638132" text-anchor="middle" visibility="hidden" style="font-size: 13px;">V</text><text y="358" x="468.4824902723735" text-anchor="middle" visibility="hidden" style="font-size: 13px;">A</text><text y="358" x="471.20622568093387" text-anchor="middle" visibility="hidden" style="font-size: 13px;">P</text><text y="358" x="473.9299610894942" text-anchor="middle" visibility="hidden" style="font-size: 13px;">I</text><text y="358" x="476.6536964980545" text-anchor="middle" visibility="hidden" style="font-size: 13px;">S</text><text y="358" x="479.3774319066148" text-anchor="middle" visibility="hidden" style="font-size: 13px;">D</text><text y="358" x="482.1011673151751" text-anchor="middle" visibility="hidden" style="font-size: 13px;">S</text><text y="358" x="484.8249027237354" text-anchor="middle" visibility="hidden" style="font-size: 13px;">P</text><text y="358" x="487.5486381322957" text-anchor="middle" visibility="hidden" style="font-size: 13px;">K</text><text y="358" x="490.272373540856" text-anchor="middle" visibility="hidden" style="font-size: 13px;">P</text><text y="358" x="492.9961089494164" text-anchor="middle" visibility="hidden" style="font-size: 13px;">P</text><text y="358" x="495.7198443579767" text-anchor="middle" visibility="hidden" style="font-size: 13px;">P</text><text y="358" x="498.44357976653697" text-anchor="middle" visibility="hidden" style="font-size: 13px;">Q</text><text y="358" x="501.16731517509726" text-anchor="middle" visibility="hidden" style="font-size: 13px;">R</text><text y="358" x="503.8910505836576" text-anchor="middle" visibility="hidden" style="font-size: 13px;">V</text><text y="358" x="506.6147859922179" text-anchor="middle" visibility="hidden" style="font-size: 13px;">T</text><text y="358" x="509.3385214007782" text-anchor="middle" visibility="hidden" style="font-size: 13px;">L</text><text y="358" x="512.0622568093385" text-anchor="middle" visibility="hidden" style="font-size: 13px;">T</text><text y="358" x="514.7859922178989" text-anchor="middle" visibility="hidden" style="font-size: 13px;">L</text><text y="358" x="517.5097276264592" text-anchor="middle" visibility="hidden" style="font-size: 13px;">P</text><text y="358" x="520.2334630350194" text-anchor="middle" visibility="hidden" style="font-size: 13px;">V</text><text y="358" x="522.9571984435797" text-anchor="middle" visibility="hidden" style="font-size: 13px;">L</text><text y="358" x="525.6809338521401" text-anchor="middle" visibility="hidden" style="font-size: 13px;">N</text><text y="358" x="528.4046692607004" text-anchor="middle" visibility="hidden" style="font-size: 13px;">A</text><text y="358" x="531.1284046692607" text-anchor="middle" visibility="hidden" style="font-size: 13px;">A</text><text y="358" x="533.852140077821" text-anchor="middle" visibility="hidden" style="font-size: 13px;">R</text><text y="358" x="536.5758754863814" text-anchor="middle" visibility="hidden" style="font-size: 13px;">T</text><text y="358" x="539.2996108949417" text-anchor="middle" visibility="hidden" style="font-size: 13px;">V</text><text y="358" x="542.023346303502" text-anchor="middle" visibility="hidden" style="font-size: 13px;">I</text><text y="358" x="544.7470817120623" text-anchor="middle" visibility="hidden" style="font-size: 13px;">F</text><text y="358" x="547.4708171206225" text-anchor="middle" visibility="hidden" style="font-size: 13px;">V</text><text y="358" x="550.1945525291828" text-anchor="middle" visibility="hidden" style="font-size: 13px;">A</text><text y="358" x="552.9182879377431" text-anchor="middle" visibility="hidden" style="font-size: 13px;">T</text><text y="358" x="555.6420233463035" text-anchor="middle" visibility="hidden" style="font-size: 13px;">G</text><text y="358" x="558.3657587548638" text-anchor="middle" visibility="hidden" style="font-size: 13px;">E</text><text y="358" x="561.0894941634242" text-anchor="middle" visibility="hidden" style="font-size: 13px;">G</text><text y="358" x="563.8132295719845" text-anchor="middle" visibility="hidden" style="font-size: 13px;">K</text><text y="358" x="566.5369649805448" text-anchor="middle" visibility="hidden" style="font-size: 13px;">A</text><text y="358" x="569.2607003891051" text-anchor="middle" visibility="hidden" style="font-size: 13px;">A</text><text y="358" x="571.9844357976654" text-anchor="middle" visibility="hidden" style="font-size: 13px;">V</text><text y="358" x="574.7081712062256" text-anchor="middle" visibility="hidden" style="font-size: 13px;">L</text><text y="358" x="577.4319066147859" text-anchor="middle" visibility="hidden" style="font-size: 13px;">K</text><text y="358" x="580.1556420233463" text-anchor="middle" visibility="hidden" style="font-size: 13px;">R</text><text y="358" x="582.8793774319066" text-anchor="middle" visibility="hidden" style="font-size: 13px;">I</text><text y="358" x="585.6031128404669" text-anchor="middle" visibility="hidden" style="font-size: 13px;">L</text><text y="358" x="588.3268482490272" text-anchor="middle" visibility="hidden" style="font-size: 13px;">E</text><text y="358" x="591.0505836575876" text-anchor="middle" visibility="hidden" style="font-size: 13px;">D</text><text y="358" x="593.7743190661479" text-anchor="middle" visibility="hidden" style="font-size: 13px;">Q</text><text y="358" x="596.4980544747082" text-anchor="middle" visibility="hidden" style="font-size: 13px;">E</text><text y="358" x="599.2217898832685" text-anchor="middle" visibility="hidden" style="font-size: 13px;">E</text><text y="358" x="601.9455252918289" text-anchor="middle" visibility="hidden" style="font-size: 13px;">N</text><text y="358" x="604.6692607003891" text-anchor="middle" visibility="hidden" style="font-size: 13px;">P</text><text y="358" x="607.3929961089494" text-anchor="middle" visibility="hidden" style="font-size: 13px;">L</text><text y="358" x="610.1167315175097" text-anchor="middle" visibility="hidden" style="font-size: 13px;">P</text><text y="358" x="612.84046692607" text-anchor="middle" visibility="hidden" style="font-size: 13px;">A</text><text y="358" x="615.5642023346303" text-anchor="middle" visibility="hidden" style="font-size: 13px;">A</text><text y="358" x="618.2879377431907" text-anchor="middle" visibility="hidden" style="font-size: 13px;">L</text><text y="358" x="621.011673151751" text-anchor="middle" visibility="hidden" style="font-size: 13px;">V</text><text y="358" x="623.7354085603113" text-anchor="middle" visibility="hidden" style="font-size: 13px;">Q</text><text y="358" x="626.4591439688717" text-anchor="middle" visibility="hidden" style="font-size: 13px;">P</text><text y="358" x="629.182879377432" text-anchor="middle" visibility="hidden" style="font-size: 13px;">H</text><text y="358" x="631.9066147859922" text-anchor="middle" visibility="hidden" style="font-size: 13px;">T</text><text y="358" x="634.6303501945525" text-anchor="middle" visibility="hidden" style="font-size: 13px;">G</text><text y="358" x="637.3540856031128" text-anchor="middle" visibility="hidden" style="font-size: 13px;">K</text><text y="358" x="640.0778210116731" text-anchor="middle" visibility="hidden" style="font-size: 13px;">L</text><text y="358" x="642.8015564202334" text-anchor="middle" visibility="hidden" style="font-size: 13px;">C</text><text y="358" x="645.5252918287938" text-anchor="middle" visibility="hidden" style="font-size: 13px;">W</text><text y="358" x="648.2490272373541" text-anchor="middle" visibility="hidden" style="font-size: 13px;">F</text><text y="358" x="650.9727626459144" text-anchor="middle" visibility="hidden" style="font-size: 13px;">L</text><text y="358" x="653.6964980544748" text-anchor="middle" visibility="hidden" style="font-size: 13px;">D</text><text y="358" x="656.4202334630351" text-anchor="middle" visibility="hidden" style="font-size: 13px;">E</text><text y="358" x="659.1439688715953" text-anchor="middle" visibility="hidden" style="font-size: 13px;">A</text><text y="358" x="661.8677042801556" text-anchor="middle" visibility="hidden" style="font-size: 13px;">A</text><text y="358" x="664.5914396887159" text-anchor="middle" visibility="hidden" style="font-size: 13px;">A</text><text y="358" x="667.3151750972763" text-anchor="middle" visibility="hidden" style="font-size: 13px;">R</text><text y="358" x="670.0389105058366" text-anchor="middle" visibility="hidden" style="font-size: 13px;">L</text><text y="358" x="672.7626459143969" text-anchor="middle" visibility="hidden" style="font-size: 13px;">L</text><text y="358" x="675.4863813229572" text-anchor="middle" visibility="hidden" style="font-size: 13px;">T</text><text y="358" x="678.2101167315175" text-anchor="middle" visibility="hidden" style="font-size: 13px;">V</text><text y="358" x="680.9338521400778" text-anchor="middle" visibility="hidden" style="font-size: 13px;">P</text><text y="358" x="683.6575875486382" text-anchor="middle" visibility="hidden" style="font-size: 13px;">F</text><text y="358" x="686.3813229571984" text-anchor="middle" visibility="hidden" style="font-size: 13px;">E</text><text y="358" x="689.1050583657589" text-anchor="middle" visibility="hidden" style="font-size: 13px;">K</text><text y="358" x="691.8287937743191" text-anchor="middle" visibility="hidden" style="font-size: 13px;">H</text><text y="358" x="694.5525291828794" text-anchor="middle" visibility="hidden" style="font-size: 13px;">S</text><text y="358" x="697.2762645914397" text-anchor="middle" visibility="hidden" style="font-size: 13px;">T</text><text y="358" x="700" text-anchor="middle" visibility="hidden" style="font-size: 13px;">L</text></g></g></svg><g class="xAxis" transform="translate(0,360)" fill="none" font-size="10" font-family="sans-serif" text-anchor="middle"><path class="domain" stroke="#000" d="M0.5,6V0.5H700.5V6"></path><g class="tick" opacity="1" transform="translate(52.250972762645915,0)"><line stroke="#000" y2="6"></line><text fill="#000" y="9" dy="0.71em">20</text></g><g class="tick" opacity="1" transform="translate(106.72568093385213,0)"><line stroke="#000" y2="6"></line><text fill="#000" y="9" dy="0.71em">40</text></g><g class="tick" opacity="1" transform="translate(161.20038910505835,0)"><line stroke="#000" y2="6"></line><text fill="#000" y="9" dy="0.71em">60</text></g><g class="tick" opacity="1" transform="translate(215.6750972762646,0)"><line stroke="#000" y2="6"></line><text fill="#000" y="9" dy="0.71em">80</text></g><g class="tick" opacity="1" transform="translate(270.14980544747084,0)"><line stroke="#000" y2="6"></line><text fill="#000" y="9" dy="0.71em">100</text></g><g class="tick" opacity="1" transform="translate(324.62451361867704,0)"><line stroke="#000" y2="6"></line><text fill="#000" y="9" dy="0.71em">120</text></g><g class="tick" opacity="1" transform="translate(379.09922178988325,0)"><line stroke="#000" y2="6"></line><text fill="#000" y="9" dy="0.71em">140</text></g><g class="tick" opacity="1" transform="translate(433.5739299610895,0)"><line stroke="#000" y2="6"></line><text fill="#000" y="9" dy="0.71em">160</text></g><g class="tick" opacity="1" transform="translate(488.0486381322957,0)"><line stroke="#000" y2="6"></line><text fill="#000" y="9" dy="0.71em">180</text></g><g class="tick" opacity="1" transform="translate(542.523346303502,0)"><line stroke="#000" y2="6"></line><text fill="#000" y="9" dy="0.71em">200</text></g><g class="tick" opacity="1" transform="translate(596.9980544747082,0)"><line stroke="#000" y2="6"></line><text fill="#000" y="9" dy="0.71em">220</text></g><g class="tick" opacity="1" transform="translate(651.4727626459144,0)"><line stroke="#000" y2="6"></line><text fill="#000" y="9" dy="0.71em">240</text></g></g><text class="x label" text-anchor="end" x="700" y="390" style="font-size: 13px; font-family: Arial;">Residue number</text><g class="yAxis" fill="none" font-size="10" font-family="sans-serif" text-anchor="end"><path class="domain" stroke="#000" d="M-6,360.5H0.5V0.5H-6"></path><g class="tick" opacity="1" transform="translate(0,352.56611570247935)"><line stroke="#000" x2="-6"></line><text fill="#000" x="-9" dy="0.32em"></text></g><g class="tick" opacity="1" transform="translate(0,327.77272727272725)"><line stroke="#000" x2="-6"></line><text fill="#000" x="-9" dy="0.32em">0</text></g><g class="tick" opacity="1" transform="translate(0,302.9793388429752)"><line stroke="#000" x2="-6"></line><text fill="#000" x="-9" dy="0.32em">2</text></g><g class="tick" opacity="1" transform="translate(0,278.18595041322317)"><line stroke="#000" x2="-6"></line><text fill="#000" x="-9" dy="0.32em">4</text></g><g class="tick" opacity="1" transform="translate(0,253.39256198347107)"><line stroke="#000" x2="-6"></line><text fill="#000" x="-9" dy="0.32em">6</text></g><g class="tick" opacity="1" transform="translate(0,228.599173553719)"><line stroke="#000" x2="-6"></line><text fill="#000" x="-9" dy="0.32em">8</text></g><g class="tick" opacity="1" transform="translate(0,203.80578512396693)"><line stroke="#000" x2="-6"></line><text fill="#000" x="-9" dy="0.32em">10</text></g><g class="tick" opacity="1" transform="translate(0,179.01239669421489)"><line stroke="#000" x2="-6"></line><text fill="#000" x="-9" dy="0.32em">12</text></g><g class="tick" opacity="1" transform="translate(0,154.21900826446281)"><line stroke="#000" x2="-6"></line><text fill="#000" x="-9" dy="0.32em">14</text></g><g class="tick" opacity="1" transform="translate(0,129.42561983471072)"><line stroke="#000" x2="-6"></line><text fill="#000" x="-9" dy="0.32em">16</text></g><g class="tick" opacity="1" transform="translate(0,104.63223140495865)"><line stroke="#000" x2="-6"></line><text fill="#000" x="-9" dy="0.32em">18</text></g><g class="tick" opacity="1" transform="translate(0,79.8388429752066)"><line stroke="#000" x2="-6"></line><text fill="#000" x="-9" dy="0.32em">20</text></g><g class="tick" opacity="1" transform="translate(0,55.04545454545456)"><line stroke="#000" x2="-6"></line><text fill="#000" x="-9" dy="0.32em">22</text></g><g class="tick" opacity="1" transform="translate(0,30.252066115702462)"><line stroke="#000" x2="-6"></line><text fill="#000" x="-9" dy="0.32em">24</text></g><g class="tick" opacity="1" transform="translate(0,5.458677685950363)"><line stroke="#000" x2="-6"></line><text fill="#000" x="-9" dy="0.32em">26</text></g></g><text class="y label" text-anchor="middle" y="-50" x="-180" dy="0.8em" transform="rotate(-90)" style="font-size: 13px; font-family: Arial;">Total number of references</text><g class="axisRed" fill="none" font-size="10" font-family="sans-serif" text-anchor="start" visibility="hidden" transform="translate(700, 0)"><path class="domain" stroke="#000" d="M6,360.5H0.5V0.5H6"></path><g class="tick" opacity="1" transform="translate(0,360.5)"><line stroke="#000" x2="6"></line><text fill="#000" x="9" dy="0.32em">0</text></g><text text-anchor="start" dx="5.2em" dy="-2.6em" transform="rotate(90)" visibility="hidden" style="font-size: 12px; font-family: Arial; fill: #d7301f;">No recurrent (&gt;2) missense mutations!</text></g><g class="axisPurple" fill="none" font-size="10" font-family="sans-serif" text-anchor="start" visibility="hidden"><path class="domain" stroke="#000" d="M6,360.5H0.5V0.5H6"></path><g class="tick" opacity="1" transform="translate(0,357.52479338842977)"><line stroke="#000" x2="6"></line><text fill="#000" x="9" dy="0.32em"></text></g><g class="tick" opacity="1" transform="translate(0,327.77272727272725)"><line stroke="#000" x2="6"></line><text fill="#000" x="9" dy="0.32em">0</text></g><g class="tick" opacity="1" transform="translate(0,298.0206611570248)"><line stroke="#000" x2="6"></line><text fill="#000" x="9" dy="0.32em">0.1</text></g><g class="tick" opacity="1" transform="translate(0,268.2685950413223)"><line stroke="#000" x2="6"></line><text fill="#000" x="9" dy="0.32em">0.2</text></g><g class="tick" opacity="1" transform="translate(0,238.51652892561984)"><line stroke="#000" x2="6"></line><text fill="#000" x="9" dy="0.32em">0.3</text></g><g class="tick" opacity="1" transform="translate(0,208.76446280991738)"><line stroke="#000" x2="6"></line><text fill="#000" x="9" dy="0.32em">0.4</text></g><g class="tick" opacity="1" transform="translate(0,179.0123966942149)"><line stroke="#000" x2="6"></line><text fill="#000" x="9" dy="0.32em">0.5</text></g><g class="tick" opacity="1" transform="translate(0,149.26033057851242)"><line stroke="#000" x2="6"></line><text fill="#000" x="9" dy="0.32em">0.6</text></g><g class="tick" opacity="1" transform="translate(0,119.50826446280996)"><line stroke="#000" x2="6"></line><text fill="#000" x="9" dy="0.32em">0.7</text></g><g class="tick" opacity="1" transform="translate(0,89.75619834710744)"><line stroke="#000" x2="6"></line><text fill="#000" x="9" dy="0.32em">0.8</text></g><g class="tick" opacity="1" transform="translate(0,60.00413223140498)"><line stroke="#000" x2="6"></line><text fill="#000" x="9" dy="0.32em">0.9</text></g><g class="tick" opacity="1" transform="translate(0,30.25206611570252)"><line stroke="#000" x2="6"></line><text fill="#000" x="9" dy="0.32em">1</text></g><g class="tick" opacity="1" transform="translate(0,0.5)"><line stroke="#000" x2="6"></line><text fill="#000" x="9" dy="0.32em">1.1</text></g><text text-anchor="start" x="10" y="10" visibility="hidden" style="font-size: 12px; font-family: Arial; fill: #807dba;">No disease causing germline SNPs known!</text></g><circle cx="636" cy="15" r="10" class="compassNav" style="fill: #ffffff; stroke: #666666; stroke-width: 1px;"></circle><path d="M440.935 12.574l3.966 82.766C399.416 41.904 331.674 8 256 8 134.813 8 33.933 94.924 12.296 209.824 10.908 217.193 16.604 224 24.103 224h49.084c5.57 0 10.377-3.842 11.676-9.259C103.407 137.408 172.931 80 256 80c60.893 0 114.512 30.856 146.104 77.801l-101.53-4.865c-6.845-.328-12.574 5.133-12.574 11.986v47.411c0 6.627 5.373 12 12 12h200.333c6.627 0 12-5.373 12-12V12c0-6.627-5.373-12-12-12h-47.411c-6.853 0-12.315 5.729-11.987 12.574zM256 432c-60.895 0-114.517-30.858-146.109-77.805l101.868 4.871c6.845.327 12.573-5.134 12.573-11.986v-47.412c0-6.627-5.373-12-12-12H12c-6.627 0-12 5.373-12 12V500c0 6.627 5.373 12 12 12h47.385c6.863 0 12.328-5.745 11.985-12.599l-4.129-82.575C112.725 470.166 180.405 504 256 504c121.187 0 222.067-86.924 243.704-201.824 1.388-7.369-4.308-14.176-11.807-14.176h-49.084c-5.57 0-10.377 3.842-11.676 9.259C408.593 374.592 339.069 432 256 432z" class="compassNav" transform="translate(631, 10) scale(0.02)" style="fill: #666666; stroke: #666666; stroke-width: 1px;"></path><circle cx="658" cy="15" r="10" class="compassNav" style="fill: #ffffff; stroke: #666666; stroke-width: 1px;"></circle><line class="compassNav" stroke-width="2" stroke="#666666" x1="654" y1="15" x2="662" y2="15"></line><line class="compassNav" stroke-width="2" stroke="#666666" x1="658" y1="11" x2="658" y2="19"></line><circle cx="614" cy="15" r="10" class="compassNav" style="fill: #ffffff; stroke: #666666; stroke-width: 1px;"></circle><line class="compassNav" stroke-width="2" stroke="#666666" x1="610" y1="15" x2="618" y2="15"></line><path d="M582 14 l20 -12 a100,40 0 0,0 0,24z" class="compassNav" style="fill: #ffffff; stroke: #666666; stroke-width: 1px;"></path><path d="M690 14 l-20 -12 a100,40 0 0,1 0,24z" class="compassNav" style="fill: #ffffff; stroke: #666666; stroke-width: 1px;"></path><path d="M216 0h80c13.3 0 24 10.7 24 24v168h87.7c17.8 0 26.7 21.5 14.1 34.1L269.7 378.3c-7.5 7.5-19.8 7.5-27.3 0L90.1 226.1c-12.6-12.6-3.7-34.1 14.1-34.1H192V24c0-13.3 10.7-24 24-24zm296 376v112c0 13.3-10.7 24-24 24H24c-13.3 0-24-10.7-24-24V376c0-13.3 10.7-24 24-24h146.7l49 49c20.1 20.1 52.5 20.1 72.6 0l49-49H488c13.3 0 24 10.7 24 24zm-124 88c0-11-9-20-20-20s-20 9-20 20 9 20 20 20 20-9 20-20zm64 0c0-11-9-20-20-20s-20 9-20 20 9 20 20 20 20-9 20-20z" class="compassNav" transform="translate(552,0) scale(0.05)" style="fill: #336699; stroke: #336699; stroke-width: 1px; cursor: pointer;"></path></g></svg>