<svg width="800" height="400" style="background-color: white;"><g transform="translate(50,0)"><svg width="700" height="360"><g style="-webkit-tap-highlight-color: rgba(0, 0, 0, 0);"><rect width="700" height="360" style="fill: #ffffff;"></rect><g id="lines"><line class="line" stroke-width="1" stroke="#d7301f" x1="-303.4334763948498" y1="333" x2="-303.4334763948498" y2="360" visibility="hidden" style="stroke-dasharray: 3px, 3px;"></line></g><g><rect x="-308.4334763948498" y="355" width="10" height="10" visibility="hidden" style="fill: #ffffff; stroke: #d7301f;"></rect></g><g id="lines"><line class="line" stroke-width="1" stroke="#6a51a3" x1="-303.4334763948498" y1="333" x2="-303.4334763948498" y2="327.27272727272725" visibility="hidden" style="stroke-dasharray: 3px, 3px;"></line></g><g><rect x="-308.4334763948498" y="322.27272727272725" width="10" height="10" visibility="hidden" style="fill: #ffffff; stroke: #6a51a3;"></rect></g><g id="lines"><line class="line" stroke-width="1" stroke="#666666" x1="36.05150214592275" y1="333" x2="36.05150214592275" y2="319.0082644628099"></line><line class="line" stroke-width="1" stroke="#666666" x1="42.06008583690987" y1="333" x2="42.06008583690987" y2="252.89256198347107"></line><line class="line" stroke-width="1" stroke="#666666" x1="48.06866952789699" y1="333" x2="48.06866952789699" y2="277.68595041322317"></line><line class="line" stroke-width="1" stroke="#666666" x1="51.07296137339056" y1="333" x2="51.07296137339056" y2="261.1570247933884"></line><line class="line" stroke-width="1" stroke="#666666" x1="60.08583690987125" y1="333" x2="60.08583690987125" y2="186.77685950413223"></line><line class="line" stroke-width="1" stroke="#666666" x1="78.11158798283262" y1="333" x2="78.11158798283262" y2="277.68595041322317"></line><line class="line" stroke-width="1" stroke="#666666" x1="114.16309012875536" y1="333" x2="114.16309012875536" y2="178.51239669421489"></line><line class="line" stroke-width="1" stroke="#666666" x1="117.16738197424893" y1="333" x2="117.16738197424893" y2="294.21487603305786"></line><line class="line" stroke-width="1" stroke="#666666" x1="135.1931330472103" y1="333" x2="135.1931330472103" y2="319.0082644628099"></line><line class="line" stroke-width="1" stroke="#666666" x1="576.824034334764" y1="333" x2="576.824034334764" y2="29.75206611570252"></line><line class="line" stroke-width="1" stroke="#666666" x1="627.8969957081546" y1="333" x2="627.8969957081546" y2="211.5702479338843"></line><line class="line" stroke-width="1" stroke="#666666" x1="639.9141630901288" y1="333" x2="639.9141630901288" y2="186.77685950413223"></line><line class="line" stroke-width="1" stroke="#666666" x1="651.931330472103" y1="333" x2="651.931330472103" y2="178.51239669421489"></line><line class="line" stroke-width="1" stroke="#666666" x1="678.969957081545" y1="333" x2="678.969957081545" y2="310.74380165289256"></line><line class="line" stroke-width="1" stroke="#666666" x1="684.9785407725321" y1="333" x2="684.9785407725321" y2="302.4793388429752"></line></g><g id="circles"><circle r="4" cx="36.05150214592275" cy="319.0082644628099" style="fill: #4393c3; stroke: #666666; stroke-width: 1px;"></circle><circle r="4" cx="42.06008583690987" cy="252.89256198347107" style="fill: #4393c3; stroke: #666666; stroke-width: 1px;"></circle><circle r="4" cx="48.06866952789699" cy="277.68595041322317" style="fill: #4393c3; stroke: #666666; stroke-width: 1px;"></circle><circle r="4" cx="51.07296137339056" cy="261.1570247933884" style="fill: #4393c3; stroke: #666666; stroke-width: 1px;"></circle><circle r="4" cx="60.08583690987125" cy="186.77685950413223" style="fill: #4393c3; stroke: #666666; stroke-width: 1px;"></circle><circle r="4" cx="78.11158798283262" cy="277.68595041322317" style="fill: #4393c3; stroke: #666666; stroke-width: 1px;"></circle><circle r="4" cx="114.16309012875536" cy="178.51239669421489" style="fill: #4393c3; stroke: #666666; stroke-width: 1px;"></circle><circle r="4" cx="117.16738197424893" cy="294.21487603305786" style="fill: #4393c3; stroke: #666666; stroke-width: 1px;"></circle><circle r="4" cx="135.1931330472103" cy="319.0082644628099" style="fill: #5aae61; stroke: #666666; stroke-width: 1px;"></circle><circle r="4" cx="576.824034334764" cy="29.75206611570252" style="fill: #4393c3; stroke: #666666; stroke-width: 1px;"></circle><circle r="4" cx="627.8969957081546" cy="211.5702479338843" style="fill: #4393c3; stroke: #666666; stroke-width: 1px;"></circle><circle r="4" cx="639.9141630901288" cy="186.77685950413223" style="fill: #4393c3; stroke: #666666; stroke-width: 1px;"></circle><circle r="4" cx="651.931330472103" cy="178.51239669421489" style="fill: #4393c3; stroke: #666666; stroke-width: 1px;"></circle><circle r="4" cx="678.969957081545" cy="310.74380165289256" style="fill: #4393c3; stroke: #666666; stroke-width: 1px;"></circle><circle r="4" cx="684.9785407725321" cy="302.4793388429752" style="fill: #bf812d; stroke: #666666; stroke-width: 1px;"></circle></g><g><rect x="0" y="333" width="700" height="12" style="fill: #ffffff; stroke-width: 1px; stroke: #666666;"></rect><rect x="144.206008583691" y="333" width="495.70815450643784" height="12" style="fill: #aec7e8; stroke-width: 1px; stroke: #666666;"></rect><rect x="159.2274678111588" y="333" width="60.08583690987126" height="12" style="fill: #ffbb78; stroke-width: 1px; stroke: #666666;"></rect><rect x="291.4163090128755" y="333" width="60.08583690987132" height="12" style="fill: #ffbb78; stroke-width: 1px; stroke: #666666;"></rect><rect x="366.5236051502146" y="333" width="60.085836909871205" height="12" style="fill: #ffbb78; stroke-width: 1px; stroke: #666666;"></rect><rect x="450.6437768240344" y="333" width="60.085836909871205" height="12" style="fill: #ffbb78; stroke-width: 1px; stroke: #666666;"></rect></g><g><a target="_blank" xlink:href="http://pfam.xfam.org/family/"><text y="343" x="350" text-anchor="middle" style="color: rgb(102, 102, 102); font-weight: normal; font-size: 12px; font-family: Arial; cursor: pointer;"></text></a><a target="_blank" xlink:href="http://pfam.xfam.org/family/MENTAL"><text y="343" x="392.0600858369099" text-anchor="middle" style="color: rgb(102, 102, 102); font-weight: normal; font-size: 12px; font-family: Arial; cursor: pointer;">MENTAL</text></a><a target="_blank" xlink:href="http://pfam.xfam.org/family/TM"><text y="343" x="189.27038626609442" text-anchor="middle" style="color: rgb(102, 102, 102); font-weight: normal; font-size: 12px; font-family: Arial; cursor: pointer;">TM</text></a><a target="_blank" xlink:href="http://pfam.xfam.org/family/TM"><text y="343" x="321.45922746781116" text-anchor="middle" style="color: rgb(102, 102, 102); font-weight: normal; font-size: 12px; font-family: Arial; cursor: pointer;">TM</text></a><a target="_blank" xlink:href="http://pfam.xfam.org/family/TM"><text y="343" x="396.5665236051502" text-anchor="middle" style="color: rgb(102, 102, 102); font-weight: normal; font-size: 12px; font-family: Arial; cursor: pointer;">TM</text></a><a target="_blank" xlink:href="http://pfam.xfam.org/family/TM"><text y="343" x="480.68669527897" text-anchor="middle" style="color: rgb(102, 102, 102); font-weight: normal; font-size: 12px; font-family: Arial; cursor: pointer;">TM</text></a></g><g><text y="358" x="0" text-anchor="middle" visibility="hidden" style="font-size: 13px;">M</text><text y="358" x="3.004291845493562" text-anchor="middle" visibility="hidden" style="font-size: 13px;">N</text><text y="358" x="6.008583690987124" text-anchor="middle" visibility="hidden" style="font-size: 13px;">H</text><text y="358" x="9.012875536480687" text-anchor="middle" visibility="hidden" style="font-size: 13px;">L</text><text y="358" x="12.017167381974248" text-anchor="middle" visibility="hidden" style="font-size: 13px;">P</text><text y="358" x="15.021459227467812" text-anchor="middle" visibility="hidden" style="font-size: 13px;">E</text><text y="358" x="18.025751072961373" text-anchor="middle" visibility="hidden" style="font-size: 13px;">D</text><text y="358" x="21.030042918454935" text-anchor="middle" visibility="hidden" style="font-size: 13px;">M</text><text y="358" x="24.034334763948497" text-anchor="middle" visibility="hidden" style="font-size: 13px;">E</text><text y="358" x="27.038626609442062" text-anchor="middle" visibility="hidden" style="font-size: 13px;">N</text><text y="358" x="30.042918454935624" text-anchor="middle" visibility="hidden" style="font-size: 13px;">A</text><text y="358" x="33.047210300429185" text-anchor="middle" visibility="hidden" style="font-size: 13px;">L</text><text y="358" x="36.05150214592275" text-anchor="middle" visibility="hidden" style="font-size: 13px;">T</text><text y="358" x="39.05579399141631" text-anchor="middle" visibility="hidden" style="font-size: 13px;">G</text><text y="358" x="42.06008583690987" text-anchor="middle" visibility="hidden" style="font-size: 13px;">S</text><text y="358" x="45.06437768240343" text-anchor="middle" visibility="hidden" style="font-size: 13px;">Q</text><text y="358" x="48.06866952789699" text-anchor="middle" visibility="hidden" style="font-size: 13px;">S</text><text y="358" x="51.07296137339056" text-anchor="middle" visibility="hidden" style="font-size: 13px;">S</text><text y="358" x="54.077253218884124" text-anchor="middle" visibility="hidden" style="font-size: 13px;">H</text><text y="358" x="57.08154506437768" text-anchor="middle" visibility="hidden" style="font-size: 13px;">A</text><text y="358" x="60.08583690987125" text-anchor="middle" visibility="hidden" style="font-size: 13px;">S</text><text y="358" x="63.09012875536481" text-anchor="middle" visibility="hidden" style="font-size: 13px;">L</text><text y="358" x="66.09442060085837" text-anchor="middle" visibility="hidden" style="font-size: 13px;">R</text><text y="358" x="69.09871244635193" text-anchor="middle" visibility="hidden" style="font-size: 13px;">N</text><text y="358" x="72.1030042918455" text-anchor="middle" visibility="hidden" style="font-size: 13px;">I</text><text y="358" x="75.10729613733906" text-anchor="middle" visibility="hidden" style="font-size: 13px;">H</text><text y="358" x="78.11158798283262" text-anchor="middle" visibility="hidden" style="font-size: 13px;">S</text><text y="358" x="81.11587982832617" text-anchor="middle" visibility="hidden" style="font-size: 13px;">I</text><text y="358" x="84.12017167381974" text-anchor="middle" visibility="hidden" style="font-size: 13px;">N</text><text y="358" x="87.12446351931331" text-anchor="middle" visibility="hidden" style="font-size: 13px;">P</text><text y="358" x="90.12875536480686" text-anchor="middle" visibility="hidden" style="font-size: 13px;">T</text><text y="358" x="93.13304721030043" text-anchor="middle" visibility="hidden" style="font-size: 13px;">Q</text><text y="358" x="96.13733905579399" text-anchor="middle" visibility="hidden" style="font-size: 13px;">L</text><text y="358" x="99.14163090128756" text-anchor="middle" visibility="hidden" style="font-size: 13px;">M</text><text y="358" x="102.14592274678112" text-anchor="middle" visibility="hidden" style="font-size: 13px;">A</text><text y="358" x="105.15021459227468" text-anchor="middle" visibility="hidden" style="font-size: 13px;">R</text><text y="358" x="108.15450643776825" text-anchor="middle" visibility="hidden" style="font-size: 13px;">I</text><text y="358" x="111.15879828326179" text-anchor="middle" visibility="hidden" style="font-size: 13px;">E</text><text y="358" x="114.16309012875536" text-anchor="middle" visibility="hidden" style="font-size: 13px;">S</text><text y="358" x="117.16738197424893" text-anchor="middle" visibility="hidden" style="font-size: 13px;">Y</text><text y="358" x="120.1716738197425" text-anchor="middle" visibility="hidden" style="font-size: 13px;">E</text><text y="358" x="123.17596566523605" text-anchor="middle" visibility="hidden" style="font-size: 13px;">G</text><text y="358" x="126.18025751072962" text-anchor="middle" visibility="hidden" style="font-size: 13px;">R</text><text y="358" x="129.1845493562232" text-anchor="middle" visibility="hidden" style="font-size: 13px;">E</text><text y="358" x="132.18884120171674" text-anchor="middle" visibility="hidden" style="font-size: 13px;">K</text><text y="358" x="135.1931330472103" text-anchor="middle" visibility="hidden" style="font-size: 13px;">K</text><text y="358" x="138.19742489270385" text-anchor="middle" visibility="hidden" style="font-size: 13px;">G</text><text y="358" x="141.20171673819743" text-anchor="middle" visibility="hidden" style="font-size: 13px;">I</text><text y="358" x="144.206008583691" text-anchor="middle" visibility="hidden" style="font-size: 13px;">S</text><text y="358" x="147.21030042918454" text-anchor="middle" visibility="hidden" style="font-size: 13px;">D</text><text y="358" x="150.21459227467813" text-anchor="middle" visibility="hidden" style="font-size: 13px;">V</text><text y="358" x="153.21888412017168" text-anchor="middle" visibility="hidden" style="font-size: 13px;">R</text><text y="358" x="156.22317596566523" text-anchor="middle" visibility="hidden" style="font-size: 13px;">R</text><text y="358" x="159.2274678111588" text-anchor="middle" visibility="hidden" style="font-size: 13px;">T</text><text y="358" x="162.23175965665234" text-anchor="middle" visibility="hidden" style="font-size: 13px;">F</text><text y="358" x="165.23605150214593" text-anchor="middle" visibility="hidden" style="font-size: 13px;">C</text><text y="358" x="168.24034334763948" text-anchor="middle" visibility="hidden" style="font-size: 13px;">L</text><text y="358" x="171.24463519313304" text-anchor="middle" visibility="hidden" style="font-size: 13px;">F</text><text y="358" x="174.24892703862662" text-anchor="middle" visibility="hidden" style="font-size: 13px;">V</text><text y="358" x="177.25321888412017" text-anchor="middle" visibility="hidden" style="font-size: 13px;">T</text><text y="358" x="180.25751072961373" text-anchor="middle" visibility="hidden" style="font-size: 13px;">F</text><text y="358" x="183.2618025751073" text-anchor="middle" visibility="hidden" style="font-size: 13px;">D</text><text y="358" x="186.26609442060087" text-anchor="middle" visibility="hidden" style="font-size: 13px;">L</text><text y="358" x="189.27038626609445" text-anchor="middle" visibility="hidden" style="font-size: 13px;">L</text><text y="358" x="192.27467811158797" text-anchor="middle" visibility="hidden" style="font-size: 13px;">F</text><text y="358" x="195.27896995708153" text-anchor="middle" visibility="hidden" style="font-size: 13px;">V</text><text y="358" x="198.2832618025751" text-anchor="middle" visibility="hidden" style="font-size: 13px;">T</text><text y="358" x="201.28755364806867" text-anchor="middle" visibility="hidden" style="font-size: 13px;">L</text><text y="358" x="204.29184549356225" text-anchor="middle" visibility="hidden" style="font-size: 13px;">L</text><text y="358" x="207.29613733905578" text-anchor="middle" visibility="hidden" style="font-size: 13px;">W</text><text y="358" x="210.30042918454936" text-anchor="middle" visibility="hidden" style="font-size: 13px;">I</text><text y="358" x="213.3047210300429" text-anchor="middle" visibility="hidden" style="font-size: 13px;">I</text><text y="358" x="216.3090128755365" text-anchor="middle" visibility="hidden" style="font-size: 13px;">E</text><text y="358" x="219.31330472103005" text-anchor="middle" visibility="hidden" style="font-size: 13px;">L</text><text y="358" x="222.31759656652358" text-anchor="middle" visibility="hidden" style="font-size: 13px;">N</text><text y="358" x="225.3218884120172" text-anchor="middle" visibility="hidden" style="font-size: 13px;">V</text><text y="358" x="228.3261802575107" text-anchor="middle" visibility="hidden" style="font-size: 13px;">N</text><text y="358" x="231.3304721030043" text-anchor="middle" visibility="hidden" style="font-size: 13px;">G</text><text y="358" x="234.33476394849785" text-anchor="middle" visibility="hidden" style="font-size: 13px;">G</text><text y="358" x="237.33905579399143" text-anchor="middle" visibility="hidden" style="font-size: 13px;">I</text><text y="358" x="240.343347639485" text-anchor="middle" visibility="hidden" style="font-size: 13px;">E</text><text y="358" x="243.34763948497852" text-anchor="middle" visibility="hidden" style="font-size: 13px;">N</text><text y="358" x="246.3519313304721" text-anchor="middle" visibility="hidden" style="font-size: 13px;">T</text><text y="358" x="249.35622317596565" text-anchor="middle" visibility="hidden" style="font-size: 13px;">L</text><text y="358" x="252.36051502145924" text-anchor="middle" visibility="hidden" style="font-size: 13px;">E</text><text y="358" x="255.3648068669528" text-anchor="middle" visibility="hidden" style="font-size: 13px;">K</text><text y="358" x="258.3690987124464" text-anchor="middle" visibility="hidden" style="font-size: 13px;">E</text><text y="358" x="261.3733905579399" text-anchor="middle" visibility="hidden" style="font-size: 13px;">V</text><text y="358" x="264.3776824034335" text-anchor="middle" visibility="hidden" style="font-size: 13px;">M</text><text y="358" x="267.38197424892707" text-anchor="middle" visibility="hidden" style="font-size: 13px;">Q</text><text y="358" x="270.3862660944206" text-anchor="middle" visibility="hidden" style="font-size: 13px;">Y</text><text y="358" x="273.3905579399142" text-anchor="middle" visibility="hidden" style="font-size: 13px;">D</text><text y="358" x="276.3948497854077" text-anchor="middle" visibility="hidden" style="font-size: 13px;">Y</text><text y="358" x="279.3991416309013" text-anchor="middle" visibility="hidden" style="font-size: 13px;">Y</text><text y="358" x="282.40343347639487" text-anchor="middle" visibility="hidden" style="font-size: 13px;">S</text><text y="358" x="285.40772532188845" text-anchor="middle" visibility="hidden" style="font-size: 13px;">S</text><text y="358" x="288.412017167382" text-anchor="middle" visibility="hidden" style="font-size: 13px;">Y</text><text y="358" x="291.4163090128755" text-anchor="middle" visibility="hidden" style="font-size: 13px;">F</text><text y="358" x="294.4206008583691" text-anchor="middle" visibility="hidden" style="font-size: 13px;">D</text><text y="358" x="297.42489270386267" text-anchor="middle" visibility="hidden" style="font-size: 13px;">I</text><text y="358" x="300.42918454935625" text-anchor="middle" visibility="hidden" style="font-size: 13px;">F</text><text y="358" x="303.4334763948498" text-anchor="middle" visibility="hidden" style="font-size: 13px;">L</text><text y="358" x="306.43776824034336" text-anchor="middle" visibility="hidden" style="font-size: 13px;">L</text><text y="358" x="309.4420600858369" text-anchor="middle" visibility="hidden" style="font-size: 13px;">A</text><text y="358" x="312.44635193133047" text-anchor="middle" visibility="hidden" style="font-size: 13px;">V</text><text y="358" x="315.45064377682405" text-anchor="middle" visibility="hidden" style="font-size: 13px;">F</text><text y="358" x="318.4549356223176" text-anchor="middle" visibility="hidden" style="font-size: 13px;">R</text><text y="358" x="321.45922746781116" text-anchor="middle" visibility="hidden" style="font-size: 13px;">F</text><text y="358" x="324.4635193133047" text-anchor="middle" visibility="hidden" style="font-size: 13px;">K</text><text y="358" x="327.46781115879827" text-anchor="middle" visibility="hidden" style="font-size: 13px;">V</text><text y="358" x="330.47210300429185" text-anchor="middle" visibility="hidden" style="font-size: 13px;">L</text><text y="358" x="333.47639484978544" text-anchor="middle" visibility="hidden" style="font-size: 13px;">I</text><text y="358" x="336.48068669527896" text-anchor="middle" visibility="hidden" style="font-size: 13px;">L</text><text y="358" x="339.4849785407725" text-anchor="middle" visibility="hidden" style="font-size: 13px;">A</text><text y="358" x="342.48927038626607" text-anchor="middle" visibility="hidden" style="font-size: 13px;">Y</text><text y="358" x="345.49356223175965" text-anchor="middle" visibility="hidden" style="font-size: 13px;">A</text><text y="358" x="348.49785407725324" text-anchor="middle" visibility="hidden" style="font-size: 13px;">V</text><text y="358" x="351.5021459227468" text-anchor="middle" visibility="hidden" style="font-size: 13px;">C</text><text y="358" x="354.50643776824035" text-anchor="middle" visibility="hidden" style="font-size: 13px;">R</text><text y="358" x="357.51072961373393" text-anchor="middle" visibility="hidden" style="font-size: 13px;">L</text><text y="358" x="360.51502145922746" text-anchor="middle" visibility="hidden" style="font-size: 13px;">R</text><text y="358" x="363.519313304721" text-anchor="middle" visibility="hidden" style="font-size: 13px;">H</text><text y="358" x="366.5236051502146" text-anchor="middle" visibility="hidden" style="font-size: 13px;">W</text><text y="358" x="369.52789699570815" text-anchor="middle" visibility="hidden" style="font-size: 13px;">W</text><text y="358" x="372.53218884120173" text-anchor="middle" visibility="hidden" style="font-size: 13px;">A</text><text y="358" x="375.53648068669526" text-anchor="middle" visibility="hidden" style="font-size: 13px;">I</text><text y="358" x="378.5407725321889" text-anchor="middle" visibility="hidden" style="font-size: 13px;">A</text><text y="358" x="381.5450643776824" text-anchor="middle" visibility="hidden" style="font-size: 13px;">L</text><text y="358" x="384.54935622317595" text-anchor="middle" visibility="hidden" style="font-size: 13px;">T</text><text y="358" x="387.55364806866953" text-anchor="middle" visibility="hidden" style="font-size: 13px;">T</text><text y="358" x="390.55793991416306" text-anchor="middle" visibility="hidden" style="font-size: 13px;">A</text><text y="358" x="393.5622317596567" text-anchor="middle" visibility="hidden" style="font-size: 13px;">V</text><text y="358" x="396.5665236051502" text-anchor="middle" visibility="hidden" style="font-size: 13px;">T</text><text y="358" x="399.57081545064375" text-anchor="middle" visibility="hidden" style="font-size: 13px;">S</text><text y="358" x="402.57510729613733" text-anchor="middle" visibility="hidden" style="font-size: 13px;">A</text><text y="358" x="405.5793991416309" text-anchor="middle" visibility="hidden" style="font-size: 13px;">F</text><text y="358" x="408.5836909871245" text-anchor="middle" visibility="hidden" style="font-size: 13px;">L</text><text y="358" x="411.587982832618" text-anchor="middle" visibility="hidden" style="font-size: 13px;">L</text><text y="358" x="414.59227467811155" text-anchor="middle" visibility="hidden" style="font-size: 13px;">A</text><text y="358" x="417.59656652360513" text-anchor="middle" visibility="hidden" style="font-size: 13px;">K</text><text y="358" x="420.6008583690987" text-anchor="middle" visibility="hidden" style="font-size: 13px;">V</text><text y="358" x="423.6051502145923" text-anchor="middle" visibility="hidden" style="font-size: 13px;">I</text><text y="358" x="426.6094420600858" text-anchor="middle" visibility="hidden" style="font-size: 13px;">L</text><text y="358" x="429.61373390557935" text-anchor="middle" visibility="hidden" style="font-size: 13px;">S</text><text y="358" x="432.618025751073" text-anchor="middle" visibility="hidden" style="font-size: 13px;">K</text><text y="358" x="435.6223175965665" text-anchor="middle" visibility="hidden" style="font-size: 13px;">L</text><text y="358" x="438.6266094420601" text-anchor="middle" visibility="hidden" style="font-size: 13px;">F</text><text y="358" x="441.6309012875536" text-anchor="middle" visibility="hidden" style="font-size: 13px;">S</text><text y="358" x="444.63519313304715" text-anchor="middle" visibility="hidden" style="font-size: 13px;">Q</text><text y="358" x="447.6394849785408" text-anchor="middle" visibility="hidden" style="font-size: 13px;">G</text><text y="358" x="450.6437768240344" text-anchor="middle" visibility="hidden" style="font-size: 13px;">A</text><text y="358" x="453.6480686695279" text-anchor="middle" visibility="hidden" style="font-size: 13px;">F</text><text y="358" x="456.6523605150214" text-anchor="middle" visibility="hidden" style="font-size: 13px;">G</text><text y="358" x="459.656652360515" text-anchor="middle" visibility="hidden" style="font-size: 13px;">Y</text><text y="358" x="462.6609442060086" text-anchor="middle" visibility="hidden" style="font-size: 13px;">V</text><text y="358" x="465.6652360515022" text-anchor="middle" visibility="hidden" style="font-size: 13px;">L</text><text y="358" x="468.6695278969957" text-anchor="middle" visibility="hidden" style="font-size: 13px;">P</text><text y="358" x="471.67381974248923" text-anchor="middle" visibility="hidden" style="font-size: 13px;">I</text><text y="358" x="474.67811158798287" text-anchor="middle" visibility="hidden" style="font-size: 13px;">I</text><text y="358" x="477.6824034334764" text-anchor="middle" visibility="hidden" style="font-size: 13px;">S</text><text y="358" x="480.68669527897" text-anchor="middle" visibility="hidden" style="font-size: 13px;">F</text><text y="358" x="483.6909871244635" text-anchor="middle" visibility="hidden" style="font-size: 13px;">I</text><text y="358" x="486.69527896995703" text-anchor="middle" visibility="hidden" style="font-size: 13px;">L</text><text y="358" x="489.69957081545067" text-anchor="middle" visibility="hidden" style="font-size: 13px;">A</text><text y="358" x="492.7038626609442" text-anchor="middle" visibility="hidden" style="font-size: 13px;">W</text><text y="358" x="495.7081545064378" text-anchor="middle" visibility="hidden" style="font-size: 13px;">I</text><text y="358" x="498.7124463519313" text-anchor="middle" visibility="hidden" style="font-size: 13px;">E</text><text y="358" x="501.71673819742495" text-anchor="middle" visibility="hidden" style="font-size: 13px;">T</text><text y="358" x="504.72103004291847" text-anchor="middle" visibility="hidden" style="font-size: 13px;">W</text><text y="358" x="507.725321888412" text-anchor="middle" visibility="hidden" style="font-size: 13px;">F</text><text y="358" x="510.7296137339056" text-anchor="middle" visibility="hidden" style="font-size: 13px;">L</text><text y="358" x="513.7339055793991" text-anchor="middle" visibility="hidden" style="font-size: 13px;">D</text><text y="358" x="516.7381974248927" text-anchor="middle" visibility="hidden" style="font-size: 13px;">F</text><text y="358" x="519.7424892703863" text-anchor="middle" visibility="hidden" style="font-size: 13px;">K</text><text y="358" x="522.7467811158798" text-anchor="middle" visibility="hidden" style="font-size: 13px;">V</text><text y="358" x="525.7510729613733" text-anchor="middle" visibility="hidden" style="font-size: 13px;">L</text><text y="358" x="528.755364806867" text-anchor="middle" visibility="hidden" style="font-size: 13px;">P</text><text y="358" x="531.7596566523605" text-anchor="middle" visibility="hidden" style="font-size: 13px;">Q</text><text y="358" x="534.7639484978541" text-anchor="middle" visibility="hidden" style="font-size: 13px;">E</text><text y="358" x="537.7682403433477" text-anchor="middle" visibility="hidden" style="font-size: 13px;">A</text><text y="358" x="540.7725321888412" text-anchor="middle" visibility="hidden" style="font-size: 13px;">E</text><text y="358" x="543.7768240343348" text-anchor="middle" visibility="hidden" style="font-size: 13px;">E</text><text y="358" x="546.7811158798283" text-anchor="middle" visibility="hidden" style="font-size: 13px;">E</text><text y="358" x="549.7854077253219" text-anchor="middle" visibility="hidden" style="font-size: 13px;">N</text><text y="358" x="552.7896995708154" text-anchor="middle" visibility="hidden" style="font-size: 13px;">R</text><text y="358" x="555.7939914163089" text-anchor="middle" visibility="hidden" style="font-size: 13px;">L</text><text y="358" x="558.7982832618026" text-anchor="middle" visibility="hidden" style="font-size: 13px;">L</text><text y="358" x="561.8025751072961" text-anchor="middle" visibility="hidden" style="font-size: 13px;">I</text><text y="358" x="564.8068669527897" text-anchor="middle" visibility="hidden" style="font-size: 13px;">V</text><text y="358" x="567.8111587982833" text-anchor="middle" visibility="hidden" style="font-size: 13px;">Q</text><text y="358" x="570.8154506437769" text-anchor="middle" visibility="hidden" style="font-size: 13px;">D</text><text y="358" x="573.8197424892704" text-anchor="middle" visibility="hidden" style="font-size: 13px;">A</text><text y="358" x="576.824034334764" text-anchor="middle" visibility="hidden" style="font-size: 13px;">S</text><text y="358" x="579.8283261802575" text-anchor="middle" visibility="hidden" style="font-size: 13px;">E</text><text y="358" x="582.832618025751" text-anchor="middle" visibility="hidden" style="font-size: 13px;">R</text><text y="358" x="585.8369098712446" text-anchor="middle" visibility="hidden" style="font-size: 13px;">A</text><text y="358" x="588.8412017167382" text-anchor="middle" visibility="hidden" style="font-size: 13px;">A</text><text y="358" x="591.8454935622317" text-anchor="middle" visibility="hidden" style="font-size: 13px;">L</text><text y="358" x="594.8497854077253" text-anchor="middle" visibility="hidden" style="font-size: 13px;">I</text><text y="358" x="597.854077253219" text-anchor="middle" visibility="hidden" style="font-size: 13px;">P</text><text y="358" x="600.8583690987125" text-anchor="middle" visibility="hidden" style="font-size: 13px;">G</text><text y="358" x="603.862660944206" text-anchor="middle" visibility="hidden" style="font-size: 13px;">G</text><text y="358" x="606.8669527896996" text-anchor="middle" visibility="hidden" style="font-size: 13px;">L</text><text y="358" x="609.8712446351931" text-anchor="middle" visibility="hidden" style="font-size: 13px;">S</text><text y="358" x="612.8755364806867" text-anchor="middle" visibility="hidden" style="font-size: 13px;">D</text><text y="358" x="615.8798283261802" text-anchor="middle" visibility="hidden" style="font-size: 13px;">G</text><text y="358" x="618.8841201716738" text-anchor="middle" visibility="hidden" style="font-size: 13px;">Q</text><text y="358" x="621.8884120171674" text-anchor="middle" visibility="hidden" style="font-size: 13px;">F</text><text y="358" x="624.8927038626609" text-anchor="middle" visibility="hidden" style="font-size: 13px;">Y</text><text y="358" x="627.8969957081546" text-anchor="middle" visibility="hidden" style="font-size: 13px;">S</text><text y="358" x="630.9012875536481" text-anchor="middle" visibility="hidden" style="font-size: 13px;">P</text><text y="358" x="633.9055793991416" text-anchor="middle" visibility="hidden" style="font-size: 13px;">P</text><text y="358" x="636.9098712446352" text-anchor="middle" visibility="hidden" style="font-size: 13px;">E</text><text y="358" x="639.9141630901288" text-anchor="middle" visibility="hidden" style="font-size: 13px;">S</text><text y="358" x="642.9184549356223" text-anchor="middle" visibility="hidden" style="font-size: 13px;">E</text><text y="358" x="645.9227467811158" text-anchor="middle" visibility="hidden" style="font-size: 13px;">A</text><text y="358" x="648.9270386266094" text-anchor="middle" visibility="hidden" style="font-size: 13px;">G</text><text y="358" x="651.931330472103" text-anchor="middle" visibility="hidden" style="font-size: 13px;">S</text><text y="358" x="654.9356223175965" text-anchor="middle" visibility="hidden" style="font-size: 13px;">E</text><text y="358" x="657.9399141630902" text-anchor="middle" visibility="hidden" style="font-size: 13px;">E</text><text y="358" x="660.9442060085837" text-anchor="middle" visibility="hidden" style="font-size: 13px;">A</text><text y="358" x="663.9484978540772" text-anchor="middle" visibility="hidden" style="font-size: 13px;">E</text><text y="358" x="666.9527896995709" text-anchor="middle" visibility="hidden" style="font-size: 13px;">E</text><text y="358" x="669.9570815450644" text-anchor="middle" visibility="hidden" style="font-size: 13px;">K</text><text y="358" x="672.9613733905579" text-anchor="middle" visibility="hidden" style="font-size: 13px;">Q</text><text y="358" x="675.9656652360514" text-anchor="middle" visibility="hidden" style="font-size: 13px;">D</text><text y="358" x="678.969957081545" text-anchor="middle" visibility="hidden" style="font-size: 13px;">S</text><text y="358" x="681.9742489270386" text-anchor="middle" visibility="hidden" style="font-size: 13px;">E</text><text y="358" x="684.9785407725321" text-anchor="middle" visibility="hidden" style="font-size: 13px;">K</text><text y="358" x="687.9828326180258" text-anchor="middle" visibility="hidden" style="font-size: 13px;">P</text><text y="358" x="690.9871244635193" text-anchor="middle" visibility="hidden" style="font-size: 13px;">L</text><text y="358" x="693.991416309013" text-anchor="middle" visibility="hidden" style="font-size: 13px;">L</text><text y="358" x="696.9957081545065" text-anchor="middle" visibility="hidden" style="font-size: 13px;">E</text><text y="358" x="700" text-anchor="middle" visibility="hidden" style="font-size: 13px;">L</text></g></g></svg><g class="xAxis" transform="translate(0,360)" fill="none" font-size="10" font-family="sans-serif" text-anchor="middle"><path class="domain" stroke="#000" d="M0.5,6V0.5H700.5V6"></path><g class="tick" opacity="1" transform="translate(57.58154506437768,0)"><line stroke="#000" y2="6"></line><text fill="#000" y="9" dy="0.71em">20</text></g><g class="tick" opacity="1" transform="translate(117.66738197424893,0)"><line stroke="#000" y2="6"></line><text fill="#000" y="9" dy="0.71em">40</text></g><g class="tick" opacity="1" transform="translate(177.75321888412017,0)"><line stroke="#000" y2="6"></line><text fill="#000" y="9" dy="0.71em">60</text></g><g class="tick" opacity="1" transform="translate(237.83905579399143,0)"><line stroke="#000" y2="6"></line><text fill="#000" y="9" dy="0.71em">80</text></g><g class="tick" opacity="1" transform="translate(297.92489270386267,0)"><line stroke="#000" y2="6"></line><text fill="#000" y="9" dy="0.71em">100</text></g><g class="tick" opacity="1" transform="translate(358.01072961373393,0)"><line stroke="#000" y2="6"></line><text fill="#000" y="9" dy="0.71em">120</text></g><g class="tick" opacity="1" transform="translate(418.09656652360513,0)"><line stroke="#000" y2="6"></line><text fill="#000" y="9" dy="0.71em">140</text></g><g class="tick" opacity="1" transform="translate(478.1824034334764,0)"><line stroke="#000" y2="6"></line><text fill="#000" y="9" dy="0.71em">160</text></g><g class="tick" opacity="1" transform="translate(538.2682403433477,0)"><line stroke="#000" y2="6"></line><text fill="#000" y="9" dy="0.71em">180</text></g><g class="tick" opacity="1" transform="translate(598.354077253219,0)"><line stroke="#000" y2="6"></line><text fill="#000" y="9" dy="0.71em">200</text></g><g class="tick" opacity="1" transform="translate(658.4399141630902,0)"><line stroke="#000" y2="6"></line><text fill="#000" y="9" dy="0.71em">220</text></g></g><text class="x label" text-anchor="end" x="700" y="390" style="font-size: 13px; font-family: Arial;">Residue number</text><g class="yAxis" fill="none" font-size="10" font-family="sans-serif" text-anchor="end"><path class="domain" stroke="#000" d="M-6,360.5H0.5V0.5H-6"></path><g class="tick" opacity="1" transform="translate(0,327.77272727272725)"><line stroke="#000" x2="-6"></line><text fill="#000" x="-9" dy="0.32em">0</text></g><g class="tick" opacity="1" transform="translate(0,286.45041322314046)"><line stroke="#000" x2="-6"></line><text fill="#000" x="-9" dy="0.32em">5</text></g><g class="tick" opacity="1" transform="translate(0,245.12809917355372)"><line stroke="#000" x2="-6"></line><text fill="#000" x="-9" dy="0.32em">10</text></g><g class="tick" opacity="1" transform="translate(0,203.80578512396693)"><line stroke="#000" x2="-6"></line><text fill="#000" x="-9" dy="0.32em">15</text></g><g class="tick" opacity="1" transform="translate(0,162.4834710743802)"><line stroke="#000" x2="-6"></line><text fill="#000" x="-9" dy="0.32em">20</text></g><g class="tick" opacity="1" transform="translate(0,121.1611570247934)"><line stroke="#000" x2="-6"></line><text fill="#000" x="-9" dy="0.32em">25</text></g><g class="tick" opacity="1" transform="translate(0,79.8388429752066)"><line stroke="#000" x2="-6"></line><text fill="#000" x="-9" dy="0.32em">30</text></g><g class="tick" opacity="1" transform="translate(0,38.51652892561981)"><line stroke="#000" x2="-6"></line><text fill="#000" x="-9" dy="0.32em">35</text></g></g><text class="y label" text-anchor="middle" y="-50" x="-180" dy="0.8em" transform="rotate(-90)" style="font-size: 13px; font-family: Arial;">Total number of references</text><g class="axisRed" fill="none" font-size="10" font-family="sans-serif" text-anchor="start" visibility="hidden" transform="translate(700, 0)"><path class="domain" stroke="#000" d="M6,360.5H0.5V0.5H6"></path><g class="tick" opacity="1" transform="translate(0,360.5)"><line stroke="#000" x2="6"></line><text fill="#000" x="9" dy="0.32em">0</text></g><text text-anchor="start" dx="5.2em" dy="-2.6em" transform="rotate(90)" visibility="hidden" style="font-size: 12px; font-family: Arial; fill: #d7301f;">No recurrent (&gt;2) missense mutations!</text></g><g class="axisPurple" fill="none" font-size="10" font-family="sans-serif" text-anchor="start" visibility="hidden"><path class="domain" stroke="#000" d="M6,360.5H0.5V0.5H6"></path><g class="tick" opacity="1" transform="translate(0,357.52479338842977)"><line stroke="#000" x2="6"></line><text fill="#000" x="9" dy="0.32em"></text></g><g class="tick" opacity="1" transform="translate(0,327.77272727272725)"><line stroke="#000" x2="6"></line><text fill="#000" x="9" dy="0.32em">0</text></g><g class="tick" opacity="1" transform="translate(0,298.0206611570248)"><line stroke="#000" x2="6"></line><text fill="#000" x="9" dy="0.32em">0.1</text></g><g class="tick" opacity="1" transform="translate(0,268.2685950413223)"><line stroke="#000" x2="6"></line><text fill="#000" x="9" dy="0.32em">0.2</text></g><g class="tick" opacity="1" transform="translate(0,238.51652892561984)"><line stroke="#000" x2="6"></line><text fill="#000" x="9" dy="0.32em">0.3</text></g><g class="tick" opacity="1" transform="translate(0,208.76446280991738)"><line stroke="#000" x2="6"></line><text fill="#000" x="9" dy="0.32em">0.4</text></g><g class="tick" opacity="1" transform="translate(0,179.0123966942149)"><line stroke="#000" x2="6"></line><text fill="#000" x="9" dy="0.32em">0.5</text></g><g class="tick" opacity="1" transform="translate(0,149.26033057851242)"><line stroke="#000" x2="6"></line><text fill="#000" x="9" dy="0.32em">0.6</text></g><g class="tick" opacity="1" transform="translate(0,119.50826446280996)"><line stroke="#000" x2="6"></line><text fill="#000" x="9" dy="0.32em">0.7</text></g><g class="tick" opacity="1" transform="translate(0,89.75619834710744)"><line stroke="#000" x2="6"></line><text fill="#000" x="9" dy="0.32em">0.8</text></g><g class="tick" opacity="1" transform="translate(0,60.00413223140498)"><line stroke="#000" x2="6"></line><text fill="#000" x="9" dy="0.32em">0.9</text></g><g class="tick" opacity="1" transform="translate(0,30.25206611570252)"><line stroke="#000" x2="6"></line><text fill="#000" x="9" dy="0.32em">1</text></g><g class="tick" opacity="1" transform="translate(0,0.5)"><line stroke="#000" x2="6"></line><text fill="#000" x="9" dy="0.32em">1.1</text></g><text text-anchor="start" x="10" y="10" visibility="hidden" style="font-size: 12px; font-family: Arial; fill: #807dba;">No disease causing germline SNPs known!</text></g><circle cx="636" cy="15" r="10" class="compassNav" style="fill: #ffffff; stroke: #666666; stroke-width: 1px;"></circle><path d="M440.935 12.574l3.966 82.766C399.416 41.904 331.674 8 256 8 134.813 8 33.933 94.924 12.296 209.824 10.908 217.193 16.604 224 24.103 224h49.084c5.57 0 10.377-3.842 11.676-9.259C103.407 137.408 172.931 80 256 80c60.893 0 114.512 30.856 146.104 77.801l-101.53-4.865c-6.845-.328-12.574 5.133-12.574 11.986v47.411c0 6.627 5.373 12 12 12h200.333c6.627 0 12-5.373 12-12V12c0-6.627-5.373-12-12-12h-47.411c-6.853 0-12.315 5.729-11.987 12.574zM256 432c-60.895 0-114.517-30.858-146.109-77.805l101.868 4.871c6.845.327 12.573-5.134 12.573-11.986v-47.412c0-6.627-5.373-12-12-12H12c-6.627 0-12 5.373-12 12V500c0 6.627 5.373 12 12 12h47.385c6.863 0 12.328-5.745 11.985-12.599l-4.129-82.575C112.725 470.166 180.405 504 256 504c121.187 0 222.067-86.924 243.704-201.824 1.388-7.369-4.308-14.176-11.807-14.176h-49.084c-5.57 0-10.377 3.842-11.676 9.259C408.593 374.592 339.069 432 256 432z" class="compassNav" transform="translate(631, 10) scale(0.02)" style="fill: #666666; stroke: #666666; stroke-width: 1px;"></path><circle cx="658" cy="15" r="10" class="compassNav" style="fill: #ffffff; stroke: #666666; stroke-width: 1px;"></circle><line class="compassNav" stroke-width="2" stroke="#666666" x1="654" y1="15" x2="662" y2="15"></line><line class="compassNav" stroke-width="2" stroke="#666666" x1="658" y1="11" x2="658" y2="19"></line><circle cx="614" cy="15" r="10" class="compassNav" style="fill: #ffffff; stroke: #666666; stroke-width: 1px;"></circle><line class="compassNav" stroke-width="2" stroke="#666666" x1="610" y1="15" x2="618" y2="15"></line><path d="M582 14 l20 -12 a100,40 0 0,0 0,24z" class="compassNav" style="fill: #ffffff; stroke: #666666; stroke-width: 1px;"></path><path d="M690 14 l-20 -12 a100,40 0 0,1 0,24z" class="compassNav" style="fill: #ffffff; stroke: #666666; stroke-width: 1px;"></path><path d="M216 0h80c13.3 0 24 10.7 24 24v168h87.7c17.8 0 26.7 21.5 14.1 34.1L269.7 378.3c-7.5 7.5-19.8 7.5-27.3 0L90.1 226.1c-12.6-12.6-3.7-34.1 14.1-34.1H192V24c0-13.3 10.7-24 24-24zm296 376v112c0 13.3-10.7 24-24 24H24c-13.3 0-24-10.7-24-24V376c0-13.3 10.7-24 24-24h146.7l49 49c20.1 20.1 52.5 20.1 72.6 0l49-49H488c13.3 0 24 10.7 24 24zm-124 88c0-11-9-20-20-20s-20 9-20 20 9 20 20 20 20-9 20-20zm64 0c0-11-9-20-20-20s-20 9-20 20 9 20 20 20 20-9 20-20z" class="compassNav" transform="translate(552,0) scale(0.05)" style="fill: #336699; stroke: #336699; stroke-width: 1px; cursor: pointer;"></path></g></svg>