<svg width="800" height="400" style="background-color: white;"><g transform="translate(50,0)"><svg width="700" height="360"><g style="-webkit-tap-highlight-color: rgba(0, 0, 0, 0);"><rect width="700" height="360" style="fill: #ffffff;"></rect><g id="lines"><line class="line" stroke-width="1" stroke="#d7301f" x1="-280.55555555555554" y1="333" x2="-280.55555555555554" y2="360" visibility="hidden" style="stroke-dasharray: 3px, 3px;"></line></g><g><rect x="-285.55555555555554" y="355" width="10" height="10" visibility="hidden" style="fill: #ffffff; stroke: #d7301f;"></rect></g><g id="lines"><line class="line" stroke-width="1" stroke="#6a51a3" x1="588.8888888888889" y1="333" x2="588.8888888888889" y2="327.27272727272725" visibility="hidden" style="stroke-dasharray: 3px, 3px;"></line><line class="line" stroke-width="1" stroke="#6a51a3" x1="591.6666666666666" y1="333" x2="591.6666666666666" y2="327.27272727272725" visibility="hidden" style="stroke-dasharray: 3px, 3px;"></line></g><g><rect x="583.8888888888889" y="322.27272727272725" width="10" height="10" visibility="hidden" style="fill: #ffffff; stroke: #6a51a3;"></rect><rect x="586.6666666666666" y="322.27272727272725" width="10" height="10" visibility="hidden" style="fill: #ffffff; stroke: #6a51a3;"></rect></g><g id="lines"><line class="line" stroke-width="1" stroke="#666666" x1="125" y1="333" x2="125" y2="228.099173553719"></line><line class="line" stroke-width="1" stroke="#666666" x1="252.77777777777777" y1="333" x2="252.77777777777777" y2="29.752066115702462"></line><line class="line" stroke-width="1" stroke="#666666" x1="338.8888888888889" y1="333" x2="338.8888888888889" y2="228.099173553719"></line><line class="line" stroke-width="1" stroke="#666666" x1="338.8888888888889" y1="333" x2="338.8888888888889" y2="228.099173553719"></line><line class="line" stroke-width="1" stroke="#666666" x1="530.5555555555555" y1="333" x2="530.5555555555555" y2="228.099173553719"></line><line class="line" stroke-width="1" stroke="#666666" x1="566.6666666666666" y1="333" x2="566.6666666666666" y2="228.099173553719"></line></g><g id="circles"><circle r="4" cx="125" cy="228.099173553719" style="fill: #666666; stroke: #666666; stroke-width: 1px;"></circle><circle r="4" cx="252.77777777777777" cy="29.752066115702462" style="fill: #bf812d; stroke: #666666; stroke-width: 1px;"></circle><circle r="4" cx="338.8888888888889" cy="228.099173553719" style="fill: #bf812d; stroke: #666666; stroke-width: 1px;"></circle><circle r="4" cx="338.8888888888889" cy="228.099173553719" style="fill: #666666; stroke: #666666; stroke-width: 1px;"></circle><circle r="4" cx="530.5555555555555" cy="228.099173553719" style="fill: #666666; stroke: #666666; stroke-width: 1px;"></circle><circle r="4" cx="566.6666666666666" cy="228.099173553719" style="fill: #bf812d; stroke: #666666; stroke-width: 1px;"></circle></g><g><rect x="0" y="333" width="700" height="12" style="fill: #ffffff; stroke-width: 1px; stroke: #666666;"></rect><rect x="69.44444444444444" y="333" width="616.6666666666666" height="12" style="fill: #aec7e8; stroke-width: 1px; stroke: #666666;"></rect></g><g><a target="_blank" xlink:href="http://pfam.xfam.org/family/"><text y="343" x="350" text-anchor="middle" style="color: rgb(102, 102, 102); font-weight: normal; font-size: 12px; font-family: Arial; cursor: pointer;"></text></a><a target="_blank" xlink:href="http://pfam.xfam.org/family/Trypsin"><text y="343" x="377.77777777777777" text-anchor="middle" style="color: rgb(102, 102, 102); font-weight: normal; font-size: 12px; font-family: Arial; cursor: pointer;">Trypsin</text></a></g><g><text y="358" x="0" text-anchor="middle" visibility="hidden" style="font-size: 13px;">M</text><text y="358" x="2.7777777777777777" text-anchor="middle" visibility="hidden" style="font-size: 13px;">H</text><text y="358" x="5.555555555555555" text-anchor="middle" visibility="hidden" style="font-size: 13px;">S</text><text y="358" x="8.333333333333332" text-anchor="middle" visibility="hidden" style="font-size: 13px;">W</text><text y="358" x="11.11111111111111" text-anchor="middle" visibility="hidden" style="font-size: 13px;">E</text><text y="358" x="13.888888888888888" text-anchor="middle" visibility="hidden" style="font-size: 13px;">R</text><text y="358" x="16.666666666666664" text-anchor="middle" visibility="hidden" style="font-size: 13px;">L</text><text y="358" x="19.444444444444443" text-anchor="middle" visibility="hidden" style="font-size: 13px;">A</text><text y="358" x="22.22222222222222" text-anchor="middle" visibility="hidden" style="font-size: 13px;">V</text><text y="358" x="25" text-anchor="middle" visibility="hidden" style="font-size: 13px;">L</text><text y="358" x="27.777777777777775" text-anchor="middle" visibility="hidden" style="font-size: 13px;">V</text><text y="358" x="30.555555555555554" text-anchor="middle" visibility="hidden" style="font-size: 13px;">L</text><text y="358" x="33.33333333333333" text-anchor="middle" visibility="hidden" style="font-size: 13px;">L</text><text y="358" x="36.11111111111111" text-anchor="middle" visibility="hidden" style="font-size: 13px;">G</text><text y="358" x="38.888888888888886" text-anchor="middle" visibility="hidden" style="font-size: 13px;">A</text><text y="358" x="41.666666666666664" text-anchor="middle" visibility="hidden" style="font-size: 13px;">A</text><text y="358" x="44.44444444444444" text-anchor="middle" visibility="hidden" style="font-size: 13px;">A</text><text y="358" x="47.22222222222222" text-anchor="middle" visibility="hidden" style="font-size: 13px;">C</text><text y="358" x="50" text-anchor="middle" visibility="hidden" style="font-size: 13px;">A</text><text y="358" x="52.77777777777777" text-anchor="middle" visibility="hidden" style="font-size: 13px;">A</text><text y="358" x="55.55555555555555" text-anchor="middle" visibility="hidden" style="font-size: 13px;">P</text><text y="358" x="58.33333333333333" text-anchor="middle" visibility="hidden" style="font-size: 13px;">P</text><text y="358" x="61.11111111111111" text-anchor="middle" visibility="hidden" style="font-size: 13px;">R</text><text y="358" x="63.888888888888886" text-anchor="middle" visibility="hidden" style="font-size: 13px;">G</text><text y="358" x="66.66666666666666" text-anchor="middle" visibility="hidden" style="font-size: 13px;">R</text><text y="358" x="69.44444444444444" text-anchor="middle" visibility="hidden" style="font-size: 13px;">I</text><text y="358" x="72.22222222222221" text-anchor="middle" visibility="hidden" style="font-size: 13px;">L</text><text y="358" x="75" text-anchor="middle" visibility="hidden" style="font-size: 13px;">G</text><text y="358" x="77.77777777777777" text-anchor="middle" visibility="hidden" style="font-size: 13px;">G</text><text y="358" x="80.55555555555556" text-anchor="middle" visibility="hidden" style="font-size: 13px;">R</text><text y="358" x="83.33333333333333" text-anchor="middle" visibility="hidden" style="font-size: 13px;">E</text><text y="358" x="86.1111111111111" text-anchor="middle" visibility="hidden" style="font-size: 13px;">A</text><text y="358" x="88.88888888888889" text-anchor="middle" visibility="hidden" style="font-size: 13px;">E</text><text y="358" x="91.66666666666667" text-anchor="middle" visibility="hidden" style="font-size: 13px;">A</text><text y="358" x="94.44444444444444" text-anchor="middle" visibility="hidden" style="font-size: 13px;">H</text><text y="358" x="97.22222222222223" text-anchor="middle" visibility="hidden" style="font-size: 13px;">A</text><text y="358" x="100" text-anchor="middle" visibility="hidden" style="font-size: 13px;">R</text><text y="358" x="102.77777777777779" text-anchor="middle" visibility="hidden" style="font-size: 13px;">P</text><text y="358" x="105.55555555555554" text-anchor="middle" visibility="hidden" style="font-size: 13px;">Y</text><text y="358" x="108.33333333333334" text-anchor="middle" visibility="hidden" style="font-size: 13px;">M</text><text y="358" x="111.1111111111111" text-anchor="middle" visibility="hidden" style="font-size: 13px;">A</text><text y="358" x="113.88888888888889" text-anchor="middle" visibility="hidden" style="font-size: 13px;">S</text><text y="358" x="116.66666666666666" text-anchor="middle" visibility="hidden" style="font-size: 13px;">V</text><text y="358" x="119.44444444444444" text-anchor="middle" visibility="hidden" style="font-size: 13px;">Q</text><text y="358" x="122.22222222222221" text-anchor="middle" visibility="hidden" style="font-size: 13px;">L</text><text y="358" x="125" text-anchor="middle" visibility="hidden" style="font-size: 13px;">N</text><text y="358" x="127.77777777777777" text-anchor="middle" visibility="hidden" style="font-size: 13px;">G</text><text y="358" x="130.55555555555557" text-anchor="middle" visibility="hidden" style="font-size: 13px;">A</text><text y="358" x="133.33333333333331" text-anchor="middle" visibility="hidden" style="font-size: 13px;">H</text><text y="358" x="136.11111111111111" text-anchor="middle" visibility="hidden" style="font-size: 13px;">L</text><text y="358" x="138.88888888888889" text-anchor="middle" visibility="hidden" style="font-size: 13px;">C</text><text y="358" x="141.66666666666666" text-anchor="middle" visibility="hidden" style="font-size: 13px;">G</text><text y="358" x="144.44444444444443" text-anchor="middle" visibility="hidden" style="font-size: 13px;">G</text><text y="358" x="147.22222222222223" text-anchor="middle" visibility="hidden" style="font-size: 13px;">V</text><text y="358" x="150" text-anchor="middle" visibility="hidden" style="font-size: 13px;">L</text><text y="358" x="152.77777777777777" text-anchor="middle" visibility="hidden" style="font-size: 13px;">V</text><text y="358" x="155.55555555555554" text-anchor="middle" visibility="hidden" style="font-size: 13px;">A</text><text y="358" x="158.33333333333334" text-anchor="middle" visibility="hidden" style="font-size: 13px;">E</text><text y="358" x="161.11111111111111" text-anchor="middle" visibility="hidden" style="font-size: 13px;">Q</text><text y="358" x="163.88888888888889" text-anchor="middle" visibility="hidden" style="font-size: 13px;">W</text><text y="358" x="166.66666666666666" text-anchor="middle" visibility="hidden" style="font-size: 13px;">V</text><text y="358" x="169.44444444444446" text-anchor="middle" visibility="hidden" style="font-size: 13px;">L</text><text y="358" x="172.2222222222222" text-anchor="middle" visibility="hidden" style="font-size: 13px;">S</text><text y="358" x="175" text-anchor="middle" visibility="hidden" style="font-size: 13px;">A</text><text y="358" x="177.77777777777777" text-anchor="middle" visibility="hidden" style="font-size: 13px;">A</text><text y="358" x="180.55555555555557" text-anchor="middle" visibility="hidden" style="font-size: 13px;">H</text><text y="358" x="183.33333333333334" text-anchor="middle" visibility="hidden" style="font-size: 13px;">C</text><text y="358" x="186.11111111111111" text-anchor="middle" visibility="hidden" style="font-size: 13px;">L</text><text y="358" x="188.88888888888889" text-anchor="middle" visibility="hidden" style="font-size: 13px;">E</text><text y="358" x="191.66666666666669" text-anchor="middle" visibility="hidden" style="font-size: 13px;">D</text><text y="358" x="194.44444444444446" text-anchor="middle" visibility="hidden" style="font-size: 13px;">A</text><text y="358" x="197.22222222222223" text-anchor="middle" visibility="hidden" style="font-size: 13px;">A</text><text y="358" x="200" text-anchor="middle" visibility="hidden" style="font-size: 13px;">D</text><text y="358" x="202.7777777777778" text-anchor="middle" visibility="hidden" style="font-size: 13px;">G</text><text y="358" x="205.55555555555557" text-anchor="middle" visibility="hidden" style="font-size: 13px;">K</text><text y="358" x="208.33333333333334" text-anchor="middle" visibility="hidden" style="font-size: 13px;">V</text><text y="358" x="211.1111111111111" text-anchor="middle" visibility="hidden" style="font-size: 13px;">Q</text><text y="358" x="213.8888888888889" text-anchor="middle" visibility="hidden" style="font-size: 13px;">V</text><text y="358" x="216.66666666666669" text-anchor="middle" visibility="hidden" style="font-size: 13px;">L</text><text y="358" x="219.44444444444443" text-anchor="middle" visibility="hidden" style="font-size: 13px;">L</text><text y="358" x="222.2222222222222" text-anchor="middle" visibility="hidden" style="font-size: 13px;">G</text><text y="358" x="225.00000000000003" text-anchor="middle" visibility="hidden" style="font-size: 13px;">A</text><text y="358" x="227.77777777777777" text-anchor="middle" visibility="hidden" style="font-size: 13px;">H</text><text y="358" x="230.55555555555554" text-anchor="middle" visibility="hidden" style="font-size: 13px;">S</text><text y="358" x="233.33333333333331" text-anchor="middle" visibility="hidden" style="font-size: 13px;">L</text><text y="358" x="236.11111111111111" text-anchor="middle" visibility="hidden" style="font-size: 13px;">S</text><text y="358" x="238.88888888888889" text-anchor="middle" visibility="hidden" style="font-size: 13px;">Q</text><text y="358" x="241.66666666666666" text-anchor="middle" visibility="hidden" style="font-size: 13px;">P</text><text y="358" x="244.44444444444443" text-anchor="middle" visibility="hidden" style="font-size: 13px;">E</text><text y="358" x="247.22222222222223" text-anchor="middle" visibility="hidden" style="font-size: 13px;">P</text><text y="358" x="250" text-anchor="middle" visibility="hidden" style="font-size: 13px;">S</text><text y="358" x="252.77777777777777" text-anchor="middle" visibility="hidden" style="font-size: 13px;">K</text><text y="358" x="255.55555555555554" text-anchor="middle" visibility="hidden" style="font-size: 13px;">R</text><text y="358" x="258.33333333333337" text-anchor="middle" visibility="hidden" style="font-size: 13px;">L</text><text y="358" x="261.11111111111114" text-anchor="middle" visibility="hidden" style="font-size: 13px;">Y</text><text y="358" x="263.88888888888886" text-anchor="middle" visibility="hidden" style="font-size: 13px;">D</text><text y="358" x="266.66666666666663" text-anchor="middle" visibility="hidden" style="font-size: 13px;">V</text><text y="358" x="269.44444444444446" text-anchor="middle" visibility="hidden" style="font-size: 13px;">L</text><text y="358" x="272.22222222222223" text-anchor="middle" visibility="hidden" style="font-size: 13px;">R</text><text y="358" x="275" text-anchor="middle" visibility="hidden" style="font-size: 13px;">A</text><text y="358" x="277.77777777777777" text-anchor="middle" visibility="hidden" style="font-size: 13px;">V</text><text y="358" x="280.55555555555554" text-anchor="middle" visibility="hidden" style="font-size: 13px;">P</text><text y="358" x="283.3333333333333" text-anchor="middle" visibility="hidden" style="font-size: 13px;">H</text><text y="358" x="286.1111111111111" text-anchor="middle" visibility="hidden" style="font-size: 13px;">P</text><text y="358" x="288.88888888888886" text-anchor="middle" visibility="hidden" style="font-size: 13px;">D</text><text y="358" x="291.6666666666667" text-anchor="middle" visibility="hidden" style="font-size: 13px;">S</text><text y="358" x="294.44444444444446" text-anchor="middle" visibility="hidden" style="font-size: 13px;">Q</text><text y="358" x="297.22222222222223" text-anchor="middle" visibility="hidden" style="font-size: 13px;">P</text><text y="358" x="300" text-anchor="middle" visibility="hidden" style="font-size: 13px;">D</text><text y="358" x="302.77777777777777" text-anchor="middle" visibility="hidden" style="font-size: 13px;">T</text><text y="358" x="305.55555555555554" text-anchor="middle" visibility="hidden" style="font-size: 13px;">I</text><text y="358" x="308.3333333333333" text-anchor="middle" visibility="hidden" style="font-size: 13px;">D</text><text y="358" x="311.1111111111111" text-anchor="middle" visibility="hidden" style="font-size: 13px;">H</text><text y="358" x="313.8888888888889" text-anchor="middle" visibility="hidden" style="font-size: 13px;">D</text><text y="358" x="316.6666666666667" text-anchor="middle" visibility="hidden" style="font-size: 13px;">L</text><text y="358" x="319.44444444444446" text-anchor="middle" visibility="hidden" style="font-size: 13px;">L</text><text y="358" x="322.22222222222223" text-anchor="middle" visibility="hidden" style="font-size: 13px;">L</text><text y="358" x="325" text-anchor="middle" visibility="hidden" style="font-size: 13px;">L</text><text y="358" x="327.77777777777777" text-anchor="middle" visibility="hidden" style="font-size: 13px;">Q</text><text y="358" x="330.55555555555554" text-anchor="middle" visibility="hidden" style="font-size: 13px;">L</text><text y="358" x="333.3333333333333" text-anchor="middle" visibility="hidden" style="font-size: 13px;">S</text><text y="358" x="336.11111111111114" text-anchor="middle" visibility="hidden" style="font-size: 13px;">E</text><text y="358" x="338.8888888888889" text-anchor="middle" visibility="hidden" style="font-size: 13px;">K</text><text y="358" x="341.6666666666667" text-anchor="middle" visibility="hidden" style="font-size: 13px;">A</text><text y="358" x="344.4444444444444" text-anchor="middle" visibility="hidden" style="font-size: 13px;">T</text><text y="358" x="347.22222222222223" text-anchor="middle" visibility="hidden" style="font-size: 13px;">L</text><text y="358" x="350" text-anchor="middle" visibility="hidden" style="font-size: 13px;">G</text><text y="358" x="352.77777777777777" text-anchor="middle" visibility="hidden" style="font-size: 13px;">P</text><text y="358" x="355.55555555555554" text-anchor="middle" visibility="hidden" style="font-size: 13px;">A</text><text y="358" x="358.3333333333333" text-anchor="middle" visibility="hidden" style="font-size: 13px;">V</text><text y="358" x="361.11111111111114" text-anchor="middle" visibility="hidden" style="font-size: 13px;">R</text><text y="358" x="363.8888888888889" text-anchor="middle" visibility="hidden" style="font-size: 13px;">P</text><text y="358" x="366.6666666666667" text-anchor="middle" visibility="hidden" style="font-size: 13px;">L</text><text y="358" x="369.44444444444446" text-anchor="middle" visibility="hidden" style="font-size: 13px;">P</text><text y="358" x="372.22222222222223" text-anchor="middle" visibility="hidden" style="font-size: 13px;">W</text><text y="358" x="375" text-anchor="middle" visibility="hidden" style="font-size: 13px;">Q</text><text y="358" x="377.77777777777777" text-anchor="middle" visibility="hidden" style="font-size: 13px;">R</text><text y="358" x="380.55555555555554" text-anchor="middle" visibility="hidden" style="font-size: 13px;">V</text><text y="358" x="383.33333333333337" text-anchor="middle" visibility="hidden" style="font-size: 13px;">D</text><text y="358" x="386.11111111111114" text-anchor="middle" visibility="hidden" style="font-size: 13px;">R</text><text y="358" x="388.8888888888889" text-anchor="middle" visibility="hidden" style="font-size: 13px;">D</text><text y="358" x="391.6666666666667" text-anchor="middle" visibility="hidden" style="font-size: 13px;">V</text><text y="358" x="394.44444444444446" text-anchor="middle" visibility="hidden" style="font-size: 13px;">A</text><text y="358" x="397.22222222222223" text-anchor="middle" visibility="hidden" style="font-size: 13px;">P</text><text y="358" x="400" text-anchor="middle" visibility="hidden" style="font-size: 13px;">G</text><text y="358" x="402.77777777777777" text-anchor="middle" visibility="hidden" style="font-size: 13px;">T</text><text y="358" x="405.5555555555556" text-anchor="middle" visibility="hidden" style="font-size: 13px;">L</text><text y="358" x="408.33333333333337" text-anchor="middle" visibility="hidden" style="font-size: 13px;">C</text><text y="358" x="411.11111111111114" text-anchor="middle" visibility="hidden" style="font-size: 13px;">D</text><text y="358" x="413.8888888888889" text-anchor="middle" visibility="hidden" style="font-size: 13px;">V</text><text y="358" x="416.6666666666667" text-anchor="middle" visibility="hidden" style="font-size: 13px;">A</text><text y="358" x="419.44444444444446" text-anchor="middle" visibility="hidden" style="font-size: 13px;">G</text><text y="358" x="422.2222222222222" text-anchor="middle" visibility="hidden" style="font-size: 13px;">W</text><text y="358" x="424.99999999999994" text-anchor="middle" visibility="hidden" style="font-size: 13px;">G</text><text y="358" x="427.7777777777778" text-anchor="middle" visibility="hidden" style="font-size: 13px;">I</text><text y="358" x="430.5555555555556" text-anchor="middle" visibility="hidden" style="font-size: 13px;">V</text><text y="358" x="433.33333333333337" text-anchor="middle" visibility="hidden" style="font-size: 13px;">N</text><text y="358" x="436.11111111111114" text-anchor="middle" visibility="hidden" style="font-size: 13px;">H</text><text y="358" x="438.88888888888886" text-anchor="middle" visibility="hidden" style="font-size: 13px;">A</text><text y="358" x="441.66666666666663" text-anchor="middle" visibility="hidden" style="font-size: 13px;">G</text><text y="358" x="444.4444444444444" text-anchor="middle" visibility="hidden" style="font-size: 13px;">R</text><text y="358" x="447.2222222222222" text-anchor="middle" visibility="hidden" style="font-size: 13px;">R</text><text y="358" x="450.00000000000006" text-anchor="middle" visibility="hidden" style="font-size: 13px;">P</text><text y="358" x="452.7777777777778" text-anchor="middle" visibility="hidden" style="font-size: 13px;">D</text><text y="358" x="455.55555555555554" text-anchor="middle" visibility="hidden" style="font-size: 13px;">S</text><text y="358" x="458.3333333333333" text-anchor="middle" visibility="hidden" style="font-size: 13px;">L</text><text y="358" x="461.1111111111111" text-anchor="middle" visibility="hidden" style="font-size: 13px;">Q</text><text y="358" x="463.88888888888886" text-anchor="middle" visibility="hidden" style="font-size: 13px;">H</text><text y="358" x="466.66666666666663" text-anchor="middle" visibility="hidden" style="font-size: 13px;">V</text><text y="358" x="469.4444444444444" text-anchor="middle" visibility="hidden" style="font-size: 13px;">L</text><text y="358" x="472.22222222222223" text-anchor="middle" visibility="hidden" style="font-size: 13px;">L</text><text y="358" x="475" text-anchor="middle" visibility="hidden" style="font-size: 13px;">P</text><text y="358" x="477.77777777777777" text-anchor="middle" visibility="hidden" style="font-size: 13px;">V</text><text y="358" x="480.55555555555554" text-anchor="middle" visibility="hidden" style="font-size: 13px;">L</text><text y="358" x="483.3333333333333" text-anchor="middle" visibility="hidden" style="font-size: 13px;">D</text><text y="358" x="486.1111111111111" text-anchor="middle" visibility="hidden" style="font-size: 13px;">R</text><text y="358" x="488.88888888888886" text-anchor="middle" visibility="hidden" style="font-size: 13px;">A</text><text y="358" x="491.66666666666663" text-anchor="middle" visibility="hidden" style="font-size: 13px;">T</text><text y="358" x="494.44444444444446" text-anchor="middle" visibility="hidden" style="font-size: 13px;">C</text><text y="358" x="497.22222222222223" text-anchor="middle" visibility="hidden" style="font-size: 13px;">N</text><text y="358" x="500" text-anchor="middle" visibility="hidden" style="font-size: 13px;">R</text><text y="358" x="502.77777777777777" text-anchor="middle" visibility="hidden" style="font-size: 13px;">R</text><text y="358" x="505.55555555555554" text-anchor="middle" visibility="hidden" style="font-size: 13px;">T</text><text y="358" x="508.3333333333333" text-anchor="middle" visibility="hidden" style="font-size: 13px;">H</text><text y="358" x="511.1111111111111" text-anchor="middle" visibility="hidden" style="font-size: 13px;">H</text><text y="358" x="513.8888888888888" text-anchor="middle" visibility="hidden" style="font-size: 13px;">D</text><text y="358" x="516.6666666666667" text-anchor="middle" visibility="hidden" style="font-size: 13px;">G</text><text y="358" x="519.4444444444445" text-anchor="middle" visibility="hidden" style="font-size: 13px;">A</text><text y="358" x="522.2222222222223" text-anchor="middle" visibility="hidden" style="font-size: 13px;">I</text><text y="358" x="525" text-anchor="middle" visibility="hidden" style="font-size: 13px;">T</text><text y="358" x="527.7777777777777" text-anchor="middle" visibility="hidden" style="font-size: 13px;">E</text><text y="358" x="530.5555555555555" text-anchor="middle" visibility="hidden" style="font-size: 13px;">R</text><text y="358" x="533.3333333333333" text-anchor="middle" visibility="hidden" style="font-size: 13px;">L</text><text y="358" x="536.1111111111112" text-anchor="middle" visibility="hidden" style="font-size: 13px;">M</text><text y="358" x="538.8888888888889" text-anchor="middle" visibility="hidden" style="font-size: 13px;">C</text><text y="358" x="541.6666666666666" text-anchor="middle" visibility="hidden" style="font-size: 13px;">A</text><text y="358" x="544.4444444444445" text-anchor="middle" visibility="hidden" style="font-size: 13px;">E</text><text y="358" x="547.2222222222222" text-anchor="middle" visibility="hidden" style="font-size: 13px;">S</text><text y="358" x="550" text-anchor="middle" visibility="hidden" style="font-size: 13px;">N</text><text y="358" x="552.7777777777777" text-anchor="middle" visibility="hidden" style="font-size: 13px;">R</text><text y="358" x="555.5555555555555" text-anchor="middle" visibility="hidden" style="font-size: 13px;">R</text><text y="358" x="558.3333333333334" text-anchor="middle" visibility="hidden" style="font-size: 13px;">D</text><text y="358" x="561.1111111111111" text-anchor="middle" visibility="hidden" style="font-size: 13px;">S</text><text y="358" x="563.8888888888889" text-anchor="middle" visibility="hidden" style="font-size: 13px;">C</text><text y="358" x="566.6666666666666" text-anchor="middle" visibility="hidden" style="font-size: 13px;">K</text><text y="358" x="569.4444444444445" text-anchor="middle" visibility="hidden" style="font-size: 13px;">G</text><text y="358" x="572.2222222222222" text-anchor="middle" visibility="hidden" style="font-size: 13px;">D</text><text y="358" x="575" text-anchor="middle" visibility="hidden" style="font-size: 13px;">S</text><text y="358" x="577.7777777777777" text-anchor="middle" visibility="hidden" style="font-size: 13px;">G</text><text y="358" x="580.5555555555555" text-anchor="middle" visibility="hidden" style="font-size: 13px;">G</text><text y="358" x="583.3333333333334" text-anchor="middle" visibility="hidden" style="font-size: 13px;">P</text><text y="358" x="586.1111111111111" text-anchor="middle" visibility="hidden" style="font-size: 13px;">L</text><text y="358" x="588.8888888888889" text-anchor="middle" visibility="hidden" style="font-size: 13px;">V</text><text y="358" x="591.6666666666666" text-anchor="middle" visibility="hidden" style="font-size: 13px;">C</text><text y="358" x="594.4444444444445" text-anchor="middle" visibility="hidden" style="font-size: 13px;">G</text><text y="358" x="597.2222222222222" text-anchor="middle" visibility="hidden" style="font-size: 13px;">G</text><text y="358" x="600" text-anchor="middle" visibility="hidden" style="font-size: 13px;">V</text><text y="358" x="602.7777777777778" text-anchor="middle" visibility="hidden" style="font-size: 13px;">L</text><text y="358" x="605.5555555555555" text-anchor="middle" visibility="hidden" style="font-size: 13px;">E</text><text y="358" x="608.3333333333334" text-anchor="middle" visibility="hidden" style="font-size: 13px;">G</text><text y="358" x="611.1111111111111" text-anchor="middle" visibility="hidden" style="font-size: 13px;">V</text><text y="358" x="613.8888888888889" text-anchor="middle" visibility="hidden" style="font-size: 13px;">V</text><text y="358" x="616.6666666666666" text-anchor="middle" visibility="hidden" style="font-size: 13px;">T</text><text y="358" x="619.4444444444445" text-anchor="middle" visibility="hidden" style="font-size: 13px;">S</text><text y="358" x="622.2222222222222" text-anchor="middle" visibility="hidden" style="font-size: 13px;">G</text><text y="358" x="625" text-anchor="middle" visibility="hidden" style="font-size: 13px;">S</text><text y="358" x="627.7777777777778" text-anchor="middle" visibility="hidden" style="font-size: 13px;">R</text><text y="358" x="630.5555555555555" text-anchor="middle" visibility="hidden" style="font-size: 13px;">V</text><text y="358" x="633.3333333333334" text-anchor="middle" visibility="hidden" style="font-size: 13px;">C</text><text y="358" x="636.1111111111111" text-anchor="middle" visibility="hidden" style="font-size: 13px;">G</text><text y="358" x="638.8888888888889" text-anchor="middle" visibility="hidden" style="font-size: 13px;">N</text><text y="358" x="641.6666666666666" text-anchor="middle" visibility="hidden" style="font-size: 13px;">R</text><text y="358" x="644.4444444444445" text-anchor="middle" visibility="hidden" style="font-size: 13px;">K</text><text y="358" x="647.2222222222223" text-anchor="middle" visibility="hidden" style="font-size: 13px;">K</text><text y="358" x="650" text-anchor="middle" visibility="hidden" style="font-size: 13px;">P</text><text y="358" x="652.7777777777778" text-anchor="middle" visibility="hidden" style="font-size: 13px;">G</text><text y="358" x="655.5555555555555" text-anchor="middle" visibility="hidden" style="font-size: 13px;">I</text><text y="358" x="658.3333333333334" text-anchor="middle" visibility="hidden" style="font-size: 13px;">Y</text><text y="358" x="661.1111111111111" text-anchor="middle" visibility="hidden" style="font-size: 13px;">T</text><text y="358" x="663.8888888888889" text-anchor="middle" visibility="hidden" style="font-size: 13px;">R</text><text y="358" x="666.6666666666666" text-anchor="middle" visibility="hidden" style="font-size: 13px;">V</text><text y="358" x="669.4444444444445" text-anchor="middle" visibility="hidden" style="font-size: 13px;">A</text><text y="358" x="672.2222222222223" text-anchor="middle" visibility="hidden" style="font-size: 13px;">S</text><text y="358" x="675" text-anchor="middle" visibility="hidden" style="font-size: 13px;">Y</text><text y="358" x="677.7777777777778" text-anchor="middle" visibility="hidden" style="font-size: 13px;">A</text><text y="358" x="680.5555555555555" text-anchor="middle" visibility="hidden" style="font-size: 13px;">A</text><text y="358" x="683.3333333333334" text-anchor="middle" visibility="hidden" style="font-size: 13px;">W</text><text y="358" x="686.1111111111111" text-anchor="middle" visibility="hidden" style="font-size: 13px;">I</text><text y="358" x="688.8888888888888" text-anchor="middle" visibility="hidden" style="font-size: 13px;">D</text><text y="358" x="691.6666666666667" text-anchor="middle" visibility="hidden" style="font-size: 13px;">S</text><text y="358" x="694.4444444444445" text-anchor="middle" visibility="hidden" style="font-size: 13px;">V</text><text y="358" x="697.2222222222223" text-anchor="middle" visibility="hidden" style="font-size: 13px;">L</text><text y="358" x="700" text-anchor="middle" visibility="hidden" style="font-size: 13px;">A</text></g></g></svg><g class="xAxis" transform="translate(0,360)" fill="none" font-size="10" font-family="sans-serif" text-anchor="middle"><path class="domain" stroke="#000" d="M0.5,6V0.5H700.5V6"></path><g class="tick" opacity="1" transform="translate(53.27777777777777,0)"><line stroke="#000" y2="6"></line><text fill="#000" y="9" dy="0.71em">20</text></g><g class="tick" opacity="1" transform="translate(108.83333333333334,0)"><line stroke="#000" y2="6"></line><text fill="#000" y="9" dy="0.71em">40</text></g><g class="tick" opacity="1" transform="translate(164.38888888888889,0)"><line stroke="#000" y2="6"></line><text fill="#000" y="9" dy="0.71em">60</text></g><g class="tick" opacity="1" transform="translate(219.94444444444443,0)"><line stroke="#000" y2="6"></line><text fill="#000" y="9" dy="0.71em">80</text></g><g class="tick" opacity="1" transform="translate(275.5,0)"><line stroke="#000" y2="6"></line><text fill="#000" y="9" dy="0.71em">100</text></g><g class="tick" opacity="1" transform="translate(331.05555555555554,0)"><line stroke="#000" y2="6"></line><text fill="#000" y="9" dy="0.71em">120</text></g><g class="tick" opacity="1" transform="translate(386.61111111111114,0)"><line stroke="#000" y2="6"></line><text fill="#000" y="9" dy="0.71em">140</text></g><g class="tick" opacity="1" transform="translate(442.16666666666663,0)"><line stroke="#000" y2="6"></line><text fill="#000" y="9" dy="0.71em">160</text></g><g class="tick" opacity="1" transform="translate(497.72222222222223,0)"><line stroke="#000" y2="6"></line><text fill="#000" y="9" dy="0.71em">180</text></g><g class="tick" opacity="1" transform="translate(553.2777777777777,0)"><line stroke="#000" y2="6"></line><text fill="#000" y="9" dy="0.71em">200</text></g><g class="tick" opacity="1" transform="translate(608.8333333333334,0)"><line stroke="#000" y2="6"></line><text fill="#000" y="9" dy="0.71em">220</text></g><g class="tick" opacity="1" transform="translate(664.3888888888889,0)"><line stroke="#000" y2="6"></line><text fill="#000" y="9" dy="0.71em">240</text></g></g><text class="x label" text-anchor="end" x="700" y="390" style="font-size: 13px; font-family: Arial;">Residue number</text><g class="yAxis" fill="none" font-size="10" font-family="sans-serif" text-anchor="end"><path class="domain" stroke="#000" d="M-6,360.5H0.5V0.5H-6"></path><g class="tick" opacity="1" transform="translate(0,327.77272727272725)"><line stroke="#000" x2="-6"></line><text fill="#000" x="-9" dy="0.32em">0</text></g><g class="tick" opacity="1" transform="translate(0,278.18595041322317)"><line stroke="#000" x2="-6"></line><text fill="#000" x="-9" dy="0.32em">0.5</text></g><g class="tick" opacity="1" transform="translate(0,228.599173553719)"><line stroke="#000" x2="-6"></line><text fill="#000" x="-9" dy="0.32em">1</text></g><g class="tick" opacity="1" transform="translate(0,179.01239669421489)"><line stroke="#000" x2="-6"></line><text fill="#000" x="-9" dy="0.32em">1.5</text></g><g class="tick" opacity="1" transform="translate(0,129.42561983471072)"><line stroke="#000" x2="-6"></line><text fill="#000" x="-9" dy="0.32em">2</text></g><g class="tick" opacity="1" transform="translate(0,79.8388429752066)"><line stroke="#000" x2="-6"></line><text fill="#000" x="-9" dy="0.32em">2.5</text></g><g class="tick" opacity="1" transform="translate(0,30.252066115702462)"><line stroke="#000" x2="-6"></line><text fill="#000" x="-9" dy="0.32em">3</text></g></g><text class="y label" text-anchor="middle" y="-50" x="-180" dy="0.8em" transform="rotate(-90)" style="font-size: 13px; font-family: Arial;">Total number of references</text><g class="axisRed" fill="none" font-size="10" font-family="sans-serif" text-anchor="start" visibility="hidden" transform="translate(700, 0)"><path class="domain" stroke="#000" d="M6,360.5H0.5V0.5H6"></path><g class="tick" opacity="1" transform="translate(0,360.5)"><line stroke="#000" x2="6"></line><text fill="#000" x="9" dy="0.32em">0</text></g><text text-anchor="start" dx="5.2em" dy="-2.6em" transform="rotate(90)" visibility="hidden" style="font-size: 12px; font-family: Arial; fill: #d7301f;">No recurrent (&gt;2) missense mutations!</text></g><g class="axisPurple" fill="none" font-size="10" font-family="sans-serif" text-anchor="start" visibility="hidden"><path class="domain" stroke="#000" d="M6,360.5H0.5V0.5H6"></path><g class="tick" opacity="1" transform="translate(0,357.52479338842977)"><line stroke="#000" x2="6"></line><text fill="#000" x="9" dy="0.32em"></text></g><g class="tick" opacity="1" transform="translate(0,327.77272727272725)"><line stroke="#000" x2="6"></line><text fill="#000" x="9" dy="0.32em">0</text></g><g class="tick" opacity="1" transform="translate(0,298.0206611570248)"><line stroke="#000" x2="6"></line><text fill="#000" x="9" dy="0.32em">0.1</text></g><g class="tick" opacity="1" transform="translate(0,268.2685950413223)"><line stroke="#000" x2="6"></line><text fill="#000" x="9" dy="0.32em">0.2</text></g><g class="tick" opacity="1" transform="translate(0,238.51652892561984)"><line stroke="#000" x2="6"></line><text fill="#000" x="9" dy="0.32em">0.3</text></g><g class="tick" opacity="1" transform="translate(0,208.76446280991738)"><line stroke="#000" x2="6"></line><text fill="#000" x="9" dy="0.32em">0.4</text></g><g class="tick" opacity="1" transform="translate(0,179.0123966942149)"><line stroke="#000" x2="6"></line><text fill="#000" x="9" dy="0.32em">0.5</text></g><g class="tick" opacity="1" transform="translate(0,149.26033057851242)"><line stroke="#000" x2="6"></line><text fill="#000" x="9" dy="0.32em">0.6</text></g><g class="tick" opacity="1" transform="translate(0,119.50826446280996)"><line stroke="#000" x2="6"></line><text fill="#000" x="9" dy="0.32em">0.7</text></g><g class="tick" opacity="1" transform="translate(0,89.75619834710744)"><line stroke="#000" x2="6"></line><text fill="#000" x="9" dy="0.32em">0.8</text></g><g class="tick" opacity="1" transform="translate(0,60.00413223140498)"><line stroke="#000" x2="6"></line><text fill="#000" x="9" dy="0.32em">0.9</text></g><g class="tick" opacity="1" transform="translate(0,30.25206611570252)"><line stroke="#000" x2="6"></line><text fill="#000" x="9" dy="0.32em">1</text></g><g class="tick" opacity="1" transform="translate(0,0.5)"><line stroke="#000" x2="6"></line><text fill="#000" x="9" dy="0.32em">1.1</text></g><text text-anchor="start" x="10" y="10" visibility="hidden" style="font-size: 12px; font-family: Arial; fill: #807dba;">Minor Allele Frequency (MAF) %</text></g><circle cx="636" cy="15" r="10" class="compassNav" style="fill: #ffffff; stroke: #666666; stroke-width: 1px;"></circle><path d="M440.935 12.574l3.966 82.766C399.416 41.904 331.674 8 256 8 134.813 8 33.933 94.924 12.296 209.824 10.908 217.193 16.604 224 24.103 224h49.084c5.57 0 10.377-3.842 11.676-9.259C103.407 137.408 172.931 80 256 80c60.893 0 114.512 30.856 146.104 77.801l-101.53-4.865c-6.845-.328-12.574 5.133-12.574 11.986v47.411c0 6.627 5.373 12 12 12h200.333c6.627 0 12-5.373 12-12V12c0-6.627-5.373-12-12-12h-47.411c-6.853 0-12.315 5.729-11.987 12.574zM256 432c-60.895 0-114.517-30.858-146.109-77.805l101.868 4.871c6.845.327 12.573-5.134 12.573-11.986v-47.412c0-6.627-5.373-12-12-12H12c-6.627 0-12 5.373-12 12V500c0 6.627 5.373 12 12 12h47.385c6.863 0 12.328-5.745 11.985-12.599l-4.129-82.575C112.725 470.166 180.405 504 256 504c121.187 0 222.067-86.924 243.704-201.824 1.388-7.369-4.308-14.176-11.807-14.176h-49.084c-5.57 0-10.377 3.842-11.676 9.259C408.593 374.592 339.069 432 256 432z" class="compassNav" transform="translate(631, 10) scale(0.02)" style="fill: #666666; stroke: #666666; stroke-width: 1px;"></path><circle cx="658" cy="15" r="10" class="compassNav" style="fill: #ffffff; stroke: #666666; stroke-width: 1px;"></circle><line class="compassNav" stroke-width="2" stroke="#666666" x1="654" y1="15" x2="662" y2="15"></line><line class="compassNav" stroke-width="2" stroke="#666666" x1="658" y1="11" x2="658" y2="19"></line><circle cx="614" cy="15" r="10" class="compassNav" style="fill: #ffffff; stroke: #666666; stroke-width: 1px;"></circle><line class="compassNav" stroke-width="2" stroke="#666666" x1="610" y1="15" x2="618" y2="15"></line><path d="M582 14 l20 -12 a100,40 0 0,0 0,24z" class="compassNav" style="fill: #ffffff; stroke: #666666; stroke-width: 1px;"></path><path d="M690 14 l-20 -12 a100,40 0 0,1 0,24z" class="compassNav" style="fill: #ffffff; stroke: #666666; stroke-width: 1px;"></path><path d="M216 0h80c13.3 0 24 10.7 24 24v168h87.7c17.8 0 26.7 21.5 14.1 34.1L269.7 378.3c-7.5 7.5-19.8 7.5-27.3 0L90.1 226.1c-12.6-12.6-3.7-34.1 14.1-34.1H192V24c0-13.3 10.7-24 24-24zm296 376v112c0 13.3-10.7 24-24 24H24c-13.3 0-24-10.7-24-24V376c0-13.3 10.7-24 24-24h146.7l49 49c20.1 20.1 52.5 20.1 72.6 0l49-49H488c13.3 0 24 10.7 24 24zm-124 88c0-11-9-20-20-20s-20 9-20 20 9 20 20 20 20-9 20-20zm64 0c0-11-9-20-20-20s-20 9-20 20 9 20 20 20 20-9 20-20z" class="compassNav" transform="translate(552,0) scale(0.05)" style="fill: #336699; stroke: #336699; stroke-width: 1px; cursor: pointer;"></path></g></svg>