<svg width="800" height="400" style="background-color: white;"><g transform="translate(50,0)"><svg width="700" height="360"><g style="-webkit-tap-highlight-color: rgba(0, 0, 0, 0);"><rect width="700" height="360" style="fill: #ffffff;"></rect><g id="lines"><line class="line" stroke-width="1" stroke="#d7301f" x1="-487.5862068965517" y1="333" x2="-487.5862068965517" y2="360" visibility="hidden" style="stroke-dasharray: 3px, 3px;"></line></g><g><rect x="-492.5862068965517" y="355" width="10" height="10" visibility="hidden" style="fill: #ffffff; stroke: #d7301f;"></rect></g><g id="lines"><line class="line" stroke-width="1" stroke="#6a51a3" x1="115.86206896551724" y1="333" x2="115.86206896551724" y2="29.752066115702462" visibility="hidden" style="stroke-dasharray: 3px, 3px;"></line><line class="line" stroke-width="1" stroke="#6a51a3" x1="448.9655172413793" y1="333" x2="448.9655172413793" y2="327.27272727272725" visibility="hidden" style="stroke-dasharray: 3px, 3px;"></line></g><g><rect x="110.86206896551724" y="24.752066115702462" width="10" height="10" visibility="hidden" style="fill: #ffffff; stroke: #6a51a3;"></rect><rect x="443.9655172413793" y="322.27272727272725" width="10" height="10" visibility="hidden" style="fill: #ffffff; stroke: #6a51a3;"></rect></g><g id="lines"><line class="line" stroke-width="1" stroke="#666666" x1="202.7586206896552" y1="333" x2="202.7586206896552" y2="29.752066115702462"></line><line class="line" stroke-width="1" stroke="#666666" x1="294.48275862068965" y1="333" x2="294.48275862068965" y2="228.099173553719"></line><line class="line" stroke-width="1" stroke="#666666" x1="502.0689655172414" y1="333" x2="502.0689655172414" y2="228.099173553719"></line><line class="line" stroke-width="1" stroke="#666666" x1="613.1034482758621" y1="333" x2="613.1034482758621" y2="228.099173553719"></line></g><g id="circles"><circle r="4" cx="202.7586206896552" cy="29.752066115702462" style="fill: #4393c3; stroke: #666666; stroke-width: 1px;"></circle><circle r="4" cx="294.48275862068965" cy="228.099173553719" style="fill: #bf812d; stroke: #666666; stroke-width: 1px;"></circle><circle r="4" cx="502.0689655172414" cy="228.099173553719" style="fill: #666666; stroke: #666666; stroke-width: 1px;"></circle><circle r="4" cx="613.1034482758621" cy="228.099173553719" style="fill: #4393c3; stroke: #666666; stroke-width: 1px;"></circle></g><g><rect x="0" y="333" width="700" height="12" style="fill: #ffffff; stroke-width: 1px; stroke: #666666;"></rect><rect x="173.79310344827587" y="333" width="458.6206896551724" height="12" style="fill: #aec7e8; stroke-width: 1px; stroke: #666666;"></rect></g><g><a target="_blank" xlink:href="http://pfam.xfam.org/family/"><text y="343" x="350" text-anchor="middle" style="color: rgb(102, 102, 102); font-weight: normal; font-size: 12px; font-family: Arial; cursor: pointer;"></text></a><a target="_blank" xlink:href="http://pfam.xfam.org/family/Cystatin"><text y="343" x="403.1034482758621" text-anchor="middle" style="color: rgb(102, 102, 102); font-weight: normal; font-size: 12px; font-family: Arial; cursor: pointer;">Cystatin</text></a></g><g><text y="358" x="0" text-anchor="middle" visibility="hidden" style="font-size: 13px;">M</text><text y="358" x="4.827586206896552" text-anchor="middle" visibility="hidden" style="font-size: 13px;">A</text><text y="358" x="9.655172413793103" text-anchor="middle" visibility="hidden" style="font-size: 13px;">G</text><text y="358" x="14.482758620689655" text-anchor="middle" visibility="hidden" style="font-size: 13px;">P</text><text y="358" x="19.310344827586206" text-anchor="middle" visibility="hidden" style="font-size: 13px;">L</text><text y="358" x="24.137931034482758" text-anchor="middle" visibility="hidden" style="font-size: 13px;">R</text><text y="358" x="28.96551724137931" text-anchor="middle" visibility="hidden" style="font-size: 13px;">A</text><text y="358" x="33.793103448275865" text-anchor="middle" visibility="hidden" style="font-size: 13px;">P</text><text y="358" x="38.62068965517241" text-anchor="middle" visibility="hidden" style="font-size: 13px;">L</text><text y="358" x="43.44827586206897" text-anchor="middle" visibility="hidden" style="font-size: 13px;">L</text><text y="358" x="48.275862068965516" text-anchor="middle" visibility="hidden" style="font-size: 13px;">L</text><text y="358" x="53.10344827586207" text-anchor="middle" visibility="hidden" style="font-size: 13px;">L</text><text y="358" x="57.93103448275862" text-anchor="middle" visibility="hidden" style="font-size: 13px;">A</text><text y="358" x="62.758620689655174" text-anchor="middle" visibility="hidden" style="font-size: 13px;">I</text><text y="358" x="67.58620689655173" text-anchor="middle" visibility="hidden" style="font-size: 13px;">L</text><text y="358" x="72.41379310344827" text-anchor="middle" visibility="hidden" style="font-size: 13px;">A</text><text y="358" x="77.24137931034483" text-anchor="middle" visibility="hidden" style="font-size: 13px;">V</text><text y="358" x="82.06896551724138" text-anchor="middle" visibility="hidden" style="font-size: 13px;">A</text><text y="358" x="86.89655172413794" text-anchor="middle" visibility="hidden" style="font-size: 13px;">L</text><text y="358" x="91.72413793103449" text-anchor="middle" visibility="hidden" style="font-size: 13px;">A</text><text y="358" x="96.55172413793103" text-anchor="middle" visibility="hidden" style="font-size: 13px;">V</text><text y="358" x="101.3793103448276" text-anchor="middle" visibility="hidden" style="font-size: 13px;">S</text><text y="358" x="106.20689655172414" text-anchor="middle" visibility="hidden" style="font-size: 13px;">P</text><text y="358" x="111.0344827586207" text-anchor="middle" visibility="hidden" style="font-size: 13px;">A</text><text y="358" x="115.86206896551724" text-anchor="middle" visibility="hidden" style="font-size: 13px;">A</text><text y="358" x="120.68965517241381" text-anchor="middle" visibility="hidden" style="font-size: 13px;">G</text><text y="358" x="125.51724137931035" text-anchor="middle" visibility="hidden" style="font-size: 13px;">S</text><text y="358" x="130.34482758620692" text-anchor="middle" visibility="hidden" style="font-size: 13px;">S</text><text y="358" x="135.17241379310346" text-anchor="middle" visibility="hidden" style="font-size: 13px;">P</text><text y="358" x="140" text-anchor="middle" visibility="hidden" style="font-size: 13px;">G</text><text y="358" x="144.82758620689654" text-anchor="middle" visibility="hidden" style="font-size: 13px;">K</text><text y="358" x="149.6551724137931" text-anchor="middle" visibility="hidden" style="font-size: 13px;">P</text><text y="358" x="154.48275862068965" text-anchor="middle" visibility="hidden" style="font-size: 13px;">P</text><text y="358" x="159.31034482758622" text-anchor="middle" visibility="hidden" style="font-size: 13px;">R</text><text y="358" x="164.13793103448276" text-anchor="middle" visibility="hidden" style="font-size: 13px;">L</text><text y="358" x="168.96551724137933" text-anchor="middle" visibility="hidden" style="font-size: 13px;">V</text><text y="358" x="173.79310344827587" text-anchor="middle" visibility="hidden" style="font-size: 13px;">G</text><text y="358" x="178.6206896551724" text-anchor="middle" visibility="hidden" style="font-size: 13px;">G</text><text y="358" x="183.44827586206898" text-anchor="middle" visibility="hidden" style="font-size: 13px;">P</text><text y="358" x="188.2758620689655" text-anchor="middle" visibility="hidden" style="font-size: 13px;">M</text><text y="358" x="193.10344827586206" text-anchor="middle" visibility="hidden" style="font-size: 13px;">D</text><text y="358" x="197.93103448275863" text-anchor="middle" visibility="hidden" style="font-size: 13px;">A</text><text y="358" x="202.7586206896552" text-anchor="middle" visibility="hidden" style="font-size: 13px;">S</text><text y="358" x="207.58620689655172" text-anchor="middle" visibility="hidden" style="font-size: 13px;">V</text><text y="358" x="212.41379310344828" text-anchor="middle" visibility="hidden" style="font-size: 13px;">E</text><text y="358" x="217.24137931034483" text-anchor="middle" visibility="hidden" style="font-size: 13px;">E</text><text y="358" x="222.0689655172414" text-anchor="middle" visibility="hidden" style="font-size: 13px;">E</text><text y="358" x="226.8965517241379" text-anchor="middle" visibility="hidden" style="font-size: 13px;">G</text><text y="358" x="231.72413793103448" text-anchor="middle" visibility="hidden" style="font-size: 13px;">V</text><text y="358" x="236.55172413793105" text-anchor="middle" visibility="hidden" style="font-size: 13px;">R</text><text y="358" x="241.37931034482762" text-anchor="middle" visibility="hidden" style="font-size: 13px;">R</text><text y="358" x="246.20689655172413" text-anchor="middle" visibility="hidden" style="font-size: 13px;">A</text><text y="358" x="251.0344827586207" text-anchor="middle" visibility="hidden" style="font-size: 13px;">L</text><text y="358" x="255.86206896551724" text-anchor="middle" visibility="hidden" style="font-size: 13px;">D</text><text y="358" x="260.68965517241384" text-anchor="middle" visibility="hidden" style="font-size: 13px;">F</text><text y="358" x="265.51724137931035" text-anchor="middle" visibility="hidden" style="font-size: 13px;">A</text><text y="358" x="270.3448275862069" text-anchor="middle" visibility="hidden" style="font-size: 13px;">V</text><text y="358" x="275.17241379310343" text-anchor="middle" visibility="hidden" style="font-size: 13px;">G</text><text y="358" x="280" text-anchor="middle" visibility="hidden" style="font-size: 13px;">E</text><text y="358" x="284.8275862068965" text-anchor="middle" visibility="hidden" style="font-size: 13px;">Y</text><text y="358" x="289.6551724137931" text-anchor="middle" visibility="hidden" style="font-size: 13px;">N</text><text y="358" x="294.48275862068965" text-anchor="middle" visibility="hidden" style="font-size: 13px;">K</text><text y="358" x="299.3103448275862" text-anchor="middle" visibility="hidden" style="font-size: 13px;">A</text><text y="358" x="304.13793103448273" text-anchor="middle" visibility="hidden" style="font-size: 13px;">S</text><text y="358" x="308.9655172413793" text-anchor="middle" visibility="hidden" style="font-size: 13px;">N</text><text y="358" x="313.7931034482759" text-anchor="middle" visibility="hidden" style="font-size: 13px;">D</text><text y="358" x="318.62068965517244" text-anchor="middle" visibility="hidden" style="font-size: 13px;">M</text><text y="358" x="323.44827586206895" text-anchor="middle" visibility="hidden" style="font-size: 13px;">Y</text><text y="358" x="328.2758620689655" text-anchor="middle" visibility="hidden" style="font-size: 13px;">H</text><text y="358" x="333.1034482758621" text-anchor="middle" visibility="hidden" style="font-size: 13px;">S</text><text y="358" x="337.93103448275866" text-anchor="middle" visibility="hidden" style="font-size: 13px;">R</text><text y="358" x="342.7586206896552" text-anchor="middle" visibility="hidden" style="font-size: 13px;">A</text><text y="358" x="347.58620689655174" text-anchor="middle" visibility="hidden" style="font-size: 13px;">L</text><text y="358" x="352.41379310344826" text-anchor="middle" visibility="hidden" style="font-size: 13px;">Q</text><text y="358" x="357.2413793103448" text-anchor="middle" visibility="hidden" style="font-size: 13px;">V</text><text y="358" x="362.0689655172414" text-anchor="middle" visibility="hidden" style="font-size: 13px;">V</text><text y="358" x="366.89655172413796" text-anchor="middle" visibility="hidden" style="font-size: 13px;">R</text><text y="358" x="371.7241379310344" text-anchor="middle" visibility="hidden" style="font-size: 13px;">A</text><text y="358" x="376.551724137931" text-anchor="middle" visibility="hidden" style="font-size: 13px;">R</text><text y="358" x="381.37931034482756" text-anchor="middle" visibility="hidden" style="font-size: 13px;">K</text><text y="358" x="386.2068965517241" text-anchor="middle" visibility="hidden" style="font-size: 13px;">Q</text><text y="358" x="391.0344827586207" text-anchor="middle" visibility="hidden" style="font-size: 13px;">I</text><text y="358" x="395.86206896551727" text-anchor="middle" visibility="hidden" style="font-size: 13px;">V</text><text y="358" x="400.68965517241384" text-anchor="middle" visibility="hidden" style="font-size: 13px;">A</text><text y="358" x="405.5172413793104" text-anchor="middle" visibility="hidden" style="font-size: 13px;">G</text><text y="358" x="410.34482758620686" text-anchor="middle" visibility="hidden" style="font-size: 13px;">V</text><text y="358" x="415.17241379310343" text-anchor="middle" visibility="hidden" style="font-size: 13px;">N</text><text y="358" x="420" text-anchor="middle" visibility="hidden" style="font-size: 13px;">Y</text><text y="358" x="424.82758620689657" text-anchor="middle" visibility="hidden" style="font-size: 13px;">F</text><text y="358" x="429.6551724137931" text-anchor="middle" visibility="hidden" style="font-size: 13px;">L</text><text y="358" x="434.48275862068965" text-anchor="middle" visibility="hidden" style="font-size: 13px;">D</text><text y="358" x="439.3103448275862" text-anchor="middle" visibility="hidden" style="font-size: 13px;">V</text><text y="358" x="444.1379310344828" text-anchor="middle" visibility="hidden" style="font-size: 13px;">E</text><text y="358" x="448.9655172413793" text-anchor="middle" visibility="hidden" style="font-size: 13px;">L</text><text y="358" x="453.7931034482758" text-anchor="middle" visibility="hidden" style="font-size: 13px;">G</text><text y="358" x="458.6206896551724" text-anchor="middle" visibility="hidden" style="font-size: 13px;">R</text><text y="358" x="463.44827586206895" text-anchor="middle" visibility="hidden" style="font-size: 13px;">T</text><text y="358" x="468.2758620689655" text-anchor="middle" visibility="hidden" style="font-size: 13px;">T</text><text y="358" x="473.1034482758621" text-anchor="middle" visibility="hidden" style="font-size: 13px;">C</text><text y="358" x="477.93103448275866" text-anchor="middle" visibility="hidden" style="font-size: 13px;">T</text><text y="358" x="482.75862068965523" text-anchor="middle" visibility="hidden" style="font-size: 13px;">K</text><text y="358" x="487.5862068965517" text-anchor="middle" visibility="hidden" style="font-size: 13px;">T</text><text y="358" x="492.41379310344826" text-anchor="middle" visibility="hidden" style="font-size: 13px;">Q</text><text y="358" x="497.2413793103448" text-anchor="middle" visibility="hidden" style="font-size: 13px;">P</text><text y="358" x="502.0689655172414" text-anchor="middle" visibility="hidden" style="font-size: 13px;">N</text><text y="358" x="506.8965517241379" text-anchor="middle" visibility="hidden" style="font-size: 13px;">L</text><text y="358" x="511.7241379310345" text-anchor="middle" visibility="hidden" style="font-size: 13px;">D</text><text y="358" x="516.551724137931" text-anchor="middle" visibility="hidden" style="font-size: 13px;">N</text><text y="358" x="521.3793103448277" text-anchor="middle" visibility="hidden" style="font-size: 13px;">C</text><text y="358" x="526.2068965517241" text-anchor="middle" visibility="hidden" style="font-size: 13px;">P</text><text y="358" x="531.0344827586207" text-anchor="middle" visibility="hidden" style="font-size: 13px;">F</text><text y="358" x="535.8620689655172" text-anchor="middle" visibility="hidden" style="font-size: 13px;">H</text><text y="358" x="540.6896551724138" text-anchor="middle" visibility="hidden" style="font-size: 13px;">D</text><text y="358" x="545.5172413793103" text-anchor="middle" visibility="hidden" style="font-size: 13px;">Q</text><text y="358" x="550.3448275862069" text-anchor="middle" visibility="hidden" style="font-size: 13px;">P</text><text y="358" x="555.1724137931035" text-anchor="middle" visibility="hidden" style="font-size: 13px;">H</text><text y="358" x="560" text-anchor="middle" visibility="hidden" style="font-size: 13px;">L</text><text y="358" x="564.8275862068965" text-anchor="middle" visibility="hidden" style="font-size: 13px;">K</text><text y="358" x="569.655172413793" text-anchor="middle" visibility="hidden" style="font-size: 13px;">R</text><text y="358" x="574.4827586206897" text-anchor="middle" visibility="hidden" style="font-size: 13px;">K</text><text y="358" x="579.3103448275862" text-anchor="middle" visibility="hidden" style="font-size: 13px;">A</text><text y="358" x="584.1379310344828" text-anchor="middle" visibility="hidden" style="font-size: 13px;">F</text><text y="358" x="588.9655172413793" text-anchor="middle" visibility="hidden" style="font-size: 13px;">C</text><text y="358" x="593.7931034482759" text-anchor="middle" visibility="hidden" style="font-size: 13px;">S</text><text y="358" x="598.6206896551724" text-anchor="middle" visibility="hidden" style="font-size: 13px;">F</text><text y="358" x="603.448275862069" text-anchor="middle" visibility="hidden" style="font-size: 13px;">Q</text><text y="358" x="608.2758620689655" text-anchor="middle" visibility="hidden" style="font-size: 13px;">I</text><text y="358" x="613.1034482758621" text-anchor="middle" visibility="hidden" style="font-size: 13px;">Y</text><text y="358" x="617.9310344827586" text-anchor="middle" visibility="hidden" style="font-size: 13px;">A</text><text y="358" x="622.7586206896551" text-anchor="middle" visibility="hidden" style="font-size: 13px;">V</text><text y="358" x="627.5862068965517" text-anchor="middle" visibility="hidden" style="font-size: 13px;">P</text><text y="358" x="632.4137931034483" text-anchor="middle" visibility="hidden" style="font-size: 13px;">W</text><text y="358" x="637.2413793103449" text-anchor="middle" visibility="hidden" style="font-size: 13px;">Q</text><text y="358" x="642.0689655172414" text-anchor="middle" visibility="hidden" style="font-size: 13px;">G</text><text y="358" x="646.8965517241379" text-anchor="middle" visibility="hidden" style="font-size: 13px;">T</text><text y="358" x="651.7241379310344" text-anchor="middle" visibility="hidden" style="font-size: 13px;">M</text><text y="358" x="656.551724137931" text-anchor="middle" visibility="hidden" style="font-size: 13px;">T</text><text y="358" x="661.3793103448276" text-anchor="middle" visibility="hidden" style="font-size: 13px;">L</text><text y="358" x="666.2068965517242" text-anchor="middle" visibility="hidden" style="font-size: 13px;">S</text><text y="358" x="671.0344827586207" text-anchor="middle" visibility="hidden" style="font-size: 13px;">K</text><text y="358" x="675.8620689655173" text-anchor="middle" visibility="hidden" style="font-size: 13px;">S</text><text y="358" x="680.6896551724137" text-anchor="middle" visibility="hidden" style="font-size: 13px;">T</text><text y="358" x="685.5172413793103" text-anchor="middle" visibility="hidden" style="font-size: 13px;">C</text><text y="358" x="690.3448275862069" text-anchor="middle" visibility="hidden" style="font-size: 13px;">Q</text><text y="358" x="695.1724137931035" text-anchor="middle" visibility="hidden" style="font-size: 13px;">D</text><text y="358" x="700" text-anchor="middle" visibility="hidden" style="font-size: 13px;">A</text></g></g></svg><g class="xAxis" transform="translate(0,360)" fill="none" font-size="10" font-family="sans-serif" text-anchor="middle"><path class="domain" stroke="#000" d="M0.5,6V0.5H700.5V6"></path><g class="tick" opacity="1" transform="translate(92.22413793103449,0)"><line stroke="#000" y2="6"></line><text fill="#000" y="9" dy="0.71em">20</text></g><g class="tick" opacity="1" transform="translate(188.7758620689655,0)"><line stroke="#000" y2="6"></line><text fill="#000" y="9" dy="0.71em">40</text></g><g class="tick" opacity="1" transform="translate(285.3275862068965,0)"><line stroke="#000" y2="6"></line><text fill="#000" y="9" dy="0.71em">60</text></g><g class="tick" opacity="1" transform="translate(381.87931034482756,0)"><line stroke="#000" y2="6"></line><text fill="#000" y="9" dy="0.71em">80</text></g><g class="tick" opacity="1" transform="translate(478.43103448275866,0)"><line stroke="#000" y2="6"></line><text fill="#000" y="9" dy="0.71em">100</text></g><g class="tick" opacity="1" transform="translate(574.9827586206897,0)"><line stroke="#000" y2="6"></line><text fill="#000" y="9" dy="0.71em">120</text></g><g class="tick" opacity="1" transform="translate(671.5344827586207,0)"><line stroke="#000" y2="6"></line><text fill="#000" y="9" dy="0.71em">140</text></g></g><text class="x label" text-anchor="end" x="700" y="390" style="font-size: 13px; font-family: Arial;">Residue number</text><g class="yAxis" fill="none" font-size="10" font-family="sans-serif" text-anchor="end"><path class="domain" stroke="#000" d="M-6,360.5H0.5V0.5H-6"></path><g class="tick" opacity="1" transform="translate(0,327.77272727272725)"><line stroke="#000" x2="-6"></line><text fill="#000" x="-9" dy="0.32em">0</text></g><g class="tick" opacity="1" transform="translate(0,278.18595041322317)"><line stroke="#000" x2="-6"></line><text fill="#000" x="-9" dy="0.32em">0.5</text></g><g class="tick" opacity="1" transform="translate(0,228.599173553719)"><line stroke="#000" x2="-6"></line><text fill="#000" x="-9" dy="0.32em">1</text></g><g class="tick" opacity="1" transform="translate(0,179.01239669421489)"><line stroke="#000" x2="-6"></line><text fill="#000" x="-9" dy="0.32em">1.5</text></g><g class="tick" opacity="1" transform="translate(0,129.42561983471072)"><line stroke="#000" x2="-6"></line><text fill="#000" x="-9" dy="0.32em">2</text></g><g class="tick" opacity="1" transform="translate(0,79.8388429752066)"><line stroke="#000" x2="-6"></line><text fill="#000" x="-9" dy="0.32em">2.5</text></g><g class="tick" opacity="1" transform="translate(0,30.252066115702462)"><line stroke="#000" x2="-6"></line><text fill="#000" x="-9" dy="0.32em">3</text></g></g><text class="y label" text-anchor="middle" y="-50" x="-180" dy="0.8em" transform="rotate(-90)" style="font-size: 13px; font-family: Arial;">Total number of references</text><g class="axisRed" fill="none" font-size="10" font-family="sans-serif" text-anchor="start" visibility="hidden" transform="translate(700, 0)"><path class="domain" stroke="#000" d="M6,360.5H0.5V0.5H6"></path><g class="tick" opacity="1" transform="translate(0,360.5)"><line stroke="#000" x2="6"></line><text fill="#000" x="9" dy="0.32em">0</text></g><text text-anchor="start" dx="5.2em" dy="-2.6em" transform="rotate(90)" visibility="hidden" style="font-size: 12px; font-family: Arial; fill: #d7301f;">No recurrent (&gt;2) missense mutations!</text></g><g class="axisPurple" fill="none" font-size="10" font-family="sans-serif" text-anchor="start" visibility="hidden"><path class="domain" stroke="#000" d="M6,360.5H0.5V0.5H6"></path><g class="tick" opacity="1" transform="translate(0,351.1173851428242)"><line stroke="#000" x2="6"></line><text fill="#000" x="9" dy="0.32em"></text></g><g class="tick" opacity="1" transform="translate(0,327.77272727272725)"><line stroke="#000" x2="6"></line><text fill="#000" x="9" dy="0.32em">0</text></g><g class="tick" opacity="1" transform="translate(0,304.4280694026303)"><line stroke="#000" x2="6"></line><text fill="#000" x="9" dy="0.32em">2</text></g><g class="tick" opacity="1" transform="translate(0,281.0834115325333)"><line stroke="#000" x2="6"></line><text fill="#000" x="9" dy="0.32em">4</text></g><g class="tick" opacity="1" transform="translate(0,257.73875366243635)"><line stroke="#000" x2="6"></line><text fill="#000" x="9" dy="0.32em">6</text></g><g class="tick" opacity="1" transform="translate(0,234.39409579233939)"><line stroke="#000" x2="6"></line><text fill="#000" x="9" dy="0.32em">8</text></g><g class="tick" opacity="1" transform="translate(0,211.04943792224242)"><line stroke="#000" x2="6"></line><text fill="#000" x="9" dy="0.32em">10</text></g><g class="tick" opacity="1" transform="translate(0,187.70478005214545)"><line stroke="#000" x2="6"></line><text fill="#000" x="9" dy="0.32em">12</text></g><g class="tick" opacity="1" transform="translate(0,164.36012218204849)"><line stroke="#000" x2="6"></line><text fill="#000" x="9" dy="0.32em">14</text></g><g class="tick" opacity="1" transform="translate(0,141.01546431195152)"><line stroke="#000" x2="6"></line><text fill="#000" x="9" dy="0.32em">16</text></g><g class="tick" opacity="1" transform="translate(0,117.67080644185458)"><line stroke="#000" x2="6"></line><text fill="#000" x="9" dy="0.32em">18</text></g><g class="tick" opacity="1" transform="translate(0,94.32614857175764)"><line stroke="#000" x2="6"></line><text fill="#000" x="9" dy="0.32em">20</text></g><g class="tick" opacity="1" transform="translate(0,70.98149070166068)"><line stroke="#000" x2="6"></line><text fill="#000" x="9" dy="0.32em">22</text></g><g class="tick" opacity="1" transform="translate(0,47.63683283156365)"><line stroke="#000" x2="6"></line><text fill="#000" x="9" dy="0.32em">24</text></g><g class="tick" opacity="1" transform="translate(0,24.292174961466685)"><line stroke="#000" x2="6"></line><text fill="#000" x="9" dy="0.32em">26</text></g><g class="tick" opacity="1" transform="translate(0,0.9475170913697184)"><line stroke="#000" x2="6"></line><text fill="#000" x="9" dy="0.32em">28</text></g><text text-anchor="start" x="10" y="10" visibility="hidden" style="font-size: 12px; font-family: Arial; fill: #807dba;">Minor Allele Frequency (MAF) %</text></g><circle cx="636" cy="15" r="10" class="compassNav" style="fill: #ffffff; stroke: #666666; stroke-width: 1px;"></circle><path d="M440.935 12.574l3.966 82.766C399.416 41.904 331.674 8 256 8 134.813 8 33.933 94.924 12.296 209.824 10.908 217.193 16.604 224 24.103 224h49.084c5.57 0 10.377-3.842 11.676-9.259C103.407 137.408 172.931 80 256 80c60.893 0 114.512 30.856 146.104 77.801l-101.53-4.865c-6.845-.328-12.574 5.133-12.574 11.986v47.411c0 6.627 5.373 12 12 12h200.333c6.627 0 12-5.373 12-12V12c0-6.627-5.373-12-12-12h-47.411c-6.853 0-12.315 5.729-11.987 12.574zM256 432c-60.895 0-114.517-30.858-146.109-77.805l101.868 4.871c6.845.327 12.573-5.134 12.573-11.986v-47.412c0-6.627-5.373-12-12-12H12c-6.627 0-12 5.373-12 12V500c0 6.627 5.373 12 12 12h47.385c6.863 0 12.328-5.745 11.985-12.599l-4.129-82.575C112.725 470.166 180.405 504 256 504c121.187 0 222.067-86.924 243.704-201.824 1.388-7.369-4.308-14.176-11.807-14.176h-49.084c-5.57 0-10.377 3.842-11.676 9.259C408.593 374.592 339.069 432 256 432z" class="compassNav" transform="translate(631, 10) scale(0.02)" style="fill: #666666; stroke: #666666; stroke-width: 1px;"></path><circle cx="658" cy="15" r="10" class="compassNav" style="fill: #ffffff; stroke: #666666; stroke-width: 1px;"></circle><line class="compassNav" stroke-width="2" stroke="#666666" x1="654" y1="15" x2="662" y2="15"></line><line class="compassNav" stroke-width="2" stroke="#666666" x1="658" y1="11" x2="658" y2="19"></line><circle cx="614" cy="15" r="10" class="compassNav" style="fill: #ffffff; stroke: #666666; stroke-width: 1px;"></circle><line class="compassNav" stroke-width="2" stroke="#666666" x1="610" y1="15" x2="618" y2="15"></line><path d="M582 14 l20 -12 a100,40 0 0,0 0,24z" class="compassNav" style="fill: #ffffff; stroke: #666666; stroke-width: 1px;"></path><path d="M690 14 l-20 -12 a100,40 0 0,1 0,24z" class="compassNav" style="fill: #ffffff; stroke: #666666; stroke-width: 1px;"></path><path d="M216 0h80c13.3 0 24 10.7 24 24v168h87.7c17.8 0 26.7 21.5 14.1 34.1L269.7 378.3c-7.5 7.5-19.8 7.5-27.3 0L90.1 226.1c-12.6-12.6-3.7-34.1 14.1-34.1H192V24c0-13.3 10.7-24 24-24zm296 376v112c0 13.3-10.7 24-24 24H24c-13.3 0-24-10.7-24-24V376c0-13.3 10.7-24 24-24h146.7l49 49c20.1 20.1 52.5 20.1 72.6 0l49-49H488c13.3 0 24 10.7 24 24zm-124 88c0-11-9-20-20-20s-20 9-20 20 9 20 20 20 20-9 20-20zm64 0c0-11-9-20-20-20s-20 9-20 20 9 20 20 20 20-9 20-20z" class="compassNav" transform="translate(552,0) scale(0.05)" style="fill: #336699; stroke: #336699; stroke-width: 1px; cursor: pointer;"></path></g></svg>