<svg width="800" height="400" style="background-color: white;"><g transform="translate(50,0)"><svg width="700" height="360"><g style="-webkit-tap-highlight-color: rgba(0, 0, 0, 0);"><rect width="700" height="360" style="fill: #ffffff;"></rect><g id="lines"><line class="line" stroke-width="1" stroke="#d7301f" x1="40.95744680851064" y1="333" x2="40.95744680851064" y2="29.752066115702405" visibility="hidden" style="stroke-dasharray: 3px, 3px;"></line><line class="line" stroke-width="1" stroke="#d7301f" x1="44.680851063829785" y1="333" x2="44.680851063829785" y2="282.8666584433206" visibility="hidden" style="stroke-dasharray: 3px, 3px;"></line><line class="line" stroke-width="1" stroke="#d7301f" x1="539.8936170212767" y1="333" x2="539.8936170212767" y2="309.51029974096457" visibility="hidden" style="stroke-dasharray: 3px, 3px;"></line><line class="line" stroke-width="1" stroke="#d7301f" x1="223.40425531914894" y1="333" x2="223.40425531914894" y2="303.58949056371034" visibility="hidden" style="stroke-dasharray: 3px, 3px;"></line></g><g><rect x="35.95744680851064" y="24.752066115702405" width="10" height="10" visibility="hidden" style="fill: #ffffff; stroke: #d7301f;"></rect><rect x="39.680851063829785" y="277.8666584433206" width="10" height="10" visibility="hidden" style="fill: #ffffff; stroke: #d7301f;"></rect><rect x="534.8936170212767" y="304.51029974096457" width="10" height="10" visibility="hidden" style="fill: #ffffff; stroke: #d7301f;"></rect><rect x="218.40425531914894" y="298.58949056371034" width="10" height="10" visibility="hidden" style="fill: #ffffff; stroke: #d7301f;"></rect></g><g id="lines"><line class="line" stroke-width="1" stroke="#6a51a3" x1="122.87234042553192" y1="333" x2="122.87234042553192" y2="327.27272727272725" visibility="hidden" style="stroke-dasharray: 3px, 3px;"></line><line class="line" stroke-width="1" stroke="#6a51a3" x1="543.6170212765957" y1="333" x2="543.6170212765957" y2="327.27272727272725" visibility="hidden" style="stroke-dasharray: 3px, 3px;"></line><line class="line" stroke-width="1" stroke="#6a51a3" x1="130.3191489361702" y1="333" x2="130.3191489361702" y2="327.27272727272725" visibility="hidden" style="stroke-dasharray: 3px, 3px;"></line><line class="line" stroke-width="1" stroke="#6a51a3" x1="14.893617021276595" y1="333" x2="14.893617021276595" y2="327.27272727272725" visibility="hidden" style="stroke-dasharray: 3px, 3px;"></line><line class="line" stroke-width="1" stroke="#6a51a3" x1="78.19148936170212" y1="333" x2="78.19148936170212" y2="327.27272727272725" visibility="hidden" style="stroke-dasharray: 3px, 3px;"></line><line class="line" stroke-width="1" stroke="#6a51a3" x1="260.6382978723404" y1="333" x2="260.6382978723404" y2="327.27272727272725" visibility="hidden" style="stroke-dasharray: 3px, 3px;"></line><line class="line" stroke-width="1" stroke="#6a51a3" x1="212.2340425531915" y1="333" x2="212.2340425531915" y2="327.27272727272725" visibility="hidden" style="stroke-dasharray: 3px, 3px;"></line><line class="line" stroke-width="1" stroke="#6a51a3" x1="215.95744680851064" y1="333" x2="215.95744680851064" y2="327.27272727272725" visibility="hidden" style="stroke-dasharray: 3px, 3px;"></line><line class="line" stroke-width="1" stroke="#6a51a3" x1="219.68085106382978" y1="333" x2="219.68085106382978" y2="327.27272727272725" visibility="hidden" style="stroke-dasharray: 3px, 3px;"></line><line class="line" stroke-width="1" stroke="#6a51a3" x1="40.95744680851064" y1="333" x2="40.95744680851064" y2="29.75206611570252" visibility="hidden" style="stroke-dasharray: 3px, 3px;"></line><line class="line" stroke-width="1" stroke="#6a51a3" x1="44.680851063829785" y1="333" x2="44.680851063829785" y2="29.75206611570252" visibility="hidden" style="stroke-dasharray: 3px, 3px;"></line><line class="line" stroke-width="1" stroke="#6a51a3" x1="48.40425531914894" y1="333" x2="48.40425531914894" y2="239.76665046183763" visibility="hidden" style="stroke-dasharray: 3px, 3px;"></line></g><g><rect x="117.87234042553192" y="322.27272727272725" width="10" height="10" visibility="hidden" style="fill: #ffffff; stroke: #6a51a3;"></rect><rect x="538.6170212765957" y="322.27272727272725" width="10" height="10" visibility="hidden" style="fill: #ffffff; stroke: #6a51a3;"></rect><rect x="125.3191489361702" y="322.27272727272725" width="10" height="10" visibility="hidden" style="fill: #ffffff; stroke: #6a51a3;"></rect><rect x="9.893617021276595" y="322.27272727272725" width="10" height="10" visibility="hidden" style="fill: #ffffff; stroke: #6a51a3;"></rect><rect x="73.19148936170212" y="322.27272727272725" width="10" height="10" visibility="hidden" style="fill: #ffffff; stroke: #6a51a3;"></rect><rect x="255.6382978723404" y="322.27272727272725" width="10" height="10" visibility="hidden" style="fill: #ffffff; stroke: #6a51a3;"></rect><rect x="207.2340425531915" y="322.27272727272725" width="10" height="10" visibility="hidden" style="fill: #ffffff; stroke: #6a51a3;"></rect><rect x="210.95744680851064" y="322.27272727272725" width="10" height="10" visibility="hidden" style="fill: #ffffff; stroke: #6a51a3;"></rect><rect x="214.68085106382978" y="322.27272727272725" width="10" height="10" visibility="hidden" style="fill: #ffffff; stroke: #6a51a3;"></rect><rect x="35.95744680851064" y="24.75206611570252" width="10" height="10" visibility="hidden" style="fill: #ffffff; stroke: #6a51a3;"></rect><rect x="39.680851063829785" y="24.75206611570252" width="10" height="10" visibility="hidden" style="fill: #ffffff; stroke: #6a51a3;"></rect><rect x="43.40425531914894" y="234.76665046183763" width="10" height="10" visibility="hidden" style="fill: #ffffff; stroke: #6a51a3;"></rect></g><g id="lines"><line class="line" stroke-width="1" stroke="#666666" x1="3.723404255319149" y1="333" x2="3.723404255319149" y2="319.2316283225374"></line><line class="line" stroke-width="1" stroke="#666666" x1="11.170212765957446" y1="333" x2="11.170212765957446" y2="319.2316283225374"></line><line class="line" stroke-width="1" stroke="#666666" x1="141.48936170212764" y1="333" x2="141.48936170212764" y2="238.8206388206388"></line><line class="line" stroke-width="1" stroke="#666666" x1="145.2127659574468" y1="333" x2="145.2127659574468" y2="303.1494304221577"></line><line class="line" stroke-width="1" stroke="#666666" x1="148.93617021276597" y1="333" x2="148.93617021276597" y2="311.19052937234756"></line><line class="line" stroke-width="1" stroke="#666666" x1="152.6595744680851" y1="333" x2="152.6595744680851" y2="311.19052937234756"></line><line class="line" stroke-width="1" stroke="#666666" x1="234.5744680851064" y1="333" x2="234.5744680851064" y2="270.98503462139826"></line><line class="line" stroke-width="1" stroke="#666666" x1="327.6595744680851" y1="333" x2="327.6595744680851" y2="319.2316283225374"></line><line class="line" stroke-width="1" stroke="#666666" x1="353.72340425531917" y1="333" x2="353.72340425531917" y2="319.2316283225374"></line><line class="line" stroke-width="1" stroke="#666666" x1="372.3404255319149" y1="333" x2="372.3404255319149" y2="319.2316283225374"></line><line class="line" stroke-width="1" stroke="#666666" x1="383.51063829787233" y1="333" x2="383.51063829787233" y2="287.067232521778"></line><line class="line" stroke-width="1" stroke="#666666" x1="383.51063829787233" y1="333" x2="383.51063829787233" y2="319.2316283225374"></line><line class="line" stroke-width="1" stroke="#666666" x1="390.9574468085106" y1="333" x2="390.9574468085106" y2="319.2316283225374"></line><line class="line" stroke-width="1" stroke="#666666" x1="431.9148936170213" y1="333" x2="431.9148936170213" y2="295.10833147196786"></line><line class="line" stroke-width="1" stroke="#666666" x1="472.8723404255319" y1="333" x2="472.8723404255319" y2="319.2316283225374"></line><line class="line" stroke-width="1" stroke="#666666" x1="472.8723404255319" y1="333" x2="472.8723404255319" y2="29.75206611570252"></line><line class="line" stroke-width="1" stroke="#666666" x1="532.4468085106382" y1="333" x2="532.4468085106382" y2="319.2316283225374"></line><line class="line" stroke-width="1" stroke="#666666" x1="543.6170212765957" y1="333" x2="543.6170212765957" y2="311.19052937234756"></line><line class="line" stroke-width="1" stroke="#666666" x1="543.6170212765957" y1="333" x2="543.6170212765957" y2="246.86173777082868"></line><line class="line" stroke-width="1" stroke="#666666" x1="547.3404255319149" y1="333" x2="547.3404255319149" y2="311.19052937234756"></line><line class="line" stroke-width="1" stroke="#666666" x1="580.8510638297872" y1="333" x2="580.8510638297872" y2="190.5740451194997"></line><line class="line" stroke-width="1" stroke="#666666" x1="584.5744680851064" y1="333" x2="584.5744680851064" y2="319.2316283225374"></line></g><g id="circles"><circle r="4" cx="3.723404255319149" cy="319.2316283225374" style="fill: #4393c3; stroke: #666666; stroke-width: 1px;"></circle><circle r="4" cx="11.170212765957446" cy="319.2316283225374" style="fill: #4393c3; stroke: #666666; stroke-width: 1px;"></circle><circle r="4" cx="141.48936170212764" cy="238.8206388206388" style="fill: #4393c3; stroke: #666666; stroke-width: 1px;"></circle><circle r="4" cx="145.2127659574468" cy="303.1494304221577" style="fill: #4393c3; stroke: #666666; stroke-width: 1px;"></circle><circle r="4" cx="148.93617021276597" cy="311.19052937234756" style="fill: #666666; stroke: #666666; stroke-width: 1px;"></circle><circle r="4" cx="152.6595744680851" cy="311.19052937234756" style="fill: #666666; stroke: #666666; stroke-width: 1px;"></circle><circle r="4" cx="234.5744680851064" cy="270.98503462139826" style="fill: #4393c3; stroke: #666666; stroke-width: 1px;"></circle><circle r="4" cx="327.6595744680851" cy="319.2316283225374" style="fill: #4393c3; stroke: #666666; stroke-width: 1px;"></circle><circle r="4" cx="353.72340425531917" cy="319.2316283225374" style="fill: #4393c3; stroke: #666666; stroke-width: 1px;"></circle><circle r="4" cx="372.3404255319149" cy="319.2316283225374" style="fill: #5aae61; stroke: #666666; stroke-width: 1px;"></circle><circle r="4" cx="383.51063829787233" cy="287.067232521778" style="fill: #5aae61; stroke: #666666; stroke-width: 1px;"></circle><circle r="4" cx="383.51063829787233" cy="319.2316283225374" style="fill: #bf812d; stroke: #666666; stroke-width: 1px;"></circle><circle r="4" cx="390.9574468085106" cy="319.2316283225374" style="fill: #4393c3; stroke: #666666; stroke-width: 1px;"></circle><circle r="4" cx="431.9148936170213" cy="295.10833147196786" style="fill: #bf812d; stroke: #666666; stroke-width: 1px;"></circle><circle r="4" cx="472.8723404255319" cy="319.2316283225374" style="fill: #5aae61; stroke: #666666; stroke-width: 1px;"></circle><circle r="4" cx="472.8723404255319" cy="29.75206611570252" style="fill: #bf812d; stroke: #666666; stroke-width: 1px;"></circle><circle r="4" cx="532.4468085106382" cy="319.2316283225374" style="fill: #4393c3; stroke: #666666; stroke-width: 1px;"></circle><circle r="4" cx="543.6170212765957" cy="311.19052937234756" style="fill: #5aae61; stroke: #666666; stroke-width: 1px;"></circle><circle r="4" cx="543.6170212765957" cy="246.86173777082868" style="fill: #bf812d; stroke: #666666; stroke-width: 1px;"></circle><circle r="4" cx="547.3404255319149" cy="311.19052937234756" style="fill: #4393c3; stroke: #666666; stroke-width: 1px;"></circle><circle r="4" cx="580.8510638297872" cy="190.5740451194997" style="fill: #4393c3; stroke: #666666; stroke-width: 1px;"></circle><circle r="4" cx="584.5744680851064" cy="319.2316283225374" style="fill: #4393c3; stroke: #666666; stroke-width: 1px;"></circle></g><g><rect x="0" y="333" width="700" height="12" style="fill: #ffffff; stroke-width: 1px; stroke: #666666;"></rect><rect x="14.893617021276595" y="333" width="595.7446808510639" height="12" style="fill: #aec7e8; stroke-width: 1px; stroke: #666666;"></rect></g><g><a target="_blank" xlink:href="http://pfam.xfam.org/family/"><text y="343" x="350" text-anchor="middle" style="color: rgb(102, 102, 102); font-weight: normal; font-size: 12px; font-family: Arial; cursor: pointer;"></text></a><a target="_blank" xlink:href="http://pfam.xfam.org/family/Ras"><text y="343" x="312.7659574468085" text-anchor="middle" style="color: rgb(102, 102, 102); font-weight: normal; font-size: 12px; font-family: Arial; cursor: pointer;">Ras</text></a></g><g><text y="358" x="0" text-anchor="middle" visibility="hidden" style="font-size: 13px;">M</text><text y="358" x="3.723404255319149" text-anchor="middle" visibility="hidden" style="font-size: 13px;">T</text><text y="358" x="7.446808510638298" text-anchor="middle" visibility="hidden" style="font-size: 13px;">E</text><text y="358" x="11.170212765957446" text-anchor="middle" visibility="hidden" style="font-size: 13px;">Y</text><text y="358" x="14.893617021276595" text-anchor="middle" visibility="hidden" style="font-size: 13px;">K</text><text y="358" x="18.617021276595747" text-anchor="middle" visibility="hidden" style="font-size: 13px;">L</text><text y="358" x="22.340425531914892" text-anchor="middle" visibility="hidden" style="font-size: 13px;">V</text><text y="358" x="26.06382978723404" text-anchor="middle" visibility="hidden" style="font-size: 13px;">V</text><text y="358" x="29.78723404255319" text-anchor="middle" visibility="hidden" style="font-size: 13px;">V</text><text y="358" x="33.51063829787234" text-anchor="middle" visibility="hidden" style="font-size: 13px;">G</text><text y="358" x="37.23404255319149" text-anchor="middle" visibility="hidden" style="font-size: 13px;">A</text><text y="358" x="40.95744680851064" text-anchor="middle" visibility="hidden" style="font-size: 13px;">G</text><text y="358" x="44.680851063829785" text-anchor="middle" visibility="hidden" style="font-size: 13px;">G</text><text y="358" x="48.40425531914894" text-anchor="middle" visibility="hidden" style="font-size: 13px;">V</text><text y="358" x="52.12765957446808" text-anchor="middle" visibility="hidden" style="font-size: 13px;">G</text><text y="358" x="55.851063829787236" text-anchor="middle" visibility="hidden" style="font-size: 13px;">K</text><text y="358" x="59.57446808510638" text-anchor="middle" visibility="hidden" style="font-size: 13px;">S</text><text y="358" x="63.297872340425535" text-anchor="middle" visibility="hidden" style="font-size: 13px;">A</text><text y="358" x="67.02127659574468" text-anchor="middle" visibility="hidden" style="font-size: 13px;">L</text><text y="358" x="70.74468085106382" text-anchor="middle" visibility="hidden" style="font-size: 13px;">T</text><text y="358" x="74.46808510638299" text-anchor="middle" visibility="hidden" style="font-size: 13px;">I</text><text y="358" x="78.19148936170212" text-anchor="middle" visibility="hidden" style="font-size: 13px;">Q</text><text y="358" x="81.91489361702128" text-anchor="middle" visibility="hidden" style="font-size: 13px;">L</text><text y="358" x="85.63829787234042" text-anchor="middle" visibility="hidden" style="font-size: 13px;">I</text><text y="358" x="89.36170212765957" text-anchor="middle" visibility="hidden" style="font-size: 13px;">Q</text><text y="358" x="93.08510638297872" text-anchor="middle" visibility="hidden" style="font-size: 13px;">N</text><text y="358" x="96.80851063829788" text-anchor="middle" visibility="hidden" style="font-size: 13px;">H</text><text y="358" x="100.53191489361703" text-anchor="middle" visibility="hidden" style="font-size: 13px;">F</text><text y="358" x="104.25531914893617" text-anchor="middle" visibility="hidden" style="font-size: 13px;">V</text><text y="358" x="107.97872340425532" text-anchor="middle" visibility="hidden" style="font-size: 13px;">D</text><text y="358" x="111.70212765957447" text-anchor="middle" visibility="hidden" style="font-size: 13px;">E</text><text y="358" x="115.42553191489361" text-anchor="middle" visibility="hidden" style="font-size: 13px;">Y</text><text y="358" x="119.14893617021276" text-anchor="middle" visibility="hidden" style="font-size: 13px;">D</text><text y="358" x="122.87234042553192" text-anchor="middle" visibility="hidden" style="font-size: 13px;">P</text><text y="358" x="126.59574468085107" text-anchor="middle" visibility="hidden" style="font-size: 13px;">T</text><text y="358" x="130.3191489361702" text-anchor="middle" visibility="hidden" style="font-size: 13px;">I</text><text y="358" x="134.04255319148936" text-anchor="middle" visibility="hidden" style="font-size: 13px;">E</text><text y="358" x="137.76595744680853" text-anchor="middle" visibility="hidden" style="font-size: 13px;">D</text><text y="358" x="141.48936170212764" text-anchor="middle" visibility="hidden" style="font-size: 13px;">S</text><text y="358" x="145.2127659574468" text-anchor="middle" visibility="hidden" style="font-size: 13px;">Y</text><text y="358" x="148.93617021276597" text-anchor="middle" visibility="hidden" style="font-size: 13px;">R</text><text y="358" x="152.6595744680851" text-anchor="middle" visibility="hidden" style="font-size: 13px;">K</text><text y="358" x="156.38297872340425" text-anchor="middle" visibility="hidden" style="font-size: 13px;">Q</text><text y="358" x="160.1063829787234" text-anchor="middle" visibility="hidden" style="font-size: 13px;">V</text><text y="358" x="163.82978723404256" text-anchor="middle" visibility="hidden" style="font-size: 13px;">V</text><text y="358" x="167.55319148936172" text-anchor="middle" visibility="hidden" style="font-size: 13px;">I</text><text y="358" x="171.27659574468083" text-anchor="middle" visibility="hidden" style="font-size: 13px;">D</text><text y="358" x="175" text-anchor="middle" visibility="hidden" style="font-size: 13px;">G</text><text y="358" x="178.72340425531914" text-anchor="middle" visibility="hidden" style="font-size: 13px;">E</text><text y="358" x="182.4468085106383" text-anchor="middle" visibility="hidden" style="font-size: 13px;">T</text><text y="358" x="186.17021276595744" text-anchor="middle" visibility="hidden" style="font-size: 13px;">C</text><text y="358" x="189.89361702127658" text-anchor="middle" visibility="hidden" style="font-size: 13px;">L</text><text y="358" x="193.61702127659575" text-anchor="middle" visibility="hidden" style="font-size: 13px;">L</text><text y="358" x="197.3404255319149" text-anchor="middle" visibility="hidden" style="font-size: 13px;">D</text><text y="358" x="201.06382978723406" text-anchor="middle" visibility="hidden" style="font-size: 13px;">I</text><text y="358" x="204.7872340425532" text-anchor="middle" visibility="hidden" style="font-size: 13px;">L</text><text y="358" x="208.51063829787233" text-anchor="middle" visibility="hidden" style="font-size: 13px;">D</text><text y="358" x="212.2340425531915" text-anchor="middle" visibility="hidden" style="font-size: 13px;">T</text><text y="358" x="215.95744680851064" text-anchor="middle" visibility="hidden" style="font-size: 13px;">A</text><text y="358" x="219.68085106382978" text-anchor="middle" visibility="hidden" style="font-size: 13px;">G</text><text y="358" x="223.40425531914894" text-anchor="middle" visibility="hidden" style="font-size: 13px;">Q</text><text y="358" x="227.12765957446808" text-anchor="middle" visibility="hidden" style="font-size: 13px;">E</text><text y="358" x="230.85106382978722" text-anchor="middle" visibility="hidden" style="font-size: 13px;">E</text><text y="358" x="234.5744680851064" text-anchor="middle" visibility="hidden" style="font-size: 13px;">Y</text><text y="358" x="238.29787234042553" text-anchor="middle" visibility="hidden" style="font-size: 13px;">S</text><text y="358" x="242.0212765957447" text-anchor="middle" visibility="hidden" style="font-size: 13px;">A</text><text y="358" x="245.74468085106383" text-anchor="middle" visibility="hidden" style="font-size: 13px;">M</text><text y="358" x="249.46808510638297" text-anchor="middle" visibility="hidden" style="font-size: 13px;">R</text><text y="358" x="253.19148936170214" text-anchor="middle" visibility="hidden" style="font-size: 13px;">D</text><text y="358" x="256.9148936170213" text-anchor="middle" visibility="hidden" style="font-size: 13px;">Q</text><text y="358" x="260.6382978723404" text-anchor="middle" visibility="hidden" style="font-size: 13px;">Y</text><text y="358" x="264.3617021276596" text-anchor="middle" visibility="hidden" style="font-size: 13px;">M</text><text y="358" x="268.0851063829787" text-anchor="middle" visibility="hidden" style="font-size: 13px;">R</text><text y="358" x="271.80851063829783" text-anchor="middle" visibility="hidden" style="font-size: 13px;">T</text><text y="358" x="275.53191489361706" text-anchor="middle" visibility="hidden" style="font-size: 13px;">G</text><text y="358" x="279.25531914893617" text-anchor="middle" visibility="hidden" style="font-size: 13px;">E</text><text y="358" x="282.9787234042553" text-anchor="middle" visibility="hidden" style="font-size: 13px;">G</text><text y="358" x="286.7021276595745" text-anchor="middle" visibility="hidden" style="font-size: 13px;">F</text><text y="358" x="290.4255319148936" text-anchor="middle" visibility="hidden" style="font-size: 13px;">L</text><text y="358" x="294.1489361702128" text-anchor="middle" visibility="hidden" style="font-size: 13px;">C</text><text y="358" x="297.87234042553195" text-anchor="middle" visibility="hidden" style="font-size: 13px;">V</text><text y="358" x="301.59574468085106" text-anchor="middle" visibility="hidden" style="font-size: 13px;">F</text><text y="358" x="305.3191489361702" text-anchor="middle" visibility="hidden" style="font-size: 13px;">A</text><text y="358" x="309.04255319148933" text-anchor="middle" visibility="hidden" style="font-size: 13px;">I</text><text y="358" x="312.7659574468085" text-anchor="middle" visibility="hidden" style="font-size: 13px;">N</text><text y="358" x="316.48936170212767" text-anchor="middle" visibility="hidden" style="font-size: 13px;">N</text><text y="358" x="320.2127659574468" text-anchor="middle" visibility="hidden" style="font-size: 13px;">T</text><text y="358" x="323.93617021276594" text-anchor="middle" visibility="hidden" style="font-size: 13px;">K</text><text y="358" x="327.6595744680851" text-anchor="middle" visibility="hidden" style="font-size: 13px;">S</text><text y="358" x="331.3829787234042" text-anchor="middle" visibility="hidden" style="font-size: 13px;">F</text><text y="358" x="335.10638297872345" text-anchor="middle" visibility="hidden" style="font-size: 13px;">E</text><text y="358" x="338.82978723404256" text-anchor="middle" visibility="hidden" style="font-size: 13px;">D</text><text y="358" x="342.55319148936167" text-anchor="middle" visibility="hidden" style="font-size: 13px;">I</text><text y="358" x="346.2765957446809" text-anchor="middle" visibility="hidden" style="font-size: 13px;">H</text><text y="358" x="350" text-anchor="middle" visibility="hidden" style="font-size: 13px;">H</text><text y="358" x="353.72340425531917" text-anchor="middle" visibility="hidden" style="font-size: 13px;">Y</text><text y="358" x="357.4468085106383" text-anchor="middle" visibility="hidden" style="font-size: 13px;">R</text><text y="358" x="361.17021276595744" text-anchor="middle" visibility="hidden" style="font-size: 13px;">E</text><text y="358" x="364.8936170212766" text-anchor="middle" visibility="hidden" style="font-size: 13px;">Q</text><text y="358" x="368.6170212765957" text-anchor="middle" visibility="hidden" style="font-size: 13px;">I</text><text y="358" x="372.3404255319149" text-anchor="middle" visibility="hidden" style="font-size: 13px;">K</text><text y="358" x="376.06382978723406" text-anchor="middle" visibility="hidden" style="font-size: 13px;">R</text><text y="358" x="379.78723404255317" text-anchor="middle" visibility="hidden" style="font-size: 13px;">V</text><text y="358" x="383.51063829787233" text-anchor="middle" visibility="hidden" style="font-size: 13px;">K</text><text y="358" x="387.2340425531915" text-anchor="middle" visibility="hidden" style="font-size: 13px;">D</text><text y="358" x="390.9574468085106" text-anchor="middle" visibility="hidden" style="font-size: 13px;">S</text><text y="358" x="394.6808510638298" text-anchor="middle" visibility="hidden" style="font-size: 13px;">E</text><text y="358" x="398.40425531914894" text-anchor="middle" visibility="hidden" style="font-size: 13px;">D</text><text y="358" x="402.1276595744681" text-anchor="middle" visibility="hidden" style="font-size: 13px;">V</text><text y="358" x="405.8510638297872" text-anchor="middle" visibility="hidden" style="font-size: 13px;">P</text><text y="358" x="409.5744680851064" text-anchor="middle" visibility="hidden" style="font-size: 13px;">M</text><text y="358" x="413.29787234042556" text-anchor="middle" visibility="hidden" style="font-size: 13px;">V</text><text y="358" x="417.02127659574467" text-anchor="middle" visibility="hidden" style="font-size: 13px;">L</text><text y="358" x="420.74468085106383" text-anchor="middle" visibility="hidden" style="font-size: 13px;">V</text><text y="358" x="424.468085106383" text-anchor="middle" visibility="hidden" style="font-size: 13px;">G</text><text y="358" x="428.1914893617021" text-anchor="middle" visibility="hidden" style="font-size: 13px;">N</text><text y="358" x="431.9148936170213" text-anchor="middle" visibility="hidden" style="font-size: 13px;">K</text><text y="358" x="435.63829787234044" text-anchor="middle" visibility="hidden" style="font-size: 13px;">C</text><text y="358" x="439.36170212765956" text-anchor="middle" visibility="hidden" style="font-size: 13px;">D</text><text y="358" x="443.0851063829787" text-anchor="middle" visibility="hidden" style="font-size: 13px;">L</text><text y="358" x="446.8085106382979" text-anchor="middle" visibility="hidden" style="font-size: 13px;">P</text><text y="358" x="450.531914893617" text-anchor="middle" visibility="hidden" style="font-size: 13px;">S</text><text y="358" x="454.25531914893617" text-anchor="middle" visibility="hidden" style="font-size: 13px;">R</text><text y="358" x="457.97872340425533" text-anchor="middle" visibility="hidden" style="font-size: 13px;">T</text><text y="358" x="461.70212765957444" text-anchor="middle" visibility="hidden" style="font-size: 13px;">V</text><text y="358" x="465.4255319148936" text-anchor="middle" visibility="hidden" style="font-size: 13px;">D</text><text y="358" x="469.1489361702128" text-anchor="middle" visibility="hidden" style="font-size: 13px;">T</text><text y="358" x="472.8723404255319" text-anchor="middle" visibility="hidden" style="font-size: 13px;">K</text><text y="358" x="476.59574468085106" text-anchor="middle" visibility="hidden" style="font-size: 13px;">Q</text><text y="358" x="480.3191489361702" text-anchor="middle" visibility="hidden" style="font-size: 13px;">A</text><text y="358" x="484.0425531914894" text-anchor="middle" visibility="hidden" style="font-size: 13px;">Q</text><text y="358" x="487.7659574468085" text-anchor="middle" visibility="hidden" style="font-size: 13px;">D</text><text y="358" x="491.48936170212767" text-anchor="middle" visibility="hidden" style="font-size: 13px;">L</text><text y="358" x="495.21276595744683" text-anchor="middle" visibility="hidden" style="font-size: 13px;">A</text><text y="358" x="498.93617021276594" text-anchor="middle" visibility="hidden" style="font-size: 13px;">R</text><text y="358" x="502.6595744680851" text-anchor="middle" visibility="hidden" style="font-size: 13px;">S</text><text y="358" x="506.3829787234043" text-anchor="middle" visibility="hidden" style="font-size: 13px;">Y</text><text y="358" x="510.1063829787234" text-anchor="middle" visibility="hidden" style="font-size: 13px;">G</text><text y="358" x="513.8297872340426" text-anchor="middle" visibility="hidden" style="font-size: 13px;">I</text><text y="358" x="517.5531914893618" text-anchor="middle" visibility="hidden" style="font-size: 13px;">P</text><text y="358" x="521.2765957446808" text-anchor="middle" visibility="hidden" style="font-size: 13px;">F</text><text y="358" x="525" text-anchor="middle" visibility="hidden" style="font-size: 13px;">I</text><text y="358" x="528.7234042553192" text-anchor="middle" visibility="hidden" style="font-size: 13px;">E</text><text y="358" x="532.4468085106382" text-anchor="middle" visibility="hidden" style="font-size: 13px;">T</text><text y="358" x="536.1702127659574" text-anchor="middle" visibility="hidden" style="font-size: 13px;">S</text><text y="358" x="539.8936170212767" text-anchor="middle" visibility="hidden" style="font-size: 13px;">A</text><text y="358" x="543.6170212765957" text-anchor="middle" visibility="hidden" style="font-size: 13px;">K</text><text y="358" x="547.3404255319149" text-anchor="middle" visibility="hidden" style="font-size: 13px;">T</text><text y="358" x="551.0638297872341" text-anchor="middle" visibility="hidden" style="font-size: 13px;">R</text><text y="358" x="554.7872340425531" text-anchor="middle" visibility="hidden" style="font-size: 13px;">Q</text><text y="358" x="558.5106382978723" text-anchor="middle" visibility="hidden" style="font-size: 13px;">R</text><text y="358" x="562.2340425531916" text-anchor="middle" visibility="hidden" style="font-size: 13px;">V</text><text y="358" x="565.9574468085106" text-anchor="middle" visibility="hidden" style="font-size: 13px;">E</text><text y="358" x="569.6808510638298" text-anchor="middle" visibility="hidden" style="font-size: 13px;">D</text><text y="358" x="573.404255319149" text-anchor="middle" visibility="hidden" style="font-size: 13px;">A</text><text y="358" x="577.1276595744681" text-anchor="middle" visibility="hidden" style="font-size: 13px;">F</text><text y="358" x="580.8510638297872" text-anchor="middle" visibility="hidden" style="font-size: 13px;">Y</text><text y="358" x="584.5744680851064" text-anchor="middle" visibility="hidden" style="font-size: 13px;">T</text><text y="358" x="588.2978723404256" text-anchor="middle" visibility="hidden" style="font-size: 13px;">L</text><text y="358" x="592.0212765957447" text-anchor="middle" visibility="hidden" style="font-size: 13px;">V</text><text y="358" x="595.7446808510639" text-anchor="middle" visibility="hidden" style="font-size: 13px;">R</text><text y="358" x="599.468085106383" text-anchor="middle" visibility="hidden" style="font-size: 13px;">E</text><text y="358" x="603.1914893617021" text-anchor="middle" visibility="hidden" style="font-size: 13px;">I</text><text y="358" x="606.9148936170213" text-anchor="middle" visibility="hidden" style="font-size: 13px;">R</text><text y="358" x="610.6382978723404" text-anchor="middle" visibility="hidden" style="font-size: 13px;">Q</text><text y="358" x="614.3617021276596" text-anchor="middle" visibility="hidden" style="font-size: 13px;">Y</text><text y="358" x="618.0851063829787" text-anchor="middle" visibility="hidden" style="font-size: 13px;">R</text><text y="358" x="621.8085106382979" text-anchor="middle" visibility="hidden" style="font-size: 13px;">L</text><text y="358" x="625.531914893617" text-anchor="middle" visibility="hidden" style="font-size: 13px;">K</text><text y="358" x="629.2553191489361" text-anchor="middle" visibility="hidden" style="font-size: 13px;">K</text><text y="358" x="632.9787234042553" text-anchor="middle" visibility="hidden" style="font-size: 13px;">I</text><text y="358" x="636.7021276595744" text-anchor="middle" visibility="hidden" style="font-size: 13px;">S</text><text y="358" x="640.4255319148936" text-anchor="middle" visibility="hidden" style="font-size: 13px;">K</text><text y="358" x="644.1489361702128" text-anchor="middle" visibility="hidden" style="font-size: 13px;">E</text><text y="358" x="647.8723404255319" text-anchor="middle" visibility="hidden" style="font-size: 13px;">E</text><text y="358" x="651.595744680851" text-anchor="middle" visibility="hidden" style="font-size: 13px;">K</text><text y="358" x="655.3191489361702" text-anchor="middle" visibility="hidden" style="font-size: 13px;">T</text><text y="358" x="659.0425531914894" text-anchor="middle" visibility="hidden" style="font-size: 13px;">P</text><text y="358" x="662.7659574468084" text-anchor="middle" visibility="hidden" style="font-size: 13px;">G</text><text y="358" x="666.4893617021277" text-anchor="middle" visibility="hidden" style="font-size: 13px;">C</text><text y="358" x="670.2127659574469" text-anchor="middle" visibility="hidden" style="font-size: 13px;">V</text><text y="358" x="673.9361702127659" text-anchor="middle" visibility="hidden" style="font-size: 13px;">K</text><text y="358" x="677.6595744680851" text-anchor="middle" visibility="hidden" style="font-size: 13px;">I</text><text y="358" x="681.3829787234043" text-anchor="middle" visibility="hidden" style="font-size: 13px;">K</text><text y="358" x="685.1063829787233" text-anchor="middle" visibility="hidden" style="font-size: 13px;">K</text><text y="358" x="688.8297872340426" text-anchor="middle" visibility="hidden" style="font-size: 13px;">C</text><text y="358" x="692.5531914893618" text-anchor="middle" visibility="hidden" style="font-size: 13px;">I</text><text y="358" x="696.2765957446808" text-anchor="middle" visibility="hidden" style="font-size: 13px;">I</text><text y="358" x="700" text-anchor="middle" visibility="hidden" style="font-size: 13px;">M</text></g></g></svg><g class="xAxis" transform="translate(0,360)" fill="none" font-size="10" font-family="sans-serif" text-anchor="middle"><path class="domain" stroke="#000" d="M0.5,6V0.5H700.5V6"></path><g class="tick" opacity="1" transform="translate(71.24468085106382,0)"><line stroke="#000" y2="6"></line><text fill="#000" y="9" dy="0.71em">20</text></g><g class="tick" opacity="1" transform="translate(145.7127659574468,0)"><line stroke="#000" y2="6"></line><text fill="#000" y="9" dy="0.71em">40</text></g><g class="tick" opacity="1" transform="translate(220.18085106382978,0)"><line stroke="#000" y2="6"></line><text fill="#000" y="9" dy="0.71em">60</text></g><g class="tick" opacity="1" transform="translate(294.6489361702128,0)"><line stroke="#000" y2="6"></line><text fill="#000" y="9" dy="0.71em">80</text></g><g class="tick" opacity="1" transform="translate(369.1170212765957,0)"><line stroke="#000" y2="6"></line><text fill="#000" y="9" dy="0.71em">100</text></g><g class="tick" opacity="1" transform="translate(443.5851063829787,0)"><line stroke="#000" y2="6"></line><text fill="#000" y="9" dy="0.71em">120</text></g><g class="tick" opacity="1" transform="translate(518.0531914893618,0)"><line stroke="#000" y2="6"></line><text fill="#000" y="9" dy="0.71em">140</text></g><g class="tick" opacity="1" transform="translate(592.5212765957447,0)"><line stroke="#000" y2="6"></line><text fill="#000" y="9" dy="0.71em">160</text></g><g class="tick" opacity="1" transform="translate(666.9893617021277,0)"><line stroke="#000" y2="6"></line><text fill="#000" y="9" dy="0.71em">180</text></g></g><text class="x label" text-anchor="end" x="700" y="390" style="font-size: 13px; font-family: Arial;">Residue number</text><g class="yAxis" fill="none" font-size="10" font-family="sans-serif" text-anchor="end"><path class="domain" stroke="#000" d="M-6,360.5H0.5V0.5H-6"></path><g class="tick" opacity="1" transform="translate(0,327.77272727272725)"><line stroke="#000" x2="-6"></line><text fill="#000" x="-9" dy="0.32em">0</text></g><g class="tick" opacity="1" transform="translate(0,287.567232521778)"><line stroke="#000" x2="-6"></line><text fill="#000" x="-9" dy="0.32em">5</text></g><g class="tick" opacity="1" transform="translate(0,247.36173777082868)"><line stroke="#000" x2="-6"></line><text fill="#000" x="-9" dy="0.32em">10</text></g><g class="tick" opacity="1" transform="translate(0,207.15624301987938)"><line stroke="#000" x2="-6"></line><text fill="#000" x="-9" dy="0.32em">15</text></g><g class="tick" opacity="1" transform="translate(0,166.95074826893008)"><line stroke="#000" x2="-6"></line><text fill="#000" x="-9" dy="0.32em">20</text></g><g class="tick" opacity="1" transform="translate(0,126.74525351798081)"><line stroke="#000" x2="-6"></line><text fill="#000" x="-9" dy="0.32em">25</text></g><g class="tick" opacity="1" transform="translate(0,86.53975876703151)"><line stroke="#000" x2="-6"></line><text fill="#000" x="-9" dy="0.32em">30</text></g><g class="tick" opacity="1" transform="translate(0,46.334264016082216)"><line stroke="#000" x2="-6"></line><text fill="#000" x="-9" dy="0.32em">35</text></g><g class="tick" opacity="1" transform="translate(0,6.128769265132917)"><line stroke="#000" x2="-6"></line><text fill="#000" x="-9" dy="0.32em">40</text></g></g><text class="y label" text-anchor="middle" y="-50" x="-180" dy="0.8em" transform="rotate(-90)" style="font-size: 13px; font-family: Arial;">Total number of references</text><g class="axisRed" fill="none" font-size="10" font-family="sans-serif" text-anchor="start" visibility="hidden" transform="translate(700, 0)"><path class="domain" stroke="#000" d="M6,360.5H0.5V0.5H6"></path><g class="tick" opacity="1" transform="translate(0,357.3767731589984)"><line stroke="#000" x2="6"></line><text fill="#000" x="9" dy="0.32em"></text></g><g class="tick" opacity="1" transform="translate(0,327.77272727272725)"><line stroke="#000" x2="6"></line><text fill="#000" x="9" dy="0.32em">0</text></g><g class="tick" opacity="1" transform="translate(0,298.1686813864561)"><line stroke="#000" x2="6"></line><text fill="#000" x="9" dy="0.32em">20</text></g><g class="tick" opacity="1" transform="translate(0,268.56463550018503)"><line stroke="#000" x2="6"></line><text fill="#000" x="9" dy="0.32em">40</text></g><g class="tick" opacity="1" transform="translate(0,238.9605896139139)"><line stroke="#000" x2="6"></line><text fill="#000" x="9" dy="0.32em">60</text></g><g class="tick" opacity="1" transform="translate(0,209.35654372764276)"><line stroke="#000" x2="6"></line><text fill="#000" x="9" dy="0.32em">80</text></g><g class="tick" opacity="1" transform="translate(0,179.75249784137162)"><line stroke="#000" x2="6"></line><text fill="#000" x="9" dy="0.32em">100</text></g><g class="tick" opacity="1" transform="translate(0,150.1484519551005)"><line stroke="#000" x2="6"></line><text fill="#000" x="9" dy="0.32em">120</text></g><g class="tick" opacity="1" transform="translate(0,120.54440606882937)"><line stroke="#000" x2="6"></line><text fill="#000" x="9" dy="0.32em">140</text></g><g class="tick" opacity="1" transform="translate(0,90.94036018255821)"><line stroke="#000" x2="6"></line><text fill="#000" x="9" dy="0.32em">160</text></g><g class="tick" opacity="1" transform="translate(0,61.33631429628713)"><line stroke="#000" x2="6"></line><text fill="#000" x="9" dy="0.32em">180</text></g><g class="tick" opacity="1" transform="translate(0,31.73226841001599)"><line stroke="#000" x2="6"></line><text fill="#000" x="9" dy="0.32em">200</text></g><g class="tick" opacity="1" transform="translate(0,2.128222523744853)"><line stroke="#000" x2="6"></line><text fill="#000" x="9" dy="0.32em">220</text></g><text text-anchor="start" dx="5.2em" dy="-2.6em" transform="rotate(90)" visibility="hidden" style="font-size: 12px; font-family: Arial; fill: #d7301f;">Number of tumor samples</text></g><g class="axisPurple" fill="none" font-size="10" font-family="sans-serif" text-anchor="start" visibility="hidden"><path class="domain" stroke="#000" d="M6,360.5H0.5V0.5H6"></path><g class="tick" opacity="1" transform="translate(0,327.77272727272725)"><line stroke="#000" x2="6"></line><text fill="#000" x="9" dy="0.32em">0</text></g><g class="tick" opacity="1" transform="translate(0,284.0196888672824)"><line stroke="#000" x2="6"></line><text fill="#000" x="9" dy="0.32em">0.0005</text></g><g class="tick" opacity="1" transform="translate(0,240.26665046183763)"><line stroke="#000" x2="6"></line><text fill="#000" x="9" dy="0.32em">0.001</text></g><g class="tick" opacity="1" transform="translate(0,196.5136120563928)"><line stroke="#000" x2="6"></line><text fill="#000" x="9" dy="0.32em">0.0015</text></g><g class="tick" opacity="1" transform="translate(0,152.76057365094795)"><line stroke="#000" x2="6"></line><text fill="#000" x="9" dy="0.32em">0.002</text></g><g class="tick" opacity="1" transform="translate(0,109.00753524550314)"><line stroke="#000" x2="6"></line><text fill="#000" x="9" dy="0.32em">0.0025</text></g><g class="tick" opacity="1" transform="translate(0,65.25449684005827)"><line stroke="#000" x2="6"></line><text fill="#000" x="9" dy="0.32em">0.003</text></g><g class="tick" opacity="1" transform="translate(0,21.501458434613482)"><line stroke="#000" x2="6"></line><text fill="#000" x="9" dy="0.32em">0.0035</text></g><text text-anchor="start" x="10" y="10" visibility="hidden" style="font-size: 12px; font-family: Arial; fill: #807dba;">Minor Allele Frequency (MAF) %</text></g><circle cx="636" cy="15" r="10" class="compassNav" style="fill: #ffffff; stroke: #666666; stroke-width: 1px;"></circle><path d="M440.935 12.574l3.966 82.766C399.416 41.904 331.674 8 256 8 134.813 8 33.933 94.924 12.296 209.824 10.908 217.193 16.604 224 24.103 224h49.084c5.57 0 10.377-3.842 11.676-9.259C103.407 137.408 172.931 80 256 80c60.893 0 114.512 30.856 146.104 77.801l-101.53-4.865c-6.845-.328-12.574 5.133-12.574 11.986v47.411c0 6.627 5.373 12 12 12h200.333c6.627 0 12-5.373 12-12V12c0-6.627-5.373-12-12-12h-47.411c-6.853 0-12.315 5.729-11.987 12.574zM256 432c-60.895 0-114.517-30.858-146.109-77.805l101.868 4.871c6.845.327 12.573-5.134 12.573-11.986v-47.412c0-6.627-5.373-12-12-12H12c-6.627 0-12 5.373-12 12V500c0 6.627 5.373 12 12 12h47.385c6.863 0 12.328-5.745 11.985-12.599l-4.129-82.575C112.725 470.166 180.405 504 256 504c121.187 0 222.067-86.924 243.704-201.824 1.388-7.369-4.308-14.176-11.807-14.176h-49.084c-5.57 0-10.377 3.842-11.676 9.259C408.593 374.592 339.069 432 256 432z" class="compassNav" transform="translate(631, 10) scale(0.02)" style="fill: #666666; stroke: #666666; stroke-width: 1px;"></path><circle cx="658" cy="15" r="10" class="compassNav" style="fill: #ffffff; stroke: #666666; stroke-width: 1px;"></circle><line class="compassNav" stroke-width="2" stroke="#666666" x1="654" y1="15" x2="662" y2="15"></line><line class="compassNav" stroke-width="2" stroke="#666666" x1="658" y1="11" x2="658" y2="19"></line><circle cx="614" cy="15" r="10" class="compassNav" style="fill: #ffffff; stroke: #666666; stroke-width: 1px;"></circle><line class="compassNav" stroke-width="2" stroke="#666666" x1="610" y1="15" x2="618" y2="15"></line><path d="M582 14 l20 -12 a100,40 0 0,0 0,24z" class="compassNav" style="fill: #ffffff; stroke: #666666; stroke-width: 1px;"></path><path d="M690 14 l-20 -12 a100,40 0 0,1 0,24z" class="compassNav" style="fill: #ffffff; stroke: #666666; stroke-width: 1px;"></path><path d="M216 0h80c13.3 0 24 10.7 24 24v168h87.7c17.8 0 26.7 21.5 14.1 34.1L269.7 378.3c-7.5 7.5-19.8 7.5-27.3 0L90.1 226.1c-12.6-12.6-3.7-34.1 14.1-34.1H192V24c0-13.3 10.7-24 24-24zm296 376v112c0 13.3-10.7 24-24 24H24c-13.3 0-24-10.7-24-24V376c0-13.3 10.7-24 24-24h146.7l49 49c20.1 20.1 52.5 20.1 72.6 0l49-49H488c13.3 0 24 10.7 24 24zm-124 88c0-11-9-20-20-20s-20 9-20 20 9 20 20 20 20-9 20-20zm64 0c0-11-9-20-20-20s-20 9-20 20 9 20 20 20 20-9 20-20z" class="compassNav" transform="translate(552,0) scale(0.05)" style="fill: #336699; stroke: #336699; stroke-width: 1px; cursor: pointer;"></path></g></svg>