<svg width="800" height="400" style="background-color: white;"><g transform="translate(50,0)"><svg width="700" height="360"><g style="-webkit-tap-highlight-color: rgba(0, 0, 0, 0);"><rect width="700" height="360" style="fill: #ffffff;"></rect><g id="lines"><line class="line" stroke-width="1" stroke="#d7301f" x1="-516.0583941605839" y1="333" x2="-516.0583941605839" y2="360" visibility="hidden" style="stroke-dasharray: 3px, 3px;"></line></g><g><rect x="-521.0583941605839" y="355" width="10" height="10" visibility="hidden" style="fill: #ffffff; stroke: #d7301f;"></rect></g><g id="lines"><line class="line" stroke-width="1" stroke="#6a51a3" x1="-516.0583941605839" y1="333" x2="-516.0583941605839" y2="327.27272727272725" visibility="hidden" style="stroke-dasharray: 3px, 3px;"></line></g><g><rect x="-521.0583941605839" y="322.27272727272725" width="10" height="10" visibility="hidden" style="fill: #ffffff; stroke: #6a51a3;"></rect></g><g id="lines"><line class="line" stroke-width="1" stroke="#666666" x1="-516.0583941605839" y1="333" x2="-516.0583941605839" y2="360"></line></g><g id="circles"><circle r="4" cx="-516.0583941605839" cy="360" style="fill: #4393c3; stroke: #666666; stroke-width: 1px;"></circle></g><g><rect x="0" y="333" width="700" height="12" style="fill: #ffffff; stroke-width: 1px; stroke: #666666;"></rect><rect x="91.97080291970804" y="333" width="541.6058394160584" height="12" style="fill: #aec7e8; stroke-width: 1px; stroke: #666666;"></rect></g><g><a target="_blank" xlink:href="http://pfam.xfam.org/family/"><text y="343" x="350" text-anchor="middle" style="color: rgb(102, 102, 102); font-weight: normal; font-size: 12px; font-family: Arial; cursor: pointer;"></text></a><a target="_blank" xlink:href="http://pfam.xfam.org/family/Cys_knot"><text y="343" x="362.77372262773724" text-anchor="middle" style="color: rgb(102, 102, 102); font-weight: normal; font-size: 12px; font-family: Arial; cursor: pointer;">Cys_knot</text></a></g><g><text y="358" x="0" text-anchor="middle" visibility="hidden" style="font-size: 13px;">M</text><text y="358" x="5.10948905109489" text-anchor="middle" visibility="hidden" style="font-size: 13px;">T</text><text y="358" x="10.21897810218978" text-anchor="middle" visibility="hidden" style="font-size: 13px;">A</text><text y="358" x="15.328467153284672" text-anchor="middle" visibility="hidden" style="font-size: 13px;">L</text><text y="358" x="20.43795620437956" text-anchor="middle" visibility="hidden" style="font-size: 13px;">F</text><text y="358" x="25.54744525547445" text-anchor="middle" visibility="hidden" style="font-size: 13px;">L</text><text y="358" x="30.656934306569344" text-anchor="middle" visibility="hidden" style="font-size: 13px;">M</text><text y="358" x="35.76642335766423" text-anchor="middle" visibility="hidden" style="font-size: 13px;">S</text><text y="358" x="40.87591240875912" text-anchor="middle" visibility="hidden" style="font-size: 13px;">M</text><text y="358" x="45.98540145985402" text-anchor="middle" visibility="hidden" style="font-size: 13px;">L</text><text y="358" x="51.0948905109489" text-anchor="middle" visibility="hidden" style="font-size: 13px;">F</text><text y="358" x="56.2043795620438" text-anchor="middle" visibility="hidden" style="font-size: 13px;">G</text><text y="358" x="61.31386861313869" text-anchor="middle" visibility="hidden" style="font-size: 13px;">L</text><text y="358" x="66.42335766423358" text-anchor="middle" visibility="hidden" style="font-size: 13px;">T</text><text y="358" x="71.53284671532846" text-anchor="middle" visibility="hidden" style="font-size: 13px;">C</text><text y="358" x="76.64233576642336" text-anchor="middle" visibility="hidden" style="font-size: 13px;">G</text><text y="358" x="81.75182481751824" text-anchor="middle" visibility="hidden" style="font-size: 13px;">Q</text><text y="358" x="86.86131386861314" text-anchor="middle" visibility="hidden" style="font-size: 13px;">A</text><text y="358" x="91.97080291970804" text-anchor="middle" visibility="hidden" style="font-size: 13px;">M</text><text y="358" x="97.08029197080292" text-anchor="middle" visibility="hidden" style="font-size: 13px;">S</text><text y="358" x="102.1897810218978" text-anchor="middle" visibility="hidden" style="font-size: 13px;">F</text><text y="358" x="107.29927007299271" text-anchor="middle" visibility="hidden" style="font-size: 13px;">C</text><text y="358" x="112.4087591240876" text-anchor="middle" visibility="hidden" style="font-size: 13px;">I</text><text y="358" x="117.51824817518248" text-anchor="middle" visibility="hidden" style="font-size: 13px;">P</text><text y="358" x="122.62773722627738" text-anchor="middle" visibility="hidden" style="font-size: 13px;">T</text><text y="358" x="127.73722627737226" text-anchor="middle" visibility="hidden" style="font-size: 13px;">E</text><text y="358" x="132.84671532846716" text-anchor="middle" visibility="hidden" style="font-size: 13px;">Y</text><text y="358" x="137.95620437956205" text-anchor="middle" visibility="hidden" style="font-size: 13px;">T</text><text y="358" x="143.06569343065692" text-anchor="middle" visibility="hidden" style="font-size: 13px;">M</text><text y="358" x="148.17518248175182" text-anchor="middle" visibility="hidden" style="font-size: 13px;">H</text><text y="358" x="153.28467153284672" text-anchor="middle" visibility="hidden" style="font-size: 13px;">I</text><text y="358" x="158.3941605839416" text-anchor="middle" visibility="hidden" style="font-size: 13px;">E</text><text y="358" x="163.50364963503648" text-anchor="middle" visibility="hidden" style="font-size: 13px;">R</text><text y="358" x="168.6131386861314" text-anchor="middle" visibility="hidden" style="font-size: 13px;">R</text><text y="358" x="173.72262773722628" text-anchor="middle" visibility="hidden" style="font-size: 13px;">E</text><text y="358" x="178.83211678832117" text-anchor="middle" visibility="hidden" style="font-size: 13px;">C</text><text y="358" x="183.94160583941607" text-anchor="middle" visibility="hidden" style="font-size: 13px;">A</text><text y="358" x="189.05109489051094" text-anchor="middle" visibility="hidden" style="font-size: 13px;">Y</text><text y="358" x="194.16058394160584" text-anchor="middle" visibility="hidden" style="font-size: 13px;">C</text><text y="358" x="199.27007299270073" text-anchor="middle" visibility="hidden" style="font-size: 13px;">L</text><text y="358" x="204.3795620437956" text-anchor="middle" visibility="hidden" style="font-size: 13px;">T</text><text y="358" x="209.48905109489053" text-anchor="middle" visibility="hidden" style="font-size: 13px;">I</text><text y="358" x="214.59854014598542" text-anchor="middle" visibility="hidden" style="font-size: 13px;">N</text><text y="358" x="219.7080291970803" text-anchor="middle" visibility="hidden" style="font-size: 13px;">T</text><text y="358" x="224.8175182481752" text-anchor="middle" visibility="hidden" style="font-size: 13px;">T</text><text y="358" x="229.92700729927006" text-anchor="middle" visibility="hidden" style="font-size: 13px;">I</text><text y="358" x="235.03649635036496" text-anchor="middle" visibility="hidden" style="font-size: 13px;">C</text><text y="358" x="240.14598540145988" text-anchor="middle" visibility="hidden" style="font-size: 13px;">A</text><text y="358" x="245.25547445255475" text-anchor="middle" visibility="hidden" style="font-size: 13px;">G</text><text y="358" x="250.36496350364965" text-anchor="middle" visibility="hidden" style="font-size: 13px;">Y</text><text y="358" x="255.47445255474452" text-anchor="middle" visibility="hidden" style="font-size: 13px;">C</text><text y="358" x="260.5839416058394" text-anchor="middle" visibility="hidden" style="font-size: 13px;">M</text><text y="358" x="265.6934306569343" text-anchor="middle" visibility="hidden" style="font-size: 13px;">T</text><text y="358" x="270.8029197080292" text-anchor="middle" visibility="hidden" style="font-size: 13px;">R</text><text y="358" x="275.9124087591241" text-anchor="middle" visibility="hidden" style="font-size: 13px;">D</text><text y="358" x="281.021897810219" text-anchor="middle" visibility="hidden" style="font-size: 13px;">I</text><text y="358" x="286.13138686131384" text-anchor="middle" visibility="hidden" style="font-size: 13px;">N</text><text y="358" x="291.24087591240874" text-anchor="middle" visibility="hidden" style="font-size: 13px;">G</text><text y="358" x="296.35036496350364" text-anchor="middle" visibility="hidden" style="font-size: 13px;">K</text><text y="358" x="301.45985401459853" text-anchor="middle" visibility="hidden" style="font-size: 13px;">L</text><text y="358" x="306.56934306569343" text-anchor="middle" visibility="hidden" style="font-size: 13px;">F</text><text y="358" x="311.6788321167883" text-anchor="middle" visibility="hidden" style="font-size: 13px;">L</text><text y="358" x="316.7883211678832" text-anchor="middle" visibility="hidden" style="font-size: 13px;">P</text><text y="358" x="321.8978102189781" text-anchor="middle" visibility="hidden" style="font-size: 13px;">K</text><text y="358" x="327.00729927007296" text-anchor="middle" visibility="hidden" style="font-size: 13px;">Y</text><text y="358" x="332.11678832116786" text-anchor="middle" visibility="hidden" style="font-size: 13px;">A</text><text y="358" x="337.2262773722628" text-anchor="middle" visibility="hidden" style="font-size: 13px;">L</text><text y="358" x="342.33576642335765" text-anchor="middle" visibility="hidden" style="font-size: 13px;">S</text><text y="358" x="347.44525547445255" text-anchor="middle" visibility="hidden" style="font-size: 13px;">Q</text><text y="358" x="352.5547445255475" text-anchor="middle" visibility="hidden" style="font-size: 13px;">D</text><text y="358" x="357.66423357664235" text-anchor="middle" visibility="hidden" style="font-size: 13px;">V</text><text y="358" x="362.77372262773724" text-anchor="middle" visibility="hidden" style="font-size: 13px;">C</text><text y="358" x="367.88321167883214" text-anchor="middle" visibility="hidden" style="font-size: 13px;">T</text><text y="358" x="372.99270072992704" text-anchor="middle" visibility="hidden" style="font-size: 13px;">Y</text><text y="358" x="378.1021897810219" text-anchor="middle" visibility="hidden" style="font-size: 13px;">R</text><text y="358" x="383.2116788321168" text-anchor="middle" visibility="hidden" style="font-size: 13px;">D</text><text y="358" x="388.3211678832117" text-anchor="middle" visibility="hidden" style="font-size: 13px;">F</text><text y="358" x="393.43065693430657" text-anchor="middle" visibility="hidden" style="font-size: 13px;">I</text><text y="358" x="398.54014598540147" text-anchor="middle" visibility="hidden" style="font-size: 13px;">Y</text><text y="358" x="403.6496350364963" text-anchor="middle" visibility="hidden" style="font-size: 13px;">R</text><text y="358" x="408.7591240875912" text-anchor="middle" visibility="hidden" style="font-size: 13px;">T</text><text y="358" x="413.86861313868616" text-anchor="middle" visibility="hidden" style="font-size: 13px;">V</text><text y="358" x="418.97810218978105" text-anchor="middle" visibility="hidden" style="font-size: 13px;">E</text><text y="358" x="424.08759124087595" text-anchor="middle" visibility="hidden" style="font-size: 13px;">I</text><text y="358" x="429.19708029197085" text-anchor="middle" visibility="hidden" style="font-size: 13px;">P</text><text y="358" x="434.3065693430657" text-anchor="middle" visibility="hidden" style="font-size: 13px;">G</text><text y="358" x="439.4160583941606" text-anchor="middle" visibility="hidden" style="font-size: 13px;">C</text><text y="358" x="444.5255474452555" text-anchor="middle" visibility="hidden" style="font-size: 13px;">P</text><text y="358" x="449.6350364963504" text-anchor="middle" visibility="hidden" style="font-size: 13px;">L</text><text y="358" x="454.7445255474452" text-anchor="middle" visibility="hidden" style="font-size: 13px;">H</text><text y="358" x="459.8540145985401" text-anchor="middle" visibility="hidden" style="font-size: 13px;">V</text><text y="358" x="464.963503649635" text-anchor="middle" visibility="hidden" style="font-size: 13px;">A</text><text y="358" x="470.0729927007299" text-anchor="middle" visibility="hidden" style="font-size: 13px;">P</text><text y="358" x="475.18248175182475" text-anchor="middle" visibility="hidden" style="font-size: 13px;">Y</text><text y="358" x="480.29197080291976" text-anchor="middle" visibility="hidden" style="font-size: 13px;">F</text><text y="358" x="485.4014598540146" text-anchor="middle" visibility="hidden" style="font-size: 13px;">S</text><text y="358" x="490.5109489051095" text-anchor="middle" visibility="hidden" style="font-size: 13px;">Y</text><text y="358" x="495.6204379562044" text-anchor="middle" visibility="hidden" style="font-size: 13px;">P</text><text y="358" x="500.7299270072993" text-anchor="middle" visibility="hidden" style="font-size: 13px;">V</text><text y="358" x="505.8394160583942" text-anchor="middle" visibility="hidden" style="font-size: 13px;">A</text><text y="358" x="510.94890510948903" text-anchor="middle" visibility="hidden" style="font-size: 13px;">L</text><text y="358" x="516.0583941605839" text-anchor="middle" visibility="hidden" style="font-size: 13px;">S</text><text y="358" x="521.1678832116788" text-anchor="middle" visibility="hidden" style="font-size: 13px;">C</text><text y="358" x="526.2773722627737" text-anchor="middle" visibility="hidden" style="font-size: 13px;">K</text><text y="358" x="531.3868613138686" text-anchor="middle" visibility="hidden" style="font-size: 13px;">C</text><text y="358" x="536.4963503649635" text-anchor="middle" visibility="hidden" style="font-size: 13px;">G</text><text y="358" x="541.6058394160584" text-anchor="middle" visibility="hidden" style="font-size: 13px;">K</text><text y="358" x="546.7153284671533" text-anchor="middle" visibility="hidden" style="font-size: 13px;">C</text><text y="358" x="551.8248175182482" text-anchor="middle" visibility="hidden" style="font-size: 13px;">N</text><text y="358" x="556.9343065693431" text-anchor="middle" visibility="hidden" style="font-size: 13px;">T</text><text y="358" x="562.043795620438" text-anchor="middle" visibility="hidden" style="font-size: 13px;">D</text><text y="358" x="567.1532846715329" text-anchor="middle" visibility="hidden" style="font-size: 13px;">Y</text><text y="358" x="572.2627737226277" text-anchor="middle" visibility="hidden" style="font-size: 13px;">S</text><text y="358" x="577.3722627737226" text-anchor="middle" visibility="hidden" style="font-size: 13px;">D</text><text y="358" x="582.4817518248175" text-anchor="middle" visibility="hidden" style="font-size: 13px;">C</text><text y="358" x="587.5912408759124" text-anchor="middle" visibility="hidden" style="font-size: 13px;">I</text><text y="358" x="592.7007299270073" text-anchor="middle" visibility="hidden" style="font-size: 13px;">H</text><text y="358" x="597.8102189781022" text-anchor="middle" visibility="hidden" style="font-size: 13px;">E</text><text y="358" x="602.9197080291971" text-anchor="middle" visibility="hidden" style="font-size: 13px;">A</text><text y="358" x="608.029197080292" text-anchor="middle" visibility="hidden" style="font-size: 13px;">I</text><text y="358" x="613.1386861313869" text-anchor="middle" visibility="hidden" style="font-size: 13px;">K</text><text y="358" x="618.2481751824818" text-anchor="middle" visibility="hidden" style="font-size: 13px;">T</text><text y="358" x="623.3576642335767" text-anchor="middle" visibility="hidden" style="font-size: 13px;">N</text><text y="358" x="628.4671532846716" text-anchor="middle" visibility="hidden" style="font-size: 13px;">Y</text><text y="358" x="633.5766423357665" text-anchor="middle" visibility="hidden" style="font-size: 13px;">C</text><text y="358" x="638.6861313868613" text-anchor="middle" visibility="hidden" style="font-size: 13px;">T</text><text y="358" x="643.7956204379562" text-anchor="middle" visibility="hidden" style="font-size: 13px;">K</text><text y="358" x="648.905109489051" text-anchor="middle" visibility="hidden" style="font-size: 13px;">P</text><text y="358" x="654.0145985401459" text-anchor="middle" visibility="hidden" style="font-size: 13px;">Q</text><text y="358" x="659.1240875912408" text-anchor="middle" visibility="hidden" style="font-size: 13px;">K</text><text y="358" x="664.2335766423357" text-anchor="middle" visibility="hidden" style="font-size: 13px;">S</text><text y="358" x="669.3430656934307" text-anchor="middle" visibility="hidden" style="font-size: 13px;">Y</text><text y="358" x="674.4525547445256" text-anchor="middle" visibility="hidden" style="font-size: 13px;">L</text><text y="358" x="679.5620437956204" text-anchor="middle" visibility="hidden" style="font-size: 13px;">V</text><text y="358" x="684.6715328467153" text-anchor="middle" visibility="hidden" style="font-size: 13px;">G</text><text y="358" x="689.7810218978102" text-anchor="middle" visibility="hidden" style="font-size: 13px;">F</text><text y="358" x="694.8905109489051" text-anchor="middle" visibility="hidden" style="font-size: 13px;">S</text><text y="358" x="700" text-anchor="middle" visibility="hidden" style="font-size: 13px;">V</text></g></g></svg><g class="xAxis" transform="translate(0,360)" fill="none" font-size="10" font-family="sans-serif" text-anchor="middle"><path class="domain" stroke="#000" d="M0.5,6V0.5H700.5V6"></path><g class="tick" opacity="1" transform="translate(46.48540145985402,0)"><line stroke="#000" y2="6"></line><text fill="#000" y="9" dy="0.71em">10</text></g><g class="tick" opacity="1" transform="translate(97.58029197080292,0)"><line stroke="#000" y2="6"></line><text fill="#000" y="9" dy="0.71em">20</text></g><g class="tick" opacity="1" transform="translate(148.67518248175182,0)"><line stroke="#000" y2="6"></line><text fill="#000" y="9" dy="0.71em">30</text></g><g class="tick" opacity="1" transform="translate(199.77007299270073,0)"><line stroke="#000" y2="6"></line><text fill="#000" y="9" dy="0.71em">40</text></g><g class="tick" opacity="1" transform="translate(250.86496350364965,0)"><line stroke="#000" y2="6"></line><text fill="#000" y="9" dy="0.71em">50</text></g><g class="tick" opacity="1" transform="translate(301.95985401459853,0)"><line stroke="#000" y2="6"></line><text fill="#000" y="9" dy="0.71em">60</text></g><g class="tick" opacity="1" transform="translate(353.0547445255475,0)"><line stroke="#000" y2="6"></line><text fill="#000" y="9" dy="0.71em">70</text></g><g class="tick" opacity="1" transform="translate(404.1496350364963,0)"><line stroke="#000" y2="6"></line><text fill="#000" y="9" dy="0.71em">80</text></g><g class="tick" opacity="1" transform="translate(455.2445255474452,0)"><line stroke="#000" y2="6"></line><text fill="#000" y="9" dy="0.71em">90</text></g><g class="tick" opacity="1" transform="translate(506.3394160583942,0)"><line stroke="#000" y2="6"></line><text fill="#000" y="9" dy="0.71em">100</text></g><g class="tick" opacity="1" transform="translate(557.4343065693431,0)"><line stroke="#000" y2="6"></line><text fill="#000" y="9" dy="0.71em">110</text></g><g class="tick" opacity="1" transform="translate(608.529197080292,0)"><line stroke="#000" y2="6"></line><text fill="#000" y="9" dy="0.71em">120</text></g><g class="tick" opacity="1" transform="translate(659.6240875912408,0)"><line stroke="#000" y2="6"></line><text fill="#000" y="9" dy="0.71em">130</text></g></g><text class="x label" text-anchor="end" x="700" y="390" style="font-size: 13px; font-family: Arial;">Residue number</text><g class="yAxis" fill="none" font-size="10" font-family="sans-serif" text-anchor="end"><path class="domain" stroke="#000" d="M-6,360.5H0.5V0.5H-6"></path><g class="tick" opacity="1" transform="translate(0,360.5)"><line stroke="#000" x2="-6"></line><text fill="#000" x="-9" dy="0.32em">0</text></g></g><text class="y label" text-anchor="middle" y="-50" x="-180" dy="0.8em" transform="rotate(-90)" style="font-size: 13px; font-family: Arial;">Total number of references</text><g class="axisRed" fill="none" font-size="10" font-family="sans-serif" text-anchor="start" visibility="hidden" transform="translate(700, 0)"><path class="domain" stroke="#000" d="M6,360.5H0.5V0.5H6"></path><g class="tick" opacity="1" transform="translate(0,360.5)"><line stroke="#000" x2="6"></line><text fill="#000" x="9" dy="0.32em">0</text></g><text text-anchor="start" dx="5.2em" dy="-2.6em" transform="rotate(90)" visibility="hidden" style="font-size: 12px; font-family: Arial; fill: #d7301f;">No recurrent (&gt;2) missense mutations!</text></g><g class="axisPurple" fill="none" font-size="10" font-family="sans-serif" text-anchor="start" visibility="hidden"><path class="domain" stroke="#000" d="M6,360.5H0.5V0.5H6"></path><g class="tick" opacity="1" transform="translate(0,357.52479338842977)"><line stroke="#000" x2="6"></line><text fill="#000" x="9" dy="0.32em"></text></g><g class="tick" opacity="1" transform="translate(0,327.77272727272725)"><line stroke="#000" x2="6"></line><text fill="#000" x="9" dy="0.32em">0</text></g><g class="tick" opacity="1" transform="translate(0,298.0206611570248)"><line stroke="#000" x2="6"></line><text fill="#000" x="9" dy="0.32em">0.1</text></g><g class="tick" opacity="1" transform="translate(0,268.2685950413223)"><line stroke="#000" x2="6"></line><text fill="#000" x="9" dy="0.32em">0.2</text></g><g class="tick" opacity="1" transform="translate(0,238.51652892561984)"><line stroke="#000" x2="6"></line><text fill="#000" x="9" dy="0.32em">0.3</text></g><g class="tick" opacity="1" transform="translate(0,208.76446280991738)"><line stroke="#000" x2="6"></line><text fill="#000" x="9" dy="0.32em">0.4</text></g><g class="tick" opacity="1" transform="translate(0,179.0123966942149)"><line stroke="#000" x2="6"></line><text fill="#000" x="9" dy="0.32em">0.5</text></g><g class="tick" opacity="1" transform="translate(0,149.26033057851242)"><line stroke="#000" x2="6"></line><text fill="#000" x="9" dy="0.32em">0.6</text></g><g class="tick" opacity="1" transform="translate(0,119.50826446280996)"><line stroke="#000" x2="6"></line><text fill="#000" x="9" dy="0.32em">0.7</text></g><g class="tick" opacity="1" transform="translate(0,89.75619834710744)"><line stroke="#000" x2="6"></line><text fill="#000" x="9" dy="0.32em">0.8</text></g><g class="tick" opacity="1" transform="translate(0,60.00413223140498)"><line stroke="#000" x2="6"></line><text fill="#000" x="9" dy="0.32em">0.9</text></g><g class="tick" opacity="1" transform="translate(0,30.25206611570252)"><line stroke="#000" x2="6"></line><text fill="#000" x="9" dy="0.32em">1</text></g><g class="tick" opacity="1" transform="translate(0,0.5)"><line stroke="#000" x2="6"></line><text fill="#000" x="9" dy="0.32em">1.1</text></g><text text-anchor="start" x="10" y="10" visibility="hidden" style="font-size: 12px; font-family: Arial; fill: #807dba;">No disease causing germline SNPs known!</text></g><circle cx="636" cy="15" r="10" class="compassNav" style="fill: #ffffff; stroke: #666666; stroke-width: 1px;"></circle><path d="M440.935 12.574l3.966 82.766C399.416 41.904 331.674 8 256 8 134.813 8 33.933 94.924 12.296 209.824 10.908 217.193 16.604 224 24.103 224h49.084c5.57 0 10.377-3.842 11.676-9.259C103.407 137.408 172.931 80 256 80c60.893 0 114.512 30.856 146.104 77.801l-101.53-4.865c-6.845-.328-12.574 5.133-12.574 11.986v47.411c0 6.627 5.373 12 12 12h200.333c6.627 0 12-5.373 12-12V12c0-6.627-5.373-12-12-12h-47.411c-6.853 0-12.315 5.729-11.987 12.574zM256 432c-60.895 0-114.517-30.858-146.109-77.805l101.868 4.871c6.845.327 12.573-5.134 12.573-11.986v-47.412c0-6.627-5.373-12-12-12H12c-6.627 0-12 5.373-12 12V500c0 6.627 5.373 12 12 12h47.385c6.863 0 12.328-5.745 11.985-12.599l-4.129-82.575C112.725 470.166 180.405 504 256 504c121.187 0 222.067-86.924 243.704-201.824 1.388-7.369-4.308-14.176-11.807-14.176h-49.084c-5.57 0-10.377 3.842-11.676 9.259C408.593 374.592 339.069 432 256 432z" class="compassNav" transform="translate(631, 10) scale(0.02)" style="fill: #666666; stroke: #666666; stroke-width: 1px;"></path><circle cx="658" cy="15" r="10" class="compassNav" style="fill: #ffffff; stroke: #666666; stroke-width: 1px;"></circle><line class="compassNav" stroke-width="2" stroke="#666666" x1="654" y1="15" x2="662" y2="15"></line><line class="compassNav" stroke-width="2" stroke="#666666" x1="658" y1="11" x2="658" y2="19"></line><circle cx="614" cy="15" r="10" class="compassNav" style="fill: #ffffff; stroke: #666666; stroke-width: 1px;"></circle><line class="compassNav" stroke-width="2" stroke="#666666" x1="610" y1="15" x2="618" y2="15"></line><path d="M582 14 l20 -12 a100,40 0 0,0 0,24z" class="compassNav" style="fill: #ffffff; stroke: #666666; stroke-width: 1px;"></path><path d="M690 14 l-20 -12 a100,40 0 0,1 0,24z" class="compassNav" style="fill: #ffffff; stroke: #666666; stroke-width: 1px;"></path><path d="M216 0h80c13.3 0 24 10.7 24 24v168h87.7c17.8 0 26.7 21.5 14.1 34.1L269.7 378.3c-7.5 7.5-19.8 7.5-27.3 0L90.1 226.1c-12.6-12.6-3.7-34.1 14.1-34.1H192V24c0-13.3 10.7-24 24-24zm296 376v112c0 13.3-10.7 24-24 24H24c-13.3 0-24-10.7-24-24V376c0-13.3 10.7-24 24-24h146.7l49 49c20.1 20.1 52.5 20.1 72.6 0l49-49H488c13.3 0 24 10.7 24 24zm-124 88c0-11-9-20-20-20s-20 9-20 20 9 20 20 20 20-9 20-20zm64 0c0-11-9-20-20-20s-20 9-20 20 9 20 20 20 20-9 20-20z" class="compassNav" transform="translate(552,0) scale(0.05)" style="fill: #336699; stroke: #336699; stroke-width: 1px; cursor: pointer;"></path></g></svg>