<svg width="800" height="400" style="background-color: white;"><g transform="translate(50,0)"><svg width="700" height="360"><g style="-webkit-tap-highlight-color: rgba(0, 0, 0, 0);"><rect width="700" height="360" style="fill: #ffffff;"></rect><g id="lines"><line class="line" stroke-width="1" stroke="#d7301f" x1="-736.4583333333333" y1="333" x2="-736.4583333333333" y2="360" visibility="hidden" style="stroke-dasharray: 3px, 3px;"></line></g><g><rect x="-741.4583333333333" y="355" width="10" height="10" visibility="hidden" style="fill: #ffffff; stroke: #d7301f;"></rect></g><g id="lines"><line class="line" stroke-width="1" stroke="#6a51a3" x1="-736.4583333333333" y1="333" x2="-736.4583333333333" y2="327.27272727272725" visibility="hidden" style="stroke-dasharray: 3px, 3px;"></line></g><g><rect x="-741.4583333333333" y="322.27272727272725" width="10" height="10" visibility="hidden" style="fill: #ffffff; stroke: #6a51a3;"></rect></g><g id="lines"><line class="line" stroke-width="1" stroke="#666666" x1="342.7083333333333" y1="333" x2="342.7083333333333" y2="284.7697756788666"></line><line class="line" stroke-width="1" stroke="#666666" x1="350" y1="333" x2="350" y2="29.752066115702462"></line><line class="line" stroke-width="1" stroke="#666666" x1="357.29166666666663" y1="333" x2="357.29166666666663" y2="318.77213695395517"></line><line class="line" stroke-width="1" stroke="#666666" x1="393.75" y1="333" x2="393.75" y2="174.26210153482882"></line><line class="line" stroke-width="1" stroke="#666666" x1="539.5833333333334" y1="333" x2="539.5833333333334" y2="318.77213695395517"></line><line class="line" stroke-width="1" stroke="#666666" x1="590.625" y1="333" x2="590.625" y2="267.7685950413223"></line><line class="line" stroke-width="1" stroke="#666666" x1="597.9166666666666" y1="333" x2="597.9166666666666" y2="293.27036599763875"></line></g><g id="circles"><circle r="4" cx="342.7083333333333" cy="284.7697756788666" style="fill: #4393c3; stroke: #666666; stroke-width: 1px;"></circle><circle r="4" cx="350" cy="29.752066115702462" style="fill: #4393c3; stroke: #666666; stroke-width: 1px;"></circle><circle r="4" cx="357.29166666666663" cy="318.77213695395517" style="fill: #4393c3; stroke: #666666; stroke-width: 1px;"></circle><circle r="4" cx="393.75" cy="174.26210153482882" style="fill: #4393c3; stroke: #666666; stroke-width: 1px;"></circle><circle r="4" cx="539.5833333333334" cy="318.77213695395517" style="fill: #4393c3; stroke: #666666; stroke-width: 1px;"></circle><circle r="4" cx="590.625" cy="267.7685950413223" style="fill: #4393c3; stroke: #666666; stroke-width: 1px;"></circle><circle r="4" cx="597.9166666666666" cy="293.27036599763875" style="fill: #4393c3; stroke: #666666; stroke-width: 1px;"></circle></g><g><rect x="0" y="333" width="700" height="12" style="fill: #ffffff; stroke-width: 1px; stroke: #666666;"></rect><rect x="211.45833333333331" y="333" width="247.91666666666669" height="12" style="fill: #aec7e8; stroke-width: 1px; stroke: #666666;"></rect></g><g><a target="_blank" xlink:href="http://pfam.xfam.org/family/"><text y="343" x="350" text-anchor="middle" style="color: rgb(102, 102, 102); font-weight: normal; font-size: 12px; font-family: Arial; cursor: pointer;"></text></a><a target="_blank" xlink:href="http://pfam.xfam.org/family/Hormone_3"><text y="343" x="335.41666666666663" text-anchor="middle" style="color: rgb(102, 102, 102); font-weight: normal; font-size: 12px; font-family: Arial; cursor: pointer;">Hormone_3</text></a></g><g><text y="358" x="0" text-anchor="middle" visibility="hidden" style="font-size: 13px;">M</text><text y="358" x="7.291666666666666" text-anchor="middle" visibility="hidden" style="font-size: 13px;">L</text><text y="358" x="14.583333333333332" text-anchor="middle" visibility="hidden" style="font-size: 13px;">G</text><text y="358" x="21.875" text-anchor="middle" visibility="hidden" style="font-size: 13px;">N</text><text y="358" x="29.166666666666664" text-anchor="middle" visibility="hidden" style="font-size: 13px;">K</text><text y="358" x="36.458333333333336" text-anchor="middle" visibility="hidden" style="font-size: 13px;">R</text><text y="358" x="43.75" text-anchor="middle" visibility="hidden" style="font-size: 13px;">L</text><text y="358" x="51.04166666666667" text-anchor="middle" visibility="hidden" style="font-size: 13px;">G</text><text y="358" x="58.33333333333333" text-anchor="middle" visibility="hidden" style="font-size: 13px;">L</text><text y="358" x="65.625" text-anchor="middle" visibility="hidden" style="font-size: 13px;">S</text><text y="358" x="72.91666666666667" text-anchor="middle" visibility="hidden" style="font-size: 13px;">G</text><text y="358" x="80.20833333333333" text-anchor="middle" visibility="hidden" style="font-size: 13px;">L</text><text y="358" x="87.5" text-anchor="middle" visibility="hidden" style="font-size: 13px;">T</text><text y="358" x="94.79166666666666" text-anchor="middle" visibility="hidden" style="font-size: 13px;">L</text><text y="358" x="102.08333333333334" text-anchor="middle" visibility="hidden" style="font-size: 13px;">A</text><text y="358" x="109.375" text-anchor="middle" visibility="hidden" style="font-size: 13px;">L</text><text y="358" x="116.66666666666666" text-anchor="middle" visibility="hidden" style="font-size: 13px;">S</text><text y="358" x="123.95833333333334" text-anchor="middle" visibility="hidden" style="font-size: 13px;">L</text><text y="358" x="131.25" text-anchor="middle" visibility="hidden" style="font-size: 13px;">L</text><text y="358" x="138.54166666666666" text-anchor="middle" visibility="hidden" style="font-size: 13px;">V</text><text y="358" x="145.83333333333334" text-anchor="middle" visibility="hidden" style="font-size: 13px;">C</text><text y="358" x="153.125" text-anchor="middle" visibility="hidden" style="font-size: 13px;">L</text><text y="358" x="160.41666666666666" text-anchor="middle" visibility="hidden" style="font-size: 13px;">G</text><text y="358" x="167.70833333333334" text-anchor="middle" visibility="hidden" style="font-size: 13px;">A</text><text y="358" x="175" text-anchor="middle" visibility="hidden" style="font-size: 13px;">L</text><text y="358" x="182.29166666666669" text-anchor="middle" visibility="hidden" style="font-size: 13px;">A</text><text y="358" x="189.58333333333331" text-anchor="middle" visibility="hidden" style="font-size: 13px;">E</text><text y="358" x="196.875" text-anchor="middle" visibility="hidden" style="font-size: 13px;">A</text><text y="358" x="204.16666666666669" text-anchor="middle" visibility="hidden" style="font-size: 13px;">Y</text><text y="358" x="211.45833333333331" text-anchor="middle" visibility="hidden" style="font-size: 13px;">P</text><text y="358" x="218.75" text-anchor="middle" visibility="hidden" style="font-size: 13px;">S</text><text y="358" x="226.04166666666669" text-anchor="middle" visibility="hidden" style="font-size: 13px;">K</text><text y="358" x="233.33333333333331" text-anchor="middle" visibility="hidden" style="font-size: 13px;">P</text><text y="358" x="240.625" text-anchor="middle" visibility="hidden" style="font-size: 13px;">D</text><text y="358" x="247.91666666666669" text-anchor="middle" visibility="hidden" style="font-size: 13px;">N</text><text y="358" x="255.20833333333331" text-anchor="middle" visibility="hidden" style="font-size: 13px;">P</text><text y="358" x="262.5" text-anchor="middle" visibility="hidden" style="font-size: 13px;">G</text><text y="358" x="269.7916666666667" text-anchor="middle" visibility="hidden" style="font-size: 13px;">E</text><text y="358" x="277.0833333333333" text-anchor="middle" visibility="hidden" style="font-size: 13px;">D</text><text y="358" x="284.375" text-anchor="middle" visibility="hidden" style="font-size: 13px;">A</text><text y="358" x="291.6666666666667" text-anchor="middle" visibility="hidden" style="font-size: 13px;">P</text><text y="358" x="298.9583333333333" text-anchor="middle" visibility="hidden" style="font-size: 13px;">A</text><text y="358" x="306.25" text-anchor="middle" visibility="hidden" style="font-size: 13px;">E</text><text y="358" x="313.5416666666667" text-anchor="middle" visibility="hidden" style="font-size: 13px;">D</text><text y="358" x="320.8333333333333" text-anchor="middle" visibility="hidden" style="font-size: 13px;">M</text><text y="358" x="328.125" text-anchor="middle" visibility="hidden" style="font-size: 13px;">A</text><text y="358" x="335.4166666666667" text-anchor="middle" visibility="hidden" style="font-size: 13px;">R</text><text y="358" x="342.7083333333333" text-anchor="middle" visibility="hidden" style="font-size: 13px;">Y</text><text y="358" x="350" text-anchor="middle" visibility="hidden" style="font-size: 13px;">Y</text><text y="358" x="357.29166666666663" text-anchor="middle" visibility="hidden" style="font-size: 13px;">S</text><text y="358" x="364.58333333333337" text-anchor="middle" visibility="hidden" style="font-size: 13px;">A</text><text y="358" x="371.875" text-anchor="middle" visibility="hidden" style="font-size: 13px;">L</text><text y="358" x="379.16666666666663" text-anchor="middle" visibility="hidden" style="font-size: 13px;">R</text><text y="358" x="386.45833333333337" text-anchor="middle" visibility="hidden" style="font-size: 13px;">H</text><text y="358" x="393.75" text-anchor="middle" visibility="hidden" style="font-size: 13px;">Y</text><text y="358" x="401.04166666666663" text-anchor="middle" visibility="hidden" style="font-size: 13px;">I</text><text y="358" x="408.33333333333337" text-anchor="middle" visibility="hidden" style="font-size: 13px;">N</text><text y="358" x="415.625" text-anchor="middle" visibility="hidden" style="font-size: 13px;">L</text><text y="358" x="422.91666666666663" text-anchor="middle" visibility="hidden" style="font-size: 13px;">I</text><text y="358" x="430.20833333333337" text-anchor="middle" visibility="hidden" style="font-size: 13px;">T</text><text y="358" x="437.5" text-anchor="middle" visibility="hidden" style="font-size: 13px;">R</text><text y="358" x="444.79166666666663" text-anchor="middle" visibility="hidden" style="font-size: 13px;">Q</text><text y="358" x="452.08333333333337" text-anchor="middle" visibility="hidden" style="font-size: 13px;">R</text><text y="358" x="459.375" text-anchor="middle" visibility="hidden" style="font-size: 13px;">Y</text><text y="358" x="466.66666666666663" text-anchor="middle" visibility="hidden" style="font-size: 13px;">G</text><text y="358" x="473.95833333333337" text-anchor="middle" visibility="hidden" style="font-size: 13px;">K</text><text y="358" x="481.25" text-anchor="middle" visibility="hidden" style="font-size: 13px;">R</text><text y="358" x="488.54166666666663" text-anchor="middle" visibility="hidden" style="font-size: 13px;">S</text><text y="358" x="495.83333333333337" text-anchor="middle" visibility="hidden" style="font-size: 13px;">S</text><text y="358" x="503.125" text-anchor="middle" visibility="hidden" style="font-size: 13px;">P</text><text y="358" x="510.41666666666663" text-anchor="middle" visibility="hidden" style="font-size: 13px;">E</text><text y="358" x="517.7083333333334" text-anchor="middle" visibility="hidden" style="font-size: 13px;">T</text><text y="358" x="525" text-anchor="middle" visibility="hidden" style="font-size: 13px;">L</text><text y="358" x="532.2916666666666" text-anchor="middle" visibility="hidden" style="font-size: 13px;">I</text><text y="358" x="539.5833333333334" text-anchor="middle" visibility="hidden" style="font-size: 13px;">S</text><text y="358" x="546.875" text-anchor="middle" visibility="hidden" style="font-size: 13px;">D</text><text y="358" x="554.1666666666666" text-anchor="middle" visibility="hidden" style="font-size: 13px;">L</text><text y="358" x="561.4583333333334" text-anchor="middle" visibility="hidden" style="font-size: 13px;">L</text><text y="358" x="568.75" text-anchor="middle" visibility="hidden" style="font-size: 13px;">M</text><text y="358" x="576.0416666666666" text-anchor="middle" visibility="hidden" style="font-size: 13px;">R</text><text y="358" x="583.3333333333334" text-anchor="middle" visibility="hidden" style="font-size: 13px;">E</text><text y="358" x="590.625" text-anchor="middle" visibility="hidden" style="font-size: 13px;">S</text><text y="358" x="597.9166666666666" text-anchor="middle" visibility="hidden" style="font-size: 13px;">T</text><text y="358" x="605.2083333333334" text-anchor="middle" visibility="hidden" style="font-size: 13px;">E</text><text y="358" x="612.5" text-anchor="middle" visibility="hidden" style="font-size: 13px;">N</text><text y="358" x="619.7916666666666" text-anchor="middle" visibility="hidden" style="font-size: 13px;">V</text><text y="358" x="627.0833333333334" text-anchor="middle" visibility="hidden" style="font-size: 13px;">P</text><text y="358" x="634.375" text-anchor="middle" visibility="hidden" style="font-size: 13px;">R</text><text y="358" x="641.6666666666666" text-anchor="middle" visibility="hidden" style="font-size: 13px;">T</text><text y="358" x="648.9583333333334" text-anchor="middle" visibility="hidden" style="font-size: 13px;">R</text><text y="358" x="656.25" text-anchor="middle" visibility="hidden" style="font-size: 13px;">L</text><text y="358" x="663.5416666666666" text-anchor="middle" visibility="hidden" style="font-size: 13px;">E</text><text y="358" x="670.8333333333334" text-anchor="middle" visibility="hidden" style="font-size: 13px;">D</text><text y="358" x="678.125" text-anchor="middle" visibility="hidden" style="font-size: 13px;">P</text><text y="358" x="685.4166666666666" text-anchor="middle" visibility="hidden" style="font-size: 13px;">A</text><text y="358" x="692.7083333333334" text-anchor="middle" visibility="hidden" style="font-size: 13px;">M</text><text y="358" x="700" text-anchor="middle" visibility="hidden" style="font-size: 13px;">W</text></g></g></svg><g class="xAxis" transform="translate(0,360)" fill="none" font-size="10" font-family="sans-serif" text-anchor="middle"><path class="domain" stroke="#000" d="M0.5,6V0.5H700.5V6"></path><g class="tick" opacity="1" transform="translate(66.125,0)"><line stroke="#000" y2="6"></line><text fill="#000" y="9" dy="0.71em">10</text></g><g class="tick" opacity="1" transform="translate(139.04166666666666,0)"><line stroke="#000" y2="6"></line><text fill="#000" y="9" dy="0.71em">20</text></g><g class="tick" opacity="1" transform="translate(211.95833333333331,0)"><line stroke="#000" y2="6"></line><text fill="#000" y="9" dy="0.71em">30</text></g><g class="tick" opacity="1" transform="translate(284.875,0)"><line stroke="#000" y2="6"></line><text fill="#000" y="9" dy="0.71em">40</text></g><g class="tick" opacity="1" transform="translate(357.79166666666663,0)"><line stroke="#000" y2="6"></line><text fill="#000" y="9" dy="0.71em">50</text></g><g class="tick" opacity="1" transform="translate(430.70833333333337,0)"><line stroke="#000" y2="6"></line><text fill="#000" y="9" dy="0.71em">60</text></g><g class="tick" opacity="1" transform="translate(503.625,0)"><line stroke="#000" y2="6"></line><text fill="#000" y="9" dy="0.71em">70</text></g><g class="tick" opacity="1" transform="translate(576.5416666666666,0)"><line stroke="#000" y2="6"></line><text fill="#000" y="9" dy="0.71em">80</text></g><g class="tick" opacity="1" transform="translate(649.4583333333334,0)"><line stroke="#000" y2="6"></line><text fill="#000" y="9" dy="0.71em">90</text></g></g><text class="x label" text-anchor="end" x="700" y="390" style="font-size: 13px; font-family: Arial;">Residue number</text><g class="yAxis" fill="none" font-size="10" font-family="sans-serif" text-anchor="end"><path class="domain" stroke="#000" d="M-6,360.5H0.5V0.5H-6"></path><g class="tick" opacity="1" transform="translate(0,327.77272727272725)"><line stroke="#000" x2="-6"></line><text fill="#000" x="-9" dy="0.32em">0</text></g><g class="tick" opacity="1" transform="translate(0,285.2697756788666)"><line stroke="#000" x2="-6"></line><text fill="#000" x="-9" dy="0.32em">5</text></g><g class="tick" opacity="1" transform="translate(0,242.7668240850059)"><line stroke="#000" x2="-6"></line><text fill="#000" x="-9" dy="0.32em">10</text></g><g class="tick" opacity="1" transform="translate(0,200.2638724911452)"><line stroke="#000" x2="-6"></line><text fill="#000" x="-9" dy="0.32em">15</text></g><g class="tick" opacity="1" transform="translate(0,157.76092089728454)"><line stroke="#000" x2="-6"></line><text fill="#000" x="-9" dy="0.32em">20</text></g><g class="tick" opacity="1" transform="translate(0,115.25796930342383)"><line stroke="#000" x2="-6"></line><text fill="#000" x="-9" dy="0.32em">25</text></g><g class="tick" opacity="1" transform="translate(0,72.75501770956316)"><line stroke="#000" x2="-6"></line><text fill="#000" x="-9" dy="0.32em">30</text></g><g class="tick" opacity="1" transform="translate(0,30.252066115702462)"><line stroke="#000" x2="-6"></line><text fill="#000" x="-9" dy="0.32em">35</text></g></g><text class="y label" text-anchor="middle" y="-50" x="-180" dy="0.8em" transform="rotate(-90)" style="font-size: 13px; font-family: Arial;">Total number of references</text><g class="axisRed" fill="none" font-size="10" font-family="sans-serif" text-anchor="start" visibility="hidden" transform="translate(700, 0)"><path class="domain" stroke="#000" d="M6,360.5H0.5V0.5H6"></path><g class="tick" opacity="1" transform="translate(0,360.5)"><line stroke="#000" x2="6"></line><text fill="#000" x="9" dy="0.32em">0</text></g><text text-anchor="start" dx="5.2em" dy="-2.6em" transform="rotate(90)" visibility="hidden" style="font-size: 12px; font-family: Arial; fill: #d7301f;">No recurrent (&gt;2) missense mutations!</text></g><g class="axisPurple" fill="none" font-size="10" font-family="sans-serif" text-anchor="start" visibility="hidden"><path class="domain" stroke="#000" d="M6,360.5H0.5V0.5H6"></path><g class="tick" opacity="1" transform="translate(0,357.52479338842977)"><line stroke="#000" x2="6"></line><text fill="#000" x="9" dy="0.32em"></text></g><g class="tick" opacity="1" transform="translate(0,327.77272727272725)"><line stroke="#000" x2="6"></line><text fill="#000" x="9" dy="0.32em">0</text></g><g class="tick" opacity="1" transform="translate(0,298.0206611570248)"><line stroke="#000" x2="6"></line><text fill="#000" x="9" dy="0.32em">0.1</text></g><g class="tick" opacity="1" transform="translate(0,268.2685950413223)"><line stroke="#000" x2="6"></line><text fill="#000" x="9" dy="0.32em">0.2</text></g><g class="tick" opacity="1" transform="translate(0,238.51652892561984)"><line stroke="#000" x2="6"></line><text fill="#000" x="9" dy="0.32em">0.3</text></g><g class="tick" opacity="1" transform="translate(0,208.76446280991738)"><line stroke="#000" x2="6"></line><text fill="#000" x="9" dy="0.32em">0.4</text></g><g class="tick" opacity="1" transform="translate(0,179.0123966942149)"><line stroke="#000" x2="6"></line><text fill="#000" x="9" dy="0.32em">0.5</text></g><g class="tick" opacity="1" transform="translate(0,149.26033057851242)"><line stroke="#000" x2="6"></line><text fill="#000" x="9" dy="0.32em">0.6</text></g><g class="tick" opacity="1" transform="translate(0,119.50826446280996)"><line stroke="#000" x2="6"></line><text fill="#000" x="9" dy="0.32em">0.7</text></g><g class="tick" opacity="1" transform="translate(0,89.75619834710744)"><line stroke="#000" x2="6"></line><text fill="#000" x="9" dy="0.32em">0.8</text></g><g class="tick" opacity="1" transform="translate(0,60.00413223140498)"><line stroke="#000" x2="6"></line><text fill="#000" x="9" dy="0.32em">0.9</text></g><g class="tick" opacity="1" transform="translate(0,30.25206611570252)"><line stroke="#000" x2="6"></line><text fill="#000" x="9" dy="0.32em">1</text></g><g class="tick" opacity="1" transform="translate(0,0.5)"><line stroke="#000" x2="6"></line><text fill="#000" x="9" dy="0.32em">1.1</text></g><text text-anchor="start" x="10" y="10" visibility="hidden" style="font-size: 12px; font-family: Arial; fill: #807dba;">No disease causing germline SNPs known!</text></g><circle cx="636" cy="15" r="10" class="compassNav" style="fill: #ffffff; stroke: #666666; stroke-width: 1px;"></circle><path d="M440.935 12.574l3.966 82.766C399.416 41.904 331.674 8 256 8 134.813 8 33.933 94.924 12.296 209.824 10.908 217.193 16.604 224 24.103 224h49.084c5.57 0 10.377-3.842 11.676-9.259C103.407 137.408 172.931 80 256 80c60.893 0 114.512 30.856 146.104 77.801l-101.53-4.865c-6.845-.328-12.574 5.133-12.574 11.986v47.411c0 6.627 5.373 12 12 12h200.333c6.627 0 12-5.373 12-12V12c0-6.627-5.373-12-12-12h-47.411c-6.853 0-12.315 5.729-11.987 12.574zM256 432c-60.895 0-114.517-30.858-146.109-77.805l101.868 4.871c6.845.327 12.573-5.134 12.573-11.986v-47.412c0-6.627-5.373-12-12-12H12c-6.627 0-12 5.373-12 12V500c0 6.627 5.373 12 12 12h47.385c6.863 0 12.328-5.745 11.985-12.599l-4.129-82.575C112.725 470.166 180.405 504 256 504c121.187 0 222.067-86.924 243.704-201.824 1.388-7.369-4.308-14.176-11.807-14.176h-49.084c-5.57 0-10.377 3.842-11.676 9.259C408.593 374.592 339.069 432 256 432z" class="compassNav" transform="translate(631, 10) scale(0.02)" style="fill: #666666; stroke: #666666; stroke-width: 1px;"></path><circle cx="658" cy="15" r="10" class="compassNav" style="fill: #ffffff; stroke: #666666; stroke-width: 1px;"></circle><line class="compassNav" stroke-width="2" stroke="#666666" x1="654" y1="15" x2="662" y2="15"></line><line class="compassNav" stroke-width="2" stroke="#666666" x1="658" y1="11" x2="658" y2="19"></line><circle cx="614" cy="15" r="10" class="compassNav" style="fill: #ffffff; stroke: #666666; stroke-width: 1px;"></circle><line class="compassNav" stroke-width="2" stroke="#666666" x1="610" y1="15" x2="618" y2="15"></line><path d="M582 14 l20 -12 a100,40 0 0,0 0,24z" class="compassNav" style="fill: #ffffff; stroke: #666666; stroke-width: 1px;"></path><path d="M690 14 l-20 -12 a100,40 0 0,1 0,24z" class="compassNav" style="fill: #ffffff; stroke: #666666; stroke-width: 1px;"></path><path d="M216 0h80c13.3 0 24 10.7 24 24v168h87.7c17.8 0 26.7 21.5 14.1 34.1L269.7 378.3c-7.5 7.5-19.8 7.5-27.3 0L90.1 226.1c-12.6-12.6-3.7-34.1 14.1-34.1H192V24c0-13.3 10.7-24 24-24zm296 376v112c0 13.3-10.7 24-24 24H24c-13.3 0-24-10.7-24-24V376c0-13.3 10.7-24 24-24h146.7l49 49c20.1 20.1 52.5 20.1 72.6 0l49-49H488c13.3 0 24 10.7 24 24zm-124 88c0-11-9-20-20-20s-20 9-20 20 9 20 20 20 20-9 20-20zm64 0c0-11-9-20-20-20s-20 9-20 20 9 20 20 20 20-9 20-20z" class="compassNav" transform="translate(552,0) scale(0.05)" style="fill: #336699; stroke: #336699; stroke-width: 1px; cursor: pointer;"></path></g></svg>