<svg width="800" height="400" style="background-color: white;"><g transform="translate(50,0)"><svg width="700" height="360"><g style="-webkit-tap-highlight-color: rgba(0, 0, 0, 0);"><rect width="700" height="360" style="fill: #ffffff;"></rect><g id="lines"><line class="line" stroke-width="1" stroke="#d7301f" x1="-714.1414141414141" y1="333" x2="-714.1414141414141" y2="360" visibility="hidden" style="stroke-dasharray: 3px, 3px;"></line></g><g><rect x="-719.1414141414141" y="355" width="10" height="10" visibility="hidden" style="fill: #ffffff; stroke: #d7301f;"></rect></g><g id="lines"><line class="line" stroke-width="1" stroke="#6a51a3" x1="-714.1414141414141" y1="333" x2="-714.1414141414141" y2="327.27272727272725" visibility="hidden" style="stroke-dasharray: 3px, 3px;"></line></g><g><rect x="-719.1414141414141" y="322.27272727272725" width="10" height="10" visibility="hidden" style="fill: #ffffff; stroke: #6a51a3;"></rect></g><g id="lines"><line class="line" stroke-width="1" stroke="#666666" x1="219.1919191919192" y1="333" x2="219.1919191919192" y2="252.8925619834711"></line><line class="line" stroke-width="1" stroke="#666666" x1="240.4040404040404" y1="333" x2="240.4040404040404" y2="252.8925619834711"></line><line class="line" stroke-width="1" stroke="#666666" x1="254.54545454545456" y1="333" x2="254.54545454545456" y2="178.5123966942149"></line><line class="line" stroke-width="1" stroke="#666666" x1="289.8989898989899" y1="333" x2="289.8989898989899" y2="252.8925619834711"></line><line class="line" stroke-width="1" stroke="#666666" x1="353.5353535353536" y1="333" x2="353.5353535353536" y2="252.8925619834711"></line><line class="line" stroke-width="1" stroke="#666666" x1="367.6767676767677" y1="333" x2="367.6767676767677" y2="252.8925619834711"></line><line class="line" stroke-width="1" stroke="#666666" x1="374.74747474747477" y1="333" x2="374.74747474747477" y2="104.13223140495873"></line><line class="line" stroke-width="1" stroke="#666666" x1="410.1010101010101" y1="333" x2="410.1010101010101" y2="252.8925619834711"></line><line class="line" stroke-width="1" stroke="#666666" x1="431.3131313131313" y1="333" x2="431.3131313131313" y2="252.8925619834711"></line><line class="line" stroke-width="1" stroke="#666666" x1="431.3131313131313" y1="333" x2="431.3131313131313" y2="178.5123966942149"></line><line class="line" stroke-width="1" stroke="#666666" x1="431.3131313131313" y1="333" x2="431.3131313131313" y2="252.8925619834711"></line><line class="line" stroke-width="1" stroke="#666666" x1="466.66666666666663" y1="333" x2="466.66666666666663" y2="104.13223140495873"></line><line class="line" stroke-width="1" stroke="#666666" x1="466.66666666666663" y1="333" x2="466.66666666666663" y2="104.13223140495873"></line><line class="line" stroke-width="1" stroke="#666666" x1="473.73737373737373" y1="333" x2="473.73737373737373" y2="29.75206611570252"></line><line class="line" stroke-width="1" stroke="#666666" x1="509.0909090909091" y1="333" x2="509.0909090909091" y2="252.8925619834711"></line><line class="line" stroke-width="1" stroke="#666666" x1="671.7171717171717" y1="333" x2="671.7171717171717" y2="252.8925619834711"></line></g><g id="circles"><circle r="4" cx="219.1919191919192" cy="252.8925619834711" style="fill: #4393c3; stroke: #666666; stroke-width: 1px;"></circle><circle r="4" cx="240.4040404040404" cy="252.8925619834711" style="fill: #4393c3; stroke: #666666; stroke-width: 1px;"></circle><circle r="4" cx="254.54545454545456" cy="178.5123966942149" style="fill: #4393c3; stroke: #666666; stroke-width: 1px;"></circle><circle r="4" cx="289.8989898989899" cy="252.8925619834711" style="fill: #666666; stroke: #666666; stroke-width: 1px;"></circle><circle r="4" cx="353.5353535353536" cy="252.8925619834711" style="fill: #bf812d; stroke: #666666; stroke-width: 1px;"></circle><circle r="4" cx="367.6767676767677" cy="252.8925619834711" style="fill: #bf812d; stroke: #666666; stroke-width: 1px;"></circle><circle r="4" cx="374.74747474747477" cy="104.13223140495873" style="fill: #4393c3; stroke: #666666; stroke-width: 1px;"></circle><circle r="4" cx="410.1010101010101" cy="252.8925619834711" style="fill: #4393c3; stroke: #666666; stroke-width: 1px;"></circle><circle r="4" cx="431.3131313131313" cy="252.8925619834711" style="fill: #5aae61; stroke: #666666; stroke-width: 1px;"></circle><circle r="4" cx="431.3131313131313" cy="178.5123966942149" style="fill: #bf812d; stroke: #666666; stroke-width: 1px;"></circle><circle r="4" cx="431.3131313131313" cy="252.8925619834711" style="fill: #666666; stroke: #666666; stroke-width: 1px;"></circle><circle r="4" cx="466.66666666666663" cy="104.13223140495873" style="fill: #5aae61; stroke: #666666; stroke-width: 1px;"></circle><circle r="4" cx="466.66666666666663" cy="104.13223140495873" style="fill: #bf812d; stroke: #666666; stroke-width: 1px;"></circle><circle r="4" cx="473.73737373737373" cy="29.75206611570252" style="fill: #4393c3; stroke: #666666; stroke-width: 1px;"></circle><circle r="4" cx="509.0909090909091" cy="252.8925619834711" style="fill: #4393c3; stroke: #666666; stroke-width: 1px;"></circle><circle r="4" cx="671.7171717171717" cy="252.8925619834711" style="fill: #bf812d; stroke: #666666; stroke-width: 1px;"></circle></g><g><rect x="0" y="333" width="700" height="12" style="fill: #ffffff; stroke-width: 1px; stroke: #666666;"></rect><rect x="162.62626262626262" y="333" width="523.2323232323232" height="12" style="fill: #aec7e8; stroke-width: 1px; stroke: #666666;"></rect></g><g><a target="_blank" xlink:href="http://pfam.xfam.org/family/"><text y="343" x="350" text-anchor="middle" style="color: rgb(102, 102, 102); font-weight: normal; font-size: 12px; font-family: Arial; cursor: pointer;"></text></a><a target="_blank" xlink:href="http://pfam.xfam.org/family/ApoA-II"><text y="343" x="424.2424242424242" text-anchor="middle" style="color: rgb(102, 102, 102); font-weight: normal; font-size: 12px; font-family: Arial; cursor: pointer;">ApoA-II</text></a></g><g><text y="358" x="0" text-anchor="middle" visibility="hidden" style="font-size: 13px;">M</text><text y="358" x="7.070707070707071" text-anchor="middle" visibility="hidden" style="font-size: 13px;">K</text><text y="358" x="14.141414141414142" text-anchor="middle" visibility="hidden" style="font-size: 13px;">L</text><text y="358" x="21.21212121212121" text-anchor="middle" visibility="hidden" style="font-size: 13px;">L</text><text y="358" x="28.282828282828284" text-anchor="middle" visibility="hidden" style="font-size: 13px;">A</text><text y="358" x="35.35353535353535" text-anchor="middle" visibility="hidden" style="font-size: 13px;">A</text><text y="358" x="42.42424242424242" text-anchor="middle" visibility="hidden" style="font-size: 13px;">T</text><text y="358" x="49.494949494949495" text-anchor="middle" visibility="hidden" style="font-size: 13px;">V</text><text y="358" x="56.56565656565657" text-anchor="middle" visibility="hidden" style="font-size: 13px;">L</text><text y="358" x="63.63636363636364" text-anchor="middle" visibility="hidden" style="font-size: 13px;">L</text><text y="358" x="70.7070707070707" text-anchor="middle" visibility="hidden" style="font-size: 13px;">L</text><text y="358" x="77.77777777777777" text-anchor="middle" visibility="hidden" style="font-size: 13px;">T</text><text y="358" x="84.84848484848484" text-anchor="middle" visibility="hidden" style="font-size: 13px;">I</text><text y="358" x="91.91919191919193" text-anchor="middle" visibility="hidden" style="font-size: 13px;">C</text><text y="358" x="98.98989898989899" text-anchor="middle" visibility="hidden" style="font-size: 13px;">S</text><text y="358" x="106.06060606060606" text-anchor="middle" visibility="hidden" style="font-size: 13px;">L</text><text y="358" x="113.13131313131314" text-anchor="middle" visibility="hidden" style="font-size: 13px;">E</text><text y="358" x="120.2020202020202" text-anchor="middle" visibility="hidden" style="font-size: 13px;">G</text><text y="358" x="127.27272727272728" text-anchor="middle" visibility="hidden" style="font-size: 13px;">A</text><text y="358" x="134.34343434343432" text-anchor="middle" visibility="hidden" style="font-size: 13px;">L</text><text y="358" x="141.4141414141414" text-anchor="middle" visibility="hidden" style="font-size: 13px;">V</text><text y="358" x="148.4848484848485" text-anchor="middle" visibility="hidden" style="font-size: 13px;">R</text><text y="358" x="155.55555555555554" text-anchor="middle" visibility="hidden" style="font-size: 13px;">R</text><text y="358" x="162.62626262626262" text-anchor="middle" visibility="hidden" style="font-size: 13px;">Q</text><text y="358" x="169.6969696969697" text-anchor="middle" visibility="hidden" style="font-size: 13px;">A</text><text y="358" x="176.7676767676768" text-anchor="middle" visibility="hidden" style="font-size: 13px;">K</text><text y="358" x="183.83838383838386" text-anchor="middle" visibility="hidden" style="font-size: 13px;">E</text><text y="358" x="190.9090909090909" text-anchor="middle" visibility="hidden" style="font-size: 13px;">P</text><text y="358" x="197.97979797979798" text-anchor="middle" visibility="hidden" style="font-size: 13px;">C</text><text y="358" x="205.05050505050505" text-anchor="middle" visibility="hidden" style="font-size: 13px;">V</text><text y="358" x="212.12121212121212" text-anchor="middle" visibility="hidden" style="font-size: 13px;">E</text><text y="358" x="219.1919191919192" text-anchor="middle" visibility="hidden" style="font-size: 13px;">S</text><text y="358" x="226.26262626262627" text-anchor="middle" visibility="hidden" style="font-size: 13px;">L</text><text y="358" x="233.33333333333331" text-anchor="middle" visibility="hidden" style="font-size: 13px;">V</text><text y="358" x="240.4040404040404" text-anchor="middle" visibility="hidden" style="font-size: 13px;">S</text><text y="358" x="247.4747474747475" text-anchor="middle" visibility="hidden" style="font-size: 13px;">Q</text><text y="358" x="254.54545454545456" text-anchor="middle" visibility="hidden" style="font-size: 13px;">Y</text><text y="358" x="261.6161616161616" text-anchor="middle" visibility="hidden" style="font-size: 13px;">F</text><text y="358" x="268.68686868686865" text-anchor="middle" visibility="hidden" style="font-size: 13px;">Q</text><text y="358" x="275.75757575757575" text-anchor="middle" visibility="hidden" style="font-size: 13px;">T</text><text y="358" x="282.8282828282828" text-anchor="middle" visibility="hidden" style="font-size: 13px;">V</text><text y="358" x="289.8989898989899" text-anchor="middle" visibility="hidden" style="font-size: 13px;">T</text><text y="358" x="296.969696969697" text-anchor="middle" visibility="hidden" style="font-size: 13px;">D</text><text y="358" x="304.04040404040404" text-anchor="middle" visibility="hidden" style="font-size: 13px;">Y</text><text y="358" x="311.1111111111111" text-anchor="middle" visibility="hidden" style="font-size: 13px;">G</text><text y="358" x="318.1818181818182" text-anchor="middle" visibility="hidden" style="font-size: 13px;">K</text><text y="358" x="325.25252525252523" text-anchor="middle" visibility="hidden" style="font-size: 13px;">D</text><text y="358" x="332.32323232323233" text-anchor="middle" visibility="hidden" style="font-size: 13px;">L</text><text y="358" x="339.3939393939394" text-anchor="middle" visibility="hidden" style="font-size: 13px;">M</text><text y="358" x="346.4646464646465" text-anchor="middle" visibility="hidden" style="font-size: 13px;">E</text><text y="358" x="353.5353535353536" text-anchor="middle" visibility="hidden" style="font-size: 13px;">K</text><text y="358" x="360.6060606060606" text-anchor="middle" visibility="hidden" style="font-size: 13px;">V</text><text y="358" x="367.6767676767677" text-anchor="middle" visibility="hidden" style="font-size: 13px;">K</text><text y="358" x="374.74747474747477" text-anchor="middle" visibility="hidden" style="font-size: 13px;">S</text><text y="358" x="381.8181818181818" text-anchor="middle" visibility="hidden" style="font-size: 13px;">P</text><text y="358" x="388.8888888888889" text-anchor="middle" visibility="hidden" style="font-size: 13px;">E</text><text y="358" x="395.95959595959596" text-anchor="middle" visibility="hidden" style="font-size: 13px;">L</text><text y="358" x="403.03030303030306" text-anchor="middle" visibility="hidden" style="font-size: 13px;">Q</text><text y="358" x="410.1010101010101" text-anchor="middle" visibility="hidden" style="font-size: 13px;">A</text><text y="358" x="417.17171717171715" text-anchor="middle" visibility="hidden" style="font-size: 13px;">E</text><text y="358" x="424.24242424242425" text-anchor="middle" visibility="hidden" style="font-size: 13px;">A</text><text y="358" x="431.3131313131313" text-anchor="middle" visibility="hidden" style="font-size: 13px;">K</text><text y="358" x="438.3838383838384" text-anchor="middle" visibility="hidden" style="font-size: 13px;">S</text><text y="358" x="445.45454545454544" text-anchor="middle" visibility="hidden" style="font-size: 13px;">Y</text><text y="358" x="452.52525252525254" text-anchor="middle" visibility="hidden" style="font-size: 13px;">F</text><text y="358" x="459.5959595959596" text-anchor="middle" visibility="hidden" style="font-size: 13px;">E</text><text y="358" x="466.66666666666663" text-anchor="middle" visibility="hidden" style="font-size: 13px;">K</text><text y="358" x="473.73737373737373" text-anchor="middle" visibility="hidden" style="font-size: 13px;">S</text><text y="358" x="480.8080808080808" text-anchor="middle" visibility="hidden" style="font-size: 13px;">K</text><text y="358" x="487.87878787878793" text-anchor="middle" visibility="hidden" style="font-size: 13px;">E</text><text y="358" x="494.949494949495" text-anchor="middle" visibility="hidden" style="font-size: 13px;">Q</text><text y="358" x="502.02020202020196" text-anchor="middle" visibility="hidden" style="font-size: 13px;">L</text><text y="358" x="509.0909090909091" text-anchor="middle" visibility="hidden" style="font-size: 13px;">T</text><text y="358" x="516.1616161616162" text-anchor="middle" visibility="hidden" style="font-size: 13px;">P</text><text y="358" x="523.2323232323232" text-anchor="middle" visibility="hidden" style="font-size: 13px;">L</text><text y="358" x="530.3030303030303" text-anchor="middle" visibility="hidden" style="font-size: 13px;">I</text><text y="358" x="537.3737373737373" text-anchor="middle" visibility="hidden" style="font-size: 13px;">K</text><text y="358" x="544.4444444444445" text-anchor="middle" visibility="hidden" style="font-size: 13px;">K</text><text y="358" x="551.5151515151515" text-anchor="middle" visibility="hidden" style="font-size: 13px;">A</text><text y="358" x="558.5858585858587" text-anchor="middle" visibility="hidden" style="font-size: 13px;">G</text><text y="358" x="565.6565656565656" text-anchor="middle" visibility="hidden" style="font-size: 13px;">T</text><text y="358" x="572.7272727272727" text-anchor="middle" visibility="hidden" style="font-size: 13px;">E</text><text y="358" x="579.7979797979798" text-anchor="middle" visibility="hidden" style="font-size: 13px;">L</text><text y="358" x="586.8686868686868" text-anchor="middle" visibility="hidden" style="font-size: 13px;">V</text><text y="358" x="593.939393939394" text-anchor="middle" visibility="hidden" style="font-size: 13px;">N</text><text y="358" x="601.010101010101" text-anchor="middle" visibility="hidden" style="font-size: 13px;">F</text><text y="358" x="608.0808080808081" text-anchor="middle" visibility="hidden" style="font-size: 13px;">L</text><text y="358" x="615.1515151515151" text-anchor="middle" visibility="hidden" style="font-size: 13px;">S</text><text y="358" x="622.2222222222222" text-anchor="middle" visibility="hidden" style="font-size: 13px;">Y</text><text y="358" x="629.2929292929293" text-anchor="middle" visibility="hidden" style="font-size: 13px;">F</text><text y="358" x="636.3636363636364" text-anchor="middle" visibility="hidden" style="font-size: 13px;">V</text><text y="358" x="643.4343434343434" text-anchor="middle" visibility="hidden" style="font-size: 13px;">E</text><text y="358" x="650.5050505050505" text-anchor="middle" visibility="hidden" style="font-size: 13px;">L</text><text y="358" x="657.5757575757576" text-anchor="middle" visibility="hidden" style="font-size: 13px;">G</text><text y="358" x="664.6464646464647" text-anchor="middle" visibility="hidden" style="font-size: 13px;">T</text><text y="358" x="671.7171717171717" text-anchor="middle" visibility="hidden" style="font-size: 13px;">Q</text><text y="358" x="678.7878787878788" text-anchor="middle" visibility="hidden" style="font-size: 13px;">P</text><text y="358" x="685.8585858585858" text-anchor="middle" visibility="hidden" style="font-size: 13px;">A</text><text y="358" x="692.929292929293" text-anchor="middle" visibility="hidden" style="font-size: 13px;">T</text><text y="358" x="700" text-anchor="middle" visibility="hidden" style="font-size: 13px;">Q</text></g></g></svg><g class="xAxis" transform="translate(0,360)" fill="none" font-size="10" font-family="sans-serif" text-anchor="middle"><path class="domain" stroke="#000" d="M0.5,6V0.5H700.5V6"></path><g class="tick" opacity="1" transform="translate(64.13636363636364,0)"><line stroke="#000" y2="6"></line><text fill="#000" y="9" dy="0.71em">10</text></g><g class="tick" opacity="1" transform="translate(134.84343434343432,0)"><line stroke="#000" y2="6"></line><text fill="#000" y="9" dy="0.71em">20</text></g><g class="tick" opacity="1" transform="translate(205.55050505050505,0)"><line stroke="#000" y2="6"></line><text fill="#000" y="9" dy="0.71em">30</text></g><g class="tick" opacity="1" transform="translate(276.25757575757575,0)"><line stroke="#000" y2="6"></line><text fill="#000" y="9" dy="0.71em">40</text></g><g class="tick" opacity="1" transform="translate(346.9646464646465,0)"><line stroke="#000" y2="6"></line><text fill="#000" y="9" dy="0.71em">50</text></g><g class="tick" opacity="1" transform="translate(417.67171717171715,0)"><line stroke="#000" y2="6"></line><text fill="#000" y="9" dy="0.71em">60</text></g><g class="tick" opacity="1" transform="translate(488.37878787878793,0)"><line stroke="#000" y2="6"></line><text fill="#000" y="9" dy="0.71em">70</text></g><g class="tick" opacity="1" transform="translate(559.0858585858587,0)"><line stroke="#000" y2="6"></line><text fill="#000" y="9" dy="0.71em">80</text></g><g class="tick" opacity="1" transform="translate(629.7929292929293,0)"><line stroke="#000" y2="6"></line><text fill="#000" y="9" dy="0.71em">90</text></g><g class="tick" opacity="1" transform="translate(700.5,0)"><line stroke="#000" y2="6"></line><text fill="#000" y="9" dy="0.71em">100</text></g></g><text class="x label" text-anchor="end" x="700" y="390" style="font-size: 13px; font-family: Arial;">Residue number</text><g class="yAxis" fill="none" font-size="10" font-family="sans-serif" text-anchor="end"><path class="domain" stroke="#000" d="M-6,360.5H0.5V0.5H-6"></path><g class="tick" opacity="1" transform="translate(0,327.77272727272725)"><line stroke="#000" x2="-6"></line><text fill="#000" x="-9" dy="0.32em">0</text></g><g class="tick" opacity="1" transform="translate(0,290.58264462809916)"><line stroke="#000" x2="-6"></line><text fill="#000" x="-9" dy="0.32em">0.5</text></g><g class="tick" opacity="1" transform="translate(0,253.3925619834711)"><line stroke="#000" x2="-6"></line><text fill="#000" x="-9" dy="0.32em">1</text></g><g class="tick" opacity="1" transform="translate(0,216.202479338843)"><line stroke="#000" x2="-6"></line><text fill="#000" x="-9" dy="0.32em">1.5</text></g><g class="tick" opacity="1" transform="translate(0,179.0123966942149)"><line stroke="#000" x2="-6"></line><text fill="#000" x="-9" dy="0.32em">2</text></g><g class="tick" opacity="1" transform="translate(0,141.82231404958682)"><line stroke="#000" x2="-6"></line><text fill="#000" x="-9" dy="0.32em">2.5</text></g><g class="tick" opacity="1" transform="translate(0,104.63223140495873)"><line stroke="#000" x2="-6"></line><text fill="#000" x="-9" dy="0.32em">3</text></g><g class="tick" opacity="1" transform="translate(0,67.44214876033061)"><line stroke="#000" x2="-6"></line><text fill="#000" x="-9" dy="0.32em">3.5</text></g><g class="tick" opacity="1" transform="translate(0,30.25206611570252)"><line stroke="#000" x2="-6"></line><text fill="#000" x="-9" dy="0.32em">4</text></g></g><text class="y label" text-anchor="middle" y="-50" x="-180" dy="0.8em" transform="rotate(-90)" style="font-size: 13px; font-family: Arial;">Total number of references</text><g class="axisRed" fill="none" font-size="10" font-family="sans-serif" text-anchor="start" visibility="hidden" transform="translate(700, 0)"><path class="domain" stroke="#000" d="M6,360.5H0.5V0.5H6"></path><g class="tick" opacity="1" transform="translate(0,360.5)"><line stroke="#000" x2="6"></line><text fill="#000" x="9" dy="0.32em">0</text></g><text text-anchor="start" dx="5.2em" dy="-2.6em" transform="rotate(90)" visibility="hidden" style="font-size: 12px; font-family: Arial; fill: #d7301f;">No recurrent (&gt;2) missense mutations!</text></g><g class="axisPurple" fill="none" font-size="10" font-family="sans-serif" text-anchor="start" visibility="hidden"><path class="domain" stroke="#000" d="M6,360.5H0.5V0.5H6"></path><g class="tick" opacity="1" transform="translate(0,357.52479338842977)"><line stroke="#000" x2="6"></line><text fill="#000" x="9" dy="0.32em"></text></g><g class="tick" opacity="1" transform="translate(0,327.77272727272725)"><line stroke="#000" x2="6"></line><text fill="#000" x="9" dy="0.32em">0</text></g><g class="tick" opacity="1" transform="translate(0,298.0206611570248)"><line stroke="#000" x2="6"></line><text fill="#000" x="9" dy="0.32em">0.1</text></g><g class="tick" opacity="1" transform="translate(0,268.2685950413223)"><line stroke="#000" x2="6"></line><text fill="#000" x="9" dy="0.32em">0.2</text></g><g class="tick" opacity="1" transform="translate(0,238.51652892561984)"><line stroke="#000" x2="6"></line><text fill="#000" x="9" dy="0.32em">0.3</text></g><g class="tick" opacity="1" transform="translate(0,208.76446280991738)"><line stroke="#000" x2="6"></line><text fill="#000" x="9" dy="0.32em">0.4</text></g><g class="tick" opacity="1" transform="translate(0,179.0123966942149)"><line stroke="#000" x2="6"></line><text fill="#000" x="9" dy="0.32em">0.5</text></g><g class="tick" opacity="1" transform="translate(0,149.26033057851242)"><line stroke="#000" x2="6"></line><text fill="#000" x="9" dy="0.32em">0.6</text></g><g class="tick" opacity="1" transform="translate(0,119.50826446280996)"><line stroke="#000" x2="6"></line><text fill="#000" x="9" dy="0.32em">0.7</text></g><g class="tick" opacity="1" transform="translate(0,89.75619834710744)"><line stroke="#000" x2="6"></line><text fill="#000" x="9" dy="0.32em">0.8</text></g><g class="tick" opacity="1" transform="translate(0,60.00413223140498)"><line stroke="#000" x2="6"></line><text fill="#000" x="9" dy="0.32em">0.9</text></g><g class="tick" opacity="1" transform="translate(0,30.25206611570252)"><line stroke="#000" x2="6"></line><text fill="#000" x="9" dy="0.32em">1</text></g><g class="tick" opacity="1" transform="translate(0,0.5)"><line stroke="#000" x2="6"></line><text fill="#000" x="9" dy="0.32em">1.1</text></g><text text-anchor="start" x="10" y="10" visibility="hidden" style="font-size: 12px; font-family: Arial; fill: #807dba;">No disease causing germline SNPs known!</text></g><circle cx="636" cy="15" r="10" class="compassNav" style="fill: #ffffff; stroke: #666666; stroke-width: 1px;"></circle><path d="M440.935 12.574l3.966 82.766C399.416 41.904 331.674 8 256 8 134.813 8 33.933 94.924 12.296 209.824 10.908 217.193 16.604 224 24.103 224h49.084c5.57 0 10.377-3.842 11.676-9.259C103.407 137.408 172.931 80 256 80c60.893 0 114.512 30.856 146.104 77.801l-101.53-4.865c-6.845-.328-12.574 5.133-12.574 11.986v47.411c0 6.627 5.373 12 12 12h200.333c6.627 0 12-5.373 12-12V12c0-6.627-5.373-12-12-12h-47.411c-6.853 0-12.315 5.729-11.987 12.574zM256 432c-60.895 0-114.517-30.858-146.109-77.805l101.868 4.871c6.845.327 12.573-5.134 12.573-11.986v-47.412c0-6.627-5.373-12-12-12H12c-6.627 0-12 5.373-12 12V500c0 6.627 5.373 12 12 12h47.385c6.863 0 12.328-5.745 11.985-12.599l-4.129-82.575C112.725 470.166 180.405 504 256 504c121.187 0 222.067-86.924 243.704-201.824 1.388-7.369-4.308-14.176-11.807-14.176h-49.084c-5.57 0-10.377 3.842-11.676 9.259C408.593 374.592 339.069 432 256 432z" class="compassNav" transform="translate(631, 10) scale(0.02)" style="fill: #666666; stroke: #666666; stroke-width: 1px;"></path><circle cx="658" cy="15" r="10" class="compassNav" style="fill: #ffffff; stroke: #666666; stroke-width: 1px;"></circle><line class="compassNav" stroke-width="2" stroke="#666666" x1="654" y1="15" x2="662" y2="15"></line><line class="compassNav" stroke-width="2" stroke="#666666" x1="658" y1="11" x2="658" y2="19"></line><circle cx="614" cy="15" r="10" class="compassNav" style="fill: #ffffff; stroke: #666666; stroke-width: 1px;"></circle><line class="compassNav" stroke-width="2" stroke="#666666" x1="610" y1="15" x2="618" y2="15"></line><path d="M582 14 l20 -12 a100,40 0 0,0 0,24z" class="compassNav" style="fill: #ffffff; stroke: #666666; stroke-width: 1px;"></path><path d="M690 14 l-20 -12 a100,40 0 0,1 0,24z" class="compassNav" style="fill: #ffffff; stroke: #666666; stroke-width: 1px;"></path><path d="M216 0h80c13.3 0 24 10.7 24 24v168h87.7c17.8 0 26.7 21.5 14.1 34.1L269.7 378.3c-7.5 7.5-19.8 7.5-27.3 0L90.1 226.1c-12.6-12.6-3.7-34.1 14.1-34.1H192V24c0-13.3 10.7-24 24-24zm296 376v112c0 13.3-10.7 24-24 24H24c-13.3 0-24-10.7-24-24V376c0-13.3 10.7-24 24-24h146.7l49 49c20.1 20.1 52.5 20.1 72.6 0l49-49H488c13.3 0 24 10.7 24 24zm-124 88c0-11-9-20-20-20s-20 9-20 20 9 20 20 20 20-9 20-20zm64 0c0-11-9-20-20-20s-20 9-20 20 9 20 20 20 20-9 20-20z" class="compassNav" transform="translate(552,0) scale(0.05)" style="fill: #336699; stroke: #336699; stroke-width: 1px; cursor: pointer;"></path></g></svg>