<svg width="800" height="400" style="background-color: white;"><g transform="translate(50,0)"><svg width="700" height="360"><g style="-webkit-tap-highlight-color: rgba(0, 0, 0, 0);"><rect width="700" height="360" style="fill: #ffffff;"></rect><g id="lines"><line class="line" stroke-width="1" stroke="#d7301f" x1="-420.8333333333333" y1="333" x2="-420.8333333333333" y2="360" visibility="hidden" style="stroke-dasharray: 3px, 3px;"></line></g><g><rect x="-425.8333333333333" y="355" width="10" height="10" visibility="hidden" style="fill: #ffffff; stroke: #d7301f;"></rect></g><g id="lines"><line class="line" stroke-width="1" stroke="#6a51a3" x1="-420.8333333333333" y1="333" x2="-420.8333333333333" y2="327.27272727272725" visibility="hidden" style="stroke-dasharray: 3px, 3px;"></line></g><g><rect x="-425.8333333333333" y="322.27272727272725" width="10" height="10" visibility="hidden" style="fill: #ffffff; stroke: #6a51a3;"></rect></g><g id="lines"><line class="line" stroke-width="1" stroke="#666666" x1="12.5" y1="333" x2="12.5" y2="324.4391971664699"></line><line class="line" stroke-width="1" stroke="#666666" x1="25" y1="333" x2="25" y2="307.43801652892563"></line><line class="line" stroke-width="1" stroke="#666666" x1="37.5" y1="333" x2="37.5" y2="301.7709563164109"></line><line class="line" stroke-width="1" stroke="#666666" x1="41.666666666666664" y1="333" x2="41.666666666666664" y2="324.4391971664699"></line><line class="line" stroke-width="1" stroke="#666666" x1="41.666666666666664" y1="333" x2="41.666666666666664" y2="321.6056670602125"></line><line class="line" stroke-width="1" stroke="#666666" x1="41.666666666666664" y1="333" x2="41.666666666666664" y2="324.4391971664699"></line><line class="line" stroke-width="1" stroke="#666666" x1="45.833333333333336" y1="333" x2="45.833333333333336" y2="307.43801652892563"></line><line class="line" stroke-width="1" stroke="#666666" x1="58.33333333333333" y1="333" x2="58.33333333333333" y2="310.271546635183"></line><line class="line" stroke-width="1" stroke="#666666" x1="66.66666666666666" y1="333" x2="66.66666666666666" y2="304.60448642266823"></line><line class="line" stroke-width="1" stroke="#666666" x1="70.83333333333333" y1="333" x2="70.83333333333333" y2="307.43801652892563"></line><line class="line" stroke-width="1" stroke="#666666" x1="133.33333333333331" y1="333" x2="133.33333333333331" y2="293.2703659976387"></line><line class="line" stroke-width="1" stroke="#666666" x1="154.16666666666666" y1="333" x2="154.16666666666666" y2="313.10507674144037"></line><line class="line" stroke-width="1" stroke="#666666" x1="154.16666666666666" y1="333" x2="154.16666666666666" y2="324.4391971664699"></line><line class="line" stroke-width="1" stroke="#666666" x1="166.66666666666666" y1="333" x2="166.66666666666666" y2="324.4391971664699"></line><line class="line" stroke-width="1" stroke="#666666" x1="179.16666666666666" y1="333" x2="179.16666666666666" y2="321.6056670602125"></line><line class="line" stroke-width="1" stroke="#666666" x1="183.33333333333334" y1="333" x2="183.33333333333334" y2="324.4391971664699"></line><line class="line" stroke-width="1" stroke="#666666" x1="191.66666666666669" y1="333" x2="191.66666666666669" y2="321.6056670602125"></line><line class="line" stroke-width="1" stroke="#666666" x1="220.83333333333331" y1="333" x2="220.83333333333331" y2="310.271546635183"></line><line class="line" stroke-width="1" stroke="#666666" x1="229.16666666666666" y1="333" x2="229.16666666666666" y2="324.4391971664699"></line><line class="line" stroke-width="1" stroke="#666666" x1="254.16666666666666" y1="333" x2="254.16666666666666" y2="324.4391971664699"></line><line class="line" stroke-width="1" stroke="#666666" x1="262.5" y1="333" x2="262.5" y2="321.6056670602125"></line><line class="line" stroke-width="1" stroke="#666666" x1="266.66666666666663" y1="333" x2="266.66666666666663" y2="318.7721369539551"></line><line class="line" stroke-width="1" stroke="#666666" x1="275" y1="333" x2="275" y2="29.752066115702462"></line><line class="line" stroke-width="1" stroke="#666666" x1="283.3333333333333" y1="333" x2="283.3333333333333" y2="256.4344746162928"></line><line class="line" stroke-width="1" stroke="#666666" x1="283.3333333333333" y1="333" x2="283.3333333333333" y2="324.4391971664699"></line><line class="line" stroke-width="1" stroke="#666666" x1="300" y1="333" x2="300" y2="321.6056670602125"></line><line class="line" stroke-width="1" stroke="#666666" x1="300" y1="333" x2="300" y2="267.7685950413223"></line><line class="line" stroke-width="1" stroke="#666666" x1="304.1666666666667" y1="333" x2="304.1666666666667" y2="253.60094451003542"></line><line class="line" stroke-width="1" stroke="#666666" x1="325" y1="333" x2="325" y2="315.93860684769777"></line><line class="line" stroke-width="1" stroke="#666666" x1="325" y1="333" x2="325" y2="324.4391971664699"></line><line class="line" stroke-width="1" stroke="#666666" x1="370.8333333333333" y1="333" x2="370.8333333333333" y2="318.7721369539551"></line><line class="line" stroke-width="1" stroke="#666666" x1="370.8333333333333" y1="333" x2="370.8333333333333" y2="270.60212514757967"></line><line class="line" stroke-width="1" stroke="#666666" x1="387.5" y1="333" x2="387.5" y2="307.43801652892563"></line><line class="line" stroke-width="1" stroke="#666666" x1="400" y1="333" x2="400" y2="230.9327036599764"></line><line class="line" stroke-width="1" stroke="#666666" x1="429.1666666666667" y1="333" x2="429.1666666666667" y2="321.6056670602125"></line><line class="line" stroke-width="1" stroke="#666666" x1="437.5" y1="333" x2="437.5" y2="310.271546635183"></line><line class="line" stroke-width="1" stroke="#666666" x1="437.5" y1="333" x2="437.5" y2="315.93860684769777"></line><line class="line" stroke-width="1" stroke="#666666" x1="450.00000000000006" y1="333" x2="450.00000000000006" y2="318.7721369539551"></line><line class="line" stroke-width="1" stroke="#666666" x1="470.83333333333337" y1="333" x2="470.83333333333337" y2="281.9362455726092"></line><line class="line" stroke-width="1" stroke="#666666" x1="500" y1="333" x2="500" y2="318.7721369539551"></line><line class="line" stroke-width="1" stroke="#666666" x1="500" y1="333" x2="500" y2="301.7709563164109"></line><line class="line" stroke-width="1" stroke="#666666" x1="520.8333333333334" y1="333" x2="520.8333333333334" y2="256.4344746162928"></line><line class="line" stroke-width="1" stroke="#666666" x1="533.3333333333333" y1="333" x2="533.3333333333333" y2="321.6056670602125"></line><line class="line" stroke-width="1" stroke="#666666" x1="541.6666666666666" y1="333" x2="541.6666666666666" y2="318.7721369539551"></line><line class="line" stroke-width="1" stroke="#666666" x1="583.3333333333334" y1="333" x2="583.3333333333334" y2="324.4391971664699"></line><line class="line" stroke-width="1" stroke="#666666" x1="583.3333333333334" y1="333" x2="583.3333333333334" y2="315.93860684769777"></line><line class="line" stroke-width="1" stroke="#666666" x1="591.6666666666666" y1="333" x2="591.6666666666666" y2="140.25974025974025"></line><line class="line" stroke-width="1" stroke="#666666" x1="612.5" y1="333" x2="612.5" y2="313.10507674144037"></line><line class="line" stroke-width="1" stroke="#666666" x1="620.8333333333333" y1="333" x2="620.8333333333333" y2="315.93860684769777"></line><line class="line" stroke-width="1" stroke="#666666" x1="625" y1="333" x2="625" y2="324.4391971664699"></line><line class="line" stroke-width="1" stroke="#666666" x1="637.5" y1="333" x2="637.5" y2="324.4391971664699"></line><line class="line" stroke-width="1" stroke="#666666" x1="662.5" y1="333" x2="662.5" y2="315.93860684769777"></line><line class="line" stroke-width="1" stroke="#666666" x1="670.8333333333334" y1="333" x2="670.8333333333334" y2="321.6056670602125"></line><line class="line" stroke-width="1" stroke="#666666" x1="679.1666666666666" y1="333" x2="679.1666666666666" y2="301.7709563164109"></line></g><g id="circles"><circle r="4" cx="12.5" cy="324.4391971664699" style="fill: #bf812d; stroke: #666666; stroke-width: 1px;"></circle><circle r="4" cx="25" cy="307.43801652892563" style="fill: #4393c3; stroke: #666666; stroke-width: 1px;"></circle><circle r="4" cx="37.5" cy="301.7709563164109" style="fill: #4393c3; stroke: #666666; stroke-width: 1px;"></circle><circle r="4" cx="41.666666666666664" cy="324.4391971664699" style="fill: #666666; stroke: #666666; stroke-width: 1px;"></circle><circle r="4" cx="41.666666666666664" cy="321.6056670602125" style="fill: #5aae61; stroke: #666666; stroke-width: 1px;"></circle><circle r="4" cx="41.666666666666664" cy="324.4391971664699" style="fill: #bf812d; stroke: #666666; stroke-width: 1px;"></circle><circle r="4" cx="45.833333333333336" cy="307.43801652892563" style="fill: #4393c3; stroke: #666666; stroke-width: 1px;"></circle><circle r="4" cx="58.33333333333333" cy="310.271546635183" style="fill: #4393c3; stroke: #666666; stroke-width: 1px;"></circle><circle r="4" cx="66.66666666666666" cy="304.60448642266823" style="fill: #4393c3; stroke: #666666; stroke-width: 1px;"></circle><circle r="4" cx="70.83333333333333" cy="307.43801652892563" style="fill: #4393c3; stroke: #666666; stroke-width: 1px;"></circle><circle r="4" cx="133.33333333333331" cy="293.2703659976387" style="fill: #4393c3; stroke: #666666; stroke-width: 1px;"></circle><circle r="4" cx="154.16666666666666" cy="313.10507674144037" style="fill: #4393c3; stroke: #666666; stroke-width: 1px;"></circle><circle r="4" cx="154.16666666666666" cy="324.4391971664699" style="fill: #666666; stroke: #666666; stroke-width: 1px;"></circle><circle r="4" cx="166.66666666666666" cy="324.4391971664699" style="fill: #666666; stroke: #666666; stroke-width: 1px;"></circle><circle r="4" cx="179.16666666666666" cy="321.6056670602125" style="fill: #4393c3; stroke: #666666; stroke-width: 1px;"></circle><circle r="4" cx="183.33333333333334" cy="324.4391971664699" style="fill: #4393c3; stroke: #666666; stroke-width: 1px;"></circle><circle r="4" cx="191.66666666666669" cy="321.6056670602125" style="fill: #666666; stroke: #666666; stroke-width: 1px;"></circle><circle r="4" cx="220.83333333333331" cy="310.271546635183" style="fill: #4393c3; stroke: #666666; stroke-width: 1px;"></circle><circle r="4" cx="229.16666666666666" cy="324.4391971664699" style="fill: #666666; stroke: #666666; stroke-width: 1px;"></circle><circle r="4" cx="254.16666666666666" cy="324.4391971664699" style="fill: #4393c3; stroke: #666666; stroke-width: 1px;"></circle><circle r="4" cx="262.5" cy="321.6056670602125" style="fill: #4393c3; stroke: #666666; stroke-width: 1px;"></circle><circle r="4" cx="266.66666666666663" cy="318.7721369539551" style="fill: #4393c3; stroke: #666666; stroke-width: 1px;"></circle><circle r="4" cx="275" cy="29.752066115702462" style="fill: #4393c3; stroke: #666666; stroke-width: 1px;"></circle><circle r="4" cx="283.3333333333333" cy="256.4344746162928" style="fill: #4393c3; stroke: #666666; stroke-width: 1px;"></circle><circle r="4" cx="283.3333333333333" cy="324.4391971664699" style="fill: #666666; stroke: #666666; stroke-width: 1px;"></circle><circle r="4" cx="300" cy="321.6056670602125" style="fill: #5aae61; stroke: #666666; stroke-width: 1px;"></circle><circle r="4" cx="300" cy="267.7685950413223" style="fill: #bf812d; stroke: #666666; stroke-width: 1px;"></circle><circle r="4" cx="304.1666666666667" cy="253.60094451003542" style="fill: #4393c3; stroke: #666666; stroke-width: 1px;"></circle><circle r="4" cx="325" cy="315.93860684769777" style="fill: #4393c3; stroke: #666666; stroke-width: 1px;"></circle><circle r="4" cx="325" cy="324.4391971664699" style="fill: #666666; stroke: #666666; stroke-width: 1px;"></circle><circle r="4" cx="370.8333333333333" cy="318.7721369539551" style="fill: #5aae61; stroke: #666666; stroke-width: 1px;"></circle><circle r="4" cx="370.8333333333333" cy="270.60212514757967" style="fill: #bf812d; stroke: #666666; stroke-width: 1px;"></circle><circle r="4" cx="387.5" cy="307.43801652892563" style="fill: #4393c3; stroke: #666666; stroke-width: 1px;"></circle><circle r="4" cx="400" cy="230.9327036599764" style="fill: #4393c3; stroke: #666666; stroke-width: 1px;"></circle><circle r="4" cx="429.1666666666667" cy="321.6056670602125" style="fill: #666666; stroke: #666666; stroke-width: 1px;"></circle><circle r="4" cx="437.5" cy="310.271546635183" style="fill: #666666; stroke: #666666; stroke-width: 1px;"></circle><circle r="4" cx="437.5" cy="315.93860684769777" style="fill: #666666; stroke: #666666; stroke-width: 1px;"></circle><circle r="4" cx="450.00000000000006" cy="318.7721369539551" style="fill: #4393c3; stroke: #666666; stroke-width: 1px;"></circle><circle r="4" cx="470.83333333333337" cy="281.9362455726092" style="fill: #4393c3; stroke: #666666; stroke-width: 1px;"></circle><circle r="4" cx="500" cy="318.7721369539551" style="fill: #5aae61; stroke: #666666; stroke-width: 1px;"></circle><circle r="4" cx="500" cy="301.7709563164109" style="fill: #bf812d; stroke: #666666; stroke-width: 1px;"></circle><circle r="4" cx="520.8333333333334" cy="256.4344746162928" style="fill: #4393c3; stroke: #666666; stroke-width: 1px;"></circle><circle r="4" cx="533.3333333333333" cy="321.6056670602125" style="fill: #666666; stroke: #666666; stroke-width: 1px;"></circle><circle r="4" cx="541.6666666666666" cy="318.7721369539551" style="fill: #4393c3; stroke: #666666; stroke-width: 1px;"></circle><circle r="4" cx="583.3333333333334" cy="324.4391971664699" style="fill: #5aae61; stroke: #666666; stroke-width: 1px;"></circle><circle r="4" cx="583.3333333333334" cy="315.93860684769777" style="fill: #bf812d; stroke: #666666; stroke-width: 1px;"></circle><circle r="4" cx="591.6666666666666" cy="140.25974025974025" style="fill: #4393c3; stroke: #666666; stroke-width: 1px;"></circle><circle r="4" cx="612.5" cy="313.10507674144037" style="fill: #4393c3; stroke: #666666; stroke-width: 1px;"></circle><circle r="4" cx="620.8333333333333" cy="315.93860684769777" style="fill: #4393c3; stroke: #666666; stroke-width: 1px;"></circle><circle r="4" cx="625" cy="324.4391971664699" style="fill: #5aae61; stroke: #666666; stroke-width: 1px;"></circle><circle r="4" cx="637.5" cy="324.4391971664699" style="fill: #5aae61; stroke: #666666; stroke-width: 1px;"></circle><circle r="4" cx="662.5" cy="315.93860684769777" style="fill: #4393c3; stroke: #666666; stroke-width: 1px;"></circle><circle r="4" cx="670.8333333333334" cy="321.6056670602125" style="fill: #4393c3; stroke: #666666; stroke-width: 1px;"></circle><circle r="4" cx="679.1666666666666" cy="301.7709563164109" style="fill: #4393c3; stroke: #666666; stroke-width: 1px;"></circle></g><g><rect x="0" y="333" width="700" height="12" style="fill: #ffffff; stroke-width: 1px; stroke: #666666;"></rect><rect x="50" y="333" width="650" height="12" style="fill: #aec7e8; stroke-width: 1px; stroke: #666666;"></rect></g><g><a target="_blank" xlink:href="http://pfam.xfam.org/family/"><text y="343" x="350" text-anchor="middle" style="color: rgb(102, 102, 102); font-weight: normal; font-size: 12px; font-family: Arial; cursor: pointer;"></text></a><a target="_blank" xlink:href="http://pfam.xfam.org/family/Myelin_MBP"><text y="343" x="375" text-anchor="middle" style="color: rgb(102, 102, 102); font-weight: normal; font-size: 12px; font-family: Arial; cursor: pointer;">Myelin_MBP</text></a></g><g><text y="358" x="0" text-anchor="middle" visibility="hidden" style="font-size: 13px;">A</text><text y="358" x="4.166666666666666" text-anchor="middle" visibility="hidden" style="font-size: 13px;">A</text><text y="358" x="8.333333333333332" text-anchor="middle" visibility="hidden" style="font-size: 13px;">Q</text><text y="358" x="12.5" text-anchor="middle" visibility="hidden" style="font-size: 13px;">K</text><text y="358" x="16.666666666666664" text-anchor="middle" visibility="hidden" style="font-size: 13px;">R</text><text y="358" x="20.833333333333332" text-anchor="middle" visibility="hidden" style="font-size: 13px;">P</text><text y="358" x="25" text-anchor="middle" visibility="hidden" style="font-size: 13px;">S</text><text y="358" x="29.166666666666664" text-anchor="middle" visibility="hidden" style="font-size: 13px;">Q</text><text y="358" x="33.33333333333333" text-anchor="middle" visibility="hidden" style="font-size: 13px;">R</text><text y="358" x="37.5" text-anchor="middle" visibility="hidden" style="font-size: 13px;">S</text><text y="358" x="41.666666666666664" text-anchor="middle" visibility="hidden" style="font-size: 13px;">K</text><text y="358" x="45.833333333333336" text-anchor="middle" visibility="hidden" style="font-size: 13px;">Y</text><text y="358" x="50" text-anchor="middle" visibility="hidden" style="font-size: 13px;">L</text><text y="358" x="54.16666666666667" text-anchor="middle" visibility="hidden" style="font-size: 13px;">A</text><text y="358" x="58.33333333333333" text-anchor="middle" visibility="hidden" style="font-size: 13px;">S</text><text y="358" x="62.5" text-anchor="middle" visibility="hidden" style="font-size: 13px;">A</text><text y="358" x="66.66666666666666" text-anchor="middle" visibility="hidden" style="font-size: 13px;">S</text><text y="358" x="70.83333333333333" text-anchor="middle" visibility="hidden" style="font-size: 13px;">T</text><text y="358" x="75" text-anchor="middle" visibility="hidden" style="font-size: 13px;">M</text><text y="358" x="79.16666666666667" text-anchor="middle" visibility="hidden" style="font-size: 13px;">D</text><text y="358" x="83.33333333333333" text-anchor="middle" visibility="hidden" style="font-size: 13px;">H</text><text y="358" x="87.5" text-anchor="middle" visibility="hidden" style="font-size: 13px;">A</text><text y="358" x="91.66666666666667" text-anchor="middle" visibility="hidden" style="font-size: 13px;">R</text><text y="358" x="95.83333333333334" text-anchor="middle" visibility="hidden" style="font-size: 13px;">H</text><text y="358" x="100" text-anchor="middle" visibility="hidden" style="font-size: 13px;">G</text><text y="358" x="104.16666666666667" text-anchor="middle" visibility="hidden" style="font-size: 13px;">F</text><text y="358" x="108.33333333333334" text-anchor="middle" visibility="hidden" style="font-size: 13px;">L</text><text y="358" x="112.50000000000001" text-anchor="middle" visibility="hidden" style="font-size: 13px;">P</text><text y="358" x="116.66666666666666" text-anchor="middle" visibility="hidden" style="font-size: 13px;">R</text><text y="358" x="120.83333333333333" text-anchor="middle" visibility="hidden" style="font-size: 13px;">H</text><text y="358" x="125" text-anchor="middle" visibility="hidden" style="font-size: 13px;">R</text><text y="358" x="129.16666666666669" text-anchor="middle" visibility="hidden" style="font-size: 13px;">D</text><text y="358" x="133.33333333333331" text-anchor="middle" visibility="hidden" style="font-size: 13px;">T</text><text y="358" x="137.5" text-anchor="middle" visibility="hidden" style="font-size: 13px;">G</text><text y="358" x="141.66666666666666" text-anchor="middle" visibility="hidden" style="font-size: 13px;">I</text><text y="358" x="145.83333333333334" text-anchor="middle" visibility="hidden" style="font-size: 13px;">L</text><text y="358" x="150" text-anchor="middle" visibility="hidden" style="font-size: 13px;">D</text><text y="358" x="154.16666666666666" text-anchor="middle" visibility="hidden" style="font-size: 13px;">S</text><text y="358" x="158.33333333333334" text-anchor="middle" visibility="hidden" style="font-size: 13px;">L</text><text y="358" x="162.5" text-anchor="middle" visibility="hidden" style="font-size: 13px;">G</text><text y="358" x="166.66666666666666" text-anchor="middle" visibility="hidden" style="font-size: 13px;">R</text><text y="358" x="170.83333333333334" text-anchor="middle" visibility="hidden" style="font-size: 13px;">F</text><text y="358" x="175" text-anchor="middle" visibility="hidden" style="font-size: 13px;">F</text><text y="358" x="179.16666666666666" text-anchor="middle" visibility="hidden" style="font-size: 13px;">G</text><text y="358" x="183.33333333333334" text-anchor="middle" visibility="hidden" style="font-size: 13px;">S</text><text y="358" x="187.5" text-anchor="middle" visibility="hidden" style="font-size: 13px;">D</text><text y="358" x="191.66666666666669" text-anchor="middle" visibility="hidden" style="font-size: 13px;">R</text><text y="358" x="195.83333333333334" text-anchor="middle" visibility="hidden" style="font-size: 13px;">G</text><text y="358" x="200" text-anchor="middle" visibility="hidden" style="font-size: 13px;">A</text><text y="358" x="204.16666666666669" text-anchor="middle" visibility="hidden" style="font-size: 13px;">P</text><text y="358" x="208.33333333333334" text-anchor="middle" visibility="hidden" style="font-size: 13px;">K</text><text y="358" x="212.49999999999997" text-anchor="middle" visibility="hidden" style="font-size: 13px;">R</text><text y="358" x="216.66666666666669" text-anchor="middle" visibility="hidden" style="font-size: 13px;">G</text><text y="358" x="220.83333333333331" text-anchor="middle" visibility="hidden" style="font-size: 13px;">S</text><text y="358" x="225.00000000000003" text-anchor="middle" visibility="hidden" style="font-size: 13px;">G</text><text y="358" x="229.16666666666666" text-anchor="middle" visibility="hidden" style="font-size: 13px;">K</text><text y="358" x="233.33333333333331" text-anchor="middle" visibility="hidden" style="font-size: 13px;">D</text><text y="358" x="237.5" text-anchor="middle" visibility="hidden" style="font-size: 13px;">G</text><text y="358" x="241.66666666666666" text-anchor="middle" visibility="hidden" style="font-size: 13px;">H</text><text y="358" x="245.83333333333331" text-anchor="middle" visibility="hidden" style="font-size: 13px;">H</text><text y="358" x="250" text-anchor="middle" visibility="hidden" style="font-size: 13px;">A</text><text y="358" x="254.16666666666666" text-anchor="middle" visibility="hidden" style="font-size: 13px;">A</text><text y="358" x="258.33333333333337" text-anchor="middle" visibility="hidden" style="font-size: 13px;">R</text><text y="358" x="262.5" text-anchor="middle" visibility="hidden" style="font-size: 13px;">T</text><text y="358" x="266.66666666666663" text-anchor="middle" visibility="hidden" style="font-size: 13px;">T</text><text y="358" x="270.8333333333333" text-anchor="middle" visibility="hidden" style="font-size: 13px;">H</text><text y="358" x="275" text-anchor="middle" visibility="hidden" style="font-size: 13px;">Y</text><text y="358" x="279.1666666666667" text-anchor="middle" visibility="hidden" style="font-size: 13px;">G</text><text y="358" x="283.3333333333333" text-anchor="middle" visibility="hidden" style="font-size: 13px;">S</text><text y="358" x="287.5" text-anchor="middle" visibility="hidden" style="font-size: 13px;">L</text><text y="358" x="291.6666666666667" text-anchor="middle" visibility="hidden" style="font-size: 13px;">P</text><text y="358" x="295.8333333333333" text-anchor="middle" visibility="hidden" style="font-size: 13px;">Q</text><text y="358" x="300" text-anchor="middle" visibility="hidden" style="font-size: 13px;">K</text><text y="358" x="304.1666666666667" text-anchor="middle" visibility="hidden" style="font-size: 13px;">A</text><text y="358" x="308.3333333333333" text-anchor="middle" visibility="hidden" style="font-size: 13px;">Q</text><text y="358" x="312.5" text-anchor="middle" visibility="hidden" style="font-size: 13px;">G</text><text y="358" x="316.6666666666667" text-anchor="middle" visibility="hidden" style="font-size: 13px;">H</text><text y="358" x="320.8333333333333" text-anchor="middle" visibility="hidden" style="font-size: 13px;">R</text><text y="358" x="325" text-anchor="middle" visibility="hidden" style="font-size: 13px;">P</text><text y="358" x="329.1666666666667" text-anchor="middle" visibility="hidden" style="font-size: 13px;">Q</text><text y="358" x="333.3333333333333" text-anchor="middle" visibility="hidden" style="font-size: 13px;">D</text><text y="358" x="337.5" text-anchor="middle" visibility="hidden" style="font-size: 13px;">E</text><text y="358" x="341.6666666666667" text-anchor="middle" visibility="hidden" style="font-size: 13px;">N</text><text y="358" x="345.83333333333337" text-anchor="middle" visibility="hidden" style="font-size: 13px;">P</text><text y="358" x="350" text-anchor="middle" visibility="hidden" style="font-size: 13px;">V</text><text y="358" x="354.16666666666663" text-anchor="middle" visibility="hidden" style="font-size: 13px;">V</text><text y="358" x="358.3333333333333" text-anchor="middle" visibility="hidden" style="font-size: 13px;">H</text><text y="358" x="362.50000000000006" text-anchor="middle" visibility="hidden" style="font-size: 13px;">F</text><text y="358" x="366.6666666666667" text-anchor="middle" visibility="hidden" style="font-size: 13px;">F</text><text y="358" x="370.8333333333333" text-anchor="middle" visibility="hidden" style="font-size: 13px;">K</text><text y="358" x="375" text-anchor="middle" visibility="hidden" style="font-size: 13px;">N</text><text y="358" x="379.16666666666663" text-anchor="middle" visibility="hidden" style="font-size: 13px;">I</text><text y="358" x="383.33333333333337" text-anchor="middle" visibility="hidden" style="font-size: 13px;">V</text><text y="358" x="387.5" text-anchor="middle" visibility="hidden" style="font-size: 13px;">T</text><text y="358" x="391.6666666666667" text-anchor="middle" visibility="hidden" style="font-size: 13px;">P</text><text y="358" x="395.8333333333333" text-anchor="middle" visibility="hidden" style="font-size: 13px;">R</text><text y="358" x="400" text-anchor="middle" visibility="hidden" style="font-size: 13px;">T</text><text y="358" x="404.16666666666663" text-anchor="middle" visibility="hidden" style="font-size: 13px;">P</text><text y="358" x="408.33333333333337" text-anchor="middle" visibility="hidden" style="font-size: 13px;">P</text><text y="358" x="412.5" text-anchor="middle" visibility="hidden" style="font-size: 13px;">P</text><text y="358" x="416.6666666666667" text-anchor="middle" visibility="hidden" style="font-size: 13px;">S</text><text y="358" x="420.8333333333333" text-anchor="middle" visibility="hidden" style="font-size: 13px;">Q</text><text y="358" x="424.99999999999994" text-anchor="middle" visibility="hidden" style="font-size: 13px;">G</text><text y="358" x="429.1666666666667" text-anchor="middle" visibility="hidden" style="font-size: 13px;">K</text><text y="358" x="433.33333333333337" text-anchor="middle" visibility="hidden" style="font-size: 13px;">G</text><text y="358" x="437.5" text-anchor="middle" visibility="hidden" style="font-size: 13px;">R</text><text y="358" x="441.66666666666663" text-anchor="middle" visibility="hidden" style="font-size: 13px;">G</text><text y="358" x="445.8333333333333" text-anchor="middle" visibility="hidden" style="font-size: 13px;">L</text><text y="358" x="450.00000000000006" text-anchor="middle" visibility="hidden" style="font-size: 13px;">S</text><text y="358" x="454.1666666666667" text-anchor="middle" visibility="hidden" style="font-size: 13px;">L</text><text y="358" x="458.3333333333333" text-anchor="middle" visibility="hidden" style="font-size: 13px;">S</text><text y="358" x="462.5" text-anchor="middle" visibility="hidden" style="font-size: 13px;">R</text><text y="358" x="466.66666666666663" text-anchor="middle" visibility="hidden" style="font-size: 13px;">F</text><text y="358" x="470.83333333333337" text-anchor="middle" visibility="hidden" style="font-size: 13px;">S</text><text y="358" x="475" text-anchor="middle" visibility="hidden" style="font-size: 13px;">W</text><text y="358" x="479.1666666666667" text-anchor="middle" visibility="hidden" style="font-size: 13px;">G</text><text y="358" x="483.3333333333333" text-anchor="middle" visibility="hidden" style="font-size: 13px;">A</text><text y="358" x="487.5" text-anchor="middle" visibility="hidden" style="font-size: 13px;">E</text><text y="358" x="491.66666666666663" text-anchor="middle" visibility="hidden" style="font-size: 13px;">G</text><text y="358" x="495.83333333333337" text-anchor="middle" visibility="hidden" style="font-size: 13px;">Q</text><text y="358" x="500" text-anchor="middle" visibility="hidden" style="font-size: 13px;">K</text><text y="358" x="504.1666666666667" text-anchor="middle" visibility="hidden" style="font-size: 13px;">P</text><text y="358" x="508.3333333333333" text-anchor="middle" visibility="hidden" style="font-size: 13px;">G</text><text y="358" x="512.5" text-anchor="middle" visibility="hidden" style="font-size: 13px;">F</text><text y="358" x="516.6666666666667" text-anchor="middle" visibility="hidden" style="font-size: 13px;">G</text><text y="358" x="520.8333333333334" text-anchor="middle" visibility="hidden" style="font-size: 13px;">Y</text><text y="358" x="525" text-anchor="middle" visibility="hidden" style="font-size: 13px;">G</text><text y="358" x="529.1666666666666" text-anchor="middle" visibility="hidden" style="font-size: 13px;">G</text><text y="358" x="533.3333333333333" text-anchor="middle" visibility="hidden" style="font-size: 13px;">R</text><text y="358" x="537.5" text-anchor="middle" visibility="hidden" style="font-size: 13px;">A</text><text y="358" x="541.6666666666666" text-anchor="middle" visibility="hidden" style="font-size: 13px;">S</text><text y="358" x="545.8333333333334" text-anchor="middle" visibility="hidden" style="font-size: 13px;">D</text><text y="358" x="550" text-anchor="middle" visibility="hidden" style="font-size: 13px;">Y</text><text y="358" x="554.1666666666666" text-anchor="middle" visibility="hidden" style="font-size: 13px;">K</text><text y="358" x="558.3333333333334" text-anchor="middle" visibility="hidden" style="font-size: 13px;">S</text><text y="358" x="562.5" text-anchor="middle" visibility="hidden" style="font-size: 13px;">A</text><text y="358" x="566.6666666666666" text-anchor="middle" visibility="hidden" style="font-size: 13px;">H</text><text y="358" x="570.8333333333334" text-anchor="middle" visibility="hidden" style="font-size: 13px;">K</text><text y="358" x="575" text-anchor="middle" visibility="hidden" style="font-size: 13px;">G</text><text y="358" x="579.1666666666666" text-anchor="middle" visibility="hidden" style="font-size: 13px;">L</text><text y="358" x="583.3333333333334" text-anchor="middle" visibility="hidden" style="font-size: 13px;">K</text><text y="358" x="587.5" text-anchor="middle" visibility="hidden" style="font-size: 13px;">G</text><text y="358" x="591.6666666666666" text-anchor="middle" visibility="hidden" style="font-size: 13px;">H</text><text y="358" x="595.8333333333334" text-anchor="middle" visibility="hidden" style="font-size: 13px;">D</text><text y="358" x="600" text-anchor="middle" visibility="hidden" style="font-size: 13px;">A</text><text y="358" x="604.1666666666667" text-anchor="middle" visibility="hidden" style="font-size: 13px;">Q</text><text y="358" x="608.3333333333334" text-anchor="middle" visibility="hidden" style="font-size: 13px;">G</text><text y="358" x="612.5" text-anchor="middle" visibility="hidden" style="font-size: 13px;">T</text><text y="358" x="616.6666666666666" text-anchor="middle" visibility="hidden" style="font-size: 13px;">L</text><text y="358" x="620.8333333333333" text-anchor="middle" visibility="hidden" style="font-size: 13px;">S</text><text y="358" x="625" text-anchor="middle" visibility="hidden" style="font-size: 13px;">K</text><text y="358" x="629.1666666666666" text-anchor="middle" visibility="hidden" style="font-size: 13px;">I</text><text y="358" x="633.3333333333334" text-anchor="middle" visibility="hidden" style="font-size: 13px;">F</text><text y="358" x="637.5" text-anchor="middle" visibility="hidden" style="font-size: 13px;">K</text><text y="358" x="641.6666666666666" text-anchor="middle" visibility="hidden" style="font-size: 13px;">L</text><text y="358" x="645.8333333333334" text-anchor="middle" visibility="hidden" style="font-size: 13px;">G</text><text y="358" x="650" text-anchor="middle" visibility="hidden" style="font-size: 13px;">G</text><text y="358" x="654.1666666666666" text-anchor="middle" visibility="hidden" style="font-size: 13px;">R</text><text y="358" x="658.3333333333334" text-anchor="middle" visibility="hidden" style="font-size: 13px;">D</text><text y="358" x="662.5" text-anchor="middle" visibility="hidden" style="font-size: 13px;">S</text><text y="358" x="666.6666666666666" text-anchor="middle" visibility="hidden" style="font-size: 13px;">R</text><text y="358" x="670.8333333333334" text-anchor="middle" visibility="hidden" style="font-size: 13px;">S</text><text y="358" x="675" text-anchor="middle" visibility="hidden" style="font-size: 13px;">G</text><text y="358" x="679.1666666666666" text-anchor="middle" visibility="hidden" style="font-size: 13px;">S</text><text y="358" x="683.3333333333334" text-anchor="middle" visibility="hidden" style="font-size: 13px;">P</text><text y="358" x="687.5" text-anchor="middle" visibility="hidden" style="font-size: 13px;">M</text><text y="358" x="691.6666666666667" text-anchor="middle" visibility="hidden" style="font-size: 13px;">A</text><text y="358" x="695.8333333333334" text-anchor="middle" visibility="hidden" style="font-size: 13px;">R</text><text y="358" x="700" text-anchor="middle" visibility="hidden" style="font-size: 13px;">R</text></g></g></svg><g class="xAxis" transform="translate(0,360)" fill="none" font-size="10" font-family="sans-serif" text-anchor="middle"><path class="domain" stroke="#000" d="M0.5,6V0.5H700.5V6"></path><g class="tick" opacity="1" transform="translate(79.66666666666667,0)"><line stroke="#000" y2="6"></line><text fill="#000" y="9" dy="0.71em">20</text></g><g class="tick" opacity="1" transform="translate(163,0)"><line stroke="#000" y2="6"></line><text fill="#000" y="9" dy="0.71em">40</text></g><g class="tick" opacity="1" transform="translate(246.33333333333331,0)"><line stroke="#000" y2="6"></line><text fill="#000" y="9" dy="0.71em">60</text></g><g class="tick" opacity="1" transform="translate(329.6666666666667,0)"><line stroke="#000" y2="6"></line><text fill="#000" y="9" dy="0.71em">80</text></g><g class="tick" opacity="1" transform="translate(413,0)"><line stroke="#000" y2="6"></line><text fill="#000" y="9" dy="0.71em">100</text></g><g class="tick" opacity="1" transform="translate(496.33333333333337,0)"><line stroke="#000" y2="6"></line><text fill="#000" y="9" dy="0.71em">120</text></g><g class="tick" opacity="1" transform="translate(579.6666666666666,0)"><line stroke="#000" y2="6"></line><text fill="#000" y="9" dy="0.71em">140</text></g><g class="tick" opacity="1" transform="translate(663,0)"><line stroke="#000" y2="6"></line><text fill="#000" y="9" dy="0.71em">160</text></g></g><text class="x label" text-anchor="end" x="700" y="390" style="font-size: 13px; font-family: Arial;">Residue number</text><g class="yAxis" fill="none" font-size="10" font-family="sans-serif" text-anchor="end"><path class="domain" stroke="#000" d="M-6,360.5H0.5V0.5H-6"></path><g class="tick" opacity="1" transform="translate(0,356.10802833530107)"><line stroke="#000" x2="-6"></line><text fill="#000" x="-9" dy="0.32em"></text></g><g class="tick" opacity="1" transform="translate(0,327.77272727272725)"><line stroke="#000" x2="-6"></line><text fill="#000" x="-9" dy="0.32em">0</text></g><g class="tick" opacity="1" transform="translate(0,299.4374262101535)"><line stroke="#000" x2="-6"></line><text fill="#000" x="-9" dy="0.32em">10</text></g><g class="tick" opacity="1" transform="translate(0,271.10212514757967)"><line stroke="#000" x2="-6"></line><text fill="#000" x="-9" dy="0.32em">20</text></g><g class="tick" opacity="1" transform="translate(0,242.7668240850059)"><line stroke="#000" x2="-6"></line><text fill="#000" x="-9" dy="0.32em">30</text></g><g class="tick" opacity="1" transform="translate(0,214.43152302243212)"><line stroke="#000" x2="-6"></line><text fill="#000" x="-9" dy="0.32em">40</text></g><g class="tick" opacity="1" transform="translate(0,186.09622195985833)"><line stroke="#000" x2="-6"></line><text fill="#000" x="-9" dy="0.32em">50</text></g><g class="tick" opacity="1" transform="translate(0,157.76092089728454)"><line stroke="#000" x2="-6"></line><text fill="#000" x="-9" dy="0.32em">60</text></g><g class="tick" opacity="1" transform="translate(0,129.42561983471072)"><line stroke="#000" x2="-6"></line><text fill="#000" x="-9" dy="0.32em">70</text></g><g class="tick" opacity="1" transform="translate(0,101.09031877213698)"><line stroke="#000" x2="-6"></line><text fill="#000" x="-9" dy="0.32em">80</text></g><g class="tick" opacity="1" transform="translate(0,72.75501770956316)"><line stroke="#000" x2="-6"></line><text fill="#000" x="-9" dy="0.32em">90</text></g><g class="tick" opacity="1" transform="translate(0,44.4197166469894)"><line stroke="#000" x2="-6"></line><text fill="#000" x="-9" dy="0.32em">100</text></g><g class="tick" opacity="1" transform="translate(0,16.08441558441558)"><line stroke="#000" x2="-6"></line><text fill="#000" x="-9" dy="0.32em">110</text></g></g><text class="y label" text-anchor="middle" y="-50" x="-180" dy="0.8em" transform="rotate(-90)" style="font-size: 13px; font-family: Arial;">Total number of references</text><g class="axisRed" fill="none" font-size="10" font-family="sans-serif" text-anchor="start" visibility="hidden" transform="translate(700, 0)"><path class="domain" stroke="#000" d="M6,360.5H0.5V0.5H6"></path><g class="tick" opacity="1" transform="translate(0,360.5)"><line stroke="#000" x2="6"></line><text fill="#000" x="9" dy="0.32em">0</text></g><text text-anchor="start" dx="5.2em" dy="-2.6em" transform="rotate(90)" visibility="hidden" style="font-size: 12px; font-family: Arial; fill: #d7301f;">No recurrent (&gt;2) missense mutations!</text></g><g class="axisPurple" fill="none" font-size="10" font-family="sans-serif" text-anchor="start" visibility="hidden"><path class="domain" stroke="#000" d="M6,360.5H0.5V0.5H6"></path><g class="tick" opacity="1" transform="translate(0,357.52479338842977)"><line stroke="#000" x2="6"></line><text fill="#000" x="9" dy="0.32em"></text></g><g class="tick" opacity="1" transform="translate(0,327.77272727272725)"><line stroke="#000" x2="6"></line><text fill="#000" x="9" dy="0.32em">0</text></g><g class="tick" opacity="1" transform="translate(0,298.0206611570248)"><line stroke="#000" x2="6"></line><text fill="#000" x="9" dy="0.32em">0.1</text></g><g class="tick" opacity="1" transform="translate(0,268.2685950413223)"><line stroke="#000" x2="6"></line><text fill="#000" x="9" dy="0.32em">0.2</text></g><g class="tick" opacity="1" transform="translate(0,238.51652892561984)"><line stroke="#000" x2="6"></line><text fill="#000" x="9" dy="0.32em">0.3</text></g><g class="tick" opacity="1" transform="translate(0,208.76446280991738)"><line stroke="#000" x2="6"></line><text fill="#000" x="9" dy="0.32em">0.4</text></g><g class="tick" opacity="1" transform="translate(0,179.0123966942149)"><line stroke="#000" x2="6"></line><text fill="#000" x="9" dy="0.32em">0.5</text></g><g class="tick" opacity="1" transform="translate(0,149.26033057851242)"><line stroke="#000" x2="6"></line><text fill="#000" x="9" dy="0.32em">0.6</text></g><g class="tick" opacity="1" transform="translate(0,119.50826446280996)"><line stroke="#000" x2="6"></line><text fill="#000" x="9" dy="0.32em">0.7</text></g><g class="tick" opacity="1" transform="translate(0,89.75619834710744)"><line stroke="#000" x2="6"></line><text fill="#000" x="9" dy="0.32em">0.8</text></g><g class="tick" opacity="1" transform="translate(0,60.00413223140498)"><line stroke="#000" x2="6"></line><text fill="#000" x="9" dy="0.32em">0.9</text></g><g class="tick" opacity="1" transform="translate(0,30.25206611570252)"><line stroke="#000" x2="6"></line><text fill="#000" x="9" dy="0.32em">1</text></g><g class="tick" opacity="1" transform="translate(0,0.5)"><line stroke="#000" x2="6"></line><text fill="#000" x="9" dy="0.32em">1.1</text></g><text text-anchor="start" x="10" y="10" visibility="hidden" style="font-size: 12px; font-family: Arial; fill: #807dba;">No disease causing germline SNPs known!</text></g><circle cx="636" cy="15" r="10" class="compassNav" style="fill: #ffffff; stroke: #666666; stroke-width: 1px;"></circle><path d="M440.935 12.574l3.966 82.766C399.416 41.904 331.674 8 256 8 134.813 8 33.933 94.924 12.296 209.824 10.908 217.193 16.604 224 24.103 224h49.084c5.57 0 10.377-3.842 11.676-9.259C103.407 137.408 172.931 80 256 80c60.893 0 114.512 30.856 146.104 77.801l-101.53-4.865c-6.845-.328-12.574 5.133-12.574 11.986v47.411c0 6.627 5.373 12 12 12h200.333c6.627 0 12-5.373 12-12V12c0-6.627-5.373-12-12-12h-47.411c-6.853 0-12.315 5.729-11.987 12.574zM256 432c-60.895 0-114.517-30.858-146.109-77.805l101.868 4.871c6.845.327 12.573-5.134 12.573-11.986v-47.412c0-6.627-5.373-12-12-12H12c-6.627 0-12 5.373-12 12V500c0 6.627 5.373 12 12 12h47.385c6.863 0 12.328-5.745 11.985-12.599l-4.129-82.575C112.725 470.166 180.405 504 256 504c121.187 0 222.067-86.924 243.704-201.824 1.388-7.369-4.308-14.176-11.807-14.176h-49.084c-5.57 0-10.377 3.842-11.676 9.259C408.593 374.592 339.069 432 256 432z" class="compassNav" transform="translate(631, 10) scale(0.02)" style="fill: #666666; stroke: #666666; stroke-width: 1px;"></path><circle cx="658" cy="15" r="10" class="compassNav" style="fill: #ffffff; stroke: #666666; stroke-width: 1px;"></circle><line class="compassNav" stroke-width="2" stroke="#666666" x1="654" y1="15" x2="662" y2="15"></line><line class="compassNav" stroke-width="2" stroke="#666666" x1="658" y1="11" x2="658" y2="19"></line><circle cx="614" cy="15" r="10" class="compassNav" style="fill: #ffffff; stroke: #666666; stroke-width: 1px;"></circle><line class="compassNav" stroke-width="2" stroke="#666666" x1="610" y1="15" x2="618" y2="15"></line><path d="M582 14 l20 -12 a100,40 0 0,0 0,24z" class="compassNav" style="fill: #ffffff; stroke: #666666; stroke-width: 1px;"></path><path d="M690 14 l-20 -12 a100,40 0 0,1 0,24z" class="compassNav" style="fill: #ffffff; stroke: #666666; stroke-width: 1px;"></path><path d="M216 0h80c13.3 0 24 10.7 24 24v168h87.7c17.8 0 26.7 21.5 14.1 34.1L269.7 378.3c-7.5 7.5-19.8 7.5-27.3 0L90.1 226.1c-12.6-12.6-3.7-34.1 14.1-34.1H192V24c0-13.3 10.7-24 24-24zm296 376v112c0 13.3-10.7 24-24 24H24c-13.3 0-24-10.7-24-24V376c0-13.3 10.7-24 24-24h146.7l49 49c20.1 20.1 52.5 20.1 72.6 0l49-49H488c13.3 0 24 10.7 24 24zm-124 88c0-11-9-20-20-20s-20 9-20 20 9 20 20 20 20-9 20-20zm64 0c0-11-9-20-20-20s-20 9-20 20 9 20 20 20 20-9 20-20z" class="compassNav" transform="translate(552,0) scale(0.05)" style="fill: #336699; stroke: #336699; stroke-width: 1px; cursor: pointer;"></path></g></svg>