<svg width="800" height="400" style="background-color: white;"><g transform="translate(50,0)"><svg width="700" height="360"><g style="-webkit-tap-highlight-color: rgba(0, 0, 0, 0);"><rect width="700" height="360" style="fill: #ffffff;"></rect><g id="lines"><line class="line" stroke-width="1" stroke="#d7301f" x1="-862.1951219512194" y1="333" x2="-862.1951219512194" y2="360" visibility="hidden" style="stroke-dasharray: 3px, 3px;"></line></g><g><rect x="-867.1951219512194" y="355" width="10" height="10" visibility="hidden" style="fill: #ffffff; stroke: #d7301f;"></rect></g><g id="lines"><line class="line" stroke-width="1" stroke="#6a51a3" x1="-862.1951219512194" y1="333" x2="-862.1951219512194" y2="327.27272727272725" visibility="hidden" style="stroke-dasharray: 3px, 3px;"></line></g><g><rect x="-867.1951219512194" y="322.27272727272725" width="10" height="10" visibility="hidden" style="fill: #ffffff; stroke: #6a51a3;"></rect></g><g id="lines"><line class="line" stroke-width="1" stroke="#666666" x1="315.8536585365854" y1="333" x2="315.8536585365854" y2="178.5123966942149"></line><line class="line" stroke-width="1" stroke="#666666" x1="392.68292682926835" y1="333" x2="392.68292682926835" y2="29.75206611570252"></line><line class="line" stroke-width="1" stroke="#666666" x1="392.68292682926835" y1="333" x2="392.68292682926835" y2="178.5123966942149"></line><line class="line" stroke-width="1" stroke="#666666" x1="469.51219512195127" y1="333" x2="469.51219512195127" y2="29.75206611570252"></line><line class="line" stroke-width="1" stroke="#666666" x1="486.5853658536585" y1="333" x2="486.5853658536585" y2="178.5123966942149"></line><line class="line" stroke-width="1" stroke="#666666" x1="529.2682926829268" y1="333" x2="529.2682926829268" y2="178.5123966942149"></line><line class="line" stroke-width="1" stroke="#666666" x1="623.170731707317" y1="333" x2="623.170731707317" y2="178.5123966942149"></line></g><g id="circles"><circle r="4" cx="315.8536585365854" cy="178.5123966942149" style="fill: #bf812d; stroke: #666666; stroke-width: 1px;"></circle><circle r="4" cx="392.68292682926835" cy="29.75206611570252" style="fill: #5aae61; stroke: #666666; stroke-width: 1px;"></circle><circle r="4" cx="392.68292682926835" cy="178.5123966942149" style="fill: #bf812d; stroke: #666666; stroke-width: 1px;"></circle><circle r="4" cx="469.51219512195127" cy="29.75206611570252" style="fill: #bf812d; stroke: #666666; stroke-width: 1px;"></circle><circle r="4" cx="486.5853658536585" cy="178.5123966942149" style="fill: #5aae61; stroke: #666666; stroke-width: 1px;"></circle><circle r="4" cx="529.2682926829268" cy="178.5123966942149" style="fill: #5aae61; stroke: #666666; stroke-width: 1px;"></circle><circle r="4" cx="623.170731707317" cy="178.5123966942149" style="fill: #bf812d; stroke: #666666; stroke-width: 1px;"></circle></g><g><rect x="0" y="333" width="700" height="12" style="fill: #ffffff; stroke-width: 1px; stroke: #666666;"></rect><rect x="221.95121951219514" y="333" width="469.5121951219512" height="12" style="fill: #aec7e8; stroke-width: 1px; stroke: #666666;"></rect></g><g><a target="_blank" xlink:href="http://pfam.xfam.org/family/"><text y="343" x="350" text-anchor="middle" style="color: rgb(102, 102, 102); font-weight: normal; font-size: 12px; font-family: Arial; cursor: pointer;"></text></a><a target="_blank" xlink:href="http://pfam.xfam.org/family/ApoC-I"><text y="343" x="456.70731707317077" text-anchor="middle" style="color: rgb(102, 102, 102); font-weight: normal; font-size: 12px; font-family: Arial; cursor: pointer;">ApoC-I</text></a></g><g><text y="358" x="0" text-anchor="middle" visibility="hidden" style="font-size: 13px;">M</text><text y="358" x="8.536585365853659" text-anchor="middle" visibility="hidden" style="font-size: 13px;">R</text><text y="358" x="17.073170731707318" text-anchor="middle" visibility="hidden" style="font-size: 13px;">L</text><text y="358" x="25.609756097560975" text-anchor="middle" visibility="hidden" style="font-size: 13px;">F</text><text y="358" x="34.146341463414636" text-anchor="middle" visibility="hidden" style="font-size: 13px;">L</text><text y="358" x="42.68292682926829" text-anchor="middle" visibility="hidden" style="font-size: 13px;">S</text><text y="358" x="51.21951219512195" text-anchor="middle" visibility="hidden" style="font-size: 13px;">L</text><text y="358" x="59.75609756097561" text-anchor="middle" visibility="hidden" style="font-size: 13px;">P</text><text y="358" x="68.29268292682927" text-anchor="middle" visibility="hidden" style="font-size: 13px;">V</text><text y="358" x="76.82926829268293" text-anchor="middle" visibility="hidden" style="font-size: 13px;">L</text><text y="358" x="85.36585365853658" text-anchor="middle" visibility="hidden" style="font-size: 13px;">V</text><text y="358" x="93.90243902439025" text-anchor="middle" visibility="hidden" style="font-size: 13px;">V</text><text y="358" x="102.4390243902439" text-anchor="middle" visibility="hidden" style="font-size: 13px;">V</text><text y="358" x="110.97560975609757" text-anchor="middle" visibility="hidden" style="font-size: 13px;">L</text><text y="358" x="119.51219512195122" text-anchor="middle" visibility="hidden" style="font-size: 13px;">S</text><text y="358" x="128.04878048780486" text-anchor="middle" visibility="hidden" style="font-size: 13px;">I</text><text y="358" x="136.58536585365854" text-anchor="middle" visibility="hidden" style="font-size: 13px;">V</text><text y="358" x="145.1219512195122" text-anchor="middle" visibility="hidden" style="font-size: 13px;">L</text><text y="358" x="153.65853658536585" text-anchor="middle" visibility="hidden" style="font-size: 13px;">E</text><text y="358" x="162.19512195121953" text-anchor="middle" visibility="hidden" style="font-size: 13px;">G</text><text y="358" x="170.73170731707316" text-anchor="middle" visibility="hidden" style="font-size: 13px;">P</text><text y="358" x="179.26829268292684" text-anchor="middle" visibility="hidden" style="font-size: 13px;">A</text><text y="358" x="187.8048780487805" text-anchor="middle" visibility="hidden" style="font-size: 13px;">P</text><text y="358" x="196.34146341463418" text-anchor="middle" visibility="hidden" style="font-size: 13px;">A</text><text y="358" x="204.8780487804878" text-anchor="middle" visibility="hidden" style="font-size: 13px;">Q</text><text y="358" x="213.41463414634146" text-anchor="middle" visibility="hidden" style="font-size: 13px;">G</text><text y="358" x="221.95121951219514" text-anchor="middle" visibility="hidden" style="font-size: 13px;">T</text><text y="358" x="230.4878048780488" text-anchor="middle" visibility="hidden" style="font-size: 13px;">P</text><text y="358" x="239.02439024390245" text-anchor="middle" visibility="hidden" style="font-size: 13px;">D</text><text y="358" x="247.56097560975607" text-anchor="middle" visibility="hidden" style="font-size: 13px;">V</text><text y="358" x="256.0975609756097" text-anchor="middle" visibility="hidden" style="font-size: 13px;">S</text><text y="358" x="264.6341463414634" text-anchor="middle" visibility="hidden" style="font-size: 13px;">S</text><text y="358" x="273.1707317073171" text-anchor="middle" visibility="hidden" style="font-size: 13px;">A</text><text y="358" x="281.70731707317077" text-anchor="middle" visibility="hidden" style="font-size: 13px;">L</text><text y="358" x="290.2439024390244" text-anchor="middle" visibility="hidden" style="font-size: 13px;">D</text><text y="358" x="298.780487804878" text-anchor="middle" visibility="hidden" style="font-size: 13px;">K</text><text y="358" x="307.3170731707317" text-anchor="middle" visibility="hidden" style="font-size: 13px;">L</text><text y="358" x="315.8536585365854" text-anchor="middle" visibility="hidden" style="font-size: 13px;">K</text><text y="358" x="324.39024390243907" text-anchor="middle" visibility="hidden" style="font-size: 13px;">E</text><text y="358" x="332.9268292682927" text-anchor="middle" visibility="hidden" style="font-size: 13px;">F</text><text y="358" x="341.4634146341463" text-anchor="middle" visibility="hidden" style="font-size: 13px;">G</text><text y="358" x="350" text-anchor="middle" visibility="hidden" style="font-size: 13px;">N</text><text y="358" x="358.5365853658537" text-anchor="middle" visibility="hidden" style="font-size: 13px;">T</text><text y="358" x="367.0731707317073" text-anchor="middle" visibility="hidden" style="font-size: 13px;">L</text><text y="358" x="375.609756097561" text-anchor="middle" visibility="hidden" style="font-size: 13px;">E</text><text y="358" x="384.1463414634147" text-anchor="middle" visibility="hidden" style="font-size: 13px;">D</text><text y="358" x="392.68292682926835" text-anchor="middle" visibility="hidden" style="font-size: 13px;">K</text><text y="358" x="401.2195121951219" text-anchor="middle" visibility="hidden" style="font-size: 13px;">A</text><text y="358" x="409.7560975609756" text-anchor="middle" visibility="hidden" style="font-size: 13px;">R</text><text y="358" x="418.29268292682923" text-anchor="middle" visibility="hidden" style="font-size: 13px;">E</text><text y="358" x="426.8292682926829" text-anchor="middle" visibility="hidden" style="font-size: 13px;">L</text><text y="358" x="435.3658536585366" text-anchor="middle" visibility="hidden" style="font-size: 13px;">I</text><text y="358" x="443.9024390243903" text-anchor="middle" visibility="hidden" style="font-size: 13px;">S</text><text y="358" x="452.4390243902439" text-anchor="middle" visibility="hidden" style="font-size: 13px;">R</text><text y="358" x="460.9756097560976" text-anchor="middle" visibility="hidden" style="font-size: 13px;">I</text><text y="358" x="469.51219512195127" text-anchor="middle" visibility="hidden" style="font-size: 13px;">K</text><text y="358" x="478.0487804878049" text-anchor="middle" visibility="hidden" style="font-size: 13px;">Q</text><text y="358" x="486.5853658536585" text-anchor="middle" visibility="hidden" style="font-size: 13px;">S</text><text y="358" x="495.12195121951214" text-anchor="middle" visibility="hidden" style="font-size: 13px;">E</text><text y="358" x="503.6585365853658" text-anchor="middle" visibility="hidden" style="font-size: 13px;">L</text><text y="358" x="512.1951219512194" text-anchor="middle" visibility="hidden" style="font-size: 13px;">S</text><text y="358" x="520.7317073170732" text-anchor="middle" visibility="hidden" style="font-size: 13px;">A</text><text y="358" x="529.2682926829268" text-anchor="middle" visibility="hidden" style="font-size: 13px;">K</text><text y="358" x="537.8048780487806" text-anchor="middle" visibility="hidden" style="font-size: 13px;">M</text><text y="358" x="546.3414634146342" text-anchor="middle" visibility="hidden" style="font-size: 13px;">R</text><text y="358" x="554.8780487804878" text-anchor="middle" visibility="hidden" style="font-size: 13px;">E</text><text y="358" x="563.4146341463415" text-anchor="middle" visibility="hidden" style="font-size: 13px;">W</text><text y="358" x="571.951219512195" text-anchor="middle" visibility="hidden" style="font-size: 13px;">F</text><text y="358" x="580.4878048780488" text-anchor="middle" visibility="hidden" style="font-size: 13px;">S</text><text y="358" x="589.0243902439024" text-anchor="middle" visibility="hidden" style="font-size: 13px;">E</text><text y="358" x="597.560975609756" text-anchor="middle" visibility="hidden" style="font-size: 13px;">T</text><text y="358" x="606.0975609756098" text-anchor="middle" visibility="hidden" style="font-size: 13px;">F</text><text y="358" x="614.6341463414634" text-anchor="middle" visibility="hidden" style="font-size: 13px;">Q</text><text y="358" x="623.170731707317" text-anchor="middle" visibility="hidden" style="font-size: 13px;">K</text><text y="358" x="631.7073170731708" text-anchor="middle" visibility="hidden" style="font-size: 13px;">V</text><text y="358" x="640.2439024390244" text-anchor="middle" visibility="hidden" style="font-size: 13px;">K</text><text y="358" x="648.7804878048781" text-anchor="middle" visibility="hidden" style="font-size: 13px;">E</text><text y="358" x="657.3170731707316" text-anchor="middle" visibility="hidden" style="font-size: 13px;">K</text><text y="358" x="665.8536585365854" text-anchor="middle" visibility="hidden" style="font-size: 13px;">L</text><text y="358" x="674.390243902439" text-anchor="middle" visibility="hidden" style="font-size: 13px;">K</text><text y="358" x="682.9268292682926" text-anchor="middle" visibility="hidden" style="font-size: 13px;">I</text><text y="358" x="691.4634146341464" text-anchor="middle" visibility="hidden" style="font-size: 13px;">D</text><text y="358" x="700" text-anchor="middle" visibility="hidden" style="font-size: 13px;">S</text></g></g></svg><g class="xAxis" transform="translate(0,360)" fill="none" font-size="10" font-family="sans-serif" text-anchor="middle"><path class="domain" stroke="#000" d="M0.5,6V0.5H700.5V6"></path><g class="tick" opacity="1" transform="translate(77.32926829268293,0)"><line stroke="#000" y2="6"></line><text fill="#000" y="9" dy="0.71em">10</text></g><g class="tick" opacity="1" transform="translate(162.69512195121953,0)"><line stroke="#000" y2="6"></line><text fill="#000" y="9" dy="0.71em">20</text></g><g class="tick" opacity="1" transform="translate(248.06097560975607,0)"><line stroke="#000" y2="6"></line><text fill="#000" y="9" dy="0.71em">30</text></g><g class="tick" opacity="1" transform="translate(333.4268292682927,0)"><line stroke="#000" y2="6"></line><text fill="#000" y="9" dy="0.71em">40</text></g><g class="tick" opacity="1" transform="translate(418.79268292682923,0)"><line stroke="#000" y2="6"></line><text fill="#000" y="9" dy="0.71em">50</text></g><g class="tick" opacity="1" transform="translate(504.1585365853658,0)"><line stroke="#000" y2="6"></line><text fill="#000" y="9" dy="0.71em">60</text></g><g class="tick" opacity="1" transform="translate(589.5243902439024,0)"><line stroke="#000" y2="6"></line><text fill="#000" y="9" dy="0.71em">70</text></g><g class="tick" opacity="1" transform="translate(674.890243902439,0)"><line stroke="#000" y2="6"></line><text fill="#000" y="9" dy="0.71em">80</text></g></g><text class="x label" text-anchor="end" x="700" y="390" style="font-size: 13px; font-family: Arial;">Residue number</text><g class="yAxis" fill="none" font-size="10" font-family="sans-serif" text-anchor="end"><path class="domain" stroke="#000" d="M-6,360.5H0.5V0.5H-6"></path><g class="tick" opacity="1" transform="translate(0,357.52479338842977)"><line stroke="#000" x2="-6"></line><text fill="#000" x="-9" dy="0.32em"></text></g><g class="tick" opacity="1" transform="translate(0,327.77272727272725)"><line stroke="#000" x2="-6"></line><text fill="#000" x="-9" dy="0.32em">0</text></g><g class="tick" opacity="1" transform="translate(0,298.0206611570248)"><line stroke="#000" x2="-6"></line><text fill="#000" x="-9" dy="0.32em">0.2</text></g><g class="tick" opacity="1" transform="translate(0,268.2685950413223)"><line stroke="#000" x2="-6"></line><text fill="#000" x="-9" dy="0.32em">0.4</text></g><g class="tick" opacity="1" transform="translate(0,238.51652892561984)"><line stroke="#000" x2="-6"></line><text fill="#000" x="-9" dy="0.32em">0.6</text></g><g class="tick" opacity="1" transform="translate(0,208.76446280991738)"><line stroke="#000" x2="-6"></line><text fill="#000" x="-9" dy="0.32em">0.8</text></g><g class="tick" opacity="1" transform="translate(0,179.0123966942149)"><line stroke="#000" x2="-6"></line><text fill="#000" x="-9" dy="0.32em">1</text></g><g class="tick" opacity="1" transform="translate(0,149.26033057851242)"><line stroke="#000" x2="-6"></line><text fill="#000" x="-9" dy="0.32em">1.2</text></g><g class="tick" opacity="1" transform="translate(0,119.50826446280996)"><line stroke="#000" x2="-6"></line><text fill="#000" x="-9" dy="0.32em">1.4</text></g><g class="tick" opacity="1" transform="translate(0,89.75619834710744)"><line stroke="#000" x2="-6"></line><text fill="#000" x="-9" dy="0.32em">1.6</text></g><g class="tick" opacity="1" transform="translate(0,60.00413223140498)"><line stroke="#000" x2="-6"></line><text fill="#000" x="-9" dy="0.32em">1.8</text></g><g class="tick" opacity="1" transform="translate(0,30.25206611570252)"><line stroke="#000" x2="-6"></line><text fill="#000" x="-9" dy="0.32em">2</text></g><g class="tick" opacity="1" transform="translate(0,0.5)"><line stroke="#000" x2="-6"></line><text fill="#000" x="-9" dy="0.32em">2.2</text></g></g><text class="y label" text-anchor="middle" y="-50" x="-180" dy="0.8em" transform="rotate(-90)" style="font-size: 13px; font-family: Arial;">Total number of references</text><g class="axisRed" fill="none" font-size="10" font-family="sans-serif" text-anchor="start" visibility="hidden" transform="translate(700, 0)"><path class="domain" stroke="#000" d="M6,360.5H0.5V0.5H6"></path><g class="tick" opacity="1" transform="translate(0,360.5)"><line stroke="#000" x2="6"></line><text fill="#000" x="9" dy="0.32em">0</text></g><text text-anchor="start" dx="5.2em" dy="-2.6em" transform="rotate(90)" visibility="hidden" style="font-size: 12px; font-family: Arial; fill: #d7301f;">No recurrent (&gt;2) missense mutations!</text></g><g class="axisPurple" fill="none" font-size="10" font-family="sans-serif" text-anchor="start" visibility="hidden"><path class="domain" stroke="#000" d="M6,360.5H0.5V0.5H6"></path><g class="tick" opacity="1" transform="translate(0,357.52479338842977)"><line stroke="#000" x2="6"></line><text fill="#000" x="9" dy="0.32em"></text></g><g class="tick" opacity="1" transform="translate(0,327.77272727272725)"><line stroke="#000" x2="6"></line><text fill="#000" x="9" dy="0.32em">0</text></g><g class="tick" opacity="1" transform="translate(0,298.0206611570248)"><line stroke="#000" x2="6"></line><text fill="#000" x="9" dy="0.32em">0.1</text></g><g class="tick" opacity="1" transform="translate(0,268.2685950413223)"><line stroke="#000" x2="6"></line><text fill="#000" x="9" dy="0.32em">0.2</text></g><g class="tick" opacity="1" transform="translate(0,238.51652892561984)"><line stroke="#000" x2="6"></line><text fill="#000" x="9" dy="0.32em">0.3</text></g><g class="tick" opacity="1" transform="translate(0,208.76446280991738)"><line stroke="#000" x2="6"></line><text fill="#000" x="9" dy="0.32em">0.4</text></g><g class="tick" opacity="1" transform="translate(0,179.0123966942149)"><line stroke="#000" x2="6"></line><text fill="#000" x="9" dy="0.32em">0.5</text></g><g class="tick" opacity="1" transform="translate(0,149.26033057851242)"><line stroke="#000" x2="6"></line><text fill="#000" x="9" dy="0.32em">0.6</text></g><g class="tick" opacity="1" transform="translate(0,119.50826446280996)"><line stroke="#000" x2="6"></line><text fill="#000" x="9" dy="0.32em">0.7</text></g><g class="tick" opacity="1" transform="translate(0,89.75619834710744)"><line stroke="#000" x2="6"></line><text fill="#000" x="9" dy="0.32em">0.8</text></g><g class="tick" opacity="1" transform="translate(0,60.00413223140498)"><line stroke="#000" x2="6"></line><text fill="#000" x="9" dy="0.32em">0.9</text></g><g class="tick" opacity="1" transform="translate(0,30.25206611570252)"><line stroke="#000" x2="6"></line><text fill="#000" x="9" dy="0.32em">1</text></g><g class="tick" opacity="1" transform="translate(0,0.5)"><line stroke="#000" x2="6"></line><text fill="#000" x="9" dy="0.32em">1.1</text></g><text text-anchor="start" x="10" y="10" visibility="hidden" style="font-size: 12px; font-family: Arial; fill: #807dba;">No disease causing germline SNPs known!</text></g><circle cx="636" cy="15" r="10" class="compassNav" style="fill: #ffffff; stroke: #666666; stroke-width: 1px;"></circle><path d="M440.935 12.574l3.966 82.766C399.416 41.904 331.674 8 256 8 134.813 8 33.933 94.924 12.296 209.824 10.908 217.193 16.604 224 24.103 224h49.084c5.57 0 10.377-3.842 11.676-9.259C103.407 137.408 172.931 80 256 80c60.893 0 114.512 30.856 146.104 77.801l-101.53-4.865c-6.845-.328-12.574 5.133-12.574 11.986v47.411c0 6.627 5.373 12 12 12h200.333c6.627 0 12-5.373 12-12V12c0-6.627-5.373-12-12-12h-47.411c-6.853 0-12.315 5.729-11.987 12.574zM256 432c-60.895 0-114.517-30.858-146.109-77.805l101.868 4.871c6.845.327 12.573-5.134 12.573-11.986v-47.412c0-6.627-5.373-12-12-12H12c-6.627 0-12 5.373-12 12V500c0 6.627 5.373 12 12 12h47.385c6.863 0 12.328-5.745 11.985-12.599l-4.129-82.575C112.725 470.166 180.405 504 256 504c121.187 0 222.067-86.924 243.704-201.824 1.388-7.369-4.308-14.176-11.807-14.176h-49.084c-5.57 0-10.377 3.842-11.676 9.259C408.593 374.592 339.069 432 256 432z" class="compassNav" transform="translate(631, 10) scale(0.02)" style="fill: #666666; stroke: #666666; stroke-width: 1px;"></path><circle cx="658" cy="15" r="10" class="compassNav" style="fill: #ffffff; stroke: #666666; stroke-width: 1px;"></circle><line class="compassNav" stroke-width="2" stroke="#666666" x1="654" y1="15" x2="662" y2="15"></line><line class="compassNav" stroke-width="2" stroke="#666666" x1="658" y1="11" x2="658" y2="19"></line><circle cx="614" cy="15" r="10" class="compassNav" style="fill: #ffffff; stroke: #666666; stroke-width: 1px;"></circle><line class="compassNav" stroke-width="2" stroke="#666666" x1="610" y1="15" x2="618" y2="15"></line><path d="M582 14 l20 -12 a100,40 0 0,0 0,24z" class="compassNav" style="fill: #ffffff; stroke: #666666; stroke-width: 1px;"></path><path d="M690 14 l-20 -12 a100,40 0 0,1 0,24z" class="compassNav" style="fill: #ffffff; stroke: #666666; stroke-width: 1px;"></path><path d="M216 0h80c13.3 0 24 10.7 24 24v168h87.7c17.8 0 26.7 21.5 14.1 34.1L269.7 378.3c-7.5 7.5-19.8 7.5-27.3 0L90.1 226.1c-12.6-12.6-3.7-34.1 14.1-34.1H192V24c0-13.3 10.7-24 24-24zm296 376v112c0 13.3-10.7 24-24 24H24c-13.3 0-24-10.7-24-24V376c0-13.3 10.7-24 24-24h146.7l49 49c20.1 20.1 52.5 20.1 72.6 0l49-49H488c13.3 0 24 10.7 24 24zm-124 88c0-11-9-20-20-20s-20 9-20 20 9 20 20 20 20-9 20-20zm64 0c0-11-9-20-20-20s-20 9-20 20 9 20 20 20 20-9 20-20z" class="compassNav" transform="translate(552,0) scale(0.05)" style="fill: #336699; stroke: #336699; stroke-width: 1px; cursor: pointer;"></path></g></svg>