<svg width="800" height="400" style="background-color: white;"><g transform="translate(50,0)"><svg width="700" height="360"><g style="-webkit-tap-highlight-color: rgba(0, 0, 0, 0);"><rect width="700" height="360" style="fill: #ffffff;"></rect><g id="lines"><line class="line" stroke-width="1" stroke="#d7301f" x1="-484.24657534246575" y1="333" x2="-484.24657534246575" y2="360" visibility="hidden" style="stroke-dasharray: 3px, 3px;"></line></g><g><rect x="-489.24657534246575" y="355" width="10" height="10" visibility="hidden" style="fill: #ffffff; stroke: #d7301f;"></rect></g><g id="lines"><line class="line" stroke-width="1" stroke="#6a51a3" x1="302.05479452054794" y1="333" x2="302.05479452054794" y2="327.27272727272725" visibility="hidden" style="stroke-dasharray: 3px, 3px;"></line><line class="line" stroke-width="1" stroke="#6a51a3" x1="306.8493150684931" y1="333" x2="306.8493150684931" y2="327.27272727272725" visibility="hidden" style="stroke-dasharray: 3px, 3px;"></line><line class="line" stroke-width="1" stroke="#6a51a3" x1="613.6986301369863" y1="333" x2="613.6986301369863" y2="232.60706235912846" visibility="hidden" style="stroke-dasharray: 3px, 3px;"></line><line class="line" stroke-width="1" stroke="#6a51a3" x1="623.2876712328767" y1="333" x2="623.2876712328767" y2="327.27272727272725" visibility="hidden" style="stroke-dasharray: 3px, 3px;"></line><line class="line" stroke-width="1" stroke="#6a51a3" x1="316.43835616438355" y1="333" x2="316.43835616438355" y2="327.27272727272725" visibility="hidden" style="stroke-dasharray: 3px, 3px;"></line><line class="line" stroke-width="1" stroke="#6a51a3" x1="326.027397260274" y1="333" x2="326.027397260274" y2="327.27272727272725" visibility="hidden" style="stroke-dasharray: 3px, 3px;"></line><line class="line" stroke-width="1" stroke="#6a51a3" x1="637.6712328767123" y1="333" x2="637.6712328767123" y2="327.27272727272725" visibility="hidden" style="stroke-dasharray: 3px, 3px;"></line><line class="line" stroke-width="1" stroke="#6a51a3" x1="330.82191780821915" y1="333" x2="330.82191780821915" y2="29.752066115702462" visibility="hidden" style="stroke-dasharray: 3px, 3px;"></line><line class="line" stroke-width="1" stroke="#6a51a3" x1="647.2602739726028" y1="333" x2="647.2602739726028" y2="327.27272727272725" visibility="hidden" style="stroke-dasharray: 3px, 3px;"></line><line class="line" stroke-width="1" stroke="#6a51a3" x1="345.20547945205476" y1="333" x2="345.20547945205476" y2="327.27272727272725" visibility="hidden" style="stroke-dasharray: 3px, 3px;"></line><line class="line" stroke-width="1" stroke="#6a51a3" x1="354.79452054794524" y1="333" x2="354.79452054794524" y2="327.27272727272725" visibility="hidden" style="stroke-dasharray: 3px, 3px;"></line><line class="line" stroke-width="1" stroke="#6a51a3" x1="666.4383561643835" y1="333" x2="666.4383561643835" y2="327.27272727272725" visibility="hidden" style="stroke-dasharray: 3px, 3px;"></line><line class="line" stroke-width="1" stroke="#6a51a3" x1="369.17808219178085" y1="333" x2="369.17808219178085" y2="327.27272727272725" visibility="hidden" style="stroke-dasharray: 3px, 3px;"></line><line class="line" stroke-width="1" stroke="#6a51a3" x1="676.0273972602739" y1="333" x2="676.0273972602739" y2="327.27272727272725" visibility="hidden" style="stroke-dasharray: 3px, 3px;"></line><line class="line" stroke-width="1" stroke="#6a51a3" x1="373.972602739726" y1="333" x2="373.972602739726" y2="327.27272727272725" visibility="hidden" style="stroke-dasharray: 3px, 3px;"></line><line class="line" stroke-width="1" stroke="#6a51a3" x1="378.76712328767127" y1="333" x2="378.76712328767127" y2="327.27272727272725" visibility="hidden" style="stroke-dasharray: 3px, 3px;"></line><line class="line" stroke-width="1" stroke="#6a51a3" x1="685.6164383561644" y1="333" x2="685.6164383561644" y2="29.752066115702462" visibility="hidden" style="stroke-dasharray: 3px, 3px;"></line><line class="line" stroke-width="1" stroke="#6a51a3" x1="383.5616438356164" y1="333" x2="383.5616438356164" y2="327.27272727272725" visibility="hidden" style="stroke-dasharray: 3px, 3px;"></line><line class="line" stroke-width="1" stroke="#6a51a3" x1="397.9452054794521" y1="333" x2="397.9452054794521" y2="327.27272727272725" visibility="hidden" style="stroke-dasharray: 3px, 3px;"></line><line class="line" stroke-width="1" stroke="#6a51a3" x1="417.1232876712329" y1="333" x2="417.1232876712329" y2="29.752066115702462" visibility="hidden" style="stroke-dasharray: 3px, 3px;"></line><line class="line" stroke-width="1" stroke="#6a51a3" x1="421.9178082191781" y1="333" x2="421.9178082191781" y2="327.27272727272725" visibility="hidden" style="stroke-dasharray: 3px, 3px;"></line><line class="line" stroke-width="1" stroke="#6a51a3" x1="426.71232876712327" y1="333" x2="426.71232876712327" y2="327.27272727272725" visibility="hidden" style="stroke-dasharray: 3px, 3px;"></line><line class="line" stroke-width="1" stroke="#6a51a3" x1="431.5068493150685" y1="333" x2="431.5068493150685" y2="327.27272727272725" visibility="hidden" style="stroke-dasharray: 3px, 3px;"></line><line class="line" stroke-width="1" stroke="#6a51a3" x1="139.04109589041096" y1="333" x2="139.04109589041096" y2="327.27272727272725" visibility="hidden" style="stroke-dasharray: 3px, 3px;"></line><line class="line" stroke-width="1" stroke="#6a51a3" x1="148.63013698630135" y1="333" x2="148.63013698630135" y2="327.27272727272725" visibility="hidden" style="stroke-dasharray: 3px, 3px;"></line><line class="line" stroke-width="1" stroke="#6a51a3" x1="460.2739726027397" y1="333" x2="460.2739726027397" y2="327.27272727272725" visibility="hidden" style="stroke-dasharray: 3px, 3px;"></line><line class="line" stroke-width="1" stroke="#6a51a3" x1="465.0684931506849" y1="333" x2="465.0684931506849" y2="327.27272727272725" visibility="hidden" style="stroke-dasharray: 3px, 3px;"></line><line class="line" stroke-width="1" stroke="#6a51a3" x1="177.39726027397262" y1="333" x2="177.39726027397262" y2="327.27272727272725" visibility="hidden" style="stroke-dasharray: 3px, 3px;"></line><line class="line" stroke-width="1" stroke="#6a51a3" x1="493.83561643835617" y1="333" x2="493.83561643835617" y2="327.27272727272725" visibility="hidden" style="stroke-dasharray: 3px, 3px;"></line><line class="line" stroke-width="1" stroke="#6a51a3" x1="186.986301369863" y1="333" x2="186.986301369863" y2="327.27272727272725" visibility="hidden" style="stroke-dasharray: 3px, 3px;"></line><line class="line" stroke-width="1" stroke="#6a51a3" x1="206.16438356164383" y1="333" x2="206.16438356164383" y2="327.27272727272725" visibility="hidden" style="stroke-dasharray: 3px, 3px;"></line><line class="line" stroke-width="1" stroke="#6a51a3" x1="517.8082191780821" y1="333" x2="517.8082191780821" y2="327.27272727272725" visibility="hidden" style="stroke-dasharray: 3px, 3px;"></line><line class="line" stroke-width="1" stroke="#6a51a3" x1="234.93150684931507" y1="333" x2="234.93150684931507" y2="41.343780186755396" visibility="hidden" style="stroke-dasharray: 3px, 3px;"></line><line class="line" stroke-width="1" stroke="#6a51a3" x1="249.31506849315068" y1="333" x2="249.31506849315068" y2="327.27272727272725" visibility="hidden" style="stroke-dasharray: 3px, 3px;"></line><line class="line" stroke-width="1" stroke="#6a51a3" x1="556.1643835616438" y1="333" x2="556.1643835616438" y2="327.27272727272725" visibility="hidden" style="stroke-dasharray: 3px, 3px;"></line><line class="line" stroke-width="1" stroke="#6a51a3" x1="263.6986301369863" y1="333" x2="263.6986301369863" y2="327.27272727272725" visibility="hidden" style="stroke-dasharray: 3px, 3px;"></line><line class="line" stroke-width="1" stroke="#6a51a3" x1="292.4657534246575" y1="333" x2="292.4657534246575" y2="327.27272727272725" visibility="hidden" style="stroke-dasharray: 3px, 3px;"></line><line class="line" stroke-width="1" stroke="#6a51a3" x1="604.1095890410959" y1="333" x2="604.1095890410959" y2="327.27272727272725" visibility="hidden" style="stroke-dasharray: 3px, 3px;"></line></g><g><rect x="297.05479452054794" y="322.27272727272725" width="10" height="10" visibility="hidden" style="fill: #ffffff; stroke: #6a51a3;"></rect><rect x="301.8493150684931" y="322.27272727272725" width="10" height="10" visibility="hidden" style="fill: #ffffff; stroke: #6a51a3;"></rect><rect x="608.6986301369863" y="227.60706235912846" width="10" height="10" visibility="hidden" style="fill: #ffffff; stroke: #6a51a3;"></rect><rect x="618.2876712328767" y="322.27272727272725" width="10" height="10" visibility="hidden" style="fill: #ffffff; stroke: #6a51a3;"></rect><rect x="311.43835616438355" y="322.27272727272725" width="10" height="10" visibility="hidden" style="fill: #ffffff; stroke: #6a51a3;"></rect><rect x="321.027397260274" y="322.27272727272725" width="10" height="10" visibility="hidden" style="fill: #ffffff; stroke: #6a51a3;"></rect><rect x="632.6712328767123" y="322.27272727272725" width="10" height="10" visibility="hidden" style="fill: #ffffff; stroke: #6a51a3;"></rect><rect x="325.82191780821915" y="24.752066115702462" width="10" height="10" visibility="hidden" style="fill: #ffffff; stroke: #6a51a3;"></rect><rect x="642.2602739726028" y="322.27272727272725" width="10" height="10" visibility="hidden" style="fill: #ffffff; stroke: #6a51a3;"></rect><rect x="340.20547945205476" y="322.27272727272725" width="10" height="10" visibility="hidden" style="fill: #ffffff; stroke: #6a51a3;"></rect><rect x="349.79452054794524" y="322.27272727272725" width="10" height="10" visibility="hidden" style="fill: #ffffff; stroke: #6a51a3;"></rect><rect x="661.4383561643835" y="322.27272727272725" width="10" height="10" visibility="hidden" style="fill: #ffffff; stroke: #6a51a3;"></rect><rect x="364.17808219178085" y="322.27272727272725" width="10" height="10" visibility="hidden" style="fill: #ffffff; stroke: #6a51a3;"></rect><rect x="671.0273972602739" y="322.27272727272725" width="10" height="10" visibility="hidden" style="fill: #ffffff; stroke: #6a51a3;"></rect><rect x="368.972602739726" y="322.27272727272725" width="10" height="10" visibility="hidden" style="fill: #ffffff; stroke: #6a51a3;"></rect><rect x="373.76712328767127" y="322.27272727272725" width="10" height="10" visibility="hidden" style="fill: #ffffff; stroke: #6a51a3;"></rect><rect x="680.6164383561644" y="24.752066115702462" width="10" height="10" visibility="hidden" style="fill: #ffffff; stroke: #6a51a3;"></rect><rect x="378.5616438356164" y="322.27272727272725" width="10" height="10" visibility="hidden" style="fill: #ffffff; stroke: #6a51a3;"></rect><rect x="392.9452054794521" y="322.27272727272725" width="10" height="10" visibility="hidden" style="fill: #ffffff; stroke: #6a51a3;"></rect><rect x="412.1232876712329" y="24.752066115702462" width="10" height="10" visibility="hidden" style="fill: #ffffff; stroke: #6a51a3;"></rect><rect x="416.9178082191781" y="322.27272727272725" width="10" height="10" visibility="hidden" style="fill: #ffffff; stroke: #6a51a3;"></rect><rect x="421.71232876712327" y="322.27272727272725" width="10" height="10" visibility="hidden" style="fill: #ffffff; stroke: #6a51a3;"></rect><rect x="426.5068493150685" y="322.27272727272725" width="10" height="10" visibility="hidden" style="fill: #ffffff; stroke: #6a51a3;"></rect><rect x="134.04109589041096" y="322.27272727272725" width="10" height="10" visibility="hidden" style="fill: #ffffff; stroke: #6a51a3;"></rect><rect x="143.63013698630135" y="322.27272727272725" width="10" height="10" visibility="hidden" style="fill: #ffffff; stroke: #6a51a3;"></rect><rect x="455.2739726027397" y="322.27272727272725" width="10" height="10" visibility="hidden" style="fill: #ffffff; stroke: #6a51a3;"></rect><rect x="460.0684931506849" y="322.27272727272725" width="10" height="10" visibility="hidden" style="fill: #ffffff; stroke: #6a51a3;"></rect><rect x="172.39726027397262" y="322.27272727272725" width="10" height="10" visibility="hidden" style="fill: #ffffff; stroke: #6a51a3;"></rect><rect x="488.83561643835617" y="322.27272727272725" width="10" height="10" visibility="hidden" style="fill: #ffffff; stroke: #6a51a3;"></rect><rect x="181.986301369863" y="322.27272727272725" width="10" height="10" visibility="hidden" style="fill: #ffffff; stroke: #6a51a3;"></rect><rect x="201.16438356164383" y="322.27272727272725" width="10" height="10" visibility="hidden" style="fill: #ffffff; stroke: #6a51a3;"></rect><rect x="512.8082191780821" y="322.27272727272725" width="10" height="10" visibility="hidden" style="fill: #ffffff; stroke: #6a51a3;"></rect><rect x="229.93150684931507" y="36.343780186755396" width="10" height="10" visibility="hidden" style="fill: #ffffff; stroke: #6a51a3;"></rect><rect x="244.31506849315068" y="322.27272727272725" width="10" height="10" visibility="hidden" style="fill: #ffffff; stroke: #6a51a3;"></rect><rect x="551.1643835616438" y="322.27272727272725" width="10" height="10" visibility="hidden" style="fill: #ffffff; stroke: #6a51a3;"></rect><rect x="258.6986301369863" y="322.27272727272725" width="10" height="10" visibility="hidden" style="fill: #ffffff; stroke: #6a51a3;"></rect><rect x="287.4657534246575" y="322.27272727272725" width="10" height="10" visibility="hidden" style="fill: #ffffff; stroke: #6a51a3;"></rect><rect x="599.1095890410959" y="322.27272727272725" width="10" height="10" visibility="hidden" style="fill: #ffffff; stroke: #6a51a3;"></rect></g><g id="lines"><line class="line" stroke-width="1" stroke="#666666" x1="105.47945205479452" y1="333" x2="105.47945205479452" y2="290.08264462809916"></line><line class="line" stroke-width="1" stroke="#666666" x1="115.06849315068493" y1="333" x2="115.06849315068493" y2="290.08264462809916"></line><line class="line" stroke-width="1" stroke="#666666" x1="163.013698630137" y1="333" x2="163.013698630137" y2="290.08264462809916"></line><line class="line" stroke-width="1" stroke="#666666" x1="163.013698630137" y1="333" x2="163.013698630137" y2="252.8925619834711"></line><line class="line" stroke-width="1" stroke="#666666" x1="239.72602739726025" y1="333" x2="239.72602739726025" y2="290.08264462809916"></line><line class="line" stroke-width="1" stroke="#666666" x1="258.90410958904107" y1="333" x2="258.90410958904107" y2="290.08264462809916"></line><line class="line" stroke-width="1" stroke="#666666" x1="258.90410958904107" y1="333" x2="258.90410958904107" y2="290.08264462809916"></line><line class="line" stroke-width="1" stroke="#666666" x1="321.2328767123288" y1="333" x2="321.2328767123288" y2="290.08264462809916"></line><line class="line" stroke-width="1" stroke="#666666" x1="321.2328767123288" y1="333" x2="321.2328767123288" y2="290.08264462809916"></line><line class="line" stroke-width="1" stroke="#666666" x1="340.4109589041096" y1="333" x2="340.4109589041096" y2="29.75206611570252"></line><line class="line" stroke-width="1" stroke="#666666" x1="393.1506849315069" y1="333" x2="393.1506849315069" y2="290.08264462809916"></line><line class="line" stroke-width="1" stroke="#666666" x1="393.1506849315069" y1="333" x2="393.1506849315069" y2="290.08264462809916"></line><line class="line" stroke-width="1" stroke="#666666" x1="455.47945205479454" y1="333" x2="455.47945205479454" y2="290.08264462809916"></line><line class="line" stroke-width="1" stroke="#666666" x1="455.47945205479454" y1="333" x2="455.47945205479454" y2="290.08264462809916"></line><line class="line" stroke-width="1" stroke="#666666" x1="455.47945205479454" y1="333" x2="455.47945205479454" y2="290.08264462809916"></line><line class="line" stroke-width="1" stroke="#666666" x1="560.9589041095891" y1="333" x2="560.9589041095891" y2="290.08264462809916"></line><line class="line" stroke-width="1" stroke="#666666" x1="594.5205479452054" y1="333" x2="594.5205479452054" y2="290.08264462809916"></line><line class="line" stroke-width="1" stroke="#666666" x1="652.054794520548" y1="333" x2="652.054794520548" y2="290.08264462809916"></line><line class="line" stroke-width="1" stroke="#666666" x1="656.8493150684932" y1="333" x2="656.8493150684932" y2="290.08264462809916"></line></g><g id="circles"><circle r="4" cx="105.47945205479452" cy="290.08264462809916" style="fill: #4393c3; stroke: #666666; stroke-width: 1px;"></circle><circle r="4" cx="115.06849315068493" cy="290.08264462809916" style="fill: #4393c3; stroke: #666666; stroke-width: 1px;"></circle><circle r="4" cx="163.013698630137" cy="290.08264462809916" style="fill: #bf812d; stroke: #666666; stroke-width: 1px;"></circle><circle r="4" cx="163.013698630137" cy="252.8925619834711" style="fill: #5aae61; stroke: #666666; stroke-width: 1px;"></circle><circle r="4" cx="239.72602739726025" cy="290.08264462809916" style="fill: #5aae61; stroke: #666666; stroke-width: 1px;"></circle><circle r="4" cx="258.90410958904107" cy="290.08264462809916" style="fill: #5aae61; stroke: #666666; stroke-width: 1px;"></circle><circle r="4" cx="258.90410958904107" cy="290.08264462809916" style="fill: #bf812d; stroke: #666666; stroke-width: 1px;"></circle><circle r="4" cx="321.2328767123288" cy="290.08264462809916" style="fill: #5aae61; stroke: #666666; stroke-width: 1px;"></circle><circle r="4" cx="321.2328767123288" cy="290.08264462809916" style="fill: #bf812d; stroke: #666666; stroke-width: 1px;"></circle><circle r="4" cx="340.4109589041096" cy="29.75206611570252" style="fill: #4393c3; stroke: #666666; stroke-width: 1px;"></circle><circle r="4" cx="393.1506849315069" cy="290.08264462809916" style="fill: #5aae61; stroke: #666666; stroke-width: 1px;"></circle><circle r="4" cx="393.1506849315069" cy="290.08264462809916" style="fill: #bf812d; stroke: #666666; stroke-width: 1px;"></circle><circle r="4" cx="455.47945205479454" cy="290.08264462809916" style="fill: #5aae61; stroke: #666666; stroke-width: 1px;"></circle><circle r="4" cx="455.47945205479454" cy="290.08264462809916" style="fill: #bf812d; stroke: #666666; stroke-width: 1px;"></circle><circle r="4" cx="455.47945205479454" cy="290.08264462809916" style="fill: #666666; stroke: #666666; stroke-width: 1px;"></circle><circle r="4" cx="560.9589041095891" cy="290.08264462809916" style="fill: #666666; stroke: #666666; stroke-width: 1px;"></circle><circle r="4" cx="594.5205479452054" cy="290.08264462809916" style="fill: #4393c3; stroke: #666666; stroke-width: 1px;"></circle><circle r="4" cx="652.054794520548" cy="290.08264462809916" style="fill: #4393c3; stroke: #666666; stroke-width: 1px;"></circle><circle r="4" cx="656.8493150684932" cy="290.08264462809916" style="fill: #4393c3; stroke: #666666; stroke-width: 1px;"></circle></g><g><rect x="0" y="333" width="700" height="12" style="fill: #ffffff; stroke-width: 1px; stroke: #666666;"></rect><rect x="148.63013698630135" y="333" width="513.013698630137" height="12" style="fill: #aec7e8; stroke-width: 1px; stroke: #666666;"></rect></g><g><a target="_blank" xlink:href="http://pfam.xfam.org/family/"><text y="343" x="350" text-anchor="middle" style="color: rgb(102, 102, 102); font-weight: normal; font-size: 12px; font-family: Arial; cursor: pointer;"></text></a><a target="_blank" xlink:href="http://pfam.xfam.org/family/Transthyretin"><text y="343" x="405.1369863013698" text-anchor="middle" style="color: rgb(102, 102, 102); font-weight: normal; font-size: 12px; font-family: Arial; cursor: pointer;">Transthyretin</text></a></g><g><text y="358" x="0" text-anchor="middle" visibility="hidden" style="font-size: 13px;">M</text><text y="358" x="4.794520547945205" text-anchor="middle" visibility="hidden" style="font-size: 13px;">A</text><text y="358" x="9.58904109589041" text-anchor="middle" visibility="hidden" style="font-size: 13px;">S</text><text y="358" x="14.383561643835616" text-anchor="middle" visibility="hidden" style="font-size: 13px;">H</text><text y="358" x="19.17808219178082" text-anchor="middle" visibility="hidden" style="font-size: 13px;">R</text><text y="358" x="23.972602739726025" text-anchor="middle" visibility="hidden" style="font-size: 13px;">L</text><text y="358" x="28.767123287671232" text-anchor="middle" visibility="hidden" style="font-size: 13px;">L</text><text y="358" x="33.56164383561644" text-anchor="middle" visibility="hidden" style="font-size: 13px;">L</text><text y="358" x="38.35616438356164" text-anchor="middle" visibility="hidden" style="font-size: 13px;">L</text><text y="358" x="43.150684931506845" text-anchor="middle" visibility="hidden" style="font-size: 13px;">C</text><text y="358" x="47.94520547945205" text-anchor="middle" visibility="hidden" style="font-size: 13px;">L</text><text y="358" x="52.73972602739726" text-anchor="middle" visibility="hidden" style="font-size: 13px;">A</text><text y="358" x="57.534246575342465" text-anchor="middle" visibility="hidden" style="font-size: 13px;">G</text><text y="358" x="62.32876712328767" text-anchor="middle" visibility="hidden" style="font-size: 13px;">L</text><text y="358" x="67.12328767123287" text-anchor="middle" visibility="hidden" style="font-size: 13px;">V</text><text y="358" x="71.91780821917808" text-anchor="middle" visibility="hidden" style="font-size: 13px;">F</text><text y="358" x="76.71232876712328" text-anchor="middle" visibility="hidden" style="font-size: 13px;">V</text><text y="358" x="81.5068493150685" text-anchor="middle" visibility="hidden" style="font-size: 13px;">S</text><text y="358" x="86.30136986301369" text-anchor="middle" visibility="hidden" style="font-size: 13px;">E</text><text y="358" x="91.0958904109589" text-anchor="middle" visibility="hidden" style="font-size: 13px;">A</text><text y="358" x="95.8904109589041" text-anchor="middle" visibility="hidden" style="font-size: 13px;">G</text><text y="358" x="100.68493150684931" text-anchor="middle" visibility="hidden" style="font-size: 13px;">P</text><text y="358" x="105.47945205479452" text-anchor="middle" visibility="hidden" style="font-size: 13px;">T</text><text y="358" x="110.27397260273972" text-anchor="middle" visibility="hidden" style="font-size: 13px;">G</text><text y="358" x="115.06849315068493" text-anchor="middle" visibility="hidden" style="font-size: 13px;">T</text><text y="358" x="119.86301369863013" text-anchor="middle" visibility="hidden" style="font-size: 13px;">G</text><text y="358" x="124.65753424657534" text-anchor="middle" visibility="hidden" style="font-size: 13px;">E</text><text y="358" x="129.45205479452054" text-anchor="middle" visibility="hidden" style="font-size: 13px;">S</text><text y="358" x="134.24657534246575" text-anchor="middle" visibility="hidden" style="font-size: 13px;">K</text><text y="358" x="139.04109589041096" text-anchor="middle" visibility="hidden" style="font-size: 13px;">C</text><text y="358" x="143.83561643835617" text-anchor="middle" visibility="hidden" style="font-size: 13px;">P</text><text y="358" x="148.63013698630135" text-anchor="middle" visibility="hidden" style="font-size: 13px;">L</text><text y="358" x="153.42465753424656" text-anchor="middle" visibility="hidden" style="font-size: 13px;">M</text><text y="358" x="158.21917808219177" text-anchor="middle" visibility="hidden" style="font-size: 13px;">V</text><text y="358" x="163.013698630137" text-anchor="middle" visibility="hidden" style="font-size: 13px;">K</text><text y="358" x="167.80821917808217" text-anchor="middle" visibility="hidden" style="font-size: 13px;">V</text><text y="358" x="172.60273972602738" text-anchor="middle" visibility="hidden" style="font-size: 13px;">L</text><text y="358" x="177.39726027397262" text-anchor="middle" visibility="hidden" style="font-size: 13px;">D</text><text y="358" x="182.1917808219178" text-anchor="middle" visibility="hidden" style="font-size: 13px;">A</text><text y="358" x="186.986301369863" text-anchor="middle" visibility="hidden" style="font-size: 13px;">V</text><text y="358" x="191.7808219178082" text-anchor="middle" visibility="hidden" style="font-size: 13px;">R</text><text y="358" x="196.57534246575344" text-anchor="middle" visibility="hidden" style="font-size: 13px;">G</text><text y="358" x="201.36986301369862" text-anchor="middle" visibility="hidden" style="font-size: 13px;">S</text><text y="358" x="206.16438356164383" text-anchor="middle" visibility="hidden" style="font-size: 13px;">P</text><text y="358" x="210.95890410958904" text-anchor="middle" visibility="hidden" style="font-size: 13px;">A</text><text y="358" x="215.75342465753425" text-anchor="middle" visibility="hidden" style="font-size: 13px;">I</text><text y="358" x="220.54794520547944" text-anchor="middle" visibility="hidden" style="font-size: 13px;">N</text><text y="358" x="225.34246575342468" text-anchor="middle" visibility="hidden" style="font-size: 13px;">V</text><text y="358" x="230.13698630136986" text-anchor="middle" visibility="hidden" style="font-size: 13px;">A</text><text y="358" x="234.93150684931507" text-anchor="middle" visibility="hidden" style="font-size: 13px;">V</text><text y="358" x="239.72602739726025" text-anchor="middle" visibility="hidden" style="font-size: 13px;">H</text><text y="358" x="244.5205479452055" text-anchor="middle" visibility="hidden" style="font-size: 13px;">V</text><text y="358" x="249.31506849315068" text-anchor="middle" visibility="hidden" style="font-size: 13px;">F</text><text y="358" x="254.1095890410959" text-anchor="middle" visibility="hidden" style="font-size: 13px;">R</text><text y="358" x="258.90410958904107" text-anchor="middle" visibility="hidden" style="font-size: 13px;">K</text><text y="358" x="263.6986301369863" text-anchor="middle" visibility="hidden" style="font-size: 13px;">A</text><text y="358" x="268.4931506849315" text-anchor="middle" visibility="hidden" style="font-size: 13px;">A</text><text y="358" x="273.28767123287673" text-anchor="middle" visibility="hidden" style="font-size: 13px;">D</text><text y="358" x="278.0821917808219" text-anchor="middle" visibility="hidden" style="font-size: 13px;">D</text><text y="358" x="282.87671232876716" text-anchor="middle" visibility="hidden" style="font-size: 13px;">T</text><text y="358" x="287.67123287671234" text-anchor="middle" visibility="hidden" style="font-size: 13px;">W</text><text y="358" x="292.4657534246575" text-anchor="middle" visibility="hidden" style="font-size: 13px;">E</text><text y="358" x="297.2602739726027" text-anchor="middle" visibility="hidden" style="font-size: 13px;">P</text><text y="358" x="302.05479452054794" text-anchor="middle" visibility="hidden" style="font-size: 13px;">F</text><text y="358" x="306.8493150684931" text-anchor="middle" visibility="hidden" style="font-size: 13px;">A</text><text y="358" x="311.64383561643837" text-anchor="middle" visibility="hidden" style="font-size: 13px;">S</text><text y="358" x="316.43835616438355" text-anchor="middle" visibility="hidden" style="font-size: 13px;">G</text><text y="358" x="321.2328767123288" text-anchor="middle" visibility="hidden" style="font-size: 13px;">K</text><text y="358" x="326.027397260274" text-anchor="middle" visibility="hidden" style="font-size: 13px;">T</text><text y="358" x="330.82191780821915" text-anchor="middle" visibility="hidden" style="font-size: 13px;">S</text><text y="358" x="335.61643835616434" text-anchor="middle" visibility="hidden" style="font-size: 13px;">E</text><text y="358" x="340.4109589041096" text-anchor="middle" visibility="hidden" style="font-size: 13px;">S</text><text y="358" x="345.20547945205476" text-anchor="middle" visibility="hidden" style="font-size: 13px;">G</text><text y="358" x="350" text-anchor="middle" visibility="hidden" style="font-size: 13px;">E</text><text y="358" x="354.79452054794524" text-anchor="middle" visibility="hidden" style="font-size: 13px;">L</text><text y="358" x="359.5890410958904" text-anchor="middle" visibility="hidden" style="font-size: 13px;">H</text><text y="358" x="364.3835616438356" text-anchor="middle" visibility="hidden" style="font-size: 13px;">G</text><text y="358" x="369.17808219178085" text-anchor="middle" visibility="hidden" style="font-size: 13px;">L</text><text y="358" x="373.972602739726" text-anchor="middle" visibility="hidden" style="font-size: 13px;">T</text><text y="358" x="378.76712328767127" text-anchor="middle" visibility="hidden" style="font-size: 13px;">T</text><text y="358" x="383.5616438356164" text-anchor="middle" visibility="hidden" style="font-size: 13px;">E</text><text y="358" x="388.35616438356163" text-anchor="middle" visibility="hidden" style="font-size: 13px;">E</text><text y="358" x="393.1506849315069" text-anchor="middle" visibility="hidden" style="font-size: 13px;">E</text><text y="358" x="397.9452054794521" text-anchor="middle" visibility="hidden" style="font-size: 13px;">F</text><text y="358" x="402.73972602739724" text-anchor="middle" visibility="hidden" style="font-size: 13px;">V</text><text y="358" x="407.5342465753425" text-anchor="middle" visibility="hidden" style="font-size: 13px;">E</text><text y="358" x="412.32876712328766" text-anchor="middle" visibility="hidden" style="font-size: 13px;">G</text><text y="358" x="417.1232876712329" text-anchor="middle" visibility="hidden" style="font-size: 13px;">I</text><text y="358" x="421.9178082191781" text-anchor="middle" visibility="hidden" style="font-size: 13px;">Y</text><text y="358" x="426.71232876712327" text-anchor="middle" visibility="hidden" style="font-size: 13px;">K</text><text y="358" x="431.5068493150685" text-anchor="middle" visibility="hidden" style="font-size: 13px;">V</text><text y="358" x="436.30136986301375" text-anchor="middle" visibility="hidden" style="font-size: 13px;">E</text><text y="358" x="441.0958904109589" text-anchor="middle" visibility="hidden" style="font-size: 13px;">I</text><text y="358" x="445.8904109589041" text-anchor="middle" visibility="hidden" style="font-size: 13px;">D</text><text y="358" x="450.68493150684935" text-anchor="middle" visibility="hidden" style="font-size: 13px;">T</text><text y="358" x="455.47945205479454" text-anchor="middle" visibility="hidden" style="font-size: 13px;">K</text><text y="358" x="460.2739726027397" text-anchor="middle" visibility="hidden" style="font-size: 13px;">S</text><text y="358" x="465.0684931506849" text-anchor="middle" visibility="hidden" style="font-size: 13px;">Y</text><text y="358" x="469.86301369863014" text-anchor="middle" visibility="hidden" style="font-size: 13px;">W</text><text y="358" x="474.6575342465754" text-anchor="middle" visibility="hidden" style="font-size: 13px;">K</text><text y="358" x="479.4520547945205" text-anchor="middle" visibility="hidden" style="font-size: 13px;">A</text><text y="358" x="484.24657534246575" text-anchor="middle" visibility="hidden" style="font-size: 13px;">L</text><text y="358" x="489.041095890411" text-anchor="middle" visibility="hidden" style="font-size: 13px;">G</text><text y="358" x="493.83561643835617" text-anchor="middle" visibility="hidden" style="font-size: 13px;">I</text><text y="358" x="498.63013698630135" text-anchor="middle" visibility="hidden" style="font-size: 13px;">S</text><text y="358" x="503.4246575342466" text-anchor="middle" visibility="hidden" style="font-size: 13px;">P</text><text y="358" x="508.2191780821918" text-anchor="middle" visibility="hidden" style="font-size: 13px;">F</text><text y="358" x="513.013698630137" text-anchor="middle" visibility="hidden" style="font-size: 13px;">H</text><text y="358" x="517.8082191780821" text-anchor="middle" visibility="hidden" style="font-size: 13px;">E</text><text y="358" x="522.6027397260274" text-anchor="middle" visibility="hidden" style="font-size: 13px;">H</text><text y="358" x="527.3972602739726" text-anchor="middle" visibility="hidden" style="font-size: 13px;">A</text><text y="358" x="532.1917808219179" text-anchor="middle" visibility="hidden" style="font-size: 13px;">E</text><text y="358" x="536.986301369863" text-anchor="middle" visibility="hidden" style="font-size: 13px;">V</text><text y="358" x="541.7808219178082" text-anchor="middle" visibility="hidden" style="font-size: 13px;">V</text><text y="358" x="546.5753424657535" text-anchor="middle" visibility="hidden" style="font-size: 13px;">F</text><text y="358" x="551.3698630136987" text-anchor="middle" visibility="hidden" style="font-size: 13px;">T</text><text y="358" x="556.1643835616438" text-anchor="middle" visibility="hidden" style="font-size: 13px;">A</text><text y="358" x="560.9589041095891" text-anchor="middle" visibility="hidden" style="font-size: 13px;">N</text><text y="358" x="565.7534246575343" text-anchor="middle" visibility="hidden" style="font-size: 13px;">D</text><text y="358" x="570.5479452054794" text-anchor="middle" visibility="hidden" style="font-size: 13px;">S</text><text y="358" x="575.3424657534247" text-anchor="middle" visibility="hidden" style="font-size: 13px;">G</text><text y="358" x="580.1369863013698" text-anchor="middle" visibility="hidden" style="font-size: 13px;">P</text><text y="358" x="584.931506849315" text-anchor="middle" visibility="hidden" style="font-size: 13px;">R</text><text y="358" x="589.7260273972603" text-anchor="middle" visibility="hidden" style="font-size: 13px;">R</text><text y="358" x="594.5205479452054" text-anchor="middle" visibility="hidden" style="font-size: 13px;">Y</text><text y="358" x="599.3150684931506" text-anchor="middle" visibility="hidden" style="font-size: 13px;">T</text><text y="358" x="604.1095890410959" text-anchor="middle" visibility="hidden" style="font-size: 13px;">I</text><text y="358" x="608.9041095890411" text-anchor="middle" visibility="hidden" style="font-size: 13px;">A</text><text y="358" x="613.6986301369863" text-anchor="middle" visibility="hidden" style="font-size: 13px;">A</text><text y="358" x="618.4931506849315" text-anchor="middle" visibility="hidden" style="font-size: 13px;">L</text><text y="358" x="623.2876712328767" text-anchor="middle" visibility="hidden" style="font-size: 13px;">L</text><text y="358" x="628.082191780822" text-anchor="middle" visibility="hidden" style="font-size: 13px;">S</text><text y="358" x="632.8767123287671" text-anchor="middle" visibility="hidden" style="font-size: 13px;">P</text><text y="358" x="637.6712328767123" text-anchor="middle" visibility="hidden" style="font-size: 13px;">Y</text><text y="358" x="642.4657534246576" text-anchor="middle" visibility="hidden" style="font-size: 13px;">S</text><text y="358" x="647.2602739726028" text-anchor="middle" visibility="hidden" style="font-size: 13px;">Y</text><text y="358" x="652.054794520548" text-anchor="middle" visibility="hidden" style="font-size: 13px;">S</text><text y="358" x="656.8493150684932" text-anchor="middle" visibility="hidden" style="font-size: 13px;">T</text><text y="358" x="661.6438356164383" text-anchor="middle" visibility="hidden" style="font-size: 13px;">T</text><text y="358" x="666.4383561643835" text-anchor="middle" visibility="hidden" style="font-size: 13px;">A</text><text y="358" x="671.2328767123287" text-anchor="middle" visibility="hidden" style="font-size: 13px;">V</text><text y="358" x="676.0273972602739" text-anchor="middle" visibility="hidden" style="font-size: 13px;">V</text><text y="358" x="680.8219178082192" text-anchor="middle" visibility="hidden" style="font-size: 13px;">T</text><text y="358" x="685.6164383561644" text-anchor="middle" visibility="hidden" style="font-size: 13px;">N</text><text y="358" x="690.4109589041095" text-anchor="middle" visibility="hidden" style="font-size: 13px;">P</text><text y="358" x="695.2054794520548" text-anchor="middle" visibility="hidden" style="font-size: 13px;">K</text><text y="358" x="700" text-anchor="middle" visibility="hidden" style="font-size: 13px;">E</text></g></g></svg><g class="xAxis" transform="translate(0,360)" fill="none" font-size="10" font-family="sans-serif" text-anchor="middle"><path class="domain" stroke="#000" d="M0.5,6V0.5H700.5V6"></path><g class="tick" opacity="1" transform="translate(91.5958904109589,0)"><line stroke="#000" y2="6"></line><text fill="#000" y="9" dy="0.71em">20</text></g><g class="tick" opacity="1" transform="translate(187.486301369863,0)"><line stroke="#000" y2="6"></line><text fill="#000" y="9" dy="0.71em">40</text></g><g class="tick" opacity="1" transform="translate(283.37671232876716,0)"><line stroke="#000" y2="6"></line><text fill="#000" y="9" dy="0.71em">60</text></g><g class="tick" opacity="1" transform="translate(379.26712328767127,0)"><line stroke="#000" y2="6"></line><text fill="#000" y="9" dy="0.71em">80</text></g><g class="tick" opacity="1" transform="translate(475.1575342465754,0)"><line stroke="#000" y2="6"></line><text fill="#000" y="9" dy="0.71em">100</text></g><g class="tick" opacity="1" transform="translate(571.0479452054794,0)"><line stroke="#000" y2="6"></line><text fill="#000" y="9" dy="0.71em">120</text></g><g class="tick" opacity="1" transform="translate(666.9383561643835,0)"><line stroke="#000" y2="6"></line><text fill="#000" y="9" dy="0.71em">140</text></g></g><text class="x label" text-anchor="end" x="700" y="390" style="font-size: 13px; font-family: Arial;">Residue number</text><g class="yAxis" fill="none" font-size="10" font-family="sans-serif" text-anchor="end"><path class="domain" stroke="#000" d="M-6,360.5H0.5V0.5H-6"></path><g class="tick" opacity="1" transform="translate(0,327.77272727272725)"><line stroke="#000" x2="-6"></line><text fill="#000" x="-9" dy="0.32em">0</text></g><g class="tick" opacity="1" transform="translate(0,290.58264462809916)"><line stroke="#000" x2="-6"></line><text fill="#000" x="-9" dy="0.32em">1</text></g><g class="tick" opacity="1" transform="translate(0,253.3925619834711)"><line stroke="#000" x2="-6"></line><text fill="#000" x="-9" dy="0.32em">2</text></g><g class="tick" opacity="1" transform="translate(0,216.202479338843)"><line stroke="#000" x2="-6"></line><text fill="#000" x="-9" dy="0.32em">3</text></g><g class="tick" opacity="1" transform="translate(0,179.0123966942149)"><line stroke="#000" x2="-6"></line><text fill="#000" x="-9" dy="0.32em">4</text></g><g class="tick" opacity="1" transform="translate(0,141.82231404958682)"><line stroke="#000" x2="-6"></line><text fill="#000" x="-9" dy="0.32em">5</text></g><g class="tick" opacity="1" transform="translate(0,104.63223140495873)"><line stroke="#000" x2="-6"></line><text fill="#000" x="-9" dy="0.32em">6</text></g><g class="tick" opacity="1" transform="translate(0,67.44214876033061)"><line stroke="#000" x2="-6"></line><text fill="#000" x="-9" dy="0.32em">7</text></g><g class="tick" opacity="1" transform="translate(0,30.25206611570252)"><line stroke="#000" x2="-6"></line><text fill="#000" x="-9" dy="0.32em">8</text></g></g><text class="y label" text-anchor="middle" y="-50" x="-180" dy="0.8em" transform="rotate(-90)" style="font-size: 13px; font-family: Arial;">Total number of references</text><g class="axisRed" fill="none" font-size="10" font-family="sans-serif" text-anchor="start" visibility="hidden" transform="translate(700, 0)"><path class="domain" stroke="#000" d="M6,360.5H0.5V0.5H6"></path><g class="tick" opacity="1" transform="translate(0,360.5)"><line stroke="#000" x2="6"></line><text fill="#000" x="9" dy="0.32em">0</text></g><text text-anchor="start" dx="5.2em" dy="-2.6em" transform="rotate(90)" visibility="hidden" style="font-size: 12px; font-family: Arial; fill: #d7301f;">No recurrent (&gt;2) missense mutations!</text></g><g class="axisPurple" fill="none" font-size="10" font-family="sans-serif" text-anchor="start" visibility="hidden"><path class="domain" stroke="#000" d="M6,360.5H0.5V0.5H6"></path><g class="tick" opacity="1" transform="translate(0,327.77272727272725)"><line stroke="#000" x2="6"></line><text fill="#000" x="9" dy="0.32em">0</text></g><g class="tick" opacity="1" transform="translate(0,289.1336803692176)"><line stroke="#000" x2="6"></line><text fill="#000" x="9" dy="0.32em">0.002</text></g><g class="tick" opacity="1" transform="translate(0,250.49463346570784)"><line stroke="#000" x2="6"></line><text fill="#000" x="9" dy="0.32em">0.004</text></g><g class="tick" opacity="1" transform="translate(0,211.85558656219814)"><line stroke="#000" x2="6"></line><text fill="#000" x="9" dy="0.32em">0.006</text></g><g class="tick" opacity="1" transform="translate(0,173.21653965868845)"><line stroke="#000" x2="6"></line><text fill="#000" x="9" dy="0.32em">0.008</text></g><g class="tick" opacity="1" transform="translate(0,134.57749275517872)"><line stroke="#000" x2="6"></line><text fill="#000" x="9" dy="0.32em">0.01</text></g><g class="tick" opacity="1" transform="translate(0,95.93844585166903)"><line stroke="#000" x2="6"></line><text fill="#000" x="9" dy="0.32em">0.012</text></g><g class="tick" opacity="1" transform="translate(0,57.29939894815931)"><line stroke="#000" x2="6"></line><text fill="#000" x="9" dy="0.32em">0.014</text></g><g class="tick" opacity="1" transform="translate(0,18.660352044649585)"><line stroke="#000" x2="6"></line><text fill="#000" x="9" dy="0.32em">0.016</text></g><text text-anchor="start" x="10" y="10" visibility="hidden" style="font-size: 12px; font-family: Arial; fill: #807dba;">Minor Allele Frequency (MAF) %</text></g><circle cx="636" cy="15" r="10" class="compassNav" style="fill: #ffffff; stroke: #666666; stroke-width: 1px;"></circle><path d="M440.935 12.574l3.966 82.766C399.416 41.904 331.674 8 256 8 134.813 8 33.933 94.924 12.296 209.824 10.908 217.193 16.604 224 24.103 224h49.084c5.57 0 10.377-3.842 11.676-9.259C103.407 137.408 172.931 80 256 80c60.893 0 114.512 30.856 146.104 77.801l-101.53-4.865c-6.845-.328-12.574 5.133-12.574 11.986v47.411c0 6.627 5.373 12 12 12h200.333c6.627 0 12-5.373 12-12V12c0-6.627-5.373-12-12-12h-47.411c-6.853 0-12.315 5.729-11.987 12.574zM256 432c-60.895 0-114.517-30.858-146.109-77.805l101.868 4.871c6.845.327 12.573-5.134 12.573-11.986v-47.412c0-6.627-5.373-12-12-12H12c-6.627 0-12 5.373-12 12V500c0 6.627 5.373 12 12 12h47.385c6.863 0 12.328-5.745 11.985-12.599l-4.129-82.575C112.725 470.166 180.405 504 256 504c121.187 0 222.067-86.924 243.704-201.824 1.388-7.369-4.308-14.176-11.807-14.176h-49.084c-5.57 0-10.377 3.842-11.676 9.259C408.593 374.592 339.069 432 256 432z" class="compassNav" transform="translate(631, 10) scale(0.02)" style="fill: #666666; stroke: #666666; stroke-width: 1px;"></path><circle cx="658" cy="15" r="10" class="compassNav" style="fill: #ffffff; stroke: #666666; stroke-width: 1px;"></circle><line class="compassNav" stroke-width="2" stroke="#666666" x1="654" y1="15" x2="662" y2="15"></line><line class="compassNav" stroke-width="2" stroke="#666666" x1="658" y1="11" x2="658" y2="19"></line><circle cx="614" cy="15" r="10" class="compassNav" style="fill: #ffffff; stroke: #666666; stroke-width: 1px;"></circle><line class="compassNav" stroke-width="2" stroke="#666666" x1="610" y1="15" x2="618" y2="15"></line><path d="M582 14 l20 -12 a100,40 0 0,0 0,24z" class="compassNav" style="fill: #ffffff; stroke: #666666; stroke-width: 1px;"></path><path d="M690 14 l-20 -12 a100,40 0 0,1 0,24z" class="compassNav" style="fill: #ffffff; stroke: #666666; stroke-width: 1px;"></path><path d="M216 0h80c13.3 0 24 10.7 24 24v168h87.7c17.8 0 26.7 21.5 14.1 34.1L269.7 378.3c-7.5 7.5-19.8 7.5-27.3 0L90.1 226.1c-12.6-12.6-3.7-34.1 14.1-34.1H192V24c0-13.3 10.7-24 24-24zm296 376v112c0 13.3-10.7 24-24 24H24c-13.3 0-24-10.7-24-24V376c0-13.3 10.7-24 24-24h146.7l49 49c20.1 20.1 52.5 20.1 72.6 0l49-49H488c13.3 0 24 10.7 24 24zm-124 88c0-11-9-20-20-20s-20 9-20 20 9 20 20 20 20-9 20-20zm64 0c0-11-9-20-20-20s-20 9-20 20 9 20 20 20 20-9 20-20z" class="compassNav" transform="translate(552,0) scale(0.05)" style="fill: #336699; stroke: #336699; stroke-width: 1px; cursor: pointer;"></path></g></svg>