<svg width="800" height="400" style="background-color: white;"><g transform="translate(50,0)"><svg width="700" height="360"><g style="-webkit-tap-highlight-color: rgba(0, 0, 0, 0);"><rect width="700" height="360" style="fill: #ffffff;"></rect><g id="lines"><line class="line" stroke-width="1" stroke="#d7301f" x1="-317.0403587443946" y1="333" x2="-317.0403587443946" y2="360" visibility="hidden" style="stroke-dasharray: 3px, 3px;"></line></g><g><rect x="-322.0403587443946" y="355" width="10" height="10" visibility="hidden" style="fill: #ffffff; stroke: #d7301f;"></rect></g><g id="lines"><line class="line" stroke-width="1" stroke="#6a51a3" x1="-317.0403587443946" y1="333" x2="-317.0403587443946" y2="327.27272727272725" visibility="hidden" style="stroke-dasharray: 3px, 3px;"></line></g><g><rect x="-322.0403587443946" y="322.27272727272725" width="10" height="10" visibility="hidden" style="fill: #ffffff; stroke: #6a51a3;"></rect></g><g id="lines"><line class="line" stroke-width="1" stroke="#666666" x1="6.278026905829596" y1="333" x2="6.278026905829596" y2="29.75206611570252"></line></g><g id="circles"><circle r="4" cx="6.278026905829596" cy="29.75206611570252" style="fill: #666666; stroke: #666666; stroke-width: 1px;"></circle></g><g><rect x="0" y="333" width="700" height="12" style="fill: #ffffff; stroke-width: 1px; stroke: #666666;"></rect><rect x="75.33632286995515" y="333" width="612.1076233183855" height="12" style="fill: #aec7e8; stroke-width: 1px; stroke: #666666;"></rect></g><g><a target="_blank" xlink:href="http://pfam.xfam.org/family/"><text y="343" x="350" text-anchor="middle" style="color: rgb(102, 102, 102); font-weight: normal; font-size: 12px; font-family: Arial; cursor: pointer;"></text></a><a target="_blank" xlink:href="http://pfam.xfam.org/family/Pentaxin"><text y="343" x="381.390134529148" text-anchor="middle" style="color: rgb(102, 102, 102); font-weight: normal; font-size: 12px; font-family: Arial; cursor: pointer;">Pentaxin</text></a></g><g><text y="358" x="0" text-anchor="middle" visibility="hidden" style="font-size: 13px;">M</text><text y="358" x="3.139013452914798" text-anchor="middle" visibility="hidden" style="font-size: 13px;">E</text><text y="358" x="6.278026905829596" text-anchor="middle" visibility="hidden" style="font-size: 13px;">K</text><text y="358" x="9.417040358744394" text-anchor="middle" visibility="hidden" style="font-size: 13px;">L</text><text y="358" x="12.556053811659192" text-anchor="middle" visibility="hidden" style="font-size: 13px;">L</text><text y="358" x="15.695067264573991" text-anchor="middle" visibility="hidden" style="font-size: 13px;">C</text><text y="358" x="18.83408071748879" text-anchor="middle" visibility="hidden" style="font-size: 13px;">F</text><text y="358" x="21.973094170403588" text-anchor="middle" visibility="hidden" style="font-size: 13px;">L</text><text y="358" x="25.112107623318384" text-anchor="middle" visibility="hidden" style="font-size: 13px;">V</text><text y="358" x="28.251121076233183" text-anchor="middle" visibility="hidden" style="font-size: 13px;">L</text><text y="358" x="31.390134529147982" text-anchor="middle" visibility="hidden" style="font-size: 13px;">T</text><text y="358" x="34.52914798206278" text-anchor="middle" visibility="hidden" style="font-size: 13px;">S</text><text y="358" x="37.66816143497758" text-anchor="middle" visibility="hidden" style="font-size: 13px;">L</text><text y="358" x="40.80717488789238" text-anchor="middle" visibility="hidden" style="font-size: 13px;">S</text><text y="358" x="43.946188340807176" text-anchor="middle" visibility="hidden" style="font-size: 13px;">H</text><text y="358" x="47.08520179372197" text-anchor="middle" visibility="hidden" style="font-size: 13px;">A</text><text y="358" x="50.22421524663677" text-anchor="middle" visibility="hidden" style="font-size: 13px;">F</text><text y="358" x="53.36322869955157" text-anchor="middle" visibility="hidden" style="font-size: 13px;">G</text><text y="358" x="56.502242152466366" text-anchor="middle" visibility="hidden" style="font-size: 13px;">Q</text><text y="358" x="59.64125560538116" text-anchor="middle" visibility="hidden" style="font-size: 13px;">T</text><text y="358" x="62.780269058295964" text-anchor="middle" visibility="hidden" style="font-size: 13px;">D</text><text y="358" x="65.91928251121075" text-anchor="middle" visibility="hidden" style="font-size: 13px;">M</text><text y="358" x="69.05829596412556" text-anchor="middle" visibility="hidden" style="font-size: 13px;">S</text><text y="358" x="72.19730941704036" text-anchor="middle" visibility="hidden" style="font-size: 13px;">R</text><text y="358" x="75.33632286995515" text-anchor="middle" visibility="hidden" style="font-size: 13px;">K</text><text y="358" x="78.47533632286996" text-anchor="middle" visibility="hidden" style="font-size: 13px;">A</text><text y="358" x="81.61434977578476" text-anchor="middle" visibility="hidden" style="font-size: 13px;">F</text><text y="358" x="84.75336322869956" text-anchor="middle" visibility="hidden" style="font-size: 13px;">V</text><text y="358" x="87.89237668161435" text-anchor="middle" visibility="hidden" style="font-size: 13px;">F</text><text y="358" x="91.03139013452913" text-anchor="middle" visibility="hidden" style="font-size: 13px;">P</text><text y="358" x="94.17040358744394" text-anchor="middle" visibility="hidden" style="font-size: 13px;">K</text><text y="358" x="97.30941704035875" text-anchor="middle" visibility="hidden" style="font-size: 13px;">E</text><text y="358" x="100.44843049327353" text-anchor="middle" visibility="hidden" style="font-size: 13px;">S</text><text y="358" x="103.58744394618834" text-anchor="middle" visibility="hidden" style="font-size: 13px;">D</text><text y="358" x="106.72645739910314" text-anchor="middle" visibility="hidden" style="font-size: 13px;">T</text><text y="358" x="109.86547085201795" text-anchor="middle" visibility="hidden" style="font-size: 13px;">S</text><text y="358" x="113.00448430493273" text-anchor="middle" visibility="hidden" style="font-size: 13px;">Y</text><text y="358" x="116.14349775784754" text-anchor="middle" visibility="hidden" style="font-size: 13px;">V</text><text y="358" x="119.28251121076232" text-anchor="middle" visibility="hidden" style="font-size: 13px;">S</text><text y="358" x="122.42152466367713" text-anchor="middle" visibility="hidden" style="font-size: 13px;">L</text><text y="358" x="125.56053811659193" text-anchor="middle" visibility="hidden" style="font-size: 13px;">K</text><text y="358" x="128.69955156950672" text-anchor="middle" visibility="hidden" style="font-size: 13px;">A</text><text y="358" x="131.8385650224215" text-anchor="middle" visibility="hidden" style="font-size: 13px;">P</text><text y="358" x="134.97757847533632" text-anchor="middle" visibility="hidden" style="font-size: 13px;">L</text><text y="358" x="138.11659192825113" text-anchor="middle" visibility="hidden" style="font-size: 13px;">T</text><text y="358" x="141.2556053811659" text-anchor="middle" visibility="hidden" style="font-size: 13px;">K</text><text y="358" x="144.39461883408072" text-anchor="middle" visibility="hidden" style="font-size: 13px;">P</text><text y="358" x="147.53363228699553" text-anchor="middle" visibility="hidden" style="font-size: 13px;">L</text><text y="358" x="150.6726457399103" text-anchor="middle" visibility="hidden" style="font-size: 13px;">K</text><text y="358" x="153.81165919282512" text-anchor="middle" visibility="hidden" style="font-size: 13px;">A</text><text y="358" x="156.95067264573993" text-anchor="middle" visibility="hidden" style="font-size: 13px;">F</text><text y="358" x="160.0896860986547" text-anchor="middle" visibility="hidden" style="font-size: 13px;">T</text><text y="358" x="163.22869955156952" text-anchor="middle" visibility="hidden" style="font-size: 13px;">V</text><text y="358" x="166.3677130044843" text-anchor="middle" visibility="hidden" style="font-size: 13px;">C</text><text y="358" x="169.5067264573991" text-anchor="middle" visibility="hidden" style="font-size: 13px;">L</text><text y="358" x="172.6457399103139" text-anchor="middle" visibility="hidden" style="font-size: 13px;">H</text><text y="358" x="175.7847533632287" text-anchor="middle" visibility="hidden" style="font-size: 13px;">F</text><text y="358" x="178.9237668161435" text-anchor="middle" visibility="hidden" style="font-size: 13px;">Y</text><text y="358" x="182.06278026905827" text-anchor="middle" visibility="hidden" style="font-size: 13px;">T</text><text y="358" x="185.20179372197308" text-anchor="middle" visibility="hidden" style="font-size: 13px;">E</text><text y="358" x="188.34080717488789" text-anchor="middle" visibility="hidden" style="font-size: 13px;">L</text><text y="358" x="191.4798206278027" text-anchor="middle" visibility="hidden" style="font-size: 13px;">S</text><text y="358" x="194.6188340807175" text-anchor="middle" visibility="hidden" style="font-size: 13px;">S</text><text y="358" x="197.7578475336323" text-anchor="middle" visibility="hidden" style="font-size: 13px;">T</text><text y="358" x="200.89686098654707" text-anchor="middle" visibility="hidden" style="font-size: 13px;">R</text><text y="358" x="204.03587443946188" text-anchor="middle" visibility="hidden" style="font-size: 13px;">G</text><text y="358" x="207.1748878923767" text-anchor="middle" visibility="hidden" style="font-size: 13px;">Y</text><text y="358" x="210.31390134529147" text-anchor="middle" visibility="hidden" style="font-size: 13px;">S</text><text y="358" x="213.45291479820628" text-anchor="middle" visibility="hidden" style="font-size: 13px;">I</text><text y="358" x="216.5919282511211" text-anchor="middle" visibility="hidden" style="font-size: 13px;">F</text><text y="358" x="219.7309417040359" text-anchor="middle" visibility="hidden" style="font-size: 13px;">S</text><text y="358" x="222.86995515695065" text-anchor="middle" visibility="hidden" style="font-size: 13px;">Y</text><text y="358" x="226.00896860986546" text-anchor="middle" visibility="hidden" style="font-size: 13px;">A</text><text y="358" x="229.14798206278027" text-anchor="middle" visibility="hidden" style="font-size: 13px;">T</text><text y="358" x="232.28699551569508" text-anchor="middle" visibility="hidden" style="font-size: 13px;">K</text><text y="358" x="235.4260089686099" text-anchor="middle" visibility="hidden" style="font-size: 13px;">R</text><text y="358" x="238.56502242152465" text-anchor="middle" visibility="hidden" style="font-size: 13px;">Q</text><text y="358" x="241.70403587443946" text-anchor="middle" visibility="hidden" style="font-size: 13px;">D</text><text y="358" x="244.84304932735427" text-anchor="middle" visibility="hidden" style="font-size: 13px;">N</text><text y="358" x="247.98206278026908" text-anchor="middle" visibility="hidden" style="font-size: 13px;">E</text><text y="358" x="251.12107623318386" text-anchor="middle" visibility="hidden" style="font-size: 13px;">I</text><text y="358" x="254.26008968609864" text-anchor="middle" visibility="hidden" style="font-size: 13px;">L</text><text y="358" x="257.39910313901345" text-anchor="middle" visibility="hidden" style="font-size: 13px;">I</text><text y="358" x="260.53811659192826" text-anchor="middle" visibility="hidden" style="font-size: 13px;">F</text><text y="358" x="263.677130044843" text-anchor="middle" visibility="hidden" style="font-size: 13px;">W</text><text y="358" x="266.8161434977578" text-anchor="middle" visibility="hidden" style="font-size: 13px;">S</text><text y="358" x="269.95515695067263" text-anchor="middle" visibility="hidden" style="font-size: 13px;">K</text><text y="358" x="273.09417040358744" text-anchor="middle" visibility="hidden" style="font-size: 13px;">D</text><text y="358" x="276.23318385650225" text-anchor="middle" visibility="hidden" style="font-size: 13px;">I</text><text y="358" x="279.372197309417" text-anchor="middle" visibility="hidden" style="font-size: 13px;">G</text><text y="358" x="282.5112107623318" text-anchor="middle" visibility="hidden" style="font-size: 13px;">Y</text><text y="358" x="285.6502242152466" text-anchor="middle" visibility="hidden" style="font-size: 13px;">S</text><text y="358" x="288.78923766816143" text-anchor="middle" visibility="hidden" style="font-size: 13px;">F</text><text y="358" x="291.92825112107624" text-anchor="middle" visibility="hidden" style="font-size: 13px;">T</text><text y="358" x="295.06726457399105" text-anchor="middle" visibility="hidden" style="font-size: 13px;">V</text><text y="358" x="298.20627802690586" text-anchor="middle" visibility="hidden" style="font-size: 13px;">G</text><text y="358" x="301.3452914798206" text-anchor="middle" visibility="hidden" style="font-size: 13px;">G</text><text y="358" x="304.4843049327354" text-anchor="middle" visibility="hidden" style="font-size: 13px;">S</text><text y="358" x="307.62331838565024" text-anchor="middle" visibility="hidden" style="font-size: 13px;">E</text><text y="358" x="310.76233183856505" text-anchor="middle" visibility="hidden" style="font-size: 13px;">I</text><text y="358" x="313.90134529147986" text-anchor="middle" visibility="hidden" style="font-size: 13px;">L</text><text y="358" x="317.0403587443946" text-anchor="middle" visibility="hidden" style="font-size: 13px;">F</text><text y="358" x="320.1793721973094" text-anchor="middle" visibility="hidden" style="font-size: 13px;">E</text><text y="358" x="323.31838565022423" text-anchor="middle" visibility="hidden" style="font-size: 13px;">V</text><text y="358" x="326.45739910313904" text-anchor="middle" visibility="hidden" style="font-size: 13px;">P</text><text y="358" x="329.59641255605385" text-anchor="middle" visibility="hidden" style="font-size: 13px;">E</text><text y="358" x="332.7354260089686" text-anchor="middle" visibility="hidden" style="font-size: 13px;">V</text><text y="358" x="335.8744394618834" text-anchor="middle" visibility="hidden" style="font-size: 13px;">T</text><text y="358" x="339.0134529147982" text-anchor="middle" visibility="hidden" style="font-size: 13px;">V</text><text y="358" x="342.15246636771303" text-anchor="middle" visibility="hidden" style="font-size: 13px;">A</text><text y="358" x="345.2914798206278" text-anchor="middle" visibility="hidden" style="font-size: 13px;">P</text><text y="358" x="348.4304932735426" text-anchor="middle" visibility="hidden" style="font-size: 13px;">V</text><text y="358" x="351.5695067264574" text-anchor="middle" visibility="hidden" style="font-size: 13px;">H</text><text y="358" x="354.7085201793722" text-anchor="middle" visibility="hidden" style="font-size: 13px;">I</text><text y="358" x="357.847533632287" text-anchor="middle" visibility="hidden" style="font-size: 13px;">C</text><text y="358" x="360.98654708520183" text-anchor="middle" visibility="hidden" style="font-size: 13px;">T</text><text y="358" x="364.12556053811653" text-anchor="middle" visibility="hidden" style="font-size: 13px;">S</text><text y="358" x="367.26457399103134" text-anchor="middle" visibility="hidden" style="font-size: 13px;">W</text><text y="358" x="370.40358744394615" text-anchor="middle" visibility="hidden" style="font-size: 13px;">E</text><text y="358" x="373.54260089686096" text-anchor="middle" visibility="hidden" style="font-size: 13px;">S</text><text y="358" x="376.68161434977577" text-anchor="middle" visibility="hidden" style="font-size: 13px;">A</text><text y="358" x="379.8206278026906" text-anchor="middle" visibility="hidden" style="font-size: 13px;">S</text><text y="358" x="382.9596412556054" text-anchor="middle" visibility="hidden" style="font-size: 13px;">G</text><text y="358" x="386.0986547085202" text-anchor="middle" visibility="hidden" style="font-size: 13px;">I</text><text y="358" x="389.237668161435" text-anchor="middle" visibility="hidden" style="font-size: 13px;">V</text><text y="358" x="392.37668161434976" text-anchor="middle" visibility="hidden" style="font-size: 13px;">E</text><text y="358" x="395.5156950672646" text-anchor="middle" visibility="hidden" style="font-size: 13px;">F</text><text y="358" x="398.6547085201794" text-anchor="middle" visibility="hidden" style="font-size: 13px;">W</text><text y="358" x="401.79372197309414" text-anchor="middle" visibility="hidden" style="font-size: 13px;">V</text><text y="358" x="404.93273542600895" text-anchor="middle" visibility="hidden" style="font-size: 13px;">D</text><text y="358" x="408.07174887892376" text-anchor="middle" visibility="hidden" style="font-size: 13px;">G</text><text y="358" x="411.21076233183857" text-anchor="middle" visibility="hidden" style="font-size: 13px;">K</text><text y="358" x="414.3497757847534" text-anchor="middle" visibility="hidden" style="font-size: 13px;">P</text><text y="358" x="417.48878923766813" text-anchor="middle" visibility="hidden" style="font-size: 13px;">R</text><text y="358" x="420.62780269058294" text-anchor="middle" visibility="hidden" style="font-size: 13px;">V</text><text y="358" x="423.76681614349775" text-anchor="middle" visibility="hidden" style="font-size: 13px;">R</text><text y="358" x="426.90582959641256" text-anchor="middle" visibility="hidden" style="font-size: 13px;">K</text><text y="358" x="430.04484304932737" text-anchor="middle" visibility="hidden" style="font-size: 13px;">S</text><text y="358" x="433.1838565022422" text-anchor="middle" visibility="hidden" style="font-size: 13px;">L</text><text y="358" x="436.322869955157" text-anchor="middle" visibility="hidden" style="font-size: 13px;">K</text><text y="358" x="439.4618834080718" text-anchor="middle" visibility="hidden" style="font-size: 13px;">K</text><text y="358" x="442.6008968609866" text-anchor="middle" visibility="hidden" style="font-size: 13px;">G</text><text y="358" x="445.7399103139013" text-anchor="middle" visibility="hidden" style="font-size: 13px;">Y</text><text y="358" x="448.8789237668161" text-anchor="middle" visibility="hidden" style="font-size: 13px;">T</text><text y="358" x="452.0179372197309" text-anchor="middle" visibility="hidden" style="font-size: 13px;">V</text><text y="358" x="455.15695067264573" text-anchor="middle" visibility="hidden" style="font-size: 13px;">G</text><text y="358" x="458.29596412556054" text-anchor="middle" visibility="hidden" style="font-size: 13px;">A</text><text y="358" x="461.43497757847535" text-anchor="middle" visibility="hidden" style="font-size: 13px;">E</text><text y="358" x="464.57399103139016" text-anchor="middle" visibility="hidden" style="font-size: 13px;">A</text><text y="358" x="467.713004484305" text-anchor="middle" visibility="hidden" style="font-size: 13px;">S</text><text y="358" x="470.8520179372198" text-anchor="middle" visibility="hidden" style="font-size: 13px;">I</text><text y="358" x="473.9910313901345" text-anchor="middle" visibility="hidden" style="font-size: 13px;">I</text><text y="358" x="477.1300448430493" text-anchor="middle" visibility="hidden" style="font-size: 13px;">L</text><text y="358" x="480.2690582959641" text-anchor="middle" visibility="hidden" style="font-size: 13px;">G</text><text y="358" x="483.4080717488789" text-anchor="middle" visibility="hidden" style="font-size: 13px;">Q</text><text y="358" x="486.5470852017937" text-anchor="middle" visibility="hidden" style="font-size: 13px;">E</text><text y="358" x="489.68609865470853" text-anchor="middle" visibility="hidden" style="font-size: 13px;">Q</text><text y="358" x="492.82511210762334" text-anchor="middle" visibility="hidden" style="font-size: 13px;">D</text><text y="358" x="495.96412556053815" text-anchor="middle" visibility="hidden" style="font-size: 13px;">S</text><text y="358" x="499.1031390134529" text-anchor="middle" visibility="hidden" style="font-size: 13px;">F</text><text y="358" x="502.2421524663677" text-anchor="middle" visibility="hidden" style="font-size: 13px;">G</text><text y="358" x="505.38116591928247" text-anchor="middle" visibility="hidden" style="font-size: 13px;">G</text><text y="358" x="508.5201793721973" text-anchor="middle" visibility="hidden" style="font-size: 13px;">N</text><text y="358" x="511.6591928251121" text-anchor="middle" visibility="hidden" style="font-size: 13px;">F</text><text y="358" x="514.7982062780269" text-anchor="middle" visibility="hidden" style="font-size: 13px;">E</text><text y="358" x="517.9372197309417" text-anchor="middle" visibility="hidden" style="font-size: 13px;">G</text><text y="358" x="521.0762331838565" text-anchor="middle" visibility="hidden" style="font-size: 13px;">S</text><text y="358" x="524.2152466367713" text-anchor="middle" visibility="hidden" style="font-size: 13px;">Q</text><text y="358" x="527.354260089686" text-anchor="middle" visibility="hidden" style="font-size: 13px;">S</text><text y="358" x="530.4932735426008" text-anchor="middle" visibility="hidden" style="font-size: 13px;">L</text><text y="358" x="533.6322869955156" text-anchor="middle" visibility="hidden" style="font-size: 13px;">V</text><text y="358" x="536.7713004484305" text-anchor="middle" visibility="hidden" style="font-size: 13px;">G</text><text y="358" x="539.9103139013453" text-anchor="middle" visibility="hidden" style="font-size: 13px;">D</text><text y="358" x="543.0493273542601" text-anchor="middle" visibility="hidden" style="font-size: 13px;">I</text><text y="358" x="546.1883408071749" text-anchor="middle" visibility="hidden" style="font-size: 13px;">G</text><text y="358" x="549.3273542600897" text-anchor="middle" visibility="hidden" style="font-size: 13px;">N</text><text y="358" x="552.4663677130045" text-anchor="middle" visibility="hidden" style="font-size: 13px;">V</text><text y="358" x="555.6053811659192" text-anchor="middle" visibility="hidden" style="font-size: 13px;">N</text><text y="358" x="558.744394618834" text-anchor="middle" visibility="hidden" style="font-size: 13px;">M</text><text y="358" x="561.8834080717488" text-anchor="middle" visibility="hidden" style="font-size: 13px;">W</text><text y="358" x="565.0224215246636" text-anchor="middle" visibility="hidden" style="font-size: 13px;">D</text><text y="358" x="568.1614349775784" text-anchor="middle" visibility="hidden" style="font-size: 13px;">F</text><text y="358" x="571.3004484304932" text-anchor="middle" visibility="hidden" style="font-size: 13px;">V</text><text y="358" x="574.4394618834081" text-anchor="middle" visibility="hidden" style="font-size: 13px;">L</text><text y="358" x="577.5784753363229" text-anchor="middle" visibility="hidden" style="font-size: 13px;">S</text><text y="358" x="580.7174887892377" text-anchor="middle" visibility="hidden" style="font-size: 13px;">P</text><text y="358" x="583.8565022421525" text-anchor="middle" visibility="hidden" style="font-size: 13px;">D</text><text y="358" x="586.9955156950673" text-anchor="middle" visibility="hidden" style="font-size: 13px;">E</text><text y="358" x="590.1345291479821" text-anchor="middle" visibility="hidden" style="font-size: 13px;">I</text><text y="358" x="593.2735426008969" text-anchor="middle" visibility="hidden" style="font-size: 13px;">N</text><text y="358" x="596.4125560538117" text-anchor="middle" visibility="hidden" style="font-size: 13px;">T</text><text y="358" x="599.5515695067264" text-anchor="middle" visibility="hidden" style="font-size: 13px;">I</text><text y="358" x="602.6905829596412" text-anchor="middle" visibility="hidden" style="font-size: 13px;">Y</text><text y="358" x="605.829596412556" text-anchor="middle" visibility="hidden" style="font-size: 13px;">L</text><text y="358" x="608.9686098654709" text-anchor="middle" visibility="hidden" style="font-size: 13px;">G</text><text y="358" x="612.1076233183857" text-anchor="middle" visibility="hidden" style="font-size: 13px;">G</text><text y="358" x="615.2466367713005" text-anchor="middle" visibility="hidden" style="font-size: 13px;">P</text><text y="358" x="618.3856502242153" text-anchor="middle" visibility="hidden" style="font-size: 13px;">F</text><text y="358" x="621.5246636771301" text-anchor="middle" visibility="hidden" style="font-size: 13px;">S</text><text y="358" x="624.6636771300449" text-anchor="middle" visibility="hidden" style="font-size: 13px;">P</text><text y="358" x="627.8026905829597" text-anchor="middle" visibility="hidden" style="font-size: 13px;">N</text><text y="358" x="630.9417040358745" text-anchor="middle" visibility="hidden" style="font-size: 13px;">V</text><text y="358" x="634.0807174887892" text-anchor="middle" visibility="hidden" style="font-size: 13px;">L</text><text y="358" x="637.219730941704" text-anchor="middle" visibility="hidden" style="font-size: 13px;">N</text><text y="358" x="640.3587443946188" text-anchor="middle" visibility="hidden" style="font-size: 13px;">W</text><text y="358" x="643.4977578475336" text-anchor="middle" visibility="hidden" style="font-size: 13px;">R</text><text y="358" x="646.6367713004485" text-anchor="middle" visibility="hidden" style="font-size: 13px;">A</text><text y="358" x="649.7757847533633" text-anchor="middle" visibility="hidden" style="font-size: 13px;">L</text><text y="358" x="652.9147982062781" text-anchor="middle" visibility="hidden" style="font-size: 13px;">K</text><text y="358" x="656.0538116591929" text-anchor="middle" visibility="hidden" style="font-size: 13px;">Y</text><text y="358" x="659.1928251121077" text-anchor="middle" visibility="hidden" style="font-size: 13px;">E</text><text y="358" x="662.3318385650224" text-anchor="middle" visibility="hidden" style="font-size: 13px;">V</text><text y="358" x="665.4708520179372" text-anchor="middle" visibility="hidden" style="font-size: 13px;">Q</text><text y="358" x="668.609865470852" text-anchor="middle" visibility="hidden" style="font-size: 13px;">G</text><text y="358" x="671.7488789237668" text-anchor="middle" visibility="hidden" style="font-size: 13px;">E</text><text y="358" x="674.8878923766816" text-anchor="middle" visibility="hidden" style="font-size: 13px;">V</text><text y="358" x="678.0269058295964" text-anchor="middle" visibility="hidden" style="font-size: 13px;">F</text><text y="358" x="681.1659192825113" text-anchor="middle" visibility="hidden" style="font-size: 13px;">T</text><text y="358" x="684.3049327354261" text-anchor="middle" visibility="hidden" style="font-size: 13px;">K</text><text y="358" x="687.4439461883408" text-anchor="middle" visibility="hidden" style="font-size: 13px;">P</text><text y="358" x="690.5829596412556" text-anchor="middle" visibility="hidden" style="font-size: 13px;">Q</text><text y="358" x="693.7219730941704" text-anchor="middle" visibility="hidden" style="font-size: 13px;">L</text><text y="358" x="696.8609865470852" text-anchor="middle" visibility="hidden" style="font-size: 13px;">W</text><text y="358" x="700" text-anchor="middle" visibility="hidden" style="font-size: 13px;">P</text></g></g></svg><g class="xAxis" transform="translate(0,360)" fill="none" font-size="10" font-family="sans-serif" text-anchor="middle"><path class="domain" stroke="#000" d="M0.5,6V0.5H700.5V6"></path><g class="tick" opacity="1" transform="translate(60.14125560538116,0)"><line stroke="#000" y2="6"></line><text fill="#000" y="9" dy="0.71em">20</text></g><g class="tick" opacity="1" transform="translate(122.92152466367713,0)"><line stroke="#000" y2="6"></line><text fill="#000" y="9" dy="0.71em">40</text></g><g class="tick" opacity="1" transform="translate(185.70179372197308,0)"><line stroke="#000" y2="6"></line><text fill="#000" y="9" dy="0.71em">60</text></g><g class="tick" opacity="1" transform="translate(248.48206278026908,0)"><line stroke="#000" y2="6"></line><text fill="#000" y="9" dy="0.71em">80</text></g><g class="tick" opacity="1" transform="translate(311.26233183856505,0)"><line stroke="#000" y2="6"></line><text fill="#000" y="9" dy="0.71em">100</text></g><g class="tick" opacity="1" transform="translate(374.04260089686096,0)"><line stroke="#000" y2="6"></line><text fill="#000" y="9" dy="0.71em">120</text></g><g class="tick" opacity="1" transform="translate(436.822869955157,0)"><line stroke="#000" y2="6"></line><text fill="#000" y="9" dy="0.71em">140</text></g><g class="tick" opacity="1" transform="translate(499.6031390134529,0)"><line stroke="#000" y2="6"></line><text fill="#000" y="9" dy="0.71em">160</text></g><g class="tick" opacity="1" transform="translate(562.3834080717488,0)"><line stroke="#000" y2="6"></line><text fill="#000" y="9" dy="0.71em">180</text></g><g class="tick" opacity="1" transform="translate(625.1636771300449,0)"><line stroke="#000" y2="6"></line><text fill="#000" y="9" dy="0.71em">200</text></g><g class="tick" opacity="1" transform="translate(687.9439461883408,0)"><line stroke="#000" y2="6"></line><text fill="#000" y="9" dy="0.71em">220</text></g></g><text class="x label" text-anchor="end" x="700" y="390" style="font-size: 13px; font-family: Arial;">Residue number</text><g class="yAxis" fill="none" font-size="10" font-family="sans-serif" text-anchor="end"><path class="domain" stroke="#000" d="M-6,360.5H0.5V0.5H-6"></path><g class="tick" opacity="1" transform="translate(0,357.52479338842977)"><line stroke="#000" x2="-6"></line><text fill="#000" x="-9" dy="0.32em"></text></g><g class="tick" opacity="1" transform="translate(0,327.77272727272725)"><line stroke="#000" x2="-6"></line><text fill="#000" x="-9" dy="0.32em">0</text></g><g class="tick" opacity="1" transform="translate(0,298.0206611570248)"><line stroke="#000" x2="-6"></line><text fill="#000" x="-9" dy="0.32em">0.1</text></g><g class="tick" opacity="1" transform="translate(0,268.2685950413223)"><line stroke="#000" x2="-6"></line><text fill="#000" x="-9" dy="0.32em">0.2</text></g><g class="tick" opacity="1" transform="translate(0,238.51652892561984)"><line stroke="#000" x2="-6"></line><text fill="#000" x="-9" dy="0.32em">0.3</text></g><g class="tick" opacity="1" transform="translate(0,208.76446280991738)"><line stroke="#000" x2="-6"></line><text fill="#000" x="-9" dy="0.32em">0.4</text></g><g class="tick" opacity="1" transform="translate(0,179.0123966942149)"><line stroke="#000" x2="-6"></line><text fill="#000" x="-9" dy="0.32em">0.5</text></g><g class="tick" opacity="1" transform="translate(0,149.26033057851242)"><line stroke="#000" x2="-6"></line><text fill="#000" x="-9" dy="0.32em">0.6</text></g><g class="tick" opacity="1" transform="translate(0,119.50826446280996)"><line stroke="#000" x2="-6"></line><text fill="#000" x="-9" dy="0.32em">0.7</text></g><g class="tick" opacity="1" transform="translate(0,89.75619834710744)"><line stroke="#000" x2="-6"></line><text fill="#000" x="-9" dy="0.32em">0.8</text></g><g class="tick" opacity="1" transform="translate(0,60.00413223140498)"><line stroke="#000" x2="-6"></line><text fill="#000" x="-9" dy="0.32em">0.9</text></g><g class="tick" opacity="1" transform="translate(0,30.25206611570252)"><line stroke="#000" x2="-6"></line><text fill="#000" x="-9" dy="0.32em">1</text></g><g class="tick" opacity="1" transform="translate(0,0.5)"><line stroke="#000" x2="-6"></line><text fill="#000" x="-9" dy="0.32em">1.1</text></g></g><text class="y label" text-anchor="middle" y="-50" x="-180" dy="0.8em" transform="rotate(-90)" style="font-size: 13px; font-family: Arial;">Total number of references</text><g class="axisRed" fill="none" font-size="10" font-family="sans-serif" text-anchor="start" visibility="hidden" transform="translate(700, 0)"><path class="domain" stroke="#000" d="M6,360.5H0.5V0.5H6"></path><g class="tick" opacity="1" transform="translate(0,360.5)"><line stroke="#000" x2="6"></line><text fill="#000" x="9" dy="0.32em">0</text></g><text text-anchor="start" dx="5.2em" dy="-2.6em" transform="rotate(90)" visibility="hidden" style="font-size: 12px; font-family: Arial; fill: #d7301f;">No recurrent (&gt;2) missense mutations!</text></g><g class="axisPurple" fill="none" font-size="10" font-family="sans-serif" text-anchor="start" visibility="hidden"><path class="domain" stroke="#000" d="M6,360.5H0.5V0.5H6"></path><g class="tick" opacity="1" transform="translate(0,357.52479338842977)"><line stroke="#000" x2="6"></line><text fill="#000" x="9" dy="0.32em"></text></g><g class="tick" opacity="1" transform="translate(0,327.77272727272725)"><line stroke="#000" x2="6"></line><text fill="#000" x="9" dy="0.32em">0</text></g><g class="tick" opacity="1" transform="translate(0,298.0206611570248)"><line stroke="#000" x2="6"></line><text fill="#000" x="9" dy="0.32em">0.1</text></g><g class="tick" opacity="1" transform="translate(0,268.2685950413223)"><line stroke="#000" x2="6"></line><text fill="#000" x="9" dy="0.32em">0.2</text></g><g class="tick" opacity="1" transform="translate(0,238.51652892561984)"><line stroke="#000" x2="6"></line><text fill="#000" x="9" dy="0.32em">0.3</text></g><g class="tick" opacity="1" transform="translate(0,208.76446280991738)"><line stroke="#000" x2="6"></line><text fill="#000" x="9" dy="0.32em">0.4</text></g><g class="tick" opacity="1" transform="translate(0,179.0123966942149)"><line stroke="#000" x2="6"></line><text fill="#000" x="9" dy="0.32em">0.5</text></g><g class="tick" opacity="1" transform="translate(0,149.26033057851242)"><line stroke="#000" x2="6"></line><text fill="#000" x="9" dy="0.32em">0.6</text></g><g class="tick" opacity="1" transform="translate(0,119.50826446280996)"><line stroke="#000" x2="6"></line><text fill="#000" x="9" dy="0.32em">0.7</text></g><g class="tick" opacity="1" transform="translate(0,89.75619834710744)"><line stroke="#000" x2="6"></line><text fill="#000" x="9" dy="0.32em">0.8</text></g><g class="tick" opacity="1" transform="translate(0,60.00413223140498)"><line stroke="#000" x2="6"></line><text fill="#000" x="9" dy="0.32em">0.9</text></g><g class="tick" opacity="1" transform="translate(0,30.25206611570252)"><line stroke="#000" x2="6"></line><text fill="#000" x="9" dy="0.32em">1</text></g><g class="tick" opacity="1" transform="translate(0,0.5)"><line stroke="#000" x2="6"></line><text fill="#000" x="9" dy="0.32em">1.1</text></g><text text-anchor="start" x="10" y="10" visibility="hidden" style="font-size: 12px; font-family: Arial; fill: #807dba;">No disease causing germline SNPs known!</text></g><circle cx="636" cy="15" r="10" class="compassNav" style="fill: #ffffff; stroke: #666666; stroke-width: 1px;"></circle><path d="M440.935 12.574l3.966 82.766C399.416 41.904 331.674 8 256 8 134.813 8 33.933 94.924 12.296 209.824 10.908 217.193 16.604 224 24.103 224h49.084c5.57 0 10.377-3.842 11.676-9.259C103.407 137.408 172.931 80 256 80c60.893 0 114.512 30.856 146.104 77.801l-101.53-4.865c-6.845-.328-12.574 5.133-12.574 11.986v47.411c0 6.627 5.373 12 12 12h200.333c6.627 0 12-5.373 12-12V12c0-6.627-5.373-12-12-12h-47.411c-6.853 0-12.315 5.729-11.987 12.574zM256 432c-60.895 0-114.517-30.858-146.109-77.805l101.868 4.871c6.845.327 12.573-5.134 12.573-11.986v-47.412c0-6.627-5.373-12-12-12H12c-6.627 0-12 5.373-12 12V500c0 6.627 5.373 12 12 12h47.385c6.863 0 12.328-5.745 11.985-12.599l-4.129-82.575C112.725 470.166 180.405 504 256 504c121.187 0 222.067-86.924 243.704-201.824 1.388-7.369-4.308-14.176-11.807-14.176h-49.084c-5.57 0-10.377 3.842-11.676 9.259C408.593 374.592 339.069 432 256 432z" class="compassNav" transform="translate(631, 10) scale(0.02)" style="fill: #666666; stroke: #666666; stroke-width: 1px;"></path><circle cx="658" cy="15" r="10" class="compassNav" style="fill: #ffffff; stroke: #666666; stroke-width: 1px;"></circle><line class="compassNav" stroke-width="2" stroke="#666666" x1="654" y1="15" x2="662" y2="15"></line><line class="compassNav" stroke-width="2" stroke="#666666" x1="658" y1="11" x2="658" y2="19"></line><circle cx="614" cy="15" r="10" class="compassNav" style="fill: #ffffff; stroke: #666666; stroke-width: 1px;"></circle><line class="compassNav" stroke-width="2" stroke="#666666" x1="610" y1="15" x2="618" y2="15"></line><path d="M582 14 l20 -12 a100,40 0 0,0 0,24z" class="compassNav" style="fill: #ffffff; stroke: #666666; stroke-width: 1px;"></path><path d="M690 14 l-20 -12 a100,40 0 0,1 0,24z" class="compassNav" style="fill: #ffffff; stroke: #666666; stroke-width: 1px;"></path><path d="M216 0h80c13.3 0 24 10.7 24 24v168h87.7c17.8 0 26.7 21.5 14.1 34.1L269.7 378.3c-7.5 7.5-19.8 7.5-27.3 0L90.1 226.1c-12.6-12.6-3.7-34.1 14.1-34.1H192V24c0-13.3 10.7-24 24-24zm296 376v112c0 13.3-10.7 24-24 24H24c-13.3 0-24-10.7-24-24V376c0-13.3 10.7-24 24-24h146.7l49 49c20.1 20.1 52.5 20.1 72.6 0l49-49H488c13.3 0 24 10.7 24 24zm-124 88c0-11-9-20-20-20s-20 9-20 20 9 20 20 20 20-9 20-20zm64 0c0-11-9-20-20-20s-20 9-20 20 9 20 20 20 20-9 20-20z" class="compassNav" transform="translate(552,0) scale(0.05)" style="fill: #336699; stroke: #336699; stroke-width: 1px; cursor: pointer;"></path></g></svg>