<svg width="800" height="400" style="background-color: white;"><g transform="translate(50,0)"><svg width="700" height="360"><g style="-webkit-tap-highlight-color: rgba(0, 0, 0, 0);"><rect width="700" height="360" style="fill: #ffffff;"></rect><g id="lines"><line class="line" stroke-width="1" stroke="#d7301f" x1="-406.32183908045977" y1="333" x2="-406.32183908045977" y2="360" visibility="hidden" style="stroke-dasharray: 3px, 3px;"></line></g><g><rect x="-411.32183908045977" y="355" width="10" height="10" visibility="hidden" style="fill: #ffffff; stroke: #d7301f;"></rect></g><g id="lines"><line class="line" stroke-width="1" stroke="#6a51a3" x1="382.18390804597703" y1="333" x2="382.18390804597703" y2="327.27272727272725" visibility="hidden" style="stroke-dasharray: 3px, 3px;"></line><line class="line" stroke-width="1" stroke="#6a51a3" x1="116.66666666666666" y1="333" x2="116.66666666666666" y2="29.752066115702462" visibility="hidden" style="stroke-dasharray: 3px, 3px;"></line></g><g><rect x="377.18390804597703" y="322.27272727272725" width="10" height="10" visibility="hidden" style="fill: #ffffff; stroke: #6a51a3;"></rect><rect x="111.66666666666666" y="24.752066115702462" width="10" height="10" visibility="hidden" style="fill: #ffffff; stroke: #6a51a3;"></rect></g><g id="lines"><line class="line" stroke-width="1" stroke="#666666" x1="8.045977011494253" y1="333" x2="8.045977011494253" y2="312.39669421487605"></line><line class="line" stroke-width="1" stroke="#666666" x1="233.33333333333331" y1="333" x2="233.33333333333331" y2="297.5206611570248"></line><line class="line" stroke-width="1" stroke="#666666" x1="269.54022988505744" y1="333" x2="269.54022988505744" y2="312.39669421487605"></line><line class="line" stroke-width="1" stroke="#666666" x1="269.54022988505744" y1="333" x2="269.54022988505744" y2="29.75206611570252"></line><line class="line" stroke-width="1" stroke="#666666" x1="329.88505747126436" y1="333" x2="329.88505747126436" y2="282.64462809917353"></line><line class="line" stroke-width="1" stroke="#666666" x1="333.90804597701145" y1="333" x2="333.90804597701145" y2="267.7685950413223"></line><line class="line" stroke-width="1" stroke="#666666" x1="341.95402298850576" y1="333" x2="341.95402298850576" y2="297.5206611570248"></line><line class="line" stroke-width="1" stroke="#666666" x1="366.0919540229885" y1="333" x2="366.0919540229885" y2="193.38842975206614"></line><line class="line" stroke-width="1" stroke="#666666" x1="390.2298850574713" y1="333" x2="390.2298850574713" y2="312.39669421487605"></line><line class="line" stroke-width="1" stroke="#666666" x1="390.2298850574713" y1="333" x2="390.2298850574713" y2="312.39669421487605"></line><line class="line" stroke-width="1" stroke="#666666" x1="418.39080459770116" y1="333" x2="418.39080459770116" y2="282.64462809917353"></line><line class="line" stroke-width="1" stroke="#666666" x1="422.41379310344826" y1="333" x2="422.41379310344826" y2="223.1404958677686"></line><line class="line" stroke-width="1" stroke="#666666" x1="474.7126436781609" y1="333" x2="474.7126436781609" y2="312.39669421487605"></line><line class="line" stroke-width="1" stroke="#666666" x1="559.1954022988506" y1="333" x2="559.1954022988506" y2="297.5206611570248"></line><line class="line" stroke-width="1" stroke="#666666" x1="575.2873563218391" y1="333" x2="575.2873563218391" y2="223.1404958677686"></line><line class="line" stroke-width="1" stroke="#666666" x1="599.4252873563219" y1="333" x2="599.4252873563219" y2="312.39669421487605"></line><line class="line" stroke-width="1" stroke="#666666" x1="643.6781609195402" y1="333" x2="643.6781609195402" y2="267.7685950413223"></line><line class="line" stroke-width="1" stroke="#666666" x1="659.7701149425287" y1="333" x2="659.7701149425287" y2="178.51239669421489"></line></g><g id="circles"><circle r="4" cx="8.045977011494253" cy="312.39669421487605" style="fill: #4393c3; stroke: #666666; stroke-width: 1px;"></circle><circle r="4" cx="233.33333333333331" cy="297.5206611570248" style="fill: #bf812d; stroke: #666666; stroke-width: 1px;"></circle><circle r="4" cx="269.54022988505744" cy="312.39669421487605" style="fill: #5aae61; stroke: #666666; stroke-width: 1px;"></circle><circle r="4" cx="269.54022988505744" cy="29.75206611570252" style="fill: #bf812d; stroke: #666666; stroke-width: 1px;"></circle><circle r="4" cx="329.88505747126436" cy="282.64462809917353" style="fill: #bf812d; stroke: #666666; stroke-width: 1px;"></circle><circle r="4" cx="333.90804597701145" cy="267.7685950413223" style="fill: #bf812d; stroke: #666666; stroke-width: 1px;"></circle><circle r="4" cx="341.95402298850576" cy="297.5206611570248" style="fill: #4393c3; stroke: #666666; stroke-width: 1px;"></circle><circle r="4" cx="366.0919540229885" cy="193.38842975206614" style="fill: #bf812d; stroke: #666666; stroke-width: 1px;"></circle><circle r="4" cx="390.2298850574713" cy="312.39669421487605" style="fill: #5aae61; stroke: #666666; stroke-width: 1px;"></circle><circle r="4" cx="390.2298850574713" cy="312.39669421487605" style="fill: #bf812d; stroke: #666666; stroke-width: 1px;"></circle><circle r="4" cx="418.39080459770116" cy="282.64462809917353" style="fill: #bf812d; stroke: #666666; stroke-width: 1px;"></circle><circle r="4" cx="422.41379310344826" cy="223.1404958677686" style="fill: #bf812d; stroke: #666666; stroke-width: 1px;"></circle><circle r="4" cx="474.7126436781609" cy="312.39669421487605" style="fill: #4393c3; stroke: #666666; stroke-width: 1px;"></circle><circle r="4" cx="559.1954022988506" cy="297.5206611570248" style="fill: #bf812d; stroke: #666666; stroke-width: 1px;"></circle><circle r="4" cx="575.2873563218391" cy="223.1404958677686" style="fill: #bf812d; stroke: #666666; stroke-width: 1px;"></circle><circle r="4" cx="599.4252873563219" cy="312.39669421487605" style="fill: #4393c3; stroke: #666666; stroke-width: 1px;"></circle><circle r="4" cx="643.6781609195402" cy="267.7685950413223" style="fill: #4393c3; stroke: #666666; stroke-width: 1px;"></circle><circle r="4" cx="659.7701149425287" cy="178.51239669421489" style="fill: #4393c3; stroke: #666666; stroke-width: 1px;"></circle></g><g><rect x="0" y="333" width="700" height="12" style="fill: #ffffff; stroke-width: 1px; stroke: #666666;"></rect><rect x="52.298850574712645" y="333" width="567.2413793103448" height="12" style="fill: #aec7e8; stroke-width: 1px; stroke: #666666;"></rect></g><g><a target="_blank" xlink:href="http://pfam.xfam.org/family/"><text y="343" x="350" text-anchor="middle" style="color: rgb(102, 102, 102); font-weight: normal; font-size: 12px; font-family: Arial; cursor: pointer;"></text></a><a target="_blank" xlink:href="http://pfam.xfam.org/family/Ferritin"><text y="343" x="335.91954022988506" text-anchor="middle" style="color: rgb(102, 102, 102); font-weight: normal; font-size: 12px; font-family: Arial; cursor: pointer;">Ferritin</text></a></g><g><text y="358" x="0" text-anchor="middle" visibility="hidden" style="font-size: 13px;">M</text><text y="358" x="4.022988505747127" text-anchor="middle" visibility="hidden" style="font-size: 13px;">S</text><text y="358" x="8.045977011494253" text-anchor="middle" visibility="hidden" style="font-size: 13px;">S</text><text y="358" x="12.068965517241379" text-anchor="middle" visibility="hidden" style="font-size: 13px;">Q</text><text y="358" x="16.091954022988507" text-anchor="middle" visibility="hidden" style="font-size: 13px;">I</text><text y="358" x="20.114942528735632" text-anchor="middle" visibility="hidden" style="font-size: 13px;">R</text><text y="358" x="24.137931034482758" text-anchor="middle" visibility="hidden" style="font-size: 13px;">Q</text><text y="358" x="28.160919540229884" text-anchor="middle" visibility="hidden" style="font-size: 13px;">N</text><text y="358" x="32.18390804597701" text-anchor="middle" visibility="hidden" style="font-size: 13px;">Y</text><text y="358" x="36.206896551724135" text-anchor="middle" visibility="hidden" style="font-size: 13px;">S</text><text y="358" x="40.229885057471265" text-anchor="middle" visibility="hidden" style="font-size: 13px;">T</text><text y="358" x="44.252873563218394" text-anchor="middle" visibility="hidden" style="font-size: 13px;">D</text><text y="358" x="48.275862068965516" text-anchor="middle" visibility="hidden" style="font-size: 13px;">V</text><text y="358" x="52.298850574712645" text-anchor="middle" visibility="hidden" style="font-size: 13px;">E</text><text y="358" x="56.32183908045977" text-anchor="middle" visibility="hidden" style="font-size: 13px;">A</text><text y="358" x="60.344827586206904" text-anchor="middle" visibility="hidden" style="font-size: 13px;">A</text><text y="358" x="64.36781609195403" text-anchor="middle" visibility="hidden" style="font-size: 13px;">V</text><text y="358" x="68.39080459770115" text-anchor="middle" visibility="hidden" style="font-size: 13px;">N</text><text y="358" x="72.41379310344827" text-anchor="middle" visibility="hidden" style="font-size: 13px;">S</text><text y="358" x="76.4367816091954" text-anchor="middle" visibility="hidden" style="font-size: 13px;">L</text><text y="358" x="80.45977011494253" text-anchor="middle" visibility="hidden" style="font-size: 13px;">V</text><text y="358" x="84.48275862068967" text-anchor="middle" visibility="hidden" style="font-size: 13px;">N</text><text y="358" x="88.50574712643679" text-anchor="middle" visibility="hidden" style="font-size: 13px;">L</text><text y="358" x="92.52873563218391" text-anchor="middle" visibility="hidden" style="font-size: 13px;">Y</text><text y="358" x="96.55172413793103" text-anchor="middle" visibility="hidden" style="font-size: 13px;">L</text><text y="358" x="100.57471264367815" text-anchor="middle" visibility="hidden" style="font-size: 13px;">Q</text><text y="358" x="104.59770114942529" text-anchor="middle" visibility="hidden" style="font-size: 13px;">A</text><text y="358" x="108.62068965517241" text-anchor="middle" visibility="hidden" style="font-size: 13px;">S</text><text y="358" x="112.64367816091954" text-anchor="middle" visibility="hidden" style="font-size: 13px;">Y</text><text y="358" x="116.66666666666666" text-anchor="middle" visibility="hidden" style="font-size: 13px;">T</text><text y="358" x="120.68965517241381" text-anchor="middle" visibility="hidden" style="font-size: 13px;">Y</text><text y="358" x="124.71264367816092" text-anchor="middle" visibility="hidden" style="font-size: 13px;">L</text><text y="358" x="128.73563218390805" text-anchor="middle" visibility="hidden" style="font-size: 13px;">S</text><text y="358" x="132.75862068965517" text-anchor="middle" visibility="hidden" style="font-size: 13px;">L</text><text y="358" x="136.7816091954023" text-anchor="middle" visibility="hidden" style="font-size: 13px;">G</text><text y="358" x="140.80459770114942" text-anchor="middle" visibility="hidden" style="font-size: 13px;">F</text><text y="358" x="144.82758620689654" text-anchor="middle" visibility="hidden" style="font-size: 13px;">Y</text><text y="358" x="148.85057471264366" text-anchor="middle" visibility="hidden" style="font-size: 13px;">F</text><text y="358" x="152.8735632183908" text-anchor="middle" visibility="hidden" style="font-size: 13px;">D</text><text y="358" x="156.89655172413794" text-anchor="middle" visibility="hidden" style="font-size: 13px;">R</text><text y="358" x="160.91954022988506" text-anchor="middle" visibility="hidden" style="font-size: 13px;">D</text><text y="358" x="164.94252873563218" text-anchor="middle" visibility="hidden" style="font-size: 13px;">D</text><text y="358" x="168.96551724137933" text-anchor="middle" visibility="hidden" style="font-size: 13px;">V</text><text y="358" x="172.98850574712645" text-anchor="middle" visibility="hidden" style="font-size: 13px;">A</text><text y="358" x="177.01149425287358" text-anchor="middle" visibility="hidden" style="font-size: 13px;">L</text><text y="358" x="181.0344827586207" text-anchor="middle" visibility="hidden" style="font-size: 13px;">E</text><text y="358" x="185.05747126436782" text-anchor="middle" visibility="hidden" style="font-size: 13px;">G</text><text y="358" x="189.08045977011494" text-anchor="middle" visibility="hidden" style="font-size: 13px;">V</text><text y="358" x="193.10344827586206" text-anchor="middle" visibility="hidden" style="font-size: 13px;">S</text><text y="358" x="197.1264367816092" text-anchor="middle" visibility="hidden" style="font-size: 13px;">H</text><text y="358" x="201.1494252873563" text-anchor="middle" visibility="hidden" style="font-size: 13px;">F</text><text y="358" x="205.17241379310343" text-anchor="middle" visibility="hidden" style="font-size: 13px;">F</text><text y="358" x="209.19540229885058" text-anchor="middle" visibility="hidden" style="font-size: 13px;">R</text><text y="358" x="213.2183908045977" text-anchor="middle" visibility="hidden" style="font-size: 13px;">E</text><text y="358" x="217.24137931034483" text-anchor="middle" visibility="hidden" style="font-size: 13px;">L</text><text y="358" x="221.26436781609195" text-anchor="middle" visibility="hidden" style="font-size: 13px;">A</text><text y="358" x="225.28735632183907" text-anchor="middle" visibility="hidden" style="font-size: 13px;">E</text><text y="358" x="229.3103448275862" text-anchor="middle" visibility="hidden" style="font-size: 13px;">E</text><text y="358" x="233.33333333333331" text-anchor="middle" visibility="hidden" style="font-size: 13px;">K</text><text y="358" x="237.35632183908044" text-anchor="middle" visibility="hidden" style="font-size: 13px;">R</text><text y="358" x="241.37931034482762" text-anchor="middle" visibility="hidden" style="font-size: 13px;">E</text><text y="358" x="245.40229885057474" text-anchor="middle" visibility="hidden" style="font-size: 13px;">G</text><text y="358" x="249.42528735632183" text-anchor="middle" visibility="hidden" style="font-size: 13px;">Y</text><text y="358" x="253.44827586206895" text-anchor="middle" visibility="hidden" style="font-size: 13px;">E</text><text y="358" x="257.4712643678161" text-anchor="middle" visibility="hidden" style="font-size: 13px;">R</text><text y="358" x="261.4942528735632" text-anchor="middle" visibility="hidden" style="font-size: 13px;">L</text><text y="358" x="265.51724137931035" text-anchor="middle" visibility="hidden" style="font-size: 13px;">L</text><text y="358" x="269.54022988505744" text-anchor="middle" visibility="hidden" style="font-size: 13px;">K</text><text y="358" x="273.5632183908046" text-anchor="middle" visibility="hidden" style="font-size: 13px;">M</text><text y="358" x="277.58620689655174" text-anchor="middle" visibility="hidden" style="font-size: 13px;">Q</text><text y="358" x="281.60919540229884" text-anchor="middle" visibility="hidden" style="font-size: 13px;">N</text><text y="358" x="285.632183908046" text-anchor="middle" visibility="hidden" style="font-size: 13px;">Q</text><text y="358" x="289.6551724137931" text-anchor="middle" visibility="hidden" style="font-size: 13px;">R</text><text y="358" x="293.67816091954023" text-anchor="middle" visibility="hidden" style="font-size: 13px;">G</text><text y="358" x="297.7011494252873" text-anchor="middle" visibility="hidden" style="font-size: 13px;">G</text><text y="358" x="301.7241379310345" text-anchor="middle" visibility="hidden" style="font-size: 13px;">R</text><text y="358" x="305.7471264367816" text-anchor="middle" visibility="hidden" style="font-size: 13px;">A</text><text y="358" x="309.7701149425287" text-anchor="middle" visibility="hidden" style="font-size: 13px;">L</text><text y="358" x="313.7931034482759" text-anchor="middle" visibility="hidden" style="font-size: 13px;">F</text><text y="358" x="317.81609195402297" text-anchor="middle" visibility="hidden" style="font-size: 13px;">Q</text><text y="358" x="321.8390804597701" text-anchor="middle" visibility="hidden" style="font-size: 13px;">D</text><text y="358" x="325.8620689655172" text-anchor="middle" visibility="hidden" style="font-size: 13px;">I</text><text y="358" x="329.88505747126436" text-anchor="middle" visibility="hidden" style="font-size: 13px;">K</text><text y="358" x="333.90804597701145" text-anchor="middle" visibility="hidden" style="font-size: 13px;">K</text><text y="358" x="337.93103448275866" text-anchor="middle" visibility="hidden" style="font-size: 13px;">P</text><text y="358" x="341.95402298850576" text-anchor="middle" visibility="hidden" style="font-size: 13px;">A</text><text y="358" x="345.9770114942529" text-anchor="middle" visibility="hidden" style="font-size: 13px;">E</text><text y="358" x="350" text-anchor="middle" visibility="hidden" style="font-size: 13px;">D</text><text y="358" x="354.02298850574715" text-anchor="middle" visibility="hidden" style="font-size: 13px;">E</text><text y="358" x="358.04597701149424" text-anchor="middle" visibility="hidden" style="font-size: 13px;">W</text><text y="358" x="362.0689655172414" text-anchor="middle" visibility="hidden" style="font-size: 13px;">G</text><text y="358" x="366.0919540229885" text-anchor="middle" visibility="hidden" style="font-size: 13px;">K</text><text y="358" x="370.11494252873564" text-anchor="middle" visibility="hidden" style="font-size: 13px;">T</text><text y="358" x="374.13793103448273" text-anchor="middle" visibility="hidden" style="font-size: 13px;">P</text><text y="358" x="378.1609195402299" text-anchor="middle" visibility="hidden" style="font-size: 13px;">D</text><text y="358" x="382.18390804597703" text-anchor="middle" visibility="hidden" style="font-size: 13px;">A</text><text y="358" x="386.2068965517241" text-anchor="middle" visibility="hidden" style="font-size: 13px;">M</text><text y="358" x="390.2298850574713" text-anchor="middle" visibility="hidden" style="font-size: 13px;">K</text><text y="358" x="394.2528735632184" text-anchor="middle" visibility="hidden" style="font-size: 13px;">A</text><text y="358" x="398.2758620689655" text-anchor="middle" visibility="hidden" style="font-size: 13px;">A</text><text y="358" x="402.2988505747126" text-anchor="middle" visibility="hidden" style="font-size: 13px;">M</text><text y="358" x="406.32183908045977" text-anchor="middle" visibility="hidden" style="font-size: 13px;">A</text><text y="358" x="410.34482758620686" text-anchor="middle" visibility="hidden" style="font-size: 13px;">L</text><text y="358" x="414.367816091954" text-anchor="middle" visibility="hidden" style="font-size: 13px;">E</text><text y="358" x="418.39080459770116" text-anchor="middle" visibility="hidden" style="font-size: 13px;">K</text><text y="358" x="422.41379310344826" text-anchor="middle" visibility="hidden" style="font-size: 13px;">K</text><text y="358" x="426.4367816091954" text-anchor="middle" visibility="hidden" style="font-size: 13px;">L</text><text y="358" x="430.4597701149425" text-anchor="middle" visibility="hidden" style="font-size: 13px;">N</text><text y="358" x="434.48275862068965" text-anchor="middle" visibility="hidden" style="font-size: 13px;">Q</text><text y="358" x="438.50574712643675" text-anchor="middle" visibility="hidden" style="font-size: 13px;">A</text><text y="358" x="442.5287356321839" text-anchor="middle" visibility="hidden" style="font-size: 13px;">L</text><text y="358" x="446.55172413793105" text-anchor="middle" visibility="hidden" style="font-size: 13px;">L</text><text y="358" x="450.57471264367814" text-anchor="middle" visibility="hidden" style="font-size: 13px;">D</text><text y="358" x="454.5977011494253" text-anchor="middle" visibility="hidden" style="font-size: 13px;">L</text><text y="358" x="458.6206896551724" text-anchor="middle" visibility="hidden" style="font-size: 13px;">H</text><text y="358" x="462.64367816091954" text-anchor="middle" visibility="hidden" style="font-size: 13px;">A</text><text y="358" x="466.66666666666663" text-anchor="middle" visibility="hidden" style="font-size: 13px;">L</text><text y="358" x="470.6896551724138" text-anchor="middle" visibility="hidden" style="font-size: 13px;">G</text><text y="358" x="474.7126436781609" text-anchor="middle" visibility="hidden" style="font-size: 13px;">S</text><text y="358" x="478.735632183908" text-anchor="middle" visibility="hidden" style="font-size: 13px;">A</text><text y="358" x="482.75862068965523" text-anchor="middle" visibility="hidden" style="font-size: 13px;">R</text><text y="358" x="486.78160919540227" text-anchor="middle" visibility="hidden" style="font-size: 13px;">T</text><text y="358" x="490.8045977011495" text-anchor="middle" visibility="hidden" style="font-size: 13px;">D</text><text y="358" x="494.8275862068965" text-anchor="middle" visibility="hidden" style="font-size: 13px;">P</text><text y="358" x="498.85057471264366" text-anchor="middle" visibility="hidden" style="font-size: 13px;">H</text><text y="358" x="502.87356321839076" text-anchor="middle" visibility="hidden" style="font-size: 13px;">L</text><text y="358" x="506.8965517241379" text-anchor="middle" visibility="hidden" style="font-size: 13px;">C</text><text y="358" x="510.9195402298851" text-anchor="middle" visibility="hidden" style="font-size: 13px;">D</text><text y="358" x="514.9425287356322" text-anchor="middle" visibility="hidden" style="font-size: 13px;">F</text><text y="358" x="518.9655172413793" text-anchor="middle" visibility="hidden" style="font-size: 13px;">L</text><text y="358" x="522.9885057471264" text-anchor="middle" visibility="hidden" style="font-size: 13px;">E</text><text y="358" x="527.0114942528736" text-anchor="middle" visibility="hidden" style="font-size: 13px;">T</text><text y="358" x="531.0344827586207" text-anchor="middle" visibility="hidden" style="font-size: 13px;">H</text><text y="358" x="535.0574712643678" text-anchor="middle" visibility="hidden" style="font-size: 13px;">F</text><text y="358" x="539.0804597701149" text-anchor="middle" visibility="hidden" style="font-size: 13px;">L</text><text y="358" x="543.1034482758621" text-anchor="middle" visibility="hidden" style="font-size: 13px;">D</text><text y="358" x="547.1264367816092" text-anchor="middle" visibility="hidden" style="font-size: 13px;">E</text><text y="358" x="551.1494252873563" text-anchor="middle" visibility="hidden" style="font-size: 13px;">E</text><text y="358" x="555.1724137931035" text-anchor="middle" visibility="hidden" style="font-size: 13px;">V</text><text y="358" x="559.1954022988506" text-anchor="middle" visibility="hidden" style="font-size: 13px;">K</text><text y="358" x="563.2183908045977" text-anchor="middle" visibility="hidden" style="font-size: 13px;">L</text><text y="358" x="567.2413793103448" text-anchor="middle" visibility="hidden" style="font-size: 13px;">I</text><text y="358" x="571.264367816092" text-anchor="middle" visibility="hidden" style="font-size: 13px;">K</text><text y="358" x="575.2873563218391" text-anchor="middle" visibility="hidden" style="font-size: 13px;">K</text><text y="358" x="579.3103448275862" text-anchor="middle" visibility="hidden" style="font-size: 13px;">M</text><text y="358" x="583.3333333333334" text-anchor="middle" visibility="hidden" style="font-size: 13px;">G</text><text y="358" x="587.3563218390805" text-anchor="middle" visibility="hidden" style="font-size: 13px;">D</text><text y="358" x="591.3793103448276" text-anchor="middle" visibility="hidden" style="font-size: 13px;">H</text><text y="358" x="595.4022988505747" text-anchor="middle" visibility="hidden" style="font-size: 13px;">L</text><text y="358" x="599.4252873563219" text-anchor="middle" visibility="hidden" style="font-size: 13px;">T</text><text y="358" x="603.448275862069" text-anchor="middle" visibility="hidden" style="font-size: 13px;">N</text><text y="358" x="607.471264367816" text-anchor="middle" visibility="hidden" style="font-size: 13px;">L</text><text y="358" x="611.4942528735633" text-anchor="middle" visibility="hidden" style="font-size: 13px;">H</text><text y="358" x="615.5172413793103" text-anchor="middle" visibility="hidden" style="font-size: 13px;">R</text><text y="358" x="619.5402298850574" text-anchor="middle" visibility="hidden" style="font-size: 13px;">L</text><text y="358" x="623.5632183908045" text-anchor="middle" visibility="hidden" style="font-size: 13px;">G</text><text y="358" x="627.5862068965517" text-anchor="middle" visibility="hidden" style="font-size: 13px;">G</text><text y="358" x="631.6091954022988" text-anchor="middle" visibility="hidden" style="font-size: 13px;">P</text><text y="358" x="635.6321839080459" text-anchor="middle" visibility="hidden" style="font-size: 13px;">E</text><text y="358" x="639.6551724137931" text-anchor="middle" visibility="hidden" style="font-size: 13px;">A</text><text y="358" x="643.6781609195402" text-anchor="middle" visibility="hidden" style="font-size: 13px;">G</text><text y="358" x="647.7011494252873" text-anchor="middle" visibility="hidden" style="font-size: 13px;">L</text><text y="358" x="651.7241379310344" text-anchor="middle" visibility="hidden" style="font-size: 13px;">G</text><text y="358" x="655.7471264367816" text-anchor="middle" visibility="hidden" style="font-size: 13px;">E</text><text y="358" x="659.7701149425287" text-anchor="middle" visibility="hidden" style="font-size: 13px;">Y</text><text y="358" x="663.7931034482758" text-anchor="middle" visibility="hidden" style="font-size: 13px;">L</text><text y="358" x="667.8160919540229" text-anchor="middle" visibility="hidden" style="font-size: 13px;">F</text><text y="358" x="671.8390804597701" text-anchor="middle" visibility="hidden" style="font-size: 13px;">E</text><text y="358" x="675.8620689655173" text-anchor="middle" visibility="hidden" style="font-size: 13px;">R</text><text y="358" x="679.8850574712643" text-anchor="middle" visibility="hidden" style="font-size: 13px;">L</text><text y="358" x="683.9080459770115" text-anchor="middle" visibility="hidden" style="font-size: 13px;">T</text><text y="358" x="687.9310344827586" text-anchor="middle" visibility="hidden" style="font-size: 13px;">L</text><text y="358" x="691.9540229885058" text-anchor="middle" visibility="hidden" style="font-size: 13px;">K</text><text y="358" x="695.9770114942528" text-anchor="middle" visibility="hidden" style="font-size: 13px;">H</text><text y="358" x="700" text-anchor="middle" visibility="hidden" style="font-size: 13px;">D</text></g></g></svg><g class="xAxis" transform="translate(0,360)" fill="none" font-size="10" font-family="sans-serif" text-anchor="middle"><path class="domain" stroke="#000" d="M0.5,6V0.5H700.5V6"></path><g class="tick" opacity="1" transform="translate(76.9367816091954,0)"><line stroke="#000" y2="6"></line><text fill="#000" y="9" dy="0.71em">20</text></g><g class="tick" opacity="1" transform="translate(157.39655172413794,0)"><line stroke="#000" y2="6"></line><text fill="#000" y="9" dy="0.71em">40</text></g><g class="tick" opacity="1" transform="translate(237.85632183908044,0)"><line stroke="#000" y2="6"></line><text fill="#000" y="9" dy="0.71em">60</text></g><g class="tick" opacity="1" transform="translate(318.31609195402297,0)"><line stroke="#000" y2="6"></line><text fill="#000" y="9" dy="0.71em">80</text></g><g class="tick" opacity="1" transform="translate(398.7758620689655,0)"><line stroke="#000" y2="6"></line><text fill="#000" y="9" dy="0.71em">100</text></g><g class="tick" opacity="1" transform="translate(479.235632183908,0)"><line stroke="#000" y2="6"></line><text fill="#000" y="9" dy="0.71em">120</text></g><g class="tick" opacity="1" transform="translate(559.6954022988506,0)"><line stroke="#000" y2="6"></line><text fill="#000" y="9" dy="0.71em">140</text></g><g class="tick" opacity="1" transform="translate(640.1551724137931,0)"><line stroke="#000" y2="6"></line><text fill="#000" y="9" dy="0.71em">160</text></g></g><text class="x label" text-anchor="end" x="700" y="390" style="font-size: 13px; font-family: Arial;">Residue number</text><g class="yAxis" fill="none" font-size="10" font-family="sans-serif" text-anchor="end"><path class="domain" stroke="#000" d="M-6,360.5H0.5V0.5H-6"></path><g class="tick" opacity="1" transform="translate(0,357.52479338842977)"><line stroke="#000" x2="-6"></line><text fill="#000" x="-9" dy="0.32em"></text></g><g class="tick" opacity="1" transform="translate(0,327.77272727272725)"><line stroke="#000" x2="-6"></line><text fill="#000" x="-9" dy="0.32em">0</text></g><g class="tick" opacity="1" transform="translate(0,298.0206611570248)"><line stroke="#000" x2="-6"></line><text fill="#000" x="-9" dy="0.32em">2</text></g><g class="tick" opacity="1" transform="translate(0,268.2685950413223)"><line stroke="#000" x2="-6"></line><text fill="#000" x="-9" dy="0.32em">4</text></g><g class="tick" opacity="1" transform="translate(0,238.51652892561984)"><line stroke="#000" x2="-6"></line><text fill="#000" x="-9" dy="0.32em">6</text></g><g class="tick" opacity="1" transform="translate(0,208.76446280991735)"><line stroke="#000" x2="-6"></line><text fill="#000" x="-9" dy="0.32em">8</text></g><g class="tick" opacity="1" transform="translate(0,179.01239669421489)"><line stroke="#000" x2="-6"></line><text fill="#000" x="-9" dy="0.32em">10</text></g><g class="tick" opacity="1" transform="translate(0,149.26033057851242)"><line stroke="#000" x2="-6"></line><text fill="#000" x="-9" dy="0.32em">12</text></g><g class="tick" opacity="1" transform="translate(0,119.50826446280993)"><line stroke="#000" x2="-6"></line><text fill="#000" x="-9" dy="0.32em">14</text></g><g class="tick" opacity="1" transform="translate(0,89.75619834710744)"><line stroke="#000" x2="-6"></line><text fill="#000" x="-9" dy="0.32em">16</text></g><g class="tick" opacity="1" transform="translate(0,60.00413223140498)"><line stroke="#000" x2="-6"></line><text fill="#000" x="-9" dy="0.32em">18</text></g><g class="tick" opacity="1" transform="translate(0,30.25206611570252)"><line stroke="#000" x2="-6"></line><text fill="#000" x="-9" dy="0.32em">20</text></g><g class="tick" opacity="1" transform="translate(0,0.5)"><line stroke="#000" x2="-6"></line><text fill="#000" x="-9" dy="0.32em">22</text></g></g><text class="y label" text-anchor="middle" y="-50" x="-180" dy="0.8em" transform="rotate(-90)" style="font-size: 13px; font-family: Arial;">Total number of references</text><g class="axisRed" fill="none" font-size="10" font-family="sans-serif" text-anchor="start" visibility="hidden" transform="translate(700, 0)"><path class="domain" stroke="#000" d="M6,360.5H0.5V0.5H6"></path><g class="tick" opacity="1" transform="translate(0,360.5)"><line stroke="#000" x2="6"></line><text fill="#000" x="9" dy="0.32em">0</text></g><text text-anchor="start" dx="5.2em" dy="-2.6em" transform="rotate(90)" visibility="hidden" style="font-size: 12px; font-family: Arial; fill: #d7301f;">No recurrent (&gt;2) missense mutations!</text></g><g class="axisPurple" fill="none" font-size="10" font-family="sans-serif" text-anchor="start" visibility="hidden"><path class="domain" stroke="#000" d="M6,360.5H0.5V0.5H6"></path><g class="tick" opacity="1" transform="translate(0,327.77272727272725)"><line stroke="#000" x2="6"></line><text fill="#000" x="9" dy="0.32em">0</text></g><g class="tick" opacity="1" transform="translate(0,290.58264462809916)"><line stroke="#000" x2="6"></line><text fill="#000" x="9" dy="0.32em">0.0001</text></g><g class="tick" opacity="1" transform="translate(0,253.39256198347107)"><line stroke="#000" x2="6"></line><text fill="#000" x="9" dy="0.32em">0.0002</text></g><g class="tick" opacity="1" transform="translate(0,216.20247933884298)"><line stroke="#000" x2="6"></line><text fill="#000" x="9" dy="0.32em">0.0003</text></g><g class="tick" opacity="1" transform="translate(0,179.01239669421483)"><line stroke="#000" x2="6"></line><text fill="#000" x="9" dy="0.32em">0.0004</text></g><g class="tick" opacity="1" transform="translate(0,141.8223140495868)"><line stroke="#000" x2="6"></line><text fill="#000" x="9" dy="0.32em">0.0005</text></g><g class="tick" opacity="1" transform="translate(0,104.6322314049587)"><line stroke="#000" x2="6"></line><text fill="#000" x="9" dy="0.32em">0.0006</text></g><g class="tick" opacity="1" transform="translate(0,67.44214876033061)"><line stroke="#000" x2="6"></line><text fill="#000" x="9" dy="0.32em">0.0007</text></g><g class="tick" opacity="1" transform="translate(0,30.252066115702462)"><line stroke="#000" x2="6"></line><text fill="#000" x="9" dy="0.32em">0.0008</text></g><text text-anchor="start" x="10" y="10" visibility="hidden" style="font-size: 12px; font-family: Arial; fill: #807dba;">Minor Allele Frequency (MAF) %</text></g><circle cx="636" cy="15" r="10" class="compassNav" style="fill: #ffffff; stroke: #666666; stroke-width: 1px;"></circle><path d="M440.935 12.574l3.966 82.766C399.416 41.904 331.674 8 256 8 134.813 8 33.933 94.924 12.296 209.824 10.908 217.193 16.604 224 24.103 224h49.084c5.57 0 10.377-3.842 11.676-9.259C103.407 137.408 172.931 80 256 80c60.893 0 114.512 30.856 146.104 77.801l-101.53-4.865c-6.845-.328-12.574 5.133-12.574 11.986v47.411c0 6.627 5.373 12 12 12h200.333c6.627 0 12-5.373 12-12V12c0-6.627-5.373-12-12-12h-47.411c-6.853 0-12.315 5.729-11.987 12.574zM256 432c-60.895 0-114.517-30.858-146.109-77.805l101.868 4.871c6.845.327 12.573-5.134 12.573-11.986v-47.412c0-6.627-5.373-12-12-12H12c-6.627 0-12 5.373-12 12V500c0 6.627 5.373 12 12 12h47.385c6.863 0 12.328-5.745 11.985-12.599l-4.129-82.575C112.725 470.166 180.405 504 256 504c121.187 0 222.067-86.924 243.704-201.824 1.388-7.369-4.308-14.176-11.807-14.176h-49.084c-5.57 0-10.377 3.842-11.676 9.259C408.593 374.592 339.069 432 256 432z" class="compassNav" transform="translate(631, 10) scale(0.02)" style="fill: #666666; stroke: #666666; stroke-width: 1px;"></path><circle cx="658" cy="15" r="10" class="compassNav" style="fill: #ffffff; stroke: #666666; stroke-width: 1px;"></circle><line class="compassNav" stroke-width="2" stroke="#666666" x1="654" y1="15" x2="662" y2="15"></line><line class="compassNav" stroke-width="2" stroke="#666666" x1="658" y1="11" x2="658" y2="19"></line><circle cx="614" cy="15" r="10" class="compassNav" style="fill: #ffffff; stroke: #666666; stroke-width: 1px;"></circle><line class="compassNav" stroke-width="2" stroke="#666666" x1="610" y1="15" x2="618" y2="15"></line><path d="M582 14 l20 -12 a100,40 0 0,0 0,24z" class="compassNav" style="fill: #ffffff; stroke: #666666; stroke-width: 1px;"></path><path d="M690 14 l-20 -12 a100,40 0 0,1 0,24z" class="compassNav" style="fill: #ffffff; stroke: #666666; stroke-width: 1px;"></path><path d="M216 0h80c13.3 0 24 10.7 24 24v168h87.7c17.8 0 26.7 21.5 14.1 34.1L269.7 378.3c-7.5 7.5-19.8 7.5-27.3 0L90.1 226.1c-12.6-12.6-3.7-34.1 14.1-34.1H192V24c0-13.3 10.7-24 24-24zm296 376v112c0 13.3-10.7 24-24 24H24c-13.3 0-24-10.7-24-24V376c0-13.3 10.7-24 24-24h146.7l49 49c20.1 20.1 52.5 20.1 72.6 0l49-49H488c13.3 0 24 10.7 24 24zm-124 88c0-11-9-20-20-20s-20 9-20 20 9 20 20 20 20-9 20-20zm64 0c0-11-9-20-20-20s-20 9-20 20 9 20 20 20 20-9 20-20z" class="compassNav" transform="translate(552,0) scale(0.05)" style="fill: #336699; stroke: #336699; stroke-width: 1px; cursor: pointer;"></path></g></svg>