<svg width="800" height="400" style="background-color: white;"><g transform="translate(50,0)"><svg width="700" height="360"><g style="-webkit-tap-highlight-color: rgba(0, 0, 0, 0);"><rect width="700" height="360" style="fill: #ffffff;"></rect><g id="lines"><line class="line" stroke-width="1" stroke="#d7301f" x1="-353.5" y1="333" x2="-353.5" y2="360" visibility="hidden" style="stroke-dasharray: 3px, 3px;"></line></g><g><rect x="-358.5" y="355" width="10" height="10" visibility="hidden" style="fill: #ffffff; stroke: #d7301f;"></rect></g><g id="lines"><line class="line" stroke-width="1" stroke="#6a51a3" x1="252" y1="333" x2="252" y2="327.27272727272725" visibility="hidden" style="stroke-dasharray: 3px, 3px;"></line><line class="line" stroke-width="1" stroke="#6a51a3" x1="259" y1="333" x2="259" y2="327.27272727272725" visibility="hidden" style="stroke-dasharray: 3px, 3px;"></line><line class="line" stroke-width="1" stroke="#6a51a3" x1="203" y1="333" x2="203" y2="327.27272727272725" visibility="hidden" style="stroke-dasharray: 3px, 3px;"></line><line class="line" stroke-width="1" stroke="#6a51a3" x1="322" y1="333" x2="322" y2="327.27272727272725" visibility="hidden" style="stroke-dasharray: 3px, 3px;"></line></g><g><rect x="247" y="322.27272727272725" width="10" height="10" visibility="hidden" style="fill: #ffffff; stroke: #6a51a3;"></rect><rect x="254" y="322.27272727272725" width="10" height="10" visibility="hidden" style="fill: #ffffff; stroke: #6a51a3;"></rect><rect x="198" y="322.27272727272725" width="10" height="10" visibility="hidden" style="fill: #ffffff; stroke: #6a51a3;"></rect><rect x="317" y="322.27272727272725" width="10" height="10" visibility="hidden" style="fill: #ffffff; stroke: #6a51a3;"></rect></g><g id="lines"><line class="line" stroke-width="1" stroke="#666666" x1="374.5" y1="333" x2="374.5" y2="297.5206611570248"></line><line class="line" stroke-width="1" stroke="#666666" x1="482.99999999999994" y1="333" x2="482.99999999999994" y2="297.5206611570248"></line><line class="line" stroke-width="1" stroke="#666666" x1="665" y1="333" x2="665" y2="29.75206611570252"></line><line class="line" stroke-width="1" stroke="#666666" x1="682.5" y1="333" x2="682.5" y2="297.5206611570248"></line><line class="line" stroke-width="1" stroke="#666666" x1="696.5" y1="333" x2="696.5" y2="297.5206611570248"></line></g><g id="circles"><circle r="4" cx="374.5" cy="297.5206611570248" style="fill: #4393c3; stroke: #666666; stroke-width: 1px;"></circle><circle r="4" cx="482.99999999999994" cy="297.5206611570248" style="fill: #666666; stroke: #666666; stroke-width: 1px;"></circle><circle r="4" cx="665" cy="29.75206611570252" style="fill: #4393c3; stroke: #666666; stroke-width: 1px;"></circle><circle r="4" cx="682.5" cy="297.5206611570248" style="fill: #4393c3; stroke: #666666; stroke-width: 1px;"></circle><circle r="4" cx="696.5" cy="297.5206611570248" style="fill: #4393c3; stroke: #666666; stroke-width: 1px;"></circle></g><g><rect x="0" y="333" width="700" height="12" style="fill: #ffffff; stroke-width: 1px; stroke: #666666;"></rect><rect x="133" y="333" width="521.5" height="12" style="fill: #aec7e8; stroke-width: 1px; stroke: #666666;"></rect></g><g><a target="_blank" xlink:href="http://pfam.xfam.org/family/"><text y="343" x="350" text-anchor="middle" style="color: rgb(102, 102, 102); font-weight: normal; font-size: 12px; font-family: Arial; cursor: pointer;"></text></a><a target="_blank" xlink:href="http://pfam.xfam.org/family/Lipocalin"><text y="343" x="393.75" text-anchor="middle" style="color: rgb(102, 102, 102); font-weight: normal; font-size: 12px; font-family: Arial; cursor: pointer;">Lipocalin</text></a></g><g><text y="358" x="0" text-anchor="middle" visibility="hidden" style="font-size: 13px;">M</text><text y="358" x="3.5" text-anchor="middle" visibility="hidden" style="font-size: 13px;">K</text><text y="358" x="7" text-anchor="middle" visibility="hidden" style="font-size: 13px;">W</text><text y="358" x="10.5" text-anchor="middle" visibility="hidden" style="font-size: 13px;">V</text><text y="358" x="14" text-anchor="middle" visibility="hidden" style="font-size: 13px;">W</text><text y="358" x="17.5" text-anchor="middle" visibility="hidden" style="font-size: 13px;">A</text><text y="358" x="21" text-anchor="middle" visibility="hidden" style="font-size: 13px;">L</text><text y="358" x="24.500000000000004" text-anchor="middle" visibility="hidden" style="font-size: 13px;">L</text><text y="358" x="28" text-anchor="middle" visibility="hidden" style="font-size: 13px;">L</text><text y="358" x="31.5" text-anchor="middle" visibility="hidden" style="font-size: 13px;">L</text><text y="358" x="35" text-anchor="middle" visibility="hidden" style="font-size: 13px;">A</text><text y="358" x="38.5" text-anchor="middle" visibility="hidden" style="font-size: 13px;">A</text><text y="358" x="42" text-anchor="middle" visibility="hidden" style="font-size: 13px;">L</text><text y="358" x="45.5" text-anchor="middle" visibility="hidden" style="font-size: 13px;">G</text><text y="358" x="49.00000000000001" text-anchor="middle" visibility="hidden" style="font-size: 13px;">S</text><text y="358" x="52.5" text-anchor="middle" visibility="hidden" style="font-size: 13px;">G</text><text y="358" x="56" text-anchor="middle" visibility="hidden" style="font-size: 13px;">R</text><text y="358" x="59.50000000000001" text-anchor="middle" visibility="hidden" style="font-size: 13px;">A</text><text y="358" x="63" text-anchor="middle" visibility="hidden" style="font-size: 13px;">E</text><text y="358" x="66.5" text-anchor="middle" visibility="hidden" style="font-size: 13px;">R</text><text y="358" x="70" text-anchor="middle" visibility="hidden" style="font-size: 13px;">D</text><text y="358" x="73.5" text-anchor="middle" visibility="hidden" style="font-size: 13px;">C</text><text y="358" x="77" text-anchor="middle" visibility="hidden" style="font-size: 13px;">R</text><text y="358" x="80.5" text-anchor="middle" visibility="hidden" style="font-size: 13px;">V</text><text y="358" x="84" text-anchor="middle" visibility="hidden" style="font-size: 13px;">S</text><text y="358" x="87.5" text-anchor="middle" visibility="hidden" style="font-size: 13px;">S</text><text y="358" x="91" text-anchor="middle" visibility="hidden" style="font-size: 13px;">F</text><text y="358" x="94.5" text-anchor="middle" visibility="hidden" style="font-size: 13px;">R</text><text y="358" x="98.00000000000001" text-anchor="middle" visibility="hidden" style="font-size: 13px;">V</text><text y="358" x="101.5" text-anchor="middle" visibility="hidden" style="font-size: 13px;">K</text><text y="358" x="105" text-anchor="middle" visibility="hidden" style="font-size: 13px;">E</text><text y="358" x="108.5" text-anchor="middle" visibility="hidden" style="font-size: 13px;">N</text><text y="358" x="112" text-anchor="middle" visibility="hidden" style="font-size: 13px;">F</text><text y="358" x="115.5" text-anchor="middle" visibility="hidden" style="font-size: 13px;">D</text><text y="358" x="119.00000000000001" text-anchor="middle" visibility="hidden" style="font-size: 13px;">K</text><text y="358" x="122.49999999999999" text-anchor="middle" visibility="hidden" style="font-size: 13px;">A</text><text y="358" x="126" text-anchor="middle" visibility="hidden" style="font-size: 13px;">R</text><text y="358" x="129.5" text-anchor="middle" visibility="hidden" style="font-size: 13px;">F</text><text y="358" x="133" text-anchor="middle" visibility="hidden" style="font-size: 13px;">S</text><text y="358" x="136.5" text-anchor="middle" visibility="hidden" style="font-size: 13px;">G</text><text y="358" x="140" text-anchor="middle" visibility="hidden" style="font-size: 13px;">T</text><text y="358" x="143.5" text-anchor="middle" visibility="hidden" style="font-size: 13px;">W</text><text y="358" x="147" text-anchor="middle" visibility="hidden" style="font-size: 13px;">Y</text><text y="358" x="150.5" text-anchor="middle" visibility="hidden" style="font-size: 13px;">A</text><text y="358" x="154" text-anchor="middle" visibility="hidden" style="font-size: 13px;">M</text><text y="358" x="157.5" text-anchor="middle" visibility="hidden" style="font-size: 13px;">A</text><text y="358" x="161" text-anchor="middle" visibility="hidden" style="font-size: 13px;">K</text><text y="358" x="164.5" text-anchor="middle" visibility="hidden" style="font-size: 13px;">K</text><text y="358" x="168" text-anchor="middle" visibility="hidden" style="font-size: 13px;">D</text><text y="358" x="171.5" text-anchor="middle" visibility="hidden" style="font-size: 13px;">P</text><text y="358" x="175" text-anchor="middle" visibility="hidden" style="font-size: 13px;">E</text><text y="358" x="178.5" text-anchor="middle" visibility="hidden" style="font-size: 13px;">G</text><text y="358" x="182" text-anchor="middle" visibility="hidden" style="font-size: 13px;">L</text><text y="358" x="185.5" text-anchor="middle" visibility="hidden" style="font-size: 13px;">F</text><text y="358" x="189" text-anchor="middle" visibility="hidden" style="font-size: 13px;">L</text><text y="358" x="192.50000000000003" text-anchor="middle" visibility="hidden" style="font-size: 13px;">Q</text><text y="358" x="196.00000000000003" text-anchor="middle" visibility="hidden" style="font-size: 13px;">D</text><text y="358" x="199.49999999999997" text-anchor="middle" visibility="hidden" style="font-size: 13px;">N</text><text y="358" x="203" text-anchor="middle" visibility="hidden" style="font-size: 13px;">I</text><text y="358" x="206.5" text-anchor="middle" visibility="hidden" style="font-size: 13px;">V</text><text y="358" x="210" text-anchor="middle" visibility="hidden" style="font-size: 13px;">A</text><text y="358" x="213.5" text-anchor="middle" visibility="hidden" style="font-size: 13px;">E</text><text y="358" x="217" text-anchor="middle" visibility="hidden" style="font-size: 13px;">F</text><text y="358" x="220.5" text-anchor="middle" visibility="hidden" style="font-size: 13px;">S</text><text y="358" x="224" text-anchor="middle" visibility="hidden" style="font-size: 13px;">V</text><text y="358" x="227.5" text-anchor="middle" visibility="hidden" style="font-size: 13px;">D</text><text y="358" x="231" text-anchor="middle" visibility="hidden" style="font-size: 13px;">E</text><text y="358" x="234.5" text-anchor="middle" visibility="hidden" style="font-size: 13px;">T</text><text y="358" x="238.00000000000003" text-anchor="middle" visibility="hidden" style="font-size: 13px;">G</text><text y="358" x="241.49999999999997" text-anchor="middle" visibility="hidden" style="font-size: 13px;">Q</text><text y="358" x="244.99999999999997" text-anchor="middle" visibility="hidden" style="font-size: 13px;">M</text><text y="358" x="248.5" text-anchor="middle" visibility="hidden" style="font-size: 13px;">S</text><text y="358" x="252" text-anchor="middle" visibility="hidden" style="font-size: 13px;">A</text><text y="358" x="255.5" text-anchor="middle" visibility="hidden" style="font-size: 13px;">T</text><text y="358" x="259" text-anchor="middle" visibility="hidden" style="font-size: 13px;">A</text><text y="358" x="262.5" text-anchor="middle" visibility="hidden" style="font-size: 13px;">K</text><text y="358" x="266" text-anchor="middle" visibility="hidden" style="font-size: 13px;">G</text><text y="358" x="269.5" text-anchor="middle" visibility="hidden" style="font-size: 13px;">R</text><text y="358" x="273" text-anchor="middle" visibility="hidden" style="font-size: 13px;">V</text><text y="358" x="276.5" text-anchor="middle" visibility="hidden" style="font-size: 13px;">R</text><text y="358" x="280" text-anchor="middle" visibility="hidden" style="font-size: 13px;">L</text><text y="358" x="283.5" text-anchor="middle" visibility="hidden" style="font-size: 13px;">L</text><text y="358" x="287" text-anchor="middle" visibility="hidden" style="font-size: 13px;">N</text><text y="358" x="290.5" text-anchor="middle" visibility="hidden" style="font-size: 13px;">N</text><text y="358" x="294" text-anchor="middle" visibility="hidden" style="font-size: 13px;">W</text><text y="358" x="297.5" text-anchor="middle" visibility="hidden" style="font-size: 13px;">D</text><text y="358" x="301" text-anchor="middle" visibility="hidden" style="font-size: 13px;">V</text><text y="358" x="304.5" text-anchor="middle" visibility="hidden" style="font-size: 13px;">C</text><text y="358" x="308" text-anchor="middle" visibility="hidden" style="font-size: 13px;">A</text><text y="358" x="311.5" text-anchor="middle" visibility="hidden" style="font-size: 13px;">D</text><text y="358" x="315" text-anchor="middle" visibility="hidden" style="font-size: 13px;">M</text><text y="358" x="318.5" text-anchor="middle" visibility="hidden" style="font-size: 13px;">V</text><text y="358" x="322" text-anchor="middle" visibility="hidden" style="font-size: 13px;">G</text><text y="358" x="325.5" text-anchor="middle" visibility="hidden" style="font-size: 13px;">T</text><text y="358" x="329" text-anchor="middle" visibility="hidden" style="font-size: 13px;">F</text><text y="358" x="332.5" text-anchor="middle" visibility="hidden" style="font-size: 13px;">T</text><text y="358" x="336" text-anchor="middle" visibility="hidden" style="font-size: 13px;">D</text><text y="358" x="339.5" text-anchor="middle" visibility="hidden" style="font-size: 13px;">T</text><text y="358" x="343" text-anchor="middle" visibility="hidden" style="font-size: 13px;">E</text><text y="358" x="346.5" text-anchor="middle" visibility="hidden" style="font-size: 13px;">D</text><text y="358" x="350" text-anchor="middle" visibility="hidden" style="font-size: 13px;">P</text><text y="358" x="353.5" text-anchor="middle" visibility="hidden" style="font-size: 13px;">A</text><text y="358" x="357" text-anchor="middle" visibility="hidden" style="font-size: 13px;">K</text><text y="358" x="360.5" text-anchor="middle" visibility="hidden" style="font-size: 13px;">F</text><text y="358" x="364" text-anchor="middle" visibility="hidden" style="font-size: 13px;">K</text><text y="358" x="367.5" text-anchor="middle" visibility="hidden" style="font-size: 13px;">M</text><text y="358" x="371" text-anchor="middle" visibility="hidden" style="font-size: 13px;">K</text><text y="358" x="374.5" text-anchor="middle" visibility="hidden" style="font-size: 13px;">Y</text><text y="358" x="378" text-anchor="middle" visibility="hidden" style="font-size: 13px;">W</text><text y="358" x="381.5" text-anchor="middle" visibility="hidden" style="font-size: 13px;">G</text><text y="358" x="385.00000000000006" text-anchor="middle" visibility="hidden" style="font-size: 13px;">V</text><text y="358" x="388.50000000000006" text-anchor="middle" visibility="hidden" style="font-size: 13px;">A</text><text y="358" x="392.00000000000006" text-anchor="middle" visibility="hidden" style="font-size: 13px;">S</text><text y="358" x="395.49999999999994" text-anchor="middle" visibility="hidden" style="font-size: 13px;">F</text><text y="358" x="398.99999999999994" text-anchor="middle" visibility="hidden" style="font-size: 13px;">L</text><text y="358" x="402.49999999999994" text-anchor="middle" visibility="hidden" style="font-size: 13px;">Q</text><text y="358" x="406" text-anchor="middle" visibility="hidden" style="font-size: 13px;">K</text><text y="358" x="409.5" text-anchor="middle" visibility="hidden" style="font-size: 13px;">G</text><text y="358" x="413" text-anchor="middle" visibility="hidden" style="font-size: 13px;">N</text><text y="358" x="416.5" text-anchor="middle" visibility="hidden" style="font-size: 13px;">D</text><text y="358" x="420" text-anchor="middle" visibility="hidden" style="font-size: 13px;">D</text><text y="358" x="423.5" text-anchor="middle" visibility="hidden" style="font-size: 13px;">H</text><text y="358" x="427" text-anchor="middle" visibility="hidden" style="font-size: 13px;">W</text><text y="358" x="430.5" text-anchor="middle" visibility="hidden" style="font-size: 13px;">I</text><text y="358" x="434" text-anchor="middle" visibility="hidden" style="font-size: 13px;">V</text><text y="358" x="437.5" text-anchor="middle" visibility="hidden" style="font-size: 13px;">D</text><text y="358" x="441" text-anchor="middle" visibility="hidden" style="font-size: 13px;">T</text><text y="358" x="444.5" text-anchor="middle" visibility="hidden" style="font-size: 13px;">D</text><text y="358" x="448" text-anchor="middle" visibility="hidden" style="font-size: 13px;">Y</text><text y="358" x="451.5" text-anchor="middle" visibility="hidden" style="font-size: 13px;">D</text><text y="358" x="455" text-anchor="middle" visibility="hidden" style="font-size: 13px;">T</text><text y="358" x="458.5" text-anchor="middle" visibility="hidden" style="font-size: 13px;">Y</text><text y="358" x="462" text-anchor="middle" visibility="hidden" style="font-size: 13px;">A</text><text y="358" x="465.5" text-anchor="middle" visibility="hidden" style="font-size: 13px;">V</text><text y="358" x="469" text-anchor="middle" visibility="hidden" style="font-size: 13px;">Q</text><text y="358" x="472.50000000000006" text-anchor="middle" visibility="hidden" style="font-size: 13px;">Y</text><text y="358" x="476.00000000000006" text-anchor="middle" visibility="hidden" style="font-size: 13px;">S</text><text y="358" x="479.50000000000006" text-anchor="middle" visibility="hidden" style="font-size: 13px;">C</text><text y="358" x="482.99999999999994" text-anchor="middle" visibility="hidden" style="font-size: 13px;">R</text><text y="358" x="486.49999999999994" text-anchor="middle" visibility="hidden" style="font-size: 13px;">L</text><text y="358" x="489.99999999999994" text-anchor="middle" visibility="hidden" style="font-size: 13px;">L</text><text y="358" x="493.5" text-anchor="middle" visibility="hidden" style="font-size: 13px;">N</text><text y="358" x="497" text-anchor="middle" visibility="hidden" style="font-size: 13px;">L</text><text y="358" x="500.5" text-anchor="middle" visibility="hidden" style="font-size: 13px;">D</text><text y="358" x="504" text-anchor="middle" visibility="hidden" style="font-size: 13px;">G</text><text y="358" x="507.5" text-anchor="middle" visibility="hidden" style="font-size: 13px;">T</text><text y="358" x="511" text-anchor="middle" visibility="hidden" style="font-size: 13px;">C</text><text y="358" x="514.5" text-anchor="middle" visibility="hidden" style="font-size: 13px;">A</text><text y="358" x="518" text-anchor="middle" visibility="hidden" style="font-size: 13px;">D</text><text y="358" x="521.5" text-anchor="middle" visibility="hidden" style="font-size: 13px;">S</text><text y="358" x="525" text-anchor="middle" visibility="hidden" style="font-size: 13px;">Y</text><text y="358" x="528.5" text-anchor="middle" visibility="hidden" style="font-size: 13px;">S</text><text y="358" x="532" text-anchor="middle" visibility="hidden" style="font-size: 13px;">F</text><text y="358" x="535.5" text-anchor="middle" visibility="hidden" style="font-size: 13px;">V</text><text y="358" x="539" text-anchor="middle" visibility="hidden" style="font-size: 13px;">F</text><text y="358" x="542.5" text-anchor="middle" visibility="hidden" style="font-size: 13px;">S</text><text y="358" x="546" text-anchor="middle" visibility="hidden" style="font-size: 13px;">R</text><text y="358" x="549.5" text-anchor="middle" visibility="hidden" style="font-size: 13px;">D</text><text y="358" x="553" text-anchor="middle" visibility="hidden" style="font-size: 13px;">P</text><text y="358" x="556.5" text-anchor="middle" visibility="hidden" style="font-size: 13px;">N</text><text y="358" x="560" text-anchor="middle" visibility="hidden" style="font-size: 13px;">G</text><text y="358" x="563.5" text-anchor="middle" visibility="hidden" style="font-size: 13px;">L</text><text y="358" x="567" text-anchor="middle" visibility="hidden" style="font-size: 13px;">P</text><text y="358" x="570.5" text-anchor="middle" visibility="hidden" style="font-size: 13px;">P</text><text y="358" x="574" text-anchor="middle" visibility="hidden" style="font-size: 13px;">E</text><text y="358" x="577.5" text-anchor="middle" visibility="hidden" style="font-size: 13px;">A</text><text y="358" x="581" text-anchor="middle" visibility="hidden" style="font-size: 13px;">Q</text><text y="358" x="584.5" text-anchor="middle" visibility="hidden" style="font-size: 13px;">K</text><text y="358" x="588" text-anchor="middle" visibility="hidden" style="font-size: 13px;">I</text><text y="358" x="591.5" text-anchor="middle" visibility="hidden" style="font-size: 13px;">V</text><text y="358" x="595" text-anchor="middle" visibility="hidden" style="font-size: 13px;">R</text><text y="358" x="598.5" text-anchor="middle" visibility="hidden" style="font-size: 13px;">Q</text><text y="358" x="602" text-anchor="middle" visibility="hidden" style="font-size: 13px;">R</text><text y="358" x="605.5" text-anchor="middle" visibility="hidden" style="font-size: 13px;">Q</text><text y="358" x="609" text-anchor="middle" visibility="hidden" style="font-size: 13px;">E</text><text y="358" x="612.5" text-anchor="middle" visibility="hidden" style="font-size: 13px;">E</text><text y="358" x="616" text-anchor="middle" visibility="hidden" style="font-size: 13px;">L</text><text y="358" x="619.5" text-anchor="middle" visibility="hidden" style="font-size: 13px;">C</text><text y="358" x="623" text-anchor="middle" visibility="hidden" style="font-size: 13px;">L</text><text y="358" x="626.5" text-anchor="middle" visibility="hidden" style="font-size: 13px;">A</text><text y="358" x="630" text-anchor="middle" visibility="hidden" style="font-size: 13px;">R</text><text y="358" x="633.5" text-anchor="middle" visibility="hidden" style="font-size: 13px;">Q</text><text y="358" x="637" text-anchor="middle" visibility="hidden" style="font-size: 13px;">Y</text><text y="358" x="640.5" text-anchor="middle" visibility="hidden" style="font-size: 13px;">R</text><text y="358" x="644" text-anchor="middle" visibility="hidden" style="font-size: 13px;">L</text><text y="358" x="647.5" text-anchor="middle" visibility="hidden" style="font-size: 13px;">I</text><text y="358" x="651" text-anchor="middle" visibility="hidden" style="font-size: 13px;">V</text><text y="358" x="654.5" text-anchor="middle" visibility="hidden" style="font-size: 13px;">H</text><text y="358" x="658" text-anchor="middle" visibility="hidden" style="font-size: 13px;">N</text><text y="358" x="661.5" text-anchor="middle" visibility="hidden" style="font-size: 13px;">G</text><text y="358" x="665" text-anchor="middle" visibility="hidden" style="font-size: 13px;">Y</text><text y="358" x="668.5" text-anchor="middle" visibility="hidden" style="font-size: 13px;">C</text><text y="358" x="672" text-anchor="middle" visibility="hidden" style="font-size: 13px;">D</text><text y="358" x="675.5" text-anchor="middle" visibility="hidden" style="font-size: 13px;">G</text><text y="358" x="679" text-anchor="middle" visibility="hidden" style="font-size: 13px;">R</text><text y="358" x="682.5" text-anchor="middle" visibility="hidden" style="font-size: 13px;">S</text><text y="358" x="686" text-anchor="middle" visibility="hidden" style="font-size: 13px;">E</text><text y="358" x="689.5" text-anchor="middle" visibility="hidden" style="font-size: 13px;">R</text><text y="358" x="693" text-anchor="middle" visibility="hidden" style="font-size: 13px;">N</text><text y="358" x="696.5" text-anchor="middle" visibility="hidden" style="font-size: 13px;">L</text><text y="358" x="700" text-anchor="middle" visibility="hidden" style="font-size: 13px;">L</text></g></g></svg><g class="xAxis" transform="translate(0,360)" fill="none" font-size="10" font-family="sans-serif" text-anchor="middle"><path class="domain" stroke="#000" d="M0.5,6V0.5H700.5V6"></path><g class="tick" opacity="1" transform="translate(67,0)"><line stroke="#000" y2="6"></line><text fill="#000" y="9" dy="0.71em">20</text></g><g class="tick" opacity="1" transform="translate(137,0)"><line stroke="#000" y2="6"></line><text fill="#000" y="9" dy="0.71em">40</text></g><g class="tick" opacity="1" transform="translate(207,0)"><line stroke="#000" y2="6"></line><text fill="#000" y="9" dy="0.71em">60</text></g><g class="tick" opacity="1" transform="translate(277,0)"><line stroke="#000" y2="6"></line><text fill="#000" y="9" dy="0.71em">80</text></g><g class="tick" opacity="1" transform="translate(347,0)"><line stroke="#000" y2="6"></line><text fill="#000" y="9" dy="0.71em">100</text></g><g class="tick" opacity="1" transform="translate(417,0)"><line stroke="#000" y2="6"></line><text fill="#000" y="9" dy="0.71em">120</text></g><g class="tick" opacity="1" transform="translate(486.99999999999994,0)"><line stroke="#000" y2="6"></line><text fill="#000" y="9" dy="0.71em">140</text></g><g class="tick" opacity="1" transform="translate(557,0)"><line stroke="#000" y2="6"></line><text fill="#000" y="9" dy="0.71em">160</text></g><g class="tick" opacity="1" transform="translate(627,0)"><line stroke="#000" y2="6"></line><text fill="#000" y="9" dy="0.71em">180</text></g><g class="tick" opacity="1" transform="translate(697,0)"><line stroke="#000" y2="6"></line><text fill="#000" y="9" dy="0.71em">200</text></g></g><text class="x label" text-anchor="end" x="700" y="390" style="font-size: 13px; font-family: Arial;">Residue number</text><g class="yAxis" fill="none" font-size="10" font-family="sans-serif" text-anchor="end"><path class="domain" stroke="#000" d="M-6,360.5H0.5V0.5H-6"></path><g class="tick" opacity="1" transform="translate(0,357.52479338842977)"><line stroke="#000" x2="-6"></line><text fill="#000" x="-9" dy="0.32em"></text></g><g class="tick" opacity="1" transform="translate(0,327.77272727272725)"><line stroke="#000" x2="-6"></line><text fill="#000" x="-9" dy="0.32em">0</text></g><g class="tick" opacity="1" transform="translate(0,298.0206611570248)"><line stroke="#000" x2="-6"></line><text fill="#000" x="-9" dy="0.32em">1</text></g><g class="tick" opacity="1" transform="translate(0,268.2685950413223)"><line stroke="#000" x2="-6"></line><text fill="#000" x="-9" dy="0.32em">2</text></g><g class="tick" opacity="1" transform="translate(0,238.51652892561984)"><line stroke="#000" x2="-6"></line><text fill="#000" x="-9" dy="0.32em">3</text></g><g class="tick" opacity="1" transform="translate(0,208.76446280991735)"><line stroke="#000" x2="-6"></line><text fill="#000" x="-9" dy="0.32em">4</text></g><g class="tick" opacity="1" transform="translate(0,179.01239669421489)"><line stroke="#000" x2="-6"></line><text fill="#000" x="-9" dy="0.32em">5</text></g><g class="tick" opacity="1" transform="translate(0,149.26033057851242)"><line stroke="#000" x2="-6"></line><text fill="#000" x="-9" dy="0.32em">6</text></g><g class="tick" opacity="1" transform="translate(0,119.50826446280993)"><line stroke="#000" x2="-6"></line><text fill="#000" x="-9" dy="0.32em">7</text></g><g class="tick" opacity="1" transform="translate(0,89.75619834710744)"><line stroke="#000" x2="-6"></line><text fill="#000" x="-9" dy="0.32em">8</text></g><g class="tick" opacity="1" transform="translate(0,60.00413223140498)"><line stroke="#000" x2="-6"></line><text fill="#000" x="-9" dy="0.32em">9</text></g><g class="tick" opacity="1" transform="translate(0,30.25206611570252)"><line stroke="#000" x2="-6"></line><text fill="#000" x="-9" dy="0.32em">10</text></g><g class="tick" opacity="1" transform="translate(0,0.5)"><line stroke="#000" x2="-6"></line><text fill="#000" x="-9" dy="0.32em">11</text></g></g><text class="y label" text-anchor="middle" y="-50" x="-180" dy="0.8em" transform="rotate(-90)" style="font-size: 13px; font-family: Arial;">Total number of references</text><g class="axisRed" fill="none" font-size="10" font-family="sans-serif" text-anchor="start" visibility="hidden" transform="translate(700, 0)"><path class="domain" stroke="#000" d="M6,360.5H0.5V0.5H6"></path><g class="tick" opacity="1" transform="translate(0,360.5)"><line stroke="#000" x2="6"></line><text fill="#000" x="9" dy="0.32em">0</text></g><text text-anchor="start" dx="5.2em" dy="-2.6em" transform="rotate(90)" visibility="hidden" style="font-size: 12px; font-family: Arial; fill: #d7301f;">No recurrent (&gt;2) missense mutations!</text></g><g class="axisPurple" fill="none" font-size="10" font-family="sans-serif" text-anchor="start" visibility="hidden"><path class="domain" stroke="#000" d="M6,360.5H0.5V0.5H6"></path><g class="tick" opacity="1" transform="translate(0,357.52479338842977)"><line stroke="#000" x2="6"></line><text fill="#000" x="9" dy="0.32em"></text></g><g class="tick" opacity="1" transform="translate(0,327.77272727272725)"><line stroke="#000" x2="6"></line><text fill="#000" x="9" dy="0.32em">0</text></g><g class="tick" opacity="1" transform="translate(0,298.0206611570248)"><line stroke="#000" x2="6"></line><text fill="#000" x="9" dy="0.32em">0.1</text></g><g class="tick" opacity="1" transform="translate(0,268.2685950413223)"><line stroke="#000" x2="6"></line><text fill="#000" x="9" dy="0.32em">0.2</text></g><g class="tick" opacity="1" transform="translate(0,238.51652892561984)"><line stroke="#000" x2="6"></line><text fill="#000" x="9" dy="0.32em">0.3</text></g><g class="tick" opacity="1" transform="translate(0,208.76446280991738)"><line stroke="#000" x2="6"></line><text fill="#000" x="9" dy="0.32em">0.4</text></g><g class="tick" opacity="1" transform="translate(0,179.0123966942149)"><line stroke="#000" x2="6"></line><text fill="#000" x="9" dy="0.32em">0.5</text></g><g class="tick" opacity="1" transform="translate(0,149.26033057851242)"><line stroke="#000" x2="6"></line><text fill="#000" x="9" dy="0.32em">0.6</text></g><g class="tick" opacity="1" transform="translate(0,119.50826446280996)"><line stroke="#000" x2="6"></line><text fill="#000" x="9" dy="0.32em">0.7</text></g><g class="tick" opacity="1" transform="translate(0,89.75619834710744)"><line stroke="#000" x2="6"></line><text fill="#000" x="9" dy="0.32em">0.8</text></g><g class="tick" opacity="1" transform="translate(0,60.00413223140498)"><line stroke="#000" x2="6"></line><text fill="#000" x="9" dy="0.32em">0.9</text></g><g class="tick" opacity="1" transform="translate(0,30.25206611570252)"><line stroke="#000" x2="6"></line><text fill="#000" x="9" dy="0.32em">1</text></g><g class="tick" opacity="1" transform="translate(0,0.5)"><line stroke="#000" x2="6"></line><text fill="#000" x="9" dy="0.32em">1.1</text></g><text text-anchor="start" x="10" y="10" visibility="hidden" style="font-size: 12px; font-family: Arial; fill: #807dba;">Minor Allele Frequency (MAF) %</text></g><circle cx="636" cy="15" r="10" class="compassNav" style="fill: #ffffff; stroke: #666666; stroke-width: 1px;"></circle><path d="M440.935 12.574l3.966 82.766C399.416 41.904 331.674 8 256 8 134.813 8 33.933 94.924 12.296 209.824 10.908 217.193 16.604 224 24.103 224h49.084c5.57 0 10.377-3.842 11.676-9.259C103.407 137.408 172.931 80 256 80c60.893 0 114.512 30.856 146.104 77.801l-101.53-4.865c-6.845-.328-12.574 5.133-12.574 11.986v47.411c0 6.627 5.373 12 12 12h200.333c6.627 0 12-5.373 12-12V12c0-6.627-5.373-12-12-12h-47.411c-6.853 0-12.315 5.729-11.987 12.574zM256 432c-60.895 0-114.517-30.858-146.109-77.805l101.868 4.871c6.845.327 12.573-5.134 12.573-11.986v-47.412c0-6.627-5.373-12-12-12H12c-6.627 0-12 5.373-12 12V500c0 6.627 5.373 12 12 12h47.385c6.863 0 12.328-5.745 11.985-12.599l-4.129-82.575C112.725 470.166 180.405 504 256 504c121.187 0 222.067-86.924 243.704-201.824 1.388-7.369-4.308-14.176-11.807-14.176h-49.084c-5.57 0-10.377 3.842-11.676 9.259C408.593 374.592 339.069 432 256 432z" class="compassNav" transform="translate(631, 10) scale(0.02)" style="fill: #666666; stroke: #666666; stroke-width: 1px;"></path><circle cx="658" cy="15" r="10" class="compassNav" style="fill: #ffffff; stroke: #666666; stroke-width: 1px;"></circle><line class="compassNav" stroke-width="2" stroke="#666666" x1="654" y1="15" x2="662" y2="15"></line><line class="compassNav" stroke-width="2" stroke="#666666" x1="658" y1="11" x2="658" y2="19"></line><circle cx="614" cy="15" r="10" class="compassNav" style="fill: #ffffff; stroke: #666666; stroke-width: 1px;"></circle><line class="compassNav" stroke-width="2" stroke="#666666" x1="610" y1="15" x2="618" y2="15"></line><path d="M582 14 l20 -12 a100,40 0 0,0 0,24z" class="compassNav" style="fill: #ffffff; stroke: #666666; stroke-width: 1px;"></path><path d="M690 14 l-20 -12 a100,40 0 0,1 0,24z" class="compassNav" style="fill: #ffffff; stroke: #666666; stroke-width: 1px;"></path><path d="M216 0h80c13.3 0 24 10.7 24 24v168h87.7c17.8 0 26.7 21.5 14.1 34.1L269.7 378.3c-7.5 7.5-19.8 7.5-27.3 0L90.1 226.1c-12.6-12.6-3.7-34.1 14.1-34.1H192V24c0-13.3 10.7-24 24-24zm296 376v112c0 13.3-10.7 24-24 24H24c-13.3 0-24-10.7-24-24V376c0-13.3 10.7-24 24-24h146.7l49 49c20.1 20.1 52.5 20.1 72.6 0l49-49H488c13.3 0 24 10.7 24 24zm-124 88c0-11-9-20-20-20s-20 9-20 20 9 20 20 20 20-9 20-20zm64 0c0-11-9-20-20-20s-20 9-20 20 9 20 20 20 20-9 20-20z" class="compassNav" transform="translate(552,0) scale(0.05)" style="fill: #336699; stroke: #336699; stroke-width: 1px; cursor: pointer;"></path></g></svg>