<svg width="800" height="400" style="background-color: white;"><g transform="translate(50,0)"><svg width="700" height="360"><g style="-webkit-tap-highlight-color: rgba(0, 0, 0, 0);"><rect width="700" height="360" style="fill: #ffffff;"></rect><g id="lines"><line class="line" stroke-width="1" stroke="#d7301f" x1="-728.8659793814434" y1="333" x2="-728.8659793814434" y2="360" visibility="hidden" style="stroke-dasharray: 3px, 3px;"></line></g><g><rect x="-733.8659793814434" y="355" width="10" height="10" visibility="hidden" style="fill: #ffffff; stroke: #d7301f;"></rect></g><g id="lines"><line class="line" stroke-width="1" stroke="#6a51a3" x1="21.649484536082475" y1="333" x2="21.649484536082475" y2="327.27272727272725" visibility="hidden" style="stroke-dasharray: 3px, 3px;"></line></g><g><rect x="16.649484536082475" y="322.27272727272725" width="10" height="10" visibility="hidden" style="fill: #ffffff; stroke: #6a51a3;"></rect></g><g id="lines"><line class="line" stroke-width="1" stroke="#666666" x1="43.29896907216495" y1="333" x2="43.29896907216495" y2="323.9109118924219"></line><line class="line" stroke-width="1" stroke="#666666" x1="57.7319587628866" y1="333" x2="57.7319587628866" y2="325.5918195825746"></line><line class="line" stroke-width="1" stroke="#666666" x1="209.2783505154639" y1="333" x2="209.2783505154639" y2="325.5918195825746"></line><line class="line" stroke-width="1" stroke="#666666" x1="238.14432989690724" y1="333" x2="238.14432989690724" y2="325.5918195825746"></line><line class="line" stroke-width="1" stroke="#666666" x1="274.22680412371136" y1="333" x2="274.22680412371136" y2="323.9109118924219"></line><line class="line" stroke-width="1" stroke="#666666" x1="274.22680412371136" y1="333" x2="274.22680412371136" y2="315.5063734416585"></line><line class="line" stroke-width="1" stroke="#666666" x1="310.30927835051546" y1="333" x2="310.30927835051546" y2="325.5918195825746"></line><line class="line" stroke-width="1" stroke="#666666" x1="310.30927835051546" y1="333" x2="310.30927835051546" y2="325.5918195825746"></line><line class="line" stroke-width="1" stroke="#666666" x1="317.5257731958763" y1="333" x2="317.5257731958763" y2="322.23000420226924"></line><line class="line" stroke-width="1" stroke="#666666" x1="360.8247422680412" y1="333" x2="360.8247422680412" y2="325.5918195825746"></line><line class="line" stroke-width="1" stroke="#666666" x1="375.25773195876286" y1="333" x2="375.25773195876286" y2="303.74001961058974"></line><line class="line" stroke-width="1" stroke="#666666" x1="483.50515463917526" y1="333" x2="483.50515463917526" y2="325.5918195825746"></line><line class="line" stroke-width="1" stroke="#666666" x1="512.3711340206186" y1="333" x2="512.3711340206186" y2="325.5918195825746"></line><line class="line" stroke-width="1" stroke="#666666" x1="555.6701030927835" y1="333" x2="555.6701030927835" y2="322.23000420226924"></line><line class="line" stroke-width="1" stroke="#666666" x1="555.6701030927835" y1="333" x2="555.6701030927835" y2="322.23000420226924"></line><line class="line" stroke-width="1" stroke="#666666" x1="591.7525773195877" y1="333" x2="591.7525773195877" y2="325.5918195825746"></line><line class="line" stroke-width="1" stroke="#666666" x1="649.4845360824743" y1="333" x2="649.4845360824743" y2="322.23000420226924"></line><line class="line" stroke-width="1" stroke="#666666" x1="649.4845360824743" y1="333" x2="649.4845360824743" y2="318.8681888219639"></line><line class="line" stroke-width="1" stroke="#666666" x1="649.4845360824743" y1="333" x2="649.4845360824743" y2="325.5918195825746"></line><line class="line" stroke-width="1" stroke="#666666" x1="685.5670103092783" y1="333" x2="685.5670103092783" y2="325.5918195825746"></line><line class="line" stroke-width="1" stroke="#666666" x1="692.7835051546392" y1="333" x2="692.7835051546392" y2="29.752066115702462"></line></g><g id="circles"><circle r="4" cx="43.29896907216495" cy="323.9109118924219" style="fill: #4393c3; stroke: #666666; stroke-width: 1px;"></circle><circle r="4" cx="57.7319587628866" cy="325.5918195825746" style="fill: #4393c3; stroke: #666666; stroke-width: 1px;"></circle><circle r="4" cx="209.2783505154639" cy="325.5918195825746" style="fill: #5aae61; stroke: #666666; stroke-width: 1px;"></circle><circle r="4" cx="238.14432989690724" cy="325.5918195825746" style="fill: #5aae61; stroke: #666666; stroke-width: 1px;"></circle><circle r="4" cx="274.22680412371136" cy="323.9109118924219" style="fill: #5aae61; stroke: #666666; stroke-width: 1px;"></circle><circle r="4" cx="274.22680412371136" cy="315.5063734416585" style="fill: #bf812d; stroke: #666666; stroke-width: 1px;"></circle><circle r="4" cx="310.30927835051546" cy="325.5918195825746" style="fill: #bf812d; stroke: #666666; stroke-width: 1px;"></circle><circle r="4" cx="310.30927835051546" cy="325.5918195825746" style="fill: #5aae61; stroke: #666666; stroke-width: 1px;"></circle><circle r="4" cx="317.5257731958763" cy="322.23000420226924" style="fill: #4393c3; stroke: #666666; stroke-width: 1px;"></circle><circle r="4" cx="360.8247422680412" cy="325.5918195825746" style="fill: #4393c3; stroke: #666666; stroke-width: 1px;"></circle><circle r="4" cx="375.25773195876286" cy="303.74001961058974" style="fill: #4393c3; stroke: #666666; stroke-width: 1px;"></circle><circle r="4" cx="483.50515463917526" cy="325.5918195825746" style="fill: #666666; stroke: #666666; stroke-width: 1px;"></circle><circle r="4" cx="512.3711340206186" cy="325.5918195825746" style="fill: #4393c3; stroke: #666666; stroke-width: 1px;"></circle><circle r="4" cx="555.6701030927835" cy="322.23000420226924" style="fill: #5aae61; stroke: #666666; stroke-width: 1px;"></circle><circle r="4" cx="555.6701030927835" cy="322.23000420226924" style="fill: #bf812d; stroke: #666666; stroke-width: 1px;"></circle><circle r="4" cx="591.7525773195877" cy="325.5918195825746" style="fill: #4393c3; stroke: #666666; stroke-width: 1px;"></circle><circle r="4" cx="649.4845360824743" cy="322.23000420226924" style="fill: #5aae61; stroke: #666666; stroke-width: 1px;"></circle><circle r="4" cx="649.4845360824743" cy="318.8681888219639" style="fill: #bf812d; stroke: #666666; stroke-width: 1px;"></circle><circle r="4" cx="649.4845360824743" cy="325.5918195825746" style="fill: #666666; stroke: #666666; stroke-width: 1px;"></circle><circle r="4" cx="685.5670103092783" cy="325.5918195825746" style="fill: #4393c3; stroke: #666666; stroke-width: 1px;"></circle><circle r="4" cx="692.7835051546392" cy="29.752066115702462" style="fill: #4393c3; stroke: #666666; stroke-width: 1px;"></circle></g><g><rect x="0" y="333" width="700" height="12" style="fill: #ffffff; stroke-width: 1px; stroke: #666666;"></rect><rect x="21.649484536082475" y="333" width="635.0515463917526" height="12" style="fill: #aec7e8; stroke-width: 1px; stroke: #666666;"></rect></g><g><a target="_blank" xlink:href="http://pfam.xfam.org/family/"><text y="343" x="350" text-anchor="middle" style="color: rgb(102, 102, 102); font-weight: normal; font-size: 12px; font-family: Arial; cursor: pointer;"></text></a><a target="_blank" xlink:href="http://pfam.xfam.org/family/Cystatin"><text y="343" x="339.17525773195877" text-anchor="middle" style="color: rgb(102, 102, 102); font-weight: normal; font-size: 12px; font-family: Arial; cursor: pointer;">Cystatin</text></a></g><g><text y="358" x="0" text-anchor="middle" visibility="hidden" style="font-size: 13px;">M</text><text y="358" x="7.216494845360825" text-anchor="middle" visibility="hidden" style="font-size: 13px;">M</text><text y="358" x="14.43298969072165" text-anchor="middle" visibility="hidden" style="font-size: 13px;">C</text><text y="358" x="21.649484536082475" text-anchor="middle" visibility="hidden" style="font-size: 13px;">G</text><text y="358" x="28.8659793814433" text-anchor="middle" visibility="hidden" style="font-size: 13px;">A</text><text y="358" x="36.08247422680412" text-anchor="middle" visibility="hidden" style="font-size: 13px;">P</text><text y="358" x="43.29896907216495" text-anchor="middle" visibility="hidden" style="font-size: 13px;">S</text><text y="358" x="50.51546391752577" text-anchor="middle" visibility="hidden" style="font-size: 13px;">A</text><text y="358" x="57.7319587628866" text-anchor="middle" visibility="hidden" style="font-size: 13px;">T</text><text y="358" x="64.94845360824742" text-anchor="middle" visibility="hidden" style="font-size: 13px;">Q</text><text y="358" x="72.16494845360825" text-anchor="middle" visibility="hidden" style="font-size: 13px;">P</text><text y="358" x="79.38144329896907" text-anchor="middle" visibility="hidden" style="font-size: 13px;">A</text><text y="358" x="86.5979381443299" text-anchor="middle" visibility="hidden" style="font-size: 13px;">T</text><text y="358" x="93.81443298969072" text-anchor="middle" visibility="hidden" style="font-size: 13px;">A</text><text y="358" x="101.03092783505154" text-anchor="middle" visibility="hidden" style="font-size: 13px;">E</text><text y="358" x="108.24742268041237" text-anchor="middle" visibility="hidden" style="font-size: 13px;">T</text><text y="358" x="115.4639175257732" text-anchor="middle" visibility="hidden" style="font-size: 13px;">Q</text><text y="358" x="122.68041237113401" text-anchor="middle" visibility="hidden" style="font-size: 13px;">H</text><text y="358" x="129.89690721649484" text-anchor="middle" visibility="hidden" style="font-size: 13px;">I</text><text y="358" x="137.11340206185568" text-anchor="middle" visibility="hidden" style="font-size: 13px;">A</text><text y="358" x="144.3298969072165" text-anchor="middle" visibility="hidden" style="font-size: 13px;">D</text><text y="358" x="151.54639175257734" text-anchor="middle" visibility="hidden" style="font-size: 13px;">Q</text><text y="358" x="158.76288659793815" text-anchor="middle" visibility="hidden" style="font-size: 13px;">V</text><text y="358" x="165.97938144329896" text-anchor="middle" visibility="hidden" style="font-size: 13px;">R</text><text y="358" x="173.1958762886598" text-anchor="middle" visibility="hidden" style="font-size: 13px;">S</text><text y="358" x="180.4123711340206" text-anchor="middle" visibility="hidden" style="font-size: 13px;">Q</text><text y="358" x="187.62886597938143" text-anchor="middle" visibility="hidden" style="font-size: 13px;">L</text><text y="358" x="194.84536082474227" text-anchor="middle" visibility="hidden" style="font-size: 13px;">E</text><text y="358" x="202.06185567010309" text-anchor="middle" visibility="hidden" style="font-size: 13px;">E</text><text y="358" x="209.2783505154639" text-anchor="middle" visibility="hidden" style="font-size: 13px;">K</text><text y="358" x="216.49484536082474" text-anchor="middle" visibility="hidden" style="font-size: 13px;">E</text><text y="358" x="223.71134020618555" text-anchor="middle" visibility="hidden" style="font-size: 13px;">N</text><text y="358" x="230.9278350515464" text-anchor="middle" visibility="hidden" style="font-size: 13px;">K</text><text y="358" x="238.14432989690724" text-anchor="middle" visibility="hidden" style="font-size: 13px;">K</text><text y="358" x="245.36082474226802" text-anchor="middle" visibility="hidden" style="font-size: 13px;">F</text><text y="358" x="252.57731958762886" text-anchor="middle" visibility="hidden" style="font-size: 13px;">P</text><text y="358" x="259.7938144329897" text-anchor="middle" visibility="hidden" style="font-size: 13px;">V</text><text y="358" x="267.0103092783505" text-anchor="middle" visibility="hidden" style="font-size: 13px;">F</text><text y="358" x="274.22680412371136" text-anchor="middle" visibility="hidden" style="font-size: 13px;">K</text><text y="358" x="281.4432989690722" text-anchor="middle" visibility="hidden" style="font-size: 13px;">A</text><text y="358" x="288.659793814433" text-anchor="middle" visibility="hidden" style="font-size: 13px;">V</text><text y="358" x="295.87628865979383" text-anchor="middle" visibility="hidden" style="font-size: 13px;">S</text><text y="358" x="303.09278350515467" text-anchor="middle" visibility="hidden" style="font-size: 13px;">F</text><text y="358" x="310.30927835051546" text-anchor="middle" visibility="hidden" style="font-size: 13px;">K</text><text y="358" x="317.5257731958763" text-anchor="middle" visibility="hidden" style="font-size: 13px;">S</text><text y="358" x="324.74226804123714" text-anchor="middle" visibility="hidden" style="font-size: 13px;">Q</text><text y="358" x="331.9587628865979" text-anchor="middle" visibility="hidden" style="font-size: 13px;">V</text><text y="358" x="339.17525773195877" text-anchor="middle" visibility="hidden" style="font-size: 13px;">V</text><text y="358" x="346.3917525773196" text-anchor="middle" visibility="hidden" style="font-size: 13px;">A</text><text y="358" x="353.6082474226804" text-anchor="middle" visibility="hidden" style="font-size: 13px;">G</text><text y="358" x="360.8247422680412" text-anchor="middle" visibility="hidden" style="font-size: 13px;">T</text><text y="358" x="368.0412371134021" text-anchor="middle" visibility="hidden" style="font-size: 13px;">N</text><text y="358" x="375.25773195876286" text-anchor="middle" visibility="hidden" style="font-size: 13px;">Y</text><text y="358" x="382.47422680412365" text-anchor="middle" visibility="hidden" style="font-size: 13px;">F</text><text y="358" x="389.69072164948454" text-anchor="middle" visibility="hidden" style="font-size: 13px;">I</text><text y="358" x="396.90721649484533" text-anchor="middle" visibility="hidden" style="font-size: 13px;">K</text><text y="358" x="404.12371134020617" text-anchor="middle" visibility="hidden" style="font-size: 13px;">V</text><text y="358" x="411.340206185567" text-anchor="middle" visibility="hidden" style="font-size: 13px;">H</text><text y="358" x="418.5567010309278" text-anchor="middle" visibility="hidden" style="font-size: 13px;">V</text><text y="358" x="425.77319587628864" text-anchor="middle" visibility="hidden" style="font-size: 13px;">G</text><text y="358" x="432.9896907216495" text-anchor="middle" visibility="hidden" style="font-size: 13px;">D</text><text y="358" x="440.2061855670103" text-anchor="middle" visibility="hidden" style="font-size: 13px;">E</text><text y="358" x="447.4226804123711" text-anchor="middle" visibility="hidden" style="font-size: 13px;">D</text><text y="358" x="454.63917525773195" text-anchor="middle" visibility="hidden" style="font-size: 13px;">F</text><text y="358" x="461.8556701030928" text-anchor="middle" visibility="hidden" style="font-size: 13px;">V</text><text y="358" x="469.0721649484536" text-anchor="middle" visibility="hidden" style="font-size: 13px;">H</text><text y="358" x="476.2886597938145" text-anchor="middle" visibility="hidden" style="font-size: 13px;">L</text><text y="358" x="483.50515463917526" text-anchor="middle" visibility="hidden" style="font-size: 13px;">R</text><text y="358" x="490.72164948453604" text-anchor="middle" visibility="hidden" style="font-size: 13px;">V</text><text y="358" x="497.93814432989694" text-anchor="middle" visibility="hidden" style="font-size: 13px;">F</text><text y="358" x="505.1546391752577" text-anchor="middle" visibility="hidden" style="font-size: 13px;">Q</text><text y="358" x="512.3711340206186" text-anchor="middle" visibility="hidden" style="font-size: 13px;">S</text><text y="358" x="519.5876288659794" text-anchor="middle" visibility="hidden" style="font-size: 13px;">L</text><text y="358" x="526.8041237113403" text-anchor="middle" visibility="hidden" style="font-size: 13px;">P</text><text y="358" x="534.020618556701" text-anchor="middle" visibility="hidden" style="font-size: 13px;">H</text><text y="358" x="541.2371134020618" text-anchor="middle" visibility="hidden" style="font-size: 13px;">E</text><text y="358" x="548.4536082474227" text-anchor="middle" visibility="hidden" style="font-size: 13px;">N</text><text y="358" x="555.6701030927835" text-anchor="middle" visibility="hidden" style="font-size: 13px;">K</text><text y="358" x="562.8865979381444" text-anchor="middle" visibility="hidden" style="font-size: 13px;">P</text><text y="358" x="570.1030927835052" text-anchor="middle" visibility="hidden" style="font-size: 13px;">L</text><text y="358" x="577.319587628866" text-anchor="middle" visibility="hidden" style="font-size: 13px;">T</text><text y="358" x="584.5360824742269" text-anchor="middle" visibility="hidden" style="font-size: 13px;">L</text><text y="358" x="591.7525773195877" text-anchor="middle" visibility="hidden" style="font-size: 13px;">S</text><text y="358" x="598.9690721649484" text-anchor="middle" visibility="hidden" style="font-size: 13px;">N</text><text y="358" x="606.1855670103093" text-anchor="middle" visibility="hidden" style="font-size: 13px;">Y</text><text y="358" x="613.4020618556701" text-anchor="middle" visibility="hidden" style="font-size: 13px;">Q</text><text y="358" x="620.6185567010309" text-anchor="middle" visibility="hidden" style="font-size: 13px;">T</text><text y="358" x="627.8350515463918" text-anchor="middle" visibility="hidden" style="font-size: 13px;">N</text><text y="358" x="635.0515463917526" text-anchor="middle" visibility="hidden" style="font-size: 13px;">K</text><text y="358" x="642.2680412371134" text-anchor="middle" visibility="hidden" style="font-size: 13px;">A</text><text y="358" x="649.4845360824743" text-anchor="middle" visibility="hidden" style="font-size: 13px;">K</text><text y="358" x="656.7010309278351" text-anchor="middle" visibility="hidden" style="font-size: 13px;">H</text><text y="358" x="663.9175257731958" text-anchor="middle" visibility="hidden" style="font-size: 13px;">D</text><text y="358" x="671.1340206185567" text-anchor="middle" visibility="hidden" style="font-size: 13px;">E</text><text y="358" x="678.3505154639175" text-anchor="middle" visibility="hidden" style="font-size: 13px;">L</text><text y="358" x="685.5670103092783" text-anchor="middle" visibility="hidden" style="font-size: 13px;">T</text><text y="358" x="692.7835051546392" text-anchor="middle" visibility="hidden" style="font-size: 13px;">Y</text><text y="358" x="700" text-anchor="middle" visibility="hidden" style="font-size: 13px;">F</text></g></g></svg><g class="xAxis" transform="translate(0,360)" fill="none" font-size="10" font-family="sans-serif" text-anchor="middle"><path class="domain" stroke="#000" d="M0.5,6V0.5H700.5V6"></path><g class="tick" opacity="1" transform="translate(65.44845360824742,0)"><line stroke="#000" y2="6"></line><text fill="#000" y="9" dy="0.71em">10</text></g><g class="tick" opacity="1" transform="translate(137.61340206185568,0)"><line stroke="#000" y2="6"></line><text fill="#000" y="9" dy="0.71em">20</text></g><g class="tick" opacity="1" transform="translate(209.7783505154639,0)"><line stroke="#000" y2="6"></line><text fill="#000" y="9" dy="0.71em">30</text></g><g class="tick" opacity="1" transform="translate(281.9432989690722,0)"><line stroke="#000" y2="6"></line><text fill="#000" y="9" dy="0.71em">40</text></g><g class="tick" opacity="1" transform="translate(354.1082474226804,0)"><line stroke="#000" y2="6"></line><text fill="#000" y="9" dy="0.71em">50</text></g><g class="tick" opacity="1" transform="translate(426.27319587628864,0)"><line stroke="#000" y2="6"></line><text fill="#000" y="9" dy="0.71em">60</text></g><g class="tick" opacity="1" transform="translate(498.43814432989694,0)"><line stroke="#000" y2="6"></line><text fill="#000" y="9" dy="0.71em">70</text></g><g class="tick" opacity="1" transform="translate(570.6030927835052,0)"><line stroke="#000" y2="6"></line><text fill="#000" y="9" dy="0.71em">80</text></g><g class="tick" opacity="1" transform="translate(642.7680412371134,0)"><line stroke="#000" y2="6"></line><text fill="#000" y="9" dy="0.71em">90</text></g></g><text class="x label" text-anchor="end" x="700" y="390" style="font-size: 13px; font-family: Arial;">Residue number</text><g class="yAxis" fill="none" font-size="10" font-family="sans-serif" text-anchor="end"><path class="domain" stroke="#000" d="M-6,360.5H0.5V0.5H-6"></path><g class="tick" opacity="1" transform="translate(0,327.77272727272725)"><line stroke="#000" x2="-6"></line><text fill="#000" x="-9" dy="0.32em">0</text></g><g class="tick" opacity="1" transform="translate(0,294.1545734696736)"><line stroke="#000" x2="-6"></line><text fill="#000" x="-9" dy="0.32em">20</text></g><g class="tick" opacity="1" transform="translate(0,260.53641966661996)"><line stroke="#000" x2="-6"></line><text fill="#000" x="-9" dy="0.32em">40</text></g><g class="tick" opacity="1" transform="translate(0,226.91826586356632)"><line stroke="#000" x2="-6"></line><text fill="#000" x="-9" dy="0.32em">60</text></g><g class="tick" opacity="1" transform="translate(0,193.30011206051267)"><line stroke="#000" x2="-6"></line><text fill="#000" x="-9" dy="0.32em">80</text></g><g class="tick" opacity="1" transform="translate(0,159.681958257459)"><line stroke="#000" x2="-6"></line><text fill="#000" x="-9" dy="0.32em">100</text></g><g class="tick" opacity="1" transform="translate(0,126.06380445440539)"><line stroke="#000" x2="-6"></line><text fill="#000" x="-9" dy="0.32em">120</text></g><g class="tick" opacity="1" transform="translate(0,92.44565065135168)"><line stroke="#000" x2="-6"></line><text fill="#000" x="-9" dy="0.32em">140</text></g><g class="tick" opacity="1" transform="translate(0,58.8274968482981)"><line stroke="#000" x2="-6"></line><text fill="#000" x="-9" dy="0.32em">160</text></g><g class="tick" opacity="1" transform="translate(0,25.209343045244395)"><line stroke="#000" x2="-6"></line><text fill="#000" x="-9" dy="0.32em">180</text></g></g><text class="y label" text-anchor="middle" y="-50" x="-180" dy="0.8em" transform="rotate(-90)" style="font-size: 13px; font-family: Arial;">Total number of references</text><g class="axisRed" fill="none" font-size="10" font-family="sans-serif" text-anchor="start" visibility="hidden" transform="translate(700, 0)"><path class="domain" stroke="#000" d="M6,360.5H0.5V0.5H6"></path><g class="tick" opacity="1" transform="translate(0,360.5)"><line stroke="#000" x2="6"></line><text fill="#000" x="9" dy="0.32em">0</text></g><text text-anchor="start" dx="5.2em" dy="-2.6em" transform="rotate(90)" visibility="hidden" style="font-size: 12px; font-family: Arial; fill: #d7301f;">No recurrent (&gt;2) missense mutations!</text></g><g class="axisPurple" fill="none" font-size="10" font-family="sans-serif" text-anchor="start" visibility="hidden"><path class="domain" stroke="#000" d="M6,360.5H0.5V0.5H6"></path><g class="tick" opacity="1" transform="translate(0,357.52479338842977)"><line stroke="#000" x2="6"></line><text fill="#000" x="9" dy="0.32em"></text></g><g class="tick" opacity="1" transform="translate(0,327.77272727272725)"><line stroke="#000" x2="6"></line><text fill="#000" x="9" dy="0.32em">0</text></g><g class="tick" opacity="1" transform="translate(0,298.0206611570248)"><line stroke="#000" x2="6"></line><text fill="#000" x="9" dy="0.32em">0.1</text></g><g class="tick" opacity="1" transform="translate(0,268.2685950413223)"><line stroke="#000" x2="6"></line><text fill="#000" x="9" dy="0.32em">0.2</text></g><g class="tick" opacity="1" transform="translate(0,238.51652892561984)"><line stroke="#000" x2="6"></line><text fill="#000" x="9" dy="0.32em">0.3</text></g><g class="tick" opacity="1" transform="translate(0,208.76446280991738)"><line stroke="#000" x2="6"></line><text fill="#000" x="9" dy="0.32em">0.4</text></g><g class="tick" opacity="1" transform="translate(0,179.0123966942149)"><line stroke="#000" x2="6"></line><text fill="#000" x="9" dy="0.32em">0.5</text></g><g class="tick" opacity="1" transform="translate(0,149.26033057851242)"><line stroke="#000" x2="6"></line><text fill="#000" x="9" dy="0.32em">0.6</text></g><g class="tick" opacity="1" transform="translate(0,119.50826446280996)"><line stroke="#000" x2="6"></line><text fill="#000" x="9" dy="0.32em">0.7</text></g><g class="tick" opacity="1" transform="translate(0,89.75619834710744)"><line stroke="#000" x2="6"></line><text fill="#000" x="9" dy="0.32em">0.8</text></g><g class="tick" opacity="1" transform="translate(0,60.00413223140498)"><line stroke="#000" x2="6"></line><text fill="#000" x="9" dy="0.32em">0.9</text></g><g class="tick" opacity="1" transform="translate(0,30.25206611570252)"><line stroke="#000" x2="6"></line><text fill="#000" x="9" dy="0.32em">1</text></g><g class="tick" opacity="1" transform="translate(0,0.5)"><line stroke="#000" x2="6"></line><text fill="#000" x="9" dy="0.32em">1.1</text></g><text text-anchor="start" x="10" y="10" visibility="hidden" style="font-size: 12px; font-family: Arial; fill: #807dba;">Minor Allele Frequency (MAF) %</text></g><circle cx="636" cy="15" r="10" class="compassNav" style="fill: #ffffff; stroke: #666666; stroke-width: 1px;"></circle><path d="M440.935 12.574l3.966 82.766C399.416 41.904 331.674 8 256 8 134.813 8 33.933 94.924 12.296 209.824 10.908 217.193 16.604 224 24.103 224h49.084c5.57 0 10.377-3.842 11.676-9.259C103.407 137.408 172.931 80 256 80c60.893 0 114.512 30.856 146.104 77.801l-101.53-4.865c-6.845-.328-12.574 5.133-12.574 11.986v47.411c0 6.627 5.373 12 12 12h200.333c6.627 0 12-5.373 12-12V12c0-6.627-5.373-12-12-12h-47.411c-6.853 0-12.315 5.729-11.987 12.574zM256 432c-60.895 0-114.517-30.858-146.109-77.805l101.868 4.871c6.845.327 12.573-5.134 12.573-11.986v-47.412c0-6.627-5.373-12-12-12H12c-6.627 0-12 5.373-12 12V500c0 6.627 5.373 12 12 12h47.385c6.863 0 12.328-5.745 11.985-12.599l-4.129-82.575C112.725 470.166 180.405 504 256 504c121.187 0 222.067-86.924 243.704-201.824 1.388-7.369-4.308-14.176-11.807-14.176h-49.084c-5.57 0-10.377 3.842-11.676 9.259C408.593 374.592 339.069 432 256 432z" class="compassNav" transform="translate(631, 10) scale(0.02)" style="fill: #666666; stroke: #666666; stroke-width: 1px;"></path><circle cx="658" cy="15" r="10" class="compassNav" style="fill: #ffffff; stroke: #666666; stroke-width: 1px;"></circle><line class="compassNav" stroke-width="2" stroke="#666666" x1="654" y1="15" x2="662" y2="15"></line><line class="compassNav" stroke-width="2" stroke="#666666" x1="658" y1="11" x2="658" y2="19"></line><circle cx="614" cy="15" r="10" class="compassNav" style="fill: #ffffff; stroke: #666666; stroke-width: 1px;"></circle><line class="compassNav" stroke-width="2" stroke="#666666" x1="610" y1="15" x2="618" y2="15"></line><path d="M582 14 l20 -12 a100,40 0 0,0 0,24z" class="compassNav" style="fill: #ffffff; stroke: #666666; stroke-width: 1px;"></path><path d="M690 14 l-20 -12 a100,40 0 0,1 0,24z" class="compassNav" style="fill: #ffffff; stroke: #666666; stroke-width: 1px;"></path><path d="M216 0h80c13.3 0 24 10.7 24 24v168h87.7c17.8 0 26.7 21.5 14.1 34.1L269.7 378.3c-7.5 7.5-19.8 7.5-27.3 0L90.1 226.1c-12.6-12.6-3.7-34.1 14.1-34.1H192V24c0-13.3 10.7-24 24-24zm296 376v112c0 13.3-10.7 24-24 24H24c-13.3 0-24-10.7-24-24V376c0-13.3 10.7-24 24-24h146.7l49 49c20.1 20.1 52.5 20.1 72.6 0l49-49H488c13.3 0 24 10.7 24 24zm-124 88c0-11-9-20-20-20s-20 9-20 20 9 20 20 20 20-9 20-20zm64 0c0-11-9-20-20-20s-20 9-20 20 9 20 20 20 20-9 20-20z" class="compassNav" transform="translate(552,0) scale(0.05)" style="fill: #336699; stroke: #336699; stroke-width: 1px; cursor: pointer;"></path></g></svg>