<svg width="800" height="400" style="background-color: white;"><g transform="translate(50,0)"><svg width="700" height="360"><g style="-webkit-tap-highlight-color: rgba(0, 0, 0, 0);"><rect width="700" height="360" style="fill: #ffffff;"></rect><g id="lines"><line class="line" stroke-width="1" stroke="#d7301f" x1="-264.7940074906367" y1="333" x2="-264.7940074906367" y2="360" visibility="hidden" style="stroke-dasharray: 3px, 3px;"></line></g><g><rect x="-269.7940074906367" y="355" width="10" height="10" visibility="hidden" style="fill: #ffffff; stroke: #d7301f;"></rect></g><g id="lines"><line class="line" stroke-width="1" stroke="#6a51a3" x1="-264.7940074906367" y1="333" x2="-264.7940074906367" y2="327.27272727272725" visibility="hidden" style="stroke-dasharray: 3px, 3px;"></line></g><g><rect x="-269.7940074906367" y="322.27272727272725" width="10" height="10" visibility="hidden" style="fill: #ffffff; stroke: #6a51a3;"></rect></g><g id="lines"><line class="line" stroke-width="1" stroke="#666666" x1="13.108614232209739" y1="333" x2="13.108614232209739" y2="244.62809917355372"></line><line class="line" stroke-width="1" stroke="#666666" x1="20.973782771535582" y1="333" x2="20.973782771535582" y2="294.21487603305786"></line><line class="line" stroke-width="1" stroke="#666666" x1="20.973782771535582" y1="333" x2="20.973782771535582" y2="310.74380165289256"></line><line class="line" stroke-width="1" stroke="#666666" x1="20.973782771535582" y1="333" x2="20.973782771535582" y2="310.74380165289256"></line><line class="line" stroke-width="1" stroke="#666666" x1="173.03370786516854" y1="333" x2="173.03370786516854" y2="294.21487603305786"></line><line class="line" stroke-width="1" stroke="#666666" x1="180.8988764044944" y1="333" x2="180.8988764044944" y2="310.74380165289256"></line><line class="line" stroke-width="1" stroke="#666666" x1="220.22471910112358" y1="333" x2="220.22471910112358" y2="310.74380165289256"></line><line class="line" stroke-width="1" stroke="#666666" x1="225.4681647940075" y1="333" x2="225.4681647940075" y2="277.68595041322317"></line><line class="line" stroke-width="1" stroke="#666666" x1="228.08988764044946" y1="333" x2="228.08988764044946" y2="277.68595041322317"></line><line class="line" stroke-width="1" stroke="#666666" x1="256.92883895131087" y1="333" x2="256.92883895131087" y2="310.74380165289256"></line><line class="line" stroke-width="1" stroke="#666666" x1="327.7153558052434" y1="333" x2="327.7153558052434" y2="310.74380165289256"></line><line class="line" stroke-width="1" stroke="#666666" x1="351.31086142322096" y1="333" x2="351.31086142322096" y2="95.8677685950413"></line><line class="line" stroke-width="1" stroke="#666666" x1="380.1498127340824" y1="333" x2="380.1498127340824" y2="310.74380165289256"></line><line class="line" stroke-width="1" stroke="#666666" x1="398.501872659176" y1="333" x2="398.501872659176" y2="310.74380165289256"></line><line class="line" stroke-width="1" stroke="#666666" x1="411.6104868913858" y1="333" x2="411.6104868913858" y2="244.62809917355372"></line><line class="line" stroke-width="1" stroke="#666666" x1="429.96254681647935" y1="333" x2="429.96254681647935" y2="294.21487603305786"></line><line class="line" stroke-width="1" stroke="#666666" x1="448.314606741573" y1="333" x2="448.314606741573" y2="310.74380165289256"></line><line class="line" stroke-width="1" stroke="#666666" x1="448.314606741573" y1="333" x2="448.314606741573" y2="277.68595041322317"></line><line class="line" stroke-width="1" stroke="#666666" x1="448.314606741573" y1="333" x2="448.314606741573" y2="310.74380165289256"></line><line class="line" stroke-width="1" stroke="#666666" x1="464.04494382022466" y1="333" x2="464.04494382022466" y2="310.74380165289256"></line><line class="line" stroke-width="1" stroke="#666666" x1="466.66666666666663" y1="333" x2="466.66666666666663" y2="46.280991735537214"></line><line class="line" stroke-width="1" stroke="#666666" x1="466.66666666666663" y1="333" x2="466.66666666666663" y2="29.75206611570252"></line><line class="line" stroke-width="1" stroke="#666666" x1="568.9138576779026" y1="333" x2="568.9138576779026" y2="310.74380165289256"></line></g><g id="circles"><circle r="4" cx="13.108614232209739" cy="244.62809917355372" style="fill: #4393c3; stroke: #666666; stroke-width: 1px;"></circle><circle r="4" cx="20.973782771535582" cy="294.21487603305786" style="fill: #5aae61; stroke: #666666; stroke-width: 1px;"></circle><circle r="4" cx="20.973782771535582" cy="310.74380165289256" style="fill: #666666; stroke: #666666; stroke-width: 1px;"></circle><circle r="4" cx="20.973782771535582" cy="310.74380165289256" style="fill: #666666; stroke: #666666; stroke-width: 1px;"></circle><circle r="4" cx="173.03370786516854" cy="294.21487603305786" style="fill: #4393c3; stroke: #666666; stroke-width: 1px;"></circle><circle r="4" cx="180.8988764044944" cy="310.74380165289256" style="fill: #4393c3; stroke: #666666; stroke-width: 1px;"></circle><circle r="4" cx="220.22471910112358" cy="310.74380165289256" style="fill: #4393c3; stroke: #666666; stroke-width: 1px;"></circle><circle r="4" cx="225.4681647940075" cy="277.68595041322317" style="fill: #4393c3; stroke: #666666; stroke-width: 1px;"></circle><circle r="4" cx="228.08988764044946" cy="277.68595041322317" style="fill: #4393c3; stroke: #666666; stroke-width: 1px;"></circle><circle r="4" cx="256.92883895131087" cy="310.74380165289256" style="fill: #666666; stroke: #666666; stroke-width: 1px;"></circle><circle r="4" cx="327.7153558052434" cy="310.74380165289256" style="fill: #bf812d; stroke: #666666; stroke-width: 1px;"></circle><circle r="4" cx="351.31086142322096" cy="95.8677685950413" style="fill: #bf812d; stroke: #666666; stroke-width: 1px;"></circle><circle r="4" cx="380.1498127340824" cy="310.74380165289256" style="fill: #4393c3; stroke: #666666; stroke-width: 1px;"></circle><circle r="4" cx="398.501872659176" cy="310.74380165289256" style="fill: #4393c3; stroke: #666666; stroke-width: 1px;"></circle><circle r="4" cx="411.6104868913858" cy="244.62809917355372" style="fill: #bf812d; stroke: #666666; stroke-width: 1px;"></circle><circle r="4" cx="429.96254681647935" cy="294.21487603305786" style="fill: #bf812d; stroke: #666666; stroke-width: 1px;"></circle><circle r="4" cx="448.314606741573" cy="310.74380165289256" style="fill: #5aae61; stroke: #666666; stroke-width: 1px;"></circle><circle r="4" cx="448.314606741573" cy="277.68595041322317" style="fill: #bf812d; stroke: #666666; stroke-width: 1px;"></circle><circle r="4" cx="448.314606741573" cy="310.74380165289256" style="fill: #666666; stroke: #666666; stroke-width: 1px;"></circle><circle r="4" cx="464.04494382022466" cy="310.74380165289256" style="fill: #4393c3; stroke: #666666; stroke-width: 1px;"></circle><circle r="4" cx="466.66666666666663" cy="46.280991735537214" style="fill: #5aae61; stroke: #666666; stroke-width: 1px;"></circle><circle r="4" cx="466.66666666666663" cy="29.75206611570252" style="fill: #bf812d; stroke: #666666; stroke-width: 1px;"></circle><circle r="4" cx="568.9138576779026" cy="310.74380165289256" style="fill: #4393c3; stroke: #666666; stroke-width: 1px;"></circle></g><g><rect x="0" y="333" width="700" height="12" style="fill: #ffffff; stroke-width: 1px; stroke: #666666;"></rect><rect x="288.3895131086142" y="333" width="154.68164794007492" height="12" style="fill: #aec7e8; stroke-width: 1px; stroke: #666666;"></rect><rect x="466.66666666666663" y="333" width="49.812734082397014" height="12" style="fill: #ffbb78; stroke-width: 1px; stroke: #666666;"></rect></g><g><a target="_blank" xlink:href="http://pfam.xfam.org/family/"><text y="343" x="350" text-anchor="middle" style="color: rgb(102, 102, 102); font-weight: normal; font-size: 12px; font-family: Arial; cursor: pointer;"></text></a><a target="_blank" xlink:href="http://pfam.xfam.org/family/EF-hand_8"><text y="343" x="365.7303370786517" text-anchor="middle" style="color: rgb(102, 102, 102); font-weight: normal; font-size: 12px; font-family: Arial; cursor: pointer;">EF-hand_8</text></a><a target="_blank" xlink:href="http://pfam.xfam.org/family/EF-hand_5"><text y="343" x="491.57303370786514" text-anchor="middle" style="color: rgb(102, 102, 102); font-weight: normal; font-size: 12px; font-family: Arial; cursor: pointer;">EF-ha</text></a></g><g><text y="358" x="0" text-anchor="middle" visibility="hidden" style="font-size: 13px;">M</text><text y="358" x="2.6217228464419478" text-anchor="middle" visibility="hidden" style="font-size: 13px;">F</text><text y="358" x="5.2434456928838955" text-anchor="middle" visibility="hidden" style="font-size: 13px;">L</text><text y="358" x="7.865168539325842" text-anchor="middle" visibility="hidden" style="font-size: 13px;">V</text><text y="358" x="10.486891385767791" text-anchor="middle" visibility="hidden" style="font-size: 13px;">N</text><text y="358" x="13.108614232209739" text-anchor="middle" visibility="hidden" style="font-size: 13px;">S</text><text y="358" x="15.730337078651685" text-anchor="middle" visibility="hidden" style="font-size: 13px;">F</text><text y="358" x="18.352059925093634" text-anchor="middle" visibility="hidden" style="font-size: 13px;">L</text><text y="358" x="20.973782771535582" text-anchor="middle" visibility="hidden" style="font-size: 13px;">K</text><text y="358" x="23.595505617977526" text-anchor="middle" visibility="hidden" style="font-size: 13px;">G</text><text y="358" x="26.217228464419478" text-anchor="middle" visibility="hidden" style="font-size: 13px;">G</text><text y="358" x="28.83895131086142" text-anchor="middle" visibility="hidden" style="font-size: 13px;">G</text><text y="358" x="31.46067415730337" text-anchor="middle" visibility="hidden" style="font-size: 13px;">G</text><text y="358" x="34.08239700374532" text-anchor="middle" visibility="hidden" style="font-size: 13px;">G</text><text y="358" x="36.70411985018727" text-anchor="middle" visibility="hidden" style="font-size: 13px;">G</text><text y="358" x="39.32584269662921" text-anchor="middle" visibility="hidden" style="font-size: 13px;">G</text><text y="358" x="41.947565543071164" text-anchor="middle" visibility="hidden" style="font-size: 13px;">G</text><text y="358" x="44.56928838951311" text-anchor="middle" visibility="hidden" style="font-size: 13px;">G</text><text y="358" x="47.19101123595505" text-anchor="middle" visibility="hidden" style="font-size: 13px;">G</text><text y="358" x="49.812734082397" text-anchor="middle" visibility="hidden" style="font-size: 13px;">G</text><text y="358" x="52.434456928838955" text-anchor="middle" visibility="hidden" style="font-size: 13px;">L</text><text y="358" x="55.056179775280896" text-anchor="middle" visibility="hidden" style="font-size: 13px;">G</text><text y="358" x="57.67790262172284" text-anchor="middle" visibility="hidden" style="font-size: 13px;">G</text><text y="358" x="60.2996254681648" text-anchor="middle" visibility="hidden" style="font-size: 13px;">G</text><text y="358" x="62.92134831460674" text-anchor="middle" visibility="hidden" style="font-size: 13px;">L</text><text y="358" x="65.54307116104869" text-anchor="middle" visibility="hidden" style="font-size: 13px;">G</text><text y="358" x="68.16479400749064" text-anchor="middle" visibility="hidden" style="font-size: 13px;">N</text><text y="358" x="70.78651685393258" text-anchor="middle" visibility="hidden" style="font-size: 13px;">V</text><text y="358" x="73.40823970037454" text-anchor="middle" visibility="hidden" style="font-size: 13px;">L</text><text y="358" x="76.02996254681648" text-anchor="middle" visibility="hidden" style="font-size: 13px;">G</text><text y="358" x="78.65168539325842" text-anchor="middle" visibility="hidden" style="font-size: 13px;">G</text><text y="358" x="81.27340823970037" text-anchor="middle" visibility="hidden" style="font-size: 13px;">L</text><text y="358" x="83.89513108614233" text-anchor="middle" visibility="hidden" style="font-size: 13px;">I</text><text y="358" x="86.51685393258427" text-anchor="middle" visibility="hidden" style="font-size: 13px;">S</text><text y="358" x="89.13857677902622" text-anchor="middle" visibility="hidden" style="font-size: 13px;">G</text><text y="358" x="91.76029962546815" text-anchor="middle" visibility="hidden" style="font-size: 13px;">A</text><text y="358" x="94.3820224719101" text-anchor="middle" visibility="hidden" style="font-size: 13px;">G</text><text y="358" x="97.00374531835206" text-anchor="middle" visibility="hidden" style="font-size: 13px;">G</text><text y="358" x="99.625468164794" text-anchor="middle" visibility="hidden" style="font-size: 13px;">G</text><text y="358" x="102.24719101123596" text-anchor="middle" visibility="hidden" style="font-size: 13px;">G</text><text y="358" x="104.86891385767791" text-anchor="middle" visibility="hidden" style="font-size: 13px;">G</text><text y="358" x="107.49063670411984" text-anchor="middle" visibility="hidden" style="font-size: 13px;">G</text><text y="358" x="110.11235955056179" text-anchor="middle" visibility="hidden" style="font-size: 13px;">G</text><text y="358" x="112.73408239700375" text-anchor="middle" visibility="hidden" style="font-size: 13px;">G</text><text y="358" x="115.35580524344569" text-anchor="middle" visibility="hidden" style="font-size: 13px;">G</text><text y="358" x="117.97752808988764" text-anchor="middle" visibility="hidden" style="font-size: 13px;">G</text><text y="358" x="120.5992509363296" text-anchor="middle" visibility="hidden" style="font-size: 13px;">G</text><text y="358" x="123.22097378277155" text-anchor="middle" visibility="hidden" style="font-size: 13px;">G</text><text y="358" x="125.84269662921348" text-anchor="middle" visibility="hidden" style="font-size: 13px;">G</text><text y="358" x="128.46441947565543" text-anchor="middle" visibility="hidden" style="font-size: 13px;">G</text><text y="358" x="131.08614232209737" text-anchor="middle" visibility="hidden" style="font-size: 13px;">G</text><text y="358" x="133.7078651685393" text-anchor="middle" visibility="hidden" style="font-size: 13px;">G</text><text y="358" x="136.32958801498128" text-anchor="middle" visibility="hidden" style="font-size: 13px;">G</text><text y="358" x="138.95131086142322" text-anchor="middle" visibility="hidden" style="font-size: 13px;">G</text><text y="358" x="141.57303370786516" text-anchor="middle" visibility="hidden" style="font-size: 13px;">G</text><text y="358" x="144.1947565543071" text-anchor="middle" visibility="hidden" style="font-size: 13px;">G</text><text y="358" x="146.81647940074907" text-anchor="middle" visibility="hidden" style="font-size: 13px;">T</text><text y="358" x="149.43820224719101" text-anchor="middle" visibility="hidden" style="font-size: 13px;">A</text><text y="358" x="152.05992509363296" text-anchor="middle" visibility="hidden" style="font-size: 13px;">M</text><text y="358" x="154.68164794007492" text-anchor="middle" visibility="hidden" style="font-size: 13px;">R</text><text y="358" x="157.30337078651684" text-anchor="middle" visibility="hidden" style="font-size: 13px;">I</text><text y="358" x="159.9250936329588" text-anchor="middle" visibility="hidden" style="font-size: 13px;">L</text><text y="358" x="162.54681647940075" text-anchor="middle" visibility="hidden" style="font-size: 13px;">G</text><text y="358" x="165.1685393258427" text-anchor="middle" visibility="hidden" style="font-size: 13px;">G</text><text y="358" x="167.79026217228466" text-anchor="middle" visibility="hidden" style="font-size: 13px;">V</text><text y="358" x="170.4119850187266" text-anchor="middle" visibility="hidden" style="font-size: 13px;">I</text><text y="358" x="173.03370786516854" text-anchor="middle" visibility="hidden" style="font-size: 13px;">S</text><text y="358" x="175.65543071161048" text-anchor="middle" visibility="hidden" style="font-size: 13px;">A</text><text y="358" x="178.27715355805245" text-anchor="middle" visibility="hidden" style="font-size: 13px;">I</text><text y="358" x="180.8988764044944" text-anchor="middle" visibility="hidden" style="font-size: 13px;">S</text><text y="358" x="183.5205992509363" text-anchor="middle" visibility="hidden" style="font-size: 13px;">E</text><text y="358" x="186.14232209737827" text-anchor="middle" visibility="hidden" style="font-size: 13px;">A</text><text y="358" x="188.7640449438202" text-anchor="middle" visibility="hidden" style="font-size: 13px;">A</text><text y="358" x="191.38576779026218" text-anchor="middle" visibility="hidden" style="font-size: 13px;">A</text><text y="358" x="194.00749063670412" text-anchor="middle" visibility="hidden" style="font-size: 13px;">Q</text><text y="358" x="196.6292134831461" text-anchor="middle" visibility="hidden" style="font-size: 13px;">Y</text><text y="358" x="199.250936329588" text-anchor="middle" visibility="hidden" style="font-size: 13px;">N</text><text y="358" x="201.87265917602994" text-anchor="middle" visibility="hidden" style="font-size: 13px;">P</text><text y="358" x="204.4943820224719" text-anchor="middle" visibility="hidden" style="font-size: 13px;">E</text><text y="358" x="207.11610486891385" text-anchor="middle" visibility="hidden" style="font-size: 13px;">P</text><text y="358" x="209.73782771535582" text-anchor="middle" visibility="hidden" style="font-size: 13px;">P</text><text y="358" x="212.35955056179776" text-anchor="middle" visibility="hidden" style="font-size: 13px;">P</text><text y="358" x="214.98127340823967" text-anchor="middle" visibility="hidden" style="font-size: 13px;">P</text><text y="358" x="217.60299625468164" text-anchor="middle" visibility="hidden" style="font-size: 13px;">R</text><text y="358" x="220.22471910112358" text-anchor="middle" visibility="hidden" style="font-size: 13px;">T</text><text y="358" x="222.84644194756555" text-anchor="middle" visibility="hidden" style="font-size: 13px;">H</text><text y="358" x="225.4681647940075" text-anchor="middle" visibility="hidden" style="font-size: 13px;">Y</text><text y="358" x="228.08988764044946" text-anchor="middle" visibility="hidden" style="font-size: 13px;">S</text><text y="358" x="230.71161048689137" text-anchor="middle" visibility="hidden" style="font-size: 13px;">N</text><text y="358" x="233.33333333333331" text-anchor="middle" visibility="hidden" style="font-size: 13px;">I</text><text y="358" x="235.95505617977528" text-anchor="middle" visibility="hidden" style="font-size: 13px;">E</text><text y="358" x="238.57677902621722" text-anchor="middle" visibility="hidden" style="font-size: 13px;">A</text><text y="358" x="241.1985018726592" text-anchor="middle" visibility="hidden" style="font-size: 13px;">N</text><text y="358" x="243.82022471910113" text-anchor="middle" visibility="hidden" style="font-size: 13px;">E</text><text y="358" x="246.4419475655431" text-anchor="middle" visibility="hidden" style="font-size: 13px;">S</text><text y="358" x="249.06367041198502" text-anchor="middle" visibility="hidden" style="font-size: 13px;">E</text><text y="358" x="251.68539325842696" text-anchor="middle" visibility="hidden" style="font-size: 13px;">E</text><text y="358" x="254.30711610486892" text-anchor="middle" visibility="hidden" style="font-size: 13px;">V</text><text y="358" x="256.92883895131087" text-anchor="middle" visibility="hidden" style="font-size: 13px;">R</text><text y="358" x="259.55056179775283" text-anchor="middle" visibility="hidden" style="font-size: 13px;">Q</text><text y="358" x="262.17228464419475" text-anchor="middle" visibility="hidden" style="font-size: 13px;">F</text><text y="358" x="264.7940074906367" text-anchor="middle" visibility="hidden" style="font-size: 13px;">R</text><text y="358" x="267.4157303370786" text-anchor="middle" visibility="hidden" style="font-size: 13px;">R</text><text y="358" x="270.0374531835206" text-anchor="middle" visibility="hidden" style="font-size: 13px;">L</text><text y="358" x="272.65917602996257" text-anchor="middle" visibility="hidden" style="font-size: 13px;">F</text><text y="358" x="275.2808988764045" text-anchor="middle" visibility="hidden" style="font-size: 13px;">A</text><text y="358" x="277.90262172284645" text-anchor="middle" visibility="hidden" style="font-size: 13px;">Q</text><text y="358" x="280.52434456928836" text-anchor="middle" visibility="hidden" style="font-size: 13px;">L</text><text y="358" x="283.14606741573033" text-anchor="middle" visibility="hidden" style="font-size: 13px;">A</text><text y="358" x="285.7677902621723" text-anchor="middle" visibility="hidden" style="font-size: 13px;">G</text><text y="358" x="288.3895131086142" text-anchor="middle" visibility="hidden" style="font-size: 13px;">D</text><text y="358" x="291.0112359550562" text-anchor="middle" visibility="hidden" style="font-size: 13px;">D</text><text y="358" x="293.63295880149815" text-anchor="middle" visibility="hidden" style="font-size: 13px;">M</text><text y="358" x="296.25468164794006" text-anchor="middle" visibility="hidden" style="font-size: 13px;">E</text><text y="358" x="298.87640449438203" text-anchor="middle" visibility="hidden" style="font-size: 13px;">V</text><text y="358" x="301.49812734082394" text-anchor="middle" visibility="hidden" style="font-size: 13px;">S</text><text y="358" x="304.1198501872659" text-anchor="middle" visibility="hidden" style="font-size: 13px;">A</text><text y="358" x="306.7415730337079" text-anchor="middle" visibility="hidden" style="font-size: 13px;">T</text><text y="358" x="309.36329588014985" text-anchor="middle" visibility="hidden" style="font-size: 13px;">E</text><text y="358" x="311.98501872659176" text-anchor="middle" visibility="hidden" style="font-size: 13px;">L</text><text y="358" x="314.6067415730337" text-anchor="middle" visibility="hidden" style="font-size: 13px;">M</text><text y="358" x="317.22846441947564" text-anchor="middle" visibility="hidden" style="font-size: 13px;">N</text><text y="358" x="319.8501872659176" text-anchor="middle" visibility="hidden" style="font-size: 13px;">I</text><text y="358" x="322.4719101123596" text-anchor="middle" visibility="hidden" style="font-size: 13px;">L</text><text y="358" x="325.0936329588015" text-anchor="middle" visibility="hidden" style="font-size: 13px;">N</text><text y="358" x="327.7153558052434" text-anchor="middle" visibility="hidden" style="font-size: 13px;">K</text><text y="358" x="330.3370786516854" text-anchor="middle" visibility="hidden" style="font-size: 13px;">V</text><text y="358" x="332.95880149812734" text-anchor="middle" visibility="hidden" style="font-size: 13px;">V</text><text y="358" x="335.5805243445693" text-anchor="middle" visibility="hidden" style="font-size: 13px;">T</text><text y="358" x="338.2022471910112" text-anchor="middle" visibility="hidden" style="font-size: 13px;">R</text><text y="358" x="340.8239700374532" text-anchor="middle" visibility="hidden" style="font-size: 13px;">H</text><text y="358" x="343.4456928838951" text-anchor="middle" visibility="hidden" style="font-size: 13px;">P</text><text y="358" x="346.0674157303371" text-anchor="middle" visibility="hidden" style="font-size: 13px;">D</text><text y="358" x="348.68913857677904" text-anchor="middle" visibility="hidden" style="font-size: 13px;">L</text><text y="358" x="351.31086142322096" text-anchor="middle" visibility="hidden" style="font-size: 13px;">K</text><text y="358" x="353.9325842696629" text-anchor="middle" visibility="hidden" style="font-size: 13px;">T</text><text y="358" x="356.5543071161049" text-anchor="middle" visibility="hidden" style="font-size: 13px;">D</text><text y="358" x="359.17602996254686" text-anchor="middle" visibility="hidden" style="font-size: 13px;">G</text><text y="358" x="361.7977528089888" text-anchor="middle" visibility="hidden" style="font-size: 13px;">F</text><text y="358" x="364.41947565543074" text-anchor="middle" visibility="hidden" style="font-size: 13px;">G</text><text y="358" x="367.0411985018726" text-anchor="middle" visibility="hidden" style="font-size: 13px;">I</text><text y="358" x="369.66292134831457" text-anchor="middle" visibility="hidden" style="font-size: 13px;">D</text><text y="358" x="372.28464419475654" text-anchor="middle" visibility="hidden" style="font-size: 13px;">T</text><text y="358" x="374.9063670411985" text-anchor="middle" visibility="hidden" style="font-size: 13px;">C</text><text y="358" x="377.5280898876404" text-anchor="middle" visibility="hidden" style="font-size: 13px;">R</text><text y="358" x="380.1498127340824" text-anchor="middle" visibility="hidden" style="font-size: 13px;">S</text><text y="358" x="382.77153558052436" text-anchor="middle" visibility="hidden" style="font-size: 13px;">M</text><text y="358" x="385.3932584269663" text-anchor="middle" visibility="hidden" style="font-size: 13px;">V</text><text y="358" x="388.01498127340824" text-anchor="middle" visibility="hidden" style="font-size: 13px;">A</text><text y="358" x="390.6367041198502" text-anchor="middle" visibility="hidden" style="font-size: 13px;">V</text><text y="358" x="393.2584269662922" text-anchor="middle" visibility="hidden" style="font-size: 13px;">M</text><text y="358" x="395.8801498127341" text-anchor="middle" visibility="hidden" style="font-size: 13px;">D</text><text y="358" x="398.501872659176" text-anchor="middle" visibility="hidden" style="font-size: 13px;">S</text><text y="358" x="401.12359550561797" text-anchor="middle" visibility="hidden" style="font-size: 13px;">D</text><text y="358" x="403.7453183520599" text-anchor="middle" visibility="hidden" style="font-size: 13px;">T</text><text y="358" x="406.36704119850185" text-anchor="middle" visibility="hidden" style="font-size: 13px;">T</text><text y="358" x="408.9887640449438" text-anchor="middle" visibility="hidden" style="font-size: 13px;">G</text><text y="358" x="411.6104868913858" text-anchor="middle" visibility="hidden" style="font-size: 13px;">K</text><text y="358" x="414.2322097378277" text-anchor="middle" visibility="hidden" style="font-size: 13px;">L</text><text y="358" x="416.85393258426967" text-anchor="middle" visibility="hidden" style="font-size: 13px;">G</text><text y="358" x="419.47565543071164" text-anchor="middle" visibility="hidden" style="font-size: 13px;">F</text><text y="358" x="422.09737827715355" text-anchor="middle" visibility="hidden" style="font-size: 13px;">E</text><text y="358" x="424.7191011235955" text-anchor="middle" visibility="hidden" style="font-size: 13px;">E</text><text y="358" x="427.3408239700375" text-anchor="middle" visibility="hidden" style="font-size: 13px;">F</text><text y="358" x="429.96254681647935" text-anchor="middle" visibility="hidden" style="font-size: 13px;">K</text><text y="358" x="432.5842696629213" text-anchor="middle" visibility="hidden" style="font-size: 13px;">Y</text><text y="358" x="435.2059925093633" text-anchor="middle" visibility="hidden" style="font-size: 13px;">L</text><text y="358" x="437.82771535580525" text-anchor="middle" visibility="hidden" style="font-size: 13px;">W</text><text y="358" x="440.44943820224717" text-anchor="middle" visibility="hidden" style="font-size: 13px;">N</text><text y="358" x="443.07116104868913" text-anchor="middle" visibility="hidden" style="font-size: 13px;">N</text><text y="358" x="445.6928838951311" text-anchor="middle" visibility="hidden" style="font-size: 13px;">I</text><text y="358" x="448.314606741573" text-anchor="middle" visibility="hidden" style="font-size: 13px;">K</text><text y="358" x="450.936329588015" text-anchor="middle" visibility="hidden" style="font-size: 13px;">R</text><text y="358" x="453.55805243445695" text-anchor="middle" visibility="hidden" style="font-size: 13px;">W</text><text y="358" x="456.1797752808989" text-anchor="middle" visibility="hidden" style="font-size: 13px;">Q</text><text y="358" x="458.80149812734084" text-anchor="middle" visibility="hidden" style="font-size: 13px;">A</text><text y="358" x="461.42322097378275" text-anchor="middle" visibility="hidden" style="font-size: 13px;">I</text><text y="358" x="464.04494382022466" text-anchor="middle" visibility="hidden" style="font-size: 13px;">Y</text><text y="358" x="466.66666666666663" text-anchor="middle" visibility="hidden" style="font-size: 13px;">K</text><text y="358" x="469.2883895131086" text-anchor="middle" visibility="hidden" style="font-size: 13px;">Q</text><text y="358" x="471.91011235955057" text-anchor="middle" visibility="hidden" style="font-size: 13px;">F</text><text y="358" x="474.5318352059925" text-anchor="middle" visibility="hidden" style="font-size: 13px;">D</text><text y="358" x="477.15355805243445" text-anchor="middle" visibility="hidden" style="font-size: 13px;">T</text><text y="358" x="479.7752808988764" text-anchor="middle" visibility="hidden" style="font-size: 13px;">D</text><text y="358" x="482.3970037453184" text-anchor="middle" visibility="hidden" style="font-size: 13px;">R</text><text y="358" x="485.0187265917603" text-anchor="middle" visibility="hidden" style="font-size: 13px;">S</text><text y="358" x="487.64044943820227" text-anchor="middle" visibility="hidden" style="font-size: 13px;">G</text><text y="358" x="490.26217228464424" text-anchor="middle" visibility="hidden" style="font-size: 13px;">T</text><text y="358" x="492.8838951310862" text-anchor="middle" visibility="hidden" style="font-size: 13px;">I</text><text y="358" x="495.50561797752806" text-anchor="middle" visibility="hidden" style="font-size: 13px;">C</text><text y="358" x="498.12734082397003" text-anchor="middle" visibility="hidden" style="font-size: 13px;">S</text><text y="358" x="500.74906367041194" text-anchor="middle" visibility="hidden" style="font-size: 13px;">S</text><text y="358" x="503.3707865168539" text-anchor="middle" visibility="hidden" style="font-size: 13px;">E</text><text y="358" x="505.9925093632959" text-anchor="middle" visibility="hidden" style="font-size: 13px;">L</text><text y="358" x="508.61423220973785" text-anchor="middle" visibility="hidden" style="font-size: 13px;">P</text><text y="358" x="511.23595505617976" text-anchor="middle" visibility="hidden" style="font-size: 13px;">G</text><text y="358" x="513.8576779026217" text-anchor="middle" visibility="hidden" style="font-size: 13px;">A</text><text y="358" x="516.4794007490636" text-anchor="middle" visibility="hidden" style="font-size: 13px;">F</text><text y="358" x="519.1011235955057" text-anchor="middle" visibility="hidden" style="font-size: 13px;">E</text><text y="358" x="521.7228464419476" text-anchor="middle" visibility="hidden" style="font-size: 13px;">A</text><text y="358" x="524.3445692883895" text-anchor="middle" visibility="hidden" style="font-size: 13px;">A</text><text y="358" x="526.9662921348314" text-anchor="middle" visibility="hidden" style="font-size: 13px;">G</text><text y="358" x="529.5880149812734" text-anchor="middle" visibility="hidden" style="font-size: 13px;">F</text><text y="358" x="532.2097378277153" text-anchor="middle" visibility="hidden" style="font-size: 13px;">H</text><text y="358" x="534.8314606741573" text-anchor="middle" visibility="hidden" style="font-size: 13px;">L</text><text y="358" x="537.4531835205993" text-anchor="middle" visibility="hidden" style="font-size: 13px;">N</text><text y="358" x="540.0749063670412" text-anchor="middle" visibility="hidden" style="font-size: 13px;">E</text><text y="358" x="542.6966292134831" text-anchor="middle" visibility="hidden" style="font-size: 13px;">H</text><text y="358" x="545.3183520599251" text-anchor="middle" visibility="hidden" style="font-size: 13px;">L</text><text y="358" x="547.940074906367" text-anchor="middle" visibility="hidden" style="font-size: 13px;">Y</text><text y="358" x="550.561797752809" text-anchor="middle" visibility="hidden" style="font-size: 13px;">N</text><text y="358" x="553.183520599251" text-anchor="middle" visibility="hidden" style="font-size: 13px;">M</text><text y="358" x="555.8052434456929" text-anchor="middle" visibility="hidden" style="font-size: 13px;">I</text><text y="358" x="558.4269662921348" text-anchor="middle" visibility="hidden" style="font-size: 13px;">I</text><text y="358" x="561.0486891385767" text-anchor="middle" visibility="hidden" style="font-size: 13px;">R</text><text y="358" x="563.6704119850187" text-anchor="middle" visibility="hidden" style="font-size: 13px;">R</text><text y="358" x="566.2921348314607" text-anchor="middle" visibility="hidden" style="font-size: 13px;">Y</text><text y="358" x="568.9138576779026" text-anchor="middle" visibility="hidden" style="font-size: 13px;">S</text><text y="358" x="571.5355805243446" text-anchor="middle" visibility="hidden" style="font-size: 13px;">D</text><text y="358" x="574.1573033707865" text-anchor="middle" visibility="hidden" style="font-size: 13px;">E</text><text y="358" x="576.7790262172284" text-anchor="middle" visibility="hidden" style="font-size: 13px;">S</text><text y="358" x="579.4007490636704" text-anchor="middle" visibility="hidden" style="font-size: 13px;">G</text><text y="358" x="582.0224719101124" text-anchor="middle" visibility="hidden" style="font-size: 13px;">N</text><text y="358" x="584.6441947565544" text-anchor="middle" visibility="hidden" style="font-size: 13px;">M</text><text y="358" x="587.2659176029963" text-anchor="middle" visibility="hidden" style="font-size: 13px;">D</text><text y="358" x="589.8876404494382" text-anchor="middle" visibility="hidden" style="font-size: 13px;">F</text><text y="358" x="592.5093632958801" text-anchor="middle" visibility="hidden" style="font-size: 13px;">D</text><text y="358" x="595.131086142322" text-anchor="middle" visibility="hidden" style="font-size: 13px;">N</text><text y="358" x="597.7528089887641" text-anchor="middle" visibility="hidden" style="font-size: 13px;">F</text><text y="358" x="600.374531835206" text-anchor="middle" visibility="hidden" style="font-size: 13px;">I</text><text y="358" x="602.9962546816479" text-anchor="middle" visibility="hidden" style="font-size: 13px;">S</text><text y="358" x="605.6179775280899" text-anchor="middle" visibility="hidden" style="font-size: 13px;">C</text><text y="358" x="608.2397003745318" text-anchor="middle" visibility="hidden" style="font-size: 13px;">L</text><text y="358" x="610.8614232209738" text-anchor="middle" visibility="hidden" style="font-size: 13px;">V</text><text y="358" x="613.4831460674158" text-anchor="middle" visibility="hidden" style="font-size: 13px;">R</text><text y="358" x="616.1048689138577" text-anchor="middle" visibility="hidden" style="font-size: 13px;">L</text><text y="358" x="618.7265917602997" text-anchor="middle" visibility="hidden" style="font-size: 13px;">D</text><text y="358" x="621.3483146067415" text-anchor="middle" visibility="hidden" style="font-size: 13px;">A</text><text y="358" x="623.9700374531835" text-anchor="middle" visibility="hidden" style="font-size: 13px;">M</text><text y="358" x="626.5917602996254" text-anchor="middle" visibility="hidden" style="font-size: 13px;">F</text><text y="358" x="629.2134831460673" text-anchor="middle" visibility="hidden" style="font-size: 13px;">R</text><text y="358" x="631.8352059925094" text-anchor="middle" visibility="hidden" style="font-size: 13px;">A</text><text y="358" x="634.4569288389513" text-anchor="middle" visibility="hidden" style="font-size: 13px;">F</text><text y="358" x="637.0786516853933" text-anchor="middle" visibility="hidden" style="font-size: 13px;">K</text><text y="358" x="639.7003745318352" text-anchor="middle" visibility="hidden" style="font-size: 13px;">S</text><text y="358" x="642.3220973782771" text-anchor="middle" visibility="hidden" style="font-size: 13px;">L</text><text y="358" x="644.9438202247192" text-anchor="middle" visibility="hidden" style="font-size: 13px;">D</text><text y="358" x="647.5655430711611" text-anchor="middle" visibility="hidden" style="font-size: 13px;">K</text><text y="358" x="650.187265917603" text-anchor="middle" visibility="hidden" style="font-size: 13px;">D</text><text y="358" x="652.8089887640449" text-anchor="middle" visibility="hidden" style="font-size: 13px;">G</text><text y="358" x="655.4307116104868" text-anchor="middle" visibility="hidden" style="font-size: 13px;">T</text><text y="358" x="658.0524344569288" text-anchor="middle" visibility="hidden" style="font-size: 13px;">G</text><text y="358" x="660.6741573033707" text-anchor="middle" visibility="hidden" style="font-size: 13px;">Q</text><text y="358" x="663.2958801498128" text-anchor="middle" visibility="hidden" style="font-size: 13px;">I</text><text y="358" x="665.9176029962547" text-anchor="middle" visibility="hidden" style="font-size: 13px;">Q</text><text y="358" x="668.5393258426966" text-anchor="middle" visibility="hidden" style="font-size: 13px;">V</text><text y="358" x="671.1610486891386" text-anchor="middle" visibility="hidden" style="font-size: 13px;">N</text><text y="358" x="673.7827715355805" text-anchor="middle" visibility="hidden" style="font-size: 13px;">I</text><text y="358" x="676.4044943820224" text-anchor="middle" visibility="hidden" style="font-size: 13px;">Q</text><text y="358" x="679.0262172284645" text-anchor="middle" visibility="hidden" style="font-size: 13px;">E</text><text y="358" x="681.6479400749064" text-anchor="middle" visibility="hidden" style="font-size: 13px;">W</text><text y="358" x="684.2696629213483" text-anchor="middle" visibility="hidden" style="font-size: 13px;">L</text><text y="358" x="686.8913857677902" text-anchor="middle" visibility="hidden" style="font-size: 13px;">Q</text><text y="358" x="689.5131086142322" text-anchor="middle" visibility="hidden" style="font-size: 13px;">L</text><text y="358" x="692.1348314606741" text-anchor="middle" visibility="hidden" style="font-size: 13px;">T</text><text y="358" x="694.7565543071161" text-anchor="middle" visibility="hidden" style="font-size: 13px;">M</text><text y="358" x="697.3782771535581" text-anchor="middle" visibility="hidden" style="font-size: 13px;">Y</text><text y="358" x="700" text-anchor="middle" visibility="hidden" style="font-size: 13px;">S</text></g></g></svg><g class="xAxis" transform="translate(0,360)" fill="none" font-size="10" font-family="sans-serif" text-anchor="middle"><path class="domain" stroke="#000" d="M0.5,6V0.5H700.5V6"></path><g class="tick" opacity="1" transform="translate(50.312734082397,0)"><line stroke="#000" y2="6"></line><text fill="#000" y="9" dy="0.71em">20</text></g><g class="tick" opacity="1" transform="translate(102.74719101123596,0)"><line stroke="#000" y2="6"></line><text fill="#000" y="9" dy="0.71em">40</text></g><g class="tick" opacity="1" transform="translate(155.18164794007492,0)"><line stroke="#000" y2="6"></line><text fill="#000" y="9" dy="0.71em">60</text></g><g class="tick" opacity="1" transform="translate(207.61610486891385,0)"><line stroke="#000" y2="6"></line><text fill="#000" y="9" dy="0.71em">80</text></g><g class="tick" opacity="1" transform="translate(260.05056179775283,0)"><line stroke="#000" y2="6"></line><text fill="#000" y="9" dy="0.71em">100</text></g><g class="tick" opacity="1" transform="translate(312.48501872659176,0)"><line stroke="#000" y2="6"></line><text fill="#000" y="9" dy="0.71em">120</text></g><g class="tick" opacity="1" transform="translate(364.91947565543074,0)"><line stroke="#000" y2="6"></line><text fill="#000" y="9" dy="0.71em">140</text></g><g class="tick" opacity="1" transform="translate(417.35393258426967,0)"><line stroke="#000" y2="6"></line><text fill="#000" y="9" dy="0.71em">160</text></g><g class="tick" opacity="1" transform="translate(469.7883895131086,0)"><line stroke="#000" y2="6"></line><text fill="#000" y="9" dy="0.71em">180</text></g><g class="tick" opacity="1" transform="translate(522.2228464419476,0)"><line stroke="#000" y2="6"></line><text fill="#000" y="9" dy="0.71em">200</text></g><g class="tick" opacity="1" transform="translate(574.6573033707865,0)"><line stroke="#000" y2="6"></line><text fill="#000" y="9" dy="0.71em">220</text></g><g class="tick" opacity="1" transform="translate(627.0917602996254,0)"><line stroke="#000" y2="6"></line><text fill="#000" y="9" dy="0.71em">240</text></g><g class="tick" opacity="1" transform="translate(679.5262172284645,0)"><line stroke="#000" y2="6"></line><text fill="#000" y="9" dy="0.71em">260</text></g></g><text class="x label" text-anchor="end" x="700" y="390" style="font-size: 13px; font-family: Arial;">Residue number</text><g class="yAxis" fill="none" font-size="10" font-family="sans-serif" text-anchor="end"><path class="domain" stroke="#000" d="M-6,360.5H0.5V0.5H-6"></path><g class="tick" opacity="1" transform="translate(0,327.77272727272725)"><line stroke="#000" x2="-6"></line><text fill="#000" x="-9" dy="0.32em">0</text></g><g class="tick" opacity="1" transform="translate(0,294.71487603305786)"><line stroke="#000" x2="-6"></line><text fill="#000" x="-9" dy="0.32em">2</text></g><g class="tick" opacity="1" transform="translate(0,261.6570247933884)"><line stroke="#000" x2="-6"></line><text fill="#000" x="-9" dy="0.32em">4</text></g><g class="tick" opacity="1" transform="translate(0,228.59917355371903)"><line stroke="#000" x2="-6"></line><text fill="#000" x="-9" dy="0.32em">6</text></g><g class="tick" opacity="1" transform="translate(0,195.54132231404958)"><line stroke="#000" x2="-6"></line><text fill="#000" x="-9" dy="0.32em">8</text></g><g class="tick" opacity="1" transform="translate(0,162.4834710743802)"><line stroke="#000" x2="-6"></line><text fill="#000" x="-9" dy="0.32em">10</text></g><g class="tick" opacity="1" transform="translate(0,129.42561983471077)"><line stroke="#000" x2="-6"></line><text fill="#000" x="-9" dy="0.32em">12</text></g><g class="tick" opacity="1" transform="translate(0,96.3677685950413)"><line stroke="#000" x2="-6"></line><text fill="#000" x="-9" dy="0.32em">14</text></g><g class="tick" opacity="1" transform="translate(0,63.30991735537191)"><line stroke="#000" x2="-6"></line><text fill="#000" x="-9" dy="0.32em">16</text></g><g class="tick" opacity="1" transform="translate(0,30.25206611570252)"><line stroke="#000" x2="-6"></line><text fill="#000" x="-9" dy="0.32em">18</text></g></g><text class="y label" text-anchor="middle" y="-50" x="-180" dy="0.8em" transform="rotate(-90)" style="font-size: 13px; font-family: Arial;">Total number of references</text><g class="axisRed" fill="none" font-size="10" font-family="sans-serif" text-anchor="start" visibility="hidden" transform="translate(700, 0)"><path class="domain" stroke="#000" d="M6,360.5H0.5V0.5H6"></path><g class="tick" opacity="1" transform="translate(0,360.5)"><line stroke="#000" x2="6"></line><text fill="#000" x="9" dy="0.32em">0</text></g><text text-anchor="start" dx="5.2em" dy="-2.6em" transform="rotate(90)" visibility="hidden" style="font-size: 12px; font-family: Arial; fill: #d7301f;">No recurrent (&gt;2) missense mutations!</text></g><g class="axisPurple" fill="none" font-size="10" font-family="sans-serif" text-anchor="start" visibility="hidden"><path class="domain" stroke="#000" d="M6,360.5H0.5V0.5H6"></path><g class="tick" opacity="1" transform="translate(0,357.52479338842977)"><line stroke="#000" x2="6"></line><text fill="#000" x="9" dy="0.32em"></text></g><g class="tick" opacity="1" transform="translate(0,327.77272727272725)"><line stroke="#000" x2="6"></line><text fill="#000" x="9" dy="0.32em">0</text></g><g class="tick" opacity="1" transform="translate(0,298.0206611570248)"><line stroke="#000" x2="6"></line><text fill="#000" x="9" dy="0.32em">0.1</text></g><g class="tick" opacity="1" transform="translate(0,268.2685950413223)"><line stroke="#000" x2="6"></line><text fill="#000" x="9" dy="0.32em">0.2</text></g><g class="tick" opacity="1" transform="translate(0,238.51652892561984)"><line stroke="#000" x2="6"></line><text fill="#000" x="9" dy="0.32em">0.3</text></g><g class="tick" opacity="1" transform="translate(0,208.76446280991738)"><line stroke="#000" x2="6"></line><text fill="#000" x="9" dy="0.32em">0.4</text></g><g class="tick" opacity="1" transform="translate(0,179.0123966942149)"><line stroke="#000" x2="6"></line><text fill="#000" x="9" dy="0.32em">0.5</text></g><g class="tick" opacity="1" transform="translate(0,149.26033057851242)"><line stroke="#000" x2="6"></line><text fill="#000" x="9" dy="0.32em">0.6</text></g><g class="tick" opacity="1" transform="translate(0,119.50826446280996)"><line stroke="#000" x2="6"></line><text fill="#000" x="9" dy="0.32em">0.7</text></g><g class="tick" opacity="1" transform="translate(0,89.75619834710744)"><line stroke="#000" x2="6"></line><text fill="#000" x="9" dy="0.32em">0.8</text></g><g class="tick" opacity="1" transform="translate(0,60.00413223140498)"><line stroke="#000" x2="6"></line><text fill="#000" x="9" dy="0.32em">0.9</text></g><g class="tick" opacity="1" transform="translate(0,30.25206611570252)"><line stroke="#000" x2="6"></line><text fill="#000" x="9" dy="0.32em">1</text></g><g class="tick" opacity="1" transform="translate(0,0.5)"><line stroke="#000" x2="6"></line><text fill="#000" x="9" dy="0.32em">1.1</text></g><text text-anchor="start" x="10" y="10" visibility="hidden" style="font-size: 12px; font-family: Arial; fill: #807dba;">No disease causing germline SNPs known!</text></g><circle cx="636" cy="15" r="10" class="compassNav" style="fill: #ffffff; stroke: #666666; stroke-width: 1px;"></circle><path d="M440.935 12.574l3.966 82.766C399.416 41.904 331.674 8 256 8 134.813 8 33.933 94.924 12.296 209.824 10.908 217.193 16.604 224 24.103 224h49.084c5.57 0 10.377-3.842 11.676-9.259C103.407 137.408 172.931 80 256 80c60.893 0 114.512 30.856 146.104 77.801l-101.53-4.865c-6.845-.328-12.574 5.133-12.574 11.986v47.411c0 6.627 5.373 12 12 12h200.333c6.627 0 12-5.373 12-12V12c0-6.627-5.373-12-12-12h-47.411c-6.853 0-12.315 5.729-11.987 12.574zM256 432c-60.895 0-114.517-30.858-146.109-77.805l101.868 4.871c6.845.327 12.573-5.134 12.573-11.986v-47.412c0-6.627-5.373-12-12-12H12c-6.627 0-12 5.373-12 12V500c0 6.627 5.373 12 12 12h47.385c6.863 0 12.328-5.745 11.985-12.599l-4.129-82.575C112.725 470.166 180.405 504 256 504c121.187 0 222.067-86.924 243.704-201.824 1.388-7.369-4.308-14.176-11.807-14.176h-49.084c-5.57 0-10.377 3.842-11.676 9.259C408.593 374.592 339.069 432 256 432z" class="compassNav" transform="translate(631, 10) scale(0.02)" style="fill: #666666; stroke: #666666; stroke-width: 1px;"></path><circle cx="658" cy="15" r="10" class="compassNav" style="fill: #ffffff; stroke: #666666; stroke-width: 1px;"></circle><line class="compassNav" stroke-width="2" stroke="#666666" x1="654" y1="15" x2="662" y2="15"></line><line class="compassNav" stroke-width="2" stroke="#666666" x1="658" y1="11" x2="658" y2="19"></line><circle cx="614" cy="15" r="10" class="compassNav" style="fill: #ffffff; stroke: #666666; stroke-width: 1px;"></circle><line class="compassNav" stroke-width="2" stroke="#666666" x1="610" y1="15" x2="618" y2="15"></line><path d="M582 14 l20 -12 a100,40 0 0,0 0,24z" class="compassNav" style="fill: #ffffff; stroke: #666666; stroke-width: 1px;"></path><path d="M690 14 l-20 -12 a100,40 0 0,1 0,24z" class="compassNav" style="fill: #ffffff; stroke: #666666; stroke-width: 1px;"></path><path d="M216 0h80c13.3 0 24 10.7 24 24v168h87.7c17.8 0 26.7 21.5 14.1 34.1L269.7 378.3c-7.5 7.5-19.8 7.5-27.3 0L90.1 226.1c-12.6-12.6-3.7-34.1 14.1-34.1H192V24c0-13.3 10.7-24 24-24zm296 376v112c0 13.3-10.7 24-24 24H24c-13.3 0-24-10.7-24-24V376c0-13.3 10.7-24 24-24h146.7l49 49c20.1 20.1 52.5 20.1 72.6 0l49-49H488c13.3 0 24 10.7 24 24zm-124 88c0-11-9-20-20-20s-20 9-20 20 9 20 20 20 20-9 20-20zm64 0c0-11-9-20-20-20s-20 9-20 20 9 20 20 20 20-9 20-20z" class="compassNav" transform="translate(552,0) scale(0.05)" style="fill: #336699; stroke: #336699; stroke-width: 1px; cursor: pointer;"></path></g></svg>