<svg width="800" height="400" style="background-color: white;"><g transform="translate(50,0)"><svg width="700" height="360"><g style="-webkit-tap-highlight-color: rgba(0, 0, 0, 0);"><rect width="700" height="360" style="fill: #ffffff;"></rect><g id="lines"><line class="line" stroke-width="1" stroke="#d7301f" x1="-346.5686274509804" y1="333" x2="-346.5686274509804" y2="360" visibility="hidden" style="stroke-dasharray: 3px, 3px;"></line></g><g><rect x="-351.5686274509804" y="355" width="10" height="10" visibility="hidden" style="fill: #ffffff; stroke: #d7301f;"></rect></g><g id="lines"><line class="line" stroke-width="1" stroke="#6a51a3" x1="336.2745098039216" y1="333" x2="336.2745098039216" y2="327.27272727272725" visibility="hidden" style="stroke-dasharray: 3px, 3px;"></line><line class="line" stroke-width="1" stroke="#6a51a3" x1="284.80392156862746" y1="333" x2="284.80392156862746" y2="327.27272727272725" visibility="hidden" style="stroke-dasharray: 3px, 3px;"></line><line class="line" stroke-width="1" stroke="#6a51a3" x1="178.43137254901958" y1="333" x2="178.43137254901958" y2="200.82644628099172" visibility="hidden" style="stroke-dasharray: 3px, 3px;"></line><line class="line" stroke-width="1" stroke="#6a51a3" x1="621.078431372549" y1="333" x2="621.078431372549" y2="327.27272727272725" visibility="hidden" style="stroke-dasharray: 3px, 3px;"></line><line class="line" stroke-width="1" stroke="#6a51a3" x1="459.80392156862746" y1="333" x2="459.80392156862746" y2="327.27272727272725" visibility="hidden" style="stroke-dasharray: 3px, 3px;"></line><line class="line" stroke-width="1" stroke="#6a51a3" x1="130.3921568627451" y1="333" x2="130.3921568627451" y2="276.6942148760331" visibility="hidden" style="stroke-dasharray: 3px, 3px;"></line><line class="line" stroke-width="1" stroke="#6a51a3" x1="514.7058823529412" y1="333" x2="514.7058823529412" y2="29.752066115702462" visibility="hidden" style="stroke-dasharray: 3px, 3px;"></line><line class="line" stroke-width="1" stroke="#6a51a3" x1="463.2352941176471" y1="333" x2="463.2352941176471" y2="212.72727272727275" visibility="hidden" style="stroke-dasharray: 3px, 3px;"></line><line class="line" stroke-width="1" stroke="#6a51a3" x1="476.9607843137255" y1="333" x2="476.9607843137255" y2="327.27272727272725" visibility="hidden" style="stroke-dasharray: 3px, 3px;"></line><line class="line" stroke-width="1" stroke="#6a51a3" x1="432.3529411764706" y1="333" x2="432.3529411764706" y2="327.27272727272725" visibility="hidden" style="stroke-dasharray: 3px, 3px;"></line></g><g><rect x="331.2745098039216" y="322.27272727272725" width="10" height="10" visibility="hidden" style="fill: #ffffff; stroke: #6a51a3;"></rect><rect x="279.80392156862746" y="322.27272727272725" width="10" height="10" visibility="hidden" style="fill: #ffffff; stroke: #6a51a3;"></rect><rect x="173.43137254901958" y="195.82644628099172" width="10" height="10" visibility="hidden" style="fill: #ffffff; stroke: #6a51a3;"></rect><rect x="616.078431372549" y="322.27272727272725" width="10" height="10" visibility="hidden" style="fill: #ffffff; stroke: #6a51a3;"></rect><rect x="454.80392156862746" y="322.27272727272725" width="10" height="10" visibility="hidden" style="fill: #ffffff; stroke: #6a51a3;"></rect><rect x="125.39215686274511" y="271.6942148760331" width="10" height="10" visibility="hidden" style="fill: #ffffff; stroke: #6a51a3;"></rect><rect x="509.7058823529412" y="24.752066115702462" width="10" height="10" visibility="hidden" style="fill: #ffffff; stroke: #6a51a3;"></rect><rect x="458.2352941176471" y="207.72727272727275" width="10" height="10" visibility="hidden" style="fill: #ffffff; stroke: #6a51a3;"></rect><rect x="471.9607843137255" y="322.27272727272725" width="10" height="10" visibility="hidden" style="fill: #ffffff; stroke: #6a51a3;"></rect><rect x="427.3529411764706" y="322.27272727272725" width="10" height="10" visibility="hidden" style="fill: #ffffff; stroke: #6a51a3;"></rect></g><g id="lines"><line class="line" stroke-width="1" stroke="#666666" x1="13.72549019607843" y1="333" x2="13.72549019607843" y2="326.59190196115514"></line><line class="line" stroke-width="1" stroke="#666666" x1="27.45098039215686" y1="333" x2="27.45098039215686" y2="321.82612478015017"></line><line class="line" stroke-width="1" stroke="#666666" x1="37.74509803921569" y1="333" x2="37.74509803921569" y2="323.18777540329444"></line><line class="line" stroke-width="1" stroke="#666666" x1="41.1764705882353" y1="333" x2="41.1764705882353" y2="323.18777540329444"></line><line class="line" stroke-width="1" stroke="#666666" x1="48.03921568627452" y1="333" x2="48.03921568627452" y2="231.9571836526278"></line><line class="line" stroke-width="1" stroke="#666666" x1="75.49019607843138" y1="333" x2="75.49019607843138" y2="320.4644741570059"></line><line class="line" stroke-width="1" stroke="#666666" x1="85.7843137254902" y1="333" x2="85.7843137254902" y2="325.2302513380109"></line><line class="line" stroke-width="1" stroke="#666666" x1="123.52941176470588" y1="333" x2="123.52941176470588" y2="325.911076649583"></line><line class="line" stroke-width="1" stroke="#666666" x1="181.86274509803923" y1="333" x2="181.86274509803923" y2="324.5494260264387"></line><line class="line" stroke-width="1" stroke="#666666" x1="188.72549019607843" y1="333" x2="188.72549019607843" y2="326.59190196115514"></line><line class="line" stroke-width="1" stroke="#666666" x1="219.6078431372549" y1="333" x2="219.6078431372549" y2="312.9753957297124"></line><line class="line" stroke-width="1" stroke="#666666" x1="247.05882352941177" y1="333" x2="247.05882352941177" y2="318.42199822228946"></line><line class="line" stroke-width="1" stroke="#666666" x1="250.49019607843138" y1="333" x2="250.49019607843138" y2="323.18777540329444"></line><line class="line" stroke-width="1" stroke="#666666" x1="264.2156862745098" y1="333" x2="264.2156862745098" y2="274.84917828167255"></line><line class="line" stroke-width="1" stroke="#666666" x1="277.94117647058823" y1="333" x2="277.94117647058823" y2="29.752066115702462"></line><line class="line" stroke-width="1" stroke="#666666" x1="281.37254901960785" y1="333" x2="281.37254901960785" y2="302.08219074455815"></line><line class="line" stroke-width="1" stroke="#666666" x1="291.6666666666667" y1="333" x2="291.6666666666667" y2="317.0603475991452"></line><line class="line" stroke-width="1" stroke="#666666" x1="301.9607843137255" y1="333" x2="301.9607843137255" y2="325.911076649583"></line><line class="line" stroke-width="1" stroke="#666666" x1="308.8235294117647" y1="333" x2="308.8235294117647" y2="326.59190196115514"></line><line class="line" stroke-width="1" stroke="#666666" x1="332.84313725490193" y1="333" x2="332.84313725490193" y2="321.145299468578"></line><line class="line" stroke-width="1" stroke="#666666" x1="380.88235294117646" y1="333" x2="380.88235294117646" y2="302.76301605613025"></line><line class="line" stroke-width="1" stroke="#666666" x1="384.31372549019613" y1="333" x2="384.31372549019613" y2="325.2302513380109"></line><line class="line" stroke-width="1" stroke="#666666" x1="387.7450980392157" y1="333" x2="387.7450980392157" y2="295.95476294040884"></line><line class="line" stroke-width="1" stroke="#666666" x1="387.7450980392157" y1="333" x2="387.7450980392157" y2="326.59190196115514"></line><line class="line" stroke-width="1" stroke="#666666" x1="411.7647058823529" y1="333" x2="411.7647058823529" y2="325.2302513380109"></line><line class="line" stroke-width="1" stroke="#666666" x1="418.62745098039215" y1="333" x2="418.62745098039215" y2="319.78364884543373"></line><line class="line" stroke-width="1" stroke="#666666" x1="418.62745098039215" y1="333" x2="418.62745098039215" y2="317.0603475991452"></line><line class="line" stroke-width="1" stroke="#666666" x1="452.94117647058823" y1="333" x2="452.94117647058823" y2="309.57126917185167"></line><line class="line" stroke-width="1" stroke="#666666" x1="459.80392156862746" y1="333" x2="459.80392156862746" y2="323.18777540329444"></line><line class="line" stroke-width="1" stroke="#666666" x1="473.5294117647059" y1="333" x2="473.5294117647059" y2="323.8686007148666"></line><line class="line" stroke-width="1" stroke="#666666" x1="480.3921568627451" y1="333" x2="480.3921568627451" y2="326.59190196115514"></line><line class="line" stroke-width="1" stroke="#666666" x1="483.8235294117647" y1="333" x2="483.8235294117647" y2="325.2302513380109"></line><line class="line" stroke-width="1" stroke="#666666" x1="487.2549019607843" y1="333" x2="487.2549019607843" y2="316.3795222875731"></line><line class="line" stroke-width="1" stroke="#666666" x1="552.4509803921568" y1="333" x2="552.4509803921568" y2="326.59190196115514"></line><line class="line" stroke-width="1" stroke="#666666" x1="559.3137254901961" y1="333" x2="559.3137254901961" y2="326.59190196115514"></line><line class="line" stroke-width="1" stroke="#666666" x1="593.6274509803922" y1="333" x2="593.6274509803922" y2="321.145299468578"></line><line class="line" stroke-width="1" stroke="#666666" x1="600.4901960784314" y1="333" x2="600.4901960784314" y2="321.145299468578"></line><line class="line" stroke-width="1" stroke="#666666" x1="614.2156862745098" y1="333" x2="614.2156862745098" y2="326.59190196115514"></line><line class="line" stroke-width="1" stroke="#666666" x1="627.9411764705883" y1="333" x2="627.9411764705883" y2="325.2302513380109"></line><line class="line" stroke-width="1" stroke="#666666" x1="638.2352941176471" y1="333" x2="638.2352941176471" y2="325.2302513380109"></line><line class="line" stroke-width="1" stroke="#666666" x1="675.9803921568628" y1="333" x2="675.9803921568628" y2="291.869811070976"></line><line class="line" stroke-width="1" stroke="#666666" x1="675.9803921568628" y1="333" x2="675.9803921568628" y2="325.911076649583"></line><line class="line" stroke-width="1" stroke="#666666" x1="679.4117647058823" y1="333" x2="679.4117647058823" y2="312.2945704181402"></line><line class="line" stroke-width="1" stroke="#666666" x1="689.7058823529412" y1="333" x2="689.7058823529412" y2="325.2302513380109"></line><line class="line" stroke-width="1" stroke="#666666" x1="700" y1="333" x2="700" y2="291.1889857594039"></line><line class="line" stroke-width="1" stroke="#666666" x1="700" y1="333" x2="700" y2="324.5494260264387"></line></g><g id="circles"><circle r="4" cx="13.72549019607843" cy="326.59190196115514" style="fill: #666666; stroke: #666666; stroke-width: 1px;"></circle><circle r="4" cx="27.45098039215686" cy="321.82612478015017" style="fill: #4393c3; stroke: #666666; stroke-width: 1px;"></circle><circle r="4" cx="37.74509803921569" cy="323.18777540329444" style="fill: #666666; stroke: #666666; stroke-width: 1px;"></circle><circle r="4" cx="41.1764705882353" cy="323.18777540329444" style="fill: #4393c3; stroke: #666666; stroke-width: 1px;"></circle><circle r="4" cx="48.03921568627452" cy="231.9571836526278" style="fill: #4393c3; stroke: #666666; stroke-width: 1px;"></circle><circle r="4" cx="75.49019607843138" cy="320.4644741570059" style="fill: #4393c3; stroke: #666666; stroke-width: 1px;"></circle><circle r="4" cx="85.7843137254902" cy="325.2302513380109" style="fill: #4393c3; stroke: #666666; stroke-width: 1px;"></circle><circle r="4" cx="123.52941176470588" cy="325.911076649583" style="fill: #666666; stroke: #666666; stroke-width: 1px;"></circle><circle r="4" cx="181.86274509803923" cy="324.5494260264387" style="fill: #4393c3; stroke: #666666; stroke-width: 1px;"></circle><circle r="4" cx="188.72549019607843" cy="326.59190196115514" style="fill: #666666; stroke: #666666; stroke-width: 1px;"></circle><circle r="4" cx="219.6078431372549" cy="312.9753957297124" style="fill: #4393c3; stroke: #666666; stroke-width: 1px;"></circle><circle r="4" cx="247.05882352941177" cy="318.42199822228946" style="fill: #4393c3; stroke: #666666; stroke-width: 1px;"></circle><circle r="4" cx="250.49019607843138" cy="323.18777540329444" style="fill: #4393c3; stroke: #666666; stroke-width: 1px;"></circle><circle r="4" cx="264.2156862745098" cy="274.84917828167255" style="fill: #4393c3; stroke: #666666; stroke-width: 1px;"></circle><circle r="4" cx="277.94117647058823" cy="29.752066115702462" style="fill: #4393c3; stroke: #666666; stroke-width: 1px;"></circle><circle r="4" cx="281.37254901960785" cy="302.08219074455815" style="fill: #4393c3; stroke: #666666; stroke-width: 1px;"></circle><circle r="4" cx="291.6666666666667" cy="317.0603475991452" style="fill: #4393c3; stroke: #666666; stroke-width: 1px;"></circle><circle r="4" cx="301.9607843137255" cy="325.911076649583" style="fill: #666666; stroke: #666666; stroke-width: 1px;"></circle><circle r="4" cx="308.8235294117647" cy="326.59190196115514" style="fill: #4393c3; stroke: #666666; stroke-width: 1px;"></circle><circle r="4" cx="332.84313725490193" cy="321.145299468578" style="fill: #4393c3; stroke: #666666; stroke-width: 1px;"></circle><circle r="4" cx="380.88235294117646" cy="302.76301605613025" style="fill: #bf812d; stroke: #666666; stroke-width: 1px;"></circle><circle r="4" cx="384.31372549019613" cy="325.2302513380109" style="fill: #4393c3; stroke: #666666; stroke-width: 1px;"></circle><circle r="4" cx="387.7450980392157" cy="295.95476294040884" style="fill: #bf812d; stroke: #666666; stroke-width: 1px;"></circle><circle r="4" cx="387.7450980392157" cy="326.59190196115514" style="fill: #666666; stroke: #666666; stroke-width: 1px;"></circle><circle r="4" cx="411.7647058823529" cy="325.2302513380109" style="fill: #4393c3; stroke: #666666; stroke-width: 1px;"></circle><circle r="4" cx="418.62745098039215" cy="319.78364884543373" style="fill: #5aae61; stroke: #666666; stroke-width: 1px;"></circle><circle r="4" cx="418.62745098039215" cy="317.0603475991452" style="fill: #bf812d; stroke: #666666; stroke-width: 1px;"></circle><circle r="4" cx="452.94117647058823" cy="309.57126917185167" style="fill: #4393c3; stroke: #666666; stroke-width: 1px;"></circle><circle r="4" cx="459.80392156862746" cy="323.18777540329444" style="fill: #4393c3; stroke: #666666; stroke-width: 1px;"></circle><circle r="4" cx="473.5294117647059" cy="323.8686007148666" style="fill: #4393c3; stroke: #666666; stroke-width: 1px;"></circle><circle r="4" cx="480.3921568627451" cy="326.59190196115514" style="fill: #bf812d; stroke: #666666; stroke-width: 1px;"></circle><circle r="4" cx="483.8235294117647" cy="325.2302513380109" style="fill: #4393c3; stroke: #666666; stroke-width: 1px;"></circle><circle r="4" cx="487.2549019607843" cy="316.3795222875731" style="fill: #4393c3; stroke: #666666; stroke-width: 1px;"></circle><circle r="4" cx="552.4509803921568" cy="326.59190196115514" style="fill: #4393c3; stroke: #666666; stroke-width: 1px;"></circle><circle r="4" cx="559.3137254901961" cy="326.59190196115514" style="fill: #4393c3; stroke: #666666; stroke-width: 1px;"></circle><circle r="4" cx="593.6274509803922" cy="321.145299468578" style="fill: #4393c3; stroke: #666666; stroke-width: 1px;"></circle><circle r="4" cx="600.4901960784314" cy="321.145299468578" style="fill: #4393c3; stroke: #666666; stroke-width: 1px;"></circle><circle r="4" cx="614.2156862745098" cy="326.59190196115514" style="fill: #4393c3; stroke: #666666; stroke-width: 1px;"></circle><circle r="4" cx="627.9411764705883" cy="325.2302513380109" style="fill: #4393c3; stroke: #666666; stroke-width: 1px;"></circle><circle r="4" cx="638.2352941176471" cy="325.2302513380109" style="fill: #4393c3; stroke: #666666; stroke-width: 1px;"></circle><circle r="4" cx="675.9803921568628" cy="291.869811070976" style="fill: #bf812d; stroke: #666666; stroke-width: 1px;"></circle><circle r="4" cx="675.9803921568628" cy="325.911076649583" style="fill: #666666; stroke: #666666; stroke-width: 1px;"></circle><circle r="4" cx="679.4117647058823" cy="312.2945704181402" style="fill: #4393c3; stroke: #666666; stroke-width: 1px;"></circle><circle r="4" cx="689.7058823529412" cy="325.2302513380109" style="fill: #4393c3; stroke: #666666; stroke-width: 1px;"></circle><circle r="4" cx="700" cy="291.1889857594039" style="fill: #5aae61; stroke: #666666; stroke-width: 1px;"></circle><circle r="4" cx="700" cy="324.5494260264387" style="fill: #bf812d; stroke: #666666; stroke-width: 1px;"></circle></g><g><rect x="0" y="333" width="700" height="12" style="fill: #ffffff; stroke-width: 1px; stroke: #666666;"></rect><rect x="295.0980392156863" y="333" width="332.843137254902" height="12" style="fill: #aec7e8; stroke-width: 1px; stroke: #666666;"></rect></g><g><a target="_blank" xlink:href="http://pfam.xfam.org/family/"><text y="343" x="350" text-anchor="middle" style="color: rgb(102, 102, 102); font-weight: normal; font-size: 12px; font-family: Arial; cursor: pointer;"></text></a><a target="_blank" xlink:href="http://pfam.xfam.org/family/HSP20"><text y="343" x="461.5196078431373" text-anchor="middle" style="color: rgb(102, 102, 102); font-weight: normal; font-size: 12px; font-family: Arial; cursor: pointer;">HSP20</text></a></g><g><text y="358" x="0" text-anchor="middle" visibility="hidden" style="font-size: 13px;">M</text><text y="358" x="3.4313725490196076" text-anchor="middle" visibility="hidden" style="font-size: 13px;">T</text><text y="358" x="6.862745098039215" text-anchor="middle" visibility="hidden" style="font-size: 13px;">E</text><text y="358" x="10.294117647058824" text-anchor="middle" visibility="hidden" style="font-size: 13px;">R</text><text y="358" x="13.72549019607843" text-anchor="middle" visibility="hidden" style="font-size: 13px;">R</text><text y="358" x="17.15686274509804" text-anchor="middle" visibility="hidden" style="font-size: 13px;">V</text><text y="358" x="20.58823529411765" text-anchor="middle" visibility="hidden" style="font-size: 13px;">P</text><text y="358" x="24.01960784313726" text-anchor="middle" visibility="hidden" style="font-size: 13px;">F</text><text y="358" x="27.45098039215686" text-anchor="middle" visibility="hidden" style="font-size: 13px;">S</text><text y="358" x="30.88235294117647" text-anchor="middle" visibility="hidden" style="font-size: 13px;">L</text><text y="358" x="34.31372549019608" text-anchor="middle" visibility="hidden" style="font-size: 13px;">L</text><text y="358" x="37.74509803921569" text-anchor="middle" visibility="hidden" style="font-size: 13px;">R</text><text y="358" x="41.1764705882353" text-anchor="middle" visibility="hidden" style="font-size: 13px;">G</text><text y="358" x="44.607843137254896" text-anchor="middle" visibility="hidden" style="font-size: 13px;">P</text><text y="358" x="48.03921568627452" text-anchor="middle" visibility="hidden" style="font-size: 13px;">S</text><text y="358" x="51.470588235294116" text-anchor="middle" visibility="hidden" style="font-size: 13px;">W</text><text y="358" x="54.90196078431372" text-anchor="middle" visibility="hidden" style="font-size: 13px;">D</text><text y="358" x="58.33333333333333" text-anchor="middle" visibility="hidden" style="font-size: 13px;">P</text><text y="358" x="61.76470588235294" text-anchor="middle" visibility="hidden" style="font-size: 13px;">F</text><text y="358" x="65.19607843137256" text-anchor="middle" visibility="hidden" style="font-size: 13px;">R</text><text y="358" x="68.62745098039215" text-anchor="middle" visibility="hidden" style="font-size: 13px;">D</text><text y="358" x="72.05882352941177" text-anchor="middle" visibility="hidden" style="font-size: 13px;">W</text><text y="358" x="75.49019607843138" text-anchor="middle" visibility="hidden" style="font-size: 13px;">Y</text><text y="358" x="78.92156862745098" text-anchor="middle" visibility="hidden" style="font-size: 13px;">P</text><text y="358" x="82.3529411764706" text-anchor="middle" visibility="hidden" style="font-size: 13px;">H</text><text y="358" x="85.7843137254902" text-anchor="middle" visibility="hidden" style="font-size: 13px;">S</text><text y="358" x="89.21568627450979" text-anchor="middle" visibility="hidden" style="font-size: 13px;">R</text><text y="358" x="92.6470588235294" text-anchor="middle" visibility="hidden" style="font-size: 13px;">L</text><text y="358" x="96.07843137254903" text-anchor="middle" visibility="hidden" style="font-size: 13px;">F</text><text y="358" x="99.50980392156862" text-anchor="middle" visibility="hidden" style="font-size: 13px;">D</text><text y="358" x="102.94117647058823" text-anchor="middle" visibility="hidden" style="font-size: 13px;">Q</text><text y="358" x="106.37254901960783" text-anchor="middle" visibility="hidden" style="font-size: 13px;">A</text><text y="358" x="109.80392156862744" text-anchor="middle" visibility="hidden" style="font-size: 13px;">F</text><text y="358" x="113.23529411764706" text-anchor="middle" visibility="hidden" style="font-size: 13px;">G</text><text y="358" x="116.66666666666666" text-anchor="middle" visibility="hidden" style="font-size: 13px;">L</text><text y="358" x="120.09803921568627" text-anchor="middle" visibility="hidden" style="font-size: 13px;">P</text><text y="358" x="123.52941176470588" text-anchor="middle" visibility="hidden" style="font-size: 13px;">R</text><text y="358" x="126.96078431372548" text-anchor="middle" visibility="hidden" style="font-size: 13px;">L</text><text y="358" x="130.3921568627451" text-anchor="middle" visibility="hidden" style="font-size: 13px;">P</text><text y="358" x="133.8235294117647" text-anchor="middle" visibility="hidden" style="font-size: 13px;">E</text><text y="358" x="137.2549019607843" text-anchor="middle" visibility="hidden" style="font-size: 13px;">E</text><text y="358" x="140.68627450980392" text-anchor="middle" visibility="hidden" style="font-size: 13px;">W</text><text y="358" x="144.11764705882354" text-anchor="middle" visibility="hidden" style="font-size: 13px;">S</text><text y="358" x="147.54901960784315" text-anchor="middle" visibility="hidden" style="font-size: 13px;">Q</text><text y="358" x="150.98039215686276" text-anchor="middle" visibility="hidden" style="font-size: 13px;">W</text><text y="358" x="154.41176470588235" text-anchor="middle" visibility="hidden" style="font-size: 13px;">L</text><text y="358" x="157.84313725490196" text-anchor="middle" visibility="hidden" style="font-size: 13px;">G</text><text y="358" x="161.27450980392155" text-anchor="middle" visibility="hidden" style="font-size: 13px;">G</text><text y="358" x="164.7058823529412" text-anchor="middle" visibility="hidden" style="font-size: 13px;">S</text><text y="358" x="168.1372549019608" text-anchor="middle" visibility="hidden" style="font-size: 13px;">S</text><text y="358" x="171.5686274509804" text-anchor="middle" visibility="hidden" style="font-size: 13px;">W</text><text y="358" x="175" text-anchor="middle" visibility="hidden" style="font-size: 13px;">P</text><text y="358" x="178.43137254901958" text-anchor="middle" visibility="hidden" style="font-size: 13px;">G</text><text y="358" x="181.86274509803923" text-anchor="middle" visibility="hidden" style="font-size: 13px;">Y</text><text y="358" x="185.2941176470588" text-anchor="middle" visibility="hidden" style="font-size: 13px;">V</text><text y="358" x="188.72549019607843" text-anchor="middle" visibility="hidden" style="font-size: 13px;">R</text><text y="358" x="192.15686274509807" text-anchor="middle" visibility="hidden" style="font-size: 13px;">P</text><text y="358" x="195.58823529411765" text-anchor="middle" visibility="hidden" style="font-size: 13px;">L</text><text y="358" x="199.01960784313724" text-anchor="middle" visibility="hidden" style="font-size: 13px;">P</text><text y="358" x="202.45098039215688" text-anchor="middle" visibility="hidden" style="font-size: 13px;">P</text><text y="358" x="205.88235294117646" text-anchor="middle" visibility="hidden" style="font-size: 13px;">A</text><text y="358" x="209.31372549019608" text-anchor="middle" visibility="hidden" style="font-size: 13px;">A</text><text y="358" x="212.74509803921566" text-anchor="middle" visibility="hidden" style="font-size: 13px;">I</text><text y="358" x="216.1764705882353" text-anchor="middle" visibility="hidden" style="font-size: 13px;">E</text><text y="358" x="219.6078431372549" text-anchor="middle" visibility="hidden" style="font-size: 13px;">S</text><text y="358" x="223.0392156862745" text-anchor="middle" visibility="hidden" style="font-size: 13px;">P</text><text y="358" x="226.47058823529412" text-anchor="middle" visibility="hidden" style="font-size: 13px;">A</text><text y="358" x="229.90196078431373" text-anchor="middle" visibility="hidden" style="font-size: 13px;">V</text><text y="358" x="233.33333333333331" text-anchor="middle" visibility="hidden" style="font-size: 13px;">A</text><text y="358" x="236.76470588235296" text-anchor="middle" visibility="hidden" style="font-size: 13px;">A</text><text y="358" x="240.19607843137254" text-anchor="middle" visibility="hidden" style="font-size: 13px;">P</text><text y="358" x="243.62745098039215" text-anchor="middle" visibility="hidden" style="font-size: 13px;">A</text><text y="358" x="247.05882352941177" text-anchor="middle" visibility="hidden" style="font-size: 13px;">Y</text><text y="358" x="250.49019607843138" text-anchor="middle" visibility="hidden" style="font-size: 13px;">S</text><text y="358" x="253.92156862745097" text-anchor="middle" visibility="hidden" style="font-size: 13px;">R</text><text y="358" x="257.3529411764706" text-anchor="middle" visibility="hidden" style="font-size: 13px;">A</text><text y="358" x="260.7843137254902" text-anchor="middle" visibility="hidden" style="font-size: 13px;">L</text><text y="358" x="264.2156862745098" text-anchor="middle" visibility="hidden" style="font-size: 13px;">S</text><text y="358" x="267.6470588235294" text-anchor="middle" visibility="hidden" style="font-size: 13px;">R</text><text y="358" x="271.078431372549" text-anchor="middle" visibility="hidden" style="font-size: 13px;">Q</text><text y="358" x="274.5098039215686" text-anchor="middle" visibility="hidden" style="font-size: 13px;">L</text><text y="358" x="277.94117647058823" text-anchor="middle" visibility="hidden" style="font-size: 13px;">S</text><text y="358" x="281.37254901960785" text-anchor="middle" visibility="hidden" style="font-size: 13px;">S</text><text y="358" x="284.80392156862746" text-anchor="middle" visibility="hidden" style="font-size: 13px;">G</text><text y="358" x="288.2352941176471" text-anchor="middle" visibility="hidden" style="font-size: 13px;">V</text><text y="358" x="291.6666666666667" text-anchor="middle" visibility="hidden" style="font-size: 13px;">S</text><text y="358" x="295.0980392156863" text-anchor="middle" visibility="hidden" style="font-size: 13px;">E</text><text y="358" x="298.52941176470586" text-anchor="middle" visibility="hidden" style="font-size: 13px;">I</text><text y="358" x="301.9607843137255" text-anchor="middle" visibility="hidden" style="font-size: 13px;">R</text><text y="358" x="305.3921568627451" text-anchor="middle" visibility="hidden" style="font-size: 13px;">H</text><text y="358" x="308.8235294117647" text-anchor="middle" visibility="hidden" style="font-size: 13px;">T</text><text y="358" x="312.2549019607843" text-anchor="middle" visibility="hidden" style="font-size: 13px;">A</text><text y="358" x="315.6862745098039" text-anchor="middle" visibility="hidden" style="font-size: 13px;">D</text><text y="358" x="319.11764705882354" text-anchor="middle" visibility="hidden" style="font-size: 13px;">R</text><text y="358" x="322.5490196078431" text-anchor="middle" visibility="hidden" style="font-size: 13px;">W</text><text y="358" x="325.98039215686276" text-anchor="middle" visibility="hidden" style="font-size: 13px;">R</text><text y="358" x="329.4117647058824" text-anchor="middle" visibility="hidden" style="font-size: 13px;">V</text><text y="358" x="332.84313725490193" text-anchor="middle" visibility="hidden" style="font-size: 13px;">S</text><text y="358" x="336.2745098039216" text-anchor="middle" visibility="hidden" style="font-size: 13px;">L</text><text y="358" x="339.70588235294116" text-anchor="middle" visibility="hidden" style="font-size: 13px;">D</text><text y="358" x="343.1372549019608" text-anchor="middle" visibility="hidden" style="font-size: 13px;">V</text><text y="358" x="346.5686274509804" text-anchor="middle" visibility="hidden" style="font-size: 13px;">N</text><text y="358" x="350" text-anchor="middle" visibility="hidden" style="font-size: 13px;">H</text><text y="358" x="353.4313725490196" text-anchor="middle" visibility="hidden" style="font-size: 13px;">F</text><text y="358" x="356.86274509803917" text-anchor="middle" visibility="hidden" style="font-size: 13px;">A</text><text y="358" x="360.2941176470588" text-anchor="middle" visibility="hidden" style="font-size: 13px;">P</text><text y="358" x="363.72549019607845" text-anchor="middle" visibility="hidden" style="font-size: 13px;">D</text><text y="358" x="367.15686274509807" text-anchor="middle" visibility="hidden" style="font-size: 13px;">E</text><text y="358" x="370.5882352941176" text-anchor="middle" visibility="hidden" style="font-size: 13px;">L</text><text y="358" x="374.01960784313724" text-anchor="middle" visibility="hidden" style="font-size: 13px;">T</text><text y="358" x="377.45098039215685" text-anchor="middle" visibility="hidden" style="font-size: 13px;">V</text><text y="358" x="380.88235294117646" text-anchor="middle" visibility="hidden" style="font-size: 13px;">K</text><text y="358" x="384.31372549019613" text-anchor="middle" visibility="hidden" style="font-size: 13px;">T</text><text y="358" x="387.7450980392157" text-anchor="middle" visibility="hidden" style="font-size: 13px;">K</text><text y="358" x="391.1764705882353" text-anchor="middle" visibility="hidden" style="font-size: 13px;">D</text><text y="358" x="394.6078431372549" text-anchor="middle" visibility="hidden" style="font-size: 13px;">G</text><text y="358" x="398.0392156862745" text-anchor="middle" visibility="hidden" style="font-size: 13px;">V</text><text y="358" x="401.4705882352941" text-anchor="middle" visibility="hidden" style="font-size: 13px;">V</text><text y="358" x="404.90196078431376" text-anchor="middle" visibility="hidden" style="font-size: 13px;">E</text><text y="358" x="408.33333333333337" text-anchor="middle" visibility="hidden" style="font-size: 13px;">I</text><text y="358" x="411.7647058823529" text-anchor="middle" visibility="hidden" style="font-size: 13px;">T</text><text y="358" x="415.19607843137254" text-anchor="middle" visibility="hidden" style="font-size: 13px;">G</text><text y="358" x="418.62745098039215" text-anchor="middle" visibility="hidden" style="font-size: 13px;">K</text><text y="358" x="422.05882352941177" text-anchor="middle" visibility="hidden" style="font-size: 13px;">H</text><text y="358" x="425.4901960784313" text-anchor="middle" visibility="hidden" style="font-size: 13px;">E</text><text y="358" x="428.921568627451" text-anchor="middle" visibility="hidden" style="font-size: 13px;">E</text><text y="358" x="432.3529411764706" text-anchor="middle" visibility="hidden" style="font-size: 13px;">R</text><text y="358" x="435.7843137254902" text-anchor="middle" visibility="hidden" style="font-size: 13px;">Q</text><text y="358" x="439.2156862745098" text-anchor="middle" visibility="hidden" style="font-size: 13px;">D</text><text y="358" x="442.6470588235294" text-anchor="middle" visibility="hidden" style="font-size: 13px;">E</text><text y="358" x="446.078431372549" text-anchor="middle" visibility="hidden" style="font-size: 13px;">H</text><text y="358" x="449.5098039215687" text-anchor="middle" visibility="hidden" style="font-size: 13px;">G</text><text y="358" x="452.94117647058823" text-anchor="middle" visibility="hidden" style="font-size: 13px;">Y</text><text y="358" x="456.37254901960785" text-anchor="middle" visibility="hidden" style="font-size: 13px;">I</text><text y="358" x="459.80392156862746" text-anchor="middle" visibility="hidden" style="font-size: 13px;">S</text><text y="358" x="463.2352941176471" text-anchor="middle" visibility="hidden" style="font-size: 13px;">R</text><text y="358" x="466.66666666666663" text-anchor="middle" visibility="hidden" style="font-size: 13px;">C</text><text y="358" x="470.09803921568624" text-anchor="middle" visibility="hidden" style="font-size: 13px;">F</text><text y="358" x="473.5294117647059" text-anchor="middle" visibility="hidden" style="font-size: 13px;">T</text><text y="358" x="476.9607843137255" text-anchor="middle" visibility="hidden" style="font-size: 13px;">R</text><text y="358" x="480.3921568627451" text-anchor="middle" visibility="hidden" style="font-size: 13px;">K</text><text y="358" x="483.8235294117647" text-anchor="middle" visibility="hidden" style="font-size: 13px;">Y</text><text y="358" x="487.2549019607843" text-anchor="middle" visibility="hidden" style="font-size: 13px;">T</text><text y="358" x="490.68627450980387" text-anchor="middle" visibility="hidden" style="font-size: 13px;">L</text><text y="358" x="494.11764705882354" text-anchor="middle" visibility="hidden" style="font-size: 13px;">P</text><text y="358" x="497.54901960784315" text-anchor="middle" visibility="hidden" style="font-size: 13px;">P</text><text y="358" x="500.98039215686276" text-anchor="middle" visibility="hidden" style="font-size: 13px;">G</text><text y="358" x="504.4117647058824" text-anchor="middle" visibility="hidden" style="font-size: 13px;">V</text><text y="358" x="507.84313725490193" text-anchor="middle" visibility="hidden" style="font-size: 13px;">D</text><text y="358" x="511.27450980392155" text-anchor="middle" visibility="hidden" style="font-size: 13px;">P</text><text y="358" x="514.7058823529412" text-anchor="middle" visibility="hidden" style="font-size: 13px;">T</text><text y="358" x="518.1372549019608" text-anchor="middle" visibility="hidden" style="font-size: 13px;">Q</text><text y="358" x="521.5686274509804" text-anchor="middle" visibility="hidden" style="font-size: 13px;">V</text><text y="358" x="525" text-anchor="middle" visibility="hidden" style="font-size: 13px;">S</text><text y="358" x="528.4313725490196" text-anchor="middle" visibility="hidden" style="font-size: 13px;">S</text><text y="358" x="531.8627450980392" text-anchor="middle" visibility="hidden" style="font-size: 13px;">S</text><text y="358" x="535.2941176470588" text-anchor="middle" visibility="hidden" style="font-size: 13px;">L</text><text y="358" x="538.7254901960785" text-anchor="middle" visibility="hidden" style="font-size: 13px;">S</text><text y="358" x="542.156862745098" text-anchor="middle" visibility="hidden" style="font-size: 13px;">P</text><text y="358" x="545.5882352941177" text-anchor="middle" visibility="hidden" style="font-size: 13px;">E</text><text y="358" x="549.0196078431372" text-anchor="middle" visibility="hidden" style="font-size: 13px;">G</text><text y="358" x="552.4509803921568" text-anchor="middle" visibility="hidden" style="font-size: 13px;">T</text><text y="358" x="555.8823529411765" text-anchor="middle" visibility="hidden" style="font-size: 13px;">L</text><text y="358" x="559.3137254901961" text-anchor="middle" visibility="hidden" style="font-size: 13px;">T</text><text y="358" x="562.7450980392157" text-anchor="middle" visibility="hidden" style="font-size: 13px;">V</text><text y="358" x="566.1764705882352" text-anchor="middle" visibility="hidden" style="font-size: 13px;">E</text><text y="358" x="569.6078431372549" text-anchor="middle" visibility="hidden" style="font-size: 13px;">A</text><text y="358" x="573.0392156862745" text-anchor="middle" visibility="hidden" style="font-size: 13px;">P</text><text y="358" x="576.4705882352941" text-anchor="middle" visibility="hidden" style="font-size: 13px;">M</text><text y="358" x="579.9019607843138" text-anchor="middle" visibility="hidden" style="font-size: 13px;">P</text><text y="358" x="583.3333333333334" text-anchor="middle" visibility="hidden" style="font-size: 13px;">K</text><text y="358" x="586.7647058823529" text-anchor="middle" visibility="hidden" style="font-size: 13px;">L</text><text y="358" x="590.1960784313726" text-anchor="middle" visibility="hidden" style="font-size: 13px;">A</text><text y="358" x="593.6274509803922" text-anchor="middle" visibility="hidden" style="font-size: 13px;">T</text><text y="358" x="597.0588235294117" text-anchor="middle" visibility="hidden" style="font-size: 13px;">Q</text><text y="358" x="600.4901960784314" text-anchor="middle" visibility="hidden" style="font-size: 13px;">S</text><text y="358" x="603.921568627451" text-anchor="middle" visibility="hidden" style="font-size: 13px;">N</text><text y="358" x="607.3529411764706" text-anchor="middle" visibility="hidden" style="font-size: 13px;">E</text><text y="358" x="610.7843137254902" text-anchor="middle" visibility="hidden" style="font-size: 13px;">I</text><text y="358" x="614.2156862745098" text-anchor="middle" visibility="hidden" style="font-size: 13px;">T</text><text y="358" x="617.6470588235294" text-anchor="middle" visibility="hidden" style="font-size: 13px;">I</text><text y="358" x="621.078431372549" text-anchor="middle" visibility="hidden" style="font-size: 13px;">P</text><text y="358" x="624.5098039215686" text-anchor="middle" visibility="hidden" style="font-size: 13px;">V</text><text y="358" x="627.9411764705883" text-anchor="middle" visibility="hidden" style="font-size: 13px;">T</text><text y="358" x="631.3725490196078" text-anchor="middle" visibility="hidden" style="font-size: 13px;">F</text><text y="358" x="634.8039215686274" text-anchor="middle" visibility="hidden" style="font-size: 13px;">E</text><text y="358" x="638.2352941176471" text-anchor="middle" visibility="hidden" style="font-size: 13px;">S</text><text y="358" x="641.6666666666666" text-anchor="middle" visibility="hidden" style="font-size: 13px;">R</text><text y="358" x="645.0980392156862" text-anchor="middle" visibility="hidden" style="font-size: 13px;">A</text><text y="358" x="648.5294117647059" text-anchor="middle" visibility="hidden" style="font-size: 13px;">Q</text><text y="358" x="651.9607843137255" text-anchor="middle" visibility="hidden" style="font-size: 13px;">L</text><text y="358" x="655.3921568627451" text-anchor="middle" visibility="hidden" style="font-size: 13px;">G</text><text y="358" x="658.8235294117648" text-anchor="middle" visibility="hidden" style="font-size: 13px;">G</text><text y="358" x="662.2549019607843" text-anchor="middle" visibility="hidden" style="font-size: 13px;">P</text><text y="358" x="665.6862745098039" text-anchor="middle" visibility="hidden" style="font-size: 13px;">E</text><text y="358" x="669.1176470588235" text-anchor="middle" visibility="hidden" style="font-size: 13px;">A</text><text y="358" x="672.5490196078432" text-anchor="middle" visibility="hidden" style="font-size: 13px;">A</text><text y="358" x="675.9803921568628" text-anchor="middle" visibility="hidden" style="font-size: 13px;">K</text><text y="358" x="679.4117647058823" text-anchor="middle" visibility="hidden" style="font-size: 13px;">S</text><text y="358" x="682.843137254902" text-anchor="middle" visibility="hidden" style="font-size: 13px;">D</text><text y="358" x="686.2745098039215" text-anchor="middle" visibility="hidden" style="font-size: 13px;">E</text><text y="358" x="689.7058823529412" text-anchor="middle" visibility="hidden" style="font-size: 13px;">T</text><text y="358" x="693.1372549019608" text-anchor="middle" visibility="hidden" style="font-size: 13px;">A</text><text y="358" x="696.5686274509804" text-anchor="middle" visibility="hidden" style="font-size: 13px;">A</text><text y="358" x="700" text-anchor="middle" visibility="hidden" style="font-size: 13px;">K</text></g></g></svg><g class="xAxis" transform="translate(0,360)" fill="none" font-size="10" font-family="sans-serif" text-anchor="middle"><path class="domain" stroke="#000" d="M0.5,6V0.5H700.5V6"></path><g class="tick" opacity="1" transform="translate(65.69607843137256,0)"><line stroke="#000" y2="6"></line><text fill="#000" y="9" dy="0.71em">20</text></g><g class="tick" opacity="1" transform="translate(134.3235294117647,0)"><line stroke="#000" y2="6"></line><text fill="#000" y="9" dy="0.71em">40</text></g><g class="tick" opacity="1" transform="translate(202.95098039215688,0)"><line stroke="#000" y2="6"></line><text fill="#000" y="9" dy="0.71em">60</text></g><g class="tick" opacity="1" transform="translate(271.578431372549,0)"><line stroke="#000" y2="6"></line><text fill="#000" y="9" dy="0.71em">80</text></g><g class="tick" opacity="1" transform="translate(340.20588235294116,0)"><line stroke="#000" y2="6"></line><text fill="#000" y="9" dy="0.71em">100</text></g><g class="tick" opacity="1" transform="translate(408.83333333333337,0)"><line stroke="#000" y2="6"></line><text fill="#000" y="9" dy="0.71em">120</text></g><g class="tick" opacity="1" transform="translate(477.4607843137255,0)"><line stroke="#000" y2="6"></line><text fill="#000" y="9" dy="0.71em">140</text></g><g class="tick" opacity="1" transform="translate(546.0882352941177,0)"><line stroke="#000" y2="6"></line><text fill="#000" y="9" dy="0.71em">160</text></g><g class="tick" opacity="1" transform="translate(614.7156862745098,0)"><line stroke="#000" y2="6"></line><text fill="#000" y="9" dy="0.71em">180</text></g><g class="tick" opacity="1" transform="translate(683.343137254902,0)"><line stroke="#000" y2="6"></line><text fill="#000" y="9" dy="0.71em">200</text></g></g><text class="x label" text-anchor="end" x="700" y="390" style="font-size: 13px; font-family: Arial;">Residue number</text><g class="yAxis" fill="none" font-size="10" font-family="sans-serif" text-anchor="end"><path class="domain" stroke="#000" d="M-6,360.5H0.5V0.5H-6"></path><g class="tick" opacity="1" transform="translate(0,327.77272727272725)"><line stroke="#000" x2="-6"></line><text fill="#000" x="-9" dy="0.32em">0</text></g><g class="tick" opacity="1" transform="translate(0,293.7314616941203)"><line stroke="#000" x2="-6"></line><text fill="#000" x="-9" dy="0.32em">50</text></g><g class="tick" opacity="1" transform="translate(0,259.69019611551334)"><line stroke="#000" x2="-6"></line><text fill="#000" x="-9" dy="0.32em">100</text></g><g class="tick" opacity="1" transform="translate(0,225.6489305369064)"><line stroke="#000" x2="-6"></line><text fill="#000" x="-9" dy="0.32em">150</text></g><g class="tick" opacity="1" transform="translate(0,191.60766495829944)"><line stroke="#000" x2="-6"></line><text fill="#000" x="-9" dy="0.32em">200</text></g><g class="tick" opacity="1" transform="translate(0,157.56639937969248)"><line stroke="#000" x2="-6"></line><text fill="#000" x="-9" dy="0.32em">250</text></g><g class="tick" opacity="1" transform="translate(0,123.52513380108553)"><line stroke="#000" x2="-6"></line><text fill="#000" x="-9" dy="0.32em">300</text></g><g class="tick" opacity="1" transform="translate(0,89.48386822247858)"><line stroke="#000" x2="-6"></line><text fill="#000" x="-9" dy="0.32em">350</text></g><g class="tick" opacity="1" transform="translate(0,55.44260264387162)"><line stroke="#000" x2="-6"></line><text fill="#000" x="-9" dy="0.32em">400</text></g><g class="tick" opacity="1" transform="translate(0,21.40133706526467)"><line stroke="#000" x2="-6"></line><text fill="#000" x="-9" dy="0.32em">450</text></g></g><text class="y label" text-anchor="middle" y="-50" x="-180" dy="0.8em" transform="rotate(-90)" style="font-size: 13px; font-family: Arial;">Total number of references</text><g class="axisRed" fill="none" font-size="10" font-family="sans-serif" text-anchor="start" visibility="hidden" transform="translate(700, 0)"><path class="domain" stroke="#000" d="M6,360.5H0.5V0.5H6"></path><g class="tick" opacity="1" transform="translate(0,360.5)"><line stroke="#000" x2="6"></line><text fill="#000" x="9" dy="0.32em">0</text></g><text text-anchor="start" dx="5.2em" dy="-2.6em" transform="rotate(90)" visibility="hidden" style="font-size: 12px; font-family: Arial; fill: #d7301f;">No recurrent (&gt;2) missense mutations!</text></g><g class="axisPurple" fill="none" font-size="10" font-family="sans-serif" text-anchor="start" visibility="hidden"><path class="domain" stroke="#000" d="M6,360.5H0.5V0.5H6"></path><g class="tick" opacity="1" transform="translate(0,357.52479338842977)"><line stroke="#000" x2="6"></line><text fill="#000" x="9" dy="0.32em"></text></g><g class="tick" opacity="1" transform="translate(0,327.77272727272725)"><line stroke="#000" x2="6"></line><text fill="#000" x="9" dy="0.32em">0</text></g><g class="tick" opacity="1" transform="translate(0,298.0206611570248)"><line stroke="#000" x2="6"></line><text fill="#000" x="9" dy="0.32em">0.002</text></g><g class="tick" opacity="1" transform="translate(0,268.2685950413223)"><line stroke="#000" x2="6"></line><text fill="#000" x="9" dy="0.32em">0.004</text></g><g class="tick" opacity="1" transform="translate(0,238.51652892561984)"><line stroke="#000" x2="6"></line><text fill="#000" x="9" dy="0.32em">0.006</text></g><g class="tick" opacity="1" transform="translate(0,208.76446280991735)"><line stroke="#000" x2="6"></line><text fill="#000" x="9" dy="0.32em">0.008</text></g><g class="tick" opacity="1" transform="translate(0,179.01239669421489)"><line stroke="#000" x2="6"></line><text fill="#000" x="9" dy="0.32em">0.01</text></g><g class="tick" opacity="1" transform="translate(0,149.26033057851237)"><line stroke="#000" x2="6"></line><text fill="#000" x="9" dy="0.32em">0.012</text></g><g class="tick" opacity="1" transform="translate(0,119.50826446280993)"><line stroke="#000" x2="6"></line><text fill="#000" x="9" dy="0.32em">0.014</text></g><g class="tick" opacity="1" transform="translate(0,89.75619834710744)"><line stroke="#000" x2="6"></line><text fill="#000" x="9" dy="0.32em">0.016</text></g><g class="tick" opacity="1" transform="translate(0,60.00413223140498)"><line stroke="#000" x2="6"></line><text fill="#000" x="9" dy="0.32em">0.018</text></g><g class="tick" opacity="1" transform="translate(0,30.252066115702462)"><line stroke="#000" x2="6"></line><text fill="#000" x="9" dy="0.32em">0.02</text></g><g class="tick" opacity="1" transform="translate(0,0.5)"><line stroke="#000" x2="6"></line><text fill="#000" x="9" dy="0.32em">0.022</text></g><text text-anchor="start" x="10" y="10" visibility="hidden" style="font-size: 12px; font-family: Arial; fill: #807dba;">Minor Allele Frequency (MAF) %</text></g><circle cx="636" cy="15" r="10" class="compassNav" style="fill: #ffffff; stroke: #666666; stroke-width: 1px;"></circle><path d="M440.935 12.574l3.966 82.766C399.416 41.904 331.674 8 256 8 134.813 8 33.933 94.924 12.296 209.824 10.908 217.193 16.604 224 24.103 224h49.084c5.57 0 10.377-3.842 11.676-9.259C103.407 137.408 172.931 80 256 80c60.893 0 114.512 30.856 146.104 77.801l-101.53-4.865c-6.845-.328-12.574 5.133-12.574 11.986v47.411c0 6.627 5.373 12 12 12h200.333c6.627 0 12-5.373 12-12V12c0-6.627-5.373-12-12-12h-47.411c-6.853 0-12.315 5.729-11.987 12.574zM256 432c-60.895 0-114.517-30.858-146.109-77.805l101.868 4.871c6.845.327 12.573-5.134 12.573-11.986v-47.412c0-6.627-5.373-12-12-12H12c-6.627 0-12 5.373-12 12V500c0 6.627 5.373 12 12 12h47.385c6.863 0 12.328-5.745 11.985-12.599l-4.129-82.575C112.725 470.166 180.405 504 256 504c121.187 0 222.067-86.924 243.704-201.824 1.388-7.369-4.308-14.176-11.807-14.176h-49.084c-5.57 0-10.377 3.842-11.676 9.259C408.593 374.592 339.069 432 256 432z" class="compassNav" transform="translate(631, 10) scale(0.02)" style="fill: #666666; stroke: #666666; stroke-width: 1px;"></path><circle cx="658" cy="15" r="10" class="compassNav" style="fill: #ffffff; stroke: #666666; stroke-width: 1px;"></circle><line class="compassNav" stroke-width="2" stroke="#666666" x1="654" y1="15" x2="662" y2="15"></line><line class="compassNav" stroke-width="2" stroke="#666666" x1="658" y1="11" x2="658" y2="19"></line><circle cx="614" cy="15" r="10" class="compassNav" style="fill: #ffffff; stroke: #666666; stroke-width: 1px;"></circle><line class="compassNav" stroke-width="2" stroke="#666666" x1="610" y1="15" x2="618" y2="15"></line><path d="M582 14 l20 -12 a100,40 0 0,0 0,24z" class="compassNav" style="fill: #ffffff; stroke: #666666; stroke-width: 1px;"></path><path d="M690 14 l-20 -12 a100,40 0 0,1 0,24z" class="compassNav" style="fill: #ffffff; stroke: #666666; stroke-width: 1px;"></path><path d="M216 0h80c13.3 0 24 10.7 24 24v168h87.7c17.8 0 26.7 21.5 14.1 34.1L269.7 378.3c-7.5 7.5-19.8 7.5-27.3 0L90.1 226.1c-12.6-12.6-3.7-34.1 14.1-34.1H192V24c0-13.3 10.7-24 24-24zm296 376v112c0 13.3-10.7 24-24 24H24c-13.3 0-24-10.7-24-24V376c0-13.3 10.7-24 24-24h146.7l49 49c20.1 20.1 52.5 20.1 72.6 0l49-49H488c13.3 0 24 10.7 24 24zm-124 88c0-11-9-20-20-20s-20 9-20 20 9 20 20 20 20-9 20-20zm64 0c0-11-9-20-20-20s-20 9-20 20 9 20 20 20 20-9 20-20z" class="compassNav" transform="translate(552,0) scale(0.05)" style="fill: #336699; stroke: #336699; stroke-width: 1px; cursor: pointer;"></path></g></svg>