<svg width="800" height="400" style="background-color: white;"><g transform="translate(50,0)"><svg width="700" height="360"><g style="-webkit-tap-highlight-color: rgba(0, 0, 0, 0);"><rect width="700" height="360" style="fill: #ffffff;"></rect><g id="lines"><line class="line" stroke-width="1" stroke="#d7301f" x1="-392.77777777777777" y1="333" x2="-392.77777777777777" y2="360" visibility="hidden" style="stroke-dasharray: 3px, 3px;"></line></g><g><rect x="-397.77777777777777" y="355" width="10" height="10" visibility="hidden" style="fill: #ffffff; stroke: #d7301f;"></rect></g><g id="lines"><line class="line" stroke-width="1" stroke="#6a51a3" x1="-392.77777777777777" y1="333" x2="-392.77777777777777" y2="327.27272727272725" visibility="hidden" style="stroke-dasharray: 3px, 3px;"></line></g><g><rect x="-397.77777777777777" y="322.27272727272725" width="10" height="10" visibility="hidden" style="fill: #ffffff; stroke: #6a51a3;"></rect></g><g id="lines"><line class="line" stroke-width="1" stroke="#666666" x1="540.5555555555555" y1="333" x2="540.5555555555555" y2="29.752066115702462"></line><line class="line" stroke-width="1" stroke="#666666" x1="610.5555555555555" y1="333" x2="610.5555555555555" y2="29.752066115702462"></line><line class="line" stroke-width="1" stroke="#666666" x1="626.1111111111111" y1="333" x2="626.1111111111111" y2="29.752066115702462"></line><line class="line" stroke-width="1" stroke="#666666" x1="688.3333333333333" y1="333" x2="688.3333333333333" y2="228.099173553719"></line></g><g id="circles"><circle r="4" cx="540.5555555555555" cy="29.752066115702462" style="fill: #4393c3; stroke: #666666; stroke-width: 1px;"></circle><circle r="4" cx="610.5555555555555" cy="29.752066115702462" style="fill: #4393c3; stroke: #666666; stroke-width: 1px;"></circle><circle r="4" cx="626.1111111111111" cy="29.752066115702462" style="fill: #4393c3; stroke: #666666; stroke-width: 1px;"></circle><circle r="4" cx="688.3333333333333" cy="228.099173553719" style="fill: #4393c3; stroke: #666666; stroke-width: 1px;"></circle></g><g><rect x="0" y="333" width="700" height="12" style="fill: #ffffff; stroke-width: 1px; stroke: #666666;"></rect><rect x="81.66666666666667" y="333" width="614.4444444444445" height="12" style="fill: #aec7e8; stroke-width: 1px; stroke: #666666;"></rect></g><g><a target="_blank" xlink:href="http://pfam.xfam.org/family/"><text y="343" x="350" text-anchor="middle" style="color: rgb(102, 102, 102); font-weight: normal; font-size: 12px; font-family: Arial; cursor: pointer;"></text></a><a target="_blank" xlink:href="http://pfam.xfam.org/family/Casein_kappa"><text y="343" x="388.88888888888886" text-anchor="middle" style="color: rgb(102, 102, 102); font-weight: normal; font-size: 12px; font-family: Arial; cursor: pointer;">Casein_kappa</text></a></g><g><text y="358" x="0" text-anchor="middle" visibility="hidden" style="font-size: 13px;">M</text><text y="358" x="3.888888888888889" text-anchor="middle" visibility="hidden" style="font-size: 13px;">M</text><text y="358" x="7.777777777777778" text-anchor="middle" visibility="hidden" style="font-size: 13px;">R</text><text y="358" x="11.666666666666666" text-anchor="middle" visibility="hidden" style="font-size: 13px;">N</text><text y="358" x="15.555555555555555" text-anchor="middle" visibility="hidden" style="font-size: 13px;">F</text><text y="358" x="19.444444444444443" text-anchor="middle" visibility="hidden" style="font-size: 13px;">I</text><text y="358" x="23.333333333333332" text-anchor="middle" visibility="hidden" style="font-size: 13px;">V</text><text y="358" x="27.22222222222222" text-anchor="middle" visibility="hidden" style="font-size: 13px;">V</text><text y="358" x="31.11111111111111" text-anchor="middle" visibility="hidden" style="font-size: 13px;">V</text><text y="358" x="35" text-anchor="middle" visibility="hidden" style="font-size: 13px;">N</text><text y="358" x="38.888888888888886" text-anchor="middle" visibility="hidden" style="font-size: 13px;">I</text><text y="358" x="42.77777777777778" text-anchor="middle" visibility="hidden" style="font-size: 13px;">L</text><text y="358" x="46.666666666666664" text-anchor="middle" visibility="hidden" style="font-size: 13px;">A</text><text y="358" x="50.55555555555555" text-anchor="middle" visibility="hidden" style="font-size: 13px;">L</text><text y="358" x="54.44444444444444" text-anchor="middle" visibility="hidden" style="font-size: 13px;">T</text><text y="358" x="58.33333333333333" text-anchor="middle" visibility="hidden" style="font-size: 13px;">L</text><text y="358" x="62.22222222222222" text-anchor="middle" visibility="hidden" style="font-size: 13px;">P</text><text y="358" x="66.11111111111111" text-anchor="middle" visibility="hidden" style="font-size: 13px;">F</text><text y="358" x="70" text-anchor="middle" visibility="hidden" style="font-size: 13px;">L</text><text y="358" x="73.88888888888889" text-anchor="middle" visibility="hidden" style="font-size: 13px;">A</text><text y="358" x="77.77777777777777" text-anchor="middle" visibility="hidden" style="font-size: 13px;">A</text><text y="358" x="81.66666666666667" text-anchor="middle" visibility="hidden" style="font-size: 13px;">E</text><text y="358" x="85.55555555555556" text-anchor="middle" visibility="hidden" style="font-size: 13px;">I</text><text y="358" x="89.44444444444444" text-anchor="middle" visibility="hidden" style="font-size: 13px;">Q</text><text y="358" x="93.33333333333333" text-anchor="middle" visibility="hidden" style="font-size: 13px;">N</text><text y="358" x="97.22222222222223" text-anchor="middle" visibility="hidden" style="font-size: 13px;">P</text><text y="358" x="101.1111111111111" text-anchor="middle" visibility="hidden" style="font-size: 13px;">D</text><text y="358" x="105" text-anchor="middle" visibility="hidden" style="font-size: 13px;">S</text><text y="358" x="108.88888888888889" text-anchor="middle" visibility="hidden" style="font-size: 13px;">N</text><text y="358" x="112.77777777777779" text-anchor="middle" visibility="hidden" style="font-size: 13px;">C</text><text y="358" x="116.66666666666666" text-anchor="middle" visibility="hidden" style="font-size: 13px;">R</text><text y="358" x="120.55555555555556" text-anchor="middle" visibility="hidden" style="font-size: 13px;">G</text><text y="358" x="124.44444444444444" text-anchor="middle" visibility="hidden" style="font-size: 13px;">E</text><text y="358" x="128.33333333333331" text-anchor="middle" visibility="hidden" style="font-size: 13px;">K</text><text y="358" x="132.22222222222223" text-anchor="middle" visibility="hidden" style="font-size: 13px;">N</text><text y="358" x="136.11111111111111" text-anchor="middle" visibility="hidden" style="font-size: 13px;">D</text><text y="358" x="140" text-anchor="middle" visibility="hidden" style="font-size: 13px;">I</text><text y="358" x="143.88888888888889" text-anchor="middle" visibility="hidden" style="font-size: 13px;">V</text><text y="358" x="147.77777777777777" text-anchor="middle" visibility="hidden" style="font-size: 13px;">Y</text><text y="358" x="151.66666666666669" text-anchor="middle" visibility="hidden" style="font-size: 13px;">D</text><text y="358" x="155.55555555555554" text-anchor="middle" visibility="hidden" style="font-size: 13px;">E</text><text y="358" x="159.44444444444443" text-anchor="middle" visibility="hidden" style="font-size: 13px;">Q</text><text y="358" x="163.33333333333334" text-anchor="middle" visibility="hidden" style="font-size: 13px;">R</text><text y="358" x="167.22222222222223" text-anchor="middle" visibility="hidden" style="font-size: 13px;">V</text><text y="358" x="171.11111111111111" text-anchor="middle" visibility="hidden" style="font-size: 13px;">L</text><text y="358" x="175" text-anchor="middle" visibility="hidden" style="font-size: 13px;">Y</text><text y="358" x="178.88888888888889" text-anchor="middle" visibility="hidden" style="font-size: 13px;">T</text><text y="358" x="182.7777777777778" text-anchor="middle" visibility="hidden" style="font-size: 13px;">P</text><text y="358" x="186.66666666666666" text-anchor="middle" visibility="hidden" style="font-size: 13px;">V</text><text y="358" x="190.55555555555554" text-anchor="middle" visibility="hidden" style="font-size: 13px;">R</text><text y="358" x="194.44444444444446" text-anchor="middle" visibility="hidden" style="font-size: 13px;">S</text><text y="358" x="198.33333333333331" text-anchor="middle" visibility="hidden" style="font-size: 13px;">V</text><text y="358" x="202.2222222222222" text-anchor="middle" visibility="hidden" style="font-size: 13px;">L</text><text y="358" x="206.11111111111111" text-anchor="middle" visibility="hidden" style="font-size: 13px;">N</text><text y="358" x="210" text-anchor="middle" visibility="hidden" style="font-size: 13px;">F</text><text y="358" x="213.8888888888889" text-anchor="middle" visibility="hidden" style="font-size: 13px;">N</text><text y="358" x="217.77777777777777" text-anchor="middle" visibility="hidden" style="font-size: 13px;">Q</text><text y="358" x="221.66666666666666" text-anchor="middle" visibility="hidden" style="font-size: 13px;">Y</text><text y="358" x="225.55555555555557" text-anchor="middle" visibility="hidden" style="font-size: 13px;">E</text><text y="358" x="229.44444444444446" text-anchor="middle" visibility="hidden" style="font-size: 13px;">P</text><text y="358" x="233.33333333333331" text-anchor="middle" visibility="hidden" style="font-size: 13px;">N</text><text y="358" x="237.22222222222223" text-anchor="middle" visibility="hidden" style="font-size: 13px;">Y</text><text y="358" x="241.11111111111111" text-anchor="middle" visibility="hidden" style="font-size: 13px;">Y</text><text y="358" x="244.99999999999997" text-anchor="middle" visibility="hidden" style="font-size: 13px;">H</text><text y="358" x="248.88888888888889" text-anchor="middle" visibility="hidden" style="font-size: 13px;">Y</text><text y="358" x="252.77777777777777" text-anchor="middle" visibility="hidden" style="font-size: 13px;">R</text><text y="358" x="256.66666666666663" text-anchor="middle" visibility="hidden" style="font-size: 13px;">P</text><text y="358" x="260.55555555555554" text-anchor="middle" visibility="hidden" style="font-size: 13px;">S</text><text y="358" x="264.44444444444446" text-anchor="middle" visibility="hidden" style="font-size: 13px;">L</text><text y="358" x="268.33333333333337" text-anchor="middle" visibility="hidden" style="font-size: 13px;">P</text><text y="358" x="272.22222222222223" text-anchor="middle" visibility="hidden" style="font-size: 13px;">A</text><text y="358" x="276.1111111111111" text-anchor="middle" visibility="hidden" style="font-size: 13px;">T</text><text y="358" x="280" text-anchor="middle" visibility="hidden" style="font-size: 13px;">A</text><text y="358" x="283.8888888888889" text-anchor="middle" visibility="hidden" style="font-size: 13px;">S</text><text y="358" x="287.77777777777777" text-anchor="middle" visibility="hidden" style="font-size: 13px;">P</text><text y="358" x="291.6666666666667" text-anchor="middle" visibility="hidden" style="font-size: 13px;">Y</text><text y="358" x="295.55555555555554" text-anchor="middle" visibility="hidden" style="font-size: 13px;">M</text><text y="358" x="299.44444444444446" text-anchor="middle" visibility="hidden" style="font-size: 13px;">Y</text><text y="358" x="303.33333333333337" text-anchor="middle" visibility="hidden" style="font-size: 13px;">Y</text><text y="358" x="307.22222222222223" text-anchor="middle" visibility="hidden" style="font-size: 13px;">P</text><text y="358" x="311.1111111111111" text-anchor="middle" visibility="hidden" style="font-size: 13px;">L</text><text y="358" x="315" text-anchor="middle" visibility="hidden" style="font-size: 13px;">V</text><text y="358" x="318.88888888888886" text-anchor="middle" visibility="hidden" style="font-size: 13px;">V</text><text y="358" x="322.77777777777777" text-anchor="middle" visibility="hidden" style="font-size: 13px;">R</text><text y="358" x="326.6666666666667" text-anchor="middle" visibility="hidden" style="font-size: 13px;">L</text><text y="358" x="330.55555555555554" text-anchor="middle" visibility="hidden" style="font-size: 13px;">L</text><text y="358" x="334.44444444444446" text-anchor="middle" visibility="hidden" style="font-size: 13px;">L</text><text y="358" x="338.3333333333333" text-anchor="middle" visibility="hidden" style="font-size: 13px;">L</text><text y="358" x="342.22222222222223" text-anchor="middle" visibility="hidden" style="font-size: 13px;">R</text><text y="358" x="346.11111111111114" text-anchor="middle" visibility="hidden" style="font-size: 13px;">S</text><text y="358" x="350" text-anchor="middle" visibility="hidden" style="font-size: 13px;">P</text><text y="358" x="353.88888888888886" text-anchor="middle" visibility="hidden" style="font-size: 13px;">A</text><text y="358" x="357.77777777777777" text-anchor="middle" visibility="hidden" style="font-size: 13px;">P</text><text y="358" x="361.6666666666667" text-anchor="middle" visibility="hidden" style="font-size: 13px;">I</text><text y="358" x="365.5555555555556" text-anchor="middle" visibility="hidden" style="font-size: 13px;">S</text><text y="358" x="369.44444444444446" text-anchor="middle" visibility="hidden" style="font-size: 13px;">K</text><text y="358" x="373.3333333333333" text-anchor="middle" visibility="hidden" style="font-size: 13px;">W</text><text y="358" x="377.22222222222223" text-anchor="middle" visibility="hidden" style="font-size: 13px;">Q</text><text y="358" x="381.1111111111111" text-anchor="middle" visibility="hidden" style="font-size: 13px;">S</text><text y="358" x="385.00000000000006" text-anchor="middle" visibility="hidden" style="font-size: 13px;">M</text><text y="358" x="388.8888888888889" text-anchor="middle" visibility="hidden" style="font-size: 13px;">P</text><text y="358" x="392.77777777777777" text-anchor="middle" visibility="hidden" style="font-size: 13px;">N</text><text y="358" x="396.66666666666663" text-anchor="middle" visibility="hidden" style="font-size: 13px;">F</text><text y="358" x="400.55555555555554" text-anchor="middle" visibility="hidden" style="font-size: 13px;">P</text><text y="358" x="404.4444444444444" text-anchor="middle" visibility="hidden" style="font-size: 13px;">Q</text><text y="358" x="408.33333333333337" text-anchor="middle" visibility="hidden" style="font-size: 13px;">S</text><text y="358" x="412.22222222222223" text-anchor="middle" visibility="hidden" style="font-size: 13px;">A</text><text y="358" x="416.1111111111111" text-anchor="middle" visibility="hidden" style="font-size: 13px;">G</text><text y="358" x="420" text-anchor="middle" visibility="hidden" style="font-size: 13px;">V</text><text y="358" x="423.88888888888886" text-anchor="middle" visibility="hidden" style="font-size: 13px;">P</text><text y="358" x="427.7777777777778" text-anchor="middle" visibility="hidden" style="font-size: 13px;">Y</text><text y="358" x="431.6666666666667" text-anchor="middle" visibility="hidden" style="font-size: 13px;">A</text><text y="358" x="435.55555555555554" text-anchor="middle" visibility="hidden" style="font-size: 13px;">I</text><text y="358" x="439.44444444444446" text-anchor="middle" visibility="hidden" style="font-size: 13px;">P</text><text y="358" x="443.3333333333333" text-anchor="middle" visibility="hidden" style="font-size: 13px;">N</text><text y="358" x="447.2222222222222" text-anchor="middle" visibility="hidden" style="font-size: 13px;">P</text><text y="358" x="451.11111111111114" text-anchor="middle" visibility="hidden" style="font-size: 13px;">S</text><text y="358" x="455" text-anchor="middle" visibility="hidden" style="font-size: 13px;">F</text><text y="358" x="458.8888888888889" text-anchor="middle" visibility="hidden" style="font-size: 13px;">L</text><text y="358" x="462.77777777777777" text-anchor="middle" visibility="hidden" style="font-size: 13px;">A</text><text y="358" x="466.66666666666663" text-anchor="middle" visibility="hidden" style="font-size: 13px;">M</text><text y="358" x="470.5555555555556" text-anchor="middle" visibility="hidden" style="font-size: 13px;">P</text><text y="358" x="474.44444444444446" text-anchor="middle" visibility="hidden" style="font-size: 13px;">T</text><text y="358" x="478.33333333333337" text-anchor="middle" visibility="hidden" style="font-size: 13px;">N</text><text y="358" x="482.22222222222223" text-anchor="middle" visibility="hidden" style="font-size: 13px;">E</text><text y="358" x="486.1111111111111" text-anchor="middle" visibility="hidden" style="font-size: 13px;">N</text><text y="358" x="489.99999999999994" text-anchor="middle" visibility="hidden" style="font-size: 13px;">Q</text><text y="358" x="493.8888888888889" text-anchor="middle" visibility="hidden" style="font-size: 13px;">D</text><text y="358" x="497.77777777777777" text-anchor="middle" visibility="hidden" style="font-size: 13px;">N</text><text y="358" x="501.6666666666667" text-anchor="middle" visibility="hidden" style="font-size: 13px;">T</text><text y="358" x="505.55555555555554" text-anchor="middle" visibility="hidden" style="font-size: 13px;">A</text><text y="358" x="509.4444444444444" text-anchor="middle" visibility="hidden" style="font-size: 13px;">I</text><text y="358" x="513.3333333333333" text-anchor="middle" visibility="hidden" style="font-size: 13px;">P</text><text y="358" x="517.2222222222223" text-anchor="middle" visibility="hidden" style="font-size: 13px;">T</text><text y="358" x="521.1111111111111" text-anchor="middle" visibility="hidden" style="font-size: 13px;">I</text><text y="358" x="525" text-anchor="middle" visibility="hidden" style="font-size: 13px;">D</text><text y="358" x="528.8888888888889" text-anchor="middle" visibility="hidden" style="font-size: 13px;">P</text><text y="358" x="532.7777777777777" text-anchor="middle" visibility="hidden" style="font-size: 13px;">I</text><text y="358" x="536.6666666666667" text-anchor="middle" visibility="hidden" style="font-size: 13px;">T</text><text y="358" x="540.5555555555555" text-anchor="middle" visibility="hidden" style="font-size: 13px;">P</text><text y="358" x="544.4444444444445" text-anchor="middle" visibility="hidden" style="font-size: 13px;">I</text><text y="358" x="548.3333333333334" text-anchor="middle" visibility="hidden" style="font-size: 13px;">V</text><text y="358" x="552.2222222222222" text-anchor="middle" visibility="hidden" style="font-size: 13px;">S</text><text y="358" x="556.1111111111111" text-anchor="middle" visibility="hidden" style="font-size: 13px;">T</text><text y="358" x="560" text-anchor="middle" visibility="hidden" style="font-size: 13px;">P</text><text y="358" x="563.8888888888889" text-anchor="middle" visibility="hidden" style="font-size: 13px;">V</text><text y="358" x="567.7777777777778" text-anchor="middle" visibility="hidden" style="font-size: 13px;">P</text><text y="358" x="571.6666666666666" text-anchor="middle" visibility="hidden" style="font-size: 13px;">T</text><text y="358" x="575.5555555555555" text-anchor="middle" visibility="hidden" style="font-size: 13px;">M</text><text y="358" x="579.4444444444445" text-anchor="middle" visibility="hidden" style="font-size: 13px;">E</text><text y="358" x="583.3333333333334" text-anchor="middle" visibility="hidden" style="font-size: 13px;">S</text><text y="358" x="587.2222222222223" text-anchor="middle" visibility="hidden" style="font-size: 13px;">I</text><text y="358" x="591.1111111111111" text-anchor="middle" visibility="hidden" style="font-size: 13px;">V</text><text y="358" x="595" text-anchor="middle" visibility="hidden" style="font-size: 13px;">N</text><text y="358" x="598.8888888888889" text-anchor="middle" visibility="hidden" style="font-size: 13px;">T</text><text y="358" x="602.7777777777778" text-anchor="middle" visibility="hidden" style="font-size: 13px;">V</text><text y="358" x="606.6666666666667" text-anchor="middle" visibility="hidden" style="font-size: 13px;">A</text><text y="358" x="610.5555555555555" text-anchor="middle" visibility="hidden" style="font-size: 13px;">N</text><text y="358" x="614.4444444444445" text-anchor="middle" visibility="hidden" style="font-size: 13px;">P</text><text y="358" x="618.3333333333333" text-anchor="middle" visibility="hidden" style="font-size: 13px;">E</text><text y="358" x="622.2222222222222" text-anchor="middle" visibility="hidden" style="font-size: 13px;">A</text><text y="358" x="626.1111111111111" text-anchor="middle" visibility="hidden" style="font-size: 13px;">S</text><text y="358" x="630" text-anchor="middle" visibility="hidden" style="font-size: 13px;">T</text><text y="358" x="633.8888888888889" text-anchor="middle" visibility="hidden" style="font-size: 13px;">V</text><text y="358" x="637.7777777777777" text-anchor="middle" visibility="hidden" style="font-size: 13px;">S</text><text y="358" x="641.6666666666666" text-anchor="middle" visibility="hidden" style="font-size: 13px;">I</text><text y="358" x="645.5555555555555" text-anchor="middle" visibility="hidden" style="font-size: 13px;">N</text><text y="358" x="649.4444444444445" text-anchor="middle" visibility="hidden" style="font-size: 13px;">T</text><text y="358" x="653.3333333333334" text-anchor="middle" visibility="hidden" style="font-size: 13px;">P</text><text y="358" x="657.2222222222222" text-anchor="middle" visibility="hidden" style="font-size: 13px;">E</text><text y="358" x="661.1111111111111" text-anchor="middle" visibility="hidden" style="font-size: 13px;">T</text><text y="358" x="665" text-anchor="middle" visibility="hidden" style="font-size: 13px;">T</text><text y="358" x="668.8888888888889" text-anchor="middle" visibility="hidden" style="font-size: 13px;">T</text><text y="358" x="672.7777777777778" text-anchor="middle" visibility="hidden" style="font-size: 13px;">V</text><text y="358" x="676.6666666666666" text-anchor="middle" visibility="hidden" style="font-size: 13px;">P</text><text y="358" x="680.5555555555555" text-anchor="middle" visibility="hidden" style="font-size: 13px;">V</text><text y="358" x="684.4444444444445" text-anchor="middle" visibility="hidden" style="font-size: 13px;">S</text><text y="358" x="688.3333333333333" text-anchor="middle" visibility="hidden" style="font-size: 13px;">S</text><text y="358" x="692.2222222222223" text-anchor="middle" visibility="hidden" style="font-size: 13px;">T</text><text y="358" x="696.1111111111111" text-anchor="middle" visibility="hidden" style="font-size: 13px;">A</text><text y="358" x="700" text-anchor="middle" visibility="hidden" style="font-size: 13px;">A</text></g></g></svg><g class="xAxis" transform="translate(0,360)" fill="none" font-size="10" font-family="sans-serif" text-anchor="middle"><path class="domain" stroke="#000" d="M0.5,6V0.5H700.5V6"></path><g class="tick" opacity="1" transform="translate(74.38888888888889,0)"><line stroke="#000" y2="6"></line><text fill="#000" y="9" dy="0.71em">20</text></g><g class="tick" opacity="1" transform="translate(152.16666666666669,0)"><line stroke="#000" y2="6"></line><text fill="#000" y="9" dy="0.71em">40</text></g><g class="tick" opacity="1" transform="translate(229.94444444444446,0)"><line stroke="#000" y2="6"></line><text fill="#000" y="9" dy="0.71em">60</text></g><g class="tick" opacity="1" transform="translate(307.72222222222223,0)"><line stroke="#000" y2="6"></line><text fill="#000" y="9" dy="0.71em">80</text></g><g class="tick" opacity="1" transform="translate(385.50000000000006,0)"><line stroke="#000" y2="6"></line><text fill="#000" y="9" dy="0.71em">100</text></g><g class="tick" opacity="1" transform="translate(463.27777777777777,0)"><line stroke="#000" y2="6"></line><text fill="#000" y="9" dy="0.71em">120</text></g><g class="tick" opacity="1" transform="translate(541.0555555555555,0)"><line stroke="#000" y2="6"></line><text fill="#000" y="9" dy="0.71em">140</text></g><g class="tick" opacity="1" transform="translate(618.8333333333333,0)"><line stroke="#000" y2="6"></line><text fill="#000" y="9" dy="0.71em">160</text></g><g class="tick" opacity="1" transform="translate(696.6111111111111,0)"><line stroke="#000" y2="6"></line><text fill="#000" y="9" dy="0.71em">180</text></g></g><text class="x label" text-anchor="end" x="700" y="390" style="font-size: 13px; font-family: Arial;">Residue number</text><g class="yAxis" fill="none" font-size="10" font-family="sans-serif" text-anchor="end"><path class="domain" stroke="#000" d="M-6,360.5H0.5V0.5H-6"></path><g class="tick" opacity="1" transform="translate(0,327.77272727272725)"><line stroke="#000" x2="-6"></line><text fill="#000" x="-9" dy="0.32em">0</text></g><g class="tick" opacity="1" transform="translate(0,278.18595041322317)"><line stroke="#000" x2="-6"></line><text fill="#000" x="-9" dy="0.32em">0.5</text></g><g class="tick" opacity="1" transform="translate(0,228.599173553719)"><line stroke="#000" x2="-6"></line><text fill="#000" x="-9" dy="0.32em">1</text></g><g class="tick" opacity="1" transform="translate(0,179.01239669421489)"><line stroke="#000" x2="-6"></line><text fill="#000" x="-9" dy="0.32em">1.5</text></g><g class="tick" opacity="1" transform="translate(0,129.42561983471072)"><line stroke="#000" x2="-6"></line><text fill="#000" x="-9" dy="0.32em">2</text></g><g class="tick" opacity="1" transform="translate(0,79.8388429752066)"><line stroke="#000" x2="-6"></line><text fill="#000" x="-9" dy="0.32em">2.5</text></g><g class="tick" opacity="1" transform="translate(0,30.252066115702462)"><line stroke="#000" x2="-6"></line><text fill="#000" x="-9" dy="0.32em">3</text></g></g><text class="y label" text-anchor="middle" y="-50" x="-180" dy="0.8em" transform="rotate(-90)" style="font-size: 13px; font-family: Arial;">Total number of references</text><g class="axisRed" fill="none" font-size="10" font-family="sans-serif" text-anchor="start" visibility="hidden" transform="translate(700, 0)"><path class="domain" stroke="#000" d="M6,360.5H0.5V0.5H6"></path><g class="tick" opacity="1" transform="translate(0,360.5)"><line stroke="#000" x2="6"></line><text fill="#000" x="9" dy="0.32em">0</text></g><text text-anchor="start" dx="5.2em" dy="-2.6em" transform="rotate(90)" visibility="hidden" style="font-size: 12px; font-family: Arial; fill: #d7301f;">No recurrent (&gt;2) missense mutations!</text></g><g class="axisPurple" fill="none" font-size="10" font-family="sans-serif" text-anchor="start" visibility="hidden"><path class="domain" stroke="#000" d="M6,360.5H0.5V0.5H6"></path><g class="tick" opacity="1" transform="translate(0,357.52479338842977)"><line stroke="#000" x2="6"></line><text fill="#000" x="9" dy="0.32em"></text></g><g class="tick" opacity="1" transform="translate(0,327.77272727272725)"><line stroke="#000" x2="6"></line><text fill="#000" x="9" dy="0.32em">0</text></g><g class="tick" opacity="1" transform="translate(0,298.0206611570248)"><line stroke="#000" x2="6"></line><text fill="#000" x="9" dy="0.32em">0.1</text></g><g class="tick" opacity="1" transform="translate(0,268.2685950413223)"><line stroke="#000" x2="6"></line><text fill="#000" x="9" dy="0.32em">0.2</text></g><g class="tick" opacity="1" transform="translate(0,238.51652892561984)"><line stroke="#000" x2="6"></line><text fill="#000" x="9" dy="0.32em">0.3</text></g><g class="tick" opacity="1" transform="translate(0,208.76446280991738)"><line stroke="#000" x2="6"></line><text fill="#000" x="9" dy="0.32em">0.4</text></g><g class="tick" opacity="1" transform="translate(0,179.0123966942149)"><line stroke="#000" x2="6"></line><text fill="#000" x="9" dy="0.32em">0.5</text></g><g class="tick" opacity="1" transform="translate(0,149.26033057851242)"><line stroke="#000" x2="6"></line><text fill="#000" x="9" dy="0.32em">0.6</text></g><g class="tick" opacity="1" transform="translate(0,119.50826446280996)"><line stroke="#000" x2="6"></line><text fill="#000" x="9" dy="0.32em">0.7</text></g><g class="tick" opacity="1" transform="translate(0,89.75619834710744)"><line stroke="#000" x2="6"></line><text fill="#000" x="9" dy="0.32em">0.8</text></g><g class="tick" opacity="1" transform="translate(0,60.00413223140498)"><line stroke="#000" x2="6"></line><text fill="#000" x="9" dy="0.32em">0.9</text></g><g class="tick" opacity="1" transform="translate(0,30.25206611570252)"><line stroke="#000" x2="6"></line><text fill="#000" x="9" dy="0.32em">1</text></g><g class="tick" opacity="1" transform="translate(0,0.5)"><line stroke="#000" x2="6"></line><text fill="#000" x="9" dy="0.32em">1.1</text></g><text text-anchor="start" x="10" y="10" visibility="hidden" style="font-size: 12px; font-family: Arial; fill: #807dba;">No disease causing germline SNPs known!</text></g><circle cx="636" cy="15" r="10" class="compassNav" style="fill: #ffffff; stroke: #666666; stroke-width: 1px;"></circle><path d="M440.935 12.574l3.966 82.766C399.416 41.904 331.674 8 256 8 134.813 8 33.933 94.924 12.296 209.824 10.908 217.193 16.604 224 24.103 224h49.084c5.57 0 10.377-3.842 11.676-9.259C103.407 137.408 172.931 80 256 80c60.893 0 114.512 30.856 146.104 77.801l-101.53-4.865c-6.845-.328-12.574 5.133-12.574 11.986v47.411c0 6.627 5.373 12 12 12h200.333c6.627 0 12-5.373 12-12V12c0-6.627-5.373-12-12-12h-47.411c-6.853 0-12.315 5.729-11.987 12.574zM256 432c-60.895 0-114.517-30.858-146.109-77.805l101.868 4.871c6.845.327 12.573-5.134 12.573-11.986v-47.412c0-6.627-5.373-12-12-12H12c-6.627 0-12 5.373-12 12V500c0 6.627 5.373 12 12 12h47.385c6.863 0 12.328-5.745 11.985-12.599l-4.129-82.575C112.725 470.166 180.405 504 256 504c121.187 0 222.067-86.924 243.704-201.824 1.388-7.369-4.308-14.176-11.807-14.176h-49.084c-5.57 0-10.377 3.842-11.676 9.259C408.593 374.592 339.069 432 256 432z" class="compassNav" transform="translate(631, 10) scale(0.02)" style="fill: #666666; stroke: #666666; stroke-width: 1px;"></path><circle cx="658" cy="15" r="10" class="compassNav" style="fill: #ffffff; stroke: #666666; stroke-width: 1px;"></circle><line class="compassNav" stroke-width="2" stroke="#666666" x1="654" y1="15" x2="662" y2="15"></line><line class="compassNav" stroke-width="2" stroke="#666666" x1="658" y1="11" x2="658" y2="19"></line><circle cx="614" cy="15" r="10" class="compassNav" style="fill: #ffffff; stroke: #666666; stroke-width: 1px;"></circle><line class="compassNav" stroke-width="2" stroke="#666666" x1="610" y1="15" x2="618" y2="15"></line><path d="M582 14 l20 -12 a100,40 0 0,0 0,24z" class="compassNav" style="fill: #ffffff; stroke: #666666; stroke-width: 1px;"></path><path d="M690 14 l-20 -12 a100,40 0 0,1 0,24z" class="compassNav" style="fill: #ffffff; stroke: #666666; stroke-width: 1px;"></path><path d="M216 0h80c13.3 0 24 10.7 24 24v168h87.7c17.8 0 26.7 21.5 14.1 34.1L269.7 378.3c-7.5 7.5-19.8 7.5-27.3 0L90.1 226.1c-12.6-12.6-3.7-34.1 14.1-34.1H192V24c0-13.3 10.7-24 24-24zm296 376v112c0 13.3-10.7 24-24 24H24c-13.3 0-24-10.7-24-24V376c0-13.3 10.7-24 24-24h146.7l49 49c20.1 20.1 52.5 20.1 72.6 0l49-49H488c13.3 0 24 10.7 24 24zm-124 88c0-11-9-20-20-20s-20 9-20 20 9 20 20 20 20-9 20-20zm64 0c0-11-9-20-20-20s-20 9-20 20 9 20 20 20 20-9 20-20z" class="compassNav" transform="translate(552,0) scale(0.05)" style="fill: #336699; stroke: #336699; stroke-width: 1px; cursor: pointer;"></path></g></svg>