<svg width="800" height="400" style="background-color: white;"><g transform="translate(50,0)"><svg width="700" height="360"><g style="-webkit-tap-highlight-color: rgba(0, 0, 0, 0);"><rect width="700" height="360" style="fill: #ffffff;"></rect><g id="lines"><line class="line" stroke-width="1" stroke="#d7301f" x1="-625.6637168141592" y1="333" x2="-625.6637168141592" y2="360" visibility="hidden" style="stroke-dasharray: 3px, 3px;"></line></g><g><rect x="-630.6637168141592" y="355" width="10" height="10" visibility="hidden" style="fill: #ffffff; stroke: #d7301f;"></rect></g><g id="lines"><line class="line" stroke-width="1" stroke="#6a51a3" x1="-625.6637168141592" y1="333" x2="-625.6637168141592" y2="327.27272727272725" visibility="hidden" style="stroke-dasharray: 3px, 3px;"></line></g><g><rect x="-630.6637168141592" y="322.27272727272725" width="10" height="10" visibility="hidden" style="fill: #ffffff; stroke: #6a51a3;"></rect></g><g id="lines"><line class="line" stroke-width="1" stroke="#666666" x1="30.97345132743363" y1="333" x2="30.97345132743363" y2="319.6439923712651"></line><line class="line" stroke-width="1" stroke="#666666" x1="136.28318584070797" y1="333" x2="136.28318584070797" y2="319.6439923712651"></line><line class="line" stroke-width="1" stroke="#666666" x1="148.67256637168143" y1="333" x2="148.67256637168143" y2="319.6439923712651"></line><line class="line" stroke-width="1" stroke="#666666" x1="185.8407079646018" y1="333" x2="185.8407079646018" y2="312.0152574698029"></line><line class="line" stroke-width="1" stroke="#666666" x1="204.42477876106196" y1="333" x2="204.42477876106196" y2="319.6439923712651"></line><line class="line" stroke-width="1" stroke="#666666" x1="229.20353982300887" y1="333" x2="229.20353982300887" y2="304.38652256834075"></line><line class="line" stroke-width="1" stroke="#666666" x1="284.95575221238937" y1="333" x2="284.95575221238937" y2="319.6439923712651"></line><line class="line" stroke-width="1" stroke="#666666" x1="415.04424778761063" y1="333" x2="415.04424778761063" y2="319.6439923712651"></line><line class="line" stroke-width="1" stroke="#666666" x1="656.637168141593" y1="333" x2="656.637168141593" y2="319.6439923712651"></line><line class="line" stroke-width="1" stroke="#666666" x1="693.8053097345132" y1="333" x2="693.8053097345132" y2="29.752066115702462"></line></g><g id="circles"><circle r="4" cx="30.97345132743363" cy="319.6439923712651" style="fill: #4393c3; stroke: #666666; stroke-width: 1px;"></circle><circle r="4" cx="136.28318584070797" cy="319.6439923712651" style="fill: #4393c3; stroke: #666666; stroke-width: 1px;"></circle><circle r="4" cx="148.67256637168143" cy="319.6439923712651" style="fill: #5aae61; stroke: #666666; stroke-width: 1px;"></circle><circle r="4" cx="185.8407079646018" cy="312.0152574698029" style="fill: #4393c3; stroke: #666666; stroke-width: 1px;"></circle><circle r="4" cx="204.42477876106196" cy="319.6439923712651" style="fill: #5aae61; stroke: #666666; stroke-width: 1px;"></circle><circle r="4" cx="229.20353982300887" cy="304.38652256834075" style="fill: #5aae61; stroke: #666666; stroke-width: 1px;"></circle><circle r="4" cx="284.95575221238937" cy="319.6439923712651" style="fill: #4393c3; stroke: #666666; stroke-width: 1px;"></circle><circle r="4" cx="415.04424778761063" cy="319.6439923712651" style="fill: #4393c3; stroke: #666666; stroke-width: 1px;"></circle><circle r="4" cx="656.637168141593" cy="319.6439923712651" style="fill: #666666; stroke: #666666; stroke-width: 1px;"></circle><circle r="4" cx="693.8053097345132" cy="29.752066115702462" style="fill: #4393c3; stroke: #666666; stroke-width: 1px;"></circle></g><g><rect x="0" y="333" width="700" height="12" style="fill: #ffffff; stroke-width: 1px; stroke: #666666;"></rect><rect x="43.36283185840708" y="333" width="260.1769911504425" height="12" style="fill: #aec7e8; stroke-width: 1px; stroke: #666666;"></rect></g><g><a target="_blank" xlink:href="http://pfam.xfam.org/family/"><text y="343" x="350" text-anchor="middle" style="color: rgb(102, 102, 102); font-weight: normal; font-size: 12px; font-family: Arial; cursor: pointer;"></text></a><a target="_blank" xlink:href="http://pfam.xfam.org/family/S_100"><text y="343" x="173.4513274336283" text-anchor="middle" style="color: rgb(102, 102, 102); font-weight: normal; font-size: 12px; font-family: Arial; cursor: pointer;">S_100</text></a></g><g><text y="358" x="0" text-anchor="middle" visibility="hidden" style="font-size: 13px;">M</text><text y="358" x="6.1946902654867255" text-anchor="middle" visibility="hidden" style="font-size: 13px;">T</text><text y="358" x="12.389380530973451" text-anchor="middle" visibility="hidden" style="font-size: 13px;">C</text><text y="358" x="18.58407079646018" text-anchor="middle" visibility="hidden" style="font-size: 13px;">K</text><text y="358" x="24.778761061946902" text-anchor="middle" visibility="hidden" style="font-size: 13px;">M</text><text y="358" x="30.97345132743363" text-anchor="middle" visibility="hidden" style="font-size: 13px;">S</text><text y="358" x="37.16814159292036" text-anchor="middle" visibility="hidden" style="font-size: 13px;">Q</text><text y="358" x="43.36283185840708" text-anchor="middle" visibility="hidden" style="font-size: 13px;">L</text><text y="358" x="49.557522123893804" text-anchor="middle" visibility="hidden" style="font-size: 13px;">E</text><text y="358" x="55.75221238938053" text-anchor="middle" visibility="hidden" style="font-size: 13px;">R</text><text y="358" x="61.94690265486726" text-anchor="middle" visibility="hidden" style="font-size: 13px;">N</text><text y="358" x="68.14159292035399" text-anchor="middle" visibility="hidden" style="font-size: 13px;">I</text><text y="358" x="74.33628318584071" text-anchor="middle" visibility="hidden" style="font-size: 13px;">E</text><text y="358" x="80.53097345132743" text-anchor="middle" visibility="hidden" style="font-size: 13px;">T</text><text y="358" x="86.72566371681415" text-anchor="middle" visibility="hidden" style="font-size: 13px;">I</text><text y="358" x="92.9203539823009" text-anchor="middle" visibility="hidden" style="font-size: 13px;">I</text><text y="358" x="99.11504424778761" text-anchor="middle" visibility="hidden" style="font-size: 13px;">N</text><text y="358" x="105.30973451327435" text-anchor="middle" visibility="hidden" style="font-size: 13px;">T</text><text y="358" x="111.50442477876106" text-anchor="middle" visibility="hidden" style="font-size: 13px;">F</text><text y="358" x="117.69911504424779" text-anchor="middle" visibility="hidden" style="font-size: 13px;">H</text><text y="358" x="123.89380530973452" text-anchor="middle" visibility="hidden" style="font-size: 13px;">Q</text><text y="358" x="130.08849557522126" text-anchor="middle" visibility="hidden" style="font-size: 13px;">Y</text><text y="358" x="136.28318584070797" text-anchor="middle" visibility="hidden" style="font-size: 13px;">S</text><text y="358" x="142.47787610619469" text-anchor="middle" visibility="hidden" style="font-size: 13px;">V</text><text y="358" x="148.67256637168143" text-anchor="middle" visibility="hidden" style="font-size: 13px;">K</text><text y="358" x="154.86725663716814" text-anchor="middle" visibility="hidden" style="font-size: 13px;">L</text><text y="358" x="161.06194690265485" text-anchor="middle" visibility="hidden" style="font-size: 13px;">G</text><text y="358" x="167.2566371681416" text-anchor="middle" visibility="hidden" style="font-size: 13px;">H</text><text y="358" x="173.4513274336283" text-anchor="middle" visibility="hidden" style="font-size: 13px;">P</text><text y="358" x="179.64601769911505" text-anchor="middle" visibility="hidden" style="font-size: 13px;">D</text><text y="358" x="185.8407079646018" text-anchor="middle" visibility="hidden" style="font-size: 13px;">T</text><text y="358" x="192.03539823008848" text-anchor="middle" visibility="hidden" style="font-size: 13px;">L</text><text y="358" x="198.23008849557522" text-anchor="middle" visibility="hidden" style="font-size: 13px;">N</text><text y="358" x="204.42477876106196" text-anchor="middle" visibility="hidden" style="font-size: 13px;">Q</text><text y="358" x="210.6194690265487" text-anchor="middle" visibility="hidden" style="font-size: 13px;">G</text><text y="358" x="216.81415929203538" text-anchor="middle" visibility="hidden" style="font-size: 13px;">E</text><text y="358" x="223.00884955752213" text-anchor="middle" visibility="hidden" style="font-size: 13px;">F</text><text y="358" x="229.20353982300887" text-anchor="middle" visibility="hidden" style="font-size: 13px;">K</text><text y="358" x="235.39823008849558" text-anchor="middle" visibility="hidden" style="font-size: 13px;">E</text><text y="358" x="241.5929203539823" text-anchor="middle" visibility="hidden" style="font-size: 13px;">L</text><text y="358" x="247.78761061946904" text-anchor="middle" visibility="hidden" style="font-size: 13px;">V</text><text y="358" x="253.98230088495575" text-anchor="middle" visibility="hidden" style="font-size: 13px;">R</text><text y="358" x="260.1769911504425" text-anchor="middle" visibility="hidden" style="font-size: 13px;">K</text><text y="358" x="266.3716814159292" text-anchor="middle" visibility="hidden" style="font-size: 13px;">D</text><text y="358" x="272.56637168141594" text-anchor="middle" visibility="hidden" style="font-size: 13px;">L</text><text y="358" x="278.76106194690266" text-anchor="middle" visibility="hidden" style="font-size: 13px;">Q</text><text y="358" x="284.95575221238937" text-anchor="middle" visibility="hidden" style="font-size: 13px;">N</text><text y="358" x="291.1504424778761" text-anchor="middle" visibility="hidden" style="font-size: 13px;">F</text><text y="358" x="297.34513274336285" text-anchor="middle" visibility="hidden" style="font-size: 13px;">L</text><text y="358" x="303.53982300884957" text-anchor="middle" visibility="hidden" style="font-size: 13px;">K</text><text y="358" x="309.7345132743363" text-anchor="middle" visibility="hidden" style="font-size: 13px;">K</text><text y="358" x="315.929203539823" text-anchor="middle" visibility="hidden" style="font-size: 13px;">E</text><text y="358" x="322.1238938053097" text-anchor="middle" visibility="hidden" style="font-size: 13px;">N</text><text y="358" x="328.3185840707965" text-anchor="middle" visibility="hidden" style="font-size: 13px;">K</text><text y="358" x="334.5132743362832" text-anchor="middle" visibility="hidden" style="font-size: 13px;">N</text><text y="358" x="340.7079646017699" text-anchor="middle" visibility="hidden" style="font-size: 13px;">E</text><text y="358" x="346.9026548672566" text-anchor="middle" visibility="hidden" style="font-size: 13px;">K</text><text y="358" x="353.0973451327434" text-anchor="middle" visibility="hidden" style="font-size: 13px;">V</text><text y="358" x="359.2920353982301" text-anchor="middle" visibility="hidden" style="font-size: 13px;">I</text><text y="358" x="365.4867256637168" text-anchor="middle" visibility="hidden" style="font-size: 13px;">E</text><text y="358" x="371.6814159292036" text-anchor="middle" visibility="hidden" style="font-size: 13px;">H</text><text y="358" x="377.87610619469024" text-anchor="middle" visibility="hidden" style="font-size: 13px;">I</text><text y="358" x="384.07079646017695" text-anchor="middle" visibility="hidden" style="font-size: 13px;">M</text><text y="358" x="390.2654867256637" text-anchor="middle" visibility="hidden" style="font-size: 13px;">E</text><text y="358" x="396.46017699115043" text-anchor="middle" visibility="hidden" style="font-size: 13px;">D</text><text y="358" x="402.65486725663715" text-anchor="middle" visibility="hidden" style="font-size: 13px;">L</text><text y="358" x="408.8495575221239" text-anchor="middle" visibility="hidden" style="font-size: 13px;">D</text><text y="358" x="415.04424778761063" text-anchor="middle" visibility="hidden" style="font-size: 13px;">T</text><text y="358" x="421.2389380530974" text-anchor="middle" visibility="hidden" style="font-size: 13px;">N</text><text y="358" x="427.43362831858406" text-anchor="middle" visibility="hidden" style="font-size: 13px;">A</text><text y="358" x="433.62831858407077" text-anchor="middle" visibility="hidden" style="font-size: 13px;">D</text><text y="358" x="439.8230088495575" text-anchor="middle" visibility="hidden" style="font-size: 13px;">K</text><text y="358" x="446.01769911504425" text-anchor="middle" visibility="hidden" style="font-size: 13px;">Q</text><text y="358" x="452.21238938053096" text-anchor="middle" visibility="hidden" style="font-size: 13px;">L</text><text y="358" x="458.40707964601773" text-anchor="middle" visibility="hidden" style="font-size: 13px;">S</text><text y="358" x="464.60176991150445" text-anchor="middle" visibility="hidden" style="font-size: 13px;">F</text><text y="358" x="470.79646017699116" text-anchor="middle" visibility="hidden" style="font-size: 13px;">E</text><text y="358" x="476.9911504424778" text-anchor="middle" visibility="hidden" style="font-size: 13px;">E</text><text y="358" x="483.1858407079646" text-anchor="middle" visibility="hidden" style="font-size: 13px;">F</text><text y="358" x="489.3805309734513" text-anchor="middle" visibility="hidden" style="font-size: 13px;">I</text><text y="358" x="495.57522123893807" text-anchor="middle" visibility="hidden" style="font-size: 13px;">M</text><text y="358" x="501.7699115044248" text-anchor="middle" visibility="hidden" style="font-size: 13px;">L</text><text y="358" x="507.9646017699115" text-anchor="middle" visibility="hidden" style="font-size: 13px;">M</text><text y="358" x="514.1592920353983" text-anchor="middle" visibility="hidden" style="font-size: 13px;">A</text><text y="358" x="520.353982300885" text-anchor="middle" visibility="hidden" style="font-size: 13px;">R</text><text y="358" x="526.5486725663717" text-anchor="middle" visibility="hidden" style="font-size: 13px;">L</text><text y="358" x="532.7433628318583" text-anchor="middle" visibility="hidden" style="font-size: 13px;">T</text><text y="358" x="538.9380530973451" text-anchor="middle" visibility="hidden" style="font-size: 13px;">W</text><text y="358" x="545.1327433628319" text-anchor="middle" visibility="hidden" style="font-size: 13px;">A</text><text y="358" x="551.3274336283185" text-anchor="middle" visibility="hidden" style="font-size: 13px;">S</text><text y="358" x="557.5221238938053" text-anchor="middle" visibility="hidden" style="font-size: 13px;">H</text><text y="358" x="563.7168141592921" text-anchor="middle" visibility="hidden" style="font-size: 13px;">E</text><text y="358" x="569.9115044247787" text-anchor="middle" visibility="hidden" style="font-size: 13px;">K</text><text y="358" x="576.1061946902654" text-anchor="middle" visibility="hidden" style="font-size: 13px;">M</text><text y="358" x="582.3008849557522" text-anchor="middle" visibility="hidden" style="font-size: 13px;">H</text><text y="358" x="588.4955752212389" text-anchor="middle" visibility="hidden" style="font-size: 13px;">E</text><text y="358" x="594.6902654867257" text-anchor="middle" visibility="hidden" style="font-size: 13px;">G</text><text y="358" x="600.8849557522124" text-anchor="middle" visibility="hidden" style="font-size: 13px;">D</text><text y="358" x="607.0796460176991" text-anchor="middle" visibility="hidden" style="font-size: 13px;">E</text><text y="358" x="613.2743362831859" text-anchor="middle" visibility="hidden" style="font-size: 13px;">G</text><text y="358" x="619.4690265486726" text-anchor="middle" visibility="hidden" style="font-size: 13px;">P</text><text y="358" x="625.6637168141592" text-anchor="middle" visibility="hidden" style="font-size: 13px;">G</text><text y="358" x="631.858407079646" text-anchor="middle" visibility="hidden" style="font-size: 13px;">H</text><text y="358" x="638.0530973451328" text-anchor="middle" visibility="hidden" style="font-size: 13px;">H</text><text y="358" x="644.2477876106194" text-anchor="middle" visibility="hidden" style="font-size: 13px;">H</text><text y="358" x="650.4424778761062" text-anchor="middle" visibility="hidden" style="font-size: 13px;">K</text><text y="358" x="656.637168141593" text-anchor="middle" visibility="hidden" style="font-size: 13px;">P</text><text y="358" x="662.8318584070797" text-anchor="middle" visibility="hidden" style="font-size: 13px;">G</text><text y="358" x="669.0265486725664" text-anchor="middle" visibility="hidden" style="font-size: 13px;">L</text><text y="358" x="675.221238938053" text-anchor="middle" visibility="hidden" style="font-size: 13px;">G</text><text y="358" x="681.4159292035398" text-anchor="middle" visibility="hidden" style="font-size: 13px;">E</text><text y="358" x="687.6106194690266" text-anchor="middle" visibility="hidden" style="font-size: 13px;">G</text><text y="358" x="693.8053097345132" text-anchor="middle" visibility="hidden" style="font-size: 13px;">T</text><text y="358" x="700" text-anchor="middle" visibility="hidden" style="font-size: 13px;">P</text></g></g></svg><g class="xAxis" transform="translate(0,360)" fill="none" font-size="10" font-family="sans-serif" text-anchor="middle"><path class="domain" stroke="#000" d="M0.5,6V0.5H700.5V6"></path><g class="tick" opacity="1" transform="translate(56.25221238938053,0)"><line stroke="#000" y2="6"></line><text fill="#000" y="9" dy="0.71em">10</text></g><g class="tick" opacity="1" transform="translate(118.19911504424779,0)"><line stroke="#000" y2="6"></line><text fill="#000" y="9" dy="0.71em">20</text></g><g class="tick" opacity="1" transform="translate(180.14601769911505,0)"><line stroke="#000" y2="6"></line><text fill="#000" y="9" dy="0.71em">30</text></g><g class="tick" opacity="1" transform="translate(242.0929203539823,0)"><line stroke="#000" y2="6"></line><text fill="#000" y="9" dy="0.71em">40</text></g><g class="tick" opacity="1" transform="translate(304.03982300884957,0)"><line stroke="#000" y2="6"></line><text fill="#000" y="9" dy="0.71em">50</text></g><g class="tick" opacity="1" transform="translate(365.9867256637168,0)"><line stroke="#000" y2="6"></line><text fill="#000" y="9" dy="0.71em">60</text></g><g class="tick" opacity="1" transform="translate(427.93362831858406,0)"><line stroke="#000" y2="6"></line><text fill="#000" y="9" dy="0.71em">70</text></g><g class="tick" opacity="1" transform="translate(489.8805309734513,0)"><line stroke="#000" y2="6"></line><text fill="#000" y="9" dy="0.71em">80</text></g><g class="tick" opacity="1" transform="translate(551.8274336283185,0)"><line stroke="#000" y2="6"></line><text fill="#000" y="9" dy="0.71em">90</text></g><g class="tick" opacity="1" transform="translate(613.7743362831859,0)"><line stroke="#000" y2="6"></line><text fill="#000" y="9" dy="0.71em">100</text></g><g class="tick" opacity="1" transform="translate(675.721238938053,0)"><line stroke="#000" y2="6"></line><text fill="#000" y="9" dy="0.71em">110</text></g></g><text class="x label" text-anchor="end" x="700" y="390" style="font-size: 13px; font-family: Arial;">Residue number</text><g class="yAxis" fill="none" font-size="10" font-family="sans-serif" text-anchor="end"><path class="domain" stroke="#000" d="M-6,360.5H0.5V0.5H-6"></path><g class="tick" opacity="1" transform="translate(0,327.77272727272725)"><line stroke="#000" x2="-6"></line><text fill="#000" x="-9" dy="0.32em">0</text></g><g class="tick" opacity="1" transform="translate(0,289.6290527654164)"><line stroke="#000" x2="-6"></line><text fill="#000" x="-9" dy="0.32em">5</text></g><g class="tick" opacity="1" transform="translate(0,251.48537825810553)"><line stroke="#000" x2="-6"></line><text fill="#000" x="-9" dy="0.32em">10</text></g><g class="tick" opacity="1" transform="translate(0,213.34170375079466)"><line stroke="#000" x2="-6"></line><text fill="#000" x="-9" dy="0.32em">15</text></g><g class="tick" opacity="1" transform="translate(0,175.1980292434838)"><line stroke="#000" x2="-6"></line><text fill="#000" x="-9" dy="0.32em">20</text></g><g class="tick" opacity="1" transform="translate(0,137.0543547361729)"><line stroke="#000" x2="-6"></line><text fill="#000" x="-9" dy="0.32em">25</text></g><g class="tick" opacity="1" transform="translate(0,98.91068022886208)"><line stroke="#000" x2="-6"></line><text fill="#000" x="-9" dy="0.32em">30</text></g><g class="tick" opacity="1" transform="translate(0,60.767005721551186)"><line stroke="#000" x2="-6"></line><text fill="#000" x="-9" dy="0.32em">35</text></g><g class="tick" opacity="1" transform="translate(0,22.623331214240295)"><line stroke="#000" x2="-6"></line><text fill="#000" x="-9" dy="0.32em">40</text></g></g><text class="y label" text-anchor="middle" y="-50" x="-180" dy="0.8em" transform="rotate(-90)" style="font-size: 13px; font-family: Arial;">Total number of references</text><g class="axisRed" fill="none" font-size="10" font-family="sans-serif" text-anchor="start" visibility="hidden" transform="translate(700, 0)"><path class="domain" stroke="#000" d="M6,360.5H0.5V0.5H6"></path><g class="tick" opacity="1" transform="translate(0,360.5)"><line stroke="#000" x2="6"></line><text fill="#000" x="9" dy="0.32em">0</text></g><text text-anchor="start" dx="5.2em" dy="-2.6em" transform="rotate(90)" visibility="hidden" style="font-size: 12px; font-family: Arial; fill: #d7301f;">No recurrent (&gt;2) missense mutations!</text></g><g class="axisPurple" fill="none" font-size="10" font-family="sans-serif" text-anchor="start" visibility="hidden"><path class="domain" stroke="#000" d="M6,360.5H0.5V0.5H6"></path><g class="tick" opacity="1" transform="translate(0,357.52479338842977)"><line stroke="#000" x2="6"></line><text fill="#000" x="9" dy="0.32em"></text></g><g class="tick" opacity="1" transform="translate(0,327.77272727272725)"><line stroke="#000" x2="6"></line><text fill="#000" x="9" dy="0.32em">0</text></g><g class="tick" opacity="1" transform="translate(0,298.0206611570248)"><line stroke="#000" x2="6"></line><text fill="#000" x="9" dy="0.32em">0.1</text></g><g class="tick" opacity="1" transform="translate(0,268.2685950413223)"><line stroke="#000" x2="6"></line><text fill="#000" x="9" dy="0.32em">0.2</text></g><g class="tick" opacity="1" transform="translate(0,238.51652892561984)"><line stroke="#000" x2="6"></line><text fill="#000" x="9" dy="0.32em">0.3</text></g><g class="tick" opacity="1" transform="translate(0,208.76446280991738)"><line stroke="#000" x2="6"></line><text fill="#000" x="9" dy="0.32em">0.4</text></g><g class="tick" opacity="1" transform="translate(0,179.0123966942149)"><line stroke="#000" x2="6"></line><text fill="#000" x="9" dy="0.32em">0.5</text></g><g class="tick" opacity="1" transform="translate(0,149.26033057851242)"><line stroke="#000" x2="6"></line><text fill="#000" x="9" dy="0.32em">0.6</text></g><g class="tick" opacity="1" transform="translate(0,119.50826446280996)"><line stroke="#000" x2="6"></line><text fill="#000" x="9" dy="0.32em">0.7</text></g><g class="tick" opacity="1" transform="translate(0,89.75619834710744)"><line stroke="#000" x2="6"></line><text fill="#000" x="9" dy="0.32em">0.8</text></g><g class="tick" opacity="1" transform="translate(0,60.00413223140498)"><line stroke="#000" x2="6"></line><text fill="#000" x="9" dy="0.32em">0.9</text></g><g class="tick" opacity="1" transform="translate(0,30.25206611570252)"><line stroke="#000" x2="6"></line><text fill="#000" x="9" dy="0.32em">1</text></g><g class="tick" opacity="1" transform="translate(0,0.5)"><line stroke="#000" x2="6"></line><text fill="#000" x="9" dy="0.32em">1.1</text></g><text text-anchor="start" x="10" y="10" visibility="hidden" style="font-size: 12px; font-family: Arial; fill: #807dba;">No disease causing germline SNPs known!</text></g><circle cx="636" cy="15" r="10" class="compassNav" style="fill: #ffffff; stroke: #666666; stroke-width: 1px;"></circle><path d="M440.935 12.574l3.966 82.766C399.416 41.904 331.674 8 256 8 134.813 8 33.933 94.924 12.296 209.824 10.908 217.193 16.604 224 24.103 224h49.084c5.57 0 10.377-3.842 11.676-9.259C103.407 137.408 172.931 80 256 80c60.893 0 114.512 30.856 146.104 77.801l-101.53-4.865c-6.845-.328-12.574 5.133-12.574 11.986v47.411c0 6.627 5.373 12 12 12h200.333c6.627 0 12-5.373 12-12V12c0-6.627-5.373-12-12-12h-47.411c-6.853 0-12.315 5.729-11.987 12.574zM256 432c-60.895 0-114.517-30.858-146.109-77.805l101.868 4.871c6.845.327 12.573-5.134 12.573-11.986v-47.412c0-6.627-5.373-12-12-12H12c-6.627 0-12 5.373-12 12V500c0 6.627 5.373 12 12 12h47.385c6.863 0 12.328-5.745 11.985-12.599l-4.129-82.575C112.725 470.166 180.405 504 256 504c121.187 0 222.067-86.924 243.704-201.824 1.388-7.369-4.308-14.176-11.807-14.176h-49.084c-5.57 0-10.377 3.842-11.676 9.259C408.593 374.592 339.069 432 256 432z" class="compassNav" transform="translate(631, 10) scale(0.02)" style="fill: #666666; stroke: #666666; stroke-width: 1px;"></path><circle cx="658" cy="15" r="10" class="compassNav" style="fill: #ffffff; stroke: #666666; stroke-width: 1px;"></circle><line class="compassNav" stroke-width="2" stroke="#666666" x1="654" y1="15" x2="662" y2="15"></line><line class="compassNav" stroke-width="2" stroke="#666666" x1="658" y1="11" x2="658" y2="19"></line><circle cx="614" cy="15" r="10" class="compassNav" style="fill: #ffffff; stroke: #666666; stroke-width: 1px;"></circle><line class="compassNav" stroke-width="2" stroke="#666666" x1="610" y1="15" x2="618" y2="15"></line><path d="M582 14 l20 -12 a100,40 0 0,0 0,24z" class="compassNav" style="fill: #ffffff; stroke: #666666; stroke-width: 1px;"></path><path d="M690 14 l-20 -12 a100,40 0 0,1 0,24z" class="compassNav" style="fill: #ffffff; stroke: #666666; stroke-width: 1px;"></path><path d="M216 0h80c13.3 0 24 10.7 24 24v168h87.7c17.8 0 26.7 21.5 14.1 34.1L269.7 378.3c-7.5 7.5-19.8 7.5-27.3 0L90.1 226.1c-12.6-12.6-3.7-34.1 14.1-34.1H192V24c0-13.3 10.7-24 24-24zm296 376v112c0 13.3-10.7 24-24 24H24c-13.3 0-24-10.7-24-24V376c0-13.3 10.7-24 24-24h146.7l49 49c20.1 20.1 52.5 20.1 72.6 0l49-49H488c13.3 0 24 10.7 24 24zm-124 88c0-11-9-20-20-20s-20 9-20 20 9 20 20 20 20-9 20-20zm64 0c0-11-9-20-20-20s-20 9-20 20 9 20 20 20 20-9 20-20z" class="compassNav" transform="translate(552,0) scale(0.05)" style="fill: #336699; stroke: #336699; stroke-width: 1px; cursor: pointer;"></path></g></svg>