<svg width="800" height="400" style="background-color: white;"><g transform="translate(50,0)"><svg width="700" height="360"><g style="-webkit-tap-highlight-color: rgba(0, 0, 0, 0);"><rect width="700" height="360" style="fill: #ffffff;"></rect><g id="lines"><line class="line" stroke-width="1" stroke="#d7301f" x1="-508.6330935251799" y1="333" x2="-508.6330935251799" y2="360" visibility="hidden" style="stroke-dasharray: 3px, 3px;"></line></g><g><rect x="-513.6330935251799" y="355" width="10" height="10" visibility="hidden" style="fill: #ffffff; stroke: #d7301f;"></rect></g><g id="lines"><line class="line" stroke-width="1" stroke="#6a51a3" x1="569.0647482014389" y1="333" x2="569.0647482014389" y2="327.27272727272725" visibility="hidden" style="stroke-dasharray: 3px, 3px;"></line><line class="line" stroke-width="1" stroke="#6a51a3" x1="589.2086330935251" y1="333" x2="589.2086330935251" y2="327.27272727272725" visibility="hidden" style="stroke-dasharray: 3px, 3px;"></line><line class="line" stroke-width="1" stroke="#6a51a3" x1="352.51798561151077" y1="333" x2="352.51798561151077" y2="327.27272727272725" visibility="hidden" style="stroke-dasharray: 3px, 3px;"></line></g><g><rect x="564.0647482014389" y="322.27272727272725" width="10" height="10" visibility="hidden" style="fill: #ffffff; stroke: #6a51a3;"></rect><rect x="584.2086330935251" y="322.27272727272725" width="10" height="10" visibility="hidden" style="fill: #ffffff; stroke: #6a51a3;"></rect><rect x="347.51798561151077" y="322.27272727272725" width="10" height="10" visibility="hidden" style="fill: #ffffff; stroke: #6a51a3;"></rect></g><g id="lines"><line class="line" stroke-width="1" stroke="#666666" x1="30.215827338129497" y1="333" x2="30.215827338129497" y2="326.38460589613913"></line><line class="line" stroke-width="1" stroke="#666666" x1="75.53956834532374" y1="333" x2="75.53956834532374" y2="326.8286665844332"></line><line class="line" stroke-width="1" stroke="#666666" x1="120.86330935251799" y1="333" x2="120.86330935251799" y2="325.05242383125693"></line><line class="line" stroke-width="1" stroke="#666666" x1="135.97122302158274" y1="333" x2="135.97122302158274" y2="325.496484519551"></line><line class="line" stroke-width="1" stroke="#666666" x1="146.0431654676259" y1="333" x2="146.0431654676259" y2="325.94054520784505"></line><line class="line" stroke-width="1" stroke="#666666" x1="186.33093525179856" y1="333" x2="186.33093525179856" y2="325.496484519551"></line><line class="line" stroke-width="1" stroke="#666666" x1="186.33093525179856" y1="333" x2="186.33093525179856" y2="325.05242383125693"></line><line class="line" stroke-width="1" stroke="#666666" x1="186.33093525179856" y1="333" x2="186.33093525179856" y2="326.8286665844332"></line><line class="line" stroke-width="1" stroke="#666666" x1="191.36690647482015" y1="333" x2="191.36690647482015" y2="326.8286665844332"></line><line class="line" stroke-width="1" stroke="#666666" x1="206.4748201438849" y1="333" x2="206.4748201438849" y2="325.94054520784505"></line><line class="line" stroke-width="1" stroke="#666666" x1="216.54676258992808" y1="333" x2="216.54676258992808" y2="326.38460589613913"></line><line class="line" stroke-width="1" stroke="#666666" x1="266.9064748201439" y1="333" x2="266.9064748201439" y2="325.94054520784505"></line><line class="line" stroke-width="1" stroke="#666666" x1="266.9064748201439" y1="333" x2="266.9064748201439" y2="326.8286665844332"></line><line class="line" stroke-width="1" stroke="#666666" x1="266.9064748201439" y1="333" x2="266.9064748201439" y2="275.76168743061555"></line><line class="line" stroke-width="1" stroke="#666666" x1="266.9064748201439" y1="333" x2="266.9064748201439" y2="326.8286665844332"></line><line class="line" stroke-width="1" stroke="#666666" x1="276.978417266187" y1="333" x2="276.978417266187" y2="326.8286665844332"></line><line class="line" stroke-width="1" stroke="#666666" x1="282.0143884892086" y1="333" x2="282.0143884892086" y2="325.05242383125693"></line><line class="line" stroke-width="1" stroke="#666666" x1="287.0503597122302" y1="333" x2="287.0503597122302" y2="326.38460589613913"></line><line class="line" stroke-width="1" stroke="#666666" x1="297.1223021582734" y1="333" x2="297.1223021582734" y2="298.852843221907"></line><line class="line" stroke-width="1" stroke="#666666" x1="322.30215827338134" y1="333" x2="322.30215827338134" y2="324.1643024546688"></line><line class="line" stroke-width="1" stroke="#666666" x1="347.48201438848923" y1="333" x2="347.48201438848923" y2="285.97508326137904"></line><line class="line" stroke-width="1" stroke="#666666" x1="347.48201438848923" y1="333" x2="347.48201438848923" y2="326.8286665844332"></line><line class="line" stroke-width="1" stroke="#666666" x1="357.5539568345324" y1="333" x2="357.5539568345324" y2="325.496484519551"></line><line class="line" stroke-width="1" stroke="#666666" x1="382.7338129496403" y1="333" x2="382.7338129496403" y2="325.496484519551"></line><line class="line" stroke-width="1" stroke="#666666" x1="423.021582733813" y1="333" x2="423.021582733813" y2="325.94054520784505"></line><line class="line" stroke-width="1" stroke="#666666" x1="448.2014388489209" y1="333" x2="448.2014388489209" y2="325.94054520784505"></line><line class="line" stroke-width="1" stroke="#666666" x1="453.2374100719424" y1="333" x2="453.2374100719424" y2="326.38460589613913"></line><line class="line" stroke-width="1" stroke="#666666" x1="453.2374100719424" y1="333" x2="453.2374100719424" y2="317.9474528185519"></line><line class="line" stroke-width="1" stroke="#666666" x1="458.27338129496405" y1="333" x2="458.27338129496405" y2="324.60836314296284"></line><line class="line" stroke-width="1" stroke="#666666" x1="463.3093525179856" y1="333" x2="463.3093525179856" y2="324.60836314296284"></line><line class="line" stroke-width="1" stroke="#666666" x1="488.48920863309354" y1="333" x2="488.48920863309354" y2="325.496484519551"></line><line class="line" stroke-width="1" stroke="#666666" x1="508.6330935251799" y1="333" x2="508.6330935251799" y2="326.8286665844332"></line><line class="line" stroke-width="1" stroke="#666666" x1="518.705035971223" y1="333" x2="518.705035971223" y2="326.38460589613913"></line><line class="line" stroke-width="1" stroke="#666666" x1="523.7410071942446" y1="333" x2="523.7410071942446" y2="324.60836314296284"></line><line class="line" stroke-width="1" stroke="#666666" x1="523.7410071942446" y1="333" x2="523.7410071942446" y2="282.8666584433206"></line><line class="line" stroke-width="1" stroke="#666666" x1="523.7410071942446" y1="333" x2="523.7410071942446" y2="326.8286665844332"></line><line class="line" stroke-width="1" stroke="#666666" x1="528.7769784172662" y1="333" x2="528.7769784172662" y2="326.8286665844332"></line><line class="line" stroke-width="1" stroke="#666666" x1="538.8489208633093" y1="333" x2="538.8489208633093" y2="325.05242383125693"></line><line class="line" stroke-width="1" stroke="#666666" x1="538.8489208633093" y1="333" x2="538.8489208633093" y2="324.1643024546688"></line><line class="line" stroke-width="1" stroke="#666666" x1="543.884892086331" y1="333" x2="543.884892086331" y2="325.94054520784505"></line><line class="line" stroke-width="1" stroke="#666666" x1="579.1366906474819" y1="333" x2="579.1366906474819" y2="326.8286665844332"></line><line class="line" stroke-width="1" stroke="#666666" x1="579.1366906474819" y1="333" x2="579.1366906474819" y2="326.8286665844332"></line><line class="line" stroke-width="1" stroke="#666666" x1="629.4964028776978" y1="333" x2="629.4964028776978" y2="321.0558776366103"></line><line class="line" stroke-width="1" stroke="#666666" x1="629.4964028776978" y1="333" x2="629.4964028776978" y2="287.75132601455533"></line><line class="line" stroke-width="1" stroke="#666666" x1="629.4964028776978" y1="333" x2="629.4964028776978" y2="326.8286665844332"></line><line class="line" stroke-width="1" stroke="#666666" x1="634.5323741007195" y1="333" x2="634.5323741007195" y2="325.05242383125693"></line><line class="line" stroke-width="1" stroke="#666666" x1="644.6043165467627" y1="333" x2="644.6043165467627" y2="29.752066115702462"></line><line class="line" stroke-width="1" stroke="#666666" x1="664.7482014388489" y1="333" x2="664.7482014388489" y2="326.38460589613913"></line><line class="line" stroke-width="1" stroke="#666666" x1="689.9280575539568" y1="333" x2="689.9280575539568" y2="324.1643024546688"></line><line class="line" stroke-width="1" stroke="#666666" x1="700" y1="333" x2="700" y2="326.8286665844332"></line></g><g id="circles"><circle r="4" cx="30.215827338129497" cy="326.38460589613913" style="fill: #4393c3; stroke: #666666; stroke-width: 1px;"></circle><circle r="4" cx="75.53956834532374" cy="326.8286665844332" style="fill: #4393c3; stroke: #666666; stroke-width: 1px;"></circle><circle r="4" cx="120.86330935251799" cy="325.05242383125693" style="fill: #4393c3; stroke: #666666; stroke-width: 1px;"></circle><circle r="4" cx="135.97122302158274" cy="325.496484519551" style="fill: #4393c3; stroke: #666666; stroke-width: 1px;"></circle><circle r="4" cx="146.0431654676259" cy="325.94054520784505" style="fill: #4393c3; stroke: #666666; stroke-width: 1px;"></circle><circle r="4" cx="186.33093525179856" cy="325.496484519551" style="fill: #5aae61; stroke: #666666; stroke-width: 1px;"></circle><circle r="4" cx="186.33093525179856" cy="325.05242383125693" style="fill: #bf812d; stroke: #666666; stroke-width: 1px;"></circle><circle r="4" cx="186.33093525179856" cy="326.8286665844332" style="fill: #666666; stroke: #666666; stroke-width: 1px;"></circle><circle r="4" cx="191.36690647482015" cy="326.8286665844332" style="fill: #4393c3; stroke: #666666; stroke-width: 1px;"></circle><circle r="4" cx="206.4748201438849" cy="325.94054520784505" style="fill: #4393c3; stroke: #666666; stroke-width: 1px;"></circle><circle r="4" cx="216.54676258992808" cy="326.38460589613913" style="fill: #4393c3; stroke: #666666; stroke-width: 1px;"></circle><circle r="4" cx="266.9064748201439" cy="325.94054520784505" style="fill: #5aae61; stroke: #666666; stroke-width: 1px;"></circle><circle r="4" cx="266.9064748201439" cy="326.8286665844332" style="fill: #666666; stroke: #666666; stroke-width: 1px;"></circle><circle r="4" cx="266.9064748201439" cy="275.76168743061555" style="fill: #bf812d; stroke: #666666; stroke-width: 1px;"></circle><circle r="4" cx="266.9064748201439" cy="326.8286665844332" style="fill: #666666; stroke: #666666; stroke-width: 1px;"></circle><circle r="4" cx="276.978417266187" cy="326.8286665844332" style="fill: #666666; stroke: #666666; stroke-width: 1px;"></circle><circle r="4" cx="282.0143884892086" cy="325.05242383125693" style="fill: #4393c3; stroke: #666666; stroke-width: 1px;"></circle><circle r="4" cx="287.0503597122302" cy="326.38460589613913" style="fill: #4393c3; stroke: #666666; stroke-width: 1px;"></circle><circle r="4" cx="297.1223021582734" cy="298.852843221907" style="fill: #4393c3; stroke: #666666; stroke-width: 1px;"></circle><circle r="4" cx="322.30215827338134" cy="324.1643024546688" style="fill: #4393c3; stroke: #666666; stroke-width: 1px;"></circle><circle r="4" cx="347.48201438848923" cy="285.97508326137904" style="fill: #bf812d; stroke: #666666; stroke-width: 1px;"></circle><circle r="4" cx="347.48201438848923" cy="326.8286665844332" style="fill: #666666; stroke: #666666; stroke-width: 1px;"></circle><circle r="4" cx="357.5539568345324" cy="325.496484519551" style="fill: #4393c3; stroke: #666666; stroke-width: 1px;"></circle><circle r="4" cx="382.7338129496403" cy="325.496484519551" style="fill: #4393c3; stroke: #666666; stroke-width: 1px;"></circle><circle r="4" cx="423.021582733813" cy="325.94054520784505" style="fill: #4393c3; stroke: #666666; stroke-width: 1px;"></circle><circle r="4" cx="448.2014388489209" cy="325.94054520784505" style="fill: #4393c3; stroke: #666666; stroke-width: 1px;"></circle><circle r="4" cx="453.2374100719424" cy="326.38460589613913" style="fill: #5aae61; stroke: #666666; stroke-width: 1px;"></circle><circle r="4" cx="453.2374100719424" cy="317.9474528185519" style="fill: #bf812d; stroke: #666666; stroke-width: 1px;"></circle><circle r="4" cx="458.27338129496405" cy="324.60836314296284" style="fill: #4393c3; stroke: #666666; stroke-width: 1px;"></circle><circle r="4" cx="463.3093525179856" cy="324.60836314296284" style="fill: #4393c3; stroke: #666666; stroke-width: 1px;"></circle><circle r="4" cx="488.48920863309354" cy="325.496484519551" style="fill: #4393c3; stroke: #666666; stroke-width: 1px;"></circle><circle r="4" cx="508.6330935251799" cy="326.8286665844332" style="fill: #4393c3; stroke: #666666; stroke-width: 1px;"></circle><circle r="4" cx="518.705035971223" cy="326.38460589613913" style="fill: #4393c3; stroke: #666666; stroke-width: 1px;"></circle><circle r="4" cx="523.7410071942446" cy="324.60836314296284" style="fill: #5aae61; stroke: #666666; stroke-width: 1px;"></circle><circle r="4" cx="523.7410071942446" cy="282.8666584433206" style="fill: #bf812d; stroke: #666666; stroke-width: 1px;"></circle><circle r="4" cx="523.7410071942446" cy="326.8286665844332" style="fill: #666666; stroke: #666666; stroke-width: 1px;"></circle><circle r="4" cx="528.7769784172662" cy="326.8286665844332" style="fill: #4393c3; stroke: #666666; stroke-width: 1px;"></circle><circle r="4" cx="538.8489208633093" cy="325.05242383125693" style="fill: #5aae61; stroke: #666666; stroke-width: 1px;"></circle><circle r="4" cx="538.8489208633093" cy="324.1643024546688" style="fill: #bf812d; stroke: #666666; stroke-width: 1px;"></circle><circle r="4" cx="543.884892086331" cy="325.94054520784505" style="fill: #4393c3; stroke: #666666; stroke-width: 1px;"></circle><circle r="4" cx="579.1366906474819" cy="326.8286665844332" style="fill: #bf812d; stroke: #666666; stroke-width: 1px;"></circle><circle r="4" cx="579.1366906474819" cy="326.8286665844332" style="fill: #666666; stroke: #666666; stroke-width: 1px;"></circle><circle r="4" cx="629.4964028776978" cy="321.0558776366103" style="fill: #5aae61; stroke: #666666; stroke-width: 1px;"></circle><circle r="4" cx="629.4964028776978" cy="287.75132601455533" style="fill: #bf812d; stroke: #666666; stroke-width: 1px;"></circle><circle r="4" cx="629.4964028776978" cy="326.8286665844332" style="fill: #666666; stroke: #666666; stroke-width: 1px;"></circle><circle r="4" cx="634.5323741007195" cy="325.05242383125693" style="fill: #bf812d; stroke: #666666; stroke-width: 1px;"></circle><circle r="4" cx="644.6043165467627" cy="29.752066115702462" style="fill: #4393c3; stroke: #666666; stroke-width: 1px;"></circle><circle r="4" cx="664.7482014388489" cy="326.38460589613913" style="fill: #4393c3; stroke: #666666; stroke-width: 1px;"></circle><circle r="4" cx="689.9280575539568" cy="324.1643024546688" style="fill: #4393c3; stroke: #666666; stroke-width: 1px;"></circle><circle r="4" cx="700" cy="326.8286665844332" style="fill: #4393c3; stroke: #666666; stroke-width: 1px;"></circle></g><g><rect x="0" y="333" width="700" height="12" style="fill: #ffffff; stroke-width: 1px; stroke: #666666;"></rect><rect x="5.035971223021583" y="333" width="694.9640287769785" height="12" style="fill: #aec7e8; stroke-width: 1px; stroke: #666666;"></rect></g><g><a target="_blank" xlink:href="http://pfam.xfam.org/family/"><text y="343" x="350" text-anchor="middle" style="color: rgb(102, 102, 102); font-weight: normal; font-size: 12px; font-family: Arial; cursor: pointer;"></text></a><a target="_blank" xlink:href="http://pfam.xfam.org/family/Profilin"><text y="343" x="352.51798561151077" text-anchor="middle" style="color: rgb(102, 102, 102); font-weight: normal; font-size: 12px; font-family: Arial; cursor: pointer;">Profilin</text></a></g><g><text y="358" x="0" text-anchor="middle" visibility="hidden" style="font-size: 13px;">M</text><text y="358" x="5.035971223021583" text-anchor="middle" visibility="hidden" style="font-size: 13px;">A</text><text y="358" x="10.071942446043167" text-anchor="middle" visibility="hidden" style="font-size: 13px;">G</text><text y="358" x="15.107913669064748" text-anchor="middle" visibility="hidden" style="font-size: 13px;">W</text><text y="358" x="20.143884892086334" text-anchor="middle" visibility="hidden" style="font-size: 13px;">N</text><text y="358" x="25.179856115107913" text-anchor="middle" visibility="hidden" style="font-size: 13px;">A</text><text y="358" x="30.215827338129497" text-anchor="middle" visibility="hidden" style="font-size: 13px;">Y</text><text y="358" x="35.25179856115108" text-anchor="middle" visibility="hidden" style="font-size: 13px;">I</text><text y="358" x="40.28776978417267" text-anchor="middle" visibility="hidden" style="font-size: 13px;">D</text><text y="358" x="45.32374100719424" text-anchor="middle" visibility="hidden" style="font-size: 13px;">N</text><text y="358" x="50.35971223021583" text-anchor="middle" visibility="hidden" style="font-size: 13px;">L</text><text y="358" x="55.3956834532374" text-anchor="middle" visibility="hidden" style="font-size: 13px;">M</text><text y="358" x="60.431654676258994" text-anchor="middle" visibility="hidden" style="font-size: 13px;">A</text><text y="358" x="65.46762589928058" text-anchor="middle" visibility="hidden" style="font-size: 13px;">D</text><text y="358" x="70.50359712230215" text-anchor="middle" visibility="hidden" style="font-size: 13px;">G</text><text y="358" x="75.53956834532374" text-anchor="middle" visibility="hidden" style="font-size: 13px;">T</text><text y="358" x="80.57553956834533" text-anchor="middle" visibility="hidden" style="font-size: 13px;">C</text><text y="358" x="85.61151079136691" text-anchor="middle" visibility="hidden" style="font-size: 13px;">Q</text><text y="358" x="90.64748201438849" text-anchor="middle" visibility="hidden" style="font-size: 13px;">D</text><text y="358" x="95.68345323741008" text-anchor="middle" visibility="hidden" style="font-size: 13px;">A</text><text y="358" x="100.71942446043165" text-anchor="middle" visibility="hidden" style="font-size: 13px;">A</text><text y="358" x="105.75539568345324" text-anchor="middle" visibility="hidden" style="font-size: 13px;">I</text><text y="358" x="110.7913669064748" text-anchor="middle" visibility="hidden" style="font-size: 13px;">V</text><text y="358" x="115.8273381294964" text-anchor="middle" visibility="hidden" style="font-size: 13px;">G</text><text y="358" x="120.86330935251799" text-anchor="middle" visibility="hidden" style="font-size: 13px;">Y</text><text y="358" x="125.89928057553956" text-anchor="middle" visibility="hidden" style="font-size: 13px;">K</text><text y="358" x="130.93525179856115" text-anchor="middle" visibility="hidden" style="font-size: 13px;">D</text><text y="358" x="135.97122302158274" text-anchor="middle" visibility="hidden" style="font-size: 13px;">S</text><text y="358" x="141.0071942446043" text-anchor="middle" visibility="hidden" style="font-size: 13px;">P</text><text y="358" x="146.0431654676259" text-anchor="middle" visibility="hidden" style="font-size: 13px;">S</text><text y="358" x="151.0791366906475" text-anchor="middle" visibility="hidden" style="font-size: 13px;">V</text><text y="358" x="156.11510791366908" text-anchor="middle" visibility="hidden" style="font-size: 13px;">W</text><text y="358" x="161.15107913669067" text-anchor="middle" visibility="hidden" style="font-size: 13px;">A</text><text y="358" x="166.18705035971223" text-anchor="middle" visibility="hidden" style="font-size: 13px;">A</text><text y="358" x="171.22302158273382" text-anchor="middle" visibility="hidden" style="font-size: 13px;">V</text><text y="358" x="176.25899280575538" text-anchor="middle" visibility="hidden" style="font-size: 13px;">P</text><text y="358" x="181.29496402877697" text-anchor="middle" visibility="hidden" style="font-size: 13px;">G</text><text y="358" x="186.33093525179856" text-anchor="middle" visibility="hidden" style="font-size: 13px;">K</text><text y="358" x="191.36690647482015" text-anchor="middle" visibility="hidden" style="font-size: 13px;">T</text><text y="358" x="196.40287769784172" text-anchor="middle" visibility="hidden" style="font-size: 13px;">F</text><text y="358" x="201.4388489208633" text-anchor="middle" visibility="hidden" style="font-size: 13px;">V</text><text y="358" x="206.4748201438849" text-anchor="middle" visibility="hidden" style="font-size: 13px;">N</text><text y="358" x="211.5107913669065" text-anchor="middle" visibility="hidden" style="font-size: 13px;">I</text><text y="358" x="216.54676258992808" text-anchor="middle" visibility="hidden" style="font-size: 13px;">T</text><text y="358" x="221.5827338129496" text-anchor="middle" visibility="hidden" style="font-size: 13px;">P</text><text y="358" x="226.6187050359712" text-anchor="middle" visibility="hidden" style="font-size: 13px;">A</text><text y="358" x="231.6546762589928" text-anchor="middle" visibility="hidden" style="font-size: 13px;">E</text><text y="358" x="236.69064748201438" text-anchor="middle" visibility="hidden" style="font-size: 13px;">V</text><text y="358" x="241.72661870503597" text-anchor="middle" visibility="hidden" style="font-size: 13px;">G</text><text y="358" x="246.76258992805754" text-anchor="middle" visibility="hidden" style="font-size: 13px;">V</text><text y="358" x="251.79856115107913" text-anchor="middle" visibility="hidden" style="font-size: 13px;">L</text><text y="358" x="256.8345323741007" text-anchor="middle" visibility="hidden" style="font-size: 13px;">V</text><text y="358" x="261.8705035971223" text-anchor="middle" visibility="hidden" style="font-size: 13px;">G</text><text y="358" x="266.9064748201439" text-anchor="middle" visibility="hidden" style="font-size: 13px;">K</text><text y="358" x="271.9424460431655" text-anchor="middle" visibility="hidden" style="font-size: 13px;">D</text><text y="358" x="276.978417266187" text-anchor="middle" visibility="hidden" style="font-size: 13px;">R</text><text y="358" x="282.0143884892086" text-anchor="middle" visibility="hidden" style="font-size: 13px;">S</text><text y="358" x="287.0503597122302" text-anchor="middle" visibility="hidden" style="font-size: 13px;">S</text><text y="358" x="292.0863309352518" text-anchor="middle" visibility="hidden" style="font-size: 13px;">F</text><text y="358" x="297.1223021582734" text-anchor="middle" visibility="hidden" style="font-size: 13px;">Y</text><text y="358" x="302.158273381295" text-anchor="middle" visibility="hidden" style="font-size: 13px;">V</text><text y="358" x="307.19424460431657" text-anchor="middle" visibility="hidden" style="font-size: 13px;">N</text><text y="358" x="312.23021582733816" text-anchor="middle" visibility="hidden" style="font-size: 13px;">G</text><text y="358" x="317.26618705035975" text-anchor="middle" visibility="hidden" style="font-size: 13px;">L</text><text y="358" x="322.30215827338134" text-anchor="middle" visibility="hidden" style="font-size: 13px;">T</text><text y="358" x="327.33812949640287" text-anchor="middle" visibility="hidden" style="font-size: 13px;">L</text><text y="358" x="332.37410071942446" text-anchor="middle" visibility="hidden" style="font-size: 13px;">G</text><text y="358" x="337.41007194244605" text-anchor="middle" visibility="hidden" style="font-size: 13px;">G</text><text y="358" x="342.44604316546764" text-anchor="middle" visibility="hidden" style="font-size: 13px;">Q</text><text y="358" x="347.48201438848923" text-anchor="middle" visibility="hidden" style="font-size: 13px;">K</text><text y="358" x="352.51798561151077" text-anchor="middle" visibility="hidden" style="font-size: 13px;">C</text><text y="358" x="357.5539568345324" text-anchor="middle" visibility="hidden" style="font-size: 13px;">S</text><text y="358" x="362.58992805755395" text-anchor="middle" visibility="hidden" style="font-size: 13px;">V</text><text y="358" x="367.6258992805755" text-anchor="middle" visibility="hidden" style="font-size: 13px;">I</text><text y="358" x="372.66187050359713" text-anchor="middle" visibility="hidden" style="font-size: 13px;">R</text><text y="358" x="377.69784172661866" text-anchor="middle" visibility="hidden" style="font-size: 13px;">D</text><text y="358" x="382.7338129496403" text-anchor="middle" visibility="hidden" style="font-size: 13px;">S</text><text y="358" x="387.76978417266184" text-anchor="middle" visibility="hidden" style="font-size: 13px;">L</text><text y="358" x="392.80575539568343" text-anchor="middle" visibility="hidden" style="font-size: 13px;">L</text><text y="358" x="397.841726618705" text-anchor="middle" visibility="hidden" style="font-size: 13px;">Q</text><text y="358" x="402.8776978417266" text-anchor="middle" visibility="hidden" style="font-size: 13px;">D</text><text y="358" x="407.9136690647482" text-anchor="middle" visibility="hidden" style="font-size: 13px;">G</text><text y="358" x="412.9496402877698" text-anchor="middle" visibility="hidden" style="font-size: 13px;">E</text><text y="358" x="417.98561151079133" text-anchor="middle" visibility="hidden" style="font-size: 13px;">F</text><text y="358" x="423.021582733813" text-anchor="middle" visibility="hidden" style="font-size: 13px;">S</text><text y="358" x="428.0575539568345" text-anchor="middle" visibility="hidden" style="font-size: 13px;">M</text><text y="358" x="433.09352517985616" text-anchor="middle" visibility="hidden" style="font-size: 13px;">D</text><text y="358" x="438.1294964028777" text-anchor="middle" visibility="hidden" style="font-size: 13px;">L</text><text y="358" x="443.1654676258992" text-anchor="middle" visibility="hidden" style="font-size: 13px;">R</text><text y="358" x="448.2014388489209" text-anchor="middle" visibility="hidden" style="font-size: 13px;">T</text><text y="358" x="453.2374100719424" text-anchor="middle" visibility="hidden" style="font-size: 13px;">K</text><text y="358" x="458.27338129496405" text-anchor="middle" visibility="hidden" style="font-size: 13px;">S</text><text y="358" x="463.3093525179856" text-anchor="middle" visibility="hidden" style="font-size: 13px;">T</text><text y="358" x="468.3453237410072" text-anchor="middle" visibility="hidden" style="font-size: 13px;">G</text><text y="358" x="473.38129496402877" text-anchor="middle" visibility="hidden" style="font-size: 13px;">G</text><text y="358" x="478.41726618705036" text-anchor="middle" visibility="hidden" style="font-size: 13px;">A</text><text y="358" x="483.45323741007195" text-anchor="middle" visibility="hidden" style="font-size: 13px;">P</text><text y="358" x="488.48920863309354" text-anchor="middle" visibility="hidden" style="font-size: 13px;">T</text><text y="358" x="493.5251798561151" text-anchor="middle" visibility="hidden" style="font-size: 13px;">F</text><text y="358" x="498.5611510791367" text-anchor="middle" visibility="hidden" style="font-size: 13px;">N</text><text y="358" x="503.59712230215825" text-anchor="middle" visibility="hidden" style="font-size: 13px;">V</text><text y="358" x="508.6330935251799" text-anchor="middle" visibility="hidden" style="font-size: 13px;">T</text><text y="358" x="513.6690647482014" text-anchor="middle" visibility="hidden" style="font-size: 13px;">V</text><text y="358" x="518.705035971223" text-anchor="middle" visibility="hidden" style="font-size: 13px;">T</text><text y="358" x="523.7410071942446" text-anchor="middle" visibility="hidden" style="font-size: 13px;">K</text><text y="358" x="528.7769784172662" text-anchor="middle" visibility="hidden" style="font-size: 13px;">T</text><text y="358" x="533.8129496402878" text-anchor="middle" visibility="hidden" style="font-size: 13px;">D</text><text y="358" x="538.8489208633093" text-anchor="middle" visibility="hidden" style="font-size: 13px;">K</text><text y="358" x="543.884892086331" text-anchor="middle" visibility="hidden" style="font-size: 13px;">T</text><text y="358" x="548.9208633093525" text-anchor="middle" visibility="hidden" style="font-size: 13px;">L</text><text y="358" x="553.956834532374" text-anchor="middle" visibility="hidden" style="font-size: 13px;">V</text><text y="358" x="558.9928057553957" text-anchor="middle" visibility="hidden" style="font-size: 13px;">L</text><text y="358" x="564.0287769784172" text-anchor="middle" visibility="hidden" style="font-size: 13px;">L</text><text y="358" x="569.0647482014389" text-anchor="middle" visibility="hidden" style="font-size: 13px;">M</text><text y="358" x="574.1007194244604" text-anchor="middle" visibility="hidden" style="font-size: 13px;">G</text><text y="358" x="579.1366906474819" text-anchor="middle" visibility="hidden" style="font-size: 13px;">K</text><text y="358" x="584.1726618705036" text-anchor="middle" visibility="hidden" style="font-size: 13px;">E</text><text y="358" x="589.2086330935251" text-anchor="middle" visibility="hidden" style="font-size: 13px;">G</text><text y="358" x="594.2446043165468" text-anchor="middle" visibility="hidden" style="font-size: 13px;">V</text><text y="358" x="599.2805755395683" text-anchor="middle" visibility="hidden" style="font-size: 13px;">H</text><text y="358" x="604.31654676259" text-anchor="middle" visibility="hidden" style="font-size: 13px;">G</text><text y="358" x="609.3525179856115" text-anchor="middle" visibility="hidden" style="font-size: 13px;">G</text><text y="358" x="614.3884892086331" text-anchor="middle" visibility="hidden" style="font-size: 13px;">L</text><text y="358" x="619.4244604316547" text-anchor="middle" visibility="hidden" style="font-size: 13px;">I</text><text y="358" x="624.4604316546763" text-anchor="middle" visibility="hidden" style="font-size: 13px;">N</text><text y="358" x="629.4964028776978" text-anchor="middle" visibility="hidden" style="font-size: 13px;">K</text><text y="358" x="634.5323741007195" text-anchor="middle" visibility="hidden" style="font-size: 13px;">K</text><text y="358" x="639.568345323741" text-anchor="middle" visibility="hidden" style="font-size: 13px;">C</text><text y="358" x="644.6043165467627" text-anchor="middle" visibility="hidden" style="font-size: 13px;">Y</text><text y="358" x="649.6402877697842" text-anchor="middle" visibility="hidden" style="font-size: 13px;">E</text><text y="358" x="654.6762589928057" text-anchor="middle" visibility="hidden" style="font-size: 13px;">M</text><text y="358" x="659.7122302158274" text-anchor="middle" visibility="hidden" style="font-size: 13px;">A</text><text y="358" x="664.7482014388489" text-anchor="middle" visibility="hidden" style="font-size: 13px;">S</text><text y="358" x="669.7841726618706" text-anchor="middle" visibility="hidden" style="font-size: 13px;">H</text><text y="358" x="674.8201438848921" text-anchor="middle" visibility="hidden" style="font-size: 13px;">L</text><text y="358" x="679.8561151079136" text-anchor="middle" visibility="hidden" style="font-size: 13px;">R</text><text y="358" x="684.8920863309353" text-anchor="middle" visibility="hidden" style="font-size: 13px;">R</text><text y="358" x="689.9280575539568" text-anchor="middle" visibility="hidden" style="font-size: 13px;">S</text><text y="358" x="694.9640287769785" text-anchor="middle" visibility="hidden" style="font-size: 13px;">Q</text><text y="358" x="700" text-anchor="middle" visibility="hidden" style="font-size: 13px;">Y</text></g></g></svg><g class="xAxis" transform="translate(0,360)" fill="none" font-size="10" font-family="sans-serif" text-anchor="middle"><path class="domain" stroke="#000" d="M0.5,6V0.5H700.5V6"></path><g class="tick" opacity="1" transform="translate(45.82374100719424,0)"><line stroke="#000" y2="6"></line><text fill="#000" y="9" dy="0.71em">10</text></g><g class="tick" opacity="1" transform="translate(96.18345323741008,0)"><line stroke="#000" y2="6"></line><text fill="#000" y="9" dy="0.71em">20</text></g><g class="tick" opacity="1" transform="translate(146.5431654676259,0)"><line stroke="#000" y2="6"></line><text fill="#000" y="9" dy="0.71em">30</text></g><g class="tick" opacity="1" transform="translate(196.90287769784172,0)"><line stroke="#000" y2="6"></line><text fill="#000" y="9" dy="0.71em">40</text></g><g class="tick" opacity="1" transform="translate(247.26258992805754,0)"><line stroke="#000" y2="6"></line><text fill="#000" y="9" dy="0.71em">50</text></g><g class="tick" opacity="1" transform="translate(297.6223021582734,0)"><line stroke="#000" y2="6"></line><text fill="#000" y="9" dy="0.71em">60</text></g><g class="tick" opacity="1" transform="translate(347.98201438848923,0)"><line stroke="#000" y2="6"></line><text fill="#000" y="9" dy="0.71em">70</text></g><g class="tick" opacity="1" transform="translate(398.341726618705,0)"><line stroke="#000" y2="6"></line><text fill="#000" y="9" dy="0.71em">80</text></g><g class="tick" opacity="1" transform="translate(448.7014388489209,0)"><line stroke="#000" y2="6"></line><text fill="#000" y="9" dy="0.71em">90</text></g><g class="tick" opacity="1" transform="translate(499.0611510791367,0)"><line stroke="#000" y2="6"></line><text fill="#000" y="9" dy="0.71em">100</text></g><g class="tick" opacity="1" transform="translate(549.4208633093525,0)"><line stroke="#000" y2="6"></line><text fill="#000" y="9" dy="0.71em">110</text></g><g class="tick" opacity="1" transform="translate(599.7805755395683,0)"><line stroke="#000" y2="6"></line><text fill="#000" y="9" dy="0.71em">120</text></g><g class="tick" opacity="1" transform="translate(650.1402877697842,0)"><line stroke="#000" y2="6"></line><text fill="#000" y="9" dy="0.71em">130</text></g><g class="tick" opacity="1" transform="translate(700.5,0)"><line stroke="#000" y2="6"></line><text fill="#000" y="9" dy="0.71em">140</text></g></g><text class="x label" text-anchor="end" x="700" y="390" style="font-size: 13px; font-family: Arial;">Residue number</text><g class="yAxis" fill="none" font-size="10" font-family="sans-serif" text-anchor="end"><path class="domain" stroke="#000" d="M-6,360.5H0.5V0.5H-6"></path><g class="tick" opacity="1" transform="translate(0,327.77272727272725)"><line stroke="#000" x2="-6"></line><text fill="#000" x="-9" dy="0.32em">0</text></g><g class="tick" opacity="1" transform="translate(0,283.3666584433206)"><line stroke="#000" x2="-6"></line><text fill="#000" x="-9" dy="0.32em">100</text></g><g class="tick" opacity="1" transform="translate(0,238.96058961391392)"><line stroke="#000" x2="-6"></line><text fill="#000" x="-9" dy="0.32em">200</text></g><g class="tick" opacity="1" transform="translate(0,194.55452078450722)"><line stroke="#000" x2="-6"></line><text fill="#000" x="-9" dy="0.32em">300</text></g><g class="tick" opacity="1" transform="translate(0,150.14845195510054)"><line stroke="#000" x2="-6"></line><text fill="#000" x="-9" dy="0.32em">400</text></g><g class="tick" opacity="1" transform="translate(0,105.74238312569383)"><line stroke="#000" x2="-6"></line><text fill="#000" x="-9" dy="0.32em">500</text></g><g class="tick" opacity="1" transform="translate(0,61.33631429628713)"><line stroke="#000" x2="-6"></line><text fill="#000" x="-9" dy="0.32em">600</text></g><g class="tick" opacity="1" transform="translate(0,16.93024546688048)"><line stroke="#000" x2="-6"></line><text fill="#000" x="-9" dy="0.32em">700</text></g></g><text class="y label" text-anchor="middle" y="-50" x="-180" dy="0.8em" transform="rotate(-90)" style="font-size: 13px; font-family: Arial;">Total number of references</text><g class="axisRed" fill="none" font-size="10" font-family="sans-serif" text-anchor="start" visibility="hidden" transform="translate(700, 0)"><path class="domain" stroke="#000" d="M6,360.5H0.5V0.5H6"></path><g class="tick" opacity="1" transform="translate(0,360.5)"><line stroke="#000" x2="6"></line><text fill="#000" x="9" dy="0.32em">0</text></g><text text-anchor="start" dx="5.2em" dy="-2.6em" transform="rotate(90)" visibility="hidden" style="font-size: 12px; font-family: Arial; fill: #d7301f;">No recurrent (&gt;2) missense mutations!</text></g><g class="axisPurple" fill="none" font-size="10" font-family="sans-serif" text-anchor="start" visibility="hidden"><path class="domain" stroke="#000" d="M6,360.5H0.5V0.5H6"></path><g class="tick" opacity="1" transform="translate(0,357.52479338842977)"><line stroke="#000" x2="6"></line><text fill="#000" x="9" dy="0.32em"></text></g><g class="tick" opacity="1" transform="translate(0,327.77272727272725)"><line stroke="#000" x2="6"></line><text fill="#000" x="9" dy="0.32em">0</text></g><g class="tick" opacity="1" transform="translate(0,298.0206611570248)"><line stroke="#000" x2="6"></line><text fill="#000" x="9" dy="0.32em">0.1</text></g><g class="tick" opacity="1" transform="translate(0,268.2685950413223)"><line stroke="#000" x2="6"></line><text fill="#000" x="9" dy="0.32em">0.2</text></g><g class="tick" opacity="1" transform="translate(0,238.51652892561984)"><line stroke="#000" x2="6"></line><text fill="#000" x="9" dy="0.32em">0.3</text></g><g class="tick" opacity="1" transform="translate(0,208.76446280991738)"><line stroke="#000" x2="6"></line><text fill="#000" x="9" dy="0.32em">0.4</text></g><g class="tick" opacity="1" transform="translate(0,179.0123966942149)"><line stroke="#000" x2="6"></line><text fill="#000" x="9" dy="0.32em">0.5</text></g><g class="tick" opacity="1" transform="translate(0,149.26033057851242)"><line stroke="#000" x2="6"></line><text fill="#000" x="9" dy="0.32em">0.6</text></g><g class="tick" opacity="1" transform="translate(0,119.50826446280996)"><line stroke="#000" x2="6"></line><text fill="#000" x="9" dy="0.32em">0.7</text></g><g class="tick" opacity="1" transform="translate(0,89.75619834710744)"><line stroke="#000" x2="6"></line><text fill="#000" x="9" dy="0.32em">0.8</text></g><g class="tick" opacity="1" transform="translate(0,60.00413223140498)"><line stroke="#000" x2="6"></line><text fill="#000" x="9" dy="0.32em">0.9</text></g><g class="tick" opacity="1" transform="translate(0,30.25206611570252)"><line stroke="#000" x2="6"></line><text fill="#000" x="9" dy="0.32em">1</text></g><g class="tick" opacity="1" transform="translate(0,0.5)"><line stroke="#000" x2="6"></line><text fill="#000" x="9" dy="0.32em">1.1</text></g><text text-anchor="start" x="10" y="10" visibility="hidden" style="font-size: 12px; font-family: Arial; fill: #807dba;">Minor Allele Frequency (MAF) %</text></g><circle cx="636" cy="15" r="10" class="compassNav" style="fill: #ffffff; stroke: #666666; stroke-width: 1px;"></circle><path d="M440.935 12.574l3.966 82.766C399.416 41.904 331.674 8 256 8 134.813 8 33.933 94.924 12.296 209.824 10.908 217.193 16.604 224 24.103 224h49.084c5.57 0 10.377-3.842 11.676-9.259C103.407 137.408 172.931 80 256 80c60.893 0 114.512 30.856 146.104 77.801l-101.53-4.865c-6.845-.328-12.574 5.133-12.574 11.986v47.411c0 6.627 5.373 12 12 12h200.333c6.627 0 12-5.373 12-12V12c0-6.627-5.373-12-12-12h-47.411c-6.853 0-12.315 5.729-11.987 12.574zM256 432c-60.895 0-114.517-30.858-146.109-77.805l101.868 4.871c6.845.327 12.573-5.134 12.573-11.986v-47.412c0-6.627-5.373-12-12-12H12c-6.627 0-12 5.373-12 12V500c0 6.627 5.373 12 12 12h47.385c6.863 0 12.328-5.745 11.985-12.599l-4.129-82.575C112.725 470.166 180.405 504 256 504c121.187 0 222.067-86.924 243.704-201.824 1.388-7.369-4.308-14.176-11.807-14.176h-49.084c-5.57 0-10.377 3.842-11.676 9.259C408.593 374.592 339.069 432 256 432z" class="compassNav" transform="translate(631, 10) scale(0.02)" style="fill: #666666; stroke: #666666; stroke-width: 1px;"></path><circle cx="658" cy="15" r="10" class="compassNav" style="fill: #ffffff; stroke: #666666; stroke-width: 1px;"></circle><line class="compassNav" stroke-width="2" stroke="#666666" x1="654" y1="15" x2="662" y2="15"></line><line class="compassNav" stroke-width="2" stroke="#666666" x1="658" y1="11" x2="658" y2="19"></line><circle cx="614" cy="15" r="10" class="compassNav" style="fill: #ffffff; stroke: #666666; stroke-width: 1px;"></circle><line class="compassNav" stroke-width="2" stroke="#666666" x1="610" y1="15" x2="618" y2="15"></line><path d="M582 14 l20 -12 a100,40 0 0,0 0,24z" class="compassNav" style="fill: #ffffff; stroke: #666666; stroke-width: 1px;"></path><path d="M690 14 l-20 -12 a100,40 0 0,1 0,24z" class="compassNav" style="fill: #ffffff; stroke: #666666; stroke-width: 1px;"></path><path d="M216 0h80c13.3 0 24 10.7 24 24v168h87.7c17.8 0 26.7 21.5 14.1 34.1L269.7 378.3c-7.5 7.5-19.8 7.5-27.3 0L90.1 226.1c-12.6-12.6-3.7-34.1 14.1-34.1H192V24c0-13.3 10.7-24 24-24zm296 376v112c0 13.3-10.7 24-24 24H24c-13.3 0-24-10.7-24-24V376c0-13.3 10.7-24 24-24h146.7l49 49c20.1 20.1 52.5 20.1 72.6 0l49-49H488c13.3 0 24 10.7 24 24zm-124 88c0-11-9-20-20-20s-20 9-20 20 9 20 20 20 20-9 20-20zm64 0c0-11-9-20-20-20s-20 9-20 20 9 20 20 20 20-9 20-20z" class="compassNav" transform="translate(552,0) scale(0.05)" style="fill: #336699; stroke: #336699; stroke-width: 1px; cursor: pointer;"></path></g></svg>