<svg width="800" height="400" style="background-color: white;"><g transform="translate(50,0)"><svg width="700" height="360"><g style="-webkit-tap-highlight-color: rgba(0, 0, 0, 0);"><rect width="700" height="360" style="fill: #ffffff;"></rect><g id="lines"><line class="line" stroke-width="1" stroke="#d7301f" x1="-693.1372549019608" y1="333" x2="-693.1372549019608" y2="360" visibility="hidden" style="stroke-dasharray: 3px, 3px;"></line></g><g><rect x="-698.1372549019608" y="355" width="10" height="10" visibility="hidden" style="fill: #ffffff; stroke: #d7301f;"></rect></g><g id="lines"><line class="line" stroke-width="1" stroke="#6a51a3" x1="-693.1372549019608" y1="333" x2="-693.1372549019608" y2="327.27272727272725" visibility="hidden" style="stroke-dasharray: 3px, 3px;"></line></g><g><rect x="-698.1372549019608" y="322.27272727272725" width="10" height="10" visibility="hidden" style="fill: #ffffff; stroke: #6a51a3;"></rect></g><g id="lines"><line class="line" stroke-width="1" stroke="#666666" x1="144.11764705882354" y1="333" x2="144.11764705882354" y2="208.26446280991735"></line><line class="line" stroke-width="1" stroke="#666666" x1="164.7058823529412" y1="333" x2="164.7058823529412" y2="208.26446280991735"></line><line class="line" stroke-width="1" stroke="#666666" x1="185.2941176470588" y1="333" x2="185.2941176470588" y2="208.26446280991735"></line><line class="line" stroke-width="1" stroke="#666666" x1="555.8823529411765" y1="333" x2="555.8823529411765" y2="29.75206611570252"></line><line class="line" stroke-width="1" stroke="#666666" x1="624.5098039215686" y1="333" x2="624.5098039215686" y2="267.7685950413223"></line></g><g id="circles"><circle r="4" cx="144.11764705882354" cy="208.26446280991735" style="fill: #4393c3; stroke: #666666; stroke-width: 1px;"></circle><circle r="4" cx="164.7058823529412" cy="208.26446280991735" style="fill: #4393c3; stroke: #666666; stroke-width: 1px;"></circle><circle r="4" cx="185.2941176470588" cy="208.26446280991735" style="fill: #4393c3; stroke: #666666; stroke-width: 1px;"></circle><circle r="4" cx="555.8823529411765" cy="29.75206611570252" style="fill: #4393c3; stroke: #666666; stroke-width: 1px;"></circle><circle r="4" cx="624.5098039215686" cy="267.7685950413223" style="fill: #4393c3; stroke: #666666; stroke-width: 1px;"></circle></g><g><rect x="0" y="333" width="700" height="12" style="fill: #ffffff; stroke-width: 1px; stroke: #666666;"></rect><rect x="377.45098039215685" y="333" width="281.3725490196079" height="12" style="fill: #aec7e8; stroke-width: 1px; stroke: #666666;"></rect></g><g><a target="_blank" xlink:href="http://pfam.xfam.org/family/"><text y="343" x="350" text-anchor="middle" style="color: rgb(102, 102, 102); font-weight: normal; font-size: 12px; font-family: Arial; cursor: pointer;"></text></a><a target="_blank" xlink:href="http://pfam.xfam.org/family/Gla"><text y="343" x="518.1372549019608" text-anchor="middle" style="color: rgb(102, 102, 102); font-weight: normal; font-size: 12px; font-family: Arial; cursor: pointer;">Gla</text></a></g><g><text y="358" x="0" text-anchor="middle" visibility="hidden" style="font-size: 13px;">M</text><text y="358" x="6.862745098039215" text-anchor="middle" visibility="hidden" style="font-size: 13px;">K</text><text y="358" x="13.72549019607843" text-anchor="middle" visibility="hidden" style="font-size: 13px;">S</text><text y="358" x="20.58823529411765" text-anchor="middle" visibility="hidden" style="font-size: 13px;">L</text><text y="358" x="27.45098039215686" text-anchor="middle" visibility="hidden" style="font-size: 13px;">I</text><text y="358" x="34.31372549019608" text-anchor="middle" visibility="hidden" style="font-size: 13px;">L</text><text y="358" x="41.1764705882353" text-anchor="middle" visibility="hidden" style="font-size: 13px;">L</text><text y="358" x="48.03921568627452" text-anchor="middle" visibility="hidden" style="font-size: 13px;">A</text><text y="358" x="54.90196078431372" text-anchor="middle" visibility="hidden" style="font-size: 13px;">I</text><text y="358" x="61.76470588235294" text-anchor="middle" visibility="hidden" style="font-size: 13px;">L</text><text y="358" x="68.62745098039215" text-anchor="middle" visibility="hidden" style="font-size: 13px;">A</text><text y="358" x="75.49019607843138" text-anchor="middle" visibility="hidden" style="font-size: 13px;">A</text><text y="358" x="82.3529411764706" text-anchor="middle" visibility="hidden" style="font-size: 13px;">L</text><text y="358" x="89.21568627450979" text-anchor="middle" visibility="hidden" style="font-size: 13px;">A</text><text y="358" x="96.07843137254903" text-anchor="middle" visibility="hidden" style="font-size: 13px;">V</text><text y="358" x="102.94117647058823" text-anchor="middle" visibility="hidden" style="font-size: 13px;">V</text><text y="358" x="109.80392156862744" text-anchor="middle" visibility="hidden" style="font-size: 13px;">T</text><text y="358" x="116.66666666666666" text-anchor="middle" visibility="hidden" style="font-size: 13px;">L</text><text y="358" x="123.52941176470588" text-anchor="middle" visibility="hidden" style="font-size: 13px;">C</text><text y="358" x="130.3921568627451" text-anchor="middle" visibility="hidden" style="font-size: 13px;">Y</text><text y="358" x="137.2549019607843" text-anchor="middle" visibility="hidden" style="font-size: 13px;">E</text><text y="358" x="144.11764705882354" text-anchor="middle" visibility="hidden" style="font-size: 13px;">S</text><text y="358" x="150.98039215686276" text-anchor="middle" visibility="hidden" style="font-size: 13px;">H</text><text y="358" x="157.84313725490196" text-anchor="middle" visibility="hidden" style="font-size: 13px;">E</text><text y="358" x="164.7058823529412" text-anchor="middle" visibility="hidden" style="font-size: 13px;">S</text><text y="358" x="171.5686274509804" text-anchor="middle" visibility="hidden" style="font-size: 13px;">M</text><text y="358" x="178.43137254901958" text-anchor="middle" visibility="hidden" style="font-size: 13px;">E</text><text y="358" x="185.2941176470588" text-anchor="middle" visibility="hidden" style="font-size: 13px;">S</text><text y="358" x="192.15686274509807" text-anchor="middle" visibility="hidden" style="font-size: 13px;">Y</text><text y="358" x="199.01960784313724" text-anchor="middle" visibility="hidden" style="font-size: 13px;">E</text><text y="358" x="205.88235294117646" text-anchor="middle" visibility="hidden" style="font-size: 13px;">L</text><text y="358" x="212.74509803921566" text-anchor="middle" visibility="hidden" style="font-size: 13px;">N</text><text y="358" x="219.6078431372549" text-anchor="middle" visibility="hidden" style="font-size: 13px;">P</text><text y="358" x="226.47058823529412" text-anchor="middle" visibility="hidden" style="font-size: 13px;">F</text><text y="358" x="233.33333333333331" text-anchor="middle" visibility="hidden" style="font-size: 13px;">I</text><text y="358" x="240.19607843137254" text-anchor="middle" visibility="hidden" style="font-size: 13px;">N</text><text y="358" x="247.05882352941177" text-anchor="middle" visibility="hidden" style="font-size: 13px;">R</text><text y="358" x="253.92156862745097" text-anchor="middle" visibility="hidden" style="font-size: 13px;">R</text><text y="358" x="260.7843137254902" text-anchor="middle" visibility="hidden" style="font-size: 13px;">N</text><text y="358" x="267.6470588235294" text-anchor="middle" visibility="hidden" style="font-size: 13px;">A</text><text y="358" x="274.5098039215686" text-anchor="middle" visibility="hidden" style="font-size: 13px;">N</text><text y="358" x="281.37254901960785" text-anchor="middle" visibility="hidden" style="font-size: 13px;">T</text><text y="358" x="288.2352941176471" text-anchor="middle" visibility="hidden" style="font-size: 13px;">F</text><text y="358" x="295.0980392156863" text-anchor="middle" visibility="hidden" style="font-size: 13px;">I</text><text y="358" x="301.9607843137255" text-anchor="middle" visibility="hidden" style="font-size: 13px;">S</text><text y="358" x="308.8235294117647" text-anchor="middle" visibility="hidden" style="font-size: 13px;">P</text><text y="358" x="315.6862745098039" text-anchor="middle" visibility="hidden" style="font-size: 13px;">Q</text><text y="358" x="322.5490196078431" text-anchor="middle" visibility="hidden" style="font-size: 13px;">Q</text><text y="358" x="329.4117647058824" text-anchor="middle" visibility="hidden" style="font-size: 13px;">R</text><text y="358" x="336.2745098039216" text-anchor="middle" visibility="hidden" style="font-size: 13px;">W</text><text y="358" x="343.1372549019608" text-anchor="middle" visibility="hidden" style="font-size: 13px;">R</text><text y="358" x="350" text-anchor="middle" visibility="hidden" style="font-size: 13px;">A</text><text y="358" x="356.86274509803917" text-anchor="middle" visibility="hidden" style="font-size: 13px;">K</text><text y="358" x="363.72549019607845" text-anchor="middle" visibility="hidden" style="font-size: 13px;">V</text><text y="358" x="370.5882352941176" text-anchor="middle" visibility="hidden" style="font-size: 13px;">Q</text><text y="358" x="377.45098039215685" text-anchor="middle" visibility="hidden" style="font-size: 13px;">E</text><text y="358" x="384.31372549019613" text-anchor="middle" visibility="hidden" style="font-size: 13px;">R</text><text y="358" x="391.1764705882353" text-anchor="middle" visibility="hidden" style="font-size: 13px;">I</text><text y="358" x="398.0392156862745" text-anchor="middle" visibility="hidden" style="font-size: 13px;">R</text><text y="358" x="404.90196078431376" text-anchor="middle" visibility="hidden" style="font-size: 13px;">E</text><text y="358" x="411.7647058823529" text-anchor="middle" visibility="hidden" style="font-size: 13px;">R</text><text y="358" x="418.62745098039215" text-anchor="middle" visibility="hidden" style="font-size: 13px;">S</text><text y="358" x="425.4901960784313" text-anchor="middle" visibility="hidden" style="font-size: 13px;">K</text><text y="358" x="432.3529411764706" text-anchor="middle" visibility="hidden" style="font-size: 13px;">P</text><text y="358" x="439.2156862745098" text-anchor="middle" visibility="hidden" style="font-size: 13px;">V</text><text y="358" x="446.078431372549" text-anchor="middle" visibility="hidden" style="font-size: 13px;">H</text><text y="358" x="452.94117647058823" text-anchor="middle" visibility="hidden" style="font-size: 13px;">E</text><text y="358" x="459.80392156862746" text-anchor="middle" visibility="hidden" style="font-size: 13px;">L</text><text y="358" x="466.66666666666663" text-anchor="middle" visibility="hidden" style="font-size: 13px;">N</text><text y="358" x="473.5294117647059" text-anchor="middle" visibility="hidden" style="font-size: 13px;">R</text><text y="358" x="480.3921568627451" text-anchor="middle" visibility="hidden" style="font-size: 13px;">E</text><text y="358" x="487.2549019607843" text-anchor="middle" visibility="hidden" style="font-size: 13px;">A</text><text y="358" x="494.11764705882354" text-anchor="middle" visibility="hidden" style="font-size: 13px;">C</text><text y="358" x="500.98039215686276" text-anchor="middle" visibility="hidden" style="font-size: 13px;">D</text><text y="358" x="507.84313725490193" text-anchor="middle" visibility="hidden" style="font-size: 13px;">D</text><text y="358" x="514.7058823529412" text-anchor="middle" visibility="hidden" style="font-size: 13px;">Y</text><text y="358" x="521.5686274509804" text-anchor="middle" visibility="hidden" style="font-size: 13px;">R</text><text y="358" x="528.4313725490196" text-anchor="middle" visibility="hidden" style="font-size: 13px;">L</text><text y="358" x="535.2941176470588" text-anchor="middle" visibility="hidden" style="font-size: 13px;">C</text><text y="358" x="542.156862745098" text-anchor="middle" visibility="hidden" style="font-size: 13px;">E</text><text y="358" x="549.0196078431372" text-anchor="middle" visibility="hidden" style="font-size: 13px;">R</text><text y="358" x="555.8823529411765" text-anchor="middle" visibility="hidden" style="font-size: 13px;">Y</text><text y="358" x="562.7450980392157" text-anchor="middle" visibility="hidden" style="font-size: 13px;">A</text><text y="358" x="569.6078431372549" text-anchor="middle" visibility="hidden" style="font-size: 13px;">M</text><text y="358" x="576.4705882352941" text-anchor="middle" visibility="hidden" style="font-size: 13px;">V</text><text y="358" x="583.3333333333334" text-anchor="middle" visibility="hidden" style="font-size: 13px;">Y</text><text y="358" x="590.1960784313726" text-anchor="middle" visibility="hidden" style="font-size: 13px;">G</text><text y="358" x="597.0588235294117" text-anchor="middle" visibility="hidden" style="font-size: 13px;">Y</text><text y="358" x="603.921568627451" text-anchor="middle" visibility="hidden" style="font-size: 13px;">N</text><text y="358" x="610.7843137254902" text-anchor="middle" visibility="hidden" style="font-size: 13px;">A</text><text y="358" x="617.6470588235294" text-anchor="middle" visibility="hidden" style="font-size: 13px;">A</text><text y="358" x="624.5098039215686" text-anchor="middle" visibility="hidden" style="font-size: 13px;">Y</text><text y="358" x="631.3725490196078" text-anchor="middle" visibility="hidden" style="font-size: 13px;">N</text><text y="358" x="638.2352941176471" text-anchor="middle" visibility="hidden" style="font-size: 13px;">R</text><text y="358" x="645.0980392156862" text-anchor="middle" visibility="hidden" style="font-size: 13px;">Y</text><text y="358" x="651.9607843137255" text-anchor="middle" visibility="hidden" style="font-size: 13px;">F</text><text y="358" x="658.8235294117648" text-anchor="middle" visibility="hidden" style="font-size: 13px;">R</text><text y="358" x="665.6862745098039" text-anchor="middle" visibility="hidden" style="font-size: 13px;">K</text><text y="358" x="672.5490196078432" text-anchor="middle" visibility="hidden" style="font-size: 13px;">R</text><text y="358" x="679.4117647058823" text-anchor="middle" visibility="hidden" style="font-size: 13px;">R</text><text y="358" x="686.2745098039215" text-anchor="middle" visibility="hidden" style="font-size: 13px;">G</text><text y="358" x="693.1372549019608" text-anchor="middle" visibility="hidden" style="font-size: 13px;">T</text><text y="358" x="700" text-anchor="middle" visibility="hidden" style="font-size: 13px;">K</text></g></g></svg><g class="xAxis" transform="translate(0,360)" fill="none" font-size="10" font-family="sans-serif" text-anchor="middle"><path class="domain" stroke="#000" d="M0.5,6V0.5H700.5V6"></path><g class="tick" opacity="1" transform="translate(62.26470588235294,0)"><line stroke="#000" y2="6"></line><text fill="#000" y="9" dy="0.71em">10</text></g><g class="tick" opacity="1" transform="translate(130.8921568627451,0)"><line stroke="#000" y2="6"></line><text fill="#000" y="9" dy="0.71em">20</text></g><g class="tick" opacity="1" transform="translate(199.51960784313724,0)"><line stroke="#000" y2="6"></line><text fill="#000" y="9" dy="0.71em">30</text></g><g class="tick" opacity="1" transform="translate(268.1470588235294,0)"><line stroke="#000" y2="6"></line><text fill="#000" y="9" dy="0.71em">40</text></g><g class="tick" opacity="1" transform="translate(336.7745098039216,0)"><line stroke="#000" y2="6"></line><text fill="#000" y="9" dy="0.71em">50</text></g><g class="tick" opacity="1" transform="translate(405.40196078431376,0)"><line stroke="#000" y2="6"></line><text fill="#000" y="9" dy="0.71em">60</text></g><g class="tick" opacity="1" transform="translate(474.0294117647059,0)"><line stroke="#000" y2="6"></line><text fill="#000" y="9" dy="0.71em">70</text></g><g class="tick" opacity="1" transform="translate(542.656862745098,0)"><line stroke="#000" y2="6"></line><text fill="#000" y="9" dy="0.71em">80</text></g><g class="tick" opacity="1" transform="translate(611.2843137254902,0)"><line stroke="#000" y2="6"></line><text fill="#000" y="9" dy="0.71em">90</text></g><g class="tick" opacity="1" transform="translate(679.9117647058823,0)"><line stroke="#000" y2="6"></line><text fill="#000" y="9" dy="0.71em">100</text></g></g><text class="x label" text-anchor="end" x="700" y="390" style="font-size: 13px; font-family: Arial;">Residue number</text><g class="yAxis" fill="none" font-size="10" font-family="sans-serif" text-anchor="end"><path class="domain" stroke="#000" d="M-6,360.5H0.5V0.5H-6"></path><g class="tick" opacity="1" transform="translate(0,357.52479338842977)"><line stroke="#000" x2="-6"></line><text fill="#000" x="-9" dy="0.32em"></text></g><g class="tick" opacity="1" transform="translate(0,327.77272727272725)"><line stroke="#000" x2="-6"></line><text fill="#000" x="-9" dy="0.32em">0</text></g><g class="tick" opacity="1" transform="translate(0,298.0206611570248)"><line stroke="#000" x2="-6"></line><text fill="#000" x="-9" dy="0.32em">0.5</text></g><g class="tick" opacity="1" transform="translate(0,268.2685950413223)"><line stroke="#000" x2="-6"></line><text fill="#000" x="-9" dy="0.32em">1</text></g><g class="tick" opacity="1" transform="translate(0,238.51652892561984)"><line stroke="#000" x2="-6"></line><text fill="#000" x="-9" dy="0.32em">1.5</text></g><g class="tick" opacity="1" transform="translate(0,208.76446280991735)"><line stroke="#000" x2="-6"></line><text fill="#000" x="-9" dy="0.32em">2</text></g><g class="tick" opacity="1" transform="translate(0,179.01239669421489)"><line stroke="#000" x2="-6"></line><text fill="#000" x="-9" dy="0.32em">2.5</text></g><g class="tick" opacity="1" transform="translate(0,149.26033057851242)"><line stroke="#000" x2="-6"></line><text fill="#000" x="-9" dy="0.32em">3</text></g><g class="tick" opacity="1" transform="translate(0,119.50826446280993)"><line stroke="#000" x2="-6"></line><text fill="#000" x="-9" dy="0.32em">3.5</text></g><g class="tick" opacity="1" transform="translate(0,89.75619834710744)"><line stroke="#000" x2="-6"></line><text fill="#000" x="-9" dy="0.32em">4</text></g><g class="tick" opacity="1" transform="translate(0,60.00413223140498)"><line stroke="#000" x2="-6"></line><text fill="#000" x="-9" dy="0.32em">4.5</text></g><g class="tick" opacity="1" transform="translate(0,30.25206611570252)"><line stroke="#000" x2="-6"></line><text fill="#000" x="-9" dy="0.32em">5</text></g><g class="tick" opacity="1" transform="translate(0,0.5)"><line stroke="#000" x2="-6"></line><text fill="#000" x="-9" dy="0.32em">5.5</text></g></g><text class="y label" text-anchor="middle" y="-50" x="-180" dy="0.8em" transform="rotate(-90)" style="font-size: 13px; font-family: Arial;">Total number of references</text><g class="axisRed" fill="none" font-size="10" font-family="sans-serif" text-anchor="start" visibility="hidden" transform="translate(700, 0)"><path class="domain" stroke="#000" d="M6,360.5H0.5V0.5H6"></path><g class="tick" opacity="1" transform="translate(0,360.5)"><line stroke="#000" x2="6"></line><text fill="#000" x="9" dy="0.32em">0</text></g><text text-anchor="start" dx="5.2em" dy="-2.6em" transform="rotate(90)" visibility="hidden" style="font-size: 12px; font-family: Arial; fill: #d7301f;">No recurrent (&gt;2) missense mutations!</text></g><g class="axisPurple" fill="none" font-size="10" font-family="sans-serif" text-anchor="start" visibility="hidden"><path class="domain" stroke="#000" d="M6,360.5H0.5V0.5H6"></path><g class="tick" opacity="1" transform="translate(0,357.52479338842977)"><line stroke="#000" x2="6"></line><text fill="#000" x="9" dy="0.32em"></text></g><g class="tick" opacity="1" transform="translate(0,327.77272727272725)"><line stroke="#000" x2="6"></line><text fill="#000" x="9" dy="0.32em">0</text></g><g class="tick" opacity="1" transform="translate(0,298.0206611570248)"><line stroke="#000" x2="6"></line><text fill="#000" x="9" dy="0.32em">0.1</text></g><g class="tick" opacity="1" transform="translate(0,268.2685950413223)"><line stroke="#000" x2="6"></line><text fill="#000" x="9" dy="0.32em">0.2</text></g><g class="tick" opacity="1" transform="translate(0,238.51652892561984)"><line stroke="#000" x2="6"></line><text fill="#000" x="9" dy="0.32em">0.3</text></g><g class="tick" opacity="1" transform="translate(0,208.76446280991738)"><line stroke="#000" x2="6"></line><text fill="#000" x="9" dy="0.32em">0.4</text></g><g class="tick" opacity="1" transform="translate(0,179.0123966942149)"><line stroke="#000" x2="6"></line><text fill="#000" x="9" dy="0.32em">0.5</text></g><g class="tick" opacity="1" transform="translate(0,149.26033057851242)"><line stroke="#000" x2="6"></line><text fill="#000" x="9" dy="0.32em">0.6</text></g><g class="tick" opacity="1" transform="translate(0,119.50826446280996)"><line stroke="#000" x2="6"></line><text fill="#000" x="9" dy="0.32em">0.7</text></g><g class="tick" opacity="1" transform="translate(0,89.75619834710744)"><line stroke="#000" x2="6"></line><text fill="#000" x="9" dy="0.32em">0.8</text></g><g class="tick" opacity="1" transform="translate(0,60.00413223140498)"><line stroke="#000" x2="6"></line><text fill="#000" x="9" dy="0.32em">0.9</text></g><g class="tick" opacity="1" transform="translate(0,30.25206611570252)"><line stroke="#000" x2="6"></line><text fill="#000" x="9" dy="0.32em">1</text></g><g class="tick" opacity="1" transform="translate(0,0.5)"><line stroke="#000" x2="6"></line><text fill="#000" x="9" dy="0.32em">1.1</text></g><text text-anchor="start" x="10" y="10" visibility="hidden" style="font-size: 12px; font-family: Arial; fill: #807dba;">No disease causing germline SNPs known!</text></g><circle cx="636" cy="15" r="10" class="compassNav" style="fill: #ffffff; stroke: #666666; stroke-width: 1px;"></circle><path d="M440.935 12.574l3.966 82.766C399.416 41.904 331.674 8 256 8 134.813 8 33.933 94.924 12.296 209.824 10.908 217.193 16.604 224 24.103 224h49.084c5.57 0 10.377-3.842 11.676-9.259C103.407 137.408 172.931 80 256 80c60.893 0 114.512 30.856 146.104 77.801l-101.53-4.865c-6.845-.328-12.574 5.133-12.574 11.986v47.411c0 6.627 5.373 12 12 12h200.333c6.627 0 12-5.373 12-12V12c0-6.627-5.373-12-12-12h-47.411c-6.853 0-12.315 5.729-11.987 12.574zM256 432c-60.895 0-114.517-30.858-146.109-77.805l101.868 4.871c6.845.327 12.573-5.134 12.573-11.986v-47.412c0-6.627-5.373-12-12-12H12c-6.627 0-12 5.373-12 12V500c0 6.627 5.373 12 12 12h47.385c6.863 0 12.328-5.745 11.985-12.599l-4.129-82.575C112.725 470.166 180.405 504 256 504c121.187 0 222.067-86.924 243.704-201.824 1.388-7.369-4.308-14.176-11.807-14.176h-49.084c-5.57 0-10.377 3.842-11.676 9.259C408.593 374.592 339.069 432 256 432z" class="compassNav" transform="translate(631, 10) scale(0.02)" style="fill: #666666; stroke: #666666; stroke-width: 1px;"></path><circle cx="658" cy="15" r="10" class="compassNav" style="fill: #ffffff; stroke: #666666; stroke-width: 1px;"></circle><line class="compassNav" stroke-width="2" stroke="#666666" x1="654" y1="15" x2="662" y2="15"></line><line class="compassNav" stroke-width="2" stroke="#666666" x1="658" y1="11" x2="658" y2="19"></line><circle cx="614" cy="15" r="10" class="compassNav" style="fill: #ffffff; stroke: #666666; stroke-width: 1px;"></circle><line class="compassNav" stroke-width="2" stroke="#666666" x1="610" y1="15" x2="618" y2="15"></line><path d="M582 14 l20 -12 a100,40 0 0,0 0,24z" class="compassNav" style="fill: #ffffff; stroke: #666666; stroke-width: 1px;"></path><path d="M690 14 l-20 -12 a100,40 0 0,1 0,24z" class="compassNav" style="fill: #ffffff; stroke: #666666; stroke-width: 1px;"></path><path d="M216 0h80c13.3 0 24 10.7 24 24v168h87.7c17.8 0 26.7 21.5 14.1 34.1L269.7 378.3c-7.5 7.5-19.8 7.5-27.3 0L90.1 226.1c-12.6-12.6-3.7-34.1 14.1-34.1H192V24c0-13.3 10.7-24 24-24zm296 376v112c0 13.3-10.7 24-24 24H24c-13.3 0-24-10.7-24-24V376c0-13.3 10.7-24 24-24h146.7l49 49c20.1 20.1 52.5 20.1 72.6 0l49-49H488c13.3 0 24 10.7 24 24zm-124 88c0-11-9-20-20-20s-20 9-20 20 9 20 20 20 20-9 20-20zm64 0c0-11-9-20-20-20s-20 9-20 20 9 20 20 20 20-9 20-20z" class="compassNav" transform="translate(552,0) scale(0.05)" style="fill: #336699; stroke: #336699; stroke-width: 1px; cursor: pointer;"></path></g></svg>