<svg width="800" height="400" style="background-color: white;"><g transform="translate(50,0)"><svg width="700" height="360"><g style="-webkit-tap-highlight-color: rgba(0, 0, 0, 0);"><rect width="700" height="360" style="fill: #ffffff;"></rect><g id="lines"><line class="line" stroke-width="1" stroke="#d7301f" x1="-447.46835443037975" y1="333" x2="-447.46835443037975" y2="360" visibility="hidden" style="stroke-dasharray: 3px, 3px;"></line></g><g><rect x="-452.46835443037975" y="355" width="10" height="10" visibility="hidden" style="fill: #ffffff; stroke: #d7301f;"></rect></g><g id="lines"><line class="line" stroke-width="1" stroke="#6a51a3" x1="-447.46835443037975" y1="333" x2="-447.46835443037975" y2="327.27272727272725" visibility="hidden" style="stroke-dasharray: 3px, 3px;"></line></g><g><rect x="-452.46835443037975" y="322.27272727272725" width="10" height="10" visibility="hidden" style="fill: #ffffff; stroke: #6a51a3;"></rect></g><g id="lines"><line class="line" stroke-width="1" stroke="#666666" x1="8.860759493670885" y1="333" x2="8.860759493670885" y2="325.4247728556029"></line><line class="line" stroke-width="1" stroke="#666666" x1="8.860759493670885" y1="333" x2="8.860759493670885" y2="316.185000769981"></line><line class="line" stroke-width="1" stroke="#666666" x1="17.72151898734177" y1="333" x2="17.72151898734177" y2="325.4247728556029"></line><line class="line" stroke-width="1" stroke="#666666" x1="31.012658227848103" y1="333" x2="31.012658227848103" y2="149.869103228787"></line><line class="line" stroke-width="1" stroke="#666666" x1="39.87341772151898" y1="333" x2="39.87341772151898" y2="325.4247728556029"></line><line class="line" stroke-width="1" stroke="#666666" x1="44.30379746835443" y1="333" x2="44.30379746835443" y2="227.48318874801086"></line><line class="line" stroke-width="1" stroke="#666666" x1="48.734177215189874" y1="333" x2="48.734177215189874" y2="29.752066115702462"></line><line class="line" stroke-width="1" stroke="#666666" x1="57.59493670886076" y1="333" x2="57.59493670886076" y2="321.7288640213541"></line><line class="line" stroke-width="1" stroke="#666666" x1="70.88607594936708" y1="333" x2="70.88607594936708" y2="303.24931985011034"></line><line class="line" stroke-width="1" stroke="#666666" x1="79.74683544303797" y1="333" x2="79.74683544303797" y2="321.7288640213541"></line><line class="line" stroke-width="1" stroke="#666666" x1="150.63291139240508" y1="333" x2="150.63291139240508" y2="325.4247728556029"></line><line class="line" stroke-width="1" stroke="#666666" x1="150.63291139240508" y1="333" x2="150.63291139240508" y2="323.57681843847854"></line><line class="line" stroke-width="1" stroke="#666666" x1="150.63291139240508" y1="333" x2="150.63291139240508" y2="325.4247728556029"></line><line class="line" stroke-width="1" stroke="#666666" x1="159.49367088607593" y1="333" x2="159.49367088607593" y2="312.48909193573223"></line><line class="line" stroke-width="1" stroke="#666666" x1="163.9240506329114" y1="333" x2="163.9240506329114" y2="319.88090960422977"></line><line class="line" stroke-width="1" stroke="#666666" x1="172.78481012658227" y1="333" x2="172.78481012658227" y2="325.4247728556029"></line><line class="line" stroke-width="1" stroke="#666666" x1="208.2278481012658" y1="333" x2="208.2278481012658" y2="321.7288640213541"></line><line class="line" stroke-width="1" stroke="#666666" x1="225.9493670886076" y1="333" x2="225.9493670886076" y2="321.7288640213541"></line><line class="line" stroke-width="1" stroke="#666666" x1="225.9493670886076" y1="333" x2="225.9493670886076" y2="294.0095477644885"></line><line class="line" stroke-width="1" stroke="#666666" x1="385.4430379746836" y1="333" x2="385.4430379746836" y2="325.4247728556029"></line><line class="line" stroke-width="1" stroke="#666666" x1="664.5569620253165" y1="333" x2="664.5569620253165" y2="325.4247728556029"></line><line class="line" stroke-width="1" stroke="#666666" x1="686.7088607594936" y1="333" x2="686.7088607594936" y2="325.4247728556029"></line></g><g id="circles"><circle r="4" cx="8.860759493670885" cy="325.4247728556029" style="fill: #5aae61; stroke: #666666; stroke-width: 1px;"></circle><circle r="4" cx="8.860759493670885" cy="316.185000769981" style="fill: #bf812d; stroke: #666666; stroke-width: 1px;"></circle><circle r="4" cx="17.72151898734177" cy="325.4247728556029" style="fill: #4393c3; stroke: #666666; stroke-width: 1px;"></circle><circle r="4" cx="31.012658227848103" cy="149.869103228787" style="fill: #4393c3; stroke: #666666; stroke-width: 1px;"></circle><circle r="4" cx="39.87341772151898" cy="325.4247728556029" style="fill: #666666; stroke: #666666; stroke-width: 1px;"></circle><circle r="4" cx="44.30379746835443" cy="227.48318874801086" style="fill: #4393c3; stroke: #666666; stroke-width: 1px;"></circle><circle r="4" cx="48.734177215189874" cy="29.752066115702462" style="fill: #4393c3; stroke: #666666; stroke-width: 1px;"></circle><circle r="4" cx="57.59493670886076" cy="321.7288640213541" style="fill: #4393c3; stroke: #666666; stroke-width: 1px;"></circle><circle r="4" cx="70.88607594936708" cy="303.24931985011034" style="fill: #4393c3; stroke: #666666; stroke-width: 1px;"></circle><circle r="4" cx="79.74683544303797" cy="321.7288640213541" style="fill: #4393c3; stroke: #666666; stroke-width: 1px;"></circle><circle r="4" cx="150.63291139240508" cy="325.4247728556029" style="fill: #5aae61; stroke: #666666; stroke-width: 1px;"></circle><circle r="4" cx="150.63291139240508" cy="323.57681843847854" style="fill: #bf812d; stroke: #666666; stroke-width: 1px;"></circle><circle r="4" cx="150.63291139240508" cy="325.4247728556029" style="fill: #666666; stroke: #666666; stroke-width: 1px;"></circle><circle r="4" cx="159.49367088607593" cy="312.48909193573223" style="fill: #4393c3; stroke: #666666; stroke-width: 1px;"></circle><circle r="4" cx="163.9240506329114" cy="319.88090960422977" style="fill: #4393c3; stroke: #666666; stroke-width: 1px;"></circle><circle r="4" cx="172.78481012658227" cy="325.4247728556029" style="fill: #bf812d; stroke: #666666; stroke-width: 1px;"></circle><circle r="4" cx="208.2278481012658" cy="321.7288640213541" style="fill: #4393c3; stroke: #666666; stroke-width: 1px;"></circle><circle r="4" cx="225.9493670886076" cy="321.7288640213541" style="fill: #5aae61; stroke: #666666; stroke-width: 1px;"></circle><circle r="4" cx="225.9493670886076" cy="294.0095477644885" style="fill: #bf812d; stroke: #666666; stroke-width: 1px;"></circle><circle r="4" cx="385.4430379746836" cy="325.4247728556029" style="fill: #666666; stroke: #666666; stroke-width: 1px;"></circle><circle r="4" cx="664.5569620253165" cy="325.4247728556029" style="fill: #666666; stroke: #666666; stroke-width: 1px;"></circle><circle r="4" cx="686.7088607594936" cy="325.4247728556029" style="fill: #666666; stroke: #666666; stroke-width: 1px;"></circle></g><g><rect x="0" y="333" width="700" height="12" style="fill: #ffffff; stroke-width: 1px; stroke: #666666;"></rect><rect x="0" y="333" width="163.9240506329114" height="12" style="fill: #aec7e8; stroke-width: 1px; stroke: #666666;"></rect></g><g><a target="_blank" xlink:href="http://pfam.xfam.org/family/"><text y="343" x="350" text-anchor="middle" style="color: rgb(102, 102, 102); font-weight: normal; font-size: 12px; font-family: Arial; cursor: pointer;"></text></a><a target="_blank" xlink:href="http://pfam.xfam.org/family/zf-U1"><text y="343" x="81.9620253164557" text-anchor="middle" style="color: rgb(102, 102, 102); font-weight: normal; font-size: 12px; font-family: Arial; cursor: pointer;">zf-U1</text></a></g><g><text y="358" x="0" text-anchor="middle" visibility="hidden" style="font-size: 13px;">M</text><text y="358" x="4.430379746835443" text-anchor="middle" visibility="hidden" style="font-size: 13px;">P</text><text y="358" x="8.860759493670885" text-anchor="middle" visibility="hidden" style="font-size: 13px;">K</text><text y="358" x="13.291139240506329" text-anchor="middle" visibility="hidden" style="font-size: 13px;">F</text><text y="358" x="17.72151898734177" text-anchor="middle" visibility="hidden" style="font-size: 13px;">Y</text><text y="358" x="22.151898734177216" text-anchor="middle" visibility="hidden" style="font-size: 13px;">C</text><text y="358" x="26.582278481012658" text-anchor="middle" visibility="hidden" style="font-size: 13px;">D</text><text y="358" x="31.012658227848103" text-anchor="middle" visibility="hidden" style="font-size: 13px;">Y</text><text y="358" x="35.44303797468354" text-anchor="middle" visibility="hidden" style="font-size: 13px;">C</text><text y="358" x="39.87341772151898" text-anchor="middle" visibility="hidden" style="font-size: 13px;">D</text><text y="358" x="44.30379746835443" text-anchor="middle" visibility="hidden" style="font-size: 13px;">T</text><text y="358" x="48.734177215189874" text-anchor="middle" visibility="hidden" style="font-size: 13px;">Y</text><text y="358" x="53.164556962025316" text-anchor="middle" visibility="hidden" style="font-size: 13px;">L</text><text y="358" x="57.59493670886076" text-anchor="middle" visibility="hidden" style="font-size: 13px;">T</text><text y="358" x="62.025316455696206" text-anchor="middle" visibility="hidden" style="font-size: 13px;">H</text><text y="358" x="66.45569620253166" text-anchor="middle" visibility="hidden" style="font-size: 13px;">D</text><text y="358" x="70.88607594936708" text-anchor="middle" visibility="hidden" style="font-size: 13px;">S</text><text y="358" x="75.31645569620254" text-anchor="middle" visibility="hidden" style="font-size: 13px;">P</text><text y="358" x="79.74683544303797" text-anchor="middle" visibility="hidden" style="font-size: 13px;">S</text><text y="358" x="84.17721518987342" text-anchor="middle" visibility="hidden" style="font-size: 13px;">V</text><text y="358" x="88.60759493670886" text-anchor="middle" visibility="hidden" style="font-size: 13px;">R</text><text y="358" x="93.03797468354429" text-anchor="middle" visibility="hidden" style="font-size: 13px;">K</text><text y="358" x="97.46835443037975" text-anchor="middle" visibility="hidden" style="font-size: 13px;">T</text><text y="358" x="101.89873417721519" text-anchor="middle" visibility="hidden" style="font-size: 13px;">H</text><text y="358" x="106.32911392405063" text-anchor="middle" visibility="hidden" style="font-size: 13px;">C</text><text y="358" x="110.75949367088609" text-anchor="middle" visibility="hidden" style="font-size: 13px;">S</text><text y="358" x="115.18987341772151" text-anchor="middle" visibility="hidden" style="font-size: 13px;">G</text><text y="358" x="119.62025316455696" text-anchor="middle" visibility="hidden" style="font-size: 13px;">R</text><text y="358" x="124.05063291139241" text-anchor="middle" visibility="hidden" style="font-size: 13px;">K</text><text y="358" x="128.48101265822785" text-anchor="middle" visibility="hidden" style="font-size: 13px;">H</text><text y="358" x="132.9113924050633" text-anchor="middle" visibility="hidden" style="font-size: 13px;">K</text><text y="358" x="137.34177215189874" text-anchor="middle" visibility="hidden" style="font-size: 13px;">E</text><text y="358" x="141.77215189873417" text-anchor="middle" visibility="hidden" style="font-size: 13px;">N</text><text y="358" x="146.20253164556962" text-anchor="middle" visibility="hidden" style="font-size: 13px;">V</text><text y="358" x="150.63291139240508" text-anchor="middle" visibility="hidden" style="font-size: 13px;">K</text><text y="358" x="155.0632911392405" text-anchor="middle" visibility="hidden" style="font-size: 13px;">D</text><text y="358" x="159.49367088607593" text-anchor="middle" visibility="hidden" style="font-size: 13px;">Y</text><text y="358" x="163.9240506329114" text-anchor="middle" visibility="hidden" style="font-size: 13px;">Y</text><text y="358" x="168.35443037974684" text-anchor="middle" visibility="hidden" style="font-size: 13px;">Q</text><text y="358" x="172.78481012658227" text-anchor="middle" visibility="hidden" style="font-size: 13px;">K</text><text y="358" x="177.21518987341773" text-anchor="middle" visibility="hidden" style="font-size: 13px;">W</text><text y="358" x="181.64556962025316" text-anchor="middle" visibility="hidden" style="font-size: 13px;">M</text><text y="358" x="186.07594936708858" text-anchor="middle" visibility="hidden" style="font-size: 13px;">E</text><text y="358" x="190.50632911392407" text-anchor="middle" visibility="hidden" style="font-size: 13px;">E</text><text y="358" x="194.9367088607595" text-anchor="middle" visibility="hidden" style="font-size: 13px;">Q</text><text y="358" x="199.36708860759495" text-anchor="middle" visibility="hidden" style="font-size: 13px;">A</text><text y="358" x="203.79746835443038" text-anchor="middle" visibility="hidden" style="font-size: 13px;">Q</text><text y="358" x="208.2278481012658" text-anchor="middle" visibility="hidden" style="font-size: 13px;">S</text><text y="358" x="212.65822784810126" text-anchor="middle" visibility="hidden" style="font-size: 13px;">L</text><text y="358" x="217.0886075949367" text-anchor="middle" visibility="hidden" style="font-size: 13px;">I</text><text y="358" x="221.51898734177217" text-anchor="middle" visibility="hidden" style="font-size: 13px;">D</text><text y="358" x="225.9493670886076" text-anchor="middle" visibility="hidden" style="font-size: 13px;">K</text><text y="358" x="230.37974683544303" text-anchor="middle" visibility="hidden" style="font-size: 13px;">T</text><text y="358" x="234.81012658227849" text-anchor="middle" visibility="hidden" style="font-size: 13px;">T</text><text y="358" x="239.2405063291139" text-anchor="middle" visibility="hidden" style="font-size: 13px;">A</text><text y="358" x="243.6708860759494" text-anchor="middle" visibility="hidden" style="font-size: 13px;">A</text><text y="358" x="248.10126582278482" text-anchor="middle" visibility="hidden" style="font-size: 13px;">F</text><text y="358" x="252.53164556962025" text-anchor="middle" visibility="hidden" style="font-size: 13px;">Q</text><text y="358" x="256.9620253164557" text-anchor="middle" visibility="hidden" style="font-size: 13px;">Q</text><text y="358" x="261.3924050632911" text-anchor="middle" visibility="hidden" style="font-size: 13px;">G</text><text y="358" x="265.8227848101266" text-anchor="middle" visibility="hidden" style="font-size: 13px;">K</text><text y="358" x="270.253164556962" text-anchor="middle" visibility="hidden" style="font-size: 13px;">I</text><text y="358" x="274.6835443037975" text-anchor="middle" visibility="hidden" style="font-size: 13px;">P</text><text y="358" x="279.11392405063293" text-anchor="middle" visibility="hidden" style="font-size: 13px;">P</text><text y="358" x="283.54430379746833" text-anchor="middle" visibility="hidden" style="font-size: 13px;">T</text><text y="358" x="287.97468354430384" text-anchor="middle" visibility="hidden" style="font-size: 13px;">P</text><text y="358" x="292.40506329113924" text-anchor="middle" visibility="hidden" style="font-size: 13px;">F</text><text y="358" x="296.8354430379747" text-anchor="middle" visibility="hidden" style="font-size: 13px;">S</text><text y="358" x="301.26582278481015" text-anchor="middle" visibility="hidden" style="font-size: 13px;">A</text><text y="358" x="305.69620253164555" text-anchor="middle" visibility="hidden" style="font-size: 13px;">P</text><text y="358" x="310.126582278481" text-anchor="middle" visibility="hidden" style="font-size: 13px;">P</text><text y="358" x="314.55696202531647" text-anchor="middle" visibility="hidden" style="font-size: 13px;">P</text><text y="358" x="318.98734177215186" text-anchor="middle" visibility="hidden" style="font-size: 13px;">A</text><text y="358" x="323.4177215189874" text-anchor="middle" visibility="hidden" style="font-size: 13px;">G</text><text y="358" x="327.8481012658228" text-anchor="middle" visibility="hidden" style="font-size: 13px;">A</text><text y="358" x="332.27848101265823" text-anchor="middle" visibility="hidden" style="font-size: 13px;">M</text><text y="358" x="336.7088607594937" text-anchor="middle" visibility="hidden" style="font-size: 13px;">I</text><text y="358" x="341.1392405063291" text-anchor="middle" visibility="hidden" style="font-size: 13px;">P</text><text y="358" x="345.56962025316454" text-anchor="middle" visibility="hidden" style="font-size: 13px;">P</text><text y="358" x="350" text-anchor="middle" visibility="hidden" style="font-size: 13px;">P</text><text y="358" x="354.43037974683546" text-anchor="middle" visibility="hidden" style="font-size: 13px;">P</text><text y="358" x="358.86075949367086" text-anchor="middle" visibility="hidden" style="font-size: 13px;">S</text><text y="358" x="363.2911392405063" text-anchor="middle" visibility="hidden" style="font-size: 13px;">L</text><text y="358" x="367.72151898734177" text-anchor="middle" visibility="hidden" style="font-size: 13px;">P</text><text y="358" x="372.15189873417717" text-anchor="middle" visibility="hidden" style="font-size: 13px;">G</text><text y="358" x="376.5822784810126" text-anchor="middle" visibility="hidden" style="font-size: 13px;">P</text><text y="358" x="381.01265822784814" text-anchor="middle" visibility="hidden" style="font-size: 13px;">P</text><text y="358" x="385.4430379746836" text-anchor="middle" visibility="hidden" style="font-size: 13px;">R</text><text y="358" x="389.873417721519" text-anchor="middle" visibility="hidden" style="font-size: 13px;">P</text><text y="358" x="394.30379746835445" text-anchor="middle" visibility="hidden" style="font-size: 13px;">G</text><text y="358" x="398.7341772151899" text-anchor="middle" visibility="hidden" style="font-size: 13px;">M</text><text y="358" x="403.1645569620253" text-anchor="middle" visibility="hidden" style="font-size: 13px;">M</text><text y="358" x="407.59493670886076" text-anchor="middle" visibility="hidden" style="font-size: 13px;">P</text><text y="358" x="412.0253164556962" text-anchor="middle" visibility="hidden" style="font-size: 13px;">A</text><text y="358" x="416.4556962025316" text-anchor="middle" visibility="hidden" style="font-size: 13px;">P</text><text y="358" x="420.88607594936707" text-anchor="middle" visibility="hidden" style="font-size: 13px;">H</text><text y="358" x="425.3164556962025" text-anchor="middle" visibility="hidden" style="font-size: 13px;">M</text><text y="358" x="429.74683544303804" text-anchor="middle" visibility="hidden" style="font-size: 13px;">G</text><text y="358" x="434.1772151898734" text-anchor="middle" visibility="hidden" style="font-size: 13px;">G</text><text y="358" x="438.6075949367089" text-anchor="middle" visibility="hidden" style="font-size: 13px;">P</text><text y="358" x="443.03797468354435" text-anchor="middle" visibility="hidden" style="font-size: 13px;">P</text><text y="358" x="447.46835443037975" text-anchor="middle" visibility="hidden" style="font-size: 13px;">M</text><text y="358" x="451.8987341772152" text-anchor="middle" visibility="hidden" style="font-size: 13px;">M</text><text y="358" x="456.32911392405066" text-anchor="middle" visibility="hidden" style="font-size: 13px;">P</text><text y="358" x="460.75949367088606" text-anchor="middle" visibility="hidden" style="font-size: 13px;">M</text><text y="358" x="465.1898734177215" text-anchor="middle" visibility="hidden" style="font-size: 13px;">M</text><text y="358" x="469.62025316455697" text-anchor="middle" visibility="hidden" style="font-size: 13px;">G</text><text y="358" x="474.05063291139237" text-anchor="middle" visibility="hidden" style="font-size: 13px;">P</text><text y="358" x="478.4810126582278" text-anchor="middle" visibility="hidden" style="font-size: 13px;">P</text><text y="358" x="482.9113924050633" text-anchor="middle" visibility="hidden" style="font-size: 13px;">P</text><text y="358" x="487.3417721518988" text-anchor="middle" visibility="hidden" style="font-size: 13px;">P</text><text y="358" x="491.77215189873414" text-anchor="middle" visibility="hidden" style="font-size: 13px;">G</text><text y="358" x="496.20253164556965" text-anchor="middle" visibility="hidden" style="font-size: 13px;">M</text><text y="358" x="500.6329113924051" text-anchor="middle" visibility="hidden" style="font-size: 13px;">M</text><text y="358" x="505.0632911392405" text-anchor="middle" visibility="hidden" style="font-size: 13px;">P</text><text y="358" x="509.49367088607596" text-anchor="middle" visibility="hidden" style="font-size: 13px;">V</text><text y="358" x="513.9240506329114" text-anchor="middle" visibility="hidden" style="font-size: 13px;">G</text><text y="358" x="518.3544303797468" text-anchor="middle" visibility="hidden" style="font-size: 13px;">P</text><text y="358" x="522.7848101265822" text-anchor="middle" visibility="hidden" style="font-size: 13px;">A</text><text y="358" x="527.2151898734178" text-anchor="middle" visibility="hidden" style="font-size: 13px;">P</text><text y="358" x="531.6455696202532" text-anchor="middle" visibility="hidden" style="font-size: 13px;">G</text><text y="358" x="536.0759493670886" text-anchor="middle" visibility="hidden" style="font-size: 13px;">M</text><text y="358" x="540.506329113924" text-anchor="middle" visibility="hidden" style="font-size: 13px;">R</text><text y="358" x="544.9367088607595" text-anchor="middle" visibility="hidden" style="font-size: 13px;">P</text><text y="358" x="549.367088607595" text-anchor="middle" visibility="hidden" style="font-size: 13px;">P</text><text y="358" x="553.7974683544304" text-anchor="middle" visibility="hidden" style="font-size: 13px;">M</text><text y="358" x="558.2278481012659" text-anchor="middle" visibility="hidden" style="font-size: 13px;">G</text><text y="358" x="562.6582278481012" text-anchor="middle" visibility="hidden" style="font-size: 13px;">G</text><text y="358" x="567.0886075949367" text-anchor="middle" visibility="hidden" style="font-size: 13px;">H</text><text y="358" x="571.5189873417721" text-anchor="middle" visibility="hidden" style="font-size: 13px;">M</text><text y="358" x="575.9493670886077" text-anchor="middle" visibility="hidden" style="font-size: 13px;">P</text><text y="358" x="580.379746835443" text-anchor="middle" visibility="hidden" style="font-size: 13px;">M</text><text y="358" x="584.8101265822785" text-anchor="middle" visibility="hidden" style="font-size: 13px;">M</text><text y="358" x="589.2405063291139" text-anchor="middle" visibility="hidden" style="font-size: 13px;">P</text><text y="358" x="593.6708860759494" text-anchor="middle" visibility="hidden" style="font-size: 13px;">G</text><text y="358" x="598.1012658227849" text-anchor="middle" visibility="hidden" style="font-size: 13px;">P</text><text y="358" x="602.5316455696203" text-anchor="middle" visibility="hidden" style="font-size: 13px;">P</text><text y="358" x="606.9620253164557" text-anchor="middle" visibility="hidden" style="font-size: 13px;">M</text><text y="358" x="611.3924050632911" text-anchor="middle" visibility="hidden" style="font-size: 13px;">M</text><text y="358" x="615.8227848101266" text-anchor="middle" visibility="hidden" style="font-size: 13px;">R</text><text y="358" x="620.253164556962" text-anchor="middle" visibility="hidden" style="font-size: 13px;">P</text><text y="358" x="624.6835443037975" text-anchor="middle" visibility="hidden" style="font-size: 13px;">P</text><text y="358" x="629.1139240506329" text-anchor="middle" visibility="hidden" style="font-size: 13px;">A</text><text y="358" x="633.5443037974684" text-anchor="middle" visibility="hidden" style="font-size: 13px;">R</text><text y="358" x="637.9746835443037" text-anchor="middle" visibility="hidden" style="font-size: 13px;">P</text><text y="358" x="642.4050632911393" text-anchor="middle" visibility="hidden" style="font-size: 13px;">M</text><text y="358" x="646.8354430379748" text-anchor="middle" visibility="hidden" style="font-size: 13px;">M</text><text y="358" x="651.2658227848101" text-anchor="middle" visibility="hidden" style="font-size: 13px;">V</text><text y="358" x="655.6962025316456" text-anchor="middle" visibility="hidden" style="font-size: 13px;">P</text><text y="358" x="660.126582278481" text-anchor="middle" visibility="hidden" style="font-size: 13px;">T</text><text y="358" x="664.5569620253165" text-anchor="middle" visibility="hidden" style="font-size: 13px;">R</text><text y="358" x="668.9873417721519" text-anchor="middle" visibility="hidden" style="font-size: 13px;">P</text><text y="358" x="673.4177215189874" text-anchor="middle" visibility="hidden" style="font-size: 13px;">G</text><text y="358" x="677.8481012658228" text-anchor="middle" visibility="hidden" style="font-size: 13px;">M</text><text y="358" x="682.2784810126582" text-anchor="middle" visibility="hidden" style="font-size: 13px;">T</text><text y="358" x="686.7088607594936" text-anchor="middle" visibility="hidden" style="font-size: 13px;">R</text><text y="358" x="691.1392405063291" text-anchor="middle" visibility="hidden" style="font-size: 13px;">P</text><text y="358" x="695.5696202531645" text-anchor="middle" visibility="hidden" style="font-size: 13px;">D</text><text y="358" x="700" text-anchor="middle" visibility="hidden" style="font-size: 13px;">R</text></g></g></svg><g class="xAxis" transform="translate(0,360)" fill="none" font-size="10" font-family="sans-serif" text-anchor="middle"><path class="domain" stroke="#000" d="M0.5,6V0.5H700.5V6"></path><g class="tick" opacity="1" transform="translate(84.67721518987342,0)"><line stroke="#000" y2="6"></line><text fill="#000" y="9" dy="0.71em">20</text></g><g class="tick" opacity="1" transform="translate(173.28481012658227,0)"><line stroke="#000" y2="6"></line><text fill="#000" y="9" dy="0.71em">40</text></g><g class="tick" opacity="1" transform="translate(261.8924050632911,0)"><line stroke="#000" y2="6"></line><text fill="#000" y="9" dy="0.71em">60</text></g><g class="tick" opacity="1" transform="translate(350.5,0)"><line stroke="#000" y2="6"></line><text fill="#000" y="9" dy="0.71em">80</text></g><g class="tick" opacity="1" transform="translate(439.1075949367089,0)"><line stroke="#000" y2="6"></line><text fill="#000" y="9" dy="0.71em">100</text></g><g class="tick" opacity="1" transform="translate(527.7151898734178,0)"><line stroke="#000" y2="6"></line><text fill="#000" y="9" dy="0.71em">120</text></g><g class="tick" opacity="1" transform="translate(616.3227848101266,0)"><line stroke="#000" y2="6"></line><text fill="#000" y="9" dy="0.71em">140</text></g></g><text class="x label" text-anchor="end" x="700" y="390" style="font-size: 13px; font-family: Arial;">Residue number</text><g class="yAxis" fill="none" font-size="10" font-family="sans-serif" text-anchor="end"><path class="domain" stroke="#000" d="M-6,360.5H0.5V0.5H-6"></path><g class="tick" opacity="1" transform="translate(0,327.77272727272725)"><line stroke="#000" x2="-6"></line><text fill="#000" x="-9" dy="0.32em">0</text></g><g class="tick" opacity="1" transform="translate(0,290.81363893023973)"><line stroke="#000" x2="-6"></line><text fill="#000" x="-9" dy="0.32em">20</text></g><g class="tick" opacity="1" transform="translate(0,253.85455058775216)"><line stroke="#000" x2="-6"></line><text fill="#000" x="-9" dy="0.32em">40</text></g><g class="tick" opacity="1" transform="translate(0,216.8954622452646)"><line stroke="#000" x2="-6"></line><text fill="#000" x="-9" dy="0.32em">60</text></g><g class="tick" opacity="1" transform="translate(0,179.93637390277704)"><line stroke="#000" x2="-6"></line><text fill="#000" x="-9" dy="0.32em">80</text></g><g class="tick" opacity="1" transform="translate(0,142.97728556028952)"><line stroke="#000" x2="-6"></line><text fill="#000" x="-9" dy="0.32em">100</text></g><g class="tick" opacity="1" transform="translate(0,106.01819721780194)"><line stroke="#000" x2="-6"></line><text fill="#000" x="-9" dy="0.32em">120</text></g><g class="tick" opacity="1" transform="translate(0,69.0591088753144)"><line stroke="#000" x2="-6"></line><text fill="#000" x="-9" dy="0.32em">140</text></g><g class="tick" opacity="1" transform="translate(0,32.100020532826875)"><line stroke="#000" x2="-6"></line><text fill="#000" x="-9" dy="0.32em">160</text></g></g><text class="y label" text-anchor="middle" y="-50" x="-180" dy="0.8em" transform="rotate(-90)" style="font-size: 13px; font-family: Arial;">Total number of references</text><g class="axisRed" fill="none" font-size="10" font-family="sans-serif" text-anchor="start" visibility="hidden" transform="translate(700, 0)"><path class="domain" stroke="#000" d="M6,360.5H0.5V0.5H6"></path><g class="tick" opacity="1" transform="translate(0,360.5)"><line stroke="#000" x2="6"></line><text fill="#000" x="9" dy="0.32em">0</text></g><text text-anchor="start" dx="5.2em" dy="-2.6em" transform="rotate(90)" visibility="hidden" style="font-size: 12px; font-family: Arial; fill: #d7301f;">No recurrent (&gt;2) missense mutations!</text></g><g class="axisPurple" fill="none" font-size="10" font-family="sans-serif" text-anchor="start" visibility="hidden"><path class="domain" stroke="#000" d="M6,360.5H0.5V0.5H6"></path><g class="tick" opacity="1" transform="translate(0,357.52479338842977)"><line stroke="#000" x2="6"></line><text fill="#000" x="9" dy="0.32em"></text></g><g class="tick" opacity="1" transform="translate(0,327.77272727272725)"><line stroke="#000" x2="6"></line><text fill="#000" x="9" dy="0.32em">0</text></g><g class="tick" opacity="1" transform="translate(0,298.0206611570248)"><line stroke="#000" x2="6"></line><text fill="#000" x="9" dy="0.32em">0.1</text></g><g class="tick" opacity="1" transform="translate(0,268.2685950413223)"><line stroke="#000" x2="6"></line><text fill="#000" x="9" dy="0.32em">0.2</text></g><g class="tick" opacity="1" transform="translate(0,238.51652892561984)"><line stroke="#000" x2="6"></line><text fill="#000" x="9" dy="0.32em">0.3</text></g><g class="tick" opacity="1" transform="translate(0,208.76446280991738)"><line stroke="#000" x2="6"></line><text fill="#000" x="9" dy="0.32em">0.4</text></g><g class="tick" opacity="1" transform="translate(0,179.0123966942149)"><line stroke="#000" x2="6"></line><text fill="#000" x="9" dy="0.32em">0.5</text></g><g class="tick" opacity="1" transform="translate(0,149.26033057851242)"><line stroke="#000" x2="6"></line><text fill="#000" x="9" dy="0.32em">0.6</text></g><g class="tick" opacity="1" transform="translate(0,119.50826446280996)"><line stroke="#000" x2="6"></line><text fill="#000" x="9" dy="0.32em">0.7</text></g><g class="tick" opacity="1" transform="translate(0,89.75619834710744)"><line stroke="#000" x2="6"></line><text fill="#000" x="9" dy="0.32em">0.8</text></g><g class="tick" opacity="1" transform="translate(0,60.00413223140498)"><line stroke="#000" x2="6"></line><text fill="#000" x="9" dy="0.32em">0.9</text></g><g class="tick" opacity="1" transform="translate(0,30.25206611570252)"><line stroke="#000" x2="6"></line><text fill="#000" x="9" dy="0.32em">1</text></g><g class="tick" opacity="1" transform="translate(0,0.5)"><line stroke="#000" x2="6"></line><text fill="#000" x="9" dy="0.32em">1.1</text></g><text text-anchor="start" x="10" y="10" visibility="hidden" style="font-size: 12px; font-family: Arial; fill: #807dba;">No disease causing germline SNPs known!</text></g><circle cx="636" cy="15" r="10" class="compassNav" style="fill: #ffffff; stroke: #666666; stroke-width: 1px;"></circle><path d="M440.935 12.574l3.966 82.766C399.416 41.904 331.674 8 256 8 134.813 8 33.933 94.924 12.296 209.824 10.908 217.193 16.604 224 24.103 224h49.084c5.57 0 10.377-3.842 11.676-9.259C103.407 137.408 172.931 80 256 80c60.893 0 114.512 30.856 146.104 77.801l-101.53-4.865c-6.845-.328-12.574 5.133-12.574 11.986v47.411c0 6.627 5.373 12 12 12h200.333c6.627 0 12-5.373 12-12V12c0-6.627-5.373-12-12-12h-47.411c-6.853 0-12.315 5.729-11.987 12.574zM256 432c-60.895 0-114.517-30.858-146.109-77.805l101.868 4.871c6.845.327 12.573-5.134 12.573-11.986v-47.412c0-6.627-5.373-12-12-12H12c-6.627 0-12 5.373-12 12V500c0 6.627 5.373 12 12 12h47.385c6.863 0 12.328-5.745 11.985-12.599l-4.129-82.575C112.725 470.166 180.405 504 256 504c121.187 0 222.067-86.924 243.704-201.824 1.388-7.369-4.308-14.176-11.807-14.176h-49.084c-5.57 0-10.377 3.842-11.676 9.259C408.593 374.592 339.069 432 256 432z" class="compassNav" transform="translate(631, 10) scale(0.02)" style="fill: #666666; stroke: #666666; stroke-width: 1px;"></path><circle cx="658" cy="15" r="10" class="compassNav" style="fill: #ffffff; stroke: #666666; stroke-width: 1px;"></circle><line class="compassNav" stroke-width="2" stroke="#666666" x1="654" y1="15" x2="662" y2="15"></line><line class="compassNav" stroke-width="2" stroke="#666666" x1="658" y1="11" x2="658" y2="19"></line><circle cx="614" cy="15" r="10" class="compassNav" style="fill: #ffffff; stroke: #666666; stroke-width: 1px;"></circle><line class="compassNav" stroke-width="2" stroke="#666666" x1="610" y1="15" x2="618" y2="15"></line><path d="M582 14 l20 -12 a100,40 0 0,0 0,24z" class="compassNav" style="fill: #ffffff; stroke: #666666; stroke-width: 1px;"></path><path d="M690 14 l-20 -12 a100,40 0 0,1 0,24z" class="compassNav" style="fill: #ffffff; stroke: #666666; stroke-width: 1px;"></path><path d="M216 0h80c13.3 0 24 10.7 24 24v168h87.7c17.8 0 26.7 21.5 14.1 34.1L269.7 378.3c-7.5 7.5-19.8 7.5-27.3 0L90.1 226.1c-12.6-12.6-3.7-34.1 14.1-34.1H192V24c0-13.3 10.7-24 24-24zm296 376v112c0 13.3-10.7 24-24 24H24c-13.3 0-24-10.7-24-24V376c0-13.3 10.7-24 24-24h146.7l49 49c20.1 20.1 52.5 20.1 72.6 0l49-49H488c13.3 0 24 10.7 24 24zm-124 88c0-11-9-20-20-20s-20 9-20 20 9 20 20 20 20-9 20-20zm64 0c0-11-9-20-20-20s-20 9-20 20 9 20 20 20 20-9 20-20z" class="compassNav" transform="translate(552,0) scale(0.05)" style="fill: #336699; stroke: #336699; stroke-width: 1px; cursor: pointer;"></path></g></svg>