<svg width="800" height="400" style="background-color: white;"><g transform="translate(50,0)"><svg width="700" height="360"><g style="-webkit-tap-highlight-color: rgba(0, 0, 0, 0);"><rect width="700" height="360" style="fill: #ffffff;"></rect><g id="lines"><line class="line" stroke-width="1" stroke="#d7301f" x1="-338.2775119617225" y1="333" x2="-338.2775119617225" y2="360" visibility="hidden" style="stroke-dasharray: 3px, 3px;"></line></g><g><rect x="-343.2775119617225" y="355" width="10" height="10" visibility="hidden" style="fill: #ffffff; stroke: #d7301f;"></rect></g><g id="lines"><line class="line" stroke-width="1" stroke="#6a51a3" x1="-338.2775119617225" y1="333" x2="-338.2775119617225" y2="327.27272727272725" visibility="hidden" style="stroke-dasharray: 3px, 3px;"></line></g><g><rect x="-343.2775119617225" y="322.27272727272725" width="10" height="10" visibility="hidden" style="fill: #ffffff; stroke: #6a51a3;"></rect></g><g id="lines"><line class="line" stroke-width="1" stroke="#666666" x1="10.047846889952153" y1="333" x2="10.047846889952153" y2="320.0161257810925"></line><line class="line" stroke-width="1" stroke="#666666" x1="23.444976076555026" y1="333" x2="23.444976076555026" y2="29.75206611570252"></line><line class="line" stroke-width="1" stroke="#666666" x1="90.43062200956939" y1="333" x2="90.43062200956939" y2="324.853860108849"></line><line class="line" stroke-width="1" stroke="#666666" x1="97.12918660287082" y1="333" x2="97.12918660287082" y2="326.06329369078816"></line><line class="line" stroke-width="1" stroke="#666666" x1="140.66985645933013" y1="333" x2="140.66985645933013" y2="323.6444265269099"></line><line class="line" stroke-width="1" stroke="#666666" x1="147.36842105263156" y1="333" x2="147.36842105263156" y2="326.06329369078816"></line><line class="line" stroke-width="1" stroke="#666666" x1="154.06698564593302" y1="333" x2="154.06698564593302" y2="326.06329369078816"></line><line class="line" stroke-width="1" stroke="#666666" x1="164.11483253588517" y1="333" x2="164.11483253588517" y2="311.5500907075186"></line><line class="line" stroke-width="1" stroke="#666666" x1="180.86124401913878" y1="333" x2="180.86124401913878" y2="323.6444265269099"></line><line class="line" stroke-width="1" stroke="#666666" x1="180.86124401913878" y1="333" x2="180.86124401913878" y2="321.22555936303166"></line><line class="line" stroke-width="1" stroke="#666666" x1="204.3062200956938" y1="333" x2="204.3062200956938" y2="315.178391453336"></line><line class="line" stroke-width="1" stroke="#666666" x1="211.00478468899522" y1="333" x2="211.00478468899522" y2="266.80104817577103"></line><line class="line" stroke-width="1" stroke="#666666" x1="251.1961722488038" y1="333" x2="251.1961722488038" y2="326.06329369078816"></line><line class="line" stroke-width="1" stroke="#666666" x1="264.59330143540666" y1="333" x2="264.59330143540666" y2="326.06329369078816"></line><line class="line" stroke-width="1" stroke="#666666" x1="271.29186602870817" y1="333" x2="271.29186602870817" y2="324.853860108849"></line><line class="line" stroke-width="1" stroke="#666666" x1="271.29186602870817" y1="333" x2="271.29186602870817" y2="326.06329369078816"></line><line class="line" stroke-width="1" stroke="#666666" x1="271.29186602870817" y1="333" x2="271.29186602870817" y2="309.13122354364043"></line><line class="line" stroke-width="1" stroke="#666666" x1="271.29186602870817" y1="333" x2="271.29186602870817" y2="326.06329369078816"></line><line class="line" stroke-width="1" stroke="#666666" x1="281.33971291866027" y1="333" x2="281.33971291866027" y2="326.06329369078816"></line><line class="line" stroke-width="1" stroke="#666666" x1="341.6267942583732" y1="333" x2="341.6267942583732" y2="322.43499294497076"></line><line class="line" stroke-width="1" stroke="#666666" x1="341.6267942583732" y1="333" x2="341.6267942583732" y2="320.0161257810925"></line><line class="line" stroke-width="1" stroke="#666666" x1="341.6267942583732" y1="333" x2="341.6267942583732" y2="326.06329369078816"></line><line class="line" stroke-width="1" stroke="#666666" x1="351.67464114832535" y1="333" x2="351.67464114832535" y2="326.06329369078816"></line><line class="line" stroke-width="1" stroke="#666666" x1="361.72248803827756" y1="333" x2="361.72248803827756" y2="257.12557952025804"></line><line class="line" stroke-width="1" stroke="#666666" x1="365.0717703349282" y1="333" x2="365.0717703349282" y2="323.6444265269099"></line><line class="line" stroke-width="1" stroke="#666666" x1="371.77033492822966" y1="333" x2="371.77033492822966" y2="323.6444265269099"></line><line class="line" stroke-width="1" stroke="#666666" x1="385.1674641148325" y1="333" x2="385.1674641148325" y2="323.6444265269099"></line><line class="line" stroke-width="1" stroke="#666666" x1="385.1674641148325" y1="333" x2="385.1674641148325" y2="326.06329369078816"></line><line class="line" stroke-width="1" stroke="#666666" x1="385.1674641148325" y1="333" x2="385.1674641148325" y2="326.06329369078816"></line><line class="line" stroke-width="1" stroke="#666666" x1="401.9138755980861" y1="333" x2="401.9138755980861" y2="323.6444265269099"></line><line class="line" stroke-width="1" stroke="#666666" x1="401.9138755980861" y1="333" x2="401.9138755980861" y2="324.853860108849"></line><line class="line" stroke-width="1" stroke="#666666" x1="425.35885167464113" y1="333" x2="425.35885167464113" y2="316.38782503527517"></line><line class="line" stroke-width="1" stroke="#666666" x1="425.35885167464113" y1="333" x2="425.35885167464113" y2="286.151985486797"></line><line class="line" stroke-width="1" stroke="#666666" x1="438.75598086124404" y1="333" x2="438.75598086124404" y2="326.06329369078816"></line><line class="line" stroke-width="1" stroke="#666666" x1="448.8038277511962" y1="333" x2="448.8038277511962" y2="313.9689578713969"></line><line class="line" stroke-width="1" stroke="#666666" x1="468.8995215311005" y1="333" x2="468.8995215311005" y2="326.06329369078816"></line><line class="line" stroke-width="1" stroke="#666666" x1="468.8995215311005" y1="333" x2="468.8995215311005" y2="326.06329369078816"></line><line class="line" stroke-width="1" stroke="#666666" x1="616.2679425837321" y1="333" x2="616.2679425837321" y2="326.06329369078816"></line><line class="line" stroke-width="1" stroke="#666666" x1="629.665071770335" y1="333" x2="629.665071770335" y2="324.853860108849"></line><line class="line" stroke-width="1" stroke="#666666" x1="629.665071770335" y1="333" x2="629.665071770335" y2="326.06329369078816"></line><line class="line" stroke-width="1" stroke="#666666" x1="636.3636363636364" y1="333" x2="636.3636363636364" y2="318.8066921991534"></line><line class="line" stroke-width="1" stroke="#666666" x1="636.3636363636364" y1="333" x2="636.3636363636364" y2="311.5500907075186"></line><line class="line" stroke-width="1" stroke="#666666" x1="653.11004784689" y1="333" x2="653.11004784689" y2="324.853860108849"></line><line class="line" stroke-width="1" stroke="#666666" x1="663.1578947368421" y1="333" x2="663.1578947368421" y2="294.6180205603709"></line><line class="line" stroke-width="1" stroke="#666666" x1="696.6507177033493" y1="333" x2="696.6507177033493" y2="170.04636162064102"></line><line class="line" stroke-width="1" stroke="#666666" x1="696.6507177033493" y1="333" x2="696.6507177033493" y2="326.06329369078816"></line><line class="line" stroke-width="1" stroke="#666666" x1="696.6507177033493" y1="333" x2="696.6507177033493" y2="321.22555936303166"></line></g><g id="circles"><circle r="4" cx="10.047846889952153" cy="320.0161257810925" style="fill: #4393c3; stroke: #666666; stroke-width: 1px;"></circle><circle r="4" cx="23.444976076555026" cy="29.75206611570252" style="fill: #4393c3; stroke: #666666; stroke-width: 1px;"></circle><circle r="4" cx="90.43062200956939" cy="324.853860108849" style="fill: #4393c3; stroke: #666666; stroke-width: 1px;"></circle><circle r="4" cx="97.12918660287082" cy="326.06329369078816" style="fill: #666666; stroke: #666666; stroke-width: 1px;"></circle><circle r="4" cx="140.66985645933013" cy="323.6444265269099" style="fill: #4393c3; stroke: #666666; stroke-width: 1px;"></circle><circle r="4" cx="147.36842105263156" cy="326.06329369078816" style="fill: #666666; stroke: #666666; stroke-width: 1px;"></circle><circle r="4" cx="154.06698564593302" cy="326.06329369078816" style="fill: #4393c3; stroke: #666666; stroke-width: 1px;"></circle><circle r="4" cx="164.11483253588517" cy="311.5500907075186" style="fill: #4393c3; stroke: #666666; stroke-width: 1px;"></circle><circle r="4" cx="180.86124401913878" cy="323.6444265269099" style="fill: #5aae61; stroke: #666666; stroke-width: 1px;"></circle><circle r="4" cx="180.86124401913878" cy="321.22555936303166" style="fill: #bf812d; stroke: #666666; stroke-width: 1px;"></circle><circle r="4" cx="204.3062200956938" cy="315.178391453336" style="fill: #4393c3; stroke: #666666; stroke-width: 1px;"></circle><circle r="4" cx="211.00478468899522" cy="266.80104817577103" style="fill: #4393c3; stroke: #666666; stroke-width: 1px;"></circle><circle r="4" cx="251.1961722488038" cy="326.06329369078816" style="fill: #4393c3; stroke: #666666; stroke-width: 1px;"></circle><circle r="4" cx="264.59330143540666" cy="326.06329369078816" style="fill: #4393c3; stroke: #666666; stroke-width: 1px;"></circle><circle r="4" cx="271.29186602870817" cy="324.853860108849" style="fill: #5aae61; stroke: #666666; stroke-width: 1px;"></circle><circle r="4" cx="271.29186602870817" cy="326.06329369078816" style="fill: #666666; stroke: #666666; stroke-width: 1px;"></circle><circle r="4" cx="271.29186602870817" cy="309.13122354364043" style="fill: #bf812d; stroke: #666666; stroke-width: 1px;"></circle><circle r="4" cx="271.29186602870817" cy="326.06329369078816" style="fill: #666666; stroke: #666666; stroke-width: 1px;"></circle><circle r="4" cx="281.33971291866027" cy="326.06329369078816" style="fill: #5aae61; stroke: #666666; stroke-width: 1px;"></circle><circle r="4" cx="341.6267942583732" cy="322.43499294497076" style="fill: #5aae61; stroke: #666666; stroke-width: 1px;"></circle><circle r="4" cx="341.6267942583732" cy="320.0161257810925" style="fill: #bf812d; stroke: #666666; stroke-width: 1px;"></circle><circle r="4" cx="341.6267942583732" cy="326.06329369078816" style="fill: #666666; stroke: #666666; stroke-width: 1px;"></circle><circle r="4" cx="351.67464114832535" cy="326.06329369078816" style="fill: #4393c3; stroke: #666666; stroke-width: 1px;"></circle><circle r="4" cx="361.72248803827756" cy="257.12557952025804" style="fill: #4393c3; stroke: #666666; stroke-width: 1px;"></circle><circle r="4" cx="365.0717703349282" cy="323.6444265269099" style="fill: #4393c3; stroke: #666666; stroke-width: 1px;"></circle><circle r="4" cx="371.77033492822966" cy="323.6444265269099" style="fill: #4393c3; stroke: #666666; stroke-width: 1px;"></circle><circle r="4" cx="385.1674641148325" cy="323.6444265269099" style="fill: #5aae61; stroke: #666666; stroke-width: 1px;"></circle><circle r="4" cx="385.1674641148325" cy="326.06329369078816" style="fill: #bf812d; stroke: #666666; stroke-width: 1px;"></circle><circle r="4" cx="385.1674641148325" cy="326.06329369078816" style="fill: #666666; stroke: #666666; stroke-width: 1px;"></circle><circle r="4" cx="401.9138755980861" cy="323.6444265269099" style="fill: #5aae61; stroke: #666666; stroke-width: 1px;"></circle><circle r="4" cx="401.9138755980861" cy="324.853860108849" style="fill: #bf812d; stroke: #666666; stroke-width: 1px;"></circle><circle r="4" cx="425.35885167464113" cy="316.38782503527517" style="fill: #5aae61; stroke: #666666; stroke-width: 1px;"></circle><circle r="4" cx="425.35885167464113" cy="286.151985486797" style="fill: #bf812d; stroke: #666666; stroke-width: 1px;"></circle><circle r="4" cx="438.75598086124404" cy="326.06329369078816" style="fill: #4393c3; stroke: #666666; stroke-width: 1px;"></circle><circle r="4" cx="448.8038277511962" cy="313.9689578713969" style="fill: #4393c3; stroke: #666666; stroke-width: 1px;"></circle><circle r="4" cx="468.8995215311005" cy="326.06329369078816" style="fill: #666666; stroke: #666666; stroke-width: 1px;"></circle><circle r="4" cx="468.8995215311005" cy="326.06329369078816" style="fill: #666666; stroke: #666666; stroke-width: 1px;"></circle><circle r="4" cx="616.2679425837321" cy="326.06329369078816" style="fill: #4393c3; stroke: #666666; stroke-width: 1px;"></circle><circle r="4" cx="629.665071770335" cy="324.853860108849" style="fill: #5aae61; stroke: #666666; stroke-width: 1px;"></circle><circle r="4" cx="629.665071770335" cy="326.06329369078816" style="fill: #bf812d; stroke: #666666; stroke-width: 1px;"></circle><circle r="4" cx="636.3636363636364" cy="318.8066921991534" style="fill: #5aae61; stroke: #666666; stroke-width: 1px;"></circle><circle r="4" cx="636.3636363636364" cy="311.5500907075186" style="fill: #bf812d; stroke: #666666; stroke-width: 1px;"></circle><circle r="4" cx="653.11004784689" cy="324.853860108849" style="fill: #4393c3; stroke: #666666; stroke-width: 1px;"></circle><circle r="4" cx="663.1578947368421" cy="294.6180205603709" style="fill: #4393c3; stroke: #666666; stroke-width: 1px;"></circle><circle r="4" cx="696.6507177033493" cy="170.04636162064102" style="fill: #5aae61; stroke: #666666; stroke-width: 1px;"></circle><circle r="4" cx="696.6507177033493" cy="326.06329369078816" style="fill: #666666; stroke: #666666; stroke-width: 1px;"></circle><circle r="4" cx="696.6507177033493" cy="321.22555936303166" style="fill: #bf812d; stroke: #666666; stroke-width: 1px;"></circle></g><g><rect x="0" y="333" width="700" height="12" style="fill: #ffffff; stroke-width: 1px; stroke: #666666;"></rect><rect x="10.047846889952153" y="333" width="237.79904306220098" height="12" style="fill: #aec7e8; stroke-width: 1px; stroke: #666666;"></rect><rect x="324.8803827751196" y="333" width="331.5789473684211" height="12" style="fill: #ffbb78; stroke-width: 1px; stroke: #666666;"></rect></g><g><a target="_blank" xlink:href="http://pfam.xfam.org/family/"><text y="343" x="350" text-anchor="middle" style="color: rgb(102, 102, 102); font-weight: normal; font-size: 12px; font-family: Arial; cursor: pointer;"></text></a><a target="_blank" xlink:href="http://pfam.xfam.org/family/GST_N"><text y="343" x="128.94736842105263" text-anchor="middle" style="color: rgb(102, 102, 102); font-weight: normal; font-size: 12px; font-family: Arial; cursor: pointer;">GST_N</text></a><a target="_blank" xlink:href="http://pfam.xfam.org/family/GST_C_3"><text y="343" x="490.66985645933016" text-anchor="middle" style="color: rgb(102, 102, 102); font-weight: normal; font-size: 12px; font-family: Arial; cursor: pointer;">GST_C_3</text></a></g><g><text y="358" x="0" text-anchor="middle" visibility="hidden" style="font-size: 13px;">M</text><text y="358" x="3.3492822966507174" text-anchor="middle" visibility="hidden" style="font-size: 13px;">P</text><text y="358" x="6.698564593301435" text-anchor="middle" visibility="hidden" style="font-size: 13px;">P</text><text y="358" x="10.047846889952153" text-anchor="middle" visibility="hidden" style="font-size: 13px;">Y</text><text y="358" x="13.39712918660287" text-anchor="middle" visibility="hidden" style="font-size: 13px;">T</text><text y="358" x="16.74641148325359" text-anchor="middle" visibility="hidden" style="font-size: 13px;">V</text><text y="358" x="20.095693779904305" text-anchor="middle" visibility="hidden" style="font-size: 13px;">V</text><text y="358" x="23.444976076555026" text-anchor="middle" visibility="hidden" style="font-size: 13px;">Y</text><text y="358" x="26.79425837320574" text-anchor="middle" visibility="hidden" style="font-size: 13px;">F</text><text y="358" x="30.14354066985646" text-anchor="middle" visibility="hidden" style="font-size: 13px;">P</text><text y="358" x="33.49282296650718" text-anchor="middle" visibility="hidden" style="font-size: 13px;">V</text><text y="358" x="36.84210526315789" text-anchor="middle" visibility="hidden" style="font-size: 13px;">R</text><text y="358" x="40.19138755980861" text-anchor="middle" visibility="hidden" style="font-size: 13px;">G</text><text y="358" x="43.54066985645933" text-anchor="middle" visibility="hidden" style="font-size: 13px;">R</text><text y="358" x="46.88995215311005" text-anchor="middle" visibility="hidden" style="font-size: 13px;">C</text><text y="358" x="50.239234449760765" text-anchor="middle" visibility="hidden" style="font-size: 13px;">A</text><text y="358" x="53.58851674641148" text-anchor="middle" visibility="hidden" style="font-size: 13px;">A</text><text y="358" x="56.9377990430622" text-anchor="middle" visibility="hidden" style="font-size: 13px;">L</text><text y="358" x="60.28708133971292" text-anchor="middle" visibility="hidden" style="font-size: 13px;">R</text><text y="358" x="63.63636363636364" text-anchor="middle" visibility="hidden" style="font-size: 13px;">M</text><text y="358" x="66.98564593301435" text-anchor="middle" visibility="hidden" style="font-size: 13px;">L</text><text y="358" x="70.33492822966507" text-anchor="middle" visibility="hidden" style="font-size: 13px;">L</text><text y="358" x="73.68421052631578" text-anchor="middle" visibility="hidden" style="font-size: 13px;">A</text><text y="358" x="77.03349282296651" text-anchor="middle" visibility="hidden" style="font-size: 13px;">D</text><text y="358" x="80.38277511961722" text-anchor="middle" visibility="hidden" style="font-size: 13px;">Q</text><text y="358" x="83.73205741626795" text-anchor="middle" visibility="hidden" style="font-size: 13px;">G</text><text y="358" x="87.08133971291866" text-anchor="middle" visibility="hidden" style="font-size: 13px;">Q</text><text y="358" x="90.43062200956939" text-anchor="middle" visibility="hidden" style="font-size: 13px;">S</text><text y="358" x="93.7799043062201" text-anchor="middle" visibility="hidden" style="font-size: 13px;">W</text><text y="358" x="97.12918660287082" text-anchor="middle" visibility="hidden" style="font-size: 13px;">K</text><text y="358" x="100.47846889952153" text-anchor="middle" visibility="hidden" style="font-size: 13px;">E</text><text y="358" x="103.82775119617224" text-anchor="middle" visibility="hidden" style="font-size: 13px;">E</text><text y="358" x="107.17703349282296" text-anchor="middle" visibility="hidden" style="font-size: 13px;">V</text><text y="358" x="110.52631578947368" text-anchor="middle" visibility="hidden" style="font-size: 13px;">V</text><text y="358" x="113.8755980861244" text-anchor="middle" visibility="hidden" style="font-size: 13px;">T</text><text y="358" x="117.22488038277513" text-anchor="middle" visibility="hidden" style="font-size: 13px;">V</text><text y="358" x="120.57416267942584" text-anchor="middle" visibility="hidden" style="font-size: 13px;">E</text><text y="358" x="123.92344497607657" text-anchor="middle" visibility="hidden" style="font-size: 13px;">T</text><text y="358" x="127.27272727272728" text-anchor="middle" visibility="hidden" style="font-size: 13px;">W</text><text y="358" x="130.62200956937798" text-anchor="middle" visibility="hidden" style="font-size: 13px;">Q</text><text y="358" x="133.9712918660287" text-anchor="middle" visibility="hidden" style="font-size: 13px;">E</text><text y="358" x="137.32057416267943" text-anchor="middle" visibility="hidden" style="font-size: 13px;">G</text><text y="358" x="140.66985645933013" text-anchor="middle" visibility="hidden" style="font-size: 13px;">S</text><text y="358" x="144.01913875598086" text-anchor="middle" visibility="hidden" style="font-size: 13px;">L</text><text y="358" x="147.36842105263156" text-anchor="middle" visibility="hidden" style="font-size: 13px;">K</text><text y="358" x="150.71770334928232" text-anchor="middle" visibility="hidden" style="font-size: 13px;">A</text><text y="358" x="154.06698564593302" text-anchor="middle" visibility="hidden" style="font-size: 13px;">S</text><text y="358" x="157.41626794258374" text-anchor="middle" visibility="hidden" style="font-size: 13px;">C</text><text y="358" x="160.76555023923444" text-anchor="middle" visibility="hidden" style="font-size: 13px;">L</text><text y="358" x="164.11483253588517" text-anchor="middle" visibility="hidden" style="font-size: 13px;">Y</text><text y="358" x="167.4641148325359" text-anchor="middle" visibility="hidden" style="font-size: 13px;">G</text><text y="358" x="170.8133971291866" text-anchor="middle" visibility="hidden" style="font-size: 13px;">Q</text><text y="358" x="174.16267942583733" text-anchor="middle" visibility="hidden" style="font-size: 13px;">L</text><text y="358" x="177.51196172248802" text-anchor="middle" visibility="hidden" style="font-size: 13px;">P</text><text y="358" x="180.86124401913878" text-anchor="middle" visibility="hidden" style="font-size: 13px;">K</text><text y="358" x="184.21052631578945" text-anchor="middle" visibility="hidden" style="font-size: 13px;">F</text><text y="358" x="187.5598086124402" text-anchor="middle" visibility="hidden" style="font-size: 13px;">Q</text><text y="358" x="190.9090909090909" text-anchor="middle" visibility="hidden" style="font-size: 13px;">D</text><text y="358" x="194.25837320574163" text-anchor="middle" visibility="hidden" style="font-size: 13px;">G</text><text y="358" x="197.60765550239233" text-anchor="middle" visibility="hidden" style="font-size: 13px;">D</text><text y="358" x="200.95693779904306" text-anchor="middle" visibility="hidden" style="font-size: 13px;">L</text><text y="358" x="204.3062200956938" text-anchor="middle" visibility="hidden" style="font-size: 13px;">T</text><text y="358" x="207.6555023923445" text-anchor="middle" visibility="hidden" style="font-size: 13px;">L</text><text y="358" x="211.00478468899522" text-anchor="middle" visibility="hidden" style="font-size: 13px;">Y</text><text y="358" x="214.35406698564591" text-anchor="middle" visibility="hidden" style="font-size: 13px;">Q</text><text y="358" x="217.70334928229667" text-anchor="middle" visibility="hidden" style="font-size: 13px;">S</text><text y="358" x="221.05263157894737" text-anchor="middle" visibility="hidden" style="font-size: 13px;">N</text><text y="358" x="224.4019138755981" text-anchor="middle" visibility="hidden" style="font-size: 13px;">T</text><text y="358" x="227.7511961722488" text-anchor="middle" visibility="hidden" style="font-size: 13px;">I</text><text y="358" x="231.10047846889952" text-anchor="middle" visibility="hidden" style="font-size: 13px;">L</text><text y="358" x="234.44976076555025" text-anchor="middle" visibility="hidden" style="font-size: 13px;">R</text><text y="358" x="237.79904306220095" text-anchor="middle" visibility="hidden" style="font-size: 13px;">H</text><text y="358" x="241.14832535885168" text-anchor="middle" visibility="hidden" style="font-size: 13px;">L</text><text y="358" x="244.49760765550238" text-anchor="middle" visibility="hidden" style="font-size: 13px;">G</text><text y="358" x="247.84688995215313" text-anchor="middle" visibility="hidden" style="font-size: 13px;">R</text><text y="358" x="251.1961722488038" text-anchor="middle" visibility="hidden" style="font-size: 13px;">T</text><text y="358" x="254.54545454545456" text-anchor="middle" visibility="hidden" style="font-size: 13px;">L</text><text y="358" x="257.89473684210526" text-anchor="middle" visibility="hidden" style="font-size: 13px;">G</text><text y="358" x="261.24401913875596" text-anchor="middle" visibility="hidden" style="font-size: 13px;">L</text><text y="358" x="264.59330143540666" text-anchor="middle" visibility="hidden" style="font-size: 13px;">Y</text><text y="358" x="267.9425837320574" text-anchor="middle" visibility="hidden" style="font-size: 13px;">G</text><text y="358" x="271.29186602870817" text-anchor="middle" visibility="hidden" style="font-size: 13px;">K</text><text y="358" x="274.64114832535887" text-anchor="middle" visibility="hidden" style="font-size: 13px;">D</text><text y="358" x="277.99043062200957" text-anchor="middle" visibility="hidden" style="font-size: 13px;">Q</text><text y="358" x="281.33971291866027" text-anchor="middle" visibility="hidden" style="font-size: 13px;">Q</text><text y="358" x="284.688995215311" text-anchor="middle" visibility="hidden" style="font-size: 13px;">E</text><text y="358" x="288.0382775119617" text-anchor="middle" visibility="hidden" style="font-size: 13px;">A</text><text y="358" x="291.3875598086124" text-anchor="middle" visibility="hidden" style="font-size: 13px;">A</text><text y="358" x="294.7368421052631" text-anchor="middle" visibility="hidden" style="font-size: 13px;">L</text><text y="358" x="298.0861244019139" text-anchor="middle" visibility="hidden" style="font-size: 13px;">V</text><text y="358" x="301.43540669856463" text-anchor="middle" visibility="hidden" style="font-size: 13px;">D</text><text y="358" x="304.78468899521533" text-anchor="middle" visibility="hidden" style="font-size: 13px;">M</text><text y="358" x="308.13397129186603" text-anchor="middle" visibility="hidden" style="font-size: 13px;">V</text><text y="358" x="311.48325358851673" text-anchor="middle" visibility="hidden" style="font-size: 13px;">N</text><text y="358" x="314.8325358851675" text-anchor="middle" visibility="hidden" style="font-size: 13px;">D</text><text y="358" x="318.1818181818182" text-anchor="middle" visibility="hidden" style="font-size: 13px;">G</text><text y="358" x="321.5311004784689" text-anchor="middle" visibility="hidden" style="font-size: 13px;">V</text><text y="358" x="324.8803827751196" text-anchor="middle" visibility="hidden" style="font-size: 13px;">E</text><text y="358" x="328.22966507177034" text-anchor="middle" visibility="hidden" style="font-size: 13px;">D</text><text y="358" x="331.57894736842104" text-anchor="middle" visibility="hidden" style="font-size: 13px;">L</text><text y="358" x="334.9282296650718" text-anchor="middle" visibility="hidden" style="font-size: 13px;">R</text><text y="358" x="338.2775119617225" text-anchor="middle" visibility="hidden" style="font-size: 13px;">C</text><text y="358" x="341.6267942583732" text-anchor="middle" visibility="hidden" style="font-size: 13px;">K</text><text y="358" x="344.97607655502395" text-anchor="middle" visibility="hidden" style="font-size: 13px;">Y</text><text y="358" x="348.32535885167465" text-anchor="middle" visibility="hidden" style="font-size: 13px;">I</text><text y="358" x="351.67464114832535" text-anchor="middle" visibility="hidden" style="font-size: 13px;">S</text><text y="358" x="355.02392344497605" text-anchor="middle" visibility="hidden" style="font-size: 13px;">L</text><text y="358" x="358.3732057416268" text-anchor="middle" visibility="hidden" style="font-size: 13px;">I</text><text y="358" x="361.72248803827756" text-anchor="middle" visibility="hidden" style="font-size: 13px;">Y</text><text y="358" x="365.0717703349282" text-anchor="middle" visibility="hidden" style="font-size: 13px;">T</text><text y="358" x="368.4210526315789" text-anchor="middle" visibility="hidden" style="font-size: 13px;">N</text><text y="358" x="371.77033492822966" text-anchor="middle" visibility="hidden" style="font-size: 13px;">Y</text><text y="358" x="375.1196172248804" text-anchor="middle" visibility="hidden" style="font-size: 13px;">E</text><text y="358" x="378.4688995215311" text-anchor="middle" visibility="hidden" style="font-size: 13px;">A</text><text y="358" x="381.8181818181818" text-anchor="middle" visibility="hidden" style="font-size: 13px;">G</text><text y="358" x="385.1674641148325" text-anchor="middle" visibility="hidden" style="font-size: 13px;">K</text><text y="358" x="388.51674641148327" text-anchor="middle" visibility="hidden" style="font-size: 13px;">D</text><text y="358" x="391.86602870813397" text-anchor="middle" visibility="hidden" style="font-size: 13px;">D</text><text y="358" x="395.21531100478467" text-anchor="middle" visibility="hidden" style="font-size: 13px;">Y</text><text y="358" x="398.56459330143537" text-anchor="middle" visibility="hidden" style="font-size: 13px;">V</text><text y="358" x="401.9138755980861" text-anchor="middle" visibility="hidden" style="font-size: 13px;">K</text><text y="358" x="405.2631578947369" text-anchor="middle" visibility="hidden" style="font-size: 13px;">A</text><text y="358" x="408.6124401913876" text-anchor="middle" visibility="hidden" style="font-size: 13px;">L</text><text y="358" x="411.9617224880383" text-anchor="middle" visibility="hidden" style="font-size: 13px;">P</text><text y="358" x="415.311004784689" text-anchor="middle" visibility="hidden" style="font-size: 13px;">G</text><text y="358" x="418.66028708133973" text-anchor="middle" visibility="hidden" style="font-size: 13px;">Q</text><text y="358" x="422.00956937799043" text-anchor="middle" visibility="hidden" style="font-size: 13px;">L</text><text y="358" x="425.35885167464113" text-anchor="middle" visibility="hidden" style="font-size: 13px;">K</text><text y="358" x="428.70813397129183" text-anchor="middle" visibility="hidden" style="font-size: 13px;">P</text><text y="358" x="432.0574162679426" text-anchor="middle" visibility="hidden" style="font-size: 13px;">F</text><text y="358" x="435.40669856459334" text-anchor="middle" visibility="hidden" style="font-size: 13px;">E</text><text y="358" x="438.75598086124404" text-anchor="middle" visibility="hidden" style="font-size: 13px;">T</text><text y="358" x="442.10526315789474" text-anchor="middle" visibility="hidden" style="font-size: 13px;">L</text><text y="358" x="445.45454545454544" text-anchor="middle" visibility="hidden" style="font-size: 13px;">L</text><text y="358" x="448.8038277511962" text-anchor="middle" visibility="hidden" style="font-size: 13px;">S</text><text y="358" x="452.1531100478469" text-anchor="middle" visibility="hidden" style="font-size: 13px;">Q</text><text y="358" x="455.5023923444976" text-anchor="middle" visibility="hidden" style="font-size: 13px;">N</text><text y="358" x="458.8516746411483" text-anchor="middle" visibility="hidden" style="font-size: 13px;">Q</text><text y="358" x="462.20095693779905" text-anchor="middle" visibility="hidden" style="font-size: 13px;">G</text><text y="358" x="465.5502392344498" text-anchor="middle" visibility="hidden" style="font-size: 13px;">G</text><text y="358" x="468.8995215311005" text-anchor="middle" visibility="hidden" style="font-size: 13px;">K</text><text y="358" x="472.24880382775115" text-anchor="middle" visibility="hidden" style="font-size: 13px;">T</text><text y="358" x="475.5980861244019" text-anchor="middle" visibility="hidden" style="font-size: 13px;">F</text><text y="358" x="478.94736842105266" text-anchor="middle" visibility="hidden" style="font-size: 13px;">I</text><text y="358" x="482.29665071770336" text-anchor="middle" visibility="hidden" style="font-size: 13px;">V</text><text y="358" x="485.64593301435406" text-anchor="middle" visibility="hidden" style="font-size: 13px;">G</text><text y="358" x="488.99521531100476" text-anchor="middle" visibility="hidden" style="font-size: 13px;">D</text><text y="358" x="492.3444976076555" text-anchor="middle" visibility="hidden" style="font-size: 13px;">Q</text><text y="358" x="495.69377990430627" text-anchor="middle" visibility="hidden" style="font-size: 13px;">I</text><text y="358" x="499.0430622009569" text-anchor="middle" visibility="hidden" style="font-size: 13px;">S</text><text y="358" x="502.3923444976076" text-anchor="middle" visibility="hidden" style="font-size: 13px;">F</text><text y="358" x="505.74162679425837" text-anchor="middle" visibility="hidden" style="font-size: 13px;">A</text><text y="358" x="509.0909090909091" text-anchor="middle" visibility="hidden" style="font-size: 13px;">D</text><text y="358" x="512.4401913875598" text-anchor="middle" visibility="hidden" style="font-size: 13px;">Y</text><text y="358" x="515.7894736842105" text-anchor="middle" visibility="hidden" style="font-size: 13px;">N</text><text y="358" x="519.1387559808612" text-anchor="middle" visibility="hidden" style="font-size: 13px;">L</text><text y="358" x="522.4880382775119" text-anchor="middle" visibility="hidden" style="font-size: 13px;">L</text><text y="358" x="525.8373205741627" text-anchor="middle" visibility="hidden" style="font-size: 13px;">D</text><text y="358" x="529.1866028708133" text-anchor="middle" visibility="hidden" style="font-size: 13px;">L</text><text y="358" x="532.5358851674641" text-anchor="middle" visibility="hidden" style="font-size: 13px;">L</text><text y="358" x="535.8851674641148" text-anchor="middle" visibility="hidden" style="font-size: 13px;">L</text><text y="358" x="539.2344497607655" text-anchor="middle" visibility="hidden" style="font-size: 13px;">I</text><text y="358" x="542.5837320574163" text-anchor="middle" visibility="hidden" style="font-size: 13px;">H</text><text y="358" x="545.9330143540669" text-anchor="middle" visibility="hidden" style="font-size: 13px;">E</text><text y="358" x="549.2822966507177" text-anchor="middle" visibility="hidden" style="font-size: 13px;">V</text><text y="358" x="552.6315789473684" text-anchor="middle" visibility="hidden" style="font-size: 13px;">L</text><text y="358" x="555.9808612440191" text-anchor="middle" visibility="hidden" style="font-size: 13px;">A</text><text y="358" x="559.3301435406698" text-anchor="middle" visibility="hidden" style="font-size: 13px;">P</text><text y="358" x="562.6794258373205" text-anchor="middle" visibility="hidden" style="font-size: 13px;">G</text><text y="358" x="566.0287081339712" text-anchor="middle" visibility="hidden" style="font-size: 13px;">C</text><text y="358" x="569.377990430622" text-anchor="middle" visibility="hidden" style="font-size: 13px;">L</text><text y="358" x="572.7272727272727" text-anchor="middle" visibility="hidden" style="font-size: 13px;">D</text><text y="358" x="576.0765550239234" text-anchor="middle" visibility="hidden" style="font-size: 13px;">A</text><text y="358" x="579.4258373205741" text-anchor="middle" visibility="hidden" style="font-size: 13px;">F</text><text y="358" x="582.7751196172248" text-anchor="middle" visibility="hidden" style="font-size: 13px;">P</text><text y="358" x="586.1244019138757" text-anchor="middle" visibility="hidden" style="font-size: 13px;">L</text><text y="358" x="589.4736842105262" text-anchor="middle" visibility="hidden" style="font-size: 13px;">L</text><text y="358" x="592.8229665071771" text-anchor="middle" visibility="hidden" style="font-size: 13px;">S</text><text y="358" x="596.1722488038278" text-anchor="middle" visibility="hidden" style="font-size: 13px;">A</text><text y="358" x="599.5215311004785" text-anchor="middle" visibility="hidden" style="font-size: 13px;">Y</text><text y="358" x="602.8708133971293" text-anchor="middle" visibility="hidden" style="font-size: 13px;">V</text><text y="358" x="606.2200956937799" text-anchor="middle" visibility="hidden" style="font-size: 13px;">G</text><text y="358" x="609.5693779904307" text-anchor="middle" visibility="hidden" style="font-size: 13px;">R</text><text y="358" x="612.9186602870814" text-anchor="middle" visibility="hidden" style="font-size: 13px;">L</text><text y="358" x="616.2679425837321" text-anchor="middle" visibility="hidden" style="font-size: 13px;">S</text><text y="358" x="619.6172248803828" text-anchor="middle" visibility="hidden" style="font-size: 13px;">A</text><text y="358" x="622.9665071770335" text-anchor="middle" visibility="hidden" style="font-size: 13px;">R</text><text y="358" x="626.3157894736842" text-anchor="middle" visibility="hidden" style="font-size: 13px;">P</text><text y="358" x="629.665071770335" text-anchor="middle" visibility="hidden" style="font-size: 13px;">K</text><text y="358" x="633.0143540669856" text-anchor="middle" visibility="hidden" style="font-size: 13px;">L</text><text y="358" x="636.3636363636364" text-anchor="middle" visibility="hidden" style="font-size: 13px;">K</text><text y="358" x="639.7129186602871" text-anchor="middle" visibility="hidden" style="font-size: 13px;">A</text><text y="358" x="643.0622009569378" text-anchor="middle" visibility="hidden" style="font-size: 13px;">F</text><text y="358" x="646.4114832535886" text-anchor="middle" visibility="hidden" style="font-size: 13px;">L</text><text y="358" x="649.7607655502392" text-anchor="middle" visibility="hidden" style="font-size: 13px;">A</text><text y="358" x="653.11004784689" text-anchor="middle" visibility="hidden" style="font-size: 13px;">S</text><text y="358" x="656.4593301435407" text-anchor="middle" visibility="hidden" style="font-size: 13px;">P</text><text y="358" x="659.8086124401914" text-anchor="middle" visibility="hidden" style="font-size: 13px;">E</text><text y="358" x="663.1578947368421" text-anchor="middle" visibility="hidden" style="font-size: 13px;">Y</text><text y="358" x="666.5071770334928" text-anchor="middle" visibility="hidden" style="font-size: 13px;">V</text><text y="358" x="669.8564593301436" text-anchor="middle" visibility="hidden" style="font-size: 13px;">N</text><text y="358" x="673.2057416267943" text-anchor="middle" visibility="hidden" style="font-size: 13px;">L</text><text y="358" x="676.555023923445" text-anchor="middle" visibility="hidden" style="font-size: 13px;">P</text><text y="358" x="679.9043062200957" text-anchor="middle" visibility="hidden" style="font-size: 13px;">I</text><text y="358" x="683.2535885167464" text-anchor="middle" visibility="hidden" style="font-size: 13px;">N</text><text y="358" x="686.6028708133971" text-anchor="middle" visibility="hidden" style="font-size: 13px;">G</text><text y="358" x="689.9521531100479" text-anchor="middle" visibility="hidden" style="font-size: 13px;">N</text><text y="358" x="693.3014354066985" text-anchor="middle" visibility="hidden" style="font-size: 13px;">G</text><text y="358" x="696.6507177033493" text-anchor="middle" visibility="hidden" style="font-size: 13px;">K</text><text y="358" x="700" text-anchor="middle" visibility="hidden" style="font-size: 13px;">Q</text></g></g></svg><g class="xAxis" transform="translate(0,360)" fill="none" font-size="10" font-family="sans-serif" text-anchor="middle"><path class="domain" stroke="#000" d="M0.5,6V0.5H700.5V6"></path><g class="tick" opacity="1" transform="translate(64.13636363636364,0)"><line stroke="#000" y2="6"></line><text fill="#000" y="9" dy="0.71em">20</text></g><g class="tick" opacity="1" transform="translate(131.12200956937798,0)"><line stroke="#000" y2="6"></line><text fill="#000" y="9" dy="0.71em">40</text></g><g class="tick" opacity="1" transform="translate(198.10765550239233,0)"><line stroke="#000" y2="6"></line><text fill="#000" y="9" dy="0.71em">60</text></g><g class="tick" opacity="1" transform="translate(265.09330143540666,0)"><line stroke="#000" y2="6"></line><text fill="#000" y="9" dy="0.71em">80</text></g><g class="tick" opacity="1" transform="translate(332.07894736842104,0)"><line stroke="#000" y2="6"></line><text fill="#000" y="9" dy="0.71em">100</text></g><g class="tick" opacity="1" transform="translate(399.06459330143537,0)"><line stroke="#000" y2="6"></line><text fill="#000" y="9" dy="0.71em">120</text></g><g class="tick" opacity="1" transform="translate(466.0502392344498,0)"><line stroke="#000" y2="6"></line><text fill="#000" y="9" dy="0.71em">140</text></g><g class="tick" opacity="1" transform="translate(533.0358851674641,0)"><line stroke="#000" y2="6"></line><text fill="#000" y="9" dy="0.71em">160</text></g><g class="tick" opacity="1" transform="translate(600.0215311004785,0)"><line stroke="#000" y2="6"></line><text fill="#000" y="9" dy="0.71em">180</text></g><g class="tick" opacity="1" transform="translate(667.0071770334928,0)"><line stroke="#000" y2="6"></line><text fill="#000" y="9" dy="0.71em">200</text></g></g><text class="x label" text-anchor="end" x="700" y="390" style="font-size: 13px; font-family: Arial;">Residue number</text><g class="yAxis" fill="none" font-size="10" font-family="sans-serif" text-anchor="end"><path class="domain" stroke="#000" d="M-6,360.5H0.5V0.5H-6"></path><g class="tick" opacity="1" transform="translate(0,351.9613989115098)"><line stroke="#000" x2="-6"></line><text fill="#000" x="-9" dy="0.32em"></text></g><g class="tick" opacity="1" transform="translate(0,327.77272727272725)"><line stroke="#000" x2="-6"></line><text fill="#000" x="-9" dy="0.32em">0</text></g><g class="tick" opacity="1" transform="translate(0,303.5840556339448)"><line stroke="#000" x2="-6"></line><text fill="#000" x="-9" dy="0.32em">20</text></g><g class="tick" opacity="1" transform="translate(0,279.39538399516226)"><line stroke="#000" x2="-6"></line><text fill="#000" x="-9" dy="0.32em">40</text></g><g class="tick" opacity="1" transform="translate(0,255.20671235637977)"><line stroke="#000" x2="-6"></line><text fill="#000" x="-9" dy="0.32em">60</text></g><g class="tick" opacity="1" transform="translate(0,231.01804071759727)"><line stroke="#000" x2="-6"></line><text fill="#000" x="-9" dy="0.32em">80</text></g><g class="tick" opacity="1" transform="translate(0,206.82936907881478)"><line stroke="#000" x2="-6"></line><text fill="#000" x="-9" dy="0.32em">100</text></g><g class="tick" opacity="1" transform="translate(0,182.64069744003226)"><line stroke="#000" x2="-6"></line><text fill="#000" x="-9" dy="0.32em">120</text></g><g class="tick" opacity="1" transform="translate(0,158.4520258012498)"><line stroke="#000" x2="-6"></line><text fill="#000" x="-9" dy="0.32em">140</text></g><g class="tick" opacity="1" transform="translate(0,134.26335416246724)"><line stroke="#000" x2="-6"></line><text fill="#000" x="-9" dy="0.32em">160</text></g><g class="tick" opacity="1" transform="translate(0,110.07468252368474)"><line stroke="#000" x2="-6"></line><text fill="#000" x="-9" dy="0.32em">180</text></g><g class="tick" opacity="1" transform="translate(0,85.88601088490225)"><line stroke="#000" x2="-6"></line><text fill="#000" x="-9" dy="0.32em">200</text></g><g class="tick" opacity="1" transform="translate(0,61.697339246119725)"><line stroke="#000" x2="-6"></line><text fill="#000" x="-9" dy="0.32em">220</text></g><g class="tick" opacity="1" transform="translate(0,37.50866760733726)"><line stroke="#000" x2="-6"></line><text fill="#000" x="-9" dy="0.32em">240</text></g><g class="tick" opacity="1" transform="translate(0,13.319995968554736)"><line stroke="#000" x2="-6"></line><text fill="#000" x="-9" dy="0.32em">260</text></g></g><text class="y label" text-anchor="middle" y="-50" x="-180" dy="0.8em" transform="rotate(-90)" style="font-size: 13px; font-family: Arial;">Total number of references</text><g class="axisRed" fill="none" font-size="10" font-family="sans-serif" text-anchor="start" visibility="hidden" transform="translate(700, 0)"><path class="domain" stroke="#000" d="M6,360.5H0.5V0.5H6"></path><g class="tick" opacity="1" transform="translate(0,360.5)"><line stroke="#000" x2="6"></line><text fill="#000" x="9" dy="0.32em">0</text></g><text text-anchor="start" dx="5.2em" dy="-2.6em" transform="rotate(90)" visibility="hidden" style="font-size: 12px; font-family: Arial; fill: #d7301f;">No recurrent (&gt;2) missense mutations!</text></g><g class="axisPurple" fill="none" font-size="10" font-family="sans-serif" text-anchor="start" visibility="hidden"><path class="domain" stroke="#000" d="M6,360.5H0.5V0.5H6"></path><g class="tick" opacity="1" transform="translate(0,357.52479338842977)"><line stroke="#000" x2="6"></line><text fill="#000" x="9" dy="0.32em"></text></g><g class="tick" opacity="1" transform="translate(0,327.77272727272725)"><line stroke="#000" x2="6"></line><text fill="#000" x="9" dy="0.32em">0</text></g><g class="tick" opacity="1" transform="translate(0,298.0206611570248)"><line stroke="#000" x2="6"></line><text fill="#000" x="9" dy="0.32em">0.1</text></g><g class="tick" opacity="1" transform="translate(0,268.2685950413223)"><line stroke="#000" x2="6"></line><text fill="#000" x="9" dy="0.32em">0.2</text></g><g class="tick" opacity="1" transform="translate(0,238.51652892561984)"><line stroke="#000" x2="6"></line><text fill="#000" x="9" dy="0.32em">0.3</text></g><g class="tick" opacity="1" transform="translate(0,208.76446280991738)"><line stroke="#000" x2="6"></line><text fill="#000" x="9" dy="0.32em">0.4</text></g><g class="tick" opacity="1" transform="translate(0,179.0123966942149)"><line stroke="#000" x2="6"></line><text fill="#000" x="9" dy="0.32em">0.5</text></g><g class="tick" opacity="1" transform="translate(0,149.26033057851242)"><line stroke="#000" x2="6"></line><text fill="#000" x="9" dy="0.32em">0.6</text></g><g class="tick" opacity="1" transform="translate(0,119.50826446280996)"><line stroke="#000" x2="6"></line><text fill="#000" x="9" dy="0.32em">0.7</text></g><g class="tick" opacity="1" transform="translate(0,89.75619834710744)"><line stroke="#000" x2="6"></line><text fill="#000" x="9" dy="0.32em">0.8</text></g><g class="tick" opacity="1" transform="translate(0,60.00413223140498)"><line stroke="#000" x2="6"></line><text fill="#000" x="9" dy="0.32em">0.9</text></g><g class="tick" opacity="1" transform="translate(0,30.25206611570252)"><line stroke="#000" x2="6"></line><text fill="#000" x="9" dy="0.32em">1</text></g><g class="tick" opacity="1" transform="translate(0,0.5)"><line stroke="#000" x2="6"></line><text fill="#000" x="9" dy="0.32em">1.1</text></g><text text-anchor="start" x="10" y="10" visibility="hidden" style="font-size: 12px; font-family: Arial; fill: #807dba;">No disease causing germline SNPs known!</text></g><circle cx="636" cy="15" r="10" class="compassNav" style="fill: #ffffff; stroke: #666666; stroke-width: 1px;"></circle><path d="M440.935 12.574l3.966 82.766C399.416 41.904 331.674 8 256 8 134.813 8 33.933 94.924 12.296 209.824 10.908 217.193 16.604 224 24.103 224h49.084c5.57 0 10.377-3.842 11.676-9.259C103.407 137.408 172.931 80 256 80c60.893 0 114.512 30.856 146.104 77.801l-101.53-4.865c-6.845-.328-12.574 5.133-12.574 11.986v47.411c0 6.627 5.373 12 12 12h200.333c6.627 0 12-5.373 12-12V12c0-6.627-5.373-12-12-12h-47.411c-6.853 0-12.315 5.729-11.987 12.574zM256 432c-60.895 0-114.517-30.858-146.109-77.805l101.868 4.871c6.845.327 12.573-5.134 12.573-11.986v-47.412c0-6.627-5.373-12-12-12H12c-6.627 0-12 5.373-12 12V500c0 6.627 5.373 12 12 12h47.385c6.863 0 12.328-5.745 11.985-12.599l-4.129-82.575C112.725 470.166 180.405 504 256 504c121.187 0 222.067-86.924 243.704-201.824 1.388-7.369-4.308-14.176-11.807-14.176h-49.084c-5.57 0-10.377 3.842-11.676 9.259C408.593 374.592 339.069 432 256 432z" class="compassNav" transform="translate(631, 10) scale(0.02)" style="fill: #666666; stroke: #666666; stroke-width: 1px;"></path><circle cx="658" cy="15" r="10" class="compassNav" style="fill: #ffffff; stroke: #666666; stroke-width: 1px;"></circle><line class="compassNav" stroke-width="2" stroke="#666666" x1="654" y1="15" x2="662" y2="15"></line><line class="compassNav" stroke-width="2" stroke="#666666" x1="658" y1="11" x2="658" y2="19"></line><circle cx="614" cy="15" r="10" class="compassNav" style="fill: #ffffff; stroke: #666666; stroke-width: 1px;"></circle><line class="compassNav" stroke-width="2" stroke="#666666" x1="610" y1="15" x2="618" y2="15"></line><path d="M582 14 l20 -12 a100,40 0 0,0 0,24z" class="compassNav" style="fill: #ffffff; stroke: #666666; stroke-width: 1px;"></path><path d="M690 14 l-20 -12 a100,40 0 0,1 0,24z" class="compassNav" style="fill: #ffffff; stroke: #666666; stroke-width: 1px;"></path><path d="M216 0h80c13.3 0 24 10.7 24 24v168h87.7c17.8 0 26.7 21.5 14.1 34.1L269.7 378.3c-7.5 7.5-19.8 7.5-27.3 0L90.1 226.1c-12.6-12.6-3.7-34.1 14.1-34.1H192V24c0-13.3 10.7-24 24-24zm296 376v112c0 13.3-10.7 24-24 24H24c-13.3 0-24-10.7-24-24V376c0-13.3 10.7-24 24-24h146.7l49 49c20.1 20.1 52.5 20.1 72.6 0l49-49H488c13.3 0 24 10.7 24 24zm-124 88c0-11-9-20-20-20s-20 9-20 20 9 20 20 20 20-9 20-20zm64 0c0-11-9-20-20-20s-20 9-20 20 9 20 20 20 20-9 20-20z" class="compassNav" transform="translate(552,0) scale(0.05)" style="fill: #336699; stroke: #336699; stroke-width: 1px; cursor: pointer;"></path></g></svg>