<svg width="800" height="400" style="background-color: white;"><g transform="translate(50,0)"><svg width="700" height="360"><g style="-webkit-tap-highlight-color: rgba(0, 0, 0, 0);"><rect width="700" height="360" style="fill: #ffffff;"></rect><g id="lines"><line class="line" stroke-width="1" stroke="#d7301f" x1="10.44776119402985" y1="333" x2="10.44776119402985" y2="29.752066115702462" visibility="hidden" style="stroke-dasharray: 3px, 3px;"></line></g><g><rect x="5.44776119402985" y="24.752066115702462" width="10" height="10" visibility="hidden" style="fill: #ffffff; stroke: #d7301f;"></rect></g><g id="lines"><line class="line" stroke-width="1" stroke="#6a51a3" x1="-527.6119402985074" y1="333" x2="-527.6119402985074" y2="327.27272727272725" visibility="hidden" style="stroke-dasharray: 3px, 3px;"></line></g><g><rect x="-532.6119402985074" y="322.27272727272725" width="10" height="10" visibility="hidden" style="fill: #ffffff; stroke: #6a51a3;"></rect></g><g id="lines"><line class="line" stroke-width="1" stroke="#666666" x1="36.56716417910447" y1="333" x2="36.56716417910447" y2="299.3801652892562"></line><line class="line" stroke-width="1" stroke="#666666" x1="62.6865671641791" y1="333" x2="62.6865671641791" y2="317.97520661157023"></line><line class="line" stroke-width="1" stroke="#666666" x1="62.6865671641791" y1="333" x2="62.6865671641791" y2="317.97520661157023"></line><line class="line" stroke-width="1" stroke="#666666" x1="130.59701492537314" y1="333" x2="130.59701492537314" y2="308.6776859504132"></line><line class="line" stroke-width="1" stroke="#666666" x1="146.2686567164179" y1="333" x2="146.2686567164179" y2="197.10743801652896"></line><line class="line" stroke-width="1" stroke="#666666" x1="146.2686567164179" y1="333" x2="146.2686567164179" y2="252.8925619834711"></line><line class="line" stroke-width="1" stroke="#666666" x1="146.2686567164179" y1="333" x2="146.2686567164179" y2="317.97520661157023"></line><line class="line" stroke-width="1" stroke="#666666" x1="151.49253731343282" y1="333" x2="151.49253731343282" y2="178.5123966942149"></line><line class="line" stroke-width="1" stroke="#666666" x1="188.0597014925373" y1="333" x2="188.0597014925373" y2="215.702479338843"></line><line class="line" stroke-width="1" stroke="#666666" x1="198.50746268656715" y1="333" x2="198.50746268656715" y2="280.78512396694214"></line><line class="line" stroke-width="1" stroke="#666666" x1="297.76119402985074" y1="333" x2="297.76119402985074" y2="317.97520661157023"></line><line class="line" stroke-width="1" stroke="#666666" x1="323.8805970149254" y1="333" x2="323.8805970149254" y2="308.6776859504132"></line><line class="line" stroke-width="1" stroke="#666666" x1="329.1044776119403" y1="333" x2="329.1044776119403" y2="290.08264462809916"></line><line class="line" stroke-width="1" stroke="#666666" x1="329.1044776119403" y1="333" x2="329.1044776119403" y2="215.702479338843"></line><line class="line" stroke-width="1" stroke="#666666" x1="365.67164179104475" y1="333" x2="365.67164179104475" y2="308.6776859504132"></line><line class="line" stroke-width="1" stroke="#666666" x1="543.2835820895523" y1="333" x2="543.2835820895523" y2="159.91735537190087"></line><line class="line" stroke-width="1" stroke="#666666" x1="558.955223880597" y1="333" x2="558.955223880597" y2="280.78512396694214"></line><line class="line" stroke-width="1" stroke="#666666" x1="558.955223880597" y1="333" x2="558.955223880597" y2="262.1900826446281"></line><line class="line" stroke-width="1" stroke="#666666" x1="558.955223880597" y1="333" x2="558.955223880597" y2="317.97520661157023"></line><line class="line" stroke-width="1" stroke="#666666" x1="558.955223880597" y1="333" x2="558.955223880597" y2="317.97520661157023"></line><line class="line" stroke-width="1" stroke="#666666" x1="621.6417910447761" y1="333" x2="621.6417910447761" y2="308.6776859504132"></line><line class="line" stroke-width="1" stroke="#666666" x1="663.4328358208955" y1="333" x2="663.4328358208955" y2="29.75206611570252"></line><line class="line" stroke-width="1" stroke="#666666" x1="663.4328358208955" y1="333" x2="663.4328358208955" y2="317.97520661157023"></line><line class="line" stroke-width="1" stroke="#666666" x1="673.8805970149253" y1="333" x2="673.8805970149253" y2="317.97520661157023"></line><line class="line" stroke-width="1" stroke="#666666" x1="673.8805970149253" y1="333" x2="673.8805970149253" y2="317.97520661157023"></line></g><g id="circles"><circle r="4" cx="36.56716417910447" cy="299.3801652892562" style="fill: #4393c3; stroke: #666666; stroke-width: 1px;"></circle><circle r="4" cx="62.6865671641791" cy="317.97520661157023" style="fill: #666666; stroke: #666666; stroke-width: 1px;"></circle><circle r="4" cx="62.6865671641791" cy="317.97520661157023" style="fill: #bf812d; stroke: #666666; stroke-width: 1px;"></circle><circle r="4" cx="130.59701492537314" cy="308.6776859504132" style="fill: #4393c3; stroke: #666666; stroke-width: 1px;"></circle><circle r="4" cx="146.2686567164179" cy="197.10743801652896" style="fill: #5aae61; stroke: #666666; stroke-width: 1px;"></circle><circle r="4" cx="146.2686567164179" cy="252.8925619834711" style="fill: #bf812d; stroke: #666666; stroke-width: 1px;"></circle><circle r="4" cx="146.2686567164179" cy="317.97520661157023" style="fill: #666666; stroke: #666666; stroke-width: 1px;"></circle><circle r="4" cx="151.49253731343282" cy="178.5123966942149" style="fill: #4393c3; stroke: #666666; stroke-width: 1px;"></circle><circle r="4" cx="188.0597014925373" cy="215.702479338843" style="fill: #bf812d; stroke: #666666; stroke-width: 1px;"></circle><circle r="4" cx="198.50746268656715" cy="280.78512396694214" style="fill: #4393c3; stroke: #666666; stroke-width: 1px;"></circle><circle r="4" cx="297.76119402985074" cy="317.97520661157023" style="fill: #4393c3; stroke: #666666; stroke-width: 1px;"></circle><circle r="4" cx="323.8805970149254" cy="308.6776859504132" style="fill: #4393c3; stroke: #666666; stroke-width: 1px;"></circle><circle r="4" cx="329.1044776119403" cy="290.08264462809916" style="fill: #5aae61; stroke: #666666; stroke-width: 1px;"></circle><circle r="4" cx="329.1044776119403" cy="215.702479338843" style="fill: #bf812d; stroke: #666666; stroke-width: 1px;"></circle><circle r="4" cx="365.67164179104475" cy="308.6776859504132" style="fill: #4393c3; stroke: #666666; stroke-width: 1px;"></circle><circle r="4" cx="543.2835820895523" cy="159.91735537190087" style="fill: #4393c3; stroke: #666666; stroke-width: 1px;"></circle><circle r="4" cx="558.955223880597" cy="280.78512396694214" style="fill: #5aae61; stroke: #666666; stroke-width: 1px;"></circle><circle r="4" cx="558.955223880597" cy="262.1900826446281" style="fill: #bf812d; stroke: #666666; stroke-width: 1px;"></circle><circle r="4" cx="558.955223880597" cy="317.97520661157023" style="fill: #666666; stroke: #666666; stroke-width: 1px;"></circle><circle r="4" cx="558.955223880597" cy="317.97520661157023" style="fill: #666666; stroke: #666666; stroke-width: 1px;"></circle><circle r="4" cx="621.6417910447761" cy="308.6776859504132" style="fill: #4393c3; stroke: #666666; stroke-width: 1px;"></circle><circle r="4" cx="663.4328358208955" cy="29.75206611570252" style="fill: #5aae61; stroke: #666666; stroke-width: 1px;"></circle><circle r="4" cx="663.4328358208955" cy="317.97520661157023" style="fill: #bf812d; stroke: #666666; stroke-width: 1px;"></circle><circle r="4" cx="673.8805970149253" cy="317.97520661157023" style="fill: #5aae61; stroke: #666666; stroke-width: 1px;"></circle><circle r="4" cx="673.8805970149253" cy="317.97520661157023" style="fill: #bf812d; stroke: #666666; stroke-width: 1px;"></circle></g><g><rect x="0" y="333" width="700" height="12" style="fill: #ffffff; stroke-width: 1px; stroke: #666666;"></rect><rect x="20.8955223880597" y="333" width="673.8805970149253" height="12" style="fill: #aec7e8; stroke-width: 1px; stroke: #666666;"></rect></g><g><a target="_blank" xlink:href="http://pfam.xfam.org/family/"><text y="343" x="350" text-anchor="middle" style="color: rgb(102, 102, 102); font-weight: normal; font-size: 12px; font-family: Arial; cursor: pointer;"></text></a><a target="_blank" xlink:href="http://pfam.xfam.org/family/Gal-bind_lectin"><text y="343" x="357.8358208955224" text-anchor="middle" style="color: rgb(102, 102, 102); font-weight: normal; font-size: 12px; font-family: Arial; cursor: pointer;">Gal-bind_lectin</text></a></g><g><text y="358" x="0" text-anchor="middle" visibility="hidden" style="font-size: 13px;">M</text><text y="358" x="5.223880597014925" text-anchor="middle" visibility="hidden" style="font-size: 13px;">A</text><text y="358" x="10.44776119402985" text-anchor="middle" visibility="hidden" style="font-size: 13px;">C</text><text y="358" x="15.671641791044776" text-anchor="middle" visibility="hidden" style="font-size: 13px;">G</text><text y="358" x="20.8955223880597" text-anchor="middle" visibility="hidden" style="font-size: 13px;">L</text><text y="358" x="26.119402985074625" text-anchor="middle" visibility="hidden" style="font-size: 13px;">V</text><text y="358" x="31.34328358208955" text-anchor="middle" visibility="hidden" style="font-size: 13px;">A</text><text y="358" x="36.56716417910447" text-anchor="middle" visibility="hidden" style="font-size: 13px;">S</text><text y="358" x="41.7910447761194" text-anchor="middle" visibility="hidden" style="font-size: 13px;">N</text><text y="358" x="47.014925373134325" text-anchor="middle" visibility="hidden" style="font-size: 13px;">L</text><text y="358" x="52.23880597014925" text-anchor="middle" visibility="hidden" style="font-size: 13px;">N</text><text y="358" x="57.46268656716418" text-anchor="middle" visibility="hidden" style="font-size: 13px;">L</text><text y="358" x="62.6865671641791" text-anchor="middle" visibility="hidden" style="font-size: 13px;">K</text><text y="358" x="67.91044776119404" text-anchor="middle" visibility="hidden" style="font-size: 13px;">P</text><text y="358" x="73.13432835820895" text-anchor="middle" visibility="hidden" style="font-size: 13px;">G</text><text y="358" x="78.35820895522389" text-anchor="middle" visibility="hidden" style="font-size: 13px;">E</text><text y="358" x="83.5820895522388" text-anchor="middle" visibility="hidden" style="font-size: 13px;">C</text><text y="358" x="88.80597014925374" text-anchor="middle" visibility="hidden" style="font-size: 13px;">L</text><text y="358" x="94.02985074626865" text-anchor="middle" visibility="hidden" style="font-size: 13px;">R</text><text y="358" x="99.25373134328358" text-anchor="middle" visibility="hidden" style="font-size: 13px;">V</text><text y="358" x="104.4776119402985" text-anchor="middle" visibility="hidden" style="font-size: 13px;">R</text><text y="358" x="109.70149253731344" text-anchor="middle" visibility="hidden" style="font-size: 13px;">G</text><text y="358" x="114.92537313432835" text-anchor="middle" visibility="hidden" style="font-size: 13px;">E</text><text y="358" x="120.14925373134328" text-anchor="middle" visibility="hidden" style="font-size: 13px;">V</text><text y="358" x="125.3731343283582" text-anchor="middle" visibility="hidden" style="font-size: 13px;">A</text><text y="358" x="130.59701492537314" text-anchor="middle" visibility="hidden" style="font-size: 13px;">P</text><text y="358" x="135.82089552238807" text-anchor="middle" visibility="hidden" style="font-size: 13px;">D</text><text y="358" x="141.044776119403" text-anchor="middle" visibility="hidden" style="font-size: 13px;">A</text><text y="358" x="146.2686567164179" text-anchor="middle" visibility="hidden" style="font-size: 13px;">K</text><text y="358" x="151.49253731343282" text-anchor="middle" visibility="hidden" style="font-size: 13px;">S</text><text y="358" x="156.71641791044777" text-anchor="middle" visibility="hidden" style="font-size: 13px;">F</text><text y="358" x="161.9402985074627" text-anchor="middle" visibility="hidden" style="font-size: 13px;">V</text><text y="358" x="167.1641791044776" text-anchor="middle" visibility="hidden" style="font-size: 13px;">L</text><text y="358" x="172.38805970149252" text-anchor="middle" visibility="hidden" style="font-size: 13px;">N</text><text y="358" x="177.61194029850748" text-anchor="middle" visibility="hidden" style="font-size: 13px;">L</text><text y="358" x="182.83582089552237" text-anchor="middle" visibility="hidden" style="font-size: 13px;">G</text><text y="358" x="188.0597014925373" text-anchor="middle" visibility="hidden" style="font-size: 13px;">K</text><text y="358" x="193.28358208955225" text-anchor="middle" visibility="hidden" style="font-size: 13px;">D</text><text y="358" x="198.50746268656715" text-anchor="middle" visibility="hidden" style="font-size: 13px;">S</text><text y="358" x="203.7313432835821" text-anchor="middle" visibility="hidden" style="font-size: 13px;">N</text><text y="358" x="208.955223880597" text-anchor="middle" visibility="hidden" style="font-size: 13px;">N</text><text y="358" x="214.17910447761193" text-anchor="middle" visibility="hidden" style="font-size: 13px;">L</text><text y="358" x="219.40298507462688" text-anchor="middle" visibility="hidden" style="font-size: 13px;">C</text><text y="358" x="224.62686567164178" text-anchor="middle" visibility="hidden" style="font-size: 13px;">L</text><text y="358" x="229.8507462686567" text-anchor="middle" visibility="hidden" style="font-size: 13px;">H</text><text y="358" x="235.07462686567166" text-anchor="middle" visibility="hidden" style="font-size: 13px;">F</text><text y="358" x="240.29850746268656" text-anchor="middle" visibility="hidden" style="font-size: 13px;">N</text><text y="358" x="245.5223880597015" text-anchor="middle" visibility="hidden" style="font-size: 13px;">P</text><text y="358" x="250.7462686567164" text-anchor="middle" visibility="hidden" style="font-size: 13px;">R</text><text y="358" x="255.97014925373134" text-anchor="middle" visibility="hidden" style="font-size: 13px;">F</text><text y="358" x="261.1940298507463" text-anchor="middle" visibility="hidden" style="font-size: 13px;">N</text><text y="358" x="266.4179104477612" text-anchor="middle" visibility="hidden" style="font-size: 13px;">A</text><text y="358" x="271.64179104477614" text-anchor="middle" visibility="hidden" style="font-size: 13px;">H</text><text y="358" x="276.86567164179104" text-anchor="middle" visibility="hidden" style="font-size: 13px;">G</text><text y="358" x="282.089552238806" text-anchor="middle" visibility="hidden" style="font-size: 13px;">D</text><text y="358" x="287.3134328358209" text-anchor="middle" visibility="hidden" style="font-size: 13px;">A</text><text y="358" x="292.5373134328358" text-anchor="middle" visibility="hidden" style="font-size: 13px;">N</text><text y="358" x="297.76119402985074" text-anchor="middle" visibility="hidden" style="font-size: 13px;">T</text><text y="358" x="302.98507462686564" text-anchor="middle" visibility="hidden" style="font-size: 13px;">I</text><text y="358" x="308.2089552238806" text-anchor="middle" visibility="hidden" style="font-size: 13px;">V</text><text y="358" x="313.43283582089555" text-anchor="middle" visibility="hidden" style="font-size: 13px;">C</text><text y="358" x="318.65671641791045" text-anchor="middle" visibility="hidden" style="font-size: 13px;">N</text><text y="358" x="323.8805970149254" text-anchor="middle" visibility="hidden" style="font-size: 13px;">S</text><text y="358" x="329.1044776119403" text-anchor="middle" visibility="hidden" style="font-size: 13px;">K</text><text y="358" x="334.3283582089552" text-anchor="middle" visibility="hidden" style="font-size: 13px;">D</text><text y="358" x="339.55223880597015" text-anchor="middle" visibility="hidden" style="font-size: 13px;">G</text><text y="358" x="344.77611940298505" text-anchor="middle" visibility="hidden" style="font-size: 13px;">G</text><text y="358" x="350" text-anchor="middle" visibility="hidden" style="font-size: 13px;">A</text><text y="358" x="355.22388059701495" text-anchor="middle" visibility="hidden" style="font-size: 13px;">W</text><text y="358" x="360.4477611940299" text-anchor="middle" visibility="hidden" style="font-size: 13px;">G</text><text y="358" x="365.67164179104475" text-anchor="middle" visibility="hidden" style="font-size: 13px;">T</text><text y="358" x="370.8955223880597" text-anchor="middle" visibility="hidden" style="font-size: 13px;">E</text><text y="358" x="376.1194029850746" text-anchor="middle" visibility="hidden" style="font-size: 13px;">Q</text><text y="358" x="381.34328358208955" text-anchor="middle" visibility="hidden" style="font-size: 13px;">R</text><text y="358" x="386.5671641791045" text-anchor="middle" visibility="hidden" style="font-size: 13px;">E</text><text y="358" x="391.79104477611935" text-anchor="middle" visibility="hidden" style="font-size: 13px;">A</text><text y="358" x="397.0149253731343" text-anchor="middle" visibility="hidden" style="font-size: 13px;">V</text><text y="358" x="402.23880597014926" text-anchor="middle" visibility="hidden" style="font-size: 13px;">F</text><text y="358" x="407.4626865671642" text-anchor="middle" visibility="hidden" style="font-size: 13px;">P</text><text y="358" x="412.6865671641791" text-anchor="middle" visibility="hidden" style="font-size: 13px;">F</text><text y="358" x="417.910447761194" text-anchor="middle" visibility="hidden" style="font-size: 13px;">Q</text><text y="358" x="423.13432835820896" text-anchor="middle" visibility="hidden" style="font-size: 13px;">P</text><text y="358" x="428.35820895522386" text-anchor="middle" visibility="hidden" style="font-size: 13px;">G</text><text y="358" x="433.5820895522388" text-anchor="middle" visibility="hidden" style="font-size: 13px;">S</text><text y="358" x="438.80597014925377" text-anchor="middle" visibility="hidden" style="font-size: 13px;">V</text><text y="358" x="444.0298507462687" text-anchor="middle" visibility="hidden" style="font-size: 13px;">A</text><text y="358" x="449.25373134328356" text-anchor="middle" visibility="hidden" style="font-size: 13px;">E</text><text y="358" x="454.4776119402985" text-anchor="middle" visibility="hidden" style="font-size: 13px;">V</text><text y="358" x="459.7014925373134" text-anchor="middle" visibility="hidden" style="font-size: 13px;">C</text><text y="358" x="464.92537313432837" text-anchor="middle" visibility="hidden" style="font-size: 13px;">I</text><text y="358" x="470.1492537313433" text-anchor="middle" visibility="hidden" style="font-size: 13px;">T</text><text y="358" x="475.37313432835816" text-anchor="middle" visibility="hidden" style="font-size: 13px;">F</text><text y="358" x="480.5970149253731" text-anchor="middle" visibility="hidden" style="font-size: 13px;">D</text><text y="358" x="485.82089552238807" text-anchor="middle" visibility="hidden" style="font-size: 13px;">Q</text><text y="358" x="491.044776119403" text-anchor="middle" visibility="hidden" style="font-size: 13px;">A</text><text y="358" x="496.2686567164179" text-anchor="middle" visibility="hidden" style="font-size: 13px;">N</text><text y="358" x="501.4925373134328" text-anchor="middle" visibility="hidden" style="font-size: 13px;">L</text><text y="358" x="506.7164179104478" text-anchor="middle" visibility="hidden" style="font-size: 13px;">T</text><text y="358" x="511.94029850746267" text-anchor="middle" visibility="hidden" style="font-size: 13px;">V</text><text y="358" x="517.1641791044776" text-anchor="middle" visibility="hidden" style="font-size: 13px;">K</text><text y="358" x="522.3880597014926" text-anchor="middle" visibility="hidden" style="font-size: 13px;">L</text><text y="358" x="527.6119402985074" text-anchor="middle" visibility="hidden" style="font-size: 13px;">P</text><text y="358" x="532.8358208955224" text-anchor="middle" visibility="hidden" style="font-size: 13px;">D</text><text y="358" x="538.0597014925373" text-anchor="middle" visibility="hidden" style="font-size: 13px;">G</text><text y="358" x="543.2835820895523" text-anchor="middle" visibility="hidden" style="font-size: 13px;">Y</text><text y="358" x="548.5074626865672" text-anchor="middle" visibility="hidden" style="font-size: 13px;">E</text><text y="358" x="553.7313432835821" text-anchor="middle" visibility="hidden" style="font-size: 13px;">F</text><text y="358" x="558.955223880597" text-anchor="middle" visibility="hidden" style="font-size: 13px;">K</text><text y="358" x="564.179104477612" text-anchor="middle" visibility="hidden" style="font-size: 13px;">F</text><text y="358" x="569.4029850746268" text-anchor="middle" visibility="hidden" style="font-size: 13px;">P</text><text y="358" x="574.6268656716418" text-anchor="middle" visibility="hidden" style="font-size: 13px;">N</text><text y="358" x="579.8507462686567" text-anchor="middle" visibility="hidden" style="font-size: 13px;">R</text><text y="358" x="585.0746268656716" text-anchor="middle" visibility="hidden" style="font-size: 13px;">L</text><text y="358" x="590.2985074626865" text-anchor="middle" visibility="hidden" style="font-size: 13px;">N</text><text y="358" x="595.5223880597015" text-anchor="middle" visibility="hidden" style="font-size: 13px;">L</text><text y="358" x="600.7462686567164" text-anchor="middle" visibility="hidden" style="font-size: 13px;">E</text><text y="358" x="605.9701492537313" text-anchor="middle" visibility="hidden" style="font-size: 13px;">A</text><text y="358" x="611.1940298507462" text-anchor="middle" visibility="hidden" style="font-size: 13px;">I</text><text y="358" x="616.4179104477612" text-anchor="middle" visibility="hidden" style="font-size: 13px;">N</text><text y="358" x="621.6417910447761" text-anchor="middle" visibility="hidden" style="font-size: 13px;">Y</text><text y="358" x="626.8656716417911" text-anchor="middle" visibility="hidden" style="font-size: 13px;">M</text><text y="358" x="632.089552238806" text-anchor="middle" visibility="hidden" style="font-size: 13px;">A</text><text y="358" x="637.3134328358209" text-anchor="middle" visibility="hidden" style="font-size: 13px;">A</text><text y="358" x="642.5373134328358" text-anchor="middle" visibility="hidden" style="font-size: 13px;">D</text><text y="358" x="647.7611940298508" text-anchor="middle" visibility="hidden" style="font-size: 13px;">G</text><text y="358" x="652.9850746268656" text-anchor="middle" visibility="hidden" style="font-size: 13px;">D</text><text y="358" x="658.2089552238806" text-anchor="middle" visibility="hidden" style="font-size: 13px;">F</text><text y="358" x="663.4328358208955" text-anchor="middle" visibility="hidden" style="font-size: 13px;">K</text><text y="358" x="668.6567164179104" text-anchor="middle" visibility="hidden" style="font-size: 13px;">I</text><text y="358" x="673.8805970149253" text-anchor="middle" visibility="hidden" style="font-size: 13px;">K</text><text y="358" x="679.1044776119403" text-anchor="middle" visibility="hidden" style="font-size: 13px;">C</text><text y="358" x="684.3283582089553" text-anchor="middle" visibility="hidden" style="font-size: 13px;">V</text><text y="358" x="689.5522388059701" text-anchor="middle" visibility="hidden" style="font-size: 13px;">A</text><text y="358" x="694.776119402985" text-anchor="middle" visibility="hidden" style="font-size: 13px;">F</text><text y="358" x="700" text-anchor="middle" visibility="hidden" style="font-size: 13px;">D</text></g></g></svg><g class="xAxis" transform="translate(0,360)" fill="none" font-size="10" font-family="sans-serif" text-anchor="middle"><path class="domain" stroke="#000" d="M0.5,6V0.5H700.5V6"></path><g class="tick" opacity="1" transform="translate(47.514925373134325,0)"><line stroke="#000" y2="6"></line><text fill="#000" y="9" dy="0.71em">10</text></g><g class="tick" opacity="1" transform="translate(99.75373134328358,0)"><line stroke="#000" y2="6"></line><text fill="#000" y="9" dy="0.71em">20</text></g><g class="tick" opacity="1" transform="translate(151.99253731343282,0)"><line stroke="#000" y2="6"></line><text fill="#000" y="9" dy="0.71em">30</text></g><g class="tick" opacity="1" transform="translate(204.2313432835821,0)"><line stroke="#000" y2="6"></line><text fill="#000" y="9" dy="0.71em">40</text></g><g class="tick" opacity="1" transform="translate(256.47014925373134,0)"><line stroke="#000" y2="6"></line><text fill="#000" y="9" dy="0.71em">50</text></g><g class="tick" opacity="1" transform="translate(308.7089552238806,0)"><line stroke="#000" y2="6"></line><text fill="#000" y="9" dy="0.71em">60</text></g><g class="tick" opacity="1" transform="translate(360.9477611940299,0)"><line stroke="#000" y2="6"></line><text fill="#000" y="9" dy="0.71em">70</text></g><g class="tick" opacity="1" transform="translate(413.1865671641791,0)"><line stroke="#000" y2="6"></line><text fill="#000" y="9" dy="0.71em">80</text></g><g class="tick" opacity="1" transform="translate(465.42537313432837,0)"><line stroke="#000" y2="6"></line><text fill="#000" y="9" dy="0.71em">90</text></g><g class="tick" opacity="1" transform="translate(517.6641791044776,0)"><line stroke="#000" y2="6"></line><text fill="#000" y="9" dy="0.71em">100</text></g><g class="tick" opacity="1" transform="translate(569.9029850746268,0)"><line stroke="#000" y2="6"></line><text fill="#000" y="9" dy="0.71em">110</text></g><g class="tick" opacity="1" transform="translate(622.1417910447761,0)"><line stroke="#000" y2="6"></line><text fill="#000" y="9" dy="0.71em">120</text></g><g class="tick" opacity="1" transform="translate(674.3805970149253,0)"><line stroke="#000" y2="6"></line><text fill="#000" y="9" dy="0.71em">130</text></g></g><text class="x label" text-anchor="end" x="700" y="390" style="font-size: 13px; font-family: Arial;">Residue number</text><g class="yAxis" fill="none" font-size="10" font-family="sans-serif" text-anchor="end"><path class="domain" stroke="#000" d="M-6,360.5H0.5V0.5H-6"></path><g class="tick" opacity="1" transform="translate(0,327.77272727272725)"><line stroke="#000" x2="-6"></line><text fill="#000" x="-9" dy="0.32em">0</text></g><g class="tick" opacity="1" transform="translate(0,281.28512396694214)"><line stroke="#000" x2="-6"></line><text fill="#000" x="-9" dy="0.32em">5</text></g><g class="tick" opacity="1" transform="translate(0,234.79752066115702)"><line stroke="#000" x2="-6"></line><text fill="#000" x="-9" dy="0.32em">10</text></g><g class="tick" opacity="1" transform="translate(0,188.30991735537194)"><line stroke="#000" x2="-6"></line><text fill="#000" x="-9" dy="0.32em">15</text></g><g class="tick" opacity="1" transform="translate(0,141.82231404958682)"><line stroke="#000" x2="-6"></line><text fill="#000" x="-9" dy="0.32em">20</text></g><g class="tick" opacity="1" transform="translate(0,95.33471074380168)"><line stroke="#000" x2="-6"></line><text fill="#000" x="-9" dy="0.32em">25</text></g><g class="tick" opacity="1" transform="translate(0,48.847107438016565)"><line stroke="#000" x2="-6"></line><text fill="#000" x="-9" dy="0.32em">30</text></g><g class="tick" opacity="1" transform="translate(0,2.35950413223145)"><line stroke="#000" x2="-6"></line><text fill="#000" x="-9" dy="0.32em">35</text></g></g><text class="y label" text-anchor="middle" y="-50" x="-180" dy="0.8em" transform="rotate(-90)" style="font-size: 13px; font-family: Arial;">Total number of references</text><g class="axisRed" fill="none" font-size="10" font-family="sans-serif" text-anchor="start" visibility="hidden" transform="translate(700, 0)"><path class="domain" stroke="#000" d="M6,360.5H0.5V0.5H6"></path><g class="tick" opacity="1" transform="translate(0,327.77272727272725)"><line stroke="#000" x2="6"></line><text fill="#000" x="9" dy="0.32em">0</text></g><g class="tick" opacity="1" transform="translate(0,278.18595041322317)"><line stroke="#000" x2="6"></line><text fill="#000" x="9" dy="0.32em">0.5</text></g><g class="tick" opacity="1" transform="translate(0,228.599173553719)"><line stroke="#000" x2="6"></line><text fill="#000" x="9" dy="0.32em">1</text></g><g class="tick" opacity="1" transform="translate(0,179.01239669421489)"><line stroke="#000" x2="6"></line><text fill="#000" x="9" dy="0.32em">1.5</text></g><g class="tick" opacity="1" transform="translate(0,129.42561983471072)"><line stroke="#000" x2="6"></line><text fill="#000" x="9" dy="0.32em">2</text></g><g class="tick" opacity="1" transform="translate(0,79.8388429752066)"><line stroke="#000" x2="6"></line><text fill="#000" x="9" dy="0.32em">2.5</text></g><g class="tick" opacity="1" transform="translate(0,30.252066115702462)"><line stroke="#000" x2="6"></line><text fill="#000" x="9" dy="0.32em">3</text></g><text text-anchor="start" dx="5.2em" dy="-2.6em" transform="rotate(90)" visibility="hidden" style="font-size: 12px; font-family: Arial; fill: #d7301f;">Number of tumor samples</text></g><g class="axisPurple" fill="none" font-size="10" font-family="sans-serif" text-anchor="start" visibility="hidden"><path class="domain" stroke="#000" d="M6,360.5H0.5V0.5H6"></path><g class="tick" opacity="1" transform="translate(0,357.52479338842977)"><line stroke="#000" x2="6"></line><text fill="#000" x="9" dy="0.32em"></text></g><g class="tick" opacity="1" transform="translate(0,327.77272727272725)"><line stroke="#000" x2="6"></line><text fill="#000" x="9" dy="0.32em">0</text></g><g class="tick" opacity="1" transform="translate(0,298.0206611570248)"><line stroke="#000" x2="6"></line><text fill="#000" x="9" dy="0.32em">0.1</text></g><g class="tick" opacity="1" transform="translate(0,268.2685950413223)"><line stroke="#000" x2="6"></line><text fill="#000" x="9" dy="0.32em">0.2</text></g><g class="tick" opacity="1" transform="translate(0,238.51652892561984)"><line stroke="#000" x2="6"></line><text fill="#000" x="9" dy="0.32em">0.3</text></g><g class="tick" opacity="1" transform="translate(0,208.76446280991738)"><line stroke="#000" x2="6"></line><text fill="#000" x="9" dy="0.32em">0.4</text></g><g class="tick" opacity="1" transform="translate(0,179.0123966942149)"><line stroke="#000" x2="6"></line><text fill="#000" x="9" dy="0.32em">0.5</text></g><g class="tick" opacity="1" transform="translate(0,149.26033057851242)"><line stroke="#000" x2="6"></line><text fill="#000" x="9" dy="0.32em">0.6</text></g><g class="tick" opacity="1" transform="translate(0,119.50826446280996)"><line stroke="#000" x2="6"></line><text fill="#000" x="9" dy="0.32em">0.7</text></g><g class="tick" opacity="1" transform="translate(0,89.75619834710744)"><line stroke="#000" x2="6"></line><text fill="#000" x="9" dy="0.32em">0.8</text></g><g class="tick" opacity="1" transform="translate(0,60.00413223140498)"><line stroke="#000" x2="6"></line><text fill="#000" x="9" dy="0.32em">0.9</text></g><g class="tick" opacity="1" transform="translate(0,30.25206611570252)"><line stroke="#000" x2="6"></line><text fill="#000" x="9" dy="0.32em">1</text></g><g class="tick" opacity="1" transform="translate(0,0.5)"><line stroke="#000" x2="6"></line><text fill="#000" x="9" dy="0.32em">1.1</text></g><text text-anchor="start" x="10" y="10" visibility="hidden" style="font-size: 12px; font-family: Arial; fill: #807dba;">No disease causing germline SNPs known!</text></g><circle cx="636" cy="15" r="10" class="compassNav" style="fill: #ffffff; stroke: #666666; stroke-width: 1px;"></circle><path d="M440.935 12.574l3.966 82.766C399.416 41.904 331.674 8 256 8 134.813 8 33.933 94.924 12.296 209.824 10.908 217.193 16.604 224 24.103 224h49.084c5.57 0 10.377-3.842 11.676-9.259C103.407 137.408 172.931 80 256 80c60.893 0 114.512 30.856 146.104 77.801l-101.53-4.865c-6.845-.328-12.574 5.133-12.574 11.986v47.411c0 6.627 5.373 12 12 12h200.333c6.627 0 12-5.373 12-12V12c0-6.627-5.373-12-12-12h-47.411c-6.853 0-12.315 5.729-11.987 12.574zM256 432c-60.895 0-114.517-30.858-146.109-77.805l101.868 4.871c6.845.327 12.573-5.134 12.573-11.986v-47.412c0-6.627-5.373-12-12-12H12c-6.627 0-12 5.373-12 12V500c0 6.627 5.373 12 12 12h47.385c6.863 0 12.328-5.745 11.985-12.599l-4.129-82.575C112.725 470.166 180.405 504 256 504c121.187 0 222.067-86.924 243.704-201.824 1.388-7.369-4.308-14.176-11.807-14.176h-49.084c-5.57 0-10.377 3.842-11.676 9.259C408.593 374.592 339.069 432 256 432z" class="compassNav" transform="translate(631, 10) scale(0.02)" style="fill: #666666; stroke: #666666; stroke-width: 1px;"></path><circle cx="658" cy="15" r="10" class="compassNav" style="fill: #ffffff; stroke: #666666; stroke-width: 1px;"></circle><line class="compassNav" stroke-width="2" stroke="#666666" x1="654" y1="15" x2="662" y2="15"></line><line class="compassNav" stroke-width="2" stroke="#666666" x1="658" y1="11" x2="658" y2="19"></line><circle cx="614" cy="15" r="10" class="compassNav" style="fill: #ffffff; stroke: #666666; stroke-width: 1px;"></circle><line class="compassNav" stroke-width="2" stroke="#666666" x1="610" y1="15" x2="618" y2="15"></line><path d="M582 14 l20 -12 a100,40 0 0,0 0,24z" class="compassNav" style="fill: #ffffff; stroke: #666666; stroke-width: 1px;"></path><path d="M690 14 l-20 -12 a100,40 0 0,1 0,24z" class="compassNav" style="fill: #ffffff; stroke: #666666; stroke-width: 1px;"></path><path d="M216 0h80c13.3 0 24 10.7 24 24v168h87.7c17.8 0 26.7 21.5 14.1 34.1L269.7 378.3c-7.5 7.5-19.8 7.5-27.3 0L90.1 226.1c-12.6-12.6-3.7-34.1 14.1-34.1H192V24c0-13.3 10.7-24 24-24zm296 376v112c0 13.3-10.7 24-24 24H24c-13.3 0-24-10.7-24-24V376c0-13.3 10.7-24 24-24h146.7l49 49c20.1 20.1 52.5 20.1 72.6 0l49-49H488c13.3 0 24 10.7 24 24zm-124 88c0-11-9-20-20-20s-20 9-20 20 9 20 20 20 20-9 20-20zm64 0c0-11-9-20-20-20s-20 9-20 20 9 20 20 20 20-9 20-20z" class="compassNav" transform="translate(552,0) scale(0.05)" style="fill: #336699; stroke: #336699; stroke-width: 1px; cursor: pointer;"></path></g></svg>