<svg width="800" height="400" style="background-color: white;"><g transform="translate(50,0)"><svg width="700" height="360"><g style="-webkit-tap-highlight-color: rgba(0, 0, 0, 0);"><rect width="700" height="360" style="fill: #ffffff;"></rect><g id="lines"><line class="line" stroke-width="1" stroke="#d7301f" x1="-234.10596026490066" y1="333" x2="-234.10596026490066" y2="360" visibility="hidden" style="stroke-dasharray: 3px, 3px;"></line></g><g><rect x="-239.10596026490066" y="355" width="10" height="10" visibility="hidden" style="fill: #ffffff; stroke: #d7301f;"></rect></g><g id="lines"><line class="line" stroke-width="1" stroke="#6a51a3" x1="382.4503311258278" y1="333" x2="382.4503311258278" y2="327.27272727272725" visibility="hidden" style="stroke-dasharray: 3px, 3px;"></line><line class="line" stroke-width="1" stroke="#6a51a3" x1="607.2847682119206" y1="333" x2="607.2847682119206" y2="327.27272727272725" visibility="hidden" style="stroke-dasharray: 3px, 3px;"></line></g><g><rect x="377.4503311258278" y="322.27272727272725" width="10" height="10" visibility="hidden" style="fill: #ffffff; stroke: #6a51a3;"></rect><rect x="602.2847682119206" y="322.27272727272725" width="10" height="10" visibility="hidden" style="fill: #ffffff; stroke: #6a51a3;"></rect></g><g id="lines"><line class="line" stroke-width="1" stroke="#666666" x1="266.55629139072846" y1="333" x2="266.55629139072846" y2="29.75206611570252"></line><line class="line" stroke-width="1" stroke="#666666" x1="333.7748344370861" y1="333" x2="333.7748344370861" y2="29.75206611570252"></line></g><g id="circles"><circle r="4" cx="266.55629139072846" cy="29.75206611570252" style="fill: #666666; stroke: #666666; stroke-width: 1px;"></circle><circle r="4" cx="333.7748344370861" cy="29.75206611570252" style="fill: #4393c3; stroke: #666666; stroke-width: 1px;"></circle></g><g><rect x="0" y="333" width="700" height="12" style="fill: #ffffff; stroke-width: 1px; stroke: #666666;"></rect><rect x="164.56953642384107" y="333" width="48.6754966887417" height="12" style="fill: #aec7e8; stroke-width: 1px; stroke: #666666;"></rect><rect x="217.88079470198673" y="333" width="125.16556291390734" height="12" style="fill: #ffbb78; stroke-width: 1px; stroke: #666666;"></rect><rect x="350" y="333" width="317.5496688741722" height="12" style="fill: #98df8a; stroke-width: 1px; stroke: #666666;"></rect></g><g><a target="_blank" xlink:href="http://pfam.xfam.org/family/"><text y="343" x="350" text-anchor="middle" style="color: rgb(102, 102, 102); font-weight: normal; font-size: 12px; font-family: Arial; cursor: pointer;"></text></a><a target="_blank" xlink:href="http://pfam.xfam.org/family/FOLN"><text y="343" x="188.90728476821192" text-anchor="middle" style="color: rgb(102, 102, 102); font-weight: normal; font-size: 12px; font-family: Arial; cursor: pointer;">FOLN</text></a><a target="_blank" xlink:href="http://pfam.xfam.org/family/Kazal_1"><text y="343" x="280.4635761589404" text-anchor="middle" style="color: rgb(102, 102, 102); font-weight: normal; font-size: 12px; font-family: Arial; cursor: pointer;">Kazal_1</text></a><a target="_blank" xlink:href="http://pfam.xfam.org/family/SPARC_Ca_bdg"><text y="343" x="508.7748344370861" text-anchor="middle" style="color: rgb(102, 102, 102); font-weight: normal; font-size: 12px; font-family: Arial; cursor: pointer;">SPARC_Ca_bdg</text></a></g><g><text y="358" x="0" text-anchor="middle" visibility="hidden" style="font-size: 13px;">M</text><text y="358" x="2.3178807947019866" text-anchor="middle" visibility="hidden" style="font-size: 13px;">R</text><text y="358" x="4.635761589403973" text-anchor="middle" visibility="hidden" style="font-size: 13px;">A</text><text y="358" x="6.953642384105961" text-anchor="middle" visibility="hidden" style="font-size: 13px;">W</text><text y="358" x="9.271523178807946" text-anchor="middle" visibility="hidden" style="font-size: 13px;">I</text><text y="358" x="11.589403973509935" text-anchor="middle" visibility="hidden" style="font-size: 13px;">F</text><text y="358" x="13.907284768211921" text-anchor="middle" visibility="hidden" style="font-size: 13px;">F</text><text y="358" x="16.225165562913908" text-anchor="middle" visibility="hidden" style="font-size: 13px;">L</text><text y="358" x="18.543046357615893" text-anchor="middle" visibility="hidden" style="font-size: 13px;">L</text><text y="358" x="20.86092715231788" text-anchor="middle" visibility="hidden" style="font-size: 13px;">C</text><text y="358" x="23.17880794701987" text-anchor="middle" visibility="hidden" style="font-size: 13px;">L</text><text y="358" x="25.496688741721854" text-anchor="middle" visibility="hidden" style="font-size: 13px;">A</text><text y="358" x="27.814569536423843" text-anchor="middle" visibility="hidden" style="font-size: 13px;">G</text><text y="358" x="30.132450331125828" text-anchor="middle" visibility="hidden" style="font-size: 13px;">R</text><text y="358" x="32.450331125827816" text-anchor="middle" visibility="hidden" style="font-size: 13px;">A</text><text y="358" x="34.7682119205298" text-anchor="middle" visibility="hidden" style="font-size: 13px;">L</text><text y="358" x="37.086092715231786" text-anchor="middle" visibility="hidden" style="font-size: 13px;">A</text><text y="358" x="39.40397350993378" text-anchor="middle" visibility="hidden" style="font-size: 13px;">A</text><text y="358" x="41.72185430463576" text-anchor="middle" visibility="hidden" style="font-size: 13px;">P</text><text y="358" x="44.03973509933775" text-anchor="middle" visibility="hidden" style="font-size: 13px;">Q</text><text y="358" x="46.35761589403974" text-anchor="middle" visibility="hidden" style="font-size: 13px;">Q</text><text y="358" x="48.67549668874172" text-anchor="middle" visibility="hidden" style="font-size: 13px;">E</text><text y="358" x="50.99337748344371" text-anchor="middle" visibility="hidden" style="font-size: 13px;">A</text><text y="358" x="53.311258278145694" text-anchor="middle" visibility="hidden" style="font-size: 13px;">L</text><text y="358" x="55.629139072847686" text-anchor="middle" visibility="hidden" style="font-size: 13px;">P</text><text y="358" x="57.94701986754967" text-anchor="middle" visibility="hidden" style="font-size: 13px;">D</text><text y="358" x="60.264900662251655" text-anchor="middle" visibility="hidden" style="font-size: 13px;">E</text><text y="358" x="62.58278145695364" text-anchor="middle" visibility="hidden" style="font-size: 13px;">T</text><text y="358" x="64.90066225165563" text-anchor="middle" visibility="hidden" style="font-size: 13px;">E</text><text y="358" x="67.21854304635762" text-anchor="middle" visibility="hidden" style="font-size: 13px;">V</text><text y="358" x="69.5364238410596" text-anchor="middle" visibility="hidden" style="font-size: 13px;">V</text><text y="358" x="71.8543046357616" text-anchor="middle" visibility="hidden" style="font-size: 13px;">E</text><text y="358" x="74.17218543046357" text-anchor="middle" visibility="hidden" style="font-size: 13px;">E</text><text y="358" x="76.49006622516556" text-anchor="middle" visibility="hidden" style="font-size: 13px;">T</text><text y="358" x="78.80794701986756" text-anchor="middle" visibility="hidden" style="font-size: 13px;">V</text><text y="358" x="81.12582781456953" text-anchor="middle" visibility="hidden" style="font-size: 13px;">A</text><text y="358" x="83.44370860927152" text-anchor="middle" visibility="hidden" style="font-size: 13px;">E</text><text y="358" x="85.76158940397352" text-anchor="middle" visibility="hidden" style="font-size: 13px;">V</text><text y="358" x="88.0794701986755" text-anchor="middle" visibility="hidden" style="font-size: 13px;">T</text><text y="358" x="90.39735099337747" text-anchor="middle" visibility="hidden" style="font-size: 13px;">E</text><text y="358" x="92.71523178807948" text-anchor="middle" visibility="hidden" style="font-size: 13px;">V</text><text y="358" x="95.03311258278146" text-anchor="middle" visibility="hidden" style="font-size: 13px;">S</text><text y="358" x="97.35099337748343" text-anchor="middle" visibility="hidden" style="font-size: 13px;">V</text><text y="358" x="99.66887417218544" text-anchor="middle" visibility="hidden" style="font-size: 13px;">G</text><text y="358" x="101.98675496688742" text-anchor="middle" visibility="hidden" style="font-size: 13px;">A</text><text y="358" x="104.30463576158941" text-anchor="middle" visibility="hidden" style="font-size: 13px;">N</text><text y="358" x="106.62251655629139" text-anchor="middle" visibility="hidden" style="font-size: 13px;">P</text><text y="358" x="108.94039735099336" text-anchor="middle" visibility="hidden" style="font-size: 13px;">V</text><text y="358" x="111.25827814569537" text-anchor="middle" visibility="hidden" style="font-size: 13px;">Q</text><text y="358" x="113.57615894039735" text-anchor="middle" visibility="hidden" style="font-size: 13px;">V</text><text y="358" x="115.89403973509934" text-anchor="middle" visibility="hidden" style="font-size: 13px;">E</text><text y="358" x="118.21192052980133" text-anchor="middle" visibility="hidden" style="font-size: 13px;">V</text><text y="358" x="120.52980132450331" text-anchor="middle" visibility="hidden" style="font-size: 13px;">G</text><text y="358" x="122.8476821192053" text-anchor="middle" visibility="hidden" style="font-size: 13px;">E</text><text y="358" x="125.16556291390728" text-anchor="middle" visibility="hidden" style="font-size: 13px;">F</text><text y="358" x="127.48344370860926" text-anchor="middle" visibility="hidden" style="font-size: 13px;">D</text><text y="358" x="129.80132450331126" text-anchor="middle" visibility="hidden" style="font-size: 13px;">D</text><text y="358" x="132.11920529801324" text-anchor="middle" visibility="hidden" style="font-size: 13px;">G</text><text y="358" x="134.43708609271525" text-anchor="middle" visibility="hidden" style="font-size: 13px;">A</text><text y="358" x="136.75496688741723" text-anchor="middle" visibility="hidden" style="font-size: 13px;">E</text><text y="358" x="139.0728476821192" text-anchor="middle" visibility="hidden" style="font-size: 13px;">E</text><text y="358" x="141.3907284768212" text-anchor="middle" visibility="hidden" style="font-size: 13px;">T</text><text y="358" x="143.7086092715232" text-anchor="middle" visibility="hidden" style="font-size: 13px;">E</text><text y="358" x="146.02649006622516" text-anchor="middle" visibility="hidden" style="font-size: 13px;">E</text><text y="358" x="148.34437086092714" text-anchor="middle" visibility="hidden" style="font-size: 13px;">E</text><text y="358" x="150.66225165562912" text-anchor="middle" visibility="hidden" style="font-size: 13px;">V</text><text y="358" x="152.98013245033113" text-anchor="middle" visibility="hidden" style="font-size: 13px;">V</text><text y="358" x="155.2980132450331" text-anchor="middle" visibility="hidden" style="font-size: 13px;">A</text><text y="358" x="157.6158940397351" text-anchor="middle" visibility="hidden" style="font-size: 13px;">E</text><text y="358" x="159.9337748344371" text-anchor="middle" visibility="hidden" style="font-size: 13px;">N</text><text y="358" x="162.25165562913907" text-anchor="middle" visibility="hidden" style="font-size: 13px;">P</text><text y="358" x="164.56953642384107" text-anchor="middle" visibility="hidden" style="font-size: 13px;">C</text><text y="358" x="166.88741721854305" text-anchor="middle" visibility="hidden" style="font-size: 13px;">Q</text><text y="358" x="169.20529801324506" text-anchor="middle" visibility="hidden" style="font-size: 13px;">N</text><text y="358" x="171.52317880794703" text-anchor="middle" visibility="hidden" style="font-size: 13px;">H</text><text y="358" x="173.841059602649" text-anchor="middle" visibility="hidden" style="font-size: 13px;">H</text><text y="358" x="176.158940397351" text-anchor="middle" visibility="hidden" style="font-size: 13px;">C</text><text y="358" x="178.476821192053" text-anchor="middle" visibility="hidden" style="font-size: 13px;">K</text><text y="358" x="180.79470198675494" text-anchor="middle" visibility="hidden" style="font-size: 13px;">H</text><text y="358" x="183.11258278145695" text-anchor="middle" visibility="hidden" style="font-size: 13px;">G</text><text y="358" x="185.43046357615896" text-anchor="middle" visibility="hidden" style="font-size: 13px;">K</text><text y="358" x="187.7483443708609" text-anchor="middle" visibility="hidden" style="font-size: 13px;">V</text><text y="358" x="190.0662251655629" text-anchor="middle" visibility="hidden" style="font-size: 13px;">C</text><text y="358" x="192.38410596026492" text-anchor="middle" visibility="hidden" style="font-size: 13px;">E</text><text y="358" x="194.70198675496687" text-anchor="middle" visibility="hidden" style="font-size: 13px;">L</text><text y="358" x="197.01986754966887" text-anchor="middle" visibility="hidden" style="font-size: 13px;">D</text><text y="358" x="199.33774834437088" text-anchor="middle" visibility="hidden" style="font-size: 13px;">E</text><text y="358" x="201.65562913907283" text-anchor="middle" visibility="hidden" style="font-size: 13px;">N</text><text y="358" x="203.97350993377484" text-anchor="middle" visibility="hidden" style="font-size: 13px;">N</text><text y="358" x="206.2913907284768" text-anchor="middle" visibility="hidden" style="font-size: 13px;">T</text><text y="358" x="208.60927152317882" text-anchor="middle" visibility="hidden" style="font-size: 13px;">P</text><text y="358" x="210.9271523178808" text-anchor="middle" visibility="hidden" style="font-size: 13px;">M</text><text y="358" x="213.24503311258277" text-anchor="middle" visibility="hidden" style="font-size: 13px;">C</text><text y="358" x="215.56291390728478" text-anchor="middle" visibility="hidden" style="font-size: 13px;">V</text><text y="358" x="217.88079470198673" text-anchor="middle" visibility="hidden" style="font-size: 13px;">C</text><text y="358" x="220.19867549668874" text-anchor="middle" visibility="hidden" style="font-size: 13px;">Q</text><text y="358" x="222.51655629139074" text-anchor="middle" visibility="hidden" style="font-size: 13px;">D</text><text y="358" x="224.8344370860927" text-anchor="middle" visibility="hidden" style="font-size: 13px;">P</text><text y="358" x="227.1523178807947" text-anchor="middle" visibility="hidden" style="font-size: 13px;">T</text><text y="358" x="229.4701986754967" text-anchor="middle" visibility="hidden" style="font-size: 13px;">S</text><text y="358" x="231.78807947019868" text-anchor="middle" visibility="hidden" style="font-size: 13px;">C</text><text y="358" x="234.10596026490066" text-anchor="middle" visibility="hidden" style="font-size: 13px;">P</text><text y="358" x="236.42384105960267" text-anchor="middle" visibility="hidden" style="font-size: 13px;">A</text><text y="358" x="238.74172185430464" text-anchor="middle" visibility="hidden" style="font-size: 13px;">P</text><text y="358" x="241.05960264900662" text-anchor="middle" visibility="hidden" style="font-size: 13px;">I</text><text y="358" x="243.3774834437086" text-anchor="middle" visibility="hidden" style="font-size: 13px;">G</text><text y="358" x="245.6953642384106" text-anchor="middle" visibility="hidden" style="font-size: 13px;">E</text><text y="358" x="248.01324503311255" text-anchor="middle" visibility="hidden" style="font-size: 13px;">F</text><text y="358" x="250.33112582781456" text-anchor="middle" visibility="hidden" style="font-size: 13px;">E</text><text y="358" x="252.64900662251657" text-anchor="middle" visibility="hidden" style="font-size: 13px;">K</text><text y="358" x="254.96688741721852" text-anchor="middle" visibility="hidden" style="font-size: 13px;">V</text><text y="358" x="257.28476821192055" text-anchor="middle" visibility="hidden" style="font-size: 13px;">C</text><text y="358" x="259.6026490066225" text-anchor="middle" visibility="hidden" style="font-size: 13px;">S</text><text y="358" x="261.9205298013245" text-anchor="middle" visibility="hidden" style="font-size: 13px;">N</text><text y="358" x="264.2384105960265" text-anchor="middle" visibility="hidden" style="font-size: 13px;">D</text><text y="358" x="266.55629139072846" text-anchor="middle" visibility="hidden" style="font-size: 13px;">N</text><text y="358" x="268.8741721854305" text-anchor="middle" visibility="hidden" style="font-size: 13px;">K</text><text y="358" x="271.1920529801324" text-anchor="middle" visibility="hidden" style="font-size: 13px;">T</text><text y="358" x="273.50993377483445" text-anchor="middle" visibility="hidden" style="font-size: 13px;">F</text><text y="358" x="275.82781456953643" text-anchor="middle" visibility="hidden" style="font-size: 13px;">D</text><text y="358" x="278.1456953642384" text-anchor="middle" visibility="hidden" style="font-size: 13px;">S</text><text y="358" x="280.4635761589404" text-anchor="middle" visibility="hidden" style="font-size: 13px;">S</text><text y="358" x="282.7814569536424" text-anchor="middle" visibility="hidden" style="font-size: 13px;">C</text><text y="358" x="285.0993377483444" text-anchor="middle" visibility="hidden" style="font-size: 13px;">H</text><text y="358" x="287.4172185430464" text-anchor="middle" visibility="hidden" style="font-size: 13px;">F</text><text y="358" x="289.73509933774835" text-anchor="middle" visibility="hidden" style="font-size: 13px;">F</text><text y="358" x="292.05298013245033" text-anchor="middle" visibility="hidden" style="font-size: 13px;">A</text><text y="358" x="294.3708609271523" text-anchor="middle" visibility="hidden" style="font-size: 13px;">T</text><text y="358" x="296.6887417218543" text-anchor="middle" visibility="hidden" style="font-size: 13px;">K</text><text y="358" x="299.0066225165563" text-anchor="middle" visibility="hidden" style="font-size: 13px;">C</text><text y="358" x="301.32450331125824" text-anchor="middle" visibility="hidden" style="font-size: 13px;">T</text><text y="358" x="303.6423841059603" text-anchor="middle" visibility="hidden" style="font-size: 13px;">L</text><text y="358" x="305.96026490066225" text-anchor="middle" visibility="hidden" style="font-size: 13px;">E</text><text y="358" x="308.27814569536423" text-anchor="middle" visibility="hidden" style="font-size: 13px;">G</text><text y="358" x="310.5960264900662" text-anchor="middle" visibility="hidden" style="font-size: 13px;">T</text><text y="358" x="312.91390728476824" text-anchor="middle" visibility="hidden" style="font-size: 13px;">K</text><text y="358" x="315.2317880794702" text-anchor="middle" visibility="hidden" style="font-size: 13px;">K</text><text y="358" x="317.5496688741722" text-anchor="middle" visibility="hidden" style="font-size: 13px;">G</text><text y="358" x="319.8675496688742" text-anchor="middle" visibility="hidden" style="font-size: 13px;">H</text><text y="358" x="322.18543046357615" text-anchor="middle" visibility="hidden" style="font-size: 13px;">K</text><text y="358" x="324.50331125827813" text-anchor="middle" visibility="hidden" style="font-size: 13px;">L</text><text y="358" x="326.8211920529801" text-anchor="middle" visibility="hidden" style="font-size: 13px;">H</text><text y="358" x="329.13907284768214" text-anchor="middle" visibility="hidden" style="font-size: 13px;">L</text><text y="358" x="331.45695364238406" text-anchor="middle" visibility="hidden" style="font-size: 13px;">D</text><text y="358" x="333.7748344370861" text-anchor="middle" visibility="hidden" style="font-size: 13px;">Y</text><text y="358" x="336.0927152317881" text-anchor="middle" visibility="hidden" style="font-size: 13px;">I</text><text y="358" x="338.4105960264901" text-anchor="middle" visibility="hidden" style="font-size: 13px;">G</text><text y="358" x="340.72847682119203" text-anchor="middle" visibility="hidden" style="font-size: 13px;">P</text><text y="358" x="343.04635761589407" text-anchor="middle" visibility="hidden" style="font-size: 13px;">C</text><text y="358" x="345.36423841059604" text-anchor="middle" visibility="hidden" style="font-size: 13px;">K</text><text y="358" x="347.682119205298" text-anchor="middle" visibility="hidden" style="font-size: 13px;">Y</text><text y="358" x="350" text-anchor="middle" visibility="hidden" style="font-size: 13px;">I</text><text y="358" x="352.317880794702" text-anchor="middle" visibility="hidden" style="font-size: 13px;">P</text><text y="358" x="354.635761589404" text-anchor="middle" visibility="hidden" style="font-size: 13px;">P</text><text y="358" x="356.953642384106" text-anchor="middle" visibility="hidden" style="font-size: 13px;">C</text><text y="358" x="359.2715231788079" text-anchor="middle" visibility="hidden" style="font-size: 13px;">L</text><text y="358" x="361.5894039735099" text-anchor="middle" visibility="hidden" style="font-size: 13px;">D</text><text y="358" x="363.9072847682119" text-anchor="middle" visibility="hidden" style="font-size: 13px;">S</text><text y="358" x="366.2251655629139" text-anchor="middle" visibility="hidden" style="font-size: 13px;">E</text><text y="358" x="368.54304635761594" text-anchor="middle" visibility="hidden" style="font-size: 13px;">L</text><text y="358" x="370.8609271523179" text-anchor="middle" visibility="hidden" style="font-size: 13px;">T</text><text y="358" x="373.17880794701983" text-anchor="middle" visibility="hidden" style="font-size: 13px;">E</text><text y="358" x="375.4966887417218" text-anchor="middle" visibility="hidden" style="font-size: 13px;">F</text><text y="358" x="377.81456953642385" text-anchor="middle" visibility="hidden" style="font-size: 13px;">P</text><text y="358" x="380.1324503311258" text-anchor="middle" visibility="hidden" style="font-size: 13px;">L</text><text y="358" x="382.4503311258278" text-anchor="middle" visibility="hidden" style="font-size: 13px;">R</text><text y="358" x="384.76821192052984" text-anchor="middle" visibility="hidden" style="font-size: 13px;">M</text><text y="358" x="387.0860927152318" text-anchor="middle" visibility="hidden" style="font-size: 13px;">R</text><text y="358" x="389.40397350993373" text-anchor="middle" visibility="hidden" style="font-size: 13px;">D</text><text y="358" x="391.72185430463577" text-anchor="middle" visibility="hidden" style="font-size: 13px;">W</text><text y="358" x="394.03973509933775" text-anchor="middle" visibility="hidden" style="font-size: 13px;">L</text><text y="358" x="396.3576158940397" text-anchor="middle" visibility="hidden" style="font-size: 13px;">K</text><text y="358" x="398.67549668874176" text-anchor="middle" visibility="hidden" style="font-size: 13px;">N</text><text y="358" x="400.99337748344374" text-anchor="middle" visibility="hidden" style="font-size: 13px;">V</text><text y="358" x="403.31125827814566" text-anchor="middle" visibility="hidden" style="font-size: 13px;">L</text><text y="358" x="405.62913907284764" text-anchor="middle" visibility="hidden" style="font-size: 13px;">V</text><text y="358" x="407.94701986754967" text-anchor="middle" visibility="hidden" style="font-size: 13px;">T</text><text y="358" x="410.26490066225165" text-anchor="middle" visibility="hidden" style="font-size: 13px;">L</text><text y="358" x="412.5827814569536" text-anchor="middle" visibility="hidden" style="font-size: 13px;">Y</text><text y="358" x="414.90066225165566" text-anchor="middle" visibility="hidden" style="font-size: 13px;">E</text><text y="358" x="417.21854304635764" text-anchor="middle" visibility="hidden" style="font-size: 13px;">R</text><text y="358" x="419.53642384105956" text-anchor="middle" visibility="hidden" style="font-size: 13px;">D</text><text y="358" x="421.8543046357616" text-anchor="middle" visibility="hidden" style="font-size: 13px;">E</text><text y="358" x="424.17218543046357" text-anchor="middle" visibility="hidden" style="font-size: 13px;">D</text><text y="358" x="426.49006622516555" text-anchor="middle" visibility="hidden" style="font-size: 13px;">N</text><text y="358" x="428.8079470198676" text-anchor="middle" visibility="hidden" style="font-size: 13px;">N</text><text y="358" x="431.12582781456956" text-anchor="middle" visibility="hidden" style="font-size: 13px;">L</text><text y="358" x="433.44370860927154" text-anchor="middle" visibility="hidden" style="font-size: 13px;">L</text><text y="358" x="435.76158940397346" text-anchor="middle" visibility="hidden" style="font-size: 13px;">T</text><text y="358" x="438.0794701986755" text-anchor="middle" visibility="hidden" style="font-size: 13px;">E</text><text y="358" x="440.3973509933775" text-anchor="middle" visibility="hidden" style="font-size: 13px;">K</text><text y="358" x="442.71523178807945" text-anchor="middle" visibility="hidden" style="font-size: 13px;">Q</text><text y="358" x="445.0331125827815" text-anchor="middle" visibility="hidden" style="font-size: 13px;">K</text><text y="358" x="447.35099337748346" text-anchor="middle" visibility="hidden" style="font-size: 13px;">L</text><text y="358" x="449.6688741721854" text-anchor="middle" visibility="hidden" style="font-size: 13px;">R</text><text y="358" x="451.9867549668874" text-anchor="middle" visibility="hidden" style="font-size: 13px;">V</text><text y="358" x="454.3046357615894" text-anchor="middle" visibility="hidden" style="font-size: 13px;">K</text><text y="358" x="456.6225165562914" text-anchor="middle" visibility="hidden" style="font-size: 13px;">K</text><text y="358" x="458.9403973509934" text-anchor="middle" visibility="hidden" style="font-size: 13px;">I</text><text y="358" x="461.2582781456954" text-anchor="middle" visibility="hidden" style="font-size: 13px;">H</text><text y="358" x="463.57615894039736" text-anchor="middle" visibility="hidden" style="font-size: 13px;">E</text><text y="358" x="465.8940397350993" text-anchor="middle" visibility="hidden" style="font-size: 13px;">N</text><text y="358" x="468.2119205298013" text-anchor="middle" visibility="hidden" style="font-size: 13px;">E</text><text y="358" x="470.5298013245033" text-anchor="middle" visibility="hidden" style="font-size: 13px;">K</text><text y="358" x="472.84768211920533" text-anchor="middle" visibility="hidden" style="font-size: 13px;">R</text><text y="358" x="475.1655629139073" text-anchor="middle" visibility="hidden" style="font-size: 13px;">L</text><text y="358" x="477.4834437086093" text-anchor="middle" visibility="hidden" style="font-size: 13px;">E</text><text y="358" x="479.8013245033112" text-anchor="middle" visibility="hidden" style="font-size: 13px;">A</text><text y="358" x="482.11920529801324" text-anchor="middle" visibility="hidden" style="font-size: 13px;">G</text><text y="358" x="484.4370860927152" text-anchor="middle" visibility="hidden" style="font-size: 13px;">D</text><text y="358" x="486.7549668874172" text-anchor="middle" visibility="hidden" style="font-size: 13px;">H</text><text y="358" x="489.07284768211923" text-anchor="middle" visibility="hidden" style="font-size: 13px;">P</text><text y="358" x="491.3907284768212" text-anchor="middle" visibility="hidden" style="font-size: 13px;">V</text><text y="358" x="493.7086092715232" text-anchor="middle" visibility="hidden" style="font-size: 13px;">E</text><text y="358" x="496.0264900662251" text-anchor="middle" visibility="hidden" style="font-size: 13px;">L</text><text y="358" x="498.34437086092714" text-anchor="middle" visibility="hidden" style="font-size: 13px;">L</text><text y="358" x="500.6622516556291" text-anchor="middle" visibility="hidden" style="font-size: 13px;">A</text><text y="358" x="502.98013245033115" text-anchor="middle" visibility="hidden" style="font-size: 13px;">R</text><text y="358" x="505.29801324503313" text-anchor="middle" visibility="hidden" style="font-size: 13px;">D</text><text y="358" x="507.6158940397351" text-anchor="middle" visibility="hidden" style="font-size: 13px;">F</text><text y="358" x="509.93377483443703" text-anchor="middle" visibility="hidden" style="font-size: 13px;">E</text><text y="358" x="512.251655629139" text-anchor="middle" visibility="hidden" style="font-size: 13px;">K</text><text y="358" x="514.5695364238411" text-anchor="middle" visibility="hidden" style="font-size: 13px;">N</text><text y="358" x="516.8874172185431" text-anchor="middle" visibility="hidden" style="font-size: 13px;">Y</text><text y="358" x="519.205298013245" text-anchor="middle" visibility="hidden" style="font-size: 13px;">N</text><text y="358" x="521.523178807947" text-anchor="middle" visibility="hidden" style="font-size: 13px;">M</text><text y="358" x="523.841059602649" text-anchor="middle" visibility="hidden" style="font-size: 13px;">Y</text><text y="358" x="526.158940397351" text-anchor="middle" visibility="hidden" style="font-size: 13px;">I</text><text y="358" x="528.476821192053" text-anchor="middle" visibility="hidden" style="font-size: 13px;">F</text><text y="358" x="530.794701986755" text-anchor="middle" visibility="hidden" style="font-size: 13px;">P</text><text y="358" x="533.1125827814569" text-anchor="middle" visibility="hidden" style="font-size: 13px;">V</text><text y="358" x="535.4304635761589" text-anchor="middle" visibility="hidden" style="font-size: 13px;">H</text><text y="358" x="537.748344370861" text-anchor="middle" visibility="hidden" style="font-size: 13px;">W</text><text y="358" x="540.066225165563" text-anchor="middle" visibility="hidden" style="font-size: 13px;">Q</text><text y="358" x="542.3841059602648" text-anchor="middle" visibility="hidden" style="font-size: 13px;">F</text><text y="358" x="544.7019867549669" text-anchor="middle" visibility="hidden" style="font-size: 13px;">G</text><text y="358" x="547.0198675496689" text-anchor="middle" visibility="hidden" style="font-size: 13px;">Q</text><text y="358" x="549.3377483443709" text-anchor="middle" visibility="hidden" style="font-size: 13px;">L</text><text y="358" x="551.6556291390729" text-anchor="middle" visibility="hidden" style="font-size: 13px;">D</text><text y="358" x="553.9735099337748" text-anchor="middle" visibility="hidden" style="font-size: 13px;">Q</text><text y="358" x="556.2913907284768" text-anchor="middle" visibility="hidden" style="font-size: 13px;">H</text><text y="358" x="558.6092715231788" text-anchor="middle" visibility="hidden" style="font-size: 13px;">P</text><text y="358" x="560.9271523178808" text-anchor="middle" visibility="hidden" style="font-size: 13px;">I</text><text y="358" x="563.2450331125827" text-anchor="middle" visibility="hidden" style="font-size: 13px;">D</text><text y="358" x="565.5629139072848" text-anchor="middle" visibility="hidden" style="font-size: 13px;">G</text><text y="358" x="567.8807947019868" text-anchor="middle" visibility="hidden" style="font-size: 13px;">Y</text><text y="358" x="570.1986754966888" text-anchor="middle" visibility="hidden" style="font-size: 13px;">L</text><text y="358" x="572.5165562913907" text-anchor="middle" visibility="hidden" style="font-size: 13px;">S</text><text y="358" x="574.8344370860927" text-anchor="middle" visibility="hidden" style="font-size: 13px;">H</text><text y="358" x="577.1523178807947" text-anchor="middle" visibility="hidden" style="font-size: 13px;">T</text><text y="358" x="579.4701986754967" text-anchor="middle" visibility="hidden" style="font-size: 13px;">E</text><text y="358" x="581.7880794701987" text-anchor="middle" visibility="hidden" style="font-size: 13px;">L</text><text y="358" x="584.1059602649007" text-anchor="middle" visibility="hidden" style="font-size: 13px;">A</text><text y="358" x="586.4238410596026" text-anchor="middle" visibility="hidden" style="font-size: 13px;">P</text><text y="358" x="588.7417218543046" text-anchor="middle" visibility="hidden" style="font-size: 13px;">L</text><text y="358" x="591.0596026490066" text-anchor="middle" visibility="hidden" style="font-size: 13px;">R</text><text y="358" x="593.3774834437086" text-anchor="middle" visibility="hidden" style="font-size: 13px;">A</text><text y="358" x="595.6953642384107" text-anchor="middle" visibility="hidden" style="font-size: 13px;">P</text><text y="358" x="598.0132450331126" text-anchor="middle" visibility="hidden" style="font-size: 13px;">L</text><text y="358" x="600.3311258278146" text-anchor="middle" visibility="hidden" style="font-size: 13px;">I</text><text y="358" x="602.6490066225165" text-anchor="middle" visibility="hidden" style="font-size: 13px;">P</text><text y="358" x="604.9668874172186" text-anchor="middle" visibility="hidden" style="font-size: 13px;">M</text><text y="358" x="607.2847682119206" text-anchor="middle" visibility="hidden" style="font-size: 13px;">E</text><text y="358" x="609.6026490066225" text-anchor="middle" visibility="hidden" style="font-size: 13px;">H</text><text y="358" x="611.9205298013245" text-anchor="middle" visibility="hidden" style="font-size: 13px;">C</text><text y="358" x="614.2384105960265" text-anchor="middle" visibility="hidden" style="font-size: 13px;">T</text><text y="358" x="616.5562913907285" text-anchor="middle" visibility="hidden" style="font-size: 13px;">T</text><text y="358" x="618.8741721854304" text-anchor="middle" visibility="hidden" style="font-size: 13px;">R</text><text y="358" x="621.1920529801324" text-anchor="middle" visibility="hidden" style="font-size: 13px;">F</text><text y="358" x="623.5099337748344" text-anchor="middle" visibility="hidden" style="font-size: 13px;">F</text><text y="358" x="625.8278145695365" text-anchor="middle" visibility="hidden" style="font-size: 13px;">E</text><text y="358" x="628.1456953642385" text-anchor="middle" visibility="hidden" style="font-size: 13px;">T</text><text y="358" x="630.4635761589404" text-anchor="middle" visibility="hidden" style="font-size: 13px;">C</text><text y="358" x="632.7814569536423" text-anchor="middle" visibility="hidden" style="font-size: 13px;">D</text><text y="358" x="635.0993377483444" text-anchor="middle" visibility="hidden" style="font-size: 13px;">L</text><text y="358" x="637.4172185430464" text-anchor="middle" visibility="hidden" style="font-size: 13px;">D</text><text y="358" x="639.7350993377484" text-anchor="middle" visibility="hidden" style="font-size: 13px;">N</text><text y="358" x="642.0529801324503" text-anchor="middle" visibility="hidden" style="font-size: 13px;">D</text><text y="358" x="644.3708609271523" text-anchor="middle" visibility="hidden" style="font-size: 13px;">K</text><text y="358" x="646.6887417218544" text-anchor="middle" visibility="hidden" style="font-size: 13px;">Y</text><text y="358" x="649.0066225165563" text-anchor="middle" visibility="hidden" style="font-size: 13px;">I</text><text y="358" x="651.3245033112582" text-anchor="middle" visibility="hidden" style="font-size: 13px;">A</text><text y="358" x="653.6423841059602" text-anchor="middle" visibility="hidden" style="font-size: 13px;">L</text><text y="358" x="655.9602649006623" text-anchor="middle" visibility="hidden" style="font-size: 13px;">D</text><text y="358" x="658.2781456953643" text-anchor="middle" visibility="hidden" style="font-size: 13px;">E</text><text y="358" x="660.5960264900663" text-anchor="middle" visibility="hidden" style="font-size: 13px;">W</text><text y="358" x="662.9139072847681" text-anchor="middle" visibility="hidden" style="font-size: 13px;">A</text><text y="358" x="665.2317880794702" text-anchor="middle" visibility="hidden" style="font-size: 13px;">G</text><text y="358" x="667.5496688741722" text-anchor="middle" visibility="hidden" style="font-size: 13px;">C</text><text y="358" x="669.8675496688742" text-anchor="middle" visibility="hidden" style="font-size: 13px;">F</text><text y="358" x="672.1854304635762" text-anchor="middle" visibility="hidden" style="font-size: 13px;">G</text><text y="358" x="674.5033112582781" text-anchor="middle" visibility="hidden" style="font-size: 13px;">I</text><text y="358" x="676.8211920529802" text-anchor="middle" visibility="hidden" style="font-size: 13px;">K</text><text y="358" x="679.1390728476821" text-anchor="middle" visibility="hidden" style="font-size: 13px;">Q</text><text y="358" x="681.4569536423841" text-anchor="middle" visibility="hidden" style="font-size: 13px;">K</text><text y="358" x="683.774834437086" text-anchor="middle" visibility="hidden" style="font-size: 13px;">D</text><text y="358" x="686.0927152317881" text-anchor="middle" visibility="hidden" style="font-size: 13px;">I</text><text y="358" x="688.4105960264901" text-anchor="middle" visibility="hidden" style="font-size: 13px;">D</text><text y="358" x="690.7284768211921" text-anchor="middle" visibility="hidden" style="font-size: 13px;">K</text><text y="358" x="693.046357615894" text-anchor="middle" visibility="hidden" style="font-size: 13px;">D</text><text y="358" x="695.364238410596" text-anchor="middle" visibility="hidden" style="font-size: 13px;">L</text><text y="358" x="697.682119205298" text-anchor="middle" visibility="hidden" style="font-size: 13px;">V</text><text y="358" x="700" text-anchor="middle" visibility="hidden" style="font-size: 13px;">I</text></g></g></svg><g class="xAxis" transform="translate(0,360)" fill="none" font-size="10" font-family="sans-serif" text-anchor="middle"><path class="domain" stroke="#000" d="M0.5,6V0.5H700.5V6"></path><g class="tick" opacity="1" transform="translate(44.53973509933775,0)"><line stroke="#000" y2="6"></line><text fill="#000" y="9" dy="0.71em">20</text></g><g class="tick" opacity="1" transform="translate(90.89735099337747,0)"><line stroke="#000" y2="6"></line><text fill="#000" y="9" dy="0.71em">40</text></g><g class="tick" opacity="1" transform="translate(137.25496688741723,0)"><line stroke="#000" y2="6"></line><text fill="#000" y="9" dy="0.71em">60</text></g><g class="tick" opacity="1" transform="translate(183.61258278145695,0)"><line stroke="#000" y2="6"></line><text fill="#000" y="9" dy="0.71em">80</text></g><g class="tick" opacity="1" transform="translate(229.9701986754967,0)"><line stroke="#000" y2="6"></line><text fill="#000" y="9" dy="0.71em">100</text></g><g class="tick" opacity="1" transform="translate(276.32781456953643,0)"><line stroke="#000" y2="6"></line><text fill="#000" y="9" dy="0.71em">120</text></g><g class="tick" opacity="1" transform="translate(322.68543046357615,0)"><line stroke="#000" y2="6"></line><text fill="#000" y="9" dy="0.71em">140</text></g><g class="tick" opacity="1" transform="translate(369.04304635761594,0)"><line stroke="#000" y2="6"></line><text fill="#000" y="9" dy="0.71em">160</text></g><g class="tick" opacity="1" transform="translate(415.40066225165566,0)"><line stroke="#000" y2="6"></line><text fill="#000" y="9" dy="0.71em">180</text></g><g class="tick" opacity="1" transform="translate(461.7582781456954,0)"><line stroke="#000" y2="6"></line><text fill="#000" y="9" dy="0.71em">200</text></g><g class="tick" opacity="1" transform="translate(508.1158940397351,0)"><line stroke="#000" y2="6"></line><text fill="#000" y="9" dy="0.71em">220</text></g><g class="tick" opacity="1" transform="translate(554.4735099337748,0)"><line stroke="#000" y2="6"></line><text fill="#000" y="9" dy="0.71em">240</text></g><g class="tick" opacity="1" transform="translate(600.8311258278146,0)"><line stroke="#000" y2="6"></line><text fill="#000" y="9" dy="0.71em">260</text></g><g class="tick" opacity="1" transform="translate(647.1887417218544,0)"><line stroke="#000" y2="6"></line><text fill="#000" y="9" dy="0.71em">280</text></g><g class="tick" opacity="1" transform="translate(693.546357615894,0)"><line stroke="#000" y2="6"></line><text fill="#000" y="9" dy="0.71em">300</text></g></g><text class="x label" text-anchor="end" x="700" y="390" style="font-size: 13px; font-family: Arial;">Residue number</text><g class="yAxis" fill="none" font-size="10" font-family="sans-serif" text-anchor="end"><path class="domain" stroke="#000" d="M-6,360.5H0.5V0.5H-6"></path><g class="tick" opacity="1" transform="translate(0,357.52479338842977)"><line stroke="#000" x2="-6"></line><text fill="#000" x="-9" dy="0.32em"></text></g><g class="tick" opacity="1" transform="translate(0,327.77272727272725)"><line stroke="#000" x2="-6"></line><text fill="#000" x="-9" dy="0.32em">0</text></g><g class="tick" opacity="1" transform="translate(0,298.0206611570248)"><line stroke="#000" x2="-6"></line><text fill="#000" x="-9" dy="0.32em">0.1</text></g><g class="tick" opacity="1" transform="translate(0,268.2685950413223)"><line stroke="#000" x2="-6"></line><text fill="#000" x="-9" dy="0.32em">0.2</text></g><g class="tick" opacity="1" transform="translate(0,238.51652892561984)"><line stroke="#000" x2="-6"></line><text fill="#000" x="-9" dy="0.32em">0.3</text></g><g class="tick" opacity="1" transform="translate(0,208.76446280991738)"><line stroke="#000" x2="-6"></line><text fill="#000" x="-9" dy="0.32em">0.4</text></g><g class="tick" opacity="1" transform="translate(0,179.0123966942149)"><line stroke="#000" x2="-6"></line><text fill="#000" x="-9" dy="0.32em">0.5</text></g><g class="tick" opacity="1" transform="translate(0,149.26033057851242)"><line stroke="#000" x2="-6"></line><text fill="#000" x="-9" dy="0.32em">0.6</text></g><g class="tick" opacity="1" transform="translate(0,119.50826446280996)"><line stroke="#000" x2="-6"></line><text fill="#000" x="-9" dy="0.32em">0.7</text></g><g class="tick" opacity="1" transform="translate(0,89.75619834710744)"><line stroke="#000" x2="-6"></line><text fill="#000" x="-9" dy="0.32em">0.8</text></g><g class="tick" opacity="1" transform="translate(0,60.00413223140498)"><line stroke="#000" x2="-6"></line><text fill="#000" x="-9" dy="0.32em">0.9</text></g><g class="tick" opacity="1" transform="translate(0,30.25206611570252)"><line stroke="#000" x2="-6"></line><text fill="#000" x="-9" dy="0.32em">1</text></g><g class="tick" opacity="1" transform="translate(0,0.5)"><line stroke="#000" x2="-6"></line><text fill="#000" x="-9" dy="0.32em">1.1</text></g></g><text class="y label" text-anchor="middle" y="-50" x="-180" dy="0.8em" transform="rotate(-90)" style="font-size: 13px; font-family: Arial;">Total number of references</text><g class="axisRed" fill="none" font-size="10" font-family="sans-serif" text-anchor="start" visibility="hidden" transform="translate(700, 0)"><path class="domain" stroke="#000" d="M6,360.5H0.5V0.5H6"></path><g class="tick" opacity="1" transform="translate(0,360.5)"><line stroke="#000" x2="6"></line><text fill="#000" x="9" dy="0.32em">0</text></g><text text-anchor="start" dx="5.2em" dy="-2.6em" transform="rotate(90)" visibility="hidden" style="font-size: 12px; font-family: Arial; fill: #d7301f;">No recurrent (&gt;2) missense mutations!</text></g><g class="axisPurple" fill="none" font-size="10" font-family="sans-serif" text-anchor="start" visibility="hidden"><path class="domain" stroke="#000" d="M6,360.5H0.5V0.5H6"></path><g class="tick" opacity="1" transform="translate(0,357.52479338842977)"><line stroke="#000" x2="6"></line><text fill="#000" x="9" dy="0.32em"></text></g><g class="tick" opacity="1" transform="translate(0,327.77272727272725)"><line stroke="#000" x2="6"></line><text fill="#000" x="9" dy="0.32em">0</text></g><g class="tick" opacity="1" transform="translate(0,298.0206611570248)"><line stroke="#000" x2="6"></line><text fill="#000" x="9" dy="0.32em">0.1</text></g><g class="tick" opacity="1" transform="translate(0,268.2685950413223)"><line stroke="#000" x2="6"></line><text fill="#000" x="9" dy="0.32em">0.2</text></g><g class="tick" opacity="1" transform="translate(0,238.51652892561984)"><line stroke="#000" x2="6"></line><text fill="#000" x="9" dy="0.32em">0.3</text></g><g class="tick" opacity="1" transform="translate(0,208.76446280991738)"><line stroke="#000" x2="6"></line><text fill="#000" x="9" dy="0.32em">0.4</text></g><g class="tick" opacity="1" transform="translate(0,179.0123966942149)"><line stroke="#000" x2="6"></line><text fill="#000" x="9" dy="0.32em">0.5</text></g><g class="tick" opacity="1" transform="translate(0,149.26033057851242)"><line stroke="#000" x2="6"></line><text fill="#000" x="9" dy="0.32em">0.6</text></g><g class="tick" opacity="1" transform="translate(0,119.50826446280996)"><line stroke="#000" x2="6"></line><text fill="#000" x="9" dy="0.32em">0.7</text></g><g class="tick" opacity="1" transform="translate(0,89.75619834710744)"><line stroke="#000" x2="6"></line><text fill="#000" x="9" dy="0.32em">0.8</text></g><g class="tick" opacity="1" transform="translate(0,60.00413223140498)"><line stroke="#000" x2="6"></line><text fill="#000" x="9" dy="0.32em">0.9</text></g><g class="tick" opacity="1" transform="translate(0,30.25206611570252)"><line stroke="#000" x2="6"></line><text fill="#000" x="9" dy="0.32em">1</text></g><g class="tick" opacity="1" transform="translate(0,0.5)"><line stroke="#000" x2="6"></line><text fill="#000" x="9" dy="0.32em">1.1</text></g><text text-anchor="start" x="10" y="10" visibility="hidden" style="font-size: 12px; font-family: Arial; fill: #807dba;">Minor Allele Frequency (MAF) %</text></g><circle cx="636" cy="15" r="10" class="compassNav" style="fill: #ffffff; stroke: #666666; stroke-width: 1px;"></circle><path d="M440.935 12.574l3.966 82.766C399.416 41.904 331.674 8 256 8 134.813 8 33.933 94.924 12.296 209.824 10.908 217.193 16.604 224 24.103 224h49.084c5.57 0 10.377-3.842 11.676-9.259C103.407 137.408 172.931 80 256 80c60.893 0 114.512 30.856 146.104 77.801l-101.53-4.865c-6.845-.328-12.574 5.133-12.574 11.986v47.411c0 6.627 5.373 12 12 12h200.333c6.627 0 12-5.373 12-12V12c0-6.627-5.373-12-12-12h-47.411c-6.853 0-12.315 5.729-11.987 12.574zM256 432c-60.895 0-114.517-30.858-146.109-77.805l101.868 4.871c6.845.327 12.573-5.134 12.573-11.986v-47.412c0-6.627-5.373-12-12-12H12c-6.627 0-12 5.373-12 12V500c0 6.627 5.373 12 12 12h47.385c6.863 0 12.328-5.745 11.985-12.599l-4.129-82.575C112.725 470.166 180.405 504 256 504c121.187 0 222.067-86.924 243.704-201.824 1.388-7.369-4.308-14.176-11.807-14.176h-49.084c-5.57 0-10.377 3.842-11.676 9.259C408.593 374.592 339.069 432 256 432z" class="compassNav" transform="translate(631, 10) scale(0.02)" style="fill: #666666; stroke: #666666; stroke-width: 1px;"></path><circle cx="658" cy="15" r="10" class="compassNav" style="fill: #ffffff; stroke: #666666; stroke-width: 1px;"></circle><line class="compassNav" stroke-width="2" stroke="#666666" x1="654" y1="15" x2="662" y2="15"></line><line class="compassNav" stroke-width="2" stroke="#666666" x1="658" y1="11" x2="658" y2="19"></line><circle cx="614" cy="15" r="10" class="compassNav" style="fill: #ffffff; stroke: #666666; stroke-width: 1px;"></circle><line class="compassNav" stroke-width="2" stroke="#666666" x1="610" y1="15" x2="618" y2="15"></line><path d="M582 14 l20 -12 a100,40 0 0,0 0,24z" class="compassNav" style="fill: #ffffff; stroke: #666666; stroke-width: 1px;"></path><path d="M690 14 l-20 -12 a100,40 0 0,1 0,24z" class="compassNav" style="fill: #ffffff; stroke: #666666; stroke-width: 1px;"></path><path d="M216 0h80c13.3 0 24 10.7 24 24v168h87.7c17.8 0 26.7 21.5 14.1 34.1L269.7 378.3c-7.5 7.5-19.8 7.5-27.3 0L90.1 226.1c-12.6-12.6-3.7-34.1 14.1-34.1H192V24c0-13.3 10.7-24 24-24zm296 376v112c0 13.3-10.7 24-24 24H24c-13.3 0-24-10.7-24-24V376c0-13.3 10.7-24 24-24h146.7l49 49c20.1 20.1 52.5 20.1 72.6 0l49-49H488c13.3 0 24 10.7 24 24zm-124 88c0-11-9-20-20-20s-20 9-20 20 9 20 20 20 20-9 20-20zm64 0c0-11-9-20-20-20s-20 9-20 20 9 20 20 20 20-9 20-20z" class="compassNav" transform="translate(552,0) scale(0.05)" style="fill: #336699; stroke: #336699; stroke-width: 1px; cursor: pointer;"></path></g></svg>