<svg width="800" height="400" style="background-color: white;"><g transform="translate(50,0)"><svg width="700" height="360"><g style="-webkit-tap-highlight-color: rgba(0, 0, 0, 0);"><rect width="700" height="360" style="fill: #ffffff;"></rect><g id="lines"><line class="line" stroke-width="1" stroke="#d7301f" x1="-219.56521739130434" y1="333" x2="-219.56521739130434" y2="360" visibility="hidden" style="stroke-dasharray: 3px, 3px;"></line></g><g><rect x="-224.56521739130434" y="355" width="10" height="10" visibility="hidden" style="fill: #ffffff; stroke: #d7301f;"></rect></g><g id="lines"><line class="line" stroke-width="1" stroke="#6a51a3" x1="-219.56521739130434" y1="333" x2="-219.56521739130434" y2="327.27272727272725" visibility="hidden" style="stroke-dasharray: 3px, 3px;"></line></g><g><rect x="-224.56521739130434" y="322.27272727272725" width="10" height="10" visibility="hidden" style="fill: #ffffff; stroke: #6a51a3;"></rect></g><g id="lines"><line class="line" stroke-width="1" stroke="#666666" x1="52.173913043478265" y1="333" x2="52.173913043478265" y2="284.7697756788666"></line><line class="line" stroke-width="1" stroke="#666666" x1="200" y1="333" x2="200" y2="284.7697756788666"></line><line class="line" stroke-width="1" stroke="#666666" x1="258.695652173913" y1="333" x2="258.695652173913" y2="284.7697756788666"></line><line class="line" stroke-width="1" stroke="#666666" x1="280.4347826086956" y1="333" x2="280.4347826086956" y2="284.7697756788666"></line><line class="line" stroke-width="1" stroke="#666666" x1="363.04347826086956" y1="333" x2="363.04347826086956" y2="284.7697756788666"></line><line class="line" stroke-width="1" stroke="#666666" x1="450.00000000000006" y1="333" x2="450.00000000000006" y2="284.7697756788666"></line><line class="line" stroke-width="1" stroke="#666666" x1="458.695652173913" y1="333" x2="458.695652173913" y2="284.7697756788666"></line><line class="line" stroke-width="1" stroke="#666666" x1="484.7826086956522" y1="333" x2="484.7826086956522" y2="284.7697756788666"></line><line class="line" stroke-width="1" stroke="#666666" x1="486.95652173913044" y1="333" x2="486.95652173913044" y2="284.7697756788666"></line><line class="line" stroke-width="1" stroke="#666666" x1="560.8695652173913" y1="333" x2="560.8695652173913" y2="284.7697756788666"></line><line class="line" stroke-width="1" stroke="#666666" x1="656.5217391304348" y1="333" x2="656.5217391304348" y2="242.2668240850059"></line><line class="line" stroke-width="1" stroke="#666666" x1="676.0869565217391" y1="333" x2="676.0869565217391" y2="284.7697756788666"></line><line class="line" stroke-width="1" stroke="#666666" x1="697.8260869565217" y1="333" x2="697.8260869565217" y2="29.75206611570252"></line></g><g id="circles"><circle r="4" cx="52.173913043478265" cy="284.7697756788666" style="fill: #4393c3; stroke: #666666; stroke-width: 1px;"></circle><circle r="4" cx="200" cy="284.7697756788666" style="fill: #666666; stroke: #666666; stroke-width: 1px;"></circle><circle r="4" cx="258.695652173913" cy="284.7697756788666" style="fill: #666666; stroke: #666666; stroke-width: 1px;"></circle><circle r="4" cx="280.4347826086956" cy="284.7697756788666" style="fill: #4393c3; stroke: #666666; stroke-width: 1px;"></circle><circle r="4" cx="363.04347826086956" cy="284.7697756788666" style="fill: #666666; stroke: #666666; stroke-width: 1px;"></circle><circle r="4" cx="450.00000000000006" cy="284.7697756788666" style="fill: #666666; stroke: #666666; stroke-width: 1px;"></circle><circle r="4" cx="458.695652173913" cy="284.7697756788666" style="fill: #5aae61; stroke: #666666; stroke-width: 1px;"></circle><circle r="4" cx="484.7826086956522" cy="284.7697756788666" style="fill: #4393c3; stroke: #666666; stroke-width: 1px;"></circle><circle r="4" cx="486.95652173913044" cy="284.7697756788666" style="fill: #4393c3; stroke: #666666; stroke-width: 1px;"></circle><circle r="4" cx="560.8695652173913" cy="284.7697756788666" style="fill: #4393c3; stroke: #666666; stroke-width: 1px;"></circle><circle r="4" cx="656.5217391304348" cy="242.2668240850059" style="fill: #4393c3; stroke: #666666; stroke-width: 1px;"></circle><circle r="4" cx="676.0869565217391" cy="284.7697756788666" style="fill: #bf812d; stroke: #666666; stroke-width: 1px;"></circle><circle r="4" cx="697.8260869565217" cy="29.75206611570252" style="fill: #4393c3; stroke: #666666; stroke-width: 1px;"></circle></g><g><rect x="0" y="333" width="700" height="12" style="fill: #ffffff; stroke-width: 1px; stroke: #666666;"></rect><rect x="141.30434782608694" y="333" width="171.73913043478262" height="12" style="fill: #aec7e8; stroke-width: 1px; stroke: #666666;"></rect><rect x="595.6521739130435" y="333" width="47.826086956521635" height="12" style="fill: #ffbb78; stroke-width: 1px; stroke: #666666;"></rect></g><g><a target="_blank" xlink:href="http://pfam.xfam.org/family/"><text y="343" x="350" text-anchor="middle" style="color: rgb(102, 102, 102); font-weight: normal; font-size: 12px; font-family: Arial; cursor: pointer;"></text></a><a target="_blank" xlink:href="http://pfam.xfam.org/family/Thyroglobulin_1"><text y="343" x="227.17391304347825" text-anchor="middle" style="color: rgb(102, 102, 102); font-weight: normal; font-size: 12px; font-family: Arial; cursor: pointer;">Thyroglobulin_1</text></a><a target="_blank" xlink:href="http://pfam.xfam.org/family/TM"><text y="343" x="619.5652173913043" text-anchor="middle" style="color: rgb(102, 102, 102); font-weight: normal; font-size: 12px; font-family: Arial; cursor: pointer;">TM</text></a></g><g><text y="358" x="0" text-anchor="middle" visibility="hidden" style="font-size: 13px;">M</text><text y="358" x="2.1739130434782608" text-anchor="middle" visibility="hidden" style="font-size: 13px;">A</text><text y="358" x="4.3478260869565215" text-anchor="middle" visibility="hidden" style="font-size: 13px;">R</text><text y="358" x="6.521739130434783" text-anchor="middle" visibility="hidden" style="font-size: 13px;">G</text><text y="358" x="8.695652173913043" text-anchor="middle" visibility="hidden" style="font-size: 13px;">P</text><text y="358" x="10.869565217391305" text-anchor="middle" visibility="hidden" style="font-size: 13px;">G</text><text y="358" x="13.043478260869566" text-anchor="middle" visibility="hidden" style="font-size: 13px;">L</text><text y="358" x="15.217391304347826" text-anchor="middle" visibility="hidden" style="font-size: 13px;">A</text><text y="358" x="17.391304347826086" text-anchor="middle" visibility="hidden" style="font-size: 13px;">P</text><text y="358" x="19.565217391304348" text-anchor="middle" visibility="hidden" style="font-size: 13px;">P</text><text y="358" x="21.73913043478261" text-anchor="middle" visibility="hidden" style="font-size: 13px;">P</text><text y="358" x="23.91304347826087" text-anchor="middle" visibility="hidden" style="font-size: 13px;">L</text><text y="358" x="26.086956521739133" text-anchor="middle" visibility="hidden" style="font-size: 13px;">R</text><text y="358" x="28.26086956521739" text-anchor="middle" visibility="hidden" style="font-size: 13px;">L</text><text y="358" x="30.434782608695652" text-anchor="middle" visibility="hidden" style="font-size: 13px;">P</text><text y="358" x="32.608695652173914" text-anchor="middle" visibility="hidden" style="font-size: 13px;">L</text><text y="358" x="34.78260869565217" text-anchor="middle" visibility="hidden" style="font-size: 13px;">L</text><text y="358" x="36.95652173913044" text-anchor="middle" visibility="hidden" style="font-size: 13px;">L</text><text y="358" x="39.130434782608695" text-anchor="middle" visibility="hidden" style="font-size: 13px;">L</text><text y="358" x="41.30434782608695" text-anchor="middle" visibility="hidden" style="font-size: 13px;">V</text><text y="358" x="43.47826086956522" text-anchor="middle" visibility="hidden" style="font-size: 13px;">L</text><text y="358" x="45.65217391304348" text-anchor="middle" visibility="hidden" style="font-size: 13px;">A</text><text y="358" x="47.82608695652174" text-anchor="middle" visibility="hidden" style="font-size: 13px;">A</text><text y="358" x="50" text-anchor="middle" visibility="hidden" style="font-size: 13px;">V</text><text y="358" x="52.173913043478265" text-anchor="middle" visibility="hidden" style="font-size: 13px;">T</text><text y="358" x="54.347826086956516" text-anchor="middle" visibility="hidden" style="font-size: 13px;">G</text><text y="358" x="56.52173913043478" text-anchor="middle" visibility="hidden" style="font-size: 13px;">H</text><text y="358" x="58.69565217391305" text-anchor="middle" visibility="hidden" style="font-size: 13px;">T</text><text y="358" x="60.869565217391305" text-anchor="middle" visibility="hidden" style="font-size: 13px;">A</text><text y="358" x="63.04347826086957" text-anchor="middle" visibility="hidden" style="font-size: 13px;">A</text><text y="358" x="65.21739130434783" text-anchor="middle" visibility="hidden" style="font-size: 13px;">Q</text><text y="358" x="67.3913043478261" text-anchor="middle" visibility="hidden" style="font-size: 13px;">D</text><text y="358" x="69.56521739130434" text-anchor="middle" visibility="hidden" style="font-size: 13px;">N</text><text y="358" x="71.73913043478261" text-anchor="middle" visibility="hidden" style="font-size: 13px;">C</text><text y="358" x="73.91304347826087" text-anchor="middle" visibility="hidden" style="font-size: 13px;">T</text><text y="358" x="76.08695652173913" text-anchor="middle" visibility="hidden" style="font-size: 13px;">C</text><text y="358" x="78.26086956521739" text-anchor="middle" visibility="hidden" style="font-size: 13px;">P</text><text y="358" x="80.43478260869564" text-anchor="middle" visibility="hidden" style="font-size: 13px;">T</text><text y="358" x="82.6086956521739" text-anchor="middle" visibility="hidden" style="font-size: 13px;">N</text><text y="358" x="84.78260869565217" text-anchor="middle" visibility="hidden" style="font-size: 13px;">K</text><text y="358" x="86.95652173913044" text-anchor="middle" visibility="hidden" style="font-size: 13px;">M</text><text y="358" x="89.13043478260869" text-anchor="middle" visibility="hidden" style="font-size: 13px;">T</text><text y="358" x="91.30434782608695" text-anchor="middle" visibility="hidden" style="font-size: 13px;">V</text><text y="358" x="93.47826086956522" text-anchor="middle" visibility="hidden" style="font-size: 13px;">C</text><text y="358" x="95.65217391304348" text-anchor="middle" visibility="hidden" style="font-size: 13px;">S</text><text y="358" x="97.82608695652173" text-anchor="middle" visibility="hidden" style="font-size: 13px;">P</text><text y="358" x="100" text-anchor="middle" visibility="hidden" style="font-size: 13px;">D</text><text y="358" x="102.17391304347827" text-anchor="middle" visibility="hidden" style="font-size: 13px;">G</text><text y="358" x="104.34782608695653" text-anchor="middle" visibility="hidden" style="font-size: 13px;">P</text><text y="358" x="106.5217391304348" text-anchor="middle" visibility="hidden" style="font-size: 13px;">G</text><text y="358" x="108.69565217391303" text-anchor="middle" visibility="hidden" style="font-size: 13px;">G</text><text y="358" x="110.8695652173913" text-anchor="middle" visibility="hidden" style="font-size: 13px;">R</text><text y="358" x="113.04347826086956" text-anchor="middle" visibility="hidden" style="font-size: 13px;">C</text><text y="358" x="115.21739130434783" text-anchor="middle" visibility="hidden" style="font-size: 13px;">Q</text><text y="358" x="117.3913043478261" text-anchor="middle" visibility="hidden" style="font-size: 13px;">C</text><text y="358" x="119.56521739130434" text-anchor="middle" visibility="hidden" style="font-size: 13px;">R</text><text y="358" x="121.73913043478261" text-anchor="middle" visibility="hidden" style="font-size: 13px;">A</text><text y="358" x="123.91304347826087" text-anchor="middle" visibility="hidden" style="font-size: 13px;">L</text><text y="358" x="126.08695652173914" text-anchor="middle" visibility="hidden" style="font-size: 13px;">G</text><text y="358" x="128.2608695652174" text-anchor="middle" visibility="hidden" style="font-size: 13px;">S</text><text y="358" x="130.43478260869566" text-anchor="middle" visibility="hidden" style="font-size: 13px;">G</text><text y="358" x="132.6086956521739" text-anchor="middle" visibility="hidden" style="font-size: 13px;">M</text><text y="358" x="134.7826086956522" text-anchor="middle" visibility="hidden" style="font-size: 13px;">A</text><text y="358" x="136.95652173913044" text-anchor="middle" visibility="hidden" style="font-size: 13px;">V</text><text y="358" x="139.1304347826087" text-anchor="middle" visibility="hidden" style="font-size: 13px;">D</text><text y="358" x="141.30434782608694" text-anchor="middle" visibility="hidden" style="font-size: 13px;">C</text><text y="358" x="143.47826086956522" text-anchor="middle" visibility="hidden" style="font-size: 13px;">S</text><text y="358" x="145.65217391304347" text-anchor="middle" visibility="hidden" style="font-size: 13px;">T</text><text y="358" x="147.82608695652175" text-anchor="middle" visibility="hidden" style="font-size: 13px;">L</text><text y="358" x="150" text-anchor="middle" visibility="hidden" style="font-size: 13px;">T</text><text y="358" x="152.17391304347825" text-anchor="middle" visibility="hidden" style="font-size: 13px;">S</text><text y="358" x="154.34782608695653" text-anchor="middle" visibility="hidden" style="font-size: 13px;">K</text><text y="358" x="156.52173913043478" text-anchor="middle" visibility="hidden" style="font-size: 13px;">C</text><text y="358" x="158.69565217391306" text-anchor="middle" visibility="hidden" style="font-size: 13px;">L</text><text y="358" x="160.86956521739128" text-anchor="middle" visibility="hidden" style="font-size: 13px;">L</text><text y="358" x="163.04347826086956" text-anchor="middle" visibility="hidden" style="font-size: 13px;">L</text><text y="358" x="165.2173913043478" text-anchor="middle" visibility="hidden" style="font-size: 13px;">K</text><text y="358" x="167.3913043478261" text-anchor="middle" visibility="hidden" style="font-size: 13px;">A</text><text y="358" x="169.56521739130434" text-anchor="middle" visibility="hidden" style="font-size: 13px;">R</text><text y="358" x="171.7391304347826" text-anchor="middle" visibility="hidden" style="font-size: 13px;">M</text><text y="358" x="173.91304347826087" text-anchor="middle" visibility="hidden" style="font-size: 13px;">S</text><text y="358" x="176.08695652173913" text-anchor="middle" visibility="hidden" style="font-size: 13px;">A</text><text y="358" x="178.26086956521738" text-anchor="middle" visibility="hidden" style="font-size: 13px;">P</text><text y="358" x="180.43478260869566" text-anchor="middle" visibility="hidden" style="font-size: 13px;">K</text><text y="358" x="182.6086956521739" text-anchor="middle" visibility="hidden" style="font-size: 13px;">N</text><text y="358" x="184.7826086956522" text-anchor="middle" visibility="hidden" style="font-size: 13px;">A</text><text y="358" x="186.95652173913044" text-anchor="middle" visibility="hidden" style="font-size: 13px;">R</text><text y="358" x="189.13043478260872" text-anchor="middle" visibility="hidden" style="font-size: 13px;">T</text><text y="358" x="191.30434782608697" text-anchor="middle" visibility="hidden" style="font-size: 13px;">L</text><text y="358" x="193.47826086956525" text-anchor="middle" visibility="hidden" style="font-size: 13px;">V</text><text y="358" x="195.65217391304347" text-anchor="middle" visibility="hidden" style="font-size: 13px;">R</text><text y="358" x="197.82608695652172" text-anchor="middle" visibility="hidden" style="font-size: 13px;">P</text><text y="358" x="200" text-anchor="middle" visibility="hidden" style="font-size: 13px;">S</text><text y="358" x="202.17391304347825" text-anchor="middle" visibility="hidden" style="font-size: 13px;">E</text><text y="358" x="204.34782608695653" text-anchor="middle" visibility="hidden" style="font-size: 13px;">H</text><text y="358" x="206.52173913043478" text-anchor="middle" visibility="hidden" style="font-size: 13px;">A</text><text y="358" x="208.69565217391306" text-anchor="middle" visibility="hidden" style="font-size: 13px;">L</text><text y="358" x="210.8695652173913" text-anchor="middle" visibility="hidden" style="font-size: 13px;">V</text><text y="358" x="213.0434782608696" text-anchor="middle" visibility="hidden" style="font-size: 13px;">D</text><text y="358" x="215.21739130434784" text-anchor="middle" visibility="hidden" style="font-size: 13px;">N</text><text y="358" x="217.39130434782606" text-anchor="middle" visibility="hidden" style="font-size: 13px;">D</text><text y="358" x="219.56521739130434" text-anchor="middle" visibility="hidden" style="font-size: 13px;">G</text><text y="358" x="221.7391304347826" text-anchor="middle" visibility="hidden" style="font-size: 13px;">L</text><text y="358" x="223.91304347826087" text-anchor="middle" visibility="hidden" style="font-size: 13px;">Y</text><text y="358" x="226.08695652173913" text-anchor="middle" visibility="hidden" style="font-size: 13px;">D</text><text y="358" x="228.2608695652174" text-anchor="middle" visibility="hidden" style="font-size: 13px;">P</text><text y="358" x="230.43478260869566" text-anchor="middle" visibility="hidden" style="font-size: 13px;">D</text><text y="358" x="232.60869565217394" text-anchor="middle" visibility="hidden" style="font-size: 13px;">C</text><text y="358" x="234.7826086956522" text-anchor="middle" visibility="hidden" style="font-size: 13px;">D</text><text y="358" x="236.9565217391304" text-anchor="middle" visibility="hidden" style="font-size: 13px;">P</text><text y="358" x="239.1304347826087" text-anchor="middle" visibility="hidden" style="font-size: 13px;">E</text><text y="358" x="241.30434782608694" text-anchor="middle" visibility="hidden" style="font-size: 13px;">G</text><text y="358" x="243.47826086956522" text-anchor="middle" visibility="hidden" style="font-size: 13px;">R</text><text y="358" x="245.65217391304347" text-anchor="middle" visibility="hidden" style="font-size: 13px;">F</text><text y="358" x="247.82608695652175" text-anchor="middle" visibility="hidden" style="font-size: 13px;">K</text><text y="358" x="250" text-anchor="middle" visibility="hidden" style="font-size: 13px;">A</text><text y="358" x="252.17391304347828" text-anchor="middle" visibility="hidden" style="font-size: 13px;">R</text><text y="358" x="254.34782608695653" text-anchor="middle" visibility="hidden" style="font-size: 13px;">Q</text><text y="358" x="256.5217391304348" text-anchor="middle" visibility="hidden" style="font-size: 13px;">C</text><text y="358" x="258.695652173913" text-anchor="middle" visibility="hidden" style="font-size: 13px;">N</text><text y="358" x="260.8695652173913" text-anchor="middle" visibility="hidden" style="font-size: 13px;">Q</text><text y="358" x="263.04347826086956" text-anchor="middle" visibility="hidden" style="font-size: 13px;">T</text><text y="358" x="265.2173913043478" text-anchor="middle" visibility="hidden" style="font-size: 13px;">S</text><text y="358" x="267.39130434782606" text-anchor="middle" visibility="hidden" style="font-size: 13px;">V</text><text y="358" x="269.5652173913044" text-anchor="middle" visibility="hidden" style="font-size: 13px;">C</text><text y="358" x="271.7391304347826" text-anchor="middle" visibility="hidden" style="font-size: 13px;">W</text><text y="358" x="273.9130434782609" text-anchor="middle" visibility="hidden" style="font-size: 13px;">C</text><text y="358" x="276.0869565217391" text-anchor="middle" visibility="hidden" style="font-size: 13px;">V</text><text y="358" x="278.2608695652174" text-anchor="middle" visibility="hidden" style="font-size: 13px;">N</text><text y="358" x="280.4347826086956" text-anchor="middle" visibility="hidden" style="font-size: 13px;">S</text><text y="358" x="282.6086956521739" text-anchor="middle" visibility="hidden" style="font-size: 13px;">V</text><text y="358" x="284.7826086956522" text-anchor="middle" visibility="hidden" style="font-size: 13px;">G</text><text y="358" x="286.95652173913044" text-anchor="middle" visibility="hidden" style="font-size: 13px;">V</text><text y="358" x="289.1304347826087" text-anchor="middle" visibility="hidden" style="font-size: 13px;">R</text><text y="358" x="291.30434782608694" text-anchor="middle" visibility="hidden" style="font-size: 13px;">R</text><text y="358" x="293.47826086956525" text-anchor="middle" visibility="hidden" style="font-size: 13px;">T</text><text y="358" x="295.6521739130435" text-anchor="middle" visibility="hidden" style="font-size: 13px;">D</text><text y="358" x="297.82608695652175" text-anchor="middle" visibility="hidden" style="font-size: 13px;">K</text><text y="358" x="300" text-anchor="middle" visibility="hidden" style="font-size: 13px;">G</text><text y="358" x="302.17391304347825" text-anchor="middle" visibility="hidden" style="font-size: 13px;">D</text><text y="358" x="304.3478260869565" text-anchor="middle" visibility="hidden" style="font-size: 13px;">L</text><text y="358" x="306.52173913043475" text-anchor="middle" visibility="hidden" style="font-size: 13px;">S</text><text y="358" x="308.69565217391306" text-anchor="middle" visibility="hidden" style="font-size: 13px;">L</text><text y="358" x="310.8695652173913" text-anchor="middle" visibility="hidden" style="font-size: 13px;">R</text><text y="358" x="313.04347826086956" text-anchor="middle" visibility="hidden" style="font-size: 13px;">C</text><text y="358" x="315.2173913043478" text-anchor="middle" visibility="hidden" style="font-size: 13px;">D</text><text y="358" x="317.3913043478261" text-anchor="middle" visibility="hidden" style="font-size: 13px;">E</text><text y="358" x="319.5652173913043" text-anchor="middle" visibility="hidden" style="font-size: 13px;">L</text><text y="358" x="321.73913043478257" text-anchor="middle" visibility="hidden" style="font-size: 13px;">V</text><text y="358" x="323.9130434782609" text-anchor="middle" visibility="hidden" style="font-size: 13px;">R</text><text y="358" x="326.0869565217391" text-anchor="middle" visibility="hidden" style="font-size: 13px;">T</text><text y="358" x="328.2608695652174" text-anchor="middle" visibility="hidden" style="font-size: 13px;">H</text><text y="358" x="330.4347826086956" text-anchor="middle" visibility="hidden" style="font-size: 13px;">H</text><text y="358" x="332.60869565217394" text-anchor="middle" visibility="hidden" style="font-size: 13px;">I</text><text y="358" x="334.7826086956522" text-anchor="middle" visibility="hidden" style="font-size: 13px;">L</text><text y="358" x="336.95652173913044" text-anchor="middle" visibility="hidden" style="font-size: 13px;">I</text><text y="358" x="339.1304347826087" text-anchor="middle" visibility="hidden" style="font-size: 13px;">D</text><text y="358" x="341.30434782608694" text-anchor="middle" visibility="hidden" style="font-size: 13px;">L</text><text y="358" x="343.4782608695652" text-anchor="middle" visibility="hidden" style="font-size: 13px;">R</text><text y="358" x="345.6521739130435" text-anchor="middle" visibility="hidden" style="font-size: 13px;">H</text><text y="358" x="347.82608695652175" text-anchor="middle" visibility="hidden" style="font-size: 13px;">R</text><text y="358" x="350" text-anchor="middle" visibility="hidden" style="font-size: 13px;">P</text><text y="358" x="352.17391304347825" text-anchor="middle" visibility="hidden" style="font-size: 13px;">T</text><text y="358" x="354.3478260869565" text-anchor="middle" visibility="hidden" style="font-size: 13px;">A</text><text y="358" x="356.52173913043475" text-anchor="middle" visibility="hidden" style="font-size: 13px;">G</text><text y="358" x="358.69565217391306" text-anchor="middle" visibility="hidden" style="font-size: 13px;">A</text><text y="358" x="360.8695652173913" text-anchor="middle" visibility="hidden" style="font-size: 13px;">F</text><text y="358" x="363.04347826086956" text-anchor="middle" visibility="hidden" style="font-size: 13px;">N</text><text y="358" x="365.2173913043478" text-anchor="middle" visibility="hidden" style="font-size: 13px;">H</text><text y="358" x="367.3913043478261" text-anchor="middle" visibility="hidden" style="font-size: 13px;">S</text><text y="358" x="369.5652173913044" text-anchor="middle" visibility="hidden" style="font-size: 13px;">D</text><text y="358" x="371.73913043478257" text-anchor="middle" visibility="hidden" style="font-size: 13px;">L</text><text y="358" x="373.9130434782609" text-anchor="middle" visibility="hidden" style="font-size: 13px;">D</text><text y="358" x="376.0869565217391" text-anchor="middle" visibility="hidden" style="font-size: 13px;">A</text><text y="358" x="378.26086956521743" text-anchor="middle" visibility="hidden" style="font-size: 13px;">E</text><text y="358" x="380.4347826086956" text-anchor="middle" visibility="hidden" style="font-size: 13px;">L</text><text y="358" x="382.60869565217394" text-anchor="middle" visibility="hidden" style="font-size: 13px;">R</text><text y="358" x="384.7826086956522" text-anchor="middle" visibility="hidden" style="font-size: 13px;">R</text><text y="358" x="386.9565217391305" text-anchor="middle" visibility="hidden" style="font-size: 13px;">L</text><text y="358" x="389.1304347826087" text-anchor="middle" visibility="hidden" style="font-size: 13px;">F</text><text y="358" x="391.30434782608694" text-anchor="middle" visibility="hidden" style="font-size: 13px;">R</text><text y="358" x="393.47826086956525" text-anchor="middle" visibility="hidden" style="font-size: 13px;">E</text><text y="358" x="395.65217391304344" text-anchor="middle" visibility="hidden" style="font-size: 13px;">R</text><text y="358" x="397.82608695652175" text-anchor="middle" visibility="hidden" style="font-size: 13px;">Y</text><text y="358" x="400" text-anchor="middle" visibility="hidden" style="font-size: 13px;">R</text><text y="358" x="402.1739130434783" text-anchor="middle" visibility="hidden" style="font-size: 13px;">L</text><text y="358" x="404.3478260869565" text-anchor="middle" visibility="hidden" style="font-size: 13px;">H</text><text y="358" x="406.5217391304348" text-anchor="middle" visibility="hidden" style="font-size: 13px;">P</text><text y="358" x="408.69565217391306" text-anchor="middle" visibility="hidden" style="font-size: 13px;">K</text><text y="358" x="410.86956521739137" text-anchor="middle" visibility="hidden" style="font-size: 13px;">F</text><text y="358" x="413.04347826086956" text-anchor="middle" visibility="hidden" style="font-size: 13px;">V</text><text y="358" x="415.2173913043478" text-anchor="middle" visibility="hidden" style="font-size: 13px;">A</text><text y="358" x="417.3913043478261" text-anchor="middle" visibility="hidden" style="font-size: 13px;">A</text><text y="358" x="419.5652173913043" text-anchor="middle" visibility="hidden" style="font-size: 13px;">V</text><text y="358" x="421.7391304347826" text-anchor="middle" visibility="hidden" style="font-size: 13px;">H</text><text y="358" x="423.9130434782609" text-anchor="middle" visibility="hidden" style="font-size: 13px;">Y</text><text y="358" x="426.0869565217392" text-anchor="middle" visibility="hidden" style="font-size: 13px;">E</text><text y="358" x="428.2608695652174" text-anchor="middle" visibility="hidden" style="font-size: 13px;">Q</text><text y="358" x="430.4347826086957" text-anchor="middle" visibility="hidden" style="font-size: 13px;">P</text><text y="358" x="432.60869565217394" text-anchor="middle" visibility="hidden" style="font-size: 13px;">T</text><text y="358" x="434.78260869565213" text-anchor="middle" visibility="hidden" style="font-size: 13px;">I</text><text y="358" x="436.95652173913044" text-anchor="middle" visibility="hidden" style="font-size: 13px;">Q</text><text y="358" x="439.1304347826087" text-anchor="middle" visibility="hidden" style="font-size: 13px;">I</text><text y="358" x="441.304347826087" text-anchor="middle" visibility="hidden" style="font-size: 13px;">E</text><text y="358" x="443.4782608695652" text-anchor="middle" visibility="hidden" style="font-size: 13px;">L</text><text y="358" x="445.6521739130435" text-anchor="middle" visibility="hidden" style="font-size: 13px;">R</text><text y="358" x="447.82608695652175" text-anchor="middle" visibility="hidden" style="font-size: 13px;">Q</text><text y="358" x="450.00000000000006" text-anchor="middle" visibility="hidden" style="font-size: 13px;">N</text><text y="358" x="452.17391304347825" text-anchor="middle" visibility="hidden" style="font-size: 13px;">T</text><text y="358" x="454.3478260869565" text-anchor="middle" visibility="hidden" style="font-size: 13px;">S</text><text y="358" x="456.5217391304348" text-anchor="middle" visibility="hidden" style="font-size: 13px;">Q</text><text y="358" x="458.695652173913" text-anchor="middle" visibility="hidden" style="font-size: 13px;">K</text><text y="358" x="460.8695652173913" text-anchor="middle" visibility="hidden" style="font-size: 13px;">A</text><text y="358" x="463.04347826086956" text-anchor="middle" visibility="hidden" style="font-size: 13px;">A</text><text y="358" x="465.21739130434787" text-anchor="middle" visibility="hidden" style="font-size: 13px;">G</text><text y="358" x="467.39130434782606" text-anchor="middle" visibility="hidden" style="font-size: 13px;">D</text><text y="358" x="469.5652173913044" text-anchor="middle" visibility="hidden" style="font-size: 13px;">V</text><text y="358" x="471.7391304347826" text-anchor="middle" visibility="hidden" style="font-size: 13px;">D</text><text y="358" x="473.9130434782608" text-anchor="middle" visibility="hidden" style="font-size: 13px;">I</text><text y="358" x="476.0869565217391" text-anchor="middle" visibility="hidden" style="font-size: 13px;">G</text><text y="358" x="478.2608695652174" text-anchor="middle" visibility="hidden" style="font-size: 13px;">D</text><text y="358" x="480.4347826086957" text-anchor="middle" visibility="hidden" style="font-size: 13px;">A</text><text y="358" x="482.6086956521739" text-anchor="middle" visibility="hidden" style="font-size: 13px;">A</text><text y="358" x="484.7826086956522" text-anchor="middle" visibility="hidden" style="font-size: 13px;">Y</text><text y="358" x="486.95652173913044" text-anchor="middle" visibility="hidden" style="font-size: 13px;">Y</text><text y="358" x="489.13043478260875" text-anchor="middle" visibility="hidden" style="font-size: 13px;">F</text><text y="358" x="491.30434782608694" text-anchor="middle" visibility="hidden" style="font-size: 13px;">E</text><text y="358" x="493.47826086956525" text-anchor="middle" visibility="hidden" style="font-size: 13px;">R</text><text y="358" x="495.6521739130435" text-anchor="middle" visibility="hidden" style="font-size: 13px;">D</text><text y="358" x="497.8260869565217" text-anchor="middle" visibility="hidden" style="font-size: 13px;">I</text><text y="358" x="500" text-anchor="middle" visibility="hidden" style="font-size: 13px;">K</text><text y="358" x="502.17391304347825" text-anchor="middle" visibility="hidden" style="font-size: 13px;">G</text><text y="358" x="504.34782608695656" text-anchor="middle" visibility="hidden" style="font-size: 13px;">E</text><text y="358" x="506.52173913043475" text-anchor="middle" visibility="hidden" style="font-size: 13px;">S</text><text y="358" x="508.69565217391306" text-anchor="middle" visibility="hidden" style="font-size: 13px;">L</text><text y="358" x="510.8695652173913" text-anchor="middle" visibility="hidden" style="font-size: 13px;">F</text><text y="358" x="513.0434782608696" text-anchor="middle" visibility="hidden" style="font-size: 13px;">Q</text><text y="358" x="515.2173913043479" text-anchor="middle" visibility="hidden" style="font-size: 13px;">G</text><text y="358" x="517.391304347826" text-anchor="middle" visibility="hidden" style="font-size: 13px;">R</text><text y="358" x="519.5652173913044" text-anchor="middle" visibility="hidden" style="font-size: 13px;">G</text><text y="358" x="521.7391304347826" text-anchor="middle" visibility="hidden" style="font-size: 13px;">G</text><text y="358" x="523.9130434782609" text-anchor="middle" visibility="hidden" style="font-size: 13px;">L</text><text y="358" x="526.0869565217391" text-anchor="middle" visibility="hidden" style="font-size: 13px;">D</text><text y="358" x="528.2608695652174" text-anchor="middle" visibility="hidden" style="font-size: 13px;">L</text><text y="358" x="530.4347826086956" text-anchor="middle" visibility="hidden" style="font-size: 13px;">R</text><text y="358" x="532.608695652174" text-anchor="middle" visibility="hidden" style="font-size: 13px;">V</text><text y="358" x="534.7826086956521" text-anchor="middle" visibility="hidden" style="font-size: 13px;">R</text><text y="358" x="536.9565217391304" text-anchor="middle" visibility="hidden" style="font-size: 13px;">G</text><text y="358" x="539.1304347826087" text-anchor="middle" visibility="hidden" style="font-size: 13px;">E</text><text y="358" x="541.3043478260869" text-anchor="middle" visibility="hidden" style="font-size: 13px;">P</text><text y="358" x="543.4782608695652" text-anchor="middle" visibility="hidden" style="font-size: 13px;">L</text><text y="358" x="545.6521739130435" text-anchor="middle" visibility="hidden" style="font-size: 13px;">Q</text><text y="358" x="547.8260869565217" text-anchor="middle" visibility="hidden" style="font-size: 13px;">V</text><text y="358" x="550" text-anchor="middle" visibility="hidden" style="font-size: 13px;">E</text><text y="358" x="552.1739130434783" text-anchor="middle" visibility="hidden" style="font-size: 13px;">R</text><text y="358" x="554.3478260869565" text-anchor="middle" visibility="hidden" style="font-size: 13px;">T</text><text y="358" x="556.5217391304348" text-anchor="middle" visibility="hidden" style="font-size: 13px;">L</text><text y="358" x="558.695652173913" text-anchor="middle" visibility="hidden" style="font-size: 13px;">I</text><text y="358" x="560.8695652173913" text-anchor="middle" visibility="hidden" style="font-size: 13px;">Y</text><text y="358" x="563.0434782608696" text-anchor="middle" visibility="hidden" style="font-size: 13px;">Y</text><text y="358" x="565.2173913043478" text-anchor="middle" visibility="hidden" style="font-size: 13px;">L</text><text y="358" x="567.3913043478261" text-anchor="middle" visibility="hidden" style="font-size: 13px;">D</text><text y="358" x="569.5652173913044" text-anchor="middle" visibility="hidden" style="font-size: 13px;">E</text><text y="358" x="571.7391304347826" text-anchor="middle" visibility="hidden" style="font-size: 13px;">I</text><text y="358" x="573.9130434782609" text-anchor="middle" visibility="hidden" style="font-size: 13px;">P</text><text y="358" x="576.0869565217391" text-anchor="middle" visibility="hidden" style="font-size: 13px;">P</text><text y="358" x="578.2608695652174" text-anchor="middle" visibility="hidden" style="font-size: 13px;">K</text><text y="358" x="580.4347826086956" text-anchor="middle" visibility="hidden" style="font-size: 13px;">F</text><text y="358" x="582.6086956521739" text-anchor="middle" visibility="hidden" style="font-size: 13px;">S</text><text y="358" x="584.7826086956521" text-anchor="middle" visibility="hidden" style="font-size: 13px;">M</text><text y="358" x="586.9565217391305" text-anchor="middle" visibility="hidden" style="font-size: 13px;">K</text><text y="358" x="589.1304347826086" text-anchor="middle" visibility="hidden" style="font-size: 13px;">R</text><text y="358" x="591.304347826087" text-anchor="middle" visibility="hidden" style="font-size: 13px;">L</text><text y="358" x="593.4782608695652" text-anchor="middle" visibility="hidden" style="font-size: 13px;">T</text><text y="358" x="595.6521739130435" text-anchor="middle" visibility="hidden" style="font-size: 13px;">A</text><text y="358" x="597.8260869565217" text-anchor="middle" visibility="hidden" style="font-size: 13px;">G</text><text y="358" x="600" text-anchor="middle" visibility="hidden" style="font-size: 13px;">L</text><text y="358" x="602.1739130434783" text-anchor="middle" visibility="hidden" style="font-size: 13px;">I</text><text y="358" x="604.3478260869565" text-anchor="middle" visibility="hidden" style="font-size: 13px;">A</text><text y="358" x="606.5217391304348" text-anchor="middle" visibility="hidden" style="font-size: 13px;">V</text><text y="358" x="608.695652173913" text-anchor="middle" visibility="hidden" style="font-size: 13px;">I</text><text y="358" x="610.8695652173914" text-anchor="middle" visibility="hidden" style="font-size: 13px;">V</text><text y="358" x="613.0434782608695" text-anchor="middle" visibility="hidden" style="font-size: 13px;">V</text><text y="358" x="615.2173913043479" text-anchor="middle" visibility="hidden" style="font-size: 13px;">V</text><text y="358" x="617.3913043478261" text-anchor="middle" visibility="hidden" style="font-size: 13px;">V</text><text y="358" x="619.5652173913043" text-anchor="middle" visibility="hidden" style="font-size: 13px;">V</text><text y="358" x="621.7391304347826" text-anchor="middle" visibility="hidden" style="font-size: 13px;">A</text><text y="358" x="623.9130434782609" text-anchor="middle" visibility="hidden" style="font-size: 13px;">L</text><text y="358" x="626.0869565217391" text-anchor="middle" visibility="hidden" style="font-size: 13px;">V</text><text y="358" x="628.2608695652174" text-anchor="middle" visibility="hidden" style="font-size: 13px;">A</text><text y="358" x="630.4347826086956" text-anchor="middle" visibility="hidden" style="font-size: 13px;">G</text><text y="358" x="632.6086956521739" text-anchor="middle" visibility="hidden" style="font-size: 13px;">M</text><text y="358" x="634.7826086956522" text-anchor="middle" visibility="hidden" style="font-size: 13px;">A</text><text y="358" x="636.9565217391304" text-anchor="middle" visibility="hidden" style="font-size: 13px;">V</text><text y="358" x="639.1304347826086" text-anchor="middle" visibility="hidden" style="font-size: 13px;">L</text><text y="358" x="641.304347826087" text-anchor="middle" visibility="hidden" style="font-size: 13px;">V</text><text y="358" x="643.4782608695651" text-anchor="middle" visibility="hidden" style="font-size: 13px;">I</text><text y="358" x="645.6521739130435" text-anchor="middle" visibility="hidden" style="font-size: 13px;">T</text><text y="358" x="647.8260869565217" text-anchor="middle" visibility="hidden" style="font-size: 13px;">N</text><text y="358" x="650" text-anchor="middle" visibility="hidden" style="font-size: 13px;">R</text><text y="358" x="652.1739130434783" text-anchor="middle" visibility="hidden" style="font-size: 13px;">R</text><text y="358" x="654.3478260869565" text-anchor="middle" visibility="hidden" style="font-size: 13px;">K</text><text y="358" x="656.5217391304348" text-anchor="middle" visibility="hidden" style="font-size: 13px;">S</text><text y="358" x="658.6956521739131" text-anchor="middle" visibility="hidden" style="font-size: 13px;">G</text><text y="358" x="660.8695652173913" text-anchor="middle" visibility="hidden" style="font-size: 13px;">K</text><text y="358" x="663.0434782608695" text-anchor="middle" visibility="hidden" style="font-size: 13px;">Y</text><text y="358" x="665.2173913043479" text-anchor="middle" visibility="hidden" style="font-size: 13px;">K</text><text y="358" x="667.391304347826" text-anchor="middle" visibility="hidden" style="font-size: 13px;">K</text><text y="358" x="669.5652173913044" text-anchor="middle" visibility="hidden" style="font-size: 13px;">V</text><text y="358" x="671.7391304347826" text-anchor="middle" visibility="hidden" style="font-size: 13px;">E</text><text y="358" x="673.9130434782609" text-anchor="middle" visibility="hidden" style="font-size: 13px;">I</text><text y="358" x="676.0869565217391" text-anchor="middle" visibility="hidden" style="font-size: 13px;">K</text><text y="358" x="678.2608695652174" text-anchor="middle" visibility="hidden" style="font-size: 13px;">E</text><text y="358" x="680.4347826086956" text-anchor="middle" visibility="hidden" style="font-size: 13px;">L</text><text y="358" x="682.6086956521739" text-anchor="middle" visibility="hidden" style="font-size: 13px;">G</text><text y="358" x="684.7826086956521" text-anchor="middle" visibility="hidden" style="font-size: 13px;">E</text><text y="358" x="686.9565217391304" text-anchor="middle" visibility="hidden" style="font-size: 13px;">L</text><text y="358" x="689.1304347826087" text-anchor="middle" visibility="hidden" style="font-size: 13px;">R</text><text y="358" x="691.304347826087" text-anchor="middle" visibility="hidden" style="font-size: 13px;">K</text><text y="358" x="693.4782608695652" text-anchor="middle" visibility="hidden" style="font-size: 13px;">E</text><text y="358" x="695.6521739130435" text-anchor="middle" visibility="hidden" style="font-size: 13px;">P</text><text y="358" x="697.8260869565217" text-anchor="middle" visibility="hidden" style="font-size: 13px;">S</text><text y="358" x="700" text-anchor="middle" visibility="hidden" style="font-size: 13px;">L</text></g></g></svg><g class="xAxis" transform="translate(0,360)" fill="none" font-size="10" font-family="sans-serif" text-anchor="middle"><path class="domain" stroke="#000" d="M0.5,6V0.5H700.5V6"></path><g class="tick" opacity="1" transform="translate(107.0217391304348,0)"><line stroke="#000" y2="6"></line><text fill="#000" y="9" dy="0.71em">50</text></g><g class="tick" opacity="1" transform="translate(215.71739130434784,0)"><line stroke="#000" y2="6"></line><text fill="#000" y="9" dy="0.71em">100</text></g><g class="tick" opacity="1" transform="translate(324.4130434782609,0)"><line stroke="#000" y2="6"></line><text fill="#000" y="9" dy="0.71em">150</text></g><g class="tick" opacity="1" transform="translate(433.10869565217394,0)"><line stroke="#000" y2="6"></line><text fill="#000" y="9" dy="0.71em">200</text></g><g class="tick" opacity="1" transform="translate(541.8043478260869,0)"><line stroke="#000" y2="6"></line><text fill="#000" y="9" dy="0.71em">250</text></g><g class="tick" opacity="1" transform="translate(650.5,0)"><line stroke="#000" y2="6"></line><text fill="#000" y="9" dy="0.71em">300</text></g></g><text class="x label" text-anchor="end" x="700" y="390" style="font-size: 13px; font-family: Arial;">Residue number</text><g class="yAxis" fill="none" font-size="10" font-family="sans-serif" text-anchor="end"><path class="domain" stroke="#000" d="M-6,360.5H0.5V0.5H-6"></path><g class="tick" opacity="1" transform="translate(0,327.77272727272725)"><line stroke="#000" x2="-6"></line><text fill="#000" x="-9" dy="0.32em">0</text></g><g class="tick" opacity="1" transform="translate(0,285.2697756788666)"><line stroke="#000" x2="-6"></line><text fill="#000" x="-9" dy="0.32em">1</text></g><g class="tick" opacity="1" transform="translate(0,242.7668240850059)"><line stroke="#000" x2="-6"></line><text fill="#000" x="-9" dy="0.32em">2</text></g><g class="tick" opacity="1" transform="translate(0,200.26387249114524)"><line stroke="#000" x2="-6"></line><text fill="#000" x="-9" dy="0.32em">3</text></g><g class="tick" opacity="1" transform="translate(0,157.76092089728456)"><line stroke="#000" x2="-6"></line><text fill="#000" x="-9" dy="0.32em">4</text></g><g class="tick" opacity="1" transform="translate(0,115.25796930342389)"><line stroke="#000" x2="-6"></line><text fill="#000" x="-9" dy="0.32em">5</text></g><g class="tick" opacity="1" transform="translate(0,72.75501770956322)"><line stroke="#000" x2="-6"></line><text fill="#000" x="-9" dy="0.32em">6</text></g><g class="tick" opacity="1" transform="translate(0,30.25206611570252)"><line stroke="#000" x2="-6"></line><text fill="#000" x="-9" dy="0.32em">7</text></g></g><text class="y label" text-anchor="middle" y="-50" x="-180" dy="0.8em" transform="rotate(-90)" style="font-size: 13px; font-family: Arial;">Total number of references</text><g class="axisRed" fill="none" font-size="10" font-family="sans-serif" text-anchor="start" visibility="hidden" transform="translate(700, 0)"><path class="domain" stroke="#000" d="M6,360.5H0.5V0.5H6"></path><g class="tick" opacity="1" transform="translate(0,360.5)"><line stroke="#000" x2="6"></line><text fill="#000" x="9" dy="0.32em">0</text></g><text text-anchor="start" dx="5.2em" dy="-2.6em" transform="rotate(90)" visibility="hidden" style="font-size: 12px; font-family: Arial; fill: #d7301f;">No recurrent (&gt;2) missense mutations!</text></g><g class="axisPurple" fill="none" font-size="10" font-family="sans-serif" text-anchor="start" visibility="hidden"><path class="domain" stroke="#000" d="M6,360.5H0.5V0.5H6"></path><g class="tick" opacity="1" transform="translate(0,357.52479338842977)"><line stroke="#000" x2="6"></line><text fill="#000" x="9" dy="0.32em"></text></g><g class="tick" opacity="1" transform="translate(0,327.77272727272725)"><line stroke="#000" x2="6"></line><text fill="#000" x="9" dy="0.32em">0</text></g><g class="tick" opacity="1" transform="translate(0,298.0206611570248)"><line stroke="#000" x2="6"></line><text fill="#000" x="9" dy="0.32em">0.1</text></g><g class="tick" opacity="1" transform="translate(0,268.2685950413223)"><line stroke="#000" x2="6"></line><text fill="#000" x="9" dy="0.32em">0.2</text></g><g class="tick" opacity="1" transform="translate(0,238.51652892561984)"><line stroke="#000" x2="6"></line><text fill="#000" x="9" dy="0.32em">0.3</text></g><g class="tick" opacity="1" transform="translate(0,208.76446280991738)"><line stroke="#000" x2="6"></line><text fill="#000" x="9" dy="0.32em">0.4</text></g><g class="tick" opacity="1" transform="translate(0,179.0123966942149)"><line stroke="#000" x2="6"></line><text fill="#000" x="9" dy="0.32em">0.5</text></g><g class="tick" opacity="1" transform="translate(0,149.26033057851242)"><line stroke="#000" x2="6"></line><text fill="#000" x="9" dy="0.32em">0.6</text></g><g class="tick" opacity="1" transform="translate(0,119.50826446280996)"><line stroke="#000" x2="6"></line><text fill="#000" x="9" dy="0.32em">0.7</text></g><g class="tick" opacity="1" transform="translate(0,89.75619834710744)"><line stroke="#000" x2="6"></line><text fill="#000" x="9" dy="0.32em">0.8</text></g><g class="tick" opacity="1" transform="translate(0,60.00413223140498)"><line stroke="#000" x2="6"></line><text fill="#000" x="9" dy="0.32em">0.9</text></g><g class="tick" opacity="1" transform="translate(0,30.25206611570252)"><line stroke="#000" x2="6"></line><text fill="#000" x="9" dy="0.32em">1</text></g><g class="tick" opacity="1" transform="translate(0,0.5)"><line stroke="#000" x2="6"></line><text fill="#000" x="9" dy="0.32em">1.1</text></g><text text-anchor="start" x="10" y="10" visibility="hidden" style="font-size: 12px; font-family: Arial; fill: #807dba;">No disease causing germline SNPs known!</text></g><circle cx="636" cy="15" r="10" class="compassNav" style="fill: #ffffff; stroke: #666666; stroke-width: 1px;"></circle><path d="M440.935 12.574l3.966 82.766C399.416 41.904 331.674 8 256 8 134.813 8 33.933 94.924 12.296 209.824 10.908 217.193 16.604 224 24.103 224h49.084c5.57 0 10.377-3.842 11.676-9.259C103.407 137.408 172.931 80 256 80c60.893 0 114.512 30.856 146.104 77.801l-101.53-4.865c-6.845-.328-12.574 5.133-12.574 11.986v47.411c0 6.627 5.373 12 12 12h200.333c6.627 0 12-5.373 12-12V12c0-6.627-5.373-12-12-12h-47.411c-6.853 0-12.315 5.729-11.987 12.574zM256 432c-60.895 0-114.517-30.858-146.109-77.805l101.868 4.871c6.845.327 12.573-5.134 12.573-11.986v-47.412c0-6.627-5.373-12-12-12H12c-6.627 0-12 5.373-12 12V500c0 6.627 5.373 12 12 12h47.385c6.863 0 12.328-5.745 11.985-12.599l-4.129-82.575C112.725 470.166 180.405 504 256 504c121.187 0 222.067-86.924 243.704-201.824 1.388-7.369-4.308-14.176-11.807-14.176h-49.084c-5.57 0-10.377 3.842-11.676 9.259C408.593 374.592 339.069 432 256 432z" class="compassNav" transform="translate(631, 10) scale(0.02)" style="fill: #666666; stroke: #666666; stroke-width: 1px;"></path><circle cx="658" cy="15" r="10" class="compassNav" style="fill: #ffffff; stroke: #666666; stroke-width: 1px;"></circle><line class="compassNav" stroke-width="2" stroke="#666666" x1="654" y1="15" x2="662" y2="15"></line><line class="compassNav" stroke-width="2" stroke="#666666" x1="658" y1="11" x2="658" y2="19"></line><circle cx="614" cy="15" r="10" class="compassNav" style="fill: #ffffff; stroke: #666666; stroke-width: 1px;"></circle><line class="compassNav" stroke-width="2" stroke="#666666" x1="610" y1="15" x2="618" y2="15"></line><path d="M582 14 l20 -12 a100,40 0 0,0 0,24z" class="compassNav" style="fill: #ffffff; stroke: #666666; stroke-width: 1px;"></path><path d="M690 14 l-20 -12 a100,40 0 0,1 0,24z" class="compassNav" style="fill: #ffffff; stroke: #666666; stroke-width: 1px;"></path><path d="M216 0h80c13.3 0 24 10.7 24 24v168h87.7c17.8 0 26.7 21.5 14.1 34.1L269.7 378.3c-7.5 7.5-19.8 7.5-27.3 0L90.1 226.1c-12.6-12.6-3.7-34.1 14.1-34.1H192V24c0-13.3 10.7-24 24-24zm296 376v112c0 13.3-10.7 24-24 24H24c-13.3 0-24-10.7-24-24V376c0-13.3 10.7-24 24-24h146.7l49 49c20.1 20.1 52.5 20.1 72.6 0l49-49H488c13.3 0 24 10.7 24 24zm-124 88c0-11-9-20-20-20s-20 9-20 20 9 20 20 20 20-9 20-20zm64 0c0-11-9-20-20-20s-20 9-20 20 9 20 20 20 20-9 20-20z" class="compassNav" transform="translate(552,0) scale(0.05)" style="fill: #336699; stroke: #336699; stroke-width: 1px; cursor: pointer;"></path></g></svg>