<svg width="800" height="400" style="background-color: white;"><g transform="translate(50,0)"><svg width="700" height="360"><g style="-webkit-tap-highlight-color: rgba(0, 0, 0, 0);"><rect width="700" height="360" style="fill: #ffffff;"></rect><g id="lines"><line class="line" stroke-width="1" stroke="#d7301f" x1="-584.297520661157" y1="333" x2="-584.297520661157" y2="360" visibility="hidden" style="stroke-dasharray: 3px, 3px;"></line></g><g><rect x="-589.297520661157" y="355" width="10" height="10" visibility="hidden" style="fill: #ffffff; stroke: #d7301f;"></rect></g><g id="lines"><line class="line" stroke-width="1" stroke="#6a51a3" x1="-584.297520661157" y1="333" x2="-584.297520661157" y2="327.27272727272725" visibility="hidden" style="stroke-dasharray: 3px, 3px;"></line></g><g><rect x="-589.297520661157" y="322.27272727272725" width="10" height="10" visibility="hidden" style="fill: #ffffff; stroke: #6a51a3;"></rect></g><g id="lines"><line class="line" stroke-width="1" stroke="#666666" x1="300.8264462809917" y1="333" x2="300.8264462809917" y2="29.752066115702462"></line><line class="line" stroke-width="1" stroke="#666666" x1="439.6694214876033" y1="333" x2="439.6694214876033" y2="128.92561983471072"></line><line class="line" stroke-width="1" stroke="#666666" x1="538.0165289256198" y1="333" x2="538.0165289256198" y2="228.099173553719"></line><line class="line" stroke-width="1" stroke="#666666" x1="607.4380165289256" y1="333" x2="607.4380165289256" y2="228.099173553719"></line><line class="line" stroke-width="1" stroke="#666666" x1="642.1487603305785" y1="333" x2="642.1487603305785" y2="228.099173553719"></line><line class="line" stroke-width="1" stroke="#666666" x1="700" y1="333" x2="700" y2="128.92561983471072"></line></g><g id="circles"><circle r="4" cx="300.8264462809917" cy="29.752066115702462" style="fill: #4393c3; stroke: #666666; stroke-width: 1px;"></circle><circle r="4" cx="439.6694214876033" cy="128.92561983471072" style="fill: #4393c3; stroke: #666666; stroke-width: 1px;"></circle><circle r="4" cx="538.0165289256198" cy="228.099173553719" style="fill: #4393c3; stroke: #666666; stroke-width: 1px;"></circle><circle r="4" cx="607.4380165289256" cy="228.099173553719" style="fill: #4393c3; stroke: #666666; stroke-width: 1px;"></circle><circle r="4" cx="642.1487603305785" cy="228.099173553719" style="fill: #4393c3; stroke: #666666; stroke-width: 1px;"></circle><circle r="4" cx="700" cy="128.92561983471072" style="fill: #4393c3; stroke: #666666; stroke-width: 1px;"></circle></g><g><rect x="0" y="333" width="700" height="12" style="fill: #ffffff; stroke-width: 1px; stroke: #666666;"></rect><rect x="121.48760330578513" y="333" width="578.5123966942149" height="12" style="fill: #aec7e8; stroke-width: 1px; stroke: #666666;"></rect></g><g><a target="_blank" xlink:href="http://pfam.xfam.org/family/"><text y="343" x="350" text-anchor="middle" style="color: rgb(102, 102, 102); font-weight: normal; font-size: 12px; font-family: Arial; cursor: pointer;"></text></a><a target="_blank" xlink:href="http://pfam.xfam.org/family/SAA"><text y="343" x="410.74380165289256" text-anchor="middle" style="color: rgb(102, 102, 102); font-weight: normal; font-size: 12px; font-family: Arial; cursor: pointer;">SAA</text></a></g><g><text y="358" x="0" text-anchor="middle" visibility="hidden" style="font-size: 13px;">M</text><text y="358" x="5.785123966942149" text-anchor="middle" visibility="hidden" style="font-size: 13px;">K</text><text y="358" x="11.570247933884298" text-anchor="middle" visibility="hidden" style="font-size: 13px;">L</text><text y="358" x="17.355371900826448" text-anchor="middle" visibility="hidden" style="font-size: 13px;">L</text><text y="358" x="23.140495867768596" text-anchor="middle" visibility="hidden" style="font-size: 13px;">T</text><text y="358" x="28.925619834710744" text-anchor="middle" visibility="hidden" style="font-size: 13px;">G</text><text y="358" x="34.710743801652896" text-anchor="middle" visibility="hidden" style="font-size: 13px;">L</text><text y="358" x="40.49586776859504" text-anchor="middle" visibility="hidden" style="font-size: 13px;">V</text><text y="358" x="46.28099173553719" text-anchor="middle" visibility="hidden" style="font-size: 13px;">F</text><text y="358" x="52.06611570247934" text-anchor="middle" visibility="hidden" style="font-size: 13px;">C</text><text y="358" x="57.85123966942149" text-anchor="middle" visibility="hidden" style="font-size: 13px;">S</text><text y="358" x="63.63636363636364" text-anchor="middle" visibility="hidden" style="font-size: 13px;">L</text><text y="358" x="69.42148760330579" text-anchor="middle" visibility="hidden" style="font-size: 13px;">V</text><text y="358" x="75.20661157024793" text-anchor="middle" visibility="hidden" style="font-size: 13px;">L</text><text y="358" x="80.99173553719008" text-anchor="middle" visibility="hidden" style="font-size: 13px;">G</text><text y="358" x="86.77685950413223" text-anchor="middle" visibility="hidden" style="font-size: 13px;">V</text><text y="358" x="92.56198347107438" text-anchor="middle" visibility="hidden" style="font-size: 13px;">S</text><text y="358" x="98.34710743801654" text-anchor="middle" visibility="hidden" style="font-size: 13px;">S</text><text y="358" x="104.13223140495867" text-anchor="middle" visibility="hidden" style="font-size: 13px;">R</text><text y="358" x="109.91735537190083" text-anchor="middle" visibility="hidden" style="font-size: 13px;">S</text><text y="358" x="115.70247933884298" text-anchor="middle" visibility="hidden" style="font-size: 13px;">F</text><text y="358" x="121.48760330578513" text-anchor="middle" visibility="hidden" style="font-size: 13px;">F</text><text y="358" x="127.27272727272728" text-anchor="middle" visibility="hidden" style="font-size: 13px;">S</text><text y="358" x="133.05785123966942" text-anchor="middle" visibility="hidden" style="font-size: 13px;">F</text><text y="358" x="138.84297520661158" text-anchor="middle" visibility="hidden" style="font-size: 13px;">L</text><text y="358" x="144.62809917355372" text-anchor="middle" visibility="hidden" style="font-size: 13px;">G</text><text y="358" x="150.41322314049586" text-anchor="middle" visibility="hidden" style="font-size: 13px;">E</text><text y="358" x="156.19834710743802" text-anchor="middle" visibility="hidden" style="font-size: 13px;">A</text><text y="358" x="161.98347107438016" text-anchor="middle" visibility="hidden" style="font-size: 13px;">F</text><text y="358" x="167.76859504132233" text-anchor="middle" visibility="hidden" style="font-size: 13px;">D</text><text y="358" x="173.55371900826447" text-anchor="middle" visibility="hidden" style="font-size: 13px;">G</text><text y="358" x="179.3388429752066" text-anchor="middle" visibility="hidden" style="font-size: 13px;">A</text><text y="358" x="185.12396694214877" text-anchor="middle" visibility="hidden" style="font-size: 13px;">R</text><text y="358" x="190.9090909090909" text-anchor="middle" visibility="hidden" style="font-size: 13px;">D</text><text y="358" x="196.69421487603307" text-anchor="middle" visibility="hidden" style="font-size: 13px;">M</text><text y="358" x="202.47933884297518" text-anchor="middle" visibility="hidden" style="font-size: 13px;">W</text><text y="358" x="208.26446280991735" text-anchor="middle" visibility="hidden" style="font-size: 13px;">R</text><text y="358" x="214.04958677685948" text-anchor="middle" visibility="hidden" style="font-size: 13px;">A</text><text y="358" x="219.83471074380165" text-anchor="middle" visibility="hidden" style="font-size: 13px;">Y</text><text y="358" x="225.6198347107438" text-anchor="middle" visibility="hidden" style="font-size: 13px;">S</text><text y="358" x="231.40495867768595" text-anchor="middle" visibility="hidden" style="font-size: 13px;">D</text><text y="358" x="237.1900826446281" text-anchor="middle" visibility="hidden" style="font-size: 13px;">M</text><text y="358" x="242.97520661157026" text-anchor="middle" visibility="hidden" style="font-size: 13px;">R</text><text y="358" x="248.7603305785124" text-anchor="middle" visibility="hidden" style="font-size: 13px;">E</text><text y="358" x="254.54545454545456" text-anchor="middle" visibility="hidden" style="font-size: 13px;">A</text><text y="358" x="260.3305785123967" text-anchor="middle" visibility="hidden" style="font-size: 13px;">N</text><text y="358" x="266.11570247933884" text-anchor="middle" visibility="hidden" style="font-size: 13px;">Y</text><text y="358" x="271.900826446281" text-anchor="middle" visibility="hidden" style="font-size: 13px;">I</text><text y="358" x="277.68595041322317" text-anchor="middle" visibility="hidden" style="font-size: 13px;">G</text><text y="358" x="283.4710743801653" text-anchor="middle" visibility="hidden" style="font-size: 13px;">S</text><text y="358" x="289.25619834710744" text-anchor="middle" visibility="hidden" style="font-size: 13px;">D</text><text y="358" x="295.0413223140496" text-anchor="middle" visibility="hidden" style="font-size: 13px;">K</text><text y="358" x="300.8264462809917" text-anchor="middle" visibility="hidden" style="font-size: 13px;">Y</text><text y="358" x="306.61157024793386" text-anchor="middle" visibility="hidden" style="font-size: 13px;">F</text><text y="358" x="312.39669421487605" text-anchor="middle" visibility="hidden" style="font-size: 13px;">H</text><text y="358" x="318.1818181818182" text-anchor="middle" visibility="hidden" style="font-size: 13px;">A</text><text y="358" x="323.9669421487603" text-anchor="middle" visibility="hidden" style="font-size: 13px;">R</text><text y="358" x="329.75206611570246" text-anchor="middle" visibility="hidden" style="font-size: 13px;">G</text><text y="358" x="335.53719008264466" text-anchor="middle" visibility="hidden" style="font-size: 13px;">N</text><text y="358" x="341.3223140495868" text-anchor="middle" visibility="hidden" style="font-size: 13px;">Y</text><text y="358" x="347.10743801652893" text-anchor="middle" visibility="hidden" style="font-size: 13px;">D</text><text y="358" x="352.89256198347107" text-anchor="middle" visibility="hidden" style="font-size: 13px;">A</text><text y="358" x="358.6776859504132" text-anchor="middle" visibility="hidden" style="font-size: 13px;">A</text><text y="358" x="364.4628099173554" text-anchor="middle" visibility="hidden" style="font-size: 13px;">K</text><text y="358" x="370.24793388429754" text-anchor="middle" visibility="hidden" style="font-size: 13px;">R</text><text y="358" x="376.0330578512397" text-anchor="middle" visibility="hidden" style="font-size: 13px;">G</text><text y="358" x="381.8181818181818" text-anchor="middle" visibility="hidden" style="font-size: 13px;">P</text><text y="358" x="387.603305785124" text-anchor="middle" visibility="hidden" style="font-size: 13px;">G</text><text y="358" x="393.38842975206614" text-anchor="middle" visibility="hidden" style="font-size: 13px;">G</text><text y="358" x="399.1735537190083" text-anchor="middle" visibility="hidden" style="font-size: 13px;">V</text><text y="358" x="404.95867768595036" text-anchor="middle" visibility="hidden" style="font-size: 13px;">W</text><text y="358" x="410.7438016528926" text-anchor="middle" visibility="hidden" style="font-size: 13px;">A</text><text y="358" x="416.5289256198347" text-anchor="middle" visibility="hidden" style="font-size: 13px;">A</text><text y="358" x="422.31404958677683" text-anchor="middle" visibility="hidden" style="font-size: 13px;">E</text><text y="358" x="428.09917355371897" text-anchor="middle" visibility="hidden" style="font-size: 13px;">A</text><text y="358" x="433.88429752066116" text-anchor="middle" visibility="hidden" style="font-size: 13px;">I</text><text y="358" x="439.6694214876033" text-anchor="middle" visibility="hidden" style="font-size: 13px;">S</text><text y="358" x="445.45454545454544" text-anchor="middle" visibility="hidden" style="font-size: 13px;">D</text><text y="358" x="451.2396694214876" text-anchor="middle" visibility="hidden" style="font-size: 13px;">A</text><text y="358" x="457.02479338842977" text-anchor="middle" visibility="hidden" style="font-size: 13px;">R</text><text y="358" x="462.8099173553719" text-anchor="middle" visibility="hidden" style="font-size: 13px;">E</text><text y="358" x="468.59504132231405" text-anchor="middle" visibility="hidden" style="font-size: 13px;">N</text><text y="358" x="474.3801652892562" text-anchor="middle" visibility="hidden" style="font-size: 13px;">I</text><text y="358" x="480.1652892561984" text-anchor="middle" visibility="hidden" style="font-size: 13px;">Q</text><text y="358" x="485.9504132231405" text-anchor="middle" visibility="hidden" style="font-size: 13px;">R</text><text y="358" x="491.73553719008265" text-anchor="middle" visibility="hidden" style="font-size: 13px;">F</text><text y="358" x="497.5206611570248" text-anchor="middle" visibility="hidden" style="font-size: 13px;">F</text><text y="358" x="503.305785123967" text-anchor="middle" visibility="hidden" style="font-size: 13px;">G</text><text y="358" x="509.0909090909091" text-anchor="middle" visibility="hidden" style="font-size: 13px;">H</text><text y="358" x="514.8760330578513" text-anchor="middle" visibility="hidden" style="font-size: 13px;">G</text><text y="358" x="520.6611570247934" text-anchor="middle" visibility="hidden" style="font-size: 13px;">A</text><text y="358" x="526.4462809917355" text-anchor="middle" visibility="hidden" style="font-size: 13px;">E</text><text y="358" x="532.2314049586777" text-anchor="middle" visibility="hidden" style="font-size: 13px;">D</text><text y="358" x="538.0165289256198" text-anchor="middle" visibility="hidden" style="font-size: 13px;">S</text><text y="358" x="543.801652892562" text-anchor="middle" visibility="hidden" style="font-size: 13px;">L</text><text y="358" x="549.5867768595042" text-anchor="middle" visibility="hidden" style="font-size: 13px;">A</text><text y="358" x="555.3719008264463" text-anchor="middle" visibility="hidden" style="font-size: 13px;">D</text><text y="358" x="561.1570247933885" text-anchor="middle" visibility="hidden" style="font-size: 13px;">Q</text><text y="358" x="566.9421487603306" text-anchor="middle" visibility="hidden" style="font-size: 13px;">A</text><text y="358" x="572.7272727272727" text-anchor="middle" visibility="hidden" style="font-size: 13px;">A</text><text y="358" x="578.5123966942149" text-anchor="middle" visibility="hidden" style="font-size: 13px;">N</text><text y="358" x="584.297520661157" text-anchor="middle" visibility="hidden" style="font-size: 13px;">E</text><text y="358" x="590.0826446280992" text-anchor="middle" visibility="hidden" style="font-size: 13px;">W</text><text y="358" x="595.8677685950414" text-anchor="middle" visibility="hidden" style="font-size: 13px;">G</text><text y="358" x="601.6528925619834" text-anchor="middle" visibility="hidden" style="font-size: 13px;">R</text><text y="358" x="607.4380165289256" text-anchor="middle" visibility="hidden" style="font-size: 13px;">S</text><text y="358" x="613.2231404958677" text-anchor="middle" visibility="hidden" style="font-size: 13px;">G</text><text y="358" x="619.00826446281" text-anchor="middle" visibility="hidden" style="font-size: 13px;">K</text><text y="358" x="624.7933884297521" text-anchor="middle" visibility="hidden" style="font-size: 13px;">D</text><text y="358" x="630.5785123966942" text-anchor="middle" visibility="hidden" style="font-size: 13px;">P</text><text y="358" x="636.3636363636364" text-anchor="middle" visibility="hidden" style="font-size: 13px;">N</text><text y="358" x="642.1487603305785" text-anchor="middle" visibility="hidden" style="font-size: 13px;">H</text><text y="358" x="647.9338842975206" text-anchor="middle" visibility="hidden" style="font-size: 13px;">F</text><text y="358" x="653.7190082644628" text-anchor="middle" visibility="hidden" style="font-size: 13px;">R</text><text y="358" x="659.5041322314049" text-anchor="middle" visibility="hidden" style="font-size: 13px;">P</text><text y="358" x="665.2892561983472" text-anchor="middle" visibility="hidden" style="font-size: 13px;">A</text><text y="358" x="671.0743801652893" text-anchor="middle" visibility="hidden" style="font-size: 13px;">G</text><text y="358" x="676.8595041322315" text-anchor="middle" visibility="hidden" style="font-size: 13px;">L</text><text y="358" x="682.6446280991736" text-anchor="middle" visibility="hidden" style="font-size: 13px;">P</text><text y="358" x="688.4297520661157" text-anchor="middle" visibility="hidden" style="font-size: 13px;">E</text><text y="358" x="694.2148760330579" text-anchor="middle" visibility="hidden" style="font-size: 13px;">K</text><text y="358" x="700" text-anchor="middle" visibility="hidden" style="font-size: 13px;">Y</text></g></g></svg><g class="xAxis" transform="translate(0,360)" fill="none" font-size="10" font-family="sans-serif" text-anchor="middle"><path class="domain" stroke="#000" d="M0.5,6V0.5H700.5V6"></path><g class="tick" opacity="1" transform="translate(52.56611570247934,0)"><line stroke="#000" y2="6"></line><text fill="#000" y="9" dy="0.71em">10</text></g><g class="tick" opacity="1" transform="translate(110.41735537190083,0)"><line stroke="#000" y2="6"></line><text fill="#000" y="9" dy="0.71em">20</text></g><g class="tick" opacity="1" transform="translate(168.26859504132233,0)"><line stroke="#000" y2="6"></line><text fill="#000" y="9" dy="0.71em">30</text></g><g class="tick" opacity="1" transform="translate(226.1198347107438,0)"><line stroke="#000" y2="6"></line><text fill="#000" y="9" dy="0.71em">40</text></g><g class="tick" opacity="1" transform="translate(283.9710743801653,0)"><line stroke="#000" y2="6"></line><text fill="#000" y="9" dy="0.71em">50</text></g><g class="tick" opacity="1" transform="translate(341.8223140495868,0)"><line stroke="#000" y2="6"></line><text fill="#000" y="9" dy="0.71em">60</text></g><g class="tick" opacity="1" transform="translate(399.6735537190083,0)"><line stroke="#000" y2="6"></line><text fill="#000" y="9" dy="0.71em">70</text></g><g class="tick" opacity="1" transform="translate(457.52479338842977,0)"><line stroke="#000" y2="6"></line><text fill="#000" y="9" dy="0.71em">80</text></g><g class="tick" opacity="1" transform="translate(515.3760330578513,0)"><line stroke="#000" y2="6"></line><text fill="#000" y="9" dy="0.71em">90</text></g><g class="tick" opacity="1" transform="translate(573.2272727272727,0)"><line stroke="#000" y2="6"></line><text fill="#000" y="9" dy="0.71em">100</text></g><g class="tick" opacity="1" transform="translate(631.0785123966942,0)"><line stroke="#000" y2="6"></line><text fill="#000" y="9" dy="0.71em">110</text></g><g class="tick" opacity="1" transform="translate(688.9297520661157,0)"><line stroke="#000" y2="6"></line><text fill="#000" y="9" dy="0.71em">120</text></g></g><text class="x label" text-anchor="end" x="700" y="390" style="font-size: 13px; font-family: Arial;">Residue number</text><g class="yAxis" fill="none" font-size="10" font-family="sans-serif" text-anchor="end"><path class="domain" stroke="#000" d="M-6,360.5H0.5V0.5H-6"></path><g class="tick" opacity="1" transform="translate(0,327.77272727272725)"><line stroke="#000" x2="-6"></line><text fill="#000" x="-9" dy="0.32em">0</text></g><g class="tick" opacity="1" transform="translate(0,278.18595041322317)"><line stroke="#000" x2="-6"></line><text fill="#000" x="-9" dy="0.32em">0.5</text></g><g class="tick" opacity="1" transform="translate(0,228.599173553719)"><line stroke="#000" x2="-6"></line><text fill="#000" x="-9" dy="0.32em">1</text></g><g class="tick" opacity="1" transform="translate(0,179.01239669421489)"><line stroke="#000" x2="-6"></line><text fill="#000" x="-9" dy="0.32em">1.5</text></g><g class="tick" opacity="1" transform="translate(0,129.42561983471072)"><line stroke="#000" x2="-6"></line><text fill="#000" x="-9" dy="0.32em">2</text></g><g class="tick" opacity="1" transform="translate(0,79.8388429752066)"><line stroke="#000" x2="-6"></line><text fill="#000" x="-9" dy="0.32em">2.5</text></g><g class="tick" opacity="1" transform="translate(0,30.252066115702462)"><line stroke="#000" x2="-6"></line><text fill="#000" x="-9" dy="0.32em">3</text></g></g><text class="y label" text-anchor="middle" y="-50" x="-180" dy="0.8em" transform="rotate(-90)" style="font-size: 13px; font-family: Arial;">Total number of references</text><g class="axisRed" fill="none" font-size="10" font-family="sans-serif" text-anchor="start" visibility="hidden" transform="translate(700, 0)"><path class="domain" stroke="#000" d="M6,360.5H0.5V0.5H6"></path><g class="tick" opacity="1" transform="translate(0,360.5)"><line stroke="#000" x2="6"></line><text fill="#000" x="9" dy="0.32em">0</text></g><text text-anchor="start" dx="5.2em" dy="-2.6em" transform="rotate(90)" visibility="hidden" style="font-size: 12px; font-family: Arial; fill: #d7301f;">No recurrent (&gt;2) missense mutations!</text></g><g class="axisPurple" fill="none" font-size="10" font-family="sans-serif" text-anchor="start" visibility="hidden"><path class="domain" stroke="#000" d="M6,360.5H0.5V0.5H6"></path><g class="tick" opacity="1" transform="translate(0,357.52479338842977)"><line stroke="#000" x2="6"></line><text fill="#000" x="9" dy="0.32em"></text></g><g class="tick" opacity="1" transform="translate(0,327.77272727272725)"><line stroke="#000" x2="6"></line><text fill="#000" x="9" dy="0.32em">0</text></g><g class="tick" opacity="1" transform="translate(0,298.0206611570248)"><line stroke="#000" x2="6"></line><text fill="#000" x="9" dy="0.32em">0.1</text></g><g class="tick" opacity="1" transform="translate(0,268.2685950413223)"><line stroke="#000" x2="6"></line><text fill="#000" x="9" dy="0.32em">0.2</text></g><g class="tick" opacity="1" transform="translate(0,238.51652892561984)"><line stroke="#000" x2="6"></line><text fill="#000" x="9" dy="0.32em">0.3</text></g><g class="tick" opacity="1" transform="translate(0,208.76446280991738)"><line stroke="#000" x2="6"></line><text fill="#000" x="9" dy="0.32em">0.4</text></g><g class="tick" opacity="1" transform="translate(0,179.0123966942149)"><line stroke="#000" x2="6"></line><text fill="#000" x="9" dy="0.32em">0.5</text></g><g class="tick" opacity="1" transform="translate(0,149.26033057851242)"><line stroke="#000" x2="6"></line><text fill="#000" x="9" dy="0.32em">0.6</text></g><g class="tick" opacity="1" transform="translate(0,119.50826446280996)"><line stroke="#000" x2="6"></line><text fill="#000" x="9" dy="0.32em">0.7</text></g><g class="tick" opacity="1" transform="translate(0,89.75619834710744)"><line stroke="#000" x2="6"></line><text fill="#000" x="9" dy="0.32em">0.8</text></g><g class="tick" opacity="1" transform="translate(0,60.00413223140498)"><line stroke="#000" x2="6"></line><text fill="#000" x="9" dy="0.32em">0.9</text></g><g class="tick" opacity="1" transform="translate(0,30.25206611570252)"><line stroke="#000" x2="6"></line><text fill="#000" x="9" dy="0.32em">1</text></g><g class="tick" opacity="1" transform="translate(0,0.5)"><line stroke="#000" x2="6"></line><text fill="#000" x="9" dy="0.32em">1.1</text></g><text text-anchor="start" x="10" y="10" visibility="hidden" style="font-size: 12px; font-family: Arial; fill: #807dba;">No disease causing germline SNPs known!</text></g><circle cx="636" cy="15" r="10" class="compassNav" style="fill: #ffffff; stroke: #666666; stroke-width: 1px;"></circle><path d="M440.935 12.574l3.966 82.766C399.416 41.904 331.674 8 256 8 134.813 8 33.933 94.924 12.296 209.824 10.908 217.193 16.604 224 24.103 224h49.084c5.57 0 10.377-3.842 11.676-9.259C103.407 137.408 172.931 80 256 80c60.893 0 114.512 30.856 146.104 77.801l-101.53-4.865c-6.845-.328-12.574 5.133-12.574 11.986v47.411c0 6.627 5.373 12 12 12h200.333c6.627 0 12-5.373 12-12V12c0-6.627-5.373-12-12-12h-47.411c-6.853 0-12.315 5.729-11.987 12.574zM256 432c-60.895 0-114.517-30.858-146.109-77.805l101.868 4.871c6.845.327 12.573-5.134 12.573-11.986v-47.412c0-6.627-5.373-12-12-12H12c-6.627 0-12 5.373-12 12V500c0 6.627 5.373 12 12 12h47.385c6.863 0 12.328-5.745 11.985-12.599l-4.129-82.575C112.725 470.166 180.405 504 256 504c121.187 0 222.067-86.924 243.704-201.824 1.388-7.369-4.308-14.176-11.807-14.176h-49.084c-5.57 0-10.377 3.842-11.676 9.259C408.593 374.592 339.069 432 256 432z" class="compassNav" transform="translate(631, 10) scale(0.02)" style="fill: #666666; stroke: #666666; stroke-width: 1px;"></path><circle cx="658" cy="15" r="10" class="compassNav" style="fill: #ffffff; stroke: #666666; stroke-width: 1px;"></circle><line class="compassNav" stroke-width="2" stroke="#666666" x1="654" y1="15" x2="662" y2="15"></line><line class="compassNav" stroke-width="2" stroke="#666666" x1="658" y1="11" x2="658" y2="19"></line><circle cx="614" cy="15" r="10" class="compassNav" style="fill: #ffffff; stroke: #666666; stroke-width: 1px;"></circle><line class="compassNav" stroke-width="2" stroke="#666666" x1="610" y1="15" x2="618" y2="15"></line><path d="M582 14 l20 -12 a100,40 0 0,0 0,24z" class="compassNav" style="fill: #ffffff; stroke: #666666; stroke-width: 1px;"></path><path d="M690 14 l-20 -12 a100,40 0 0,1 0,24z" class="compassNav" style="fill: #ffffff; stroke: #666666; stroke-width: 1px;"></path><path d="M216 0h80c13.3 0 24 10.7 24 24v168h87.7c17.8 0 26.7 21.5 14.1 34.1L269.7 378.3c-7.5 7.5-19.8 7.5-27.3 0L90.1 226.1c-12.6-12.6-3.7-34.1 14.1-34.1H192V24c0-13.3 10.7-24 24-24zm296 376v112c0 13.3-10.7 24-24 24H24c-13.3 0-24-10.7-24-24V376c0-13.3 10.7-24 24-24h146.7l49 49c20.1 20.1 52.5 20.1 72.6 0l49-49H488c13.3 0 24 10.7 24 24zm-124 88c0-11-9-20-20-20s-20 9-20 20 9 20 20 20 20-9 20-20zm64 0c0-11-9-20-20-20s-20 9-20 20 9 20 20 20 20-9 20-20z" class="compassNav" transform="translate(552,0) scale(0.05)" style="fill: #336699; stroke: #336699; stroke-width: 1px; cursor: pointer;"></path></g></svg>