<svg width="800" height="400" style="background-color: white;"><g transform="translate(50,0)"><svg width="700" height="360"><g style="-webkit-tap-highlight-color: rgba(0, 0, 0, 0);"><rect width="700" height="360" style="fill: #ffffff;"></rect><g id="lines"><line class="line" stroke-width="1" stroke="#d7301f" x1="-233.33333333333331" y1="333" x2="-233.33333333333331" y2="360" visibility="hidden" style="stroke-dasharray: 3px, 3px;"></line></g><g><rect x="-238.33333333333331" y="355" width="10" height="10" visibility="hidden" style="fill: #ffffff; stroke: #d7301f;"></rect></g><g id="lines"><line class="line" stroke-width="1" stroke="#6a51a3" x1="-233.33333333333331" y1="333" x2="-233.33333333333331" y2="327.27272727272725" visibility="hidden" style="stroke-dasharray: 3px, 3px;"></line></g><g><rect x="-238.33333333333331" y="322.27272727272725" width="10" height="10" visibility="hidden" style="fill: #ffffff; stroke: #6a51a3;"></rect></g><g id="lines"><line class="line" stroke-width="1" stroke="#666666" x1="66.996699669967" y1="333" x2="66.996699669967" y2="29.75206611570252"></line><line class="line" stroke-width="1" stroke="#666666" x1="263.36633663366337" y1="333" x2="263.36633663366337" y2="29.75206611570252"></line><line class="line" stroke-width="1" stroke="#666666" x1="265.67656765676566" y1="333" x2="265.67656765676566" y2="29.75206611570252"></line><line class="line" stroke-width="1" stroke="#666666" x1="332.6732673267327" y1="333" x2="332.6732673267327" y2="29.75206611570252"></line><line class="line" stroke-width="1" stroke="#666666" x1="464.3564356435644" y1="333" x2="464.3564356435644" y2="29.75206611570252"></line><line class="line" stroke-width="1" stroke="#666666" x1="503.63036303630366" y1="333" x2="503.63036303630366" y2="29.75206611570252"></line><line class="line" stroke-width="1" stroke="#666666" x1="616.8316831683169" y1="333" x2="616.8316831683169" y2="29.75206611570252"></line><line class="line" stroke-width="1" stroke="#666666" x1="619.1419141914191" y1="333" x2="619.1419141914191" y2="29.75206611570252"></line><line class="line" stroke-width="1" stroke="#666666" x1="619.1419141914191" y1="333" x2="619.1419141914191" y2="29.75206611570252"></line><line class="line" stroke-width="1" stroke="#666666" x1="674.5874587458746" y1="333" x2="674.5874587458746" y2="29.75206611570252"></line></g><g id="circles"><circle r="4" cx="66.996699669967" cy="29.75206611570252" style="fill: #4393c3; stroke: #666666; stroke-width: 1px;"></circle><circle r="4" cx="263.36633663366337" cy="29.75206611570252" style="fill: #666666; stroke: #666666; stroke-width: 1px;"></circle><circle r="4" cx="265.67656765676566" cy="29.75206611570252" style="fill: #666666; stroke: #666666; stroke-width: 1px;"></circle><circle r="4" cx="332.6732673267327" cy="29.75206611570252" style="fill: #666666; stroke: #666666; stroke-width: 1px;"></circle><circle r="4" cx="464.3564356435644" cy="29.75206611570252" style="fill: #4393c3; stroke: #666666; stroke-width: 1px;"></circle><circle r="4" cx="503.63036303630366" cy="29.75206611570252" style="fill: #4393c3; stroke: #666666; stroke-width: 1px;"></circle><circle r="4" cx="616.8316831683169" cy="29.75206611570252" style="fill: #5aae61; stroke: #666666; stroke-width: 1px;"></circle><circle r="4" cx="619.1419141914191" cy="29.75206611570252" style="fill: #5aae61; stroke: #666666; stroke-width: 1px;"></circle><circle r="4" cx="619.1419141914191" cy="29.75206611570252" style="fill: #666666; stroke: #666666; stroke-width: 1px;"></circle><circle r="4" cx="674.5874587458746" cy="29.75206611570252" style="fill: #666666; stroke: #666666; stroke-width: 1px;"></circle></g><g><rect x="0" y="333" width="700" height="12" style="fill: #ffffff; stroke-width: 1px; stroke: #666666;"></rect><rect x="120.13201320132013" y="333" width="120.13201320132013" height="12" style="fill: #aec7e8; stroke-width: 1px; stroke: #666666;"></rect><rect x="284.1584158415842" y="333" width="120.13201320132009" height="12" style="fill: #aec7e8; stroke-width: 1px; stroke: #666666;"></rect><rect x="496.69966996699674" y="333" width="120.13201320132015" height="12" style="fill: #aec7e8; stroke-width: 1px; stroke: #666666;"></rect></g><g><a target="_blank" xlink:href="http://pfam.xfam.org/family/"><text y="343" x="350" text-anchor="middle" style="color: rgb(102, 102, 102); font-weight: normal; font-size: 12px; font-family: Arial; cursor: pointer;"></text></a><a target="_blank" xlink:href="http://pfam.xfam.org/family/Kunitz_BPTI"><text y="343" x="180.1980198019802" text-anchor="middle" style="color: rgb(102, 102, 102); font-weight: normal; font-size: 12px; font-family: Arial; cursor: pointer;">Kunitz_BPTI</text></a><a target="_blank" xlink:href="http://pfam.xfam.org/family/Kunitz_BPTI"><text y="343" x="344.22442244224425" text-anchor="middle" style="color: rgb(102, 102, 102); font-weight: normal; font-size: 12px; font-family: Arial; cursor: pointer;">Kunitz_BPTI</text></a><a target="_blank" xlink:href="http://pfam.xfam.org/family/Kunitz_BPTI"><text y="343" x="556.7656765676568" text-anchor="middle" style="color: rgb(102, 102, 102); font-weight: normal; font-size: 12px; font-family: Arial; cursor: pointer;">Kunitz_BPTI</text></a></g><g><text y="358" x="0" text-anchor="middle" visibility="hidden" style="font-size: 13px;">M</text><text y="358" x="2.31023102310231" text-anchor="middle" visibility="hidden" style="font-size: 13px;">I</text><text y="358" x="4.62046204620462" text-anchor="middle" visibility="hidden" style="font-size: 13px;">Y</text><text y="358" x="6.930693069306931" text-anchor="middle" visibility="hidden" style="font-size: 13px;">T</text><text y="358" x="9.24092409240924" text-anchor="middle" visibility="hidden" style="font-size: 13px;">M</text><text y="358" x="11.55115511551155" text-anchor="middle" visibility="hidden" style="font-size: 13px;">K</text><text y="358" x="13.861386138613861" text-anchor="middle" visibility="hidden" style="font-size: 13px;">K</text><text y="358" x="16.17161716171617" text-anchor="middle" visibility="hidden" style="font-size: 13px;">V</text><text y="358" x="18.48184818481848" text-anchor="middle" visibility="hidden" style="font-size: 13px;">H</text><text y="358" x="20.792079207920793" text-anchor="middle" visibility="hidden" style="font-size: 13px;">A</text><text y="358" x="23.1023102310231" text-anchor="middle" visibility="hidden" style="font-size: 13px;">L</text><text y="358" x="25.412541254125415" text-anchor="middle" visibility="hidden" style="font-size: 13px;">W</text><text y="358" x="27.722772277227723" text-anchor="middle" visibility="hidden" style="font-size: 13px;">A</text><text y="358" x="30.033003300330034" text-anchor="middle" visibility="hidden" style="font-size: 13px;">S</text><text y="358" x="32.34323432343234" text-anchor="middle" visibility="hidden" style="font-size: 13px;">V</text><text y="358" x="34.65346534653465" text-anchor="middle" visibility="hidden" style="font-size: 13px;">C</text><text y="358" x="36.96369636963696" text-anchor="middle" visibility="hidden" style="font-size: 13px;">L</text><text y="358" x="39.273927392739274" text-anchor="middle" visibility="hidden" style="font-size: 13px;">L</text><text y="358" x="41.584158415841586" text-anchor="middle" visibility="hidden" style="font-size: 13px;">L</text><text y="358" x="43.89438943894389" text-anchor="middle" visibility="hidden" style="font-size: 13px;">N</text><text y="358" x="46.2046204620462" text-anchor="middle" visibility="hidden" style="font-size: 13px;">L</text><text y="358" x="48.51485148514852" text-anchor="middle" visibility="hidden" style="font-size: 13px;">A</text><text y="358" x="50.82508250825083" text-anchor="middle" visibility="hidden" style="font-size: 13px;">P</text><text y="358" x="53.135313531353134" text-anchor="middle" visibility="hidden" style="font-size: 13px;">A</text><text y="358" x="55.445544554455445" text-anchor="middle" visibility="hidden" style="font-size: 13px;">P</text><text y="358" x="57.755775577557756" text-anchor="middle" visibility="hidden" style="font-size: 13px;">L</text><text y="358" x="60.06600660066007" text-anchor="middle" visibility="hidden" style="font-size: 13px;">N</text><text y="358" x="62.37623762376237" text-anchor="middle" visibility="hidden" style="font-size: 13px;">A</text><text y="358" x="64.68646864686468" text-anchor="middle" visibility="hidden" style="font-size: 13px;">D</text><text y="358" x="66.996699669967" text-anchor="middle" visibility="hidden" style="font-size: 13px;">S</text><text y="358" x="69.3069306930693" text-anchor="middle" visibility="hidden" style="font-size: 13px;">E</text><text y="358" x="71.61716171617162" text-anchor="middle" visibility="hidden" style="font-size: 13px;">E</text><text y="358" x="73.92739273927393" text-anchor="middle" visibility="hidden" style="font-size: 13px;">D</text><text y="358" x="76.23762376237623" text-anchor="middle" visibility="hidden" style="font-size: 13px;">E</text><text y="358" x="78.54785478547855" text-anchor="middle" visibility="hidden" style="font-size: 13px;">E</text><text y="358" x="80.85808580858085" text-anchor="middle" visibility="hidden" style="font-size: 13px;">H</text><text y="358" x="83.16831683168317" text-anchor="middle" visibility="hidden" style="font-size: 13px;">T</text><text y="358" x="85.47854785478549" text-anchor="middle" visibility="hidden" style="font-size: 13px;">I</text><text y="358" x="87.78877887788778" text-anchor="middle" visibility="hidden" style="font-size: 13px;">I</text><text y="358" x="90.0990099009901" text-anchor="middle" visibility="hidden" style="font-size: 13px;">T</text><text y="358" x="92.4092409240924" text-anchor="middle" visibility="hidden" style="font-size: 13px;">D</text><text y="358" x="94.71947194719472" text-anchor="middle" visibility="hidden" style="font-size: 13px;">T</text><text y="358" x="97.02970297029704" text-anchor="middle" visibility="hidden" style="font-size: 13px;">E</text><text y="358" x="99.33993399339934" text-anchor="middle" visibility="hidden" style="font-size: 13px;">L</text><text y="358" x="101.65016501650166" text-anchor="middle" visibility="hidden" style="font-size: 13px;">P</text><text y="358" x="103.96039603960395" text-anchor="middle" visibility="hidden" style="font-size: 13px;">P</text><text y="358" x="106.27062706270627" text-anchor="middle" visibility="hidden" style="font-size: 13px;">L</text><text y="358" x="108.58085808580857" text-anchor="middle" visibility="hidden" style="font-size: 13px;">K</text><text y="358" x="110.89108910891089" text-anchor="middle" visibility="hidden" style="font-size: 13px;">L</text><text y="358" x="113.2013201320132" text-anchor="middle" visibility="hidden" style="font-size: 13px;">M</text><text y="358" x="115.51155115511551" text-anchor="middle" visibility="hidden" style="font-size: 13px;">H</text><text y="358" x="117.82178217821783" text-anchor="middle" visibility="hidden" style="font-size: 13px;">S</text><text y="358" x="120.13201320132013" text-anchor="middle" visibility="hidden" style="font-size: 13px;">F</text><text y="358" x="122.44224422442245" text-anchor="middle" visibility="hidden" style="font-size: 13px;">C</text><text y="358" x="124.75247524752474" text-anchor="middle" visibility="hidden" style="font-size: 13px;">A</text><text y="358" x="127.06270627062706" text-anchor="middle" visibility="hidden" style="font-size: 13px;">F</text><text y="358" x="129.37293729372936" text-anchor="middle" visibility="hidden" style="font-size: 13px;">K</text><text y="358" x="131.68316831683168" text-anchor="middle" visibility="hidden" style="font-size: 13px;">A</text><text y="358" x="133.993399339934" text-anchor="middle" visibility="hidden" style="font-size: 13px;">D</text><text y="358" x="136.3036303630363" text-anchor="middle" visibility="hidden" style="font-size: 13px;">D</text><text y="358" x="138.6138613861386" text-anchor="middle" visibility="hidden" style="font-size: 13px;">G</text><text y="358" x="140.92409240924093" text-anchor="middle" visibility="hidden" style="font-size: 13px;">P</text><text y="358" x="143.23432343234325" text-anchor="middle" visibility="hidden" style="font-size: 13px;">C</text><text y="358" x="145.54455445544554" text-anchor="middle" visibility="hidden" style="font-size: 13px;">K</text><text y="358" x="147.85478547854785" text-anchor="middle" visibility="hidden" style="font-size: 13px;">A</text><text y="358" x="150.16501650165014" text-anchor="middle" visibility="hidden" style="font-size: 13px;">I</text><text y="358" x="152.47524752475246" text-anchor="middle" visibility="hidden" style="font-size: 13px;">M</text><text y="358" x="154.78547854785478" text-anchor="middle" visibility="hidden" style="font-size: 13px;">K</text><text y="358" x="157.0957095709571" text-anchor="middle" visibility="hidden" style="font-size: 13px;">R</text><text y="358" x="159.40594059405942" text-anchor="middle" visibility="hidden" style="font-size: 13px;">F</text><text y="358" x="161.7161716171617" text-anchor="middle" visibility="hidden" style="font-size: 13px;">F</text><text y="358" x="164.02640264026402" text-anchor="middle" visibility="hidden" style="font-size: 13px;">F</text><text y="358" x="166.33663366336634" text-anchor="middle" visibility="hidden" style="font-size: 13px;">N</text><text y="358" x="168.64686468646866" text-anchor="middle" visibility="hidden" style="font-size: 13px;">I</text><text y="358" x="170.95709570957098" text-anchor="middle" visibility="hidden" style="font-size: 13px;">F</text><text y="358" x="173.26732673267327" text-anchor="middle" visibility="hidden" style="font-size: 13px;">T</text><text y="358" x="175.57755775577556" text-anchor="middle" visibility="hidden" style="font-size: 13px;">R</text><text y="358" x="177.8877887788779" text-anchor="middle" visibility="hidden" style="font-size: 13px;">Q</text><text y="358" x="180.1980198019802" text-anchor="middle" visibility="hidden" style="font-size: 13px;">C</text><text y="358" x="182.5082508250825" text-anchor="middle" visibility="hidden" style="font-size: 13px;">E</text><text y="358" x="184.8184818481848" text-anchor="middle" visibility="hidden" style="font-size: 13px;">E</text><text y="358" x="187.12871287128715" text-anchor="middle" visibility="hidden" style="font-size: 13px;">F</text><text y="358" x="189.43894389438944" text-anchor="middle" visibility="hidden" style="font-size: 13px;">I</text><text y="358" x="191.74917491749173" text-anchor="middle" visibility="hidden" style="font-size: 13px;">Y</text><text y="358" x="194.05940594059408" text-anchor="middle" visibility="hidden" style="font-size: 13px;">G</text><text y="358" x="196.36963696369637" text-anchor="middle" visibility="hidden" style="font-size: 13px;">G</text><text y="358" x="198.67986798679868" text-anchor="middle" visibility="hidden" style="font-size: 13px;">C</text><text y="358" x="200.99009900990097" text-anchor="middle" visibility="hidden" style="font-size: 13px;">E</text><text y="358" x="203.30033003300332" text-anchor="middle" visibility="hidden" style="font-size: 13px;">G</text><text y="358" x="205.6105610561056" text-anchor="middle" visibility="hidden" style="font-size: 13px;">N</text><text y="358" x="207.9207920792079" text-anchor="middle" visibility="hidden" style="font-size: 13px;">Q</text><text y="358" x="210.23102310231025" text-anchor="middle" visibility="hidden" style="font-size: 13px;">N</text><text y="358" x="212.54125412541254" text-anchor="middle" visibility="hidden" style="font-size: 13px;">R</text><text y="358" x="214.85148514851485" text-anchor="middle" visibility="hidden" style="font-size: 13px;">F</text><text y="358" x="217.16171617161714" text-anchor="middle" visibility="hidden" style="font-size: 13px;">E</text><text y="358" x="219.4719471947195" text-anchor="middle" visibility="hidden" style="font-size: 13px;">S</text><text y="358" x="221.78217821782178" text-anchor="middle" visibility="hidden" style="font-size: 13px;">L</text><text y="358" x="224.0924092409241" text-anchor="middle" visibility="hidden" style="font-size: 13px;">E</text><text y="358" x="226.4026402640264" text-anchor="middle" visibility="hidden" style="font-size: 13px;">E</text><text y="358" x="228.71287128712873" text-anchor="middle" visibility="hidden" style="font-size: 13px;">C</text><text y="358" x="231.02310231023102" text-anchor="middle" visibility="hidden" style="font-size: 13px;">K</text><text y="358" x="233.33333333333331" text-anchor="middle" visibility="hidden" style="font-size: 13px;">K</text><text y="358" x="235.64356435643566" text-anchor="middle" visibility="hidden" style="font-size: 13px;">M</text><text y="358" x="237.95379537953795" text-anchor="middle" visibility="hidden" style="font-size: 13px;">C</text><text y="358" x="240.26402640264027" text-anchor="middle" visibility="hidden" style="font-size: 13px;">T</text><text y="358" x="242.57425742574256" text-anchor="middle" visibility="hidden" style="font-size: 13px;">R</text><text y="358" x="244.8844884488449" text-anchor="middle" visibility="hidden" style="font-size: 13px;">D</text><text y="358" x="247.1947194719472" text-anchor="middle" visibility="hidden" style="font-size: 13px;">N</text><text y="358" x="249.50495049504948" text-anchor="middle" visibility="hidden" style="font-size: 13px;">A</text><text y="358" x="251.81518151815183" text-anchor="middle" visibility="hidden" style="font-size: 13px;">N</text><text y="358" x="254.12541254125412" text-anchor="middle" visibility="hidden" style="font-size: 13px;">R</text><text y="358" x="256.43564356435644" text-anchor="middle" visibility="hidden" style="font-size: 13px;">I</text><text y="358" x="258.74587458745873" text-anchor="middle" visibility="hidden" style="font-size: 13px;">I</text><text y="358" x="261.0561056105611" text-anchor="middle" visibility="hidden" style="font-size: 13px;">K</text><text y="358" x="263.36633663366337" text-anchor="middle" visibility="hidden" style="font-size: 13px;">T</text><text y="358" x="265.67656765676566" text-anchor="middle" visibility="hidden" style="font-size: 13px;">T</text><text y="358" x="267.986798679868" text-anchor="middle" visibility="hidden" style="font-size: 13px;">L</text><text y="358" x="270.2970297029703" text-anchor="middle" visibility="hidden" style="font-size: 13px;">Q</text><text y="358" x="272.6072607260726" text-anchor="middle" visibility="hidden" style="font-size: 13px;">Q</text><text y="358" x="274.9174917491749" text-anchor="middle" visibility="hidden" style="font-size: 13px;">E</text><text y="358" x="277.2277227722772" text-anchor="middle" visibility="hidden" style="font-size: 13px;">K</text><text y="358" x="279.53795379537956" text-anchor="middle" visibility="hidden" style="font-size: 13px;">P</text><text y="358" x="281.84818481848185" text-anchor="middle" visibility="hidden" style="font-size: 13px;">D</text><text y="358" x="284.1584158415842" text-anchor="middle" visibility="hidden" style="font-size: 13px;">F</text><text y="358" x="286.4686468646865" text-anchor="middle" visibility="hidden" style="font-size: 13px;">C</text><text y="358" x="288.7788778877888" text-anchor="middle" visibility="hidden" style="font-size: 13px;">F</text><text y="358" x="291.08910891089107" text-anchor="middle" visibility="hidden" style="font-size: 13px;">L</text><text y="358" x="293.3993399339934" text-anchor="middle" visibility="hidden" style="font-size: 13px;">E</text><text y="358" x="295.7095709570957" text-anchor="middle" visibility="hidden" style="font-size: 13px;">E</text><text y="358" x="298.019801980198" text-anchor="middle" visibility="hidden" style="font-size: 13px;">D</text><text y="358" x="300.3300330033003" text-anchor="middle" visibility="hidden" style="font-size: 13px;">P</text><text y="358" x="302.64026402640263" text-anchor="middle" visibility="hidden" style="font-size: 13px;">G</text><text y="358" x="304.9504950495049" text-anchor="middle" visibility="hidden" style="font-size: 13px;">I</text><text y="358" x="307.26072607260727" text-anchor="middle" visibility="hidden" style="font-size: 13px;">C</text><text y="358" x="309.57095709570956" text-anchor="middle" visibility="hidden" style="font-size: 13px;">R</text><text y="358" x="311.8811881188119" text-anchor="middle" visibility="hidden" style="font-size: 13px;">G</text><text y="358" x="314.1914191419142" text-anchor="middle" visibility="hidden" style="font-size: 13px;">Y</text><text y="358" x="316.5016501650165" text-anchor="middle" visibility="hidden" style="font-size: 13px;">I</text><text y="358" x="318.81188118811883" text-anchor="middle" visibility="hidden" style="font-size: 13px;">T</text><text y="358" x="321.1221122112211" text-anchor="middle" visibility="hidden" style="font-size: 13px;">R</text><text y="358" x="323.4323432343234" text-anchor="middle" visibility="hidden" style="font-size: 13px;">Y</text><text y="358" x="325.74257425742576" text-anchor="middle" visibility="hidden" style="font-size: 13px;">F</text><text y="358" x="328.05280528052805" text-anchor="middle" visibility="hidden" style="font-size: 13px;">Y</text><text y="358" x="330.36303630363034" text-anchor="middle" visibility="hidden" style="font-size: 13px;">N</text><text y="358" x="332.6732673267327" text-anchor="middle" visibility="hidden" style="font-size: 13px;">N</text><text y="358" x="334.983498349835" text-anchor="middle" visibility="hidden" style="font-size: 13px;">Q</text><text y="358" x="337.2937293729373" text-anchor="middle" visibility="hidden" style="font-size: 13px;">T</text><text y="358" x="339.6039603960396" text-anchor="middle" visibility="hidden" style="font-size: 13px;">K</text><text y="358" x="341.91419141914196" text-anchor="middle" visibility="hidden" style="font-size: 13px;">Q</text><text y="358" x="344.22442244224425" text-anchor="middle" visibility="hidden" style="font-size: 13px;">C</text><text y="358" x="346.53465346534654" text-anchor="middle" visibility="hidden" style="font-size: 13px;">E</text><text y="358" x="348.8448844884488" text-anchor="middle" visibility="hidden" style="font-size: 13px;">R</text><text y="358" x="351.1551155115511" text-anchor="middle" visibility="hidden" style="font-size: 13px;">F</text><text y="358" x="353.46534653465346" text-anchor="middle" visibility="hidden" style="font-size: 13px;">K</text><text y="358" x="355.7755775577558" text-anchor="middle" visibility="hidden" style="font-size: 13px;">Y</text><text y="358" x="358.08580858085804" text-anchor="middle" visibility="hidden" style="font-size: 13px;">G</text><text y="358" x="360.3960396039604" text-anchor="middle" visibility="hidden" style="font-size: 13px;">G</text><text y="358" x="362.70627062706274" text-anchor="middle" visibility="hidden" style="font-size: 13px;">C</text><text y="358" x="365.016501650165" text-anchor="middle" visibility="hidden" style="font-size: 13px;">L</text><text y="358" x="367.3267326732673" text-anchor="middle" visibility="hidden" style="font-size: 13px;">G</text><text y="358" x="369.6369636963696" text-anchor="middle" visibility="hidden" style="font-size: 13px;">N</text><text y="358" x="371.94719471947195" text-anchor="middle" visibility="hidden" style="font-size: 13px;">M</text><text y="358" x="374.2574257425743" text-anchor="middle" visibility="hidden" style="font-size: 13px;">N</text><text y="358" x="376.56765676567653" text-anchor="middle" visibility="hidden" style="font-size: 13px;">N</text><text y="358" x="378.8778877887789" text-anchor="middle" visibility="hidden" style="font-size: 13px;">F</text><text y="358" x="381.1881188118812" text-anchor="middle" visibility="hidden" style="font-size: 13px;">E</text><text y="358" x="383.49834983498346" text-anchor="middle" visibility="hidden" style="font-size: 13px;">T</text><text y="358" x="385.8085808580858" text-anchor="middle" visibility="hidden" style="font-size: 13px;">L</text><text y="358" x="388.11881188118815" text-anchor="middle" visibility="hidden" style="font-size: 13px;">E</text><text y="358" x="390.42904290429044" text-anchor="middle" visibility="hidden" style="font-size: 13px;">E</text><text y="358" x="392.73927392739273" text-anchor="middle" visibility="hidden" style="font-size: 13px;">C</text><text y="358" x="395.049504950495" text-anchor="middle" visibility="hidden" style="font-size: 13px;">K</text><text y="358" x="397.35973597359737" text-anchor="middle" visibility="hidden" style="font-size: 13px;">N</text><text y="358" x="399.6699669966997" text-anchor="middle" visibility="hidden" style="font-size: 13px;">I</text><text y="358" x="401.98019801980195" text-anchor="middle" visibility="hidden" style="font-size: 13px;">C</text><text y="358" x="404.2904290429043" text-anchor="middle" visibility="hidden" style="font-size: 13px;">E</text><text y="358" x="406.60066006600664" text-anchor="middle" visibility="hidden" style="font-size: 13px;">D</text><text y="358" x="408.9108910891089" text-anchor="middle" visibility="hidden" style="font-size: 13px;">G</text><text y="358" x="411.2211221122112" text-anchor="middle" visibility="hidden" style="font-size: 13px;">P</text><text y="358" x="413.53135313531357" text-anchor="middle" visibility="hidden" style="font-size: 13px;">N</text><text y="358" x="415.8415841584158" text-anchor="middle" visibility="hidden" style="font-size: 13px;">G</text><text y="358" x="418.15181518151815" text-anchor="middle" visibility="hidden" style="font-size: 13px;">F</text><text y="358" x="420.4620462046205" text-anchor="middle" visibility="hidden" style="font-size: 13px;">Q</text><text y="358" x="422.7722772277228" text-anchor="middle" visibility="hidden" style="font-size: 13px;">V</text><text y="358" x="425.0825082508251" text-anchor="middle" visibility="hidden" style="font-size: 13px;">D</text><text y="358" x="427.39273927392736" text-anchor="middle" visibility="hidden" style="font-size: 13px;">N</text><text y="358" x="429.7029702970297" text-anchor="middle" visibility="hidden" style="font-size: 13px;">Y</text><text y="358" x="432.01320132013205" text-anchor="middle" visibility="hidden" style="font-size: 13px;">G</text><text y="358" x="434.3234323432343" text-anchor="middle" visibility="hidden" style="font-size: 13px;">T</text><text y="358" x="436.63366336633663" text-anchor="middle" visibility="hidden" style="font-size: 13px;">Q</text><text y="358" x="438.943894389439" text-anchor="middle" visibility="hidden" style="font-size: 13px;">L</text><text y="358" x="441.2541254125412" text-anchor="middle" visibility="hidden" style="font-size: 13px;">N</text><text y="358" x="443.56435643564356" text-anchor="middle" visibility="hidden" style="font-size: 13px;">A</text><text y="358" x="445.8745874587459" text-anchor="middle" visibility="hidden" style="font-size: 13px;">V</text><text y="358" x="448.1848184818482" text-anchor="middle" visibility="hidden" style="font-size: 13px;">N</text><text y="358" x="450.4950495049505" text-anchor="middle" visibility="hidden" style="font-size: 13px;">N</text><text y="358" x="452.8052805280528" text-anchor="middle" visibility="hidden" style="font-size: 13px;">S</text><text y="358" x="455.1155115511551" text-anchor="middle" visibility="hidden" style="font-size: 13px;">L</text><text y="358" x="457.42574257425747" text-anchor="middle" visibility="hidden" style="font-size: 13px;">T</text><text y="358" x="459.7359735973597" text-anchor="middle" visibility="hidden" style="font-size: 13px;">P</text><text y="358" x="462.04620462046205" text-anchor="middle" visibility="hidden" style="font-size: 13px;">Q</text><text y="358" x="464.3564356435644" text-anchor="middle" visibility="hidden" style="font-size: 13px;">S</text><text y="358" x="466.66666666666663" text-anchor="middle" visibility="hidden" style="font-size: 13px;">T</text><text y="358" x="468.976897689769" text-anchor="middle" visibility="hidden" style="font-size: 13px;">K</text><text y="358" x="471.2871287128713" text-anchor="middle" visibility="hidden" style="font-size: 13px;">V</text><text y="358" x="473.59735973597355" text-anchor="middle" visibility="hidden" style="font-size: 13px;">P</text><text y="358" x="475.9075907590759" text-anchor="middle" visibility="hidden" style="font-size: 13px;">S</text><text y="358" x="478.21782178217825" text-anchor="middle" visibility="hidden" style="font-size: 13px;">L</text><text y="358" x="480.52805280528054" text-anchor="middle" visibility="hidden" style="font-size: 13px;">F</text><text y="358" x="482.8382838283828" text-anchor="middle" visibility="hidden" style="font-size: 13px;">E</text><text y="358" x="485.1485148514851" text-anchor="middle" visibility="hidden" style="font-size: 13px;">F</text><text y="358" x="487.45874587458746" text-anchor="middle" visibility="hidden" style="font-size: 13px;">H</text><text y="358" x="489.7689768976898" text-anchor="middle" visibility="hidden" style="font-size: 13px;">G</text><text y="358" x="492.07920792079204" text-anchor="middle" visibility="hidden" style="font-size: 13px;">P</text><text y="358" x="494.3894389438944" text-anchor="middle" visibility="hidden" style="font-size: 13px;">S</text><text y="358" x="496.69966996699674" text-anchor="middle" visibility="hidden" style="font-size: 13px;">W</text><text y="358" x="499.00990099009897" text-anchor="middle" visibility="hidden" style="font-size: 13px;">C</text><text y="358" x="501.3201320132013" text-anchor="middle" visibility="hidden" style="font-size: 13px;">L</text><text y="358" x="503.63036303630366" text-anchor="middle" visibility="hidden" style="font-size: 13px;">T</text><text y="358" x="505.9405940594059" text-anchor="middle" visibility="hidden" style="font-size: 13px;">P</text><text y="358" x="508.25082508250824" text-anchor="middle" visibility="hidden" style="font-size: 13px;">A</text><text y="358" x="510.56105610561053" text-anchor="middle" visibility="hidden" style="font-size: 13px;">D</text><text y="358" x="512.8712871287129" text-anchor="middle" visibility="hidden" style="font-size: 13px;">R</text><text y="358" x="515.1815181518152" text-anchor="middle" visibility="hidden" style="font-size: 13px;">G</text><text y="358" x="517.4917491749175" text-anchor="middle" visibility="hidden" style="font-size: 13px;">L</text><text y="358" x="519.8019801980198" text-anchor="middle" visibility="hidden" style="font-size: 13px;">C</text><text y="358" x="522.1122112211222" text-anchor="middle" visibility="hidden" style="font-size: 13px;">R</text><text y="358" x="524.4224422442244" text-anchor="middle" visibility="hidden" style="font-size: 13px;">A</text><text y="358" x="526.7326732673267" text-anchor="middle" visibility="hidden" style="font-size: 13px;">N</text><text y="358" x="529.0429042904291" text-anchor="middle" visibility="hidden" style="font-size: 13px;">E</text><text y="358" x="531.3531353135313" text-anchor="middle" visibility="hidden" style="font-size: 13px;">N</text><text y="358" x="533.6633663366337" text-anchor="middle" visibility="hidden" style="font-size: 13px;">R</text><text y="358" x="535.973597359736" text-anchor="middle" visibility="hidden" style="font-size: 13px;">F</text><text y="358" x="538.2838283828382" text-anchor="middle" visibility="hidden" style="font-size: 13px;">Y</text><text y="358" x="540.5940594059406" text-anchor="middle" visibility="hidden" style="font-size: 13px;">Y</text><text y="358" x="542.9042904290428" text-anchor="middle" visibility="hidden" style="font-size: 13px;">N</text><text y="358" x="545.2145214521452" text-anchor="middle" visibility="hidden" style="font-size: 13px;">S</text><text y="358" x="547.5247524752475" text-anchor="middle" visibility="hidden" style="font-size: 13px;">V</text><text y="358" x="549.8349834983499" text-anchor="middle" visibility="hidden" style="font-size: 13px;">I</text><text y="358" x="552.1452145214521" text-anchor="middle" visibility="hidden" style="font-size: 13px;">G</text><text y="358" x="554.4554455445544" text-anchor="middle" visibility="hidden" style="font-size: 13px;">K</text><text y="358" x="556.7656765676568" text-anchor="middle" visibility="hidden" style="font-size: 13px;">C</text><text y="358" x="559.0759075907591" text-anchor="middle" visibility="hidden" style="font-size: 13px;">R</text><text y="358" x="561.3861386138614" text-anchor="middle" visibility="hidden" style="font-size: 13px;">P</text><text y="358" x="563.6963696369637" text-anchor="middle" visibility="hidden" style="font-size: 13px;">F</text><text y="358" x="566.006600660066" text-anchor="middle" visibility="hidden" style="font-size: 13px;">K</text><text y="358" x="568.3168316831684" text-anchor="middle" visibility="hidden" style="font-size: 13px;">Y</text><text y="358" x="570.6270627062706" text-anchor="middle" visibility="hidden" style="font-size: 13px;">S</text><text y="358" x="572.937293729373" text-anchor="middle" visibility="hidden" style="font-size: 13px;">G</text><text y="358" x="575.2475247524752" text-anchor="middle" visibility="hidden" style="font-size: 13px;">C</text><text y="358" x="577.5577557755776" text-anchor="middle" visibility="hidden" style="font-size: 13px;">G</text><text y="358" x="579.8679867986799" text-anchor="middle" visibility="hidden" style="font-size: 13px;">G</text><text y="358" x="582.1782178217821" text-anchor="middle" visibility="hidden" style="font-size: 13px;">N</text><text y="358" x="584.4884488448845" text-anchor="middle" visibility="hidden" style="font-size: 13px;">E</text><text y="358" x="586.7986798679868" text-anchor="middle" visibility="hidden" style="font-size: 13px;">N</text><text y="358" x="589.1089108910891" text-anchor="middle" visibility="hidden" style="font-size: 13px;">N</text><text y="358" x="591.4191419141914" text-anchor="middle" visibility="hidden" style="font-size: 13px;">F</text><text y="358" x="593.7293729372938" text-anchor="middle" visibility="hidden" style="font-size: 13px;">T</text><text y="358" x="596.039603960396" text-anchor="middle" visibility="hidden" style="font-size: 13px;">S</text><text y="358" x="598.3498349834983" text-anchor="middle" visibility="hidden" style="font-size: 13px;">K</text><text y="358" x="600.6600660066006" text-anchor="middle" visibility="hidden" style="font-size: 13px;">Q</text><text y="358" x="602.9702970297029" text-anchor="middle" visibility="hidden" style="font-size: 13px;">E</text><text y="358" x="605.2805280528053" text-anchor="middle" visibility="hidden" style="font-size: 13px;">C</text><text y="358" x="607.5907590759076" text-anchor="middle" visibility="hidden" style="font-size: 13px;">L</text><text y="358" x="609.9009900990098" text-anchor="middle" visibility="hidden" style="font-size: 13px;">R</text><text y="358" x="612.2112211221122" text-anchor="middle" visibility="hidden" style="font-size: 13px;">A</text><text y="358" x="614.5214521452145" text-anchor="middle" visibility="hidden" style="font-size: 13px;">C</text><text y="358" x="616.8316831683169" text-anchor="middle" visibility="hidden" style="font-size: 13px;">K</text><text y="358" x="619.1419141914191" text-anchor="middle" visibility="hidden" style="font-size: 13px;">K</text><text y="358" x="621.4521452145215" text-anchor="middle" visibility="hidden" style="font-size: 13px;">G</text><text y="358" x="623.7623762376238" text-anchor="middle" visibility="hidden" style="font-size: 13px;">F</text><text y="358" x="626.0726072607262" text-anchor="middle" visibility="hidden" style="font-size: 13px;">I</text><text y="358" x="628.3828382838284" text-anchor="middle" visibility="hidden" style="font-size: 13px;">Q</text><text y="358" x="630.6930693069307" text-anchor="middle" visibility="hidden" style="font-size: 13px;">R</text><text y="358" x="633.003300330033" text-anchor="middle" visibility="hidden" style="font-size: 13px;">I</text><text y="358" x="635.3135313531353" text-anchor="middle" visibility="hidden" style="font-size: 13px;">S</text><text y="358" x="637.6237623762377" text-anchor="middle" visibility="hidden" style="font-size: 13px;">K</text><text y="358" x="639.9339933993399" text-anchor="middle" visibility="hidden" style="font-size: 13px;">G</text><text y="358" x="642.2442244224422" text-anchor="middle" visibility="hidden" style="font-size: 13px;">G</text><text y="358" x="644.5544554455446" text-anchor="middle" visibility="hidden" style="font-size: 13px;">L</text><text y="358" x="646.8646864686468" text-anchor="middle" visibility="hidden" style="font-size: 13px;">I</text><text y="358" x="649.1749174917492" text-anchor="middle" visibility="hidden" style="font-size: 13px;">K</text><text y="358" x="651.4851485148515" text-anchor="middle" visibility="hidden" style="font-size: 13px;">T</text><text y="358" x="653.7953795379537" text-anchor="middle" visibility="hidden" style="font-size: 13px;">K</text><text y="358" x="656.1056105610561" text-anchor="middle" visibility="hidden" style="font-size: 13px;">R</text><text y="358" x="658.4158415841583" text-anchor="middle" visibility="hidden" style="font-size: 13px;">K</text><text y="358" x="660.7260726072607" text-anchor="middle" visibility="hidden" style="font-size: 13px;">R</text><text y="358" x="663.036303630363" text-anchor="middle" visibility="hidden" style="font-size: 13px;">K</text><text y="358" x="665.3465346534654" text-anchor="middle" visibility="hidden" style="font-size: 13px;">K</text><text y="358" x="667.6567656765676" text-anchor="middle" visibility="hidden" style="font-size: 13px;">Q</text><text y="358" x="669.96699669967" text-anchor="middle" visibility="hidden" style="font-size: 13px;">R</text><text y="358" x="672.2772277227723" text-anchor="middle" visibility="hidden" style="font-size: 13px;">V</text><text y="358" x="674.5874587458746" text-anchor="middle" visibility="hidden" style="font-size: 13px;">K</text><text y="358" x="676.8976897689769" text-anchor="middle" visibility="hidden" style="font-size: 13px;">I</text><text y="358" x="679.2079207920792" text-anchor="middle" visibility="hidden" style="font-size: 13px;">A</text><text y="358" x="681.5181518151816" text-anchor="middle" visibility="hidden" style="font-size: 13px;">Y</text><text y="358" x="683.8283828382839" text-anchor="middle" visibility="hidden" style="font-size: 13px;">E</text><text y="358" x="686.1386138613861" text-anchor="middle" visibility="hidden" style="font-size: 13px;">E</text><text y="358" x="688.4488448844885" text-anchor="middle" visibility="hidden" style="font-size: 13px;">I</text><text y="358" x="690.7590759075907" text-anchor="middle" visibility="hidden" style="font-size: 13px;">F</text><text y="358" x="693.0693069306931" text-anchor="middle" visibility="hidden" style="font-size: 13px;">V</text><text y="358" x="695.3795379537954" text-anchor="middle" visibility="hidden" style="font-size: 13px;">K</text><text y="358" x="697.6897689768977" text-anchor="middle" visibility="hidden" style="font-size: 13px;">N</text><text y="358" x="700" text-anchor="middle" visibility="hidden" style="font-size: 13px;">M</text></g></g></svg><g class="xAxis" transform="translate(0,360)" fill="none" font-size="10" font-family="sans-serif" text-anchor="middle"><path class="domain" stroke="#000" d="M0.5,6V0.5H700.5V6"></path><g class="tick" opacity="1" transform="translate(44.39438943894389,0)"><line stroke="#000" y2="6"></line><text fill="#000" y="9" dy="0.71em">20</text></g><g class="tick" opacity="1" transform="translate(90.5990099009901,0)"><line stroke="#000" y2="6"></line><text fill="#000" y="9" dy="0.71em">40</text></g><g class="tick" opacity="1" transform="translate(136.8036303630363,0)"><line stroke="#000" y2="6"></line><text fill="#000" y="9" dy="0.71em">60</text></g><g class="tick" opacity="1" transform="translate(183.0082508250825,0)"><line stroke="#000" y2="6"></line><text fill="#000" y="9" dy="0.71em">80</text></g><g class="tick" opacity="1" transform="translate(229.21287128712873,0)"><line stroke="#000" y2="6"></line><text fill="#000" y="9" dy="0.71em">100</text></g><g class="tick" opacity="1" transform="translate(275.4174917491749,0)"><line stroke="#000" y2="6"></line><text fill="#000" y="9" dy="0.71em">120</text></g><g class="tick" opacity="1" transform="translate(321.6221122112211,0)"><line stroke="#000" y2="6"></line><text fill="#000" y="9" dy="0.71em">140</text></g><g class="tick" opacity="1" transform="translate(367.8267326732673,0)"><line stroke="#000" y2="6"></line><text fill="#000" y="9" dy="0.71em">160</text></g><g class="tick" opacity="1" transform="translate(414.03135313531357,0)"><line stroke="#000" y2="6"></line><text fill="#000" y="9" dy="0.71em">180</text></g><g class="tick" opacity="1" transform="translate(460.2359735973597,0)"><line stroke="#000" y2="6"></line><text fill="#000" y="9" dy="0.71em">200</text></g><g class="tick" opacity="1" transform="translate(506.4405940594059,0)"><line stroke="#000" y2="6"></line><text fill="#000" y="9" dy="0.71em">220</text></g><g class="tick" opacity="1" transform="translate(552.6452145214521,0)"><line stroke="#000" y2="6"></line><text fill="#000" y="9" dy="0.71em">240</text></g><g class="tick" opacity="1" transform="translate(598.8498349834983,0)"><line stroke="#000" y2="6"></line><text fill="#000" y="9" dy="0.71em">260</text></g><g class="tick" opacity="1" transform="translate(645.0544554455446,0)"><line stroke="#000" y2="6"></line><text fill="#000" y="9" dy="0.71em">280</text></g><g class="tick" opacity="1" transform="translate(691.2590759075907,0)"><line stroke="#000" y2="6"></line><text fill="#000" y="9" dy="0.71em">300</text></g></g><text class="x label" text-anchor="end" x="700" y="390" style="font-size: 13px; font-family: Arial;">Residue number</text><g class="yAxis" fill="none" font-size="10" font-family="sans-serif" text-anchor="end"><path class="domain" stroke="#000" d="M-6,360.5H0.5V0.5H-6"></path><g class="tick" opacity="1" transform="translate(0,357.52479338842977)"><line stroke="#000" x2="-6"></line><text fill="#000" x="-9" dy="0.32em"></text></g><g class="tick" opacity="1" transform="translate(0,327.77272727272725)"><line stroke="#000" x2="-6"></line><text fill="#000" x="-9" dy="0.32em">0</text></g><g class="tick" opacity="1" transform="translate(0,298.0206611570248)"><line stroke="#000" x2="-6"></line><text fill="#000" x="-9" dy="0.32em">0.1</text></g><g class="tick" opacity="1" transform="translate(0,268.2685950413223)"><line stroke="#000" x2="-6"></line><text fill="#000" x="-9" dy="0.32em">0.2</text></g><g class="tick" opacity="1" transform="translate(0,238.51652892561984)"><line stroke="#000" x2="-6"></line><text fill="#000" x="-9" dy="0.32em">0.3</text></g><g class="tick" opacity="1" transform="translate(0,208.76446280991738)"><line stroke="#000" x2="-6"></line><text fill="#000" x="-9" dy="0.32em">0.4</text></g><g class="tick" opacity="1" transform="translate(0,179.0123966942149)"><line stroke="#000" x2="-6"></line><text fill="#000" x="-9" dy="0.32em">0.5</text></g><g class="tick" opacity="1" transform="translate(0,149.26033057851242)"><line stroke="#000" x2="-6"></line><text fill="#000" x="-9" dy="0.32em">0.6</text></g><g class="tick" opacity="1" transform="translate(0,119.50826446280996)"><line stroke="#000" x2="-6"></line><text fill="#000" x="-9" dy="0.32em">0.7</text></g><g class="tick" opacity="1" transform="translate(0,89.75619834710744)"><line stroke="#000" x2="-6"></line><text fill="#000" x="-9" dy="0.32em">0.8</text></g><g class="tick" opacity="1" transform="translate(0,60.00413223140498)"><line stroke="#000" x2="-6"></line><text fill="#000" x="-9" dy="0.32em">0.9</text></g><g class="tick" opacity="1" transform="translate(0,30.25206611570252)"><line stroke="#000" x2="-6"></line><text fill="#000" x="-9" dy="0.32em">1</text></g><g class="tick" opacity="1" transform="translate(0,0.5)"><line stroke="#000" x2="-6"></line><text fill="#000" x="-9" dy="0.32em">1.1</text></g></g><text class="y label" text-anchor="middle" y="-50" x="-180" dy="0.8em" transform="rotate(-90)" style="font-size: 13px; font-family: Arial;">Total number of references</text><g class="axisRed" fill="none" font-size="10" font-family="sans-serif" text-anchor="start" visibility="hidden" transform="translate(700, 0)"><path class="domain" stroke="#000" d="M6,360.5H0.5V0.5H6"></path><g class="tick" opacity="1" transform="translate(0,360.5)"><line stroke="#000" x2="6"></line><text fill="#000" x="9" dy="0.32em">0</text></g><text text-anchor="start" dx="5.2em" dy="-2.6em" transform="rotate(90)" visibility="hidden" style="font-size: 12px; font-family: Arial; fill: #d7301f;">No recurrent (&gt;2) missense mutations!</text></g><g class="axisPurple" fill="none" font-size="10" font-family="sans-serif" text-anchor="start" visibility="hidden"><path class="domain" stroke="#000" d="M6,360.5H0.5V0.5H6"></path><g class="tick" opacity="1" transform="translate(0,357.52479338842977)"><line stroke="#000" x2="6"></line><text fill="#000" x="9" dy="0.32em"></text></g><g class="tick" opacity="1" transform="translate(0,327.77272727272725)"><line stroke="#000" x2="6"></line><text fill="#000" x="9" dy="0.32em">0</text></g><g class="tick" opacity="1" transform="translate(0,298.0206611570248)"><line stroke="#000" x2="6"></line><text fill="#000" x="9" dy="0.32em">0.1</text></g><g class="tick" opacity="1" transform="translate(0,268.2685950413223)"><line stroke="#000" x2="6"></line><text fill="#000" x="9" dy="0.32em">0.2</text></g><g class="tick" opacity="1" transform="translate(0,238.51652892561984)"><line stroke="#000" x2="6"></line><text fill="#000" x="9" dy="0.32em">0.3</text></g><g class="tick" opacity="1" transform="translate(0,208.76446280991738)"><line stroke="#000" x2="6"></line><text fill="#000" x="9" dy="0.32em">0.4</text></g><g class="tick" opacity="1" transform="translate(0,179.0123966942149)"><line stroke="#000" x2="6"></line><text fill="#000" x="9" dy="0.32em">0.5</text></g><g class="tick" opacity="1" transform="translate(0,149.26033057851242)"><line stroke="#000" x2="6"></line><text fill="#000" x="9" dy="0.32em">0.6</text></g><g class="tick" opacity="1" transform="translate(0,119.50826446280996)"><line stroke="#000" x2="6"></line><text fill="#000" x="9" dy="0.32em">0.7</text></g><g class="tick" opacity="1" transform="translate(0,89.75619834710744)"><line stroke="#000" x2="6"></line><text fill="#000" x="9" dy="0.32em">0.8</text></g><g class="tick" opacity="1" transform="translate(0,60.00413223140498)"><line stroke="#000" x2="6"></line><text fill="#000" x="9" dy="0.32em">0.9</text></g><g class="tick" opacity="1" transform="translate(0,30.25206611570252)"><line stroke="#000" x2="6"></line><text fill="#000" x="9" dy="0.32em">1</text></g><g class="tick" opacity="1" transform="translate(0,0.5)"><line stroke="#000" x2="6"></line><text fill="#000" x="9" dy="0.32em">1.1</text></g><text text-anchor="start" x="10" y="10" visibility="hidden" style="font-size: 12px; font-family: Arial; fill: #807dba;">No disease causing germline SNPs known!</text></g><circle cx="636" cy="15" r="10" class="compassNav" style="fill: #ffffff; stroke: #666666; stroke-width: 1px;"></circle><path d="M440.935 12.574l3.966 82.766C399.416 41.904 331.674 8 256 8 134.813 8 33.933 94.924 12.296 209.824 10.908 217.193 16.604 224 24.103 224h49.084c5.57 0 10.377-3.842 11.676-9.259C103.407 137.408 172.931 80 256 80c60.893 0 114.512 30.856 146.104 77.801l-101.53-4.865c-6.845-.328-12.574 5.133-12.574 11.986v47.411c0 6.627 5.373 12 12 12h200.333c6.627 0 12-5.373 12-12V12c0-6.627-5.373-12-12-12h-47.411c-6.853 0-12.315 5.729-11.987 12.574zM256 432c-60.895 0-114.517-30.858-146.109-77.805l101.868 4.871c6.845.327 12.573-5.134 12.573-11.986v-47.412c0-6.627-5.373-12-12-12H12c-6.627 0-12 5.373-12 12V500c0 6.627 5.373 12 12 12h47.385c6.863 0 12.328-5.745 11.985-12.599l-4.129-82.575C112.725 470.166 180.405 504 256 504c121.187 0 222.067-86.924 243.704-201.824 1.388-7.369-4.308-14.176-11.807-14.176h-49.084c-5.57 0-10.377 3.842-11.676 9.259C408.593 374.592 339.069 432 256 432z" class="compassNav" transform="translate(631, 10) scale(0.02)" style="fill: #666666; stroke: #666666; stroke-width: 1px;"></path><circle cx="658" cy="15" r="10" class="compassNav" style="fill: #ffffff; stroke: #666666; stroke-width: 1px;"></circle><line class="compassNav" stroke-width="2" stroke="#666666" x1="654" y1="15" x2="662" y2="15"></line><line class="compassNav" stroke-width="2" stroke="#666666" x1="658" y1="11" x2="658" y2="19"></line><circle cx="614" cy="15" r="10" class="compassNav" style="fill: #ffffff; stroke: #666666; stroke-width: 1px;"></circle><line class="compassNav" stroke-width="2" stroke="#666666" x1="610" y1="15" x2="618" y2="15"></line><path d="M582 14 l20 -12 a100,40 0 0,0 0,24z" class="compassNav" style="fill: #ffffff; stroke: #666666; stroke-width: 1px;"></path><path d="M690 14 l-20 -12 a100,40 0 0,1 0,24z" class="compassNav" style="fill: #ffffff; stroke: #666666; stroke-width: 1px;"></path><path d="M216 0h80c13.3 0 24 10.7 24 24v168h87.7c17.8 0 26.7 21.5 14.1 34.1L269.7 378.3c-7.5 7.5-19.8 7.5-27.3 0L90.1 226.1c-12.6-12.6-3.7-34.1 14.1-34.1H192V24c0-13.3 10.7-24 24-24zm296 376v112c0 13.3-10.7 24-24 24H24c-13.3 0-24-10.7-24-24V376c0-13.3 10.7-24 24-24h146.7l49 49c20.1 20.1 52.5 20.1 72.6 0l49-49H488c13.3 0 24 10.7 24 24zm-124 88c0-11-9-20-20-20s-20 9-20 20 9 20 20 20 20-9 20-20zm64 0c0-11-9-20-20-20s-20 9-20 20 9 20 20 20 20-9 20-20z" class="compassNav" transform="translate(552,0) scale(0.05)" style="fill: #336699; stroke: #336699; stroke-width: 1px; cursor: pointer;"></path></g></svg>