<svg width="800" height="400" style="background-color: white;"><g transform="translate(50,0)"><svg width="700" height="360"><g style="-webkit-tap-highlight-color: rgba(0, 0, 0, 0);"><rect width="700" height="360" style="fill: #ffffff;"></rect><g id="lines"><line class="line" stroke-width="1" stroke="#d7301f" x1="-251.60142348754448" y1="333" x2="-251.60142348754448" y2="360" visibility="hidden" style="stroke-dasharray: 3px, 3px;"></line></g><g><rect x="-256.6014234875445" y="355" width="10" height="10" visibility="hidden" style="fill: #ffffff; stroke: #d7301f;"></rect></g><g id="lines"><line class="line" stroke-width="1" stroke="#6a51a3" x1="-251.60142348754448" y1="333" x2="-251.60142348754448" y2="327.27272727272725" visibility="hidden" style="stroke-dasharray: 3px, 3px;"></line></g><g><rect x="-256.6014234875445" y="322.27272727272725" width="10" height="10" visibility="hidden" style="fill: #ffffff; stroke: #6a51a3;"></rect></g><g id="lines"><line class="line" stroke-width="1" stroke="#666666" x1="2.491103202846975" y1="333" x2="2.491103202846975" y2="228.099173553719"></line><line class="line" stroke-width="1" stroke="#666666" x1="7.473309608540926" y1="333" x2="7.473309608540926" y2="228.099173553719"></line><line class="line" stroke-width="1" stroke="#666666" x1="14.946619217081851" y1="333" x2="14.946619217081851" y2="29.752066115702462"></line><line class="line" stroke-width="1" stroke="#666666" x1="615.3024911032028" y1="333" x2="615.3024911032028" y2="228.099173553719"></line><line class="line" stroke-width="1" stroke="#666666" x1="632.7402135231316" y1="333" x2="632.7402135231316" y2="228.099173553719"></line><line class="line" stroke-width="1" stroke="#666666" x1="635.2313167259787" y1="333" x2="635.2313167259787" y2="228.099173553719"></line></g><g id="circles"><circle r="4" cx="2.491103202846975" cy="228.099173553719" style="fill: #4393c3; stroke: #666666; stroke-width: 1px;"></circle><circle r="4" cx="7.473309608540926" cy="228.099173553719" style="fill: #4393c3; stroke: #666666; stroke-width: 1px;"></circle><circle r="4" cx="14.946619217081851" cy="29.752066115702462" style="fill: #4393c3; stroke: #666666; stroke-width: 1px;"></circle><circle r="4" cx="615.3024911032028" cy="228.099173553719" style="fill: #4393c3; stroke: #666666; stroke-width: 1px;"></circle><circle r="4" cx="632.7402135231316" cy="228.099173553719" style="fill: #4393c3; stroke: #666666; stroke-width: 1px;"></circle><circle r="4" cx="635.2313167259787" cy="228.099173553719" style="fill: #4393c3; stroke: #666666; stroke-width: 1px;"></circle></g><g><rect x="0" y="333" width="700" height="12" style="fill: #ffffff; stroke-width: 1px; stroke: #666666;"></rect><rect x="32.38434163701067" y="333" width="660.1423487544483" height="12" style="fill: #aec7e8; stroke-width: 1px; stroke: #666666;"></rect></g><g><a target="_blank" xlink:href="http://pfam.xfam.org/family/"><text y="343" x="350" text-anchor="middle" style="color: rgb(102, 102, 102); font-weight: normal; font-size: 12px; font-family: Arial; cursor: pointer;"></text></a><a target="_blank" xlink:href="http://pfam.xfam.org/family/NNMT_PNMT_TEMT"><text y="343" x="362.4555160142349" text-anchor="middle" style="color: rgb(102, 102, 102); font-weight: normal; font-size: 12px; font-family: Arial; cursor: pointer;">NNMT_PNMT_TEMT</text></a></g><g><text y="358" x="0" text-anchor="middle" visibility="hidden" style="font-size: 13px;">M</text><text y="358" x="2.491103202846975" text-anchor="middle" visibility="hidden" style="font-size: 13px;">S</text><text y="358" x="4.98220640569395" text-anchor="middle" visibility="hidden" style="font-size: 13px;">G</text><text y="358" x="7.473309608540926" text-anchor="middle" visibility="hidden" style="font-size: 13px;">A</text><text y="358" x="9.9644128113879" text-anchor="middle" visibility="hidden" style="font-size: 13px;">D</text><text y="358" x="12.455516014234876" text-anchor="middle" visibility="hidden" style="font-size: 13px;">R</text><text y="358" x="14.946619217081851" text-anchor="middle" visibility="hidden" style="font-size: 13px;">S</text><text y="358" x="17.437722419928825" text-anchor="middle" visibility="hidden" style="font-size: 13px;">P</text><text y="358" x="19.9288256227758" text-anchor="middle" visibility="hidden" style="font-size: 13px;">N</text><text y="358" x="22.419928825622776" text-anchor="middle" visibility="hidden" style="font-size: 13px;">A</text><text y="358" x="24.91103202846975" text-anchor="middle" visibility="hidden" style="font-size: 13px;">G</text><text y="358" x="27.402135231316723" text-anchor="middle" visibility="hidden" style="font-size: 13px;">A</text><text y="358" x="29.893238434163703" text-anchor="middle" visibility="hidden" style="font-size: 13px;">A</text><text y="358" x="32.38434163701067" text-anchor="middle" visibility="hidden" style="font-size: 13px;">P</text><text y="358" x="34.87544483985765" text-anchor="middle" visibility="hidden" style="font-size: 13px;">D</text><text y="358" x="37.36654804270463" text-anchor="middle" visibility="hidden" style="font-size: 13px;">S</text><text y="358" x="39.8576512455516" text-anchor="middle" visibility="hidden" style="font-size: 13px;">A</text><text y="358" x="42.34875444839857" text-anchor="middle" visibility="hidden" style="font-size: 13px;">P</text><text y="358" x="44.83985765124555" text-anchor="middle" visibility="hidden" style="font-size: 13px;">G</text><text y="358" x="47.33096085409253" text-anchor="middle" visibility="hidden" style="font-size: 13px;">Q</text><text y="358" x="49.8220640569395" text-anchor="middle" visibility="hidden" style="font-size: 13px;">A</text><text y="358" x="52.313167259786475" text-anchor="middle" visibility="hidden" style="font-size: 13px;">A</text><text y="358" x="54.80427046263345" text-anchor="middle" visibility="hidden" style="font-size: 13px;">V</text><text y="358" x="57.295373665480426" text-anchor="middle" visibility="hidden" style="font-size: 13px;">A</text><text y="358" x="59.786476868327405" text-anchor="middle" visibility="hidden" style="font-size: 13px;">S</text><text y="358" x="62.277580071174384" text-anchor="middle" visibility="hidden" style="font-size: 13px;">A</text><text y="358" x="64.76868327402134" text-anchor="middle" visibility="hidden" style="font-size: 13px;">Y</text><text y="358" x="67.25978647686833" text-anchor="middle" visibility="hidden" style="font-size: 13px;">Q</text><text y="358" x="69.7508896797153" text-anchor="middle" visibility="hidden" style="font-size: 13px;">R</text><text y="358" x="72.24199288256227" text-anchor="middle" visibility="hidden" style="font-size: 13px;">F</text><text y="358" x="74.73309608540926" text-anchor="middle" visibility="hidden" style="font-size: 13px;">E</text><text y="358" x="77.22419928825623" text-anchor="middle" visibility="hidden" style="font-size: 13px;">P</text><text y="358" x="79.7153024911032" text-anchor="middle" visibility="hidden" style="font-size: 13px;">R</text><text y="358" x="82.20640569395017" text-anchor="middle" visibility="hidden" style="font-size: 13px;">A</text><text y="358" x="84.69750889679715" text-anchor="middle" visibility="hidden" style="font-size: 13px;">Y</text><text y="358" x="87.18861209964413" text-anchor="middle" visibility="hidden" style="font-size: 13px;">L</text><text y="358" x="89.6797153024911" text-anchor="middle" visibility="hidden" style="font-size: 13px;">R</text><text y="358" x="92.17081850533808" text-anchor="middle" visibility="hidden" style="font-size: 13px;">N</text><text y="358" x="94.66192170818506" text-anchor="middle" visibility="hidden" style="font-size: 13px;">N</text><text y="358" x="97.15302491103202" text-anchor="middle" visibility="hidden" style="font-size: 13px;">Y</text><text y="358" x="99.644128113879" text-anchor="middle" visibility="hidden" style="font-size: 13px;">A</text><text y="358" x="102.13523131672598" text-anchor="middle" visibility="hidden" style="font-size: 13px;">P</text><text y="358" x="104.62633451957295" text-anchor="middle" visibility="hidden" style="font-size: 13px;">P</text><text y="358" x="107.11743772241994" text-anchor="middle" visibility="hidden" style="font-size: 13px;">R</text><text y="358" x="109.6085409252669" text-anchor="middle" visibility="hidden" style="font-size: 13px;">G</text><text y="358" x="112.0996441281139" text-anchor="middle" visibility="hidden" style="font-size: 13px;">D</text><text y="358" x="114.59074733096085" text-anchor="middle" visibility="hidden" style="font-size: 13px;">L</text><text y="358" x="117.08185053380782" text-anchor="middle" visibility="hidden" style="font-size: 13px;">C</text><text y="358" x="119.57295373665481" text-anchor="middle" visibility="hidden" style="font-size: 13px;">N</text><text y="358" x="122.06405693950177" text-anchor="middle" visibility="hidden" style="font-size: 13px;">P</text><text y="358" x="124.55516014234877" text-anchor="middle" visibility="hidden" style="font-size: 13px;">N</text><text y="358" x="127.04626334519573" text-anchor="middle" visibility="hidden" style="font-size: 13px;">G</text><text y="358" x="129.53736654804268" text-anchor="middle" visibility="hidden" style="font-size: 13px;">V</text><text y="358" x="132.02846975088968" text-anchor="middle" visibility="hidden" style="font-size: 13px;">G</text><text y="358" x="134.51957295373666" text-anchor="middle" visibility="hidden" style="font-size: 13px;">P</text><text y="358" x="137.01067615658363" text-anchor="middle" visibility="hidden" style="font-size: 13px;">W</text><text y="358" x="139.5017793594306" text-anchor="middle" visibility="hidden" style="font-size: 13px;">K</text><text y="358" x="141.9928825622776" text-anchor="middle" visibility="hidden" style="font-size: 13px;">L</text><text y="358" x="144.48398576512454" text-anchor="middle" visibility="hidden" style="font-size: 13px;">R</text><text y="358" x="146.97508896797152" text-anchor="middle" visibility="hidden" style="font-size: 13px;">C</text><text y="358" x="149.46619217081852" text-anchor="middle" visibility="hidden" style="font-size: 13px;">L</text><text y="358" x="151.9572953736655" text-anchor="middle" visibility="hidden" style="font-size: 13px;">A</text><text y="358" x="154.44839857651246" text-anchor="middle" visibility="hidden" style="font-size: 13px;">Q</text><text y="358" x="156.93950177935943" text-anchor="middle" visibility="hidden" style="font-size: 13px;">T</text><text y="358" x="159.4306049822064" text-anchor="middle" visibility="hidden" style="font-size: 13px;">F</text><text y="358" x="161.92170818505338" text-anchor="middle" visibility="hidden" style="font-size: 13px;">A</text><text y="358" x="164.41281138790035" text-anchor="middle" visibility="hidden" style="font-size: 13px;">T</text><text y="358" x="166.90391459074735" text-anchor="middle" visibility="hidden" style="font-size: 13px;">G</text><text y="358" x="169.3950177935943" text-anchor="middle" visibility="hidden" style="font-size: 13px;">E</text><text y="358" x="171.88612099644126" text-anchor="middle" visibility="hidden" style="font-size: 13px;">V</text><text y="358" x="174.37722419928826" text-anchor="middle" visibility="hidden" style="font-size: 13px;">S</text><text y="358" x="176.86832740213524" text-anchor="middle" visibility="hidden" style="font-size: 13px;">G</text><text y="358" x="179.3594306049822" text-anchor="middle" visibility="hidden" style="font-size: 13px;">R</text><text y="358" x="181.85053380782918" text-anchor="middle" visibility="hidden" style="font-size: 13px;">T</text><text y="358" x="184.34163701067615" text-anchor="middle" visibility="hidden" style="font-size: 13px;">L</text><text y="358" x="186.83274021352312" text-anchor="middle" visibility="hidden" style="font-size: 13px;">I</text><text y="358" x="189.32384341637012" text-anchor="middle" visibility="hidden" style="font-size: 13px;">D</text><text y="358" x="191.8149466192171" text-anchor="middle" visibility="hidden" style="font-size: 13px;">I</text><text y="358" x="194.30604982206404" text-anchor="middle" visibility="hidden" style="font-size: 13px;">G</text><text y="358" x="196.797153024911" text-anchor="middle" visibility="hidden" style="font-size: 13px;">S</text><text y="358" x="199.288256227758" text-anchor="middle" visibility="hidden" style="font-size: 13px;">G</text><text y="358" x="201.77935943060498" text-anchor="middle" visibility="hidden" style="font-size: 13px;">P</text><text y="358" x="204.27046263345196" text-anchor="middle" visibility="hidden" style="font-size: 13px;">T</text><text y="358" x="206.76156583629893" text-anchor="middle" visibility="hidden" style="font-size: 13px;">V</text><text y="358" x="209.2526690391459" text-anchor="middle" visibility="hidden" style="font-size: 13px;">Y</text><text y="358" x="211.7437722419929" text-anchor="middle" visibility="hidden" style="font-size: 13px;">Q</text><text y="358" x="214.23487544483987" text-anchor="middle" visibility="hidden" style="font-size: 13px;">L</text><text y="358" x="216.72597864768684" text-anchor="middle" visibility="hidden" style="font-size: 13px;">L</text><text y="358" x="219.2170818505338" text-anchor="middle" visibility="hidden" style="font-size: 13px;">S</text><text y="358" x="221.70818505338076" text-anchor="middle" visibility="hidden" style="font-size: 13px;">A</text><text y="358" x="224.1992882562278" text-anchor="middle" visibility="hidden" style="font-size: 13px;">C</text><text y="358" x="226.69039145907473" text-anchor="middle" visibility="hidden" style="font-size: 13px;">S</text><text y="358" x="229.1814946619217" text-anchor="middle" visibility="hidden" style="font-size: 13px;">H</text><text y="358" x="231.67259786476868" text-anchor="middle" visibility="hidden" style="font-size: 13px;">F</text><text y="358" x="234.16370106761565" text-anchor="middle" visibility="hidden" style="font-size: 13px;">E</text><text y="358" x="236.65480427046265" text-anchor="middle" visibility="hidden" style="font-size: 13px;">D</text><text y="358" x="239.14590747330962" text-anchor="middle" visibility="hidden" style="font-size: 13px;">I</text><text y="358" x="241.6370106761566" text-anchor="middle" visibility="hidden" style="font-size: 13px;">T</text><text y="358" x="244.12811387900354" text-anchor="middle" visibility="hidden" style="font-size: 13px;">M</text><text y="358" x="246.6192170818505" text-anchor="middle" visibility="hidden" style="font-size: 13px;">T</text><text y="358" x="249.11032028469754" text-anchor="middle" visibility="hidden" style="font-size: 13px;">D</text><text y="358" x="251.60142348754448" text-anchor="middle" visibility="hidden" style="font-size: 13px;">F</text><text y="358" x="254.09252669039145" text-anchor="middle" visibility="hidden" style="font-size: 13px;">L</text><text y="358" x="256.5836298932384" text-anchor="middle" visibility="hidden" style="font-size: 13px;">E</text><text y="358" x="259.07473309608537" text-anchor="middle" visibility="hidden" style="font-size: 13px;">V</text><text y="358" x="261.5658362989324" text-anchor="middle" visibility="hidden" style="font-size: 13px;">N</text><text y="358" x="264.05693950177937" text-anchor="middle" visibility="hidden" style="font-size: 13px;">R</text><text y="358" x="266.5480427046263" text-anchor="middle" visibility="hidden" style="font-size: 13px;">Q</text><text y="358" x="269.0391459074733" text-anchor="middle" visibility="hidden" style="font-size: 13px;">E</text><text y="358" x="271.53024911032026" text-anchor="middle" visibility="hidden" style="font-size: 13px;">L</text><text y="358" x="274.02135231316726" text-anchor="middle" visibility="hidden" style="font-size: 13px;">G</text><text y="358" x="276.51245551601426" text-anchor="middle" visibility="hidden" style="font-size: 13px;">R</text><text y="358" x="279.0035587188612" text-anchor="middle" visibility="hidden" style="font-size: 13px;">W</text><text y="358" x="281.4946619217082" text-anchor="middle" visibility="hidden" style="font-size: 13px;">L</text><text y="358" x="283.9857651245552" text-anchor="middle" visibility="hidden" style="font-size: 13px;">Q</text><text y="358" x="286.47686832740214" text-anchor="middle" visibility="hidden" style="font-size: 13px;">E</text><text y="358" x="288.9679715302491" text-anchor="middle" visibility="hidden" style="font-size: 13px;">E</text><text y="358" x="291.4590747330961" text-anchor="middle" visibility="hidden" style="font-size: 13px;">P</text><text y="358" x="293.95017793594303" text-anchor="middle" visibility="hidden" style="font-size: 13px;">G</text><text y="358" x="296.44128113879003" text-anchor="middle" visibility="hidden" style="font-size: 13px;">A</text><text y="358" x="298.93238434163703" text-anchor="middle" visibility="hidden" style="font-size: 13px;">F</text><text y="358" x="301.423487544484" text-anchor="middle" visibility="hidden" style="font-size: 13px;">N</text><text y="358" x="303.914590747331" text-anchor="middle" visibility="hidden" style="font-size: 13px;">W</text><text y="358" x="306.4056939501779" text-anchor="middle" visibility="hidden" style="font-size: 13px;">S</text><text y="358" x="308.8967971530249" text-anchor="middle" visibility="hidden" style="font-size: 13px;">M</text><text y="358" x="311.3879003558719" text-anchor="middle" visibility="hidden" style="font-size: 13px;">Y</text><text y="358" x="313.87900355871886" text-anchor="middle" visibility="hidden" style="font-size: 13px;">S</text><text y="358" x="316.3701067615658" text-anchor="middle" visibility="hidden" style="font-size: 13px;">Q</text><text y="358" x="318.8612099644128" text-anchor="middle" visibility="hidden" style="font-size: 13px;">H</text><text y="358" x="321.3523131672598" text-anchor="middle" visibility="hidden" style="font-size: 13px;">A</text><text y="358" x="323.84341637010675" text-anchor="middle" visibility="hidden" style="font-size: 13px;">C</text><text y="358" x="326.33451957295375" text-anchor="middle" visibility="hidden" style="font-size: 13px;">L</text><text y="358" x="328.8256227758007" text-anchor="middle" visibility="hidden" style="font-size: 13px;">I</text><text y="358" x="331.3167259786477" text-anchor="middle" visibility="hidden" style="font-size: 13px;">E</text><text y="358" x="333.8078291814947" text-anchor="middle" visibility="hidden" style="font-size: 13px;">G</text><text y="358" x="336.29893238434164" text-anchor="middle" visibility="hidden" style="font-size: 13px;">K</text><text y="358" x="338.7900355871886" text-anchor="middle" visibility="hidden" style="font-size: 13px;">G</text><text y="358" x="341.2811387900356" text-anchor="middle" visibility="hidden" style="font-size: 13px;">E</text><text y="358" x="343.7722419928825" text-anchor="middle" visibility="hidden" style="font-size: 13px;">C</text><text y="358" x="346.2633451957295" text-anchor="middle" visibility="hidden" style="font-size: 13px;">W</text><text y="358" x="348.7544483985765" text-anchor="middle" visibility="hidden" style="font-size: 13px;">Q</text><text y="358" x="351.24555160142353" text-anchor="middle" visibility="hidden" style="font-size: 13px;">D</text><text y="358" x="353.7366548042705" text-anchor="middle" visibility="hidden" style="font-size: 13px;">K</text><text y="358" x="356.2277580071175" text-anchor="middle" visibility="hidden" style="font-size: 13px;">E</text><text y="358" x="358.7188612099644" text-anchor="middle" visibility="hidden" style="font-size: 13px;">R</text><text y="358" x="361.2099644128114" text-anchor="middle" visibility="hidden" style="font-size: 13px;">Q</text><text y="358" x="363.70106761565836" text-anchor="middle" visibility="hidden" style="font-size: 13px;">L</text><text y="358" x="366.1921708185053" text-anchor="middle" visibility="hidden" style="font-size: 13px;">R</text><text y="358" x="368.6832740213523" text-anchor="middle" visibility="hidden" style="font-size: 13px;">A</text><text y="358" x="371.17437722419925" text-anchor="middle" visibility="hidden" style="font-size: 13px;">R</text><text y="358" x="373.66548042704625" text-anchor="middle" visibility="hidden" style="font-size: 13px;">V</text><text y="358" x="376.15658362989325" text-anchor="middle" visibility="hidden" style="font-size: 13px;">K</text><text y="358" x="378.64768683274025" text-anchor="middle" visibility="hidden" style="font-size: 13px;">R</text><text y="358" x="381.1387900355872" text-anchor="middle" visibility="hidden" style="font-size: 13px;">V</text><text y="358" x="383.6298932384342" text-anchor="middle" visibility="hidden" style="font-size: 13px;">L</text><text y="358" x="386.12099644128114" text-anchor="middle" visibility="hidden" style="font-size: 13px;">P</text><text y="358" x="388.6120996441281" text-anchor="middle" visibility="hidden" style="font-size: 13px;">I</text><text y="358" x="391.1032028469751" text-anchor="middle" visibility="hidden" style="font-size: 13px;">D</text><text y="358" x="393.594306049822" text-anchor="middle" visibility="hidden" style="font-size: 13px;">V</text><text y="358" x="396.085409252669" text-anchor="middle" visibility="hidden" style="font-size: 13px;">H</text><text y="358" x="398.576512455516" text-anchor="middle" visibility="hidden" style="font-size: 13px;">Q</text><text y="358" x="401.067615658363" text-anchor="middle" visibility="hidden" style="font-size: 13px;">P</text><text y="358" x="403.55871886120997" text-anchor="middle" visibility="hidden" style="font-size: 13px;">Q</text><text y="358" x="406.04982206405697" text-anchor="middle" visibility="hidden" style="font-size: 13px;">P</text><text y="358" x="408.5409252669039" text-anchor="middle" visibility="hidden" style="font-size: 13px;">L</text><text y="358" x="411.0320284697509" text-anchor="middle" visibility="hidden" style="font-size: 13px;">G</text><text y="358" x="413.52313167259786" text-anchor="middle" visibility="hidden" style="font-size: 13px;">A</text><text y="358" x="416.0142348754448" text-anchor="middle" visibility="hidden" style="font-size: 13px;">G</text><text y="358" x="418.5053380782918" text-anchor="middle" visibility="hidden" style="font-size: 13px;">S</text><text y="358" x="420.99644128113874" text-anchor="middle" visibility="hidden" style="font-size: 13px;">P</text><text y="358" x="423.4875444839858" text-anchor="middle" visibility="hidden" style="font-size: 13px;">A</text><text y="358" x="425.97864768683274" text-anchor="middle" visibility="hidden" style="font-size: 13px;">P</text><text y="358" x="428.46975088967974" text-anchor="middle" visibility="hidden" style="font-size: 13px;">L</text><text y="358" x="430.9608540925267" text-anchor="middle" visibility="hidden" style="font-size: 13px;">P</text><text y="358" x="433.4519572953737" text-anchor="middle" visibility="hidden" style="font-size: 13px;">A</text><text y="358" x="435.94306049822063" text-anchor="middle" visibility="hidden" style="font-size: 13px;">D</text><text y="358" x="438.4341637010676" text-anchor="middle" visibility="hidden" style="font-size: 13px;">A</text><text y="358" x="440.9252669039146" text-anchor="middle" visibility="hidden" style="font-size: 13px;">L</text><text y="358" x="443.4163701067615" text-anchor="middle" visibility="hidden" style="font-size: 13px;">V</text><text y="358" x="445.9074733096085" text-anchor="middle" visibility="hidden" style="font-size: 13px;">S</text><text y="358" x="448.3985765124556" text-anchor="middle" visibility="hidden" style="font-size: 13px;">A</text><text y="358" x="450.8896797153025" text-anchor="middle" visibility="hidden" style="font-size: 13px;">F</text><text y="358" x="453.38078291814946" text-anchor="middle" visibility="hidden" style="font-size: 13px;">C</text><text y="358" x="455.87188612099646" text-anchor="middle" visibility="hidden" style="font-size: 13px;">L</text><text y="358" x="458.3629893238434" text-anchor="middle" visibility="hidden" style="font-size: 13px;">E</text><text y="358" x="460.8540925266904" text-anchor="middle" visibility="hidden" style="font-size: 13px;">A</text><text y="358" x="463.34519572953735" text-anchor="middle" visibility="hidden" style="font-size: 13px;">V</text><text y="358" x="465.8362989323843" text-anchor="middle" visibility="hidden" style="font-size: 13px;">S</text><text y="358" x="468.3274021352313" text-anchor="middle" visibility="hidden" style="font-size: 13px;">P</text><text y="358" x="470.81850533807835" text-anchor="middle" visibility="hidden" style="font-size: 13px;">D</text><text y="358" x="473.3096085409253" text-anchor="middle" visibility="hidden" style="font-size: 13px;">L</text><text y="358" x="475.80071174377224" text-anchor="middle" visibility="hidden" style="font-size: 13px;">A</text><text y="358" x="478.29181494661924" text-anchor="middle" visibility="hidden" style="font-size: 13px;">S</text><text y="358" x="480.7829181494662" text-anchor="middle" visibility="hidden" style="font-size: 13px;">F</text><text y="358" x="483.2740213523132" text-anchor="middle" visibility="hidden" style="font-size: 13px;">Q</text><text y="358" x="485.7651245551601" text-anchor="middle" visibility="hidden" style="font-size: 13px;">R</text><text y="358" x="488.25622775800707" text-anchor="middle" visibility="hidden" style="font-size: 13px;">A</text><text y="358" x="490.7473309608541" text-anchor="middle" visibility="hidden" style="font-size: 13px;">L</text><text y="358" x="493.238434163701" text-anchor="middle" visibility="hidden" style="font-size: 13px;">D</text><text y="358" x="495.7295373665481" text-anchor="middle" visibility="hidden" style="font-size: 13px;">H</text><text y="358" x="498.2206405693951" text-anchor="middle" visibility="hidden" style="font-size: 13px;">I</text><text y="358" x="500.711743772242" text-anchor="middle" visibility="hidden" style="font-size: 13px;">T</text><text y="358" x="503.20284697508896" text-anchor="middle" visibility="hidden" style="font-size: 13px;">T</text><text y="358" x="505.69395017793596" text-anchor="middle" visibility="hidden" style="font-size: 13px;">L</text><text y="358" x="508.1850533807829" text-anchor="middle" visibility="hidden" style="font-size: 13px;">L</text><text y="358" x="510.6761565836299" text-anchor="middle" visibility="hidden" style="font-size: 13px;">R</text><text y="358" x="513.1672597864768" text-anchor="middle" visibility="hidden" style="font-size: 13px;">P</text><text y="358" x="515.6583629893238" text-anchor="middle" visibility="hidden" style="font-size: 13px;">G</text><text y="358" x="518.1494661921707" text-anchor="middle" visibility="hidden" style="font-size: 13px;">G</text><text y="358" x="520.6405693950178" text-anchor="middle" visibility="hidden" style="font-size: 13px;">H</text><text y="358" x="523.1316725978648" text-anchor="middle" visibility="hidden" style="font-size: 13px;">L</text><text y="358" x="525.6227758007118" text-anchor="middle" visibility="hidden" style="font-size: 13px;">L</text><text y="358" x="528.1138790035587" text-anchor="middle" visibility="hidden" style="font-size: 13px;">L</text><text y="358" x="530.6049822064057" text-anchor="middle" visibility="hidden" style="font-size: 13px;">I</text><text y="358" x="533.0960854092526" text-anchor="middle" visibility="hidden" style="font-size: 13px;">G</text><text y="358" x="535.5871886120997" text-anchor="middle" visibility="hidden" style="font-size: 13px;">A</text><text y="358" x="538.0782918149466" text-anchor="middle" visibility="hidden" style="font-size: 13px;">L</text><text y="358" x="540.5693950177936" text-anchor="middle" visibility="hidden" style="font-size: 13px;">E</text><text y="358" x="543.0604982206405" text-anchor="middle" visibility="hidden" style="font-size: 13px;">E</text><text y="358" x="545.5516014234876" text-anchor="middle" visibility="hidden" style="font-size: 13px;">S</text><text y="358" x="548.0427046263345" text-anchor="middle" visibility="hidden" style="font-size: 13px;">W</text><text y="358" x="550.5338078291815" text-anchor="middle" visibility="hidden" style="font-size: 13px;">Y</text><text y="358" x="553.0249110320285" text-anchor="middle" visibility="hidden" style="font-size: 13px;">L</text><text y="358" x="555.5160142348755" text-anchor="middle" visibility="hidden" style="font-size: 13px;">A</text><text y="358" x="558.0071174377224" text-anchor="middle" visibility="hidden" style="font-size: 13px;">G</text><text y="358" x="560.4982206405693" text-anchor="middle" visibility="hidden" style="font-size: 13px;">E</text><text y="358" x="562.9893238434164" text-anchor="middle" visibility="hidden" style="font-size: 13px;">A</text><text y="358" x="565.4804270462633" text-anchor="middle" visibility="hidden" style="font-size: 13px;">R</text><text y="358" x="567.9715302491104" text-anchor="middle" visibility="hidden" style="font-size: 13px;">L</text><text y="358" x="570.4626334519573" text-anchor="middle" visibility="hidden" style="font-size: 13px;">T</text><text y="358" x="572.9537366548043" text-anchor="middle" visibility="hidden" style="font-size: 13px;">V</text><text y="358" x="575.4448398576512" text-anchor="middle" visibility="hidden" style="font-size: 13px;">V</text><text y="358" x="577.9359430604982" text-anchor="middle" visibility="hidden" style="font-size: 13px;">P</text><text y="358" x="580.4270462633452" text-anchor="middle" visibility="hidden" style="font-size: 13px;">V</text><text y="358" x="582.9181494661922" text-anchor="middle" visibility="hidden" style="font-size: 13px;">S</text><text y="358" x="585.4092526690391" text-anchor="middle" visibility="hidden" style="font-size: 13px;">E</text><text y="358" x="587.9003558718861" text-anchor="middle" visibility="hidden" style="font-size: 13px;">E</text><text y="358" x="590.391459074733" text-anchor="middle" visibility="hidden" style="font-size: 13px;">E</text><text y="358" x="592.8825622775801" text-anchor="middle" visibility="hidden" style="font-size: 13px;">V</text><text y="358" x="595.3736654804271" text-anchor="middle" visibility="hidden" style="font-size: 13px;">R</text><text y="358" x="597.8647686832741" text-anchor="middle" visibility="hidden" style="font-size: 13px;">E</text><text y="358" x="600.355871886121" text-anchor="middle" visibility="hidden" style="font-size: 13px;">A</text><text y="358" x="602.846975088968" text-anchor="middle" visibility="hidden" style="font-size: 13px;">L</text><text y="358" x="605.3380782918149" text-anchor="middle" visibility="hidden" style="font-size: 13px;">V</text><text y="358" x="607.829181494662" text-anchor="middle" visibility="hidden" style="font-size: 13px;">R</text><text y="358" x="610.3202846975089" text-anchor="middle" visibility="hidden" style="font-size: 13px;">S</text><text y="358" x="612.8113879003558" text-anchor="middle" visibility="hidden" style="font-size: 13px;">G</text><text y="358" x="615.3024911032028" text-anchor="middle" visibility="hidden" style="font-size: 13px;">Y</text><text y="358" x="617.7935943060498" text-anchor="middle" visibility="hidden" style="font-size: 13px;">K</text><text y="358" x="620.2846975088968" text-anchor="middle" visibility="hidden" style="font-size: 13px;">V</text><text y="358" x="622.7758007117438" text-anchor="middle" visibility="hidden" style="font-size: 13px;">R</text><text y="358" x="625.2669039145908" text-anchor="middle" visibility="hidden" style="font-size: 13px;">D</text><text y="358" x="627.7580071174377" text-anchor="middle" visibility="hidden" style="font-size: 13px;">L</text><text y="358" x="630.2491103202847" text-anchor="middle" visibility="hidden" style="font-size: 13px;">R</text><text y="358" x="632.7402135231316" text-anchor="middle" visibility="hidden" style="font-size: 13px;">T</text><text y="358" x="635.2313167259787" text-anchor="middle" visibility="hidden" style="font-size: 13px;">Y</text><text y="358" x="637.7224199288256" text-anchor="middle" visibility="hidden" style="font-size: 13px;">I</text><text y="358" x="640.2135231316727" text-anchor="middle" visibility="hidden" style="font-size: 13px;">M</text><text y="358" x="642.7046263345196" text-anchor="middle" visibility="hidden" style="font-size: 13px;">P</text><text y="358" x="645.1957295373666" text-anchor="middle" visibility="hidden" style="font-size: 13px;">A</text><text y="358" x="647.6868327402135" text-anchor="middle" visibility="hidden" style="font-size: 13px;">H</text><text y="358" x="650.1779359430604" text-anchor="middle" visibility="hidden" style="font-size: 13px;">L</text><text y="358" x="652.6690391459075" text-anchor="middle" visibility="hidden" style="font-size: 13px;">Q</text><text y="358" x="655.1601423487544" text-anchor="middle" visibility="hidden" style="font-size: 13px;">T</text><text y="358" x="657.6512455516014" text-anchor="middle" visibility="hidden" style="font-size: 13px;">G</text><text y="358" x="660.1423487544483" text-anchor="middle" visibility="hidden" style="font-size: 13px;">V</text><text y="358" x="662.6334519572954" text-anchor="middle" visibility="hidden" style="font-size: 13px;">D</text><text y="358" x="665.1245551601423" text-anchor="middle" visibility="hidden" style="font-size: 13px;">D</text><text y="358" x="667.6156583629894" text-anchor="middle" visibility="hidden" style="font-size: 13px;">V</text><text y="358" x="670.1067615658363" text-anchor="middle" visibility="hidden" style="font-size: 13px;">K</text><text y="358" x="672.5978647686833" text-anchor="middle" visibility="hidden" style="font-size: 13px;">G</text><text y="358" x="675.0889679715302" text-anchor="middle" visibility="hidden" style="font-size: 13px;">V</text><text y="358" x="677.5800711743772" text-anchor="middle" visibility="hidden" style="font-size: 13px;">F</text><text y="358" x="680.0711743772242" text-anchor="middle" visibility="hidden" style="font-size: 13px;">F</text><text y="358" x="682.5622775800712" text-anchor="middle" visibility="hidden" style="font-size: 13px;">A</text><text y="358" x="685.0533807829181" text-anchor="middle" visibility="hidden" style="font-size: 13px;">W</text><text y="358" x="687.544483985765" text-anchor="middle" visibility="hidden" style="font-size: 13px;">A</text><text y="358" x="690.0355871886121" text-anchor="middle" visibility="hidden" style="font-size: 13px;">Q</text><text y="358" x="692.526690391459" text-anchor="middle" visibility="hidden" style="font-size: 13px;">K</text><text y="358" x="695.0177935943061" text-anchor="middle" visibility="hidden" style="font-size: 13px;">V</text><text y="358" x="697.508896797153" text-anchor="middle" visibility="hidden" style="font-size: 13px;">G</text><text y="358" x="700" text-anchor="middle" visibility="hidden" style="font-size: 13px;">L</text></g></g></svg><g class="xAxis" transform="translate(0,360)" fill="none" font-size="10" font-family="sans-serif" text-anchor="middle"><path class="domain" stroke="#000" d="M0.5,6V0.5H700.5V6"></path><g class="tick" opacity="1" transform="translate(47.83096085409253,0)"><line stroke="#000" y2="6"></line><text fill="#000" y="9" dy="0.71em">20</text></g><g class="tick" opacity="1" transform="translate(97.65302491103202,0)"><line stroke="#000" y2="6"></line><text fill="#000" y="9" dy="0.71em">40</text></g><g class="tick" opacity="1" transform="translate(147.47508896797152,0)"><line stroke="#000" y2="6"></line><text fill="#000" y="9" dy="0.71em">60</text></g><g class="tick" opacity="1" transform="translate(197.297153024911,0)"><line stroke="#000" y2="6"></line><text fill="#000" y="9" dy="0.71em">80</text></g><g class="tick" opacity="1" transform="translate(247.1192170818505,0)"><line stroke="#000" y2="6"></line><text fill="#000" y="9" dy="0.71em">100</text></g><g class="tick" opacity="1" transform="translate(296.94128113879003,0)"><line stroke="#000" y2="6"></line><text fill="#000" y="9" dy="0.71em">120</text></g><g class="tick" opacity="1" transform="translate(346.7633451957295,0)"><line stroke="#000" y2="6"></line><text fill="#000" y="9" dy="0.71em">140</text></g><g class="tick" opacity="1" transform="translate(396.585409252669,0)"><line stroke="#000" y2="6"></line><text fill="#000" y="9" dy="0.71em">160</text></g><g class="tick" opacity="1" transform="translate(446.4074733096085,0)"><line stroke="#000" y2="6"></line><text fill="#000" y="9" dy="0.71em">180</text></g><g class="tick" opacity="1" transform="translate(496.2295373665481,0)"><line stroke="#000" y2="6"></line><text fill="#000" y="9" dy="0.71em">200</text></g><g class="tick" opacity="1" transform="translate(546.0516014234876,0)"><line stroke="#000" y2="6"></line><text fill="#000" y="9" dy="0.71em">220</text></g><g class="tick" opacity="1" transform="translate(595.8736654804271,0)"><line stroke="#000" y2="6"></line><text fill="#000" y="9" dy="0.71em">240</text></g><g class="tick" opacity="1" transform="translate(645.6957295373666,0)"><line stroke="#000" y2="6"></line><text fill="#000" y="9" dy="0.71em">260</text></g><g class="tick" opacity="1" transform="translate(695.5177935943061,0)"><line stroke="#000" y2="6"></line><text fill="#000" y="9" dy="0.71em">280</text></g></g><text class="x label" text-anchor="end" x="700" y="390" style="font-size: 13px; font-family: Arial;">Residue number</text><g class="yAxis" fill="none" font-size="10" font-family="sans-serif" text-anchor="end"><path class="domain" stroke="#000" d="M-6,360.5H0.5V0.5H-6"></path><g class="tick" opacity="1" transform="translate(0,327.77272727272725)"><line stroke="#000" x2="-6"></line><text fill="#000" x="-9" dy="0.32em">0</text></g><g class="tick" opacity="1" transform="translate(0,278.18595041322317)"><line stroke="#000" x2="-6"></line><text fill="#000" x="-9" dy="0.32em">0.5</text></g><g class="tick" opacity="1" transform="translate(0,228.599173553719)"><line stroke="#000" x2="-6"></line><text fill="#000" x="-9" dy="0.32em">1</text></g><g class="tick" opacity="1" transform="translate(0,179.01239669421489)"><line stroke="#000" x2="-6"></line><text fill="#000" x="-9" dy="0.32em">1.5</text></g><g class="tick" opacity="1" transform="translate(0,129.42561983471072)"><line stroke="#000" x2="-6"></line><text fill="#000" x="-9" dy="0.32em">2</text></g><g class="tick" opacity="1" transform="translate(0,79.8388429752066)"><line stroke="#000" x2="-6"></line><text fill="#000" x="-9" dy="0.32em">2.5</text></g><g class="tick" opacity="1" transform="translate(0,30.252066115702462)"><line stroke="#000" x2="-6"></line><text fill="#000" x="-9" dy="0.32em">3</text></g></g><text class="y label" text-anchor="middle" y="-50" x="-180" dy="0.8em" transform="rotate(-90)" style="font-size: 13px; font-family: Arial;">Total number of references</text><g class="axisRed" fill="none" font-size="10" font-family="sans-serif" text-anchor="start" visibility="hidden" transform="translate(700, 0)"><path class="domain" stroke="#000" d="M6,360.5H0.5V0.5H6"></path><g class="tick" opacity="1" transform="translate(0,360.5)"><line stroke="#000" x2="6"></line><text fill="#000" x="9" dy="0.32em">0</text></g><text text-anchor="start" dx="5.2em" dy="-2.6em" transform="rotate(90)" visibility="hidden" style="font-size: 12px; font-family: Arial; fill: #d7301f;">No recurrent (&gt;2) missense mutations!</text></g><g class="axisPurple" fill="none" font-size="10" font-family="sans-serif" text-anchor="start" visibility="hidden"><path class="domain" stroke="#000" d="M6,360.5H0.5V0.5H6"></path><g class="tick" opacity="1" transform="translate(0,357.52479338842977)"><line stroke="#000" x2="6"></line><text fill="#000" x="9" dy="0.32em"></text></g><g class="tick" opacity="1" transform="translate(0,327.77272727272725)"><line stroke="#000" x2="6"></line><text fill="#000" x="9" dy="0.32em">0</text></g><g class="tick" opacity="1" transform="translate(0,298.0206611570248)"><line stroke="#000" x2="6"></line><text fill="#000" x="9" dy="0.32em">0.1</text></g><g class="tick" opacity="1" transform="translate(0,268.2685950413223)"><line stroke="#000" x2="6"></line><text fill="#000" x="9" dy="0.32em">0.2</text></g><g class="tick" opacity="1" transform="translate(0,238.51652892561984)"><line stroke="#000" x2="6"></line><text fill="#000" x="9" dy="0.32em">0.3</text></g><g class="tick" opacity="1" transform="translate(0,208.76446280991738)"><line stroke="#000" x2="6"></line><text fill="#000" x="9" dy="0.32em">0.4</text></g><g class="tick" opacity="1" transform="translate(0,179.0123966942149)"><line stroke="#000" x2="6"></line><text fill="#000" x="9" dy="0.32em">0.5</text></g><g class="tick" opacity="1" transform="translate(0,149.26033057851242)"><line stroke="#000" x2="6"></line><text fill="#000" x="9" dy="0.32em">0.6</text></g><g class="tick" opacity="1" transform="translate(0,119.50826446280996)"><line stroke="#000" x2="6"></line><text fill="#000" x="9" dy="0.32em">0.7</text></g><g class="tick" opacity="1" transform="translate(0,89.75619834710744)"><line stroke="#000" x2="6"></line><text fill="#000" x="9" dy="0.32em">0.8</text></g><g class="tick" opacity="1" transform="translate(0,60.00413223140498)"><line stroke="#000" x2="6"></line><text fill="#000" x="9" dy="0.32em">0.9</text></g><g class="tick" opacity="1" transform="translate(0,30.25206611570252)"><line stroke="#000" x2="6"></line><text fill="#000" x="9" dy="0.32em">1</text></g><g class="tick" opacity="1" transform="translate(0,0.5)"><line stroke="#000" x2="6"></line><text fill="#000" x="9" dy="0.32em">1.1</text></g><text text-anchor="start" x="10" y="10" visibility="hidden" style="font-size: 12px; font-family: Arial; fill: #807dba;">No disease causing germline SNPs known!</text></g><circle cx="636" cy="15" r="10" class="compassNav" style="fill: #ffffff; stroke: #666666; stroke-width: 1px;"></circle><path d="M440.935 12.574l3.966 82.766C399.416 41.904 331.674 8 256 8 134.813 8 33.933 94.924 12.296 209.824 10.908 217.193 16.604 224 24.103 224h49.084c5.57 0 10.377-3.842 11.676-9.259C103.407 137.408 172.931 80 256 80c60.893 0 114.512 30.856 146.104 77.801l-101.53-4.865c-6.845-.328-12.574 5.133-12.574 11.986v47.411c0 6.627 5.373 12 12 12h200.333c6.627 0 12-5.373 12-12V12c0-6.627-5.373-12-12-12h-47.411c-6.853 0-12.315 5.729-11.987 12.574zM256 432c-60.895 0-114.517-30.858-146.109-77.805l101.868 4.871c6.845.327 12.573-5.134 12.573-11.986v-47.412c0-6.627-5.373-12-12-12H12c-6.627 0-12 5.373-12 12V500c0 6.627 5.373 12 12 12h47.385c6.863 0 12.328-5.745 11.985-12.599l-4.129-82.575C112.725 470.166 180.405 504 256 504c121.187 0 222.067-86.924 243.704-201.824 1.388-7.369-4.308-14.176-11.807-14.176h-49.084c-5.57 0-10.377 3.842-11.676 9.259C408.593 374.592 339.069 432 256 432z" class="compassNav" transform="translate(631, 10) scale(0.02)" style="fill: #666666; stroke: #666666; stroke-width: 1px;"></path><circle cx="658" cy="15" r="10" class="compassNav" style="fill: #ffffff; stroke: #666666; stroke-width: 1px;"></circle><line class="compassNav" stroke-width="2" stroke="#666666" x1="654" y1="15" x2="662" y2="15"></line><line class="compassNav" stroke-width="2" stroke="#666666" x1="658" y1="11" x2="658" y2="19"></line><circle cx="614" cy="15" r="10" class="compassNav" style="fill: #ffffff; stroke: #666666; stroke-width: 1px;"></circle><line class="compassNav" stroke-width="2" stroke="#666666" x1="610" y1="15" x2="618" y2="15"></line><path d="M582 14 l20 -12 a100,40 0 0,0 0,24z" class="compassNav" style="fill: #ffffff; stroke: #666666; stroke-width: 1px;"></path><path d="M690 14 l-20 -12 a100,40 0 0,1 0,24z" class="compassNav" style="fill: #ffffff; stroke: #666666; stroke-width: 1px;"></path><path d="M216 0h80c13.3 0 24 10.7 24 24v168h87.7c17.8 0 26.7 21.5 14.1 34.1L269.7 378.3c-7.5 7.5-19.8 7.5-27.3 0L90.1 226.1c-12.6-12.6-3.7-34.1 14.1-34.1H192V24c0-13.3 10.7-24 24-24zm296 376v112c0 13.3-10.7 24-24 24H24c-13.3 0-24-10.7-24-24V376c0-13.3 10.7-24 24-24h146.7l49 49c20.1 20.1 52.5 20.1 72.6 0l49-49H488c13.3 0 24 10.7 24 24zm-124 88c0-11-9-20-20-20s-20 9-20 20 9 20 20 20 20-9 20-20zm64 0c0-11-9-20-20-20s-20 9-20 20 9 20 20 20 20-9 20-20z" class="compassNav" transform="translate(552,0) scale(0.05)" style="fill: #336699; stroke: #336699; stroke-width: 1px; cursor: pointer;"></path></g></svg>