<svg width="800" height="400" style="background-color: white;"><g transform="translate(50,0)"><svg width="700" height="360"><g style="-webkit-tap-highlight-color: rgba(0, 0, 0, 0);"><rect width="700" height="360" style="fill: #ffffff;"></rect><g id="lines"><line class="line" stroke-width="1" stroke="#d7301f" x1="-314.22222222222223" y1="333" x2="-314.22222222222223" y2="360" visibility="hidden" style="stroke-dasharray: 3px, 3px;"></line></g><g><rect x="-319.22222222222223" y="355" width="10" height="10" visibility="hidden" style="fill: #ffffff; stroke: #d7301f;"></rect></g><g id="lines"><line class="line" stroke-width="1" stroke="#6a51a3" x1="-314.22222222222223" y1="333" x2="-314.22222222222223" y2="327.27272727272725" visibility="hidden" style="stroke-dasharray: 3px, 3px;"></line></g><g><rect x="-319.22222222222223" y="322.27272727272725" width="10" height="10" visibility="hidden" style="fill: #ffffff; stroke: #6a51a3;"></rect></g><g id="lines"><line class="line" stroke-width="1" stroke="#666666" x1="432.44444444444446" y1="333" x2="432.44444444444446" y2="312.39669421487605"></line><line class="line" stroke-width="1" stroke="#666666" x1="435.55555555555554" y1="333" x2="435.55555555555554" y2="267.7685950413223"></line><line class="line" stroke-width="1" stroke="#666666" x1="497.77777777777777" y1="333" x2="497.77777777777777" y2="319.8347107438016"></line><line class="line" stroke-width="1" stroke="#666666" x1="535.1111111111111" y1="333" x2="535.1111111111111" y2="319.8347107438016"></line><line class="line" stroke-width="1" stroke="#666666" x1="563.1111111111111" y1="333" x2="563.1111111111111" y2="245.45454545454544"></line><line class="line" stroke-width="1" stroke="#666666" x1="581.7777777777778" y1="333" x2="581.7777777777778" y2="185.9504132231405"></line><line class="line" stroke-width="1" stroke="#666666" x1="609.7777777777777" y1="333" x2="609.7777777777777" y2="290.08264462809916"></line><line class="line" stroke-width="1" stroke="#666666" x1="616" y1="333" x2="616" y2="104.1322314049587"></line><line class="line" stroke-width="1" stroke="#666666" x1="628.4444444444445" y1="333" x2="628.4444444444445" y2="304.9586776859504"></line><line class="line" stroke-width="1" stroke="#666666" x1="647.1111111111111" y1="333" x2="647.1111111111111" y2="312.39669421487605"></line><line class="line" stroke-width="1" stroke="#666666" x1="650.2222222222222" y1="333" x2="650.2222222222222" y2="29.75206611570252"></line><line class="line" stroke-width="1" stroke="#666666" x1="665.7777777777778" y1="333" x2="665.7777777777778" y2="312.39669421487605"></line><line class="line" stroke-width="1" stroke="#666666" x1="696.8888888888889" y1="333" x2="696.8888888888889" y2="297.5206611570248"></line></g><g id="circles"><circle r="4" cx="432.44444444444446" cy="312.39669421487605" style="fill: #4393c3; stroke: #666666; stroke-width: 1px;"></circle><circle r="4" cx="435.55555555555554" cy="267.7685950413223" style="fill: #bf812d; stroke: #666666; stroke-width: 1px;"></circle><circle r="4" cx="497.77777777777777" cy="319.8347107438016" style="fill: #4393c3; stroke: #666666; stroke-width: 1px;"></circle><circle r="4" cx="535.1111111111111" cy="319.8347107438016" style="fill: #bf812d; stroke: #666666; stroke-width: 1px;"></circle><circle r="4" cx="563.1111111111111" cy="245.45454545454544" style="fill: #4393c3; stroke: #666666; stroke-width: 1px;"></circle><circle r="4" cx="581.7777777777778" cy="185.9504132231405" style="fill: #4393c3; stroke: #666666; stroke-width: 1px;"></circle><circle r="4" cx="609.7777777777777" cy="290.08264462809916" style="fill: #4393c3; stroke: #666666; stroke-width: 1px;"></circle><circle r="4" cx="616" cy="104.1322314049587" style="fill: #4393c3; stroke: #666666; stroke-width: 1px;"></circle><circle r="4" cx="628.4444444444445" cy="304.9586776859504" style="fill: #4393c3; stroke: #666666; stroke-width: 1px;"></circle><circle r="4" cx="647.1111111111111" cy="312.39669421487605" style="fill: #4393c3; stroke: #666666; stroke-width: 1px;"></circle><circle r="4" cx="650.2222222222222" cy="29.75206611570252" style="fill: #4393c3; stroke: #666666; stroke-width: 1px;"></circle><circle r="4" cx="665.7777777777778" cy="312.39669421487605" style="fill: #4393c3; stroke: #666666; stroke-width: 1px;"></circle><circle r="4" cx="696.8888888888889" cy="297.5206611570248" style="fill: #bf812d; stroke: #666666; stroke-width: 1px;"></circle></g><g><rect x="0" y="333" width="700" height="12" style="fill: #ffffff; stroke-width: 1px; stroke: #666666;"></rect><rect x="112" y="333" width="252" height="12" style="fill: #aec7e8; stroke-width: 1px; stroke: #666666;"></rect><rect x="444.88888888888886" y="333" width="65.33333333333337" height="12" style="fill: #ffbb78; stroke-width: 1px; stroke: #666666;"></rect><rect x="572.4444444444445" y="333" width="59.111111111111086" height="12" style="fill: #98df8a; stroke-width: 1px; stroke: #666666;"></rect></g><g><a target="_blank" xlink:href="http://pfam.xfam.org/family/"><text y="343" x="350" text-anchor="middle" style="color: rgb(102, 102, 102); font-weight: normal; font-size: 12px; font-family: Arial; cursor: pointer;"></text></a><a target="_blank" xlink:href="http://pfam.xfam.org/family/ig"><text y="343" x="238" text-anchor="middle" style="color: rgb(102, 102, 102); font-weight: normal; font-size: 12px; font-family: Arial; cursor: pointer;">ig</text></a><a target="_blank" xlink:href="http://pfam.xfam.org/family/TM"><text y="343" x="477.55555555555554" text-anchor="middle" style="color: rgb(102, 102, 102); font-weight: normal; font-size: 12px; font-family: Arial; cursor: pointer;">TM</text></a><a target="_blank" xlink:href="http://pfam.xfam.org/family/ITAM"><text y="343" x="602" text-anchor="middle" style="color: rgb(102, 102, 102); font-weight: normal; font-size: 12px; font-family: Arial; cursor: pointer;">ITAM</text></a></g><g><text y="358" x="0" text-anchor="middle" visibility="hidden" style="font-size: 13px;">M</text><text y="358" x="3.111111111111111" text-anchor="middle" visibility="hidden" style="font-size: 13px;">P</text><text y="358" x="6.222222222222222" text-anchor="middle" visibility="hidden" style="font-size: 13px;">G</text><text y="358" x="9.333333333333334" text-anchor="middle" visibility="hidden" style="font-size: 13px;">G</text><text y="358" x="12.444444444444445" text-anchor="middle" visibility="hidden" style="font-size: 13px;">P</text><text y="358" x="15.555555555555555" text-anchor="middle" visibility="hidden" style="font-size: 13px;">G</text><text y="358" x="18.666666666666668" text-anchor="middle" visibility="hidden" style="font-size: 13px;">V</text><text y="358" x="21.77777777777778" text-anchor="middle" visibility="hidden" style="font-size: 13px;">L</text><text y="358" x="24.88888888888889" text-anchor="middle" visibility="hidden" style="font-size: 13px;">Q</text><text y="358" x="28" text-anchor="middle" visibility="hidden" style="font-size: 13px;">A</text><text y="358" x="31.11111111111111" text-anchor="middle" visibility="hidden" style="font-size: 13px;">L</text><text y="358" x="34.22222222222222" text-anchor="middle" visibility="hidden" style="font-size: 13px;">P</text><text y="358" x="37.333333333333336" text-anchor="middle" visibility="hidden" style="font-size: 13px;">A</text><text y="358" x="40.44444444444444" text-anchor="middle" visibility="hidden" style="font-size: 13px;">T</text><text y="358" x="43.55555555555556" text-anchor="middle" visibility="hidden" style="font-size: 13px;">I</text><text y="358" x="46.666666666666664" text-anchor="middle" visibility="hidden" style="font-size: 13px;">F</text><text y="358" x="49.77777777777778" text-anchor="middle" visibility="hidden" style="font-size: 13px;">L</text><text y="358" x="52.88888888888889" text-anchor="middle" visibility="hidden" style="font-size: 13px;">L</text><text y="358" x="56" text-anchor="middle" visibility="hidden" style="font-size: 13px;">F</text><text y="358" x="59.111111111111114" text-anchor="middle" visibility="hidden" style="font-size: 13px;">L</text><text y="358" x="62.22222222222222" text-anchor="middle" visibility="hidden" style="font-size: 13px;">L</text><text y="358" x="65.33333333333334" text-anchor="middle" visibility="hidden" style="font-size: 13px;">S</text><text y="358" x="68.44444444444444" text-anchor="middle" visibility="hidden" style="font-size: 13px;">A</text><text y="358" x="71.55555555555556" text-anchor="middle" visibility="hidden" style="font-size: 13px;">V</text><text y="358" x="74.66666666666667" text-anchor="middle" visibility="hidden" style="font-size: 13px;">Y</text><text y="358" x="77.77777777777777" text-anchor="middle" visibility="hidden" style="font-size: 13px;">L</text><text y="358" x="80.88888888888889" text-anchor="middle" visibility="hidden" style="font-size: 13px;">G</text><text y="358" x="84" text-anchor="middle" visibility="hidden" style="font-size: 13px;">P</text><text y="358" x="87.11111111111111" text-anchor="middle" visibility="hidden" style="font-size: 13px;">G</text><text y="358" x="90.22222222222221" text-anchor="middle" visibility="hidden" style="font-size: 13px;">C</text><text y="358" x="93.33333333333333" text-anchor="middle" visibility="hidden" style="font-size: 13px;">Q</text><text y="358" x="96.44444444444444" text-anchor="middle" visibility="hidden" style="font-size: 13px;">A</text><text y="358" x="99.55555555555556" text-anchor="middle" visibility="hidden" style="font-size: 13px;">L</text><text y="358" x="102.66666666666667" text-anchor="middle" visibility="hidden" style="font-size: 13px;">W</text><text y="358" x="105.77777777777779" text-anchor="middle" visibility="hidden" style="font-size: 13px;">M</text><text y="358" x="108.88888888888889" text-anchor="middle" visibility="hidden" style="font-size: 13px;">H</text><text y="358" x="112" text-anchor="middle" visibility="hidden" style="font-size: 13px;">K</text><text y="358" x="115.11111111111111" text-anchor="middle" visibility="hidden" style="font-size: 13px;">V</text><text y="358" x="118.22222222222223" text-anchor="middle" visibility="hidden" style="font-size: 13px;">P</text><text y="358" x="121.33333333333334" text-anchor="middle" visibility="hidden" style="font-size: 13px;">A</text><text y="358" x="124.44444444444444" text-anchor="middle" visibility="hidden" style="font-size: 13px;">S</text><text y="358" x="127.55555555555556" text-anchor="middle" visibility="hidden" style="font-size: 13px;">L</text><text y="358" x="130.66666666666669" text-anchor="middle" visibility="hidden" style="font-size: 13px;">M</text><text y="358" x="133.77777777777777" text-anchor="middle" visibility="hidden" style="font-size: 13px;">V</text><text y="358" x="136.88888888888889" text-anchor="middle" visibility="hidden" style="font-size: 13px;">S</text><text y="358" x="140" text-anchor="middle" visibility="hidden" style="font-size: 13px;">L</text><text y="358" x="143.11111111111111" text-anchor="middle" visibility="hidden" style="font-size: 13px;">G</text><text y="358" x="146.22222222222223" text-anchor="middle" visibility="hidden" style="font-size: 13px;">E</text><text y="358" x="149.33333333333334" text-anchor="middle" visibility="hidden" style="font-size: 13px;">D</text><text y="358" x="152.44444444444443" text-anchor="middle" visibility="hidden" style="font-size: 13px;">A</text><text y="358" x="155.55555555555554" text-anchor="middle" visibility="hidden" style="font-size: 13px;">H</text><text y="358" x="158.66666666666666" text-anchor="middle" visibility="hidden" style="font-size: 13px;">F</text><text y="358" x="161.77777777777777" text-anchor="middle" visibility="hidden" style="font-size: 13px;">Q</text><text y="358" x="164.88888888888889" text-anchor="middle" visibility="hidden" style="font-size: 13px;">C</text><text y="358" x="168" text-anchor="middle" visibility="hidden" style="font-size: 13px;">P</text><text y="358" x="171.11111111111111" text-anchor="middle" visibility="hidden" style="font-size: 13px;">H</text><text y="358" x="174.22222222222223" text-anchor="middle" visibility="hidden" style="font-size: 13px;">N</text><text y="358" x="177.33333333333334" text-anchor="middle" visibility="hidden" style="font-size: 13px;">S</text><text y="358" x="180.44444444444443" text-anchor="middle" visibility="hidden" style="font-size: 13px;">S</text><text y="358" x="183.55555555555557" text-anchor="middle" visibility="hidden" style="font-size: 13px;">N</text><text y="358" x="186.66666666666666" text-anchor="middle" visibility="hidden" style="font-size: 13px;">N</text><text y="358" x="189.7777777777778" text-anchor="middle" visibility="hidden" style="font-size: 13px;">A</text><text y="358" x="192.88888888888889" text-anchor="middle" visibility="hidden" style="font-size: 13px;">N</text><text y="358" x="196.00000000000003" text-anchor="middle" visibility="hidden" style="font-size: 13px;">V</text><text y="358" x="199.11111111111111" text-anchor="middle" visibility="hidden" style="font-size: 13px;">T</text><text y="358" x="202.2222222222222" text-anchor="middle" visibility="hidden" style="font-size: 13px;">W</text><text y="358" x="205.33333333333334" text-anchor="middle" visibility="hidden" style="font-size: 13px;">W</text><text y="358" x="208.44444444444443" text-anchor="middle" visibility="hidden" style="font-size: 13px;">R</text><text y="358" x="211.55555555555557" text-anchor="middle" visibility="hidden" style="font-size: 13px;">V</text><text y="358" x="214.66666666666666" text-anchor="middle" visibility="hidden" style="font-size: 13px;">L</text><text y="358" x="217.77777777777777" text-anchor="middle" visibility="hidden" style="font-size: 13px;">H</text><text y="358" x="220.88888888888889" text-anchor="middle" visibility="hidden" style="font-size: 13px;">G</text><text y="358" x="224" text-anchor="middle" visibility="hidden" style="font-size: 13px;">N</text><text y="358" x="227.1111111111111" text-anchor="middle" visibility="hidden" style="font-size: 13px;">Y</text><text y="358" x="230.22222222222223" text-anchor="middle" visibility="hidden" style="font-size: 13px;">T</text><text y="358" x="233.33333333333331" text-anchor="middle" visibility="hidden" style="font-size: 13px;">W</text><text y="358" x="236.44444444444446" text-anchor="middle" visibility="hidden" style="font-size: 13px;">P</text><text y="358" x="239.55555555555554" text-anchor="middle" visibility="hidden" style="font-size: 13px;">P</text><text y="358" x="242.66666666666669" text-anchor="middle" visibility="hidden" style="font-size: 13px;">E</text><text y="358" x="245.77777777777777" text-anchor="middle" visibility="hidden" style="font-size: 13px;">F</text><text y="358" x="248.88888888888889" text-anchor="middle" visibility="hidden" style="font-size: 13px;">L</text><text y="358" x="252" text-anchor="middle" visibility="hidden" style="font-size: 13px;">G</text><text y="358" x="255.11111111111111" text-anchor="middle" visibility="hidden" style="font-size: 13px;">P</text><text y="358" x="258.22222222222223" text-anchor="middle" visibility="hidden" style="font-size: 13px;">G</text><text y="358" x="261.33333333333337" text-anchor="middle" visibility="hidden" style="font-size: 13px;">E</text><text y="358" x="264.44444444444446" text-anchor="middle" visibility="hidden" style="font-size: 13px;">D</text><text y="358" x="267.55555555555554" text-anchor="middle" visibility="hidden" style="font-size: 13px;">P</text><text y="358" x="270.6666666666667" text-anchor="middle" visibility="hidden" style="font-size: 13px;">N</text><text y="358" x="273.77777777777777" text-anchor="middle" visibility="hidden" style="font-size: 13px;">G</text><text y="358" x="276.88888888888886" text-anchor="middle" visibility="hidden" style="font-size: 13px;">T</text><text y="358" x="280" text-anchor="middle" visibility="hidden" style="font-size: 13px;">L</text><text y="358" x="283.1111111111111" text-anchor="middle" visibility="hidden" style="font-size: 13px;">I</text><text y="358" x="286.22222222222223" text-anchor="middle" visibility="hidden" style="font-size: 13px;">I</text><text y="358" x="289.3333333333333" text-anchor="middle" visibility="hidden" style="font-size: 13px;">Q</text><text y="358" x="292.44444444444446" text-anchor="middle" visibility="hidden" style="font-size: 13px;">N</text><text y="358" x="295.55555555555554" text-anchor="middle" visibility="hidden" style="font-size: 13px;">V</text><text y="358" x="298.6666666666667" text-anchor="middle" visibility="hidden" style="font-size: 13px;">N</text><text y="358" x="301.77777777777777" text-anchor="middle" visibility="hidden" style="font-size: 13px;">K</text><text y="358" x="304.88888888888886" text-anchor="middle" visibility="hidden" style="font-size: 13px;">S</text><text y="358" x="308" text-anchor="middle" visibility="hidden" style="font-size: 13px;">H</text><text y="358" x="311.1111111111111" text-anchor="middle" visibility="hidden" style="font-size: 13px;">G</text><text y="358" x="314.22222222222223" text-anchor="middle" visibility="hidden" style="font-size: 13px;">G</text><text y="358" x="317.3333333333333" text-anchor="middle" visibility="hidden" style="font-size: 13px;">I</text><text y="358" x="320.44444444444446" text-anchor="middle" visibility="hidden" style="font-size: 13px;">Y</text><text y="358" x="323.55555555555554" text-anchor="middle" visibility="hidden" style="font-size: 13px;">V</text><text y="358" x="326.6666666666667" text-anchor="middle" visibility="hidden" style="font-size: 13px;">C</text><text y="358" x="329.77777777777777" text-anchor="middle" visibility="hidden" style="font-size: 13px;">R</text><text y="358" x="332.8888888888889" text-anchor="middle" visibility="hidden" style="font-size: 13px;">V</text><text y="358" x="336" text-anchor="middle" visibility="hidden" style="font-size: 13px;">Q</text><text y="358" x="339.11111111111114" text-anchor="middle" visibility="hidden" style="font-size: 13px;">E</text><text y="358" x="342.22222222222223" text-anchor="middle" visibility="hidden" style="font-size: 13px;">G</text><text y="358" x="345.3333333333333" text-anchor="middle" visibility="hidden" style="font-size: 13px;">N</text><text y="358" x="348.44444444444446" text-anchor="middle" visibility="hidden" style="font-size: 13px;">E</text><text y="358" x="351.55555555555554" text-anchor="middle" visibility="hidden" style="font-size: 13px;">S</text><text y="358" x="354.6666666666667" text-anchor="middle" visibility="hidden" style="font-size: 13px;">Y</text><text y="358" x="357.77777777777777" text-anchor="middle" visibility="hidden" style="font-size: 13px;">Q</text><text y="358" x="360.88888888888886" text-anchor="middle" visibility="hidden" style="font-size: 13px;">Q</text><text y="358" x="364" text-anchor="middle" visibility="hidden" style="font-size: 13px;">S</text><text y="358" x="367.11111111111114" text-anchor="middle" visibility="hidden" style="font-size: 13px;">C</text><text y="358" x="370.2222222222222" text-anchor="middle" visibility="hidden" style="font-size: 13px;">G</text><text y="358" x="373.3333333333333" text-anchor="middle" visibility="hidden" style="font-size: 13px;">T</text><text y="358" x="376.44444444444446" text-anchor="middle" visibility="hidden" style="font-size: 13px;">Y</text><text y="358" x="379.5555555555556" text-anchor="middle" visibility="hidden" style="font-size: 13px;">L</text><text y="358" x="382.66666666666663" text-anchor="middle" visibility="hidden" style="font-size: 13px;">R</text><text y="358" x="385.77777777777777" text-anchor="middle" visibility="hidden" style="font-size: 13px;">V</text><text y="358" x="388.8888888888889" text-anchor="middle" visibility="hidden" style="font-size: 13px;">R</text><text y="358" x="392.00000000000006" text-anchor="middle" visibility="hidden" style="font-size: 13px;">Q</text><text y="358" x="395.1111111111111" text-anchor="middle" visibility="hidden" style="font-size: 13px;">P</text><text y="358" x="398.22222222222223" text-anchor="middle" visibility="hidden" style="font-size: 13px;">P</text><text y="358" x="401.33333333333337" text-anchor="middle" visibility="hidden" style="font-size: 13px;">P</text><text y="358" x="404.4444444444444" text-anchor="middle" visibility="hidden" style="font-size: 13px;">R</text><text y="358" x="407.55555555555554" text-anchor="middle" visibility="hidden" style="font-size: 13px;">P</text><text y="358" x="410.6666666666667" text-anchor="middle" visibility="hidden" style="font-size: 13px;">F</text><text y="358" x="413.7777777777778" text-anchor="middle" visibility="hidden" style="font-size: 13px;">L</text><text y="358" x="416.88888888888886" text-anchor="middle" visibility="hidden" style="font-size: 13px;">D</text><text y="358" x="420" text-anchor="middle" visibility="hidden" style="font-size: 13px;">M</text><text y="358" x="423.11111111111114" text-anchor="middle" visibility="hidden" style="font-size: 13px;">G</text><text y="358" x="426.22222222222223" text-anchor="middle" visibility="hidden" style="font-size: 13px;">E</text><text y="358" x="429.3333333333333" text-anchor="middle" visibility="hidden" style="font-size: 13px;">G</text><text y="358" x="432.44444444444446" text-anchor="middle" visibility="hidden" style="font-size: 13px;">T</text><text y="358" x="435.55555555555554" text-anchor="middle" visibility="hidden" style="font-size: 13px;">K</text><text y="358" x="438.6666666666667" text-anchor="middle" visibility="hidden" style="font-size: 13px;">N</text><text y="358" x="441.77777777777777" text-anchor="middle" visibility="hidden" style="font-size: 13px;">R</text><text y="358" x="444.88888888888886" text-anchor="middle" visibility="hidden" style="font-size: 13px;">I</text><text y="358" x="448" text-anchor="middle" visibility="hidden" style="font-size: 13px;">I</text><text y="358" x="451.11111111111114" text-anchor="middle" visibility="hidden" style="font-size: 13px;">T</text><text y="358" x="454.2222222222222" text-anchor="middle" visibility="hidden" style="font-size: 13px;">A</text><text y="358" x="457.3333333333333" text-anchor="middle" visibility="hidden" style="font-size: 13px;">E</text><text y="358" x="460.44444444444446" text-anchor="middle" visibility="hidden" style="font-size: 13px;">G</text><text y="358" x="463.5555555555556" text-anchor="middle" visibility="hidden" style="font-size: 13px;">I</text><text y="358" x="466.66666666666663" text-anchor="middle" visibility="hidden" style="font-size: 13px;">I</text><text y="358" x="469.77777777777777" text-anchor="middle" visibility="hidden" style="font-size: 13px;">L</text><text y="358" x="472.8888888888889" text-anchor="middle" visibility="hidden" style="font-size: 13px;">L</text><text y="358" x="476.00000000000006" text-anchor="middle" visibility="hidden" style="font-size: 13px;">F</text><text y="358" x="479.1111111111111" text-anchor="middle" visibility="hidden" style="font-size: 13px;">C</text><text y="358" x="482.22222222222223" text-anchor="middle" visibility="hidden" style="font-size: 13px;">A</text><text y="358" x="485.33333333333337" text-anchor="middle" visibility="hidden" style="font-size: 13px;">V</text><text y="358" x="488.44444444444446" text-anchor="middle" visibility="hidden" style="font-size: 13px;">V</text><text y="358" x="491.55555555555554" text-anchor="middle" visibility="hidden" style="font-size: 13px;">P</text><text y="358" x="494.6666666666667" text-anchor="middle" visibility="hidden" style="font-size: 13px;">G</text><text y="358" x="497.77777777777777" text-anchor="middle" visibility="hidden" style="font-size: 13px;">T</text><text y="358" x="500.88888888888886" text-anchor="middle" visibility="hidden" style="font-size: 13px;">L</text><text y="358" x="504" text-anchor="middle" visibility="hidden" style="font-size: 13px;">L</text><text y="358" x="507.1111111111111" text-anchor="middle" visibility="hidden" style="font-size: 13px;">L</text><text y="358" x="510.22222222222223" text-anchor="middle" visibility="hidden" style="font-size: 13px;">F</text><text y="358" x="513.3333333333333" text-anchor="middle" visibility="hidden" style="font-size: 13px;">R</text><text y="358" x="516.4444444444445" text-anchor="middle" visibility="hidden" style="font-size: 13px;">K</text><text y="358" x="519.5555555555555" text-anchor="middle" visibility="hidden" style="font-size: 13px;">R</text><text y="358" x="522.6666666666667" text-anchor="middle" visibility="hidden" style="font-size: 13px;">W</text><text y="358" x="525.7777777777777" text-anchor="middle" visibility="hidden" style="font-size: 13px;">Q</text><text y="358" x="528.8888888888889" text-anchor="middle" visibility="hidden" style="font-size: 13px;">N</text><text y="358" x="532" text-anchor="middle" visibility="hidden" style="font-size: 13px;">E</text><text y="358" x="535.1111111111111" text-anchor="middle" visibility="hidden" style="font-size: 13px;">K</text><text y="358" x="538.2222222222222" text-anchor="middle" visibility="hidden" style="font-size: 13px;">L</text><text y="358" x="541.3333333333334" text-anchor="middle" visibility="hidden" style="font-size: 13px;">G</text><text y="358" x="544.4444444444445" text-anchor="middle" visibility="hidden" style="font-size: 13px;">L</text><text y="358" x="547.5555555555555" text-anchor="middle" visibility="hidden" style="font-size: 13px;">D</text><text y="358" x="550.6666666666666" text-anchor="middle" visibility="hidden" style="font-size: 13px;">A</text><text y="358" x="553.7777777777777" text-anchor="middle" visibility="hidden" style="font-size: 13px;">G</text><text y="358" x="556.8888888888889" text-anchor="middle" visibility="hidden" style="font-size: 13px;">D</text><text y="358" x="560" text-anchor="middle" visibility="hidden" style="font-size: 13px;">E</text><text y="358" x="563.1111111111111" text-anchor="middle" visibility="hidden" style="font-size: 13px;">Y</text><text y="358" x="566.2222222222222" text-anchor="middle" visibility="hidden" style="font-size: 13px;">E</text><text y="358" x="569.3333333333334" text-anchor="middle" visibility="hidden" style="font-size: 13px;">D</text><text y="358" x="572.4444444444445" text-anchor="middle" visibility="hidden" style="font-size: 13px;">E</text><text y="358" x="575.5555555555555" text-anchor="middle" visibility="hidden" style="font-size: 13px;">N</text><text y="358" x="578.6666666666666" text-anchor="middle" visibility="hidden" style="font-size: 13px;">L</text><text y="358" x="581.7777777777778" text-anchor="middle" visibility="hidden" style="font-size: 13px;">Y</text><text y="358" x="584.8888888888889" text-anchor="middle" visibility="hidden" style="font-size: 13px;">E</text><text y="358" x="588" text-anchor="middle" visibility="hidden" style="font-size: 13px;">G</text><text y="358" x="591.1111111111111" text-anchor="middle" visibility="hidden" style="font-size: 13px;">L</text><text y="358" x="594.2222222222223" text-anchor="middle" visibility="hidden" style="font-size: 13px;">N</text><text y="358" x="597.3333333333334" text-anchor="middle" visibility="hidden" style="font-size: 13px;">L</text><text y="358" x="600.4444444444445" text-anchor="middle" visibility="hidden" style="font-size: 13px;">D</text><text y="358" x="603.5555555555555" text-anchor="middle" visibility="hidden" style="font-size: 13px;">D</text><text y="358" x="606.6666666666667" text-anchor="middle" visibility="hidden" style="font-size: 13px;">C</text><text y="358" x="609.7777777777777" text-anchor="middle" visibility="hidden" style="font-size: 13px;">S</text><text y="358" x="612.8888888888889" text-anchor="middle" visibility="hidden" style="font-size: 13px;">M</text><text y="358" x="616" text-anchor="middle" visibility="hidden" style="font-size: 13px;">Y</text><text y="358" x="619.1111111111111" text-anchor="middle" visibility="hidden" style="font-size: 13px;">E</text><text y="358" x="622.2222222222222" text-anchor="middle" visibility="hidden" style="font-size: 13px;">D</text><text y="358" x="625.3333333333334" text-anchor="middle" visibility="hidden" style="font-size: 13px;">I</text><text y="358" x="628.4444444444445" text-anchor="middle" visibility="hidden" style="font-size: 13px;">S</text><text y="358" x="631.5555555555555" text-anchor="middle" visibility="hidden" style="font-size: 13px;">R</text><text y="358" x="634.6666666666666" text-anchor="middle" visibility="hidden" style="font-size: 13px;">G</text><text y="358" x="637.7777777777777" text-anchor="middle" visibility="hidden" style="font-size: 13px;">L</text><text y="358" x="640.8888888888889" text-anchor="middle" visibility="hidden" style="font-size: 13px;">Q</text><text y="358" x="644" text-anchor="middle" visibility="hidden" style="font-size: 13px;">G</text><text y="358" x="647.1111111111111" text-anchor="middle" visibility="hidden" style="font-size: 13px;">T</text><text y="358" x="650.2222222222222" text-anchor="middle" visibility="hidden" style="font-size: 13px;">Y</text><text y="358" x="653.3333333333334" text-anchor="middle" visibility="hidden" style="font-size: 13px;">Q</text><text y="358" x="656.4444444444445" text-anchor="middle" visibility="hidden" style="font-size: 13px;">D</text><text y="358" x="659.5555555555555" text-anchor="middle" visibility="hidden" style="font-size: 13px;">V</text><text y="358" x="662.6666666666666" text-anchor="middle" visibility="hidden" style="font-size: 13px;">G</text><text y="358" x="665.7777777777778" text-anchor="middle" visibility="hidden" style="font-size: 13px;">S</text><text y="358" x="668.8888888888889" text-anchor="middle" visibility="hidden" style="font-size: 13px;">L</text><text y="358" x="672" text-anchor="middle" visibility="hidden" style="font-size: 13px;">N</text><text y="358" x="675.1111111111111" text-anchor="middle" visibility="hidden" style="font-size: 13px;">I</text><text y="358" x="678.2222222222223" text-anchor="middle" visibility="hidden" style="font-size: 13px;">G</text><text y="358" x="681.3333333333334" text-anchor="middle" visibility="hidden" style="font-size: 13px;">D</text><text y="358" x="684.4444444444445" text-anchor="middle" visibility="hidden" style="font-size: 13px;">V</text><text y="358" x="687.5555555555555" text-anchor="middle" visibility="hidden" style="font-size: 13px;">Q</text><text y="358" x="690.6666666666666" text-anchor="middle" visibility="hidden" style="font-size: 13px;">L</text><text y="358" x="693.7777777777778" text-anchor="middle" visibility="hidden" style="font-size: 13px;">E</text><text y="358" x="696.8888888888889" text-anchor="middle" visibility="hidden" style="font-size: 13px;">K</text><text y="358" x="700" text-anchor="middle" visibility="hidden" style="font-size: 13px;">P</text></g></g></svg><g class="xAxis" transform="translate(0,360)" fill="none" font-size="10" font-family="sans-serif" text-anchor="middle"><path class="domain" stroke="#000" d="M0.5,6V0.5H700.5V6"></path><g class="tick" opacity="1" transform="translate(59.611111111111114,0)"><line stroke="#000" y2="6"></line><text fill="#000" y="9" dy="0.71em">20</text></g><g class="tick" opacity="1" transform="translate(121.83333333333334,0)"><line stroke="#000" y2="6"></line><text fill="#000" y="9" dy="0.71em">40</text></g><g class="tick" opacity="1" transform="translate(184.05555555555557,0)"><line stroke="#000" y2="6"></line><text fill="#000" y="9" dy="0.71em">60</text></g><g class="tick" opacity="1" transform="translate(246.27777777777777,0)"><line stroke="#000" y2="6"></line><text fill="#000" y="9" dy="0.71em">80</text></g><g class="tick" opacity="1" transform="translate(308.5,0)"><line stroke="#000" y2="6"></line><text fill="#000" y="9" dy="0.71em">100</text></g><g class="tick" opacity="1" transform="translate(370.7222222222222,0)"><line stroke="#000" y2="6"></line><text fill="#000" y="9" dy="0.71em">120</text></g><g class="tick" opacity="1" transform="translate(432.94444444444446,0)"><line stroke="#000" y2="6"></line><text fill="#000" y="9" dy="0.71em">140</text></g><g class="tick" opacity="1" transform="translate(495.1666666666667,0)"><line stroke="#000" y2="6"></line><text fill="#000" y="9" dy="0.71em">160</text></g><g class="tick" opacity="1" transform="translate(557.3888888888889,0)"><line stroke="#000" y2="6"></line><text fill="#000" y="9" dy="0.71em">180</text></g><g class="tick" opacity="1" transform="translate(619.6111111111111,0)"><line stroke="#000" y2="6"></line><text fill="#000" y="9" dy="0.71em">200</text></g><g class="tick" opacity="1" transform="translate(681.8333333333334,0)"><line stroke="#000" y2="6"></line><text fill="#000" y="9" dy="0.71em">220</text></g></g><text class="x label" text-anchor="end" x="700" y="390" style="font-size: 13px; font-family: Arial;">Residue number</text><g class="yAxis" fill="none" font-size="10" font-family="sans-serif" text-anchor="end"><path class="domain" stroke="#000" d="M-6,360.5H0.5V0.5H-6"></path><g class="tick" opacity="1" transform="translate(0,327.77272727272725)"><line stroke="#000" x2="-6"></line><text fill="#000" x="-9" dy="0.32em">0</text></g><g class="tick" opacity="1" transform="translate(0,290.58264462809916)"><line stroke="#000" x2="-6"></line><text fill="#000" x="-9" dy="0.32em">5</text></g><g class="tick" opacity="1" transform="translate(0,253.39256198347107)"><line stroke="#000" x2="-6"></line><text fill="#000" x="-9" dy="0.32em">10</text></g><g class="tick" opacity="1" transform="translate(0,216.20247933884298)"><line stroke="#000" x2="-6"></line><text fill="#000" x="-9" dy="0.32em">15</text></g><g class="tick" opacity="1" transform="translate(0,179.01239669421489)"><line stroke="#000" x2="-6"></line><text fill="#000" x="-9" dy="0.32em">20</text></g><g class="tick" opacity="1" transform="translate(0,141.8223140495868)"><line stroke="#000" x2="-6"></line><text fill="#000" x="-9" dy="0.32em">25</text></g><g class="tick" opacity="1" transform="translate(0,104.6322314049587)"><line stroke="#000" x2="-6"></line><text fill="#000" x="-9" dy="0.32em">30</text></g><g class="tick" opacity="1" transform="translate(0,67.44214876033061)"><line stroke="#000" x2="-6"></line><text fill="#000" x="-9" dy="0.32em">35</text></g><g class="tick" opacity="1" transform="translate(0,30.25206611570252)"><line stroke="#000" x2="-6"></line><text fill="#000" x="-9" dy="0.32em">40</text></g></g><text class="y label" text-anchor="middle" y="-50" x="-180" dy="0.8em" transform="rotate(-90)" style="font-size: 13px; font-family: Arial;">Total number of references</text><g class="axisRed" fill="none" font-size="10" font-family="sans-serif" text-anchor="start" visibility="hidden" transform="translate(700, 0)"><path class="domain" stroke="#000" d="M6,360.5H0.5V0.5H6"></path><g class="tick" opacity="1" transform="translate(0,360.5)"><line stroke="#000" x2="6"></line><text fill="#000" x="9" dy="0.32em">0</text></g><text text-anchor="start" dx="5.2em" dy="-2.6em" transform="rotate(90)" visibility="hidden" style="font-size: 12px; font-family: Arial; fill: #d7301f;">No recurrent (&gt;2) missense mutations!</text></g><g class="axisPurple" fill="none" font-size="10" font-family="sans-serif" text-anchor="start" visibility="hidden"><path class="domain" stroke="#000" d="M6,360.5H0.5V0.5H6"></path><g class="tick" opacity="1" transform="translate(0,357.52479338842977)"><line stroke="#000" x2="6"></line><text fill="#000" x="9" dy="0.32em"></text></g><g class="tick" opacity="1" transform="translate(0,327.77272727272725)"><line stroke="#000" x2="6"></line><text fill="#000" x="9" dy="0.32em">0</text></g><g class="tick" opacity="1" transform="translate(0,298.0206611570248)"><line stroke="#000" x2="6"></line><text fill="#000" x="9" dy="0.32em">0.1</text></g><g class="tick" opacity="1" transform="translate(0,268.2685950413223)"><line stroke="#000" x2="6"></line><text fill="#000" x="9" dy="0.32em">0.2</text></g><g class="tick" opacity="1" transform="translate(0,238.51652892561984)"><line stroke="#000" x2="6"></line><text fill="#000" x="9" dy="0.32em">0.3</text></g><g class="tick" opacity="1" transform="translate(0,208.76446280991738)"><line stroke="#000" x2="6"></line><text fill="#000" x="9" dy="0.32em">0.4</text></g><g class="tick" opacity="1" transform="translate(0,179.0123966942149)"><line stroke="#000" x2="6"></line><text fill="#000" x="9" dy="0.32em">0.5</text></g><g class="tick" opacity="1" transform="translate(0,149.26033057851242)"><line stroke="#000" x2="6"></line><text fill="#000" x="9" dy="0.32em">0.6</text></g><g class="tick" opacity="1" transform="translate(0,119.50826446280996)"><line stroke="#000" x2="6"></line><text fill="#000" x="9" dy="0.32em">0.7</text></g><g class="tick" opacity="1" transform="translate(0,89.75619834710744)"><line stroke="#000" x2="6"></line><text fill="#000" x="9" dy="0.32em">0.8</text></g><g class="tick" opacity="1" transform="translate(0,60.00413223140498)"><line stroke="#000" x2="6"></line><text fill="#000" x="9" dy="0.32em">0.9</text></g><g class="tick" opacity="1" transform="translate(0,30.25206611570252)"><line stroke="#000" x2="6"></line><text fill="#000" x="9" dy="0.32em">1</text></g><g class="tick" opacity="1" transform="translate(0,0.5)"><line stroke="#000" x2="6"></line><text fill="#000" x="9" dy="0.32em">1.1</text></g><text text-anchor="start" x="10" y="10" visibility="hidden" style="font-size: 12px; font-family: Arial; fill: #807dba;">No disease causing germline SNPs known!</text></g><circle cx="636" cy="15" r="10" class="compassNav" style="fill: #ffffff; stroke: #666666; stroke-width: 1px;"></circle><path d="M440.935 12.574l3.966 82.766C399.416 41.904 331.674 8 256 8 134.813 8 33.933 94.924 12.296 209.824 10.908 217.193 16.604 224 24.103 224h49.084c5.57 0 10.377-3.842 11.676-9.259C103.407 137.408 172.931 80 256 80c60.893 0 114.512 30.856 146.104 77.801l-101.53-4.865c-6.845-.328-12.574 5.133-12.574 11.986v47.411c0 6.627 5.373 12 12 12h200.333c6.627 0 12-5.373 12-12V12c0-6.627-5.373-12-12-12h-47.411c-6.853 0-12.315 5.729-11.987 12.574zM256 432c-60.895 0-114.517-30.858-146.109-77.805l101.868 4.871c6.845.327 12.573-5.134 12.573-11.986v-47.412c0-6.627-5.373-12-12-12H12c-6.627 0-12 5.373-12 12V500c0 6.627 5.373 12 12 12h47.385c6.863 0 12.328-5.745 11.985-12.599l-4.129-82.575C112.725 470.166 180.405 504 256 504c121.187 0 222.067-86.924 243.704-201.824 1.388-7.369-4.308-14.176-11.807-14.176h-49.084c-5.57 0-10.377 3.842-11.676 9.259C408.593 374.592 339.069 432 256 432z" class="compassNav" transform="translate(631, 10) scale(0.02)" style="fill: #666666; stroke: #666666; stroke-width: 1px;"></path><circle cx="658" cy="15" r="10" class="compassNav" style="fill: #ffffff; stroke: #666666; stroke-width: 1px;"></circle><line class="compassNav" stroke-width="2" stroke="#666666" x1="654" y1="15" x2="662" y2="15"></line><line class="compassNav" stroke-width="2" stroke="#666666" x1="658" y1="11" x2="658" y2="19"></line><circle cx="614" cy="15" r="10" class="compassNav" style="fill: #ffffff; stroke: #666666; stroke-width: 1px;"></circle><line class="compassNav" stroke-width="2" stroke="#666666" x1="610" y1="15" x2="618" y2="15"></line><path d="M582 14 l20 -12 a100,40 0 0,0 0,24z" class="compassNav" style="fill: #ffffff; stroke: #666666; stroke-width: 1px;"></path><path d="M690 14 l-20 -12 a100,40 0 0,1 0,24z" class="compassNav" style="fill: #ffffff; stroke: #666666; stroke-width: 1px;"></path><path d="M216 0h80c13.3 0 24 10.7 24 24v168h87.7c17.8 0 26.7 21.5 14.1 34.1L269.7 378.3c-7.5 7.5-19.8 7.5-27.3 0L90.1 226.1c-12.6-12.6-3.7-34.1 14.1-34.1H192V24c0-13.3 10.7-24 24-24zm296 376v112c0 13.3-10.7 24-24 24H24c-13.3 0-24-10.7-24-24V376c0-13.3 10.7-24 24-24h146.7l49 49c20.1 20.1 52.5 20.1 72.6 0l49-49H488c13.3 0 24 10.7 24 24zm-124 88c0-11-9-20-20-20s-20 9-20 20 9 20 20 20 20-9 20-20zm64 0c0-11-9-20-20-20s-20 9-20 20 9 20 20 20 20-9 20-20z" class="compassNav" transform="translate(552,0) scale(0.05)" style="fill: #336699; stroke: #336699; stroke-width: 1px; cursor: pointer;"></path></g></svg>