<svg width="800" height="400" style="background-color: white;"><g transform="translate(50,0)"><svg width="700" height="360"><g style="-webkit-tap-highlight-color: rgba(0, 0, 0, 0);"><rect width="700" height="360" style="fill: #ffffff;"></rect><g id="lines"><line class="line" stroke-width="1" stroke="#d7301f" x1="-253.40501792114694" y1="333" x2="-253.40501792114694" y2="360" visibility="hidden" style="stroke-dasharray: 3px, 3px;"></line></g><g><rect x="-258.40501792114696" y="355" width="10" height="10" visibility="hidden" style="fill: #ffffff; stroke: #d7301f;"></rect></g><g id="lines"><line class="line" stroke-width="1" stroke="#6a51a3" x1="-253.40501792114694" y1="333" x2="-253.40501792114694" y2="327.27272727272725" visibility="hidden" style="stroke-dasharray: 3px, 3px;"></line></g><g><rect x="-258.40501792114696" y="322.27272727272725" width="10" height="10" visibility="hidden" style="fill: #ffffff; stroke: #6a51a3;"></rect></g><g id="lines"><line class="line" stroke-width="1" stroke="#666666" x1="60.215053763440864" y1="333" x2="60.215053763440864" y2="284.7697756788666"></line><line class="line" stroke-width="1" stroke="#666666" x1="87.81362007168458" y1="333" x2="87.81362007168458" y2="29.75206611570252"></line><line class="line" stroke-width="1" stroke="#666666" x1="333.69175627240145" y1="333" x2="333.69175627240145" y2="199.76387249114524"></line><line class="line" stroke-width="1" stroke="#666666" x1="649.820788530466" y1="333" x2="649.820788530466" y2="199.76387249114524"></line><line class="line" stroke-width="1" stroke="#666666" x1="689.9641577060931" y1="333" x2="689.9641577060931" y2="72.25501770956322"></line></g><g id="circles"><circle r="4" cx="60.215053763440864" cy="284.7697756788666" style="fill: #4393c3; stroke: #666666; stroke-width: 1px;"></circle><circle r="4" cx="87.81362007168458" cy="29.75206611570252" style="fill: #4393c3; stroke: #666666; stroke-width: 1px;"></circle><circle r="4" cx="333.69175627240145" cy="199.76387249114524" style="fill: #4393c3; stroke: #666666; stroke-width: 1px;"></circle><circle r="4" cx="649.820788530466" cy="199.76387249114524" style="fill: #4393c3; stroke: #666666; stroke-width: 1px;"></circle><circle r="4" cx="689.9641577060931" cy="72.25501770956322" style="fill: #4393c3; stroke: #666666; stroke-width: 1px;"></circle></g><g><rect x="0" y="333" width="700" height="12" style="fill: #ffffff; stroke-width: 1px; stroke: #666666;"></rect><rect x="376.34408602150535" y="333" width="130.46594982078852" height="12" style="fill: #aec7e8; stroke-width: 1px; stroke: #666666;"></rect></g><g><a target="_blank" xlink:href="http://pfam.xfam.org/family/"><text y="343" x="350" text-anchor="middle" style="color: rgb(102, 102, 102); font-weight: normal; font-size: 12px; font-family: Arial; cursor: pointer;"></text></a><a target="_blank" xlink:href="http://pfam.xfam.org/family/HLH"><text y="343" x="441.5770609318996" text-anchor="middle" style="color: rgb(102, 102, 102); font-weight: normal; font-size: 12px; font-family: Arial; cursor: pointer;">HLH</text></a></g><g><text y="358" x="0" text-anchor="middle" visibility="hidden" style="font-size: 13px;">M</text><text y="358" x="2.5089605734767026" text-anchor="middle" visibility="hidden" style="font-size: 13px;">C</text><text y="358" x="5.017921146953405" text-anchor="middle" visibility="hidden" style="font-size: 13px;">P</text><text y="358" x="7.526881720430108" text-anchor="middle" visibility="hidden" style="font-size: 13px;">P</text><text y="358" x="10.03584229390681" text-anchor="middle" visibility="hidden" style="font-size: 13px;">Q</text><text y="358" x="12.544802867383511" text-anchor="middle" visibility="hidden" style="font-size: 13px;">A</text><text y="358" x="15.053763440860216" text-anchor="middle" visibility="hidden" style="font-size: 13px;">Q</text><text y="358" x="17.56272401433692" text-anchor="middle" visibility="hidden" style="font-size: 13px;">A</text><text y="358" x="20.07168458781362" text-anchor="middle" visibility="hidden" style="font-size: 13px;">E</text><text y="358" x="22.58064516129032" text-anchor="middle" visibility="hidden" style="font-size: 13px;">V</text><text y="358" x="25.089605734767023" text-anchor="middle" visibility="hidden" style="font-size: 13px;">G</text><text y="358" x="27.598566308243726" text-anchor="middle" visibility="hidden" style="font-size: 13px;">P</text><text y="358" x="30.107526881720432" text-anchor="middle" visibility="hidden" style="font-size: 13px;">T</text><text y="358" x="32.61648745519713" text-anchor="middle" visibility="hidden" style="font-size: 13px;">M</text><text y="358" x="35.12544802867384" text-anchor="middle" visibility="hidden" style="font-size: 13px;">T</text><text y="358" x="37.634408602150536" text-anchor="middle" visibility="hidden" style="font-size: 13px;">E</text><text y="358" x="40.14336917562724" text-anchor="middle" visibility="hidden" style="font-size: 13px;">K</text><text y="358" x="42.65232974910394" text-anchor="middle" visibility="hidden" style="font-size: 13px;">A</text><text y="358" x="45.16129032258064" text-anchor="middle" visibility="hidden" style="font-size: 13px;">E</text><text y="358" x="47.670250896057354" text-anchor="middle" visibility="hidden" style="font-size: 13px;">M</text><text y="358" x="50.179211469534046" text-anchor="middle" visibility="hidden" style="font-size: 13px;">V</text><text y="358" x="52.68817204301075" text-anchor="middle" visibility="hidden" style="font-size: 13px;">C</text><text y="358" x="55.19713261648745" text-anchor="middle" visibility="hidden" style="font-size: 13px;">A</text><text y="358" x="57.70609318996416" text-anchor="middle" visibility="hidden" style="font-size: 13px;">P</text><text y="358" x="60.215053763440864" text-anchor="middle" visibility="hidden" style="font-size: 13px;">S</text><text y="358" x="62.72401433691756" text-anchor="middle" visibility="hidden" style="font-size: 13px;">P</text><text y="358" x="65.23297491039426" text-anchor="middle" visibility="hidden" style="font-size: 13px;">A</text><text y="358" x="67.74193548387096" text-anchor="middle" visibility="hidden" style="font-size: 13px;">P</text><text y="358" x="70.25089605734767" text-anchor="middle" visibility="hidden" style="font-size: 13px;">A</text><text y="358" x="72.75985663082437" text-anchor="middle" visibility="hidden" style="font-size: 13px;">P</text><text y="358" x="75.26881720430107" text-anchor="middle" visibility="hidden" style="font-size: 13px;">P</text><text y="358" x="77.77777777777777" text-anchor="middle" visibility="hidden" style="font-size: 13px;">P</text><text y="358" x="80.28673835125448" text-anchor="middle" visibility="hidden" style="font-size: 13px;">K</text><text y="358" x="82.79569892473118" text-anchor="middle" visibility="hidden" style="font-size: 13px;">P</text><text y="358" x="85.30465949820788" text-anchor="middle" visibility="hidden" style="font-size: 13px;">A</text><text y="358" x="87.81362007168458" text-anchor="middle" visibility="hidden" style="font-size: 13px;">S</text><text y="358" x="90.32258064516128" text-anchor="middle" visibility="hidden" style="font-size: 13px;">P</text><text y="358" x="92.831541218638" text-anchor="middle" visibility="hidden" style="font-size: 13px;">G</text><text y="358" x="95.34050179211471" text-anchor="middle" visibility="hidden" style="font-size: 13px;">P</text><text y="358" x="97.84946236559139" text-anchor="middle" visibility="hidden" style="font-size: 13px;">P</text><text y="358" x="100.35842293906809" text-anchor="middle" visibility="hidden" style="font-size: 13px;">Q</text><text y="358" x="102.8673835125448" text-anchor="middle" visibility="hidden" style="font-size: 13px;">V</text><text y="358" x="105.3763440860215" text-anchor="middle" visibility="hidden" style="font-size: 13px;">E</text><text y="358" x="107.88530465949822" text-anchor="middle" visibility="hidden" style="font-size: 13px;">E</text><text y="358" x="110.3942652329749" text-anchor="middle" visibility="hidden" style="font-size: 13px;">V</text><text y="358" x="112.90322580645162" text-anchor="middle" visibility="hidden" style="font-size: 13px;">G</text><text y="358" x="115.41218637992831" text-anchor="middle" visibility="hidden" style="font-size: 13px;">H</text><text y="358" x="117.92114695340503" text-anchor="middle" visibility="hidden" style="font-size: 13px;">R</text><text y="358" x="120.43010752688173" text-anchor="middle" visibility="hidden" style="font-size: 13px;">G</text><text y="358" x="122.93906810035841" text-anchor="middle" visibility="hidden" style="font-size: 13px;">G</text><text y="358" x="125.44802867383513" text-anchor="middle" visibility="hidden" style="font-size: 13px;">S</text><text y="358" x="127.95698924731182" text-anchor="middle" visibility="hidden" style="font-size: 13px;">S</text><text y="358" x="130.46594982078852" text-anchor="middle" visibility="hidden" style="font-size: 13px;">P</text><text y="358" x="132.97491039426524" text-anchor="middle" visibility="hidden" style="font-size: 13px;">P</text><text y="358" x="135.48387096774192" text-anchor="middle" visibility="hidden" style="font-size: 13px;">R</text><text y="358" x="137.99283154121864" text-anchor="middle" visibility="hidden" style="font-size: 13px;">L</text><text y="358" x="140.50179211469535" text-anchor="middle" visibility="hidden" style="font-size: 13px;">P</text><text y="358" x="143.01075268817206" text-anchor="middle" visibility="hidden" style="font-size: 13px;">P</text><text y="358" x="145.51971326164875" text-anchor="middle" visibility="hidden" style="font-size: 13px;">G</text><text y="358" x="148.02867383512546" text-anchor="middle" visibility="hidden" style="font-size: 13px;">V</text><text y="358" x="150.53763440860214" text-anchor="middle" visibility="hidden" style="font-size: 13px;">P</text><text y="358" x="153.04659498207886" text-anchor="middle" visibility="hidden" style="font-size: 13px;">V</text><text y="358" x="155.55555555555554" text-anchor="middle" visibility="hidden" style="font-size: 13px;">I</text><text y="358" x="158.06451612903226" text-anchor="middle" visibility="hidden" style="font-size: 13px;">S</text><text y="358" x="160.57347670250897" text-anchor="middle" visibility="hidden" style="font-size: 13px;">L</text><text y="358" x="163.08243727598565" text-anchor="middle" visibility="hidden" style="font-size: 13px;">G</text><text y="358" x="165.59139784946237" text-anchor="middle" visibility="hidden" style="font-size: 13px;">H</text><text y="358" x="168.10035842293905" text-anchor="middle" visibility="hidden" style="font-size: 13px;">S</text><text y="358" x="170.60931899641577" text-anchor="middle" visibility="hidden" style="font-size: 13px;">R</text><text y="358" x="173.11827956989248" text-anchor="middle" visibility="hidden" style="font-size: 13px;">P</text><text y="358" x="175.62724014336916" text-anchor="middle" visibility="hidden" style="font-size: 13px;">P</text><text y="358" x="178.13620071684588" text-anchor="middle" visibility="hidden" style="font-size: 13px;">G</text><text y="358" x="180.64516129032256" text-anchor="middle" visibility="hidden" style="font-size: 13px;">V</text><text y="358" x="183.1541218637993" text-anchor="middle" visibility="hidden" style="font-size: 13px;">A</text><text y="358" x="185.663082437276" text-anchor="middle" visibility="hidden" style="font-size: 13px;">M</text><text y="358" x="188.17204301075267" text-anchor="middle" visibility="hidden" style="font-size: 13px;">P</text><text y="358" x="190.68100358422942" text-anchor="middle" visibility="hidden" style="font-size: 13px;">T</text><text y="358" x="193.1899641577061" text-anchor="middle" visibility="hidden" style="font-size: 13px;">T</text><text y="358" x="195.69892473118279" text-anchor="middle" visibility="hidden" style="font-size: 13px;">E</text><text y="358" x="198.2078853046595" text-anchor="middle" visibility="hidden" style="font-size: 13px;">L</text><text y="358" x="200.71684587813618" text-anchor="middle" visibility="hidden" style="font-size: 13px;">G</text><text y="358" x="203.22580645161293" text-anchor="middle" visibility="hidden" style="font-size: 13px;">T</text><text y="358" x="205.7347670250896" text-anchor="middle" visibility="hidden" style="font-size: 13px;">L</text><text y="358" x="208.2437275985663" text-anchor="middle" visibility="hidden" style="font-size: 13px;">R</text><text y="358" x="210.752688172043" text-anchor="middle" visibility="hidden" style="font-size: 13px;">P</text><text y="358" x="213.2616487455197" text-anchor="middle" visibility="hidden" style="font-size: 13px;">P</text><text y="358" x="215.77060931899643" text-anchor="middle" visibility="hidden" style="font-size: 13px;">L</text><text y="358" x="218.27956989247312" text-anchor="middle" visibility="hidden" style="font-size: 13px;">L</text><text y="358" x="220.7885304659498" text-anchor="middle" visibility="hidden" style="font-size: 13px;">Q</text><text y="358" x="223.29749103942652" text-anchor="middle" visibility="hidden" style="font-size: 13px;">L</text><text y="358" x="225.80645161290323" text-anchor="middle" visibility="hidden" style="font-size: 13px;">S</text><text y="358" x="228.31541218637994" text-anchor="middle" visibility="hidden" style="font-size: 13px;">T</text><text y="358" x="230.82437275985663" text-anchor="middle" visibility="hidden" style="font-size: 13px;">L</text><text y="358" x="233.33333333333331" text-anchor="middle" visibility="hidden" style="font-size: 13px;">G</text><text y="358" x="235.84229390681006" text-anchor="middle" visibility="hidden" style="font-size: 13px;">T</text><text y="358" x="238.35125448028674" text-anchor="middle" visibility="hidden" style="font-size: 13px;">A</text><text y="358" x="240.86021505376345" text-anchor="middle" visibility="hidden" style="font-size: 13px;">P</text><text y="358" x="243.36917562724014" text-anchor="middle" visibility="hidden" style="font-size: 13px;">P</text><text y="358" x="245.87813620071682" text-anchor="middle" visibility="hidden" style="font-size: 13px;">T</text><text y="358" x="248.38709677419357" text-anchor="middle" visibility="hidden" style="font-size: 13px;">L</text><text y="358" x="250.89605734767025" text-anchor="middle" visibility="hidden" style="font-size: 13px;">A</text><text y="358" x="253.40501792114694" text-anchor="middle" visibility="hidden" style="font-size: 13px;">L</text><text y="358" x="255.91397849462365" text-anchor="middle" visibility="hidden" style="font-size: 13px;">H</text><text y="358" x="258.42293906810033" text-anchor="middle" visibility="hidden" style="font-size: 13px;">Y</text><text y="358" x="260.93189964157705" text-anchor="middle" visibility="hidden" style="font-size: 13px;">H</text><text y="358" x="263.44086021505376" text-anchor="middle" visibility="hidden" style="font-size: 13px;">P</text><text y="358" x="265.9498207885305" text-anchor="middle" visibility="hidden" style="font-size: 13px;">H</text><text y="358" x="268.4587813620072" text-anchor="middle" visibility="hidden" style="font-size: 13px;">P</text><text y="358" x="270.96774193548384" text-anchor="middle" visibility="hidden" style="font-size: 13px;">F</text><text y="358" x="273.4767025089606" text-anchor="middle" visibility="hidden" style="font-size: 13px;">L</text><text y="358" x="275.98566308243727" text-anchor="middle" visibility="hidden" style="font-size: 13px;">N</text><text y="358" x="278.494623655914" text-anchor="middle" visibility="hidden" style="font-size: 13px;">S</text><text y="358" x="281.0035842293907" text-anchor="middle" visibility="hidden" style="font-size: 13px;">V</text><text y="358" x="283.51254480286735" text-anchor="middle" visibility="hidden" style="font-size: 13px;">Y</text><text y="358" x="286.0215053763441" text-anchor="middle" visibility="hidden" style="font-size: 13px;">I</text><text y="358" x="288.5304659498208" text-anchor="middle" visibility="hidden" style="font-size: 13px;">G</text><text y="358" x="291.0394265232975" text-anchor="middle" visibility="hidden" style="font-size: 13px;">P</text><text y="358" x="293.5483870967742" text-anchor="middle" visibility="hidden" style="font-size: 13px;">A</text><text y="358" x="296.0573476702509" text-anchor="middle" visibility="hidden" style="font-size: 13px;">G</text><text y="358" x="298.5663082437276" text-anchor="middle" visibility="hidden" style="font-size: 13px;">P</text><text y="358" x="301.0752688172043" text-anchor="middle" visibility="hidden" style="font-size: 13px;">F</text><text y="358" x="303.584229390681" text-anchor="middle" visibility="hidden" style="font-size: 13px;">S</text><text y="358" x="306.0931899641577" text-anchor="middle" visibility="hidden" style="font-size: 13px;">I</text><text y="358" x="308.60215053763443" text-anchor="middle" visibility="hidden" style="font-size: 13px;">F</text><text y="358" x="311.1111111111111" text-anchor="middle" visibility="hidden" style="font-size: 13px;">P</text><text y="358" x="313.6200716845878" text-anchor="middle" visibility="hidden" style="font-size: 13px;">S</text><text y="358" x="316.1290322580645" text-anchor="middle" visibility="hidden" style="font-size: 13px;">S</text><text y="358" x="318.6379928315412" text-anchor="middle" visibility="hidden" style="font-size: 13px;">R</text><text y="358" x="321.14695340501794" text-anchor="middle" visibility="hidden" style="font-size: 13px;">L</text><text y="358" x="323.6559139784946" text-anchor="middle" visibility="hidden" style="font-size: 13px;">K</text><text y="358" x="326.1648745519713" text-anchor="middle" visibility="hidden" style="font-size: 13px;">R</text><text y="358" x="328.673835125448" text-anchor="middle" visibility="hidden" style="font-size: 13px;">R</text><text y="358" x="331.18279569892474" text-anchor="middle" visibility="hidden" style="font-size: 13px;">P</text><text y="358" x="333.69175627240145" text-anchor="middle" visibility="hidden" style="font-size: 13px;">S</text><text y="358" x="336.2007168458781" text-anchor="middle" visibility="hidden" style="font-size: 13px;">H</text><text y="358" x="338.7096774193549" text-anchor="middle" visibility="hidden" style="font-size: 13px;">C</text><text y="358" x="341.21863799283153" text-anchor="middle" visibility="hidden" style="font-size: 13px;">E</text><text y="358" x="343.72759856630825" text-anchor="middle" visibility="hidden" style="font-size: 13px;">L</text><text y="358" x="346.23655913978496" text-anchor="middle" visibility="hidden" style="font-size: 13px;">D</text><text y="358" x="348.7455197132616" text-anchor="middle" visibility="hidden" style="font-size: 13px;">L</text><text y="358" x="351.2544802867383" text-anchor="middle" visibility="hidden" style="font-size: 13px;">A</text><text y="358" x="353.76344086021504" text-anchor="middle" visibility="hidden" style="font-size: 13px;">E</text><text y="358" x="356.27240143369175" text-anchor="middle" visibility="hidden" style="font-size: 13px;">G</text><text y="358" x="358.7813620071684" text-anchor="middle" visibility="hidden" style="font-size: 13px;">H</text><text y="358" x="361.2903225806451" text-anchor="middle" visibility="hidden" style="font-size: 13px;">Q</text><text y="358" x="363.7992831541219" text-anchor="middle" visibility="hidden" style="font-size: 13px;">P</text><text y="358" x="366.3082437275986" text-anchor="middle" visibility="hidden" style="font-size: 13px;">Q</text><text y="358" x="368.81720430107526" text-anchor="middle" visibility="hidden" style="font-size: 13px;">K</text><text y="358" x="371.326164874552" text-anchor="middle" visibility="hidden" style="font-size: 13px;">V</text><text y="358" x="373.8351254480287" text-anchor="middle" visibility="hidden" style="font-size: 13px;">A</text><text y="358" x="376.34408602150535" text-anchor="middle" visibility="hidden" style="font-size: 13px;">R</text><text y="358" x="378.85304659498206" text-anchor="middle" visibility="hidden" style="font-size: 13px;">R</text><text y="358" x="381.36200716845883" text-anchor="middle" visibility="hidden" style="font-size: 13px;">V</text><text y="358" x="383.87096774193543" text-anchor="middle" visibility="hidden" style="font-size: 13px;">F</text><text y="358" x="386.3799283154122" text-anchor="middle" visibility="hidden" style="font-size: 13px;">T</text><text y="358" x="388.8888888888889" text-anchor="middle" visibility="hidden" style="font-size: 13px;">N</text><text y="358" x="391.39784946236557" text-anchor="middle" visibility="hidden" style="font-size: 13px;">S</text><text y="358" x="393.9068100358423" text-anchor="middle" visibility="hidden" style="font-size: 13px;">R</text><text y="358" x="396.415770609319" text-anchor="middle" visibility="hidden" style="font-size: 13px;">E</text><text y="358" x="398.9247311827957" text-anchor="middle" visibility="hidden" style="font-size: 13px;">R</text><text y="358" x="401.43369175627237" text-anchor="middle" visibility="hidden" style="font-size: 13px;">W</text><text y="358" x="403.9426523297491" text-anchor="middle" visibility="hidden" style="font-size: 13px;">R</text><text y="358" x="406.45161290322585" text-anchor="middle" visibility="hidden" style="font-size: 13px;">Q</text><text y="358" x="408.9605734767025" text-anchor="middle" visibility="hidden" style="font-size: 13px;">Q</text><text y="358" x="411.4695340501792" text-anchor="middle" visibility="hidden" style="font-size: 13px;">N</text><text y="358" x="413.97849462365593" text-anchor="middle" visibility="hidden" style="font-size: 13px;">V</text><text y="358" x="416.4874551971326" text-anchor="middle" visibility="hidden" style="font-size: 13px;">N</text><text y="358" x="418.9964157706093" text-anchor="middle" visibility="hidden" style="font-size: 13px;">G</text><text y="358" x="421.505376344086" text-anchor="middle" visibility="hidden" style="font-size: 13px;">A</text><text y="358" x="424.0143369175628" text-anchor="middle" visibility="hidden" style="font-size: 13px;">F</text><text y="358" x="426.5232974910394" text-anchor="middle" visibility="hidden" style="font-size: 13px;">A</text><text y="358" x="429.03225806451616" text-anchor="middle" visibility="hidden" style="font-size: 13px;">E</text><text y="358" x="431.54121863799287" text-anchor="middle" visibility="hidden" style="font-size: 13px;">L</text><text y="358" x="434.0501792114695" text-anchor="middle" visibility="hidden" style="font-size: 13px;">R</text><text y="358" x="436.55913978494624" text-anchor="middle" visibility="hidden" style="font-size: 13px;">K</text><text y="358" x="439.06810035842295" text-anchor="middle" visibility="hidden" style="font-size: 13px;">L</text><text y="358" x="441.5770609318996" text-anchor="middle" visibility="hidden" style="font-size: 13px;">L</text><text y="358" x="444.0860215053763" text-anchor="middle" visibility="hidden" style="font-size: 13px;">P</text><text y="358" x="446.59498207885304" text-anchor="middle" visibility="hidden" style="font-size: 13px;">T</text><text y="358" x="449.1039426523297" text-anchor="middle" visibility="hidden" style="font-size: 13px;">H</text><text y="358" x="451.61290322580646" text-anchor="middle" visibility="hidden" style="font-size: 13px;">P</text><text y="358" x="454.1218637992832" text-anchor="middle" visibility="hidden" style="font-size: 13px;">P</text><text y="358" x="456.6308243727599" text-anchor="middle" visibility="hidden" style="font-size: 13px;">D</text><text y="358" x="459.13978494623655" text-anchor="middle" visibility="hidden" style="font-size: 13px;">R</text><text y="358" x="461.64874551971326" text-anchor="middle" visibility="hidden" style="font-size: 13px;">K</text><text y="358" x="464.15770609319" text-anchor="middle" visibility="hidden" style="font-size: 13px;">L</text><text y="358" x="466.66666666666663" text-anchor="middle" visibility="hidden" style="font-size: 13px;">S</text><text y="358" x="469.17562724014334" text-anchor="middle" visibility="hidden" style="font-size: 13px;">K</text><text y="358" x="471.6845878136201" text-anchor="middle" visibility="hidden" style="font-size: 13px;">N</text><text y="358" x="474.19354838709677" text-anchor="middle" visibility="hidden" style="font-size: 13px;">E</text><text y="358" x="476.7025089605735" text-anchor="middle" visibility="hidden" style="font-size: 13px;">V</text><text y="358" x="479.2114695340502" text-anchor="middle" visibility="hidden" style="font-size: 13px;">L</text><text y="358" x="481.7204301075269" text-anchor="middle" visibility="hidden" style="font-size: 13px;">R</text><text y="358" x="484.22939068100357" text-anchor="middle" visibility="hidden" style="font-size: 13px;">L</text><text y="358" x="486.7383512544803" text-anchor="middle" visibility="hidden" style="font-size: 13px;">A</text><text y="358" x="489.24731182795705" text-anchor="middle" visibility="hidden" style="font-size: 13px;">M</text><text y="358" x="491.75627240143365" text-anchor="middle" visibility="hidden" style="font-size: 13px;">K</text><text y="358" x="494.2652329749104" text-anchor="middle" visibility="hidden" style="font-size: 13px;">Y</text><text y="358" x="496.77419354838713" text-anchor="middle" visibility="hidden" style="font-size: 13px;">I</text><text y="358" x="499.2831541218638" text-anchor="middle" visibility="hidden" style="font-size: 13px;">G</text><text y="358" x="501.7921146953405" text-anchor="middle" visibility="hidden" style="font-size: 13px;">F</text><text y="358" x="504.3010752688172" text-anchor="middle" visibility="hidden" style="font-size: 13px;">L</text><text y="358" x="506.81003584229387" text-anchor="middle" visibility="hidden" style="font-size: 13px;">V</text><text y="358" x="509.3189964157706" text-anchor="middle" visibility="hidden" style="font-size: 13px;">R</text><text y="358" x="511.8279569892473" text-anchor="middle" visibility="hidden" style="font-size: 13px;">L</text><text y="358" x="514.336917562724" text-anchor="middle" visibility="hidden" style="font-size: 13px;">L</text><text y="358" x="516.8458781362007" text-anchor="middle" visibility="hidden" style="font-size: 13px;">R</text><text y="358" x="519.3548387096774" text-anchor="middle" visibility="hidden" style="font-size: 13px;">D</text><text y="358" x="521.8637992831541" text-anchor="middle" visibility="hidden" style="font-size: 13px;">Q</text><text y="358" x="524.3727598566308" text-anchor="middle" visibility="hidden" style="font-size: 13px;">A</text><text y="358" x="526.8817204301075" text-anchor="middle" visibility="hidden" style="font-size: 13px;">A</text><text y="358" x="529.3906810035843" text-anchor="middle" visibility="hidden" style="font-size: 13px;">A</text><text y="358" x="531.899641577061" text-anchor="middle" visibility="hidden" style="font-size: 13px;">L</text><text y="358" x="534.4086021505376" text-anchor="middle" visibility="hidden" style="font-size: 13px;">A</text><text y="358" x="536.9175627240144" text-anchor="middle" visibility="hidden" style="font-size: 13px;">A</text><text y="358" x="539.426523297491" text-anchor="middle" visibility="hidden" style="font-size: 13px;">G</text><text y="358" x="541.9354838709677" text-anchor="middle" visibility="hidden" style="font-size: 13px;">P</text><text y="358" x="544.4444444444445" text-anchor="middle" visibility="hidden" style="font-size: 13px;">T</text><text y="358" x="546.9534050179212" text-anchor="middle" visibility="hidden" style="font-size: 13px;">P</text><text y="358" x="549.4623655913979" text-anchor="middle" visibility="hidden" style="font-size: 13px;">P</text><text y="358" x="551.9713261648745" text-anchor="middle" visibility="hidden" style="font-size: 13px;">G</text><text y="358" x="554.4802867383513" text-anchor="middle" visibility="hidden" style="font-size: 13px;">P</text><text y="358" x="556.989247311828" text-anchor="middle" visibility="hidden" style="font-size: 13px;">R</text><text y="358" x="559.4982078853046" text-anchor="middle" visibility="hidden" style="font-size: 13px;">K</text><text y="358" x="562.0071684587814" text-anchor="middle" visibility="hidden" style="font-size: 13px;">R</text><text y="358" x="564.516129032258" text-anchor="middle" visibility="hidden" style="font-size: 13px;">P</text><text y="358" x="567.0250896057347" text-anchor="middle" visibility="hidden" style="font-size: 13px;">V</text><text y="358" x="569.5340501792115" text-anchor="middle" visibility="hidden" style="font-size: 13px;">H</text><text y="358" x="572.0430107526882" text-anchor="middle" visibility="hidden" style="font-size: 13px;">R</text><text y="358" x="574.5519713261649" text-anchor="middle" visibility="hidden" style="font-size: 13px;">V</text><text y="358" x="577.0609318996416" text-anchor="middle" visibility="hidden" style="font-size: 13px;">P</text><text y="358" x="579.5698924731183" text-anchor="middle" visibility="hidden" style="font-size: 13px;">D</text><text y="358" x="582.078853046595" text-anchor="middle" visibility="hidden" style="font-size: 13px;">D</text><text y="358" x="584.5878136200716" text-anchor="middle" visibility="hidden" style="font-size: 13px;">G</text><text y="358" x="587.0967741935484" text-anchor="middle" visibility="hidden" style="font-size: 13px;">A</text><text y="358" x="589.6057347670251" text-anchor="middle" visibility="hidden" style="font-size: 13px;">R</text><text y="358" x="592.1146953405018" text-anchor="middle" visibility="hidden" style="font-size: 13px;">R</text><text y="358" x="594.6236559139785" text-anchor="middle" visibility="hidden" style="font-size: 13px;">G</text><text y="358" x="597.1326164874552" text-anchor="middle" visibility="hidden" style="font-size: 13px;">S</text><text y="358" x="599.6415770609319" text-anchor="middle" visibility="hidden" style="font-size: 13px;">G</text><text y="358" x="602.1505376344086" text-anchor="middle" visibility="hidden" style="font-size: 13px;">R</text><text y="358" x="604.6594982078853" text-anchor="middle" visibility="hidden" style="font-size: 13px;">R</text><text y="358" x="607.168458781362" text-anchor="middle" visibility="hidden" style="font-size: 13px;">A</text><text y="358" x="609.6774193548387" text-anchor="middle" visibility="hidden" style="font-size: 13px;">E</text><text y="358" x="612.1863799283154" text-anchor="middle" visibility="hidden" style="font-size: 13px;">A</text><text y="358" x="614.6953405017921" text-anchor="middle" visibility="hidden" style="font-size: 13px;">A</text><text y="358" x="617.2043010752689" text-anchor="middle" visibility="hidden" style="font-size: 13px;">A</text><text y="358" x="619.7132616487455" text-anchor="middle" visibility="hidden" style="font-size: 13px;">R</text><text y="358" x="622.2222222222222" text-anchor="middle" visibility="hidden" style="font-size: 13px;">S</text><text y="358" x="624.7311827956989" text-anchor="middle" visibility="hidden" style="font-size: 13px;">Q</text><text y="358" x="627.2401433691756" text-anchor="middle" visibility="hidden" style="font-size: 13px;">P</text><text y="358" x="629.7491039426524" text-anchor="middle" visibility="hidden" style="font-size: 13px;">A</text><text y="358" x="632.258064516129" text-anchor="middle" visibility="hidden" style="font-size: 13px;">P</text><text y="358" x="634.7670250896058" text-anchor="middle" visibility="hidden" style="font-size: 13px;">P</text><text y="358" x="637.2759856630825" text-anchor="middle" visibility="hidden" style="font-size: 13px;">A</text><text y="358" x="639.7849462365591" text-anchor="middle" visibility="hidden" style="font-size: 13px;">D</text><text y="358" x="642.2939068100359" text-anchor="middle" visibility="hidden" style="font-size: 13px;">P</text><text y="358" x="644.8028673835125" text-anchor="middle" visibility="hidden" style="font-size: 13px;">D</text><text y="358" x="647.3118279569892" text-anchor="middle" visibility="hidden" style="font-size: 13px;">G</text><text y="358" x="649.820788530466" text-anchor="middle" visibility="hidden" style="font-size: 13px;">S</text><text y="358" x="652.3297491039426" text-anchor="middle" visibility="hidden" style="font-size: 13px;">P</text><text y="358" x="654.8387096774193" text-anchor="middle" visibility="hidden" style="font-size: 13px;">G</text><text y="358" x="657.347670250896" text-anchor="middle" visibility="hidden" style="font-size: 13px;">G</text><text y="358" x="659.8566308243728" text-anchor="middle" visibility="hidden" style="font-size: 13px;">A</text><text y="358" x="662.3655913978495" text-anchor="middle" visibility="hidden" style="font-size: 13px;">A</text><text y="358" x="664.8745519713261" text-anchor="middle" visibility="hidden" style="font-size: 13px;">R</text><text y="358" x="667.3835125448029" text-anchor="middle" visibility="hidden" style="font-size: 13px;">P</text><text y="358" x="669.8924731182796" text-anchor="middle" visibility="hidden" style="font-size: 13px;">I</text><text y="358" x="672.4014336917562" text-anchor="middle" visibility="hidden" style="font-size: 13px;">K</text><text y="358" x="674.910394265233" text-anchor="middle" visibility="hidden" style="font-size: 13px;">M</text><text y="358" x="677.4193548387098" text-anchor="middle" visibility="hidden" style="font-size: 13px;">E</text><text y="358" x="679.9283154121863" text-anchor="middle" visibility="hidden" style="font-size: 13px;">Q</text><text y="358" x="682.4372759856631" text-anchor="middle" visibility="hidden" style="font-size: 13px;">T</text><text y="358" x="684.9462365591398" text-anchor="middle" visibility="hidden" style="font-size: 13px;">A</text><text y="358" x="687.4551971326165" text-anchor="middle" visibility="hidden" style="font-size: 13px;">L</text><text y="358" x="689.9641577060931" text-anchor="middle" visibility="hidden" style="font-size: 13px;">S</text><text y="358" x="692.4731182795699" text-anchor="middle" visibility="hidden" style="font-size: 13px;">P</text><text y="358" x="694.9820788530466" text-anchor="middle" visibility="hidden" style="font-size: 13px;">E</text><text y="358" x="697.4910394265232" text-anchor="middle" visibility="hidden" style="font-size: 13px;">V</text><text y="358" x="700" text-anchor="middle" visibility="hidden" style="font-size: 13px;">R</text></g></g></svg><g class="xAxis" transform="translate(0,360)" fill="none" font-size="10" font-family="sans-serif" text-anchor="middle"><path class="domain" stroke="#000" d="M0.5,6V0.5H700.5V6"></path><g class="tick" opacity="1" transform="translate(48.170250896057354,0)"><line stroke="#000" y2="6"></line><text fill="#000" y="9" dy="0.71em">20</text></g><g class="tick" opacity="1" transform="translate(98.34946236559139,0)"><line stroke="#000" y2="6"></line><text fill="#000" y="9" dy="0.71em">40</text></g><g class="tick" opacity="1" transform="translate(148.52867383512546,0)"><line stroke="#000" y2="6"></line><text fill="#000" y="9" dy="0.71em">60</text></g><g class="tick" opacity="1" transform="translate(198.7078853046595,0)"><line stroke="#000" y2="6"></line><text fill="#000" y="9" dy="0.71em">80</text></g><g class="tick" opacity="1" transform="translate(248.88709677419357,0)"><line stroke="#000" y2="6"></line><text fill="#000" y="9" dy="0.71em">100</text></g><g class="tick" opacity="1" transform="translate(299.0663082437276,0)"><line stroke="#000" y2="6"></line><text fill="#000" y="9" dy="0.71em">120</text></g><g class="tick" opacity="1" transform="translate(349.2455197132616,0)"><line stroke="#000" y2="6"></line><text fill="#000" y="9" dy="0.71em">140</text></g><g class="tick" opacity="1" transform="translate(399.4247311827957,0)"><line stroke="#000" y2="6"></line><text fill="#000" y="9" dy="0.71em">160</text></g><g class="tick" opacity="1" transform="translate(449.6039426523297,0)"><line stroke="#000" y2="6"></line><text fill="#000" y="9" dy="0.71em">180</text></g><g class="tick" opacity="1" transform="translate(499.7831541218638,0)"><line stroke="#000" y2="6"></line><text fill="#000" y="9" dy="0.71em">200</text></g><g class="tick" opacity="1" transform="translate(549.9623655913979,0)"><line stroke="#000" y2="6"></line><text fill="#000" y="9" dy="0.71em">220</text></g><g class="tick" opacity="1" transform="translate(600.1415770609319,0)"><line stroke="#000" y2="6"></line><text fill="#000" y="9" dy="0.71em">240</text></g><g class="tick" opacity="1" transform="translate(650.320788530466,0)"><line stroke="#000" y2="6"></line><text fill="#000" y="9" dy="0.71em">260</text></g><g class="tick" opacity="1" transform="translate(700.5,0)"><line stroke="#000" y2="6"></line><text fill="#000" y="9" dy="0.71em">280</text></g></g><text class="x label" text-anchor="end" x="700" y="390" style="font-size: 13px; font-family: Arial;">Residue number</text><g class="yAxis" fill="none" font-size="10" font-family="sans-serif" text-anchor="end"><path class="domain" stroke="#000" d="M-6,360.5H0.5V0.5H-6"></path><g class="tick" opacity="1" transform="translate(0,327.77272727272725)"><line stroke="#000" x2="-6"></line><text fill="#000" x="-9" dy="0.32em">0</text></g><g class="tick" opacity="1" transform="translate(0,285.2697756788666)"><line stroke="#000" x2="-6"></line><text fill="#000" x="-9" dy="0.32em">1</text></g><g class="tick" opacity="1" transform="translate(0,242.7668240850059)"><line stroke="#000" x2="-6"></line><text fill="#000" x="-9" dy="0.32em">2</text></g><g class="tick" opacity="1" transform="translate(0,200.26387249114524)"><line stroke="#000" x2="-6"></line><text fill="#000" x="-9" dy="0.32em">3</text></g><g class="tick" opacity="1" transform="translate(0,157.76092089728456)"><line stroke="#000" x2="-6"></line><text fill="#000" x="-9" dy="0.32em">4</text></g><g class="tick" opacity="1" transform="translate(0,115.25796930342389)"><line stroke="#000" x2="-6"></line><text fill="#000" x="-9" dy="0.32em">5</text></g><g class="tick" opacity="1" transform="translate(0,72.75501770956322)"><line stroke="#000" x2="-6"></line><text fill="#000" x="-9" dy="0.32em">6</text></g><g class="tick" opacity="1" transform="translate(0,30.25206611570252)"><line stroke="#000" x2="-6"></line><text fill="#000" x="-9" dy="0.32em">7</text></g></g><text class="y label" text-anchor="middle" y="-50" x="-180" dy="0.8em" transform="rotate(-90)" style="font-size: 13px; font-family: Arial;">Total number of references</text><g class="axisRed" fill="none" font-size="10" font-family="sans-serif" text-anchor="start" visibility="hidden" transform="translate(700, 0)"><path class="domain" stroke="#000" d="M6,360.5H0.5V0.5H6"></path><g class="tick" opacity="1" transform="translate(0,360.5)"><line stroke="#000" x2="6"></line><text fill="#000" x="9" dy="0.32em">0</text></g><text text-anchor="start" dx="5.2em" dy="-2.6em" transform="rotate(90)" visibility="hidden" style="font-size: 12px; font-family: Arial; fill: #d7301f;">No recurrent (&gt;2) missense mutations!</text></g><g class="axisPurple" fill="none" font-size="10" font-family="sans-serif" text-anchor="start" visibility="hidden"><path class="domain" stroke="#000" d="M6,360.5H0.5V0.5H6"></path><g class="tick" opacity="1" transform="translate(0,357.52479338842977)"><line stroke="#000" x2="6"></line><text fill="#000" x="9" dy="0.32em"></text></g><g class="tick" opacity="1" transform="translate(0,327.77272727272725)"><line stroke="#000" x2="6"></line><text fill="#000" x="9" dy="0.32em">0</text></g><g class="tick" opacity="1" transform="translate(0,298.0206611570248)"><line stroke="#000" x2="6"></line><text fill="#000" x="9" dy="0.32em">0.1</text></g><g class="tick" opacity="1" transform="translate(0,268.2685950413223)"><line stroke="#000" x2="6"></line><text fill="#000" x="9" dy="0.32em">0.2</text></g><g class="tick" opacity="1" transform="translate(0,238.51652892561984)"><line stroke="#000" x2="6"></line><text fill="#000" x="9" dy="0.32em">0.3</text></g><g class="tick" opacity="1" transform="translate(0,208.76446280991738)"><line stroke="#000" x2="6"></line><text fill="#000" x="9" dy="0.32em">0.4</text></g><g class="tick" opacity="1" transform="translate(0,179.0123966942149)"><line stroke="#000" x2="6"></line><text fill="#000" x="9" dy="0.32em">0.5</text></g><g class="tick" opacity="1" transform="translate(0,149.26033057851242)"><line stroke="#000" x2="6"></line><text fill="#000" x="9" dy="0.32em">0.6</text></g><g class="tick" opacity="1" transform="translate(0,119.50826446280996)"><line stroke="#000" x2="6"></line><text fill="#000" x="9" dy="0.32em">0.7</text></g><g class="tick" opacity="1" transform="translate(0,89.75619834710744)"><line stroke="#000" x2="6"></line><text fill="#000" x="9" dy="0.32em">0.8</text></g><g class="tick" opacity="1" transform="translate(0,60.00413223140498)"><line stroke="#000" x2="6"></line><text fill="#000" x="9" dy="0.32em">0.9</text></g><g class="tick" opacity="1" transform="translate(0,30.25206611570252)"><line stroke="#000" x2="6"></line><text fill="#000" x="9" dy="0.32em">1</text></g><g class="tick" opacity="1" transform="translate(0,0.5)"><line stroke="#000" x2="6"></line><text fill="#000" x="9" dy="0.32em">1.1</text></g><text text-anchor="start" x="10" y="10" visibility="hidden" style="font-size: 12px; font-family: Arial; fill: #807dba;">No disease causing germline SNPs known!</text></g><circle cx="636" cy="15" r="10" class="compassNav" style="fill: #ffffff; stroke: #666666; stroke-width: 1px;"></circle><path d="M440.935 12.574l3.966 82.766C399.416 41.904 331.674 8 256 8 134.813 8 33.933 94.924 12.296 209.824 10.908 217.193 16.604 224 24.103 224h49.084c5.57 0 10.377-3.842 11.676-9.259C103.407 137.408 172.931 80 256 80c60.893 0 114.512 30.856 146.104 77.801l-101.53-4.865c-6.845-.328-12.574 5.133-12.574 11.986v47.411c0 6.627 5.373 12 12 12h200.333c6.627 0 12-5.373 12-12V12c0-6.627-5.373-12-12-12h-47.411c-6.853 0-12.315 5.729-11.987 12.574zM256 432c-60.895 0-114.517-30.858-146.109-77.805l101.868 4.871c6.845.327 12.573-5.134 12.573-11.986v-47.412c0-6.627-5.373-12-12-12H12c-6.627 0-12 5.373-12 12V500c0 6.627 5.373 12 12 12h47.385c6.863 0 12.328-5.745 11.985-12.599l-4.129-82.575C112.725 470.166 180.405 504 256 504c121.187 0 222.067-86.924 243.704-201.824 1.388-7.369-4.308-14.176-11.807-14.176h-49.084c-5.57 0-10.377 3.842-11.676 9.259C408.593 374.592 339.069 432 256 432z" class="compassNav" transform="translate(631, 10) scale(0.02)" style="fill: #666666; stroke: #666666; stroke-width: 1px;"></path><circle cx="658" cy="15" r="10" class="compassNav" style="fill: #ffffff; stroke: #666666; stroke-width: 1px;"></circle><line class="compassNav" stroke-width="2" stroke="#666666" x1="654" y1="15" x2="662" y2="15"></line><line class="compassNav" stroke-width="2" stroke="#666666" x1="658" y1="11" x2="658" y2="19"></line><circle cx="614" cy="15" r="10" class="compassNav" style="fill: #ffffff; stroke: #666666; stroke-width: 1px;"></circle><line class="compassNav" stroke-width="2" stroke="#666666" x1="610" y1="15" x2="618" y2="15"></line><path d="M582 14 l20 -12 a100,40 0 0,0 0,24z" class="compassNav" style="fill: #ffffff; stroke: #666666; stroke-width: 1px;"></path><path d="M690 14 l-20 -12 a100,40 0 0,1 0,24z" class="compassNav" style="fill: #ffffff; stroke: #666666; stroke-width: 1px;"></path><path d="M216 0h80c13.3 0 24 10.7 24 24v168h87.7c17.8 0 26.7 21.5 14.1 34.1L269.7 378.3c-7.5 7.5-19.8 7.5-27.3 0L90.1 226.1c-12.6-12.6-3.7-34.1 14.1-34.1H192V24c0-13.3 10.7-24 24-24zm296 376v112c0 13.3-10.7 24-24 24H24c-13.3 0-24-10.7-24-24V376c0-13.3 10.7-24 24-24h146.7l49 49c20.1 20.1 52.5 20.1 72.6 0l49-49H488c13.3 0 24 10.7 24 24zm-124 88c0-11-9-20-20-20s-20 9-20 20 9 20 20 20 20-9 20-20zm64 0c0-11-9-20-20-20s-20 9-20 20 9 20 20 20 20-9 20-20z" class="compassNav" transform="translate(552,0) scale(0.05)" style="fill: #336699; stroke: #336699; stroke-width: 1px; cursor: pointer;"></path></g></svg>