<svg width="800" height="400" style="background-color: white;"><g transform="translate(50,0)"><svg width="700" height="360"><g style="-webkit-tap-highlight-color: rgba(0, 0, 0, 0);"><rect width="700" height="360" style="fill: #ffffff;"></rect><g id="lines"><line class="line" stroke-width="1" stroke="#d7301f" x1="-556.6929133858268" y1="333" x2="-556.6929133858268" y2="360" visibility="hidden" style="stroke-dasharray: 3px, 3px;"></line></g><g><rect x="-561.6929133858268" y="355" width="10" height="10" visibility="hidden" style="fill: #ffffff; stroke: #d7301f;"></rect></g><g id="lines"><line class="line" stroke-width="1" stroke="#6a51a3" x1="485.03937007874015" y1="333" x2="485.03937007874015" y2="327.27272727272725" visibility="hidden" style="stroke-dasharray: 3px, 3px;"></line></g><g><rect x="480.03937007874015" y="322.27272727272725" width="10" height="10" visibility="hidden" style="fill: #ffffff; stroke: #6a51a3;"></rect></g><g id="lines"><line class="line" stroke-width="1" stroke="#666666" x1="154.33070866141733" y1="333" x2="154.33070866141733" y2="319.4432361896477"></line><line class="line" stroke-width="1" stroke="#666666" x1="341.73228346456693" y1="333" x2="341.73228346456693" y2="319.4432361896477"></line><line class="line" stroke-width="1" stroke="#666666" x1="358.26771653543307" y1="333" x2="358.26771653543307" y2="319.4432361896477"></line><line class="line" stroke-width="1" stroke="#666666" x1="413.3858267716535" y1="333" x2="413.3858267716535" y2="319.4432361896477"></line><line class="line" stroke-width="1" stroke="#666666" x1="418.8976377952756" y1="333" x2="418.8976377952756" y2="319.4432361896477"></line><line class="line" stroke-width="1" stroke="#666666" x1="468.503937007874" y1="333" x2="468.503937007874" y2="29.752066115702462"></line><line class="line" stroke-width="1" stroke="#666666" x1="474.01574803149606" y1="333" x2="474.01574803149606" y2="256.80730752501086"></line></g><g id="circles"><circle r="4" cx="154.33070866141733" cy="319.4432361896477" style="fill: #4393c3; stroke: #666666; stroke-width: 1px;"></circle><circle r="4" cx="341.73228346456693" cy="319.4432361896477" style="fill: #5aae61; stroke: #666666; stroke-width: 1px;"></circle><circle r="4" cx="358.26771653543307" cy="319.4432361896477" style="fill: #5aae61; stroke: #666666; stroke-width: 1px;"></circle><circle r="4" cx="413.3858267716535" cy="319.4432361896477" style="fill: #666666; stroke: #666666; stroke-width: 1px;"></circle><circle r="4" cx="418.8976377952756" cy="319.4432361896477" style="fill: #666666; stroke: #666666; stroke-width: 1px;"></circle><circle r="4" cx="468.503937007874" cy="29.752066115702462" style="fill: #4393c3; stroke: #666666; stroke-width: 1px;"></circle><circle r="4" cx="474.01574803149606" cy="256.80730752501086" style="fill: #4393c3; stroke: #666666; stroke-width: 1px;"></circle></g><g><rect x="0" y="333" width="700" height="12" style="fill: #ffffff; stroke-width: 1px; stroke: #666666;"></rect><rect x="148.8188976377953" y="333" width="369.2913385826771" height="12" style="fill: #aec7e8; stroke-width: 1px; stroke: #666666;"></rect></g><g><a target="_blank" xlink:href="http://pfam.xfam.org/family/"><text y="343" x="350" text-anchor="middle" style="color: rgb(102, 102, 102); font-weight: normal; font-size: 12px; font-family: Arial; cursor: pointer;"></text></a><a target="_blank" xlink:href="http://pfam.xfam.org/family/UPAR_LY6"><text y="343" x="333.46456692913387" text-anchor="middle" style="color: rgb(102, 102, 102); font-weight: normal; font-size: 12px; font-family: Arial; cursor: pointer;">UPAR_LY6</text></a></g><g><text y="358" x="0" text-anchor="middle" visibility="hidden" style="font-size: 13px;">M</text><text y="358" x="5.511811023622047" text-anchor="middle" visibility="hidden" style="font-size: 13px;">G</text><text y="358" x="11.023622047244094" text-anchor="middle" visibility="hidden" style="font-size: 13px;">I</text><text y="358" x="16.53543307086614" text-anchor="middle" visibility="hidden" style="font-size: 13px;">Q</text><text y="358" x="22.04724409448819" text-anchor="middle" visibility="hidden" style="font-size: 13px;">G</text><text y="358" x="27.559055118110237" text-anchor="middle" visibility="hidden" style="font-size: 13px;">G</text><text y="358" x="33.07086614173228" text-anchor="middle" visibility="hidden" style="font-size: 13px;">S</text><text y="358" x="38.58267716535433" text-anchor="middle" visibility="hidden" style="font-size: 13px;">V</text><text y="358" x="44.09448818897638" text-anchor="middle" visibility="hidden" style="font-size: 13px;">L</text><text y="358" x="49.60629921259842" text-anchor="middle" visibility="hidden" style="font-size: 13px;">F</text><text y="358" x="55.118110236220474" text-anchor="middle" visibility="hidden" style="font-size: 13px;">G</text><text y="358" x="60.62992125984252" text-anchor="middle" visibility="hidden" style="font-size: 13px;">L</text><text y="358" x="66.14173228346456" text-anchor="middle" visibility="hidden" style="font-size: 13px;">L</text><text y="358" x="71.65354330708661" text-anchor="middle" visibility="hidden" style="font-size: 13px;">L</text><text y="358" x="77.16535433070867" text-anchor="middle" visibility="hidden" style="font-size: 13px;">V</text><text y="358" x="82.67716535433071" text-anchor="middle" visibility="hidden" style="font-size: 13px;">L</text><text y="358" x="88.18897637795276" text-anchor="middle" visibility="hidden" style="font-size: 13px;">A</text><text y="358" x="93.70078740157481" text-anchor="middle" visibility="hidden" style="font-size: 13px;">V</text><text y="358" x="99.21259842519684" text-anchor="middle" visibility="hidden" style="font-size: 13px;">F</text><text y="358" x="104.7244094488189" text-anchor="middle" visibility="hidden" style="font-size: 13px;">C</text><text y="358" x="110.23622047244095" text-anchor="middle" visibility="hidden" style="font-size: 13px;">H</text><text y="358" x="115.748031496063" text-anchor="middle" visibility="hidden" style="font-size: 13px;">S</text><text y="358" x="121.25984251968504" text-anchor="middle" visibility="hidden" style="font-size: 13px;">G</text><text y="358" x="126.7716535433071" text-anchor="middle" visibility="hidden" style="font-size: 13px;">H</text><text y="358" x="132.28346456692913" text-anchor="middle" visibility="hidden" style="font-size: 13px;">S</text><text y="358" x="137.7952755905512" text-anchor="middle" visibility="hidden" style="font-size: 13px;">L</text><text y="358" x="143.30708661417322" text-anchor="middle" visibility="hidden" style="font-size: 13px;">Q</text><text y="358" x="148.8188976377953" text-anchor="middle" visibility="hidden" style="font-size: 13px;">C</text><text y="358" x="154.33070866141733" text-anchor="middle" visibility="hidden" style="font-size: 13px;">Y</text><text y="358" x="159.84251968503938" text-anchor="middle" visibility="hidden" style="font-size: 13px;">N</text><text y="358" x="165.35433070866142" text-anchor="middle" visibility="hidden" style="font-size: 13px;">C</text><text y="358" x="170.86614173228347" text-anchor="middle" visibility="hidden" style="font-size: 13px;">P</text><text y="358" x="176.3779527559055" text-anchor="middle" visibility="hidden" style="font-size: 13px;">N</text><text y="358" x="181.88976377952756" text-anchor="middle" visibility="hidden" style="font-size: 13px;">P</text><text y="358" x="187.40157480314963" text-anchor="middle" visibility="hidden" style="font-size: 13px;">T</text><text y="358" x="192.91338582677167" text-anchor="middle" visibility="hidden" style="font-size: 13px;">A</text><text y="358" x="198.4251968503937" text-anchor="middle" visibility="hidden" style="font-size: 13px;">D</text><text y="358" x="203.93700787401573" text-anchor="middle" visibility="hidden" style="font-size: 13px;">C</text><text y="358" x="209.4488188976378" text-anchor="middle" visibility="hidden" style="font-size: 13px;">K</text><text y="358" x="214.96062992125985" text-anchor="middle" visibility="hidden" style="font-size: 13px;">T</text><text y="358" x="220.4724409448819" text-anchor="middle" visibility="hidden" style="font-size: 13px;">A</text><text y="358" x="225.9842519685039" text-anchor="middle" visibility="hidden" style="font-size: 13px;">V</text><text y="358" x="231.496062992126" text-anchor="middle" visibility="hidden" style="font-size: 13px;">N</text><text y="358" x="237.00787401574803" text-anchor="middle" visibility="hidden" style="font-size: 13px;">C</text><text y="358" x="242.51968503937007" text-anchor="middle" visibility="hidden" style="font-size: 13px;">S</text><text y="358" x="248.03149606299212" text-anchor="middle" visibility="hidden" style="font-size: 13px;">S</text><text y="358" x="253.5433070866142" text-anchor="middle" visibility="hidden" style="font-size: 13px;">D</text><text y="358" x="259.0551181102362" text-anchor="middle" visibility="hidden" style="font-size: 13px;">F</text><text y="358" x="264.56692913385825" text-anchor="middle" visibility="hidden" style="font-size: 13px;">D</text><text y="358" x="270.0787401574803" text-anchor="middle" visibility="hidden" style="font-size: 13px;">A</text><text y="358" x="275.5905511811024" text-anchor="middle" visibility="hidden" style="font-size: 13px;">C</text><text y="358" x="281.10236220472444" text-anchor="middle" visibility="hidden" style="font-size: 13px;">L</text><text y="358" x="286.61417322834643" text-anchor="middle" visibility="hidden" style="font-size: 13px;">I</text><text y="358" x="292.1259842519685" text-anchor="middle" visibility="hidden" style="font-size: 13px;">T</text><text y="358" x="297.6377952755906" text-anchor="middle" visibility="hidden" style="font-size: 13px;">K</text><text y="358" x="303.1496062992126" text-anchor="middle" visibility="hidden" style="font-size: 13px;">A</text><text y="358" x="308.66141732283467" text-anchor="middle" visibility="hidden" style="font-size: 13px;">G</text><text y="358" x="314.17322834645665" text-anchor="middle" visibility="hidden" style="font-size: 13px;">L</text><text y="358" x="319.68503937007875" text-anchor="middle" visibility="hidden" style="font-size: 13px;">Q</text><text y="358" x="325.1968503937008" text-anchor="middle" visibility="hidden" style="font-size: 13px;">V</text><text y="358" x="330.70866141732284" text-anchor="middle" visibility="hidden" style="font-size: 13px;">Y</text><text y="358" x="336.2204724409449" text-anchor="middle" visibility="hidden" style="font-size: 13px;">N</text><text y="358" x="341.73228346456693" text-anchor="middle" visibility="hidden" style="font-size: 13px;">K</text><text y="358" x="347.244094488189" text-anchor="middle" visibility="hidden" style="font-size: 13px;">C</text><text y="358" x="352.755905511811" text-anchor="middle" visibility="hidden" style="font-size: 13px;">W</text><text y="358" x="358.26771653543307" text-anchor="middle" visibility="hidden" style="font-size: 13px;">K</text><text y="358" x="363.7795275590551" text-anchor="middle" visibility="hidden" style="font-size: 13px;">F</text><text y="358" x="369.29133858267716" text-anchor="middle" visibility="hidden" style="font-size: 13px;">E</text><text y="358" x="374.80314960629926" text-anchor="middle" visibility="hidden" style="font-size: 13px;">H</text><text y="358" x="380.3149606299213" text-anchor="middle" visibility="hidden" style="font-size: 13px;">C</text><text y="358" x="385.82677165354335" text-anchor="middle" visibility="hidden" style="font-size: 13px;">N</text><text y="358" x="391.33858267716533" text-anchor="middle" visibility="hidden" style="font-size: 13px;">F</text><text y="358" x="396.8503937007874" text-anchor="middle" visibility="hidden" style="font-size: 13px;">N</text><text y="358" x="402.3622047244094" text-anchor="middle" visibility="hidden" style="font-size: 13px;">D</text><text y="358" x="407.87401574803147" text-anchor="middle" visibility="hidden" style="font-size: 13px;">V</text><text y="358" x="413.3858267716535" text-anchor="middle" visibility="hidden" style="font-size: 13px;">T</text><text y="358" x="418.8976377952756" text-anchor="middle" visibility="hidden" style="font-size: 13px;">T</text><text y="358" x="424.40944881889766" text-anchor="middle" visibility="hidden" style="font-size: 13px;">R</text><text y="358" x="429.9212598425197" text-anchor="middle" visibility="hidden" style="font-size: 13px;">L</text><text y="358" x="435.43307086614175" text-anchor="middle" visibility="hidden" style="font-size: 13px;">R</text><text y="358" x="440.9448818897638" text-anchor="middle" visibility="hidden" style="font-size: 13px;">E</text><text y="358" x="446.45669291338584" text-anchor="middle" visibility="hidden" style="font-size: 13px;">N</text><text y="358" x="451.9685039370078" text-anchor="middle" visibility="hidden" style="font-size: 13px;">E</text><text y="358" x="457.48031496062987" text-anchor="middle" visibility="hidden" style="font-size: 13px;">L</text><text y="358" x="462.992125984252" text-anchor="middle" visibility="hidden" style="font-size: 13px;">T</text><text y="358" x="468.503937007874" text-anchor="middle" visibility="hidden" style="font-size: 13px;">Y</text><text y="358" x="474.01574803149606" text-anchor="middle" visibility="hidden" style="font-size: 13px;">Y</text><text y="358" x="479.5275590551181" text-anchor="middle" visibility="hidden" style="font-size: 13px;">C</text><text y="358" x="485.03937007874015" text-anchor="middle" visibility="hidden" style="font-size: 13px;">C</text><text y="358" x="490.5511811023622" text-anchor="middle" visibility="hidden" style="font-size: 13px;">K</text><text y="358" x="496.06299212598424" text-anchor="middle" visibility="hidden" style="font-size: 13px;">K</text><text y="358" x="501.5748031496063" text-anchor="middle" visibility="hidden" style="font-size: 13px;">D</text><text y="358" x="507.0866141732284" text-anchor="middle" visibility="hidden" style="font-size: 13px;">L</text><text y="358" x="512.5984251968504" text-anchor="middle" visibility="hidden" style="font-size: 13px;">C</text><text y="358" x="518.1102362204724" text-anchor="middle" visibility="hidden" style="font-size: 13px;">N</text><text y="358" x="523.6220472440945" text-anchor="middle" visibility="hidden" style="font-size: 13px;">F</text><text y="358" x="529.1338582677165" text-anchor="middle" visibility="hidden" style="font-size: 13px;">N</text><text y="358" x="534.6456692913385" text-anchor="middle" visibility="hidden" style="font-size: 13px;">E</text><text y="358" x="540.1574803149606" text-anchor="middle" visibility="hidden" style="font-size: 13px;">Q</text><text y="358" x="545.6692913385826" text-anchor="middle" visibility="hidden" style="font-size: 13px;">L</text><text y="358" x="551.1811023622048" text-anchor="middle" visibility="hidden" style="font-size: 13px;">E</text><text y="358" x="556.6929133858268" text-anchor="middle" visibility="hidden" style="font-size: 13px;">N</text><text y="358" x="562.2047244094489" text-anchor="middle" visibility="hidden" style="font-size: 13px;">G</text><text y="358" x="567.7165354330708" text-anchor="middle" visibility="hidden" style="font-size: 13px;">G</text><text y="358" x="573.2283464566929" text-anchor="middle" visibility="hidden" style="font-size: 13px;">T</text><text y="358" x="578.7401574803149" text-anchor="middle" visibility="hidden" style="font-size: 13px;">S</text><text y="358" x="584.251968503937" text-anchor="middle" visibility="hidden" style="font-size: 13px;">L</text><text y="358" x="589.763779527559" text-anchor="middle" visibility="hidden" style="font-size: 13px;">S</text><text y="358" x="595.2755905511812" text-anchor="middle" visibility="hidden" style="font-size: 13px;">E</text><text y="358" x="600.7874015748032" text-anchor="middle" visibility="hidden" style="font-size: 13px;">K</text><text y="358" x="606.2992125984252" text-anchor="middle" visibility="hidden" style="font-size: 13px;">T</text><text y="358" x="611.8110236220473" text-anchor="middle" visibility="hidden" style="font-size: 13px;">V</text><text y="358" x="617.3228346456693" text-anchor="middle" visibility="hidden" style="font-size: 13px;">L</text><text y="358" x="622.8346456692914" text-anchor="middle" visibility="hidden" style="font-size: 13px;">L</text><text y="358" x="628.3464566929133" text-anchor="middle" visibility="hidden" style="font-size: 13px;">L</text><text y="358" x="633.8582677165354" text-anchor="middle" visibility="hidden" style="font-size: 13px;">V</text><text y="358" x="639.3700787401575" text-anchor="middle" visibility="hidden" style="font-size: 13px;">T</text><text y="358" x="644.8818897637796" text-anchor="middle" visibility="hidden" style="font-size: 13px;">P</text><text y="358" x="650.3937007874016" text-anchor="middle" visibility="hidden" style="font-size: 13px;">F</text><text y="358" x="655.9055118110236" text-anchor="middle" visibility="hidden" style="font-size: 13px;">L</text><text y="358" x="661.4173228346457" text-anchor="middle" visibility="hidden" style="font-size: 13px;">A</text><text y="358" x="666.9291338582677" text-anchor="middle" visibility="hidden" style="font-size: 13px;">A</text><text y="358" x="672.4409448818898" text-anchor="middle" visibility="hidden" style="font-size: 13px;">A</text><text y="358" x="677.9527559055118" text-anchor="middle" visibility="hidden" style="font-size: 13px;">W</text><text y="358" x="683.4645669291339" text-anchor="middle" visibility="hidden" style="font-size: 13px;">S</text><text y="358" x="688.9763779527559" text-anchor="middle" visibility="hidden" style="font-size: 13px;">L</text><text y="358" x="694.488188976378" text-anchor="middle" visibility="hidden" style="font-size: 13px;">H</text><text y="358" x="700" text-anchor="middle" visibility="hidden" style="font-size: 13px;">P</text></g></g></svg><g class="xAxis" transform="translate(0,360)" fill="none" font-size="10" font-family="sans-serif" text-anchor="middle"><path class="domain" stroke="#000" d="M0.5,6V0.5H700.5V6"></path><g class="tick" opacity="1" transform="translate(50.10629921259842,0)"><line stroke="#000" y2="6"></line><text fill="#000" y="9" dy="0.71em">10</text></g><g class="tick" opacity="1" transform="translate(105.2244094488189,0)"><line stroke="#000" y2="6"></line><text fill="#000" y="9" dy="0.71em">20</text></g><g class="tick" opacity="1" transform="translate(160.34251968503938,0)"><line stroke="#000" y2="6"></line><text fill="#000" y="9" dy="0.71em">30</text></g><g class="tick" opacity="1" transform="translate(215.46062992125985,0)"><line stroke="#000" y2="6"></line><text fill="#000" y="9" dy="0.71em">40</text></g><g class="tick" opacity="1" transform="translate(270.5787401574803,0)"><line stroke="#000" y2="6"></line><text fill="#000" y="9" dy="0.71em">50</text></g><g class="tick" opacity="1" transform="translate(325.6968503937008,0)"><line stroke="#000" y2="6"></line><text fill="#000" y="9" dy="0.71em">60</text></g><g class="tick" opacity="1" transform="translate(380.8149606299213,0)"><line stroke="#000" y2="6"></line><text fill="#000" y="9" dy="0.71em">70</text></g><g class="tick" opacity="1" transform="translate(435.93307086614175,0)"><line stroke="#000" y2="6"></line><text fill="#000" y="9" dy="0.71em">80</text></g><g class="tick" opacity="1" transform="translate(491.0511811023622,0)"><line stroke="#000" y2="6"></line><text fill="#000" y="9" dy="0.71em">90</text></g><g class="tick" opacity="1" transform="translate(546.1692913385826,0)"><line stroke="#000" y2="6"></line><text fill="#000" y="9" dy="0.71em">100</text></g><g class="tick" opacity="1" transform="translate(601.2874015748032,0)"><line stroke="#000" y2="6"></line><text fill="#000" y="9" dy="0.71em">110</text></g><g class="tick" opacity="1" transform="translate(656.4055118110236,0)"><line stroke="#000" y2="6"></line><text fill="#000" y="9" dy="0.71em">120</text></g></g><text class="x label" text-anchor="end" x="700" y="390" style="font-size: 13px; font-family: Arial;">Residue number</text><g class="yAxis" fill="none" font-size="10" font-family="sans-serif" text-anchor="end"><path class="domain" stroke="#000" d="M-6,360.5H0.5V0.5H-6"></path><g class="tick" opacity="1" transform="translate(0,327.77272727272725)"><line stroke="#000" x2="-6"></line><text fill="#000" x="-9" dy="0.32em">0</text></g><g class="tick" opacity="1" transform="translate(0,288.62527185732927)"><line stroke="#000" x2="-6"></line><text fill="#000" x="-9" dy="0.32em">5</text></g><g class="tick" opacity="1" transform="translate(0,249.47781644193128)"><line stroke="#000" x2="-6"></line><text fill="#000" x="-9" dy="0.32em">10</text></g><g class="tick" opacity="1" transform="translate(0,210.33036102653327)"><line stroke="#000" x2="-6"></line><text fill="#000" x="-9" dy="0.32em">15</text></g><g class="tick" opacity="1" transform="translate(0,171.18290561113528)"><line stroke="#000" x2="-6"></line><text fill="#000" x="-9" dy="0.32em">20</text></g><g class="tick" opacity="1" transform="translate(0,132.03545019573724)"><line stroke="#000" x2="-6"></line><text fill="#000" x="-9" dy="0.32em">25</text></g><g class="tick" opacity="1" transform="translate(0,92.88799478033928)"><line stroke="#000" x2="-6"></line><text fill="#000" x="-9" dy="0.32em">30</text></g><g class="tick" opacity="1" transform="translate(0,53.74053936494124)"><line stroke="#000" x2="-6"></line><text fill="#000" x="-9" dy="0.32em">35</text></g><g class="tick" opacity="1" transform="translate(0,14.593083949543256)"><line stroke="#000" x2="-6"></line><text fill="#000" x="-9" dy="0.32em">40</text></g></g><text class="y label" text-anchor="middle" y="-50" x="-180" dy="0.8em" transform="rotate(-90)" style="font-size: 13px; font-family: Arial;">Total number of references</text><g class="axisRed" fill="none" font-size="10" font-family="sans-serif" text-anchor="start" visibility="hidden" transform="translate(700, 0)"><path class="domain" stroke="#000" d="M6,360.5H0.5V0.5H6"></path><g class="tick" opacity="1" transform="translate(0,360.5)"><line stroke="#000" x2="6"></line><text fill="#000" x="9" dy="0.32em">0</text></g><text text-anchor="start" dx="5.2em" dy="-2.6em" transform="rotate(90)" visibility="hidden" style="font-size: 12px; font-family: Arial; fill: #d7301f;">No recurrent (&gt;2) missense mutations!</text></g><g class="axisPurple" fill="none" font-size="10" font-family="sans-serif" text-anchor="start" visibility="hidden"><path class="domain" stroke="#000" d="M6,360.5H0.5V0.5H6"></path><g class="tick" opacity="1" transform="translate(0,357.52479338842977)"><line stroke="#000" x2="6"></line><text fill="#000" x="9" dy="0.32em"></text></g><g class="tick" opacity="1" transform="translate(0,327.77272727272725)"><line stroke="#000" x2="6"></line><text fill="#000" x="9" dy="0.32em">0</text></g><g class="tick" opacity="1" transform="translate(0,298.0206611570248)"><line stroke="#000" x2="6"></line><text fill="#000" x="9" dy="0.32em">0.1</text></g><g class="tick" opacity="1" transform="translate(0,268.2685950413223)"><line stroke="#000" x2="6"></line><text fill="#000" x="9" dy="0.32em">0.2</text></g><g class="tick" opacity="1" transform="translate(0,238.51652892561984)"><line stroke="#000" x2="6"></line><text fill="#000" x="9" dy="0.32em">0.3</text></g><g class="tick" opacity="1" transform="translate(0,208.76446280991738)"><line stroke="#000" x2="6"></line><text fill="#000" x="9" dy="0.32em">0.4</text></g><g class="tick" opacity="1" transform="translate(0,179.0123966942149)"><line stroke="#000" x2="6"></line><text fill="#000" x="9" dy="0.32em">0.5</text></g><g class="tick" opacity="1" transform="translate(0,149.26033057851242)"><line stroke="#000" x2="6"></line><text fill="#000" x="9" dy="0.32em">0.6</text></g><g class="tick" opacity="1" transform="translate(0,119.50826446280996)"><line stroke="#000" x2="6"></line><text fill="#000" x="9" dy="0.32em">0.7</text></g><g class="tick" opacity="1" transform="translate(0,89.75619834710744)"><line stroke="#000" x2="6"></line><text fill="#000" x="9" dy="0.32em">0.8</text></g><g class="tick" opacity="1" transform="translate(0,60.00413223140498)"><line stroke="#000" x2="6"></line><text fill="#000" x="9" dy="0.32em">0.9</text></g><g class="tick" opacity="1" transform="translate(0,30.25206611570252)"><line stroke="#000" x2="6"></line><text fill="#000" x="9" dy="0.32em">1</text></g><g class="tick" opacity="1" transform="translate(0,0.5)"><line stroke="#000" x2="6"></line><text fill="#000" x="9" dy="0.32em">1.1</text></g><text text-anchor="start" x="10" y="10" visibility="hidden" style="font-size: 12px; font-family: Arial; fill: #807dba;">Minor Allele Frequency (MAF) %</text></g><circle cx="636" cy="15" r="10" class="compassNav" style="fill: #ffffff; stroke: #666666; stroke-width: 1px;"></circle><path d="M440.935 12.574l3.966 82.766C399.416 41.904 331.674 8 256 8 134.813 8 33.933 94.924 12.296 209.824 10.908 217.193 16.604 224 24.103 224h49.084c5.57 0 10.377-3.842 11.676-9.259C103.407 137.408 172.931 80 256 80c60.893 0 114.512 30.856 146.104 77.801l-101.53-4.865c-6.845-.328-12.574 5.133-12.574 11.986v47.411c0 6.627 5.373 12 12 12h200.333c6.627 0 12-5.373 12-12V12c0-6.627-5.373-12-12-12h-47.411c-6.853 0-12.315 5.729-11.987 12.574zM256 432c-60.895 0-114.517-30.858-146.109-77.805l101.868 4.871c6.845.327 12.573-5.134 12.573-11.986v-47.412c0-6.627-5.373-12-12-12H12c-6.627 0-12 5.373-12 12V500c0 6.627 5.373 12 12 12h47.385c6.863 0 12.328-5.745 11.985-12.599l-4.129-82.575C112.725 470.166 180.405 504 256 504c121.187 0 222.067-86.924 243.704-201.824 1.388-7.369-4.308-14.176-11.807-14.176h-49.084c-5.57 0-10.377 3.842-11.676 9.259C408.593 374.592 339.069 432 256 432z" class="compassNav" transform="translate(631, 10) scale(0.02)" style="fill: #666666; stroke: #666666; stroke-width: 1px;"></path><circle cx="658" cy="15" r="10" class="compassNav" style="fill: #ffffff; stroke: #666666; stroke-width: 1px;"></circle><line class="compassNav" stroke-width="2" stroke="#666666" x1="654" y1="15" x2="662" y2="15"></line><line class="compassNav" stroke-width="2" stroke="#666666" x1="658" y1="11" x2="658" y2="19"></line><circle cx="614" cy="15" r="10" class="compassNav" style="fill: #ffffff; stroke: #666666; stroke-width: 1px;"></circle><line class="compassNav" stroke-width="2" stroke="#666666" x1="610" y1="15" x2="618" y2="15"></line><path d="M582 14 l20 -12 a100,40 0 0,0 0,24z" class="compassNav" style="fill: #ffffff; stroke: #666666; stroke-width: 1px;"></path><path d="M690 14 l-20 -12 a100,40 0 0,1 0,24z" class="compassNav" style="fill: #ffffff; stroke: #666666; stroke-width: 1px;"></path><path d="M216 0h80c13.3 0 24 10.7 24 24v168h87.7c17.8 0 26.7 21.5 14.1 34.1L269.7 378.3c-7.5 7.5-19.8 7.5-27.3 0L90.1 226.1c-12.6-12.6-3.7-34.1 14.1-34.1H192V24c0-13.3 10.7-24 24-24zm296 376v112c0 13.3-10.7 24-24 24H24c-13.3 0-24-10.7-24-24V376c0-13.3 10.7-24 24-24h146.7l49 49c20.1 20.1 52.5 20.1 72.6 0l49-49H488c13.3 0 24 10.7 24 24zm-124 88c0-11-9-20-20-20s-20 9-20 20 9 20 20 20 20-9 20-20zm64 0c0-11-9-20-20-20s-20 9-20 20 9 20 20 20 20-9 20-20z" class="compassNav" transform="translate(552,0) scale(0.05)" style="fill: #336699; stroke: #336699; stroke-width: 1px; cursor: pointer;"></path></g></svg>