<svg width="800" height="400" style="background-color: white;"><g transform="translate(50,0)"><svg width="700" height="360"><g style="-webkit-tap-highlight-color: rgba(0, 0, 0, 0);"><rect width="700" height="360" style="fill: #ffffff;"></rect><g id="lines"><line class="line" stroke-width="1" stroke="#d7301f" x1="-225.87859424920126" y1="333" x2="-225.87859424920126" y2="360" visibility="hidden" style="stroke-dasharray: 3px, 3px;"></line></g><g><rect x="-230.87859424920126" y="355" width="10" height="10" visibility="hidden" style="fill: #ffffff; stroke: #d7301f;"></rect></g><g id="lines"><line class="line" stroke-width="1" stroke="#6a51a3" x1="145.36741214057508" y1="333" x2="145.36741214057508" y2="327.27272727272725" visibility="hidden" style="stroke-dasharray: 3px, 3px;"></line></g><g><rect x="140.36741214057508" y="322.27272727272725" width="10" height="10" visibility="hidden" style="fill: #ffffff; stroke: #6a51a3;"></rect></g><g id="lines"><line class="line" stroke-width="1" stroke="#666666" x1="246.00638977635785" y1="333" x2="246.00638977635785" y2="304.38652256834075"></line><line class="line" stroke-width="1" stroke="#666666" x1="373.48242811501603" y1="333" x2="373.48242811501603" y2="304.38652256834075"></line><line class="line" stroke-width="1" stroke="#666666" x1="380.1916932907348" y1="333" x2="380.1916932907348" y2="304.38652256834075"></line><line class="line" stroke-width="1" stroke="#666666" x1="382.4281150159744" y1="333" x2="382.4281150159744" y2="304.38652256834075"></line><line class="line" stroke-width="1" stroke="#666666" x1="398.08306709265173" y1="333" x2="398.08306709265173" y2="304.38652256834075"></line><line class="line" stroke-width="1" stroke="#666666" x1="440.57507987220447" y1="333" x2="440.57507987220447" y2="304.38652256834075"></line><line class="line" stroke-width="1" stroke="#666666" x1="476.3578274760383" y1="333" x2="476.3578274760383" y2="304.38652256834075"></line><line class="line" stroke-width="1" stroke="#666666" x1="478.59424920127793" y1="333" x2="478.59424920127793" y2="304.38652256834075"></line><line class="line" stroke-width="1" stroke="#666666" x1="485.3035143769968" y1="333" x2="485.3035143769968" y2="304.38652256834075"></line><line class="line" stroke-width="1" stroke="#666666" x1="661.9808306709265" y1="333" x2="661.9808306709265" y2="304.38652256834075"></line><line class="line" stroke-width="1" stroke="#666666" x1="666.4536741214058" y1="333" x2="666.4536741214058" y2="167.0692943420216"></line><line class="line" stroke-width="1" stroke="#666666" x1="675.3993610223642" y1="333" x2="675.3993610223642" y2="29.75206611570252"></line></g><g id="circles"><circle r="4" cx="246.00638977635785" cy="304.38652256834075" style="fill: #666666; stroke: #666666; stroke-width: 1px;"></circle><circle r="4" cx="373.48242811501603" cy="304.38652256834075" style="fill: #bf812d; stroke: #666666; stroke-width: 1px;"></circle><circle r="4" cx="380.1916932907348" cy="304.38652256834075" style="fill: #666666; stroke: #666666; stroke-width: 1px;"></circle><circle r="4" cx="382.4281150159744" cy="304.38652256834075" style="fill: #666666; stroke: #666666; stroke-width: 1px;"></circle><circle r="4" cx="398.08306709265173" cy="304.38652256834075" style="fill: #5aae61; stroke: #666666; stroke-width: 1px;"></circle><circle r="4" cx="440.57507987220447" cy="304.38652256834075" style="fill: #666666; stroke: #666666; stroke-width: 1px;"></circle><circle r="4" cx="476.3578274760383" cy="304.38652256834075" style="fill: #4393c3; stroke: #666666; stroke-width: 1px;"></circle><circle r="4" cx="478.59424920127793" cy="304.38652256834075" style="fill: #4393c3; stroke: #666666; stroke-width: 1px;"></circle><circle r="4" cx="485.3035143769968" cy="304.38652256834075" style="fill: #bf812d; stroke: #666666; stroke-width: 1px;"></circle><circle r="4" cx="661.9808306709265" cy="304.38652256834075" style="fill: #4393c3; stroke: #666666; stroke-width: 1px;"></circle><circle r="4" cx="666.4536741214058" cy="167.0692943420216" style="fill: #bf812d; stroke: #666666; stroke-width: 1px;"></circle><circle r="4" cx="675.3993610223642" cy="29.75206611570252" style="fill: #bf812d; stroke: #666666; stroke-width: 1px;"></circle></g><g><rect x="0" y="333" width="700" height="12" style="fill: #ffffff; stroke-width: 1px; stroke: #666666;"></rect><rect x="129.71246006389777" y="333" width="169.9680511182109" height="12" style="fill: #aec7e8; stroke-width: 1px; stroke: #666666;"></rect><rect x="592.6517571884984" y="333" width="49.20127795527151" height="12" style="fill: #ffbb78; stroke-width: 1px; stroke: #666666;"></rect></g><g><a target="_blank" xlink:href="http://pfam.xfam.org/family/"><text y="343" x="350" text-anchor="middle" style="color: rgb(102, 102, 102); font-weight: normal; font-size: 12px; font-family: Arial; cursor: pointer;"></text></a><a target="_blank" xlink:href="http://pfam.xfam.org/family/Thyroglobulin_1"><text y="343" x="214.6964856230032" text-anchor="middle" style="color: rgb(102, 102, 102); font-weight: normal; font-size: 12px; font-family: Arial; cursor: pointer;">Thyroglobulin_1</text></a><a target="_blank" xlink:href="http://pfam.xfam.org/family/TM"><text y="343" x="617.2523961661342" text-anchor="middle" style="color: rgb(102, 102, 102); font-weight: normal; font-size: 12px; font-family: Arial; cursor: pointer;">TM</text></a></g><g><text y="358" x="0" text-anchor="middle" visibility="hidden" style="font-size: 13px;">M</text><text y="358" x="2.2364217252396164" text-anchor="middle" visibility="hidden" style="font-size: 13px;">A</text><text y="358" x="4.472843450479233" text-anchor="middle" visibility="hidden" style="font-size: 13px;">P</text><text y="358" x="6.7092651757188495" text-anchor="middle" visibility="hidden" style="font-size: 13px;">P</text><text y="358" x="8.945686900958465" text-anchor="middle" visibility="hidden" style="font-size: 13px;">Q</text><text y="358" x="11.182108626198083" text-anchor="middle" visibility="hidden" style="font-size: 13px;">V</text><text y="358" x="13.418530351437699" text-anchor="middle" visibility="hidden" style="font-size: 13px;">L</text><text y="358" x="15.654952076677315" text-anchor="middle" visibility="hidden" style="font-size: 13px;">A</text><text y="358" x="17.89137380191693" text-anchor="middle" visibility="hidden" style="font-size: 13px;">F</text><text y="358" x="20.12779552715655" text-anchor="middle" visibility="hidden" style="font-size: 13px;">G</text><text y="358" x="22.364217252396166" text-anchor="middle" visibility="hidden" style="font-size: 13px;">L</text><text y="358" x="24.600638977635782" text-anchor="middle" visibility="hidden" style="font-size: 13px;">L</text><text y="358" x="26.837060702875398" text-anchor="middle" visibility="hidden" style="font-size: 13px;">L</text><text y="358" x="29.073482428115014" text-anchor="middle" visibility="hidden" style="font-size: 13px;">A</text><text y="358" x="31.30990415335463" text-anchor="middle" visibility="hidden" style="font-size: 13px;">A</text><text y="358" x="33.546325878594246" text-anchor="middle" visibility="hidden" style="font-size: 13px;">A</text><text y="358" x="35.78274760383386" text-anchor="middle" visibility="hidden" style="font-size: 13px;">T</text><text y="358" x="38.01916932907348" text-anchor="middle" visibility="hidden" style="font-size: 13px;">A</text><text y="358" x="40.2555910543131" text-anchor="middle" visibility="hidden" style="font-size: 13px;">T</text><text y="358" x="42.49201277955272" text-anchor="middle" visibility="hidden" style="font-size: 13px;">F</text><text y="358" x="44.72843450479233" text-anchor="middle" visibility="hidden" style="font-size: 13px;">A</text><text y="358" x="46.96485623003195" text-anchor="middle" visibility="hidden" style="font-size: 13px;">A</text><text y="358" x="49.201277955271564" text-anchor="middle" visibility="hidden" style="font-size: 13px;">A</text><text y="358" x="51.43769968051118" text-anchor="middle" visibility="hidden" style="font-size: 13px;">Q</text><text y="358" x="53.674121405750796" text-anchor="middle" visibility="hidden" style="font-size: 13px;">E</text><text y="358" x="55.91054313099041" text-anchor="middle" visibility="hidden" style="font-size: 13px;">E</text><text y="358" x="58.14696485623003" text-anchor="middle" visibility="hidden" style="font-size: 13px;">C</text><text y="358" x="60.383386581469644" text-anchor="middle" visibility="hidden" style="font-size: 13px;">V</text><text y="358" x="62.61980830670926" text-anchor="middle" visibility="hidden" style="font-size: 13px;">C</text><text y="358" x="64.85623003194888" text-anchor="middle" visibility="hidden" style="font-size: 13px;">E</text><text y="358" x="67.09265175718849" text-anchor="middle" visibility="hidden" style="font-size: 13px;">N</text><text y="358" x="69.32907348242811" text-anchor="middle" visibility="hidden" style="font-size: 13px;">Y</text><text y="358" x="71.56549520766772" text-anchor="middle" visibility="hidden" style="font-size: 13px;">K</text><text y="358" x="73.80191693290735" text-anchor="middle" visibility="hidden" style="font-size: 13px;">L</text><text y="358" x="76.03833865814696" text-anchor="middle" visibility="hidden" style="font-size: 13px;">A</text><text y="358" x="78.27476038338658" text-anchor="middle" visibility="hidden" style="font-size: 13px;">V</text><text y="358" x="80.5111821086262" text-anchor="middle" visibility="hidden" style="font-size: 13px;">N</text><text y="358" x="82.74760383386581" text-anchor="middle" visibility="hidden" style="font-size: 13px;">C</text><text y="358" x="84.98402555910543" text-anchor="middle" visibility="hidden" style="font-size: 13px;">F</text><text y="358" x="87.22044728434504" text-anchor="middle" visibility="hidden" style="font-size: 13px;">V</text><text y="358" x="89.45686900958466" text-anchor="middle" visibility="hidden" style="font-size: 13px;">N</text><text y="358" x="91.69329073482429" text-anchor="middle" visibility="hidden" style="font-size: 13px;">N</text><text y="358" x="93.9297124600639" text-anchor="middle" visibility="hidden" style="font-size: 13px;">N</text><text y="358" x="96.16613418530352" text-anchor="middle" visibility="hidden" style="font-size: 13px;">R</text><text y="358" x="98.40255591054313" text-anchor="middle" visibility="hidden" style="font-size: 13px;">Q</text><text y="358" x="100.63897763578275" text-anchor="middle" visibility="hidden" style="font-size: 13px;">C</text><text y="358" x="102.87539936102236" text-anchor="middle" visibility="hidden" style="font-size: 13px;">Q</text><text y="358" x="105.11182108626198" text-anchor="middle" visibility="hidden" style="font-size: 13px;">C</text><text y="358" x="107.34824281150159" text-anchor="middle" visibility="hidden" style="font-size: 13px;">T</text><text y="358" x="109.58466453674122" text-anchor="middle" visibility="hidden" style="font-size: 13px;">S</text><text y="358" x="111.82108626198082" text-anchor="middle" visibility="hidden" style="font-size: 13px;">V</text><text y="358" x="114.05750798722045" text-anchor="middle" visibility="hidden" style="font-size: 13px;">G</text><text y="358" x="116.29392971246006" text-anchor="middle" visibility="hidden" style="font-size: 13px;">A</text><text y="358" x="118.53035143769968" text-anchor="middle" visibility="hidden" style="font-size: 13px;">Q</text><text y="358" x="120.76677316293929" text-anchor="middle" visibility="hidden" style="font-size: 13px;">N</text><text y="358" x="123.00319488817892" text-anchor="middle" visibility="hidden" style="font-size: 13px;">T</text><text y="358" x="125.23961661341852" text-anchor="middle" visibility="hidden" style="font-size: 13px;">V</text><text y="358" x="127.47603833865816" text-anchor="middle" visibility="hidden" style="font-size: 13px;">I</text><text y="358" x="129.71246006389777" text-anchor="middle" visibility="hidden" style="font-size: 13px;">C</text><text y="358" x="131.94888178913737" text-anchor="middle" visibility="hidden" style="font-size: 13px;">S</text><text y="358" x="134.18530351437698" text-anchor="middle" visibility="hidden" style="font-size: 13px;">K</text><text y="358" x="136.42172523961662" text-anchor="middle" visibility="hidden" style="font-size: 13px;">L</text><text y="358" x="138.65814696485623" text-anchor="middle" visibility="hidden" style="font-size: 13px;">A</text><text y="358" x="140.89456869009584" text-anchor="middle" visibility="hidden" style="font-size: 13px;">A</text><text y="358" x="143.13099041533545" text-anchor="middle" visibility="hidden" style="font-size: 13px;">K</text><text y="358" x="145.36741214057508" text-anchor="middle" visibility="hidden" style="font-size: 13px;">C</text><text y="358" x="147.6038338658147" text-anchor="middle" visibility="hidden" style="font-size: 13px;">L</text><text y="358" x="149.84025559105433" text-anchor="middle" visibility="hidden" style="font-size: 13px;">V</text><text y="358" x="152.0766773162939" text-anchor="middle" visibility="hidden" style="font-size: 13px;">M</text><text y="358" x="154.31309904153355" text-anchor="middle" visibility="hidden" style="font-size: 13px;">K</text><text y="358" x="156.54952076677316" text-anchor="middle" visibility="hidden" style="font-size: 13px;">A</text><text y="358" x="158.7859424920128" text-anchor="middle" visibility="hidden" style="font-size: 13px;">E</text><text y="358" x="161.0223642172524" text-anchor="middle" visibility="hidden" style="font-size: 13px;">M</text><text y="358" x="163.258785942492" text-anchor="middle" visibility="hidden" style="font-size: 13px;">N</text><text y="358" x="165.49520766773162" text-anchor="middle" visibility="hidden" style="font-size: 13px;">G</text><text y="358" x="167.73162939297126" text-anchor="middle" visibility="hidden" style="font-size: 13px;">S</text><text y="358" x="169.96805111821087" text-anchor="middle" visibility="hidden" style="font-size: 13px;">K</text><text y="358" x="172.20447284345047" text-anchor="middle" visibility="hidden" style="font-size: 13px;">L</text><text y="358" x="174.44089456869008" text-anchor="middle" visibility="hidden" style="font-size: 13px;">G</text><text y="358" x="176.67731629392972" text-anchor="middle" visibility="hidden" style="font-size: 13px;">R</text><text y="358" x="178.91373801916933" text-anchor="middle" visibility="hidden" style="font-size: 13px;">R</text><text y="358" x="181.15015974440894" text-anchor="middle" visibility="hidden" style="font-size: 13px;">A</text><text y="358" x="183.38658146964858" text-anchor="middle" visibility="hidden" style="font-size: 13px;">K</text><text y="358" x="185.62300319488818" text-anchor="middle" visibility="hidden" style="font-size: 13px;">P</text><text y="358" x="187.8594249201278" text-anchor="middle" visibility="hidden" style="font-size: 13px;">E</text><text y="358" x="190.0958466453674" text-anchor="middle" visibility="hidden" style="font-size: 13px;">G</text><text y="358" x="192.33226837060704" text-anchor="middle" visibility="hidden" style="font-size: 13px;">A</text><text y="358" x="194.56869009584665" text-anchor="middle" visibility="hidden" style="font-size: 13px;">L</text><text y="358" x="196.80511182108626" text-anchor="middle" visibility="hidden" style="font-size: 13px;">Q</text><text y="358" x="199.04153354632587" text-anchor="middle" visibility="hidden" style="font-size: 13px;">N</text><text y="358" x="201.2779552715655" text-anchor="middle" visibility="hidden" style="font-size: 13px;">N</text><text y="358" x="203.5143769968051" text-anchor="middle" visibility="hidden" style="font-size: 13px;">D</text><text y="358" x="205.75079872204472" text-anchor="middle" visibility="hidden" style="font-size: 13px;">G</text><text y="358" x="207.98722044728433" text-anchor="middle" visibility="hidden" style="font-size: 13px;">L</text><text y="358" x="210.22364217252397" text-anchor="middle" visibility="hidden" style="font-size: 13px;">Y</text><text y="358" x="212.46006389776358" text-anchor="middle" visibility="hidden" style="font-size: 13px;">D</text><text y="358" x="214.69648562300318" text-anchor="middle" visibility="hidden" style="font-size: 13px;">P</text><text y="358" x="216.9329073482428" text-anchor="middle" visibility="hidden" style="font-size: 13px;">D</text><text y="358" x="219.16932907348243" text-anchor="middle" visibility="hidden" style="font-size: 13px;">C</text><text y="358" x="221.40575079872204" text-anchor="middle" visibility="hidden" style="font-size: 13px;">D</text><text y="358" x="223.64217252396165" text-anchor="middle" visibility="hidden" style="font-size: 13px;">E</text><text y="358" x="225.87859424920126" text-anchor="middle" visibility="hidden" style="font-size: 13px;">S</text><text y="358" x="228.1150159744409" text-anchor="middle" visibility="hidden" style="font-size: 13px;">G</text><text y="358" x="230.3514376996805" text-anchor="middle" visibility="hidden" style="font-size: 13px;">L</text><text y="358" x="232.5878594249201" text-anchor="middle" visibility="hidden" style="font-size: 13px;">F</text><text y="358" x="234.82428115015978" text-anchor="middle" visibility="hidden" style="font-size: 13px;">K</text><text y="358" x="237.06070287539936" text-anchor="middle" visibility="hidden" style="font-size: 13px;">A</text><text y="358" x="239.29712460063897" text-anchor="middle" visibility="hidden" style="font-size: 13px;">K</text><text y="358" x="241.53354632587858" text-anchor="middle" visibility="hidden" style="font-size: 13px;">Q</text><text y="358" x="243.76996805111824" text-anchor="middle" visibility="hidden" style="font-size: 13px;">C</text><text y="358" x="246.00638977635785" text-anchor="middle" visibility="hidden" style="font-size: 13px;">N</text><text y="358" x="248.24281150159743" text-anchor="middle" visibility="hidden" style="font-size: 13px;">G</text><text y="358" x="250.47923322683704" text-anchor="middle" visibility="hidden" style="font-size: 13px;">T</text><text y="358" x="252.7156549520767" text-anchor="middle" visibility="hidden" style="font-size: 13px;">S</text><text y="358" x="254.9520766773163" text-anchor="middle" visibility="hidden" style="font-size: 13px;">M</text><text y="358" x="257.1884984025559" text-anchor="middle" visibility="hidden" style="font-size: 13px;">C</text><text y="358" x="259.42492012779553" text-anchor="middle" visibility="hidden" style="font-size: 13px;">W</text><text y="358" x="261.66134185303514" text-anchor="middle" visibility="hidden" style="font-size: 13px;">C</text><text y="358" x="263.89776357827475" text-anchor="middle" visibility="hidden" style="font-size: 13px;">V</text><text y="358" x="266.13418530351436" text-anchor="middle" visibility="hidden" style="font-size: 13px;">N</text><text y="358" x="268.37060702875397" text-anchor="middle" visibility="hidden" style="font-size: 13px;">T</text><text y="358" x="270.60702875399363" text-anchor="middle" visibility="hidden" style="font-size: 13px;">A</text><text y="358" x="272.84345047923324" text-anchor="middle" visibility="hidden" style="font-size: 13px;">G</text><text y="358" x="275.07987220447285" text-anchor="middle" visibility="hidden" style="font-size: 13px;">V</text><text y="358" x="277.31629392971246" text-anchor="middle" visibility="hidden" style="font-size: 13px;">R</text><text y="358" x="279.55271565495207" text-anchor="middle" visibility="hidden" style="font-size: 13px;">R</text><text y="358" x="281.7891373801917" text-anchor="middle" visibility="hidden" style="font-size: 13px;">T</text><text y="358" x="284.0255591054313" text-anchor="middle" visibility="hidden" style="font-size: 13px;">D</text><text y="358" x="286.2619808306709" text-anchor="middle" visibility="hidden" style="font-size: 13px;">K</text><text y="358" x="288.49840255591056" text-anchor="middle" visibility="hidden" style="font-size: 13px;">D</text><text y="358" x="290.73482428115017" text-anchor="middle" visibility="hidden" style="font-size: 13px;">T</text><text y="358" x="292.9712460063898" text-anchor="middle" visibility="hidden" style="font-size: 13px;">E</text><text y="358" x="295.2076677316294" text-anchor="middle" visibility="hidden" style="font-size: 13px;">I</text><text y="358" x="297.44408945686905" text-anchor="middle" visibility="hidden" style="font-size: 13px;">T</text><text y="358" x="299.68051118210866" text-anchor="middle" visibility="hidden" style="font-size: 13px;">C</text><text y="358" x="301.9169329073482" text-anchor="middle" visibility="hidden" style="font-size: 13px;">S</text><text y="358" x="304.1533546325878" text-anchor="middle" visibility="hidden" style="font-size: 13px;">E</text><text y="358" x="306.3897763578275" text-anchor="middle" visibility="hidden" style="font-size: 13px;">R</text><text y="358" x="308.6261980830671" text-anchor="middle" visibility="hidden" style="font-size: 13px;">V</text><text y="358" x="310.8626198083067" text-anchor="middle" visibility="hidden" style="font-size: 13px;">R</text><text y="358" x="313.0990415335463" text-anchor="middle" visibility="hidden" style="font-size: 13px;">T</text><text y="358" x="315.335463258786" text-anchor="middle" visibility="hidden" style="font-size: 13px;">Y</text><text y="358" x="317.5718849840256" text-anchor="middle" visibility="hidden" style="font-size: 13px;">W</text><text y="358" x="319.8083067092652" text-anchor="middle" visibility="hidden" style="font-size: 13px;">I</text><text y="358" x="322.0447284345048" text-anchor="middle" visibility="hidden" style="font-size: 13px;">I</text><text y="358" x="324.2811501597444" text-anchor="middle" visibility="hidden" style="font-size: 13px;">I</text><text y="358" x="326.517571884984" text-anchor="middle" visibility="hidden" style="font-size: 13px;">E</text><text y="358" x="328.75399361022363" text-anchor="middle" visibility="hidden" style="font-size: 13px;">L</text><text y="358" x="330.99041533546324" text-anchor="middle" visibility="hidden" style="font-size: 13px;">K</text><text y="358" x="333.2268370607029" text-anchor="middle" visibility="hidden" style="font-size: 13px;">H</text><text y="358" x="335.4632587859425" text-anchor="middle" visibility="hidden" style="font-size: 13px;">K</text><text y="358" x="337.6996805111821" text-anchor="middle" visibility="hidden" style="font-size: 13px;">A</text><text y="358" x="339.93610223642173" text-anchor="middle" visibility="hidden" style="font-size: 13px;">R</text><text y="358" x="342.17252396166134" text-anchor="middle" visibility="hidden" style="font-size: 13px;">E</text><text y="358" x="344.40894568690095" text-anchor="middle" visibility="hidden" style="font-size: 13px;">K</text><text y="358" x="346.64536741214056" text-anchor="middle" visibility="hidden" style="font-size: 13px;">P</text><text y="358" x="348.88178913738017" text-anchor="middle" visibility="hidden" style="font-size: 13px;">Y</text><text y="358" x="351.1182108626198" text-anchor="middle" visibility="hidden" style="font-size: 13px;">D</text><text y="358" x="353.35463258785944" text-anchor="middle" visibility="hidden" style="font-size: 13px;">S</text><text y="358" x="355.59105431309905" text-anchor="middle" visibility="hidden" style="font-size: 13px;">K</text><text y="358" x="357.82747603833866" text-anchor="middle" visibility="hidden" style="font-size: 13px;">S</text><text y="358" x="360.06389776357827" text-anchor="middle" visibility="hidden" style="font-size: 13px;">L</text><text y="358" x="362.3003194888179" text-anchor="middle" visibility="hidden" style="font-size: 13px;">R</text><text y="358" x="364.5367412140575" text-anchor="middle" visibility="hidden" style="font-size: 13px;">T</text><text y="358" x="366.77316293929715" text-anchor="middle" visibility="hidden" style="font-size: 13px;">A</text><text y="358" x="369.0095846645367" text-anchor="middle" visibility="hidden" style="font-size: 13px;">L</text><text y="358" x="371.24600638977637" text-anchor="middle" visibility="hidden" style="font-size: 13px;">Q</text><text y="358" x="373.48242811501603" text-anchor="middle" visibility="hidden" style="font-size: 13px;">K</text><text y="358" x="375.7188498402556" text-anchor="middle" visibility="hidden" style="font-size: 13px;">E</text><text y="358" x="377.9552715654952" text-anchor="middle" visibility="hidden" style="font-size: 13px;">I</text><text y="358" x="380.1916932907348" text-anchor="middle" visibility="hidden" style="font-size: 13px;">T</text><text y="358" x="382.4281150159744" text-anchor="middle" visibility="hidden" style="font-size: 13px;">T</text><text y="358" x="384.6645367412141" text-anchor="middle" visibility="hidden" style="font-size: 13px;">R</text><text y="358" x="386.90095846645363" text-anchor="middle" visibility="hidden" style="font-size: 13px;">Y</text><text y="358" x="389.1373801916933" text-anchor="middle" visibility="hidden" style="font-size: 13px;">Q</text><text y="358" x="391.37380191693296" text-anchor="middle" visibility="hidden" style="font-size: 13px;">L</text><text y="358" x="393.6102236421725" text-anchor="middle" visibility="hidden" style="font-size: 13px;">D</text><text y="358" x="395.8466453674122" text-anchor="middle" visibility="hidden" style="font-size: 13px;">P</text><text y="358" x="398.08306709265173" text-anchor="middle" visibility="hidden" style="font-size: 13px;">K</text><text y="358" x="400.31948881789134" text-anchor="middle" visibility="hidden" style="font-size: 13px;">F</text><text y="358" x="402.555910543131" text-anchor="middle" visibility="hidden" style="font-size: 13px;">I</text><text y="358" x="404.79233226837056" text-anchor="middle" visibility="hidden" style="font-size: 13px;">T</text><text y="358" x="407.0287539936102" text-anchor="middle" visibility="hidden" style="font-size: 13px;">S</text><text y="358" x="409.2651757188499" text-anchor="middle" visibility="hidden" style="font-size: 13px;">I</text><text y="358" x="411.50159744408944" text-anchor="middle" visibility="hidden" style="font-size: 13px;">L</text><text y="358" x="413.7380191693291" text-anchor="middle" visibility="hidden" style="font-size: 13px;">Y</text><text y="358" x="415.97444089456866" text-anchor="middle" visibility="hidden" style="font-size: 13px;">E</text><text y="358" x="418.2108626198083" text-anchor="middle" visibility="hidden" style="font-size: 13px;">N</text><text y="358" x="420.44728434504793" text-anchor="middle" visibility="hidden" style="font-size: 13px;">N</text><text y="358" x="422.6837060702875" text-anchor="middle" visibility="hidden" style="font-size: 13px;">V</text><text y="358" x="424.92012779552715" text-anchor="middle" visibility="hidden" style="font-size: 13px;">I</text><text y="358" x="427.1565495207668" text-anchor="middle" visibility="hidden" style="font-size: 13px;">T</text><text y="358" x="429.39297124600637" text-anchor="middle" visibility="hidden" style="font-size: 13px;">I</text><text y="358" x="431.62939297124603" text-anchor="middle" visibility="hidden" style="font-size: 13px;">D</text><text y="358" x="433.8658146964856" text-anchor="middle" visibility="hidden" style="font-size: 13px;">L</text><text y="358" x="436.10223642172525" text-anchor="middle" visibility="hidden" style="font-size: 13px;">V</text><text y="358" x="438.33865814696486" text-anchor="middle" visibility="hidden" style="font-size: 13px;">Q</text><text y="358" x="440.57507987220447" text-anchor="middle" visibility="hidden" style="font-size: 13px;">N</text><text y="358" x="442.8115015974441" text-anchor="middle" visibility="hidden" style="font-size: 13px;">S</text><text y="358" x="445.04792332268374" text-anchor="middle" visibility="hidden" style="font-size: 13px;">S</text><text y="358" x="447.2843450479233" text-anchor="middle" visibility="hidden" style="font-size: 13px;">Q</text><text y="358" x="449.52076677316296" text-anchor="middle" visibility="hidden" style="font-size: 13px;">K</text><text y="358" x="451.7571884984025" text-anchor="middle" visibility="hidden" style="font-size: 13px;">T</text><text y="358" x="453.9936102236422" text-anchor="middle" visibility="hidden" style="font-size: 13px;">Q</text><text y="358" x="456.2300319488818" text-anchor="middle" visibility="hidden" style="font-size: 13px;">N</text><text y="358" x="458.4664536741214" text-anchor="middle" visibility="hidden" style="font-size: 13px;">D</text><text y="358" x="460.702875399361" text-anchor="middle" visibility="hidden" style="font-size: 13px;">V</text><text y="358" x="462.93929712460067" text-anchor="middle" visibility="hidden" style="font-size: 13px;">D</text><text y="358" x="465.1757188498402" text-anchor="middle" visibility="hidden" style="font-size: 13px;">I</text><text y="358" x="467.4121405750799" text-anchor="middle" visibility="hidden" style="font-size: 13px;">A</text><text y="358" x="469.64856230031955" text-anchor="middle" visibility="hidden" style="font-size: 13px;">D</text><text y="358" x="471.8849840255591" text-anchor="middle" visibility="hidden" style="font-size: 13px;">V</text><text y="358" x="474.1214057507987" text-anchor="middle" visibility="hidden" style="font-size: 13px;">A</text><text y="358" x="476.3578274760383" text-anchor="middle" visibility="hidden" style="font-size: 13px;">Y</text><text y="358" x="478.59424920127793" text-anchor="middle" visibility="hidden" style="font-size: 13px;">Y</text><text y="358" x="480.8306709265176" text-anchor="middle" visibility="hidden" style="font-size: 13px;">F</text><text y="358" x="483.06709265175715" text-anchor="middle" visibility="hidden" style="font-size: 13px;">E</text><text y="358" x="485.3035143769968" text-anchor="middle" visibility="hidden" style="font-size: 13px;">K</text><text y="358" x="487.5399361022365" text-anchor="middle" visibility="hidden" style="font-size: 13px;">D</text><text y="358" x="489.77635782747603" text-anchor="middle" visibility="hidden" style="font-size: 13px;">V</text><text y="358" x="492.0127795527157" text-anchor="middle" visibility="hidden" style="font-size: 13px;">K</text><text y="358" x="494.24920127795525" text-anchor="middle" visibility="hidden" style="font-size: 13px;">G</text><text y="358" x="496.48562300319486" text-anchor="middle" visibility="hidden" style="font-size: 13px;">E</text><text y="358" x="498.7220447284345" text-anchor="middle" visibility="hidden" style="font-size: 13px;">S</text><text y="358" x="500.9584664536741" text-anchor="middle" visibility="hidden" style="font-size: 13px;">L</text><text y="358" x="503.19488817891374" text-anchor="middle" visibility="hidden" style="font-size: 13px;">F</text><text y="358" x="505.4313099041534" text-anchor="middle" visibility="hidden" style="font-size: 13px;">H</text><text y="358" x="507.66773162939296" text-anchor="middle" visibility="hidden" style="font-size: 13px;">S</text><text y="358" x="509.9041533546326" text-anchor="middle" visibility="hidden" style="font-size: 13px;">K</text><text y="358" x="512.1405750798722" text-anchor="middle" visibility="hidden" style="font-size: 13px;">K</text><text y="358" x="514.3769968051118" text-anchor="middle" visibility="hidden" style="font-size: 13px;">M</text><text y="358" x="516.6134185303515" text-anchor="middle" visibility="hidden" style="font-size: 13px;">D</text><text y="358" x="518.8498402555911" text-anchor="middle" visibility="hidden" style="font-size: 13px;">L</text><text y="358" x="521.0862619808307" text-anchor="middle" visibility="hidden" style="font-size: 13px;">T</text><text y="358" x="523.3226837060703" text-anchor="middle" visibility="hidden" style="font-size: 13px;">V</text><text y="358" x="525.55910543131" text-anchor="middle" visibility="hidden" style="font-size: 13px;">N</text><text y="358" x="527.7955271565495" text-anchor="middle" visibility="hidden" style="font-size: 13px;">G</text><text y="358" x="530.031948881789" text-anchor="middle" visibility="hidden" style="font-size: 13px;">E</text><text y="358" x="532.2683706070287" text-anchor="middle" visibility="hidden" style="font-size: 13px;">Q</text><text y="358" x="534.5047923322684" text-anchor="middle" visibility="hidden" style="font-size: 13px;">L</text><text y="358" x="536.7412140575079" text-anchor="middle" visibility="hidden" style="font-size: 13px;">D</text><text y="358" x="538.9776357827476" text-anchor="middle" visibility="hidden" style="font-size: 13px;">L</text><text y="358" x="541.2140575079873" text-anchor="middle" visibility="hidden" style="font-size: 13px;">D</text><text y="358" x="543.4504792332268" text-anchor="middle" visibility="hidden" style="font-size: 13px;">P</text><text y="358" x="545.6869009584665" text-anchor="middle" visibility="hidden" style="font-size: 13px;">G</text><text y="358" x="547.923322683706" text-anchor="middle" visibility="hidden" style="font-size: 13px;">Q</text><text y="358" x="550.1597444089457" text-anchor="middle" visibility="hidden" style="font-size: 13px;">T</text><text y="358" x="552.3961661341854" text-anchor="middle" visibility="hidden" style="font-size: 13px;">L</text><text y="358" x="554.6325878594249" text-anchor="middle" visibility="hidden" style="font-size: 13px;">I</text><text y="358" x="556.8690095846646" text-anchor="middle" visibility="hidden" style="font-size: 13px;">Y</text><text y="358" x="559.1054313099041" text-anchor="middle" visibility="hidden" style="font-size: 13px;">Y</text><text y="358" x="561.3418530351438" text-anchor="middle" visibility="hidden" style="font-size: 13px;">V</text><text y="358" x="563.5782747603834" text-anchor="middle" visibility="hidden" style="font-size: 13px;">D</text><text y="358" x="565.814696485623" text-anchor="middle" visibility="hidden" style="font-size: 13px;">E</text><text y="358" x="568.0511182108626" text-anchor="middle" visibility="hidden" style="font-size: 13px;">K</text><text y="358" x="570.2875399361022" text-anchor="middle" visibility="hidden" style="font-size: 13px;">A</text><text y="358" x="572.5239616613418" text-anchor="middle" visibility="hidden" style="font-size: 13px;">P</text><text y="358" x="574.7603833865815" text-anchor="middle" visibility="hidden" style="font-size: 13px;">E</text><text y="358" x="576.9968051118211" text-anchor="middle" visibility="hidden" style="font-size: 13px;">F</text><text y="358" x="579.2332268370607" text-anchor="middle" visibility="hidden" style="font-size: 13px;">S</text><text y="358" x="581.4696485623003" text-anchor="middle" visibility="hidden" style="font-size: 13px;">M</text><text y="358" x="583.7060702875399" text-anchor="middle" visibility="hidden" style="font-size: 13px;">Q</text><text y="358" x="585.9424920127796" text-anchor="middle" visibility="hidden" style="font-size: 13px;">G</text><text y="358" x="588.1789137380192" text-anchor="middle" visibility="hidden" style="font-size: 13px;">L</text><text y="358" x="590.4153354632588" text-anchor="middle" visibility="hidden" style="font-size: 13px;">K</text><text y="358" x="592.6517571884984" text-anchor="middle" visibility="hidden" style="font-size: 13px;">A</text><text y="358" x="594.8881789137381" text-anchor="middle" visibility="hidden" style="font-size: 13px;">G</text><text y="358" x="597.1246006389777" text-anchor="middle" visibility="hidden" style="font-size: 13px;">V</text><text y="358" x="599.3610223642173" text-anchor="middle" visibility="hidden" style="font-size: 13px;">I</text><text y="358" x="601.5974440894569" text-anchor="middle" visibility="hidden" style="font-size: 13px;">A</text><text y="358" x="603.8338658146964" text-anchor="middle" visibility="hidden" style="font-size: 13px;">V</text><text y="358" x="606.0702875399361" text-anchor="middle" visibility="hidden" style="font-size: 13px;">I</text><text y="358" x="608.3067092651756" text-anchor="middle" visibility="hidden" style="font-size: 13px;">V</text><text y="358" x="610.5431309904153" text-anchor="middle" visibility="hidden" style="font-size: 13px;">V</text><text y="358" x="612.779552715655" text-anchor="middle" visibility="hidden" style="font-size: 13px;">V</text><text y="358" x="615.0159744408945" text-anchor="middle" visibility="hidden" style="font-size: 13px;">V</text><text y="358" x="617.2523961661342" text-anchor="middle" visibility="hidden" style="font-size: 13px;">I</text><text y="358" x="619.4888178913737" text-anchor="middle" visibility="hidden" style="font-size: 13px;">A</text><text y="358" x="621.7252396166134" text-anchor="middle" visibility="hidden" style="font-size: 13px;">V</text><text y="358" x="623.9616613418531" text-anchor="middle" visibility="hidden" style="font-size: 13px;">V</text><text y="358" x="626.1980830670926" text-anchor="middle" visibility="hidden" style="font-size: 13px;">A</text><text y="358" x="628.4345047923323" text-anchor="middle" visibility="hidden" style="font-size: 13px;">G</text><text y="358" x="630.670926517572" text-anchor="middle" visibility="hidden" style="font-size: 13px;">I</text><text y="358" x="632.9073482428115" text-anchor="middle" visibility="hidden" style="font-size: 13px;">V</text><text y="358" x="635.1437699680512" text-anchor="middle" visibility="hidden" style="font-size: 13px;">V</text><text y="358" x="637.3801916932907" text-anchor="middle" visibility="hidden" style="font-size: 13px;">L</text><text y="358" x="639.6166134185304" text-anchor="middle" visibility="hidden" style="font-size: 13px;">V</text><text y="358" x="641.85303514377" text-anchor="middle" visibility="hidden" style="font-size: 13px;">I</text><text y="358" x="644.0894568690096" text-anchor="middle" visibility="hidden" style="font-size: 13px;">S</text><text y="358" x="646.3258785942492" text-anchor="middle" visibility="hidden" style="font-size: 13px;">R</text><text y="358" x="648.5623003194888" text-anchor="middle" visibility="hidden" style="font-size: 13px;">K</text><text y="358" x="650.7987220447284" text-anchor="middle" visibility="hidden" style="font-size: 13px;">K</text><text y="358" x="653.035143769968" text-anchor="middle" visibility="hidden" style="font-size: 13px;">R</text><text y="358" x="655.2715654952076" text-anchor="middle" visibility="hidden" style="font-size: 13px;">M</text><text y="358" x="657.5079872204473" text-anchor="middle" visibility="hidden" style="font-size: 13px;">A</text><text y="358" x="659.7444089456869" text-anchor="middle" visibility="hidden" style="font-size: 13px;">K</text><text y="358" x="661.9808306709265" text-anchor="middle" visibility="hidden" style="font-size: 13px;">Y</text><text y="358" x="664.2172523961661" text-anchor="middle" visibility="hidden" style="font-size: 13px;">E</text><text y="358" x="666.4536741214058" text-anchor="middle" visibility="hidden" style="font-size: 13px;">K</text><text y="358" x="668.6900958466454" text-anchor="middle" visibility="hidden" style="font-size: 13px;">A</text><text y="358" x="670.926517571885" text-anchor="middle" visibility="hidden" style="font-size: 13px;">E</text><text y="358" x="673.1629392971246" text-anchor="middle" visibility="hidden" style="font-size: 13px;">I</text><text y="358" x="675.3993610223642" text-anchor="middle" visibility="hidden" style="font-size: 13px;">K</text><text y="358" x="677.6357827476038" text-anchor="middle" visibility="hidden" style="font-size: 13px;">E</text><text y="358" x="679.8722044728435" text-anchor="middle" visibility="hidden" style="font-size: 13px;">M</text><text y="358" x="682.108626198083" text-anchor="middle" visibility="hidden" style="font-size: 13px;">G</text><text y="358" x="684.3450479233227" text-anchor="middle" visibility="hidden" style="font-size: 13px;">E</text><text y="358" x="686.5814696485622" text-anchor="middle" visibility="hidden" style="font-size: 13px;">M</text><text y="358" x="688.8178913738019" text-anchor="middle" visibility="hidden" style="font-size: 13px;">H</text><text y="358" x="691.0543130990415" text-anchor="middle" visibility="hidden" style="font-size: 13px;">R</text><text y="358" x="693.2907348242811" text-anchor="middle" visibility="hidden" style="font-size: 13px;">E</text><text y="358" x="695.5271565495208" text-anchor="middle" visibility="hidden" style="font-size: 13px;">L</text><text y="358" x="697.7635782747603" text-anchor="middle" visibility="hidden" style="font-size: 13px;">N</text><text y="358" x="700" text-anchor="middle" visibility="hidden" style="font-size: 13px;">A</text></g></g></svg><g class="xAxis" transform="translate(0,360)" fill="none" font-size="10" font-family="sans-serif" text-anchor="middle"><path class="domain" stroke="#000" d="M0.5,6V0.5H700.5V6"></path><g class="tick" opacity="1" transform="translate(42.99201277955272,0)"><line stroke="#000" y2="6"></line><text fill="#000" y="9" dy="0.71em">20</text></g><g class="tick" opacity="1" transform="translate(87.72044728434504,0)"><line stroke="#000" y2="6"></line><text fill="#000" y="9" dy="0.71em">40</text></g><g class="tick" opacity="1" transform="translate(132.44888178913737,0)"><line stroke="#000" y2="6"></line><text fill="#000" y="9" dy="0.71em">60</text></g><g class="tick" opacity="1" transform="translate(177.17731629392972,0)"><line stroke="#000" y2="6"></line><text fill="#000" y="9" dy="0.71em">80</text></g><g class="tick" opacity="1" transform="translate(221.90575079872204,0)"><line stroke="#000" y2="6"></line><text fill="#000" y="9" dy="0.71em">100</text></g><g class="tick" opacity="1" transform="translate(266.63418530351436,0)"><line stroke="#000" y2="6"></line><text fill="#000" y="9" dy="0.71em">120</text></g><g class="tick" opacity="1" transform="translate(311.3626198083067,0)"><line stroke="#000" y2="6"></line><text fill="#000" y="9" dy="0.71em">140</text></g><g class="tick" opacity="1" transform="translate(356.09105431309905,0)"><line stroke="#000" y2="6"></line><text fill="#000" y="9" dy="0.71em">160</text></g><g class="tick" opacity="1" transform="translate(400.81948881789134,0)"><line stroke="#000" y2="6"></line><text fill="#000" y="9" dy="0.71em">180</text></g><g class="tick" opacity="1" transform="translate(445.54792332268374,0)"><line stroke="#000" y2="6"></line><text fill="#000" y="9" dy="0.71em">200</text></g><g class="tick" opacity="1" transform="translate(490.27635782747603,0)"><line stroke="#000" y2="6"></line><text fill="#000" y="9" dy="0.71em">220</text></g><g class="tick" opacity="1" transform="translate(535.0047923322684,0)"><line stroke="#000" y2="6"></line><text fill="#000" y="9" dy="0.71em">240</text></g><g class="tick" opacity="1" transform="translate(579.7332268370607,0)"><line stroke="#000" y2="6"></line><text fill="#000" y="9" dy="0.71em">260</text></g><g class="tick" opacity="1" transform="translate(624.4616613418531,0)"><line stroke="#000" y2="6"></line><text fill="#000" y="9" dy="0.71em">280</text></g><g class="tick" opacity="1" transform="translate(669.1900958466454,0)"><line stroke="#000" y2="6"></line><text fill="#000" y="9" dy="0.71em">300</text></g></g><text class="x label" text-anchor="end" x="700" y="390" style="font-size: 13px; font-family: Arial;">Residue number</text><g class="yAxis" fill="none" font-size="10" font-family="sans-serif" text-anchor="end"><path class="domain" stroke="#000" d="M-6,360.5H0.5V0.5H-6"></path><g class="tick" opacity="1" transform="translate(0,327.77272727272725)"><line stroke="#000" x2="-6"></line><text fill="#000" x="-9" dy="0.32em">0</text></g><g class="tick" opacity="1" transform="translate(0,282.00031786395425)"><line stroke="#000" x2="-6"></line><text fill="#000" x="-9" dy="0.32em">2</text></g><g class="tick" opacity="1" transform="translate(0,236.2279084551812)"><line stroke="#000" x2="-6"></line><text fill="#000" x="-9" dy="0.32em">4</text></g><g class="tick" opacity="1" transform="translate(0,190.45549904640814)"><line stroke="#000" x2="-6"></line><text fill="#000" x="-9" dy="0.32em">6</text></g><g class="tick" opacity="1" transform="translate(0,144.68308963763513)"><line stroke="#000" x2="-6"></line><text fill="#000" x="-9" dy="0.32em">8</text></g><g class="tick" opacity="1" transform="translate(0,98.91068022886208)"><line stroke="#000" x2="-6"></line><text fill="#000" x="-9" dy="0.32em">10</text></g><g class="tick" opacity="1" transform="translate(0,53.13827082008902)"><line stroke="#000" x2="-6"></line><text fill="#000" x="-9" dy="0.32em">12</text></g><g class="tick" opacity="1" transform="translate(0,7.3658614113159615)"><line stroke="#000" x2="-6"></line><text fill="#000" x="-9" dy="0.32em">14</text></g></g><text class="y label" text-anchor="middle" y="-50" x="-180" dy="0.8em" transform="rotate(-90)" style="font-size: 13px; font-family: Arial;">Total number of references</text><g class="axisRed" fill="none" font-size="10" font-family="sans-serif" text-anchor="start" visibility="hidden" transform="translate(700, 0)"><path class="domain" stroke="#000" d="M6,360.5H0.5V0.5H6"></path><g class="tick" opacity="1" transform="translate(0,360.5)"><line stroke="#000" x2="6"></line><text fill="#000" x="9" dy="0.32em">0</text></g><text text-anchor="start" dx="5.2em" dy="-2.6em" transform="rotate(90)" visibility="hidden" style="font-size: 12px; font-family: Arial; fill: #d7301f;">No recurrent (&gt;2) missense mutations!</text></g><g class="axisPurple" fill="none" font-size="10" font-family="sans-serif" text-anchor="start" visibility="hidden"><path class="domain" stroke="#000" d="M6,360.5H0.5V0.5H6"></path><g class="tick" opacity="1" transform="translate(0,357.52479338842977)"><line stroke="#000" x2="6"></line><text fill="#000" x="9" dy="0.32em"></text></g><g class="tick" opacity="1" transform="translate(0,327.77272727272725)"><line stroke="#000" x2="6"></line><text fill="#000" x="9" dy="0.32em">0</text></g><g class="tick" opacity="1" transform="translate(0,298.0206611570248)"><line stroke="#000" x2="6"></line><text fill="#000" x="9" dy="0.32em">0.1</text></g><g class="tick" opacity="1" transform="translate(0,268.2685950413223)"><line stroke="#000" x2="6"></line><text fill="#000" x="9" dy="0.32em">0.2</text></g><g class="tick" opacity="1" transform="translate(0,238.51652892561984)"><line stroke="#000" x2="6"></line><text fill="#000" x="9" dy="0.32em">0.3</text></g><g class="tick" opacity="1" transform="translate(0,208.76446280991738)"><line stroke="#000" x2="6"></line><text fill="#000" x="9" dy="0.32em">0.4</text></g><g class="tick" opacity="1" transform="translate(0,179.0123966942149)"><line stroke="#000" x2="6"></line><text fill="#000" x="9" dy="0.32em">0.5</text></g><g class="tick" opacity="1" transform="translate(0,149.26033057851242)"><line stroke="#000" x2="6"></line><text fill="#000" x="9" dy="0.32em">0.6</text></g><g class="tick" opacity="1" transform="translate(0,119.50826446280996)"><line stroke="#000" x2="6"></line><text fill="#000" x="9" dy="0.32em">0.7</text></g><g class="tick" opacity="1" transform="translate(0,89.75619834710744)"><line stroke="#000" x2="6"></line><text fill="#000" x="9" dy="0.32em">0.8</text></g><g class="tick" opacity="1" transform="translate(0,60.00413223140498)"><line stroke="#000" x2="6"></line><text fill="#000" x="9" dy="0.32em">0.9</text></g><g class="tick" opacity="1" transform="translate(0,30.25206611570252)"><line stroke="#000" x2="6"></line><text fill="#000" x="9" dy="0.32em">1</text></g><g class="tick" opacity="1" transform="translate(0,0.5)"><line stroke="#000" x2="6"></line><text fill="#000" x="9" dy="0.32em">1.1</text></g><text text-anchor="start" x="10" y="10" visibility="hidden" style="font-size: 12px; font-family: Arial; fill: #807dba;">Minor Allele Frequency (MAF) %</text></g><circle cx="636" cy="15" r="10" class="compassNav" style="fill: #ffffff; stroke: #666666; stroke-width: 1px;"></circle><path d="M440.935 12.574l3.966 82.766C399.416 41.904 331.674 8 256 8 134.813 8 33.933 94.924 12.296 209.824 10.908 217.193 16.604 224 24.103 224h49.084c5.57 0 10.377-3.842 11.676-9.259C103.407 137.408 172.931 80 256 80c60.893 0 114.512 30.856 146.104 77.801l-101.53-4.865c-6.845-.328-12.574 5.133-12.574 11.986v47.411c0 6.627 5.373 12 12 12h200.333c6.627 0 12-5.373 12-12V12c0-6.627-5.373-12-12-12h-47.411c-6.853 0-12.315 5.729-11.987 12.574zM256 432c-60.895 0-114.517-30.858-146.109-77.805l101.868 4.871c6.845.327 12.573-5.134 12.573-11.986v-47.412c0-6.627-5.373-12-12-12H12c-6.627 0-12 5.373-12 12V500c0 6.627 5.373 12 12 12h47.385c6.863 0 12.328-5.745 11.985-12.599l-4.129-82.575C112.725 470.166 180.405 504 256 504c121.187 0 222.067-86.924 243.704-201.824 1.388-7.369-4.308-14.176-11.807-14.176h-49.084c-5.57 0-10.377 3.842-11.676 9.259C408.593 374.592 339.069 432 256 432z" class="compassNav" transform="translate(631, 10) scale(0.02)" style="fill: #666666; stroke: #666666; stroke-width: 1px;"></path><circle cx="658" cy="15" r="10" class="compassNav" style="fill: #ffffff; stroke: #666666; stroke-width: 1px;"></circle><line class="compassNav" stroke-width="2" stroke="#666666" x1="654" y1="15" x2="662" y2="15"></line><line class="compassNav" stroke-width="2" stroke="#666666" x1="658" y1="11" x2="658" y2="19"></line><circle cx="614" cy="15" r="10" class="compassNav" style="fill: #ffffff; stroke: #666666; stroke-width: 1px;"></circle><line class="compassNav" stroke-width="2" stroke="#666666" x1="610" y1="15" x2="618" y2="15"></line><path d="M582 14 l20 -12 a100,40 0 0,0 0,24z" class="compassNav" style="fill: #ffffff; stroke: #666666; stroke-width: 1px;"></path><path d="M690 14 l-20 -12 a100,40 0 0,1 0,24z" class="compassNav" style="fill: #ffffff; stroke: #666666; stroke-width: 1px;"></path><path d="M216 0h80c13.3 0 24 10.7 24 24v168h87.7c17.8 0 26.7 21.5 14.1 34.1L269.7 378.3c-7.5 7.5-19.8 7.5-27.3 0L90.1 226.1c-12.6-12.6-3.7-34.1 14.1-34.1H192V24c0-13.3 10.7-24 24-24zm296 376v112c0 13.3-10.7 24-24 24H24c-13.3 0-24-10.7-24-24V376c0-13.3 10.7-24 24-24h146.7l49 49c20.1 20.1 52.5 20.1 72.6 0l49-49H488c13.3 0 24 10.7 24 24zm-124 88c0-11-9-20-20-20s-20 9-20 20 9 20 20 20 20-9 20-20zm64 0c0-11-9-20-20-20s-20 9-20 20 9 20 20 20 20-9 20-20z" class="compassNav" transform="translate(552,0) scale(0.05)" style="fill: #336699; stroke: #336699; stroke-width: 1px; cursor: pointer;"></path></g></svg>