<svg width="800" height="400" style="background-color: white;"><g transform="translate(50,0)"><svg width="700" height="360"><g style="-webkit-tap-highlight-color: rgba(0, 0, 0, 0);"><rect width="700" height="360" style="fill: #ffffff;"></rect><g id="lines"><line class="line" stroke-width="1" stroke="#d7301f" x1="-477.7027027027027" y1="333" x2="-477.7027027027027" y2="360" visibility="hidden" style="stroke-dasharray: 3px, 3px;"></line></g><g><rect x="-482.7027027027027" y="355" width="10" height="10" visibility="hidden" style="fill: #ffffff; stroke: #d7301f;"></rect></g><g id="lines"><line class="line" stroke-width="1" stroke="#6a51a3" x1="-477.7027027027027" y1="333" x2="-477.7027027027027" y2="327.27272727272725" visibility="hidden" style="stroke-dasharray: 3px, 3px;"></line></g><g><rect x="-482.7027027027027" y="322.27272727272725" width="10" height="10" visibility="hidden" style="fill: #ffffff; stroke: #6a51a3;"></rect></g><g id="lines"><line class="line" stroke-width="1" stroke="#666666" x1="9.45945945945946" y1="333" x2="9.45945945945946" y2="323.23854881636083"></line><line class="line" stroke-width="1" stroke="#666666" x1="14.18918918918919" y1="333" x2="14.18918918918919" y2="321.2214595881776"></line><line class="line" stroke-width="1" stroke="#666666" x1="37.83783783783784" y1="333" x2="37.83783783783784" y2="324.2470934304524"></line><line class="line" stroke-width="1" stroke="#666666" x1="37.83783783783784" y1="333" x2="37.83783783783784" y2="322.23000420226924"></line><line class="line" stroke-width="1" stroke="#666666" x1="37.83783783783784" y1="333" x2="37.83783783783784" y2="326.26418265863566"></line><line class="line" stroke-width="1" stroke="#666666" x1="61.48648648648649" y1="333" x2="61.48648648648649" y2="326.26418265863566"></line><line class="line" stroke-width="1" stroke="#666666" x1="70.94594594594595" y1="333" x2="70.94594594594595" y2="149.768875192604"></line><line class="line" stroke-width="1" stroke="#666666" x1="113.51351351351352" y1="333" x2="113.51351351351352" y2="87.23910911892426"></line><line class="line" stroke-width="1" stroke="#666666" x1="122.97297297297298" y1="333" x2="122.97297297297298" y2="326.26418265863566"></line><line class="line" stroke-width="1" stroke="#666666" x1="127.7027027027027" y1="333" x2="127.7027027027027" y2="322.23000420226924"></line><line class="line" stroke-width="1" stroke="#666666" x1="132.43243243243245" y1="333" x2="132.43243243243245" y2="325.25563804454407"></line><line class="line" stroke-width="1" stroke="#666666" x1="132.43243243243245" y1="333" x2="132.43243243243245" y2="325.25563804454407"></line><line class="line" stroke-width="1" stroke="#666666" x1="132.43243243243245" y1="333" x2="132.43243243243245" y2="316.1787365177196"></line><line class="line" stroke-width="1" stroke="#666666" x1="141.8918918918919" y1="333" x2="141.8918918918919" y2="315.17019190362794"></line><line class="line" stroke-width="1" stroke="#666666" x1="156.08108108108107" y1="333" x2="156.08108108108107" y2="326.26418265863566"></line><line class="line" stroke-width="1" stroke="#666666" x1="175" y1="333" x2="175" y2="29.75206611570252"></line><line class="line" stroke-width="1" stroke="#666666" x1="212.83783783783784" y1="333" x2="212.83783783783784" y2="277.8540411822384"></line><line class="line" stroke-width="1" stroke="#666666" x1="241.2162162162162" y1="333" x2="241.2162162162162" y2="324.2470934304524"></line><line class="line" stroke-width="1" stroke="#666666" x1="241.2162162162162" y1="333" x2="241.2162162162162" y2="298.0249334640706"></line><line class="line" stroke-width="1" stroke="#666666" x1="245.94594594594597" y1="333" x2="245.94594594594597" y2="324.2470934304524"></line><line class="line" stroke-width="1" stroke="#666666" x1="245.94594594594597" y1="333" x2="245.94594594594597" y2="325.25563804454407"></line><line class="line" stroke-width="1" stroke="#666666" x1="293.2432432432432" y1="333" x2="293.2432432432432" y2="224.4011766353831"></line><line class="line" stroke-width="1" stroke="#666666" x1="326.35135135135135" y1="333" x2="326.35135135135135" y2="325.25563804454407"></line><line class="line" stroke-width="1" stroke="#666666" x1="326.35135135135135" y1="333" x2="326.35135135135135" y2="323.23854881636083"></line><line class="line" stroke-width="1" stroke="#666666" x1="373.64864864864865" y1="333" x2="373.64864864864865" y2="324.2470934304524"></line><line class="line" stroke-width="1" stroke="#666666" x1="373.64864864864865" y1="333" x2="373.64864864864865" y2="324.2470934304524"></line><line class="line" stroke-width="1" stroke="#666666" x1="397.2972972972973" y1="333" x2="397.2972972972973" y2="326.26418265863566"></line><line class="line" stroke-width="1" stroke="#666666" x1="397.2972972972973" y1="333" x2="397.2972972972973" y2="325.25563804454407"></line><line class="line" stroke-width="1" stroke="#666666" x1="439.8648648648649" y1="333" x2="439.8648648648649" y2="324.2470934304524"></line><line class="line" stroke-width="1" stroke="#666666" x1="444.5945945945946" y1="333" x2="444.5945945945946" y2="325.25563804454407"></line><line class="line" stroke-width="1" stroke="#666666" x1="444.5945945945946" y1="333" x2="444.5945945945946" y2="314.16164728953635"></line><line class="line" stroke-width="1" stroke="#666666" x1="468.2432432432433" y1="333" x2="468.2432432432433" y2="323.23854881636083"></line><line class="line" stroke-width="1" stroke="#666666" x1="468.2432432432433" y1="333" x2="468.2432432432433" y2="323.23854881636083"></line><line class="line" stroke-width="1" stroke="#666666" x1="477.7027027027027" y1="333" x2="477.7027027027027" y2="326.26418265863566"></line><line class="line" stroke-width="1" stroke="#666666" x1="487.16216216216213" y1="333" x2="487.16216216216213" y2="325.25563804454407"></line><line class="line" stroke-width="1" stroke="#666666" x1="487.16216216216213" y1="333" x2="487.16216216216213" y2="322.23000420226924"></line><line class="line" stroke-width="1" stroke="#666666" x1="510.8108108108108" y1="333" x2="510.8108108108108" y2="325.25563804454407"></line><line class="line" stroke-width="1" stroke="#666666" x1="558.1081081081081" y1="333" x2="558.1081081081081" y2="306.09329037680345"></line><line class="line" stroke-width="1" stroke="#666666" x1="558.1081081081081" y1="333" x2="558.1081081081081" y2="310.1274688331699"></line><line class="line" stroke-width="1" stroke="#666666" x1="591.2162162162163" y1="333" x2="591.2162162162163" y2="325.25563804454407"></line><line class="line" stroke-width="1" stroke="#666666" x1="600.6756756756757" y1="333" x2="600.6756756756757" y2="323.23854881636083"></line><line class="line" stroke-width="1" stroke="#666666" x1="600.6756756756757" y1="333" x2="600.6756756756757" y2="323.23854881636083"></line><line class="line" stroke-width="1" stroke="#666666" x1="629.0540540540541" y1="333" x2="629.0540540540541" y2="326.26418265863566"></line><line class="line" stroke-width="1" stroke="#666666" x1="643.2432432432432" y1="333" x2="643.2432432432432" y2="324.2470934304524"></line><line class="line" stroke-width="1" stroke="#666666" x1="643.2432432432432" y1="333" x2="643.2432432432432" y2="325.25563804454407"></line><line class="line" stroke-width="1" stroke="#666666" x1="652.7027027027027" y1="333" x2="652.7027027027027" y2="325.25563804454407"></line><line class="line" stroke-width="1" stroke="#666666" x1="657.4324324324324" y1="333" x2="657.4324324324324" y2="326.26418265863566"></line><line class="line" stroke-width="1" stroke="#666666" x1="657.4324324324324" y1="333" x2="657.4324324324324" y2="322.23000420226924"></line><line class="line" stroke-width="1" stroke="#666666" x1="685.8108108108108" y1="333" x2="685.8108108108108" y2="317.1872811318112"></line></g><g id="circles"><circle r="4" cx="9.45945945945946" cy="323.23854881636083" style="fill: #4393c3; stroke: #666666; stroke-width: 1px;"></circle><circle r="4" cx="14.18918918918919" cy="321.2214595881776" style="fill: #4393c3; stroke: #666666; stroke-width: 1px;"></circle><circle r="4" cx="37.83783783783784" cy="324.2470934304524" style="fill: #5aae61; stroke: #666666; stroke-width: 1px;"></circle><circle r="4" cx="37.83783783783784" cy="322.23000420226924" style="fill: #bf812d; stroke: #666666; stroke-width: 1px;"></circle><circle r="4" cx="37.83783783783784" cy="326.26418265863566" style="fill: #666666; stroke: #666666; stroke-width: 1px;"></circle><circle r="4" cx="61.48648648648649" cy="326.26418265863566" style="fill: #666666; stroke: #666666; stroke-width: 1px;"></circle><circle r="4" cx="70.94594594594595" cy="149.768875192604" style="fill: #4393c3; stroke: #666666; stroke-width: 1px;"></circle><circle r="4" cx="113.51351351351352" cy="87.23910911892426" style="fill: #4393c3; stroke: #666666; stroke-width: 1px;"></circle><circle r="4" cx="122.97297297297298" cy="326.26418265863566" style="fill: #666666; stroke: #666666; stroke-width: 1px;"></circle><circle r="4" cx="127.7027027027027" cy="322.23000420226924" style="fill: #4393c3; stroke: #666666; stroke-width: 1px;"></circle><circle r="4" cx="132.43243243243245" cy="325.25563804454407" style="fill: #5aae61; stroke: #666666; stroke-width: 1px;"></circle><circle r="4" cx="132.43243243243245" cy="325.25563804454407" style="fill: #666666; stroke: #666666; stroke-width: 1px;"></circle><circle r="4" cx="132.43243243243245" cy="316.1787365177196" style="fill: #bf812d; stroke: #666666; stroke-width: 1px;"></circle><circle r="4" cx="141.8918918918919" cy="315.17019190362794" style="fill: #4393c3; stroke: #666666; stroke-width: 1px;"></circle><circle r="4" cx="156.08108108108107" cy="326.26418265863566" style="fill: #666666; stroke: #666666; stroke-width: 1px;"></circle><circle r="4" cx="175" cy="29.75206611570252" style="fill: #4393c3; stroke: #666666; stroke-width: 1px;"></circle><circle r="4" cx="212.83783783783784" cy="277.8540411822384" style="fill: #4393c3; stroke: #666666; stroke-width: 1px;"></circle><circle r="4" cx="241.2162162162162" cy="324.2470934304524" style="fill: #5aae61; stroke: #666666; stroke-width: 1px;"></circle><circle r="4" cx="241.2162162162162" cy="298.0249334640706" style="fill: #bf812d; stroke: #666666; stroke-width: 1px;"></circle><circle r="4" cx="245.94594594594597" cy="324.2470934304524" style="fill: #5aae61; stroke: #666666; stroke-width: 1px;"></circle><circle r="4" cx="245.94594594594597" cy="325.25563804454407" style="fill: #bf812d; stroke: #666666; stroke-width: 1px;"></circle><circle r="4" cx="293.2432432432432" cy="224.4011766353831" style="fill: #4393c3; stroke: #666666; stroke-width: 1px;"></circle><circle r="4" cx="326.35135135135135" cy="325.25563804454407" style="fill: #5aae61; stroke: #666666; stroke-width: 1px;"></circle><circle r="4" cx="326.35135135135135" cy="323.23854881636083" style="fill: #bf812d; stroke: #666666; stroke-width: 1px;"></circle><circle r="4" cx="373.64864864864865" cy="324.2470934304524" style="fill: #5aae61; stroke: #666666; stroke-width: 1px;"></circle><circle r="4" cx="373.64864864864865" cy="324.2470934304524" style="fill: #bf812d; stroke: #666666; stroke-width: 1px;"></circle><circle r="4" cx="397.2972972972973" cy="326.26418265863566" style="fill: #5aae61; stroke: #666666; stroke-width: 1px;"></circle><circle r="4" cx="397.2972972972973" cy="325.25563804454407" style="fill: #bf812d; stroke: #666666; stroke-width: 1px;"></circle><circle r="4" cx="439.8648648648649" cy="324.2470934304524" style="fill: #4393c3; stroke: #666666; stroke-width: 1px;"></circle><circle r="4" cx="444.5945945945946" cy="325.25563804454407" style="fill: #5aae61; stroke: #666666; stroke-width: 1px;"></circle><circle r="4" cx="444.5945945945946" cy="314.16164728953635" style="fill: #bf812d; stroke: #666666; stroke-width: 1px;"></circle><circle r="4" cx="468.2432432432433" cy="323.23854881636083" style="fill: #5aae61; stroke: #666666; stroke-width: 1px;"></circle><circle r="4" cx="468.2432432432433" cy="323.23854881636083" style="fill: #bf812d; stroke: #666666; stroke-width: 1px;"></circle><circle r="4" cx="477.7027027027027" cy="326.26418265863566" style="fill: #4393c3; stroke: #666666; stroke-width: 1px;"></circle><circle r="4" cx="487.16216216216213" cy="325.25563804454407" style="fill: #5aae61; stroke: #666666; stroke-width: 1px;"></circle><circle r="4" cx="487.16216216216213" cy="322.23000420226924" style="fill: #bf812d; stroke: #666666; stroke-width: 1px;"></circle><circle r="4" cx="510.8108108108108" cy="325.25563804454407" style="fill: #5aae61; stroke: #666666; stroke-width: 1px;"></circle><circle r="4" cx="558.1081081081081" cy="306.09329037680345" style="fill: #5aae61; stroke: #666666; stroke-width: 1px;"></circle><circle r="4" cx="558.1081081081081" cy="310.1274688331699" style="fill: #bf812d; stroke: #666666; stroke-width: 1px;"></circle><circle r="4" cx="591.2162162162163" cy="325.25563804454407" style="fill: #bf812d; stroke: #666666; stroke-width: 1px;"></circle><circle r="4" cx="600.6756756756757" cy="323.23854881636083" style="fill: #5aae61; stroke: #666666; stroke-width: 1px;"></circle><circle r="4" cx="600.6756756756757" cy="323.23854881636083" style="fill: #bf812d; stroke: #666666; stroke-width: 1px;"></circle><circle r="4" cx="629.0540540540541" cy="326.26418265863566" style="fill: #666666; stroke: #666666; stroke-width: 1px;"></circle><circle r="4" cx="643.2432432432432" cy="324.2470934304524" style="fill: #5aae61; stroke: #666666; stroke-width: 1px;"></circle><circle r="4" cx="643.2432432432432" cy="325.25563804454407" style="fill: #bf812d; stroke: #666666; stroke-width: 1px;"></circle><circle r="4" cx="652.7027027027027" cy="325.25563804454407" style="fill: #4393c3; stroke: #666666; stroke-width: 1px;"></circle><circle r="4" cx="657.4324324324324" cy="326.26418265863566" style="fill: #5aae61; stroke: #666666; stroke-width: 1px;"></circle><circle r="4" cx="657.4324324324324" cy="322.23000420226924" style="fill: #bf812d; stroke: #666666; stroke-width: 1px;"></circle><circle r="4" cx="685.8108108108108" cy="317.1872811318112" style="fill: #4393c3; stroke: #666666; stroke-width: 1px;"></circle></g><g><rect x="0" y="333" width="700" height="12" style="fill: #ffffff; stroke-width: 1px; stroke: #666666;"></rect><rect x="18.91891891891892" y="333" width="638.5135135135134" height="12" style="fill: #aec7e8; stroke-width: 1px; stroke: #666666;"></rect></g><g><a target="_blank" xlink:href="http://pfam.xfam.org/family/"><text y="343" x="350" text-anchor="middle" style="color: rgb(102, 102, 102); font-weight: normal; font-size: 12px; font-family: Arial; cursor: pointer;"></text></a><a target="_blank" xlink:href="http://pfam.xfam.org/family/Stathmin"><text y="343" x="338.1756756756757" text-anchor="middle" style="color: rgb(102, 102, 102); font-weight: normal; font-size: 12px; font-family: Arial; cursor: pointer;">Stathmin</text></a></g><g><text y="358" x="0" text-anchor="middle" visibility="hidden" style="font-size: 13px;">M</text><text y="358" x="4.72972972972973" text-anchor="middle" visibility="hidden" style="font-size: 13px;">A</text><text y="358" x="9.45945945945946" text-anchor="middle" visibility="hidden" style="font-size: 13px;">S</text><text y="358" x="14.18918918918919" text-anchor="middle" visibility="hidden" style="font-size: 13px;">S</text><text y="358" x="18.91891891891892" text-anchor="middle" visibility="hidden" style="font-size: 13px;">D</text><text y="358" x="23.64864864864865" text-anchor="middle" visibility="hidden" style="font-size: 13px;">I</text><text y="358" x="28.37837837837838" text-anchor="middle" visibility="hidden" style="font-size: 13px;">Q</text><text y="358" x="33.10810810810811" text-anchor="middle" visibility="hidden" style="font-size: 13px;">V</text><text y="358" x="37.83783783783784" text-anchor="middle" visibility="hidden" style="font-size: 13px;">K</text><text y="358" x="42.56756756756757" text-anchor="middle" visibility="hidden" style="font-size: 13px;">E</text><text y="358" x="47.2972972972973" text-anchor="middle" visibility="hidden" style="font-size: 13px;">L</text><text y="358" x="52.02702702702703" text-anchor="middle" visibility="hidden" style="font-size: 13px;">E</text><text y="358" x="56.75675675675676" text-anchor="middle" visibility="hidden" style="font-size: 13px;">K</text><text y="358" x="61.48648648648649" text-anchor="middle" visibility="hidden" style="font-size: 13px;">R</text><text y="358" x="66.21621621621622" text-anchor="middle" visibility="hidden" style="font-size: 13px;">A</text><text y="358" x="70.94594594594595" text-anchor="middle" visibility="hidden" style="font-size: 13px;">S</text><text y="358" x="75.67567567567568" text-anchor="middle" visibility="hidden" style="font-size: 13px;">G</text><text y="358" x="80.4054054054054" text-anchor="middle" visibility="hidden" style="font-size: 13px;">Q</text><text y="358" x="85.13513513513514" text-anchor="middle" visibility="hidden" style="font-size: 13px;">A</text><text y="358" x="89.86486486486486" text-anchor="middle" visibility="hidden" style="font-size: 13px;">F</text><text y="358" x="94.5945945945946" text-anchor="middle" visibility="hidden" style="font-size: 13px;">E</text><text y="358" x="99.32432432432432" text-anchor="middle" visibility="hidden" style="font-size: 13px;">L</text><text y="358" x="104.05405405405406" text-anchor="middle" visibility="hidden" style="font-size: 13px;">I</text><text y="358" x="108.78378378378378" text-anchor="middle" visibility="hidden" style="font-size: 13px;">L</text><text y="358" x="113.51351351351352" text-anchor="middle" visibility="hidden" style="font-size: 13px;">S</text><text y="358" x="118.24324324324324" text-anchor="middle" visibility="hidden" style="font-size: 13px;">P</text><text y="358" x="122.97297297297298" text-anchor="middle" visibility="hidden" style="font-size: 13px;">R</text><text y="358" x="127.7027027027027" text-anchor="middle" visibility="hidden" style="font-size: 13px;">S</text><text y="358" x="132.43243243243245" text-anchor="middle" visibility="hidden" style="font-size: 13px;">K</text><text y="358" x="137.16216216216216" text-anchor="middle" visibility="hidden" style="font-size: 13px;">E</text><text y="358" x="141.8918918918919" text-anchor="middle" visibility="hidden" style="font-size: 13px;">S</text><text y="358" x="146.6216216216216" text-anchor="middle" visibility="hidden" style="font-size: 13px;">V</text><text y="358" x="151.35135135135135" text-anchor="middle" visibility="hidden" style="font-size: 13px;">P</text><text y="358" x="156.08108108108107" text-anchor="middle" visibility="hidden" style="font-size: 13px;">E</text><text y="358" x="160.8108108108108" text-anchor="middle" visibility="hidden" style="font-size: 13px;">F</text><text y="358" x="165.54054054054055" text-anchor="middle" visibility="hidden" style="font-size: 13px;">P</text><text y="358" x="170.2702702702703" text-anchor="middle" visibility="hidden" style="font-size: 13px;">L</text><text y="358" x="175" text-anchor="middle" visibility="hidden" style="font-size: 13px;">S</text><text y="358" x="179.7297297297297" text-anchor="middle" visibility="hidden" style="font-size: 13px;">P</text><text y="358" x="184.45945945945945" text-anchor="middle" visibility="hidden" style="font-size: 13px;">P</text><text y="358" x="189.1891891891892" text-anchor="middle" visibility="hidden" style="font-size: 13px;">K</text><text y="358" x="193.91891891891893" text-anchor="middle" visibility="hidden" style="font-size: 13px;">K</text><text y="358" x="198.64864864864865" text-anchor="middle" visibility="hidden" style="font-size: 13px;">K</text><text y="358" x="203.37837837837836" text-anchor="middle" visibility="hidden" style="font-size: 13px;">D</text><text y="358" x="208.10810810810813" text-anchor="middle" visibility="hidden" style="font-size: 13px;">L</text><text y="358" x="212.83783783783784" text-anchor="middle" visibility="hidden" style="font-size: 13px;">S</text><text y="358" x="217.56756756756755" text-anchor="middle" visibility="hidden" style="font-size: 13px;">L</text><text y="358" x="222.2972972972973" text-anchor="middle" visibility="hidden" style="font-size: 13px;">E</text><text y="358" x="227.02702702702703" text-anchor="middle" visibility="hidden" style="font-size: 13px;">E</text><text y="358" x="231.75675675675677" text-anchor="middle" visibility="hidden" style="font-size: 13px;">I</text><text y="358" x="236.48648648648648" text-anchor="middle" visibility="hidden" style="font-size: 13px;">Q</text><text y="358" x="241.2162162162162" text-anchor="middle" visibility="hidden" style="font-size: 13px;">K</text><text y="358" x="245.94594594594597" text-anchor="middle" visibility="hidden" style="font-size: 13px;">K</text><text y="358" x="250.67567567567568" text-anchor="middle" visibility="hidden" style="font-size: 13px;">L</text><text y="358" x="255.4054054054054" text-anchor="middle" visibility="hidden" style="font-size: 13px;">E</text><text y="358" x="260.1351351351351" text-anchor="middle" visibility="hidden" style="font-size: 13px;">A</text><text y="358" x="264.8648648648649" text-anchor="middle" visibility="hidden" style="font-size: 13px;">A</text><text y="358" x="269.5945945945946" text-anchor="middle" visibility="hidden" style="font-size: 13px;">E</text><text y="358" x="274.3243243243243" text-anchor="middle" visibility="hidden" style="font-size: 13px;">E</text><text y="358" x="279.05405405405406" text-anchor="middle" visibility="hidden" style="font-size: 13px;">R</text><text y="358" x="283.7837837837838" text-anchor="middle" visibility="hidden" style="font-size: 13px;">R</text><text y="358" x="288.51351351351354" text-anchor="middle" visibility="hidden" style="font-size: 13px;">K</text><text y="358" x="293.2432432432432" text-anchor="middle" visibility="hidden" style="font-size: 13px;">S</text><text y="358" x="297.97297297297297" text-anchor="middle" visibility="hidden" style="font-size: 13px;">H</text><text y="358" x="302.7027027027027" text-anchor="middle" visibility="hidden" style="font-size: 13px;">E</text><text y="358" x="307.43243243243245" text-anchor="middle" visibility="hidden" style="font-size: 13px;">A</text><text y="358" x="312.16216216216213" text-anchor="middle" visibility="hidden" style="font-size: 13px;">E</text><text y="358" x="316.8918918918919" text-anchor="middle" visibility="hidden" style="font-size: 13px;">V</text><text y="358" x="321.6216216216216" text-anchor="middle" visibility="hidden" style="font-size: 13px;">L</text><text y="358" x="326.35135135135135" text-anchor="middle" visibility="hidden" style="font-size: 13px;">K</text><text y="358" x="331.0810810810811" text-anchor="middle" visibility="hidden" style="font-size: 13px;">Q</text><text y="358" x="335.8108108108108" text-anchor="middle" visibility="hidden" style="font-size: 13px;">L</text><text y="358" x="340.5405405405406" text-anchor="middle" visibility="hidden" style="font-size: 13px;">A</text><text y="358" x="345.27027027027026" text-anchor="middle" visibility="hidden" style="font-size: 13px;">E</text><text y="358" x="350" text-anchor="middle" visibility="hidden" style="font-size: 13px;">K</text><text y="358" x="354.72972972972974" text-anchor="middle" visibility="hidden" style="font-size: 13px;">R</text><text y="358" x="359.4594594594594" text-anchor="middle" visibility="hidden" style="font-size: 13px;">E</text><text y="358" x="364.1891891891892" text-anchor="middle" visibility="hidden" style="font-size: 13px;">H</text><text y="358" x="368.9189189189189" text-anchor="middle" visibility="hidden" style="font-size: 13px;">E</text><text y="358" x="373.64864864864865" text-anchor="middle" visibility="hidden" style="font-size: 13px;">K</text><text y="358" x="378.3783783783784" text-anchor="middle" visibility="hidden" style="font-size: 13px;">E</text><text y="358" x="383.10810810810807" text-anchor="middle" visibility="hidden" style="font-size: 13px;">V</text><text y="358" x="387.83783783783787" text-anchor="middle" visibility="hidden" style="font-size: 13px;">L</text><text y="358" x="392.5675675675676" text-anchor="middle" visibility="hidden" style="font-size: 13px;">Q</text><text y="358" x="397.2972972972973" text-anchor="middle" visibility="hidden" style="font-size: 13px;">K</text><text y="358" x="402.02702702702703" text-anchor="middle" visibility="hidden" style="font-size: 13px;">A</text><text y="358" x="406.7567567567567" text-anchor="middle" visibility="hidden" style="font-size: 13px;">I</text><text y="358" x="411.48648648648646" text-anchor="middle" visibility="hidden" style="font-size: 13px;">E</text><text y="358" x="416.21621621621625" text-anchor="middle" visibility="hidden" style="font-size: 13px;">E</text><text y="358" x="420.94594594594594" text-anchor="middle" visibility="hidden" style="font-size: 13px;">N</text><text y="358" x="425.6756756756757" text-anchor="middle" visibility="hidden" style="font-size: 13px;">N</text><text y="358" x="430.4054054054054" text-anchor="middle" visibility="hidden" style="font-size: 13px;">N</text><text y="358" x="435.1351351351351" text-anchor="middle" visibility="hidden" style="font-size: 13px;">F</text><text y="358" x="439.8648648648649" text-anchor="middle" visibility="hidden" style="font-size: 13px;">S</text><text y="358" x="444.5945945945946" text-anchor="middle" visibility="hidden" style="font-size: 13px;">K</text><text y="358" x="449.3243243243243" text-anchor="middle" visibility="hidden" style="font-size: 13px;">M</text><text y="358" x="454.05405405405406" text-anchor="middle" visibility="hidden" style="font-size: 13px;">A</text><text y="358" x="458.78378378378375" text-anchor="middle" visibility="hidden" style="font-size: 13px;">E</text><text y="358" x="463.51351351351354" text-anchor="middle" visibility="hidden" style="font-size: 13px;">E</text><text y="358" x="468.2432432432433" text-anchor="middle" visibility="hidden" style="font-size: 13px;">K</text><text y="358" x="472.97297297297297" text-anchor="middle" visibility="hidden" style="font-size: 13px;">L</text><text y="358" x="477.7027027027027" text-anchor="middle" visibility="hidden" style="font-size: 13px;">T</text><text y="358" x="482.4324324324324" text-anchor="middle" visibility="hidden" style="font-size: 13px;">H</text><text y="358" x="487.16216216216213" text-anchor="middle" visibility="hidden" style="font-size: 13px;">K</text><text y="358" x="491.89189189189193" text-anchor="middle" visibility="hidden" style="font-size: 13px;">M</text><text y="358" x="496.6216216216216" text-anchor="middle" visibility="hidden" style="font-size: 13px;">E</text><text y="358" x="501.35135135135135" text-anchor="middle" visibility="hidden" style="font-size: 13px;">A</text><text y="358" x="506.0810810810811" text-anchor="middle" visibility="hidden" style="font-size: 13px;">N</text><text y="358" x="510.8108108108108" text-anchor="middle" visibility="hidden" style="font-size: 13px;">K</text><text y="358" x="515.5405405405405" text-anchor="middle" visibility="hidden" style="font-size: 13px;">E</text><text y="358" x="520.2702702702702" text-anchor="middle" visibility="hidden" style="font-size: 13px;">N</text><text y="358" x="525" text-anchor="middle" visibility="hidden" style="font-size: 13px;">R</text><text y="358" x="529.7297297297298" text-anchor="middle" visibility="hidden" style="font-size: 13px;">E</text><text y="358" x="534.4594594594595" text-anchor="middle" visibility="hidden" style="font-size: 13px;">A</text><text y="358" x="539.1891891891892" text-anchor="middle" visibility="hidden" style="font-size: 13px;">Q</text><text y="358" x="543.9189189189188" text-anchor="middle" visibility="hidden" style="font-size: 13px;">M</text><text y="358" x="548.6486486486486" text-anchor="middle" visibility="hidden" style="font-size: 13px;">A</text><text y="358" x="553.3783783783784" text-anchor="middle" visibility="hidden" style="font-size: 13px;">A</text><text y="358" x="558.1081081081081" text-anchor="middle" visibility="hidden" style="font-size: 13px;">K</text><text y="358" x="562.8378378378378" text-anchor="middle" visibility="hidden" style="font-size: 13px;">L</text><text y="358" x="567.5675675675676" text-anchor="middle" visibility="hidden" style="font-size: 13px;">E</text><text y="358" x="572.2972972972973" text-anchor="middle" visibility="hidden" style="font-size: 13px;">R</text><text y="358" x="577.0270270270271" text-anchor="middle" visibility="hidden" style="font-size: 13px;">L</text><text y="358" x="581.7567567567568" text-anchor="middle" visibility="hidden" style="font-size: 13px;">R</text><text y="358" x="586.4864864864865" text-anchor="middle" visibility="hidden" style="font-size: 13px;">E</text><text y="358" x="591.2162162162163" text-anchor="middle" visibility="hidden" style="font-size: 13px;">K</text><text y="358" x="595.9459459459459" text-anchor="middle" visibility="hidden" style="font-size: 13px;">D</text><text y="358" x="600.6756756756757" text-anchor="middle" visibility="hidden" style="font-size: 13px;">K</text><text y="358" x="605.4054054054054" text-anchor="middle" visibility="hidden" style="font-size: 13px;">H</text><text y="358" x="610.1351351351351" text-anchor="middle" visibility="hidden" style="font-size: 13px;">I</text><text y="358" x="614.8648648648649" text-anchor="middle" visibility="hidden" style="font-size: 13px;">E</text><text y="358" x="619.5945945945946" text-anchor="middle" visibility="hidden" style="font-size: 13px;">E</text><text y="358" x="624.3243243243243" text-anchor="middle" visibility="hidden" style="font-size: 13px;">V</text><text y="358" x="629.0540540540541" text-anchor="middle" visibility="hidden" style="font-size: 13px;">R</text><text y="358" x="633.7837837837837" text-anchor="middle" visibility="hidden" style="font-size: 13px;">K</text><text y="358" x="638.5135135135135" text-anchor="middle" visibility="hidden" style="font-size: 13px;">N</text><text y="358" x="643.2432432432432" text-anchor="middle" visibility="hidden" style="font-size: 13px;">K</text><text y="358" x="647.9729729729729" text-anchor="middle" visibility="hidden" style="font-size: 13px;">E</text><text y="358" x="652.7027027027027" text-anchor="middle" visibility="hidden" style="font-size: 13px;">S</text><text y="358" x="657.4324324324324" text-anchor="middle" visibility="hidden" style="font-size: 13px;">K</text><text y="358" x="662.1621621621622" text-anchor="middle" visibility="hidden" style="font-size: 13px;">D</text><text y="358" x="666.8918918918919" text-anchor="middle" visibility="hidden" style="font-size: 13px;">P</text><text y="358" x="671.6216216216216" text-anchor="middle" visibility="hidden" style="font-size: 13px;">A</text><text y="358" x="676.3513513513514" text-anchor="middle" visibility="hidden" style="font-size: 13px;">D</text><text y="358" x="681.0810810810812" text-anchor="middle" visibility="hidden" style="font-size: 13px;">E</text><text y="358" x="685.8108108108108" text-anchor="middle" visibility="hidden" style="font-size: 13px;">T</text><text y="358" x="690.5405405405405" text-anchor="middle" visibility="hidden" style="font-size: 13px;">E</text><text y="358" x="695.2702702702702" text-anchor="middle" visibility="hidden" style="font-size: 13px;">A</text><text y="358" x="700" text-anchor="middle" visibility="hidden" style="font-size: 13px;">D</text></g></g></svg><g class="xAxis" transform="translate(0,360)" fill="none" font-size="10" font-family="sans-serif" text-anchor="middle"><path class="domain" stroke="#000" d="M0.5,6V0.5H700.5V6"></path><g class="tick" opacity="1" transform="translate(90.36486486486486,0)"><line stroke="#000" y2="6"></line><text fill="#000" y="9" dy="0.71em">20</text></g><g class="tick" opacity="1" transform="translate(184.95945945945945,0)"><line stroke="#000" y2="6"></line><text fill="#000" y="9" dy="0.71em">40</text></g><g class="tick" opacity="1" transform="translate(279.55405405405406,0)"><line stroke="#000" y2="6"></line><text fill="#000" y="9" dy="0.71em">60</text></g><g class="tick" opacity="1" transform="translate(374.14864864864865,0)"><line stroke="#000" y2="6"></line><text fill="#000" y="9" dy="0.71em">80</text></g><g class="tick" opacity="1" transform="translate(468.7432432432433,0)"><line stroke="#000" y2="6"></line><text fill="#000" y="9" dy="0.71em">100</text></g><g class="tick" opacity="1" transform="translate(563.3378378378378,0)"><line stroke="#000" y2="6"></line><text fill="#000" y="9" dy="0.71em">120</text></g><g class="tick" opacity="1" transform="translate(657.9324324324324,0)"><line stroke="#000" y2="6"></line><text fill="#000" y="9" dy="0.71em">140</text></g></g><text class="x label" text-anchor="end" x="700" y="390" style="font-size: 13px; font-family: Arial;">Residue number</text><g class="yAxis" fill="none" font-size="10" font-family="sans-serif" text-anchor="end"><path class="domain" stroke="#000" d="M-6,360.5H0.5V0.5H-6"></path><g class="tick" opacity="1" transform="translate(0,327.77272727272725)"><line stroke="#000" x2="-6"></line><text fill="#000" x="-9" dy="0.32em">0</text></g><g class="tick" opacity="1" transform="translate(0,277.3454965681468)"><line stroke="#000" x2="-6"></line><text fill="#000" x="-9" dy="0.32em">50</text></g><g class="tick" opacity="1" transform="translate(0,226.91826586356635)"><line stroke="#000" x2="-6"></line><text fill="#000" x="-9" dy="0.32em">100</text></g><g class="tick" opacity="1" transform="translate(0,176.49103515898588)"><line stroke="#000" x2="-6"></line><text fill="#000" x="-9" dy="0.32em">150</text></g><g class="tick" opacity="1" transform="translate(0,126.06380445440539)"><line stroke="#000" x2="-6"></line><text fill="#000" x="-9" dy="0.32em">200</text></g><g class="tick" opacity="1" transform="translate(0,75.63657374982489)"><line stroke="#000" x2="-6"></line><text fill="#000" x="-9" dy="0.32em">250</text></g><g class="tick" opacity="1" transform="translate(0,25.209343045244395)"><line stroke="#000" x2="-6"></line><text fill="#000" x="-9" dy="0.32em">300</text></g></g><text class="y label" text-anchor="middle" y="-50" x="-180" dy="0.8em" transform="rotate(-90)" style="font-size: 13px; font-family: Arial;">Total number of references</text><g class="axisRed" fill="none" font-size="10" font-family="sans-serif" text-anchor="start" visibility="hidden" transform="translate(700, 0)"><path class="domain" stroke="#000" d="M6,360.5H0.5V0.5H6"></path><g class="tick" opacity="1" transform="translate(0,360.5)"><line stroke="#000" x2="6"></line><text fill="#000" x="9" dy="0.32em">0</text></g><text text-anchor="start" dx="5.2em" dy="-2.6em" transform="rotate(90)" visibility="hidden" style="font-size: 12px; font-family: Arial; fill: #d7301f;">No recurrent (&gt;2) missense mutations!</text></g><g class="axisPurple" fill="none" font-size="10" font-family="sans-serif" text-anchor="start" visibility="hidden"><path class="domain" stroke="#000" d="M6,360.5H0.5V0.5H6"></path><g class="tick" opacity="1" transform="translate(0,357.52479338842977)"><line stroke="#000" x2="6"></line><text fill="#000" x="9" dy="0.32em"></text></g><g class="tick" opacity="1" transform="translate(0,327.77272727272725)"><line stroke="#000" x2="6"></line><text fill="#000" x="9" dy="0.32em">0</text></g><g class="tick" opacity="1" transform="translate(0,298.0206611570248)"><line stroke="#000" x2="6"></line><text fill="#000" x="9" dy="0.32em">0.1</text></g><g class="tick" opacity="1" transform="translate(0,268.2685950413223)"><line stroke="#000" x2="6"></line><text fill="#000" x="9" dy="0.32em">0.2</text></g><g class="tick" opacity="1" transform="translate(0,238.51652892561984)"><line stroke="#000" x2="6"></line><text fill="#000" x="9" dy="0.32em">0.3</text></g><g class="tick" opacity="1" transform="translate(0,208.76446280991738)"><line stroke="#000" x2="6"></line><text fill="#000" x="9" dy="0.32em">0.4</text></g><g class="tick" opacity="1" transform="translate(0,179.0123966942149)"><line stroke="#000" x2="6"></line><text fill="#000" x="9" dy="0.32em">0.5</text></g><g class="tick" opacity="1" transform="translate(0,149.26033057851242)"><line stroke="#000" x2="6"></line><text fill="#000" x="9" dy="0.32em">0.6</text></g><g class="tick" opacity="1" transform="translate(0,119.50826446280996)"><line stroke="#000" x2="6"></line><text fill="#000" x="9" dy="0.32em">0.7</text></g><g class="tick" opacity="1" transform="translate(0,89.75619834710744)"><line stroke="#000" x2="6"></line><text fill="#000" x="9" dy="0.32em">0.8</text></g><g class="tick" opacity="1" transform="translate(0,60.00413223140498)"><line stroke="#000" x2="6"></line><text fill="#000" x="9" dy="0.32em">0.9</text></g><g class="tick" opacity="1" transform="translate(0,30.25206611570252)"><line stroke="#000" x2="6"></line><text fill="#000" x="9" dy="0.32em">1</text></g><g class="tick" opacity="1" transform="translate(0,0.5)"><line stroke="#000" x2="6"></line><text fill="#000" x="9" dy="0.32em">1.1</text></g><text text-anchor="start" x="10" y="10" visibility="hidden" style="font-size: 12px; font-family: Arial; fill: #807dba;">No disease causing germline SNPs known!</text></g><circle cx="636" cy="15" r="10" class="compassNav" style="fill: #ffffff; stroke: #666666; stroke-width: 1px;"></circle><path d="M440.935 12.574l3.966 82.766C399.416 41.904 331.674 8 256 8 134.813 8 33.933 94.924 12.296 209.824 10.908 217.193 16.604 224 24.103 224h49.084c5.57 0 10.377-3.842 11.676-9.259C103.407 137.408 172.931 80 256 80c60.893 0 114.512 30.856 146.104 77.801l-101.53-4.865c-6.845-.328-12.574 5.133-12.574 11.986v47.411c0 6.627 5.373 12 12 12h200.333c6.627 0 12-5.373 12-12V12c0-6.627-5.373-12-12-12h-47.411c-6.853 0-12.315 5.729-11.987 12.574zM256 432c-60.895 0-114.517-30.858-146.109-77.805l101.868 4.871c6.845.327 12.573-5.134 12.573-11.986v-47.412c0-6.627-5.373-12-12-12H12c-6.627 0-12 5.373-12 12V500c0 6.627 5.373 12 12 12h47.385c6.863 0 12.328-5.745 11.985-12.599l-4.129-82.575C112.725 470.166 180.405 504 256 504c121.187 0 222.067-86.924 243.704-201.824 1.388-7.369-4.308-14.176-11.807-14.176h-49.084c-5.57 0-10.377 3.842-11.676 9.259C408.593 374.592 339.069 432 256 432z" class="compassNav" transform="translate(631, 10) scale(0.02)" style="fill: #666666; stroke: #666666; stroke-width: 1px;"></path><circle cx="658" cy="15" r="10" class="compassNav" style="fill: #ffffff; stroke: #666666; stroke-width: 1px;"></circle><line class="compassNav" stroke-width="2" stroke="#666666" x1="654" y1="15" x2="662" y2="15"></line><line class="compassNav" stroke-width="2" stroke="#666666" x1="658" y1="11" x2="658" y2="19"></line><circle cx="614" cy="15" r="10" class="compassNav" style="fill: #ffffff; stroke: #666666; stroke-width: 1px;"></circle><line class="compassNav" stroke-width="2" stroke="#666666" x1="610" y1="15" x2="618" y2="15"></line><path d="M582 14 l20 -12 a100,40 0 0,0 0,24z" class="compassNav" style="fill: #ffffff; stroke: #666666; stroke-width: 1px;"></path><path d="M690 14 l-20 -12 a100,40 0 0,1 0,24z" class="compassNav" style="fill: #ffffff; stroke: #666666; stroke-width: 1px;"></path><path d="M216 0h80c13.3 0 24 10.7 24 24v168h87.7c17.8 0 26.7 21.5 14.1 34.1L269.7 378.3c-7.5 7.5-19.8 7.5-27.3 0L90.1 226.1c-12.6-12.6-3.7-34.1 14.1-34.1H192V24c0-13.3 10.7-24 24-24zm296 376v112c0 13.3-10.7 24-24 24H24c-13.3 0-24-10.7-24-24V376c0-13.3 10.7-24 24-24h146.7l49 49c20.1 20.1 52.5 20.1 72.6 0l49-49H488c13.3 0 24 10.7 24 24zm-124 88c0-11-9-20-20-20s-20 9-20 20 9 20 20 20 20-9 20-20zm64 0c0-11-9-20-20-20s-20 9-20 20 9 20 20 20 20-9 20-20z" class="compassNav" transform="translate(552,0) scale(0.05)" style="fill: #336699; stroke: #336699; stroke-width: 1px; cursor: pointer;"></path></g></svg>