<svg width="800" height="400" style="background-color: white;"><g transform="translate(50,0)"><svg width="700" height="360"><g style="-webkit-tap-highlight-color: rgba(0, 0, 0, 0);"><rect width="700" height="360" style="fill: #ffffff;"></rect><g id="lines"><line class="line" stroke-width="1" stroke="#d7301f" x1="-700" y1="333" x2="-700" y2="360" visibility="hidden" style="stroke-dasharray: 3px, 3px;"></line></g><g><rect x="-705" y="355" width="10" height="10" visibility="hidden" style="fill: #ffffff; stroke: #d7301f;"></rect></g><g id="lines"><line class="line" stroke-width="1" stroke="#6a51a3" x1="-700" y1="333" x2="-700" y2="327.27272727272725" visibility="hidden" style="stroke-dasharray: 3px, 3px;"></line></g><g><rect x="-705" y="322.27272727272725" width="10" height="10" visibility="hidden" style="fill: #ffffff; stroke: #6a51a3;"></rect></g><g id="lines"><line class="line" stroke-width="1" stroke="#666666" x1="6.930693069306931" y1="333" x2="6.930693069306931" y2="201.0518407212622"></line><line class="line" stroke-width="1" stroke="#666666" x1="20.792079207920793" y1="333" x2="20.792079207920793" y2="273.1780616078137"></line><line class="line" stroke-width="1" stroke="#666666" x1="20.792079207920793" y1="333" x2="20.792079207920793" y2="300.22539444027046"></line><line class="line" stroke-width="1" stroke="#666666" x1="27.722772277227723" y1="333" x2="27.722772277227723" y2="29.752066115702462"></line><line class="line" stroke-width="1" stroke="#666666" x1="83.16831683168317" y1="333" x2="83.16831683168317" y2="237.11495116453796"></line><line class="line" stroke-width="1" stroke="#666666" x1="97.02970297029704" y1="333" x2="97.02970297029704" y2="164.9887302779865"></line><line class="line" stroke-width="1" stroke="#666666" x1="97.02970297029704" y1="333" x2="97.02970297029704" y2="264.16228399699474"></line><line class="line" stroke-width="1" stroke="#666666" x1="97.02970297029704" y1="333" x2="97.02970297029704" y2="318.2569496619083"></line><line class="line" stroke-width="1" stroke="#666666" x1="152.47524752475246" y1="333" x2="152.47524752475246" y2="318.2569496619083"></line><line class="line" stroke-width="1" stroke="#666666" x1="180.1980198019802" y1="333" x2="180.1980198019802" y2="309.2411720510894"></line><line class="line" stroke-width="1" stroke="#666666" x1="194.05940594059408" y1="333" x2="194.05940594059408" y2="318.2569496619083"></line><line class="line" stroke-width="1" stroke="#666666" x1="353.46534653465346" y1="333" x2="353.46534653465346" y2="291.20961682945153"></line><line class="line" stroke-width="1" stroke="#666666" x1="561.3861386138614" y1="333" x2="561.3861386138614" y2="246.13072877535689"></line><line class="line" stroke-width="1" stroke="#666666" x1="630.6930693069307" y1="333" x2="630.6930693069307" y2="155.97295266716753"></line><line class="line" stroke-width="1" stroke="#666666" x1="630.6930693069307" y1="333" x2="630.6930693069307" y2="309.2411720510894"></line><line class="line" stroke-width="1" stroke="#666666" x1="658.4158415841583" y1="333" x2="658.4158415841583" y2="255.14650638617582"></line></g><g id="circles"><circle r="4" cx="6.930693069306931" cy="201.0518407212622" style="fill: #4393c3; stroke: #666666; stroke-width: 1px;"></circle><circle r="4" cx="20.792079207920793" cy="273.1780616078137" style="fill: #5aae61; stroke: #666666; stroke-width: 1px;"></circle><circle r="4" cx="20.792079207920793" cy="300.22539444027046" style="fill: #bf812d; stroke: #666666; stroke-width: 1px;"></circle><circle r="4" cx="27.722772277227723" cy="29.752066115702462" style="fill: #4393c3; stroke: #666666; stroke-width: 1px;"></circle><circle r="4" cx="83.16831683168317" cy="237.11495116453796" style="fill: #4393c3; stroke: #666666; stroke-width: 1px;"></circle><circle r="4" cx="97.02970297029704" cy="164.9887302779865" style="fill: #5aae61; stroke: #666666; stroke-width: 1px;"></circle><circle r="4" cx="97.02970297029704" cy="264.16228399699474" style="fill: #bf812d; stroke: #666666; stroke-width: 1px;"></circle><circle r="4" cx="97.02970297029704" cy="318.2569496619083" style="fill: #666666; stroke: #666666; stroke-width: 1px;"></circle><circle r="4" cx="152.47524752475246" cy="318.2569496619083" style="fill: #5aae61; stroke: #666666; stroke-width: 1px;"></circle><circle r="4" cx="180.1980198019802" cy="309.2411720510894" style="fill: #5aae61; stroke: #666666; stroke-width: 1px;"></circle><circle r="4" cx="194.05940594059408" cy="318.2569496619083" style="fill: #4393c3; stroke: #666666; stroke-width: 1px;"></circle><circle r="4" cx="353.46534653465346" cy="291.20961682945153" style="fill: #4393c3; stroke: #666666; stroke-width: 1px;"></circle><circle r="4" cx="561.3861386138614" cy="246.13072877535689" style="fill: #4393c3; stroke: #666666; stroke-width: 1px;"></circle><circle r="4" cx="630.6930693069307" cy="155.97295266716753" style="fill: #5aae61; stroke: #666666; stroke-width: 1px;"></circle><circle r="4" cx="630.6930693069307" cy="309.2411720510894" style="fill: #bf812d; stroke: #666666; stroke-width: 1px;"></circle><circle r="4" cx="658.4158415841583" cy="255.14650638617582" style="fill: #4393c3; stroke: #666666; stroke-width: 1px;"></circle></g><g><rect x="0" y="333" width="700" height="12" style="fill: #ffffff; stroke-width: 1px; stroke: #666666;"></rect><rect x="6.930693069306931" y="333" width="672.2772277227723" height="12" style="fill: #aec7e8; stroke-width: 1px; stroke: #666666;"></rect></g><g><a target="_blank" xlink:href="http://pfam.xfam.org/family/"><text y="343" x="350" text-anchor="middle" style="color: rgb(102, 102, 102); font-weight: normal; font-size: 12px; font-family: Arial; cursor: pointer;"></text></a><a target="_blank" xlink:href="http://pfam.xfam.org/family/Prothymosin"><text y="343" x="343.0693069306931" text-anchor="middle" style="color: rgb(102, 102, 102); font-weight: normal; font-size: 12px; font-family: Arial; cursor: pointer;">Prothymosin</text></a></g><g><text y="358" x="0" text-anchor="middle" visibility="hidden" style="font-size: 13px;">M</text><text y="358" x="6.930693069306931" text-anchor="middle" visibility="hidden" style="font-size: 13px;">S</text><text y="358" x="13.861386138613861" text-anchor="middle" visibility="hidden" style="font-size: 13px;">E</text><text y="358" x="20.792079207920793" text-anchor="middle" visibility="hidden" style="font-size: 13px;">K</text><text y="358" x="27.722772277227723" text-anchor="middle" visibility="hidden" style="font-size: 13px;">S</text><text y="358" x="34.65346534653465" text-anchor="middle" visibility="hidden" style="font-size: 13px;">V</text><text y="358" x="41.584158415841586" text-anchor="middle" visibility="hidden" style="font-size: 13px;">E</text><text y="358" x="48.51485148514852" text-anchor="middle" visibility="hidden" style="font-size: 13px;">A</text><text y="358" x="55.445544554455445" text-anchor="middle" visibility="hidden" style="font-size: 13px;">A</text><text y="358" x="62.37623762376237" text-anchor="middle" visibility="hidden" style="font-size: 13px;">A</text><text y="358" x="69.3069306930693" text-anchor="middle" visibility="hidden" style="font-size: 13px;">E</text><text y="358" x="76.23762376237623" text-anchor="middle" visibility="hidden" style="font-size: 13px;">L</text><text y="358" x="83.16831683168317" text-anchor="middle" visibility="hidden" style="font-size: 13px;">S</text><text y="358" x="90.0990099009901" text-anchor="middle" visibility="hidden" style="font-size: 13px;">A</text><text y="358" x="97.02970297029704" text-anchor="middle" visibility="hidden" style="font-size: 13px;">K</text><text y="358" x="103.96039603960395" text-anchor="middle" visibility="hidden" style="font-size: 13px;">D</text><text y="358" x="110.89108910891089" text-anchor="middle" visibility="hidden" style="font-size: 13px;">L</text><text y="358" x="117.82178217821783" text-anchor="middle" visibility="hidden" style="font-size: 13px;">K</text><text y="358" x="124.75247524752474" text-anchor="middle" visibility="hidden" style="font-size: 13px;">E</text><text y="358" x="131.68316831683168" text-anchor="middle" visibility="hidden" style="font-size: 13px;">K</text><text y="358" x="138.6138613861386" text-anchor="middle" visibility="hidden" style="font-size: 13px;">K</text><text y="358" x="145.54455445544554" text-anchor="middle" visibility="hidden" style="font-size: 13px;">E</text><text y="358" x="152.47524752475246" text-anchor="middle" visibility="hidden" style="font-size: 13px;">K</text><text y="358" x="159.40594059405942" text-anchor="middle" visibility="hidden" style="font-size: 13px;">V</text><text y="358" x="166.33663366336634" text-anchor="middle" visibility="hidden" style="font-size: 13px;">E</text><text y="358" x="173.26732673267327" text-anchor="middle" visibility="hidden" style="font-size: 13px;">E</text><text y="358" x="180.1980198019802" text-anchor="middle" visibility="hidden" style="font-size: 13px;">K</text><text y="358" x="187.12871287128715" text-anchor="middle" visibility="hidden" style="font-size: 13px;">A</text><text y="358" x="194.05940594059408" text-anchor="middle" visibility="hidden" style="font-size: 13px;">S</text><text y="358" x="200.99009900990097" text-anchor="middle" visibility="hidden" style="font-size: 13px;">R</text><text y="358" x="207.9207920792079" text-anchor="middle" visibility="hidden" style="font-size: 13px;">K</text><text y="358" x="214.85148514851485" text-anchor="middle" visibility="hidden" style="font-size: 13px;">E</text><text y="358" x="221.78217821782178" text-anchor="middle" visibility="hidden" style="font-size: 13px;">R</text><text y="358" x="228.71287128712873" text-anchor="middle" visibility="hidden" style="font-size: 13px;">K</text><text y="358" x="235.64356435643566" text-anchor="middle" visibility="hidden" style="font-size: 13px;">K</text><text y="358" x="242.57425742574256" text-anchor="middle" visibility="hidden" style="font-size: 13px;">E</text><text y="358" x="249.50495049504948" text-anchor="middle" visibility="hidden" style="font-size: 13px;">V</text><text y="358" x="256.43564356435644" text-anchor="middle" visibility="hidden" style="font-size: 13px;">V</text><text y="358" x="263.36633663366337" text-anchor="middle" visibility="hidden" style="font-size: 13px;">E</text><text y="358" x="270.2970297029703" text-anchor="middle" visibility="hidden" style="font-size: 13px;">E</text><text y="358" x="277.2277227722772" text-anchor="middle" visibility="hidden" style="font-size: 13px;">E</text><text y="358" x="284.1584158415842" text-anchor="middle" visibility="hidden" style="font-size: 13px;">E</text><text y="358" x="291.08910891089107" text-anchor="middle" visibility="hidden" style="font-size: 13px;">N</text><text y="358" x="298.019801980198" text-anchor="middle" visibility="hidden" style="font-size: 13px;">G</text><text y="358" x="304.9504950495049" text-anchor="middle" visibility="hidden" style="font-size: 13px;">A</text><text y="358" x="311.8811881188119" text-anchor="middle" visibility="hidden" style="font-size: 13px;">E</text><text y="358" x="318.81188118811883" text-anchor="middle" visibility="hidden" style="font-size: 13px;">E</text><text y="358" x="325.74257425742576" text-anchor="middle" visibility="hidden" style="font-size: 13px;">E</text><text y="358" x="332.6732673267327" text-anchor="middle" visibility="hidden" style="font-size: 13px;">E</text><text y="358" x="339.6039603960396" text-anchor="middle" visibility="hidden" style="font-size: 13px;">E</text><text y="358" x="346.53465346534654" text-anchor="middle" visibility="hidden" style="font-size: 13px;">E</text><text y="358" x="353.46534653465346" text-anchor="middle" visibility="hidden" style="font-size: 13px;">T</text><text y="358" x="360.3960396039604" text-anchor="middle" visibility="hidden" style="font-size: 13px;">A</text><text y="358" x="367.3267326732673" text-anchor="middle" visibility="hidden" style="font-size: 13px;">E</text><text y="358" x="374.2574257425743" text-anchor="middle" visibility="hidden" style="font-size: 13px;">D</text><text y="358" x="381.1881188118812" text-anchor="middle" visibility="hidden" style="font-size: 13px;">G</text><text y="358" x="388.11881188118815" text-anchor="middle" visibility="hidden" style="font-size: 13px;">E</text><text y="358" x="395.049504950495" text-anchor="middle" visibility="hidden" style="font-size: 13px;">E</text><text y="358" x="401.98019801980195" text-anchor="middle" visibility="hidden" style="font-size: 13px;">E</text><text y="358" x="408.9108910891089" text-anchor="middle" visibility="hidden" style="font-size: 13px;">D</text><text y="358" x="415.8415841584158" text-anchor="middle" visibility="hidden" style="font-size: 13px;">E</text><text y="358" x="422.7722772277228" text-anchor="middle" visibility="hidden" style="font-size: 13px;">G</text><text y="358" x="429.7029702970297" text-anchor="middle" visibility="hidden" style="font-size: 13px;">E</text><text y="358" x="436.63366336633663" text-anchor="middle" visibility="hidden" style="font-size: 13px;">E</text><text y="358" x="443.56435643564356" text-anchor="middle" visibility="hidden" style="font-size: 13px;">E</text><text y="358" x="450.4950495049505" text-anchor="middle" visibility="hidden" style="font-size: 13px;">D</text><text y="358" x="457.42574257425747" text-anchor="middle" visibility="hidden" style="font-size: 13px;">E</text><text y="358" x="464.3564356435644" text-anchor="middle" visibility="hidden" style="font-size: 13px;">E</text><text y="358" x="471.2871287128713" text-anchor="middle" visibility="hidden" style="font-size: 13px;">E</text><text y="358" x="478.21782178217825" text-anchor="middle" visibility="hidden" style="font-size: 13px;">E</text><text y="358" x="485.1485148514851" text-anchor="middle" visibility="hidden" style="font-size: 13px;">E</text><text y="358" x="492.07920792079204" text-anchor="middle" visibility="hidden" style="font-size: 13px;">E</text><text y="358" x="499.00990099009897" text-anchor="middle" visibility="hidden" style="font-size: 13px;">D</text><text y="358" x="505.9405940594059" text-anchor="middle" visibility="hidden" style="font-size: 13px;">D</text><text y="358" x="512.8712871287129" text-anchor="middle" visibility="hidden" style="font-size: 13px;">E</text><text y="358" x="519.8019801980198" text-anchor="middle" visibility="hidden" style="font-size: 13px;">G</text><text y="358" x="526.7326732673267" text-anchor="middle" visibility="hidden" style="font-size: 13px;">P</text><text y="358" x="533.6633663366337" text-anchor="middle" visibility="hidden" style="font-size: 13px;">A</text><text y="358" x="540.5940594059406" text-anchor="middle" visibility="hidden" style="font-size: 13px;">L</text><text y="358" x="547.5247524752475" text-anchor="middle" visibility="hidden" style="font-size: 13px;">K</text><text y="358" x="554.4554455445544" text-anchor="middle" visibility="hidden" style="font-size: 13px;">R</text><text y="358" x="561.3861386138614" text-anchor="middle" visibility="hidden" style="font-size: 13px;">A</text><text y="358" x="568.3168316831684" text-anchor="middle" visibility="hidden" style="font-size: 13px;">A</text><text y="358" x="575.2475247524752" text-anchor="middle" visibility="hidden" style="font-size: 13px;">E</text><text y="358" x="582.1782178217821" text-anchor="middle" visibility="hidden" style="font-size: 13px;">E</text><text y="358" x="589.1089108910891" text-anchor="middle" visibility="hidden" style="font-size: 13px;">E</text><text y="358" x="596.039603960396" text-anchor="middle" visibility="hidden" style="font-size: 13px;">D</text><text y="358" x="602.9702970297029" text-anchor="middle" visibility="hidden" style="font-size: 13px;">E</text><text y="358" x="609.9009900990098" text-anchor="middle" visibility="hidden" style="font-size: 13px;">A</text><text y="358" x="616.8316831683169" text-anchor="middle" visibility="hidden" style="font-size: 13px;">D</text><text y="358" x="623.7623762376238" text-anchor="middle" visibility="hidden" style="font-size: 13px;">P</text><text y="358" x="630.6930693069307" text-anchor="middle" visibility="hidden" style="font-size: 13px;">K</text><text y="358" x="637.6237623762377" text-anchor="middle" visibility="hidden" style="font-size: 13px;">R</text><text y="358" x="644.5544554455446" text-anchor="middle" visibility="hidden" style="font-size: 13px;">Q</text><text y="358" x="651.4851485148515" text-anchor="middle" visibility="hidden" style="font-size: 13px;">K</text><text y="358" x="658.4158415841583" text-anchor="middle" visibility="hidden" style="font-size: 13px;">T</text><text y="358" x="665.3465346534654" text-anchor="middle" visibility="hidden" style="font-size: 13px;">E</text><text y="358" x="672.2772277227723" text-anchor="middle" visibility="hidden" style="font-size: 13px;">N</text><text y="358" x="679.2079207920792" text-anchor="middle" visibility="hidden" style="font-size: 13px;">G</text><text y="358" x="686.1386138613861" text-anchor="middle" visibility="hidden" style="font-size: 13px;">A</text><text y="358" x="693.0693069306931" text-anchor="middle" visibility="hidden" style="font-size: 13px;">S</text><text y="358" x="700" text-anchor="middle" visibility="hidden" style="font-size: 13px;">A</text></g></g></svg><g class="xAxis" transform="translate(0,360)" fill="none" font-size="10" font-family="sans-serif" text-anchor="middle"><path class="domain" stroke="#000" d="M0.5,6V0.5H700.5V6"></path><g class="tick" opacity="1" transform="translate(62.87623762376237,0)"><line stroke="#000" y2="6"></line><text fill="#000" y="9" dy="0.71em">10</text></g><g class="tick" opacity="1" transform="translate(132.18316831683168,0)"><line stroke="#000" y2="6"></line><text fill="#000" y="9" dy="0.71em">20</text></g><g class="tick" opacity="1" transform="translate(201.49009900990097,0)"><line stroke="#000" y2="6"></line><text fill="#000" y="9" dy="0.71em">30</text></g><g class="tick" opacity="1" transform="translate(270.7970297029703,0)"><line stroke="#000" y2="6"></line><text fill="#000" y="9" dy="0.71em">40</text></g><g class="tick" opacity="1" transform="translate(340.1039603960396,0)"><line stroke="#000" y2="6"></line><text fill="#000" y="9" dy="0.71em">50</text></g><g class="tick" opacity="1" transform="translate(409.4108910891089,0)"><line stroke="#000" y2="6"></line><text fill="#000" y="9" dy="0.71em">60</text></g><g class="tick" opacity="1" transform="translate(478.71782178217825,0)"><line stroke="#000" y2="6"></line><text fill="#000" y="9" dy="0.71em">70</text></g><g class="tick" opacity="1" transform="translate(548.0247524752475,0)"><line stroke="#000" y2="6"></line><text fill="#000" y="9" dy="0.71em">80</text></g><g class="tick" opacity="1" transform="translate(617.3316831683169,0)"><line stroke="#000" y2="6"></line><text fill="#000" y="9" dy="0.71em">90</text></g><g class="tick" opacity="1" transform="translate(686.6386138613861,0)"><line stroke="#000" y2="6"></line><text fill="#000" y="9" dy="0.71em">100</text></g></g><text class="x label" text-anchor="end" x="700" y="390" style="font-size: 13px; font-family: Arial;">Residue number</text><g class="yAxis" fill="none" font-size="10" font-family="sans-serif" text-anchor="end"><path class="domain" stroke="#000" d="M-6,360.5H0.5V0.5H-6"></path><g class="tick" opacity="1" transform="translate(0,327.77272727272725)"><line stroke="#000" x2="-6"></line><text fill="#000" x="-9" dy="0.32em">0</text></g><g class="tick" opacity="1" transform="translate(0,282.6938392186326)"><line stroke="#000" x2="-6"></line><text fill="#000" x="-9" dy="0.32em">5</text></g><g class="tick" opacity="1" transform="translate(0,237.61495116453796)"><line stroke="#000" x2="-6"></line><text fill="#000" x="-9" dy="0.32em">10</text></g><g class="tick" opacity="1" transform="translate(0,192.53606311044328)"><line stroke="#000" x2="-6"></line><text fill="#000" x="-9" dy="0.32em">15</text></g><g class="tick" opacity="1" transform="translate(0,147.4571750563486)"><line stroke="#000" x2="-6"></line><text fill="#000" x="-9" dy="0.32em">20</text></g><g class="tick" opacity="1" transform="translate(0,102.37828700225396)"><line stroke="#000" x2="-6"></line><text fill="#000" x="-9" dy="0.32em">25</text></g><g class="tick" opacity="1" transform="translate(0,57.29939894815925)"><line stroke="#000" x2="-6"></line><text fill="#000" x="-9" dy="0.32em">30</text></g><g class="tick" opacity="1" transform="translate(0,12.220510894064603)"><line stroke="#000" x2="-6"></line><text fill="#000" x="-9" dy="0.32em">35</text></g></g><text class="y label" text-anchor="middle" y="-50" x="-180" dy="0.8em" transform="rotate(-90)" style="font-size: 13px; font-family: Arial;">Total number of references</text><g class="axisRed" fill="none" font-size="10" font-family="sans-serif" text-anchor="start" visibility="hidden" transform="translate(700, 0)"><path class="domain" stroke="#000" d="M6,360.5H0.5V0.5H6"></path><g class="tick" opacity="1" transform="translate(0,360.5)"><line stroke="#000" x2="6"></line><text fill="#000" x="9" dy="0.32em">0</text></g><text text-anchor="start" dx="5.2em" dy="-2.6em" transform="rotate(90)" visibility="hidden" style="font-size: 12px; font-family: Arial; fill: #d7301f;">No recurrent (&gt;2) missense mutations!</text></g><g class="axisPurple" fill="none" font-size="10" font-family="sans-serif" text-anchor="start" visibility="hidden"><path class="domain" stroke="#000" d="M6,360.5H0.5V0.5H6"></path><g class="tick" opacity="1" transform="translate(0,357.52479338842977)"><line stroke="#000" x2="6"></line><text fill="#000" x="9" dy="0.32em"></text></g><g class="tick" opacity="1" transform="translate(0,327.77272727272725)"><line stroke="#000" x2="6"></line><text fill="#000" x="9" dy="0.32em">0</text></g><g class="tick" opacity="1" transform="translate(0,298.0206611570248)"><line stroke="#000" x2="6"></line><text fill="#000" x="9" dy="0.32em">0.1</text></g><g class="tick" opacity="1" transform="translate(0,268.2685950413223)"><line stroke="#000" x2="6"></line><text fill="#000" x="9" dy="0.32em">0.2</text></g><g class="tick" opacity="1" transform="translate(0,238.51652892561984)"><line stroke="#000" x2="6"></line><text fill="#000" x="9" dy="0.32em">0.3</text></g><g class="tick" opacity="1" transform="translate(0,208.76446280991738)"><line stroke="#000" x2="6"></line><text fill="#000" x="9" dy="0.32em">0.4</text></g><g class="tick" opacity="1" transform="translate(0,179.0123966942149)"><line stroke="#000" x2="6"></line><text fill="#000" x="9" dy="0.32em">0.5</text></g><g class="tick" opacity="1" transform="translate(0,149.26033057851242)"><line stroke="#000" x2="6"></line><text fill="#000" x="9" dy="0.32em">0.6</text></g><g class="tick" opacity="1" transform="translate(0,119.50826446280996)"><line stroke="#000" x2="6"></line><text fill="#000" x="9" dy="0.32em">0.7</text></g><g class="tick" opacity="1" transform="translate(0,89.75619834710744)"><line stroke="#000" x2="6"></line><text fill="#000" x="9" dy="0.32em">0.8</text></g><g class="tick" opacity="1" transform="translate(0,60.00413223140498)"><line stroke="#000" x2="6"></line><text fill="#000" x="9" dy="0.32em">0.9</text></g><g class="tick" opacity="1" transform="translate(0,30.25206611570252)"><line stroke="#000" x2="6"></line><text fill="#000" x="9" dy="0.32em">1</text></g><g class="tick" opacity="1" transform="translate(0,0.5)"><line stroke="#000" x2="6"></line><text fill="#000" x="9" dy="0.32em">1.1</text></g><text text-anchor="start" x="10" y="10" visibility="hidden" style="font-size: 12px; font-family: Arial; fill: #807dba;">No disease causing germline SNPs known!</text></g><circle cx="636" cy="15" r="10" class="compassNav" style="fill: #ffffff; stroke: #666666; stroke-width: 1px;"></circle><path d="M440.935 12.574l3.966 82.766C399.416 41.904 331.674 8 256 8 134.813 8 33.933 94.924 12.296 209.824 10.908 217.193 16.604 224 24.103 224h49.084c5.57 0 10.377-3.842 11.676-9.259C103.407 137.408 172.931 80 256 80c60.893 0 114.512 30.856 146.104 77.801l-101.53-4.865c-6.845-.328-12.574 5.133-12.574 11.986v47.411c0 6.627 5.373 12 12 12h200.333c6.627 0 12-5.373 12-12V12c0-6.627-5.373-12-12-12h-47.411c-6.853 0-12.315 5.729-11.987 12.574zM256 432c-60.895 0-114.517-30.858-146.109-77.805l101.868 4.871c6.845.327 12.573-5.134 12.573-11.986v-47.412c0-6.627-5.373-12-12-12H12c-6.627 0-12 5.373-12 12V500c0 6.627 5.373 12 12 12h47.385c6.863 0 12.328-5.745 11.985-12.599l-4.129-82.575C112.725 470.166 180.405 504 256 504c121.187 0 222.067-86.924 243.704-201.824 1.388-7.369-4.308-14.176-11.807-14.176h-49.084c-5.57 0-10.377 3.842-11.676 9.259C408.593 374.592 339.069 432 256 432z" class="compassNav" transform="translate(631, 10) scale(0.02)" style="fill: #666666; stroke: #666666; stroke-width: 1px;"></path><circle cx="658" cy="15" r="10" class="compassNav" style="fill: #ffffff; stroke: #666666; stroke-width: 1px;"></circle><line class="compassNav" stroke-width="2" stroke="#666666" x1="654" y1="15" x2="662" y2="15"></line><line class="compassNav" stroke-width="2" stroke="#666666" x1="658" y1="11" x2="658" y2="19"></line><circle cx="614" cy="15" r="10" class="compassNav" style="fill: #ffffff; stroke: #666666; stroke-width: 1px;"></circle><line class="compassNav" stroke-width="2" stroke="#666666" x1="610" y1="15" x2="618" y2="15"></line><path d="M582 14 l20 -12 a100,40 0 0,0 0,24z" class="compassNav" style="fill: #ffffff; stroke: #666666; stroke-width: 1px;"></path><path d="M690 14 l-20 -12 a100,40 0 0,1 0,24z" class="compassNav" style="fill: #ffffff; stroke: #666666; stroke-width: 1px;"></path><path d="M216 0h80c13.3 0 24 10.7 24 24v168h87.7c17.8 0 26.7 21.5 14.1 34.1L269.7 378.3c-7.5 7.5-19.8 7.5-27.3 0L90.1 226.1c-12.6-12.6-3.7-34.1 14.1-34.1H192V24c0-13.3 10.7-24 24-24zm296 376v112c0 13.3-10.7 24-24 24H24c-13.3 0-24-10.7-24-24V376c0-13.3 10.7-24 24-24h146.7l49 49c20.1 20.1 52.5 20.1 72.6 0l49-49H488c13.3 0 24 10.7 24 24zm-124 88c0-11-9-20-20-20s-20 9-20 20 9 20 20 20 20-9 20-20zm64 0c0-11-9-20-20-20s-20 9-20 20 9 20 20 20 20-9 20-20z" class="compassNav" transform="translate(552,0) scale(0.05)" style="fill: #336699; stroke: #336699; stroke-width: 1px; cursor: pointer;"></path></g></svg>