<svg width="800" height="400" style="background-color: white;"><g transform="translate(50,0)"><svg width="700" height="360"><g style="-webkit-tap-highlight-color: rgba(0, 0, 0, 0);"><rect width="700" height="360" style="fill: #ffffff;"></rect><g id="lines"><line class="line" stroke-width="1" stroke="#d7301f" x1="-760.2150537634408" y1="333" x2="-760.2150537634408" y2="360" visibility="hidden" style="stroke-dasharray: 3px, 3px;"></line></g><g><rect x="-765.2150537634408" y="355" width="10" height="10" visibility="hidden" style="fill: #ffffff; stroke: #d7301f;"></rect></g><g id="lines"><line class="line" stroke-width="1" stroke="#6a51a3" x1="-760.2150537634408" y1="333" x2="-760.2150537634408" y2="327.27272727272725" visibility="hidden" style="stroke-dasharray: 3px, 3px;"></line></g><g><rect x="-765.2150537634408" y="322.27272727272725" width="10" height="10" visibility="hidden" style="fill: #ffffff; stroke: #6a51a3;"></rect></g><g id="lines"><line class="line" stroke-width="1" stroke="#666666" x1="195.69892473118279" y1="333" x2="195.69892473118279" y2="29.75206611570252"></line><line class="line" stroke-width="1" stroke="#666666" x1="316.1290322580645" y1="333" x2="316.1290322580645" y2="29.75206611570252"></line><line class="line" stroke-width="1" stroke="#666666" x1="368.81720430107526" y1="333" x2="368.81720430107526" y2="29.75206611570252"></line><line class="line" stroke-width="1" stroke="#666666" x1="421.505376344086" y1="333" x2="421.505376344086" y2="29.75206611570252"></line></g><g id="circles"><circle r="4" cx="195.69892473118279" cy="29.75206611570252" style="fill: #4393c3; stroke: #666666; stroke-width: 1px;"></circle><circle r="4" cx="316.1290322580645" cy="29.75206611570252" style="fill: #4393c3; stroke: #666666; stroke-width: 1px;"></circle><circle r="4" cx="368.81720430107526" cy="29.75206611570252" style="fill: #bf812d; stroke: #666666; stroke-width: 1px;"></circle><circle r="4" cx="421.505376344086" cy="29.75206611570252" style="fill: #bf812d; stroke: #666666; stroke-width: 1px;"></circle></g><g><rect x="0" y="333" width="700" height="12" style="fill: #ffffff; stroke-width: 1px; stroke: #666666;"></rect><rect x="30.107526881720432" y="333" width="316.1290322580645" height="12" style="fill: #aec7e8; stroke-width: 1px; stroke: #666666;"></rect><rect x="398.9247311827957" y="333" width="210.75268817204295" height="12" style="fill: #ffbb78; stroke-width: 1px; stroke: #666666;"></rect></g><g><a target="_blank" xlink:href="http://pfam.xfam.org/family/"><text y="343" x="350" text-anchor="middle" style="color: rgb(102, 102, 102); font-weight: normal; font-size: 12px; font-family: Arial; cursor: pointer;"></text></a><a target="_blank" xlink:href="http://pfam.xfam.org/family/S_100"><text y="343" x="188.1720430107527" text-anchor="middle" style="color: rgb(102, 102, 102); font-weight: normal; font-size: 12px; font-family: Arial; cursor: pointer;">S_100</text></a><a target="_blank" xlink:href="http://pfam.xfam.org/family/EF-hand_1"><text y="343" x="504.30107526881716" text-anchor="middle" style="color: rgb(102, 102, 102); font-weight: normal; font-size: 12px; font-family: Arial; cursor: pointer;">EF-hand_1</text></a></g><g><text y="358" x="0" text-anchor="middle" visibility="hidden" style="font-size: 13px;">M</text><text y="358" x="7.526881720430108" text-anchor="middle" visibility="hidden" style="font-size: 13px;">G</text><text y="358" x="15.053763440860216" text-anchor="middle" visibility="hidden" style="font-size: 13px;">S</text><text y="358" x="22.58064516129032" text-anchor="middle" visibility="hidden" style="font-size: 13px;">E</text><text y="358" x="30.107526881720432" text-anchor="middle" visibility="hidden" style="font-size: 13px;">L</text><text y="358" x="37.634408602150536" text-anchor="middle" visibility="hidden" style="font-size: 13px;">E</text><text y="358" x="45.16129032258064" text-anchor="middle" visibility="hidden" style="font-size: 13px;">T</text><text y="358" x="52.68817204301075" text-anchor="middle" visibility="hidden" style="font-size: 13px;">A</text><text y="358" x="60.215053763440864" text-anchor="middle" visibility="hidden" style="font-size: 13px;">M</text><text y="358" x="67.74193548387096" text-anchor="middle" visibility="hidden" style="font-size: 13px;">E</text><text y="358" x="75.26881720430107" text-anchor="middle" visibility="hidden" style="font-size: 13px;">T</text><text y="358" x="82.79569892473118" text-anchor="middle" visibility="hidden" style="font-size: 13px;">L</text><text y="358" x="90.32258064516128" text-anchor="middle" visibility="hidden" style="font-size: 13px;">I</text><text y="358" x="97.84946236559139" text-anchor="middle" visibility="hidden" style="font-size: 13px;">N</text><text y="358" x="105.3763440860215" text-anchor="middle" visibility="hidden" style="font-size: 13px;">V</text><text y="358" x="112.90322580645162" text-anchor="middle" visibility="hidden" style="font-size: 13px;">F</text><text y="358" x="120.43010752688173" text-anchor="middle" visibility="hidden" style="font-size: 13px;">H</text><text y="358" x="127.95698924731182" text-anchor="middle" visibility="hidden" style="font-size: 13px;">A</text><text y="358" x="135.48387096774192" text-anchor="middle" visibility="hidden" style="font-size: 13px;">H</text><text y="358" x="143.01075268817206" text-anchor="middle" visibility="hidden" style="font-size: 13px;">S</text><text y="358" x="150.53763440860214" text-anchor="middle" visibility="hidden" style="font-size: 13px;">G</text><text y="358" x="158.06451612903226" text-anchor="middle" visibility="hidden" style="font-size: 13px;">K</text><text y="358" x="165.59139784946237" text-anchor="middle" visibility="hidden" style="font-size: 13px;">E</text><text y="358" x="173.11827956989248" text-anchor="middle" visibility="hidden" style="font-size: 13px;">G</text><text y="358" x="180.64516129032256" text-anchor="middle" visibility="hidden" style="font-size: 13px;">D</text><text y="358" x="188.17204301075267" text-anchor="middle" visibility="hidden" style="font-size: 13px;">K</text><text y="358" x="195.69892473118279" text-anchor="middle" visibility="hidden" style="font-size: 13px;">Y</text><text y="358" x="203.22580645161293" text-anchor="middle" visibility="hidden" style="font-size: 13px;">K</text><text y="358" x="210.752688172043" text-anchor="middle" visibility="hidden" style="font-size: 13px;">L</text><text y="358" x="218.27956989247312" text-anchor="middle" visibility="hidden" style="font-size: 13px;">S</text><text y="358" x="225.80645161290323" text-anchor="middle" visibility="hidden" style="font-size: 13px;">K</text><text y="358" x="233.33333333333331" text-anchor="middle" visibility="hidden" style="font-size: 13px;">K</text><text y="358" x="240.86021505376345" text-anchor="middle" visibility="hidden" style="font-size: 13px;">E</text><text y="358" x="248.38709677419357" text-anchor="middle" visibility="hidden" style="font-size: 13px;">L</text><text y="358" x="255.91397849462365" text-anchor="middle" visibility="hidden" style="font-size: 13px;">K</text><text y="358" x="263.44086021505376" text-anchor="middle" visibility="hidden" style="font-size: 13px;">E</text><text y="358" x="270.96774193548384" text-anchor="middle" visibility="hidden" style="font-size: 13px;">L</text><text y="358" x="278.494623655914" text-anchor="middle" visibility="hidden" style="font-size: 13px;">L</text><text y="358" x="286.0215053763441" text-anchor="middle" visibility="hidden" style="font-size: 13px;">Q</text><text y="358" x="293.5483870967742" text-anchor="middle" visibility="hidden" style="font-size: 13px;">T</text><text y="358" x="301.0752688172043" text-anchor="middle" visibility="hidden" style="font-size: 13px;">E</text><text y="358" x="308.60215053763443" text-anchor="middle" visibility="hidden" style="font-size: 13px;">L</text><text y="358" x="316.1290322580645" text-anchor="middle" visibility="hidden" style="font-size: 13px;">S</text><text y="358" x="323.6559139784946" text-anchor="middle" visibility="hidden" style="font-size: 13px;">G</text><text y="358" x="331.18279569892474" text-anchor="middle" visibility="hidden" style="font-size: 13px;">F</text><text y="358" x="338.7096774193549" text-anchor="middle" visibility="hidden" style="font-size: 13px;">L</text><text y="358" x="346.23655913978496" text-anchor="middle" visibility="hidden" style="font-size: 13px;">D</text><text y="358" x="353.76344086021504" text-anchor="middle" visibility="hidden" style="font-size: 13px;">A</text><text y="358" x="361.2903225806451" text-anchor="middle" visibility="hidden" style="font-size: 13px;">Q</text><text y="358" x="368.81720430107526" text-anchor="middle" visibility="hidden" style="font-size: 13px;">K</text><text y="358" x="376.34408602150535" text-anchor="middle" visibility="hidden" style="font-size: 13px;">D</text><text y="358" x="383.87096774193543" text-anchor="middle" visibility="hidden" style="font-size: 13px;">V</text><text y="358" x="391.39784946236557" text-anchor="middle" visibility="hidden" style="font-size: 13px;">D</text><text y="358" x="398.9247311827957" text-anchor="middle" visibility="hidden" style="font-size: 13px;">A</text><text y="358" x="406.45161290322585" text-anchor="middle" visibility="hidden" style="font-size: 13px;">V</text><text y="358" x="413.97849462365593" text-anchor="middle" visibility="hidden" style="font-size: 13px;">D</text><text y="358" x="421.505376344086" text-anchor="middle" visibility="hidden" style="font-size: 13px;">K</text><text y="358" x="429.03225806451616" text-anchor="middle" visibility="hidden" style="font-size: 13px;">V</text><text y="358" x="436.55913978494624" text-anchor="middle" visibility="hidden" style="font-size: 13px;">M</text><text y="358" x="444.0860215053763" text-anchor="middle" visibility="hidden" style="font-size: 13px;">K</text><text y="358" x="451.61290322580646" text-anchor="middle" visibility="hidden" style="font-size: 13px;">E</text><text y="358" x="459.13978494623655" text-anchor="middle" visibility="hidden" style="font-size: 13px;">L</text><text y="358" x="466.66666666666663" text-anchor="middle" visibility="hidden" style="font-size: 13px;">D</text><text y="358" x="474.19354838709677" text-anchor="middle" visibility="hidden" style="font-size: 13px;">E</text><text y="358" x="481.7204301075269" text-anchor="middle" visibility="hidden" style="font-size: 13px;">N</text><text y="358" x="489.24731182795705" text-anchor="middle" visibility="hidden" style="font-size: 13px;">G</text><text y="358" x="496.77419354838713" text-anchor="middle" visibility="hidden" style="font-size: 13px;">D</text><text y="358" x="504.3010752688172" text-anchor="middle" visibility="hidden" style="font-size: 13px;">G</text><text y="358" x="511.8279569892473" text-anchor="middle" visibility="hidden" style="font-size: 13px;">E</text><text y="358" x="519.3548387096774" text-anchor="middle" visibility="hidden" style="font-size: 13px;">V</text><text y="358" x="526.8817204301075" text-anchor="middle" visibility="hidden" style="font-size: 13px;">D</text><text y="358" x="534.4086021505376" text-anchor="middle" visibility="hidden" style="font-size: 13px;">F</text><text y="358" x="541.9354838709677" text-anchor="middle" visibility="hidden" style="font-size: 13px;">Q</text><text y="358" x="549.4623655913979" text-anchor="middle" visibility="hidden" style="font-size: 13px;">E</text><text y="358" x="556.989247311828" text-anchor="middle" visibility="hidden" style="font-size: 13px;">Y</text><text y="358" x="564.516129032258" text-anchor="middle" visibility="hidden" style="font-size: 13px;">V</text><text y="358" x="572.0430107526882" text-anchor="middle" visibility="hidden" style="font-size: 13px;">V</text><text y="358" x="579.5698924731183" text-anchor="middle" visibility="hidden" style="font-size: 13px;">L</text><text y="358" x="587.0967741935484" text-anchor="middle" visibility="hidden" style="font-size: 13px;">V</text><text y="358" x="594.6236559139785" text-anchor="middle" visibility="hidden" style="font-size: 13px;">A</text><text y="358" x="602.1505376344086" text-anchor="middle" visibility="hidden" style="font-size: 13px;">A</text><text y="358" x="609.6774193548387" text-anchor="middle" visibility="hidden" style="font-size: 13px;">L</text><text y="358" x="617.2043010752689" text-anchor="middle" visibility="hidden" style="font-size: 13px;">T</text><text y="358" x="624.7311827956989" text-anchor="middle" visibility="hidden" style="font-size: 13px;">V</text><text y="358" x="632.258064516129" text-anchor="middle" visibility="hidden" style="font-size: 13px;">A</text><text y="358" x="639.7849462365591" text-anchor="middle" visibility="hidden" style="font-size: 13px;">C</text><text y="358" x="647.3118279569892" text-anchor="middle" visibility="hidden" style="font-size: 13px;">N</text><text y="358" x="654.8387096774193" text-anchor="middle" visibility="hidden" style="font-size: 13px;">N</text><text y="358" x="662.3655913978495" text-anchor="middle" visibility="hidden" style="font-size: 13px;">F</text><text y="358" x="669.8924731182796" text-anchor="middle" visibility="hidden" style="font-size: 13px;">F</text><text y="358" x="677.4193548387098" text-anchor="middle" visibility="hidden" style="font-size: 13px;">W</text><text y="358" x="684.9462365591398" text-anchor="middle" visibility="hidden" style="font-size: 13px;">E</text><text y="358" x="692.4731182795699" text-anchor="middle" visibility="hidden" style="font-size: 13px;">N</text><text y="358" x="700" text-anchor="middle" visibility="hidden" style="font-size: 13px;">S</text></g></g></svg><g class="xAxis" transform="translate(0,360)" fill="none" font-size="10" font-family="sans-serif" text-anchor="middle"><path class="domain" stroke="#000" d="M0.5,6V0.5H700.5V6"></path><g class="tick" opacity="1" transform="translate(68.24193548387096,0)"><line stroke="#000" y2="6"></line><text fill="#000" y="9" dy="0.71em">10</text></g><g class="tick" opacity="1" transform="translate(143.51075268817206,0)"><line stroke="#000" y2="6"></line><text fill="#000" y="9" dy="0.71em">20</text></g><g class="tick" opacity="1" transform="translate(218.77956989247312,0)"><line stroke="#000" y2="6"></line><text fill="#000" y="9" dy="0.71em">30</text></g><g class="tick" opacity="1" transform="translate(294.0483870967742,0)"><line stroke="#000" y2="6"></line><text fill="#000" y="9" dy="0.71em">40</text></g><g class="tick" opacity="1" transform="translate(369.31720430107526,0)"><line stroke="#000" y2="6"></line><text fill="#000" y="9" dy="0.71em">50</text></g><g class="tick" opacity="1" transform="translate(444.5860215053763,0)"><line stroke="#000" y2="6"></line><text fill="#000" y="9" dy="0.71em">60</text></g><g class="tick" opacity="1" transform="translate(519.8548387096774,0)"><line stroke="#000" y2="6"></line><text fill="#000" y="9" dy="0.71em">70</text></g><g class="tick" opacity="1" transform="translate(595.1236559139785,0)"><line stroke="#000" y2="6"></line><text fill="#000" y="9" dy="0.71em">80</text></g><g class="tick" opacity="1" transform="translate(670.3924731182796,0)"><line stroke="#000" y2="6"></line><text fill="#000" y="9" dy="0.71em">90</text></g></g><text class="x label" text-anchor="end" x="700" y="390" style="font-size: 13px; font-family: Arial;">Residue number</text><g class="yAxis" fill="none" font-size="10" font-family="sans-serif" text-anchor="end"><path class="domain" stroke="#000" d="M-6,360.5H0.5V0.5H-6"></path><g class="tick" opacity="1" transform="translate(0,357.52479338842977)"><line stroke="#000" x2="-6"></line><text fill="#000" x="-9" dy="0.32em"></text></g><g class="tick" opacity="1" transform="translate(0,327.77272727272725)"><line stroke="#000" x2="-6"></line><text fill="#000" x="-9" dy="0.32em">0</text></g><g class="tick" opacity="1" transform="translate(0,298.0206611570248)"><line stroke="#000" x2="-6"></line><text fill="#000" x="-9" dy="0.32em">0.1</text></g><g class="tick" opacity="1" transform="translate(0,268.2685950413223)"><line stroke="#000" x2="-6"></line><text fill="#000" x="-9" dy="0.32em">0.2</text></g><g class="tick" opacity="1" transform="translate(0,238.51652892561984)"><line stroke="#000" x2="-6"></line><text fill="#000" x="-9" dy="0.32em">0.3</text></g><g class="tick" opacity="1" transform="translate(0,208.76446280991738)"><line stroke="#000" x2="-6"></line><text fill="#000" x="-9" dy="0.32em">0.4</text></g><g class="tick" opacity="1" transform="translate(0,179.0123966942149)"><line stroke="#000" x2="-6"></line><text fill="#000" x="-9" dy="0.32em">0.5</text></g><g class="tick" opacity="1" transform="translate(0,149.26033057851242)"><line stroke="#000" x2="-6"></line><text fill="#000" x="-9" dy="0.32em">0.6</text></g><g class="tick" opacity="1" transform="translate(0,119.50826446280996)"><line stroke="#000" x2="-6"></line><text fill="#000" x="-9" dy="0.32em">0.7</text></g><g class="tick" opacity="1" transform="translate(0,89.75619834710744)"><line stroke="#000" x2="-6"></line><text fill="#000" x="-9" dy="0.32em">0.8</text></g><g class="tick" opacity="1" transform="translate(0,60.00413223140498)"><line stroke="#000" x2="-6"></line><text fill="#000" x="-9" dy="0.32em">0.9</text></g><g class="tick" opacity="1" transform="translate(0,30.25206611570252)"><line stroke="#000" x2="-6"></line><text fill="#000" x="-9" dy="0.32em">1</text></g><g class="tick" opacity="1" transform="translate(0,0.5)"><line stroke="#000" x2="-6"></line><text fill="#000" x="-9" dy="0.32em">1.1</text></g></g><text class="y label" text-anchor="middle" y="-50" x="-180" dy="0.8em" transform="rotate(-90)" style="font-size: 13px; font-family: Arial;">Total number of references</text><g class="axisRed" fill="none" font-size="10" font-family="sans-serif" text-anchor="start" visibility="hidden" transform="translate(700, 0)"><path class="domain" stroke="#000" d="M6,360.5H0.5V0.5H6"></path><g class="tick" opacity="1" transform="translate(0,360.5)"><line stroke="#000" x2="6"></line><text fill="#000" x="9" dy="0.32em">0</text></g><text text-anchor="start" dx="5.2em" dy="-2.6em" transform="rotate(90)" visibility="hidden" style="font-size: 12px; font-family: Arial; fill: #d7301f;">No recurrent (&gt;2) missense mutations!</text></g><g class="axisPurple" fill="none" font-size="10" font-family="sans-serif" text-anchor="start" visibility="hidden"><path class="domain" stroke="#000" d="M6,360.5H0.5V0.5H6"></path><g class="tick" opacity="1" transform="translate(0,357.52479338842977)"><line stroke="#000" x2="6"></line><text fill="#000" x="9" dy="0.32em"></text></g><g class="tick" opacity="1" transform="translate(0,327.77272727272725)"><line stroke="#000" x2="6"></line><text fill="#000" x="9" dy="0.32em">0</text></g><g class="tick" opacity="1" transform="translate(0,298.0206611570248)"><line stroke="#000" x2="6"></line><text fill="#000" x="9" dy="0.32em">0.1</text></g><g class="tick" opacity="1" transform="translate(0,268.2685950413223)"><line stroke="#000" x2="6"></line><text fill="#000" x="9" dy="0.32em">0.2</text></g><g class="tick" opacity="1" transform="translate(0,238.51652892561984)"><line stroke="#000" x2="6"></line><text fill="#000" x="9" dy="0.32em">0.3</text></g><g class="tick" opacity="1" transform="translate(0,208.76446280991738)"><line stroke="#000" x2="6"></line><text fill="#000" x="9" dy="0.32em">0.4</text></g><g class="tick" opacity="1" transform="translate(0,179.0123966942149)"><line stroke="#000" x2="6"></line><text fill="#000" x="9" dy="0.32em">0.5</text></g><g class="tick" opacity="1" transform="translate(0,149.26033057851242)"><line stroke="#000" x2="6"></line><text fill="#000" x="9" dy="0.32em">0.6</text></g><g class="tick" opacity="1" transform="translate(0,119.50826446280996)"><line stroke="#000" x2="6"></line><text fill="#000" x="9" dy="0.32em">0.7</text></g><g class="tick" opacity="1" transform="translate(0,89.75619834710744)"><line stroke="#000" x2="6"></line><text fill="#000" x="9" dy="0.32em">0.8</text></g><g class="tick" opacity="1" transform="translate(0,60.00413223140498)"><line stroke="#000" x2="6"></line><text fill="#000" x="9" dy="0.32em">0.9</text></g><g class="tick" opacity="1" transform="translate(0,30.25206611570252)"><line stroke="#000" x2="6"></line><text fill="#000" x="9" dy="0.32em">1</text></g><g class="tick" opacity="1" transform="translate(0,0.5)"><line stroke="#000" x2="6"></line><text fill="#000" x="9" dy="0.32em">1.1</text></g><text text-anchor="start" x="10" y="10" visibility="hidden" style="font-size: 12px; font-family: Arial; fill: #807dba;">No disease causing germline SNPs known!</text></g><circle cx="636" cy="15" r="10" class="compassNav" style="fill: #ffffff; stroke: #666666; stroke-width: 1px;"></circle><path d="M440.935 12.574l3.966 82.766C399.416 41.904 331.674 8 256 8 134.813 8 33.933 94.924 12.296 209.824 10.908 217.193 16.604 224 24.103 224h49.084c5.57 0 10.377-3.842 11.676-9.259C103.407 137.408 172.931 80 256 80c60.893 0 114.512 30.856 146.104 77.801l-101.53-4.865c-6.845-.328-12.574 5.133-12.574 11.986v47.411c0 6.627 5.373 12 12 12h200.333c6.627 0 12-5.373 12-12V12c0-6.627-5.373-12-12-12h-47.411c-6.853 0-12.315 5.729-11.987 12.574zM256 432c-60.895 0-114.517-30.858-146.109-77.805l101.868 4.871c6.845.327 12.573-5.134 12.573-11.986v-47.412c0-6.627-5.373-12-12-12H12c-6.627 0-12 5.373-12 12V500c0 6.627 5.373 12 12 12h47.385c6.863 0 12.328-5.745 11.985-12.599l-4.129-82.575C112.725 470.166 180.405 504 256 504c121.187 0 222.067-86.924 243.704-201.824 1.388-7.369-4.308-14.176-11.807-14.176h-49.084c-5.57 0-10.377 3.842-11.676 9.259C408.593 374.592 339.069 432 256 432z" class="compassNav" transform="translate(631, 10) scale(0.02)" style="fill: #666666; stroke: #666666; stroke-width: 1px;"></path><circle cx="658" cy="15" r="10" class="compassNav" style="fill: #ffffff; stroke: #666666; stroke-width: 1px;"></circle><line class="compassNav" stroke-width="2" stroke="#666666" x1="654" y1="15" x2="662" y2="15"></line><line class="compassNav" stroke-width="2" stroke="#666666" x1="658" y1="11" x2="658" y2="19"></line><circle cx="614" cy="15" r="10" class="compassNav" style="fill: #ffffff; stroke: #666666; stroke-width: 1px;"></circle><line class="compassNav" stroke-width="2" stroke="#666666" x1="610" y1="15" x2="618" y2="15"></line><path d="M582 14 l20 -12 a100,40 0 0,0 0,24z" class="compassNav" style="fill: #ffffff; stroke: #666666; stroke-width: 1px;"></path><path d="M690 14 l-20 -12 a100,40 0 0,1 0,24z" class="compassNav" style="fill: #ffffff; stroke: #666666; stroke-width: 1px;"></path><path d="M216 0h80c13.3 0 24 10.7 24 24v168h87.7c17.8 0 26.7 21.5 14.1 34.1L269.7 378.3c-7.5 7.5-19.8 7.5-27.3 0L90.1 226.1c-12.6-12.6-3.7-34.1 14.1-34.1H192V24c0-13.3 10.7-24 24-24zm296 376v112c0 13.3-10.7 24-24 24H24c-13.3 0-24-10.7-24-24V376c0-13.3 10.7-24 24-24h146.7l49 49c20.1 20.1 52.5 20.1 72.6 0l49-49H488c13.3 0 24 10.7 24 24zm-124 88c0-11-9-20-20-20s-20 9-20 20 9 20 20 20 20-9 20-20zm64 0c0-11-9-20-20-20s-20 9-20 20 9 20 20 20 20-9 20-20z" class="compassNav" transform="translate(552,0) scale(0.05)" style="fill: #336699; stroke: #336699; stroke-width: 1px; cursor: pointer;"></path></g></svg>