<svg width="800" height="400" style="background-color: white;"><g transform="translate(50,0)"><svg width="700" height="360"><g style="-webkit-tap-highlight-color: rgba(0, 0, 0, 0);"><rect width="700" height="360" style="fill: #ffffff;"></rect><g id="lines"><line class="line" stroke-width="1" stroke="#d7301f" x1="-277.2549019607843" y1="333" x2="-277.2549019607843" y2="360" visibility="hidden" style="stroke-dasharray: 3px, 3px;"></line></g><g><rect x="-282.2549019607843" y="355" width="10" height="10" visibility="hidden" style="fill: #ffffff; stroke: #d7301f;"></rect></g><g id="lines"><line class="line" stroke-width="1" stroke="#6a51a3" x1="-277.2549019607843" y1="333" x2="-277.2549019607843" y2="327.27272727272725" visibility="hidden" style="stroke-dasharray: 3px, 3px;"></line></g><g><rect x="-282.2549019607843" y="322.27272727272725" width="10" height="10" visibility="hidden" style="fill: #ffffff; stroke: #6a51a3;"></rect></g><g id="lines"><line class="line" stroke-width="1" stroke="#666666" x1="-277.2549019607843" y1="333" x2="-277.2549019607843" y2="360"></line></g><g id="circles"><circle r="4" cx="-277.2549019607843" cy="360" style="fill: #4393c3; stroke: #666666; stroke-width: 1px;"></circle></g><g><rect x="0" y="333" width="700" height="12" style="fill: #ffffff; stroke-width: 1px; stroke: #666666;"></rect><rect x="74.11764705882352" y="333" width="590.1960784313725" height="12" style="fill: #aec7e8; stroke-width: 1px; stroke: #666666;"></rect></g><g><a target="_blank" xlink:href="http://pfam.xfam.org/family/"><text y="343" x="350" text-anchor="middle" style="color: rgb(102, 102, 102); font-weight: normal; font-size: 12px; font-family: Arial; cursor: pointer;"></text></a><a target="_blank" xlink:href="http://pfam.xfam.org/family/Trypsin"><text y="343" x="369.2156862745098" text-anchor="middle" style="color: rgb(102, 102, 102); font-weight: normal; font-size: 12px; font-family: Arial; cursor: pointer;">Trypsin</text></a></g><g><text y="358" x="0" text-anchor="middle" visibility="hidden" style="font-size: 13px;">M</text><text y="358" x="2.7450980392156863" text-anchor="middle" visibility="hidden" style="font-size: 13px;">A</text><text y="358" x="5.490196078431373" text-anchor="middle" visibility="hidden" style="font-size: 13px;">H</text><text y="358" x="8.235294117647058" text-anchor="middle" visibility="hidden" style="font-size: 13px;">R</text><text y="358" x="10.980392156862745" text-anchor="middle" visibility="hidden" style="font-size: 13px;">P</text><text y="358" x="13.72549019607843" text-anchor="middle" visibility="hidden" style="font-size: 13px;">P</text><text y="358" x="16.470588235294116" text-anchor="middle" visibility="hidden" style="font-size: 13px;">S</text><text y="358" x="19.215686274509803" text-anchor="middle" visibility="hidden" style="font-size: 13px;">P</text><text y="358" x="21.96078431372549" text-anchor="middle" visibility="hidden" style="font-size: 13px;">A</text><text y="358" x="24.705882352941178" text-anchor="middle" visibility="hidden" style="font-size: 13px;">L</text><text y="358" x="27.45098039215686" text-anchor="middle" visibility="hidden" style="font-size: 13px;">A</text><text y="358" x="30.19607843137255" text-anchor="middle" visibility="hidden" style="font-size: 13px;">S</text><text y="358" x="32.94117647058823" text-anchor="middle" visibility="hidden" style="font-size: 13px;">V</text><text y="358" x="35.68627450980392" text-anchor="middle" visibility="hidden" style="font-size: 13px;">L</text><text y="358" x="38.431372549019606" text-anchor="middle" visibility="hidden" style="font-size: 13px;">L</text><text y="358" x="41.1764705882353" text-anchor="middle" visibility="hidden" style="font-size: 13px;">A</text><text y="358" x="43.92156862745098" text-anchor="middle" visibility="hidden" style="font-size: 13px;">L</text><text y="358" x="46.666666666666664" text-anchor="middle" visibility="hidden" style="font-size: 13px;">L</text><text y="358" x="49.411764705882355" text-anchor="middle" visibility="hidden" style="font-size: 13px;">L</text><text y="358" x="52.15686274509804" text-anchor="middle" visibility="hidden" style="font-size: 13px;">S</text><text y="358" x="54.90196078431372" text-anchor="middle" visibility="hidden" style="font-size: 13px;">G</text><text y="358" x="57.64705882352941" text-anchor="middle" visibility="hidden" style="font-size: 13px;">A</text><text y="358" x="60.3921568627451" text-anchor="middle" visibility="hidden" style="font-size: 13px;">A</text><text y="358" x="63.13725490196078" text-anchor="middle" visibility="hidden" style="font-size: 13px;">R</text><text y="358" x="65.88235294117646" text-anchor="middle" visibility="hidden" style="font-size: 13px;">A</text><text y="358" x="68.62745098039215" text-anchor="middle" visibility="hidden" style="font-size: 13px;">A</text><text y="358" x="71.37254901960785" text-anchor="middle" visibility="hidden" style="font-size: 13px;">E</text><text y="358" x="74.11764705882352" text-anchor="middle" visibility="hidden" style="font-size: 13px;">I</text><text y="358" x="76.86274509803921" text-anchor="middle" visibility="hidden" style="font-size: 13px;">V</text><text y="358" x="79.6078431372549" text-anchor="middle" visibility="hidden" style="font-size: 13px;">G</text><text y="358" x="82.3529411764706" text-anchor="middle" visibility="hidden" style="font-size: 13px;">G</text><text y="358" x="85.09803921568627" text-anchor="middle" visibility="hidden" style="font-size: 13px;">H</text><text y="358" x="87.84313725490196" text-anchor="middle" visibility="hidden" style="font-size: 13px;">E</text><text y="358" x="90.58823529411765" text-anchor="middle" visibility="hidden" style="font-size: 13px;">A</text><text y="358" x="93.33333333333333" text-anchor="middle" visibility="hidden" style="font-size: 13px;">Q</text><text y="358" x="96.07843137254903" text-anchor="middle" visibility="hidden" style="font-size: 13px;">P</text><text y="358" x="98.82352941176471" text-anchor="middle" visibility="hidden" style="font-size: 13px;">H</text><text y="358" x="101.5686274509804" text-anchor="middle" visibility="hidden" style="font-size: 13px;">S</text><text y="358" x="104.31372549019608" text-anchor="middle" visibility="hidden" style="font-size: 13px;">R</text><text y="358" x="107.05882352941177" text-anchor="middle" visibility="hidden" style="font-size: 13px;">P</text><text y="358" x="109.80392156862744" text-anchor="middle" visibility="hidden" style="font-size: 13px;">Y</text><text y="358" x="112.54901960784315" text-anchor="middle" visibility="hidden" style="font-size: 13px;">M</text><text y="358" x="115.29411764705883" text-anchor="middle" visibility="hidden" style="font-size: 13px;">A</text><text y="358" x="118.03921568627452" text-anchor="middle" visibility="hidden" style="font-size: 13px;">S</text><text y="358" x="120.7843137254902" text-anchor="middle" visibility="hidden" style="font-size: 13px;">L</text><text y="358" x="123.52941176470588" text-anchor="middle" visibility="hidden" style="font-size: 13px;">Q</text><text y="358" x="126.27450980392156" text-anchor="middle" visibility="hidden" style="font-size: 13px;">M</text><text y="358" x="129.01960784313727" text-anchor="middle" visibility="hidden" style="font-size: 13px;">R</text><text y="358" x="131.76470588235293" text-anchor="middle" visibility="hidden" style="font-size: 13px;">G</text><text y="358" x="134.50980392156865" text-anchor="middle" visibility="hidden" style="font-size: 13px;">N</text><text y="358" x="137.2549019607843" text-anchor="middle" visibility="hidden" style="font-size: 13px;">P</text><text y="358" x="140" text-anchor="middle" visibility="hidden" style="font-size: 13px;">G</text><text y="358" x="142.7450980392157" text-anchor="middle" visibility="hidden" style="font-size: 13px;">S</text><text y="358" x="145.49019607843138" text-anchor="middle" visibility="hidden" style="font-size: 13px;">H</text><text y="358" x="148.23529411764704" text-anchor="middle" visibility="hidden" style="font-size: 13px;">F</text><text y="358" x="150.98039215686276" text-anchor="middle" visibility="hidden" style="font-size: 13px;">C</text><text y="358" x="153.72549019607843" text-anchor="middle" visibility="hidden" style="font-size: 13px;">G</text><text y="358" x="156.47058823529412" text-anchor="middle" visibility="hidden" style="font-size: 13px;">G</text><text y="358" x="159.2156862745098" text-anchor="middle" visibility="hidden" style="font-size: 13px;">T</text><text y="358" x="161.9607843137255" text-anchor="middle" visibility="hidden" style="font-size: 13px;">L</text><text y="358" x="164.7058823529412" text-anchor="middle" visibility="hidden" style="font-size: 13px;">I</text><text y="358" x="167.45098039215688" text-anchor="middle" visibility="hidden" style="font-size: 13px;">H</text><text y="358" x="170.19607843137254" text-anchor="middle" visibility="hidden" style="font-size: 13px;">P</text><text y="358" x="172.94117647058823" text-anchor="middle" visibility="hidden" style="font-size: 13px;">S</text><text y="358" x="175.68627450980392" text-anchor="middle" visibility="hidden" style="font-size: 13px;">F</text><text y="358" x="178.43137254901958" text-anchor="middle" visibility="hidden" style="font-size: 13px;">V</text><text y="358" x="181.1764705882353" text-anchor="middle" visibility="hidden" style="font-size: 13px;">L</text><text y="358" x="183.921568627451" text-anchor="middle" visibility="hidden" style="font-size: 13px;">T</text><text y="358" x="186.66666666666666" text-anchor="middle" visibility="hidden" style="font-size: 13px;">A</text><text y="358" x="189.41176470588235" text-anchor="middle" visibility="hidden" style="font-size: 13px;">A</text><text y="358" x="192.15686274509807" text-anchor="middle" visibility="hidden" style="font-size: 13px;">H</text><text y="358" x="194.90196078431373" text-anchor="middle" visibility="hidden" style="font-size: 13px;">C</text><text y="358" x="197.64705882352942" text-anchor="middle" visibility="hidden" style="font-size: 13px;">L</text><text y="358" x="200.39215686274508" text-anchor="middle" visibility="hidden" style="font-size: 13px;">R</text><text y="358" x="203.1372549019608" text-anchor="middle" visibility="hidden" style="font-size: 13px;">D</text><text y="358" x="205.88235294117646" text-anchor="middle" visibility="hidden" style="font-size: 13px;">I</text><text y="358" x="208.62745098039215" text-anchor="middle" visibility="hidden" style="font-size: 13px;">P</text><text y="358" x="211.37254901960782" text-anchor="middle" visibility="hidden" style="font-size: 13px;">Q</text><text y="358" x="214.11764705882354" text-anchor="middle" visibility="hidden" style="font-size: 13px;">R</text><text y="358" x="216.86274509803923" text-anchor="middle" visibility="hidden" style="font-size: 13px;">L</text><text y="358" x="219.6078431372549" text-anchor="middle" visibility="hidden" style="font-size: 13px;">V</text><text y="358" x="222.35294117647058" text-anchor="middle" visibility="hidden" style="font-size: 13px;">N</text><text y="358" x="225.0980392156863" text-anchor="middle" visibility="hidden" style="font-size: 13px;">V</text><text y="358" x="227.84313725490196" text-anchor="middle" visibility="hidden" style="font-size: 13px;">V</text><text y="358" x="230.58823529411765" text-anchor="middle" visibility="hidden" style="font-size: 13px;">L</text><text y="358" x="233.33333333333331" text-anchor="middle" visibility="hidden" style="font-size: 13px;">G</text><text y="358" x="236.07843137254903" text-anchor="middle" visibility="hidden" style="font-size: 13px;">A</text><text y="358" x="238.82352941176472" text-anchor="middle" visibility="hidden" style="font-size: 13px;">H</text><text y="358" x="241.5686274509804" text-anchor="middle" visibility="hidden" style="font-size: 13px;">N</text><text y="358" x="244.31372549019608" text-anchor="middle" visibility="hidden" style="font-size: 13px;">V</text><text y="358" x="247.05882352941177" text-anchor="middle" visibility="hidden" style="font-size: 13px;">R</text><text y="358" x="249.80392156862746" text-anchor="middle" visibility="hidden" style="font-size: 13px;">T</text><text y="358" x="252.54901960784312" text-anchor="middle" visibility="hidden" style="font-size: 13px;">Q</text><text y="358" x="255.2941176470588" text-anchor="middle" visibility="hidden" style="font-size: 13px;">E</text><text y="358" x="258.03921568627453" text-anchor="middle" visibility="hidden" style="font-size: 13px;">P</text><text y="358" x="260.7843137254902" text-anchor="middle" visibility="hidden" style="font-size: 13px;">T</text><text y="358" x="263.52941176470586" text-anchor="middle" visibility="hidden" style="font-size: 13px;">Q</text><text y="358" x="266.27450980392155" text-anchor="middle" visibility="hidden" style="font-size: 13px;">Q</text><text y="358" x="269.0196078431373" text-anchor="middle" visibility="hidden" style="font-size: 13px;">H</text><text y="358" x="271.7647058823529" text-anchor="middle" visibility="hidden" style="font-size: 13px;">F</text><text y="358" x="274.5098039215686" text-anchor="middle" visibility="hidden" style="font-size: 13px;">S</text><text y="358" x="277.2549019607843" text-anchor="middle" visibility="hidden" style="font-size: 13px;">V</text><text y="358" x="280" text-anchor="middle" visibility="hidden" style="font-size: 13px;">A</text><text y="358" x="282.7450980392157" text-anchor="middle" visibility="hidden" style="font-size: 13px;">Q</text><text y="358" x="285.4901960784314" text-anchor="middle" visibility="hidden" style="font-size: 13px;">V</text><text y="358" x="288.2352941176471" text-anchor="middle" visibility="hidden" style="font-size: 13px;">F</text><text y="358" x="290.98039215686276" text-anchor="middle" visibility="hidden" style="font-size: 13px;">L</text><text y="358" x="293.72549019607845" text-anchor="middle" visibility="hidden" style="font-size: 13px;">N</text><text y="358" x="296.4705882352941" text-anchor="middle" visibility="hidden" style="font-size: 13px;">N</text><text y="358" x="299.2156862745098" text-anchor="middle" visibility="hidden" style="font-size: 13px;">Y</text><text y="358" x="301.9607843137255" text-anchor="middle" visibility="hidden" style="font-size: 13px;">D</text><text y="358" x="304.70588235294116" text-anchor="middle" visibility="hidden" style="font-size: 13px;">A</text><text y="358" x="307.45098039215685" text-anchor="middle" visibility="hidden" style="font-size: 13px;">E</text><text y="358" x="310.19607843137254" text-anchor="middle" visibility="hidden" style="font-size: 13px;">N</text><text y="358" x="312.94117647058823" text-anchor="middle" visibility="hidden" style="font-size: 13px;">K</text><text y="358" x="315.6862745098039" text-anchor="middle" visibility="hidden" style="font-size: 13px;">L</text><text y="358" x="318.4313725490196" text-anchor="middle" visibility="hidden" style="font-size: 13px;">N</text><text y="358" x="321.1764705882353" text-anchor="middle" visibility="hidden" style="font-size: 13px;">D</text><text y="358" x="323.921568627451" text-anchor="middle" visibility="hidden" style="font-size: 13px;">V</text><text y="358" x="326.6666666666667" text-anchor="middle" visibility="hidden" style="font-size: 13px;">L</text><text y="358" x="329.4117647058824" text-anchor="middle" visibility="hidden" style="font-size: 13px;">L</text><text y="358" x="332.156862745098" text-anchor="middle" visibility="hidden" style="font-size: 13px;">I</text><text y="358" x="334.90196078431376" text-anchor="middle" visibility="hidden" style="font-size: 13px;">Q</text><text y="358" x="337.6470588235294" text-anchor="middle" visibility="hidden" style="font-size: 13px;">L</text><text y="358" x="340.3921568627451" text-anchor="middle" visibility="hidden" style="font-size: 13px;">S</text><text y="358" x="343.1372549019608" text-anchor="middle" visibility="hidden" style="font-size: 13px;">S</text><text y="358" x="345.88235294117646" text-anchor="middle" visibility="hidden" style="font-size: 13px;">P</text><text y="358" x="348.62745098039215" text-anchor="middle" visibility="hidden" style="font-size: 13px;">A</text><text y="358" x="351.37254901960785" text-anchor="middle" visibility="hidden" style="font-size: 13px;">N</text><text y="358" x="354.11764705882354" text-anchor="middle" visibility="hidden" style="font-size: 13px;">L</text><text y="358" x="356.86274509803917" text-anchor="middle" visibility="hidden" style="font-size: 13px;">S</text><text y="358" x="359.60784313725486" text-anchor="middle" visibility="hidden" style="font-size: 13px;">A</text><text y="358" x="362.3529411764706" text-anchor="middle" visibility="hidden" style="font-size: 13px;">S</text><text y="358" x="365.0980392156863" text-anchor="middle" visibility="hidden" style="font-size: 13px;">V</text><text y="358" x="367.843137254902" text-anchor="middle" visibility="hidden" style="font-size: 13px;">A</text><text y="358" x="370.5882352941176" text-anchor="middle" visibility="hidden" style="font-size: 13px;">T</text><text y="358" x="373.3333333333333" text-anchor="middle" visibility="hidden" style="font-size: 13px;">V</text><text y="358" x="376.078431372549" text-anchor="middle" visibility="hidden" style="font-size: 13px;">Q</text><text y="358" x="378.8235294117647" text-anchor="middle" visibility="hidden" style="font-size: 13px;">L</text><text y="358" x="381.56862745098033" text-anchor="middle" visibility="hidden" style="font-size: 13px;">P</text><text y="358" x="384.31372549019613" text-anchor="middle" visibility="hidden" style="font-size: 13px;">Q</text><text y="358" x="387.05882352941177" text-anchor="middle" visibility="hidden" style="font-size: 13px;">Q</text><text y="358" x="389.80392156862746" text-anchor="middle" visibility="hidden" style="font-size: 13px;">D</text><text y="358" x="392.54901960784315" text-anchor="middle" visibility="hidden" style="font-size: 13px;">Q</text><text y="358" x="395.29411764705884" text-anchor="middle" visibility="hidden" style="font-size: 13px;">P</text><text y="358" x="398.0392156862745" text-anchor="middle" visibility="hidden" style="font-size: 13px;">V</text><text y="358" x="400.78431372549016" text-anchor="middle" visibility="hidden" style="font-size: 13px;">P</text><text y="358" x="403.52941176470586" text-anchor="middle" visibility="hidden" style="font-size: 13px;">H</text><text y="358" x="406.2745098039216" text-anchor="middle" visibility="hidden" style="font-size: 13px;">G</text><text y="358" x="409.0196078431373" text-anchor="middle" visibility="hidden" style="font-size: 13px;">T</text><text y="358" x="411.7647058823529" text-anchor="middle" visibility="hidden" style="font-size: 13px;">Q</text><text y="358" x="414.5098039215686" text-anchor="middle" visibility="hidden" style="font-size: 13px;">C</text><text y="358" x="417.2549019607843" text-anchor="middle" visibility="hidden" style="font-size: 13px;">L</text><text y="358" x="420" text-anchor="middle" visibility="hidden" style="font-size: 13px;">A</text><text y="358" x="422.74509803921563" text-anchor="middle" visibility="hidden" style="font-size: 13px;">M</text><text y="358" x="425.4901960784313" text-anchor="middle" visibility="hidden" style="font-size: 13px;">G</text><text y="358" x="428.2352941176471" text-anchor="middle" visibility="hidden" style="font-size: 13px;">W</text><text y="358" x="430.98039215686276" text-anchor="middle" visibility="hidden" style="font-size: 13px;">G</text><text y="358" x="433.72549019607845" text-anchor="middle" visibility="hidden" style="font-size: 13px;">R</text><text y="358" x="436.47058823529414" text-anchor="middle" visibility="hidden" style="font-size: 13px;">V</text><text y="358" x="439.2156862745098" text-anchor="middle" visibility="hidden" style="font-size: 13px;">G</text><text y="358" x="441.96078431372547" text-anchor="middle" visibility="hidden" style="font-size: 13px;">A</text><text y="358" x="444.70588235294116" text-anchor="middle" visibility="hidden" style="font-size: 13px;">H</text><text y="358" x="447.45098039215685" text-anchor="middle" visibility="hidden" style="font-size: 13px;">D</text><text y="358" x="450.1960784313726" text-anchor="middle" visibility="hidden" style="font-size: 13px;">P</text><text y="358" x="452.94117647058823" text-anchor="middle" visibility="hidden" style="font-size: 13px;">P</text><text y="358" x="455.6862745098039" text-anchor="middle" visibility="hidden" style="font-size: 13px;">A</text><text y="358" x="458.4313725490196" text-anchor="middle" visibility="hidden" style="font-size: 13px;">Q</text><text y="358" x="461.1764705882353" text-anchor="middle" visibility="hidden" style="font-size: 13px;">V</text><text y="358" x="463.92156862745094" text-anchor="middle" visibility="hidden" style="font-size: 13px;">L</text><text y="358" x="466.66666666666663" text-anchor="middle" visibility="hidden" style="font-size: 13px;">Q</text><text y="358" x="469.4117647058823" text-anchor="middle" visibility="hidden" style="font-size: 13px;">E</text><text y="358" x="472.15686274509807" text-anchor="middle" visibility="hidden" style="font-size: 13px;">L</text><text y="358" x="474.90196078431376" text-anchor="middle" visibility="hidden" style="font-size: 13px;">N</text><text y="358" x="477.64705882352945" text-anchor="middle" visibility="hidden" style="font-size: 13px;">V</text><text y="358" x="480.3921568627451" text-anchor="middle" visibility="hidden" style="font-size: 13px;">T</text><text y="358" x="483.1372549019608" text-anchor="middle" visibility="hidden" style="font-size: 13px;">V</text><text y="358" x="485.88235294117646" text-anchor="middle" visibility="hidden" style="font-size: 13px;">V</text><text y="358" x="488.62745098039215" text-anchor="middle" visibility="hidden" style="font-size: 13px;">T</text><text y="358" x="491.3725490196078" text-anchor="middle" visibility="hidden" style="font-size: 13px;">F</text><text y="358" x="494.11764705882354" text-anchor="middle" visibility="hidden" style="font-size: 13px;">F</text><text y="358" x="496.8627450980392" text-anchor="middle" visibility="hidden" style="font-size: 13px;">C</text><text y="358" x="499.6078431372549" text-anchor="middle" visibility="hidden" style="font-size: 13px;">R</text><text y="358" x="502.3529411764706" text-anchor="middle" visibility="hidden" style="font-size: 13px;">P</text><text y="358" x="505.09803921568624" text-anchor="middle" visibility="hidden" style="font-size: 13px;">H</text><text y="358" x="507.84313725490193" text-anchor="middle" visibility="hidden" style="font-size: 13px;">N</text><text y="358" x="510.5882352941176" text-anchor="middle" visibility="hidden" style="font-size: 13px;">I</text><text y="358" x="513.3333333333333" text-anchor="middle" visibility="hidden" style="font-size: 13px;">C</text><text y="358" x="516.0784313725491" text-anchor="middle" visibility="hidden" style="font-size: 13px;">T</text><text y="358" x="518.8235294117648" text-anchor="middle" visibility="hidden" style="font-size: 13px;">F</text><text y="358" x="521.5686274509804" text-anchor="middle" visibility="hidden" style="font-size: 13px;">V</text><text y="358" x="524.3137254901961" text-anchor="middle" visibility="hidden" style="font-size: 13px;">P</text><text y="358" x="527.0588235294117" text-anchor="middle" visibility="hidden" style="font-size: 13px;">R</text><text y="358" x="529.8039215686274" text-anchor="middle" visibility="hidden" style="font-size: 13px;">R</text><text y="358" x="532.5490196078431" text-anchor="middle" visibility="hidden" style="font-size: 13px;">K</text><text y="358" x="535.2941176470588" text-anchor="middle" visibility="hidden" style="font-size: 13px;">A</text><text y="358" x="538.0392156862746" text-anchor="middle" visibility="hidden" style="font-size: 13px;">G</text><text y="358" x="540.7843137254902" text-anchor="middle" visibility="hidden" style="font-size: 13px;">I</text><text y="358" x="543.5294117647059" text-anchor="middle" visibility="hidden" style="font-size: 13px;">C</text><text y="358" x="546.2745098039215" text-anchor="middle" visibility="hidden" style="font-size: 13px;">F</text><text y="358" x="549.0196078431372" text-anchor="middle" visibility="hidden" style="font-size: 13px;">G</text><text y="358" x="551.7647058823529" text-anchor="middle" visibility="hidden" style="font-size: 13px;">D</text><text y="358" x="554.5098039215686" text-anchor="middle" visibility="hidden" style="font-size: 13px;">S</text><text y="358" x="557.2549019607843" text-anchor="middle" visibility="hidden" style="font-size: 13px;">G</text><text y="358" x="560" text-anchor="middle" visibility="hidden" style="font-size: 13px;">G</text><text y="358" x="562.7450980392157" text-anchor="middle" visibility="hidden" style="font-size: 13px;">P</text><text y="358" x="565.4901960784314" text-anchor="middle" visibility="hidden" style="font-size: 13px;">L</text><text y="358" x="568.2352941176471" text-anchor="middle" visibility="hidden" style="font-size: 13px;">I</text><text y="358" x="570.9803921568628" text-anchor="middle" visibility="hidden" style="font-size: 13px;">C</text><text y="358" x="573.7254901960785" text-anchor="middle" visibility="hidden" style="font-size: 13px;">D</text><text y="358" x="576.4705882352941" text-anchor="middle" visibility="hidden" style="font-size: 13px;">G</text><text y="358" x="579.2156862745097" text-anchor="middle" visibility="hidden" style="font-size: 13px;">I</text><text y="358" x="581.9607843137255" text-anchor="middle" visibility="hidden" style="font-size: 13px;">I</text><text y="358" x="584.7058823529412" text-anchor="middle" visibility="hidden" style="font-size: 13px;">Q</text><text y="358" x="587.4509803921569" text-anchor="middle" visibility="hidden" style="font-size: 13px;">G</text><text y="358" x="590.1960784313726" text-anchor="middle" visibility="hidden" style="font-size: 13px;">I</text><text y="358" x="592.9411764705882" text-anchor="middle" visibility="hidden" style="font-size: 13px;">D</text><text y="358" x="595.6862745098039" text-anchor="middle" visibility="hidden" style="font-size: 13px;">S</text><text y="358" x="598.4313725490196" text-anchor="middle" visibility="hidden" style="font-size: 13px;">F</text><text y="358" x="601.1764705882352" text-anchor="middle" visibility="hidden" style="font-size: 13px;">V</text><text y="358" x="603.921568627451" text-anchor="middle" visibility="hidden" style="font-size: 13px;">I</text><text y="358" x="606.6666666666667" text-anchor="middle" visibility="hidden" style="font-size: 13px;">W</text><text y="358" x="609.4117647058823" text-anchor="middle" visibility="hidden" style="font-size: 13px;">G</text><text y="358" x="612.156862745098" text-anchor="middle" visibility="hidden" style="font-size: 13px;">C</text><text y="358" x="614.9019607843137" text-anchor="middle" visibility="hidden" style="font-size: 13px;">A</text><text y="358" x="617.6470588235294" text-anchor="middle" visibility="hidden" style="font-size: 13px;">T</text><text y="358" x="620.3921568627451" text-anchor="middle" visibility="hidden" style="font-size: 13px;">R</text><text y="358" x="623.1372549019608" text-anchor="middle" visibility="hidden" style="font-size: 13px;">L</text><text y="358" x="625.8823529411765" text-anchor="middle" visibility="hidden" style="font-size: 13px;">F</text><text y="358" x="628.6274509803922" text-anchor="middle" visibility="hidden" style="font-size: 13px;">P</text><text y="358" x="631.3725490196078" text-anchor="middle" visibility="hidden" style="font-size: 13px;">D</text><text y="358" x="634.1176470588235" text-anchor="middle" visibility="hidden" style="font-size: 13px;">F</text><text y="358" x="636.8627450980392" text-anchor="middle" visibility="hidden" style="font-size: 13px;">F</text><text y="358" x="639.6078431372549" text-anchor="middle" visibility="hidden" style="font-size: 13px;">T</text><text y="358" x="642.3529411764706" text-anchor="middle" visibility="hidden" style="font-size: 13px;">R</text><text y="358" x="645.0980392156862" text-anchor="middle" visibility="hidden" style="font-size: 13px;">V</text><text y="358" x="647.843137254902" text-anchor="middle" visibility="hidden" style="font-size: 13px;">A</text><text y="358" x="650.5882352941177" text-anchor="middle" visibility="hidden" style="font-size: 13px;">L</text><text y="358" x="653.3333333333334" text-anchor="middle" visibility="hidden" style="font-size: 13px;">Y</text><text y="358" x="656.0784313725491" text-anchor="middle" visibility="hidden" style="font-size: 13px;">V</text><text y="358" x="658.8235294117648" text-anchor="middle" visibility="hidden" style="font-size: 13px;">D</text><text y="358" x="661.5686274509803" text-anchor="middle" visibility="hidden" style="font-size: 13px;">W</text><text y="358" x="664.313725490196" text-anchor="middle" visibility="hidden" style="font-size: 13px;">I</text><text y="358" x="667.0588235294117" text-anchor="middle" visibility="hidden" style="font-size: 13px;">R</text><text y="358" x="669.8039215686275" text-anchor="middle" visibility="hidden" style="font-size: 13px;">S</text><text y="358" x="672.5490196078432" text-anchor="middle" visibility="hidden" style="font-size: 13px;">T</text><text y="358" x="675.2941176470588" text-anchor="middle" visibility="hidden" style="font-size: 13px;">L</text><text y="358" x="678.0392156862745" text-anchor="middle" visibility="hidden" style="font-size: 13px;">R</text><text y="358" x="680.7843137254902" text-anchor="middle" visibility="hidden" style="font-size: 13px;">R</text><text y="358" x="683.5294117647059" text-anchor="middle" visibility="hidden" style="font-size: 13px;">V</text><text y="358" x="686.2745098039215" text-anchor="middle" visibility="hidden" style="font-size: 13px;">E</text><text y="358" x="689.0196078431372" text-anchor="middle" visibility="hidden" style="font-size: 13px;">A</text><text y="358" x="691.7647058823529" text-anchor="middle" visibility="hidden" style="font-size: 13px;">K</text><text y="358" x="694.5098039215686" text-anchor="middle" visibility="hidden" style="font-size: 13px;">G</text><text y="358" x="697.2549019607843" text-anchor="middle" visibility="hidden" style="font-size: 13px;">R</text><text y="358" x="700" text-anchor="middle" visibility="hidden" style="font-size: 13px;">P</text></g></g></svg><g class="xAxis" transform="translate(0,360)" fill="none" font-size="10" font-family="sans-serif" text-anchor="middle"><path class="domain" stroke="#000" d="M0.5,6V0.5H700.5V6"></path><g class="tick" opacity="1" transform="translate(52.65686274509804,0)"><line stroke="#000" y2="6"></line><text fill="#000" y="9" dy="0.71em">20</text></g><g class="tick" opacity="1" transform="translate(107.55882352941177,0)"><line stroke="#000" y2="6"></line><text fill="#000" y="9" dy="0.71em">40</text></g><g class="tick" opacity="1" transform="translate(162.4607843137255,0)"><line stroke="#000" y2="6"></line><text fill="#000" y="9" dy="0.71em">60</text></g><g class="tick" opacity="1" transform="translate(217.36274509803923,0)"><line stroke="#000" y2="6"></line><text fill="#000" y="9" dy="0.71em">80</text></g><g class="tick" opacity="1" transform="translate(272.2647058823529,0)"><line stroke="#000" y2="6"></line><text fill="#000" y="9" dy="0.71em">100</text></g><g class="tick" opacity="1" transform="translate(327.1666666666667,0)"><line stroke="#000" y2="6"></line><text fill="#000" y="9" dy="0.71em">120</text></g><g class="tick" opacity="1" transform="translate(382.06862745098033,0)"><line stroke="#000" y2="6"></line><text fill="#000" y="9" dy="0.71em">140</text></g><g class="tick" opacity="1" transform="translate(436.97058823529414,0)"><line stroke="#000" y2="6"></line><text fill="#000" y="9" dy="0.71em">160</text></g><g class="tick" opacity="1" transform="translate(491.8725490196078,0)"><line stroke="#000" y2="6"></line><text fill="#000" y="9" dy="0.71em">180</text></g><g class="tick" opacity="1" transform="translate(546.7745098039215,0)"><line stroke="#000" y2="6"></line><text fill="#000" y="9" dy="0.71em">200</text></g><g class="tick" opacity="1" transform="translate(601.6764705882352,0)"><line stroke="#000" y2="6"></line><text fill="#000" y="9" dy="0.71em">220</text></g><g class="tick" opacity="1" transform="translate(656.5784313725491,0)"><line stroke="#000" y2="6"></line><text fill="#000" y="9" dy="0.71em">240</text></g></g><text class="x label" text-anchor="end" x="700" y="390" style="font-size: 13px; font-family: Arial;">Residue number</text><g class="yAxis" fill="none" font-size="10" font-family="sans-serif" text-anchor="end"><path class="domain" stroke="#000" d="M-6,360.5H0.5V0.5H-6"></path><g class="tick" opacity="1" transform="translate(0,360.5)"><line stroke="#000" x2="-6"></line><text fill="#000" x="-9" dy="0.32em">0</text></g></g><text class="y label" text-anchor="middle" y="-50" x="-180" dy="0.8em" transform="rotate(-90)" style="font-size: 13px; font-family: Arial;">Total number of references</text><g class="axisRed" fill="none" font-size="10" font-family="sans-serif" text-anchor="start" visibility="hidden" transform="translate(700, 0)"><path class="domain" stroke="#000" d="M6,360.5H0.5V0.5H6"></path><g class="tick" opacity="1" transform="translate(0,360.5)"><line stroke="#000" x2="6"></line><text fill="#000" x="9" dy="0.32em">0</text></g><text text-anchor="start" dx="5.2em" dy="-2.6em" transform="rotate(90)" visibility="hidden" style="font-size: 12px; font-family: Arial; fill: #d7301f;">No recurrent (&gt;2) missense mutations!</text></g><g class="axisPurple" fill="none" font-size="10" font-family="sans-serif" text-anchor="start" visibility="hidden"><path class="domain" stroke="#000" d="M6,360.5H0.5V0.5H6"></path><g class="tick" opacity="1" transform="translate(0,357.52479338842977)"><line stroke="#000" x2="6"></line><text fill="#000" x="9" dy="0.32em"></text></g><g class="tick" opacity="1" transform="translate(0,327.77272727272725)"><line stroke="#000" x2="6"></line><text fill="#000" x="9" dy="0.32em">0</text></g><g class="tick" opacity="1" transform="translate(0,298.0206611570248)"><line stroke="#000" x2="6"></line><text fill="#000" x="9" dy="0.32em">0.1</text></g><g class="tick" opacity="1" transform="translate(0,268.2685950413223)"><line stroke="#000" x2="6"></line><text fill="#000" x="9" dy="0.32em">0.2</text></g><g class="tick" opacity="1" transform="translate(0,238.51652892561984)"><line stroke="#000" x2="6"></line><text fill="#000" x="9" dy="0.32em">0.3</text></g><g class="tick" opacity="1" transform="translate(0,208.76446280991738)"><line stroke="#000" x2="6"></line><text fill="#000" x="9" dy="0.32em">0.4</text></g><g class="tick" opacity="1" transform="translate(0,179.0123966942149)"><line stroke="#000" x2="6"></line><text fill="#000" x="9" dy="0.32em">0.5</text></g><g class="tick" opacity="1" transform="translate(0,149.26033057851242)"><line stroke="#000" x2="6"></line><text fill="#000" x="9" dy="0.32em">0.6</text></g><g class="tick" opacity="1" transform="translate(0,119.50826446280996)"><line stroke="#000" x2="6"></line><text fill="#000" x="9" dy="0.32em">0.7</text></g><g class="tick" opacity="1" transform="translate(0,89.75619834710744)"><line stroke="#000" x2="6"></line><text fill="#000" x="9" dy="0.32em">0.8</text></g><g class="tick" opacity="1" transform="translate(0,60.00413223140498)"><line stroke="#000" x2="6"></line><text fill="#000" x="9" dy="0.32em">0.9</text></g><g class="tick" opacity="1" transform="translate(0,30.25206611570252)"><line stroke="#000" x2="6"></line><text fill="#000" x="9" dy="0.32em">1</text></g><g class="tick" opacity="1" transform="translate(0,0.5)"><line stroke="#000" x2="6"></line><text fill="#000" x="9" dy="0.32em">1.1</text></g><text text-anchor="start" x="10" y="10" visibility="hidden" style="font-size: 12px; font-family: Arial; fill: #807dba;">No disease causing germline SNPs known!</text></g><circle cx="636" cy="15" r="10" class="compassNav" style="fill: #ffffff; stroke: #666666; stroke-width: 1px;"></circle><path d="M440.935 12.574l3.966 82.766C399.416 41.904 331.674 8 256 8 134.813 8 33.933 94.924 12.296 209.824 10.908 217.193 16.604 224 24.103 224h49.084c5.57 0 10.377-3.842 11.676-9.259C103.407 137.408 172.931 80 256 80c60.893 0 114.512 30.856 146.104 77.801l-101.53-4.865c-6.845-.328-12.574 5.133-12.574 11.986v47.411c0 6.627 5.373 12 12 12h200.333c6.627 0 12-5.373 12-12V12c0-6.627-5.373-12-12-12h-47.411c-6.853 0-12.315 5.729-11.987 12.574zM256 432c-60.895 0-114.517-30.858-146.109-77.805l101.868 4.871c6.845.327 12.573-5.134 12.573-11.986v-47.412c0-6.627-5.373-12-12-12H12c-6.627 0-12 5.373-12 12V500c0 6.627 5.373 12 12 12h47.385c6.863 0 12.328-5.745 11.985-12.599l-4.129-82.575C112.725 470.166 180.405 504 256 504c121.187 0 222.067-86.924 243.704-201.824 1.388-7.369-4.308-14.176-11.807-14.176h-49.084c-5.57 0-10.377 3.842-11.676 9.259C408.593 374.592 339.069 432 256 432z" class="compassNav" transform="translate(631, 10) scale(0.02)" style="fill: #666666; stroke: #666666; stroke-width: 1px;"></path><circle cx="658" cy="15" r="10" class="compassNav" style="fill: #ffffff; stroke: #666666; stroke-width: 1px;"></circle><line class="compassNav" stroke-width="2" stroke="#666666" x1="654" y1="15" x2="662" y2="15"></line><line class="compassNav" stroke-width="2" stroke="#666666" x1="658" y1="11" x2="658" y2="19"></line><circle cx="614" cy="15" r="10" class="compassNav" style="fill: #ffffff; stroke: #666666; stroke-width: 1px;"></circle><line class="compassNav" stroke-width="2" stroke="#666666" x1="610" y1="15" x2="618" y2="15"></line><path d="M582 14 l20 -12 a100,40 0 0,0 0,24z" class="compassNav" style="fill: #ffffff; stroke: #666666; stroke-width: 1px;"></path><path d="M690 14 l-20 -12 a100,40 0 0,1 0,24z" class="compassNav" style="fill: #ffffff; stroke: #666666; stroke-width: 1px;"></path><path d="M216 0h80c13.3 0 24 10.7 24 24v168h87.7c17.8 0 26.7 21.5 14.1 34.1L269.7 378.3c-7.5 7.5-19.8 7.5-27.3 0L90.1 226.1c-12.6-12.6-3.7-34.1 14.1-34.1H192V24c0-13.3 10.7-24 24-24zm296 376v112c0 13.3-10.7 24-24 24H24c-13.3 0-24-10.7-24-24V376c0-13.3 10.7-24 24-24h146.7l49 49c20.1 20.1 52.5 20.1 72.6 0l49-49H488c13.3 0 24 10.7 24 24zm-124 88c0-11-9-20-20-20s-20 9-20 20 9 20 20 20 20-9 20-20zm64 0c0-11-9-20-20-20s-20 9-20 20 9 20 20 20 20-9 20-20z" class="compassNav" transform="translate(552,0) scale(0.05)" style="fill: #336699; stroke: #336699; stroke-width: 1px; cursor: pointer;"></path></g></svg>