<svg width="800" height="400" style="background-color: white;"><g transform="translate(50,0)"><svg width="700" height="360"><g style="-webkit-tap-highlight-color: rgba(0, 0, 0, 0);"><rect width="700" height="360" style="fill: #ffffff;"></rect><g id="lines"><line class="line" stroke-width="1" stroke="#d7301f" x1="-240.47619047619048" y1="333" x2="-240.47619047619048" y2="360" visibility="hidden" style="stroke-dasharray: 3px, 3px;"></line></g><g><rect x="-245.47619047619048" y="355" width="10" height="10" visibility="hidden" style="fill: #ffffff; stroke: #d7301f;"></rect></g><g id="lines"><line class="line" stroke-width="1" stroke="#6a51a3" x1="-240.47619047619048" y1="333" x2="-240.47619047619048" y2="327.27272727272725" visibility="hidden" style="stroke-dasharray: 3px, 3px;"></line></g><g><rect x="-245.47619047619048" y="322.27272727272725" width="10" height="10" visibility="hidden" style="fill: #ffffff; stroke: #6a51a3;"></rect></g><g id="lines"><line class="line" stroke-width="1" stroke="#666666" x1="76.19047619047619" y1="333" x2="76.19047619047619" y2="290.08264462809916"></line><line class="line" stroke-width="1" stroke="#666666" x1="107.14285714285714" y1="333" x2="107.14285714285714" y2="206.40495867768598"></line><line class="line" stroke-width="1" stroke="#666666" x1="107.14285714285714" y1="333" x2="107.14285714285714" y2="317.97520661157023"></line><line class="line" stroke-width="1" stroke="#666666" x1="116.66666666666666" y1="333" x2="116.66666666666666" y2="290.08264462809916"></line><line class="line" stroke-width="1" stroke="#666666" x1="211.9047619047619" y1="333" x2="211.9047619047619" y2="317.97520661157023"></line><line class="line" stroke-width="1" stroke="#666666" x1="223.80952380952382" y1="333" x2="223.80952380952382" y2="290.08264462809916"></line><line class="line" stroke-width="1" stroke="#666666" x1="226.1904761904762" y1="333" x2="226.1904761904762" y2="317.97520661157023"></line><line class="line" stroke-width="1" stroke="#666666" x1="261.9047619047619" y1="333" x2="261.9047619047619" y2="317.97520661157023"></line><line class="line" stroke-width="1" stroke="#666666" x1="269.04761904761904" y1="333" x2="269.04761904761904" y2="317.97520661157023"></line><line class="line" stroke-width="1" stroke="#666666" x1="309.5238095238095" y1="333" x2="309.5238095238095" y2="317.97520661157023"></line><line class="line" stroke-width="1" stroke="#666666" x1="395.2380952380952" y1="333" x2="395.2380952380952" y2="317.97520661157023"></line><line class="line" stroke-width="1" stroke="#666666" x1="414.2857142857143" y1="333" x2="414.2857142857143" y2="280.78512396694214"></line><line class="line" stroke-width="1" stroke="#666666" x1="466.66666666666663" y1="333" x2="466.66666666666663" y2="317.97520661157023"></line><line class="line" stroke-width="1" stroke="#666666" x1="519.047619047619" y1="333" x2="519.047619047619" y2="317.97520661157023"></line><line class="line" stroke-width="1" stroke="#666666" x1="535.7142857142857" y1="333" x2="535.7142857142857" y2="317.97520661157023"></line><line class="line" stroke-width="1" stroke="#666666" x1="554.7619047619047" y1="333" x2="554.7619047619047" y2="317.97520661157023"></line><line class="line" stroke-width="1" stroke="#666666" x1="564.2857142857143" y1="333" x2="564.2857142857143" y2="234.29752066115702"></line><line class="line" stroke-width="1" stroke="#666666" x1="638.0952380952381" y1="333" x2="638.0952380952381" y2="317.97520661157023"></line><line class="line" stroke-width="1" stroke="#666666" x1="678.5714285714286" y1="333" x2="678.5714285714286" y2="29.75206611570252"></line><line class="line" stroke-width="1" stroke="#666666" x1="683.3333333333334" y1="333" x2="683.3333333333334" y2="280.78512396694214"></line></g><g id="circles"><circle r="4" cx="76.19047619047619" cy="290.08264462809916" style="fill: #bf812d; stroke: #666666; stroke-width: 1px;"></circle><circle r="4" cx="107.14285714285714" cy="206.40495867768598" style="fill: #bf812d; stroke: #666666; stroke-width: 1px;"></circle><circle r="4" cx="107.14285714285714" cy="317.97520661157023" style="fill: #666666; stroke: #666666; stroke-width: 1px;"></circle><circle r="4" cx="116.66666666666666" cy="290.08264462809916" style="fill: #bf812d; stroke: #666666; stroke-width: 1px;"></circle><circle r="4" cx="211.9047619047619" cy="317.97520661157023" style="fill: #4393c3; stroke: #666666; stroke-width: 1px;"></circle><circle r="4" cx="223.80952380952382" cy="290.08264462809916" style="fill: #bf812d; stroke: #666666; stroke-width: 1px;"></circle><circle r="4" cx="226.1904761904762" cy="317.97520661157023" style="fill: #bf812d; stroke: #666666; stroke-width: 1px;"></circle><circle r="4" cx="261.9047619047619" cy="317.97520661157023" style="fill: #4393c3; stroke: #666666; stroke-width: 1px;"></circle><circle r="4" cx="269.04761904761904" cy="317.97520661157023" style="fill: #bf812d; stroke: #666666; stroke-width: 1px;"></circle><circle r="4" cx="309.5238095238095" cy="317.97520661157023" style="fill: #4393c3; stroke: #666666; stroke-width: 1px;"></circle><circle r="4" cx="395.2380952380952" cy="317.97520661157023" style="fill: #bf812d; stroke: #666666; stroke-width: 1px;"></circle><circle r="4" cx="414.2857142857143" cy="280.78512396694214" style="fill: #bf812d; stroke: #666666; stroke-width: 1px;"></circle><circle r="4" cx="466.66666666666663" cy="317.97520661157023" style="fill: #4393c3; stroke: #666666; stroke-width: 1px;"></circle><circle r="4" cx="519.047619047619" cy="317.97520661157023" style="fill: #4393c3; stroke: #666666; stroke-width: 1px;"></circle><circle r="4" cx="535.7142857142857" cy="317.97520661157023" style="fill: #4393c3; stroke: #666666; stroke-width: 1px;"></circle><circle r="4" cx="554.7619047619047" cy="317.97520661157023" style="fill: #4393c3; stroke: #666666; stroke-width: 1px;"></circle><circle r="4" cx="564.2857142857143" cy="234.29752066115702" style="fill: #bf812d; stroke: #666666; stroke-width: 1px;"></circle><circle r="4" cx="638.0952380952381" cy="317.97520661157023" style="fill: #bf812d; stroke: #666666; stroke-width: 1px;"></circle><circle r="4" cx="678.5714285714286" cy="29.75206611570252" style="fill: #4393c3; stroke: #666666; stroke-width: 1px;"></circle><circle r="4" cx="683.3333333333334" cy="280.78512396694214" style="fill: #4393c3; stroke: #666666; stroke-width: 1px;"></circle></g><g><rect x="0" y="333" width="700" height="12" style="fill: #ffffff; stroke-width: 1px; stroke: #666666;"></rect><rect x="59.52380952380952" y="333" width="302.3809523809524" height="12" style="fill: #aec7e8; stroke-width: 1px; stroke: #666666;"></rect><rect x="366.6666666666667" y="333" width="302.38095238095235" height="12" style="fill: #ffbb78; stroke-width: 1px; stroke: #666666;"></rect></g><g><a target="_blank" xlink:href="http://pfam.xfam.org/family/"><text y="343" x="350" text-anchor="middle" style="color: rgb(102, 102, 102); font-weight: normal; font-size: 12px; font-family: Arial; cursor: pointer;"></text></a><a target="_blank" xlink:href="http://pfam.xfam.org/family/Cyclin_N"><text y="343" x="210.71428571428572" text-anchor="middle" style="color: rgb(102, 102, 102); font-weight: normal; font-size: 12px; font-family: Arial; cursor: pointer;">Cyclin_N</text></a><a target="_blank" xlink:href="http://pfam.xfam.org/family/Cyclin_C"><text y="343" x="517.8571428571429" text-anchor="middle" style="color: rgb(102, 102, 102); font-weight: normal; font-size: 12px; font-family: Arial; cursor: pointer;">Cyclin_C</text></a></g><g><text y="358" x="0" text-anchor="middle" visibility="hidden" style="font-size: 13px;">M</text><text y="358" x="2.380952380952381" text-anchor="middle" visibility="hidden" style="font-size: 13px;">E</text><text y="358" x="4.761904761904762" text-anchor="middle" visibility="hidden" style="font-size: 13px;">H</text><text y="358" x="7.142857142857142" text-anchor="middle" visibility="hidden" style="font-size: 13px;">Q</text><text y="358" x="9.523809523809524" text-anchor="middle" visibility="hidden" style="font-size: 13px;">L</text><text y="358" x="11.904761904761905" text-anchor="middle" visibility="hidden" style="font-size: 13px;">L</text><text y="358" x="14.285714285714285" text-anchor="middle" visibility="hidden" style="font-size: 13px;">C</text><text y="358" x="16.666666666666664" text-anchor="middle" visibility="hidden" style="font-size: 13px;">C</text><text y="358" x="19.047619047619047" text-anchor="middle" visibility="hidden" style="font-size: 13px;">E</text><text y="358" x="21.428571428571427" text-anchor="middle" visibility="hidden" style="font-size: 13px;">V</text><text y="358" x="23.80952380952381" text-anchor="middle" visibility="hidden" style="font-size: 13px;">E</text><text y="358" x="26.19047619047619" text-anchor="middle" visibility="hidden" style="font-size: 13px;">T</text><text y="358" x="28.57142857142857" text-anchor="middle" visibility="hidden" style="font-size: 13px;">I</text><text y="358" x="30.952380952380953" text-anchor="middle" visibility="hidden" style="font-size: 13px;">R</text><text y="358" x="33.33333333333333" text-anchor="middle" visibility="hidden" style="font-size: 13px;">R</text><text y="358" x="35.714285714285715" text-anchor="middle" visibility="hidden" style="font-size: 13px;">A</text><text y="358" x="38.095238095238095" text-anchor="middle" visibility="hidden" style="font-size: 13px;">Y</text><text y="358" x="40.476190476190474" text-anchor="middle" visibility="hidden" style="font-size: 13px;">P</text><text y="358" x="42.857142857142854" text-anchor="middle" visibility="hidden" style="font-size: 13px;">D</text><text y="358" x="45.23809523809524" text-anchor="middle" visibility="hidden" style="font-size: 13px;">A</text><text y="358" x="47.61904761904762" text-anchor="middle" visibility="hidden" style="font-size: 13px;">N</text><text y="358" x="50" text-anchor="middle" visibility="hidden" style="font-size: 13px;">L</text><text y="358" x="52.38095238095238" text-anchor="middle" visibility="hidden" style="font-size: 13px;">L</text><text y="358" x="54.761904761904766" text-anchor="middle" visibility="hidden" style="font-size: 13px;">N</text><text y="358" x="57.14285714285714" text-anchor="middle" visibility="hidden" style="font-size: 13px;">D</text><text y="358" x="59.52380952380952" text-anchor="middle" visibility="hidden" style="font-size: 13px;">R</text><text y="358" x="61.904761904761905" text-anchor="middle" visibility="hidden" style="font-size: 13px;">V</text><text y="358" x="64.28571428571429" text-anchor="middle" visibility="hidden" style="font-size: 13px;">L</text><text y="358" x="66.66666666666666" text-anchor="middle" visibility="hidden" style="font-size: 13px;">R</text><text y="358" x="69.04761904761905" text-anchor="middle" visibility="hidden" style="font-size: 13px;">A</text><text y="358" x="71.42857142857143" text-anchor="middle" visibility="hidden" style="font-size: 13px;">M</text><text y="358" x="73.80952380952381" text-anchor="middle" visibility="hidden" style="font-size: 13px;">L</text><text y="358" x="76.19047619047619" text-anchor="middle" visibility="hidden" style="font-size: 13px;">K</text><text y="358" x="78.57142857142857" text-anchor="middle" visibility="hidden" style="font-size: 13px;">A</text><text y="358" x="80.95238095238095" text-anchor="middle" visibility="hidden" style="font-size: 13px;">E</text><text y="358" x="83.33333333333333" text-anchor="middle" visibility="hidden" style="font-size: 13px;">E</text><text y="358" x="85.71428571428571" text-anchor="middle" visibility="hidden" style="font-size: 13px;">T</text><text y="358" x="88.0952380952381" text-anchor="middle" visibility="hidden" style="font-size: 13px;">C</text><text y="358" x="90.47619047619048" text-anchor="middle" visibility="hidden" style="font-size: 13px;">A</text><text y="358" x="92.85714285714286" text-anchor="middle" visibility="hidden" style="font-size: 13px;">P</text><text y="358" x="95.23809523809524" text-anchor="middle" visibility="hidden" style="font-size: 13px;">S</text><text y="358" x="97.6190476190476" text-anchor="middle" visibility="hidden" style="font-size: 13px;">V</text><text y="358" x="100" text-anchor="middle" visibility="hidden" style="font-size: 13px;">S</text><text y="358" x="102.38095238095238" text-anchor="middle" visibility="hidden" style="font-size: 13px;">Y</text><text y="358" x="104.76190476190476" text-anchor="middle" visibility="hidden" style="font-size: 13px;">F</text><text y="358" x="107.14285714285714" text-anchor="middle" visibility="hidden" style="font-size: 13px;">K</text><text y="358" x="109.52380952380953" text-anchor="middle" visibility="hidden" style="font-size: 13px;">C</text><text y="358" x="111.90476190476191" text-anchor="middle" visibility="hidden" style="font-size: 13px;">V</text><text y="358" x="114.28571428571428" text-anchor="middle" visibility="hidden" style="font-size: 13px;">Q</text><text y="358" x="116.66666666666666" text-anchor="middle" visibility="hidden" style="font-size: 13px;">K</text><text y="358" x="119.04761904761904" text-anchor="middle" visibility="hidden" style="font-size: 13px;">E</text><text y="358" x="121.42857142857143" text-anchor="middle" visibility="hidden" style="font-size: 13px;">V</text><text y="358" x="123.80952380952381" text-anchor="middle" visibility="hidden" style="font-size: 13px;">L</text><text y="358" x="126.19047619047619" text-anchor="middle" visibility="hidden" style="font-size: 13px;">P</text><text y="358" x="128.57142857142858" text-anchor="middle" visibility="hidden" style="font-size: 13px;">S</text><text y="358" x="130.95238095238096" text-anchor="middle" visibility="hidden" style="font-size: 13px;">M</text><text y="358" x="133.33333333333331" text-anchor="middle" visibility="hidden" style="font-size: 13px;">R</text><text y="358" x="135.71428571428572" text-anchor="middle" visibility="hidden" style="font-size: 13px;">K</text><text y="358" x="138.0952380952381" text-anchor="middle" visibility="hidden" style="font-size: 13px;">I</text><text y="358" x="140.47619047619048" text-anchor="middle" visibility="hidden" style="font-size: 13px;">V</text><text y="358" x="142.85714285714286" text-anchor="middle" visibility="hidden" style="font-size: 13px;">A</text><text y="358" x="145.23809523809524" text-anchor="middle" visibility="hidden" style="font-size: 13px;">T</text><text y="358" x="147.61904761904762" text-anchor="middle" visibility="hidden" style="font-size: 13px;">W</text><text y="358" x="150" text-anchor="middle" visibility="hidden" style="font-size: 13px;">M</text><text y="358" x="152.38095238095238" text-anchor="middle" visibility="hidden" style="font-size: 13px;">L</text><text y="358" x="154.76190476190476" text-anchor="middle" visibility="hidden" style="font-size: 13px;">E</text><text y="358" x="157.14285714285714" text-anchor="middle" visibility="hidden" style="font-size: 13px;">V</text><text y="358" x="159.52380952380952" text-anchor="middle" visibility="hidden" style="font-size: 13px;">C</text><text y="358" x="161.9047619047619" text-anchor="middle" visibility="hidden" style="font-size: 13px;">E</text><text y="358" x="164.2857142857143" text-anchor="middle" visibility="hidden" style="font-size: 13px;">E</text><text y="358" x="166.66666666666666" text-anchor="middle" visibility="hidden" style="font-size: 13px;">Q</text><text y="358" x="169.04761904761904" text-anchor="middle" visibility="hidden" style="font-size: 13px;">K</text><text y="358" x="171.42857142857142" text-anchor="middle" visibility="hidden" style="font-size: 13px;">C</text><text y="358" x="173.8095238095238" text-anchor="middle" visibility="hidden" style="font-size: 13px;">E</text><text y="358" x="176.1904761904762" text-anchor="middle" visibility="hidden" style="font-size: 13px;">E</text><text y="358" x="178.57142857142858" text-anchor="middle" visibility="hidden" style="font-size: 13px;">E</text><text y="358" x="180.95238095238096" text-anchor="middle" visibility="hidden" style="font-size: 13px;">V</text><text y="358" x="183.33333333333334" text-anchor="middle" visibility="hidden" style="font-size: 13px;">F</text><text y="358" x="185.71428571428572" text-anchor="middle" visibility="hidden" style="font-size: 13px;">P</text><text y="358" x="188.0952380952381" text-anchor="middle" visibility="hidden" style="font-size: 13px;">L</text><text y="358" x="190.47619047619048" text-anchor="middle" visibility="hidden" style="font-size: 13px;">A</text><text y="358" x="192.85714285714283" text-anchor="middle" visibility="hidden" style="font-size: 13px;">M</text><text y="358" x="195.2380952380952" text-anchor="middle" visibility="hidden" style="font-size: 13px;">N</text><text y="358" x="197.6190476190476" text-anchor="middle" visibility="hidden" style="font-size: 13px;">Y</text><text y="358" x="200" text-anchor="middle" visibility="hidden" style="font-size: 13px;">L</text><text y="358" x="202.38095238095238" text-anchor="middle" visibility="hidden" style="font-size: 13px;">D</text><text y="358" x="204.76190476190476" text-anchor="middle" visibility="hidden" style="font-size: 13px;">R</text><text y="358" x="207.14285714285714" text-anchor="middle" visibility="hidden" style="font-size: 13px;">F</text><text y="358" x="209.52380952380952" text-anchor="middle" visibility="hidden" style="font-size: 13px;">L</text><text y="358" x="211.9047619047619" text-anchor="middle" visibility="hidden" style="font-size: 13px;">S</text><text y="358" x="214.28571428571428" text-anchor="middle" visibility="hidden" style="font-size: 13px;">L</text><text y="358" x="216.66666666666669" text-anchor="middle" visibility="hidden" style="font-size: 13px;">E</text><text y="358" x="219.04761904761907" text-anchor="middle" visibility="hidden" style="font-size: 13px;">P</text><text y="358" x="221.42857142857144" text-anchor="middle" visibility="hidden" style="font-size: 13px;">V</text><text y="358" x="223.80952380952382" text-anchor="middle" visibility="hidden" style="font-size: 13px;">K</text><text y="358" x="226.1904761904762" text-anchor="middle" visibility="hidden" style="font-size: 13px;">K</text><text y="358" x="228.57142857142856" text-anchor="middle" visibility="hidden" style="font-size: 13px;">S</text><text y="358" x="230.95238095238093" text-anchor="middle" visibility="hidden" style="font-size: 13px;">R</text><text y="358" x="233.33333333333331" text-anchor="middle" visibility="hidden" style="font-size: 13px;">L</text><text y="358" x="235.7142857142857" text-anchor="middle" visibility="hidden" style="font-size: 13px;">Q</text><text y="358" x="238.09523809523807" text-anchor="middle" visibility="hidden" style="font-size: 13px;">L</text><text y="358" x="240.47619047619048" text-anchor="middle" visibility="hidden" style="font-size: 13px;">L</text><text y="358" x="242.85714285714286" text-anchor="middle" visibility="hidden" style="font-size: 13px;">G</text><text y="358" x="245.23809523809524" text-anchor="middle" visibility="hidden" style="font-size: 13px;">A</text><text y="358" x="247.61904761904762" text-anchor="middle" visibility="hidden" style="font-size: 13px;">T</text><text y="358" x="250" text-anchor="middle" visibility="hidden" style="font-size: 13px;">C</text><text y="358" x="252.38095238095238" text-anchor="middle" visibility="hidden" style="font-size: 13px;">M</text><text y="358" x="254.76190476190476" text-anchor="middle" visibility="hidden" style="font-size: 13px;">F</text><text y="358" x="257.14285714285717" text-anchor="middle" visibility="hidden" style="font-size: 13px;">V</text><text y="358" x="259.5238095238095" text-anchor="middle" visibility="hidden" style="font-size: 13px;">A</text><text y="358" x="261.9047619047619" text-anchor="middle" visibility="hidden" style="font-size: 13px;">S</text><text y="358" x="264.2857142857143" text-anchor="middle" visibility="hidden" style="font-size: 13px;">K</text><text y="358" x="266.66666666666663" text-anchor="middle" visibility="hidden" style="font-size: 13px;">M</text><text y="358" x="269.04761904761904" text-anchor="middle" visibility="hidden" style="font-size: 13px;">K</text><text y="358" x="271.42857142857144" text-anchor="middle" visibility="hidden" style="font-size: 13px;">E</text><text y="358" x="273.8095238095238" text-anchor="middle" visibility="hidden" style="font-size: 13px;">T</text><text y="358" x="276.1904761904762" text-anchor="middle" visibility="hidden" style="font-size: 13px;">I</text><text y="358" x="278.57142857142856" text-anchor="middle" visibility="hidden" style="font-size: 13px;">P</text><text y="358" x="280.95238095238096" text-anchor="middle" visibility="hidden" style="font-size: 13px;">L</text><text y="358" x="283.3333333333333" text-anchor="middle" visibility="hidden" style="font-size: 13px;">T</text><text y="358" x="285.7142857142857" text-anchor="middle" visibility="hidden" style="font-size: 13px;">A</text><text y="358" x="288.09523809523813" text-anchor="middle" visibility="hidden" style="font-size: 13px;">E</text><text y="358" x="290.4761904761905" text-anchor="middle" visibility="hidden" style="font-size: 13px;">K</text><text y="358" x="292.8571428571429" text-anchor="middle" visibility="hidden" style="font-size: 13px;">L</text><text y="358" x="295.23809523809524" text-anchor="middle" visibility="hidden" style="font-size: 13px;">C</text><text y="358" x="297.6190476190476" text-anchor="middle" visibility="hidden" style="font-size: 13px;">I</text><text y="358" x="300" text-anchor="middle" visibility="hidden" style="font-size: 13px;">Y</text><text y="358" x="302.38095238095235" text-anchor="middle" visibility="hidden" style="font-size: 13px;">T</text><text y="358" x="304.76190476190476" text-anchor="middle" visibility="hidden" style="font-size: 13px;">D</text><text y="358" x="307.1428571428571" text-anchor="middle" visibility="hidden" style="font-size: 13px;">N</text><text y="358" x="309.5238095238095" text-anchor="middle" visibility="hidden" style="font-size: 13px;">S</text><text y="358" x="311.9047619047619" text-anchor="middle" visibility="hidden" style="font-size: 13px;">I</text><text y="358" x="314.2857142857143" text-anchor="middle" visibility="hidden" style="font-size: 13px;">R</text><text y="358" x="316.6666666666667" text-anchor="middle" visibility="hidden" style="font-size: 13px;">P</text><text y="358" x="319.04761904761904" text-anchor="middle" visibility="hidden" style="font-size: 13px;">E</text><text y="358" x="321.42857142857144" text-anchor="middle" visibility="hidden" style="font-size: 13px;">E</text><text y="358" x="323.8095238095238" text-anchor="middle" visibility="hidden" style="font-size: 13px;">L</text><text y="358" x="326.1904761904762" text-anchor="middle" visibility="hidden" style="font-size: 13px;">L</text><text y="358" x="328.5714285714286" text-anchor="middle" visibility="hidden" style="font-size: 13px;">Q</text><text y="358" x="330.95238095238096" text-anchor="middle" visibility="hidden" style="font-size: 13px;">M</text><text y="358" x="333.3333333333333" text-anchor="middle" visibility="hidden" style="font-size: 13px;">E</text><text y="358" x="335.7142857142857" text-anchor="middle" visibility="hidden" style="font-size: 13px;">L</text><text y="358" x="338.0952380952381" text-anchor="middle" visibility="hidden" style="font-size: 13px;">L</text><text y="358" x="340.4761904761905" text-anchor="middle" visibility="hidden" style="font-size: 13px;">L</text><text y="358" x="342.85714285714283" text-anchor="middle" visibility="hidden" style="font-size: 13px;">V</text><text y="358" x="345.23809523809524" text-anchor="middle" visibility="hidden" style="font-size: 13px;">N</text><text y="358" x="347.6190476190476" text-anchor="middle" visibility="hidden" style="font-size: 13px;">K</text><text y="358" x="350" text-anchor="middle" visibility="hidden" style="font-size: 13px;">L</text><text y="358" x="352.3809523809524" text-anchor="middle" visibility="hidden" style="font-size: 13px;">K</text><text y="358" x="354.76190476190476" text-anchor="middle" visibility="hidden" style="font-size: 13px;">W</text><text y="358" x="357.14285714285717" text-anchor="middle" visibility="hidden" style="font-size: 13px;">N</text><text y="358" x="359.5238095238095" text-anchor="middle" visibility="hidden" style="font-size: 13px;">L</text><text y="358" x="361.9047619047619" text-anchor="middle" visibility="hidden" style="font-size: 13px;">A</text><text y="358" x="364.2857142857143" text-anchor="middle" visibility="hidden" style="font-size: 13px;">A</text><text y="358" x="366.6666666666667" text-anchor="middle" visibility="hidden" style="font-size: 13px;">M</text><text y="358" x="369.0476190476191" text-anchor="middle" visibility="hidden" style="font-size: 13px;">T</text><text y="358" x="371.42857142857144" text-anchor="middle" visibility="hidden" style="font-size: 13px;">P</text><text y="358" x="373.80952380952385" text-anchor="middle" visibility="hidden" style="font-size: 13px;">H</text><text y="358" x="376.1904761904762" text-anchor="middle" visibility="hidden" style="font-size: 13px;">D</text><text y="358" x="378.5714285714286" text-anchor="middle" visibility="hidden" style="font-size: 13px;">F</text><text y="358" x="380.95238095238096" text-anchor="middle" visibility="hidden" style="font-size: 13px;">I</text><text y="358" x="383.33333333333337" text-anchor="middle" visibility="hidden" style="font-size: 13px;">E</text><text y="358" x="385.71428571428567" text-anchor="middle" visibility="hidden" style="font-size: 13px;">H</text><text y="358" x="388.0952380952381" text-anchor="middle" visibility="hidden" style="font-size: 13px;">F</text><text y="358" x="390.4761904761904" text-anchor="middle" visibility="hidden" style="font-size: 13px;">L</text><text y="358" x="392.85714285714283" text-anchor="middle" visibility="hidden" style="font-size: 13px;">S</text><text y="358" x="395.2380952380952" text-anchor="middle" visibility="hidden" style="font-size: 13px;">K</text><text y="358" x="397.6190476190476" text-anchor="middle" visibility="hidden" style="font-size: 13px;">M</text><text y="358" x="400" text-anchor="middle" visibility="hidden" style="font-size: 13px;">P</text><text y="358" x="402.38095238095235" text-anchor="middle" visibility="hidden" style="font-size: 13px;">E</text><text y="358" x="404.76190476190476" text-anchor="middle" visibility="hidden" style="font-size: 13px;">A</text><text y="358" x="407.1428571428571" text-anchor="middle" visibility="hidden" style="font-size: 13px;">E</text><text y="358" x="409.5238095238095" text-anchor="middle" visibility="hidden" style="font-size: 13px;">E</text><text y="358" x="411.90476190476187" text-anchor="middle" visibility="hidden" style="font-size: 13px;">N</text><text y="358" x="414.2857142857143" text-anchor="middle" visibility="hidden" style="font-size: 13px;">K</text><text y="358" x="416.6666666666667" text-anchor="middle" visibility="hidden" style="font-size: 13px;">Q</text><text y="358" x="419.04761904761904" text-anchor="middle" visibility="hidden" style="font-size: 13px;">I</text><text y="358" x="421.42857142857144" text-anchor="middle" visibility="hidden" style="font-size: 13px;">I</text><text y="358" x="423.8095238095238" text-anchor="middle" visibility="hidden" style="font-size: 13px;">R</text><text y="358" x="426.1904761904762" text-anchor="middle" visibility="hidden" style="font-size: 13px;">K</text><text y="358" x="428.57142857142856" text-anchor="middle" visibility="hidden" style="font-size: 13px;">H</text><text y="358" x="430.95238095238096" text-anchor="middle" visibility="hidden" style="font-size: 13px;">A</text><text y="358" x="433.33333333333337" text-anchor="middle" visibility="hidden" style="font-size: 13px;">Q</text><text y="358" x="435.7142857142857" text-anchor="middle" visibility="hidden" style="font-size: 13px;">T</text><text y="358" x="438.09523809523813" text-anchor="middle" visibility="hidden" style="font-size: 13px;">F</text><text y="358" x="440.4761904761905" text-anchor="middle" visibility="hidden" style="font-size: 13px;">V</text><text y="358" x="442.8571428571429" text-anchor="middle" visibility="hidden" style="font-size: 13px;">A</text><text y="358" x="445.23809523809524" text-anchor="middle" visibility="hidden" style="font-size: 13px;">L</text><text y="358" x="447.61904761904765" text-anchor="middle" visibility="hidden" style="font-size: 13px;">C</text><text y="358" x="450.00000000000006" text-anchor="middle" visibility="hidden" style="font-size: 13px;">A</text><text y="358" x="452.3809523809524" text-anchor="middle" visibility="hidden" style="font-size: 13px;">T</text><text y="358" x="454.7619047619048" text-anchor="middle" visibility="hidden" style="font-size: 13px;">D</text><text y="358" x="457.1428571428571" text-anchor="middle" visibility="hidden" style="font-size: 13px;">V</text><text y="358" x="459.5238095238095" text-anchor="middle" visibility="hidden" style="font-size: 13px;">K</text><text y="358" x="461.90476190476187" text-anchor="middle" visibility="hidden" style="font-size: 13px;">F</text><text y="358" x="464.2857142857143" text-anchor="middle" visibility="hidden" style="font-size: 13px;">I</text><text y="358" x="466.66666666666663" text-anchor="middle" visibility="hidden" style="font-size: 13px;">S</text><text y="358" x="469.04761904761904" text-anchor="middle" visibility="hidden" style="font-size: 13px;">N</text><text y="358" x="471.4285714285714" text-anchor="middle" visibility="hidden" style="font-size: 13px;">P</text><text y="358" x="473.8095238095238" text-anchor="middle" visibility="hidden" style="font-size: 13px;">P</text><text y="358" x="476.19047619047615" text-anchor="middle" visibility="hidden" style="font-size: 13px;">S</text><text y="358" x="478.57142857142856" text-anchor="middle" visibility="hidden" style="font-size: 13px;">M</text><text y="358" x="480.95238095238096" text-anchor="middle" visibility="hidden" style="font-size: 13px;">V</text><text y="358" x="483.3333333333333" text-anchor="middle" visibility="hidden" style="font-size: 13px;">A</text><text y="358" x="485.7142857142857" text-anchor="middle" visibility="hidden" style="font-size: 13px;">A</text><text y="358" x="488.0952380952381" text-anchor="middle" visibility="hidden" style="font-size: 13px;">G</text><text y="358" x="490.4761904761905" text-anchor="middle" visibility="hidden" style="font-size: 13px;">S</text><text y="358" x="492.85714285714283" text-anchor="middle" visibility="hidden" style="font-size: 13px;">V</text><text y="358" x="495.23809523809524" text-anchor="middle" visibility="hidden" style="font-size: 13px;">V</text><text y="358" x="497.61904761904765" text-anchor="middle" visibility="hidden" style="font-size: 13px;">A</text><text y="358" x="500" text-anchor="middle" visibility="hidden" style="font-size: 13px;">A</text><text y="358" x="502.3809523809524" text-anchor="middle" visibility="hidden" style="font-size: 13px;">V</text><text y="358" x="504.76190476190476" text-anchor="middle" visibility="hidden" style="font-size: 13px;">Q</text><text y="358" x="507.14285714285717" text-anchor="middle" visibility="hidden" style="font-size: 13px;">G</text><text y="358" x="509.5238095238095" text-anchor="middle" visibility="hidden" style="font-size: 13px;">L</text><text y="358" x="511.9047619047619" text-anchor="middle" visibility="hidden" style="font-size: 13px;">N</text><text y="358" x="514.2857142857143" text-anchor="middle" visibility="hidden" style="font-size: 13px;">L</text><text y="358" x="516.6666666666667" text-anchor="middle" visibility="hidden" style="font-size: 13px;">R</text><text y="358" x="519.047619047619" text-anchor="middle" visibility="hidden" style="font-size: 13px;">S</text><text y="358" x="521.4285714285714" text-anchor="middle" visibility="hidden" style="font-size: 13px;">P</text><text y="358" x="523.8095238095239" text-anchor="middle" visibility="hidden" style="font-size: 13px;">N</text><text y="358" x="526.1904761904761" text-anchor="middle" visibility="hidden" style="font-size: 13px;">N</text><text y="358" x="528.5714285714286" text-anchor="middle" visibility="hidden" style="font-size: 13px;">F</text><text y="358" x="530.952380952381" text-anchor="middle" visibility="hidden" style="font-size: 13px;">L</text><text y="358" x="533.3333333333333" text-anchor="middle" visibility="hidden" style="font-size: 13px;">S</text><text y="358" x="535.7142857142857" text-anchor="middle" visibility="hidden" style="font-size: 13px;">Y</text><text y="358" x="538.0952380952381" text-anchor="middle" visibility="hidden" style="font-size: 13px;">Y</text><text y="358" x="540.4761904761905" text-anchor="middle" visibility="hidden" style="font-size: 13px;">R</text><text y="358" x="542.8571428571429" text-anchor="middle" visibility="hidden" style="font-size: 13px;">L</text><text y="358" x="545.2380952380952" text-anchor="middle" visibility="hidden" style="font-size: 13px;">T</text><text y="358" x="547.6190476190476" text-anchor="middle" visibility="hidden" style="font-size: 13px;">R</text><text y="358" x="550" text-anchor="middle" visibility="hidden" style="font-size: 13px;">F</text><text y="358" x="552.3809523809524" text-anchor="middle" visibility="hidden" style="font-size: 13px;">L</text><text y="358" x="554.7619047619047" text-anchor="middle" visibility="hidden" style="font-size: 13px;">S</text><text y="358" x="557.1428571428571" text-anchor="middle" visibility="hidden" style="font-size: 13px;">R</text><text y="358" x="559.5238095238095" text-anchor="middle" visibility="hidden" style="font-size: 13px;">V</text><text y="358" x="561.9047619047619" text-anchor="middle" visibility="hidden" style="font-size: 13px;">I</text><text y="358" x="564.2857142857143" text-anchor="middle" visibility="hidden" style="font-size: 13px;">K</text><text y="358" x="566.6666666666666" text-anchor="middle" visibility="hidden" style="font-size: 13px;">C</text><text y="358" x="569.047619047619" text-anchor="middle" visibility="hidden" style="font-size: 13px;">D</text><text y="358" x="571.4285714285714" text-anchor="middle" visibility="hidden" style="font-size: 13px;">P</text><text y="358" x="573.8095238095239" text-anchor="middle" visibility="hidden" style="font-size: 13px;">D</text><text y="358" x="576.1904761904763" text-anchor="middle" visibility="hidden" style="font-size: 13px;">C</text><text y="358" x="578.5714285714286" text-anchor="middle" visibility="hidden" style="font-size: 13px;">L</text><text y="358" x="580.952380952381" text-anchor="middle" visibility="hidden" style="font-size: 13px;">R</text><text y="358" x="583.3333333333334" text-anchor="middle" visibility="hidden" style="font-size: 13px;">A</text><text y="358" x="585.7142857142858" text-anchor="middle" visibility="hidden" style="font-size: 13px;">C</text><text y="358" x="588.0952380952381" text-anchor="middle" visibility="hidden" style="font-size: 13px;">Q</text><text y="358" x="590.4761904761905" text-anchor="middle" visibility="hidden" style="font-size: 13px;">E</text><text y="358" x="592.8571428571429" text-anchor="middle" visibility="hidden" style="font-size: 13px;">Q</text><text y="358" x="595.2380952380952" text-anchor="middle" visibility="hidden" style="font-size: 13px;">I</text><text y="358" x="597.6190476190476" text-anchor="middle" visibility="hidden" style="font-size: 13px;">E</text><text y="358" x="600" text-anchor="middle" visibility="hidden" style="font-size: 13px;">A</text><text y="358" x="602.3809523809523" text-anchor="middle" visibility="hidden" style="font-size: 13px;">L</text><text y="358" x="604.7619047619047" text-anchor="middle" visibility="hidden" style="font-size: 13px;">L</text><text y="358" x="607.1428571428571" text-anchor="middle" visibility="hidden" style="font-size: 13px;">E</text><text y="358" x="609.5238095238095" text-anchor="middle" visibility="hidden" style="font-size: 13px;">S</text><text y="358" x="611.9047619047619" text-anchor="middle" visibility="hidden" style="font-size: 13px;">S</text><text y="358" x="614.2857142857142" text-anchor="middle" visibility="hidden" style="font-size: 13px;">L</text><text y="358" x="616.6666666666666" text-anchor="middle" visibility="hidden" style="font-size: 13px;">R</text><text y="358" x="619.047619047619" text-anchor="middle" visibility="hidden" style="font-size: 13px;">Q</text><text y="358" x="621.4285714285714" text-anchor="middle" visibility="hidden" style="font-size: 13px;">A</text><text y="358" x="623.8095238095239" text-anchor="middle" visibility="hidden" style="font-size: 13px;">Q</text><text y="358" x="626.1904761904761" text-anchor="middle" visibility="hidden" style="font-size: 13px;">Q</text><text y="358" x="628.5714285714286" text-anchor="middle" visibility="hidden" style="font-size: 13px;">N</text><text y="358" x="630.952380952381" text-anchor="middle" visibility="hidden" style="font-size: 13px;">M</text><text y="358" x="633.3333333333334" text-anchor="middle" visibility="hidden" style="font-size: 13px;">D</text><text y="358" x="635.7142857142857" text-anchor="middle" visibility="hidden" style="font-size: 13px;">P</text><text y="358" x="638.0952380952381" text-anchor="middle" visibility="hidden" style="font-size: 13px;">K</text><text y="358" x="640.4761904761905" text-anchor="middle" visibility="hidden" style="font-size: 13px;">A</text><text y="358" x="642.8571428571429" text-anchor="middle" visibility="hidden" style="font-size: 13px;">A</text><text y="358" x="645.2380952380953" text-anchor="middle" visibility="hidden" style="font-size: 13px;">E</text><text y="358" x="647.6190476190476" text-anchor="middle" visibility="hidden" style="font-size: 13px;">E</text><text y="358" x="650" text-anchor="middle" visibility="hidden" style="font-size: 13px;">E</text><text y="358" x="652.3809523809524" text-anchor="middle" visibility="hidden" style="font-size: 13px;">E</text><text y="358" x="654.7619047619048" text-anchor="middle" visibility="hidden" style="font-size: 13px;">E</text><text y="358" x="657.1428571428572" text-anchor="middle" visibility="hidden" style="font-size: 13px;">E</text><text y="358" x="659.5238095238095" text-anchor="middle" visibility="hidden" style="font-size: 13px;">E</text><text y="358" x="661.9047619047619" text-anchor="middle" visibility="hidden" style="font-size: 13px;">E</text><text y="358" x="664.2857142857143" text-anchor="middle" visibility="hidden" style="font-size: 13px;">E</text><text y="358" x="666.6666666666666" text-anchor="middle" visibility="hidden" style="font-size: 13px;">V</text><text y="358" x="669.047619047619" text-anchor="middle" visibility="hidden" style="font-size: 13px;">D</text><text y="358" x="671.4285714285714" text-anchor="middle" visibility="hidden" style="font-size: 13px;">L</text><text y="358" x="673.8095238095237" text-anchor="middle" visibility="hidden" style="font-size: 13px;">A</text><text y="358" x="676.1904761904761" text-anchor="middle" visibility="hidden" style="font-size: 13px;">C</text><text y="358" x="678.5714285714286" text-anchor="middle" visibility="hidden" style="font-size: 13px;">T</text><text y="358" x="680.952380952381" text-anchor="middle" visibility="hidden" style="font-size: 13px;">P</text><text y="358" x="683.3333333333334" text-anchor="middle" visibility="hidden" style="font-size: 13px;">T</text><text y="358" x="685.7142857142857" text-anchor="middle" visibility="hidden" style="font-size: 13px;">D</text><text y="358" x="688.0952380952381" text-anchor="middle" visibility="hidden" style="font-size: 13px;">V</text><text y="358" x="690.4761904761905" text-anchor="middle" visibility="hidden" style="font-size: 13px;">R</text><text y="358" x="692.8571428571429" text-anchor="middle" visibility="hidden" style="font-size: 13px;">D</text><text y="358" x="695.2380952380952" text-anchor="middle" visibility="hidden" style="font-size: 13px;">V</text><text y="358" x="697.6190476190476" text-anchor="middle" visibility="hidden" style="font-size: 13px;">D</text><text y="358" x="700" text-anchor="middle" visibility="hidden" style="font-size: 13px;">I</text></g></g></svg><g class="xAxis" transform="translate(0,360)" fill="none" font-size="10" font-family="sans-serif" text-anchor="middle"><path class="domain" stroke="#000" d="M0.5,6V0.5H700.5V6"></path><g class="tick" opacity="1" transform="translate(45.73809523809524,0)"><line stroke="#000" y2="6"></line><text fill="#000" y="9" dy="0.71em">20</text></g><g class="tick" opacity="1" transform="translate(93.35714285714286,0)"><line stroke="#000" y2="6"></line><text fill="#000" y="9" dy="0.71em">40</text></g><g class="tick" opacity="1" transform="translate(140.97619047619048,0)"><line stroke="#000" y2="6"></line><text fill="#000" y="9" dy="0.71em">60</text></g><g class="tick" opacity="1" transform="translate(188.5952380952381,0)"><line stroke="#000" y2="6"></line><text fill="#000" y="9" dy="0.71em">80</text></g><g class="tick" opacity="1" transform="translate(236.2142857142857,0)"><line stroke="#000" y2="6"></line><text fill="#000" y="9" dy="0.71em">100</text></g><g class="tick" opacity="1" transform="translate(283.8333333333333,0)"><line stroke="#000" y2="6"></line><text fill="#000" y="9" dy="0.71em">120</text></g><g class="tick" opacity="1" transform="translate(331.45238095238096,0)"><line stroke="#000" y2="6"></line><text fill="#000" y="9" dy="0.71em">140</text></g><g class="tick" opacity="1" transform="translate(379.0714285714286,0)"><line stroke="#000" y2="6"></line><text fill="#000" y="9" dy="0.71em">160</text></g><g class="tick" opacity="1" transform="translate(426.6904761904762,0)"><line stroke="#000" y2="6"></line><text fill="#000" y="9" dy="0.71em">180</text></g><g class="tick" opacity="1" transform="translate(474.3095238095238,0)"><line stroke="#000" y2="6"></line><text fill="#000" y="9" dy="0.71em">200</text></g><g class="tick" opacity="1" transform="translate(521.9285714285714,0)"><line stroke="#000" y2="6"></line><text fill="#000" y="9" dy="0.71em">220</text></g><g class="tick" opacity="1" transform="translate(569.547619047619,0)"><line stroke="#000" y2="6"></line><text fill="#000" y="9" dy="0.71em">240</text></g><g class="tick" opacity="1" transform="translate(617.1666666666666,0)"><line stroke="#000" y2="6"></line><text fill="#000" y="9" dy="0.71em">260</text></g><g class="tick" opacity="1" transform="translate(664.7857142857143,0)"><line stroke="#000" y2="6"></line><text fill="#000" y="9" dy="0.71em">280</text></g></g><text class="x label" text-anchor="end" x="700" y="390" style="font-size: 13px; font-family: Arial;">Residue number</text><g class="yAxis" fill="none" font-size="10" font-family="sans-serif" text-anchor="end"><path class="domain" stroke="#000" d="M-6,360.5H0.5V0.5H-6"></path><g class="tick" opacity="1" transform="translate(0,327.77272727272725)"><line stroke="#000" x2="-6"></line><text fill="#000" x="-9" dy="0.32em">0</text></g><g class="tick" opacity="1" transform="translate(0,281.28512396694214)"><line stroke="#000" x2="-6"></line><text fill="#000" x="-9" dy="0.32em">5</text></g><g class="tick" opacity="1" transform="translate(0,234.79752066115702)"><line stroke="#000" x2="-6"></line><text fill="#000" x="-9" dy="0.32em">10</text></g><g class="tick" opacity="1" transform="translate(0,188.30991735537194)"><line stroke="#000" x2="-6"></line><text fill="#000" x="-9" dy="0.32em">15</text></g><g class="tick" opacity="1" transform="translate(0,141.82231404958682)"><line stroke="#000" x2="-6"></line><text fill="#000" x="-9" dy="0.32em">20</text></g><g class="tick" opacity="1" transform="translate(0,95.33471074380168)"><line stroke="#000" x2="-6"></line><text fill="#000" x="-9" dy="0.32em">25</text></g><g class="tick" opacity="1" transform="translate(0,48.847107438016565)"><line stroke="#000" x2="-6"></line><text fill="#000" x="-9" dy="0.32em">30</text></g><g class="tick" opacity="1" transform="translate(0,2.35950413223145)"><line stroke="#000" x2="-6"></line><text fill="#000" x="-9" dy="0.32em">35</text></g></g><text class="y label" text-anchor="middle" y="-50" x="-180" dy="0.8em" transform="rotate(-90)" style="font-size: 13px; font-family: Arial;">Total number of references</text><g class="axisRed" fill="none" font-size="10" font-family="sans-serif" text-anchor="start" visibility="hidden" transform="translate(700, 0)"><path class="domain" stroke="#000" d="M6,360.5H0.5V0.5H6"></path><g class="tick" opacity="1" transform="translate(0,360.5)"><line stroke="#000" x2="6"></line><text fill="#000" x="9" dy="0.32em">0</text></g><text text-anchor="start" dx="5.2em" dy="-2.6em" transform="rotate(90)" visibility="hidden" style="font-size: 12px; font-family: Arial; fill: #d7301f;">No recurrent (&gt;2) missense mutations!</text></g><g class="axisPurple" fill="none" font-size="10" font-family="sans-serif" text-anchor="start" visibility="hidden"><path class="domain" stroke="#000" d="M6,360.5H0.5V0.5H6"></path><g class="tick" opacity="1" transform="translate(0,357.52479338842977)"><line stroke="#000" x2="6"></line><text fill="#000" x="9" dy="0.32em"></text></g><g class="tick" opacity="1" transform="translate(0,327.77272727272725)"><line stroke="#000" x2="6"></line><text fill="#000" x="9" dy="0.32em">0</text></g><g class="tick" opacity="1" transform="translate(0,298.0206611570248)"><line stroke="#000" x2="6"></line><text fill="#000" x="9" dy="0.32em">0.1</text></g><g class="tick" opacity="1" transform="translate(0,268.2685950413223)"><line stroke="#000" x2="6"></line><text fill="#000" x="9" dy="0.32em">0.2</text></g><g class="tick" opacity="1" transform="translate(0,238.51652892561984)"><line stroke="#000" x2="6"></line><text fill="#000" x="9" dy="0.32em">0.3</text></g><g class="tick" opacity="1" transform="translate(0,208.76446280991738)"><line stroke="#000" x2="6"></line><text fill="#000" x="9" dy="0.32em">0.4</text></g><g class="tick" opacity="1" transform="translate(0,179.0123966942149)"><line stroke="#000" x2="6"></line><text fill="#000" x="9" dy="0.32em">0.5</text></g><g class="tick" opacity="1" transform="translate(0,149.26033057851242)"><line stroke="#000" x2="6"></line><text fill="#000" x="9" dy="0.32em">0.6</text></g><g class="tick" opacity="1" transform="translate(0,119.50826446280996)"><line stroke="#000" x2="6"></line><text fill="#000" x="9" dy="0.32em">0.7</text></g><g class="tick" opacity="1" transform="translate(0,89.75619834710744)"><line stroke="#000" x2="6"></line><text fill="#000" x="9" dy="0.32em">0.8</text></g><g class="tick" opacity="1" transform="translate(0,60.00413223140498)"><line stroke="#000" x2="6"></line><text fill="#000" x="9" dy="0.32em">0.9</text></g><g class="tick" opacity="1" transform="translate(0,30.25206611570252)"><line stroke="#000" x2="6"></line><text fill="#000" x="9" dy="0.32em">1</text></g><g class="tick" opacity="1" transform="translate(0,0.5)"><line stroke="#000" x2="6"></line><text fill="#000" x="9" dy="0.32em">1.1</text></g><text text-anchor="start" x="10" y="10" visibility="hidden" style="font-size: 12px; font-family: Arial; fill: #807dba;">No disease causing germline SNPs known!</text></g><circle cx="636" cy="15" r="10" class="compassNav" style="fill: #ffffff; stroke: #666666; stroke-width: 1px;"></circle><path d="M440.935 12.574l3.966 82.766C399.416 41.904 331.674 8 256 8 134.813 8 33.933 94.924 12.296 209.824 10.908 217.193 16.604 224 24.103 224h49.084c5.57 0 10.377-3.842 11.676-9.259C103.407 137.408 172.931 80 256 80c60.893 0 114.512 30.856 146.104 77.801l-101.53-4.865c-6.845-.328-12.574 5.133-12.574 11.986v47.411c0 6.627 5.373 12 12 12h200.333c6.627 0 12-5.373 12-12V12c0-6.627-5.373-12-12-12h-47.411c-6.853 0-12.315 5.729-11.987 12.574zM256 432c-60.895 0-114.517-30.858-146.109-77.805l101.868 4.871c6.845.327 12.573-5.134 12.573-11.986v-47.412c0-6.627-5.373-12-12-12H12c-6.627 0-12 5.373-12 12V500c0 6.627 5.373 12 12 12h47.385c6.863 0 12.328-5.745 11.985-12.599l-4.129-82.575C112.725 470.166 180.405 504 256 504c121.187 0 222.067-86.924 243.704-201.824 1.388-7.369-4.308-14.176-11.807-14.176h-49.084c-5.57 0-10.377 3.842-11.676 9.259C408.593 374.592 339.069 432 256 432z" class="compassNav" transform="translate(631, 10) scale(0.02)" style="fill: #666666; stroke: #666666; stroke-width: 1px;"></path><circle cx="658" cy="15" r="10" class="compassNav" style="fill: #ffffff; stroke: #666666; stroke-width: 1px;"></circle><line class="compassNav" stroke-width="2" stroke="#666666" x1="654" y1="15" x2="662" y2="15"></line><line class="compassNav" stroke-width="2" stroke="#666666" x1="658" y1="11" x2="658" y2="19"></line><circle cx="614" cy="15" r="10" class="compassNav" style="fill: #ffffff; stroke: #666666; stroke-width: 1px;"></circle><line class="compassNav" stroke-width="2" stroke="#666666" x1="610" y1="15" x2="618" y2="15"></line><path d="M582 14 l20 -12 a100,40 0 0,0 0,24z" class="compassNav" style="fill: #ffffff; stroke: #666666; stroke-width: 1px;"></path><path d="M690 14 l-20 -12 a100,40 0 0,1 0,24z" class="compassNav" style="fill: #ffffff; stroke: #666666; stroke-width: 1px;"></path><path d="M216 0h80c13.3 0 24 10.7 24 24v168h87.7c17.8 0 26.7 21.5 14.1 34.1L269.7 378.3c-7.5 7.5-19.8 7.5-27.3 0L90.1 226.1c-12.6-12.6-3.7-34.1 14.1-34.1H192V24c0-13.3 10.7-24 24-24zm296 376v112c0 13.3-10.7 24-24 24H24c-13.3 0-24-10.7-24-24V376c0-13.3 10.7-24 24-24h146.7l49 49c20.1 20.1 52.5 20.1 72.6 0l49-49H488c13.3 0 24 10.7 24 24zm-124 88c0-11-9-20-20-20s-20 9-20 20 9 20 20 20 20-9 20-20zm64 0c0-11-9-20-20-20s-20 9-20 20 9 20 20 20 20-9 20-20z" class="compassNav" transform="translate(552,0) scale(0.05)" style="fill: #336699; stroke: #336699; stroke-width: 1px; cursor: pointer;"></path></g></svg>