<svg width="800" height="400" style="background-color: white;"><g transform="translate(50,0)"><svg width="700" height="360"><g style="-webkit-tap-highlight-color: rgba(0, 0, 0, 0);"><rect width="700" height="360" style="fill: #ffffff;"></rect><g id="lines"><line class="line" stroke-width="1" stroke="#d7301f" x1="-250.70921985815605" y1="333" x2="-250.70921985815605" y2="360" visibility="hidden" style="stroke-dasharray: 3px, 3px;"></line></g><g><rect x="-255.70921985815605" y="355" width="10" height="10" visibility="hidden" style="fill: #ffffff; stroke: #d7301f;"></rect></g><g id="lines"><line class="line" stroke-width="1" stroke="#6a51a3" x1="-250.70921985815605" y1="333" x2="-250.70921985815605" y2="327.27272727272725" visibility="hidden" style="stroke-dasharray: 3px, 3px;"></line></g><g><rect x="-255.70921985815605" y="322.27272727272725" width="10" height="10" visibility="hidden" style="fill: #ffffff; stroke: #6a51a3;"></rect></g><g id="lines"><line class="line" stroke-width="1" stroke="#666666" x1="71.98581560283688" y1="333" x2="71.98581560283688" y2="302.4793388429752"></line><line class="line" stroke-width="1" stroke="#666666" x1="79.43262411347517" y1="333" x2="79.43262411347517" y2="314.87603305785126"></line><line class="line" stroke-width="1" stroke="#666666" x1="178.72340425531914" y1="333" x2="178.72340425531914" y2="302.4793388429752"></line><line class="line" stroke-width="1" stroke="#666666" x1="255.67375886524826" y1="333" x2="255.67375886524826" y2="314.87603305785126"></line><line class="line" stroke-width="1" stroke="#666666" x1="287.9432624113475" y1="333" x2="287.9432624113475" y2="290.08264462809916"></line><line class="line" stroke-width="1" stroke="#666666" x1="310.2836879432624" y1="333" x2="310.2836879432624" y2="228.099173553719"></line><line class="line" stroke-width="1" stroke="#666666" x1="623.049645390071" y1="333" x2="623.049645390071" y2="314.87603305785126"></line><line class="line" stroke-width="1" stroke="#666666" x1="680.1418439716311" y1="333" x2="680.1418439716311" y2="29.752066115702462"></line><line class="line" stroke-width="1" stroke="#666666" x1="687.5886524822695" y1="333" x2="687.5886524822695" y2="190.9090909090909"></line><line class="line" stroke-width="1" stroke="#666666" x1="690.0709219858156" y1="333" x2="690.0709219858156" y2="302.4793388429752"></line><line class="line" stroke-width="1" stroke="#666666" x1="692.5531914893618" y1="333" x2="692.5531914893618" y2="314.87603305785126"></line><line class="line" stroke-width="1" stroke="#666666" x1="695.0354609929078" y1="333" x2="695.0354609929078" y2="116.5289256198347"></line><line class="line" stroke-width="1" stroke="#666666" x1="700" y1="333" x2="700" y2="302.4793388429752"></line></g><g id="circles"><circle r="4" cx="71.98581560283688" cy="302.4793388429752" style="fill: #bf812d; stroke: #666666; stroke-width: 1px;"></circle><circle r="4" cx="79.43262411347517" cy="314.87603305785126" style="fill: #4393c3; stroke: #666666; stroke-width: 1px;"></circle><circle r="4" cx="178.72340425531914" cy="302.4793388429752" style="fill: #4393c3; stroke: #666666; stroke-width: 1px;"></circle><circle r="4" cx="255.67375886524826" cy="314.87603305785126" style="fill: #4393c3; stroke: #666666; stroke-width: 1px;"></circle><circle r="4" cx="287.9432624113475" cy="290.08264462809916" style="fill: #bf812d; stroke: #666666; stroke-width: 1px;"></circle><circle r="4" cx="310.2836879432624" cy="228.099173553719" style="fill: #bf812d; stroke: #666666; stroke-width: 1px;"></circle><circle r="4" cx="623.049645390071" cy="314.87603305785126" style="fill: #4393c3; stroke: #666666; stroke-width: 1px;"></circle><circle r="4" cx="680.1418439716311" cy="29.752066115702462" style="fill: #4393c3; stroke: #666666; stroke-width: 1px;"></circle><circle r="4" cx="687.5886524822695" cy="190.9090909090909" style="fill: #4393c3; stroke: #666666; stroke-width: 1px;"></circle><circle r="4" cx="690.0709219858156" cy="302.4793388429752" style="fill: #4393c3; stroke: #666666; stroke-width: 1px;"></circle><circle r="4" cx="692.5531914893618" cy="314.87603305785126" style="fill: #4393c3; stroke: #666666; stroke-width: 1px;"></circle><circle r="4" cx="695.0354609929078" cy="116.5289256198347" style="fill: #4393c3; stroke: #666666; stroke-width: 1px;"></circle><circle r="4" cx="700" cy="302.4793388429752" style="fill: #4393c3; stroke: #666666; stroke-width: 1px;"></circle></g><g><rect x="0" y="333" width="700" height="12" style="fill: #ffffff; stroke-width: 1px; stroke: #666666;"></rect><rect x="29.78723404255319" y="333" width="342.5531914893617" height="12" style="fill: #aec7e8; stroke-width: 1px; stroke: #666666;"></rect><rect x="379.78723404255317" y="333" width="210.99290780141843" height="12" style="fill: #ffbb78; stroke-width: 1px; stroke: #666666;"></rect></g><g><a target="_blank" xlink:href="http://pfam.xfam.org/family/"><text y="343" x="350" text-anchor="middle" style="color: rgb(102, 102, 102); font-weight: normal; font-size: 12px; font-family: Arial; cursor: pointer;"></text></a><a target="_blank" xlink:href="http://pfam.xfam.org/family/Cyclin_N"><text y="343" x="201.06382978723403" text-anchor="middle" style="color: rgb(102, 102, 102); font-weight: normal; font-size: 12px; font-family: Arial; cursor: pointer;">Cyclin_N</text></a><a target="_blank" xlink:href="http://pfam.xfam.org/family/Cyclin_C_2"><text y="343" x="485.2836879432624" text-anchor="middle" style="color: rgb(102, 102, 102); font-weight: normal; font-size: 12px; font-family: Arial; cursor: pointer;">Cyclin_C_2</text></a></g><g><text y="358" x="0" text-anchor="middle" visibility="hidden" style="font-size: 13px;">M</text><text y="358" x="2.482269503546099" text-anchor="middle" visibility="hidden" style="font-size: 13px;">A</text><text y="358" x="4.964539007092198" text-anchor="middle" visibility="hidden" style="font-size: 13px;">G</text><text y="358" x="7.446808510638298" text-anchor="middle" visibility="hidden" style="font-size: 13px;">N</text><text y="358" x="9.929078014184396" text-anchor="middle" visibility="hidden" style="font-size: 13px;">F</text><text y="358" x="12.411347517730498" text-anchor="middle" visibility="hidden" style="font-size: 13px;">W</text><text y="358" x="14.893617021276595" text-anchor="middle" visibility="hidden" style="font-size: 13px;">Q</text><text y="358" x="17.375886524822697" text-anchor="middle" visibility="hidden" style="font-size: 13px;">S</text><text y="358" x="19.858156028368793" text-anchor="middle" visibility="hidden" style="font-size: 13px;">S</text><text y="358" x="22.340425531914892" text-anchor="middle" visibility="hidden" style="font-size: 13px;">H</text><text y="358" x="24.822695035460995" text-anchor="middle" visibility="hidden" style="font-size: 13px;">Y</text><text y="358" x="27.30496453900709" text-anchor="middle" visibility="hidden" style="font-size: 13px;">L</text><text y="358" x="29.78723404255319" text-anchor="middle" visibility="hidden" style="font-size: 13px;">Q</text><text y="358" x="32.26950354609929" text-anchor="middle" visibility="hidden" style="font-size: 13px;">W</text><text y="358" x="34.751773049645394" text-anchor="middle" visibility="hidden" style="font-size: 13px;">I</text><text y="358" x="37.23404255319149" text-anchor="middle" visibility="hidden" style="font-size: 13px;">L</text><text y="358" x="39.716312056737586" text-anchor="middle" visibility="hidden" style="font-size: 13px;">D</text><text y="358" x="42.198581560283685" text-anchor="middle" visibility="hidden" style="font-size: 13px;">K</text><text y="358" x="44.680851063829785" text-anchor="middle" visibility="hidden" style="font-size: 13px;">Q</text><text y="358" x="47.163120567375884" text-anchor="middle" visibility="hidden" style="font-size: 13px;">D</text><text y="358" x="49.64539007092199" text-anchor="middle" visibility="hidden" style="font-size: 13px;">L</text><text y="358" x="52.12765957446808" text-anchor="middle" visibility="hidden" style="font-size: 13px;">L</text><text y="358" x="54.60992907801418" text-anchor="middle" visibility="hidden" style="font-size: 13px;">K</text><text y="358" x="57.09219858156029" text-anchor="middle" visibility="hidden" style="font-size: 13px;">E</text><text y="358" x="59.57446808510638" text-anchor="middle" visibility="hidden" style="font-size: 13px;">R</text><text y="358" x="62.05673758865248" text-anchor="middle" visibility="hidden" style="font-size: 13px;">Q</text><text y="358" x="64.53900709219857" text-anchor="middle" visibility="hidden" style="font-size: 13px;">K</text><text y="358" x="67.02127659574468" text-anchor="middle" visibility="hidden" style="font-size: 13px;">D</text><text y="358" x="69.50354609929079" text-anchor="middle" visibility="hidden" style="font-size: 13px;">L</text><text y="358" x="71.98581560283688" text-anchor="middle" visibility="hidden" style="font-size: 13px;">K</text><text y="358" x="74.46808510638299" text-anchor="middle" visibility="hidden" style="font-size: 13px;">F</text><text y="358" x="76.95035460992908" text-anchor="middle" visibility="hidden" style="font-size: 13px;">L</text><text y="358" x="79.43262411347517" text-anchor="middle" visibility="hidden" style="font-size: 13px;">S</text><text y="358" x="81.91489361702128" text-anchor="middle" visibility="hidden" style="font-size: 13px;">E</text><text y="358" x="84.39716312056737" text-anchor="middle" visibility="hidden" style="font-size: 13px;">E</text><text y="358" x="86.87943262411348" text-anchor="middle" visibility="hidden" style="font-size: 13px;">E</text><text y="358" x="89.36170212765957" text-anchor="middle" visibility="hidden" style="font-size: 13px;">Y</text><text y="358" x="91.84397163120568" text-anchor="middle" visibility="hidden" style="font-size: 13px;">W</text><text y="358" x="94.32624113475177" text-anchor="middle" visibility="hidden" style="font-size: 13px;">K</text><text y="358" x="96.80851063829788" text-anchor="middle" visibility="hidden" style="font-size: 13px;">L</text><text y="358" x="99.29078014184398" text-anchor="middle" visibility="hidden" style="font-size: 13px;">Q</text><text y="358" x="101.77304964539006" text-anchor="middle" visibility="hidden" style="font-size: 13px;">I</text><text y="358" x="104.25531914893617" text-anchor="middle" visibility="hidden" style="font-size: 13px;">F</text><text y="358" x="106.73758865248227" text-anchor="middle" visibility="hidden" style="font-size: 13px;">F</text><text y="358" x="109.21985815602837" text-anchor="middle" visibility="hidden" style="font-size: 13px;">T</text><text y="358" x="111.70212765957447" text-anchor="middle" visibility="hidden" style="font-size: 13px;">N</text><text y="358" x="114.18439716312058" text-anchor="middle" visibility="hidden" style="font-size: 13px;">V</text><text y="358" x="116.66666666666666" text-anchor="middle" visibility="hidden" style="font-size: 13px;">I</text><text y="358" x="119.14893617021276" text-anchor="middle" visibility="hidden" style="font-size: 13px;">Q</text><text y="358" x="121.63120567375887" text-anchor="middle" visibility="hidden" style="font-size: 13px;">A</text><text y="358" x="124.11347517730496" text-anchor="middle" visibility="hidden" style="font-size: 13px;">L</text><text y="358" x="126.59574468085107" text-anchor="middle" visibility="hidden" style="font-size: 13px;">G</text><text y="358" x="129.07801418439715" text-anchor="middle" visibility="hidden" style="font-size: 13px;">E</text><text y="358" x="131.56028368794327" text-anchor="middle" visibility="hidden" style="font-size: 13px;">H</text><text y="358" x="134.04255319148936" text-anchor="middle" visibility="hidden" style="font-size: 13px;">L</text><text y="358" x="136.52482269503545" text-anchor="middle" visibility="hidden" style="font-size: 13px;">K</text><text y="358" x="139.00709219858157" text-anchor="middle" visibility="hidden" style="font-size: 13px;">L</text><text y="358" x="141.48936170212764" text-anchor="middle" visibility="hidden" style="font-size: 13px;">R</text><text y="358" x="143.97163120567376" text-anchor="middle" visibility="hidden" style="font-size: 13px;">Q</text><text y="358" x="146.45390070921985" text-anchor="middle" visibility="hidden" style="font-size: 13px;">Q</text><text y="358" x="148.93617021276597" text-anchor="middle" visibility="hidden" style="font-size: 13px;">V</text><text y="358" x="151.41843971631207" text-anchor="middle" visibility="hidden" style="font-size: 13px;">I</text><text y="358" x="153.90070921985816" text-anchor="middle" visibility="hidden" style="font-size: 13px;">A</text><text y="358" x="156.38297872340425" text-anchor="middle" visibility="hidden" style="font-size: 13px;">T</text><text y="358" x="158.86524822695034" text-anchor="middle" visibility="hidden" style="font-size: 13px;">A</text><text y="358" x="161.34751773049646" text-anchor="middle" visibility="hidden" style="font-size: 13px;">T</text><text y="358" x="163.82978723404256" text-anchor="middle" visibility="hidden" style="font-size: 13px;">V</text><text y="358" x="166.31205673758865" text-anchor="middle" visibility="hidden" style="font-size: 13px;">Y</text><text y="358" x="168.79432624113474" text-anchor="middle" visibility="hidden" style="font-size: 13px;">F</text><text y="358" x="171.27659574468083" text-anchor="middle" visibility="hidden" style="font-size: 13px;">K</text><text y="358" x="173.75886524822695" text-anchor="middle" visibility="hidden" style="font-size: 13px;">R</text><text y="358" x="176.24113475177302" text-anchor="middle" visibility="hidden" style="font-size: 13px;">F</text><text y="358" x="178.72340425531914" text-anchor="middle" visibility="hidden" style="font-size: 13px;">Y</text><text y="358" x="181.20567375886523" text-anchor="middle" visibility="hidden" style="font-size: 13px;">A</text><text y="358" x="183.68794326241135" text-anchor="middle" visibility="hidden" style="font-size: 13px;">R</text><text y="358" x="186.17021276595744" text-anchor="middle" visibility="hidden" style="font-size: 13px;">Y</text><text y="358" x="188.65248226950354" text-anchor="middle" visibility="hidden" style="font-size: 13px;">S</text><text y="358" x="191.13475177304966" text-anchor="middle" visibility="hidden" style="font-size: 13px;">L</text><text y="358" x="193.61702127659575" text-anchor="middle" visibility="hidden" style="font-size: 13px;">K</text><text y="358" x="196.09929078014184" text-anchor="middle" visibility="hidden" style="font-size: 13px;">S</text><text y="358" x="198.58156028368796" text-anchor="middle" visibility="hidden" style="font-size: 13px;">I</text><text y="358" x="201.06382978723406" text-anchor="middle" visibility="hidden" style="font-size: 13px;">D</text><text y="358" x="203.54609929078012" text-anchor="middle" visibility="hidden" style="font-size: 13px;">P</text><text y="358" x="206.02836879432624" text-anchor="middle" visibility="hidden" style="font-size: 13px;">V</text><text y="358" x="208.51063829787233" text-anchor="middle" visibility="hidden" style="font-size: 13px;">L</text><text y="358" x="210.99290780141843" text-anchor="middle" visibility="hidden" style="font-size: 13px;">M</text><text y="358" x="213.47517730496455" text-anchor="middle" visibility="hidden" style="font-size: 13px;">A</text><text y="358" x="215.95744680851064" text-anchor="middle" visibility="hidden" style="font-size: 13px;">P</text><text y="358" x="218.43971631205673" text-anchor="middle" visibility="hidden" style="font-size: 13px;">T</text><text y="358" x="220.92198581560285" text-anchor="middle" visibility="hidden" style="font-size: 13px;">C</text><text y="358" x="223.40425531914894" text-anchor="middle" visibility="hidden" style="font-size: 13px;">V</text><text y="358" x="225.88652482269504" text-anchor="middle" visibility="hidden" style="font-size: 13px;">F</text><text y="358" x="228.36879432624116" text-anchor="middle" visibility="hidden" style="font-size: 13px;">L</text><text y="358" x="230.85106382978722" text-anchor="middle" visibility="hidden" style="font-size: 13px;">A</text><text y="358" x="233.33333333333331" text-anchor="middle" visibility="hidden" style="font-size: 13px;">S</text><text y="358" x="235.81560283687944" text-anchor="middle" visibility="hidden" style="font-size: 13px;">K</text><text y="358" x="238.29787234042553" text-anchor="middle" visibility="hidden" style="font-size: 13px;">V</text><text y="358" x="240.78014184397162" text-anchor="middle" visibility="hidden" style="font-size: 13px;">E</text><text y="358" x="243.26241134751774" text-anchor="middle" visibility="hidden" style="font-size: 13px;">E</text><text y="358" x="245.74468085106383" text-anchor="middle" visibility="hidden" style="font-size: 13px;">F</text><text y="358" x="248.22695035460993" text-anchor="middle" visibility="hidden" style="font-size: 13px;">G</text><text y="358" x="250.70921985815605" text-anchor="middle" visibility="hidden" style="font-size: 13px;">V</text><text y="358" x="253.19148936170214" text-anchor="middle" visibility="hidden" style="font-size: 13px;">V</text><text y="358" x="255.67375886524826" text-anchor="middle" visibility="hidden" style="font-size: 13px;">S</text><text y="358" x="258.1560283687943" text-anchor="middle" visibility="hidden" style="font-size: 13px;">N</text><text y="358" x="260.6382978723404" text-anchor="middle" visibility="hidden" style="font-size: 13px;">T</text><text y="358" x="263.12056737588654" text-anchor="middle" visibility="hidden" style="font-size: 13px;">R</text><text y="358" x="265.60283687943263" text-anchor="middle" visibility="hidden" style="font-size: 13px;">L</text><text y="358" x="268.0851063829787" text-anchor="middle" visibility="hidden" style="font-size: 13px;">I</text><text y="358" x="270.5673758865248" text-anchor="middle" visibility="hidden" style="font-size: 13px;">A</text><text y="358" x="273.0496453900709" text-anchor="middle" visibility="hidden" style="font-size: 13px;">A</text><text y="358" x="275.53191489361706" text-anchor="middle" visibility="hidden" style="font-size: 13px;">A</text><text y="358" x="278.01418439716315" text-anchor="middle" visibility="hidden" style="font-size: 13px;">T</text><text y="358" x="280.49645390070924" text-anchor="middle" visibility="hidden" style="font-size: 13px;">S</text><text y="358" x="282.9787234042553" text-anchor="middle" visibility="hidden" style="font-size: 13px;">V</text><text y="358" x="285.4609929078014" text-anchor="middle" visibility="hidden" style="font-size: 13px;">L</text><text y="358" x="287.9432624113475" text-anchor="middle" visibility="hidden" style="font-size: 13px;">K</text><text y="358" x="290.4255319148936" text-anchor="middle" visibility="hidden" style="font-size: 13px;">T</text><text y="358" x="292.9078014184397" text-anchor="middle" visibility="hidden" style="font-size: 13px;">R</text><text y="358" x="295.3900709219858" text-anchor="middle" visibility="hidden" style="font-size: 13px;">F</text><text y="358" x="297.87234042553195" text-anchor="middle" visibility="hidden" style="font-size: 13px;">S</text><text y="358" x="300.35460992907804" text-anchor="middle" visibility="hidden" style="font-size: 13px;">Y</text><text y="358" x="302.83687943262413" text-anchor="middle" visibility="hidden" style="font-size: 13px;">A</text><text y="358" x="305.3191489361702" text-anchor="middle" visibility="hidden" style="font-size: 13px;">F</text><text y="358" x="307.8014184397163" text-anchor="middle" visibility="hidden" style="font-size: 13px;">P</text><text y="358" x="310.2836879432624" text-anchor="middle" visibility="hidden" style="font-size: 13px;">K</text><text y="358" x="312.7659574468085" text-anchor="middle" visibility="hidden" style="font-size: 13px;">E</text><text y="358" x="315.2482269503546" text-anchor="middle" visibility="hidden" style="font-size: 13px;">F</text><text y="358" x="317.7304964539007" text-anchor="middle" visibility="hidden" style="font-size: 13px;">P</text><text y="358" x="320.2127659574468" text-anchor="middle" visibility="hidden" style="font-size: 13px;">Y</text><text y="358" x="322.6950354609929" text-anchor="middle" visibility="hidden" style="font-size: 13px;">R</text><text y="358" x="325.177304964539" text-anchor="middle" visibility="hidden" style="font-size: 13px;">M</text><text y="358" x="327.6595744680851" text-anchor="middle" visibility="hidden" style="font-size: 13px;">N</text><text y="358" x="330.1418439716312" text-anchor="middle" visibility="hidden" style="font-size: 13px;">H</text><text y="358" x="332.6241134751773" text-anchor="middle" visibility="hidden" style="font-size: 13px;">I</text><text y="358" x="335.10638297872345" text-anchor="middle" visibility="hidden" style="font-size: 13px;">L</text><text y="358" x="337.5886524822695" text-anchor="middle" visibility="hidden" style="font-size: 13px;">E</text><text y="358" x="340.0709219858156" text-anchor="middle" visibility="hidden" style="font-size: 13px;">C</text><text y="358" x="342.55319148936167" text-anchor="middle" visibility="hidden" style="font-size: 13px;">E</text><text y="358" x="345.0354609929078" text-anchor="middle" visibility="hidden" style="font-size: 13px;">F</text><text y="358" x="347.5177304964539" text-anchor="middle" visibility="hidden" style="font-size: 13px;">Y</text><text y="358" x="350" text-anchor="middle" visibility="hidden" style="font-size: 13px;">L</text><text y="358" x="352.48226950354604" text-anchor="middle" visibility="hidden" style="font-size: 13px;">L</text><text y="358" x="354.9645390070922" text-anchor="middle" visibility="hidden" style="font-size: 13px;">E</text><text y="358" x="357.4468085106383" text-anchor="middle" visibility="hidden" style="font-size: 13px;">L</text><text y="358" x="359.9290780141844" text-anchor="middle" visibility="hidden" style="font-size: 13px;">M</text><text y="358" x="362.41134751773046" text-anchor="middle" visibility="hidden" style="font-size: 13px;">D</text><text y="358" x="364.8936170212766" text-anchor="middle" visibility="hidden" style="font-size: 13px;">C</text><text y="358" x="367.3758865248227" text-anchor="middle" visibility="hidden" style="font-size: 13px;">C</text><text y="358" x="369.8581560283688" text-anchor="middle" visibility="hidden" style="font-size: 13px;">L</text><text y="358" x="372.3404255319149" text-anchor="middle" visibility="hidden" style="font-size: 13px;">I</text><text y="358" x="374.82269503546104" text-anchor="middle" visibility="hidden" style="font-size: 13px;">V</text><text y="358" x="377.3049645390071" text-anchor="middle" visibility="hidden" style="font-size: 13px;">Y</text><text y="358" x="379.78723404255317" text-anchor="middle" visibility="hidden" style="font-size: 13px;">H</text><text y="358" x="382.2695035460993" text-anchor="middle" visibility="hidden" style="font-size: 13px;">P</text><text y="358" x="384.75177304964535" text-anchor="middle" visibility="hidden" style="font-size: 13px;">Y</text><text y="358" x="387.2340425531915" text-anchor="middle" visibility="hidden" style="font-size: 13px;">R</text><text y="358" x="389.7163120567376" text-anchor="middle" visibility="hidden" style="font-size: 13px;">P</text><text y="358" x="392.1985815602837" text-anchor="middle" visibility="hidden" style="font-size: 13px;">L</text><text y="358" x="394.6808510638298" text-anchor="middle" visibility="hidden" style="font-size: 13px;">L</text><text y="358" x="397.1631205673759" text-anchor="middle" visibility="hidden" style="font-size: 13px;">Q</text><text y="358" x="399.64539007092196" text-anchor="middle" visibility="hidden" style="font-size: 13px;">Y</text><text y="358" x="402.1276595744681" text-anchor="middle" visibility="hidden" style="font-size: 13px;">V</text><text y="358" x="404.6099290780142" text-anchor="middle" visibility="hidden" style="font-size: 13px;">Q</text><text y="358" x="407.09219858156024" text-anchor="middle" visibility="hidden" style="font-size: 13px;">D</text><text y="358" x="409.5744680851064" text-anchor="middle" visibility="hidden" style="font-size: 13px;">M</text><text y="358" x="412.0567375886525" text-anchor="middle" visibility="hidden" style="font-size: 13px;">G</text><text y="358" x="414.5390070921986" text-anchor="middle" visibility="hidden" style="font-size: 13px;">Q</text><text y="358" x="417.02127659574467" text-anchor="middle" visibility="hidden" style="font-size: 13px;">E</text><text y="358" x="419.5035460992908" text-anchor="middle" visibility="hidden" style="font-size: 13px;">D</text><text y="358" x="421.98581560283685" text-anchor="middle" visibility="hidden" style="font-size: 13px;">M</text><text y="358" x="424.468085106383" text-anchor="middle" visibility="hidden" style="font-size: 13px;">L</text><text y="358" x="426.9503546099291" text-anchor="middle" visibility="hidden" style="font-size: 13px;">L</text><text y="358" x="429.43262411347524" text-anchor="middle" visibility="hidden" style="font-size: 13px;">P</text><text y="358" x="431.9148936170213" text-anchor="middle" visibility="hidden" style="font-size: 13px;">L</text><text y="358" x="434.39716312056737" text-anchor="middle" visibility="hidden" style="font-size: 13px;">A</text><text y="358" x="436.87943262411346" text-anchor="middle" visibility="hidden" style="font-size: 13px;">W</text><text y="358" x="439.36170212765956" text-anchor="middle" visibility="hidden" style="font-size: 13px;">R</text><text y="358" x="441.8439716312057" text-anchor="middle" visibility="hidden" style="font-size: 13px;">I</text><text y="358" x="444.32624113475174" text-anchor="middle" visibility="hidden" style="font-size: 13px;">V</text><text y="358" x="446.8085106382979" text-anchor="middle" visibility="hidden" style="font-size: 13px;">N</text><text y="358" x="449.290780141844" text-anchor="middle" visibility="hidden" style="font-size: 13px;">D</text><text y="358" x="451.7730496453901" text-anchor="middle" visibility="hidden" style="font-size: 13px;">T</text><text y="358" x="454.25531914893617" text-anchor="middle" visibility="hidden" style="font-size: 13px;">Y</text><text y="358" x="456.7375886524823" text-anchor="middle" visibility="hidden" style="font-size: 13px;">R</text><text y="358" x="459.21985815602835" text-anchor="middle" visibility="hidden" style="font-size: 13px;">T</text><text y="358" x="461.70212765957444" text-anchor="middle" visibility="hidden" style="font-size: 13px;">D</text><text y="358" x="464.1843971631206" text-anchor="middle" visibility="hidden" style="font-size: 13px;">L</text><text y="358" x="466.66666666666663" text-anchor="middle" visibility="hidden" style="font-size: 13px;">C</text><text y="358" x="469.1489361702128" text-anchor="middle" visibility="hidden" style="font-size: 13px;">L</text><text y="358" x="471.63120567375887" text-anchor="middle" visibility="hidden" style="font-size: 13px;">L</text><text y="358" x="474.11347517730496" text-anchor="middle" visibility="hidden" style="font-size: 13px;">Y</text><text y="358" x="476.59574468085106" text-anchor="middle" visibility="hidden" style="font-size: 13px;">P</text><text y="358" x="479.0780141843972" text-anchor="middle" visibility="hidden" style="font-size: 13px;">P</text><text y="358" x="481.56028368794324" text-anchor="middle" visibility="hidden" style="font-size: 13px;">F</text><text y="358" x="484.0425531914894" text-anchor="middle" visibility="hidden" style="font-size: 13px;">M</text><text y="358" x="486.5248226950355" text-anchor="middle" visibility="hidden" style="font-size: 13px;">I</text><text y="358" x="489.0070921985815" text-anchor="middle" visibility="hidden" style="font-size: 13px;">A</text><text y="358" x="491.48936170212767" text-anchor="middle" visibility="hidden" style="font-size: 13px;">L</text><text y="358" x="493.97163120567376" text-anchor="middle" visibility="hidden" style="font-size: 13px;">A</text><text y="358" x="496.45390070921985" text-anchor="middle" visibility="hidden" style="font-size: 13px;">C</text><text y="358" x="498.93617021276594" text-anchor="middle" visibility="hidden" style="font-size: 13px;">L</text><text y="358" x="501.4184397163121" text-anchor="middle" visibility="hidden" style="font-size: 13px;">H</text><text y="358" x="503.90070921985813" text-anchor="middle" visibility="hidden" style="font-size: 13px;">V</text><text y="358" x="506.3829787234043" text-anchor="middle" visibility="hidden" style="font-size: 13px;">A</text><text y="358" x="508.86524822695037" text-anchor="middle" visibility="hidden" style="font-size: 13px;">C</text><text y="358" x="511.3475177304965" text-anchor="middle" visibility="hidden" style="font-size: 13px;">V</text><text y="358" x="513.8297872340426" text-anchor="middle" visibility="hidden" style="font-size: 13px;">V</text><text y="358" x="516.3120567375886" text-anchor="middle" visibility="hidden" style="font-size: 13px;">Q</text><text y="358" x="518.7943262411347" text-anchor="middle" visibility="hidden" style="font-size: 13px;">Q</text><text y="358" x="521.2765957446808" text-anchor="middle" visibility="hidden" style="font-size: 13px;">K</text><text y="358" x="523.7588652482269" text-anchor="middle" visibility="hidden" style="font-size: 13px;">D</text><text y="358" x="526.2411347517731" text-anchor="middle" visibility="hidden" style="font-size: 13px;">A</text><text y="358" x="528.7234042553192" text-anchor="middle" visibility="hidden" style="font-size: 13px;">R</text><text y="358" x="531.2056737588653" text-anchor="middle" visibility="hidden" style="font-size: 13px;">Q</text><text y="358" x="533.6879432624114" text-anchor="middle" visibility="hidden" style="font-size: 13px;">W</text><text y="358" x="536.1702127659574" text-anchor="middle" visibility="hidden" style="font-size: 13px;">F</text><text y="358" x="538.6524822695035" text-anchor="middle" visibility="hidden" style="font-size: 13px;">A</text><text y="358" x="541.1347517730496" text-anchor="middle" visibility="hidden" style="font-size: 13px;">E</text><text y="358" x="543.6170212765957" text-anchor="middle" visibility="hidden" style="font-size: 13px;">L</text><text y="358" x="546.0992907801418" text-anchor="middle" visibility="hidden" style="font-size: 13px;">S</text><text y="358" x="548.581560283688" text-anchor="middle" visibility="hidden" style="font-size: 13px;">V</text><text y="358" x="551.0638297872341" text-anchor="middle" visibility="hidden" style="font-size: 13px;">D</text><text y="358" x="553.5460992907801" text-anchor="middle" visibility="hidden" style="font-size: 13px;">M</text><text y="358" x="556.0283687943263" text-anchor="middle" visibility="hidden" style="font-size: 13px;">E</text><text y="358" x="558.5106382978723" text-anchor="middle" visibility="hidden" style="font-size: 13px;">K</text><text y="358" x="560.9929078014185" text-anchor="middle" visibility="hidden" style="font-size: 13px;">I</text><text y="358" x="563.4751773049645" text-anchor="middle" visibility="hidden" style="font-size: 13px;">L</text><text y="358" x="565.9574468085106" text-anchor="middle" visibility="hidden" style="font-size: 13px;">E</text><text y="358" x="568.4397163120567" text-anchor="middle" visibility="hidden" style="font-size: 13px;">I</text><text y="358" x="570.9219858156029" text-anchor="middle" visibility="hidden" style="font-size: 13px;">I</text><text y="358" x="573.404255319149" text-anchor="middle" visibility="hidden" style="font-size: 13px;">R</text><text y="358" x="575.886524822695" text-anchor="middle" visibility="hidden" style="font-size: 13px;">V</text><text y="358" x="578.3687943262412" text-anchor="middle" visibility="hidden" style="font-size: 13px;">I</text><text y="358" x="580.8510638297872" text-anchor="middle" visibility="hidden" style="font-size: 13px;">L</text><text y="358" x="583.3333333333334" text-anchor="middle" visibility="hidden" style="font-size: 13px;">K</text><text y="358" x="585.8156028368794" text-anchor="middle" visibility="hidden" style="font-size: 13px;">L</text><text y="358" x="588.2978723404256" text-anchor="middle" visibility="hidden" style="font-size: 13px;">Y</text><text y="358" x="590.7801418439716" text-anchor="middle" visibility="hidden" style="font-size: 13px;">E</text><text y="358" x="593.2624113475177" text-anchor="middle" visibility="hidden" style="font-size: 13px;">Q</text><text y="358" x="595.7446808510639" text-anchor="middle" visibility="hidden" style="font-size: 13px;">W</text><text y="358" x="598.2269503546099" text-anchor="middle" visibility="hidden" style="font-size: 13px;">K</text><text y="358" x="600.7092198581561" text-anchor="middle" visibility="hidden" style="font-size: 13px;">N</text><text y="358" x="603.1914893617021" text-anchor="middle" visibility="hidden" style="font-size: 13px;">F</text><text y="358" x="605.6737588652483" text-anchor="middle" visibility="hidden" style="font-size: 13px;">D</text><text y="358" x="608.1560283687943" text-anchor="middle" visibility="hidden" style="font-size: 13px;">E</text><text y="358" x="610.6382978723404" text-anchor="middle" visibility="hidden" style="font-size: 13px;">R</text><text y="358" x="613.1205673758865" text-anchor="middle" visibility="hidden" style="font-size: 13px;">K</text><text y="358" x="615.6028368794326" text-anchor="middle" visibility="hidden" style="font-size: 13px;">E</text><text y="358" x="618.0851063829787" text-anchor="middle" visibility="hidden" style="font-size: 13px;">M</text><text y="358" x="620.5673758865248" text-anchor="middle" visibility="hidden" style="font-size: 13px;">A</text><text y="358" x="623.049645390071" text-anchor="middle" visibility="hidden" style="font-size: 13px;">T</text><text y="358" x="625.531914893617" text-anchor="middle" visibility="hidden" style="font-size: 13px;">I</text><text y="358" x="628.0141843971631" text-anchor="middle" visibility="hidden" style="font-size: 13px;">L</text><text y="358" x="630.4964539007092" text-anchor="middle" visibility="hidden" style="font-size: 13px;">S</text><text y="358" x="632.9787234042553" text-anchor="middle" visibility="hidden" style="font-size: 13px;">K</text><text y="358" x="635.4609929078014" text-anchor="middle" visibility="hidden" style="font-size: 13px;">M</text><text y="358" x="637.9432624113475" text-anchor="middle" visibility="hidden" style="font-size: 13px;">P</text><text y="358" x="640.4255319148936" text-anchor="middle" visibility="hidden" style="font-size: 13px;">K</text><text y="358" x="642.9078014184397" text-anchor="middle" visibility="hidden" style="font-size: 13px;">P</text><text y="358" x="645.3900709219859" text-anchor="middle" visibility="hidden" style="font-size: 13px;">K</text><text y="358" x="647.8723404255319" text-anchor="middle" visibility="hidden" style="font-size: 13px;">P</text><text y="358" x="650.354609929078" text-anchor="middle" visibility="hidden" style="font-size: 13px;">P</text><text y="358" x="652.8368794326241" text-anchor="middle" visibility="hidden" style="font-size: 13px;">P</text><text y="358" x="655.3191489361702" text-anchor="middle" visibility="hidden" style="font-size: 13px;">N</text><text y="358" x="657.8014184397163" text-anchor="middle" visibility="hidden" style="font-size: 13px;">S</text><text y="358" x="660.2836879432624" text-anchor="middle" visibility="hidden" style="font-size: 13px;">E</text><text y="358" x="662.7659574468084" text-anchor="middle" visibility="hidden" style="font-size: 13px;">G</text><text y="358" x="665.2482269503546" text-anchor="middle" visibility="hidden" style="font-size: 13px;">E</text><text y="358" x="667.7304964539007" text-anchor="middle" visibility="hidden" style="font-size: 13px;">Q</text><text y="358" x="670.2127659574469" text-anchor="middle" visibility="hidden" style="font-size: 13px;">G</text><text y="358" x="672.6950354609929" text-anchor="middle" visibility="hidden" style="font-size: 13px;">P</text><text y="358" x="675.177304964539" text-anchor="middle" visibility="hidden" style="font-size: 13px;">N</text><text y="358" x="677.6595744680851" text-anchor="middle" visibility="hidden" style="font-size: 13px;">G</text><text y="358" x="680.1418439716311" text-anchor="middle" visibility="hidden" style="font-size: 13px;">S</text><text y="358" x="682.6241134751773" text-anchor="middle" visibility="hidden" style="font-size: 13px;">Q</text><text y="358" x="685.1063829787233" text-anchor="middle" visibility="hidden" style="font-size: 13px;">N</text><text y="358" x="687.5886524822695" text-anchor="middle" visibility="hidden" style="font-size: 13px;">S</text><text y="358" x="690.0709219858156" text-anchor="middle" visibility="hidden" style="font-size: 13px;">S</text><text y="358" x="692.5531914893618" text-anchor="middle" visibility="hidden" style="font-size: 13px;">Y</text><text y="358" x="695.0354609929078" text-anchor="middle" visibility="hidden" style="font-size: 13px;">S</text><text y="358" x="697.517730496454" text-anchor="middle" visibility="hidden" style="font-size: 13px;">Q</text><text y="358" x="700" text-anchor="middle" visibility="hidden" style="font-size: 13px;">S</text></g></g></svg><g class="xAxis" transform="translate(0,360)" fill="none" font-size="10" font-family="sans-serif" text-anchor="middle"><path class="domain" stroke="#000" d="M0.5,6V0.5H700.5V6"></path><g class="tick" opacity="1" transform="translate(47.663120567375884,0)"><line stroke="#000" y2="6"></line><text fill="#000" y="9" dy="0.71em">20</text></g><g class="tick" opacity="1" transform="translate(97.30851063829788,0)"><line stroke="#000" y2="6"></line><text fill="#000" y="9" dy="0.71em">40</text></g><g class="tick" opacity="1" transform="translate(146.95390070921985,0)"><line stroke="#000" y2="6"></line><text fill="#000" y="9" dy="0.71em">60</text></g><g class="tick" opacity="1" transform="translate(196.59929078014184,0)"><line stroke="#000" y2="6"></line><text fill="#000" y="9" dy="0.71em">80</text></g><g class="tick" opacity="1" transform="translate(246.24468085106383,0)"><line stroke="#000" y2="6"></line><text fill="#000" y="9" dy="0.71em">100</text></g><g class="tick" opacity="1" transform="translate(295.8900709219858,0)"><line stroke="#000" y2="6"></line><text fill="#000" y="9" dy="0.71em">120</text></g><g class="tick" opacity="1" transform="translate(345.5354609929078,0)"><line stroke="#000" y2="6"></line><text fill="#000" y="9" dy="0.71em">140</text></g><g class="tick" opacity="1" transform="translate(395.1808510638298,0)"><line stroke="#000" y2="6"></line><text fill="#000" y="9" dy="0.71em">160</text></g><g class="tick" opacity="1" transform="translate(444.82624113475174,0)"><line stroke="#000" y2="6"></line><text fill="#000" y="9" dy="0.71em">180</text></g><g class="tick" opacity="1" transform="translate(494.47163120567376,0)"><line stroke="#000" y2="6"></line><text fill="#000" y="9" dy="0.71em">200</text></g><g class="tick" opacity="1" transform="translate(544.1170212765957,0)"><line stroke="#000" y2="6"></line><text fill="#000" y="9" dy="0.71em">220</text></g><g class="tick" opacity="1" transform="translate(593.7624113475177,0)"><line stroke="#000" y2="6"></line><text fill="#000" y="9" dy="0.71em">240</text></g><g class="tick" opacity="1" transform="translate(643.4078014184397,0)"><line stroke="#000" y2="6"></line><text fill="#000" y="9" dy="0.71em">260</text></g><g class="tick" opacity="1" transform="translate(693.0531914893618,0)"><line stroke="#000" y2="6"></line><text fill="#000" y="9" dy="0.71em">280</text></g></g><text class="x label" text-anchor="end" x="700" y="390" style="font-size: 13px; font-family: Arial;">Residue number</text><g class="yAxis" fill="none" font-size="10" font-family="sans-serif" text-anchor="end"><path class="domain" stroke="#000" d="M-6,360.5H0.5V0.5H-6"></path><g class="tick" opacity="1" transform="translate(0,352.56611570247935)"><line stroke="#000" x2="-6"></line><text fill="#000" x="-9" dy="0.32em"></text></g><g class="tick" opacity="1" transform="translate(0,327.77272727272725)"><line stroke="#000" x2="-6"></line><text fill="#000" x="-9" dy="0.32em">0</text></g><g class="tick" opacity="1" transform="translate(0,302.9793388429752)"><line stroke="#000" x2="-6"></line><text fill="#000" x="-9" dy="0.32em">2</text></g><g class="tick" opacity="1" transform="translate(0,278.18595041322317)"><line stroke="#000" x2="-6"></line><text fill="#000" x="-9" dy="0.32em">4</text></g><g class="tick" opacity="1" transform="translate(0,253.39256198347107)"><line stroke="#000" x2="-6"></line><text fill="#000" x="-9" dy="0.32em">6</text></g><g class="tick" opacity="1" transform="translate(0,228.599173553719)"><line stroke="#000" x2="-6"></line><text fill="#000" x="-9" dy="0.32em">8</text></g><g class="tick" opacity="1" transform="translate(0,203.80578512396693)"><line stroke="#000" x2="-6"></line><text fill="#000" x="-9" dy="0.32em">10</text></g><g class="tick" opacity="1" transform="translate(0,179.01239669421489)"><line stroke="#000" x2="-6"></line><text fill="#000" x="-9" dy="0.32em">12</text></g><g class="tick" opacity="1" transform="translate(0,154.21900826446281)"><line stroke="#000" x2="-6"></line><text fill="#000" x="-9" dy="0.32em">14</text></g><g class="tick" opacity="1" transform="translate(0,129.42561983471072)"><line stroke="#000" x2="-6"></line><text fill="#000" x="-9" dy="0.32em">16</text></g><g class="tick" opacity="1" transform="translate(0,104.63223140495865)"><line stroke="#000" x2="-6"></line><text fill="#000" x="-9" dy="0.32em">18</text></g><g class="tick" opacity="1" transform="translate(0,79.8388429752066)"><line stroke="#000" x2="-6"></line><text fill="#000" x="-9" dy="0.32em">20</text></g><g class="tick" opacity="1" transform="translate(0,55.04545454545456)"><line stroke="#000" x2="-6"></line><text fill="#000" x="-9" dy="0.32em">22</text></g><g class="tick" opacity="1" transform="translate(0,30.252066115702462)"><line stroke="#000" x2="-6"></line><text fill="#000" x="-9" dy="0.32em">24</text></g><g class="tick" opacity="1" transform="translate(0,5.458677685950363)"><line stroke="#000" x2="-6"></line><text fill="#000" x="-9" dy="0.32em">26</text></g></g><text class="y label" text-anchor="middle" y="-50" x="-180" dy="0.8em" transform="rotate(-90)" style="font-size: 13px; font-family: Arial;">Total number of references</text><g class="axisRed" fill="none" font-size="10" font-family="sans-serif" text-anchor="start" visibility="hidden" transform="translate(700, 0)"><path class="domain" stroke="#000" d="M6,360.5H0.5V0.5H6"></path><g class="tick" opacity="1" transform="translate(0,360.5)"><line stroke="#000" x2="6"></line><text fill="#000" x="9" dy="0.32em">0</text></g><text text-anchor="start" dx="5.2em" dy="-2.6em" transform="rotate(90)" visibility="hidden" style="font-size: 12px; font-family: Arial; fill: #d7301f;">No recurrent (&gt;2) missense mutations!</text></g><g class="axisPurple" fill="none" font-size="10" font-family="sans-serif" text-anchor="start" visibility="hidden"><path class="domain" stroke="#000" d="M6,360.5H0.5V0.5H6"></path><g class="tick" opacity="1" transform="translate(0,357.52479338842977)"><line stroke="#000" x2="6"></line><text fill="#000" x="9" dy="0.32em"></text></g><g class="tick" opacity="1" transform="translate(0,327.77272727272725)"><line stroke="#000" x2="6"></line><text fill="#000" x="9" dy="0.32em">0</text></g><g class="tick" opacity="1" transform="translate(0,298.0206611570248)"><line stroke="#000" x2="6"></line><text fill="#000" x="9" dy="0.32em">0.1</text></g><g class="tick" opacity="1" transform="translate(0,268.2685950413223)"><line stroke="#000" x2="6"></line><text fill="#000" x="9" dy="0.32em">0.2</text></g><g class="tick" opacity="1" transform="translate(0,238.51652892561984)"><line stroke="#000" x2="6"></line><text fill="#000" x="9" dy="0.32em">0.3</text></g><g class="tick" opacity="1" transform="translate(0,208.76446280991738)"><line stroke="#000" x2="6"></line><text fill="#000" x="9" dy="0.32em">0.4</text></g><g class="tick" opacity="1" transform="translate(0,179.0123966942149)"><line stroke="#000" x2="6"></line><text fill="#000" x="9" dy="0.32em">0.5</text></g><g class="tick" opacity="1" transform="translate(0,149.26033057851242)"><line stroke="#000" x2="6"></line><text fill="#000" x="9" dy="0.32em">0.6</text></g><g class="tick" opacity="1" transform="translate(0,119.50826446280996)"><line stroke="#000" x2="6"></line><text fill="#000" x="9" dy="0.32em">0.7</text></g><g class="tick" opacity="1" transform="translate(0,89.75619834710744)"><line stroke="#000" x2="6"></line><text fill="#000" x="9" dy="0.32em">0.8</text></g><g class="tick" opacity="1" transform="translate(0,60.00413223140498)"><line stroke="#000" x2="6"></line><text fill="#000" x="9" dy="0.32em">0.9</text></g><g class="tick" opacity="1" transform="translate(0,30.25206611570252)"><line stroke="#000" x2="6"></line><text fill="#000" x="9" dy="0.32em">1</text></g><g class="tick" opacity="1" transform="translate(0,0.5)"><line stroke="#000" x2="6"></line><text fill="#000" x="9" dy="0.32em">1.1</text></g><text text-anchor="start" x="10" y="10" visibility="hidden" style="font-size: 12px; font-family: Arial; fill: #807dba;">No disease causing germline SNPs known!</text></g><circle cx="636" cy="15" r="10" class="compassNav" style="fill: #ffffff; stroke: #666666; stroke-width: 1px;"></circle><path d="M440.935 12.574l3.966 82.766C399.416 41.904 331.674 8 256 8 134.813 8 33.933 94.924 12.296 209.824 10.908 217.193 16.604 224 24.103 224h49.084c5.57 0 10.377-3.842 11.676-9.259C103.407 137.408 172.931 80 256 80c60.893 0 114.512 30.856 146.104 77.801l-101.53-4.865c-6.845-.328-12.574 5.133-12.574 11.986v47.411c0 6.627 5.373 12 12 12h200.333c6.627 0 12-5.373 12-12V12c0-6.627-5.373-12-12-12h-47.411c-6.853 0-12.315 5.729-11.987 12.574zM256 432c-60.895 0-114.517-30.858-146.109-77.805l101.868 4.871c6.845.327 12.573-5.134 12.573-11.986v-47.412c0-6.627-5.373-12-12-12H12c-6.627 0-12 5.373-12 12V500c0 6.627 5.373 12 12 12h47.385c6.863 0 12.328-5.745 11.985-12.599l-4.129-82.575C112.725 470.166 180.405 504 256 504c121.187 0 222.067-86.924 243.704-201.824 1.388-7.369-4.308-14.176-11.807-14.176h-49.084c-5.57 0-10.377 3.842-11.676 9.259C408.593 374.592 339.069 432 256 432z" class="compassNav" transform="translate(631, 10) scale(0.02)" style="fill: #666666; stroke: #666666; stroke-width: 1px;"></path><circle cx="658" cy="15" r="10" class="compassNav" style="fill: #ffffff; stroke: #666666; stroke-width: 1px;"></circle><line class="compassNav" stroke-width="2" stroke="#666666" x1="654" y1="15" x2="662" y2="15"></line><line class="compassNav" stroke-width="2" stroke="#666666" x1="658" y1="11" x2="658" y2="19"></line><circle cx="614" cy="15" r="10" class="compassNav" style="fill: #ffffff; stroke: #666666; stroke-width: 1px;"></circle><line class="compassNav" stroke-width="2" stroke="#666666" x1="610" y1="15" x2="618" y2="15"></line><path d="M582 14 l20 -12 a100,40 0 0,0 0,24z" class="compassNav" style="fill: #ffffff; stroke: #666666; stroke-width: 1px;"></path><path d="M690 14 l-20 -12 a100,40 0 0,1 0,24z" class="compassNav" style="fill: #ffffff; stroke: #666666; stroke-width: 1px;"></path><path d="M216 0h80c13.3 0 24 10.7 24 24v168h87.7c17.8 0 26.7 21.5 14.1 34.1L269.7 378.3c-7.5 7.5-19.8 7.5-27.3 0L90.1 226.1c-12.6-12.6-3.7-34.1 14.1-34.1H192V24c0-13.3 10.7-24 24-24zm296 376v112c0 13.3-10.7 24-24 24H24c-13.3 0-24-10.7-24-24V376c0-13.3 10.7-24 24-24h146.7l49 49c20.1 20.1 52.5 20.1 72.6 0l49-49H488c13.3 0 24 10.7 24 24zm-124 88c0-11-9-20-20-20s-20 9-20 20 9 20 20 20 20-9 20-20zm64 0c0-11-9-20-20-20s-20 9-20 20 9 20 20 20 20-9 20-20z" class="compassNav" transform="translate(552,0) scale(0.05)" style="fill: #336699; stroke: #336699; stroke-width: 1px; cursor: pointer;"></path></g></svg>