<svg width="800" height="400" style="background-color: white;"><g transform="translate(50,0)"><svg width="700" height="360"><g style="-webkit-tap-highlight-color: rgba(0, 0, 0, 0);"><rect width="700" height="360" style="fill: #ffffff;"></rect><g id="lines"><line class="line" stroke-width="1" stroke="#d7301f" x1="-271.9230769230769" y1="333" x2="-271.9230769230769" y2="360" visibility="hidden" style="stroke-dasharray: 3px, 3px;"></line></g><g><rect x="-276.9230769230769" y="355" width="10" height="10" visibility="hidden" style="fill: #ffffff; stroke: #d7301f;"></rect></g><g id="lines"><line class="line" stroke-width="1" stroke="#6a51a3" x1="-271.9230769230769" y1="333" x2="-271.9230769230769" y2="327.27272727272725" visibility="hidden" style="stroke-dasharray: 3px, 3px;"></line></g><g><rect x="-276.9230769230769" y="322.27272727272725" width="10" height="10" visibility="hidden" style="fill: #ffffff; stroke: #6a51a3;"></rect></g><g id="lines"><line class="line" stroke-width="1" stroke="#666666" x1="123.84615384615385" y1="333" x2="123.84615384615385" y2="326.4620442722994"></line><line class="line" stroke-width="1" stroke="#666666" x1="126.53846153846153" y1="333" x2="126.53846153846153" y2="325.65136127187156"></line><line class="line" stroke-width="1" stroke="#666666" x1="142.69230769230768" y1="333" x2="142.69230769230768" y2="326.4620442722994"></line><line class="line" stroke-width="1" stroke="#666666" x1="169.6153846153846" y1="333" x2="169.6153846153846" y2="314.3017992658815"></line><line class="line" stroke-width="1" stroke="#666666" x1="175" y1="333" x2="175" y2="29.752066115702462"></line><line class="line" stroke-width="1" stroke="#666666" x1="183.0769230769231" y1="333" x2="183.0769230769231" y2="326.4620442722994"></line><line class="line" stroke-width="1" stroke="#666666" x1="212.69230769230768" y1="333" x2="212.69230769230768" y2="326.4620442722994"></line><line class="line" stroke-width="1" stroke="#666666" x1="220.76923076923077" y1="333" x2="220.76923076923077" y2="326.4620442722994"></line><line class="line" stroke-width="1" stroke="#666666" x1="317.6923076923077" y1="333" x2="317.6923076923077" y2="326.4620442722994"></line><line class="line" stroke-width="1" stroke="#666666" x1="325.7692307692308" y1="333" x2="325.7692307692308" y2="326.4620442722994"></line><line class="line" stroke-width="1" stroke="#666666" x1="355.38461538461536" y1="333" x2="355.38461538461536" y2="326.4620442722994"></line><line class="line" stroke-width="1" stroke="#666666" x1="366.1538461538462" y1="333" x2="366.1538461538462" y2="326.4620442722994"></line><line class="line" stroke-width="1" stroke="#666666" x1="487.30769230769226" y1="333" x2="487.30769230769226" y2="324.8406782714437"></line><line class="line" stroke-width="1" stroke="#666666" x1="514.2307692307693" y1="333" x2="514.2307692307693" y2="326.4620442722994"></line><line class="line" stroke-width="1" stroke="#666666" x1="546.5384615384615" y1="333" x2="546.5384615384615" y2="326.4620442722994"></line><line class="line" stroke-width="1" stroke="#666666" x1="595" y1="333" x2="595" y2="326.4620442722994"></line><line class="line" stroke-width="1" stroke="#666666" x1="605.7692307692308" y1="333" x2="605.7692307692308" y2="326.4620442722994"></line><line class="line" stroke-width="1" stroke="#666666" x1="651.5384615384615" y1="333" x2="651.5384615384615" y2="326.4620442722994"></line><line class="line" stroke-width="1" stroke="#666666" x1="654.2307692307693" y1="333" x2="654.2307692307693" y2="326.4620442722994"></line><line class="line" stroke-width="1" stroke="#666666" x1="667.6923076923077" y1="333" x2="667.6923076923077" y2="326.4620442722994"></line></g><g id="circles"><circle r="4" cx="123.84615384615385" cy="326.4620442722994" style="fill: #4393c3; stroke: #666666; stroke-width: 1px;"></circle><circle r="4" cx="126.53846153846153" cy="325.65136127187156" style="fill: #bf812d; stroke: #666666; stroke-width: 1px;"></circle><circle r="4" cx="142.69230769230768" cy="326.4620442722994" style="fill: #5aae61; stroke: #666666; stroke-width: 1px;"></circle><circle r="4" cx="169.6153846153846" cy="314.3017992658815" style="fill: #4393c3; stroke: #666666; stroke-width: 1px;"></circle><circle r="4" cx="175" cy="29.752066115702462" style="fill: #4393c3; stroke: #666666; stroke-width: 1px;"></circle><circle r="4" cx="183.0769230769231" cy="326.4620442722994" style="fill: #5aae61; stroke: #666666; stroke-width: 1px;"></circle><circle r="4" cx="212.69230769230768" cy="326.4620442722994" style="fill: #4393c3; stroke: #666666; stroke-width: 1px;"></circle><circle r="4" cx="220.76923076923077" cy="326.4620442722994" style="fill: #4393c3; stroke: #666666; stroke-width: 1px;"></circle><circle r="4" cx="317.6923076923077" cy="326.4620442722994" style="fill: #4393c3; stroke: #666666; stroke-width: 1px;"></circle><circle r="4" cx="325.7692307692308" cy="326.4620442722994" style="fill: #666666; stroke: #666666; stroke-width: 1px;"></circle><circle r="4" cx="355.38461538461536" cy="326.4620442722994" style="fill: #4393c3; stroke: #666666; stroke-width: 1px;"></circle><circle r="4" cx="366.1538461538462" cy="326.4620442722994" style="fill: #bf812d; stroke: #666666; stroke-width: 1px;"></circle><circle r="4" cx="487.30769230769226" cy="324.8406782714437" style="fill: #bf812d; stroke: #666666; stroke-width: 1px;"></circle><circle r="4" cx="514.2307692307693" cy="326.4620442722994" style="fill: #666666; stroke: #666666; stroke-width: 1px;"></circle><circle r="4" cx="546.5384615384615" cy="326.4620442722994" style="fill: #5aae61; stroke: #666666; stroke-width: 1px;"></circle><circle r="4" cx="595" cy="326.4620442722994" style="fill: #4393c3; stroke: #666666; stroke-width: 1px;"></circle><circle r="4" cx="605.7692307692308" cy="326.4620442722994" style="fill: #5aae61; stroke: #666666; stroke-width: 1px;"></circle><circle r="4" cx="651.5384615384615" cy="326.4620442722994" style="fill: #bf812d; stroke: #666666; stroke-width: 1px;"></circle><circle r="4" cx="654.2307692307693" cy="326.4620442722994" style="fill: #4393c3; stroke: #666666; stroke-width: 1px;"></circle><circle r="4" cx="667.6923076923077" cy="326.4620442722994" style="fill: #4393c3; stroke: #666666; stroke-width: 1px;"></circle></g><g><rect x="0" y="333" width="700" height="12" style="fill: #ffffff; stroke-width: 1px; stroke: #666666;"></rect><rect x="86.15384615384616" y="333" width="328.46153846153845" height="12" style="fill: #aec7e8; stroke-width: 1px; stroke: #666666;"></rect><rect x="417.3076923076923" y="333" width="255.76923076923077" height="12" style="fill: #ffbb78; stroke-width: 1px; stroke: #666666;"></rect></g><g><a target="_blank" xlink:href="http://pfam.xfam.org/family/"><text y="343" x="350" text-anchor="middle" style="color: rgb(102, 102, 102); font-weight: normal; font-size: 12px; font-family: Arial; cursor: pointer;"></text></a><a target="_blank" xlink:href="http://pfam.xfam.org/family/ERp29_N"><text y="343" x="250.38461538461542" text-anchor="middle" style="color: rgb(102, 102, 102); font-weight: normal; font-size: 12px; font-family: Arial; cursor: pointer;">ERp29_N</text></a><a target="_blank" xlink:href="http://pfam.xfam.org/family/ERp29"><text y="343" x="545.1923076923077" text-anchor="middle" style="color: rgb(102, 102, 102); font-weight: normal; font-size: 12px; font-family: Arial; cursor: pointer;">ERp29</text></a></g><g><text y="358" x="0" text-anchor="middle" visibility="hidden" style="font-size: 13px;">M</text><text y="358" x="2.6923076923076925" text-anchor="middle" visibility="hidden" style="font-size: 13px;">A</text><text y="358" x="5.384615384615385" text-anchor="middle" visibility="hidden" style="font-size: 13px;">A</text><text y="358" x="8.076923076923077" text-anchor="middle" visibility="hidden" style="font-size: 13px;">A</text><text y="358" x="10.76923076923077" text-anchor="middle" visibility="hidden" style="font-size: 13px;">V</text><text y="358" x="13.461538461538462" text-anchor="middle" visibility="hidden" style="font-size: 13px;">P</text><text y="358" x="16.153846153846153" text-anchor="middle" visibility="hidden" style="font-size: 13px;">R</text><text y="358" x="18.846153846153847" text-anchor="middle" visibility="hidden" style="font-size: 13px;">A</text><text y="358" x="21.53846153846154" text-anchor="middle" visibility="hidden" style="font-size: 13px;">A</text><text y="358" x="24.230769230769234" text-anchor="middle" visibility="hidden" style="font-size: 13px;">F</text><text y="358" x="26.923076923076923" text-anchor="middle" visibility="hidden" style="font-size: 13px;">L</text><text y="358" x="29.615384615384617" text-anchor="middle" visibility="hidden" style="font-size: 13px;">S</text><text y="358" x="32.30769230769231" text-anchor="middle" visibility="hidden" style="font-size: 13px;">P</text><text y="358" x="35" text-anchor="middle" visibility="hidden" style="font-size: 13px;">L</text><text y="358" x="37.69230769230769" text-anchor="middle" visibility="hidden" style="font-size: 13px;">L</text><text y="358" x="40.38461538461539" text-anchor="middle" visibility="hidden" style="font-size: 13px;">P</text><text y="358" x="43.07692307692308" text-anchor="middle" visibility="hidden" style="font-size: 13px;">L</text><text y="358" x="45.769230769230774" text-anchor="middle" visibility="hidden" style="font-size: 13px;">L</text><text y="358" x="48.46153846153847" text-anchor="middle" visibility="hidden" style="font-size: 13px;">L</text><text y="358" x="51.15384615384615" text-anchor="middle" visibility="hidden" style="font-size: 13px;">G</text><text y="358" x="53.84615384615385" text-anchor="middle" visibility="hidden" style="font-size: 13px;">F</text><text y="358" x="56.53846153846154" text-anchor="middle" visibility="hidden" style="font-size: 13px;">L</text><text y="358" x="59.23076923076923" text-anchor="middle" visibility="hidden" style="font-size: 13px;">L</text><text y="358" x="61.92307692307693" text-anchor="middle" visibility="hidden" style="font-size: 13px;">L</text><text y="358" x="64.61538461538461" text-anchor="middle" visibility="hidden" style="font-size: 13px;">S</text><text y="358" x="67.3076923076923" text-anchor="middle" visibility="hidden" style="font-size: 13px;">A</text><text y="358" x="70" text-anchor="middle" visibility="hidden" style="font-size: 13px;">P</text><text y="358" x="72.6923076923077" text-anchor="middle" visibility="hidden" style="font-size: 13px;">H</text><text y="358" x="75.38461538461539" text-anchor="middle" visibility="hidden" style="font-size: 13px;">G</text><text y="358" x="78.07692307692308" text-anchor="middle" visibility="hidden" style="font-size: 13px;">G</text><text y="358" x="80.76923076923077" text-anchor="middle" visibility="hidden" style="font-size: 13px;">S</text><text y="358" x="83.46153846153847" text-anchor="middle" visibility="hidden" style="font-size: 13px;">G</text><text y="358" x="86.15384615384616" text-anchor="middle" visibility="hidden" style="font-size: 13px;">L</text><text y="358" x="88.84615384615384" text-anchor="middle" visibility="hidden" style="font-size: 13px;">H</text><text y="358" x="91.53846153846155" text-anchor="middle" visibility="hidden" style="font-size: 13px;">T</text><text y="358" x="94.23076923076923" text-anchor="middle" visibility="hidden" style="font-size: 13px;">K</text><text y="358" x="96.92307692307693" text-anchor="middle" visibility="hidden" style="font-size: 13px;">G</text><text y="358" x="99.61538461538461" text-anchor="middle" visibility="hidden" style="font-size: 13px;">A</text><text y="358" x="102.3076923076923" text-anchor="middle" visibility="hidden" style="font-size: 13px;">L</text><text y="358" x="105" text-anchor="middle" visibility="hidden" style="font-size: 13px;">P</text><text y="358" x="107.6923076923077" text-anchor="middle" visibility="hidden" style="font-size: 13px;">L</text><text y="358" x="110.38461538461539" text-anchor="middle" visibility="hidden" style="font-size: 13px;">D</text><text y="358" x="113.07692307692308" text-anchor="middle" visibility="hidden" style="font-size: 13px;">T</text><text y="358" x="115.76923076923076" text-anchor="middle" visibility="hidden" style="font-size: 13px;">V</text><text y="358" x="118.46153846153847" text-anchor="middle" visibility="hidden" style="font-size: 13px;">T</text><text y="358" x="121.15384615384615" text-anchor="middle" visibility="hidden" style="font-size: 13px;">F</text><text y="358" x="123.84615384615385" text-anchor="middle" visibility="hidden" style="font-size: 13px;">Y</text><text y="358" x="126.53846153846153" text-anchor="middle" visibility="hidden" style="font-size: 13px;">K</text><text y="358" x="129.23076923076923" text-anchor="middle" visibility="hidden" style="font-size: 13px;">V</text><text y="358" x="131.92307692307693" text-anchor="middle" visibility="hidden" style="font-size: 13px;">I</text><text y="358" x="134.6153846153846" text-anchor="middle" visibility="hidden" style="font-size: 13px;">P</text><text y="358" x="137.3076923076923" text-anchor="middle" visibility="hidden" style="font-size: 13px;">K</text><text y="358" x="140" text-anchor="middle" visibility="hidden" style="font-size: 13px;">S</text><text y="358" x="142.69230769230768" text-anchor="middle" visibility="hidden" style="font-size: 13px;">K</text><text y="358" x="145.3846153846154" text-anchor="middle" visibility="hidden" style="font-size: 13px;">F</text><text y="358" x="148.07692307692307" text-anchor="middle" visibility="hidden" style="font-size: 13px;">V</text><text y="358" x="150.76923076923077" text-anchor="middle" visibility="hidden" style="font-size: 13px;">L</text><text y="358" x="153.46153846153845" text-anchor="middle" visibility="hidden" style="font-size: 13px;">V</text><text y="358" x="156.15384615384616" text-anchor="middle" visibility="hidden" style="font-size: 13px;">K</text><text y="358" x="158.84615384615384" text-anchor="middle" visibility="hidden" style="font-size: 13px;">F</text><text y="358" x="161.53846153846155" text-anchor="middle" visibility="hidden" style="font-size: 13px;">D</text><text y="358" x="164.23076923076923" text-anchor="middle" visibility="hidden" style="font-size: 13px;">T</text><text y="358" x="166.92307692307693" text-anchor="middle" visibility="hidden" style="font-size: 13px;">Q</text><text y="358" x="169.6153846153846" text-anchor="middle" visibility="hidden" style="font-size: 13px;">Y</text><text y="358" x="172.30769230769232" text-anchor="middle" visibility="hidden" style="font-size: 13px;">P</text><text y="358" x="175" text-anchor="middle" visibility="hidden" style="font-size: 13px;">Y</text><text y="358" x="177.69230769230768" text-anchor="middle" visibility="hidden" style="font-size: 13px;">G</text><text y="358" x="180.38461538461536" text-anchor="middle" visibility="hidden" style="font-size: 13px;">E</text><text y="358" x="183.0769230769231" text-anchor="middle" visibility="hidden" style="font-size: 13px;">K</text><text y="358" x="185.76923076923077" text-anchor="middle" visibility="hidden" style="font-size: 13px;">Q</text><text y="358" x="188.46153846153845" text-anchor="middle" visibility="hidden" style="font-size: 13px;">D</text><text y="358" x="191.15384615384613" text-anchor="middle" visibility="hidden" style="font-size: 13px;">E</text><text y="358" x="193.84615384615387" text-anchor="middle" visibility="hidden" style="font-size: 13px;">F</text><text y="358" x="196.53846153846155" text-anchor="middle" visibility="hidden" style="font-size: 13px;">K</text><text y="358" x="199.23076923076923" text-anchor="middle" visibility="hidden" style="font-size: 13px;">R</text><text y="358" x="201.9230769230769" text-anchor="middle" visibility="hidden" style="font-size: 13px;">L</text><text y="358" x="204.6153846153846" text-anchor="middle" visibility="hidden" style="font-size: 13px;">A</text><text y="358" x="207.30769230769232" text-anchor="middle" visibility="hidden" style="font-size: 13px;">E</text><text y="358" x="210" text-anchor="middle" visibility="hidden" style="font-size: 13px;">N</text><text y="358" x="212.69230769230768" text-anchor="middle" visibility="hidden" style="font-size: 13px;">S</text><text y="358" x="215.3846153846154" text-anchor="middle" visibility="hidden" style="font-size: 13px;">A</text><text y="358" x="218.07692307692307" text-anchor="middle" visibility="hidden" style="font-size: 13px;">S</text><text y="358" x="220.76923076923077" text-anchor="middle" visibility="hidden" style="font-size: 13px;">S</text><text y="358" x="223.46153846153845" text-anchor="middle" visibility="hidden" style="font-size: 13px;">D</text><text y="358" x="226.15384615384616" text-anchor="middle" visibility="hidden" style="font-size: 13px;">D</text><text y="358" x="228.84615384615384" text-anchor="middle" visibility="hidden" style="font-size: 13px;">L</text><text y="358" x="231.53846153846152" text-anchor="middle" visibility="hidden" style="font-size: 13px;">L</text><text y="358" x="234.23076923076923" text-anchor="middle" visibility="hidden" style="font-size: 13px;">V</text><text y="358" x="236.92307692307693" text-anchor="middle" visibility="hidden" style="font-size: 13px;">A</text><text y="358" x="239.6153846153846" text-anchor="middle" visibility="hidden" style="font-size: 13px;">E</text><text y="358" x="242.3076923076923" text-anchor="middle" visibility="hidden" style="font-size: 13px;">V</text><text y="358" x="244.99999999999997" text-anchor="middle" visibility="hidden" style="font-size: 13px;">G</text><text y="358" x="247.6923076923077" text-anchor="middle" visibility="hidden" style="font-size: 13px;">I</text><text y="358" x="250.3846153846154" text-anchor="middle" visibility="hidden" style="font-size: 13px;">S</text><text y="358" x="253.07692307692307" text-anchor="middle" visibility="hidden" style="font-size: 13px;">D</text><text y="358" x="255.76923076923075" text-anchor="middle" visibility="hidden" style="font-size: 13px;">Y</text><text y="358" x="258.46153846153845" text-anchor="middle" visibility="hidden" style="font-size: 13px;">G</text><text y="358" x="261.15384615384613" text-anchor="middle" visibility="hidden" style="font-size: 13px;">D</text><text y="358" x="263.84615384615387" text-anchor="middle" visibility="hidden" style="font-size: 13px;">K</text><text y="358" x="266.53846153846155" text-anchor="middle" visibility="hidden" style="font-size: 13px;">L</text><text y="358" x="269.2307692307692" text-anchor="middle" visibility="hidden" style="font-size: 13px;">N</text><text y="358" x="271.9230769230769" text-anchor="middle" visibility="hidden" style="font-size: 13px;">M</text><text y="358" x="274.6153846153846" text-anchor="middle" visibility="hidden" style="font-size: 13px;">E</text><text y="358" x="277.3076923076923" text-anchor="middle" visibility="hidden" style="font-size: 13px;">L</text><text y="358" x="280" text-anchor="middle" visibility="hidden" style="font-size: 13px;">S</text><text y="358" x="282.6923076923077" text-anchor="middle" visibility="hidden" style="font-size: 13px;">E</text><text y="358" x="285.38461538461536" text-anchor="middle" visibility="hidden" style="font-size: 13px;">K</text><text y="358" x="288.07692307692304" text-anchor="middle" visibility="hidden" style="font-size: 13px;">Y</text><text y="358" x="290.7692307692308" text-anchor="middle" visibility="hidden" style="font-size: 13px;">K</text><text y="358" x="293.46153846153845" text-anchor="middle" visibility="hidden" style="font-size: 13px;">L</text><text y="358" x="296.15384615384613" text-anchor="middle" visibility="hidden" style="font-size: 13px;">D</text><text y="358" x="298.8461538461538" text-anchor="middle" visibility="hidden" style="font-size: 13px;">K</text><text y="358" x="301.53846153846155" text-anchor="middle" visibility="hidden" style="font-size: 13px;">E</text><text y="358" x="304.2307692307692" text-anchor="middle" visibility="hidden" style="font-size: 13px;">S</text><text y="358" x="306.9230769230769" text-anchor="middle" visibility="hidden" style="font-size: 13px;">Y</text><text y="358" x="309.6153846153846" text-anchor="middle" visibility="hidden" style="font-size: 13px;">P</text><text y="358" x="312.3076923076923" text-anchor="middle" visibility="hidden" style="font-size: 13px;">V</text><text y="358" x="315" text-anchor="middle" visibility="hidden" style="font-size: 13px;">F</text><text y="358" x="317.6923076923077" text-anchor="middle" visibility="hidden" style="font-size: 13px;">Y</text><text y="358" x="320.38461538461536" text-anchor="middle" visibility="hidden" style="font-size: 13px;">L</text><text y="358" x="323.0769230769231" text-anchor="middle" visibility="hidden" style="font-size: 13px;">F</text><text y="358" x="325.7692307692308" text-anchor="middle" visibility="hidden" style="font-size: 13px;">R</text><text y="358" x="328.46153846153845" text-anchor="middle" visibility="hidden" style="font-size: 13px;">D</text><text y="358" x="331.15384615384613" text-anchor="middle" visibility="hidden" style="font-size: 13px;">G</text><text y="358" x="333.84615384615387" text-anchor="middle" visibility="hidden" style="font-size: 13px;">D</text><text y="358" x="336.53846153846155" text-anchor="middle" visibility="hidden" style="font-size: 13px;">F</text><text y="358" x="339.2307692307692" text-anchor="middle" visibility="hidden" style="font-size: 13px;">E</text><text y="358" x="341.9230769230769" text-anchor="middle" visibility="hidden" style="font-size: 13px;">N</text><text y="358" x="344.61538461538464" text-anchor="middle" visibility="hidden" style="font-size: 13px;">P</text><text y="358" x="347.3076923076923" text-anchor="middle" visibility="hidden" style="font-size: 13px;">V</text><text y="358" x="350" text-anchor="middle" visibility="hidden" style="font-size: 13px;">P</text><text y="358" x="352.6923076923077" text-anchor="middle" visibility="hidden" style="font-size: 13px;">Y</text><text y="358" x="355.38461538461536" text-anchor="middle" visibility="hidden" style="font-size: 13px;">T</text><text y="358" x="358.07692307692304" text-anchor="middle" visibility="hidden" style="font-size: 13px;">G</text><text y="358" x="360.7692307692307" text-anchor="middle" visibility="hidden" style="font-size: 13px;">A</text><text y="358" x="363.4615384615385" text-anchor="middle" visibility="hidden" style="font-size: 13px;">V</text><text y="358" x="366.1538461538462" text-anchor="middle" visibility="hidden" style="font-size: 13px;">K</text><text y="358" x="368.84615384615387" text-anchor="middle" visibility="hidden" style="font-size: 13px;">V</text><text y="358" x="371.53846153846155" text-anchor="middle" visibility="hidden" style="font-size: 13px;">G</text><text y="358" x="374.2307692307692" text-anchor="middle" visibility="hidden" style="font-size: 13px;">A</text><text y="358" x="376.9230769230769" text-anchor="middle" visibility="hidden" style="font-size: 13px;">I</text><text y="358" x="379.6153846153846" text-anchor="middle" visibility="hidden" style="font-size: 13px;">Q</text><text y="358" x="382.30769230769226" text-anchor="middle" visibility="hidden" style="font-size: 13px;">R</text><text y="358" x="385.00000000000006" text-anchor="middle" visibility="hidden" style="font-size: 13px;">W</text><text y="358" x="387.69230769230774" text-anchor="middle" visibility="hidden" style="font-size: 13px;">L</text><text y="358" x="390.3846153846154" text-anchor="middle" visibility="hidden" style="font-size: 13px;">K</text><text y="358" x="393.0769230769231" text-anchor="middle" visibility="hidden" style="font-size: 13px;">G</text><text y="358" x="395.7692307692308" text-anchor="middle" visibility="hidden" style="font-size: 13px;">Q</text><text y="358" x="398.46153846153845" text-anchor="middle" visibility="hidden" style="font-size: 13px;">G</text><text y="358" x="401.15384615384613" text-anchor="middle" visibility="hidden" style="font-size: 13px;">V</text><text y="358" x="403.8461538461538" text-anchor="middle" visibility="hidden" style="font-size: 13px;">Y</text><text y="358" x="406.53846153846155" text-anchor="middle" visibility="hidden" style="font-size: 13px;">L</text><text y="358" x="409.2307692307692" text-anchor="middle" visibility="hidden" style="font-size: 13px;">G</text><text y="358" x="411.92307692307696" text-anchor="middle" visibility="hidden" style="font-size: 13px;">M</text><text y="358" x="414.61538461538464" text-anchor="middle" visibility="hidden" style="font-size: 13px;">P</text><text y="358" x="417.3076923076923" text-anchor="middle" visibility="hidden" style="font-size: 13px;">G</text><text y="358" x="420" text-anchor="middle" visibility="hidden" style="font-size: 13px;">C</text><text y="358" x="422.6923076923077" text-anchor="middle" visibility="hidden" style="font-size: 13px;">L</text><text y="358" x="425.38461538461536" text-anchor="middle" visibility="hidden" style="font-size: 13px;">P</text><text y="358" x="428.0769230769231" text-anchor="middle" visibility="hidden" style="font-size: 13px;">V</text><text y="358" x="430.7692307692308" text-anchor="middle" visibility="hidden" style="font-size: 13px;">Y</text><text y="358" x="433.46153846153845" text-anchor="middle" visibility="hidden" style="font-size: 13px;">D</text><text y="358" x="436.15384615384613" text-anchor="middle" visibility="hidden" style="font-size: 13px;">A</text><text y="358" x="438.84615384615387" text-anchor="middle" visibility="hidden" style="font-size: 13px;">L</text><text y="358" x="441.53846153846155" text-anchor="middle" visibility="hidden" style="font-size: 13px;">A</text><text y="358" x="444.2307692307692" text-anchor="middle" visibility="hidden" style="font-size: 13px;">G</text><text y="358" x="446.9230769230769" text-anchor="middle" visibility="hidden" style="font-size: 13px;">E</text><text y="358" x="449.61538461538464" text-anchor="middle" visibility="hidden" style="font-size: 13px;">F</text><text y="358" x="452.3076923076923" text-anchor="middle" visibility="hidden" style="font-size: 13px;">I</text><text y="358" x="455" text-anchor="middle" visibility="hidden" style="font-size: 13px;">R</text><text y="358" x="457.6923076923077" text-anchor="middle" visibility="hidden" style="font-size: 13px;">A</text><text y="358" x="460.38461538461536" text-anchor="middle" visibility="hidden" style="font-size: 13px;">S</text><text y="358" x="463.07692307692304" text-anchor="middle" visibility="hidden" style="font-size: 13px;">G</text><text y="358" x="465.7692307692308" text-anchor="middle" visibility="hidden" style="font-size: 13px;">V</text><text y="358" x="468.46153846153845" text-anchor="middle" visibility="hidden" style="font-size: 13px;">E</text><text y="358" x="471.1538461538462" text-anchor="middle" visibility="hidden" style="font-size: 13px;">A</text><text y="358" x="473.84615384615387" text-anchor="middle" visibility="hidden" style="font-size: 13px;">R</text><text y="358" x="476.53846153846155" text-anchor="middle" visibility="hidden" style="font-size: 13px;">Q</text><text y="358" x="479.2307692307692" text-anchor="middle" visibility="hidden" style="font-size: 13px;">A</text><text y="358" x="481.9230769230769" text-anchor="middle" visibility="hidden" style="font-size: 13px;">L</text><text y="358" x="484.6153846153846" text-anchor="middle" visibility="hidden" style="font-size: 13px;">L</text><text y="358" x="487.30769230769226" text-anchor="middle" visibility="hidden" style="font-size: 13px;">K</text><text y="358" x="489.99999999999994" text-anchor="middle" visibility="hidden" style="font-size: 13px;">Q</text><text y="358" x="492.69230769230774" text-anchor="middle" visibility="hidden" style="font-size: 13px;">G</text><text y="358" x="495.3846153846154" text-anchor="middle" visibility="hidden" style="font-size: 13px;">Q</text><text y="358" x="498.0769230769231" text-anchor="middle" visibility="hidden" style="font-size: 13px;">D</text><text y="358" x="500.7692307692308" text-anchor="middle" visibility="hidden" style="font-size: 13px;">N</text><text y="358" x="503.46153846153845" text-anchor="middle" visibility="hidden" style="font-size: 13px;">L</text><text y="358" x="506.15384615384613" text-anchor="middle" visibility="hidden" style="font-size: 13px;">S</text><text y="358" x="508.8461538461538" text-anchor="middle" visibility="hidden" style="font-size: 13px;">S</text><text y="358" x="511.5384615384615" text-anchor="middle" visibility="hidden" style="font-size: 13px;">V</text><text y="358" x="514.2307692307693" text-anchor="middle" visibility="hidden" style="font-size: 13px;">K</text><text y="358" x="516.9230769230769" text-anchor="middle" visibility="hidden" style="font-size: 13px;">E</text><text y="358" x="519.6153846153846" text-anchor="middle" visibility="hidden" style="font-size: 13px;">T</text><text y="358" x="522.3076923076923" text-anchor="middle" visibility="hidden" style="font-size: 13px;">Q</text><text y="358" x="525" text-anchor="middle" visibility="hidden" style="font-size: 13px;">K</text><text y="358" x="527.6923076923077" text-anchor="middle" visibility="hidden" style="font-size: 13px;">K</text><text y="358" x="530.3846153846154" text-anchor="middle" visibility="hidden" style="font-size: 13px;">W</text><text y="358" x="533.0769230769231" text-anchor="middle" visibility="hidden" style="font-size: 13px;">A</text><text y="358" x="535.7692307692307" text-anchor="middle" visibility="hidden" style="font-size: 13px;">E</text><text y="358" x="538.4615384615385" text-anchor="middle" visibility="hidden" style="font-size: 13px;">Q</text><text y="358" x="541.1538461538462" text-anchor="middle" visibility="hidden" style="font-size: 13px;">Y</text><text y="358" x="543.8461538461538" text-anchor="middle" visibility="hidden" style="font-size: 13px;">L</text><text y="358" x="546.5384615384615" text-anchor="middle" visibility="hidden" style="font-size: 13px;">K</text><text y="358" x="549.2307692307692" text-anchor="middle" visibility="hidden" style="font-size: 13px;">I</text><text y="358" x="551.9230769230769" text-anchor="middle" visibility="hidden" style="font-size: 13px;">M</text><text y="358" x="554.6153846153846" text-anchor="middle" visibility="hidden" style="font-size: 13px;">G</text><text y="358" x="557.3076923076923" text-anchor="middle" visibility="hidden" style="font-size: 13px;">K</text><text y="358" x="560" text-anchor="middle" visibility="hidden" style="font-size: 13px;">I</text><text y="358" x="562.6923076923077" text-anchor="middle" visibility="hidden" style="font-size: 13px;">L</text><text y="358" x="565.3846153846154" text-anchor="middle" visibility="hidden" style="font-size: 13px;">D</text><text y="358" x="568.0769230769231" text-anchor="middle" visibility="hidden" style="font-size: 13px;">Q</text><text y="358" x="570.7692307692307" text-anchor="middle" visibility="hidden" style="font-size: 13px;">G</text><text y="358" x="573.4615384615385" text-anchor="middle" visibility="hidden" style="font-size: 13px;">E</text><text y="358" x="576.1538461538461" text-anchor="middle" visibility="hidden" style="font-size: 13px;">D</text><text y="358" x="578.8461538461538" text-anchor="middle" visibility="hidden" style="font-size: 13px;">F</text><text y="358" x="581.5384615384615" text-anchor="middle" visibility="hidden" style="font-size: 13px;">P</text><text y="358" x="584.2307692307693" text-anchor="middle" visibility="hidden" style="font-size: 13px;">A</text><text y="358" x="586.9230769230769" text-anchor="middle" visibility="hidden" style="font-size: 13px;">S</text><text y="358" x="589.6153846153846" text-anchor="middle" visibility="hidden" style="font-size: 13px;">E</text><text y="358" x="592.3076923076923" text-anchor="middle" visibility="hidden" style="font-size: 13px;">M</text><text y="358" x="595" text-anchor="middle" visibility="hidden" style="font-size: 13px;">T</text><text y="358" x="597.6923076923076" text-anchor="middle" visibility="hidden" style="font-size: 13px;">R</text><text y="358" x="600.3846153846154" text-anchor="middle" visibility="hidden" style="font-size: 13px;">I</text><text y="358" x="603.0769230769231" text-anchor="middle" visibility="hidden" style="font-size: 13px;">A</text><text y="358" x="605.7692307692308" text-anchor="middle" visibility="hidden" style="font-size: 13px;">R</text><text y="358" x="608.4615384615385" text-anchor="middle" visibility="hidden" style="font-size: 13px;">L</text><text y="358" x="611.1538461538462" text-anchor="middle" visibility="hidden" style="font-size: 13px;">I</text><text y="358" x="613.8461538461538" text-anchor="middle" visibility="hidden" style="font-size: 13px;">E</text><text y="358" x="616.5384615384615" text-anchor="middle" visibility="hidden" style="font-size: 13px;">K</text><text y="358" x="619.2307692307692" text-anchor="middle" visibility="hidden" style="font-size: 13px;">N</text><text y="358" x="621.9230769230769" text-anchor="middle" visibility="hidden" style="font-size: 13px;">K</text><text y="358" x="624.6153846153846" text-anchor="middle" visibility="hidden" style="font-size: 13px;">M</text><text y="358" x="627.3076923076924" text-anchor="middle" visibility="hidden" style="font-size: 13px;">S</text><text y="358" x="630" text-anchor="middle" visibility="hidden" style="font-size: 13px;">D</text><text y="358" x="632.6923076923077" text-anchor="middle" visibility="hidden" style="font-size: 13px;">G</text><text y="358" x="635.3846153846154" text-anchor="middle" visibility="hidden" style="font-size: 13px;">K</text><text y="358" x="638.0769230769231" text-anchor="middle" visibility="hidden" style="font-size: 13px;">K</text><text y="358" x="640.7692307692307" text-anchor="middle" visibility="hidden" style="font-size: 13px;">E</text><text y="358" x="643.4615384615385" text-anchor="middle" visibility="hidden" style="font-size: 13px;">E</text><text y="358" x="646.1538461538462" text-anchor="middle" visibility="hidden" style="font-size: 13px;">L</text><text y="358" x="648.8461538461539" text-anchor="middle" visibility="hidden" style="font-size: 13px;">Q</text><text y="358" x="651.5384615384615" text-anchor="middle" visibility="hidden" style="font-size: 13px;">K</text><text y="358" x="654.2307692307693" text-anchor="middle" visibility="hidden" style="font-size: 13px;">S</text><text y="358" x="656.9230769230769" text-anchor="middle" visibility="hidden" style="font-size: 13px;">L</text><text y="358" x="659.6153846153846" text-anchor="middle" visibility="hidden" style="font-size: 13px;">N</text><text y="358" x="662.3076923076923" text-anchor="middle" visibility="hidden" style="font-size: 13px;">I</text><text y="358" x="665" text-anchor="middle" visibility="hidden" style="font-size: 13px;">L</text><text y="358" x="667.6923076923077" text-anchor="middle" visibility="hidden" style="font-size: 13px;">T</text><text y="358" x="670.3846153846154" text-anchor="middle" visibility="hidden" style="font-size: 13px;">A</text><text y="358" x="673.0769230769231" text-anchor="middle" visibility="hidden" style="font-size: 13px;">F</text><text y="358" x="675.7692307692308" text-anchor="middle" visibility="hidden" style="font-size: 13px;">Q</text><text y="358" x="678.4615384615385" text-anchor="middle" visibility="hidden" style="font-size: 13px;">K</text><text y="358" x="681.1538461538462" text-anchor="middle" visibility="hidden" style="font-size: 13px;">K</text><text y="358" x="683.8461538461538" text-anchor="middle" visibility="hidden" style="font-size: 13px;">G</text><text y="358" x="686.5384615384615" text-anchor="middle" visibility="hidden" style="font-size: 13px;">A</text><text y="358" x="689.2307692307693" text-anchor="middle" visibility="hidden" style="font-size: 13px;">E</text><text y="358" x="691.9230769230769" text-anchor="middle" visibility="hidden" style="font-size: 13px;">K</text><text y="358" x="694.6153846153846" text-anchor="middle" visibility="hidden" style="font-size: 13px;">E</text><text y="358" x="697.3076923076923" text-anchor="middle" visibility="hidden" style="font-size: 13px;">E</text><text y="358" x="700" text-anchor="middle" visibility="hidden" style="font-size: 13px;">L</text></g></g></svg><g class="xAxis" transform="translate(0,360)" fill="none" font-size="10" font-family="sans-serif" text-anchor="middle"><path class="domain" stroke="#000" d="M0.5,6V0.5H700.5V6"></path><g class="tick" opacity="1" transform="translate(51.65384615384615,0)"><line stroke="#000" y2="6"></line><text fill="#000" y="9" dy="0.71em">20</text></g><g class="tick" opacity="1" transform="translate(105.5,0)"><line stroke="#000" y2="6"></line><text fill="#000" y="9" dy="0.71em">40</text></g><g class="tick" opacity="1" transform="translate(159.34615384615384,0)"><line stroke="#000" y2="6"></line><text fill="#000" y="9" dy="0.71em">60</text></g><g class="tick" opacity="1" transform="translate(213.19230769230768,0)"><line stroke="#000" y2="6"></line><text fill="#000" y="9" dy="0.71em">80</text></g><g class="tick" opacity="1" transform="translate(267.03846153846155,0)"><line stroke="#000" y2="6"></line><text fill="#000" y="9" dy="0.71em">100</text></g><g class="tick" opacity="1" transform="translate(320.88461538461536,0)"><line stroke="#000" y2="6"></line><text fill="#000" y="9" dy="0.71em">120</text></g><g class="tick" opacity="1" transform="translate(374.7307692307692,0)"><line stroke="#000" y2="6"></line><text fill="#000" y="9" dy="0.71em">140</text></g><g class="tick" opacity="1" transform="translate(428.5769230769231,0)"><line stroke="#000" y2="6"></line><text fill="#000" y="9" dy="0.71em">160</text></g><g class="tick" opacity="1" transform="translate(482.4230769230769,0)"><line stroke="#000" y2="6"></line><text fill="#000" y="9" dy="0.71em">180</text></g><g class="tick" opacity="1" transform="translate(536.2692307692307,0)"><line stroke="#000" y2="6"></line><text fill="#000" y="9" dy="0.71em">200</text></g><g class="tick" opacity="1" transform="translate(590.1153846153846,0)"><line stroke="#000" y2="6"></line><text fill="#000" y="9" dy="0.71em">220</text></g><g class="tick" opacity="1" transform="translate(643.9615384615385,0)"><line stroke="#000" y2="6"></line><text fill="#000" y="9" dy="0.71em">240</text></g><g class="tick" opacity="1" transform="translate(697.8076923076923,0)"><line stroke="#000" y2="6"></line><text fill="#000" y="9" dy="0.71em">260</text></g></g><text class="x label" text-anchor="end" x="700" y="390" style="font-size: 13px; font-family: Arial;">Residue number</text><g class="yAxis" fill="none" font-size="10" font-family="sans-serif" text-anchor="end"><path class="domain" stroke="#000" d="M-6,360.5H0.5V0.5H-6"></path><g class="tick" opacity="1" transform="translate(0,327.77272727272725)"><line stroke="#000" x2="-6"></line><text fill="#000" x="-9" dy="0.32em">0</text></g><g class="tick" opacity="1" transform="translate(0,287.2385772513343)"><line stroke="#000" x2="-6"></line><text fill="#000" x="-9" dy="0.32em">50</text></g><g class="tick" opacity="1" transform="translate(0,246.70442722994125)"><line stroke="#000" x2="-6"></line><text fill="#000" x="-9" dy="0.32em">100</text></g><g class="tick" opacity="1" transform="translate(0,206.1702772085482)"><line stroke="#000" x2="-6"></line><text fill="#000" x="-9" dy="0.32em">150</text></g><g class="tick" opacity="1" transform="translate(0,165.63612718715515)"><line stroke="#000" x2="-6"></line><text fill="#000" x="-9" dy="0.32em">200</text></g><g class="tick" opacity="1" transform="translate(0,125.10197716576218)"><line stroke="#000" x2="-6"></line><text fill="#000" x="-9" dy="0.32em">250</text></g><g class="tick" opacity="1" transform="translate(0,84.56782714436912)"><line stroke="#000" x2="-6"></line><text fill="#000" x="-9" dy="0.32em">300</text></g><g class="tick" opacity="1" transform="translate(0,44.03367712297609)"><line stroke="#000" x2="-6"></line><text fill="#000" x="-9" dy="0.32em">350</text></g><g class="tick" opacity="1" transform="translate(0,3.499527101583112)"><line stroke="#000" x2="-6"></line><text fill="#000" x="-9" dy="0.32em">400</text></g></g><text class="y label" text-anchor="middle" y="-50" x="-180" dy="0.8em" transform="rotate(-90)" style="font-size: 13px; font-family: Arial;">Total number of references</text><g class="axisRed" fill="none" font-size="10" font-family="sans-serif" text-anchor="start" visibility="hidden" transform="translate(700, 0)"><path class="domain" stroke="#000" d="M6,360.5H0.5V0.5H6"></path><g class="tick" opacity="1" transform="translate(0,360.5)"><line stroke="#000" x2="6"></line><text fill="#000" x="9" dy="0.32em">0</text></g><text text-anchor="start" dx="5.2em" dy="-2.6em" transform="rotate(90)" visibility="hidden" style="font-size: 12px; font-family: Arial; fill: #d7301f;">No recurrent (&gt;2) missense mutations!</text></g><g class="axisPurple" fill="none" font-size="10" font-family="sans-serif" text-anchor="start" visibility="hidden"><path class="domain" stroke="#000" d="M6,360.5H0.5V0.5H6"></path><g class="tick" opacity="1" transform="translate(0,357.52479338842977)"><line stroke="#000" x2="6"></line><text fill="#000" x="9" dy="0.32em"></text></g><g class="tick" opacity="1" transform="translate(0,327.77272727272725)"><line stroke="#000" x2="6"></line><text fill="#000" x="9" dy="0.32em">0</text></g><g class="tick" opacity="1" transform="translate(0,298.0206611570248)"><line stroke="#000" x2="6"></line><text fill="#000" x="9" dy="0.32em">0.1</text></g><g class="tick" opacity="1" transform="translate(0,268.2685950413223)"><line stroke="#000" x2="6"></line><text fill="#000" x="9" dy="0.32em">0.2</text></g><g class="tick" opacity="1" transform="translate(0,238.51652892561984)"><line stroke="#000" x2="6"></line><text fill="#000" x="9" dy="0.32em">0.3</text></g><g class="tick" opacity="1" transform="translate(0,208.76446280991738)"><line stroke="#000" x2="6"></line><text fill="#000" x="9" dy="0.32em">0.4</text></g><g class="tick" opacity="1" transform="translate(0,179.0123966942149)"><line stroke="#000" x2="6"></line><text fill="#000" x="9" dy="0.32em">0.5</text></g><g class="tick" opacity="1" transform="translate(0,149.26033057851242)"><line stroke="#000" x2="6"></line><text fill="#000" x="9" dy="0.32em">0.6</text></g><g class="tick" opacity="1" transform="translate(0,119.50826446280996)"><line stroke="#000" x2="6"></line><text fill="#000" x="9" dy="0.32em">0.7</text></g><g class="tick" opacity="1" transform="translate(0,89.75619834710744)"><line stroke="#000" x2="6"></line><text fill="#000" x="9" dy="0.32em">0.8</text></g><g class="tick" opacity="1" transform="translate(0,60.00413223140498)"><line stroke="#000" x2="6"></line><text fill="#000" x="9" dy="0.32em">0.9</text></g><g class="tick" opacity="1" transform="translate(0,30.25206611570252)"><line stroke="#000" x2="6"></line><text fill="#000" x="9" dy="0.32em">1</text></g><g class="tick" opacity="1" transform="translate(0,0.5)"><line stroke="#000" x2="6"></line><text fill="#000" x="9" dy="0.32em">1.1</text></g><text text-anchor="start" x="10" y="10" visibility="hidden" style="font-size: 12px; font-family: Arial; fill: #807dba;">No disease causing germline SNPs known!</text></g><circle cx="636" cy="15" r="10" class="compassNav" style="fill: #ffffff; stroke: #666666; stroke-width: 1px;"></circle><path d="M440.935 12.574l3.966 82.766C399.416 41.904 331.674 8 256 8 134.813 8 33.933 94.924 12.296 209.824 10.908 217.193 16.604 224 24.103 224h49.084c5.57 0 10.377-3.842 11.676-9.259C103.407 137.408 172.931 80 256 80c60.893 0 114.512 30.856 146.104 77.801l-101.53-4.865c-6.845-.328-12.574 5.133-12.574 11.986v47.411c0 6.627 5.373 12 12 12h200.333c6.627 0 12-5.373 12-12V12c0-6.627-5.373-12-12-12h-47.411c-6.853 0-12.315 5.729-11.987 12.574zM256 432c-60.895 0-114.517-30.858-146.109-77.805l101.868 4.871c6.845.327 12.573-5.134 12.573-11.986v-47.412c0-6.627-5.373-12-12-12H12c-6.627 0-12 5.373-12 12V500c0 6.627 5.373 12 12 12h47.385c6.863 0 12.328-5.745 11.985-12.599l-4.129-82.575C112.725 470.166 180.405 504 256 504c121.187 0 222.067-86.924 243.704-201.824 1.388-7.369-4.308-14.176-11.807-14.176h-49.084c-5.57 0-10.377 3.842-11.676 9.259C408.593 374.592 339.069 432 256 432z" class="compassNav" transform="translate(631, 10) scale(0.02)" style="fill: #666666; stroke: #666666; stroke-width: 1px;"></path><circle cx="658" cy="15" r="10" class="compassNav" style="fill: #ffffff; stroke: #666666; stroke-width: 1px;"></circle><line class="compassNav" stroke-width="2" stroke="#666666" x1="654" y1="15" x2="662" y2="15"></line><line class="compassNav" stroke-width="2" stroke="#666666" x1="658" y1="11" x2="658" y2="19"></line><circle cx="614" cy="15" r="10" class="compassNav" style="fill: #ffffff; stroke: #666666; stroke-width: 1px;"></circle><line class="compassNav" stroke-width="2" stroke="#666666" x1="610" y1="15" x2="618" y2="15"></line><path d="M582 14 l20 -12 a100,40 0 0,0 0,24z" class="compassNav" style="fill: #ffffff; stroke: #666666; stroke-width: 1px;"></path><path d="M690 14 l-20 -12 a100,40 0 0,1 0,24z" class="compassNav" style="fill: #ffffff; stroke: #666666; stroke-width: 1px;"></path><path d="M216 0h80c13.3 0 24 10.7 24 24v168h87.7c17.8 0 26.7 21.5 14.1 34.1L269.7 378.3c-7.5 7.5-19.8 7.5-27.3 0L90.1 226.1c-12.6-12.6-3.7-34.1 14.1-34.1H192V24c0-13.3 10.7-24 24-24zm296 376v112c0 13.3-10.7 24-24 24H24c-13.3 0-24-10.7-24-24V376c0-13.3 10.7-24 24-24h146.7l49 49c20.1 20.1 52.5 20.1 72.6 0l49-49H488c13.3 0 24 10.7 24 24zm-124 88c0-11-9-20-20-20s-20 9-20 20 9 20 20 20 20-9 20-20zm64 0c0-11-9-20-20-20s-20 9-20 20 9 20 20 20 20-9 20-20z" class="compassNav" transform="translate(552,0) scale(0.05)" style="fill: #336699; stroke: #336699; stroke-width: 1px; cursor: pointer;"></path></g></svg>