<svg width="800" height="400" style="background-color: white;"><g transform="translate(50,0)"><svg width="700" height="360"><g style="-webkit-tap-highlight-color: rgba(0, 0, 0, 0);"><rect width="700" height="360" style="fill: #ffffff;"></rect><g id="lines"><line class="line" stroke-width="1" stroke="#d7301f" x1="-331.92488262910797" y1="333" x2="-331.92488262910797" y2="360" visibility="hidden" style="stroke-dasharray: 3px, 3px;"></line></g><g><rect x="-336.92488262910797" y="355" width="10" height="10" visibility="hidden" style="fill: #ffffff; stroke: #d7301f;"></rect></g><g id="lines"><line class="line" stroke-width="1" stroke="#6a51a3" x1="-331.92488262910797" y1="333" x2="-331.92488262910797" y2="327.27272727272725" visibility="hidden" style="stroke-dasharray: 3px, 3px;"></line></g><g><rect x="-336.92488262910797" y="322.27272727272725" width="10" height="10" visibility="hidden" style="fill: #ffffff; stroke: #6a51a3;"></rect></g><g id="lines"><line class="line" stroke-width="1" stroke="#666666" x1="108.4507042253521" y1="333" x2="108.4507042253521" y2="319.4432361896477"></line><line class="line" stroke-width="1" stroke="#666666" x1="184.03755868544602" y1="333" x2="184.03755868544602" y2="319.4432361896477"></line><line class="line" stroke-width="1" stroke="#666666" x1="239.906103286385" y1="333" x2="239.906103286385" y2="29.752066115702462"></line><line class="line" stroke-width="1" stroke="#666666" x1="239.906103286385" y1="333" x2="239.906103286385" y2="319.4432361896477"></line><line class="line" stroke-width="1" stroke="#666666" x1="239.906103286385" y1="333" x2="239.906103286385" y2="311.61374510656805"></line><line class="line" stroke-width="1" stroke="#666666" x1="243.1924882629108" y1="333" x2="243.1924882629108" y2="288.12527185732927"></line><line class="line" stroke-width="1" stroke="#666666" x1="243.1924882629108" y1="333" x2="243.1924882629108" y2="311.61374510656805"></line><line class="line" stroke-width="1" stroke="#666666" x1="243.1924882629108" y1="333" x2="243.1924882629108" y2="311.61374510656805"></line><line class="line" stroke-width="1" stroke="#666666" x1="269.4835680751174" y1="333" x2="269.4835680751174" y2="248.97781644193128"></line><line class="line" stroke-width="1" stroke="#666666" x1="269.4835680751174" y1="333" x2="269.4835680751174" y2="295.95476294040884"></line><line class="line" stroke-width="1" stroke="#666666" x1="269.4835680751174" y1="333" x2="269.4835680751174" y2="311.61374510656805"></line><line class="line" stroke-width="1" stroke="#666666" x1="276.056338028169" y1="333" x2="276.056338028169" y2="319.4432361896477"></line><line class="line" stroke-width="1" stroke="#666666" x1="279.34272300469485" y1="333" x2="279.34272300469485" y2="311.61374510656805"></line><line class="line" stroke-width="1" stroke="#666666" x1="315.4929577464789" y1="333" x2="315.4929577464789" y2="272.46628969117006"></line><line class="line" stroke-width="1" stroke="#666666" x1="328.63849765258215" y1="333" x2="328.63849765258215" y2="311.61374510656805"></line><line class="line" stroke-width="1" stroke="#666666" x1="331.92488262910797" y1="333" x2="331.92488262910797" y2="311.61374510656805"></line><line class="line" stroke-width="1" stroke="#666666" x1="377.9342723004695" y1="333" x2="377.9342723004695" y2="311.61374510656805"></line><line class="line" stroke-width="1" stroke="#666666" x1="377.9342723004695" y1="333" x2="377.9342723004695" y2="288.12527185732927"></line><line class="line" stroke-width="1" stroke="#666666" x1="377.9342723004695" y1="333" x2="377.9342723004695" y2="319.4432361896477"></line><line class="line" stroke-width="1" stroke="#666666" x1="384.50704225352115" y1="333" x2="384.50704225352115" y2="319.4432361896477"></line><line class="line" stroke-width="1" stroke="#666666" x1="476.52582159624416" y1="333" x2="476.52582159624416" y2="303.7842540234885"></line><line class="line" stroke-width="1" stroke="#666666" x1="519.2488262910798" y1="333" x2="519.2488262910798" y2="303.7842540234885"></line><line class="line" stroke-width="1" stroke="#666666" x1="548.8262910798122" y1="333" x2="548.8262910798122" y2="319.4432361896477"></line><line class="line" stroke-width="1" stroke="#666666" x1="558.6854460093897" y1="333" x2="558.6854460093897" y2="311.61374510656805"></line><line class="line" stroke-width="1" stroke="#666666" x1="594.8356807511738" y1="333" x2="594.8356807511738" y2="288.12527185732927"></line><line class="line" stroke-width="1" stroke="#666666" x1="611.2676056338028" y1="333" x2="611.2676056338028" y2="319.4432361896477"></line><line class="line" stroke-width="1" stroke="#666666" x1="611.2676056338028" y1="333" x2="611.2676056338028" y2="319.4432361896477"></line></g><g id="circles"><circle r="4" cx="108.4507042253521" cy="319.4432361896477" style="fill: #4393c3; stroke: #666666; stroke-width: 1px;"></circle><circle r="4" cx="184.03755868544602" cy="319.4432361896477" style="fill: #5aae61; stroke: #666666; stroke-width: 1px;"></circle><circle r="4" cx="239.906103286385" cy="29.752066115702462" style="fill: #5aae61; stroke: #666666; stroke-width: 1px;"></circle><circle r="4" cx="239.906103286385" cy="319.4432361896477" style="fill: #bf812d; stroke: #666666; stroke-width: 1px;"></circle><circle r="4" cx="239.906103286385" cy="311.61374510656805" style="fill: #666666; stroke: #666666; stroke-width: 1px;"></circle><circle r="4" cx="243.1924882629108" cy="288.12527185732927" style="fill: #5aae61; stroke: #666666; stroke-width: 1px;"></circle><circle r="4" cx="243.1924882629108" cy="311.61374510656805" style="fill: #bf812d; stroke: #666666; stroke-width: 1px;"></circle><circle r="4" cx="243.1924882629108" cy="311.61374510656805" style="fill: #666666; stroke: #666666; stroke-width: 1px;"></circle><circle r="4" cx="269.4835680751174" cy="248.97781644193128" style="fill: #5aae61; stroke: #666666; stroke-width: 1px;"></circle><circle r="4" cx="269.4835680751174" cy="295.95476294040884" style="fill: #bf812d; stroke: #666666; stroke-width: 1px;"></circle><circle r="4" cx="269.4835680751174" cy="311.61374510656805" style="fill: #666666; stroke: #666666; stroke-width: 1px;"></circle><circle r="4" cx="276.056338028169" cy="319.4432361896477" style="fill: #5aae61; stroke: #666666; stroke-width: 1px;"></circle><circle r="4" cx="279.34272300469485" cy="311.61374510656805" style="fill: #bf812d; stroke: #666666; stroke-width: 1px;"></circle><circle r="4" cx="315.4929577464789" cy="272.46628969117006" style="fill: #4393c3; stroke: #666666; stroke-width: 1px;"></circle><circle r="4" cx="328.63849765258215" cy="311.61374510656805" style="fill: #4393c3; stroke: #666666; stroke-width: 1px;"></circle><circle r="4" cx="331.92488262910797" cy="311.61374510656805" style="fill: #bf812d; stroke: #666666; stroke-width: 1px;"></circle><circle r="4" cx="377.9342723004695" cy="311.61374510656805" style="fill: #5aae61; stroke: #666666; stroke-width: 1px;"></circle><circle r="4" cx="377.9342723004695" cy="288.12527185732927" style="fill: #bf812d; stroke: #666666; stroke-width: 1px;"></circle><circle r="4" cx="377.9342723004695" cy="319.4432361896477" style="fill: #666666; stroke: #666666; stroke-width: 1px;"></circle><circle r="4" cx="384.50704225352115" cy="319.4432361896477" style="fill: #bf812d; stroke: #666666; stroke-width: 1px;"></circle><circle r="4" cx="476.52582159624416" cy="303.7842540234885" style="fill: #5aae61; stroke: #666666; stroke-width: 1px;"></circle><circle r="4" cx="519.2488262910798" cy="303.7842540234885" style="fill: #5aae61; stroke: #666666; stroke-width: 1px;"></circle><circle r="4" cx="548.8262910798122" cy="319.4432361896477" style="fill: #4393c3; stroke: #666666; stroke-width: 1px;"></circle><circle r="4" cx="558.6854460093897" cy="311.61374510656805" style="fill: #4393c3; stroke: #666666; stroke-width: 1px;"></circle><circle r="4" cx="594.8356807511738" cy="288.12527185732927" style="fill: #4393c3; stroke: #666666; stroke-width: 1px;"></circle><circle r="4" cx="611.2676056338028" cy="319.4432361896477" style="fill: #5aae61; stroke: #666666; stroke-width: 1px;"></circle><circle r="4" cx="611.2676056338028" cy="319.4432361896477" style="fill: #666666; stroke: #666666; stroke-width: 1px;"></circle></g><g><rect x="0" y="333" width="700" height="12" style="fill: #ffffff; stroke-width: 1px; stroke: #666666;"></rect><rect x="184.03755868544602" y="333" width="502.8169014084507" height="12" style="fill: #aec7e8; stroke-width: 1px; stroke: #666666;"></rect></g><g><a target="_blank" xlink:href="http://pfam.xfam.org/family/"><text y="343" x="350" text-anchor="middle" style="color: rgb(102, 102, 102); font-weight: normal; font-size: 12px; font-family: Arial; cursor: pointer;"></text></a><a target="_blank" xlink:href="http://pfam.xfam.org/family/Redoxin"><text y="343" x="435.44600938967136" text-anchor="middle" style="color: rgb(102, 102, 102); font-weight: normal; font-size: 12px; font-family: Arial; cursor: pointer;">Redoxin</text></a></g><g><text y="358" x="0" text-anchor="middle" visibility="hidden" style="font-size: 13px;">M</text><text y="358" x="3.2863849765258215" text-anchor="middle" visibility="hidden" style="font-size: 13px;">G</text><text y="358" x="6.572769953051643" text-anchor="middle" visibility="hidden" style="font-size: 13px;">L</text><text y="358" x="9.859154929577466" text-anchor="middle" visibility="hidden" style="font-size: 13px;">A</text><text y="358" x="13.145539906103286" text-anchor="middle" visibility="hidden" style="font-size: 13px;">G</text><text y="358" x="16.431924882629108" text-anchor="middle" visibility="hidden" style="font-size: 13px;">V</text><text y="358" x="19.71830985915493" text-anchor="middle" visibility="hidden" style="font-size: 13px;">C</text><text y="358" x="23.004694835680752" text-anchor="middle" visibility="hidden" style="font-size: 13px;">A</text><text y="358" x="26.291079812206572" text-anchor="middle" visibility="hidden" style="font-size: 13px;">L</text><text y="358" x="29.577464788732392" text-anchor="middle" visibility="hidden" style="font-size: 13px;">R</text><text y="358" x="32.863849765258216" text-anchor="middle" visibility="hidden" style="font-size: 13px;">R</text><text y="358" x="36.15023474178404" text-anchor="middle" visibility="hidden" style="font-size: 13px;">S</text><text y="358" x="39.43661971830986" text-anchor="middle" visibility="hidden" style="font-size: 13px;">A</text><text y="358" x="42.72300469483568" text-anchor="middle" visibility="hidden" style="font-size: 13px;">G</text><text y="358" x="46.009389671361504" text-anchor="middle" visibility="hidden" style="font-size: 13px;">Y</text><text y="358" x="49.29577464788733" text-anchor="middle" visibility="hidden" style="font-size: 13px;">I</text><text y="358" x="52.582159624413144" text-anchor="middle" visibility="hidden" style="font-size: 13px;">L</text><text y="358" x="55.86854460093897" text-anchor="middle" visibility="hidden" style="font-size: 13px;">V</text><text y="358" x="59.154929577464785" text-anchor="middle" visibility="hidden" style="font-size: 13px;">G</text><text y="358" x="62.44131455399061" text-anchor="middle" visibility="hidden" style="font-size: 13px;">G</text><text y="358" x="65.72769953051643" text-anchor="middle" visibility="hidden" style="font-size: 13px;">A</text><text y="358" x="69.01408450704226" text-anchor="middle" visibility="hidden" style="font-size: 13px;">G</text><text y="358" x="72.30046948356808" text-anchor="middle" visibility="hidden" style="font-size: 13px;">G</text><text y="358" x="75.5868544600939" text-anchor="middle" visibility="hidden" style="font-size: 13px;">Q</text><text y="358" x="78.87323943661973" text-anchor="middle" visibility="hidden" style="font-size: 13px;">S</text><text y="358" x="82.15962441314554" text-anchor="middle" visibility="hidden" style="font-size: 13px;">A</text><text y="358" x="85.44600938967136" text-anchor="middle" visibility="hidden" style="font-size: 13px;">A</text><text y="358" x="88.73239436619718" text-anchor="middle" visibility="hidden" style="font-size: 13px;">A</text><text y="358" x="92.01877934272301" text-anchor="middle" visibility="hidden" style="font-size: 13px;">A</text><text y="358" x="95.30516431924882" text-anchor="middle" visibility="hidden" style="font-size: 13px;">A</text><text y="358" x="98.59154929577466" text-anchor="middle" visibility="hidden" style="font-size: 13px;">R</text><text y="358" x="101.87793427230046" text-anchor="middle" visibility="hidden" style="font-size: 13px;">R</text><text y="358" x="105.16431924882629" text-anchor="middle" visibility="hidden" style="font-size: 13px;">Y</text><text y="358" x="108.4507042253521" text-anchor="middle" visibility="hidden" style="font-size: 13px;">S</text><text y="358" x="111.73708920187794" text-anchor="middle" visibility="hidden" style="font-size: 13px;">E</text><text y="358" x="115.02347417840376" text-anchor="middle" visibility="hidden" style="font-size: 13px;">G</text><text y="358" x="118.30985915492957" text-anchor="middle" visibility="hidden" style="font-size: 13px;">E</text><text y="358" x="121.5962441314554" text-anchor="middle" visibility="hidden" style="font-size: 13px;">W</text><text y="358" x="124.88262910798122" text-anchor="middle" visibility="hidden" style="font-size: 13px;">A</text><text y="358" x="128.16901408450704" text-anchor="middle" visibility="hidden" style="font-size: 13px;">S</text><text y="358" x="131.45539906103286" text-anchor="middle" visibility="hidden" style="font-size: 13px;">G</text><text y="358" x="134.7417840375587" text-anchor="middle" visibility="hidden" style="font-size: 13px;">G</text><text y="358" x="138.0281690140845" text-anchor="middle" visibility="hidden" style="font-size: 13px;">V</text><text y="358" x="141.31455399061034" text-anchor="middle" visibility="hidden" style="font-size: 13px;">R</text><text y="358" x="144.60093896713616" text-anchor="middle" visibility="hidden" style="font-size: 13px;">S</text><text y="358" x="147.88732394366198" text-anchor="middle" visibility="hidden" style="font-size: 13px;">F</text><text y="358" x="151.1737089201878" text-anchor="middle" visibility="hidden" style="font-size: 13px;">S</text><text y="358" x="154.4600938967136" text-anchor="middle" visibility="hidden" style="font-size: 13px;">R</text><text y="358" x="157.74647887323945" text-anchor="middle" visibility="hidden" style="font-size: 13px;">A</text><text y="358" x="161.03286384976525" text-anchor="middle" visibility="hidden" style="font-size: 13px;">A</text><text y="358" x="164.31924882629107" text-anchor="middle" visibility="hidden" style="font-size: 13px;">A</text><text y="358" x="167.6056338028169" text-anchor="middle" visibility="hidden" style="font-size: 13px;">A</text><text y="358" x="170.89201877934272" text-anchor="middle" visibility="hidden" style="font-size: 13px;">M</text><text y="358" x="174.17840375586854" text-anchor="middle" visibility="hidden" style="font-size: 13px;">A</text><text y="358" x="177.46478873239437" text-anchor="middle" visibility="hidden" style="font-size: 13px;">P</text><text y="358" x="180.7511737089202" text-anchor="middle" visibility="hidden" style="font-size: 13px;">I</text><text y="358" x="184.03755868544602" text-anchor="middle" visibility="hidden" style="font-size: 13px;">K</text><text y="358" x="187.3239436619718" text-anchor="middle" visibility="hidden" style="font-size: 13px;">V</text><text y="358" x="190.61032863849763" text-anchor="middle" visibility="hidden" style="font-size: 13px;">G</text><text y="358" x="193.8967136150235" text-anchor="middle" visibility="hidden" style="font-size: 13px;">D</text><text y="358" x="197.1830985915493" text-anchor="middle" visibility="hidden" style="font-size: 13px;">A</text><text y="358" x="200.46948356807513" text-anchor="middle" visibility="hidden" style="font-size: 13px;">I</text><text y="358" x="203.75586854460093" text-anchor="middle" visibility="hidden" style="font-size: 13px;">P</text><text y="358" x="207.04225352112675" text-anchor="middle" visibility="hidden" style="font-size: 13px;">A</text><text y="358" x="210.32863849765258" text-anchor="middle" visibility="hidden" style="font-size: 13px;">V</text><text y="358" x="213.61502347417843" text-anchor="middle" visibility="hidden" style="font-size: 13px;">E</text><text y="358" x="216.9014084507042" text-anchor="middle" visibility="hidden" style="font-size: 13px;">V</text><text y="358" x="220.18779342723005" text-anchor="middle" visibility="hidden" style="font-size: 13px;">F</text><text y="358" x="223.47417840375587" text-anchor="middle" visibility="hidden" style="font-size: 13px;">E</text><text y="358" x="226.7605633802817" text-anchor="middle" visibility="hidden" style="font-size: 13px;">G</text><text y="358" x="230.04694835680752" text-anchor="middle" visibility="hidden" style="font-size: 13px;">E</text><text y="358" x="233.33333333333331" text-anchor="middle" visibility="hidden" style="font-size: 13px;">P</text><text y="358" x="236.61971830985914" text-anchor="middle" visibility="hidden" style="font-size: 13px;">G</text><text y="358" x="239.906103286385" text-anchor="middle" visibility="hidden" style="font-size: 13px;">N</text><text y="358" x="243.1924882629108" text-anchor="middle" visibility="hidden" style="font-size: 13px;">K</text><text y="358" x="246.4788732394366" text-anchor="middle" visibility="hidden" style="font-size: 13px;">V</text><text y="358" x="249.76525821596243" text-anchor="middle" visibility="hidden" style="font-size: 13px;">N</text><text y="358" x="253.05164319248826" text-anchor="middle" visibility="hidden" style="font-size: 13px;">L</text><text y="358" x="256.3380281690141" text-anchor="middle" visibility="hidden" style="font-size: 13px;">A</text><text y="358" x="259.6244131455399" text-anchor="middle" visibility="hidden" style="font-size: 13px;">E</text><text y="358" x="262.9107981220657" text-anchor="middle" visibility="hidden" style="font-size: 13px;">L</text><text y="358" x="266.19718309859155" text-anchor="middle" visibility="hidden" style="font-size: 13px;">F</text><text y="358" x="269.4835680751174" text-anchor="middle" visibility="hidden" style="font-size: 13px;">K</text><text y="358" x="272.7699530516432" text-anchor="middle" visibility="hidden" style="font-size: 13px;">G</text><text y="358" x="276.056338028169" text-anchor="middle" visibility="hidden" style="font-size: 13px;">K</text><text y="358" x="279.34272300469485" text-anchor="middle" visibility="hidden" style="font-size: 13px;">K</text><text y="358" x="282.62910798122067" text-anchor="middle" visibility="hidden" style="font-size: 13px;">G</text><text y="358" x="285.9154929577465" text-anchor="middle" visibility="hidden" style="font-size: 13px;">V</text><text y="358" x="289.2018779342723" text-anchor="middle" visibility="hidden" style="font-size: 13px;">L</text><text y="358" x="292.4882629107981" text-anchor="middle" visibility="hidden" style="font-size: 13px;">F</text><text y="358" x="295.77464788732397" text-anchor="middle" visibility="hidden" style="font-size: 13px;">G</text><text y="358" x="299.0610328638498" text-anchor="middle" visibility="hidden" style="font-size: 13px;">V</text><text y="358" x="302.3474178403756" text-anchor="middle" visibility="hidden" style="font-size: 13px;">P</text><text y="358" x="305.6338028169014" text-anchor="middle" visibility="hidden" style="font-size: 13px;">G</text><text y="358" x="308.9201877934272" text-anchor="middle" visibility="hidden" style="font-size: 13px;">A</text><text y="358" x="312.206572769953" text-anchor="middle" visibility="hidden" style="font-size: 13px;">F</text><text y="358" x="315.4929577464789" text-anchor="middle" visibility="hidden" style="font-size: 13px;">T</text><text y="358" x="318.77934272300473" text-anchor="middle" visibility="hidden" style="font-size: 13px;">P</text><text y="358" x="322.0657276995305" text-anchor="middle" visibility="hidden" style="font-size: 13px;">G</text><text y="358" x="325.3521126760563" text-anchor="middle" visibility="hidden" style="font-size: 13px;">C</text><text y="358" x="328.63849765258215" text-anchor="middle" visibility="hidden" style="font-size: 13px;">S</text><text y="358" x="331.92488262910797" text-anchor="middle" visibility="hidden" style="font-size: 13px;">K</text><text y="358" x="335.2112676056338" text-anchor="middle" visibility="hidden" style="font-size: 13px;">T</text><text y="358" x="338.4976525821596" text-anchor="middle" visibility="hidden" style="font-size: 13px;">H</text><text y="358" x="341.78403755868544" text-anchor="middle" visibility="hidden" style="font-size: 13px;">L</text><text y="358" x="345.07042253521126" text-anchor="middle" visibility="hidden" style="font-size: 13px;">P</text><text y="358" x="348.3568075117371" text-anchor="middle" visibility="hidden" style="font-size: 13px;">G</text><text y="358" x="351.6431924882629" text-anchor="middle" visibility="hidden" style="font-size: 13px;">F</text><text y="358" x="354.92957746478874" text-anchor="middle" visibility="hidden" style="font-size: 13px;">V</text><text y="358" x="358.2159624413145" text-anchor="middle" visibility="hidden" style="font-size: 13px;">E</text><text y="358" x="361.5023474178404" text-anchor="middle" visibility="hidden" style="font-size: 13px;">Q</text><text y="358" x="364.78873239436615" text-anchor="middle" visibility="hidden" style="font-size: 13px;">A</text><text y="358" x="368.07511737089203" text-anchor="middle" visibility="hidden" style="font-size: 13px;">E</text><text y="358" x="371.36150234741785" text-anchor="middle" visibility="hidden" style="font-size: 13px;">A</text><text y="358" x="374.6478873239436" text-anchor="middle" visibility="hidden" style="font-size: 13px;">L</text><text y="358" x="377.9342723004695" text-anchor="middle" visibility="hidden" style="font-size: 13px;">K</text><text y="358" x="381.22065727699527" text-anchor="middle" visibility="hidden" style="font-size: 13px;">A</text><text y="358" x="384.50704225352115" text-anchor="middle" visibility="hidden" style="font-size: 13px;">K</text><text y="358" x="387.793427230047" text-anchor="middle" visibility="hidden" style="font-size: 13px;">G</text><text y="358" x="391.07981220657274" text-anchor="middle" visibility="hidden" style="font-size: 13px;">V</text><text y="358" x="394.3661971830986" text-anchor="middle" visibility="hidden" style="font-size: 13px;">Q</text><text y="358" x="397.6525821596244" text-anchor="middle" visibility="hidden" style="font-size: 13px;">V</text><text y="358" x="400.93896713615027" text-anchor="middle" visibility="hidden" style="font-size: 13px;">V</text><text y="358" x="404.22535211267603" text-anchor="middle" visibility="hidden" style="font-size: 13px;">A</text><text y="358" x="407.51173708920186" text-anchor="middle" visibility="hidden" style="font-size: 13px;">C</text><text y="358" x="410.79812206572774" text-anchor="middle" visibility="hidden" style="font-size: 13px;">L</text><text y="358" x="414.0845070422535" text-anchor="middle" visibility="hidden" style="font-size: 13px;">S</text><text y="358" x="417.37089201877933" text-anchor="middle" visibility="hidden" style="font-size: 13px;">V</text><text y="358" x="420.65727699530515" text-anchor="middle" visibility="hidden" style="font-size: 13px;">N</text><text y="358" x="423.943661971831" text-anchor="middle" visibility="hidden" style="font-size: 13px;">D</text><text y="358" x="427.23004694835686" text-anchor="middle" visibility="hidden" style="font-size: 13px;">A</text><text y="358" x="430.5164319248826" text-anchor="middle" visibility="hidden" style="font-size: 13px;">F</text><text y="358" x="433.8028169014084" text-anchor="middle" visibility="hidden" style="font-size: 13px;">V</text><text y="358" x="437.0892018779343" text-anchor="middle" visibility="hidden" style="font-size: 13px;">T</text><text y="358" x="440.3755868544601" text-anchor="middle" visibility="hidden" style="font-size: 13px;">G</text><text y="358" x="443.6619718309859" text-anchor="middle" visibility="hidden" style="font-size: 13px;">E</text><text y="358" x="446.94835680751174" text-anchor="middle" visibility="hidden" style="font-size: 13px;">W</text><text y="358" x="450.2347417840375" text-anchor="middle" visibility="hidden" style="font-size: 13px;">G</text><text y="358" x="453.5211267605634" text-anchor="middle" visibility="hidden" style="font-size: 13px;">R</text><text y="358" x="456.8075117370892" text-anchor="middle" visibility="hidden" style="font-size: 13px;">A</text><text y="358" x="460.09389671361504" text-anchor="middle" visibility="hidden" style="font-size: 13px;">H</text><text y="358" x="463.38028169014086" text-anchor="middle" visibility="hidden" style="font-size: 13px;">K</text><text y="358" x="466.66666666666663" text-anchor="middle" visibility="hidden" style="font-size: 13px;">A</text><text y="358" x="469.9530516431925" text-anchor="middle" visibility="hidden" style="font-size: 13px;">E</text><text y="358" x="473.2394366197183" text-anchor="middle" visibility="hidden" style="font-size: 13px;">G</text><text y="358" x="476.52582159624416" text-anchor="middle" visibility="hidden" style="font-size: 13px;">K</text><text y="358" x="479.81220657277" text-anchor="middle" visibility="hidden" style="font-size: 13px;">V</text><text y="358" x="483.09859154929575" text-anchor="middle" visibility="hidden" style="font-size: 13px;">R</text><text y="358" x="486.3849765258216" text-anchor="middle" visibility="hidden" style="font-size: 13px;">L</text><text y="358" x="489.6713615023474" text-anchor="middle" visibility="hidden" style="font-size: 13px;">L</text><text y="358" x="492.9577464788732" text-anchor="middle" visibility="hidden" style="font-size: 13px;">A</text><text y="358" x="496.2441314553991" text-anchor="middle" visibility="hidden" style="font-size: 13px;">D</text><text y="358" x="499.53051643192487" text-anchor="middle" visibility="hidden" style="font-size: 13px;">P</text><text y="358" x="502.81690140845075" text-anchor="middle" visibility="hidden" style="font-size: 13px;">T</text><text y="358" x="506.1032863849765" text-anchor="middle" visibility="hidden" style="font-size: 13px;">G</text><text y="358" x="509.38967136150234" text-anchor="middle" visibility="hidden" style="font-size: 13px;">A</text><text y="358" x="512.6760563380282" text-anchor="middle" visibility="hidden" style="font-size: 13px;">F</text><text y="358" x="515.962441314554" text-anchor="middle" visibility="hidden" style="font-size: 13px;">G</text><text y="358" x="519.2488262910798" text-anchor="middle" visibility="hidden" style="font-size: 13px;">K</text><text y="358" x="522.5352112676056" text-anchor="middle" visibility="hidden" style="font-size: 13px;">E</text><text y="358" x="525.8215962441315" text-anchor="middle" visibility="hidden" style="font-size: 13px;">T</text><text y="358" x="529.1079812206573" text-anchor="middle" visibility="hidden" style="font-size: 13px;">D</text><text y="358" x="532.3943661971831" text-anchor="middle" visibility="hidden" style="font-size: 13px;">L</text><text y="358" x="535.6807511737089" text-anchor="middle" visibility="hidden" style="font-size: 13px;">L</text><text y="358" x="538.9671361502348" text-anchor="middle" visibility="hidden" style="font-size: 13px;">L</text><text y="358" x="542.2535211267606" text-anchor="middle" visibility="hidden" style="font-size: 13px;">D</text><text y="358" x="545.5399061032864" text-anchor="middle" visibility="hidden" style="font-size: 13px;">D</text><text y="358" x="548.8262910798122" text-anchor="middle" visibility="hidden" style="font-size: 13px;">S</text><text y="358" x="552.112676056338" text-anchor="middle" visibility="hidden" style="font-size: 13px;">L</text><text y="358" x="555.3990610328639" text-anchor="middle" visibility="hidden" style="font-size: 13px;">V</text><text y="358" x="558.6854460093897" text-anchor="middle" visibility="hidden" style="font-size: 13px;">S</text><text y="358" x="561.9718309859155" text-anchor="middle" visibility="hidden" style="font-size: 13px;">I</text><text y="358" x="565.2582159624413" text-anchor="middle" visibility="hidden" style="font-size: 13px;">F</text><text y="358" x="568.544600938967" text-anchor="middle" visibility="hidden" style="font-size: 13px;">G</text><text y="358" x="571.830985915493" text-anchor="middle" visibility="hidden" style="font-size: 13px;">N</text><text y="358" x="575.1173708920188" text-anchor="middle" visibility="hidden" style="font-size: 13px;">R</text><text y="358" x="578.4037558685446" text-anchor="middle" visibility="hidden" style="font-size: 13px;">R</text><text y="358" x="581.6901408450705" text-anchor="middle" visibility="hidden" style="font-size: 13px;">L</text><text y="358" x="584.9765258215962" text-anchor="middle" visibility="hidden" style="font-size: 13px;">K</text><text y="358" x="588.2629107981221" text-anchor="middle" visibility="hidden" style="font-size: 13px;">R</text><text y="358" x="591.5492957746479" text-anchor="middle" visibility="hidden" style="font-size: 13px;">F</text><text y="358" x="594.8356807511738" text-anchor="middle" visibility="hidden" style="font-size: 13px;">S</text><text y="358" x="598.1220657276996" text-anchor="middle" visibility="hidden" style="font-size: 13px;">M</text><text y="358" x="601.4084507042253" text-anchor="middle" visibility="hidden" style="font-size: 13px;">V</text><text y="358" x="604.6948356807512" text-anchor="middle" visibility="hidden" style="font-size: 13px;">V</text><text y="358" x="607.9812206572769" text-anchor="middle" visibility="hidden" style="font-size: 13px;">Q</text><text y="358" x="611.2676056338028" text-anchor="middle" visibility="hidden" style="font-size: 13px;">D</text><text y="358" x="614.5539906103287" text-anchor="middle" visibility="hidden" style="font-size: 13px;">G</text><text y="358" x="617.8403755868544" text-anchor="middle" visibility="hidden" style="font-size: 13px;">I</text><text y="358" x="621.1267605633803" text-anchor="middle" visibility="hidden" style="font-size: 13px;">V</text><text y="358" x="624.413145539906" text-anchor="middle" visibility="hidden" style="font-size: 13px;">K</text><text y="358" x="627.6995305164319" text-anchor="middle" visibility="hidden" style="font-size: 13px;">A</text><text y="358" x="630.9859154929578" text-anchor="middle" visibility="hidden" style="font-size: 13px;">L</text><text y="358" x="634.2723004694835" text-anchor="middle" visibility="hidden" style="font-size: 13px;">N</text><text y="358" x="637.5586854460095" text-anchor="middle" visibility="hidden" style="font-size: 13px;">V</text><text y="358" x="640.8450704225352" text-anchor="middle" visibility="hidden" style="font-size: 13px;">E</text><text y="358" x="644.131455399061" text-anchor="middle" visibility="hidden" style="font-size: 13px;">P</text><text y="358" x="647.4178403755868" text-anchor="middle" visibility="hidden" style="font-size: 13px;">D</text><text y="358" x="650.7042253521126" text-anchor="middle" visibility="hidden" style="font-size: 13px;">G</text><text y="358" x="653.9906103286386" text-anchor="middle" visibility="hidden" style="font-size: 13px;">T</text><text y="358" x="657.2769953051643" text-anchor="middle" visibility="hidden" style="font-size: 13px;">G</text><text y="358" x="660.5633802816901" text-anchor="middle" visibility="hidden" style="font-size: 13px;">L</text><text y="358" x="663.8497652582159" text-anchor="middle" visibility="hidden" style="font-size: 13px;">T</text><text y="358" x="667.1361502347418" text-anchor="middle" visibility="hidden" style="font-size: 13px;">C</text><text y="358" x="670.4225352112676" text-anchor="middle" visibility="hidden" style="font-size: 13px;">S</text><text y="358" x="673.7089201877934" text-anchor="middle" visibility="hidden" style="font-size: 13px;">L</text><text y="358" x="676.9953051643192" text-anchor="middle" visibility="hidden" style="font-size: 13px;">A</text><text y="358" x="680.2816901408451" text-anchor="middle" visibility="hidden" style="font-size: 13px;">P</text><text y="358" x="683.5680751173709" text-anchor="middle" visibility="hidden" style="font-size: 13px;">N</text><text y="358" x="686.8544600938967" text-anchor="middle" visibility="hidden" style="font-size: 13px;">I</text><text y="358" x="690.1408450704225" text-anchor="middle" visibility="hidden" style="font-size: 13px;">I</text><text y="358" x="693.4272300469484" text-anchor="middle" visibility="hidden" style="font-size: 13px;">S</text><text y="358" x="696.7136150234742" text-anchor="middle" visibility="hidden" style="font-size: 13px;">Q</text><text y="358" x="700" text-anchor="middle" visibility="hidden" style="font-size: 13px;">L</text></g></g></svg><g class="xAxis" transform="translate(0,360)" fill="none" font-size="10" font-family="sans-serif" text-anchor="middle"><path class="domain" stroke="#000" d="M0.5,6V0.5H700.5V6"></path><g class="tick" opacity="1" transform="translate(62.94131455399061,0)"><line stroke="#000" y2="6"></line><text fill="#000" y="9" dy="0.71em">20</text></g><g class="tick" opacity="1" transform="translate(128.66901408450704,0)"><line stroke="#000" y2="6"></line><text fill="#000" y="9" dy="0.71em">40</text></g><g class="tick" opacity="1" transform="translate(194.3967136150235,0)"><line stroke="#000" y2="6"></line><text fill="#000" y="9" dy="0.71em">60</text></g><g class="tick" opacity="1" transform="translate(260.1244131455399,0)"><line stroke="#000" y2="6"></line><text fill="#000" y="9" dy="0.71em">80</text></g><g class="tick" opacity="1" transform="translate(325.8521126760563,0)"><line stroke="#000" y2="6"></line><text fill="#000" y="9" dy="0.71em">100</text></g><g class="tick" opacity="1" transform="translate(391.57981220657274,0)"><line stroke="#000" y2="6"></line><text fill="#000" y="9" dy="0.71em">120</text></g><g class="tick" opacity="1" transform="translate(457.3075117370892,0)"><line stroke="#000" y2="6"></line><text fill="#000" y="9" dy="0.71em">140</text></g><g class="tick" opacity="1" transform="translate(523.0352112676056,0)"><line stroke="#000" y2="6"></line><text fill="#000" y="9" dy="0.71em">160</text></g><g class="tick" opacity="1" transform="translate(588.7629107981221,0)"><line stroke="#000" y2="6"></line><text fill="#000" y="9" dy="0.71em">180</text></g><g class="tick" opacity="1" transform="translate(654.4906103286386,0)"><line stroke="#000" y2="6"></line><text fill="#000" y="9" dy="0.71em">200</text></g></g><text class="x label" text-anchor="end" x="700" y="390" style="font-size: 13px; font-family: Arial;">Residue number</text><g class="yAxis" fill="none" font-size="10" font-family="sans-serif" text-anchor="end"><path class="domain" stroke="#000" d="M-6,360.5H0.5V0.5H-6"></path><g class="tick" opacity="1" transform="translate(0,327.77272727272725)"><line stroke="#000" x2="-6"></line><text fill="#000" x="-9" dy="0.32em">0</text></g><g class="tick" opacity="1" transform="translate(0,288.62527185732927)"><line stroke="#000" x2="-6"></line><text fill="#000" x="-9" dy="0.32em">5</text></g><g class="tick" opacity="1" transform="translate(0,249.47781644193128)"><line stroke="#000" x2="-6"></line><text fill="#000" x="-9" dy="0.32em">10</text></g><g class="tick" opacity="1" transform="translate(0,210.33036102653327)"><line stroke="#000" x2="-6"></line><text fill="#000" x="-9" dy="0.32em">15</text></g><g class="tick" opacity="1" transform="translate(0,171.18290561113528)"><line stroke="#000" x2="-6"></line><text fill="#000" x="-9" dy="0.32em">20</text></g><g class="tick" opacity="1" transform="translate(0,132.03545019573724)"><line stroke="#000" x2="-6"></line><text fill="#000" x="-9" dy="0.32em">25</text></g><g class="tick" opacity="1" transform="translate(0,92.88799478033928)"><line stroke="#000" x2="-6"></line><text fill="#000" x="-9" dy="0.32em">30</text></g><g class="tick" opacity="1" transform="translate(0,53.74053936494124)"><line stroke="#000" x2="-6"></line><text fill="#000" x="-9" dy="0.32em">35</text></g><g class="tick" opacity="1" transform="translate(0,14.593083949543256)"><line stroke="#000" x2="-6"></line><text fill="#000" x="-9" dy="0.32em">40</text></g></g><text class="y label" text-anchor="middle" y="-50" x="-180" dy="0.8em" transform="rotate(-90)" style="font-size: 13px; font-family: Arial;">Total number of references</text><g class="axisRed" fill="none" font-size="10" font-family="sans-serif" text-anchor="start" visibility="hidden" transform="translate(700, 0)"><path class="domain" stroke="#000" d="M6,360.5H0.5V0.5H6"></path><g class="tick" opacity="1" transform="translate(0,360.5)"><line stroke="#000" x2="6"></line><text fill="#000" x="9" dy="0.32em">0</text></g><text text-anchor="start" dx="5.2em" dy="-2.6em" transform="rotate(90)" visibility="hidden" style="font-size: 12px; font-family: Arial; fill: #d7301f;">No recurrent (&gt;2) missense mutations!</text></g><g class="axisPurple" fill="none" font-size="10" font-family="sans-serif" text-anchor="start" visibility="hidden"><path class="domain" stroke="#000" d="M6,360.5H0.5V0.5H6"></path><g class="tick" opacity="1" transform="translate(0,357.52479338842977)"><line stroke="#000" x2="6"></line><text fill="#000" x="9" dy="0.32em"></text></g><g class="tick" opacity="1" transform="translate(0,327.77272727272725)"><line stroke="#000" x2="6"></line><text fill="#000" x="9" dy="0.32em">0</text></g><g class="tick" opacity="1" transform="translate(0,298.0206611570248)"><line stroke="#000" x2="6"></line><text fill="#000" x="9" dy="0.32em">0.1</text></g><g class="tick" opacity="1" transform="translate(0,268.2685950413223)"><line stroke="#000" x2="6"></line><text fill="#000" x="9" dy="0.32em">0.2</text></g><g class="tick" opacity="1" transform="translate(0,238.51652892561984)"><line stroke="#000" x2="6"></line><text fill="#000" x="9" dy="0.32em">0.3</text></g><g class="tick" opacity="1" transform="translate(0,208.76446280991738)"><line stroke="#000" x2="6"></line><text fill="#000" x="9" dy="0.32em">0.4</text></g><g class="tick" opacity="1" transform="translate(0,179.0123966942149)"><line stroke="#000" x2="6"></line><text fill="#000" x="9" dy="0.32em">0.5</text></g><g class="tick" opacity="1" transform="translate(0,149.26033057851242)"><line stroke="#000" x2="6"></line><text fill="#000" x="9" dy="0.32em">0.6</text></g><g class="tick" opacity="1" transform="translate(0,119.50826446280996)"><line stroke="#000" x2="6"></line><text fill="#000" x="9" dy="0.32em">0.7</text></g><g class="tick" opacity="1" transform="translate(0,89.75619834710744)"><line stroke="#000" x2="6"></line><text fill="#000" x="9" dy="0.32em">0.8</text></g><g class="tick" opacity="1" transform="translate(0,60.00413223140498)"><line stroke="#000" x2="6"></line><text fill="#000" x="9" dy="0.32em">0.9</text></g><g class="tick" opacity="1" transform="translate(0,30.25206611570252)"><line stroke="#000" x2="6"></line><text fill="#000" x="9" dy="0.32em">1</text></g><g class="tick" opacity="1" transform="translate(0,0.5)"><line stroke="#000" x2="6"></line><text fill="#000" x="9" dy="0.32em">1.1</text></g><text text-anchor="start" x="10" y="10" visibility="hidden" style="font-size: 12px; font-family: Arial; fill: #807dba;">No disease causing germline SNPs known!</text></g><circle cx="636" cy="15" r="10" class="compassNav" style="fill: #ffffff; stroke: #666666; stroke-width: 1px;"></circle><path d="M440.935 12.574l3.966 82.766C399.416 41.904 331.674 8 256 8 134.813 8 33.933 94.924 12.296 209.824 10.908 217.193 16.604 224 24.103 224h49.084c5.57 0 10.377-3.842 11.676-9.259C103.407 137.408 172.931 80 256 80c60.893 0 114.512 30.856 146.104 77.801l-101.53-4.865c-6.845-.328-12.574 5.133-12.574 11.986v47.411c0 6.627 5.373 12 12 12h200.333c6.627 0 12-5.373 12-12V12c0-6.627-5.373-12-12-12h-47.411c-6.853 0-12.315 5.729-11.987 12.574zM256 432c-60.895 0-114.517-30.858-146.109-77.805l101.868 4.871c6.845.327 12.573-5.134 12.573-11.986v-47.412c0-6.627-5.373-12-12-12H12c-6.627 0-12 5.373-12 12V500c0 6.627 5.373 12 12 12h47.385c6.863 0 12.328-5.745 11.985-12.599l-4.129-82.575C112.725 470.166 180.405 504 256 504c121.187 0 222.067-86.924 243.704-201.824 1.388-7.369-4.308-14.176-11.807-14.176h-49.084c-5.57 0-10.377 3.842-11.676 9.259C408.593 374.592 339.069 432 256 432z" class="compassNav" transform="translate(631, 10) scale(0.02)" style="fill: #666666; stroke: #666666; stroke-width: 1px;"></path><circle cx="658" cy="15" r="10" class="compassNav" style="fill: #ffffff; stroke: #666666; stroke-width: 1px;"></circle><line class="compassNav" stroke-width="2" stroke="#666666" x1="654" y1="15" x2="662" y2="15"></line><line class="compassNav" stroke-width="2" stroke="#666666" x1="658" y1="11" x2="658" y2="19"></line><circle cx="614" cy="15" r="10" class="compassNav" style="fill: #ffffff; stroke: #666666; stroke-width: 1px;"></circle><line class="compassNav" stroke-width="2" stroke="#666666" x1="610" y1="15" x2="618" y2="15"></line><path d="M582 14 l20 -12 a100,40 0 0,0 0,24z" class="compassNav" style="fill: #ffffff; stroke: #666666; stroke-width: 1px;"></path><path d="M690 14 l-20 -12 a100,40 0 0,1 0,24z" class="compassNav" style="fill: #ffffff; stroke: #666666; stroke-width: 1px;"></path><path d="M216 0h80c13.3 0 24 10.7 24 24v168h87.7c17.8 0 26.7 21.5 14.1 34.1L269.7 378.3c-7.5 7.5-19.8 7.5-27.3 0L90.1 226.1c-12.6-12.6-3.7-34.1 14.1-34.1H192V24c0-13.3 10.7-24 24-24zm296 376v112c0 13.3-10.7 24-24 24H24c-13.3 0-24-10.7-24-24V376c0-13.3 10.7-24 24-24h146.7l49 49c20.1 20.1 52.5 20.1 72.6 0l49-49H488c13.3 0 24 10.7 24 24zm-124 88c0-11-9-20-20-20s-20 9-20 20 9 20 20 20 20-9 20-20zm64 0c0-11-9-20-20-20s-20 9-20 20 9 20 20 20 20-9 20-20z" class="compassNav" transform="translate(552,0) scale(0.05)" style="fill: #336699; stroke: #336699; stroke-width: 1px; cursor: pointer;"></path></g></svg>