<svg width="800" height="400" style="background-color: white;"><g transform="translate(50,0)"><svg width="700" height="360"><g style="-webkit-tap-highlight-color: rgba(0, 0, 0, 0);"><rect width="700" height="360" style="fill: #ffffff;"></rect><g id="lines"><line class="line" stroke-width="1" stroke="#d7301f" x1="-228.80258899676375" y1="333" x2="-228.80258899676375" y2="360" visibility="hidden" style="stroke-dasharray: 3px, 3px;"></line></g><g><rect x="-233.80258899676375" y="355" width="10" height="10" visibility="hidden" style="fill: #ffffff; stroke: #d7301f;"></rect></g><g id="lines"><line class="line" stroke-width="1" stroke="#6a51a3" x1="-228.80258899676375" y1="333" x2="-228.80258899676375" y2="327.27272727272725" visibility="hidden" style="stroke-dasharray: 3px, 3px;"></line></g><g><rect x="-233.80258899676375" y="322.27272727272725" width="10" height="10" visibility="hidden" style="fill: #ffffff; stroke: #6a51a3;"></rect></g><g id="lines"><line class="line" stroke-width="1" stroke="#666666" x1="405.50161812297733" y1="333" x2="405.50161812297733" y2="284.7697756788666"></line><line class="line" stroke-width="1" stroke="#666666" x1="548.2200647249191" y1="333" x2="548.2200647249191" y2="284.7697756788666"></line><line class="line" stroke-width="1" stroke="#666666" x1="555.0161812297735" y1="333" x2="555.0161812297735" y2="284.7697756788666"></line><line class="line" stroke-width="1" stroke="#666666" x1="564.0776699029126" y1="333" x2="564.0776699029126" y2="284.7697756788666"></line><line class="line" stroke-width="1" stroke="#666666" x1="570.8737864077669" y1="333" x2="570.8737864077669" y2="284.7697756788666"></line><line class="line" stroke-width="1" stroke="#666666" x1="622.9773462783171" y1="333" x2="622.9773462783171" y2="284.7697756788666"></line><line class="line" stroke-width="1" stroke="#666666" x1="659.2233009708738" y1="333" x2="659.2233009708738" y2="29.75206611570252"></line><line class="line" stroke-width="1" stroke="#666666" x1="661.4886731391585" y1="333" x2="661.4886731391585" y2="242.2668240850059"></line><line class="line" stroke-width="1" stroke="#666666" x1="668.2847896440129" y1="333" x2="668.2847896440129" y2="284.7697756788666"></line></g><g id="circles"><circle r="4" cx="405.50161812297733" cy="284.7697756788666" style="fill: #666666; stroke: #666666; stroke-width: 1px;"></circle><circle r="4" cx="548.2200647249191" cy="284.7697756788666" style="fill: #4393c3; stroke: #666666; stroke-width: 1px;"></circle><circle r="4" cx="555.0161812297735" cy="284.7697756788666" style="fill: #4393c3; stroke: #666666; stroke-width: 1px;"></circle><circle r="4" cx="564.0776699029126" cy="284.7697756788666" style="fill: #bf812d; stroke: #666666; stroke-width: 1px;"></circle><circle r="4" cx="570.8737864077669" cy="284.7697756788666" style="fill: #4393c3; stroke: #666666; stroke-width: 1px;"></circle><circle r="4" cx="622.9773462783171" cy="284.7697756788666" style="fill: #4393c3; stroke: #666666; stroke-width: 1px;"></circle><circle r="4" cx="659.2233009708738" cy="29.75206611570252" style="fill: #4393c3; stroke: #666666; stroke-width: 1px;"></circle><circle r="4" cx="661.4886731391585" cy="242.2668240850059" style="fill: #4393c3; stroke: #666666; stroke-width: 1px;"></circle><circle r="4" cx="668.2847896440129" cy="284.7697756788666" style="fill: #bf812d; stroke: #666666; stroke-width: 1px;"></circle></g><g><rect x="0" y="333" width="700" height="12" style="fill: #ffffff; stroke-width: 1px; stroke: #666666;"></rect><rect x="108.7378640776699" y="333" width="178.96440129449843" height="12" style="fill: #aec7e8; stroke-width: 1px; stroke: #666666;"></rect><rect x="296.76375404530745" y="333" width="185.76051779935278" height="12" style="fill: #aec7e8; stroke-width: 1px; stroke: #666666;"></rect><rect x="491.5857605177993" y="333" width="49.83818770226543" height="12" style="fill: #ffbb78; stroke-width: 1px; stroke: #666666;"></rect></g><g><a target="_blank" xlink:href="http://pfam.xfam.org/family/"><text y="343" x="350" text-anchor="middle" style="color: rgb(102, 102, 102); font-weight: normal; font-size: 12px; font-family: Arial; cursor: pointer;"></text></a><a target="_blank" xlink:href="http://pfam.xfam.org/family/Ig_2"><text y="343" x="198.2200647249191" text-anchor="middle" style="color: rgb(102, 102, 102); font-weight: normal; font-size: 12px; font-family: Arial; cursor: pointer;">Ig_2</text></a><a target="_blank" xlink:href="http://pfam.xfam.org/family/Ig_2"><text y="343" x="389.64401294498384" text-anchor="middle" style="color: rgb(102, 102, 102); font-weight: normal; font-size: 12px; font-family: Arial; cursor: pointer;">Ig_2</text></a><a target="_blank" xlink:href="http://pfam.xfam.org/family/TM"><text y="343" x="516.504854368932" text-anchor="middle" style="color: rgb(102, 102, 102); font-weight: normal; font-size: 12px; font-family: Arial; cursor: pointer;">TM</text></a></g><g><text y="358" x="0" text-anchor="middle" visibility="hidden" style="font-size: 13px;">M</text><text y="358" x="2.26537216828479" text-anchor="middle" visibility="hidden" style="font-size: 13px;">G</text><text y="358" x="4.53074433656958" text-anchor="middle" visibility="hidden" style="font-size: 13px;">I</text><text y="358" x="6.796116504854369" text-anchor="middle" visibility="hidden" style="font-size: 13px;">L</text><text y="358" x="9.06148867313916" text-anchor="middle" visibility="hidden" style="font-size: 13px;">S</text><text y="358" x="11.326860841423947" text-anchor="middle" visibility="hidden" style="font-size: 13px;">F</text><text y="358" x="13.592233009708737" text-anchor="middle" visibility="hidden" style="font-size: 13px;">L</text><text y="358" x="15.857605177993529" text-anchor="middle" visibility="hidden" style="font-size: 13px;">P</text><text y="358" x="18.12297734627832" text-anchor="middle" visibility="hidden" style="font-size: 13px;">V</text><text y="358" x="20.388349514563107" text-anchor="middle" visibility="hidden" style="font-size: 13px;">L</text><text y="358" x="22.653721682847895" text-anchor="middle" visibility="hidden" style="font-size: 13px;">A</text><text y="358" x="24.919093851132686" text-anchor="middle" visibility="hidden" style="font-size: 13px;">T</text><text y="358" x="27.184466019417474" text-anchor="middle" visibility="hidden" style="font-size: 13px;">E</text><text y="358" x="29.449838187702266" text-anchor="middle" visibility="hidden" style="font-size: 13px;">S</text><text y="358" x="31.715210355987058" text-anchor="middle" visibility="hidden" style="font-size: 13px;">D</text><text y="358" x="33.980582524271846" text-anchor="middle" visibility="hidden" style="font-size: 13px;">W</text><text y="358" x="36.24595469255664" text-anchor="middle" visibility="hidden" style="font-size: 13px;">A</text><text y="358" x="38.51132686084142" text-anchor="middle" visibility="hidden" style="font-size: 13px;">D</text><text y="358" x="40.77669902912621" text-anchor="middle" visibility="hidden" style="font-size: 13px;">C</text><text y="358" x="43.042071197411005" text-anchor="middle" visibility="hidden" style="font-size: 13px;">K</text><text y="358" x="45.30744336569579" text-anchor="middle" visibility="hidden" style="font-size: 13px;">S</text><text y="358" x="47.57281553398058" text-anchor="middle" visibility="hidden" style="font-size: 13px;">P</text><text y="358" x="49.83818770226537" text-anchor="middle" visibility="hidden" style="font-size: 13px;">Q</text><text y="358" x="52.103559870550164" text-anchor="middle" visibility="hidden" style="font-size: 13px;">P</text><text y="358" x="54.36893203883495" text-anchor="middle" visibility="hidden" style="font-size: 13px;">W</text><text y="358" x="56.63430420711974" text-anchor="middle" visibility="hidden" style="font-size: 13px;">G</text><text y="358" x="58.89967637540453" text-anchor="middle" visibility="hidden" style="font-size: 13px;">H</text><text y="358" x="61.16504854368932" text-anchor="middle" visibility="hidden" style="font-size: 13px;">M</text><text y="358" x="63.430420711974115" text-anchor="middle" visibility="hidden" style="font-size: 13px;">L</text><text y="358" x="65.69579288025889" text-anchor="middle" visibility="hidden" style="font-size: 13px;">L</text><text y="358" x="67.96116504854369" text-anchor="middle" visibility="hidden" style="font-size: 13px;">W</text><text y="358" x="70.22653721682848" text-anchor="middle" visibility="hidden" style="font-size: 13px;">T</text><text y="358" x="72.49190938511327" text-anchor="middle" visibility="hidden" style="font-size: 13px;">A</text><text y="358" x="74.75728155339806" text-anchor="middle" visibility="hidden" style="font-size: 13px;">V</text><text y="358" x="77.02265372168284" text-anchor="middle" visibility="hidden" style="font-size: 13px;">L</text><text y="358" x="79.28802588996764" text-anchor="middle" visibility="hidden" style="font-size: 13px;">F</text><text y="358" x="81.55339805825243" text-anchor="middle" visibility="hidden" style="font-size: 13px;">L</text><text y="358" x="83.81877022653721" text-anchor="middle" visibility="hidden" style="font-size: 13px;">A</text><text y="358" x="86.08414239482201" text-anchor="middle" visibility="hidden" style="font-size: 13px;">P</text><text y="358" x="88.3495145631068" text-anchor="middle" visibility="hidden" style="font-size: 13px;">V</text><text y="358" x="90.61488673139158" text-anchor="middle" visibility="hidden" style="font-size: 13px;">A</text><text y="358" x="92.88025889967638" text-anchor="middle" visibility="hidden" style="font-size: 13px;">G</text><text y="358" x="95.14563106796116" text-anchor="middle" visibility="hidden" style="font-size: 13px;">T</text><text y="358" x="97.41100323624596" text-anchor="middle" visibility="hidden" style="font-size: 13px;">P</text><text y="358" x="99.67637540453075" text-anchor="middle" visibility="hidden" style="font-size: 13px;">A</text><text y="358" x="101.94174757281553" text-anchor="middle" visibility="hidden" style="font-size: 13px;">A</text><text y="358" x="104.20711974110033" text-anchor="middle" visibility="hidden" style="font-size: 13px;">P</text><text y="358" x="106.47249190938511" text-anchor="middle" visibility="hidden" style="font-size: 13px;">P</text><text y="358" x="108.7378640776699" text-anchor="middle" visibility="hidden" style="font-size: 13px;">K</text><text y="358" x="111.0032362459547" text-anchor="middle" visibility="hidden" style="font-size: 13px;">A</text><text y="358" x="113.26860841423948" text-anchor="middle" visibility="hidden" style="font-size: 13px;">V</text><text y="358" x="115.53398058252428" text-anchor="middle" visibility="hidden" style="font-size: 13px;">L</text><text y="358" x="117.79935275080906" text-anchor="middle" visibility="hidden" style="font-size: 13px;">K</text><text y="358" x="120.06472491909385" text-anchor="middle" visibility="hidden" style="font-size: 13px;">L</text><text y="358" x="122.33009708737865" text-anchor="middle" visibility="hidden" style="font-size: 13px;">E</text><text y="358" x="124.59546925566343" text-anchor="middle" visibility="hidden" style="font-size: 13px;">P</text><text y="358" x="126.86084142394823" text-anchor="middle" visibility="hidden" style="font-size: 13px;">Q</text><text y="358" x="129.126213592233" text-anchor="middle" visibility="hidden" style="font-size: 13px;">W</text><text y="358" x="131.39158576051778" text-anchor="middle" visibility="hidden" style="font-size: 13px;">I</text><text y="358" x="133.6569579288026" text-anchor="middle" visibility="hidden" style="font-size: 13px;">N</text><text y="358" x="135.92233009708738" text-anchor="middle" visibility="hidden" style="font-size: 13px;">V</text><text y="358" x="138.18770226537217" text-anchor="middle" visibility="hidden" style="font-size: 13px;">L</text><text y="358" x="140.45307443365695" text-anchor="middle" visibility="hidden" style="font-size: 13px;">Q</text><text y="358" x="142.71844660194174" text-anchor="middle" visibility="hidden" style="font-size: 13px;">E</text><text y="358" x="144.98381877022655" text-anchor="middle" visibility="hidden" style="font-size: 13px;">D</text><text y="358" x="147.24919093851133" text-anchor="middle" visibility="hidden" style="font-size: 13px;">S</text><text y="358" x="149.51456310679612" text-anchor="middle" visibility="hidden" style="font-size: 13px;">V</text><text y="358" x="151.7799352750809" text-anchor="middle" visibility="hidden" style="font-size: 13px;">T</text><text y="358" x="154.0453074433657" text-anchor="middle" visibility="hidden" style="font-size: 13px;">L</text><text y="358" x="156.3106796116505" text-anchor="middle" visibility="hidden" style="font-size: 13px;">T</text><text y="358" x="158.57605177993528" text-anchor="middle" visibility="hidden" style="font-size: 13px;">C</text><text y="358" x="160.84142394822007" text-anchor="middle" visibility="hidden" style="font-size: 13px;">R</text><text y="358" x="163.10679611650485" text-anchor="middle" visibility="hidden" style="font-size: 13px;">G</text><text y="358" x="165.37216828478964" text-anchor="middle" visibility="hidden" style="font-size: 13px;">T</text><text y="358" x="167.63754045307442" text-anchor="middle" visibility="hidden" style="font-size: 13px;">H</text><text y="358" x="169.90291262135923" text-anchor="middle" visibility="hidden" style="font-size: 13px;">S</text><text y="358" x="172.16828478964402" text-anchor="middle" visibility="hidden" style="font-size: 13px;">P</text><text y="358" x="174.4336569579288" text-anchor="middle" visibility="hidden" style="font-size: 13px;">E</text><text y="358" x="176.6990291262136" text-anchor="middle" visibility="hidden" style="font-size: 13px;">S</text><text y="358" x="178.9644012944984" text-anchor="middle" visibility="hidden" style="font-size: 13px;">D</text><text y="358" x="181.22977346278316" text-anchor="middle" visibility="hidden" style="font-size: 13px;">S</text><text y="358" x="183.49514563106797" text-anchor="middle" visibility="hidden" style="font-size: 13px;">I</text><text y="358" x="185.76051779935275" text-anchor="middle" visibility="hidden" style="font-size: 13px;">Q</text><text y="358" x="188.0258899676375" text-anchor="middle" visibility="hidden" style="font-size: 13px;">W</text><text y="358" x="190.29126213592232" text-anchor="middle" visibility="hidden" style="font-size: 13px;">F</text><text y="358" x="192.55663430420714" text-anchor="middle" visibility="hidden" style="font-size: 13px;">H</text><text y="358" x="194.82200647249192" text-anchor="middle" visibility="hidden" style="font-size: 13px;">N</text><text y="358" x="197.08737864077668" text-anchor="middle" visibility="hidden" style="font-size: 13px;">G</text><text y="358" x="199.3527508090615" text-anchor="middle" visibility="hidden" style="font-size: 13px;">N</text><text y="358" x="201.6181229773463" text-anchor="middle" visibility="hidden" style="font-size: 13px;">L</text><text y="358" x="203.88349514563106" text-anchor="middle" visibility="hidden" style="font-size: 13px;">I</text><text y="358" x="206.14886731391584" text-anchor="middle" visibility="hidden" style="font-size: 13px;">P</text><text y="358" x="208.41423948220066" text-anchor="middle" visibility="hidden" style="font-size: 13px;">T</text><text y="358" x="210.6796116504854" text-anchor="middle" visibility="hidden" style="font-size: 13px;">H</text><text y="358" x="212.94498381877023" text-anchor="middle" visibility="hidden" style="font-size: 13px;">T</text><text y="358" x="215.21035598705504" text-anchor="middle" visibility="hidden" style="font-size: 13px;">Q</text><text y="358" x="217.4757281553398" text-anchor="middle" visibility="hidden" style="font-size: 13px;">P</text><text y="358" x="219.74110032362458" text-anchor="middle" visibility="hidden" style="font-size: 13px;">S</text><text y="358" x="222.0064724919094" text-anchor="middle" visibility="hidden" style="font-size: 13px;">Y</text><text y="358" x="224.2718446601942" text-anchor="middle" visibility="hidden" style="font-size: 13px;">R</text><text y="358" x="226.53721682847896" text-anchor="middle" visibility="hidden" style="font-size: 13px;">F</text><text y="358" x="228.80258899676375" text-anchor="middle" visibility="hidden" style="font-size: 13px;">K</text><text y="358" x="231.06796116504856" text-anchor="middle" visibility="hidden" style="font-size: 13px;">A</text><text y="358" x="233.33333333333331" text-anchor="middle" visibility="hidden" style="font-size: 13px;">N</text><text y="358" x="235.59870550161813" text-anchor="middle" visibility="hidden" style="font-size: 13px;">N</text><text y="358" x="237.8640776699029" text-anchor="middle" visibility="hidden" style="font-size: 13px;">N</text><text y="358" x="240.1294498381877" text-anchor="middle" visibility="hidden" style="font-size: 13px;">D</text><text y="358" x="242.39482200647248" text-anchor="middle" visibility="hidden" style="font-size: 13px;">S</text><text y="358" x="244.6601941747573" text-anchor="middle" visibility="hidden" style="font-size: 13px;">G</text><text y="358" x="246.92556634304205" text-anchor="middle" visibility="hidden" style="font-size: 13px;">E</text><text y="358" x="249.19093851132686" text-anchor="middle" visibility="hidden" style="font-size: 13px;">Y</text><text y="358" x="251.45631067961165" text-anchor="middle" visibility="hidden" style="font-size: 13px;">T</text><text y="358" x="253.72168284789646" text-anchor="middle" visibility="hidden" style="font-size: 13px;">C</text><text y="358" x="255.98705501618122" text-anchor="middle" visibility="hidden" style="font-size: 13px;">Q</text><text y="358" x="258.252427184466" text-anchor="middle" visibility="hidden" style="font-size: 13px;">T</text><text y="358" x="260.51779935275084" text-anchor="middle" visibility="hidden" style="font-size: 13px;">G</text><text y="358" x="262.78317152103557" text-anchor="middle" visibility="hidden" style="font-size: 13px;">Q</text><text y="358" x="265.0485436893204" text-anchor="middle" visibility="hidden" style="font-size: 13px;">T</text><text y="358" x="267.3139158576052" text-anchor="middle" visibility="hidden" style="font-size: 13px;">S</text><text y="358" x="269.5792880258899" text-anchor="middle" visibility="hidden" style="font-size: 13px;">L</text><text y="358" x="271.84466019417476" text-anchor="middle" visibility="hidden" style="font-size: 13px;">S</text><text y="358" x="274.11003236245955" text-anchor="middle" visibility="hidden" style="font-size: 13px;">D</text><text y="358" x="276.37540453074433" text-anchor="middle" visibility="hidden" style="font-size: 13px;">P</text><text y="358" x="278.6407766990291" text-anchor="middle" visibility="hidden" style="font-size: 13px;">V</text><text y="358" x="280.9061488673139" text-anchor="middle" visibility="hidden" style="font-size: 13px;">H</text><text y="358" x="283.17152103559874" text-anchor="middle" visibility="hidden" style="font-size: 13px;">L</text><text y="358" x="285.43689320388347" text-anchor="middle" visibility="hidden" style="font-size: 13px;">T</text><text y="358" x="287.7022653721683" text-anchor="middle" visibility="hidden" style="font-size: 13px;">V</text><text y="358" x="289.9676375404531" text-anchor="middle" visibility="hidden" style="font-size: 13px;">L</text><text y="358" x="292.2330097087378" text-anchor="middle" visibility="hidden" style="font-size: 13px;">S</text><text y="358" x="294.49838187702267" text-anchor="middle" visibility="hidden" style="font-size: 13px;">E</text><text y="358" x="296.76375404530745" text-anchor="middle" visibility="hidden" style="font-size: 13px;">W</text><text y="358" x="299.02912621359224" text-anchor="middle" visibility="hidden" style="font-size: 13px;">L</text><text y="358" x="301.294498381877" text-anchor="middle" visibility="hidden" style="font-size: 13px;">V</text><text y="358" x="303.5598705501618" text-anchor="middle" visibility="hidden" style="font-size: 13px;">L</text><text y="358" x="305.8252427184466" text-anchor="middle" visibility="hidden" style="font-size: 13px;">Q</text><text y="358" x="308.0906148867314" text-anchor="middle" visibility="hidden" style="font-size: 13px;">T</text><text y="358" x="310.35598705501616" text-anchor="middle" visibility="hidden" style="font-size: 13px;">P</text><text y="358" x="312.621359223301" text-anchor="middle" visibility="hidden" style="font-size: 13px;">H</text><text y="358" x="314.8867313915857" text-anchor="middle" visibility="hidden" style="font-size: 13px;">L</text><text y="358" x="317.15210355987057" text-anchor="middle" visibility="hidden" style="font-size: 13px;">E</text><text y="358" x="319.41747572815535" text-anchor="middle" visibility="hidden" style="font-size: 13px;">F</text><text y="358" x="321.68284789644014" text-anchor="middle" visibility="hidden" style="font-size: 13px;">Q</text><text y="358" x="323.9482200647249" text-anchor="middle" visibility="hidden" style="font-size: 13px;">E</text><text y="358" x="326.2135922330097" text-anchor="middle" visibility="hidden" style="font-size: 13px;">G</text><text y="358" x="328.4789644012945" text-anchor="middle" visibility="hidden" style="font-size: 13px;">E</text><text y="358" x="330.7443365695793" text-anchor="middle" visibility="hidden" style="font-size: 13px;">T</text><text y="358" x="333.00970873786406" text-anchor="middle" visibility="hidden" style="font-size: 13px;">I</text><text y="358" x="335.27508090614884" text-anchor="middle" visibility="hidden" style="font-size: 13px;">V</text><text y="358" x="337.54045307443363" text-anchor="middle" visibility="hidden" style="font-size: 13px;">L</text><text y="358" x="339.80582524271847" text-anchor="middle" visibility="hidden" style="font-size: 13px;">R</text><text y="358" x="342.07119741100325" text-anchor="middle" visibility="hidden" style="font-size: 13px;">C</text><text y="358" x="344.33656957928804" text-anchor="middle" visibility="hidden" style="font-size: 13px;">H</text><text y="358" x="346.6019417475728" text-anchor="middle" visibility="hidden" style="font-size: 13px;">S</text><text y="358" x="348.8673139158576" text-anchor="middle" visibility="hidden" style="font-size: 13px;">W</text><text y="358" x="351.1326860841424" text-anchor="middle" visibility="hidden" style="font-size: 13px;">K</text><text y="358" x="353.3980582524272" text-anchor="middle" visibility="hidden" style="font-size: 13px;">D</text><text y="358" x="355.66343042071196" text-anchor="middle" visibility="hidden" style="font-size: 13px;">K</text><text y="358" x="357.9288025889968" text-anchor="middle" visibility="hidden" style="font-size: 13px;">P</text><text y="358" x="360.19417475728153" text-anchor="middle" visibility="hidden" style="font-size: 13px;">L</text><text y="358" x="362.4595469255663" text-anchor="middle" visibility="hidden" style="font-size: 13px;">V</text><text y="358" x="364.72491909385116" text-anchor="middle" visibility="hidden" style="font-size: 13px;">K</text><text y="358" x="366.99029126213594" text-anchor="middle" visibility="hidden" style="font-size: 13px;">V</text><text y="358" x="369.25566343042067" text-anchor="middle" visibility="hidden" style="font-size: 13px;">T</text><text y="358" x="371.5210355987055" text-anchor="middle" visibility="hidden" style="font-size: 13px;">F</text><text y="358" x="373.7864077669903" text-anchor="middle" visibility="hidden" style="font-size: 13px;">F</text><text y="358" x="376.051779935275" text-anchor="middle" visibility="hidden" style="font-size: 13px;">Q</text><text y="358" x="378.31715210355986" text-anchor="middle" visibility="hidden" style="font-size: 13px;">N</text><text y="358" x="380.58252427184465" text-anchor="middle" visibility="hidden" style="font-size: 13px;">G</text><text y="358" x="382.8478964401295" text-anchor="middle" visibility="hidden" style="font-size: 13px;">K</text><text y="358" x="385.1132686084143" text-anchor="middle" visibility="hidden" style="font-size: 13px;">S</text><text y="358" x="387.378640776699" text-anchor="middle" visibility="hidden" style="font-size: 13px;">K</text><text y="358" x="389.64401294498384" text-anchor="middle" visibility="hidden" style="font-size: 13px;">K</text><text y="358" x="391.9093851132686" text-anchor="middle" visibility="hidden" style="font-size: 13px;">F</text><text y="358" x="394.17475728155335" text-anchor="middle" visibility="hidden" style="font-size: 13px;">S</text><text y="358" x="396.4401294498382" text-anchor="middle" visibility="hidden" style="font-size: 13px;">R</text><text y="358" x="398.705501618123" text-anchor="middle" visibility="hidden" style="font-size: 13px;">S</text><text y="358" x="400.97087378640776" text-anchor="middle" visibility="hidden" style="font-size: 13px;">D</text><text y="358" x="403.2362459546926" text-anchor="middle" visibility="hidden" style="font-size: 13px;">P</text><text y="358" x="405.50161812297733" text-anchor="middle" visibility="hidden" style="font-size: 13px;">N</text><text y="358" x="407.7669902912621" text-anchor="middle" visibility="hidden" style="font-size: 13px;">F</text><text y="358" x="410.03236245954696" text-anchor="middle" visibility="hidden" style="font-size: 13px;">S</text><text y="358" x="412.2977346278317" text-anchor="middle" visibility="hidden" style="font-size: 13px;">I</text><text y="358" x="414.5631067961165" text-anchor="middle" visibility="hidden" style="font-size: 13px;">P</text><text y="358" x="416.8284789644013" text-anchor="middle" visibility="hidden" style="font-size: 13px;">Q</text><text y="358" x="419.0938511326861" text-anchor="middle" visibility="hidden" style="font-size: 13px;">A</text><text y="358" x="421.3592233009708" text-anchor="middle" visibility="hidden" style="font-size: 13px;">N</text><text y="358" x="423.62459546925567" text-anchor="middle" visibility="hidden" style="font-size: 13px;">H</text><text y="358" x="425.88996763754045" text-anchor="middle" visibility="hidden" style="font-size: 13px;">S</text><text y="358" x="428.15533980582524" text-anchor="middle" visibility="hidden" style="font-size: 13px;">H</text><text y="358" x="430.4207119741101" text-anchor="middle" visibility="hidden" style="font-size: 13px;">S</text><text y="358" x="432.6860841423948" text-anchor="middle" visibility="hidden" style="font-size: 13px;">G</text><text y="358" x="434.9514563106796" text-anchor="middle" visibility="hidden" style="font-size: 13px;">D</text><text y="358" x="437.21682847896443" text-anchor="middle" visibility="hidden" style="font-size: 13px;">Y</text><text y="358" x="439.48220064724916" text-anchor="middle" visibility="hidden" style="font-size: 13px;">H</text><text y="358" x="441.747572815534" text-anchor="middle" visibility="hidden" style="font-size: 13px;">C</text><text y="358" x="444.0129449838188" text-anchor="middle" visibility="hidden" style="font-size: 13px;">T</text><text y="358" x="446.27831715210357" text-anchor="middle" visibility="hidden" style="font-size: 13px;">G</text><text y="358" x="448.5436893203884" text-anchor="middle" visibility="hidden" style="font-size: 13px;">N</text><text y="358" x="450.80906148867314" text-anchor="middle" visibility="hidden" style="font-size: 13px;">I</text><text y="358" x="453.0744336569579" text-anchor="middle" visibility="hidden" style="font-size: 13px;">G</text><text y="358" x="455.33980582524276" text-anchor="middle" visibility="hidden" style="font-size: 13px;">Y</text><text y="358" x="457.6051779935275" text-anchor="middle" visibility="hidden" style="font-size: 13px;">T</text><text y="358" x="459.8705501618123" text-anchor="middle" visibility="hidden" style="font-size: 13px;">L</text><text y="358" x="462.1359223300971" text-anchor="middle" visibility="hidden" style="font-size: 13px;">Y</text><text y="358" x="464.4012944983819" text-anchor="middle" visibility="hidden" style="font-size: 13px;">S</text><text y="358" x="466.66666666666663" text-anchor="middle" visibility="hidden" style="font-size: 13px;">S</text><text y="358" x="468.93203883495147" text-anchor="middle" visibility="hidden" style="font-size: 13px;">K</text><text y="358" x="471.19741100323625" text-anchor="middle" visibility="hidden" style="font-size: 13px;">P</text><text y="358" x="473.462783171521" text-anchor="middle" visibility="hidden" style="font-size: 13px;">V</text><text y="358" x="475.7281553398058" text-anchor="middle" visibility="hidden" style="font-size: 13px;">T</text><text y="358" x="477.9935275080906" text-anchor="middle" visibility="hidden" style="font-size: 13px;">I</text><text y="358" x="480.2588996763754" text-anchor="middle" visibility="hidden" style="font-size: 13px;">T</text><text y="358" x="482.52427184466023" text-anchor="middle" visibility="hidden" style="font-size: 13px;">V</text><text y="358" x="484.78964401294496" text-anchor="middle" visibility="hidden" style="font-size: 13px;">Q</text><text y="358" x="487.05501618122975" text-anchor="middle" visibility="hidden" style="font-size: 13px;">A</text><text y="358" x="489.3203883495146" text-anchor="middle" visibility="hidden" style="font-size: 13px;">P</text><text y="358" x="491.5857605177993" text-anchor="middle" visibility="hidden" style="font-size: 13px;">S</text><text y="358" x="493.8511326860841" text-anchor="middle" visibility="hidden" style="font-size: 13px;">S</text><text y="358" x="496.11650485436894" text-anchor="middle" visibility="hidden" style="font-size: 13px;">S</text><text y="358" x="498.3818770226537" text-anchor="middle" visibility="hidden" style="font-size: 13px;">P</text><text y="358" x="500.64724919093857" text-anchor="middle" visibility="hidden" style="font-size: 13px;">M</text><text y="358" x="502.9126213592233" text-anchor="middle" visibility="hidden" style="font-size: 13px;">G</text><text y="358" x="505.1779935275081" text-anchor="middle" visibility="hidden" style="font-size: 13px;">I</text><text y="358" x="507.4433656957929" text-anchor="middle" visibility="hidden" style="font-size: 13px;">I</text><text y="358" x="509.7087378640777" text-anchor="middle" visibility="hidden" style="font-size: 13px;">V</text><text y="358" x="511.97411003236243" text-anchor="middle" visibility="hidden" style="font-size: 13px;">A</text><text y="358" x="514.2394822006473" text-anchor="middle" visibility="hidden" style="font-size: 13px;">V</text><text y="358" x="516.504854368932" text-anchor="middle" visibility="hidden" style="font-size: 13px;">V</text><text y="358" x="518.7702265372168" text-anchor="middle" visibility="hidden" style="font-size: 13px;">T</text><text y="358" x="521.0355987055017" text-anchor="middle" visibility="hidden" style="font-size: 13px;">G</text><text y="358" x="523.3009708737864" text-anchor="middle" visibility="hidden" style="font-size: 13px;">I</text><text y="358" x="525.5663430420711" text-anchor="middle" visibility="hidden" style="font-size: 13px;">A</text><text y="358" x="527.831715210356" text-anchor="middle" visibility="hidden" style="font-size: 13px;">V</text><text y="358" x="530.0970873786408" text-anchor="middle" visibility="hidden" style="font-size: 13px;">A</text><text y="358" x="532.3624595469255" text-anchor="middle" visibility="hidden" style="font-size: 13px;">A</text><text y="358" x="534.6278317152104" text-anchor="middle" visibility="hidden" style="font-size: 13px;">I</text><text y="358" x="536.8932038834952" text-anchor="middle" visibility="hidden" style="font-size: 13px;">V</text><text y="358" x="539.1585760517798" text-anchor="middle" visibility="hidden" style="font-size: 13px;">A</text><text y="358" x="541.4239482200647" text-anchor="middle" visibility="hidden" style="font-size: 13px;">A</text><text y="358" x="543.6893203883495" text-anchor="middle" visibility="hidden" style="font-size: 13px;">V</text><text y="358" x="545.9546925566343" text-anchor="middle" visibility="hidden" style="font-size: 13px;">V</text><text y="358" x="548.2200647249191" text-anchor="middle" visibility="hidden" style="font-size: 13px;">A</text><text y="358" x="550.4854368932039" text-anchor="middle" visibility="hidden" style="font-size: 13px;">L</text><text y="358" x="552.7508090614887" text-anchor="middle" visibility="hidden" style="font-size: 13px;">I</text><text y="358" x="555.0161812297735" text-anchor="middle" visibility="hidden" style="font-size: 13px;">Y</text><text y="358" x="557.2815533980582" text-anchor="middle" visibility="hidden" style="font-size: 13px;">C</text><text y="358" x="559.5469255663431" text-anchor="middle" visibility="hidden" style="font-size: 13px;">R</text><text y="358" x="561.8122977346278" text-anchor="middle" visibility="hidden" style="font-size: 13px;">K</text><text y="358" x="564.0776699029126" text-anchor="middle" visibility="hidden" style="font-size: 13px;">K</text><text y="358" x="566.3430420711975" text-anchor="middle" visibility="hidden" style="font-size: 13px;">R</text><text y="358" x="568.6084142394822" text-anchor="middle" visibility="hidden" style="font-size: 13px;">I</text><text y="358" x="570.8737864077669" text-anchor="middle" visibility="hidden" style="font-size: 13px;">S</text><text y="358" x="573.1391585760518" text-anchor="middle" visibility="hidden" style="font-size: 13px;">A</text><text y="358" x="575.4045307443366" text-anchor="middle" visibility="hidden" style="font-size: 13px;">L</text><text y="358" x="577.6699029126213" text-anchor="middle" visibility="hidden" style="font-size: 13px;">P</text><text y="358" x="579.9352750809062" text-anchor="middle" visibility="hidden" style="font-size: 13px;">G</text><text y="358" x="582.200647249191" text-anchor="middle" visibility="hidden" style="font-size: 13px;">Y</text><text y="358" x="584.4660194174756" text-anchor="middle" visibility="hidden" style="font-size: 13px;">P</text><text y="358" x="586.7313915857605" text-anchor="middle" visibility="hidden" style="font-size: 13px;">E</text><text y="358" x="588.9967637540453" text-anchor="middle" visibility="hidden" style="font-size: 13px;">C</text><text y="358" x="591.2621359223301" text-anchor="middle" visibility="hidden" style="font-size: 13px;">R</text><text y="358" x="593.5275080906149" text-anchor="middle" visibility="hidden" style="font-size: 13px;">E</text><text y="358" x="595.7928802588997" text-anchor="middle" visibility="hidden" style="font-size: 13px;">M</text><text y="358" x="598.0582524271845" text-anchor="middle" visibility="hidden" style="font-size: 13px;">G</text><text y="358" x="600.3236245954693" text-anchor="middle" visibility="hidden" style="font-size: 13px;">E</text><text y="358" x="602.588996763754" text-anchor="middle" visibility="hidden" style="font-size: 13px;">T</text><text y="358" x="604.8543689320388" text-anchor="middle" visibility="hidden" style="font-size: 13px;">L</text><text y="358" x="607.1197411003236" text-anchor="middle" visibility="hidden" style="font-size: 13px;">P</text><text y="358" x="609.3851132686084" text-anchor="middle" visibility="hidden" style="font-size: 13px;">E</text><text y="358" x="611.6504854368932" text-anchor="middle" visibility="hidden" style="font-size: 13px;">K</text><text y="358" x="613.915857605178" text-anchor="middle" visibility="hidden" style="font-size: 13px;">P</text><text y="358" x="616.1812297734627" text-anchor="middle" visibility="hidden" style="font-size: 13px;">A</text><text y="358" x="618.4466019417476" text-anchor="middle" visibility="hidden" style="font-size: 13px;">N</text><text y="358" x="620.7119741100323" text-anchor="middle" visibility="hidden" style="font-size: 13px;">P</text><text y="358" x="622.9773462783171" text-anchor="middle" visibility="hidden" style="font-size: 13px;">T</text><text y="358" x="625.242718446602" text-anchor="middle" visibility="hidden" style="font-size: 13px;">N</text><text y="358" x="627.5080906148868" text-anchor="middle" visibility="hidden" style="font-size: 13px;">P</text><text y="358" x="629.7734627831715" text-anchor="middle" visibility="hidden" style="font-size: 13px;">D</text><text y="358" x="632.0388349514564" text-anchor="middle" visibility="hidden" style="font-size: 13px;">E</text><text y="358" x="634.3042071197411" text-anchor="middle" visibility="hidden" style="font-size: 13px;">A</text><text y="358" x="636.5695792880259" text-anchor="middle" visibility="hidden" style="font-size: 13px;">D</text><text y="358" x="638.8349514563107" text-anchor="middle" visibility="hidden" style="font-size: 13px;">K</text><text y="358" x="641.1003236245955" text-anchor="middle" visibility="hidden" style="font-size: 13px;">V</text><text y="358" x="643.3656957928803" text-anchor="middle" visibility="hidden" style="font-size: 13px;">G</text><text y="358" x="645.6310679611651" text-anchor="middle" visibility="hidden" style="font-size: 13px;">A</text><text y="358" x="647.8964401294498" text-anchor="middle" visibility="hidden" style="font-size: 13px;">E</text><text y="358" x="650.1618122977346" text-anchor="middle" visibility="hidden" style="font-size: 13px;">N</text><text y="358" x="652.4271844660194" text-anchor="middle" visibility="hidden" style="font-size: 13px;">T</text><text y="358" x="654.6925566343042" text-anchor="middle" visibility="hidden" style="font-size: 13px;">I</text><text y="358" x="656.957928802589" text-anchor="middle" visibility="hidden" style="font-size: 13px;">T</text><text y="358" x="659.2233009708738" text-anchor="middle" visibility="hidden" style="font-size: 13px;">Y</text><text y="358" x="661.4886731391585" text-anchor="middle" visibility="hidden" style="font-size: 13px;">S</text><text y="358" x="663.7540453074433" text-anchor="middle" visibility="hidden" style="font-size: 13px;">L</text><text y="358" x="666.0194174757281" text-anchor="middle" visibility="hidden" style="font-size: 13px;">L</text><text y="358" x="668.2847896440129" text-anchor="middle" visibility="hidden" style="font-size: 13px;">M</text><text y="358" x="670.5501618122977" text-anchor="middle" visibility="hidden" style="font-size: 13px;">H</text><text y="358" x="672.8155339805826" text-anchor="middle" visibility="hidden" style="font-size: 13px;">P</text><text y="358" x="675.0809061488673" text-anchor="middle" visibility="hidden" style="font-size: 13px;">D</text><text y="358" x="677.3462783171522" text-anchor="middle" visibility="hidden" style="font-size: 13px;">A</text><text y="358" x="679.6116504854369" text-anchor="middle" visibility="hidden" style="font-size: 13px;">L</text><text y="358" x="681.8770226537216" text-anchor="middle" visibility="hidden" style="font-size: 13px;">E</text><text y="358" x="684.1423948220065" text-anchor="middle" visibility="hidden" style="font-size: 13px;">E</text><text y="358" x="686.4077669902913" text-anchor="middle" visibility="hidden" style="font-size: 13px;">P</text><text y="358" x="688.6731391585761" text-anchor="middle" visibility="hidden" style="font-size: 13px;">D</text><text y="358" x="690.9385113268609" text-anchor="middle" visibility="hidden" style="font-size: 13px;">D</text><text y="358" x="693.2038834951456" text-anchor="middle" visibility="hidden" style="font-size: 13px;">Q</text><text y="358" x="695.4692556634304" text-anchor="middle" visibility="hidden" style="font-size: 13px;">N</text><text y="358" x="697.7346278317152" text-anchor="middle" visibility="hidden" style="font-size: 13px;">R</text><text y="358" x="700" text-anchor="middle" visibility="hidden" style="font-size: 13px;">I</text></g></g></svg><g class="xAxis" transform="translate(0,360)" fill="none" font-size="10" font-family="sans-serif" text-anchor="middle"><path class="domain" stroke="#000" d="M0.5,6V0.5H700.5V6"></path><g class="tick" opacity="1" transform="translate(43.542071197411005,0)"><line stroke="#000" y2="6"></line><text fill="#000" y="9" dy="0.71em">20</text></g><g class="tick" opacity="1" transform="translate(88.8495145631068,0)"><line stroke="#000" y2="6"></line><text fill="#000" y="9" dy="0.71em">40</text></g><g class="tick" opacity="1" transform="translate(134.1569579288026,0)"><line stroke="#000" y2="6"></line><text fill="#000" y="9" dy="0.71em">60</text></g><g class="tick" opacity="1" transform="translate(179.4644012944984,0)"><line stroke="#000" y2="6"></line><text fill="#000" y="9" dy="0.71em">80</text></g><g class="tick" opacity="1" transform="translate(224.7718446601942,0)"><line stroke="#000" y2="6"></line><text fill="#000" y="9" dy="0.71em">100</text></g><g class="tick" opacity="1" transform="translate(270.0792880258899,0)"><line stroke="#000" y2="6"></line><text fill="#000" y="9" dy="0.71em">120</text></g><g class="tick" opacity="1" transform="translate(315.3867313915857,0)"><line stroke="#000" y2="6"></line><text fill="#000" y="9" dy="0.71em">140</text></g><g class="tick" opacity="1" transform="translate(360.69417475728153,0)"><line stroke="#000" y2="6"></line><text fill="#000" y="9" dy="0.71em">160</text></g><g class="tick" opacity="1" transform="translate(406.00161812297733,0)"><line stroke="#000" y2="6"></line><text fill="#000" y="9" dy="0.71em">180</text></g><g class="tick" opacity="1" transform="translate(451.30906148867314,0)"><line stroke="#000" y2="6"></line><text fill="#000" y="9" dy="0.71em">200</text></g><g class="tick" opacity="1" transform="translate(496.61650485436894,0)"><line stroke="#000" y2="6"></line><text fill="#000" y="9" dy="0.71em">220</text></g><g class="tick" opacity="1" transform="translate(541.9239482200647,0)"><line stroke="#000" y2="6"></line><text fill="#000" y="9" dy="0.71em">240</text></g><g class="tick" opacity="1" transform="translate(587.2313915857605,0)"><line stroke="#000" y2="6"></line><text fill="#000" y="9" dy="0.71em">260</text></g><g class="tick" opacity="1" transform="translate(632.5388349514564,0)"><line stroke="#000" y2="6"></line><text fill="#000" y="9" dy="0.71em">280</text></g><g class="tick" opacity="1" transform="translate(677.8462783171522,0)"><line stroke="#000" y2="6"></line><text fill="#000" y="9" dy="0.71em">300</text></g></g><text class="x label" text-anchor="end" x="700" y="390" style="font-size: 13px; font-family: Arial;">Residue number</text><g class="yAxis" fill="none" font-size="10" font-family="sans-serif" text-anchor="end"><path class="domain" stroke="#000" d="M-6,360.5H0.5V0.5H-6"></path><g class="tick" opacity="1" transform="translate(0,327.77272727272725)"><line stroke="#000" x2="-6"></line><text fill="#000" x="-9" dy="0.32em">0</text></g><g class="tick" opacity="1" transform="translate(0,285.2697756788666)"><line stroke="#000" x2="-6"></line><text fill="#000" x="-9" dy="0.32em">1</text></g><g class="tick" opacity="1" transform="translate(0,242.7668240850059)"><line stroke="#000" x2="-6"></line><text fill="#000" x="-9" dy="0.32em">2</text></g><g class="tick" opacity="1" transform="translate(0,200.26387249114524)"><line stroke="#000" x2="-6"></line><text fill="#000" x="-9" dy="0.32em">3</text></g><g class="tick" opacity="1" transform="translate(0,157.76092089728456)"><line stroke="#000" x2="-6"></line><text fill="#000" x="-9" dy="0.32em">4</text></g><g class="tick" opacity="1" transform="translate(0,115.25796930342389)"><line stroke="#000" x2="-6"></line><text fill="#000" x="-9" dy="0.32em">5</text></g><g class="tick" opacity="1" transform="translate(0,72.75501770956322)"><line stroke="#000" x2="-6"></line><text fill="#000" x="-9" dy="0.32em">6</text></g><g class="tick" opacity="1" transform="translate(0,30.25206611570252)"><line stroke="#000" x2="-6"></line><text fill="#000" x="-9" dy="0.32em">7</text></g></g><text class="y label" text-anchor="middle" y="-50" x="-180" dy="0.8em" transform="rotate(-90)" style="font-size: 13px; font-family: Arial;">Total number of references</text><g class="axisRed" fill="none" font-size="10" font-family="sans-serif" text-anchor="start" visibility="hidden" transform="translate(700, 0)"><path class="domain" stroke="#000" d="M6,360.5H0.5V0.5H6"></path><g class="tick" opacity="1" transform="translate(0,360.5)"><line stroke="#000" x2="6"></line><text fill="#000" x="9" dy="0.32em">0</text></g><text text-anchor="start" dx="5.2em" dy="-2.6em" transform="rotate(90)" visibility="hidden" style="font-size: 12px; font-family: Arial; fill: #d7301f;">No recurrent (&gt;2) missense mutations!</text></g><g class="axisPurple" fill="none" font-size="10" font-family="sans-serif" text-anchor="start" visibility="hidden"><path class="domain" stroke="#000" d="M6,360.5H0.5V0.5H6"></path><g class="tick" opacity="1" transform="translate(0,357.52479338842977)"><line stroke="#000" x2="6"></line><text fill="#000" x="9" dy="0.32em"></text></g><g class="tick" opacity="1" transform="translate(0,327.77272727272725)"><line stroke="#000" x2="6"></line><text fill="#000" x="9" dy="0.32em">0</text></g><g class="tick" opacity="1" transform="translate(0,298.0206611570248)"><line stroke="#000" x2="6"></line><text fill="#000" x="9" dy="0.32em">0.1</text></g><g class="tick" opacity="1" transform="translate(0,268.2685950413223)"><line stroke="#000" x2="6"></line><text fill="#000" x="9" dy="0.32em">0.2</text></g><g class="tick" opacity="1" transform="translate(0,238.51652892561984)"><line stroke="#000" x2="6"></line><text fill="#000" x="9" dy="0.32em">0.3</text></g><g class="tick" opacity="1" transform="translate(0,208.76446280991738)"><line stroke="#000" x2="6"></line><text fill="#000" x="9" dy="0.32em">0.4</text></g><g class="tick" opacity="1" transform="translate(0,179.0123966942149)"><line stroke="#000" x2="6"></line><text fill="#000" x="9" dy="0.32em">0.5</text></g><g class="tick" opacity="1" transform="translate(0,149.26033057851242)"><line stroke="#000" x2="6"></line><text fill="#000" x="9" dy="0.32em">0.6</text></g><g class="tick" opacity="1" transform="translate(0,119.50826446280996)"><line stroke="#000" x2="6"></line><text fill="#000" x="9" dy="0.32em">0.7</text></g><g class="tick" opacity="1" transform="translate(0,89.75619834710744)"><line stroke="#000" x2="6"></line><text fill="#000" x="9" dy="0.32em">0.8</text></g><g class="tick" opacity="1" transform="translate(0,60.00413223140498)"><line stroke="#000" x2="6"></line><text fill="#000" x="9" dy="0.32em">0.9</text></g><g class="tick" opacity="1" transform="translate(0,30.25206611570252)"><line stroke="#000" x2="6"></line><text fill="#000" x="9" dy="0.32em">1</text></g><g class="tick" opacity="1" transform="translate(0,0.5)"><line stroke="#000" x2="6"></line><text fill="#000" x="9" dy="0.32em">1.1</text></g><text text-anchor="start" x="10" y="10" visibility="hidden" style="font-size: 12px; font-family: Arial; fill: #807dba;">No disease causing germline SNPs known!</text></g><circle cx="636" cy="15" r="10" class="compassNav" style="fill: #ffffff; stroke: #666666; stroke-width: 1px;"></circle><path d="M440.935 12.574l3.966 82.766C399.416 41.904 331.674 8 256 8 134.813 8 33.933 94.924 12.296 209.824 10.908 217.193 16.604 224 24.103 224h49.084c5.57 0 10.377-3.842 11.676-9.259C103.407 137.408 172.931 80 256 80c60.893 0 114.512 30.856 146.104 77.801l-101.53-4.865c-6.845-.328-12.574 5.133-12.574 11.986v47.411c0 6.627 5.373 12 12 12h200.333c6.627 0 12-5.373 12-12V12c0-6.627-5.373-12-12-12h-47.411c-6.853 0-12.315 5.729-11.987 12.574zM256 432c-60.895 0-114.517-30.858-146.109-77.805l101.868 4.871c6.845.327 12.573-5.134 12.573-11.986v-47.412c0-6.627-5.373-12-12-12H12c-6.627 0-12 5.373-12 12V500c0 6.627 5.373 12 12 12h47.385c6.863 0 12.328-5.745 11.985-12.599l-4.129-82.575C112.725 470.166 180.405 504 256 504c121.187 0 222.067-86.924 243.704-201.824 1.388-7.369-4.308-14.176-11.807-14.176h-49.084c-5.57 0-10.377 3.842-11.676 9.259C408.593 374.592 339.069 432 256 432z" class="compassNav" transform="translate(631, 10) scale(0.02)" style="fill: #666666; stroke: #666666; stroke-width: 1px;"></path><circle cx="658" cy="15" r="10" class="compassNav" style="fill: #ffffff; stroke: #666666; stroke-width: 1px;"></circle><line class="compassNav" stroke-width="2" stroke="#666666" x1="654" y1="15" x2="662" y2="15"></line><line class="compassNav" stroke-width="2" stroke="#666666" x1="658" y1="11" x2="658" y2="19"></line><circle cx="614" cy="15" r="10" class="compassNav" style="fill: #ffffff; stroke: #666666; stroke-width: 1px;"></circle><line class="compassNav" stroke-width="2" stroke="#666666" x1="610" y1="15" x2="618" y2="15"></line><path d="M582 14 l20 -12 a100,40 0 0,0 0,24z" class="compassNav" style="fill: #ffffff; stroke: #666666; stroke-width: 1px;"></path><path d="M690 14 l-20 -12 a100,40 0 0,1 0,24z" class="compassNav" style="fill: #ffffff; stroke: #666666; stroke-width: 1px;"></path><path d="M216 0h80c13.3 0 24 10.7 24 24v168h87.7c17.8 0 26.7 21.5 14.1 34.1L269.7 378.3c-7.5 7.5-19.8 7.5-27.3 0L90.1 226.1c-12.6-12.6-3.7-34.1 14.1-34.1H192V24c0-13.3 10.7-24 24-24zm296 376v112c0 13.3-10.7 24-24 24H24c-13.3 0-24-10.7-24-24V376c0-13.3 10.7-24 24-24h146.7l49 49c20.1 20.1 52.5 20.1 72.6 0l49-49H488c13.3 0 24 10.7 24 24zm-124 88c0-11-9-20-20-20s-20 9-20 20 9 20 20 20 20-9 20-20zm64 0c0-11-9-20-20-20s-20 9-20 20 9 20 20 20 20-9 20-20z" class="compassNav" transform="translate(552,0) scale(0.05)" style="fill: #336699; stroke: #336699; stroke-width: 1px; cursor: pointer;"></path></g></svg>