<svg width="800" height="400" style="background-color: white;"><g transform="translate(50,0)"><svg width="700" height="360"><g style="-webkit-tap-highlight-color: rgba(0, 0, 0, 0);"><rect width="700" height="360" style="fill: #ffffff;"></rect><g id="lines"><line class="line" stroke-width="1" stroke="#d7301f" x1="-281.67330677290835" y1="333" x2="-281.67330677290835" y2="360" visibility="hidden" style="stroke-dasharray: 3px, 3px;"></line></g><g><rect x="-286.67330677290835" y="355" width="10" height="10" visibility="hidden" style="fill: #ffffff; stroke: #d7301f;"></rect></g><g id="lines"><line class="line" stroke-width="1" stroke="#6a51a3" x1="-281.67330677290835" y1="333" x2="-281.67330677290835" y2="327.27272727272725" visibility="hidden" style="stroke-dasharray: 3px, 3px;"></line></g><g><rect x="-286.67330677290835" y="322.27272727272725" width="10" height="10" visibility="hidden" style="fill: #ffffff; stroke: #6a51a3;"></rect></g><g id="lines"><line class="line" stroke-width="1" stroke="#666666" x1="55.776892430278885" y1="333" x2="55.776892430278885" y2="321.2008770450329"></line><line class="line" stroke-width="1" stroke="#666666" x1="128.28685258964143" y1="333" x2="128.28685258964143" y2="324.2368021588801"></line><line class="line" stroke-width="1" stroke="#666666" x1="158.9641434262948" y1="333" x2="158.9641434262948" y2="324.2368021588801"></line><line class="line" stroke-width="1" stroke="#666666" x1="161.75298804780877" y1="333" x2="161.75298804780877" y2="324.2368021588801"></line><line class="line" stroke-width="1" stroke="#666666" x1="175.69721115537848" y1="333" x2="175.69721115537848" y2="324.2368021588801"></line><line class="line" stroke-width="1" stroke="#666666" x1="186.85258964143426" y1="333" x2="186.85258964143426" y2="321.2008770450329"></line><line class="line" stroke-width="1" stroke="#666666" x1="242.62948207171317" y1="333" x2="242.62948207171317" y2="290.841625906561"></line><line class="line" stroke-width="1" stroke="#666666" x1="262.1513944223108" y1="333" x2="262.1513944223108" y2="312.0931017034913"></line><line class="line" stroke-width="1" stroke="#666666" x1="273.3067729083665" y1="333" x2="273.3067729083665" y2="205.8357227188396"></line><line class="line" stroke-width="1" stroke="#666666" x1="278.8844621513944" y1="333" x2="278.8844621513944" y2="309.05717658964414"></line><line class="line" stroke-width="1" stroke="#666666" x1="281.67330677290835" y1="333" x2="281.67330677290835" y2="263.51829988193623"></line><line class="line" stroke-width="1" stroke="#666666" x1="281.67330677290835" y1="333" x2="281.67330677290835" y2="315.1290268173385"></line><line class="line" stroke-width="1" stroke="#666666" x1="317.9282868525896" y1="333" x2="317.9282868525896" y2="324.2368021588801"></line><line class="line" stroke-width="1" stroke="#666666" x1="343.0278884462152" y1="333" x2="343.0278884462152" y2="324.2368021588801"></line><line class="line" stroke-width="1" stroke="#666666" x1="351.39442231075697" y1="333" x2="351.39442231075697" y2="324.2368021588801"></line><line class="line" stroke-width="1" stroke="#666666" x1="354.1832669322709" y1="333" x2="354.1832669322709" y2="324.2368021588801"></line><line class="line" stroke-width="1" stroke="#666666" x1="418.32669322709165" y1="333" x2="418.32669322709165" y2="309.05717658964414"></line><line class="line" stroke-width="1" stroke="#666666" x1="429.48207171314743" y1="333" x2="429.48207171314743" y2="321.2008770450329"></line><line class="line" stroke-width="1" stroke="#666666" x1="429.48207171314743" y1="333" x2="429.48207171314743" y2="290.841625906561"></line><line class="line" stroke-width="1" stroke="#666666" x1="454.58167330677287" y1="333" x2="454.58167330677287" y2="324.2368021588801"></line><line class="line" stroke-width="1" stroke="#666666" x1="462.9482071713147" y1="333" x2="462.9482071713147" y2="324.2368021588801"></line><line class="line" stroke-width="1" stroke="#666666" x1="496.4143426294821" y1="333" x2="496.4143426294821" y2="254.41052454039465"></line><line class="line" stroke-width="1" stroke="#666666" x1="496.4143426294821" y1="333" x2="496.4143426294821" y2="160.29684601113172"></line><line class="line" stroke-width="1" stroke="#666666" x1="535.4581673306773" y1="333" x2="535.4581673306773" y2="324.2368021588801"></line><line class="line" stroke-width="1" stroke="#666666" x1="571.7131474103586" y1="333" x2="571.7131474103586" y2="321.2008770450329"></line><line class="line" stroke-width="1" stroke="#666666" x1="577.2908366533865" y1="333" x2="577.2908366533865" y2="324.2368021588801"></line><line class="line" stroke-width="1" stroke="#666666" x1="599.601593625498" y1="333" x2="599.601593625498" y2="324.2368021588801"></line><line class="line" stroke-width="1" stroke="#666666" x1="621.9123505976096" y1="333" x2="621.9123505976096" y2="324.2368021588801"></line><line class="line" stroke-width="1" stroke="#666666" x1="663.7450199203188" y1="333" x2="663.7450199203188" y2="312.0931017034913"></line><line class="line" stroke-width="1" stroke="#666666" x1="669.3227091633466" y1="333" x2="669.3227091633466" y2="324.2368021588801"></line><line class="line" stroke-width="1" stroke="#666666" x1="674.9003984063745" y1="333" x2="674.9003984063745" y2="312.0931017034913"></line><line class="line" stroke-width="1" stroke="#666666" x1="688.8446215139443" y1="333" x2="688.8446215139443" y2="318.16495193118567"></line><line class="line" stroke-width="1" stroke="#666666" x1="691.6334661354582" y1="333" x2="691.6334661354582" y2="324.2368021588801"></line><line class="line" stroke-width="1" stroke="#666666" x1="697.2111553784861" y1="333" x2="697.2111553784861" y2="29.752066115702462"></line><line class="line" stroke-width="1" stroke="#666666" x1="697.2111553784861" y1="333" x2="697.2111553784861" y2="312.0931017034913"></line></g><g id="circles"><circle r="4" cx="55.776892430278885" cy="321.2008770450329" style="fill: #4393c3; stroke: #666666; stroke-width: 1px;"></circle><circle r="4" cx="128.28685258964143" cy="324.2368021588801" style="fill: #666666; stroke: #666666; stroke-width: 1px;"></circle><circle r="4" cx="158.9641434262948" cy="324.2368021588801" style="fill: #4393c3; stroke: #666666; stroke-width: 1px;"></circle><circle r="4" cx="161.75298804780877" cy="324.2368021588801" style="fill: #4393c3; stroke: #666666; stroke-width: 1px;"></circle><circle r="4" cx="175.69721115537848" cy="324.2368021588801" style="fill: #4393c3; stroke: #666666; stroke-width: 1px;"></circle><circle r="4" cx="186.85258964143426" cy="321.2008770450329" style="fill: #666666; stroke: #666666; stroke-width: 1px;"></circle><circle r="4" cx="242.62948207171317" cy="290.841625906561" style="fill: #4393c3; stroke: #666666; stroke-width: 1px;"></circle><circle r="4" cx="262.1513944223108" cy="312.0931017034913" style="fill: #4393c3; stroke: #666666; stroke-width: 1px;"></circle><circle r="4" cx="273.3067729083665" cy="205.8357227188396" style="fill: #4393c3; stroke: #666666; stroke-width: 1px;"></circle><circle r="4" cx="278.8844621513944" cy="309.05717658964414" style="fill: #4393c3; stroke: #666666; stroke-width: 1px;"></circle><circle r="4" cx="281.67330677290835" cy="263.51829988193623" style="fill: #5aae61; stroke: #666666; stroke-width: 1px;"></circle><circle r="4" cx="281.67330677290835" cy="315.1290268173385" style="fill: #bf812d; stroke: #666666; stroke-width: 1px;"></circle><circle r="4" cx="317.9282868525896" cy="324.2368021588801" style="fill: #666666; stroke: #666666; stroke-width: 1px;"></circle><circle r="4" cx="343.0278884462152" cy="324.2368021588801" style="fill: #666666; stroke: #666666; stroke-width: 1px;"></circle><circle r="4" cx="351.39442231075697" cy="324.2368021588801" style="fill: #666666; stroke: #666666; stroke-width: 1px;"></circle><circle r="4" cx="354.1832669322709" cy="324.2368021588801" style="fill: #666666; stroke: #666666; stroke-width: 1px;"></circle><circle r="4" cx="418.32669322709165" cy="309.05717658964414" style="fill: #bf812d; stroke: #666666; stroke-width: 1px;"></circle><circle r="4" cx="429.48207171314743" cy="321.2008770450329" style="fill: #5aae61; stroke: #666666; stroke-width: 1px;"></circle><circle r="4" cx="429.48207171314743" cy="290.841625906561" style="fill: #bf812d; stroke: #666666; stroke-width: 1px;"></circle><circle r="4" cx="454.58167330677287" cy="324.2368021588801" style="fill: #4393c3; stroke: #666666; stroke-width: 1px;"></circle><circle r="4" cx="462.9482071713147" cy="324.2368021588801" style="fill: #4393c3; stroke: #666666; stroke-width: 1px;"></circle><circle r="4" cx="496.4143426294821" cy="254.41052454039465" style="fill: #5aae61; stroke: #666666; stroke-width: 1px;"></circle><circle r="4" cx="496.4143426294821" cy="160.29684601113172" style="fill: #bf812d; stroke: #666666; stroke-width: 1px;"></circle><circle r="4" cx="535.4581673306773" cy="324.2368021588801" style="fill: #4393c3; stroke: #666666; stroke-width: 1px;"></circle><circle r="4" cx="571.7131474103586" cy="321.2008770450329" style="fill: #bf812d; stroke: #666666; stroke-width: 1px;"></circle><circle r="4" cx="577.2908366533865" cy="324.2368021588801" style="fill: #bf812d; stroke: #666666; stroke-width: 1px;"></circle><circle r="4" cx="599.601593625498" cy="324.2368021588801" style="fill: #666666; stroke: #666666; stroke-width: 1px;"></circle><circle r="4" cx="621.9123505976096" cy="324.2368021588801" style="fill: #666666; stroke: #666666; stroke-width: 1px;"></circle><circle r="4" cx="663.7450199203188" cy="312.0931017034913" style="fill: #4393c3; stroke: #666666; stroke-width: 1px;"></circle><circle r="4" cx="669.3227091633466" cy="324.2368021588801" style="fill: #666666; stroke: #666666; stroke-width: 1px;"></circle><circle r="4" cx="674.9003984063745" cy="312.0931017034913" style="fill: #4393c3; stroke: #666666; stroke-width: 1px;"></circle><circle r="4" cx="688.8446215139443" cy="318.16495193118567" style="fill: #4393c3; stroke: #666666; stroke-width: 1px;"></circle><circle r="4" cx="691.6334661354582" cy="324.2368021588801" style="fill: #4393c3; stroke: #666666; stroke-width: 1px;"></circle><circle r="4" cx="697.2111553784861" cy="29.752066115702462" style="fill: #5aae61; stroke: #666666; stroke-width: 1px;"></circle><circle r="4" cx="697.2111553784861" cy="312.0931017034913" style="fill: #bf812d; stroke: #666666; stroke-width: 1px;"></circle></g><g><rect x="0" y="333" width="700" height="12" style="fill: #ffffff; stroke-width: 1px; stroke: #666666;"></rect><rect x="334.6613545816733" y="333" width="359.7609561752988" height="12" style="fill: #aec7e8; stroke-width: 1px; stroke: #666666;"></rect></g><g><a target="_blank" xlink:href="http://pfam.xfam.org/family/"><text y="343" x="350" text-anchor="middle" style="color: rgb(102, 102, 102); font-weight: normal; font-size: 12px; font-family: Arial; cursor: pointer;"></text></a><a target="_blank" xlink:href="http://pfam.xfam.org/family/dUTPase"><text y="343" x="514.5418326693227" text-anchor="middle" style="color: rgb(102, 102, 102); font-weight: normal; font-size: 12px; font-family: Arial; cursor: pointer;">dUTPase</text></a></g><g><text y="358" x="0" text-anchor="middle" visibility="hidden" style="font-size: 13px;">M</text><text y="358" x="2.788844621513944" text-anchor="middle" visibility="hidden" style="font-size: 13px;">T</text><text y="358" x="5.577689243027888" text-anchor="middle" visibility="hidden" style="font-size: 13px;">P</text><text y="358" x="8.366533864541832" text-anchor="middle" visibility="hidden" style="font-size: 13px;">L</text><text y="358" x="11.155378486055776" text-anchor="middle" visibility="hidden" style="font-size: 13px;">C</text><text y="358" x="13.944223107569721" text-anchor="middle" visibility="hidden" style="font-size: 13px;">P</text><text y="358" x="16.733067729083665" text-anchor="middle" visibility="hidden" style="font-size: 13px;">R</text><text y="358" x="19.52191235059761" text-anchor="middle" visibility="hidden" style="font-size: 13px;">P</text><text y="358" x="22.31075697211155" text-anchor="middle" visibility="hidden" style="font-size: 13px;">A</text><text y="358" x="25.0996015936255" text-anchor="middle" visibility="hidden" style="font-size: 13px;">L</text><text y="358" x="27.888446215139442" text-anchor="middle" visibility="hidden" style="font-size: 13px;">C</text><text y="358" x="30.677290836653388" text-anchor="middle" visibility="hidden" style="font-size: 13px;">Y</text><text y="358" x="33.46613545816733" text-anchor="middle" visibility="hidden" style="font-size: 13px;">H</text><text y="358" x="36.254980079681275" text-anchor="middle" visibility="hidden" style="font-size: 13px;">F</text><text y="358" x="39.04382470119522" text-anchor="middle" visibility="hidden" style="font-size: 13px;">L</text><text y="358" x="41.832669322709165" text-anchor="middle" visibility="hidden" style="font-size: 13px;">T</text><text y="358" x="44.6215139442231" text-anchor="middle" visibility="hidden" style="font-size: 13px;">S</text><text y="358" x="47.41035856573705" text-anchor="middle" visibility="hidden" style="font-size: 13px;">L</text><text y="358" x="50.199203187251" text-anchor="middle" visibility="hidden" style="font-size: 13px;">L</text><text y="358" x="52.98804780876494" text-anchor="middle" visibility="hidden" style="font-size: 13px;">R</text><text y="358" x="55.776892430278885" text-anchor="middle" visibility="hidden" style="font-size: 13px;">S</text><text y="358" x="58.56573705179282" text-anchor="middle" visibility="hidden" style="font-size: 13px;">A</text><text y="358" x="61.354581673306775" text-anchor="middle" visibility="hidden" style="font-size: 13px;">M</text><text y="358" x="64.14342629482071" text-anchor="middle" visibility="hidden" style="font-size: 13px;">Q</text><text y="358" x="66.93227091633466" text-anchor="middle" visibility="hidden" style="font-size: 13px;">N</text><text y="358" x="69.7211155378486" text-anchor="middle" visibility="hidden" style="font-size: 13px;">A</text><text y="358" x="72.50996015936255" text-anchor="middle" visibility="hidden" style="font-size: 13px;">R</text><text y="358" x="75.2988047808765" text-anchor="middle" visibility="hidden" style="font-size: 13px;">G</text><text y="358" x="78.08764940239044" text-anchor="middle" visibility="hidden" style="font-size: 13px;">A</text><text y="358" x="80.87649402390439" text-anchor="middle" visibility="hidden" style="font-size: 13px;">R</text><text y="358" x="83.66533864541833" text-anchor="middle" visibility="hidden" style="font-size: 13px;">Q</text><text y="358" x="86.45418326693228" text-anchor="middle" visibility="hidden" style="font-size: 13px;">R</text><text y="358" x="89.2430278884462" text-anchor="middle" visibility="hidden" style="font-size: 13px;">A</text><text y="358" x="92.03187250996015" text-anchor="middle" visibility="hidden" style="font-size: 13px;">E</text><text y="358" x="94.8207171314741" text-anchor="middle" visibility="hidden" style="font-size: 13px;">A</text><text y="358" x="97.60956175298804" text-anchor="middle" visibility="hidden" style="font-size: 13px;">A</text><text y="358" x="100.398406374502" text-anchor="middle" visibility="hidden" style="font-size: 13px;">V</text><text y="358" x="103.18725099601595" text-anchor="middle" visibility="hidden" style="font-size: 13px;">L</text><text y="358" x="105.97609561752988" text-anchor="middle" visibility="hidden" style="font-size: 13px;">S</text><text y="358" x="108.76494023904382" text-anchor="middle" visibility="hidden" style="font-size: 13px;">G</text><text y="358" x="111.55378486055777" text-anchor="middle" visibility="hidden" style="font-size: 13px;">P</text><text y="358" x="114.34262948207171" text-anchor="middle" visibility="hidden" style="font-size: 13px;">G</text><text y="358" x="117.13147410358565" text-anchor="middle" visibility="hidden" style="font-size: 13px;">P</text><text y="358" x="119.92031872509959" text-anchor="middle" visibility="hidden" style="font-size: 13px;">P</text><text y="358" x="122.70916334661355" text-anchor="middle" visibility="hidden" style="font-size: 13px;">L</text><text y="358" x="125.4980079681275" text-anchor="middle" visibility="hidden" style="font-size: 13px;">G</text><text y="358" x="128.28685258964143" text-anchor="middle" visibility="hidden" style="font-size: 13px;">R</text><text y="358" x="131.0756972111554" text-anchor="middle" visibility="hidden" style="font-size: 13px;">A</text><text y="358" x="133.86454183266932" text-anchor="middle" visibility="hidden" style="font-size: 13px;">A</text><text y="358" x="136.65338645418325" text-anchor="middle" visibility="hidden" style="font-size: 13px;">Q</text><text y="358" x="139.4422310756972" text-anchor="middle" visibility="hidden" style="font-size: 13px;">H</text><text y="358" x="142.23107569721117" text-anchor="middle" visibility="hidden" style="font-size: 13px;">G</text><text y="358" x="145.0199203187251" text-anchor="middle" visibility="hidden" style="font-size: 13px;">I</text><text y="358" x="147.80876494023906" text-anchor="middle" visibility="hidden" style="font-size: 13px;">P</text><text y="358" x="150.597609561753" text-anchor="middle" visibility="hidden" style="font-size: 13px;">R</text><text y="358" x="153.38645418326692" text-anchor="middle" visibility="hidden" style="font-size: 13px;">P</text><text y="358" x="156.17529880478088" text-anchor="middle" visibility="hidden" style="font-size: 13px;">L</text><text y="358" x="158.9641434262948" text-anchor="middle" visibility="hidden" style="font-size: 13px;">S</text><text y="358" x="161.75298804780877" text-anchor="middle" visibility="hidden" style="font-size: 13px;">S</text><text y="358" x="164.54183266932273" text-anchor="middle" visibility="hidden" style="font-size: 13px;">A</text><text y="358" x="167.33067729083666" text-anchor="middle" visibility="hidden" style="font-size: 13px;">G</text><text y="358" x="170.1195219123506" text-anchor="middle" visibility="hidden" style="font-size: 13px;">R</text><text y="358" x="172.90836653386455" text-anchor="middle" visibility="hidden" style="font-size: 13px;">L</text><text y="358" x="175.69721115537848" text-anchor="middle" visibility="hidden" style="font-size: 13px;">S</text><text y="358" x="178.4860557768924" text-anchor="middle" visibility="hidden" style="font-size: 13px;">Q</text><text y="358" x="181.27490039840637" text-anchor="middle" visibility="hidden" style="font-size: 13px;">G</text><text y="358" x="184.0637450199203" text-anchor="middle" visibility="hidden" style="font-size: 13px;">C</text><text y="358" x="186.85258964143426" text-anchor="middle" visibility="hidden" style="font-size: 13px;">R</text><text y="358" x="189.6414342629482" text-anchor="middle" visibility="hidden" style="font-size: 13px;">G</text><text y="358" x="192.43027888446213" text-anchor="middle" visibility="hidden" style="font-size: 13px;">A</text><text y="358" x="195.21912350597609" text-anchor="middle" visibility="hidden" style="font-size: 13px;">S</text><text y="358" x="198.00796812749005" text-anchor="middle" visibility="hidden" style="font-size: 13px;">T</text><text y="358" x="200.796812749004" text-anchor="middle" visibility="hidden" style="font-size: 13px;">V</text><text y="358" x="203.58565737051794" text-anchor="middle" visibility="hidden" style="font-size: 13px;">G</text><text y="358" x="206.3745019920319" text-anchor="middle" visibility="hidden" style="font-size: 13px;">A</text><text y="358" x="209.16334661354583" text-anchor="middle" visibility="hidden" style="font-size: 13px;">A</text><text y="358" x="211.95219123505976" text-anchor="middle" visibility="hidden" style="font-size: 13px;">G</text><text y="358" x="214.74103585657372" text-anchor="middle" visibility="hidden" style="font-size: 13px;">W</text><text y="358" x="217.52988047808765" text-anchor="middle" visibility="hidden" style="font-size: 13px;">K</text><text y="358" x="220.31872509960158" text-anchor="middle" visibility="hidden" style="font-size: 13px;">G</text><text y="358" x="223.10756972111554" text-anchor="middle" visibility="hidden" style="font-size: 13px;">E</text><text y="358" x="225.89641434262947" text-anchor="middle" visibility="hidden" style="font-size: 13px;">L</text><text y="358" x="228.68525896414343" text-anchor="middle" visibility="hidden" style="font-size: 13px;">P</text><text y="358" x="231.47410358565736" text-anchor="middle" visibility="hidden" style="font-size: 13px;">K</text><text y="358" x="234.2629482071713" text-anchor="middle" visibility="hidden" style="font-size: 13px;">A</text><text y="358" x="237.05179282868525" text-anchor="middle" visibility="hidden" style="font-size: 13px;">G</text><text y="358" x="239.84063745019918" text-anchor="middle" visibility="hidden" style="font-size: 13px;">G</text><text y="358" x="242.62948207171317" text-anchor="middle" visibility="hidden" style="font-size: 13px;">S</text><text y="358" x="245.4183266932271" text-anchor="middle" visibility="hidden" style="font-size: 13px;">P</text><text y="358" x="248.20717131474106" text-anchor="middle" visibility="hidden" style="font-size: 13px;">A</text><text y="358" x="250.996015936255" text-anchor="middle" visibility="hidden" style="font-size: 13px;">P</text><text y="358" x="253.78486055776892" text-anchor="middle" visibility="hidden" style="font-size: 13px;">G</text><text y="358" x="256.57370517928285" text-anchor="middle" visibility="hidden" style="font-size: 13px;">P</text><text y="358" x="259.36254980079684" text-anchor="middle" visibility="hidden" style="font-size: 13px;">E</text><text y="358" x="262.1513944223108" text-anchor="middle" visibility="hidden" style="font-size: 13px;">T</text><text y="358" x="264.9402390438247" text-anchor="middle" visibility="hidden" style="font-size: 13px;">P</text><text y="358" x="267.72908366533864" text-anchor="middle" visibility="hidden" style="font-size: 13px;">A</text><text y="358" x="270.51792828685257" text-anchor="middle" visibility="hidden" style="font-size: 13px;">I</text><text y="358" x="273.3067729083665" text-anchor="middle" visibility="hidden" style="font-size: 13px;">S</text><text y="358" x="276.0956175298805" text-anchor="middle" visibility="hidden" style="font-size: 13px;">P</text><text y="358" x="278.8844621513944" text-anchor="middle" visibility="hidden" style="font-size: 13px;">S</text><text y="358" x="281.67330677290835" text-anchor="middle" visibility="hidden" style="font-size: 13px;">K</text><text y="358" x="284.46215139442234" text-anchor="middle" visibility="hidden" style="font-size: 13px;">R</text><text y="358" x="287.25099601593627" text-anchor="middle" visibility="hidden" style="font-size: 13px;">A</text><text y="358" x="290.0398406374502" text-anchor="middle" visibility="hidden" style="font-size: 13px;">R</text><text y="358" x="292.82868525896413" text-anchor="middle" visibility="hidden" style="font-size: 13px;">P</text><text y="358" x="295.6175298804781" text-anchor="middle" visibility="hidden" style="font-size: 13px;">A</text><text y="358" x="298.40637450199205" text-anchor="middle" visibility="hidden" style="font-size: 13px;">E</text><text y="358" x="301.195219123506" text-anchor="middle" visibility="hidden" style="font-size: 13px;">V</text><text y="358" x="303.9840637450199" text-anchor="middle" visibility="hidden" style="font-size: 13px;">G</text><text y="358" x="306.77290836653384" text-anchor="middle" visibility="hidden" style="font-size: 13px;">G</text><text y="358" x="309.56175298804783" text-anchor="middle" visibility="hidden" style="font-size: 13px;">M</text><text y="358" x="312.35059760956176" text-anchor="middle" visibility="hidden" style="font-size: 13px;">Q</text><text y="358" x="315.1394422310757" text-anchor="middle" visibility="hidden" style="font-size: 13px;">L</text><text y="358" x="317.9282868525896" text-anchor="middle" visibility="hidden" style="font-size: 13px;">R</text><text y="358" x="320.71713147410355" text-anchor="middle" visibility="hidden" style="font-size: 13px;">F</text><text y="358" x="323.50597609561754" text-anchor="middle" visibility="hidden" style="font-size: 13px;">A</text><text y="358" x="326.2948207171315" text-anchor="middle" visibility="hidden" style="font-size: 13px;">R</text><text y="358" x="329.08366533864546" text-anchor="middle" visibility="hidden" style="font-size: 13px;">L</text><text y="358" x="331.8725099601594" text-anchor="middle" visibility="hidden" style="font-size: 13px;">S</text><text y="358" x="334.6613545816733" text-anchor="middle" visibility="hidden" style="font-size: 13px;">E</text><text y="358" x="337.45019920318725" text-anchor="middle" visibility="hidden" style="font-size: 13px;">H</text><text y="358" x="340.2390438247012" text-anchor="middle" visibility="hidden" style="font-size: 13px;">A</text><text y="358" x="343.0278884462152" text-anchor="middle" visibility="hidden" style="font-size: 13px;">T</text><text y="358" x="345.8167330677291" text-anchor="middle" visibility="hidden" style="font-size: 13px;">A</text><text y="358" x="348.60557768924303" text-anchor="middle" visibility="hidden" style="font-size: 13px;">P</text><text y="358" x="351.39442231075697" text-anchor="middle" visibility="hidden" style="font-size: 13px;">T</text><text y="358" x="354.1832669322709" text-anchor="middle" visibility="hidden" style="font-size: 13px;">R</text><text y="358" x="356.9721115537848" text-anchor="middle" visibility="hidden" style="font-size: 13px;">G</text><text y="358" x="359.7609561752988" text-anchor="middle" visibility="hidden" style="font-size: 13px;">S</text><text y="358" x="362.54980079681275" text-anchor="middle" visibility="hidden" style="font-size: 13px;">A</text><text y="358" x="365.3386454183267" text-anchor="middle" visibility="hidden" style="font-size: 13px;">R</text><text y="358" x="368.1274900398406" text-anchor="middle" visibility="hidden" style="font-size: 13px;">A</text><text y="358" x="370.91633466135454" text-anchor="middle" visibility="hidden" style="font-size: 13px;">A</text><text y="358" x="373.7051792828685" text-anchor="middle" visibility="hidden" style="font-size: 13px;">G</text><text y="358" x="376.49402390438246" text-anchor="middle" visibility="hidden" style="font-size: 13px;">Y</text><text y="358" x="379.2828685258964" text-anchor="middle" visibility="hidden" style="font-size: 13px;">D</text><text y="358" x="382.0717131474103" text-anchor="middle" visibility="hidden" style="font-size: 13px;">L</text><text y="358" x="384.86055776892425" text-anchor="middle" visibility="hidden" style="font-size: 13px;">Y</text><text y="358" x="387.64940239043824" text-anchor="middle" visibility="hidden" style="font-size: 13px;">S</text><text y="358" x="390.43824701195217" text-anchor="middle" visibility="hidden" style="font-size: 13px;">A</text><text y="358" x="393.2270916334661" text-anchor="middle" visibility="hidden" style="font-size: 13px;">Y</text><text y="358" x="396.0159362549801" text-anchor="middle" visibility="hidden" style="font-size: 13px;">D</text><text y="358" x="398.8047808764941" text-anchor="middle" visibility="hidden" style="font-size: 13px;">Y</text><text y="358" x="401.593625498008" text-anchor="middle" visibility="hidden" style="font-size: 13px;">T</text><text y="358" x="404.38247011952194" text-anchor="middle" visibility="hidden" style="font-size: 13px;">I</text><text y="358" x="407.17131474103587" text-anchor="middle" visibility="hidden" style="font-size: 13px;">P</text><text y="358" x="409.9601593625498" text-anchor="middle" visibility="hidden" style="font-size: 13px;">P</text><text y="358" x="412.7490039840638" text-anchor="middle" visibility="hidden" style="font-size: 13px;">M</text><text y="358" x="415.5378486055777" text-anchor="middle" visibility="hidden" style="font-size: 13px;">E</text><text y="358" x="418.32669322709165" text-anchor="middle" visibility="hidden" style="font-size: 13px;">K</text><text y="358" x="421.1155378486056" text-anchor="middle" visibility="hidden" style="font-size: 13px;">A</text><text y="358" x="423.9043824701195" text-anchor="middle" visibility="hidden" style="font-size: 13px;">V</text><text y="358" x="426.6932270916335" text-anchor="middle" visibility="hidden" style="font-size: 13px;">V</text><text y="358" x="429.48207171314743" text-anchor="middle" visibility="hidden" style="font-size: 13px;">K</text><text y="358" x="432.27091633466136" text-anchor="middle" visibility="hidden" style="font-size: 13px;">T</text><text y="358" x="435.0597609561753" text-anchor="middle" visibility="hidden" style="font-size: 13px;">D</text><text y="358" x="437.8486055776892" text-anchor="middle" visibility="hidden" style="font-size: 13px;">I</text><text y="358" x="440.63745019920316" text-anchor="middle" visibility="hidden" style="font-size: 13px;">Q</text><text y="358" x="443.42629482071715" text-anchor="middle" visibility="hidden" style="font-size: 13px;">I</text><text y="358" x="446.2151394422311" text-anchor="middle" visibility="hidden" style="font-size: 13px;">A</text><text y="358" x="449.003984063745" text-anchor="middle" visibility="hidden" style="font-size: 13px;">L</text><text y="358" x="451.79282868525894" text-anchor="middle" visibility="hidden" style="font-size: 13px;">P</text><text y="358" x="454.58167330677287" text-anchor="middle" visibility="hidden" style="font-size: 13px;">S</text><text y="358" x="457.37051792828686" text-anchor="middle" visibility="hidden" style="font-size: 13px;">G</text><text y="358" x="460.1593625498008" text-anchor="middle" visibility="hidden" style="font-size: 13px;">C</text><text y="358" x="462.9482071713147" text-anchor="middle" visibility="hidden" style="font-size: 13px;">Y</text><text y="358" x="465.73705179282865" text-anchor="middle" visibility="hidden" style="font-size: 13px;">G</text><text y="358" x="468.5258964143426" text-anchor="middle" visibility="hidden" style="font-size: 13px;">R</text><text y="358" x="471.31474103585657" text-anchor="middle" visibility="hidden" style="font-size: 13px;">V</text><text y="358" x="474.1035856573705" text-anchor="middle" visibility="hidden" style="font-size: 13px;">A</text><text y="358" x="476.89243027888443" text-anchor="middle" visibility="hidden" style="font-size: 13px;">P</text><text y="358" x="479.68127490039836" text-anchor="middle" visibility="hidden" style="font-size: 13px;">R</text><text y="358" x="482.4701195219124" text-anchor="middle" visibility="hidden" style="font-size: 13px;">S</text><text y="358" x="485.25896414342634" text-anchor="middle" visibility="hidden" style="font-size: 13px;">G</text><text y="358" x="488.04780876494027" text-anchor="middle" visibility="hidden" style="font-size: 13px;">L</text><text y="358" x="490.8366533864542" text-anchor="middle" visibility="hidden" style="font-size: 13px;">A</text><text y="358" x="493.62549800796813" text-anchor="middle" visibility="hidden" style="font-size: 13px;">A</text><text y="358" x="496.4143426294821" text-anchor="middle" visibility="hidden" style="font-size: 13px;">K</text><text y="358" x="499.20318725099605" text-anchor="middle" visibility="hidden" style="font-size: 13px;">H</text><text y="358" x="501.99203187251" text-anchor="middle" visibility="hidden" style="font-size: 13px;">F</text><text y="358" x="504.7808764940239" text-anchor="middle" visibility="hidden" style="font-size: 13px;">I</text><text y="358" x="507.56972111553785" text-anchor="middle" visibility="hidden" style="font-size: 13px;">D</text><text y="358" x="510.35856573705183" text-anchor="middle" visibility="hidden" style="font-size: 13px;">V</text><text y="358" x="513.1474103585657" text-anchor="middle" visibility="hidden" style="font-size: 13px;">G</text><text y="358" x="515.9362549800796" text-anchor="middle" visibility="hidden" style="font-size: 13px;">A</text><text y="358" x="518.7250996015937" text-anchor="middle" visibility="hidden" style="font-size: 13px;">G</text><text y="358" x="521.5139442231076" text-anchor="middle" visibility="hidden" style="font-size: 13px;">V</text><text y="358" x="524.3027888446215" text-anchor="middle" visibility="hidden" style="font-size: 13px;">I</text><text y="358" x="527.0916334661355" text-anchor="middle" visibility="hidden" style="font-size: 13px;">D</text><text y="358" x="529.8804780876494" text-anchor="middle" visibility="hidden" style="font-size: 13px;">E</text><text y="358" x="532.6693227091633" text-anchor="middle" visibility="hidden" style="font-size: 13px;">D</text><text y="358" x="535.4581673306773" text-anchor="middle" visibility="hidden" style="font-size: 13px;">Y</text><text y="358" x="538.2470119521912" text-anchor="middle" visibility="hidden" style="font-size: 13px;">R</text><text y="358" x="541.0358565737051" text-anchor="middle" visibility="hidden" style="font-size: 13px;">G</text><text y="358" x="543.8247011952191" text-anchor="middle" visibility="hidden" style="font-size: 13px;">N</text><text y="358" x="546.613545816733" text-anchor="middle" visibility="hidden" style="font-size: 13px;">V</text><text y="358" x="549.402390438247" text-anchor="middle" visibility="hidden" style="font-size: 13px;">G</text><text y="358" x="552.191235059761" text-anchor="middle" visibility="hidden" style="font-size: 13px;">V</text><text y="358" x="554.9800796812749" text-anchor="middle" visibility="hidden" style="font-size: 13px;">V</text><text y="358" x="557.7689243027888" text-anchor="middle" visibility="hidden" style="font-size: 13px;">L</text><text y="358" x="560.5577689243028" text-anchor="middle" visibility="hidden" style="font-size: 13px;">F</text><text y="358" x="563.3466135458167" text-anchor="middle" visibility="hidden" style="font-size: 13px;">N</text><text y="358" x="566.1354581673306" text-anchor="middle" visibility="hidden" style="font-size: 13px;">F</text><text y="358" x="568.9243027888447" text-anchor="middle" visibility="hidden" style="font-size: 13px;">G</text><text y="358" x="571.7131474103586" text-anchor="middle" visibility="hidden" style="font-size: 13px;">K</text><text y="358" x="574.5019920318725" text-anchor="middle" visibility="hidden" style="font-size: 13px;">E</text><text y="358" x="577.2908366533865" text-anchor="middle" visibility="hidden" style="font-size: 13px;">K</text><text y="358" x="580.0796812749004" text-anchor="middle" visibility="hidden" style="font-size: 13px;">F</text><text y="358" x="582.8685258964143" text-anchor="middle" visibility="hidden" style="font-size: 13px;">E</text><text y="358" x="585.6573705179283" text-anchor="middle" visibility="hidden" style="font-size: 13px;">V</text><text y="358" x="588.4462151394423" text-anchor="middle" visibility="hidden" style="font-size: 13px;">K</text><text y="358" x="591.2350597609562" text-anchor="middle" visibility="hidden" style="font-size: 13px;">K</text><text y="358" x="594.0239043824702" text-anchor="middle" visibility="hidden" style="font-size: 13px;">G</text><text y="358" x="596.8127490039841" text-anchor="middle" visibility="hidden" style="font-size: 13px;">D</text><text y="358" x="599.601593625498" text-anchor="middle" visibility="hidden" style="font-size: 13px;">R</text><text y="358" x="602.390438247012" text-anchor="middle" visibility="hidden" style="font-size: 13px;">I</text><text y="358" x="605.1792828685259" text-anchor="middle" visibility="hidden" style="font-size: 13px;">A</text><text y="358" x="607.9681274900398" text-anchor="middle" visibility="hidden" style="font-size: 13px;">Q</text><text y="358" x="610.7569721115538" text-anchor="middle" visibility="hidden" style="font-size: 13px;">L</text><text y="358" x="613.5458167330677" text-anchor="middle" visibility="hidden" style="font-size: 13px;">I</text><text y="358" x="616.3346613545817" text-anchor="middle" visibility="hidden" style="font-size: 13px;">C</text><text y="358" x="619.1235059760957" text-anchor="middle" visibility="hidden" style="font-size: 13px;">E</text><text y="358" x="621.9123505976096" text-anchor="middle" visibility="hidden" style="font-size: 13px;">R</text><text y="358" x="624.7011952191235" text-anchor="middle" visibility="hidden" style="font-size: 13px;">I</text><text y="358" x="627.4900398406375" text-anchor="middle" visibility="hidden" style="font-size: 13px;">F</text><text y="358" x="630.2788844621514" text-anchor="middle" visibility="hidden" style="font-size: 13px;">Y</text><text y="358" x="633.0677290836653" text-anchor="middle" visibility="hidden" style="font-size: 13px;">P</text><text y="358" x="635.8565737051792" text-anchor="middle" visibility="hidden" style="font-size: 13px;">E</text><text y="358" x="638.6454183266932" text-anchor="middle" visibility="hidden" style="font-size: 13px;">I</text><text y="358" x="641.4342629482071" text-anchor="middle" visibility="hidden" style="font-size: 13px;">E</text><text y="358" x="644.223107569721" text-anchor="middle" visibility="hidden" style="font-size: 13px;">E</text><text y="358" x="647.0119521912351" text-anchor="middle" visibility="hidden" style="font-size: 13px;">V</text><text y="358" x="649.800796812749" text-anchor="middle" visibility="hidden" style="font-size: 13px;">Q</text><text y="358" x="652.589641434263" text-anchor="middle" visibility="hidden" style="font-size: 13px;">A</text><text y="358" x="655.3784860557769" text-anchor="middle" visibility="hidden" style="font-size: 13px;">L</text><text y="358" x="658.1673306772909" text-anchor="middle" visibility="hidden" style="font-size: 13px;">D</text><text y="358" x="660.9561752988049" text-anchor="middle" visibility="hidden" style="font-size: 13px;">D</text><text y="358" x="663.7450199203188" text-anchor="middle" visibility="hidden" style="font-size: 13px;">T</text><text y="358" x="666.5338645418327" text-anchor="middle" visibility="hidden" style="font-size: 13px;">E</text><text y="358" x="669.3227091633466" text-anchor="middle" visibility="hidden" style="font-size: 13px;">R</text><text y="358" x="672.1115537848606" text-anchor="middle" visibility="hidden" style="font-size: 13px;">G</text><text y="358" x="674.9003984063745" text-anchor="middle" visibility="hidden" style="font-size: 13px;">S</text><text y="358" x="677.6892430278884" text-anchor="middle" visibility="hidden" style="font-size: 13px;">G</text><text y="358" x="680.4780876494024" text-anchor="middle" visibility="hidden" style="font-size: 13px;">G</text><text y="358" x="683.2669322709163" text-anchor="middle" visibility="hidden" style="font-size: 13px;">F</text><text y="358" x="686.0557768924303" text-anchor="middle" visibility="hidden" style="font-size: 13px;">G</text><text y="358" x="688.8446215139443" text-anchor="middle" visibility="hidden" style="font-size: 13px;">S</text><text y="358" x="691.6334661354582" text-anchor="middle" visibility="hidden" style="font-size: 13px;">T</text><text y="358" x="694.4223107569721" text-anchor="middle" visibility="hidden" style="font-size: 13px;">G</text><text y="358" x="697.2111553784861" text-anchor="middle" visibility="hidden" style="font-size: 13px;">K</text><text y="358" x="700" text-anchor="middle" visibility="hidden" style="font-size: 13px;">N</text></g></g></svg><g class="xAxis" transform="translate(0,360)" fill="none" font-size="10" font-family="sans-serif" text-anchor="middle"><path class="domain" stroke="#000" d="M0.5,6V0.5H700.5V6"></path><g class="tick" opacity="1" transform="translate(53.48804780876494,0)"><line stroke="#000" y2="6"></line><text fill="#000" y="9" dy="0.71em">20</text></g><g class="tick" opacity="1" transform="translate(109.26494023904382,0)"><line stroke="#000" y2="6"></line><text fill="#000" y="9" dy="0.71em">40</text></g><g class="tick" opacity="1" transform="translate(165.04183266932273,0)"><line stroke="#000" y2="6"></line><text fill="#000" y="9" dy="0.71em">60</text></g><g class="tick" opacity="1" transform="translate(220.81872509960158,0)"><line stroke="#000" y2="6"></line><text fill="#000" y="9" dy="0.71em">80</text></g><g class="tick" opacity="1" transform="translate(276.5956175298805,0)"><line stroke="#000" y2="6"></line><text fill="#000" y="9" dy="0.71em">100</text></g><g class="tick" opacity="1" transform="translate(332.3725099601594,0)"><line stroke="#000" y2="6"></line><text fill="#000" y="9" dy="0.71em">120</text></g><g class="tick" opacity="1" transform="translate(388.14940239043824,0)"><line stroke="#000" y2="6"></line><text fill="#000" y="9" dy="0.71em">140</text></g><g class="tick" opacity="1" transform="translate(443.92629482071715,0)"><line stroke="#000" y2="6"></line><text fill="#000" y="9" dy="0.71em">160</text></g><g class="tick" opacity="1" transform="translate(499.70318725099605,0)"><line stroke="#000" y2="6"></line><text fill="#000" y="9" dy="0.71em">180</text></g><g class="tick" opacity="1" transform="translate(555.4800796812749,0)"><line stroke="#000" y2="6"></line><text fill="#000" y="9" dy="0.71em">200</text></g><g class="tick" opacity="1" transform="translate(611.2569721115538,0)"><line stroke="#000" y2="6"></line><text fill="#000" y="9" dy="0.71em">220</text></g><g class="tick" opacity="1" transform="translate(667.0338645418327,0)"><line stroke="#000" y2="6"></line><text fill="#000" y="9" dy="0.71em">240</text></g></g><text class="x label" text-anchor="end" x="700" y="390" style="font-size: 13px; font-family: Arial;">Residue number</text><g class="yAxis" fill="none" font-size="10" font-family="sans-serif" text-anchor="end"><path class="domain" stroke="#000" d="M-6,360.5H0.5V0.5H-6"></path><g class="tick" opacity="1" transform="translate(0,358.1319784111992)"><line stroke="#000" x2="-6"></line><text fill="#000" x="-9" dy="0.32em"></text></g><g class="tick" opacity="1" transform="translate(0,327.77272727272725)"><line stroke="#000" x2="-6"></line><text fill="#000" x="-9" dy="0.32em">0</text></g><g class="tick" opacity="1" transform="translate(0,297.41347613425535)"><line stroke="#000" x2="-6"></line><text fill="#000" x="-9" dy="0.32em">10</text></g><g class="tick" opacity="1" transform="translate(0,267.05422499578344)"><line stroke="#000" x2="-6"></line><text fill="#000" x="-9" dy="0.32em">20</text></g><g class="tick" opacity="1" transform="translate(0,236.6949738573115)"><line stroke="#000" x2="-6"></line><text fill="#000" x="-9" dy="0.32em">30</text></g><g class="tick" opacity="1" transform="translate(0,206.3357227188396)"><line stroke="#000" x2="-6"></line><text fill="#000" x="-9" dy="0.32em">40</text></g><g class="tick" opacity="1" transform="translate(0,175.9764715803677)"><line stroke="#000" x2="-6"></line><text fill="#000" x="-9" dy="0.32em">50</text></g><g class="tick" opacity="1" transform="translate(0,145.61722044189574)"><line stroke="#000" x2="-6"></line><text fill="#000" x="-9" dy="0.32em">60</text></g><g class="tick" opacity="1" transform="translate(0,115.25796930342383)"><line stroke="#000" x2="-6"></line><text fill="#000" x="-9" dy="0.32em">70</text></g><g class="tick" opacity="1" transform="translate(0,84.89871816495196)"><line stroke="#000" x2="-6"></line><text fill="#000" x="-9" dy="0.32em">80</text></g><g class="tick" opacity="1" transform="translate(0,54.53946702648)"><line stroke="#000" x2="-6"></line><text fill="#000" x="-9" dy="0.32em">90</text></g><g class="tick" opacity="1" transform="translate(0,24.180215888008092)"><line stroke="#000" x2="-6"></line><text fill="#000" x="-9" dy="0.32em">100</text></g></g><text class="y label" text-anchor="middle" y="-50" x="-180" dy="0.8em" transform="rotate(-90)" style="font-size: 13px; font-family: Arial;">Total number of references</text><g class="axisRed" fill="none" font-size="10" font-family="sans-serif" text-anchor="start" visibility="hidden" transform="translate(700, 0)"><path class="domain" stroke="#000" d="M6,360.5H0.5V0.5H6"></path><g class="tick" opacity="1" transform="translate(0,360.5)"><line stroke="#000" x2="6"></line><text fill="#000" x="9" dy="0.32em">0</text></g><text text-anchor="start" dx="5.2em" dy="-2.6em" transform="rotate(90)" visibility="hidden" style="font-size: 12px; font-family: Arial; fill: #d7301f;">No recurrent (&gt;2) missense mutations!</text></g><g class="axisPurple" fill="none" font-size="10" font-family="sans-serif" text-anchor="start" visibility="hidden"><path class="domain" stroke="#000" d="M6,360.5H0.5V0.5H6"></path><g class="tick" opacity="1" transform="translate(0,357.52479338842977)"><line stroke="#000" x2="6"></line><text fill="#000" x="9" dy="0.32em"></text></g><g class="tick" opacity="1" transform="translate(0,327.77272727272725)"><line stroke="#000" x2="6"></line><text fill="#000" x="9" dy="0.32em">0</text></g><g class="tick" opacity="1" transform="translate(0,298.0206611570248)"><line stroke="#000" x2="6"></line><text fill="#000" x="9" dy="0.32em">0.1</text></g><g class="tick" opacity="1" transform="translate(0,268.2685950413223)"><line stroke="#000" x2="6"></line><text fill="#000" x="9" dy="0.32em">0.2</text></g><g class="tick" opacity="1" transform="translate(0,238.51652892561984)"><line stroke="#000" x2="6"></line><text fill="#000" x="9" dy="0.32em">0.3</text></g><g class="tick" opacity="1" transform="translate(0,208.76446280991738)"><line stroke="#000" x2="6"></line><text fill="#000" x="9" dy="0.32em">0.4</text></g><g class="tick" opacity="1" transform="translate(0,179.0123966942149)"><line stroke="#000" x2="6"></line><text fill="#000" x="9" dy="0.32em">0.5</text></g><g class="tick" opacity="1" transform="translate(0,149.26033057851242)"><line stroke="#000" x2="6"></line><text fill="#000" x="9" dy="0.32em">0.6</text></g><g class="tick" opacity="1" transform="translate(0,119.50826446280996)"><line stroke="#000" x2="6"></line><text fill="#000" x="9" dy="0.32em">0.7</text></g><g class="tick" opacity="1" transform="translate(0,89.75619834710744)"><line stroke="#000" x2="6"></line><text fill="#000" x="9" dy="0.32em">0.8</text></g><g class="tick" opacity="1" transform="translate(0,60.00413223140498)"><line stroke="#000" x2="6"></line><text fill="#000" x="9" dy="0.32em">0.9</text></g><g class="tick" opacity="1" transform="translate(0,30.25206611570252)"><line stroke="#000" x2="6"></line><text fill="#000" x="9" dy="0.32em">1</text></g><g class="tick" opacity="1" transform="translate(0,0.5)"><line stroke="#000" x2="6"></line><text fill="#000" x="9" dy="0.32em">1.1</text></g><text text-anchor="start" x="10" y="10" visibility="hidden" style="font-size: 12px; font-family: Arial; fill: #807dba;">No disease causing germline SNPs known!</text></g><circle cx="636" cy="15" r="10" class="compassNav" style="fill: #ffffff; stroke: #666666; stroke-width: 1px;"></circle><path d="M440.935 12.574l3.966 82.766C399.416 41.904 331.674 8 256 8 134.813 8 33.933 94.924 12.296 209.824 10.908 217.193 16.604 224 24.103 224h49.084c5.57 0 10.377-3.842 11.676-9.259C103.407 137.408 172.931 80 256 80c60.893 0 114.512 30.856 146.104 77.801l-101.53-4.865c-6.845-.328-12.574 5.133-12.574 11.986v47.411c0 6.627 5.373 12 12 12h200.333c6.627 0 12-5.373 12-12V12c0-6.627-5.373-12-12-12h-47.411c-6.853 0-12.315 5.729-11.987 12.574zM256 432c-60.895 0-114.517-30.858-146.109-77.805l101.868 4.871c6.845.327 12.573-5.134 12.573-11.986v-47.412c0-6.627-5.373-12-12-12H12c-6.627 0-12 5.373-12 12V500c0 6.627 5.373 12 12 12h47.385c6.863 0 12.328-5.745 11.985-12.599l-4.129-82.575C112.725 470.166 180.405 504 256 504c121.187 0 222.067-86.924 243.704-201.824 1.388-7.369-4.308-14.176-11.807-14.176h-49.084c-5.57 0-10.377 3.842-11.676 9.259C408.593 374.592 339.069 432 256 432z" class="compassNav" transform="translate(631, 10) scale(0.02)" style="fill: #666666; stroke: #666666; stroke-width: 1px;"></path><circle cx="658" cy="15" r="10" class="compassNav" style="fill: #ffffff; stroke: #666666; stroke-width: 1px;"></circle><line class="compassNav" stroke-width="2" stroke="#666666" x1="654" y1="15" x2="662" y2="15"></line><line class="compassNav" stroke-width="2" stroke="#666666" x1="658" y1="11" x2="658" y2="19"></line><circle cx="614" cy="15" r="10" class="compassNav" style="fill: #ffffff; stroke: #666666; stroke-width: 1px;"></circle><line class="compassNav" stroke-width="2" stroke="#666666" x1="610" y1="15" x2="618" y2="15"></line><path d="M582 14 l20 -12 a100,40 0 0,0 0,24z" class="compassNav" style="fill: #ffffff; stroke: #666666; stroke-width: 1px;"></path><path d="M690 14 l-20 -12 a100,40 0 0,1 0,24z" class="compassNav" style="fill: #ffffff; stroke: #666666; stroke-width: 1px;"></path><path d="M216 0h80c13.3 0 24 10.7 24 24v168h87.7c17.8 0 26.7 21.5 14.1 34.1L269.7 378.3c-7.5 7.5-19.8 7.5-27.3 0L90.1 226.1c-12.6-12.6-3.7-34.1 14.1-34.1H192V24c0-13.3 10.7-24 24-24zm296 376v112c0 13.3-10.7 24-24 24H24c-13.3 0-24-10.7-24-24V376c0-13.3 10.7-24 24-24h146.7l49 49c20.1 20.1 52.5 20.1 72.6 0l49-49H488c13.3 0 24 10.7 24 24zm-124 88c0-11-9-20-20-20s-20 9-20 20 9 20 20 20 20-9 20-20zm64 0c0-11-9-20-20-20s-20 9-20 20 9 20 20 20 20-9 20-20z" class="compassNav" transform="translate(552,0) scale(0.05)" style="fill: #336699; stroke: #336699; stroke-width: 1px; cursor: pointer;"></path></g></svg>