<svg width="800" height="400" style="background-color: white;"><g transform="translate(50,0)"><svg width="700" height="360"><g style="-webkit-tap-highlight-color: rgba(0, 0, 0, 0);"><rect width="700" height="360" style="fill: #ffffff;"></rect><g id="lines"><line class="line" stroke-width="1" stroke="#d7301f" x1="-548.062015503876" y1="333" x2="-548.062015503876" y2="360" visibility="hidden" style="stroke-dasharray: 3px, 3px;"></line></g><g><rect x="-553.062015503876" y="355" width="10" height="10" visibility="hidden" style="fill: #ffffff; stroke: #d7301f;"></rect></g><g id="lines"><line class="line" stroke-width="1" stroke="#6a51a3" x1="-548.062015503876" y1="333" x2="-548.062015503876" y2="327.27272727272725" visibility="hidden" style="stroke-dasharray: 3px, 3px;"></line></g><g><rect x="-553.062015503876" y="322.27272727272725" width="10" height="10" visibility="hidden" style="fill: #ffffff; stroke: #6a51a3;"></rect></g><g id="lines"><line class="line" stroke-width="1" stroke="#666666" x1="206.2015503875969" y1="333" x2="206.2015503875969" y2="29.75206611570252"></line><line class="line" stroke-width="1" stroke="#666666" x1="238.75968992248062" y1="333" x2="238.75968992248062" y2="29.75206611570252"></line><line class="line" stroke-width="1" stroke="#666666" x1="265.8914728682171" y1="333" x2="265.8914728682171" y2="29.75206611570252"></line><line class="line" stroke-width="1" stroke="#666666" x1="293.0232558139535" y1="333" x2="293.0232558139535" y2="29.75206611570252"></line></g><g id="circles"><circle r="4" cx="206.2015503875969" cy="29.75206611570252" style="fill: #4393c3; stroke: #666666; stroke-width: 1px;"></circle><circle r="4" cx="238.75968992248062" cy="29.75206611570252" style="fill: #4393c3; stroke: #666666; stroke-width: 1px;"></circle><circle r="4" cx="265.8914728682171" cy="29.75206611570252" style="fill: #4393c3; stroke: #666666; stroke-width: 1px;"></circle><circle r="4" cx="293.0232558139535" cy="29.75206611570252" style="fill: #4393c3; stroke: #666666; stroke-width: 1px;"></circle></g><g><rect x="0" y="333" width="700" height="12" style="fill: #ffffff; stroke-width: 1px; stroke: #666666;"></rect><rect x="113.95348837209303" y="333" width="586.046511627907" height="12" style="fill: #aec7e8; stroke-width: 1px; stroke: #666666;"></rect></g><g><a target="_blank" xlink:href="http://pfam.xfam.org/family/"><text y="343" x="350" text-anchor="middle" style="color: rgb(102, 102, 102); font-weight: normal; font-size: 12px; font-family: Arial; cursor: pointer;"></text></a><a target="_blank" xlink:href="http://pfam.xfam.org/family/SAA"><text y="343" x="406.9767441860465" text-anchor="middle" style="color: rgb(102, 102, 102); font-weight: normal; font-size: 12px; font-family: Arial; cursor: pointer;">SAA</text></a></g><g><text y="358" x="0" text-anchor="middle" visibility="hidden" style="font-size: 13px;">M</text><text y="358" x="5.426356589147287" text-anchor="middle" visibility="hidden" style="font-size: 13px;">R</text><text y="358" x="10.852713178294573" text-anchor="middle" visibility="hidden" style="font-size: 13px;">L</text><text y="358" x="16.27906976744186" text-anchor="middle" visibility="hidden" style="font-size: 13px;">F</text><text y="358" x="21.705426356589147" text-anchor="middle" visibility="hidden" style="font-size: 13px;">T</text><text y="358" x="27.131782945736433" text-anchor="middle" visibility="hidden" style="font-size: 13px;">G</text><text y="358" x="32.55813953488372" text-anchor="middle" visibility="hidden" style="font-size: 13px;">I</text><text y="358" x="37.984496124031004" text-anchor="middle" visibility="hidden" style="font-size: 13px;">V</text><text y="358" x="43.41085271317829" text-anchor="middle" visibility="hidden" style="font-size: 13px;">F</text><text y="358" x="48.83720930232558" text-anchor="middle" visibility="hidden" style="font-size: 13px;">C</text><text y="358" x="54.263565891472865" text-anchor="middle" visibility="hidden" style="font-size: 13px;">S</text><text y="358" x="59.689922480620154" text-anchor="middle" visibility="hidden" style="font-size: 13px;">L</text><text y="358" x="65.11627906976744" text-anchor="middle" visibility="hidden" style="font-size: 13px;">V</text><text y="358" x="70.54263565891473" text-anchor="middle" visibility="hidden" style="font-size: 13px;">M</text><text y="358" x="75.96899224806201" text-anchor="middle" visibility="hidden" style="font-size: 13px;">G</text><text y="358" x="81.3953488372093" text-anchor="middle" visibility="hidden" style="font-size: 13px;">V</text><text y="358" x="86.82170542635659" text-anchor="middle" visibility="hidden" style="font-size: 13px;">T</text><text y="358" x="92.24806201550389" text-anchor="middle" visibility="hidden" style="font-size: 13px;">S</text><text y="358" x="97.67441860465117" text-anchor="middle" visibility="hidden" style="font-size: 13px;">E</text><text y="358" x="103.10077519379846" text-anchor="middle" visibility="hidden" style="font-size: 13px;">S</text><text y="358" x="108.52713178294573" text-anchor="middle" visibility="hidden" style="font-size: 13px;">W</text><text y="358" x="113.95348837209303" text-anchor="middle" visibility="hidden" style="font-size: 13px;">R</text><text y="358" x="119.37984496124031" text-anchor="middle" visibility="hidden" style="font-size: 13px;">S</text><text y="358" x="124.8062015503876" text-anchor="middle" visibility="hidden" style="font-size: 13px;">F</text><text y="358" x="130.2325581395349" text-anchor="middle" visibility="hidden" style="font-size: 13px;">F</text><text y="358" x="135.6589147286822" text-anchor="middle" visibility="hidden" style="font-size: 13px;">K</text><text y="358" x="141.08527131782947" text-anchor="middle" visibility="hidden" style="font-size: 13px;">E</text><text y="358" x="146.51162790697674" text-anchor="middle" visibility="hidden" style="font-size: 13px;">A</text><text y="358" x="151.93798449612402" text-anchor="middle" visibility="hidden" style="font-size: 13px;">L</text><text y="358" x="157.36434108527132" text-anchor="middle" visibility="hidden" style="font-size: 13px;">Q</text><text y="358" x="162.7906976744186" text-anchor="middle" visibility="hidden" style="font-size: 13px;">G</text><text y="358" x="168.2170542635659" text-anchor="middle" visibility="hidden" style="font-size: 13px;">V</text><text y="358" x="173.64341085271317" text-anchor="middle" visibility="hidden" style="font-size: 13px;">G</text><text y="358" x="179.06976744186048" text-anchor="middle" visibility="hidden" style="font-size: 13px;">D</text><text y="358" x="184.49612403100778" text-anchor="middle" visibility="hidden" style="font-size: 13px;">M</text><text y="358" x="189.92248062015503" text-anchor="middle" visibility="hidden" style="font-size: 13px;">G</text><text y="358" x="195.34883720930233" text-anchor="middle" visibility="hidden" style="font-size: 13px;">R</text><text y="358" x="200.7751937984496" text-anchor="middle" visibility="hidden" style="font-size: 13px;">A</text><text y="358" x="206.2015503875969" text-anchor="middle" visibility="hidden" style="font-size: 13px;">Y</text><text y="358" x="211.62790697674419" text-anchor="middle" visibility="hidden" style="font-size: 13px;">W</text><text y="358" x="217.05426356589146" text-anchor="middle" visibility="hidden" style="font-size: 13px;">D</text><text y="358" x="222.48062015503876" text-anchor="middle" visibility="hidden" style="font-size: 13px;">I</text><text y="358" x="227.90697674418607" text-anchor="middle" visibility="hidden" style="font-size: 13px;">M</text><text y="358" x="233.33333333333331" text-anchor="middle" visibility="hidden" style="font-size: 13px;">I</text><text y="358" x="238.75968992248062" text-anchor="middle" visibility="hidden" style="font-size: 13px;">S</text><text y="358" x="244.18604651162792" text-anchor="middle" visibility="hidden" style="font-size: 13px;">N</text><text y="358" x="249.6124031007752" text-anchor="middle" visibility="hidden" style="font-size: 13px;">H</text><text y="358" x="255.03875968992247" text-anchor="middle" visibility="hidden" style="font-size: 13px;">Q</text><text y="358" x="260.4651162790698" text-anchor="middle" visibility="hidden" style="font-size: 13px;">N</text><text y="358" x="265.8914728682171" text-anchor="middle" visibility="hidden" style="font-size: 13px;">S</text><text y="358" x="271.3178294573644" text-anchor="middle" visibility="hidden" style="font-size: 13px;">N</text><text y="358" x="276.74418604651163" text-anchor="middle" visibility="hidden" style="font-size: 13px;">R</text><text y="358" x="282.17054263565893" text-anchor="middle" visibility="hidden" style="font-size: 13px;">Y</text><text y="358" x="287.5968992248062" text-anchor="middle" visibility="hidden" style="font-size: 13px;">L</text><text y="358" x="293.0232558139535" text-anchor="middle" visibility="hidden" style="font-size: 13px;">Y</text><text y="358" x="298.4496124031008" text-anchor="middle" visibility="hidden" style="font-size: 13px;">A</text><text y="358" x="303.87596899224803" text-anchor="middle" visibility="hidden" style="font-size: 13px;">R</text><text y="358" x="309.30232558139534" text-anchor="middle" visibility="hidden" style="font-size: 13px;">G</text><text y="358" x="314.72868217054264" text-anchor="middle" visibility="hidden" style="font-size: 13px;">N</text><text y="358" x="320.1550387596899" text-anchor="middle" visibility="hidden" style="font-size: 13px;">Y</text><text y="358" x="325.5813953488372" text-anchor="middle" visibility="hidden" style="font-size: 13px;">D</text><text y="358" x="331.0077519379845" text-anchor="middle" visibility="hidden" style="font-size: 13px;">A</text><text y="358" x="336.4341085271318" text-anchor="middle" visibility="hidden" style="font-size: 13px;">A</text><text y="358" x="341.86046511627904" text-anchor="middle" visibility="hidden" style="font-size: 13px;">Q</text><text y="358" x="347.28682170542635" text-anchor="middle" visibility="hidden" style="font-size: 13px;">R</text><text y="358" x="352.71317829457365" text-anchor="middle" visibility="hidden" style="font-size: 13px;">G</text><text y="358" x="358.13953488372096" text-anchor="middle" visibility="hidden" style="font-size: 13px;">P</text><text y="358" x="363.56589147286826" text-anchor="middle" visibility="hidden" style="font-size: 13px;">G</text><text y="358" x="368.99224806201556" text-anchor="middle" visibility="hidden" style="font-size: 13px;">G</text><text y="358" x="374.41860465116275" text-anchor="middle" visibility="hidden" style="font-size: 13px;">V</text><text y="358" x="379.84496124031006" text-anchor="middle" visibility="hidden" style="font-size: 13px;">W</text><text y="358" x="385.27131782945736" text-anchor="middle" visibility="hidden" style="font-size: 13px;">A</text><text y="358" x="390.69767441860466" text-anchor="middle" visibility="hidden" style="font-size: 13px;">A</text><text y="358" x="396.12403100775197" text-anchor="middle" visibility="hidden" style="font-size: 13px;">K</text><text y="358" x="401.5503875968992" text-anchor="middle" visibility="hidden" style="font-size: 13px;">L</text><text y="358" x="406.9767441860465" text-anchor="middle" visibility="hidden" style="font-size: 13px;">I</text><text y="358" x="412.4031007751938" text-anchor="middle" visibility="hidden" style="font-size: 13px;">S</text><text y="358" x="417.82945736434107" text-anchor="middle" visibility="hidden" style="font-size: 13px;">R</text><text y="358" x="423.25581395348837" text-anchor="middle" visibility="hidden" style="font-size: 13px;">S</text><text y="358" x="428.6821705426356" text-anchor="middle" visibility="hidden" style="font-size: 13px;">R</text><text y="358" x="434.1085271317829" text-anchor="middle" visibility="hidden" style="font-size: 13px;">V</text><text y="358" x="439.5348837209302" text-anchor="middle" visibility="hidden" style="font-size: 13px;">Y</text><text y="358" x="444.9612403100775" text-anchor="middle" visibility="hidden" style="font-size: 13px;">L</text><text y="358" x="450.38759689922483" text-anchor="middle" visibility="hidden" style="font-size: 13px;">Q</text><text y="358" x="455.81395348837214" text-anchor="middle" visibility="hidden" style="font-size: 13px;">G</text><text y="358" x="461.2403100775193" text-anchor="middle" visibility="hidden" style="font-size: 13px;">L</text><text y="358" x="466.66666666666663" text-anchor="middle" visibility="hidden" style="font-size: 13px;">I</text><text y="358" x="472.09302325581393" text-anchor="middle" visibility="hidden" style="font-size: 13px;">D</text><text y="358" x="477.51937984496124" text-anchor="middle" visibility="hidden" style="font-size: 13px;">C</text><text y="358" x="482.94573643410854" text-anchor="middle" visibility="hidden" style="font-size: 13px;">Y</text><text y="358" x="488.37209302325584" text-anchor="middle" visibility="hidden" style="font-size: 13px;">L</text><text y="358" x="493.79844961240315" text-anchor="middle" visibility="hidden" style="font-size: 13px;">F</text><text y="358" x="499.2248062015504" text-anchor="middle" visibility="hidden" style="font-size: 13px;">G</text><text y="358" x="504.65116279069764" text-anchor="middle" visibility="hidden" style="font-size: 13px;">N</text><text y="358" x="510.07751937984494" text-anchor="middle" visibility="hidden" style="font-size: 13px;">S</text><text y="358" x="515.5038759689922" text-anchor="middle" visibility="hidden" style="font-size: 13px;">S</text><text y="358" x="520.9302325581396" text-anchor="middle" visibility="hidden" style="font-size: 13px;">T</text><text y="358" x="526.3565891472869" text-anchor="middle" visibility="hidden" style="font-size: 13px;">V</text><text y="358" x="531.7829457364342" text-anchor="middle" visibility="hidden" style="font-size: 13px;">L</text><text y="358" x="537.2093023255815" text-anchor="middle" visibility="hidden" style="font-size: 13px;">E</text><text y="358" x="542.6356589147288" text-anchor="middle" visibility="hidden" style="font-size: 13px;">D</text><text y="358" x="548.062015503876" text-anchor="middle" visibility="hidden" style="font-size: 13px;">S</text><text y="358" x="553.4883720930233" text-anchor="middle" visibility="hidden" style="font-size: 13px;">K</text><text y="358" x="558.9147286821706" text-anchor="middle" visibility="hidden" style="font-size: 13px;">S</text><text y="358" x="564.3410852713179" text-anchor="middle" visibility="hidden" style="font-size: 13px;">N</text><text y="358" x="569.7674418604652" text-anchor="middle" visibility="hidden" style="font-size: 13px;">E</text><text y="358" x="575.1937984496124" text-anchor="middle" visibility="hidden" style="font-size: 13px;">K</text><text y="358" x="580.6201550387597" text-anchor="middle" visibility="hidden" style="font-size: 13px;">A</text><text y="358" x="586.046511627907" text-anchor="middle" visibility="hidden" style="font-size: 13px;">E</text><text y="358" x="591.4728682170543" text-anchor="middle" visibility="hidden" style="font-size: 13px;">E</text><text y="358" x="596.8992248062016" text-anchor="middle" visibility="hidden" style="font-size: 13px;">W</text><text y="358" x="602.3255813953488" text-anchor="middle" visibility="hidden" style="font-size: 13px;">G</text><text y="358" x="607.7519379844961" text-anchor="middle" visibility="hidden" style="font-size: 13px;">R</text><text y="358" x="613.1782945736434" text-anchor="middle" visibility="hidden" style="font-size: 13px;">S</text><text y="358" x="618.6046511627907" text-anchor="middle" visibility="hidden" style="font-size: 13px;">G</text><text y="358" x="624.031007751938" text-anchor="middle" visibility="hidden" style="font-size: 13px;">K</text><text y="358" x="629.4573643410853" text-anchor="middle" visibility="hidden" style="font-size: 13px;">D</text><text y="358" x="634.8837209302325" text-anchor="middle" visibility="hidden" style="font-size: 13px;">P</text><text y="358" x="640.3100775193798" text-anchor="middle" visibility="hidden" style="font-size: 13px;">D</text><text y="358" x="645.7364341085271" text-anchor="middle" visibility="hidden" style="font-size: 13px;">R</text><text y="358" x="651.1627906976744" text-anchor="middle" visibility="hidden" style="font-size: 13px;">F</text><text y="358" x="656.5891472868217" text-anchor="middle" visibility="hidden" style="font-size: 13px;">R</text><text y="358" x="662.015503875969" text-anchor="middle" visibility="hidden" style="font-size: 13px;">P</text><text y="358" x="667.4418604651163" text-anchor="middle" visibility="hidden" style="font-size: 13px;">D</text><text y="358" x="672.8682170542636" text-anchor="middle" visibility="hidden" style="font-size: 13px;">G</text><text y="358" x="678.2945736434108" text-anchor="middle" visibility="hidden" style="font-size: 13px;">L</text><text y="358" x="683.7209302325581" text-anchor="middle" visibility="hidden" style="font-size: 13px;">P</text><text y="358" x="689.1472868217054" text-anchor="middle" visibility="hidden" style="font-size: 13px;">K</text><text y="358" x="694.5736434108527" text-anchor="middle" visibility="hidden" style="font-size: 13px;">K</text><text y="358" x="700" text-anchor="middle" visibility="hidden" style="font-size: 13px;">Y</text></g></g></svg><g class="xAxis" transform="translate(0,360)" fill="none" font-size="10" font-family="sans-serif" text-anchor="middle"><path class="domain" stroke="#000" d="M0.5,6V0.5H700.5V6"></path><g class="tick" opacity="1" transform="translate(49.33720930232558,0)"><line stroke="#000" y2="6"></line><text fill="#000" y="9" dy="0.71em">10</text></g><g class="tick" opacity="1" transform="translate(103.60077519379846,0)"><line stroke="#000" y2="6"></line><text fill="#000" y="9" dy="0.71em">20</text></g><g class="tick" opacity="1" transform="translate(157.86434108527132,0)"><line stroke="#000" y2="6"></line><text fill="#000" y="9" dy="0.71em">30</text></g><g class="tick" opacity="1" transform="translate(212.12790697674419,0)"><line stroke="#000" y2="6"></line><text fill="#000" y="9" dy="0.71em">40</text></g><g class="tick" opacity="1" transform="translate(266.3914728682171,0)"><line stroke="#000" y2="6"></line><text fill="#000" y="9" dy="0.71em">50</text></g><g class="tick" opacity="1" transform="translate(320.6550387596899,0)"><line stroke="#000" y2="6"></line><text fill="#000" y="9" dy="0.71em">60</text></g><g class="tick" opacity="1" transform="translate(374.91860465116275,0)"><line stroke="#000" y2="6"></line><text fill="#000" y="9" dy="0.71em">70</text></g><g class="tick" opacity="1" transform="translate(429.1821705426356,0)"><line stroke="#000" y2="6"></line><text fill="#000" y="9" dy="0.71em">80</text></g><g class="tick" opacity="1" transform="translate(483.44573643410854,0)"><line stroke="#000" y2="6"></line><text fill="#000" y="9" dy="0.71em">90</text></g><g class="tick" opacity="1" transform="translate(537.7093023255815,0)"><line stroke="#000" y2="6"></line><text fill="#000" y="9" dy="0.71em">100</text></g><g class="tick" opacity="1" transform="translate(591.9728682170543,0)"><line stroke="#000" y2="6"></line><text fill="#000" y="9" dy="0.71em">110</text></g><g class="tick" opacity="1" transform="translate(646.2364341085271,0)"><line stroke="#000" y2="6"></line><text fill="#000" y="9" dy="0.71em">120</text></g><g class="tick" opacity="1" transform="translate(700.5,0)"><line stroke="#000" y2="6"></line><text fill="#000" y="9" dy="0.71em">130</text></g></g><text class="x label" text-anchor="end" x="700" y="390" style="font-size: 13px; font-family: Arial;">Residue number</text><g class="yAxis" fill="none" font-size="10" font-family="sans-serif" text-anchor="end"><path class="domain" stroke="#000" d="M-6,360.5H0.5V0.5H-6"></path><g class="tick" opacity="1" transform="translate(0,357.52479338842977)"><line stroke="#000" x2="-6"></line><text fill="#000" x="-9" dy="0.32em"></text></g><g class="tick" opacity="1" transform="translate(0,327.77272727272725)"><line stroke="#000" x2="-6"></line><text fill="#000" x="-9" dy="0.32em">0</text></g><g class="tick" opacity="1" transform="translate(0,298.0206611570248)"><line stroke="#000" x2="-6"></line><text fill="#000" x="-9" dy="0.32em">0.1</text></g><g class="tick" opacity="1" transform="translate(0,268.2685950413223)"><line stroke="#000" x2="-6"></line><text fill="#000" x="-9" dy="0.32em">0.2</text></g><g class="tick" opacity="1" transform="translate(0,238.51652892561984)"><line stroke="#000" x2="-6"></line><text fill="#000" x="-9" dy="0.32em">0.3</text></g><g class="tick" opacity="1" transform="translate(0,208.76446280991738)"><line stroke="#000" x2="-6"></line><text fill="#000" x="-9" dy="0.32em">0.4</text></g><g class="tick" opacity="1" transform="translate(0,179.0123966942149)"><line stroke="#000" x2="-6"></line><text fill="#000" x="-9" dy="0.32em">0.5</text></g><g class="tick" opacity="1" transform="translate(0,149.26033057851242)"><line stroke="#000" x2="-6"></line><text fill="#000" x="-9" dy="0.32em">0.6</text></g><g class="tick" opacity="1" transform="translate(0,119.50826446280996)"><line stroke="#000" x2="-6"></line><text fill="#000" x="-9" dy="0.32em">0.7</text></g><g class="tick" opacity="1" transform="translate(0,89.75619834710744)"><line stroke="#000" x2="-6"></line><text fill="#000" x="-9" dy="0.32em">0.8</text></g><g class="tick" opacity="1" transform="translate(0,60.00413223140498)"><line stroke="#000" x2="-6"></line><text fill="#000" x="-9" dy="0.32em">0.9</text></g><g class="tick" opacity="1" transform="translate(0,30.25206611570252)"><line stroke="#000" x2="-6"></line><text fill="#000" x="-9" dy="0.32em">1</text></g><g class="tick" opacity="1" transform="translate(0,0.5)"><line stroke="#000" x2="-6"></line><text fill="#000" x="-9" dy="0.32em">1.1</text></g></g><text class="y label" text-anchor="middle" y="-50" x="-180" dy="0.8em" transform="rotate(-90)" style="font-size: 13px; font-family: Arial;">Total number of references</text><g class="axisRed" fill="none" font-size="10" font-family="sans-serif" text-anchor="start" visibility="hidden" transform="translate(700, 0)"><path class="domain" stroke="#000" d="M6,360.5H0.5V0.5H6"></path><g class="tick" opacity="1" transform="translate(0,360.5)"><line stroke="#000" x2="6"></line><text fill="#000" x="9" dy="0.32em">0</text></g><text text-anchor="start" dx="5.2em" dy="-2.6em" transform="rotate(90)" visibility="hidden" style="font-size: 12px; font-family: Arial; fill: #d7301f;">No recurrent (&gt;2) missense mutations!</text></g><g class="axisPurple" fill="none" font-size="10" font-family="sans-serif" text-anchor="start" visibility="hidden"><path class="domain" stroke="#000" d="M6,360.5H0.5V0.5H6"></path><g class="tick" opacity="1" transform="translate(0,357.52479338842977)"><line stroke="#000" x2="6"></line><text fill="#000" x="9" dy="0.32em"></text></g><g class="tick" opacity="1" transform="translate(0,327.77272727272725)"><line stroke="#000" x2="6"></line><text fill="#000" x="9" dy="0.32em">0</text></g><g class="tick" opacity="1" transform="translate(0,298.0206611570248)"><line stroke="#000" x2="6"></line><text fill="#000" x="9" dy="0.32em">0.1</text></g><g class="tick" opacity="1" transform="translate(0,268.2685950413223)"><line stroke="#000" x2="6"></line><text fill="#000" x="9" dy="0.32em">0.2</text></g><g class="tick" opacity="1" transform="translate(0,238.51652892561984)"><line stroke="#000" x2="6"></line><text fill="#000" x="9" dy="0.32em">0.3</text></g><g class="tick" opacity="1" transform="translate(0,208.76446280991738)"><line stroke="#000" x2="6"></line><text fill="#000" x="9" dy="0.32em">0.4</text></g><g class="tick" opacity="1" transform="translate(0,179.0123966942149)"><line stroke="#000" x2="6"></line><text fill="#000" x="9" dy="0.32em">0.5</text></g><g class="tick" opacity="1" transform="translate(0,149.26033057851242)"><line stroke="#000" x2="6"></line><text fill="#000" x="9" dy="0.32em">0.6</text></g><g class="tick" opacity="1" transform="translate(0,119.50826446280996)"><line stroke="#000" x2="6"></line><text fill="#000" x="9" dy="0.32em">0.7</text></g><g class="tick" opacity="1" transform="translate(0,89.75619834710744)"><line stroke="#000" x2="6"></line><text fill="#000" x="9" dy="0.32em">0.8</text></g><g class="tick" opacity="1" transform="translate(0,60.00413223140498)"><line stroke="#000" x2="6"></line><text fill="#000" x="9" dy="0.32em">0.9</text></g><g class="tick" opacity="1" transform="translate(0,30.25206611570252)"><line stroke="#000" x2="6"></line><text fill="#000" x="9" dy="0.32em">1</text></g><g class="tick" opacity="1" transform="translate(0,0.5)"><line stroke="#000" x2="6"></line><text fill="#000" x="9" dy="0.32em">1.1</text></g><text text-anchor="start" x="10" y="10" visibility="hidden" style="font-size: 12px; font-family: Arial; fill: #807dba;">No disease causing germline SNPs known!</text></g><circle cx="636" cy="15" r="10" class="compassNav" style="fill: #ffffff; stroke: #666666; stroke-width: 1px;"></circle><path d="M440.935 12.574l3.966 82.766C399.416 41.904 331.674 8 256 8 134.813 8 33.933 94.924 12.296 209.824 10.908 217.193 16.604 224 24.103 224h49.084c5.57 0 10.377-3.842 11.676-9.259C103.407 137.408 172.931 80 256 80c60.893 0 114.512 30.856 146.104 77.801l-101.53-4.865c-6.845-.328-12.574 5.133-12.574 11.986v47.411c0 6.627 5.373 12 12 12h200.333c6.627 0 12-5.373 12-12V12c0-6.627-5.373-12-12-12h-47.411c-6.853 0-12.315 5.729-11.987 12.574zM256 432c-60.895 0-114.517-30.858-146.109-77.805l101.868 4.871c6.845.327 12.573-5.134 12.573-11.986v-47.412c0-6.627-5.373-12-12-12H12c-6.627 0-12 5.373-12 12V500c0 6.627 5.373 12 12 12h47.385c6.863 0 12.328-5.745 11.985-12.599l-4.129-82.575C112.725 470.166 180.405 504 256 504c121.187 0 222.067-86.924 243.704-201.824 1.388-7.369-4.308-14.176-11.807-14.176h-49.084c-5.57 0-10.377 3.842-11.676 9.259C408.593 374.592 339.069 432 256 432z" class="compassNav" transform="translate(631, 10) scale(0.02)" style="fill: #666666; stroke: #666666; stroke-width: 1px;"></path><circle cx="658" cy="15" r="10" class="compassNav" style="fill: #ffffff; stroke: #666666; stroke-width: 1px;"></circle><line class="compassNav" stroke-width="2" stroke="#666666" x1="654" y1="15" x2="662" y2="15"></line><line class="compassNav" stroke-width="2" stroke="#666666" x1="658" y1="11" x2="658" y2="19"></line><circle cx="614" cy="15" r="10" class="compassNav" style="fill: #ffffff; stroke: #666666; stroke-width: 1px;"></circle><line class="compassNav" stroke-width="2" stroke="#666666" x1="610" y1="15" x2="618" y2="15"></line><path d="M582 14 l20 -12 a100,40 0 0,0 0,24z" class="compassNav" style="fill: #ffffff; stroke: #666666; stroke-width: 1px;"></path><path d="M690 14 l-20 -12 a100,40 0 0,1 0,24z" class="compassNav" style="fill: #ffffff; stroke: #666666; stroke-width: 1px;"></path><path d="M216 0h80c13.3 0 24 10.7 24 24v168h87.7c17.8 0 26.7 21.5 14.1 34.1L269.7 378.3c-7.5 7.5-19.8 7.5-27.3 0L90.1 226.1c-12.6-12.6-3.7-34.1 14.1-34.1H192V24c0-13.3 10.7-24 24-24zm296 376v112c0 13.3-10.7 24-24 24H24c-13.3 0-24-10.7-24-24V376c0-13.3 10.7-24 24-24h146.7l49 49c20.1 20.1 52.5 20.1 72.6 0l49-49H488c13.3 0 24 10.7 24 24zm-124 88c0-11-9-20-20-20s-20 9-20 20 9 20 20 20 20-9 20-20zm64 0c0-11-9-20-20-20s-20 9-20 20 9 20 20 20 20-9 20-20z" class="compassNav" transform="translate(552,0) scale(0.05)" style="fill: #336699; stroke: #336699; stroke-width: 1px; cursor: pointer;"></path></g></svg>