<svg width="800" height="400" style="background-color: white;"><g transform="translate(50,0)"><svg width="700" height="360"><g style="-webkit-tap-highlight-color: rgba(0, 0, 0, 0);"><rect width="700" height="360" style="fill: #ffffff;"></rect><g id="lines"><line class="line" stroke-width="1" stroke="#d7301f" x1="-490.9722222222222" y1="333" x2="-490.9722222222222" y2="360" visibility="hidden" style="stroke-dasharray: 3px, 3px;"></line></g><g><rect x="-495.9722222222222" y="355" width="10" height="10" visibility="hidden" style="fill: #ffffff; stroke: #d7301f;"></rect></g><g id="lines"><line class="line" stroke-width="1" stroke="#6a51a3" x1="262.5" y1="333" x2="262.5" y2="29.75206611570252" visibility="hidden" style="stroke-dasharray: 3px, 3px;"></line><line class="line" stroke-width="1" stroke="#6a51a3" x1="296.52777777777777" y1="333" x2="296.52777777777777" y2="327.27272727272725" visibility="hidden" style="stroke-dasharray: 3px, 3px;"></line><line class="line" stroke-width="1" stroke="#6a51a3" x1="68.05555555555556" y1="333" x2="68.05555555555556" y2="322.8486282220652" visibility="hidden" style="stroke-dasharray: 3px, 3px;"></line><line class="line" stroke-width="1" stroke="#6a51a3" x1="612.5" y1="333" x2="612.5" y2="327.27272727272725" visibility="hidden" style="stroke-dasharray: 3px, 3px;"></line></g><g><rect x="257.5" y="24.75206611570252" width="10" height="10" visibility="hidden" style="fill: #ffffff; stroke: #6a51a3;"></rect><rect x="291.52777777777777" y="322.27272727272725" width="10" height="10" visibility="hidden" style="fill: #ffffff; stroke: #6a51a3;"></rect><rect x="63.05555555555556" y="317.8486282220652" width="10" height="10" visibility="hidden" style="fill: #ffffff; stroke: #6a51a3;"></rect><rect x="607.5" y="322.27272727272725" width="10" height="10" visibility="hidden" style="fill: #ffffff; stroke: #6a51a3;"></rect></g><g id="lines"><line class="line" stroke-width="1" stroke="#666666" x1="29.166666666666664" y1="333" x2="29.166666666666664" y2="305.23415977961434"></line><line class="line" stroke-width="1" stroke="#666666" x1="29.166666666666664" y1="333" x2="29.166666666666664" y2="272.1763085399449"></line><line class="line" stroke-width="1" stroke="#666666" x1="29.166666666666664" y1="333" x2="29.166666666666664" y2="316.2534435261708"></line><line class="line" stroke-width="1" stroke="#666666" x1="106.94444444444446" y1="333" x2="106.94444444444446" y2="239.1184573002755"></line><line class="line" stroke-width="1" stroke="#666666" x1="106.94444444444446" y1="333" x2="106.94444444444446" y2="316.2534435261708"></line><line class="line" stroke-width="1" stroke="#666666" x1="136.11111111111111" y1="333" x2="136.11111111111111" y2="316.2534435261708"></line><line class="line" stroke-width="1" stroke="#666666" x1="136.11111111111111" y1="333" x2="136.11111111111111" y2="261.1570247933885"></line><line class="line" stroke-width="1" stroke="#666666" x1="179.8611111111111" y1="333" x2="179.8611111111111" y2="316.2534435261708"></line><line class="line" stroke-width="1" stroke="#666666" x1="179.8611111111111" y1="333" x2="179.8611111111111" y2="305.23415977961434"></line><line class="line" stroke-width="1" stroke="#666666" x1="204.16666666666669" y1="333" x2="204.16666666666669" y2="316.2534435261708"></line><line class="line" stroke-width="1" stroke="#666666" x1="204.16666666666669" y1="333" x2="204.16666666666669" y2="294.21487603305786"></line><line class="line" stroke-width="1" stroke="#666666" x1="228.47222222222223" y1="333" x2="228.47222222222223" y2="272.1763085399449"></line><line class="line" stroke-width="1" stroke="#666666" x1="257.6388888888889" y1="333" x2="257.6388888888889" y2="316.2534435261708"></line><line class="line" stroke-width="1" stroke="#666666" x1="262.5" y1="333" x2="262.5" y2="316.2534435261708"></line><line class="line" stroke-width="1" stroke="#666666" x1="267.3611111111111" y1="333" x2="267.3611111111111" y2="316.2534435261708"></line><line class="line" stroke-width="1" stroke="#666666" x1="281.94444444444446" y1="333" x2="281.94444444444446" y2="316.2534435261708"></line><line class="line" stroke-width="1" stroke="#666666" x1="320.8333333333333" y1="333" x2="320.8333333333333" y2="228.09917355371903"></line><line class="line" stroke-width="1" stroke="#666666" x1="354.8611111111111" y1="333" x2="354.8611111111111" y2="316.2534435261708"></line><line class="line" stroke-width="1" stroke="#666666" x1="364.58333333333337" y1="333" x2="364.58333333333337" y2="316.2534435261708"></line><line class="line" stroke-width="1" stroke="#666666" x1="369.44444444444446" y1="333" x2="369.44444444444446" y2="305.23415977961434"></line><line class="line" stroke-width="1" stroke="#666666" x1="369.44444444444446" y1="333" x2="369.44444444444446" y2="239.1184573002755"></line><line class="line" stroke-width="1" stroke="#666666" x1="432.6388888888889" y1="333" x2="432.6388888888889" y2="316.2534435261708"></line><line class="line" stroke-width="1" stroke="#666666" x1="452.08333333333337" y1="333" x2="452.08333333333337" y2="316.2534435261708"></line><line class="line" stroke-width="1" stroke="#666666" x1="534.7222222222222" y1="333" x2="534.7222222222222" y2="283.1955922865014"></line><line class="line" stroke-width="1" stroke="#666666" x1="534.7222222222222" y1="333" x2="534.7222222222222" y2="261.1570247933885"></line><line class="line" stroke-width="1" stroke="#666666" x1="554.1666666666666" y1="333" x2="554.1666666666666" y2="294.21487603305786"></line><line class="line" stroke-width="1" stroke="#666666" x1="588.1944444444445" y1="333" x2="588.1944444444445" y2="316.2534435261708"></line><line class="line" stroke-width="1" stroke="#666666" x1="641.6666666666666" y1="333" x2="641.6666666666666" y2="316.2534435261708"></line><line class="line" stroke-width="1" stroke="#666666" x1="690.2777777777778" y1="333" x2="690.2777777777778" y2="29.75206611570252"></line><line class="line" stroke-width="1" stroke="#666666" x1="695.1388888888889" y1="333" x2="695.1388888888889" y2="316.2534435261708"></line></g><g id="circles"><circle r="4" cx="29.166666666666664" cy="305.23415977961434" style="fill: #5aae61; stroke: #666666; stroke-width: 1px;"></circle><circle r="4" cx="29.166666666666664" cy="272.1763085399449" style="fill: #bf812d; stroke: #666666; stroke-width: 1px;"></circle><circle r="4" cx="29.166666666666664" cy="316.2534435261708" style="fill: #666666; stroke: #666666; stroke-width: 1px;"></circle><circle r="4" cx="106.94444444444446" cy="239.1184573002755" style="fill: #5aae61; stroke: #666666; stroke-width: 1px;"></circle><circle r="4" cx="106.94444444444446" cy="316.2534435261708" style="fill: #666666; stroke: #666666; stroke-width: 1px;"></circle><circle r="4" cx="136.11111111111111" cy="316.2534435261708" style="fill: #5aae61; stroke: #666666; stroke-width: 1px;"></circle><circle r="4" cx="136.11111111111111" cy="261.1570247933885" style="fill: #bf812d; stroke: #666666; stroke-width: 1px;"></circle><circle r="4" cx="179.8611111111111" cy="316.2534435261708" style="fill: #5aae61; stroke: #666666; stroke-width: 1px;"></circle><circle r="4" cx="179.8611111111111" cy="305.23415977961434" style="fill: #bf812d; stroke: #666666; stroke-width: 1px;"></circle><circle r="4" cx="204.16666666666669" cy="316.2534435261708" style="fill: #5aae61; stroke: #666666; stroke-width: 1px;"></circle><circle r="4" cx="204.16666666666669" cy="294.21487603305786" style="fill: #bf812d; stroke: #666666; stroke-width: 1px;"></circle><circle r="4" cx="228.47222222222223" cy="272.1763085399449" style="fill: #4393c3; stroke: #666666; stroke-width: 1px;"></circle><circle r="4" cx="257.6388888888889" cy="316.2534435261708" style="fill: #4393c3; stroke: #666666; stroke-width: 1px;"></circle><circle r="4" cx="262.5" cy="316.2534435261708" style="fill: #4393c3; stroke: #666666; stroke-width: 1px;"></circle><circle r="4" cx="267.3611111111111" cy="316.2534435261708" style="fill: #666666; stroke: #666666; stroke-width: 1px;"></circle><circle r="4" cx="281.94444444444446" cy="316.2534435261708" style="fill: #4393c3; stroke: #666666; stroke-width: 1px;"></circle><circle r="4" cx="320.8333333333333" cy="228.09917355371903" style="fill: #666666; stroke: #666666; stroke-width: 1px;"></circle><circle r="4" cx="354.8611111111111" cy="316.2534435261708" style="fill: #4393c3; stroke: #666666; stroke-width: 1px;"></circle><circle r="4" cx="364.58333333333337" cy="316.2534435261708" style="fill: #4393c3; stroke: #666666; stroke-width: 1px;"></circle><circle r="4" cx="369.44444444444446" cy="305.23415977961434" style="fill: #5aae61; stroke: #666666; stroke-width: 1px;"></circle><circle r="4" cx="369.44444444444446" cy="239.1184573002755" style="fill: #bf812d; stroke: #666666; stroke-width: 1px;"></circle><circle r="4" cx="432.6388888888889" cy="316.2534435261708" style="fill: #4393c3; stroke: #666666; stroke-width: 1px;"></circle><circle r="4" cx="452.08333333333337" cy="316.2534435261708" style="fill: #666666; stroke: #666666; stroke-width: 1px;"></circle><circle r="4" cx="534.7222222222222" cy="283.1955922865014" style="fill: #5aae61; stroke: #666666; stroke-width: 1px;"></circle><circle r="4" cx="534.7222222222222" cy="261.1570247933885" style="fill: #bf812d; stroke: #666666; stroke-width: 1px;"></circle><circle r="4" cx="554.1666666666666" cy="294.21487603305786" style="fill: #5aae61; stroke: #666666; stroke-width: 1px;"></circle><circle r="4" cx="588.1944444444445" cy="316.2534435261708" style="fill: #bf812d; stroke: #666666; stroke-width: 1px;"></circle><circle r="4" cx="641.6666666666666" cy="316.2534435261708" style="fill: #666666; stroke: #666666; stroke-width: 1px;"></circle><circle r="4" cx="690.2777777777778" cy="29.75206611570252" style="fill: #5aae61; stroke: #666666; stroke-width: 1px;"></circle><circle r="4" cx="695.1388888888889" cy="316.2534435261708" style="fill: #5aae61; stroke: #666666; stroke-width: 1px;"></circle></g><g><rect x="0" y="333" width="700" height="12" style="fill: #ffffff; stroke-width: 1px; stroke: #666666;"></rect><rect x="19.444444444444443" y="333" width="661.1111111111111" height="12" style="fill: #aec7e8; stroke-width: 1px; stroke: #666666;"></rect></g><g><a target="_blank" xlink:href="http://pfam.xfam.org/family/"><text y="343" x="350" text-anchor="middle" style="color: rgb(102, 102, 102); font-weight: normal; font-size: 12px; font-family: Arial; cursor: pointer;"></text></a><a target="_blank" xlink:href="http://pfam.xfam.org/family/Ribosomal_S19e"><text y="343" x="350" text-anchor="middle" style="color: rgb(102, 102, 102); font-weight: normal; font-size: 12px; font-family: Arial; cursor: pointer;">Ribosomal_S19e</text></a></g><g><text y="358" x="0" text-anchor="middle" visibility="hidden" style="font-size: 13px;">M</text><text y="358" x="4.861111111111111" text-anchor="middle" visibility="hidden" style="font-size: 13px;">P</text><text y="358" x="9.722222222222221" text-anchor="middle" visibility="hidden" style="font-size: 13px;">G</text><text y="358" x="14.583333333333332" text-anchor="middle" visibility="hidden" style="font-size: 13px;">V</text><text y="358" x="19.444444444444443" text-anchor="middle" visibility="hidden" style="font-size: 13px;">T</text><text y="358" x="24.305555555555557" text-anchor="middle" visibility="hidden" style="font-size: 13px;">V</text><text y="358" x="29.166666666666664" text-anchor="middle" visibility="hidden" style="font-size: 13px;">K</text><text y="358" x="34.02777777777778" text-anchor="middle" visibility="hidden" style="font-size: 13px;">D</text><text y="358" x="38.888888888888886" text-anchor="middle" visibility="hidden" style="font-size: 13px;">V</text><text y="358" x="43.75" text-anchor="middle" visibility="hidden" style="font-size: 13px;">N</text><text y="358" x="48.611111111111114" text-anchor="middle" visibility="hidden" style="font-size: 13px;">Q</text><text y="358" x="53.47222222222223" text-anchor="middle" visibility="hidden" style="font-size: 13px;">Q</text><text y="358" x="58.33333333333333" text-anchor="middle" visibility="hidden" style="font-size: 13px;">E</text><text y="358" x="63.19444444444444" text-anchor="middle" visibility="hidden" style="font-size: 13px;">F</text><text y="358" x="68.05555555555556" text-anchor="middle" visibility="hidden" style="font-size: 13px;">V</text><text y="358" x="72.91666666666667" text-anchor="middle" visibility="hidden" style="font-size: 13px;">R</text><text y="358" x="77.77777777777777" text-anchor="middle" visibility="hidden" style="font-size: 13px;">A</text><text y="358" x="82.63888888888889" text-anchor="middle" visibility="hidden" style="font-size: 13px;">L</text><text y="358" x="87.5" text-anchor="middle" visibility="hidden" style="font-size: 13px;">A</text><text y="358" x="92.36111111111111" text-anchor="middle" visibility="hidden" style="font-size: 13px;">A</text><text y="358" x="97.22222222222223" text-anchor="middle" visibility="hidden" style="font-size: 13px;">F</text><text y="358" x="102.08333333333334" text-anchor="middle" visibility="hidden" style="font-size: 13px;">L</text><text y="358" x="106.94444444444446" text-anchor="middle" visibility="hidden" style="font-size: 13px;">K</text><text y="358" x="111.80555555555554" text-anchor="middle" visibility="hidden" style="font-size: 13px;">K</text><text y="358" x="116.66666666666666" text-anchor="middle" visibility="hidden" style="font-size: 13px;">S</text><text y="358" x="121.52777777777777" text-anchor="middle" visibility="hidden" style="font-size: 13px;">G</text><text y="358" x="126.38888888888889" text-anchor="middle" visibility="hidden" style="font-size: 13px;">K</text><text y="358" x="131.25" text-anchor="middle" visibility="hidden" style="font-size: 13px;">L</text><text y="358" x="136.11111111111111" text-anchor="middle" visibility="hidden" style="font-size: 13px;">K</text><text y="358" x="140.97222222222223" text-anchor="middle" visibility="hidden" style="font-size: 13px;">V</text><text y="358" x="145.83333333333334" text-anchor="middle" visibility="hidden" style="font-size: 13px;">P</text><text y="358" x="150.69444444444446" text-anchor="middle" visibility="hidden" style="font-size: 13px;">E</text><text y="358" x="155.55555555555554" text-anchor="middle" visibility="hidden" style="font-size: 13px;">W</text><text y="358" x="160.41666666666666" text-anchor="middle" visibility="hidden" style="font-size: 13px;">V</text><text y="358" x="165.27777777777777" text-anchor="middle" visibility="hidden" style="font-size: 13px;">D</text><text y="358" x="170.13888888888889" text-anchor="middle" visibility="hidden" style="font-size: 13px;">T</text><text y="358" x="175" text-anchor="middle" visibility="hidden" style="font-size: 13px;">V</text><text y="358" x="179.8611111111111" text-anchor="middle" visibility="hidden" style="font-size: 13px;">K</text><text y="358" x="184.72222222222223" text-anchor="middle" visibility="hidden" style="font-size: 13px;">L</text><text y="358" x="189.58333333333331" text-anchor="middle" visibility="hidden" style="font-size: 13px;">A</text><text y="358" x="194.44444444444446" text-anchor="middle" visibility="hidden" style="font-size: 13px;">K</text><text y="358" x="199.30555555555554" text-anchor="middle" visibility="hidden" style="font-size: 13px;">H</text><text y="358" x="204.16666666666669" text-anchor="middle" visibility="hidden" style="font-size: 13px;">K</text><text y="358" x="209.02777777777777" text-anchor="middle" visibility="hidden" style="font-size: 13px;">E</text><text y="358" x="213.8888888888889" text-anchor="middle" visibility="hidden" style="font-size: 13px;">L</text><text y="358" x="218.75" text-anchor="middle" visibility="hidden" style="font-size: 13px;">A</text><text y="358" x="223.6111111111111" text-anchor="middle" visibility="hidden" style="font-size: 13px;">P</text><text y="358" x="228.47222222222223" text-anchor="middle" visibility="hidden" style="font-size: 13px;">Y</text><text y="358" x="233.33333333333331" text-anchor="middle" visibility="hidden" style="font-size: 13px;">D</text><text y="358" x="238.19444444444446" text-anchor="middle" visibility="hidden" style="font-size: 13px;">E</text><text y="358" x="243.05555555555554" text-anchor="middle" visibility="hidden" style="font-size: 13px;">N</text><text y="358" x="247.91666666666669" text-anchor="middle" visibility="hidden" style="font-size: 13px;">W</text><text y="358" x="252.77777777777777" text-anchor="middle" visibility="hidden" style="font-size: 13px;">F</text><text y="358" x="257.6388888888889" text-anchor="middle" visibility="hidden" style="font-size: 13px;">Y</text><text y="358" x="262.5" text-anchor="middle" visibility="hidden" style="font-size: 13px;">T</text><text y="358" x="267.3611111111111" text-anchor="middle" visibility="hidden" style="font-size: 13px;">R</text><text y="358" x="272.22222222222223" text-anchor="middle" visibility="hidden" style="font-size: 13px;">A</text><text y="358" x="277.0833333333333" text-anchor="middle" visibility="hidden" style="font-size: 13px;">A</text><text y="358" x="281.94444444444446" text-anchor="middle" visibility="hidden" style="font-size: 13px;">S</text><text y="358" x="286.80555555555554" text-anchor="middle" visibility="hidden" style="font-size: 13px;">T</text><text y="358" x="291.6666666666667" text-anchor="middle" visibility="hidden" style="font-size: 13px;">A</text><text y="358" x="296.52777777777777" text-anchor="middle" visibility="hidden" style="font-size: 13px;">R</text><text y="358" x="301.3888888888889" text-anchor="middle" visibility="hidden" style="font-size: 13px;">H</text><text y="358" x="306.25" text-anchor="middle" visibility="hidden" style="font-size: 13px;">L</text><text y="358" x="311.1111111111111" text-anchor="middle" visibility="hidden" style="font-size: 13px;">Y</text><text y="358" x="315.97222222222223" text-anchor="middle" visibility="hidden" style="font-size: 13px;">L</text><text y="358" x="320.8333333333333" text-anchor="middle" visibility="hidden" style="font-size: 13px;">R</text><text y="358" x="325.69444444444446" text-anchor="middle" visibility="hidden" style="font-size: 13px;">G</text><text y="358" x="330.55555555555554" text-anchor="middle" visibility="hidden" style="font-size: 13px;">G</text><text y="358" x="335.4166666666667" text-anchor="middle" visibility="hidden" style="font-size: 13px;">A</text><text y="358" x="340.27777777777777" text-anchor="middle" visibility="hidden" style="font-size: 13px;">G</text><text y="358" x="345.1388888888889" text-anchor="middle" visibility="hidden" style="font-size: 13px;">V</text><text y="358" x="350" text-anchor="middle" visibility="hidden" style="font-size: 13px;">G</text><text y="358" x="354.8611111111111" text-anchor="middle" visibility="hidden" style="font-size: 13px;">S</text><text y="358" x="359.7222222222222" text-anchor="middle" visibility="hidden" style="font-size: 13px;">M</text><text y="358" x="364.58333333333337" text-anchor="middle" visibility="hidden" style="font-size: 13px;">T</text><text y="358" x="369.44444444444446" text-anchor="middle" visibility="hidden" style="font-size: 13px;">K</text><text y="358" x="374.30555555555554" text-anchor="middle" visibility="hidden" style="font-size: 13px;">I</text><text y="358" x="379.16666666666663" text-anchor="middle" visibility="hidden" style="font-size: 13px;">Y</text><text y="358" x="384.0277777777778" text-anchor="middle" visibility="hidden" style="font-size: 13px;">G</text><text y="358" x="388.8888888888889" text-anchor="middle" visibility="hidden" style="font-size: 13px;">G</text><text y="358" x="393.75" text-anchor="middle" visibility="hidden" style="font-size: 13px;">R</text><text y="358" x="398.6111111111111" text-anchor="middle" visibility="hidden" style="font-size: 13px;">Q</text><text y="358" x="403.4722222222222" text-anchor="middle" visibility="hidden" style="font-size: 13px;">R</text><text y="358" x="408.33333333333337" text-anchor="middle" visibility="hidden" style="font-size: 13px;">N</text><text y="358" x="413.19444444444446" text-anchor="middle" visibility="hidden" style="font-size: 13px;">G</text><text y="358" x="418.05555555555554" text-anchor="middle" visibility="hidden" style="font-size: 13px;">V</text><text y="358" x="422.91666666666663" text-anchor="middle" visibility="hidden" style="font-size: 13px;">M</text><text y="358" x="427.7777777777778" text-anchor="middle" visibility="hidden" style="font-size: 13px;">P</text><text y="358" x="432.6388888888889" text-anchor="middle" visibility="hidden" style="font-size: 13px;">S</text><text y="358" x="437.5" text-anchor="middle" visibility="hidden" style="font-size: 13px;">H</text><text y="358" x="442.3611111111111" text-anchor="middle" visibility="hidden" style="font-size: 13px;">F</text><text y="358" x="447.2222222222222" text-anchor="middle" visibility="hidden" style="font-size: 13px;">S</text><text y="358" x="452.08333333333337" text-anchor="middle" visibility="hidden" style="font-size: 13px;">R</text><text y="358" x="456.94444444444446" text-anchor="middle" visibility="hidden" style="font-size: 13px;">G</text><text y="358" x="461.80555555555554" text-anchor="middle" visibility="hidden" style="font-size: 13px;">S</text><text y="358" x="466.66666666666663" text-anchor="middle" visibility="hidden" style="font-size: 13px;">K</text><text y="358" x="471.5277777777778" text-anchor="middle" visibility="hidden" style="font-size: 13px;">S</text><text y="358" x="476.3888888888889" text-anchor="middle" visibility="hidden" style="font-size: 13px;">V</text><text y="358" x="481.25" text-anchor="middle" visibility="hidden" style="font-size: 13px;">A</text><text y="358" x="486.1111111111111" text-anchor="middle" visibility="hidden" style="font-size: 13px;">R</text><text y="358" x="490.9722222222222" text-anchor="middle" visibility="hidden" style="font-size: 13px;">R</text><text y="358" x="495.83333333333337" text-anchor="middle" visibility="hidden" style="font-size: 13px;">V</text><text y="358" x="500.69444444444446" text-anchor="middle" visibility="hidden" style="font-size: 13px;">L</text><text y="358" x="505.55555555555554" text-anchor="middle" visibility="hidden" style="font-size: 13px;">Q</text><text y="358" x="510.41666666666663" text-anchor="middle" visibility="hidden" style="font-size: 13px;">A</text><text y="358" x="515.2777777777778" text-anchor="middle" visibility="hidden" style="font-size: 13px;">L</text><text y="358" x="520.1388888888889" text-anchor="middle" visibility="hidden" style="font-size: 13px;">E</text><text y="358" x="525" text-anchor="middle" visibility="hidden" style="font-size: 13px;">G</text><text y="358" x="529.8611111111111" text-anchor="middle" visibility="hidden" style="font-size: 13px;">L</text><text y="358" x="534.7222222222222" text-anchor="middle" visibility="hidden" style="font-size: 13px;">K</text><text y="358" x="539.5833333333334" text-anchor="middle" visibility="hidden" style="font-size: 13px;">M</text><text y="358" x="544.4444444444445" text-anchor="middle" visibility="hidden" style="font-size: 13px;">V</text><text y="358" x="549.3055555555555" text-anchor="middle" visibility="hidden" style="font-size: 13px;">E</text><text y="358" x="554.1666666666666" text-anchor="middle" visibility="hidden" style="font-size: 13px;">K</text><text y="358" x="559.0277777777778" text-anchor="middle" visibility="hidden" style="font-size: 13px;">D</text><text y="358" x="563.8888888888889" text-anchor="middle" visibility="hidden" style="font-size: 13px;">Q</text><text y="358" x="568.75" text-anchor="middle" visibility="hidden" style="font-size: 13px;">D</text><text y="358" x="573.6111111111111" text-anchor="middle" visibility="hidden" style="font-size: 13px;">G</text><text y="358" x="578.4722222222222" text-anchor="middle" visibility="hidden" style="font-size: 13px;">G</text><text y="358" x="583.3333333333334" text-anchor="middle" visibility="hidden" style="font-size: 13px;">R</text><text y="358" x="588.1944444444445" text-anchor="middle" visibility="hidden" style="font-size: 13px;">K</text><text y="358" x="593.0555555555555" text-anchor="middle" visibility="hidden" style="font-size: 13px;">L</text><text y="358" x="597.9166666666666" text-anchor="middle" visibility="hidden" style="font-size: 13px;">T</text><text y="358" x="602.7777777777778" text-anchor="middle" visibility="hidden" style="font-size: 13px;">P</text><text y="358" x="607.6388888888889" text-anchor="middle" visibility="hidden" style="font-size: 13px;">Q</text><text y="358" x="612.5" text-anchor="middle" visibility="hidden" style="font-size: 13px;">G</text><text y="358" x="617.3611111111111" text-anchor="middle" visibility="hidden" style="font-size: 13px;">Q</text><text y="358" x="622.2222222222222" text-anchor="middle" visibility="hidden" style="font-size: 13px;">R</text><text y="358" x="627.0833333333334" text-anchor="middle" visibility="hidden" style="font-size: 13px;">D</text><text y="358" x="631.9444444444445" text-anchor="middle" visibility="hidden" style="font-size: 13px;">L</text><text y="358" x="636.8055555555555" text-anchor="middle" visibility="hidden" style="font-size: 13px;">D</text><text y="358" x="641.6666666666666" text-anchor="middle" visibility="hidden" style="font-size: 13px;">R</text><text y="358" x="646.5277777777778" text-anchor="middle" visibility="hidden" style="font-size: 13px;">I</text><text y="358" x="651.3888888888889" text-anchor="middle" visibility="hidden" style="font-size: 13px;">A</text><text y="358" x="656.25" text-anchor="middle" visibility="hidden" style="font-size: 13px;">G</text><text y="358" x="661.1111111111111" text-anchor="middle" visibility="hidden" style="font-size: 13px;">Q</text><text y="358" x="665.9722222222222" text-anchor="middle" visibility="hidden" style="font-size: 13px;">V</text><text y="358" x="670.8333333333334" text-anchor="middle" visibility="hidden" style="font-size: 13px;">A</text><text y="358" x="675.6944444444445" text-anchor="middle" visibility="hidden" style="font-size: 13px;">A</text><text y="358" x="680.5555555555555" text-anchor="middle" visibility="hidden" style="font-size: 13px;">A</text><text y="358" x="685.4166666666666" text-anchor="middle" visibility="hidden" style="font-size: 13px;">N</text><text y="358" x="690.2777777777778" text-anchor="middle" visibility="hidden" style="font-size: 13px;">K</text><text y="358" x="695.1388888888889" text-anchor="middle" visibility="hidden" style="font-size: 13px;">K</text><text y="358" x="700" text-anchor="middle" visibility="hidden" style="font-size: 13px;">H</text></g></g></svg><g class="xAxis" transform="translate(0,360)" fill="none" font-size="10" font-family="sans-serif" text-anchor="middle"><path class="domain" stroke="#000" d="M0.5,6V0.5H700.5V6"></path><g class="tick" opacity="1" transform="translate(92.86111111111111,0)"><line stroke="#000" y2="6"></line><text fill="#000" y="9" dy="0.71em">20</text></g><g class="tick" opacity="1" transform="translate(190.08333333333331,0)"><line stroke="#000" y2="6"></line><text fill="#000" y="9" dy="0.71em">40</text></g><g class="tick" opacity="1" transform="translate(287.30555555555554,0)"><line stroke="#000" y2="6"></line><text fill="#000" y="9" dy="0.71em">60</text></g><g class="tick" opacity="1" transform="translate(384.5277777777778,0)"><line stroke="#000" y2="6"></line><text fill="#000" y="9" dy="0.71em">80</text></g><g class="tick" opacity="1" transform="translate(481.75,0)"><line stroke="#000" y2="6"></line><text fill="#000" y="9" dy="0.71em">100</text></g><g class="tick" opacity="1" transform="translate(578.9722222222222,0)"><line stroke="#000" y2="6"></line><text fill="#000" y="9" dy="0.71em">120</text></g><g class="tick" opacity="1" transform="translate(676.1944444444445,0)"><line stroke="#000" y2="6"></line><text fill="#000" y="9" dy="0.71em">140</text></g></g><text class="x label" text-anchor="end" x="700" y="390" style="font-size: 13px; font-family: Arial;">Residue number</text><g class="yAxis" fill="none" font-size="10" font-family="sans-serif" text-anchor="end"><path class="domain" stroke="#000" d="M-6,360.5H0.5V0.5H-6"></path><g class="tick" opacity="1" transform="translate(0,327.77272727272725)"><line stroke="#000" x2="-6"></line><text fill="#000" x="-9" dy="0.32em">0</text></g><g class="tick" opacity="1" transform="translate(0,272.6763085399449)"><line stroke="#000" x2="-6"></line><text fill="#000" x="-9" dy="0.32em">5</text></g><g class="tick" opacity="1" transform="translate(0,217.57988980716254)"><line stroke="#000" x2="-6"></line><text fill="#000" x="-9" dy="0.32em">10</text></g><g class="tick" opacity="1" transform="translate(0,162.4834710743802)"><line stroke="#000" x2="-6"></line><text fill="#000" x="-9" dy="0.32em">15</text></g><g class="tick" opacity="1" transform="translate(0,107.38705234159781)"><line stroke="#000" x2="-6"></line><text fill="#000" x="-9" dy="0.32em">20</text></g><g class="tick" opacity="1" transform="translate(0,52.290633608815426)"><line stroke="#000" x2="-6"></line><text fill="#000" x="-9" dy="0.32em">25</text></g></g><text class="y label" text-anchor="middle" y="-50" x="-180" dy="0.8em" transform="rotate(-90)" style="font-size: 13px; font-family: Arial;">Total number of references</text><g class="axisRed" fill="none" font-size="10" font-family="sans-serif" text-anchor="start" visibility="hidden" transform="translate(700, 0)"><path class="domain" stroke="#000" d="M6,360.5H0.5V0.5H6"></path><g class="tick" opacity="1" transform="translate(0,360.5)"><line stroke="#000" x2="6"></line><text fill="#000" x="9" dy="0.32em">0</text></g><text text-anchor="start" dx="5.2em" dy="-2.6em" transform="rotate(90)" visibility="hidden" style="font-size: 12px; font-family: Arial; fill: #d7301f;">No recurrent (&gt;2) missense mutations!</text></g><g class="axisPurple" fill="none" font-size="10" font-family="sans-serif" text-anchor="start" visibility="hidden"><path class="domain" stroke="#000" d="M6,360.5H0.5V0.5H6"></path><g class="tick" opacity="1" transform="translate(0,355.42334633936525)"><line stroke="#000" x2="6"></line><text fill="#000" x="9" dy="0.32em"></text></g><g class="tick" opacity="1" transform="translate(0,327.77272727272725)"><line stroke="#000" x2="6"></line><text fill="#000" x="9" dy="0.32em">0</text></g><g class="tick" opacity="1" transform="translate(0,300.1221082060893)"><line stroke="#000" x2="6"></line><text fill="#000" x="9" dy="0.32em">0.005</text></g><g class="tick" opacity="1" transform="translate(0,272.47148913945125)"><line stroke="#000" x2="6"></line><text fill="#000" x="9" dy="0.32em">0.01</text></g><g class="tick" opacity="1" transform="translate(0,244.8208700728133)"><line stroke="#000" x2="6"></line><text fill="#000" x="9" dy="0.32em">0.015</text></g><g class="tick" opacity="1" transform="translate(0,217.1702510061753)"><line stroke="#000" x2="6"></line><text fill="#000" x="9" dy="0.32em">0.02</text></g><g class="tick" opacity="1" transform="translate(0,189.5196319395373)"><line stroke="#000" x2="6"></line><text fill="#000" x="9" dy="0.32em">0.025</text></g><g class="tick" opacity="1" transform="translate(0,161.86901287289936)"><line stroke="#000" x2="6"></line><text fill="#000" x="9" dy="0.32em">0.03</text></g><g class="tick" opacity="1" transform="translate(0,134.2183938062613)"><line stroke="#000" x2="6"></line><text fill="#000" x="9" dy="0.32em">0.035</text></g><g class="tick" opacity="1" transform="translate(0,106.56777473962336)"><line stroke="#000" x2="6"></line><text fill="#000" x="9" dy="0.32em">0.04</text></g><g class="tick" opacity="1" transform="translate(0,78.91715567298536)"><line stroke="#000" x2="6"></line><text fill="#000" x="9" dy="0.32em">0.045</text></g><g class="tick" opacity="1" transform="translate(0,51.26653660634736)"><line stroke="#000" x2="6"></line><text fill="#000" x="9" dy="0.32em">0.05</text></g><g class="tick" opacity="1" transform="translate(0,23.615917539709358)"><line stroke="#000" x2="6"></line><text fill="#000" x="9" dy="0.32em">0.055</text></g><text text-anchor="start" x="10" y="10" visibility="hidden" style="font-size: 12px; font-family: Arial; fill: #807dba;">Minor Allele Frequency (MAF) %</text></g><circle cx="636" cy="15" r="10" class="compassNav" style="fill: #ffffff; stroke: #666666; stroke-width: 1px;"></circle><path d="M440.935 12.574l3.966 82.766C399.416 41.904 331.674 8 256 8 134.813 8 33.933 94.924 12.296 209.824 10.908 217.193 16.604 224 24.103 224h49.084c5.57 0 10.377-3.842 11.676-9.259C103.407 137.408 172.931 80 256 80c60.893 0 114.512 30.856 146.104 77.801l-101.53-4.865c-6.845-.328-12.574 5.133-12.574 11.986v47.411c0 6.627 5.373 12 12 12h200.333c6.627 0 12-5.373 12-12V12c0-6.627-5.373-12-12-12h-47.411c-6.853 0-12.315 5.729-11.987 12.574zM256 432c-60.895 0-114.517-30.858-146.109-77.805l101.868 4.871c6.845.327 12.573-5.134 12.573-11.986v-47.412c0-6.627-5.373-12-12-12H12c-6.627 0-12 5.373-12 12V500c0 6.627 5.373 12 12 12h47.385c6.863 0 12.328-5.745 11.985-12.599l-4.129-82.575C112.725 470.166 180.405 504 256 504c121.187 0 222.067-86.924 243.704-201.824 1.388-7.369-4.308-14.176-11.807-14.176h-49.084c-5.57 0-10.377 3.842-11.676 9.259C408.593 374.592 339.069 432 256 432z" class="compassNav" transform="translate(631, 10) scale(0.02)" style="fill: #666666; stroke: #666666; stroke-width: 1px;"></path><circle cx="658" cy="15" r="10" class="compassNav" style="fill: #ffffff; stroke: #666666; stroke-width: 1px;"></circle><line class="compassNav" stroke-width="2" stroke="#666666" x1="654" y1="15" x2="662" y2="15"></line><line class="compassNav" stroke-width="2" stroke="#666666" x1="658" y1="11" x2="658" y2="19"></line><circle cx="614" cy="15" r="10" class="compassNav" style="fill: #ffffff; stroke: #666666; stroke-width: 1px;"></circle><line class="compassNav" stroke-width="2" stroke="#666666" x1="610" y1="15" x2="618" y2="15"></line><path d="M582 14 l20 -12 a100,40 0 0,0 0,24z" class="compassNav" style="fill: #ffffff; stroke: #666666; stroke-width: 1px;"></path><path d="M690 14 l-20 -12 a100,40 0 0,1 0,24z" class="compassNav" style="fill: #ffffff; stroke: #666666; stroke-width: 1px;"></path><path d="M216 0h80c13.3 0 24 10.7 24 24v168h87.7c17.8 0 26.7 21.5 14.1 34.1L269.7 378.3c-7.5 7.5-19.8 7.5-27.3 0L90.1 226.1c-12.6-12.6-3.7-34.1 14.1-34.1H192V24c0-13.3 10.7-24 24-24zm296 376v112c0 13.3-10.7 24-24 24H24c-13.3 0-24-10.7-24-24V376c0-13.3 10.7-24 24-24h146.7l49 49c20.1 20.1 52.5 20.1 72.6 0l49-49H488c13.3 0 24 10.7 24 24zm-124 88c0-11-9-20-20-20s-20 9-20 20 9 20 20 20 20-9 20-20zm64 0c0-11-9-20-20-20s-20 9-20 20 9 20 20 20 20-9 20-20z" class="compassNav" transform="translate(552,0) scale(0.05)" style="fill: #336699; stroke: #336699; stroke-width: 1px; cursor: pointer;"></path></g></svg>