<svg width="800" height="400" style="background-color: white;"><g transform="translate(50,0)"><svg width="700" height="360"><g style="-webkit-tap-highlight-color: rgba(0, 0, 0, 0);"><rect width="700" height="360" style="fill: #ffffff;"></rect><g id="lines"><line class="line" stroke-width="1" stroke="#d7301f" x1="-425.90361445783134" y1="333" x2="-425.90361445783134" y2="360" visibility="hidden" style="stroke-dasharray: 3px, 3px;"></line></g><g><rect x="-430.90361445783134" y="355" width="10" height="10" visibility="hidden" style="fill: #ffffff; stroke: #d7301f;"></rect></g><g id="lines"><line class="line" stroke-width="1" stroke="#6a51a3" x1="-425.90361445783134" y1="333" x2="-425.90361445783134" y2="327.27272727272725" visibility="hidden" style="stroke-dasharray: 3px, 3px;"></line></g><g><rect x="-430.90361445783134" y="322.27272727272725" width="10" height="10" visibility="hidden" style="fill: #ffffff; stroke: #6a51a3;"></rect></g><g id="lines"><line class="line" stroke-width="1" stroke="#666666" x1="198.19277108433735" y1="333" x2="198.19277108433735" y2="29.75206611570252"></line></g><g id="circles"><circle r="4" cx="198.19277108433735" cy="29.75206611570252" style="fill: #4393c3; stroke: #666666; stroke-width: 1px;"></circle></g><g><rect x="0" y="333" width="700" height="12" style="fill: #ffffff; stroke-width: 1px; stroke: #666666;"></rect><rect x="92.77108433734941" y="333" width="607.2289156626506" height="12" style="fill: #aec7e8; stroke-width: 1px; stroke: #666666;"></rect></g><g><a target="_blank" xlink:href="http://pfam.xfam.org/family/"><text y="343" x="350" text-anchor="middle" style="color: rgb(102, 102, 102); font-weight: normal; font-size: 12px; font-family: Arial; cursor: pointer;"></text></a><a target="_blank" xlink:href="http://pfam.xfam.org/family/Leptin"><text y="343" x="396.3855421686747" text-anchor="middle" style="color: rgb(102, 102, 102); font-weight: normal; font-size: 12px; font-family: Arial; cursor: pointer;">Leptin</text></a></g><g><text y="358" x="0" text-anchor="middle" visibility="hidden" style="font-size: 13px;">M</text><text y="358" x="4.216867469879518" text-anchor="middle" visibility="hidden" style="font-size: 13px;">C</text><text y="358" x="8.433734939759036" text-anchor="middle" visibility="hidden" style="font-size: 13px;">W</text><text y="358" x="12.650602409638553" text-anchor="middle" visibility="hidden" style="font-size: 13px;">R</text><text y="358" x="16.867469879518072" text-anchor="middle" visibility="hidden" style="font-size: 13px;">P</text><text y="358" x="21.08433734939759" text-anchor="middle" visibility="hidden" style="font-size: 13px;">L</text><text y="358" x="25.301204819277107" text-anchor="middle" visibility="hidden" style="font-size: 13px;">C</text><text y="358" x="29.518072289156624" text-anchor="middle" visibility="hidden" style="font-size: 13px;">R</text><text y="358" x="33.734939759036145" text-anchor="middle" visibility="hidden" style="font-size: 13px;">F</text><text y="358" x="37.95180722891566" text-anchor="middle" visibility="hidden" style="font-size: 13px;">L</text><text y="358" x="42.16867469879518" text-anchor="middle" visibility="hidden" style="font-size: 13px;">W</text><text y="358" x="46.385542168674704" text-anchor="middle" visibility="hidden" style="font-size: 13px;">L</text><text y="358" x="50.602409638554214" text-anchor="middle" visibility="hidden" style="font-size: 13px;">W</text><text y="358" x="54.81927710843374" text-anchor="middle" visibility="hidden" style="font-size: 13px;">S</text><text y="358" x="59.03614457831325" text-anchor="middle" visibility="hidden" style="font-size: 13px;">Y</text><text y="358" x="63.25301204819277" text-anchor="middle" visibility="hidden" style="font-size: 13px;">L</text><text y="358" x="67.46987951807229" text-anchor="middle" visibility="hidden" style="font-size: 13px;">S</text><text y="358" x="71.6867469879518" text-anchor="middle" visibility="hidden" style="font-size: 13px;">Y</text><text y="358" x="75.90361445783132" text-anchor="middle" visibility="hidden" style="font-size: 13px;">V</text><text y="358" x="80.12048192771084" text-anchor="middle" visibility="hidden" style="font-size: 13px;">Q</text><text y="358" x="84.33734939759036" text-anchor="middle" visibility="hidden" style="font-size: 13px;">A</text><text y="358" x="88.55421686746988" text-anchor="middle" visibility="hidden" style="font-size: 13px;">V</text><text y="358" x="92.77108433734941" text-anchor="middle" visibility="hidden" style="font-size: 13px;">P</text><text y="358" x="96.98795180722891" text-anchor="middle" visibility="hidden" style="font-size: 13px;">I</text><text y="358" x="101.20481927710843" text-anchor="middle" visibility="hidden" style="font-size: 13px;">Q</text><text y="358" x="105.42168674698796" text-anchor="middle" visibility="hidden" style="font-size: 13px;">K</text><text y="358" x="109.63855421686748" text-anchor="middle" visibility="hidden" style="font-size: 13px;">V</text><text y="358" x="113.85542168674698" text-anchor="middle" visibility="hidden" style="font-size: 13px;">Q</text><text y="358" x="118.0722891566265" text-anchor="middle" visibility="hidden" style="font-size: 13px;">D</text><text y="358" x="122.28915662650603" text-anchor="middle" visibility="hidden" style="font-size: 13px;">D</text><text y="358" x="126.50602409638554" text-anchor="middle" visibility="hidden" style="font-size: 13px;">T</text><text y="358" x="130.72289156626505" text-anchor="middle" visibility="hidden" style="font-size: 13px;">K</text><text y="358" x="134.93975903614458" text-anchor="middle" visibility="hidden" style="font-size: 13px;">T</text><text y="358" x="139.1566265060241" text-anchor="middle" visibility="hidden" style="font-size: 13px;">L</text><text y="358" x="143.3734939759036" text-anchor="middle" visibility="hidden" style="font-size: 13px;">I</text><text y="358" x="147.59036144578315" text-anchor="middle" visibility="hidden" style="font-size: 13px;">K</text><text y="358" x="151.80722891566265" text-anchor="middle" visibility="hidden" style="font-size: 13px;">T</text><text y="358" x="156.02409638554218" text-anchor="middle" visibility="hidden" style="font-size: 13px;">I</text><text y="358" x="160.24096385542168" text-anchor="middle" visibility="hidden" style="font-size: 13px;">V</text><text y="358" x="164.4578313253012" text-anchor="middle" visibility="hidden" style="font-size: 13px;">T</text><text y="358" x="168.67469879518072" text-anchor="middle" visibility="hidden" style="font-size: 13px;">R</text><text y="358" x="172.89156626506022" text-anchor="middle" visibility="hidden" style="font-size: 13px;">I</text><text y="358" x="177.10843373493975" text-anchor="middle" visibility="hidden" style="font-size: 13px;">N</text><text y="358" x="181.32530120481928" text-anchor="middle" visibility="hidden" style="font-size: 13px;">D</text><text y="358" x="185.54216867469881" text-anchor="middle" visibility="hidden" style="font-size: 13px;">I</text><text y="358" x="189.7590361445783" text-anchor="middle" visibility="hidden" style="font-size: 13px;">S</text><text y="358" x="193.97590361445782" text-anchor="middle" visibility="hidden" style="font-size: 13px;">H</text><text y="358" x="198.19277108433735" text-anchor="middle" visibility="hidden" style="font-size: 13px;">T</text><text y="358" x="202.40963855421685" text-anchor="middle" visibility="hidden" style="font-size: 13px;">Q</text><text y="358" x="206.6265060240964" text-anchor="middle" visibility="hidden" style="font-size: 13px;">S</text><text y="358" x="210.84337349397592" text-anchor="middle" visibility="hidden" style="font-size: 13px;">V</text><text y="358" x="215.06024096385542" text-anchor="middle" visibility="hidden" style="font-size: 13px;">S</text><text y="358" x="219.27710843373495" text-anchor="middle" visibility="hidden" style="font-size: 13px;">A</text><text y="358" x="223.49397590361443" text-anchor="middle" visibility="hidden" style="font-size: 13px;">K</text><text y="358" x="227.71084337349396" text-anchor="middle" visibility="hidden" style="font-size: 13px;">Q</text><text y="358" x="231.9277108433735" text-anchor="middle" visibility="hidden" style="font-size: 13px;">R</text><text y="358" x="236.144578313253" text-anchor="middle" visibility="hidden" style="font-size: 13px;">V</text><text y="358" x="240.36144578313252" text-anchor="middle" visibility="hidden" style="font-size: 13px;">T</text><text y="358" x="244.57831325301206" text-anchor="middle" visibility="hidden" style="font-size: 13px;">G</text><text y="358" x="248.79518072289156" text-anchor="middle" visibility="hidden" style="font-size: 13px;">L</text><text y="358" x="253.0120481927711" text-anchor="middle" visibility="hidden" style="font-size: 13px;">D</text><text y="358" x="257.2289156626506" text-anchor="middle" visibility="hidden" style="font-size: 13px;">F</text><text y="358" x="261.4457831325301" text-anchor="middle" visibility="hidden" style="font-size: 13px;">I</text><text y="358" x="265.66265060240966" text-anchor="middle" visibility="hidden" style="font-size: 13px;">P</text><text y="358" x="269.87951807228916" text-anchor="middle" visibility="hidden" style="font-size: 13px;">G</text><text y="358" x="274.09638554216866" text-anchor="middle" visibility="hidden" style="font-size: 13px;">L</text><text y="358" x="278.3132530120482" text-anchor="middle" visibility="hidden" style="font-size: 13px;">H</text><text y="358" x="282.5301204819277" text-anchor="middle" visibility="hidden" style="font-size: 13px;">P</text><text y="358" x="286.7469879518072" text-anchor="middle" visibility="hidden" style="font-size: 13px;">I</text><text y="358" x="290.96385542168673" text-anchor="middle" visibility="hidden" style="font-size: 13px;">L</text><text y="358" x="295.1807228915663" text-anchor="middle" visibility="hidden" style="font-size: 13px;">S</text><text y="358" x="299.3975903614458" text-anchor="middle" visibility="hidden" style="font-size: 13px;">L</text><text y="358" x="303.6144578313253" text-anchor="middle" visibility="hidden" style="font-size: 13px;">S</text><text y="358" x="307.8313253012048" text-anchor="middle" visibility="hidden" style="font-size: 13px;">K</text><text y="358" x="312.04819277108436" text-anchor="middle" visibility="hidden" style="font-size: 13px;">M</text><text y="358" x="316.26506024096386" text-anchor="middle" visibility="hidden" style="font-size: 13px;">D</text><text y="358" x="320.48192771084337" text-anchor="middle" visibility="hidden" style="font-size: 13px;">Q</text><text y="358" x="324.69879518072287" text-anchor="middle" visibility="hidden" style="font-size: 13px;">T</text><text y="358" x="328.9156626506024" text-anchor="middle" visibility="hidden" style="font-size: 13px;">L</text><text y="358" x="333.13253012048193" text-anchor="middle" visibility="hidden" style="font-size: 13px;">A</text><text y="358" x="337.34939759036143" text-anchor="middle" visibility="hidden" style="font-size: 13px;">V</text><text y="358" x="341.566265060241" text-anchor="middle" visibility="hidden" style="font-size: 13px;">Y</text><text y="358" x="345.78313253012044" text-anchor="middle" visibility="hidden" style="font-size: 13px;">Q</text><text y="358" x="350" text-anchor="middle" visibility="hidden" style="font-size: 13px;">Q</text><text y="358" x="354.2168674698795" text-anchor="middle" visibility="hidden" style="font-size: 13px;">V</text><text y="358" x="358.43373493975906" text-anchor="middle" visibility="hidden" style="font-size: 13px;">L</text><text y="358" x="362.65060240963857" text-anchor="middle" visibility="hidden" style="font-size: 13px;">T</text><text y="358" x="366.86746987951807" text-anchor="middle" visibility="hidden" style="font-size: 13px;">S</text><text y="358" x="371.08433734939763" text-anchor="middle" visibility="hidden" style="font-size: 13px;">L</text><text y="358" x="375.30120481927713" text-anchor="middle" visibility="hidden" style="font-size: 13px;">P</text><text y="358" x="379.5180722891566" text-anchor="middle" visibility="hidden" style="font-size: 13px;">S</text><text y="358" x="383.7349397590362" text-anchor="middle" visibility="hidden" style="font-size: 13px;">Q</text><text y="358" x="387.95180722891564" text-anchor="middle" visibility="hidden" style="font-size: 13px;">N</text><text y="358" x="392.16867469879514" text-anchor="middle" visibility="hidden" style="font-size: 13px;">V</text><text y="358" x="396.3855421686747" text-anchor="middle" visibility="hidden" style="font-size: 13px;">L</text><text y="358" x="400.6024096385542" text-anchor="middle" visibility="hidden" style="font-size: 13px;">Q</text><text y="358" x="404.8192771084337" text-anchor="middle" visibility="hidden" style="font-size: 13px;">I</text><text y="358" x="409.03614457831327" text-anchor="middle" visibility="hidden" style="font-size: 13px;">A</text><text y="358" x="413.2530120481928" text-anchor="middle" visibility="hidden" style="font-size: 13px;">N</text><text y="358" x="417.4698795180723" text-anchor="middle" visibility="hidden" style="font-size: 13px;">D</text><text y="358" x="421.68674698795184" text-anchor="middle" visibility="hidden" style="font-size: 13px;">L</text><text y="358" x="425.90361445783134" text-anchor="middle" visibility="hidden" style="font-size: 13px;">E</text><text y="358" x="430.12048192771084" text-anchor="middle" visibility="hidden" style="font-size: 13px;">N</text><text y="358" x="434.3373493975904" text-anchor="middle" visibility="hidden" style="font-size: 13px;">L</text><text y="358" x="438.5542168674699" text-anchor="middle" visibility="hidden" style="font-size: 13px;">R</text><text y="358" x="442.7710843373494" text-anchor="middle" visibility="hidden" style="font-size: 13px;">D</text><text y="358" x="446.98795180722885" text-anchor="middle" visibility="hidden" style="font-size: 13px;">L</text><text y="358" x="451.20481927710847" text-anchor="middle" visibility="hidden" style="font-size: 13px;">L</text><text y="358" x="455.4216867469879" text-anchor="middle" visibility="hidden" style="font-size: 13px;">H</text><text y="358" x="459.6385542168674" text-anchor="middle" visibility="hidden" style="font-size: 13px;">L</text><text y="358" x="463.855421686747" text-anchor="middle" visibility="hidden" style="font-size: 13px;">L</text><text y="358" x="468.0722891566265" text-anchor="middle" visibility="hidden" style="font-size: 13px;">A</text><text y="358" x="472.289156626506" text-anchor="middle" visibility="hidden" style="font-size: 13px;">F</text><text y="358" x="476.50602409638554" text-anchor="middle" visibility="hidden" style="font-size: 13px;">S</text><text y="358" x="480.72289156626505" text-anchor="middle" visibility="hidden" style="font-size: 13px;">K</text><text y="358" x="484.93975903614455" text-anchor="middle" visibility="hidden" style="font-size: 13px;">S</text><text y="358" x="489.1566265060241" text-anchor="middle" visibility="hidden" style="font-size: 13px;">C</text><text y="358" x="493.3734939759036" text-anchor="middle" visibility="hidden" style="font-size: 13px;">S</text><text y="358" x="497.5903614457831" text-anchor="middle" visibility="hidden" style="font-size: 13px;">L</text><text y="358" x="501.8072289156627" text-anchor="middle" visibility="hidden" style="font-size: 13px;">P</text><text y="358" x="506.0240963855422" text-anchor="middle" visibility="hidden" style="font-size: 13px;">Q</text><text y="358" x="510.2409638554217" text-anchor="middle" visibility="hidden" style="font-size: 13px;">T</text><text y="358" x="514.4578313253012" text-anchor="middle" visibility="hidden" style="font-size: 13px;">S</text><text y="358" x="518.6746987951807" text-anchor="middle" visibility="hidden" style="font-size: 13px;">G</text><text y="358" x="522.8915662650602" text-anchor="middle" visibility="hidden" style="font-size: 13px;">L</text><text y="358" x="527.1084337349398" text-anchor="middle" visibility="hidden" style="font-size: 13px;">Q</text><text y="358" x="531.3253012048193" text-anchor="middle" visibility="hidden" style="font-size: 13px;">K</text><text y="358" x="535.5421686746988" text-anchor="middle" visibility="hidden" style="font-size: 13px;">P</text><text y="358" x="539.7590361445783" text-anchor="middle" visibility="hidden" style="font-size: 13px;">E</text><text y="358" x="543.9759036144578" text-anchor="middle" visibility="hidden" style="font-size: 13px;">S</text><text y="358" x="548.1927710843373" text-anchor="middle" visibility="hidden" style="font-size: 13px;">L</text><text y="358" x="552.4096385542169" text-anchor="middle" visibility="hidden" style="font-size: 13px;">D</text><text y="358" x="556.6265060240964" text-anchor="middle" visibility="hidden" style="font-size: 13px;">G</text><text y="358" x="560.8433734939758" text-anchor="middle" visibility="hidden" style="font-size: 13px;">V</text><text y="358" x="565.0602409638554" text-anchor="middle" visibility="hidden" style="font-size: 13px;">L</text><text y="358" x="569.277108433735" text-anchor="middle" visibility="hidden" style="font-size: 13px;">E</text><text y="358" x="573.4939759036145" text-anchor="middle" visibility="hidden" style="font-size: 13px;">A</text><text y="358" x="577.710843373494" text-anchor="middle" visibility="hidden" style="font-size: 13px;">S</text><text y="358" x="581.9277108433735" text-anchor="middle" visibility="hidden" style="font-size: 13px;">L</text><text y="358" x="586.144578313253" text-anchor="middle" visibility="hidden" style="font-size: 13px;">Y</text><text y="358" x="590.3614457831326" text-anchor="middle" visibility="hidden" style="font-size: 13px;">S</text><text y="358" x="594.5783132530121" text-anchor="middle" visibility="hidden" style="font-size: 13px;">T</text><text y="358" x="598.7951807228916" text-anchor="middle" visibility="hidden" style="font-size: 13px;">E</text><text y="358" x="603.0120481927711" text-anchor="middle" visibility="hidden" style="font-size: 13px;">V</text><text y="358" x="607.2289156626506" text-anchor="middle" visibility="hidden" style="font-size: 13px;">V</text><text y="358" x="611.4457831325301" text-anchor="middle" visibility="hidden" style="font-size: 13px;">A</text><text y="358" x="615.6626506024096" text-anchor="middle" visibility="hidden" style="font-size: 13px;">L</text><text y="358" x="619.8795180722892" text-anchor="middle" visibility="hidden" style="font-size: 13px;">S</text><text y="358" x="624.0963855421687" text-anchor="middle" visibility="hidden" style="font-size: 13px;">R</text><text y="358" x="628.3132530120481" text-anchor="middle" visibility="hidden" style="font-size: 13px;">L</text><text y="358" x="632.5301204819277" text-anchor="middle" visibility="hidden" style="font-size: 13px;">Q</text><text y="358" x="636.7469879518072" text-anchor="middle" visibility="hidden" style="font-size: 13px;">G</text><text y="358" x="640.9638554216867" text-anchor="middle" visibility="hidden" style="font-size: 13px;">S</text><text y="358" x="645.1807228915662" text-anchor="middle" visibility="hidden" style="font-size: 13px;">L</text><text y="358" x="649.3975903614457" text-anchor="middle" visibility="hidden" style="font-size: 13px;">Q</text><text y="358" x="653.6144578313252" text-anchor="middle" visibility="hidden" style="font-size: 13px;">D</text><text y="358" x="657.8313253012049" text-anchor="middle" visibility="hidden" style="font-size: 13px;">I</text><text y="358" x="662.0481927710844" text-anchor="middle" visibility="hidden" style="font-size: 13px;">L</text><text y="358" x="666.2650602409639" text-anchor="middle" visibility="hidden" style="font-size: 13px;">Q</text><text y="358" x="670.4819277108434" text-anchor="middle" visibility="hidden" style="font-size: 13px;">Q</text><text y="358" x="674.6987951807229" text-anchor="middle" visibility="hidden" style="font-size: 13px;">L</text><text y="358" x="678.9156626506024" text-anchor="middle" visibility="hidden" style="font-size: 13px;">D</text><text y="358" x="683.132530120482" text-anchor="middle" visibility="hidden" style="font-size: 13px;">V</text><text y="358" x="687.3493975903615" text-anchor="middle" visibility="hidden" style="font-size: 13px;">S</text><text y="358" x="691.5662650602409" text-anchor="middle" visibility="hidden" style="font-size: 13px;">P</text><text y="358" x="695.7831325301205" text-anchor="middle" visibility="hidden" style="font-size: 13px;">E</text><text y="358" x="700" text-anchor="middle" visibility="hidden" style="font-size: 13px;">C</text></g></g></svg><g class="xAxis" transform="translate(0,360)" fill="none" font-size="10" font-family="sans-serif" text-anchor="middle"><path class="domain" stroke="#000" d="M0.5,6V0.5H700.5V6"></path><g class="tick" opacity="1" transform="translate(80.62048192771084,0)"><line stroke="#000" y2="6"></line><text fill="#000" y="9" dy="0.71em">20</text></g><g class="tick" opacity="1" transform="translate(164.9578313253012,0)"><line stroke="#000" y2="6"></line><text fill="#000" y="9" dy="0.71em">40</text></g><g class="tick" opacity="1" transform="translate(249.29518072289156,0)"><line stroke="#000" y2="6"></line><text fill="#000" y="9" dy="0.71em">60</text></g><g class="tick" opacity="1" transform="translate(333.63253012048193,0)"><line stroke="#000" y2="6"></line><text fill="#000" y="9" dy="0.71em">80</text></g><g class="tick" opacity="1" transform="translate(417.9698795180723,0)"><line stroke="#000" y2="6"></line><text fill="#000" y="9" dy="0.71em">100</text></g><g class="tick" opacity="1" transform="translate(502.3072289156627,0)"><line stroke="#000" y2="6"></line><text fill="#000" y="9" dy="0.71em">120</text></g><g class="tick" opacity="1" transform="translate(586.644578313253,0)"><line stroke="#000" y2="6"></line><text fill="#000" y="9" dy="0.71em">140</text></g><g class="tick" opacity="1" transform="translate(670.9819277108434,0)"><line stroke="#000" y2="6"></line><text fill="#000" y="9" dy="0.71em">160</text></g></g><text class="x label" text-anchor="end" x="700" y="390" style="font-size: 13px; font-family: Arial;">Residue number</text><g class="yAxis" fill="none" font-size="10" font-family="sans-serif" text-anchor="end"><path class="domain" stroke="#000" d="M-6,360.5H0.5V0.5H-6"></path><g class="tick" opacity="1" transform="translate(0,357.52479338842977)"><line stroke="#000" x2="-6"></line><text fill="#000" x="-9" dy="0.32em"></text></g><g class="tick" opacity="1" transform="translate(0,327.77272727272725)"><line stroke="#000" x2="-6"></line><text fill="#000" x="-9" dy="0.32em">0</text></g><g class="tick" opacity="1" transform="translate(0,298.0206611570248)"><line stroke="#000" x2="-6"></line><text fill="#000" x="-9" dy="0.32em">0.1</text></g><g class="tick" opacity="1" transform="translate(0,268.2685950413223)"><line stroke="#000" x2="-6"></line><text fill="#000" x="-9" dy="0.32em">0.2</text></g><g class="tick" opacity="1" transform="translate(0,238.51652892561984)"><line stroke="#000" x2="-6"></line><text fill="#000" x="-9" dy="0.32em">0.3</text></g><g class="tick" opacity="1" transform="translate(0,208.76446280991738)"><line stroke="#000" x2="-6"></line><text fill="#000" x="-9" dy="0.32em">0.4</text></g><g class="tick" opacity="1" transform="translate(0,179.0123966942149)"><line stroke="#000" x2="-6"></line><text fill="#000" x="-9" dy="0.32em">0.5</text></g><g class="tick" opacity="1" transform="translate(0,149.26033057851242)"><line stroke="#000" x2="-6"></line><text fill="#000" x="-9" dy="0.32em">0.6</text></g><g class="tick" opacity="1" transform="translate(0,119.50826446280996)"><line stroke="#000" x2="-6"></line><text fill="#000" x="-9" dy="0.32em">0.7</text></g><g class="tick" opacity="1" transform="translate(0,89.75619834710744)"><line stroke="#000" x2="-6"></line><text fill="#000" x="-9" dy="0.32em">0.8</text></g><g class="tick" opacity="1" transform="translate(0,60.00413223140498)"><line stroke="#000" x2="-6"></line><text fill="#000" x="-9" dy="0.32em">0.9</text></g><g class="tick" opacity="1" transform="translate(0,30.25206611570252)"><line stroke="#000" x2="-6"></line><text fill="#000" x="-9" dy="0.32em">1</text></g><g class="tick" opacity="1" transform="translate(0,0.5)"><line stroke="#000" x2="-6"></line><text fill="#000" x="-9" dy="0.32em">1.1</text></g></g><text class="y label" text-anchor="middle" y="-50" x="-180" dy="0.8em" transform="rotate(-90)" style="font-size: 13px; font-family: Arial;">Total number of references</text><g class="axisRed" fill="none" font-size="10" font-family="sans-serif" text-anchor="start" visibility="hidden" transform="translate(700, 0)"><path class="domain" stroke="#000" d="M6,360.5H0.5V0.5H6"></path><g class="tick" opacity="1" transform="translate(0,360.5)"><line stroke="#000" x2="6"></line><text fill="#000" x="9" dy="0.32em">0</text></g><text text-anchor="start" dx="5.2em" dy="-2.6em" transform="rotate(90)" visibility="hidden" style="font-size: 12px; font-family: Arial; fill: #d7301f;">No recurrent (&gt;2) missense mutations!</text></g><g class="axisPurple" fill="none" font-size="10" font-family="sans-serif" text-anchor="start" visibility="hidden"><path class="domain" stroke="#000" d="M6,360.5H0.5V0.5H6"></path><g class="tick" opacity="1" transform="translate(0,357.52479338842977)"><line stroke="#000" x2="6"></line><text fill="#000" x="9" dy="0.32em"></text></g><g class="tick" opacity="1" transform="translate(0,327.77272727272725)"><line stroke="#000" x2="6"></line><text fill="#000" x="9" dy="0.32em">0</text></g><g class="tick" opacity="1" transform="translate(0,298.0206611570248)"><line stroke="#000" x2="6"></line><text fill="#000" x="9" dy="0.32em">0.1</text></g><g class="tick" opacity="1" transform="translate(0,268.2685950413223)"><line stroke="#000" x2="6"></line><text fill="#000" x="9" dy="0.32em">0.2</text></g><g class="tick" opacity="1" transform="translate(0,238.51652892561984)"><line stroke="#000" x2="6"></line><text fill="#000" x="9" dy="0.32em">0.3</text></g><g class="tick" opacity="1" transform="translate(0,208.76446280991738)"><line stroke="#000" x2="6"></line><text fill="#000" x="9" dy="0.32em">0.4</text></g><g class="tick" opacity="1" transform="translate(0,179.0123966942149)"><line stroke="#000" x2="6"></line><text fill="#000" x="9" dy="0.32em">0.5</text></g><g class="tick" opacity="1" transform="translate(0,149.26033057851242)"><line stroke="#000" x2="6"></line><text fill="#000" x="9" dy="0.32em">0.6</text></g><g class="tick" opacity="1" transform="translate(0,119.50826446280996)"><line stroke="#000" x2="6"></line><text fill="#000" x="9" dy="0.32em">0.7</text></g><g class="tick" opacity="1" transform="translate(0,89.75619834710744)"><line stroke="#000" x2="6"></line><text fill="#000" x="9" dy="0.32em">0.8</text></g><g class="tick" opacity="1" transform="translate(0,60.00413223140498)"><line stroke="#000" x2="6"></line><text fill="#000" x="9" dy="0.32em">0.9</text></g><g class="tick" opacity="1" transform="translate(0,30.25206611570252)"><line stroke="#000" x2="6"></line><text fill="#000" x="9" dy="0.32em">1</text></g><g class="tick" opacity="1" transform="translate(0,0.5)"><line stroke="#000" x2="6"></line><text fill="#000" x="9" dy="0.32em">1.1</text></g><text text-anchor="start" x="10" y="10" visibility="hidden" style="font-size: 12px; font-family: Arial; fill: #807dba;">No disease causing germline SNPs known!</text></g><circle cx="636" cy="15" r="10" class="compassNav" style="fill: #ffffff; stroke: #666666; stroke-width: 1px;"></circle><path d="M440.935 12.574l3.966 82.766C399.416 41.904 331.674 8 256 8 134.813 8 33.933 94.924 12.296 209.824 10.908 217.193 16.604 224 24.103 224h49.084c5.57 0 10.377-3.842 11.676-9.259C103.407 137.408 172.931 80 256 80c60.893 0 114.512 30.856 146.104 77.801l-101.53-4.865c-6.845-.328-12.574 5.133-12.574 11.986v47.411c0 6.627 5.373 12 12 12h200.333c6.627 0 12-5.373 12-12V12c0-6.627-5.373-12-12-12h-47.411c-6.853 0-12.315 5.729-11.987 12.574zM256 432c-60.895 0-114.517-30.858-146.109-77.805l101.868 4.871c6.845.327 12.573-5.134 12.573-11.986v-47.412c0-6.627-5.373-12-12-12H12c-6.627 0-12 5.373-12 12V500c0 6.627 5.373 12 12 12h47.385c6.863 0 12.328-5.745 11.985-12.599l-4.129-82.575C112.725 470.166 180.405 504 256 504c121.187 0 222.067-86.924 243.704-201.824 1.388-7.369-4.308-14.176-11.807-14.176h-49.084c-5.57 0-10.377 3.842-11.676 9.259C408.593 374.592 339.069 432 256 432z" class="compassNav" transform="translate(631, 10) scale(0.02)" style="fill: #666666; stroke: #666666; stroke-width: 1px;"></path><circle cx="658" cy="15" r="10" class="compassNav" style="fill: #ffffff; stroke: #666666; stroke-width: 1px;"></circle><line class="compassNav" stroke-width="2" stroke="#666666" x1="654" y1="15" x2="662" y2="15"></line><line class="compassNav" stroke-width="2" stroke="#666666" x1="658" y1="11" x2="658" y2="19"></line><circle cx="614" cy="15" r="10" class="compassNav" style="fill: #ffffff; stroke: #666666; stroke-width: 1px;"></circle><line class="compassNav" stroke-width="2" stroke="#666666" x1="610" y1="15" x2="618" y2="15"></line><path d="M582 14 l20 -12 a100,40 0 0,0 0,24z" class="compassNav" style="fill: #ffffff; stroke: #666666; stroke-width: 1px;"></path><path d="M690 14 l-20 -12 a100,40 0 0,1 0,24z" class="compassNav" style="fill: #ffffff; stroke: #666666; stroke-width: 1px;"></path><path d="M216 0h80c13.3 0 24 10.7 24 24v168h87.7c17.8 0 26.7 21.5 14.1 34.1L269.7 378.3c-7.5 7.5-19.8 7.5-27.3 0L90.1 226.1c-12.6-12.6-3.7-34.1 14.1-34.1H192V24c0-13.3 10.7-24 24-24zm296 376v112c0 13.3-10.7 24-24 24H24c-13.3 0-24-10.7-24-24V376c0-13.3 10.7-24 24-24h146.7l49 49c20.1 20.1 52.5 20.1 72.6 0l49-49H488c13.3 0 24 10.7 24 24zm-124 88c0-11-9-20-20-20s-20 9-20 20 9 20 20 20 20-9 20-20zm64 0c0-11-9-20-20-20s-20 9-20 20 9 20 20 20 20-9 20-20z" class="compassNav" transform="translate(552,0) scale(0.05)" style="fill: #336699; stroke: #336699; stroke-width: 1px; cursor: pointer;"></path></g></svg>