<svg width="800" height="400" style="background-color: white;"><g transform="translate(50,0)"><svg width="700" height="360"><g style="-webkit-tap-highlight-color: rgba(0, 0, 0, 0);"><rect width="700" height="360" style="fill: #ffffff;"></rect><g id="lines"><line class="line" stroke-width="1" stroke="#d7301f" x1="-374.0740740740741" y1="333" x2="-374.0740740740741" y2="360" visibility="hidden" style="stroke-dasharray: 3px, 3px;"></line></g><g><rect x="-379.0740740740741" y="355" width="10" height="10" visibility="hidden" style="fill: #ffffff; stroke: #d7301f;"></rect></g><g id="lines"><line class="line" stroke-width="1" stroke="#6a51a3" x1="-374.0740740740741" y1="333" x2="-374.0740740740741" y2="327.27272727272725" visibility="hidden" style="stroke-dasharray: 3px, 3px;"></line></g><g><rect x="-379.0740740740741" y="322.27272727272725" width="10" height="10" visibility="hidden" style="fill: #ffffff; stroke: #6a51a3;"></rect></g><g id="lines"><line class="line" stroke-width="1" stroke="#666666" x1="185.18518518518516" y1="333" x2="185.18518518518516" y2="228.099173553719"></line><line class="line" stroke-width="1" stroke="#666666" x1="285.18518518518516" y1="333" x2="285.18518518518516" y2="228.099173553719"></line><line class="line" stroke-width="1" stroke="#666666" x1="392.59259259259255" y1="333" x2="392.59259259259255" y2="228.099173553719"></line><line class="line" stroke-width="1" stroke="#666666" x1="540.7407407407408" y1="333" x2="540.7407407407408" y2="29.752066115702462"></line><line class="line" stroke-width="1" stroke="#666666" x1="548.1481481481482" y1="333" x2="548.1481481481482" y2="228.099173553719"></line><line class="line" stroke-width="1" stroke="#666666" x1="551.8518518518518" y1="333" x2="551.8518518518518" y2="228.099173553719"></line></g><g id="circles"><circle r="4" cx="185.18518518518516" cy="228.099173553719" style="fill: #666666; stroke: #666666; stroke-width: 1px;"></circle><circle r="4" cx="285.18518518518516" cy="228.099173553719" style="fill: #666666; stroke: #666666; stroke-width: 1px;"></circle><circle r="4" cx="392.59259259259255" cy="228.099173553719" style="fill: #4393c3; stroke: #666666; stroke-width: 1px;"></circle><circle r="4" cx="540.7407407407408" cy="29.752066115702462" style="fill: #4393c3; stroke: #666666; stroke-width: 1px;"></circle><circle r="4" cx="548.1481481481482" cy="228.099173553719" style="fill: #4393c3; stroke: #666666; stroke-width: 1px;"></circle><circle r="4" cx="551.8518518518518" cy="228.099173553719" style="fill: #4393c3; stroke: #666666; stroke-width: 1px;"></circle></g><g><rect x="0" y="333" width="700" height="12" style="fill: #ffffff; stroke-width: 1px; stroke: #666666;"></rect><rect x="144.44444444444443" y="333" width="533.3333333333334" height="12" style="fill: #aec7e8; stroke-width: 1px; stroke: #666666;"></rect></g><g><a target="_blank" xlink:href="http://pfam.xfam.org/family/"><text y="343" x="350" text-anchor="middle" style="color: rgb(102, 102, 102); font-weight: normal; font-size: 12px; font-family: Arial; cursor: pointer;"></text></a><a target="_blank" xlink:href="http://pfam.xfam.org/family/Lipocalin"><text y="343" x="411.11111111111114" text-anchor="middle" style="color: rgb(102, 102, 102); font-weight: normal; font-size: 12px; font-family: Arial; cursor: pointer;">Lipocalin</text></a></g><g><text y="358" x="0" text-anchor="middle" visibility="hidden" style="font-size: 13px;">M</text><text y="358" x="3.7037037037037033" text-anchor="middle" visibility="hidden" style="font-size: 13px;">A</text><text y="358" x="7.4074074074074066" text-anchor="middle" visibility="hidden" style="font-size: 13px;">T</text><text y="358" x="11.11111111111111" text-anchor="middle" visibility="hidden" style="font-size: 13px;">H</text><text y="358" x="14.814814814814813" text-anchor="middle" visibility="hidden" style="font-size: 13px;">H</text><text y="358" x="18.51851851851852" text-anchor="middle" visibility="hidden" style="font-size: 13px;">T</text><text y="358" x="22.22222222222222" text-anchor="middle" visibility="hidden" style="font-size: 13px;">L</text><text y="358" x="25.925925925925924" text-anchor="middle" visibility="hidden" style="font-size: 13px;">W</text><text y="358" x="29.629629629629626" text-anchor="middle" visibility="hidden" style="font-size: 13px;">M</text><text y="358" x="33.33333333333333" text-anchor="middle" visibility="hidden" style="font-size: 13px;">G</text><text y="358" x="37.03703703703704" text-anchor="middle" visibility="hidden" style="font-size: 13px;">L</text><text y="358" x="40.74074074074074" text-anchor="middle" visibility="hidden" style="font-size: 13px;">A</text><text y="358" x="44.44444444444444" text-anchor="middle" visibility="hidden" style="font-size: 13px;">L</text><text y="358" x="48.148148148148145" text-anchor="middle" visibility="hidden" style="font-size: 13px;">L</text><text y="358" x="51.85185185185185" text-anchor="middle" visibility="hidden" style="font-size: 13px;">G</text><text y="358" x="55.55555555555555" text-anchor="middle" visibility="hidden" style="font-size: 13px;">V</text><text y="358" x="59.25925925925925" text-anchor="middle" visibility="hidden" style="font-size: 13px;">L</text><text y="358" x="62.96296296296296" text-anchor="middle" visibility="hidden" style="font-size: 13px;">G</text><text y="358" x="66.66666666666666" text-anchor="middle" visibility="hidden" style="font-size: 13px;">D</text><text y="358" x="70.37037037037037" text-anchor="middle" visibility="hidden" style="font-size: 13px;">L</text><text y="358" x="74.07407407407408" text-anchor="middle" visibility="hidden" style="font-size: 13px;">Q</text><text y="358" x="77.77777777777777" text-anchor="middle" visibility="hidden" style="font-size: 13px;">A</text><text y="358" x="81.48148148148148" text-anchor="middle" visibility="hidden" style="font-size: 13px;">A</text><text y="358" x="85.18518518518518" text-anchor="middle" visibility="hidden" style="font-size: 13px;">P</text><text y="358" x="88.88888888888889" text-anchor="middle" visibility="hidden" style="font-size: 13px;">E</text><text y="358" x="92.59259259259258" text-anchor="middle" visibility="hidden" style="font-size: 13px;">A</text><text y="358" x="96.29629629629629" text-anchor="middle" visibility="hidden" style="font-size: 13px;">Q</text><text y="358" x="100" text-anchor="middle" visibility="hidden" style="font-size: 13px;">V</text><text y="358" x="103.7037037037037" text-anchor="middle" visibility="hidden" style="font-size: 13px;">S</text><text y="358" x="107.4074074074074" text-anchor="middle" visibility="hidden" style="font-size: 13px;">V</text><text y="358" x="111.1111111111111" text-anchor="middle" visibility="hidden" style="font-size: 13px;">Q</text><text y="358" x="114.81481481481481" text-anchor="middle" visibility="hidden" style="font-size: 13px;">P</text><text y="358" x="118.5185185185185" text-anchor="middle" visibility="hidden" style="font-size: 13px;">N</text><text y="358" x="122.22222222222221" text-anchor="middle" visibility="hidden" style="font-size: 13px;">F</text><text y="358" x="125.92592592592592" text-anchor="middle" visibility="hidden" style="font-size: 13px;">Q</text><text y="358" x="129.62962962962962" text-anchor="middle" visibility="hidden" style="font-size: 13px;">Q</text><text y="358" x="133.33333333333331" text-anchor="middle" visibility="hidden" style="font-size: 13px;">D</text><text y="358" x="137.03703703703704" text-anchor="middle" visibility="hidden" style="font-size: 13px;">K</text><text y="358" x="140.74074074074073" text-anchor="middle" visibility="hidden" style="font-size: 13px;">F</text><text y="358" x="144.44444444444443" text-anchor="middle" visibility="hidden" style="font-size: 13px;">L</text><text y="358" x="148.14814814814815" text-anchor="middle" visibility="hidden" style="font-size: 13px;">G</text><text y="358" x="151.85185185185185" text-anchor="middle" visibility="hidden" style="font-size: 13px;">R</text><text y="358" x="155.55555555555554" text-anchor="middle" visibility="hidden" style="font-size: 13px;">W</text><text y="358" x="159.25925925925924" text-anchor="middle" visibility="hidden" style="font-size: 13px;">F</text><text y="358" x="162.96296296296296" text-anchor="middle" visibility="hidden" style="font-size: 13px;">S</text><text y="358" x="166.66666666666666" text-anchor="middle" visibility="hidden" style="font-size: 13px;">A</text><text y="358" x="170.37037037037035" text-anchor="middle" visibility="hidden" style="font-size: 13px;">G</text><text y="358" x="174.07407407407408" text-anchor="middle" visibility="hidden" style="font-size: 13px;">L</text><text y="358" x="177.77777777777777" text-anchor="middle" visibility="hidden" style="font-size: 13px;">A</text><text y="358" x="181.48148148148147" text-anchor="middle" visibility="hidden" style="font-size: 13px;">S</text><text y="358" x="185.18518518518516" text-anchor="middle" visibility="hidden" style="font-size: 13px;">N</text><text y="358" x="188.88888888888889" text-anchor="middle" visibility="hidden" style="font-size: 13px;">S</text><text y="358" x="192.59259259259258" text-anchor="middle" visibility="hidden" style="font-size: 13px;">S</text><text y="358" x="196.29629629629628" text-anchor="middle" visibility="hidden" style="font-size: 13px;">W</text><text y="358" x="200" text-anchor="middle" visibility="hidden" style="font-size: 13px;">L</text><text y="358" x="203.7037037037037" text-anchor="middle" visibility="hidden" style="font-size: 13px;">R</text><text y="358" x="207.4074074074074" text-anchor="middle" visibility="hidden" style="font-size: 13px;">E</text><text y="358" x="211.1111111111111" text-anchor="middle" visibility="hidden" style="font-size: 13px;">K</text><text y="358" x="214.8148148148148" text-anchor="middle" visibility="hidden" style="font-size: 13px;">K</text><text y="358" x="218.5185185185185" text-anchor="middle" visibility="hidden" style="font-size: 13px;">A</text><text y="358" x="222.2222222222222" text-anchor="middle" visibility="hidden" style="font-size: 13px;">A</text><text y="358" x="225.92592592592592" text-anchor="middle" visibility="hidden" style="font-size: 13px;">L</text><text y="358" x="229.62962962962962" text-anchor="middle" visibility="hidden" style="font-size: 13px;">S</text><text y="358" x="233.33333333333331" text-anchor="middle" visibility="hidden" style="font-size: 13px;">M</text><text y="358" x="237.037037037037" text-anchor="middle" visibility="hidden" style="font-size: 13px;">C</text><text y="358" x="240.74074074074073" text-anchor="middle" visibility="hidden" style="font-size: 13px;">K</text><text y="358" x="244.44444444444443" text-anchor="middle" visibility="hidden" style="font-size: 13px;">S</text><text y="358" x="248.14814814814812" text-anchor="middle" visibility="hidden" style="font-size: 13px;">V</text><text y="358" x="251.85185185185185" text-anchor="middle" visibility="hidden" style="font-size: 13px;">V</text><text y="358" x="255.55555555555554" text-anchor="middle" visibility="hidden" style="font-size: 13px;">A</text><text y="358" x="259.25925925925924" text-anchor="middle" visibility="hidden" style="font-size: 13px;">P</text><text y="358" x="262.96296296296293" text-anchor="middle" visibility="hidden" style="font-size: 13px;">A</text><text y="358" x="266.66666666666663" text-anchor="middle" visibility="hidden" style="font-size: 13px;">T</text><text y="358" x="270.3703703703704" text-anchor="middle" visibility="hidden" style="font-size: 13px;">D</text><text y="358" x="274.0740740740741" text-anchor="middle" visibility="hidden" style="font-size: 13px;">G</text><text y="358" x="277.77777777777777" text-anchor="middle" visibility="hidden" style="font-size: 13px;">G</text><text y="358" x="281.48148148148147" text-anchor="middle" visibility="hidden" style="font-size: 13px;">L</text><text y="358" x="285.18518518518516" text-anchor="middle" visibility="hidden" style="font-size: 13px;">N</text><text y="358" x="288.88888888888886" text-anchor="middle" visibility="hidden" style="font-size: 13px;">L</text><text y="358" x="292.59259259259255" text-anchor="middle" visibility="hidden" style="font-size: 13px;">T</text><text y="358" x="296.2962962962963" text-anchor="middle" visibility="hidden" style="font-size: 13px;">S</text><text y="358" x="300" text-anchor="middle" visibility="hidden" style="font-size: 13px;">T</text><text y="358" x="303.7037037037037" text-anchor="middle" visibility="hidden" style="font-size: 13px;">F</text><text y="358" x="307.4074074074074" text-anchor="middle" visibility="hidden" style="font-size: 13px;">L</text><text y="358" x="311.1111111111111" text-anchor="middle" visibility="hidden" style="font-size: 13px;">R</text><text y="358" x="314.8148148148148" text-anchor="middle" visibility="hidden" style="font-size: 13px;">K</text><text y="358" x="318.5185185185185" text-anchor="middle" visibility="hidden" style="font-size: 13px;">N</text><text y="358" x="322.22222222222223" text-anchor="middle" visibility="hidden" style="font-size: 13px;">Q</text><text y="358" x="325.9259259259259" text-anchor="middle" visibility="hidden" style="font-size: 13px;">C</text><text y="358" x="329.6296296296296" text-anchor="middle" visibility="hidden" style="font-size: 13px;">E</text><text y="358" x="333.3333333333333" text-anchor="middle" visibility="hidden" style="font-size: 13px;">T</text><text y="358" x="337.037037037037" text-anchor="middle" visibility="hidden" style="font-size: 13px;">R</text><text y="358" x="340.7407407407407" text-anchor="middle" visibility="hidden" style="font-size: 13px;">T</text><text y="358" x="344.4444444444444" text-anchor="middle" visibility="hidden" style="font-size: 13px;">M</text><text y="358" x="348.14814814814815" text-anchor="middle" visibility="hidden" style="font-size: 13px;">L</text><text y="358" x="351.85185185185185" text-anchor="middle" visibility="hidden" style="font-size: 13px;">L</text><text y="358" x="355.55555555555554" text-anchor="middle" visibility="hidden" style="font-size: 13px;">Q</text><text y="358" x="359.2592592592593" text-anchor="middle" visibility="hidden" style="font-size: 13px;">P</text><text y="358" x="362.96296296296293" text-anchor="middle" visibility="hidden" style="font-size: 13px;">A</text><text y="358" x="366.6666666666667" text-anchor="middle" visibility="hidden" style="font-size: 13px;">G</text><text y="358" x="370.3703703703703" text-anchor="middle" visibility="hidden" style="font-size: 13px;">S</text><text y="358" x="374.0740740740741" text-anchor="middle" visibility="hidden" style="font-size: 13px;">L</text><text y="358" x="377.77777777777777" text-anchor="middle" visibility="hidden" style="font-size: 13px;">G</text><text y="358" x="381.4814814814815" text-anchor="middle" visibility="hidden" style="font-size: 13px;">S</text><text y="358" x="385.18518518518516" text-anchor="middle" visibility="hidden" style="font-size: 13px;">Y</text><text y="358" x="388.8888888888889" text-anchor="middle" visibility="hidden" style="font-size: 13px;">S</text><text y="358" x="392.59259259259255" text-anchor="middle" visibility="hidden" style="font-size: 13px;">Y</text><text y="358" x="396.2962962962963" text-anchor="middle" visibility="hidden" style="font-size: 13px;">R</text><text y="358" x="400" text-anchor="middle" visibility="hidden" style="font-size: 13px;">S</text><text y="358" x="403.7037037037037" text-anchor="middle" visibility="hidden" style="font-size: 13px;">P</text><text y="358" x="407.4074074074074" text-anchor="middle" visibility="hidden" style="font-size: 13px;">H</text><text y="358" x="411.11111111111114" text-anchor="middle" visibility="hidden" style="font-size: 13px;">W</text><text y="358" x="414.8148148148148" text-anchor="middle" visibility="hidden" style="font-size: 13px;">G</text><text y="358" x="418.51851851851853" text-anchor="middle" visibility="hidden" style="font-size: 13px;">S</text><text y="358" x="422.2222222222222" text-anchor="middle" visibility="hidden" style="font-size: 13px;">T</text><text y="358" x="425.9259259259259" text-anchor="middle" visibility="hidden" style="font-size: 13px;">Y</text><text y="358" x="429.6296296296296" text-anchor="middle" visibility="hidden" style="font-size: 13px;">S</text><text y="358" x="433.33333333333337" text-anchor="middle" visibility="hidden" style="font-size: 13px;">V</text><text y="358" x="437.037037037037" text-anchor="middle" visibility="hidden" style="font-size: 13px;">S</text><text y="358" x="440.74074074074076" text-anchor="middle" visibility="hidden" style="font-size: 13px;">V</text><text y="358" x="444.4444444444444" text-anchor="middle" visibility="hidden" style="font-size: 13px;">V</text><text y="358" x="448.14814814814815" text-anchor="middle" visibility="hidden" style="font-size: 13px;">E</text><text y="358" x="451.85185185185185" text-anchor="middle" visibility="hidden" style="font-size: 13px;">T</text><text y="358" x="455.55555555555554" text-anchor="middle" visibility="hidden" style="font-size: 13px;">D</text><text y="358" x="459.25925925925924" text-anchor="middle" visibility="hidden" style="font-size: 13px;">Y</text><text y="358" x="462.962962962963" text-anchor="middle" visibility="hidden" style="font-size: 13px;">D</text><text y="358" x="466.66666666666663" text-anchor="middle" visibility="hidden" style="font-size: 13px;">Q</text><text y="358" x="470.3703703703704" text-anchor="middle" visibility="hidden" style="font-size: 13px;">Y</text><text y="358" x="474.074074074074" text-anchor="middle" visibility="hidden" style="font-size: 13px;">A</text><text y="358" x="477.77777777777777" text-anchor="middle" visibility="hidden" style="font-size: 13px;">L</text><text y="358" x="481.48148148148147" text-anchor="middle" visibility="hidden" style="font-size: 13px;">L</text><text y="358" x="485.1851851851852" text-anchor="middle" visibility="hidden" style="font-size: 13px;">Y</text><text y="358" x="488.88888888888886" text-anchor="middle" visibility="hidden" style="font-size: 13px;">S</text><text y="358" x="492.5925925925926" text-anchor="middle" visibility="hidden" style="font-size: 13px;">Q</text><text y="358" x="496.29629629629625" text-anchor="middle" visibility="hidden" style="font-size: 13px;">G</text><text y="358" x="500" text-anchor="middle" visibility="hidden" style="font-size: 13px;">S</text><text y="358" x="503.7037037037037" text-anchor="middle" visibility="hidden" style="font-size: 13px;">K</text><text y="358" x="507.4074074074074" text-anchor="middle" visibility="hidden" style="font-size: 13px;">G</text><text y="358" x="511.1111111111111" text-anchor="middle" visibility="hidden" style="font-size: 13px;">P</text><text y="358" x="514.8148148148148" text-anchor="middle" visibility="hidden" style="font-size: 13px;">G</text><text y="358" x="518.5185185185185" text-anchor="middle" visibility="hidden" style="font-size: 13px;">E</text><text y="358" x="522.2222222222223" text-anchor="middle" visibility="hidden" style="font-size: 13px;">D</text><text y="358" x="525.9259259259259" text-anchor="middle" visibility="hidden" style="font-size: 13px;">F</text><text y="358" x="529.6296296296297" text-anchor="middle" visibility="hidden" style="font-size: 13px;">R</text><text y="358" x="533.3333333333333" text-anchor="middle" visibility="hidden" style="font-size: 13px;">M</text><text y="358" x="537.0370370370371" text-anchor="middle" visibility="hidden" style="font-size: 13px;">A</text><text y="358" x="540.7407407407408" text-anchor="middle" visibility="hidden" style="font-size: 13px;">T</text><text y="358" x="544.4444444444445" text-anchor="middle" visibility="hidden" style="font-size: 13px;">L</text><text y="358" x="548.1481481481482" text-anchor="middle" visibility="hidden" style="font-size: 13px;">Y</text><text y="358" x="551.8518518518518" text-anchor="middle" visibility="hidden" style="font-size: 13px;">S</text><text y="358" x="555.5555555555555" text-anchor="middle" visibility="hidden" style="font-size: 13px;">R</text><text y="358" x="559.2592592592592" text-anchor="middle" visibility="hidden" style="font-size: 13px;">T</text><text y="358" x="562.9629629629629" text-anchor="middle" visibility="hidden" style="font-size: 13px;">Q</text><text y="358" x="566.6666666666666" text-anchor="middle" visibility="hidden" style="font-size: 13px;">T</text><text y="358" x="570.3703703703703" text-anchor="middle" visibility="hidden" style="font-size: 13px;">P</text><text y="358" x="574.0740740740741" text-anchor="middle" visibility="hidden" style="font-size: 13px;">R</text><text y="358" x="577.7777777777777" text-anchor="middle" visibility="hidden" style="font-size: 13px;">A</text><text y="358" x="581.4814814814815" text-anchor="middle" visibility="hidden" style="font-size: 13px;">E</text><text y="358" x="585.1851851851851" text-anchor="middle" visibility="hidden" style="font-size: 13px;">L</text><text y="358" x="588.8888888888889" text-anchor="middle" visibility="hidden" style="font-size: 13px;">K</text><text y="358" x="592.5925925925926" text-anchor="middle" visibility="hidden" style="font-size: 13px;">E</text><text y="358" x="596.2962962962963" text-anchor="middle" visibility="hidden" style="font-size: 13px;">K</text><text y="358" x="600" text-anchor="middle" visibility="hidden" style="font-size: 13px;">F</text><text y="358" x="603.7037037037037" text-anchor="middle" visibility="hidden" style="font-size: 13px;">T</text><text y="358" x="607.4074074074074" text-anchor="middle" visibility="hidden" style="font-size: 13px;">A</text><text y="358" x="611.1111111111111" text-anchor="middle" visibility="hidden" style="font-size: 13px;">F</text><text y="358" x="614.8148148148148" text-anchor="middle" visibility="hidden" style="font-size: 13px;">C</text><text y="358" x="618.5185185185185" text-anchor="middle" visibility="hidden" style="font-size: 13px;">K</text><text y="358" x="622.2222222222222" text-anchor="middle" visibility="hidden" style="font-size: 13px;">A</text><text y="358" x="625.925925925926" text-anchor="middle" visibility="hidden" style="font-size: 13px;">Q</text><text y="358" x="629.6296296296296" text-anchor="middle" visibility="hidden" style="font-size: 13px;">G</text><text y="358" x="633.3333333333334" text-anchor="middle" visibility="hidden" style="font-size: 13px;">F</text><text y="358" x="637.037037037037" text-anchor="middle" visibility="hidden" style="font-size: 13px;">T</text><text y="358" x="640.7407407407408" text-anchor="middle" visibility="hidden" style="font-size: 13px;">E</text><text y="358" x="644.4444444444445" text-anchor="middle" visibility="hidden" style="font-size: 13px;">D</text><text y="358" x="648.1481481481482" text-anchor="middle" visibility="hidden" style="font-size: 13px;">T</text><text y="358" x="651.8518518518518" text-anchor="middle" visibility="hidden" style="font-size: 13px;">I</text><text y="358" x="655.5555555555555" text-anchor="middle" visibility="hidden" style="font-size: 13px;">V</text><text y="358" x="659.2592592592592" text-anchor="middle" visibility="hidden" style="font-size: 13px;">F</text><text y="358" x="662.9629629629629" text-anchor="middle" visibility="hidden" style="font-size: 13px;">L</text><text y="358" x="666.6666666666666" text-anchor="middle" visibility="hidden" style="font-size: 13px;">P</text><text y="358" x="670.3703703703703" text-anchor="middle" visibility="hidden" style="font-size: 13px;">Q</text><text y="358" x="674.074074074074" text-anchor="middle" visibility="hidden" style="font-size: 13px;">T</text><text y="358" x="677.7777777777778" text-anchor="middle" visibility="hidden" style="font-size: 13px;">D</text><text y="358" x="681.4814814814814" text-anchor="middle" visibility="hidden" style="font-size: 13px;">K</text><text y="358" x="685.1851851851852" text-anchor="middle" visibility="hidden" style="font-size: 13px;">C</text><text y="358" x="688.8888888888888" text-anchor="middle" visibility="hidden" style="font-size: 13px;">M</text><text y="358" x="692.5925925925926" text-anchor="middle" visibility="hidden" style="font-size: 13px;">T</text><text y="358" x="696.2962962962963" text-anchor="middle" visibility="hidden" style="font-size: 13px;">E</text><text y="358" x="700" text-anchor="middle" visibility="hidden" style="font-size: 13px;">Q</text></g></g></svg><g class="xAxis" transform="translate(0,360)" fill="none" font-size="10" font-family="sans-serif" text-anchor="middle"><path class="domain" stroke="#000" d="M0.5,6V0.5H700.5V6"></path><g class="tick" opacity="1" transform="translate(70.87037037037037,0)"><line stroke="#000" y2="6"></line><text fill="#000" y="9" dy="0.71em">20</text></g><g class="tick" opacity="1" transform="translate(144.94444444444443,0)"><line stroke="#000" y2="6"></line><text fill="#000" y="9" dy="0.71em">40</text></g><g class="tick" opacity="1" transform="translate(219.0185185185185,0)"><line stroke="#000" y2="6"></line><text fill="#000" y="9" dy="0.71em">60</text></g><g class="tick" opacity="1" transform="translate(293.09259259259255,0)"><line stroke="#000" y2="6"></line><text fill="#000" y="9" dy="0.71em">80</text></g><g class="tick" opacity="1" transform="translate(367.1666666666667,0)"><line stroke="#000" y2="6"></line><text fill="#000" y="9" dy="0.71em">100</text></g><g class="tick" opacity="1" transform="translate(441.24074074074076,0)"><line stroke="#000" y2="6"></line><text fill="#000" y="9" dy="0.71em">120</text></g><g class="tick" opacity="1" transform="translate(515.3148148148148,0)"><line stroke="#000" y2="6"></line><text fill="#000" y="9" dy="0.71em">140</text></g><g class="tick" opacity="1" transform="translate(589.3888888888889,0)"><line stroke="#000" y2="6"></line><text fill="#000" y="9" dy="0.71em">160</text></g><g class="tick" opacity="1" transform="translate(663.4629629629629,0)"><line stroke="#000" y2="6"></line><text fill="#000" y="9" dy="0.71em">180</text></g></g><text class="x label" text-anchor="end" x="700" y="390" style="font-size: 13px; font-family: Arial;">Residue number</text><g class="yAxis" fill="none" font-size="10" font-family="sans-serif" text-anchor="end"><path class="domain" stroke="#000" d="M-6,360.5H0.5V0.5H-6"></path><g class="tick" opacity="1" transform="translate(0,327.77272727272725)"><line stroke="#000" x2="-6"></line><text fill="#000" x="-9" dy="0.32em">0</text></g><g class="tick" opacity="1" transform="translate(0,278.18595041322317)"><line stroke="#000" x2="-6"></line><text fill="#000" x="-9" dy="0.32em">0.5</text></g><g class="tick" opacity="1" transform="translate(0,228.599173553719)"><line stroke="#000" x2="-6"></line><text fill="#000" x="-9" dy="0.32em">1</text></g><g class="tick" opacity="1" transform="translate(0,179.01239669421489)"><line stroke="#000" x2="-6"></line><text fill="#000" x="-9" dy="0.32em">1.5</text></g><g class="tick" opacity="1" transform="translate(0,129.42561983471072)"><line stroke="#000" x2="-6"></line><text fill="#000" x="-9" dy="0.32em">2</text></g><g class="tick" opacity="1" transform="translate(0,79.8388429752066)"><line stroke="#000" x2="-6"></line><text fill="#000" x="-9" dy="0.32em">2.5</text></g><g class="tick" opacity="1" transform="translate(0,30.252066115702462)"><line stroke="#000" x2="-6"></line><text fill="#000" x="-9" dy="0.32em">3</text></g></g><text class="y label" text-anchor="middle" y="-50" x="-180" dy="0.8em" transform="rotate(-90)" style="font-size: 13px; font-family: Arial;">Total number of references</text><g class="axisRed" fill="none" font-size="10" font-family="sans-serif" text-anchor="start" visibility="hidden" transform="translate(700, 0)"><path class="domain" stroke="#000" d="M6,360.5H0.5V0.5H6"></path><g class="tick" opacity="1" transform="translate(0,360.5)"><line stroke="#000" x2="6"></line><text fill="#000" x="9" dy="0.32em">0</text></g><text text-anchor="start" dx="5.2em" dy="-2.6em" transform="rotate(90)" visibility="hidden" style="font-size: 12px; font-family: Arial; fill: #d7301f;">No recurrent (&gt;2) missense mutations!</text></g><g class="axisPurple" fill="none" font-size="10" font-family="sans-serif" text-anchor="start" visibility="hidden"><path class="domain" stroke="#000" d="M6,360.5H0.5V0.5H6"></path><g class="tick" opacity="1" transform="translate(0,357.52479338842977)"><line stroke="#000" x2="6"></line><text fill="#000" x="9" dy="0.32em"></text></g><g class="tick" opacity="1" transform="translate(0,327.77272727272725)"><line stroke="#000" x2="6"></line><text fill="#000" x="9" dy="0.32em">0</text></g><g class="tick" opacity="1" transform="translate(0,298.0206611570248)"><line stroke="#000" x2="6"></line><text fill="#000" x="9" dy="0.32em">0.1</text></g><g class="tick" opacity="1" transform="translate(0,268.2685950413223)"><line stroke="#000" x2="6"></line><text fill="#000" x="9" dy="0.32em">0.2</text></g><g class="tick" opacity="1" transform="translate(0,238.51652892561984)"><line stroke="#000" x2="6"></line><text fill="#000" x="9" dy="0.32em">0.3</text></g><g class="tick" opacity="1" transform="translate(0,208.76446280991738)"><line stroke="#000" x2="6"></line><text fill="#000" x="9" dy="0.32em">0.4</text></g><g class="tick" opacity="1" transform="translate(0,179.0123966942149)"><line stroke="#000" x2="6"></line><text fill="#000" x="9" dy="0.32em">0.5</text></g><g class="tick" opacity="1" transform="translate(0,149.26033057851242)"><line stroke="#000" x2="6"></line><text fill="#000" x="9" dy="0.32em">0.6</text></g><g class="tick" opacity="1" transform="translate(0,119.50826446280996)"><line stroke="#000" x2="6"></line><text fill="#000" x="9" dy="0.32em">0.7</text></g><g class="tick" opacity="1" transform="translate(0,89.75619834710744)"><line stroke="#000" x2="6"></line><text fill="#000" x="9" dy="0.32em">0.8</text></g><g class="tick" opacity="1" transform="translate(0,60.00413223140498)"><line stroke="#000" x2="6"></line><text fill="#000" x="9" dy="0.32em">0.9</text></g><g class="tick" opacity="1" transform="translate(0,30.25206611570252)"><line stroke="#000" x2="6"></line><text fill="#000" x="9" dy="0.32em">1</text></g><g class="tick" opacity="1" transform="translate(0,0.5)"><line stroke="#000" x2="6"></line><text fill="#000" x="9" dy="0.32em">1.1</text></g><text text-anchor="start" x="10" y="10" visibility="hidden" style="font-size: 12px; font-family: Arial; fill: #807dba;">No disease causing germline SNPs known!</text></g><circle cx="636" cy="15" r="10" class="compassNav" style="fill: #ffffff; stroke: #666666; stroke-width: 1px;"></circle><path d="M440.935 12.574l3.966 82.766C399.416 41.904 331.674 8 256 8 134.813 8 33.933 94.924 12.296 209.824 10.908 217.193 16.604 224 24.103 224h49.084c5.57 0 10.377-3.842 11.676-9.259C103.407 137.408 172.931 80 256 80c60.893 0 114.512 30.856 146.104 77.801l-101.53-4.865c-6.845-.328-12.574 5.133-12.574 11.986v47.411c0 6.627 5.373 12 12 12h200.333c6.627 0 12-5.373 12-12V12c0-6.627-5.373-12-12-12h-47.411c-6.853 0-12.315 5.729-11.987 12.574zM256 432c-60.895 0-114.517-30.858-146.109-77.805l101.868 4.871c6.845.327 12.573-5.134 12.573-11.986v-47.412c0-6.627-5.373-12-12-12H12c-6.627 0-12 5.373-12 12V500c0 6.627 5.373 12 12 12h47.385c6.863 0 12.328-5.745 11.985-12.599l-4.129-82.575C112.725 470.166 180.405 504 256 504c121.187 0 222.067-86.924 243.704-201.824 1.388-7.369-4.308-14.176-11.807-14.176h-49.084c-5.57 0-10.377 3.842-11.676 9.259C408.593 374.592 339.069 432 256 432z" class="compassNav" transform="translate(631, 10) scale(0.02)" style="fill: #666666; stroke: #666666; stroke-width: 1px;"></path><circle cx="658" cy="15" r="10" class="compassNav" style="fill: #ffffff; stroke: #666666; stroke-width: 1px;"></circle><line class="compassNav" stroke-width="2" stroke="#666666" x1="654" y1="15" x2="662" y2="15"></line><line class="compassNav" stroke-width="2" stroke="#666666" x1="658" y1="11" x2="658" y2="19"></line><circle cx="614" cy="15" r="10" class="compassNav" style="fill: #ffffff; stroke: #666666; stroke-width: 1px;"></circle><line class="compassNav" stroke-width="2" stroke="#666666" x1="610" y1="15" x2="618" y2="15"></line><path d="M582 14 l20 -12 a100,40 0 0,0 0,24z" class="compassNav" style="fill: #ffffff; stroke: #666666; stroke-width: 1px;"></path><path d="M690 14 l-20 -12 a100,40 0 0,1 0,24z" class="compassNav" style="fill: #ffffff; stroke: #666666; stroke-width: 1px;"></path><path d="M216 0h80c13.3 0 24 10.7 24 24v168h87.7c17.8 0 26.7 21.5 14.1 34.1L269.7 378.3c-7.5 7.5-19.8 7.5-27.3 0L90.1 226.1c-12.6-12.6-3.7-34.1 14.1-34.1H192V24c0-13.3 10.7-24 24-24zm296 376v112c0 13.3-10.7 24-24 24H24c-13.3 0-24-10.7-24-24V376c0-13.3 10.7-24 24-24h146.7l49 49c20.1 20.1 52.5 20.1 72.6 0l49-49H488c13.3 0 24 10.7 24 24zm-124 88c0-11-9-20-20-20s-20 9-20 20 9 20 20 20 20-9 20-20zm64 0c0-11-9-20-20-20s-20 9-20 20 9 20 20 20 20-9 20-20z" class="compassNav" transform="translate(552,0) scale(0.05)" style="fill: #336699; stroke: #336699; stroke-width: 1px; cursor: pointer;"></path></g></svg>