<svg width="800" height="400" style="background-color: white;"><g transform="translate(50,0)"><svg width="700" height="360"><g style="-webkit-tap-highlight-color: rgba(0, 0, 0, 0);"><rect width="700" height="360" style="fill: #ffffff;"></rect><g id="lines"><line class="line" stroke-width="1" stroke="#d7301f" x1="483.22580645161287" y1="333" x2="483.22580645161287" y2="29.75206611570252" visibility="hidden" style="stroke-dasharray: 3px, 3px;"></line><line class="line" stroke-width="1" stroke="#d7301f" x1="370.3225806451613" y1="333" x2="370.3225806451613" y2="114.75796930342389" visibility="hidden" style="stroke-dasharray: 3px, 3px;"></line></g><g><rect x="478.22580645161287" y="24.75206611570252" width="10" height="10" visibility="hidden" style="fill: #ffffff; stroke: #d7301f;"></rect><rect x="365.3225806451613" y="109.75796930342389" width="10" height="10" visibility="hidden" style="fill: #ffffff; stroke: #d7301f;"></rect></g><g id="lines"><line class="line" stroke-width="1" stroke="#6a51a3" x1="140" y1="333" x2="140" y2="327.27272727272725" visibility="hidden" style="stroke-dasharray: 3px, 3px;"></line><line class="line" stroke-width="1" stroke="#6a51a3" x1="153.5483870967742" y1="333" x2="153.5483870967742" y2="301.7280240420736" visibility="hidden" style="stroke-dasharray: 3px, 3px;"></line><line class="line" stroke-width="1" stroke="#6a51a3" x1="298.06451612903226" y1="333" x2="298.06451612903226" y2="309.2411720510894" visibility="hidden" style="stroke-dasharray: 3px, 3px;"></line><line class="line" stroke-width="1" stroke="#6a51a3" x1="302.5806451612903" y1="333" x2="302.5806451612903" y2="327.27272727272725" visibility="hidden" style="stroke-dasharray: 3px, 3px;"></line><line class="line" stroke-width="1" stroke="#6a51a3" x1="451.61290322580646" y1="333" x2="451.61290322580646" y2="121.41247182569498" visibility="hidden" style="stroke-dasharray: 3px, 3px;"></line><line class="line" stroke-width="1" stroke="#6a51a3" x1="329.6774193548387" y1="333" x2="329.6774193548387" y2="29.752066115702462" visibility="hidden" style="stroke-dasharray: 3px, 3px;"></line><line class="line" stroke-width="1" stroke="#6a51a3" x1="221.29032258064515" y1="333" x2="221.29032258064515" y2="327.27272727272725" visibility="hidden" style="stroke-dasharray: 3px, 3px;"></line><line class="line" stroke-width="1" stroke="#6a51a3" x1="374.8387096774194" y1="333" x2="374.8387096774194" y2="327.27272727272725" visibility="hidden" style="stroke-dasharray: 3px, 3px;"></line><line class="line" stroke-width="1" stroke="#6a51a3" x1="234.83870967741936" y1="333" x2="234.83870967741936" y2="223.59128474830956" visibility="hidden" style="stroke-dasharray: 3px, 3px;"></line><line class="line" stroke-width="1" stroke="#6a51a3" x1="388.38709677419354" y1="333" x2="388.38709677419354" y2="276.18332081142" visibility="hidden" style="stroke-dasharray: 3px, 3px;"></line><line class="line" stroke-width="1" stroke="#6a51a3" x1="103.87096774193547" y1="333" x2="103.87096774193547" y2="286.70172802404204" visibility="hidden" style="stroke-dasharray: 3px, 3px;"></line><line class="line" stroke-width="1" stroke="#6a51a3" x1="397.4193548387097" y1="333" x2="397.4193548387097" y2="313.7490608564989" visibility="hidden" style="stroke-dasharray: 3px, 3px;"></line><line class="line" stroke-width="1" stroke="#6a51a3" x1="546.4516129032259" y1="333" x2="546.4516129032259" y2="327.27272727272725" visibility="hidden" style="stroke-dasharray: 3px, 3px;"></line><line class="line" stroke-width="1" stroke="#6a51a3" x1="261.93548387096774" y1="333" x2="261.93548387096774" y2="276.18332081142" visibility="hidden" style="stroke-dasharray: 3px, 3px;"></line><line class="line" stroke-width="1" stroke="#6a51a3" x1="564.516129032258" y1="333" x2="564.516129032258" y2="327.27272727272725" visibility="hidden" style="stroke-dasharray: 3px, 3px;"></line></g><g><rect x="135" y="322.27272727272725" width="10" height="10" visibility="hidden" style="fill: #ffffff; stroke: #6a51a3;"></rect><rect x="148.5483870967742" y="296.7280240420736" width="10" height="10" visibility="hidden" style="fill: #ffffff; stroke: #6a51a3;"></rect><rect x="293.06451612903226" y="304.2411720510894" width="10" height="10" visibility="hidden" style="fill: #ffffff; stroke: #6a51a3;"></rect><rect x="297.5806451612903" y="322.27272727272725" width="10" height="10" visibility="hidden" style="fill: #ffffff; stroke: #6a51a3;"></rect><rect x="446.61290322580646" y="116.41247182569498" width="10" height="10" visibility="hidden" style="fill: #ffffff; stroke: #6a51a3;"></rect><rect x="324.6774193548387" y="24.752066115702462" width="10" height="10" visibility="hidden" style="fill: #ffffff; stroke: #6a51a3;"></rect><rect x="216.29032258064515" y="322.27272727272725" width="10" height="10" visibility="hidden" style="fill: #ffffff; stroke: #6a51a3;"></rect><rect x="369.8387096774194" y="322.27272727272725" width="10" height="10" visibility="hidden" style="fill: #ffffff; stroke: #6a51a3;"></rect><rect x="229.83870967741936" y="218.59128474830956" width="10" height="10" visibility="hidden" style="fill: #ffffff; stroke: #6a51a3;"></rect><rect x="383.38709677419354" y="271.18332081142" width="10" height="10" visibility="hidden" style="fill: #ffffff; stroke: #6a51a3;"></rect><rect x="98.87096774193547" y="281.70172802404204" width="10" height="10" visibility="hidden" style="fill: #ffffff; stroke: #6a51a3;"></rect><rect x="392.4193548387097" y="308.7490608564989" width="10" height="10" visibility="hidden" style="fill: #ffffff; stroke: #6a51a3;"></rect><rect x="541.4516129032259" y="322.27272727272725" width="10" height="10" visibility="hidden" style="fill: #ffffff; stroke: #6a51a3;"></rect><rect x="256.93548387096774" y="271.18332081142" width="10" height="10" visibility="hidden" style="fill: #ffffff; stroke: #6a51a3;"></rect><rect x="559.516129032258" y="322.27272727272725" width="10" height="10" visibility="hidden" style="fill: #ffffff; stroke: #6a51a3;"></rect></g><g id="lines"><line class="line" stroke-width="1" stroke="#666666" x1="27.096774193548388" y1="333" x2="27.096774193548388" y2="104.13223140495873"></line><line class="line" stroke-width="1" stroke="#666666" x1="31.61290322580645" y1="333" x2="31.61290322580645" y2="104.13223140495873"></line><line class="line" stroke-width="1" stroke="#666666" x1="194.19354838709677" y1="333" x2="194.19354838709677" y2="252.8925619834711"></line><line class="line" stroke-width="1" stroke="#666666" x1="587.0967741935484" y1="333" x2="587.0967741935484" y2="252.8925619834711"></line><line class="line" stroke-width="1" stroke="#666666" x1="618.7096774193549" y1="333" x2="618.7096774193549" y2="252.8925619834711"></line><line class="line" stroke-width="1" stroke="#666666" x1="627.741935483871" y1="333" x2="627.741935483871" y2="29.75206611570252"></line><line class="line" stroke-width="1" stroke="#666666" x1="681.9354838709678" y1="333" x2="681.9354838709678" y2="29.75206611570252"></line></g><g id="circles"><circle r="4" cx="27.096774193548388" cy="104.13223140495873" style="fill: #4393c3; stroke: #666666; stroke-width: 1px;"></circle><circle r="4" cx="31.61290322580645" cy="104.13223140495873" style="fill: #4393c3; stroke: #666666; stroke-width: 1px;"></circle><circle r="4" cx="194.19354838709677" cy="252.8925619834711" style="fill: #4393c3; stroke: #666666; stroke-width: 1px;"></circle><circle r="4" cx="587.0967741935484" cy="252.8925619834711" style="fill: #666666; stroke: #666666; stroke-width: 1px;"></circle><circle r="4" cx="618.7096774193549" cy="252.8925619834711" style="fill: #666666; stroke: #666666; stroke-width: 1px;"></circle><circle r="4" cx="627.741935483871" cy="29.75206611570252" style="fill: #4393c3; stroke: #666666; stroke-width: 1px;"></circle><circle r="4" cx="681.9354838709678" cy="29.75206611570252" style="fill: #4393c3; stroke: #666666; stroke-width: 1px;"></circle></g><g><rect x="0" y="333" width="700" height="12" style="fill: #ffffff; stroke-width: 1px; stroke: #666666;"></rect><rect x="67.74193548387096" y="333" width="121.93548387096776" height="12" style="fill: #aec7e8; stroke-width: 1px; stroke: #666666;"></rect><rect x="216.7741935483871" y="333" width="429.0322580645162" height="12" style="fill: #ffbb78; stroke-width: 1px; stroke: #666666;"></rect></g><g><a target="_blank" xlink:href="http://pfam.xfam.org/family/"><text y="343" x="350" text-anchor="middle" style="color: rgb(102, 102, 102); font-weight: normal; font-size: 12px; font-family: Arial; cursor: pointer;"></text></a><a target="_blank" xlink:href="http://pfam.xfam.org/family/Ank"><text y="343" x="128.70967741935485" text-anchor="middle" style="color: rgb(102, 102, 102); font-weight: normal; font-size: 12px; font-family: Arial; cursor: pointer;">Ank</text></a><a target="_blank" xlink:href="http://pfam.xfam.org/family/Ank_2"><text y="343" x="431.2903225806452" text-anchor="middle" style="color: rgb(102, 102, 102); font-weight: normal; font-size: 12px; font-family: Arial; cursor: pointer;">Ank_2</text></a></g><g><text y="358" x="0" text-anchor="middle" visibility="hidden" style="font-size: 13px;">M</text><text y="358" x="4.516129032258065" text-anchor="middle" visibility="hidden" style="font-size: 13px;">E</text><text y="358" x="9.03225806451613" text-anchor="middle" visibility="hidden" style="font-size: 13px;">P</text><text y="358" x="13.548387096774194" text-anchor="middle" visibility="hidden" style="font-size: 13px;">A</text><text y="358" x="18.06451612903226" text-anchor="middle" visibility="hidden" style="font-size: 13px;">A</text><text y="358" x="22.58064516129032" text-anchor="middle" visibility="hidden" style="font-size: 13px;">G</text><text y="358" x="27.096774193548388" text-anchor="middle" visibility="hidden" style="font-size: 13px;">S</text><text y="358" x="31.61290322580645" text-anchor="middle" visibility="hidden" style="font-size: 13px;">S</text><text y="358" x="36.12903225806452" text-anchor="middle" visibility="hidden" style="font-size: 13px;">M</text><text y="358" x="40.645161290322584" text-anchor="middle" visibility="hidden" style="font-size: 13px;">E</text><text y="358" x="45.16129032258064" text-anchor="middle" visibility="hidden" style="font-size: 13px;">P</text><text y="358" x="49.67741935483871" text-anchor="middle" visibility="hidden" style="font-size: 13px;">S</text><text y="358" x="54.193548387096776" text-anchor="middle" visibility="hidden" style="font-size: 13px;">A</text><text y="358" x="58.70967741935484" text-anchor="middle" visibility="hidden" style="font-size: 13px;">D</text><text y="358" x="63.2258064516129" text-anchor="middle" visibility="hidden" style="font-size: 13px;">W</text><text y="358" x="67.74193548387096" text-anchor="middle" visibility="hidden" style="font-size: 13px;">L</text><text y="358" x="72.25806451612904" text-anchor="middle" visibility="hidden" style="font-size: 13px;">A</text><text y="358" x="76.7741935483871" text-anchor="middle" visibility="hidden" style="font-size: 13px;">T</text><text y="358" x="81.29032258064517" text-anchor="middle" visibility="hidden" style="font-size: 13px;">A</text><text y="358" x="85.80645161290322" text-anchor="middle" visibility="hidden" style="font-size: 13px;">A</text><text y="358" x="90.32258064516128" text-anchor="middle" visibility="hidden" style="font-size: 13px;">A</text><text y="358" x="94.83870967741936" text-anchor="middle" visibility="hidden" style="font-size: 13px;">R</text><text y="358" x="99.35483870967742" text-anchor="middle" visibility="hidden" style="font-size: 13px;">G</text><text y="358" x="103.87096774193547" text-anchor="middle" visibility="hidden" style="font-size: 13px;">R</text><text y="358" x="108.38709677419355" text-anchor="middle" visibility="hidden" style="font-size: 13px;">V</text><text y="358" x="112.90322580645162" text-anchor="middle" visibility="hidden" style="font-size: 13px;">E</text><text y="358" x="117.41935483870968" text-anchor="middle" visibility="hidden" style="font-size: 13px;">E</text><text y="358" x="121.93548387096774" text-anchor="middle" visibility="hidden" style="font-size: 13px;">V</text><text y="358" x="126.4516129032258" text-anchor="middle" visibility="hidden" style="font-size: 13px;">R</text><text y="358" x="130.96774193548387" text-anchor="middle" visibility="hidden" style="font-size: 13px;">A</text><text y="358" x="135.48387096774192" text-anchor="middle" visibility="hidden" style="font-size: 13px;">L</text><text y="358" x="140" text-anchor="middle" visibility="hidden" style="font-size: 13px;">L</text><text y="358" x="144.51612903225808" text-anchor="middle" visibility="hidden" style="font-size: 13px;">E</text><text y="358" x="149.03225806451613" text-anchor="middle" visibility="hidden" style="font-size: 13px;">A</text><text y="358" x="153.5483870967742" text-anchor="middle" visibility="hidden" style="font-size: 13px;">G</text><text y="358" x="158.06451612903226" text-anchor="middle" visibility="hidden" style="font-size: 13px;">A</text><text y="358" x="162.58064516129033" text-anchor="middle" visibility="hidden" style="font-size: 13px;">L</text><text y="358" x="167.09677419354838" text-anchor="middle" visibility="hidden" style="font-size: 13px;">P</text><text y="358" x="171.61290322580643" text-anchor="middle" visibility="hidden" style="font-size: 13px;">N</text><text y="358" x="176.1290322580645" text-anchor="middle" visibility="hidden" style="font-size: 13px;">A</text><text y="358" x="180.64516129032256" text-anchor="middle" visibility="hidden" style="font-size: 13px;">P</text><text y="358" x="185.16129032258064" text-anchor="middle" visibility="hidden" style="font-size: 13px;">N</text><text y="358" x="189.67741935483872" text-anchor="middle" visibility="hidden" style="font-size: 13px;">S</text><text y="358" x="194.19354838709677" text-anchor="middle" visibility="hidden" style="font-size: 13px;">Y</text><text y="358" x="198.70967741935485" text-anchor="middle" visibility="hidden" style="font-size: 13px;">G</text><text y="358" x="203.22580645161293" text-anchor="middle" visibility="hidden" style="font-size: 13px;">R</text><text y="358" x="207.74193548387095" text-anchor="middle" visibility="hidden" style="font-size: 13px;">R</text><text y="358" x="212.25806451612902" text-anchor="middle" visibility="hidden" style="font-size: 13px;">P</text><text y="358" x="216.7741935483871" text-anchor="middle" visibility="hidden" style="font-size: 13px;">I</text><text y="358" x="221.29032258064515" text-anchor="middle" visibility="hidden" style="font-size: 13px;">Q</text><text y="358" x="225.80645161290323" text-anchor="middle" visibility="hidden" style="font-size: 13px;">V</text><text y="358" x="230.3225806451613" text-anchor="middle" visibility="hidden" style="font-size: 13px;">M</text><text y="358" x="234.83870967741936" text-anchor="middle" visibility="hidden" style="font-size: 13px;">M</text><text y="358" x="239.3548387096774" text-anchor="middle" visibility="hidden" style="font-size: 13px;">M</text><text y="358" x="243.8709677419355" text-anchor="middle" visibility="hidden" style="font-size: 13px;">G</text><text y="358" x="248.38709677419357" text-anchor="middle" visibility="hidden" style="font-size: 13px;">S</text><text y="358" x="252.9032258064516" text-anchor="middle" visibility="hidden" style="font-size: 13px;">A</text><text y="358" x="257.4193548387097" text-anchor="middle" visibility="hidden" style="font-size: 13px;">R</text><text y="358" x="261.93548387096774" text-anchor="middle" visibility="hidden" style="font-size: 13px;">V</text><text y="358" x="266.4516129032258" text-anchor="middle" visibility="hidden" style="font-size: 13px;">A</text><text y="358" x="270.96774193548384" text-anchor="middle" visibility="hidden" style="font-size: 13px;">E</text><text y="358" x="275.48387096774195" text-anchor="middle" visibility="hidden" style="font-size: 13px;">L</text><text y="358" x="280" text-anchor="middle" visibility="hidden" style="font-size: 13px;">L</text><text y="358" x="284.51612903225805" text-anchor="middle" visibility="hidden" style="font-size: 13px;">L</text><text y="358" x="289.03225806451616" text-anchor="middle" visibility="hidden" style="font-size: 13px;">L</text><text y="358" x="293.5483870967742" text-anchor="middle" visibility="hidden" style="font-size: 13px;">H</text><text y="358" x="298.06451612903226" text-anchor="middle" visibility="hidden" style="font-size: 13px;">G</text><text y="358" x="302.5806451612903" text-anchor="middle" visibility="hidden" style="font-size: 13px;">A</text><text y="358" x="307.0967741935484" text-anchor="middle" visibility="hidden" style="font-size: 13px;">E</text><text y="358" x="311.61290322580646" text-anchor="middle" visibility="hidden" style="font-size: 13px;">P</text><text y="358" x="316.1290322580645" text-anchor="middle" visibility="hidden" style="font-size: 13px;">N</text><text y="358" x="320.64516129032256" text-anchor="middle" visibility="hidden" style="font-size: 13px;">C</text><text y="358" x="325.16129032258067" text-anchor="middle" visibility="hidden" style="font-size: 13px;">A</text><text y="358" x="329.6774193548387" text-anchor="middle" visibility="hidden" style="font-size: 13px;">D</text><text y="358" x="334.19354838709677" text-anchor="middle" visibility="hidden" style="font-size: 13px;">P</text><text y="358" x="338.7096774193549" text-anchor="middle" visibility="hidden" style="font-size: 13px;">A</text><text y="358" x="343.22580645161287" text-anchor="middle" visibility="hidden" style="font-size: 13px;">T</text><text y="358" x="347.741935483871" text-anchor="middle" visibility="hidden" style="font-size: 13px;">L</text><text y="358" x="352.258064516129" text-anchor="middle" visibility="hidden" style="font-size: 13px;">T</text><text y="358" x="356.7741935483871" text-anchor="middle" visibility="hidden" style="font-size: 13px;">R</text><text y="358" x="361.2903225806451" text-anchor="middle" visibility="hidden" style="font-size: 13px;">P</text><text y="358" x="365.80645161290323" text-anchor="middle" visibility="hidden" style="font-size: 13px;">V</text><text y="358" x="370.3225806451613" text-anchor="middle" visibility="hidden" style="font-size: 13px;">H</text><text y="358" x="374.8387096774194" text-anchor="middle" visibility="hidden" style="font-size: 13px;">D</text><text y="358" x="379.35483870967744" text-anchor="middle" visibility="hidden" style="font-size: 13px;">A</text><text y="358" x="383.87096774193543" text-anchor="middle" visibility="hidden" style="font-size: 13px;">A</text><text y="358" x="388.38709677419354" text-anchor="middle" visibility="hidden" style="font-size: 13px;">R</text><text y="358" x="392.9032258064516" text-anchor="middle" visibility="hidden" style="font-size: 13px;">E</text><text y="358" x="397.4193548387097" text-anchor="middle" visibility="hidden" style="font-size: 13px;">G</text><text y="358" x="401.93548387096774" text-anchor="middle" visibility="hidden" style="font-size: 13px;">F</text><text y="358" x="406.45161290322585" text-anchor="middle" visibility="hidden" style="font-size: 13px;">L</text><text y="358" x="410.96774193548384" text-anchor="middle" visibility="hidden" style="font-size: 13px;">D</text><text y="358" x="415.4838709677419" text-anchor="middle" visibility="hidden" style="font-size: 13px;">T</text><text y="358" x="420" text-anchor="middle" visibility="hidden" style="font-size: 13px;">L</text><text y="358" x="424.51612903225805" text-anchor="middle" visibility="hidden" style="font-size: 13px;">V</text><text y="358" x="429.03225806451616" text-anchor="middle" visibility="hidden" style="font-size: 13px;">V</text><text y="358" x="433.5483870967742" text-anchor="middle" visibility="hidden" style="font-size: 13px;">L</text><text y="358" x="438.0645161290323" text-anchor="middle" visibility="hidden" style="font-size: 13px;">H</text><text y="358" x="442.5806451612903" text-anchor="middle" visibility="hidden" style="font-size: 13px;">R</text><text y="358" x="447.09677419354836" text-anchor="middle" visibility="hidden" style="font-size: 13px;">A</text><text y="358" x="451.61290322580646" text-anchor="middle" visibility="hidden" style="font-size: 13px;">G</text><text y="358" x="456.1290322580645" text-anchor="middle" visibility="hidden" style="font-size: 13px;">A</text><text y="358" x="460.6451612903226" text-anchor="middle" visibility="hidden" style="font-size: 13px;">R</text><text y="358" x="465.16129032258067" text-anchor="middle" visibility="hidden" style="font-size: 13px;">L</text><text y="358" x="469.6774193548387" text-anchor="middle" visibility="hidden" style="font-size: 13px;">D</text><text y="358" x="474.19354838709677" text-anchor="middle" visibility="hidden" style="font-size: 13px;">V</text><text y="358" x="478.7096774193548" text-anchor="middle" visibility="hidden" style="font-size: 13px;">R</text><text y="358" x="483.22580645161287" text-anchor="middle" visibility="hidden" style="font-size: 13px;">D</text><text y="358" x="487.741935483871" text-anchor="middle" visibility="hidden" style="font-size: 13px;">A</text><text y="358" x="492.258064516129" text-anchor="middle" visibility="hidden" style="font-size: 13px;">W</text><text y="358" x="496.77419354838713" text-anchor="middle" visibility="hidden" style="font-size: 13px;">G</text><text y="358" x="501.2903225806452" text-anchor="middle" visibility="hidden" style="font-size: 13px;">R</text><text y="358" x="505.8064516129032" text-anchor="middle" visibility="hidden" style="font-size: 13px;">L</text><text y="358" x="510.3225806451613" text-anchor="middle" visibility="hidden" style="font-size: 13px;">P</text><text y="358" x="514.8387096774194" text-anchor="middle" visibility="hidden" style="font-size: 13px;">V</text><text y="358" x="519.3548387096774" text-anchor="middle" visibility="hidden" style="font-size: 13px;">D</text><text y="358" x="523.8709677419355" text-anchor="middle" visibility="hidden" style="font-size: 13px;">L</text><text y="358" x="528.3870967741935" text-anchor="middle" visibility="hidden" style="font-size: 13px;">A</text><text y="358" x="532.9032258064516" text-anchor="middle" visibility="hidden" style="font-size: 13px;">E</text><text y="358" x="537.4193548387096" text-anchor="middle" visibility="hidden" style="font-size: 13px;">E</text><text y="358" x="541.9354838709677" text-anchor="middle" visibility="hidden" style="font-size: 13px;">L</text><text y="358" x="546.4516129032259" text-anchor="middle" visibility="hidden" style="font-size: 13px;">G</text><text y="358" x="550.9677419354839" text-anchor="middle" visibility="hidden" style="font-size: 13px;">H</text><text y="358" x="555.483870967742" text-anchor="middle" visibility="hidden" style="font-size: 13px;">R</text><text y="358" x="560" text-anchor="middle" visibility="hidden" style="font-size: 13px;">D</text><text y="358" x="564.516129032258" text-anchor="middle" visibility="hidden" style="font-size: 13px;">V</text><text y="358" x="569.0322580645161" text-anchor="middle" visibility="hidden" style="font-size: 13px;">A</text><text y="358" x="573.5483870967741" text-anchor="middle" visibility="hidden" style="font-size: 13px;">R</text><text y="358" x="578.0645161290323" text-anchor="middle" visibility="hidden" style="font-size: 13px;">Y</text><text y="358" x="582.5806451612904" text-anchor="middle" visibility="hidden" style="font-size: 13px;">L</text><text y="358" x="587.0967741935484" text-anchor="middle" visibility="hidden" style="font-size: 13px;">R</text><text y="358" x="591.6129032258065" text-anchor="middle" visibility="hidden" style="font-size: 13px;">A</text><text y="358" x="596.1290322580645" text-anchor="middle" visibility="hidden" style="font-size: 13px;">A</text><text y="358" x="600.6451612903226" text-anchor="middle" visibility="hidden" style="font-size: 13px;">A</text><text y="358" x="605.1612903225806" text-anchor="middle" visibility="hidden" style="font-size: 13px;">G</text><text y="358" x="609.6774193548387" text-anchor="middle" visibility="hidden" style="font-size: 13px;">G</text><text y="358" x="614.1935483870968" text-anchor="middle" visibility="hidden" style="font-size: 13px;">T</text><text y="358" x="618.7096774193549" text-anchor="middle" visibility="hidden" style="font-size: 13px;">R</text><text y="358" x="623.2258064516129" text-anchor="middle" visibility="hidden" style="font-size: 13px;">G</text><text y="358" x="627.741935483871" text-anchor="middle" visibility="hidden" style="font-size: 13px;">S</text><text y="358" x="632.258064516129" text-anchor="middle" visibility="hidden" style="font-size: 13px;">N</text><text y="358" x="636.7741935483871" text-anchor="middle" visibility="hidden" style="font-size: 13px;">H</text><text y="358" x="641.2903225806451" text-anchor="middle" visibility="hidden" style="font-size: 13px;">A</text><text y="358" x="645.8064516129033" text-anchor="middle" visibility="hidden" style="font-size: 13px;">R</text><text y="358" x="650.3225806451613" text-anchor="middle" visibility="hidden" style="font-size: 13px;">I</text><text y="358" x="654.8387096774193" text-anchor="middle" visibility="hidden" style="font-size: 13px;">D</text><text y="358" x="659.3548387096774" text-anchor="middle" visibility="hidden" style="font-size: 13px;">A</text><text y="358" x="663.8709677419355" text-anchor="middle" visibility="hidden" style="font-size: 13px;">A</text><text y="358" x="668.3870967741935" text-anchor="middle" visibility="hidden" style="font-size: 13px;">E</text><text y="358" x="672.9032258064516" text-anchor="middle" visibility="hidden" style="font-size: 13px;">G</text><text y="358" x="677.4193548387098" text-anchor="middle" visibility="hidden" style="font-size: 13px;">P</text><text y="358" x="681.9354838709678" text-anchor="middle" visibility="hidden" style="font-size: 13px;">S</text><text y="358" x="686.4516129032257" text-anchor="middle" visibility="hidden" style="font-size: 13px;">D</text><text y="358" x="690.9677419354839" text-anchor="middle" visibility="hidden" style="font-size: 13px;">I</text><text y="358" x="695.483870967742" text-anchor="middle" visibility="hidden" style="font-size: 13px;">P</text><text y="358" x="700" text-anchor="middle" visibility="hidden" style="font-size: 13px;">D</text></g></g></svg><g class="xAxis" transform="translate(0,360)" fill="none" font-size="10" font-family="sans-serif" text-anchor="middle"><path class="domain" stroke="#000" d="M0.5,6V0.5H700.5V6"></path><g class="tick" opacity="1" transform="translate(86.30645161290322,0)"><line stroke="#000" y2="6"></line><text fill="#000" y="9" dy="0.71em">20</text></g><g class="tick" opacity="1" transform="translate(176.6290322580645,0)"><line stroke="#000" y2="6"></line><text fill="#000" y="9" dy="0.71em">40</text></g><g class="tick" opacity="1" transform="translate(266.9516129032258,0)"><line stroke="#000" y2="6"></line><text fill="#000" y="9" dy="0.71em">60</text></g><g class="tick" opacity="1" transform="translate(357.2741935483871,0)"><line stroke="#000" y2="6"></line><text fill="#000" y="9" dy="0.71em">80</text></g><g class="tick" opacity="1" transform="translate(447.59677419354836,0)"><line stroke="#000" y2="6"></line><text fill="#000" y="9" dy="0.71em">100</text></g><g class="tick" opacity="1" transform="translate(537.9193548387096,0)"><line stroke="#000" y2="6"></line><text fill="#000" y="9" dy="0.71em">120</text></g><g class="tick" opacity="1" transform="translate(628.241935483871,0)"><line stroke="#000" y2="6"></line><text fill="#000" y="9" dy="0.71em">140</text></g></g><text class="x label" text-anchor="end" x="700" y="390" style="font-size: 13px; font-family: Arial;">Residue number</text><g class="yAxis" fill="none" font-size="10" font-family="sans-serif" text-anchor="end"><path class="domain" stroke="#000" d="M-6,360.5H0.5V0.5H-6"></path><g class="tick" opacity="1" transform="translate(0,327.77272727272725)"><line stroke="#000" x2="-6"></line><text fill="#000" x="-9" dy="0.32em">0</text></g><g class="tick" opacity="1" transform="translate(0,290.58264462809916)"><line stroke="#000" x2="-6"></line><text fill="#000" x="-9" dy="0.32em">0.5</text></g><g class="tick" opacity="1" transform="translate(0,253.3925619834711)"><line stroke="#000" x2="-6"></line><text fill="#000" x="-9" dy="0.32em">1</text></g><g class="tick" opacity="1" transform="translate(0,216.202479338843)"><line stroke="#000" x2="-6"></line><text fill="#000" x="-9" dy="0.32em">1.5</text></g><g class="tick" opacity="1" transform="translate(0,179.0123966942149)"><line stroke="#000" x2="-6"></line><text fill="#000" x="-9" dy="0.32em">2</text></g><g class="tick" opacity="1" transform="translate(0,141.82231404958682)"><line stroke="#000" x2="-6"></line><text fill="#000" x="-9" dy="0.32em">2.5</text></g><g class="tick" opacity="1" transform="translate(0,104.63223140495873)"><line stroke="#000" x2="-6"></line><text fill="#000" x="-9" dy="0.32em">3</text></g><g class="tick" opacity="1" transform="translate(0,67.44214876033061)"><line stroke="#000" x2="-6"></line><text fill="#000" x="-9" dy="0.32em">3.5</text></g><g class="tick" opacity="1" transform="translate(0,30.25206611570252)"><line stroke="#000" x2="-6"></line><text fill="#000" x="-9" dy="0.32em">4</text></g></g><text class="y label" text-anchor="middle" y="-50" x="-180" dy="0.8em" transform="rotate(-90)" style="font-size: 13px; font-family: Arial;">Total number of references</text><g class="axisRed" fill="none" font-size="10" font-family="sans-serif" text-anchor="start" visibility="hidden" transform="translate(700, 0)"><path class="domain" stroke="#000" d="M6,360.5H0.5V0.5H6"></path><g class="tick" opacity="1" transform="translate(0,327.77272727272725)"><line stroke="#000" x2="6"></line><text fill="#000" x="9" dy="0.32em">0</text></g><g class="tick" opacity="1" transform="translate(0,285.2697756788666)"><line stroke="#000" x2="6"></line><text fill="#000" x="9" dy="0.32em">1</text></g><g class="tick" opacity="1" transform="translate(0,242.7668240850059)"><line stroke="#000" x2="6"></line><text fill="#000" x="9" dy="0.32em">2</text></g><g class="tick" opacity="1" transform="translate(0,200.26387249114524)"><line stroke="#000" x2="6"></line><text fill="#000" x="9" dy="0.32em">3</text></g><g class="tick" opacity="1" transform="translate(0,157.76092089728456)"><line stroke="#000" x2="6"></line><text fill="#000" x="9" dy="0.32em">4</text></g><g class="tick" opacity="1" transform="translate(0,115.25796930342389)"><line stroke="#000" x2="6"></line><text fill="#000" x="9" dy="0.32em">5</text></g><g class="tick" opacity="1" transform="translate(0,72.75501770956322)"><line stroke="#000" x2="6"></line><text fill="#000" x="9" dy="0.32em">6</text></g><g class="tick" opacity="1" transform="translate(0,30.25206611570252)"><line stroke="#000" x2="6"></line><text fill="#000" x="9" dy="0.32em">7</text></g><text text-anchor="start" dx="5.2em" dy="-2.6em" transform="rotate(90)" visibility="hidden" style="font-size: 12px; font-family: Arial; fill: #d7301f;">Number of tumor samples</text></g><g class="axisPurple" fill="none" font-size="10" font-family="sans-serif" text-anchor="start" visibility="hidden"><path class="domain" stroke="#000" d="M6,360.5H0.5V0.5H6"></path><g class="tick" opacity="1" transform="translate(0,357.82531930879037)"><line stroke="#000" x2="6"></line><text fill="#000" x="9" dy="0.32em"></text></g><g class="tick" opacity="1" transform="translate(0,327.77272727272725)"><line stroke="#000" x2="6"></line><text fill="#000" x="9" dy="0.32em">0</text></g><g class="tick" opacity="1" transform="translate(0,297.72013523666413)"><line stroke="#000" x2="6"></line><text fill="#000" x="9" dy="0.32em">0.002</text></g><g class="tick" opacity="1" transform="translate(0,267.667543200601)"><line stroke="#000" x2="6"></line><text fill="#000" x="9" dy="0.32em">0.004</text></g><g class="tick" opacity="1" transform="translate(0,237.6149511645379)"><line stroke="#000" x2="6"></line><text fill="#000" x="9" dy="0.32em">0.006</text></g><g class="tick" opacity="1" transform="translate(0,207.56235912847484)"><line stroke="#000" x2="6"></line><text fill="#000" x="9" dy="0.32em">0.008</text></g><g class="tick" opacity="1" transform="translate(0,177.5097670924117)"><line stroke="#000" x2="6"></line><text fill="#000" x="9" dy="0.32em">0.01</text></g><g class="tick" opacity="1" transform="translate(0,147.4571750563486)"><line stroke="#000" x2="6"></line><text fill="#000" x="9" dy="0.32em">0.012</text></g><g class="tick" opacity="1" transform="translate(0,117.40458302028549)"><line stroke="#000" x2="6"></line><text fill="#000" x="9" dy="0.32em">0.014</text></g><g class="tick" opacity="1" transform="translate(0,87.35199098422237)"><line stroke="#000" x2="6"></line><text fill="#000" x="9" dy="0.32em">0.016</text></g><g class="tick" opacity="1" transform="translate(0,57.29939894815931)"><line stroke="#000" x2="6"></line><text fill="#000" x="9" dy="0.32em">0.018</text></g><g class="tick" opacity="1" transform="translate(0,27.24680691209619)"><line stroke="#000" x2="6"></line><text fill="#000" x="9" dy="0.32em">0.02</text></g><text text-anchor="start" x="10" y="10" visibility="hidden" style="font-size: 12px; font-family: Arial; fill: #807dba;">Minor Allele Frequency (MAF) %</text></g><circle cx="636" cy="15" r="10" class="compassNav" style="fill: #ffffff; stroke: #666666; stroke-width: 1px;"></circle><path d="M440.935 12.574l3.966 82.766C399.416 41.904 331.674 8 256 8 134.813 8 33.933 94.924 12.296 209.824 10.908 217.193 16.604 224 24.103 224h49.084c5.57 0 10.377-3.842 11.676-9.259C103.407 137.408 172.931 80 256 80c60.893 0 114.512 30.856 146.104 77.801l-101.53-4.865c-6.845-.328-12.574 5.133-12.574 11.986v47.411c0 6.627 5.373 12 12 12h200.333c6.627 0 12-5.373 12-12V12c0-6.627-5.373-12-12-12h-47.411c-6.853 0-12.315 5.729-11.987 12.574zM256 432c-60.895 0-114.517-30.858-146.109-77.805l101.868 4.871c6.845.327 12.573-5.134 12.573-11.986v-47.412c0-6.627-5.373-12-12-12H12c-6.627 0-12 5.373-12 12V500c0 6.627 5.373 12 12 12h47.385c6.863 0 12.328-5.745 11.985-12.599l-4.129-82.575C112.725 470.166 180.405 504 256 504c121.187 0 222.067-86.924 243.704-201.824 1.388-7.369-4.308-14.176-11.807-14.176h-49.084c-5.57 0-10.377 3.842-11.676 9.259C408.593 374.592 339.069 432 256 432z" class="compassNav" transform="translate(631, 10) scale(0.02)" style="fill: #666666; stroke: #666666; stroke-width: 1px;"></path><circle cx="658" cy="15" r="10" class="compassNav" style="fill: #ffffff; stroke: #666666; stroke-width: 1px;"></circle><line class="compassNav" stroke-width="2" stroke="#666666" x1="654" y1="15" x2="662" y2="15"></line><line class="compassNav" stroke-width="2" stroke="#666666" x1="658" y1="11" x2="658" y2="19"></line><circle cx="614" cy="15" r="10" class="compassNav" style="fill: #ffffff; stroke: #666666; stroke-width: 1px;"></circle><line class="compassNav" stroke-width="2" stroke="#666666" x1="610" y1="15" x2="618" y2="15"></line><path d="M582 14 l20 -12 a100,40 0 0,0 0,24z" class="compassNav" style="fill: #ffffff; stroke: #666666; stroke-width: 1px;"></path><path d="M690 14 l-20 -12 a100,40 0 0,1 0,24z" class="compassNav" style="fill: #ffffff; stroke: #666666; stroke-width: 1px;"></path><path d="M216 0h80c13.3 0 24 10.7 24 24v168h87.7c17.8 0 26.7 21.5 14.1 34.1L269.7 378.3c-7.5 7.5-19.8 7.5-27.3 0L90.1 226.1c-12.6-12.6-3.7-34.1 14.1-34.1H192V24c0-13.3 10.7-24 24-24zm296 376v112c0 13.3-10.7 24-24 24H24c-13.3 0-24-10.7-24-24V376c0-13.3 10.7-24 24-24h146.7l49 49c20.1 20.1 52.5 20.1 72.6 0l49-49H488c13.3 0 24 10.7 24 24zm-124 88c0-11-9-20-20-20s-20 9-20 20 9 20 20 20 20-9 20-20zm64 0c0-11-9-20-20-20s-20 9-20 20 9 20 20 20 20-9 20-20z" class="compassNav" transform="translate(552,0) scale(0.05)" style="fill: #336699; stroke: #336699; stroke-width: 1px; cursor: pointer;"></path></g></svg>