<svg width="800" height="400" style="background-color: white;"><g transform="translate(50,0)"><svg width="700" height="360"><g style="-webkit-tap-highlight-color: rgba(0, 0, 0, 0);"><rect width="700" height="360" style="fill: #ffffff;"></rect><g id="lines"><line class="line" stroke-width="1" stroke="#d7301f" x1="-248.0701754385965" y1="333" x2="-248.0701754385965" y2="360" visibility="hidden" style="stroke-dasharray: 3px, 3px;"></line></g><g><rect x="-253.0701754385965" y="355" width="10" height="10" visibility="hidden" style="fill: #ffffff; stroke: #d7301f;"></rect></g><g id="lines"><line class="line" stroke-width="1" stroke="#6a51a3" x1="-248.0701754385965" y1="333" x2="-248.0701754385965" y2="327.27272727272725" visibility="hidden" style="stroke-dasharray: 3px, 3px;"></line></g><g><rect x="-253.0701754385965" y="322.27272727272725" width="10" height="10" visibility="hidden" style="fill: #ffffff; stroke: #6a51a3;"></rect></g><g id="lines"><line class="line" stroke-width="1" stroke="#666666" x1="194.03508771929822" y1="333" x2="194.03508771929822" y2="323.6444265269099"></line><line class="line" stroke-width="1" stroke="#666666" x1="248.0701754385965" y1="333" x2="248.0701754385965" y2="290.9897198145535"></line><line class="line" stroke-width="1" stroke="#666666" x1="267.719298245614" y1="333" x2="267.719298245614" y2="320.0161257810925"></line><line class="line" stroke-width="1" stroke="#666666" x1="331.57894736842104" y1="333" x2="331.57894736842104" y2="323.6444265269099"></line><line class="line" stroke-width="1" stroke="#666666" x1="380.70175438596493" y1="333" x2="380.70175438596493" y2="323.6444265269099"></line><line class="line" stroke-width="1" stroke="#666666" x1="466.66666666666663" y1="333" x2="466.66666666666663" y2="323.6444265269099"></line><line class="line" stroke-width="1" stroke="#666666" x1="599.2982456140351" y1="333" x2="599.2982456140351" y2="323.6444265269099"></line><line class="line" stroke-width="1" stroke="#666666" x1="601.7543859649123" y1="333" x2="601.7543859649123" y2="323.6444265269099"></line><line class="line" stroke-width="1" stroke="#666666" x1="604.2105263157895" y1="333" x2="604.2105263157895" y2="316.38782503527517"></line><line class="line" stroke-width="1" stroke="#666666" x1="621.4035087719299" y1="333" x2="621.4035087719299" y2="301.87462205200563"></line><line class="line" stroke-width="1" stroke="#666666" x1="636.140350877193" y1="333" x2="636.140350877193" y2="254.70671235637977"></line><line class="line" stroke-width="1" stroke="#666666" x1="650.8771929824561" y1="333" x2="650.8771929824561" y2="323.6444265269099"></line><line class="line" stroke-width="1" stroke="#666666" x1="655.7894736842105" y1="333" x2="655.7894736842105" y2="29.75206611570252"></line><line class="line" stroke-width="1" stroke="#666666" x1="687.719298245614" y1="333" x2="687.719298245614" y2="280.1048175771014"></line><line class="line" stroke-width="1" stroke="#666666" x1="695.0877192982456" y1="333" x2="695.0877192982456" y2="316.38782503527517"></line></g><g id="circles"><circle r="4" cx="194.03508771929822" cy="323.6444265269099" style="fill: #4393c3; stroke: #666666; stroke-width: 1px;"></circle><circle r="4" cx="248.0701754385965" cy="290.9897198145535" style="fill: #bf812d; stroke: #666666; stroke-width: 1px;"></circle><circle r="4" cx="267.719298245614" cy="320.0161257810925" style="fill: #bf812d; stroke: #666666; stroke-width: 1px;"></circle><circle r="4" cx="331.57894736842104" cy="323.6444265269099" style="fill: #666666; stroke: #666666; stroke-width: 1px;"></circle><circle r="4" cx="380.70175438596493" cy="323.6444265269099" style="fill: #4393c3; stroke: #666666; stroke-width: 1px;"></circle><circle r="4" cx="466.66666666666663" cy="323.6444265269099" style="fill: #666666; stroke: #666666; stroke-width: 1px;"></circle><circle r="4" cx="599.2982456140351" cy="323.6444265269099" style="fill: #4393c3; stroke: #666666; stroke-width: 1px;"></circle><circle r="4" cx="601.7543859649123" cy="323.6444265269099" style="fill: #4393c3; stroke: #666666; stroke-width: 1px;"></circle><circle r="4" cx="604.2105263157895" cy="316.38782503527517" style="fill: #4393c3; stroke: #666666; stroke-width: 1px;"></circle><circle r="4" cx="621.4035087719299" cy="301.87462205200563" style="fill: #4393c3; stroke: #666666; stroke-width: 1px;"></circle><circle r="4" cx="636.140350877193" cy="254.70671235637977" style="fill: #4393c3; stroke: #666666; stroke-width: 1px;"></circle><circle r="4" cx="650.8771929824561" cy="323.6444265269099" style="fill: #bf812d; stroke: #666666; stroke-width: 1px;"></circle><circle r="4" cx="655.7894736842105" cy="29.75206611570252" style="fill: #4393c3; stroke: #666666; stroke-width: 1px;"></circle><circle r="4" cx="687.719298245614" cy="280.1048175771014" style="fill: #4393c3; stroke: #666666; stroke-width: 1px;"></circle><circle r="4" cx="695.0877192982456" cy="316.38782503527517" style="fill: #4393c3; stroke: #666666; stroke-width: 1px;"></circle></g><g><rect x="0" y="333" width="700" height="12" style="fill: #ffffff; stroke-width: 1px; stroke: #666666;"></rect><rect x="12.280701754385964" y="333" width="685.2631578947369" height="12" style="fill: #aec7e8; stroke-width: 1px; stroke: #666666;"></rect><rect x="508.42105263157896" y="333" width="49.12280701754389" height="12" style="fill: #ffbb78; stroke-width: 1px; stroke: #666666;"></rect></g><g><a target="_blank" xlink:href="http://pfam.xfam.org/family/"><text y="343" x="350" text-anchor="middle" style="color: rgb(102, 102, 102); font-weight: normal; font-size: 12px; font-family: Arial; cursor: pointer;"></text></a><a target="_blank" xlink:href="http://pfam.xfam.org/family/TRAP_alpha"><text y="343" x="354.9122807017544" text-anchor="middle" style="color: rgb(102, 102, 102); font-weight: normal; font-size: 12px; font-family: Arial; cursor: pointer;">TRAP_alpha</text></a><a target="_blank" xlink:href="http://pfam.xfam.org/family/TM"><text y="343" x="532.9824561403509" text-anchor="middle" style="color: rgb(102, 102, 102); font-weight: normal; font-size: 12px; font-family: Arial; cursor: pointer;">TM</text></a></g><g><text y="358" x="0" text-anchor="middle" visibility="hidden" style="font-size: 13px;">M</text><text y="358" x="2.456140350877193" text-anchor="middle" visibility="hidden" style="font-size: 13px;">R</text><text y="358" x="4.912280701754386" text-anchor="middle" visibility="hidden" style="font-size: 13px;">L</text><text y="358" x="7.368421052631579" text-anchor="middle" visibility="hidden" style="font-size: 13px;">L</text><text y="358" x="9.824561403508772" text-anchor="middle" visibility="hidden" style="font-size: 13px;">P</text><text y="358" x="12.280701754385964" text-anchor="middle" visibility="hidden" style="font-size: 13px;">R</text><text y="358" x="14.736842105263158" text-anchor="middle" visibility="hidden" style="font-size: 13px;">L</text><text y="358" x="17.19298245614035" text-anchor="middle" visibility="hidden" style="font-size: 13px;">L</text><text y="358" x="19.649122807017545" text-anchor="middle" visibility="hidden" style="font-size: 13px;">L</text><text y="358" x="22.105263157894736" text-anchor="middle" visibility="hidden" style="font-size: 13px;">L</text><text y="358" x="24.561403508771928" text-anchor="middle" visibility="hidden" style="font-size: 13px;">L</text><text y="358" x="27.017543859649123" text-anchor="middle" visibility="hidden" style="font-size: 13px;">L</text><text y="358" x="29.473684210526315" text-anchor="middle" visibility="hidden" style="font-size: 13px;">L</text><text y="358" x="31.92982456140351" text-anchor="middle" visibility="hidden" style="font-size: 13px;">V</text><text y="358" x="34.3859649122807" text-anchor="middle" visibility="hidden" style="font-size: 13px;">F</text><text y="358" x="36.84210526315789" text-anchor="middle" visibility="hidden" style="font-size: 13px;">P</text><text y="358" x="39.29824561403509" text-anchor="middle" visibility="hidden" style="font-size: 13px;">A</text><text y="358" x="41.75438596491228" text-anchor="middle" visibility="hidden" style="font-size: 13px;">T</text><text y="358" x="44.21052631578947" text-anchor="middle" visibility="hidden" style="font-size: 13px;">V</text><text y="358" x="46.666666666666664" text-anchor="middle" visibility="hidden" style="font-size: 13px;">L</text><text y="358" x="49.122807017543856" text-anchor="middle" visibility="hidden" style="font-size: 13px;">F</text><text y="358" x="51.57894736842105" text-anchor="middle" visibility="hidden" style="font-size: 13px;">R</text><text y="358" x="54.03508771929825" text-anchor="middle" visibility="hidden" style="font-size: 13px;">G</text><text y="358" x="56.49122807017544" text-anchor="middle" visibility="hidden" style="font-size: 13px;">G</text><text y="358" x="58.94736842105263" text-anchor="middle" visibility="hidden" style="font-size: 13px;">P</text><text y="358" x="61.40350877192982" text-anchor="middle" visibility="hidden" style="font-size: 13px;">R</text><text y="358" x="63.85964912280702" text-anchor="middle" visibility="hidden" style="font-size: 13px;">G</text><text y="358" x="66.31578947368422" text-anchor="middle" visibility="hidden" style="font-size: 13px;">L</text><text y="358" x="68.7719298245614" text-anchor="middle" visibility="hidden" style="font-size: 13px;">L</text><text y="358" x="71.22807017543859" text-anchor="middle" visibility="hidden" style="font-size: 13px;">A</text><text y="358" x="73.68421052631578" text-anchor="middle" visibility="hidden" style="font-size: 13px;">V</text><text y="358" x="76.14035087719299" text-anchor="middle" visibility="hidden" style="font-size: 13px;">A</text><text y="358" x="78.59649122807018" text-anchor="middle" visibility="hidden" style="font-size: 13px;">Q</text><text y="358" x="81.05263157894737" text-anchor="middle" visibility="hidden" style="font-size: 13px;">D</text><text y="358" x="83.50877192982456" text-anchor="middle" visibility="hidden" style="font-size: 13px;">L</text><text y="358" x="85.96491228070175" text-anchor="middle" visibility="hidden" style="font-size: 13px;">T</text><text y="358" x="88.42105263157895" text-anchor="middle" visibility="hidden" style="font-size: 13px;">E</text><text y="358" x="90.87719298245614" text-anchor="middle" visibility="hidden" style="font-size: 13px;">D</text><text y="358" x="93.33333333333333" text-anchor="middle" visibility="hidden" style="font-size: 13px;">E</text><text y="358" x="95.78947368421053" text-anchor="middle" visibility="hidden" style="font-size: 13px;">E</text><text y="358" x="98.24561403508771" text-anchor="middle" visibility="hidden" style="font-size: 13px;">T</text><text y="358" x="100.70175438596492" text-anchor="middle" visibility="hidden" style="font-size: 13px;">V</text><text y="358" x="103.1578947368421" text-anchor="middle" visibility="hidden" style="font-size: 13px;">E</text><text y="358" x="105.6140350877193" text-anchor="middle" visibility="hidden" style="font-size: 13px;">D</text><text y="358" x="108.0701754385965" text-anchor="middle" visibility="hidden" style="font-size: 13px;">S</text><text y="358" x="110.52631578947368" text-anchor="middle" visibility="hidden" style="font-size: 13px;">I</text><text y="358" x="112.98245614035088" text-anchor="middle" visibility="hidden" style="font-size: 13px;">I</text><text y="358" x="115.43859649122808" text-anchor="middle" visibility="hidden" style="font-size: 13px;">E</text><text y="358" x="117.89473684210526" text-anchor="middle" visibility="hidden" style="font-size: 13px;">D</text><text y="358" x="120.35087719298247" text-anchor="middle" visibility="hidden" style="font-size: 13px;">E</text><text y="358" x="122.80701754385964" text-anchor="middle" visibility="hidden" style="font-size: 13px;">D</text><text y="358" x="125.26315789473685" text-anchor="middle" visibility="hidden" style="font-size: 13px;">D</text><text y="358" x="127.71929824561404" text-anchor="middle" visibility="hidden" style="font-size: 13px;">E</text><text y="358" x="130.17543859649123" text-anchor="middle" visibility="hidden" style="font-size: 13px;">A</text><text y="358" x="132.63157894736844" text-anchor="middle" visibility="hidden" style="font-size: 13px;">E</text><text y="358" x="135.08771929824562" text-anchor="middle" visibility="hidden" style="font-size: 13px;">V</text><text y="358" x="137.5438596491228" text-anchor="middle" visibility="hidden" style="font-size: 13px;">E</text><text y="358" x="140" text-anchor="middle" visibility="hidden" style="font-size: 13px;">E</text><text y="358" x="142.45614035087718" text-anchor="middle" visibility="hidden" style="font-size: 13px;">D</text><text y="358" x="144.91228070175438" text-anchor="middle" visibility="hidden" style="font-size: 13px;">E</text><text y="358" x="147.36842105263156" text-anchor="middle" visibility="hidden" style="font-size: 13px;">P</text><text y="358" x="149.82456140350877" text-anchor="middle" visibility="hidden" style="font-size: 13px;">T</text><text y="358" x="152.28070175438597" text-anchor="middle" visibility="hidden" style="font-size: 13px;">D</text><text y="358" x="154.73684210526315" text-anchor="middle" visibility="hidden" style="font-size: 13px;">L</text><text y="358" x="157.19298245614036" text-anchor="middle" visibility="hidden" style="font-size: 13px;">V</text><text y="358" x="159.64912280701753" text-anchor="middle" visibility="hidden" style="font-size: 13px;">E</text><text y="358" x="162.10526315789474" text-anchor="middle" visibility="hidden" style="font-size: 13px;">D</text><text y="358" x="164.56140350877195" text-anchor="middle" visibility="hidden" style="font-size: 13px;">K</text><text y="358" x="167.01754385964912" text-anchor="middle" visibility="hidden" style="font-size: 13px;">E</text><text y="358" x="169.47368421052633" text-anchor="middle" visibility="hidden" style="font-size: 13px;">E</text><text y="358" x="171.9298245614035" text-anchor="middle" visibility="hidden" style="font-size: 13px;">E</text><text y="358" x="174.3859649122807" text-anchor="middle" visibility="hidden" style="font-size: 13px;">D</text><text y="358" x="176.8421052631579" text-anchor="middle" visibility="hidden" style="font-size: 13px;">V</text><text y="358" x="179.2982456140351" text-anchor="middle" visibility="hidden" style="font-size: 13px;">S</text><text y="358" x="181.75438596491227" text-anchor="middle" visibility="hidden" style="font-size: 13px;">G</text><text y="358" x="184.21052631578945" text-anchor="middle" visibility="hidden" style="font-size: 13px;">E</text><text y="358" x="186.66666666666666" text-anchor="middle" visibility="hidden" style="font-size: 13px;">P</text><text y="358" x="189.12280701754386" text-anchor="middle" visibility="hidden" style="font-size: 13px;">E</text><text y="358" x="191.57894736842107" text-anchor="middle" visibility="hidden" style="font-size: 13px;">A</text><text y="358" x="194.03508771929822" text-anchor="middle" visibility="hidden" style="font-size: 13px;">S</text><text y="358" x="196.49122807017542" text-anchor="middle" visibility="hidden" style="font-size: 13px;">P</text><text y="358" x="198.94736842105263" text-anchor="middle" visibility="hidden" style="font-size: 13px;">S</text><text y="358" x="201.40350877192984" text-anchor="middle" visibility="hidden" style="font-size: 13px;">A</text><text y="358" x="203.85964912280704" text-anchor="middle" visibility="hidden" style="font-size: 13px;">D</text><text y="358" x="206.3157894736842" text-anchor="middle" visibility="hidden" style="font-size: 13px;">T</text><text y="358" x="208.7719298245614" text-anchor="middle" visibility="hidden" style="font-size: 13px;">T</text><text y="358" x="211.2280701754386" text-anchor="middle" visibility="hidden" style="font-size: 13px;">I</text><text y="358" x="213.68421052631578" text-anchor="middle" visibility="hidden" style="font-size: 13px;">L</text><text y="358" x="216.140350877193" text-anchor="middle" visibility="hidden" style="font-size: 13px;">F</text><text y="358" x="218.5964912280702" text-anchor="middle" visibility="hidden" style="font-size: 13px;">V</text><text y="358" x="221.05263157894737" text-anchor="middle" visibility="hidden" style="font-size: 13px;">K</text><text y="358" x="223.50877192982455" text-anchor="middle" visibility="hidden" style="font-size: 13px;">G</text><text y="358" x="225.96491228070175" text-anchor="middle" visibility="hidden" style="font-size: 13px;">E</text><text y="358" x="228.42105263157896" text-anchor="middle" visibility="hidden" style="font-size: 13px;">D</text><text y="358" x="230.87719298245617" text-anchor="middle" visibility="hidden" style="font-size: 13px;">F</text><text y="358" x="233.33333333333331" text-anchor="middle" visibility="hidden" style="font-size: 13px;">P</text><text y="358" x="235.78947368421052" text-anchor="middle" visibility="hidden" style="font-size: 13px;">A</text><text y="358" x="238.24561403508773" text-anchor="middle" visibility="hidden" style="font-size: 13px;">N</text><text y="358" x="240.70175438596493" text-anchor="middle" visibility="hidden" style="font-size: 13px;">N</text><text y="358" x="243.1578947368421" text-anchor="middle" visibility="hidden" style="font-size: 13px;">I</text><text y="358" x="245.6140350877193" text-anchor="middle" visibility="hidden" style="font-size: 13px;">V</text><text y="358" x="248.0701754385965" text-anchor="middle" visibility="hidden" style="font-size: 13px;">K</text><text y="358" x="250.5263157894737" text-anchor="middle" visibility="hidden" style="font-size: 13px;">F</text><text y="358" x="252.98245614035088" text-anchor="middle" visibility="hidden" style="font-size: 13px;">L</text><text y="358" x="255.43859649122808" text-anchor="middle" visibility="hidden" style="font-size: 13px;">V</text><text y="358" x="257.89473684210526" text-anchor="middle" visibility="hidden" style="font-size: 13px;">G</text><text y="358" x="260.35087719298247" text-anchor="middle" visibility="hidden" style="font-size: 13px;">F</text><text y="358" x="262.8070175438597" text-anchor="middle" visibility="hidden" style="font-size: 13px;">T</text><text y="358" x="265.2631578947369" text-anchor="middle" visibility="hidden" style="font-size: 13px;">N</text><text y="358" x="267.719298245614" text-anchor="middle" visibility="hidden" style="font-size: 13px;">K</text><text y="358" x="270.17543859649123" text-anchor="middle" visibility="hidden" style="font-size: 13px;">G</text><text y="358" x="272.63157894736844" text-anchor="middle" visibility="hidden" style="font-size: 13px;">T</text><text y="358" x="275.0877192982456" text-anchor="middle" visibility="hidden" style="font-size: 13px;">E</text><text y="358" x="277.5438596491228" text-anchor="middle" visibility="hidden" style="font-size: 13px;">D</text><text y="358" x="280" text-anchor="middle" visibility="hidden" style="font-size: 13px;">F</text><text y="358" x="282.45614035087715" text-anchor="middle" visibility="hidden" style="font-size: 13px;">I</text><text y="358" x="284.91228070175436" text-anchor="middle" visibility="hidden" style="font-size: 13px;">V</text><text y="358" x="287.36842105263156" text-anchor="middle" visibility="hidden" style="font-size: 13px;">E</text><text y="358" x="289.82456140350877" text-anchor="middle" visibility="hidden" style="font-size: 13px;">S</text><text y="358" x="292.280701754386" text-anchor="middle" visibility="hidden" style="font-size: 13px;">L</text><text y="358" x="294.7368421052631" text-anchor="middle" visibility="hidden" style="font-size: 13px;">D</text><text y="358" x="297.1929824561403" text-anchor="middle" visibility="hidden" style="font-size: 13px;">A</text><text y="358" x="299.64912280701753" text-anchor="middle" visibility="hidden" style="font-size: 13px;">S</text><text y="358" x="302.10526315789474" text-anchor="middle" visibility="hidden" style="font-size: 13px;">F</text><text y="358" x="304.56140350877195" text-anchor="middle" visibility="hidden" style="font-size: 13px;">R</text><text y="358" x="307.0175438596491" text-anchor="middle" visibility="hidden" style="font-size: 13px;">Y</text><text y="358" x="309.4736842105263" text-anchor="middle" visibility="hidden" style="font-size: 13px;">P</text><text y="358" x="311.9298245614035" text-anchor="middle" visibility="hidden" style="font-size: 13px;">Q</text><text y="358" x="314.3859649122807" text-anchor="middle" visibility="hidden" style="font-size: 13px;">D</text><text y="358" x="316.8421052631579" text-anchor="middle" visibility="hidden" style="font-size: 13px;">Y</text><text y="358" x="319.29824561403507" text-anchor="middle" visibility="hidden" style="font-size: 13px;">Q</text><text y="358" x="321.7543859649123" text-anchor="middle" visibility="hidden" style="font-size: 13px;">F</text><text y="358" x="324.2105263157895" text-anchor="middle" visibility="hidden" style="font-size: 13px;">Y</text><text y="358" x="326.6666666666667" text-anchor="middle" visibility="hidden" style="font-size: 13px;">I</text><text y="358" x="329.1228070175439" text-anchor="middle" visibility="hidden" style="font-size: 13px;">Q</text><text y="358" x="331.57894736842104" text-anchor="middle" visibility="hidden" style="font-size: 13px;">N</text><text y="358" x="334.03508771929825" text-anchor="middle" visibility="hidden" style="font-size: 13px;">F</text><text y="358" x="336.49122807017545" text-anchor="middle" visibility="hidden" style="font-size: 13px;">T</text><text y="358" x="338.94736842105266" text-anchor="middle" visibility="hidden" style="font-size: 13px;">A</text><text y="358" x="341.40350877192986" text-anchor="middle" visibility="hidden" style="font-size: 13px;">L</text><text y="358" x="343.859649122807" text-anchor="middle" visibility="hidden" style="font-size: 13px;">P</text><text y="358" x="346.3157894736842" text-anchor="middle" visibility="hidden" style="font-size: 13px;">L</text><text y="358" x="348.7719298245614" text-anchor="middle" visibility="hidden" style="font-size: 13px;">N</text><text y="358" x="351.2280701754386" text-anchor="middle" visibility="hidden" style="font-size: 13px;">T</text><text y="358" x="353.6842105263158" text-anchor="middle" visibility="hidden" style="font-size: 13px;">V</text><text y="358" x="356.140350877193" text-anchor="middle" visibility="hidden" style="font-size: 13px;">V</text><text y="358" x="358.5964912280702" text-anchor="middle" visibility="hidden" style="font-size: 13px;">P</text><text y="358" x="361.0526315789474" text-anchor="middle" visibility="hidden" style="font-size: 13px;">P</text><text y="358" x="363.50877192982455" text-anchor="middle" visibility="hidden" style="font-size: 13px;">Q</text><text y="358" x="365.96491228070175" text-anchor="middle" visibility="hidden" style="font-size: 13px;">R</text><text y="358" x="368.4210526315789" text-anchor="middle" visibility="hidden" style="font-size: 13px;">Q</text><text y="358" x="370.8771929824561" text-anchor="middle" visibility="hidden" style="font-size: 13px;">A</text><text y="358" x="373.3333333333333" text-anchor="middle" visibility="hidden" style="font-size: 13px;">T</text><text y="358" x="375.7894736842105" text-anchor="middle" visibility="hidden" style="font-size: 13px;">F</text><text y="358" x="378.2456140350877" text-anchor="middle" visibility="hidden" style="font-size: 13px;">E</text><text y="358" x="380.70175438596493" text-anchor="middle" visibility="hidden" style="font-size: 13px;">Y</text><text y="358" x="383.15789473684214" text-anchor="middle" visibility="hidden" style="font-size: 13px;">S</text><text y="358" x="385.61403508771934" text-anchor="middle" visibility="hidden" style="font-size: 13px;">F</text><text y="358" x="388.07017543859644" text-anchor="middle" visibility="hidden" style="font-size: 13px;">I</text><text y="358" x="390.52631578947364" text-anchor="middle" visibility="hidden" style="font-size: 13px;">P</text><text y="358" x="392.98245614035085" text-anchor="middle" visibility="hidden" style="font-size: 13px;">A</text><text y="358" x="395.43859649122805" text-anchor="middle" visibility="hidden" style="font-size: 13px;">E</text><text y="358" x="397.89473684210526" text-anchor="middle" visibility="hidden" style="font-size: 13px;">P</text><text y="358" x="400.35087719298247" text-anchor="middle" visibility="hidden" style="font-size: 13px;">M</text><text y="358" x="402.8070175438597" text-anchor="middle" visibility="hidden" style="font-size: 13px;">G</text><text y="358" x="405.2631578947369" text-anchor="middle" visibility="hidden" style="font-size: 13px;">G</text><text y="358" x="407.7192982456141" text-anchor="middle" visibility="hidden" style="font-size: 13px;">R</text><text y="358" x="410.17543859649123" text-anchor="middle" visibility="hidden" style="font-size: 13px;">P</text><text y="358" x="412.6315789473684" text-anchor="middle" visibility="hidden" style="font-size: 13px;">F</text><text y="358" x="415.0877192982456" text-anchor="middle" visibility="hidden" style="font-size: 13px;">G</text><text y="358" x="417.5438596491228" text-anchor="middle" visibility="hidden" style="font-size: 13px;">L</text><text y="358" x="420" text-anchor="middle" visibility="hidden" style="font-size: 13px;">V</text><text y="358" x="422.4561403508772" text-anchor="middle" visibility="hidden" style="font-size: 13px;">I</text><text y="358" x="424.9122807017544" text-anchor="middle" visibility="hidden" style="font-size: 13px;">N</text><text y="358" x="427.36842105263156" text-anchor="middle" visibility="hidden" style="font-size: 13px;">L</text><text y="358" x="429.82456140350877" text-anchor="middle" visibility="hidden" style="font-size: 13px;">N</text><text y="358" x="432.280701754386" text-anchor="middle" visibility="hidden" style="font-size: 13px;">Y</text><text y="358" x="434.7368421052632" text-anchor="middle" visibility="hidden" style="font-size: 13px;">K</text><text y="358" x="437.1929824561404" text-anchor="middle" visibility="hidden" style="font-size: 13px;">D</text><text y="358" x="439.64912280701753" text-anchor="middle" visibility="hidden" style="font-size: 13px;">L</text><text y="358" x="442.10526315789474" text-anchor="middle" visibility="hidden" style="font-size: 13px;">N</text><text y="358" x="444.5614035087719" text-anchor="middle" visibility="hidden" style="font-size: 13px;">G</text><text y="358" x="447.0175438596491" text-anchor="middle" visibility="hidden" style="font-size: 13px;">N</text><text y="358" x="449.4736842105263" text-anchor="middle" visibility="hidden" style="font-size: 13px;">V</text><text y="358" x="451.9298245614035" text-anchor="middle" visibility="hidden" style="font-size: 13px;">F</text><text y="358" x="454.3859649122807" text-anchor="middle" visibility="hidden" style="font-size: 13px;">Q</text><text y="358" x="456.8421052631579" text-anchor="middle" visibility="hidden" style="font-size: 13px;">D</text><text y="358" x="459.2982456140351" text-anchor="middle" visibility="hidden" style="font-size: 13px;">A</text><text y="358" x="461.75438596491233" text-anchor="middle" visibility="hidden" style="font-size: 13px;">V</text><text y="358" x="464.2105263157894" text-anchor="middle" visibility="hidden" style="font-size: 13px;">F</text><text y="358" x="466.66666666666663" text-anchor="middle" visibility="hidden" style="font-size: 13px;">N</text><text y="358" x="469.12280701754383" text-anchor="middle" visibility="hidden" style="font-size: 13px;">Q</text><text y="358" x="471.57894736842104" text-anchor="middle" visibility="hidden" style="font-size: 13px;">T</text><text y="358" x="474.03508771929825" text-anchor="middle" visibility="hidden" style="font-size: 13px;">V</text><text y="358" x="476.49122807017545" text-anchor="middle" visibility="hidden" style="font-size: 13px;">T</text><text y="358" x="478.94736842105266" text-anchor="middle" visibility="hidden" style="font-size: 13px;">V</text><text y="358" x="481.40350877192986" text-anchor="middle" visibility="hidden" style="font-size: 13px;">I</text><text y="358" x="483.85964912280707" text-anchor="middle" visibility="hidden" style="font-size: 13px;">E</text><text y="358" x="486.3157894736842" text-anchor="middle" visibility="hidden" style="font-size: 13px;">R</text><text y="358" x="488.77192982456137" text-anchor="middle" visibility="hidden" style="font-size: 13px;">E</text><text y="358" x="491.2280701754386" text-anchor="middle" visibility="hidden" style="font-size: 13px;">D</text><text y="358" x="493.6842105263158" text-anchor="middle" visibility="hidden" style="font-size: 13px;">G</text><text y="358" x="496.140350877193" text-anchor="middle" visibility="hidden" style="font-size: 13px;">L</text><text y="358" x="498.5964912280702" text-anchor="middle" visibility="hidden" style="font-size: 13px;">D</text><text y="358" x="501.0526315789474" text-anchor="middle" visibility="hidden" style="font-size: 13px;">G</text><text y="358" x="503.50877192982455" text-anchor="middle" visibility="hidden" style="font-size: 13px;">E</text><text y="358" x="505.96491228070175" text-anchor="middle" visibility="hidden" style="font-size: 13px;">T</text><text y="358" x="508.42105263157896" text-anchor="middle" visibility="hidden" style="font-size: 13px;">I</text><text y="358" x="510.87719298245617" text-anchor="middle" visibility="hidden" style="font-size: 13px;">F</text><text y="358" x="513.3333333333333" text-anchor="middle" visibility="hidden" style="font-size: 13px;">M</text><text y="358" x="515.7894736842105" text-anchor="middle" visibility="hidden" style="font-size: 13px;">Y</text><text y="358" x="518.2456140350877" text-anchor="middle" visibility="hidden" style="font-size: 13px;">M</text><text y="358" x="520.7017543859649" text-anchor="middle" visibility="hidden" style="font-size: 13px;">F</text><text y="358" x="523.1578947368421" text-anchor="middle" visibility="hidden" style="font-size: 13px;">L</text><text y="358" x="525.6140350877193" text-anchor="middle" visibility="hidden" style="font-size: 13px;">A</text><text y="358" x="528.0701754385965" text-anchor="middle" visibility="hidden" style="font-size: 13px;">G</text><text y="358" x="530.5263157894738" text-anchor="middle" visibility="hidden" style="font-size: 13px;">L</text><text y="358" x="532.9824561403509" text-anchor="middle" visibility="hidden" style="font-size: 13px;">G</text><text y="358" x="535.438596491228" text-anchor="middle" visibility="hidden" style="font-size: 13px;">L</text><text y="358" x="537.8947368421052" text-anchor="middle" visibility="hidden" style="font-size: 13px;">L</text><text y="358" x="540.3508771929825" text-anchor="middle" visibility="hidden" style="font-size: 13px;">V</text><text y="358" x="542.8070175438596" text-anchor="middle" visibility="hidden" style="font-size: 13px;">I</text><text y="358" x="545.2631578947369" text-anchor="middle" visibility="hidden" style="font-size: 13px;">V</text><text y="358" x="547.719298245614" text-anchor="middle" visibility="hidden" style="font-size: 13px;">G</text><text y="358" x="550.1754385964912" text-anchor="middle" visibility="hidden" style="font-size: 13px;">L</text><text y="358" x="552.6315789473684" text-anchor="middle" visibility="hidden" style="font-size: 13px;">H</text><text y="358" x="555.0877192982456" text-anchor="middle" visibility="hidden" style="font-size: 13px;">Q</text><text y="358" x="557.5438596491229" text-anchor="middle" visibility="hidden" style="font-size: 13px;">L</text><text y="358" x="560" text-anchor="middle" visibility="hidden" style="font-size: 13px;">L</text><text y="358" x="562.4561403508773" text-anchor="middle" visibility="hidden" style="font-size: 13px;">E</text><text y="358" x="564.9122807017543" text-anchor="middle" visibility="hidden" style="font-size: 13px;">S</text><text y="358" x="567.3684210526316" text-anchor="middle" visibility="hidden" style="font-size: 13px;">R</text><text y="358" x="569.8245614035087" text-anchor="middle" visibility="hidden" style="font-size: 13px;">K</text><text y="358" x="572.280701754386" text-anchor="middle" visibility="hidden" style="font-size: 13px;">R</text><text y="358" x="574.7368421052631" text-anchor="middle" visibility="hidden" style="font-size: 13px;">K</text><text y="358" x="577.1929824561404" text-anchor="middle" visibility="hidden" style="font-size: 13px;">R</text><text y="358" x="579.6491228070175" text-anchor="middle" visibility="hidden" style="font-size: 13px;">P</text><text y="358" x="582.1052631578948" text-anchor="middle" visibility="hidden" style="font-size: 13px;">I</text><text y="358" x="584.561403508772" text-anchor="middle" visibility="hidden" style="font-size: 13px;">Q</text><text y="358" x="587.0175438596492" text-anchor="middle" visibility="hidden" style="font-size: 13px;">K</text><text y="358" x="589.4736842105262" text-anchor="middle" visibility="hidden" style="font-size: 13px;">V</text><text y="358" x="591.9298245614035" text-anchor="middle" visibility="hidden" style="font-size: 13px;">E</text><text y="358" x="594.3859649122807" text-anchor="middle" visibility="hidden" style="font-size: 13px;">M</text><text y="358" x="596.8421052631579" text-anchor="middle" visibility="hidden" style="font-size: 13px;">G</text><text y="358" x="599.2982456140351" text-anchor="middle" visibility="hidden" style="font-size: 13px;">T</text><text y="358" x="601.7543859649123" text-anchor="middle" visibility="hidden" style="font-size: 13px;">S</text><text y="358" x="604.2105263157895" text-anchor="middle" visibility="hidden" style="font-size: 13px;">S</text><text y="358" x="606.6666666666667" text-anchor="middle" visibility="hidden" style="font-size: 13px;">Q</text><text y="358" x="609.1228070175439" text-anchor="middle" visibility="hidden" style="font-size: 13px;">N</text><text y="358" x="611.578947368421" text-anchor="middle" visibility="hidden" style="font-size: 13px;">D</text><text y="358" x="614.0350877192982" text-anchor="middle" visibility="hidden" style="font-size: 13px;">V</text><text y="358" x="616.4912280701755" text-anchor="middle" visibility="hidden" style="font-size: 13px;">D</text><text y="358" x="618.9473684210526" text-anchor="middle" visibility="hidden" style="font-size: 13px;">M</text><text y="358" x="621.4035087719299" text-anchor="middle" visibility="hidden" style="font-size: 13px;">S</text><text y="358" x="623.859649122807" text-anchor="middle" visibility="hidden" style="font-size: 13px;">W</text><text y="358" x="626.3157894736842" text-anchor="middle" visibility="hidden" style="font-size: 13px;">I</text><text y="358" x="628.7719298245614" text-anchor="middle" visibility="hidden" style="font-size: 13px;">P</text><text y="358" x="631.2280701754386" text-anchor="middle" visibility="hidden" style="font-size: 13px;">Q</text><text y="358" x="633.6842105263158" text-anchor="middle" visibility="hidden" style="font-size: 13px;">E</text><text y="358" x="636.140350877193" text-anchor="middle" visibility="hidden" style="font-size: 13px;">T</text><text y="358" x="638.5964912280701" text-anchor="middle" visibility="hidden" style="font-size: 13px;">L</text><text y="358" x="641.0526315789473" text-anchor="middle" visibility="hidden" style="font-size: 13px;">N</text><text y="358" x="643.5087719298245" text-anchor="middle" visibility="hidden" style="font-size: 13px;">Q</text><text y="358" x="645.9649122807017" text-anchor="middle" visibility="hidden" style="font-size: 13px;">I</text><text y="358" x="648.421052631579" text-anchor="middle" visibility="hidden" style="font-size: 13px;">N</text><text y="358" x="650.8771929824561" text-anchor="middle" visibility="hidden" style="font-size: 13px;">K</text><text y="358" x="653.3333333333334" text-anchor="middle" visibility="hidden" style="font-size: 13px;">A</text><text y="358" x="655.7894736842105" text-anchor="middle" visibility="hidden" style="font-size: 13px;">S</text><text y="358" x="658.2456140350878" text-anchor="middle" visibility="hidden" style="font-size: 13px;">P</text><text y="358" x="660.7017543859649" text-anchor="middle" visibility="hidden" style="font-size: 13px;">R</text><text y="358" x="663.1578947368421" text-anchor="middle" visibility="hidden" style="font-size: 13px;">R</text><text y="358" x="665.6140350877192" text-anchor="middle" visibility="hidden" style="font-size: 13px;">L</text><text y="358" x="668.0701754385965" text-anchor="middle" visibility="hidden" style="font-size: 13px;">P</text><text y="358" x="670.5263157894736" text-anchor="middle" visibility="hidden" style="font-size: 13px;">R</text><text y="358" x="672.9824561403509" text-anchor="middle" visibility="hidden" style="font-size: 13px;">K</text><text y="358" x="675.438596491228" text-anchor="middle" visibility="hidden" style="font-size: 13px;">R</text><text y="358" x="677.8947368421053" text-anchor="middle" visibility="hidden" style="font-size: 13px;">A</text><text y="358" x="680.3508771929825" text-anchor="middle" visibility="hidden" style="font-size: 13px;">Q</text><text y="358" x="682.8070175438597" text-anchor="middle" visibility="hidden" style="font-size: 13px;">K</text><text y="358" x="685.2631578947369" text-anchor="middle" visibility="hidden" style="font-size: 13px;">R</text><text y="358" x="687.719298245614" text-anchor="middle" visibility="hidden" style="font-size: 13px;">S</text><text y="358" x="690.1754385964912" text-anchor="middle" visibility="hidden" style="font-size: 13px;">V</text><text y="358" x="692.6315789473684" text-anchor="middle" visibility="hidden" style="font-size: 13px;">G</text><text y="358" x="695.0877192982456" text-anchor="middle" visibility="hidden" style="font-size: 13px;">S</text><text y="358" x="697.5438596491229" text-anchor="middle" visibility="hidden" style="font-size: 13px;">D</text><text y="358" x="700" text-anchor="middle" visibility="hidden" style="font-size: 13px;">E</text></g></g></svg><g class="xAxis" transform="translate(0,360)" fill="none" font-size="10" font-family="sans-serif" text-anchor="middle"><path class="domain" stroke="#000" d="M0.5,6V0.5H700.5V6"></path><g class="tick" opacity="1" transform="translate(47.166666666666664,0)"><line stroke="#000" y2="6"></line><text fill="#000" y="9" dy="0.71em">20</text></g><g class="tick" opacity="1" transform="translate(96.28947368421053,0)"><line stroke="#000" y2="6"></line><text fill="#000" y="9" dy="0.71em">40</text></g><g class="tick" opacity="1" transform="translate(145.41228070175438,0)"><line stroke="#000" y2="6"></line><text fill="#000" y="9" dy="0.71em">60</text></g><g class="tick" opacity="1" transform="translate(194.53508771929822,0)"><line stroke="#000" y2="6"></line><text fill="#000" y="9" dy="0.71em">80</text></g><g class="tick" opacity="1" transform="translate(243.6578947368421,0)"><line stroke="#000" y2="6"></line><text fill="#000" y="9" dy="0.71em">100</text></g><g class="tick" opacity="1" transform="translate(292.780701754386,0)"><line stroke="#000" y2="6"></line><text fill="#000" y="9" dy="0.71em">120</text></g><g class="tick" opacity="1" transform="translate(341.90350877192986,0)"><line stroke="#000" y2="6"></line><text fill="#000" y="9" dy="0.71em">140</text></g><g class="tick" opacity="1" transform="translate(391.02631578947364,0)"><line stroke="#000" y2="6"></line><text fill="#000" y="9" dy="0.71em">160</text></g><g class="tick" opacity="1" transform="translate(440.14912280701753,0)"><line stroke="#000" y2="6"></line><text fill="#000" y="9" dy="0.71em">180</text></g><g class="tick" opacity="1" transform="translate(489.27192982456137,0)"><line stroke="#000" y2="6"></line><text fill="#000" y="9" dy="0.71em">200</text></g><g class="tick" opacity="1" transform="translate(538.3947368421052,0)"><line stroke="#000" y2="6"></line><text fill="#000" y="9" dy="0.71em">220</text></g><g class="tick" opacity="1" transform="translate(587.5175438596492,0)"><line stroke="#000" y2="6"></line><text fill="#000" y="9" dy="0.71em">240</text></g><g class="tick" opacity="1" transform="translate(636.640350877193,0)"><line stroke="#000" y2="6"></line><text fill="#000" y="9" dy="0.71em">260</text></g><g class="tick" opacity="1" transform="translate(685.7631578947369,0)"><line stroke="#000" y2="6"></line><text fill="#000" y="9" dy="0.71em">280</text></g></g><text class="x label" text-anchor="end" x="700" y="390" style="font-size: 13px; font-family: Arial;">Residue number</text><g class="yAxis" fill="none" font-size="10" font-family="sans-serif" text-anchor="end"><path class="domain" stroke="#000" d="M-6,360.5H0.5V0.5H-6"></path><g class="tick" opacity="1" transform="translate(0,327.77272727272725)"><line stroke="#000" x2="-6"></line><text fill="#000" x="-9" dy="0.32em">0</text></g><g class="tick" opacity="1" transform="translate(0,291.4897198145535)"><line stroke="#000" x2="-6"></line><text fill="#000" x="-9" dy="0.32em">10</text></g><g class="tick" opacity="1" transform="translate(0,255.20671235637977)"><line stroke="#000" x2="-6"></line><text fill="#000" x="-9" dy="0.32em">20</text></g><g class="tick" opacity="1" transform="translate(0,218.923704898206)"><line stroke="#000" x2="-6"></line><text fill="#000" x="-9" dy="0.32em">30</text></g><g class="tick" opacity="1" transform="translate(0,182.64069744003226)"><line stroke="#000" x2="-6"></line><text fill="#000" x="-9" dy="0.32em">40</text></g><g class="tick" opacity="1" transform="translate(0,146.3576899818585)"><line stroke="#000" x2="-6"></line><text fill="#000" x="-9" dy="0.32em">50</text></g><g class="tick" opacity="1" transform="translate(0,110.07468252368474)"><line stroke="#000" x2="-6"></line><text fill="#000" x="-9" dy="0.32em">60</text></g><g class="tick" opacity="1" transform="translate(0,73.79167506551096)"><line stroke="#000" x2="-6"></line><text fill="#000" x="-9" dy="0.32em">70</text></g><g class="tick" opacity="1" transform="translate(0,37.50866760733726)"><line stroke="#000" x2="-6"></line><text fill="#000" x="-9" dy="0.32em">80</text></g><g class="tick" opacity="1" transform="translate(0,1.2256601491635024)"><line stroke="#000" x2="-6"></line><text fill="#000" x="-9" dy="0.32em">90</text></g></g><text class="y label" text-anchor="middle" y="-50" x="-180" dy="0.8em" transform="rotate(-90)" style="font-size: 13px; font-family: Arial;">Total number of references</text><g class="axisRed" fill="none" font-size="10" font-family="sans-serif" text-anchor="start" visibility="hidden" transform="translate(700, 0)"><path class="domain" stroke="#000" d="M6,360.5H0.5V0.5H6"></path><g class="tick" opacity="1" transform="translate(0,360.5)"><line stroke="#000" x2="6"></line><text fill="#000" x="9" dy="0.32em">0</text></g><text text-anchor="start" dx="5.2em" dy="-2.6em" transform="rotate(90)" visibility="hidden" style="font-size: 12px; font-family: Arial; fill: #d7301f;">No recurrent (&gt;2) missense mutations!</text></g><g class="axisPurple" fill="none" font-size="10" font-family="sans-serif" text-anchor="start" visibility="hidden"><path class="domain" stroke="#000" d="M6,360.5H0.5V0.5H6"></path><g class="tick" opacity="1" transform="translate(0,357.52479338842977)"><line stroke="#000" x2="6"></line><text fill="#000" x="9" dy="0.32em"></text></g><g class="tick" opacity="1" transform="translate(0,327.77272727272725)"><line stroke="#000" x2="6"></line><text fill="#000" x="9" dy="0.32em">0</text></g><g class="tick" opacity="1" transform="translate(0,298.0206611570248)"><line stroke="#000" x2="6"></line><text fill="#000" x="9" dy="0.32em">0.1</text></g><g class="tick" opacity="1" transform="translate(0,268.2685950413223)"><line stroke="#000" x2="6"></line><text fill="#000" x="9" dy="0.32em">0.2</text></g><g class="tick" opacity="1" transform="translate(0,238.51652892561984)"><line stroke="#000" x2="6"></line><text fill="#000" x="9" dy="0.32em">0.3</text></g><g class="tick" opacity="1" transform="translate(0,208.76446280991738)"><line stroke="#000" x2="6"></line><text fill="#000" x="9" dy="0.32em">0.4</text></g><g class="tick" opacity="1" transform="translate(0,179.0123966942149)"><line stroke="#000" x2="6"></line><text fill="#000" x="9" dy="0.32em">0.5</text></g><g class="tick" opacity="1" transform="translate(0,149.26033057851242)"><line stroke="#000" x2="6"></line><text fill="#000" x="9" dy="0.32em">0.6</text></g><g class="tick" opacity="1" transform="translate(0,119.50826446280996)"><line stroke="#000" x2="6"></line><text fill="#000" x="9" dy="0.32em">0.7</text></g><g class="tick" opacity="1" transform="translate(0,89.75619834710744)"><line stroke="#000" x2="6"></line><text fill="#000" x="9" dy="0.32em">0.8</text></g><g class="tick" opacity="1" transform="translate(0,60.00413223140498)"><line stroke="#000" x2="6"></line><text fill="#000" x="9" dy="0.32em">0.9</text></g><g class="tick" opacity="1" transform="translate(0,30.25206611570252)"><line stroke="#000" x2="6"></line><text fill="#000" x="9" dy="0.32em">1</text></g><g class="tick" opacity="1" transform="translate(0,0.5)"><line stroke="#000" x2="6"></line><text fill="#000" x="9" dy="0.32em">1.1</text></g><text text-anchor="start" x="10" y="10" visibility="hidden" style="font-size: 12px; font-family: Arial; fill: #807dba;">No disease causing germline SNPs known!</text></g><circle cx="636" cy="15" r="10" class="compassNav" style="fill: #ffffff; stroke: #666666; stroke-width: 1px;"></circle><path d="M440.935 12.574l3.966 82.766C399.416 41.904 331.674 8 256 8 134.813 8 33.933 94.924 12.296 209.824 10.908 217.193 16.604 224 24.103 224h49.084c5.57 0 10.377-3.842 11.676-9.259C103.407 137.408 172.931 80 256 80c60.893 0 114.512 30.856 146.104 77.801l-101.53-4.865c-6.845-.328-12.574 5.133-12.574 11.986v47.411c0 6.627 5.373 12 12 12h200.333c6.627 0 12-5.373 12-12V12c0-6.627-5.373-12-12-12h-47.411c-6.853 0-12.315 5.729-11.987 12.574zM256 432c-60.895 0-114.517-30.858-146.109-77.805l101.868 4.871c6.845.327 12.573-5.134 12.573-11.986v-47.412c0-6.627-5.373-12-12-12H12c-6.627 0-12 5.373-12 12V500c0 6.627 5.373 12 12 12h47.385c6.863 0 12.328-5.745 11.985-12.599l-4.129-82.575C112.725 470.166 180.405 504 256 504c121.187 0 222.067-86.924 243.704-201.824 1.388-7.369-4.308-14.176-11.807-14.176h-49.084c-5.57 0-10.377 3.842-11.676 9.259C408.593 374.592 339.069 432 256 432z" class="compassNav" transform="translate(631, 10) scale(0.02)" style="fill: #666666; stroke: #666666; stroke-width: 1px;"></path><circle cx="658" cy="15" r="10" class="compassNav" style="fill: #ffffff; stroke: #666666; stroke-width: 1px;"></circle><line class="compassNav" stroke-width="2" stroke="#666666" x1="654" y1="15" x2="662" y2="15"></line><line class="compassNav" stroke-width="2" stroke="#666666" x1="658" y1="11" x2="658" y2="19"></line><circle cx="614" cy="15" r="10" class="compassNav" style="fill: #ffffff; stroke: #666666; stroke-width: 1px;"></circle><line class="compassNav" stroke-width="2" stroke="#666666" x1="610" y1="15" x2="618" y2="15"></line><path d="M582 14 l20 -12 a100,40 0 0,0 0,24z" class="compassNav" style="fill: #ffffff; stroke: #666666; stroke-width: 1px;"></path><path d="M690 14 l-20 -12 a100,40 0 0,1 0,24z" class="compassNav" style="fill: #ffffff; stroke: #666666; stroke-width: 1px;"></path><path d="M216 0h80c13.3 0 24 10.7 24 24v168h87.7c17.8 0 26.7 21.5 14.1 34.1L269.7 378.3c-7.5 7.5-19.8 7.5-27.3 0L90.1 226.1c-12.6-12.6-3.7-34.1 14.1-34.1H192V24c0-13.3 10.7-24 24-24zm296 376v112c0 13.3-10.7 24-24 24H24c-13.3 0-24-10.7-24-24V376c0-13.3 10.7-24 24-24h146.7l49 49c20.1 20.1 52.5 20.1 72.6 0l49-49H488c13.3 0 24 10.7 24 24zm-124 88c0-11-9-20-20-20s-20 9-20 20 9 20 20 20 20-9 20-20zm64 0c0-11-9-20-20-20s-20 9-20 20 9 20 20 20 20-9 20-20z" class="compassNav" transform="translate(552,0) scale(0.05)" style="fill: #336699; stroke: #336699; stroke-width: 1px; cursor: pointer;"></path></g></svg>