<svg width="800" height="400" style="background-color: white;"><g transform="translate(50,0)"><svg width="700" height="360"><g style="-webkit-tap-highlight-color: rgba(0, 0, 0, 0);"><rect width="700" height="360" style="fill: #ffffff;"></rect><g id="lines"><line class="line" stroke-width="1" stroke="#d7301f" x1="-358.88324873096445" y1="333" x2="-358.88324873096445" y2="360" visibility="hidden" style="stroke-dasharray: 3px, 3px;"></line></g><g><rect x="-363.88324873096445" y="355" width="10" height="10" visibility="hidden" style="fill: #ffffff; stroke: #d7301f;"></rect></g><g id="lines"><line class="line" stroke-width="1" stroke="#6a51a3" x1="-358.88324873096445" y1="333" x2="-358.88324873096445" y2="327.27272727272725" visibility="hidden" style="stroke-dasharray: 3px, 3px;"></line></g><g><rect x="-363.88324873096445" y="322.27272727272725" width="10" height="10" visibility="hidden" style="fill: #ffffff; stroke: #6a51a3;"></rect></g><g id="lines"><line class="line" stroke-width="1" stroke="#666666" x1="3.5532994923857864" y1="333" x2="3.5532994923857864" y2="319.9265381083563"></line><line class="line" stroke-width="1" stroke="#666666" x1="21.31979695431472" y1="333" x2="21.31979695431472" y2="319.9265381083563"></line><line class="line" stroke-width="1" stroke="#666666" x1="31.97969543147208" y1="333" x2="31.97969543147208" y2="29.752066115702462"></line><line class="line" stroke-width="1" stroke="#666666" x1="39.08629441624365" y1="333" x2="39.08629441624365" y2="308.9072543617998"></line><line class="line" stroke-width="1" stroke="#666666" x1="49.746192893401016" y1="333" x2="49.746192893401016" y2="323.5996326905418"></line><line class="line" stroke-width="1" stroke="#666666" x1="85.27918781725889" y1="333" x2="85.27918781725889" y2="323.5996326905418"></line><line class="line" stroke-width="1" stroke="#666666" x1="145.68527918781726" y1="333" x2="145.68527918781726" y2="323.5996326905418"></line><line class="line" stroke-width="1" stroke="#666666" x1="206.09137055837564" y1="333" x2="206.09137055837564" y2="323.5996326905418"></line><line class="line" stroke-width="1" stroke="#666666" x1="238.07106598984774" y1="333" x2="238.07106598984774" y2="323.5996326905418"></line><line class="line" stroke-width="1" stroke="#666666" x1="259.39086294416245" y1="333" x2="259.39086294416245" y2="301.56106519742883"></line><line class="line" stroke-width="1" stroke="#666666" x1="284.26395939086296" y1="333" x2="284.26395939086296" y2="323.5996326905418"></line><line class="line" stroke-width="1" stroke="#666666" x1="291.3705583756345" y1="333" x2="291.3705583756345" y2="319.9265381083563"></line><line class="line" stroke-width="1" stroke="#666666" x1="309.1370558375634" y1="333" x2="309.1370558375634" y2="290.54178145087235"></line><line class="line" stroke-width="1" stroke="#666666" x1="312.6903553299492" y1="333" x2="312.6903553299492" y2="305.2341597796143"></line><line class="line" stroke-width="1" stroke="#666666" x1="351.77664974619285" y1="333" x2="351.77664974619285" y2="323.5996326905418"></line><line class="line" stroke-width="1" stroke="#666666" x1="373.09644670050767" y1="333" x2="373.09644670050767" y2="279.52249770431587"></line><line class="line" stroke-width="1" stroke="#666666" x1="373.09644670050767" y1="333" x2="373.09644670050767" y2="319.9265381083563"></line><line class="line" stroke-width="1" stroke="#666666" x1="387.3096446700508" y1="333" x2="387.3096446700508" y2="319.9265381083563"></line><line class="line" stroke-width="1" stroke="#666666" x1="472.5888324873097" y1="333" x2="472.5888324873097" y2="323.5996326905418"></line><line class="line" stroke-width="1" stroke="#666666" x1="493.9086294416244" y1="333" x2="493.9086294416244" y2="301.56106519742883"></line><line class="line" stroke-width="1" stroke="#666666" x1="540.1015228426396" y1="333" x2="540.1015228426396" y2="323.5996326905418"></line><line class="line" stroke-width="1" stroke="#666666" x1="543.6548223350254" y1="333" x2="543.6548223350254" y2="323.5996326905418"></line><line class="line" stroke-width="1" stroke="#666666" x1="554.3147208121828" y1="333" x2="554.3147208121828" y2="235.44536271809"></line><line class="line" stroke-width="1" stroke="#666666" x1="554.3147208121828" y1="333" x2="554.3147208121828" y2="319.9265381083563"></line><line class="line" stroke-width="1" stroke="#666666" x1="582.741116751269" y1="333" x2="582.741116751269" y2="323.5996326905418"></line><line class="line" stroke-width="1" stroke="#666666" x1="600.5076142131979" y1="333" x2="600.5076142131979" y2="319.9265381083563"></line><line class="line" stroke-width="1" stroke="#666666" x1="618.2741116751268" y1="333" x2="618.2741116751268" y2="316.2534435261708"></line><line class="line" stroke-width="1" stroke="#666666" x1="628.9340101522843" y1="333" x2="628.9340101522843" y2="264.83011937557393"></line><line class="line" stroke-width="1" stroke="#666666" x1="646.7005076142132" y1="333" x2="646.7005076142132" y2="319.9265381083563"></line><line class="line" stroke-width="1" stroke="#666666" x1="660.9137055837564" y1="333" x2="660.9137055837564" y2="154.63728191000916"></line><line class="line" stroke-width="1" stroke="#666666" x1="700" y1="333" x2="700" y2="213.40679522497703"></line><line class="line" stroke-width="1" stroke="#666666" x1="700" y1="333" x2="700" y2="319.9265381083563"></line></g><g id="circles"><circle r="4" cx="3.5532994923857864" cy="319.9265381083563" style="fill: #666666; stroke: #666666; stroke-width: 1px;"></circle><circle r="4" cx="21.31979695431472" cy="319.9265381083563" style="fill: #4393c3; stroke: #666666; stroke-width: 1px;"></circle><circle r="4" cx="31.97969543147208" cy="29.752066115702462" style="fill: #4393c3; stroke: #666666; stroke-width: 1px;"></circle><circle r="4" cx="39.08629441624365" cy="308.9072543617998" style="fill: #4393c3; stroke: #666666; stroke-width: 1px;"></circle><circle r="4" cx="49.746192893401016" cy="323.5996326905418" style="fill: #666666; stroke: #666666; stroke-width: 1px;"></circle><circle r="4" cx="85.27918781725889" cy="323.5996326905418" style="fill: #5aae61; stroke: #666666; stroke-width: 1px;"></circle><circle r="4" cx="145.68527918781726" cy="323.5996326905418" style="fill: #4393c3; stroke: #666666; stroke-width: 1px;"></circle><circle r="4" cx="206.09137055837564" cy="323.5996326905418" style="fill: #5aae61; stroke: #666666; stroke-width: 1px;"></circle><circle r="4" cx="238.07106598984774" cy="323.5996326905418" style="fill: #5aae61; stroke: #666666; stroke-width: 1px;"></circle><circle r="4" cx="259.39086294416245" cy="301.56106519742883" style="fill: #4393c3; stroke: #666666; stroke-width: 1px;"></circle><circle r="4" cx="284.26395939086296" cy="323.5996326905418" style="fill: #5aae61; stroke: #666666; stroke-width: 1px;"></circle><circle r="4" cx="291.3705583756345" cy="319.9265381083563" style="fill: #4393c3; stroke: #666666; stroke-width: 1px;"></circle><circle r="4" cx="309.1370558375634" cy="290.54178145087235" style="fill: #4393c3; stroke: #666666; stroke-width: 1px;"></circle><circle r="4" cx="312.6903553299492" cy="305.2341597796143" style="fill: #4393c3; stroke: #666666; stroke-width: 1px;"></circle><circle r="4" cx="351.77664974619285" cy="323.5996326905418" style="fill: #5aae61; stroke: #666666; stroke-width: 1px;"></circle><circle r="4" cx="373.09644670050767" cy="279.52249770431587" style="fill: #4393c3; stroke: #666666; stroke-width: 1px;"></circle><circle r="4" cx="373.09644670050767" cy="319.9265381083563" style="fill: #666666; stroke: #666666; stroke-width: 1px;"></circle><circle r="4" cx="387.3096446700508" cy="319.9265381083563" style="fill: #666666; stroke: #666666; stroke-width: 1px;"></circle><circle r="4" cx="472.5888324873097" cy="323.5996326905418" style="fill: #bf812d; stroke: #666666; stroke-width: 1px;"></circle><circle r="4" cx="493.9086294416244" cy="301.56106519742883" style="fill: #4393c3; stroke: #666666; stroke-width: 1px;"></circle><circle r="4" cx="540.1015228426396" cy="323.5996326905418" style="fill: #bf812d; stroke: #666666; stroke-width: 1px;"></circle><circle r="4" cx="543.6548223350254" cy="323.5996326905418" style="fill: #666666; stroke: #666666; stroke-width: 1px;"></circle><circle r="4" cx="554.3147208121828" cy="235.44536271809" style="fill: #4393c3; stroke: #666666; stroke-width: 1px;"></circle><circle r="4" cx="554.3147208121828" cy="319.9265381083563" style="fill: #666666; stroke: #666666; stroke-width: 1px;"></circle><circle r="4" cx="582.741116751269" cy="323.5996326905418" style="fill: #bf812d; stroke: #666666; stroke-width: 1px;"></circle><circle r="4" cx="600.5076142131979" cy="319.9265381083563" style="fill: #4393c3; stroke: #666666; stroke-width: 1px;"></circle><circle r="4" cx="618.2741116751268" cy="316.2534435261708" style="fill: #4393c3; stroke: #666666; stroke-width: 1px;"></circle><circle r="4" cx="628.9340101522843" cy="264.83011937557393" style="fill: #4393c3; stroke: #666666; stroke-width: 1px;"></circle><circle r="4" cx="646.7005076142132" cy="319.9265381083563" style="fill: #4393c3; stroke: #666666; stroke-width: 1px;"></circle><circle r="4" cx="660.9137055837564" cy="154.63728191000916" style="fill: #4393c3; stroke: #666666; stroke-width: 1px;"></circle><circle r="4" cx="700" cy="213.40679522497703" style="fill: #4393c3; stroke: #666666; stroke-width: 1px;"></circle><circle r="4" cx="700" cy="319.9265381083563" style="fill: #666666; stroke: #666666; stroke-width: 1px;"></circle></g><g><rect x="0" y="333" width="700" height="12" style="fill: #ffffff; stroke-width: 1px; stroke: #666666;"></rect><rect x="106.59898477157361" y="333" width="170.5583756345178" height="12" style="fill: #aec7e8; stroke-width: 1px; stroke: #666666;"></rect></g><g><a target="_blank" xlink:href="http://pfam.xfam.org/family/"><text y="343" x="350" text-anchor="middle" style="color: rgb(102, 102, 102); font-weight: normal; font-size: 12px; font-family: Arial; cursor: pointer;"></text></a><a target="_blank" xlink:href="http://pfam.xfam.org/family/CDI"><text y="343" x="191.8781725888325" text-anchor="middle" style="color: rgb(102, 102, 102); font-weight: normal; font-size: 12px; font-family: Arial; cursor: pointer;">CDI</text></a></g><g><text y="358" x="0" text-anchor="middle" visibility="hidden" style="font-size: 13px;">M</text><text y="358" x="3.5532994923857864" text-anchor="middle" visibility="hidden" style="font-size: 13px;">S</text><text y="358" x="7.106598984771573" text-anchor="middle" visibility="hidden" style="font-size: 13px;">N</text><text y="358" x="10.65989847715736" text-anchor="middle" visibility="hidden" style="font-size: 13px;">V</text><text y="358" x="14.213197969543145" text-anchor="middle" visibility="hidden" style="font-size: 13px;">R</text><text y="358" x="17.766497461928935" text-anchor="middle" visibility="hidden" style="font-size: 13px;">V</text><text y="358" x="21.31979695431472" text-anchor="middle" visibility="hidden" style="font-size: 13px;">S</text><text y="358" x="24.873096446700508" text-anchor="middle" visibility="hidden" style="font-size: 13px;">N</text><text y="358" x="28.42639593908629" text-anchor="middle" visibility="hidden" style="font-size: 13px;">G</text><text y="358" x="31.97969543147208" text-anchor="middle" visibility="hidden" style="font-size: 13px;">S</text><text y="358" x="35.53299492385787" text-anchor="middle" visibility="hidden" style="font-size: 13px;">P</text><text y="358" x="39.08629441624365" text-anchor="middle" visibility="hidden" style="font-size: 13px;">S</text><text y="358" x="42.63959390862944" text-anchor="middle" visibility="hidden" style="font-size: 13px;">L</text><text y="358" x="46.19289340101523" text-anchor="middle" visibility="hidden" style="font-size: 13px;">E</text><text y="358" x="49.746192893401016" text-anchor="middle" visibility="hidden" style="font-size: 13px;">R</text><text y="358" x="53.299492385786806" text-anchor="middle" visibility="hidden" style="font-size: 13px;">M</text><text y="358" x="56.85279187817258" text-anchor="middle" visibility="hidden" style="font-size: 13px;">D</text><text y="358" x="60.40609137055837" text-anchor="middle" visibility="hidden" style="font-size: 13px;">A</text><text y="358" x="63.95939086294416" text-anchor="middle" visibility="hidden" style="font-size: 13px;">R</text><text y="358" x="67.51269035532995" text-anchor="middle" visibility="hidden" style="font-size: 13px;">Q</text><text y="358" x="71.06598984771574" text-anchor="middle" visibility="hidden" style="font-size: 13px;">A</text><text y="358" x="74.61928934010152" text-anchor="middle" visibility="hidden" style="font-size: 13px;">E</text><text y="358" x="78.1725888324873" text-anchor="middle" visibility="hidden" style="font-size: 13px;">H</text><text y="358" x="81.7258883248731" text-anchor="middle" visibility="hidden" style="font-size: 13px;">P</text><text y="358" x="85.27918781725889" text-anchor="middle" visibility="hidden" style="font-size: 13px;">K</text><text y="358" x="88.83248730964466" text-anchor="middle" visibility="hidden" style="font-size: 13px;">P</text><text y="358" x="92.38578680203047" text-anchor="middle" visibility="hidden" style="font-size: 13px;">S</text><text y="358" x="95.93908629441624" text-anchor="middle" visibility="hidden" style="font-size: 13px;">A</text><text y="358" x="99.49238578680203" text-anchor="middle" visibility="hidden" style="font-size: 13px;">C</text><text y="358" x="103.04568527918782" text-anchor="middle" visibility="hidden" style="font-size: 13px;">R</text><text y="358" x="106.59898477157361" text-anchor="middle" visibility="hidden" style="font-size: 13px;">N</text><text y="358" x="110.15228426395939" text-anchor="middle" visibility="hidden" style="font-size: 13px;">L</text><text y="358" x="113.70558375634516" text-anchor="middle" visibility="hidden" style="font-size: 13px;">F</text><text y="358" x="117.25888324873097" text-anchor="middle" visibility="hidden" style="font-size: 13px;">G</text><text y="358" x="120.81218274111674" text-anchor="middle" visibility="hidden" style="font-size: 13px;">P</text><text y="358" x="124.36548223350255" text-anchor="middle" visibility="hidden" style="font-size: 13px;">V</text><text y="358" x="127.91878172588832" text-anchor="middle" visibility="hidden" style="font-size: 13px;">D</text><text y="358" x="131.47208121827413" text-anchor="middle" visibility="hidden" style="font-size: 13px;">H</text><text y="358" x="135.0253807106599" text-anchor="middle" visibility="hidden" style="font-size: 13px;">E</text><text y="358" x="138.5786802030457" text-anchor="middle" visibility="hidden" style="font-size: 13px;">E</text><text y="358" x="142.13197969543148" text-anchor="middle" visibility="hidden" style="font-size: 13px;">L</text><text y="358" x="145.68527918781726" text-anchor="middle" visibility="hidden" style="font-size: 13px;">T</text><text y="358" x="149.23857868020303" text-anchor="middle" visibility="hidden" style="font-size: 13px;">R</text><text y="358" x="152.79187817258884" text-anchor="middle" visibility="hidden" style="font-size: 13px;">D</text><text y="358" x="156.3451776649746" text-anchor="middle" visibility="hidden" style="font-size: 13px;">L</text><text y="358" x="159.8984771573604" text-anchor="middle" visibility="hidden" style="font-size: 13px;">E</text><text y="358" x="163.4517766497462" text-anchor="middle" visibility="hidden" style="font-size: 13px;">K</text><text y="358" x="167.00507614213197" text-anchor="middle" visibility="hidden" style="font-size: 13px;">H</text><text y="358" x="170.55837563451777" text-anchor="middle" visibility="hidden" style="font-size: 13px;">C</text><text y="358" x="174.11167512690355" text-anchor="middle" visibility="hidden" style="font-size: 13px;">R</text><text y="358" x="177.66497461928932" text-anchor="middle" visibility="hidden" style="font-size: 13px;">D</text><text y="358" x="181.21827411167513" text-anchor="middle" visibility="hidden" style="font-size: 13px;">M</text><text y="358" x="184.77157360406093" text-anchor="middle" visibility="hidden" style="font-size: 13px;">E</text><text y="358" x="188.32487309644668" text-anchor="middle" visibility="hidden" style="font-size: 13px;">E</text><text y="358" x="191.87817258883248" text-anchor="middle" visibility="hidden" style="font-size: 13px;">A</text><text y="358" x="195.4314720812183" text-anchor="middle" visibility="hidden" style="font-size: 13px;">S</text><text y="358" x="198.98477157360406" text-anchor="middle" visibility="hidden" style="font-size: 13px;">Q</text><text y="358" x="202.53807106598984" text-anchor="middle" visibility="hidden" style="font-size: 13px;">R</text><text y="358" x="206.09137055837564" text-anchor="middle" visibility="hidden" style="font-size: 13px;">K</text><text y="358" x="209.64467005076142" text-anchor="middle" visibility="hidden" style="font-size: 13px;">W</text><text y="358" x="213.19796954314722" text-anchor="middle" visibility="hidden" style="font-size: 13px;">N</text><text y="358" x="216.75126903553297" text-anchor="middle" visibility="hidden" style="font-size: 13px;">F</text><text y="358" x="220.30456852791878" text-anchor="middle" visibility="hidden" style="font-size: 13px;">D</text><text y="358" x="223.85786802030458" text-anchor="middle" visibility="hidden" style="font-size: 13px;">F</text><text y="358" x="227.41116751269033" text-anchor="middle" visibility="hidden" style="font-size: 13px;">Q</text><text y="358" x="230.96446700507613" text-anchor="middle" visibility="hidden" style="font-size: 13px;">N</text><text y="358" x="234.51776649746193" text-anchor="middle" visibility="hidden" style="font-size: 13px;">H</text><text y="358" x="238.07106598984774" text-anchor="middle" visibility="hidden" style="font-size: 13px;">K</text><text y="358" x="241.6243654822335" text-anchor="middle" visibility="hidden" style="font-size: 13px;">P</text><text y="358" x="245.1776649746193" text-anchor="middle" visibility="hidden" style="font-size: 13px;">L</text><text y="358" x="248.7309644670051" text-anchor="middle" visibility="hidden" style="font-size: 13px;">E</text><text y="358" x="252.28426395939087" text-anchor="middle" visibility="hidden" style="font-size: 13px;">G</text><text y="358" x="255.83756345177665" text-anchor="middle" visibility="hidden" style="font-size: 13px;">K</text><text y="358" x="259.39086294416245" text-anchor="middle" visibility="hidden" style="font-size: 13px;">Y</text><text y="358" x="262.94416243654825" text-anchor="middle" visibility="hidden" style="font-size: 13px;">E</text><text y="358" x="266.497461928934" text-anchor="middle" visibility="hidden" style="font-size: 13px;">W</text><text y="358" x="270.0507614213198" text-anchor="middle" visibility="hidden" style="font-size: 13px;">Q</text><text y="358" x="273.6040609137056" text-anchor="middle" visibility="hidden" style="font-size: 13px;">E</text><text y="358" x="277.1573604060914" text-anchor="middle" visibility="hidden" style="font-size: 13px;">V</text><text y="358" x="280.71065989847716" text-anchor="middle" visibility="hidden" style="font-size: 13px;">E</text><text y="358" x="284.26395939086296" text-anchor="middle" visibility="hidden" style="font-size: 13px;">K</text><text y="358" x="287.8172588832487" text-anchor="middle" visibility="hidden" style="font-size: 13px;">G</text><text y="358" x="291.3705583756345" text-anchor="middle" visibility="hidden" style="font-size: 13px;">S</text><text y="358" x="294.9238578680203" text-anchor="middle" visibility="hidden" style="font-size: 13px;">L</text><text y="358" x="298.47715736040607" text-anchor="middle" visibility="hidden" style="font-size: 13px;">P</text><text y="358" x="302.0304568527919" text-anchor="middle" visibility="hidden" style="font-size: 13px;">E</text><text y="358" x="305.5837563451777" text-anchor="middle" visibility="hidden" style="font-size: 13px;">F</text><text y="358" x="309.1370558375634" text-anchor="middle" visibility="hidden" style="font-size: 13px;">Y</text><text y="358" x="312.6903553299492" text-anchor="middle" visibility="hidden" style="font-size: 13px;">Y</text><text y="358" x="316.24365482233503" text-anchor="middle" visibility="hidden" style="font-size: 13px;">R</text><text y="358" x="319.7969543147208" text-anchor="middle" visibility="hidden" style="font-size: 13px;">P</text><text y="358" x="323.3502538071066" text-anchor="middle" visibility="hidden" style="font-size: 13px;">P</text><text y="358" x="326.9035532994924" text-anchor="middle" visibility="hidden" style="font-size: 13px;">R</text><text y="358" x="330.4568527918782" text-anchor="middle" visibility="hidden" style="font-size: 13px;">P</text><text y="358" x="334.01015228426394" text-anchor="middle" visibility="hidden" style="font-size: 13px;">P</text><text y="358" x="337.56345177664974" text-anchor="middle" visibility="hidden" style="font-size: 13px;">K</text><text y="358" x="341.11675126903555" text-anchor="middle" visibility="hidden" style="font-size: 13px;">G</text><text y="358" x="344.6700507614213" text-anchor="middle" visibility="hidden" style="font-size: 13px;">A</text><text y="358" x="348.2233502538071" text-anchor="middle" visibility="hidden" style="font-size: 13px;">C</text><text y="358" x="351.77664974619285" text-anchor="middle" visibility="hidden" style="font-size: 13px;">K</text><text y="358" x="355.32994923857865" text-anchor="middle" visibility="hidden" style="font-size: 13px;">V</text><text y="358" x="358.88324873096445" text-anchor="middle" visibility="hidden" style="font-size: 13px;">P</text><text y="358" x="362.43654822335026" text-anchor="middle" visibility="hidden" style="font-size: 13px;">A</text><text y="358" x="365.98984771573606" text-anchor="middle" visibility="hidden" style="font-size: 13px;">Q</text><text y="358" x="369.54314720812187" text-anchor="middle" visibility="hidden" style="font-size: 13px;">E</text><text y="358" x="373.09644670050767" text-anchor="middle" visibility="hidden" style="font-size: 13px;">S</text><text y="358" x="376.64974619289336" text-anchor="middle" visibility="hidden" style="font-size: 13px;">Q</text><text y="358" x="380.20304568527916" text-anchor="middle" visibility="hidden" style="font-size: 13px;">D</text><text y="358" x="383.75634517766497" text-anchor="middle" visibility="hidden" style="font-size: 13px;">V</text><text y="358" x="387.3096446700508" text-anchor="middle" visibility="hidden" style="font-size: 13px;">S</text><text y="358" x="390.8629441624366" text-anchor="middle" visibility="hidden" style="font-size: 13px;">G</text><text y="358" x="394.4162436548223" text-anchor="middle" visibility="hidden" style="font-size: 13px;">S</text><text y="358" x="397.9695431472081" text-anchor="middle" visibility="hidden" style="font-size: 13px;">R</text><text y="358" x="401.52284263959393" text-anchor="middle" visibility="hidden" style="font-size: 13px;">P</text><text y="358" x="405.0761421319797" text-anchor="middle" visibility="hidden" style="font-size: 13px;">A</text><text y="358" x="408.6294416243655" text-anchor="middle" visibility="hidden" style="font-size: 13px;">A</text><text y="358" x="412.1827411167513" text-anchor="middle" visibility="hidden" style="font-size: 13px;">P</text><text y="358" x="415.73604060913704" text-anchor="middle" visibility="hidden" style="font-size: 13px;">L</text><text y="358" x="419.28934010152284" text-anchor="middle" visibility="hidden" style="font-size: 13px;">I</text><text y="358" x="422.84263959390864" text-anchor="middle" visibility="hidden" style="font-size: 13px;">G</text><text y="358" x="426.39593908629445" text-anchor="middle" visibility="hidden" style="font-size: 13px;">A</text><text y="358" x="429.9492385786802" text-anchor="middle" visibility="hidden" style="font-size: 13px;">P</text><text y="358" x="433.50253807106594" text-anchor="middle" visibility="hidden" style="font-size: 13px;">A</text><text y="358" x="437.05583756345175" text-anchor="middle" visibility="hidden" style="font-size: 13px;">N</text><text y="358" x="440.60913705583755" text-anchor="middle" visibility="hidden" style="font-size: 13px;">S</text><text y="358" x="444.16243654822335" text-anchor="middle" visibility="hidden" style="font-size: 13px;">E</text><text y="358" x="447.71573604060916" text-anchor="middle" visibility="hidden" style="font-size: 13px;">D</text><text y="358" x="451.26903553299496" text-anchor="middle" visibility="hidden" style="font-size: 13px;">T</text><text y="358" x="454.82233502538065" text-anchor="middle" visibility="hidden" style="font-size: 13px;">H</text><text y="358" x="458.37563451776646" text-anchor="middle" visibility="hidden" style="font-size: 13px;">L</text><text y="358" x="461.92893401015226" text-anchor="middle" visibility="hidden" style="font-size: 13px;">V</text><text y="358" x="465.48223350253807" text-anchor="middle" visibility="hidden" style="font-size: 13px;">D</text><text y="358" x="469.03553299492387" text-anchor="middle" visibility="hidden" style="font-size: 13px;">P</text><text y="358" x="472.5888324873097" text-anchor="middle" visibility="hidden" style="font-size: 13px;">K</text><text y="358" x="476.1421319796955" text-anchor="middle" visibility="hidden" style="font-size: 13px;">T</text><text y="358" x="479.69543147208117" text-anchor="middle" visibility="hidden" style="font-size: 13px;">D</text><text y="358" x="483.248730964467" text-anchor="middle" visibility="hidden" style="font-size: 13px;">P</text><text y="358" x="486.8020304568528" text-anchor="middle" visibility="hidden" style="font-size: 13px;">S</text><text y="358" x="490.3553299492386" text-anchor="middle" visibility="hidden" style="font-size: 13px;">D</text><text y="358" x="493.9086294416244" text-anchor="middle" visibility="hidden" style="font-size: 13px;">S</text><text y="358" x="497.4619289340102" text-anchor="middle" visibility="hidden" style="font-size: 13px;">Q</text><text y="358" x="501.015228426396" text-anchor="middle" visibility="hidden" style="font-size: 13px;">T</text><text y="358" x="504.56852791878174" text-anchor="middle" visibility="hidden" style="font-size: 13px;">G</text><text y="358" x="508.1218274111675" text-anchor="middle" visibility="hidden" style="font-size: 13px;">L</text><text y="358" x="511.6751269035533" text-anchor="middle" visibility="hidden" style="font-size: 13px;">A</text><text y="358" x="515.2284263959391" text-anchor="middle" visibility="hidden" style="font-size: 13px;">E</text><text y="358" x="518.7817258883249" text-anchor="middle" visibility="hidden" style="font-size: 13px;">Q</text><text y="358" x="522.3350253807107" text-anchor="middle" visibility="hidden" style="font-size: 13px;">C</text><text y="358" x="525.8883248730965" text-anchor="middle" visibility="hidden" style="font-size: 13px;">A</text><text y="358" x="529.4416243654823" text-anchor="middle" visibility="hidden" style="font-size: 13px;">G</text><text y="358" x="532.994923857868" text-anchor="middle" visibility="hidden" style="font-size: 13px;">I</text><text y="358" x="536.5482233502538" text-anchor="middle" visibility="hidden" style="font-size: 13px;">R</text><text y="358" x="540.1015228426396" text-anchor="middle" visibility="hidden" style="font-size: 13px;">K</text><text y="358" x="543.6548223350254" text-anchor="middle" visibility="hidden" style="font-size: 13px;">R</text><text y="358" x="547.2081218274112" text-anchor="middle" visibility="hidden" style="font-size: 13px;">P</text><text y="358" x="550.761421319797" text-anchor="middle" visibility="hidden" style="font-size: 13px;">A</text><text y="358" x="554.3147208121828" text-anchor="middle" visibility="hidden" style="font-size: 13px;">T</text><text y="358" x="557.8680203045685" text-anchor="middle" visibility="hidden" style="font-size: 13px;">D</text><text y="358" x="561.4213197969543" text-anchor="middle" visibility="hidden" style="font-size: 13px;">D</text><text y="358" x="564.9746192893401" text-anchor="middle" visibility="hidden" style="font-size: 13px;">S</text><text y="358" x="568.5279187817259" text-anchor="middle" visibility="hidden" style="font-size: 13px;">S</text><text y="358" x="572.0812182741117" text-anchor="middle" visibility="hidden" style="font-size: 13px;">T</text><text y="358" x="575.6345177664974" text-anchor="middle" visibility="hidden" style="font-size: 13px;">Q</text><text y="358" x="579.1878172588832" text-anchor="middle" visibility="hidden" style="font-size: 13px;">N</text><text y="358" x="582.741116751269" text-anchor="middle" visibility="hidden" style="font-size: 13px;">K</text><text y="358" x="586.2944162436548" text-anchor="middle" visibility="hidden" style="font-size: 13px;">R</text><text y="358" x="589.8477157360406" text-anchor="middle" visibility="hidden" style="font-size: 13px;">A</text><text y="358" x="593.4010152284263" text-anchor="middle" visibility="hidden" style="font-size: 13px;">N</text><text y="358" x="596.9543147208121" text-anchor="middle" visibility="hidden" style="font-size: 13px;">R</text><text y="358" x="600.5076142131979" text-anchor="middle" visibility="hidden" style="font-size: 13px;">T</text><text y="358" x="604.0609137055837" text-anchor="middle" visibility="hidden" style="font-size: 13px;">E</text><text y="358" x="607.6142131979695" text-anchor="middle" visibility="hidden" style="font-size: 13px;">E</text><text y="358" x="611.1675126903554" text-anchor="middle" visibility="hidden" style="font-size: 13px;">N</text><text y="358" x="614.720812182741" text-anchor="middle" visibility="hidden" style="font-size: 13px;">V</text><text y="358" x="618.2741116751268" text-anchor="middle" visibility="hidden" style="font-size: 13px;">S</text><text y="358" x="621.8274111675127" text-anchor="middle" visibility="hidden" style="font-size: 13px;">D</text><text y="358" x="625.3807106598985" text-anchor="middle" visibility="hidden" style="font-size: 13px;">G</text><text y="358" x="628.9340101522843" text-anchor="middle" visibility="hidden" style="font-size: 13px;">S</text><text y="358" x="632.4873096446701" text-anchor="middle" visibility="hidden" style="font-size: 13px;">P</text><text y="358" x="636.0406091370558" text-anchor="middle" visibility="hidden" style="font-size: 13px;">N</text><text y="358" x="639.5939086294416" text-anchor="middle" visibility="hidden" style="font-size: 13px;">A</text><text y="358" x="643.1472081218274" text-anchor="middle" visibility="hidden" style="font-size: 13px;">G</text><text y="358" x="646.7005076142132" text-anchor="middle" visibility="hidden" style="font-size: 13px;">S</text><text y="358" x="650.253807106599" text-anchor="middle" visibility="hidden" style="font-size: 13px;">V</text><text y="358" x="653.8071065989848" text-anchor="middle" visibility="hidden" style="font-size: 13px;">E</text><text y="358" x="657.3604060913706" text-anchor="middle" visibility="hidden" style="font-size: 13px;">Q</text><text y="358" x="660.9137055837564" text-anchor="middle" visibility="hidden" style="font-size: 13px;">T</text><text y="358" x="664.4670050761421" text-anchor="middle" visibility="hidden" style="font-size: 13px;">P</text><text y="358" x="668.0203045685279" text-anchor="middle" visibility="hidden" style="font-size: 13px;">K</text><text y="358" x="671.5736040609137" text-anchor="middle" visibility="hidden" style="font-size: 13px;">K</text><text y="358" x="675.1269035532995" text-anchor="middle" visibility="hidden" style="font-size: 13px;">P</text><text y="358" x="678.6802030456853" text-anchor="middle" visibility="hidden" style="font-size: 13px;">G</text><text y="358" x="682.2335025380711" text-anchor="middle" visibility="hidden" style="font-size: 13px;">L</text><text y="358" x="685.7868020304569" text-anchor="middle" visibility="hidden" style="font-size: 13px;">R</text><text y="358" x="689.3401015228426" text-anchor="middle" visibility="hidden" style="font-size: 13px;">R</text><text y="358" x="692.8934010152284" text-anchor="middle" visibility="hidden" style="font-size: 13px;">R</text><text y="358" x="696.4467005076142" text-anchor="middle" visibility="hidden" style="font-size: 13px;">Q</text><text y="358" x="700" text-anchor="middle" visibility="hidden" style="font-size: 13px;">T</text></g></g></svg><g class="xAxis" transform="translate(0,360)" fill="none" font-size="10" font-family="sans-serif" text-anchor="middle"><path class="domain" stroke="#000" d="M0.5,6V0.5H700.5V6"></path><g class="tick" opacity="1" transform="translate(68.01269035532995,0)"><line stroke="#000" y2="6"></line><text fill="#000" y="9" dy="0.71em">20</text></g><g class="tick" opacity="1" transform="translate(139.0786802030457,0)"><line stroke="#000" y2="6"></line><text fill="#000" y="9" dy="0.71em">40</text></g><g class="tick" opacity="1" transform="translate(210.14467005076142,0)"><line stroke="#000" y2="6"></line><text fill="#000" y="9" dy="0.71em">60</text></g><g class="tick" opacity="1" transform="translate(281.21065989847716,0)"><line stroke="#000" y2="6"></line><text fill="#000" y="9" dy="0.71em">80</text></g><g class="tick" opacity="1" transform="translate(352.27664974619285,0)"><line stroke="#000" y2="6"></line><text fill="#000" y="9" dy="0.71em">100</text></g><g class="tick" opacity="1" transform="translate(423.34263959390864,0)"><line stroke="#000" y2="6"></line><text fill="#000" y="9" dy="0.71em">120</text></g><g class="tick" opacity="1" transform="translate(494.4086294416244,0)"><line stroke="#000" y2="6"></line><text fill="#000" y="9" dy="0.71em">140</text></g><g class="tick" opacity="1" transform="translate(565.4746192893401,0)"><line stroke="#000" y2="6"></line><text fill="#000" y="9" dy="0.71em">160</text></g><g class="tick" opacity="1" transform="translate(636.5406091370558,0)"><line stroke="#000" y2="6"></line><text fill="#000" y="9" dy="0.71em">180</text></g></g><text class="x label" text-anchor="end" x="700" y="390" style="font-size: 13px; font-family: Arial;">Residue number</text><g class="yAxis" fill="none" font-size="10" font-family="sans-serif" text-anchor="end"><path class="domain" stroke="#000" d="M-6,360.5H0.5V0.5H-6"></path><g class="tick" opacity="1" transform="translate(0,327.77272727272725)"><line stroke="#000" x2="-6"></line><text fill="#000" x="-9" dy="0.32em">0</text></g><g class="tick" opacity="1" transform="translate(0,291.04178145087235)"><line stroke="#000" x2="-6"></line><text fill="#000" x="-9" dy="0.32em">10</text></g><g class="tick" opacity="1" transform="translate(0,254.31083562901745)"><line stroke="#000" x2="-6"></line><text fill="#000" x="-9" dy="0.32em">20</text></g><g class="tick" opacity="1" transform="translate(0,217.57988980716254)"><line stroke="#000" x2="-6"></line><text fill="#000" x="-9" dy="0.32em">30</text></g><g class="tick" opacity="1" transform="translate(0,180.8489439853076)"><line stroke="#000" x2="-6"></line><text fill="#000" x="-9" dy="0.32em">40</text></g><g class="tick" opacity="1" transform="translate(0,144.1179981634527)"><line stroke="#000" x2="-6"></line><text fill="#000" x="-9" dy="0.32em">50</text></g><g class="tick" opacity="1" transform="translate(0,107.38705234159778)"><line stroke="#000" x2="-6"></line><text fill="#000" x="-9" dy="0.32em">60</text></g><g class="tick" opacity="1" transform="translate(0,70.65610651974288)"><line stroke="#000" x2="-6"></line><text fill="#000" x="-9" dy="0.32em">70</text></g><g class="tick" opacity="1" transform="translate(0,33.92516069788792)"><line stroke="#000" x2="-6"></line><text fill="#000" x="-9" dy="0.32em">80</text></g></g><text class="y label" text-anchor="middle" y="-50" x="-180" dy="0.8em" transform="rotate(-90)" style="font-size: 13px; font-family: Arial;">Total number of references</text><g class="axisRed" fill="none" font-size="10" font-family="sans-serif" text-anchor="start" visibility="hidden" transform="translate(700, 0)"><path class="domain" stroke="#000" d="M6,360.5H0.5V0.5H6"></path><g class="tick" opacity="1" transform="translate(0,360.5)"><line stroke="#000" x2="6"></line><text fill="#000" x="9" dy="0.32em">0</text></g><text text-anchor="start" dx="5.2em" dy="-2.6em" transform="rotate(90)" visibility="hidden" style="font-size: 12px; font-family: Arial; fill: #d7301f;">No recurrent (&gt;2) missense mutations!</text></g><g class="axisPurple" fill="none" font-size="10" font-family="sans-serif" text-anchor="start" visibility="hidden"><path class="domain" stroke="#000" d="M6,360.5H0.5V0.5H6"></path><g class="tick" opacity="1" transform="translate(0,357.52479338842977)"><line stroke="#000" x2="6"></line><text fill="#000" x="9" dy="0.32em"></text></g><g class="tick" opacity="1" transform="translate(0,327.77272727272725)"><line stroke="#000" x2="6"></line><text fill="#000" x="9" dy="0.32em">0</text></g><g class="tick" opacity="1" transform="translate(0,298.0206611570248)"><line stroke="#000" x2="6"></line><text fill="#000" x="9" dy="0.32em">0.1</text></g><g class="tick" opacity="1" transform="translate(0,268.2685950413223)"><line stroke="#000" x2="6"></line><text fill="#000" x="9" dy="0.32em">0.2</text></g><g class="tick" opacity="1" transform="translate(0,238.51652892561984)"><line stroke="#000" x2="6"></line><text fill="#000" x="9" dy="0.32em">0.3</text></g><g class="tick" opacity="1" transform="translate(0,208.76446280991738)"><line stroke="#000" x2="6"></line><text fill="#000" x="9" dy="0.32em">0.4</text></g><g class="tick" opacity="1" transform="translate(0,179.0123966942149)"><line stroke="#000" x2="6"></line><text fill="#000" x="9" dy="0.32em">0.5</text></g><g class="tick" opacity="1" transform="translate(0,149.26033057851242)"><line stroke="#000" x2="6"></line><text fill="#000" x="9" dy="0.32em">0.6</text></g><g class="tick" opacity="1" transform="translate(0,119.50826446280996)"><line stroke="#000" x2="6"></line><text fill="#000" x="9" dy="0.32em">0.7</text></g><g class="tick" opacity="1" transform="translate(0,89.75619834710744)"><line stroke="#000" x2="6"></line><text fill="#000" x="9" dy="0.32em">0.8</text></g><g class="tick" opacity="1" transform="translate(0,60.00413223140498)"><line stroke="#000" x2="6"></line><text fill="#000" x="9" dy="0.32em">0.9</text></g><g class="tick" opacity="1" transform="translate(0,30.25206611570252)"><line stroke="#000" x2="6"></line><text fill="#000" x="9" dy="0.32em">1</text></g><g class="tick" opacity="1" transform="translate(0,0.5)"><line stroke="#000" x2="6"></line><text fill="#000" x="9" dy="0.32em">1.1</text></g><text text-anchor="start" x="10" y="10" visibility="hidden" style="font-size: 12px; font-family: Arial; fill: #807dba;">No disease causing germline SNPs known!</text></g><circle cx="636" cy="15" r="10" class="compassNav" style="fill: #ffffff; stroke: #666666; stroke-width: 1px;"></circle><path d="M440.935 12.574l3.966 82.766C399.416 41.904 331.674 8 256 8 134.813 8 33.933 94.924 12.296 209.824 10.908 217.193 16.604 224 24.103 224h49.084c5.57 0 10.377-3.842 11.676-9.259C103.407 137.408 172.931 80 256 80c60.893 0 114.512 30.856 146.104 77.801l-101.53-4.865c-6.845-.328-12.574 5.133-12.574 11.986v47.411c0 6.627 5.373 12 12 12h200.333c6.627 0 12-5.373 12-12V12c0-6.627-5.373-12-12-12h-47.411c-6.853 0-12.315 5.729-11.987 12.574zM256 432c-60.895 0-114.517-30.858-146.109-77.805l101.868 4.871c6.845.327 12.573-5.134 12.573-11.986v-47.412c0-6.627-5.373-12-12-12H12c-6.627 0-12 5.373-12 12V500c0 6.627 5.373 12 12 12h47.385c6.863 0 12.328-5.745 11.985-12.599l-4.129-82.575C112.725 470.166 180.405 504 256 504c121.187 0 222.067-86.924 243.704-201.824 1.388-7.369-4.308-14.176-11.807-14.176h-49.084c-5.57 0-10.377 3.842-11.676 9.259C408.593 374.592 339.069 432 256 432z" class="compassNav" transform="translate(631, 10) scale(0.02)" style="fill: #666666; stroke: #666666; stroke-width: 1px;"></path><circle cx="658" cy="15" r="10" class="compassNav" style="fill: #ffffff; stroke: #666666; stroke-width: 1px;"></circle><line class="compassNav" stroke-width="2" stroke="#666666" x1="654" y1="15" x2="662" y2="15"></line><line class="compassNav" stroke-width="2" stroke="#666666" x1="658" y1="11" x2="658" y2="19"></line><circle cx="614" cy="15" r="10" class="compassNav" style="fill: #ffffff; stroke: #666666; stroke-width: 1px;"></circle><line class="compassNav" stroke-width="2" stroke="#666666" x1="610" y1="15" x2="618" y2="15"></line><path d="M582 14 l20 -12 a100,40 0 0,0 0,24z" class="compassNav" style="fill: #ffffff; stroke: #666666; stroke-width: 1px;"></path><path d="M690 14 l-20 -12 a100,40 0 0,1 0,24z" class="compassNav" style="fill: #ffffff; stroke: #666666; stroke-width: 1px;"></path><path d="M216 0h80c13.3 0 24 10.7 24 24v168h87.7c17.8 0 26.7 21.5 14.1 34.1L269.7 378.3c-7.5 7.5-19.8 7.5-27.3 0L90.1 226.1c-12.6-12.6-3.7-34.1 14.1-34.1H192V24c0-13.3 10.7-24 24-24zm296 376v112c0 13.3-10.7 24-24 24H24c-13.3 0-24-10.7-24-24V376c0-13.3 10.7-24 24-24h146.7l49 49c20.1 20.1 52.5 20.1 72.6 0l49-49H488c13.3 0 24 10.7 24 24zm-124 88c0-11-9-20-20-20s-20 9-20 20 9 20 20 20 20-9 20-20zm64 0c0-11-9-20-20-20s-20 9-20 20 9 20 20 20 20-9 20-20z" class="compassNav" transform="translate(552,0) scale(0.05)" style="fill: #336699; stroke: #336699; stroke-width: 1px; cursor: pointer;"></path></g></svg>