<svg width="800" height="400" style="background-color: white;"><g transform="translate(50,0)"><svg width="700" height="360"><g style="-webkit-tap-highlight-color: rgba(0, 0, 0, 0);"><rect width="700" height="360" style="fill: #ffffff;"></rect><g id="lines"><line class="line" stroke-width="1" stroke="#d7301f" x1="-418.34319526627223" y1="333" x2="-418.34319526627223" y2="360" visibility="hidden" style="stroke-dasharray: 3px, 3px;"></line></g><g><rect x="-423.34319526627223" y="355" width="10" height="10" visibility="hidden" style="fill: #ffffff; stroke: #d7301f;"></rect></g><g id="lines"><line class="line" stroke-width="1" stroke="#6a51a3" x1="-418.34319526627223" y1="333" x2="-418.34319526627223" y2="327.27272727272725" visibility="hidden" style="stroke-dasharray: 3px, 3px;"></line></g><g><rect x="-423.34319526627223" y="322.27272727272725" width="10" height="10" visibility="hidden" style="fill: #ffffff; stroke: #6a51a3;"></rect></g><g id="lines"><line class="line" stroke-width="1" stroke="#666666" x1="202.9585798816568" y1="333" x2="202.9585798816568" y2="29.75206611570252"></line><line class="line" stroke-width="1" stroke="#666666" x1="207.10059171597635" y1="333" x2="207.10059171597635" y2="29.75206611570252"></line><line class="line" stroke-width="1" stroke="#666666" x1="596.4497041420118" y1="333" x2="596.4497041420118" y2="29.75206611570252"></line><line class="line" stroke-width="1" stroke="#666666" x1="650.2958579881656" y1="333" x2="650.2958579881656" y2="29.75206611570252"></line></g><g id="circles"><circle r="4" cx="202.9585798816568" cy="29.75206611570252" style="fill: #4393c3; stroke: #666666; stroke-width: 1px;"></circle><circle r="4" cx="207.10059171597635" cy="29.75206611570252" style="fill: #4393c3; stroke: #666666; stroke-width: 1px;"></circle><circle r="4" cx="596.4497041420118" cy="29.75206611570252" style="fill: #5aae61; stroke: #666666; stroke-width: 1px;"></circle><circle r="4" cx="650.2958579881656" cy="29.75206611570252" style="fill: #5aae61; stroke: #666666; stroke-width: 1px;"></circle></g><g><rect x="0" y="333" width="700" height="12" style="fill: #ffffff; stroke-width: 1px; stroke: #666666;"></rect><rect x="124.2603550295858" y="333" width="414.20118343195264" height="12" style="fill: #aec7e8; stroke-width: 1px; stroke: #666666;"></rect><rect x="559.1715976331361" y="333" width="111.83431952662716" height="12" style="fill: #ffbb78; stroke-width: 1px; stroke: #666666;"></rect></g><g><a target="_blank" xlink:href="http://pfam.xfam.org/family/"><text y="343" x="350" text-anchor="middle" style="color: rgb(102, 102, 102); font-weight: normal; font-size: 12px; font-family: Arial; cursor: pointer;"></text></a><a target="_blank" xlink:href="http://pfam.xfam.org/family/Cathelicidins"><text y="343" x="331.3609467455621" text-anchor="middle" style="color: rgb(102, 102, 102); font-weight: normal; font-size: 12px; font-family: Arial; cursor: pointer;">Cathelicidins</text></a><a target="_blank" xlink:href="http://pfam.xfam.org/family/CAP18_C"><text y="343" x="615.0887573964496" text-anchor="middle" style="color: rgb(102, 102, 102); font-weight: normal; font-size: 12px; font-family: Arial; cursor: pointer;">CAP18_C</text></a></g><g><text y="358" x="0" text-anchor="middle" visibility="hidden" style="font-size: 13px;">M</text><text y="358" x="4.1420118343195265" text-anchor="middle" visibility="hidden" style="font-size: 13px;">K</text><text y="358" x="8.284023668639053" text-anchor="middle" visibility="hidden" style="font-size: 13px;">T</text><text y="358" x="12.42603550295858" text-anchor="middle" visibility="hidden" style="font-size: 13px;">Q</text><text y="358" x="16.568047337278106" text-anchor="middle" visibility="hidden" style="font-size: 13px;">R</text><text y="358" x="20.71005917159763" text-anchor="middle" visibility="hidden" style="font-size: 13px;">D</text><text y="358" x="24.85207100591716" text-anchor="middle" visibility="hidden" style="font-size: 13px;">G</text><text y="358" x="28.99408284023669" text-anchor="middle" visibility="hidden" style="font-size: 13px;">H</text><text y="358" x="33.13609467455621" text-anchor="middle" visibility="hidden" style="font-size: 13px;">S</text><text y="358" x="37.27810650887574" text-anchor="middle" visibility="hidden" style="font-size: 13px;">L</text><text y="358" x="41.42011834319526" text-anchor="middle" visibility="hidden" style="font-size: 13px;">G</text><text y="358" x="45.562130177514796" text-anchor="middle" visibility="hidden" style="font-size: 13px;">R</text><text y="358" x="49.70414201183432" text-anchor="middle" visibility="hidden" style="font-size: 13px;">W</text><text y="358" x="53.84615384615385" text-anchor="middle" visibility="hidden" style="font-size: 13px;">S</text><text y="358" x="57.98816568047338" text-anchor="middle" visibility="hidden" style="font-size: 13px;">L</text><text y="358" x="62.1301775147929" text-anchor="middle" visibility="hidden" style="font-size: 13px;">V</text><text y="358" x="66.27218934911242" text-anchor="middle" visibility="hidden" style="font-size: 13px;">L</text><text y="358" x="70.41420118343196" text-anchor="middle" visibility="hidden" style="font-size: 13px;">L</text><text y="358" x="74.55621301775147" text-anchor="middle" visibility="hidden" style="font-size: 13px;">L</text><text y="358" x="78.69822485207101" text-anchor="middle" visibility="hidden" style="font-size: 13px;">L</text><text y="358" x="82.84023668639053" text-anchor="middle" visibility="hidden" style="font-size: 13px;">G</text><text y="358" x="86.98224852071006" text-anchor="middle" visibility="hidden" style="font-size: 13px;">L</text><text y="358" x="91.12426035502959" text-anchor="middle" visibility="hidden" style="font-size: 13px;">V</text><text y="358" x="95.26627218934911" text-anchor="middle" visibility="hidden" style="font-size: 13px;">M</text><text y="358" x="99.40828402366864" text-anchor="middle" visibility="hidden" style="font-size: 13px;">P</text><text y="358" x="103.55029585798817" text-anchor="middle" visibility="hidden" style="font-size: 13px;">L</text><text y="358" x="107.6923076923077" text-anchor="middle" visibility="hidden" style="font-size: 13px;">A</text><text y="358" x="111.83431952662723" text-anchor="middle" visibility="hidden" style="font-size: 13px;">I</text><text y="358" x="115.97633136094676" text-anchor="middle" visibility="hidden" style="font-size: 13px;">I</text><text y="358" x="120.11834319526626" text-anchor="middle" visibility="hidden" style="font-size: 13px;">A</text><text y="358" x="124.2603550295858" text-anchor="middle" visibility="hidden" style="font-size: 13px;">Q</text><text y="358" x="128.4023668639053" text-anchor="middle" visibility="hidden" style="font-size: 13px;">V</text><text y="358" x="132.54437869822485" text-anchor="middle" visibility="hidden" style="font-size: 13px;">L</text><text y="358" x="136.68639053254438" text-anchor="middle" visibility="hidden" style="font-size: 13px;">S</text><text y="358" x="140.8284023668639" text-anchor="middle" visibility="hidden" style="font-size: 13px;">Y</text><text y="358" x="144.97041420118344" text-anchor="middle" visibility="hidden" style="font-size: 13px;">K</text><text y="358" x="149.11242603550295" text-anchor="middle" visibility="hidden" style="font-size: 13px;">E</text><text y="358" x="153.25443786982248" text-anchor="middle" visibility="hidden" style="font-size: 13px;">A</text><text y="358" x="157.39644970414201" text-anchor="middle" visibility="hidden" style="font-size: 13px;">V</text><text y="358" x="161.53846153846155" text-anchor="middle" visibility="hidden" style="font-size: 13px;">L</text><text y="358" x="165.68047337278105" text-anchor="middle" visibility="hidden" style="font-size: 13px;">R</text><text y="358" x="169.82248520710058" text-anchor="middle" visibility="hidden" style="font-size: 13px;">A</text><text y="358" x="173.96449704142012" text-anchor="middle" visibility="hidden" style="font-size: 13px;">I</text><text y="358" x="178.10650887573965" text-anchor="middle" visibility="hidden" style="font-size: 13px;">D</text><text y="358" x="182.24852071005918" text-anchor="middle" visibility="hidden" style="font-size: 13px;">G</text><text y="358" x="186.39053254437871" text-anchor="middle" visibility="hidden" style="font-size: 13px;">I</text><text y="358" x="190.53254437869822" text-anchor="middle" visibility="hidden" style="font-size: 13px;">N</text><text y="358" x="194.67455621301772" text-anchor="middle" visibility="hidden" style="font-size: 13px;">Q</text><text y="358" x="198.81656804733728" text-anchor="middle" visibility="hidden" style="font-size: 13px;">R</text><text y="358" x="202.9585798816568" text-anchor="middle" visibility="hidden" style="font-size: 13px;">S</text><text y="358" x="207.10059171597635" text-anchor="middle" visibility="hidden" style="font-size: 13px;">S</text><text y="358" x="211.24260355029585" text-anchor="middle" visibility="hidden" style="font-size: 13px;">D</text><text y="358" x="215.3846153846154" text-anchor="middle" visibility="hidden" style="font-size: 13px;">A</text><text y="358" x="219.52662721893492" text-anchor="middle" visibility="hidden" style="font-size: 13px;">N</text><text y="358" x="223.66863905325445" text-anchor="middle" visibility="hidden" style="font-size: 13px;">L</text><text y="358" x="227.81065088757396" text-anchor="middle" visibility="hidden" style="font-size: 13px;">Y</text><text y="358" x="231.95266272189352" text-anchor="middle" visibility="hidden" style="font-size: 13px;">R</text><text y="358" x="236.09467455621302" text-anchor="middle" visibility="hidden" style="font-size: 13px;">L</text><text y="358" x="240.23668639053253" text-anchor="middle" visibility="hidden" style="font-size: 13px;">L</text><text y="358" x="244.3786982248521" text-anchor="middle" visibility="hidden" style="font-size: 13px;">D</text><text y="358" x="248.5207100591716" text-anchor="middle" visibility="hidden" style="font-size: 13px;">L</text><text y="358" x="252.66272189349112" text-anchor="middle" visibility="hidden" style="font-size: 13px;">D</text><text y="358" x="256.8047337278106" text-anchor="middle" visibility="hidden" style="font-size: 13px;">P</text><text y="358" x="260.94674556213016" text-anchor="middle" visibility="hidden" style="font-size: 13px;">R</text><text y="358" x="265.0887573964497" text-anchor="middle" visibility="hidden" style="font-size: 13px;">P</text><text y="358" x="269.2307692307692" text-anchor="middle" visibility="hidden" style="font-size: 13px;">T</text><text y="358" x="273.37278106508876" text-anchor="middle" visibility="hidden" style="font-size: 13px;">M</text><text y="358" x="277.5147928994083" text-anchor="middle" visibility="hidden" style="font-size: 13px;">D</text><text y="358" x="281.6568047337278" text-anchor="middle" visibility="hidden" style="font-size: 13px;">G</text><text y="358" x="285.7988165680473" text-anchor="middle" visibility="hidden" style="font-size: 13px;">D</text><text y="358" x="289.9408284023669" text-anchor="middle" visibility="hidden" style="font-size: 13px;">P</text><text y="358" x="294.08284023668637" text-anchor="middle" visibility="hidden" style="font-size: 13px;">D</text><text y="358" x="298.2248520710059" text-anchor="middle" visibility="hidden" style="font-size: 13px;">T</text><text y="358" x="302.36686390532543" text-anchor="middle" visibility="hidden" style="font-size: 13px;">P</text><text y="358" x="306.50887573964496" text-anchor="middle" visibility="hidden" style="font-size: 13px;">K</text><text y="358" x="310.6508875739645" text-anchor="middle" visibility="hidden" style="font-size: 13px;">P</text><text y="358" x="314.79289940828403" text-anchor="middle" visibility="hidden" style="font-size: 13px;">V</text><text y="358" x="318.93491124260356" text-anchor="middle" visibility="hidden" style="font-size: 13px;">S</text><text y="358" x="323.0769230769231" text-anchor="middle" visibility="hidden" style="font-size: 13px;">F</text><text y="358" x="327.2189349112426" text-anchor="middle" visibility="hidden" style="font-size: 13px;">T</text><text y="358" x="331.3609467455621" text-anchor="middle" visibility="hidden" style="font-size: 13px;">V</text><text y="358" x="335.50295857988164" text-anchor="middle" visibility="hidden" style="font-size: 13px;">K</text><text y="358" x="339.64497041420117" text-anchor="middle" visibility="hidden" style="font-size: 13px;">E</text><text y="358" x="343.7869822485207" text-anchor="middle" visibility="hidden" style="font-size: 13px;">T</text><text y="358" x="347.92899408284023" text-anchor="middle" visibility="hidden" style="font-size: 13px;">V</text><text y="358" x="352.07100591715977" text-anchor="middle" visibility="hidden" style="font-size: 13px;">C</text><text y="358" x="356.2130177514793" text-anchor="middle" visibility="hidden" style="font-size: 13px;">P</text><text y="358" x="360.3550295857988" text-anchor="middle" visibility="hidden" style="font-size: 13px;">R</text><text y="358" x="364.49704142011836" text-anchor="middle" visibility="hidden" style="font-size: 13px;">T</text><text y="358" x="368.6390532544379" text-anchor="middle" visibility="hidden" style="font-size: 13px;">T</text><text y="358" x="372.78106508875743" text-anchor="middle" visibility="hidden" style="font-size: 13px;">Q</text><text y="358" x="376.9230769230769" text-anchor="middle" visibility="hidden" style="font-size: 13px;">Q</text><text y="358" x="381.06508875739644" text-anchor="middle" visibility="hidden" style="font-size: 13px;">S</text><text y="358" x="385.207100591716" text-anchor="middle" visibility="hidden" style="font-size: 13px;">P</text><text y="358" x="389.34911242603545" text-anchor="middle" visibility="hidden" style="font-size: 13px;">E</text><text y="358" x="393.49112426035504" text-anchor="middle" visibility="hidden" style="font-size: 13px;">D</text><text y="358" x="397.63313609467457" text-anchor="middle" visibility="hidden" style="font-size: 13px;">C</text><text y="358" x="401.7751479289941" text-anchor="middle" visibility="hidden" style="font-size: 13px;">D</text><text y="358" x="405.9171597633136" text-anchor="middle" visibility="hidden" style="font-size: 13px;">F</text><text y="358" x="410.0591715976331" text-anchor="middle" visibility="hidden" style="font-size: 13px;">K</text><text y="358" x="414.2011834319527" text-anchor="middle" visibility="hidden" style="font-size: 13px;">K</text><text y="358" x="418.34319526627223" text-anchor="middle" visibility="hidden" style="font-size: 13px;">D</text><text y="358" x="422.4852071005917" text-anchor="middle" visibility="hidden" style="font-size: 13px;">G</text><text y="358" x="426.62721893491124" text-anchor="middle" visibility="hidden" style="font-size: 13px;">L</text><text y="358" x="430.7692307692308" text-anchor="middle" visibility="hidden" style="font-size: 13px;">V</text><text y="358" x="434.91124260355025" text-anchor="middle" visibility="hidden" style="font-size: 13px;">K</text><text y="358" x="439.05325443786984" text-anchor="middle" visibility="hidden" style="font-size: 13px;">R</text><text y="358" x="443.1952662721894" text-anchor="middle" visibility="hidden" style="font-size: 13px;">C</text><text y="358" x="447.3372781065089" text-anchor="middle" visibility="hidden" style="font-size: 13px;">M</text><text y="358" x="451.4792899408284" text-anchor="middle" visibility="hidden" style="font-size: 13px;">G</text><text y="358" x="455.6213017751479" text-anchor="middle" visibility="hidden" style="font-size: 13px;">T</text><text y="358" x="459.76331360946745" text-anchor="middle" visibility="hidden" style="font-size: 13px;">V</text><text y="358" x="463.90532544378704" text-anchor="middle" visibility="hidden" style="font-size: 13px;">T</text><text y="358" x="468.0473372781065" text-anchor="middle" visibility="hidden" style="font-size: 13px;">L</text><text y="358" x="472.18934911242604" text-anchor="middle" visibility="hidden" style="font-size: 13px;">N</text><text y="358" x="476.3313609467456" text-anchor="middle" visibility="hidden" style="font-size: 13px;">Q</text><text y="358" x="480.47337278106505" text-anchor="middle" visibility="hidden" style="font-size: 13px;">A</text><text y="358" x="484.6153846153846" text-anchor="middle" visibility="hidden" style="font-size: 13px;">R</text><text y="358" x="488.7573964497042" text-anchor="middle" visibility="hidden" style="font-size: 13px;">G</text><text y="358" x="492.8994082840237" text-anchor="middle" visibility="hidden" style="font-size: 13px;">S</text><text y="358" x="497.0414201183432" text-anchor="middle" visibility="hidden" style="font-size: 13px;">F</text><text y="358" x="501.1834319526627" text-anchor="middle" visibility="hidden" style="font-size: 13px;">D</text><text y="358" x="505.32544378698225" text-anchor="middle" visibility="hidden" style="font-size: 13px;">I</text><text y="358" x="509.46745562130184" text-anchor="middle" visibility="hidden" style="font-size: 13px;">S</text><text y="358" x="513.6094674556213" text-anchor="middle" visibility="hidden" style="font-size: 13px;">C</text><text y="358" x="517.7514792899408" text-anchor="middle" visibility="hidden" style="font-size: 13px;">D</text><text y="358" x="521.8934911242603" text-anchor="middle" visibility="hidden" style="font-size: 13px;">K</text><text y="358" x="526.0355029585799" text-anchor="middle" visibility="hidden" style="font-size: 13px;">D</text><text y="358" x="530.1775147928994" text-anchor="middle" visibility="hidden" style="font-size: 13px;">N</text><text y="358" x="534.3195266272189" text-anchor="middle" visibility="hidden" style="font-size: 13px;">K</text><text y="358" x="538.4615384615385" text-anchor="middle" visibility="hidden" style="font-size: 13px;">R</text><text y="358" x="542.603550295858" text-anchor="middle" visibility="hidden" style="font-size: 13px;">F</text><text y="358" x="546.7455621301775" text-anchor="middle" visibility="hidden" style="font-size: 13px;">A</text><text y="358" x="550.887573964497" text-anchor="middle" visibility="hidden" style="font-size: 13px;">L</text><text y="358" x="555.0295857988166" text-anchor="middle" visibility="hidden" style="font-size: 13px;">L</text><text y="358" x="559.1715976331361" text-anchor="middle" visibility="hidden" style="font-size: 13px;">G</text><text y="358" x="563.3136094674556" text-anchor="middle" visibility="hidden" style="font-size: 13px;">D</text><text y="358" x="567.4556213017752" text-anchor="middle" visibility="hidden" style="font-size: 13px;">F</text><text y="358" x="571.5976331360946" text-anchor="middle" visibility="hidden" style="font-size: 13px;">F</text><text y="358" x="575.7396449704141" text-anchor="middle" visibility="hidden" style="font-size: 13px;">R</text><text y="358" x="579.8816568047338" text-anchor="middle" visibility="hidden" style="font-size: 13px;">K</text><text y="358" x="584.0236686390533" text-anchor="middle" visibility="hidden" style="font-size: 13px;">S</text><text y="358" x="588.1656804733727" text-anchor="middle" visibility="hidden" style="font-size: 13px;">K</text><text y="358" x="592.3076923076923" text-anchor="middle" visibility="hidden" style="font-size: 13px;">E</text><text y="358" x="596.4497041420118" text-anchor="middle" visibility="hidden" style="font-size: 13px;">K</text><text y="358" x="600.5917159763314" text-anchor="middle" visibility="hidden" style="font-size: 13px;">I</text><text y="358" x="604.7337278106509" text-anchor="middle" visibility="hidden" style="font-size: 13px;">G</text><text y="358" x="608.8757396449704" text-anchor="middle" visibility="hidden" style="font-size: 13px;">K</text><text y="358" x="613.0177514792899" text-anchor="middle" visibility="hidden" style="font-size: 13px;">E</text><text y="358" x="617.1597633136095" text-anchor="middle" visibility="hidden" style="font-size: 13px;">F</text><text y="358" x="621.301775147929" text-anchor="middle" visibility="hidden" style="font-size: 13px;">K</text><text y="358" x="625.4437869822485" text-anchor="middle" visibility="hidden" style="font-size: 13px;">R</text><text y="358" x="629.5857988165681" text-anchor="middle" visibility="hidden" style="font-size: 13px;">I</text><text y="358" x="633.7278106508876" text-anchor="middle" visibility="hidden" style="font-size: 13px;">V</text><text y="358" x="637.8698224852071" text-anchor="middle" visibility="hidden" style="font-size: 13px;">Q</text><text y="358" x="642.0118343195267" text-anchor="middle" visibility="hidden" style="font-size: 13px;">R</text><text y="358" x="646.1538461538462" text-anchor="middle" visibility="hidden" style="font-size: 13px;">I</text><text y="358" x="650.2958579881656" text-anchor="middle" visibility="hidden" style="font-size: 13px;">K</text><text y="358" x="654.4378698224853" text-anchor="middle" visibility="hidden" style="font-size: 13px;">D</text><text y="358" x="658.5798816568048" text-anchor="middle" visibility="hidden" style="font-size: 13px;">F</text><text y="358" x="662.7218934911242" text-anchor="middle" visibility="hidden" style="font-size: 13px;">L</text><text y="358" x="666.8639053254437" text-anchor="middle" visibility="hidden" style="font-size: 13px;">R</text><text y="358" x="671.0059171597633" text-anchor="middle" visibility="hidden" style="font-size: 13px;">N</text><text y="358" x="675.1479289940829" text-anchor="middle" visibility="hidden" style="font-size: 13px;">L</text><text y="358" x="679.2899408284023" text-anchor="middle" visibility="hidden" style="font-size: 13px;">V</text><text y="358" x="683.4319526627219" text-anchor="middle" visibility="hidden" style="font-size: 13px;">P</text><text y="358" x="687.5739644970414" text-anchor="middle" visibility="hidden" style="font-size: 13px;">R</text><text y="358" x="691.7159763313609" text-anchor="middle" visibility="hidden" style="font-size: 13px;">T</text><text y="358" x="695.8579881656805" text-anchor="middle" visibility="hidden" style="font-size: 13px;">E</text><text y="358" x="700" text-anchor="middle" visibility="hidden" style="font-size: 13px;">S</text></g></g></svg><g class="xAxis" transform="translate(0,360)" fill="none" font-size="10" font-family="sans-serif" text-anchor="middle"><path class="domain" stroke="#000" d="M0.5,6V0.5H700.5V6"></path><g class="tick" opacity="1" transform="translate(79.19822485207101,0)"><line stroke="#000" y2="6"></line><text fill="#000" y="9" dy="0.71em">20</text></g><g class="tick" opacity="1" transform="translate(162.03846153846155,0)"><line stroke="#000" y2="6"></line><text fill="#000" y="9" dy="0.71em">40</text></g><g class="tick" opacity="1" transform="translate(244.8786982248521,0)"><line stroke="#000" y2="6"></line><text fill="#000" y="9" dy="0.71em">60</text></g><g class="tick" opacity="1" transform="translate(327.7189349112426,0)"><line stroke="#000" y2="6"></line><text fill="#000" y="9" dy="0.71em">80</text></g><g class="tick" opacity="1" transform="translate(410.5591715976331,0)"><line stroke="#000" y2="6"></line><text fill="#000" y="9" dy="0.71em">100</text></g><g class="tick" opacity="1" transform="translate(493.3994082840237,0)"><line stroke="#000" y2="6"></line><text fill="#000" y="9" dy="0.71em">120</text></g><g class="tick" opacity="1" transform="translate(576.2396449704141,0)"><line stroke="#000" y2="6"></line><text fill="#000" y="9" dy="0.71em">140</text></g><g class="tick" opacity="1" transform="translate(659.0798816568048,0)"><line stroke="#000" y2="6"></line><text fill="#000" y="9" dy="0.71em">160</text></g></g><text class="x label" text-anchor="end" x="700" y="390" style="font-size: 13px; font-family: Arial;">Residue number</text><g class="yAxis" fill="none" font-size="10" font-family="sans-serif" text-anchor="end"><path class="domain" stroke="#000" d="M-6,360.5H0.5V0.5H-6"></path><g class="tick" opacity="1" transform="translate(0,357.52479338842977)"><line stroke="#000" x2="-6"></line><text fill="#000" x="-9" dy="0.32em"></text></g><g class="tick" opacity="1" transform="translate(0,327.77272727272725)"><line stroke="#000" x2="-6"></line><text fill="#000" x="-9" dy="0.32em">0</text></g><g class="tick" opacity="1" transform="translate(0,298.0206611570248)"><line stroke="#000" x2="-6"></line><text fill="#000" x="-9" dy="0.32em">0.1</text></g><g class="tick" opacity="1" transform="translate(0,268.2685950413223)"><line stroke="#000" x2="-6"></line><text fill="#000" x="-9" dy="0.32em">0.2</text></g><g class="tick" opacity="1" transform="translate(0,238.51652892561984)"><line stroke="#000" x2="-6"></line><text fill="#000" x="-9" dy="0.32em">0.3</text></g><g class="tick" opacity="1" transform="translate(0,208.76446280991738)"><line stroke="#000" x2="-6"></line><text fill="#000" x="-9" dy="0.32em">0.4</text></g><g class="tick" opacity="1" transform="translate(0,179.0123966942149)"><line stroke="#000" x2="-6"></line><text fill="#000" x="-9" dy="0.32em">0.5</text></g><g class="tick" opacity="1" transform="translate(0,149.26033057851242)"><line stroke="#000" x2="-6"></line><text fill="#000" x="-9" dy="0.32em">0.6</text></g><g class="tick" opacity="1" transform="translate(0,119.50826446280996)"><line stroke="#000" x2="-6"></line><text fill="#000" x="-9" dy="0.32em">0.7</text></g><g class="tick" opacity="1" transform="translate(0,89.75619834710744)"><line stroke="#000" x2="-6"></line><text fill="#000" x="-9" dy="0.32em">0.8</text></g><g class="tick" opacity="1" transform="translate(0,60.00413223140498)"><line stroke="#000" x2="-6"></line><text fill="#000" x="-9" dy="0.32em">0.9</text></g><g class="tick" opacity="1" transform="translate(0,30.25206611570252)"><line stroke="#000" x2="-6"></line><text fill="#000" x="-9" dy="0.32em">1</text></g><g class="tick" opacity="1" transform="translate(0,0.5)"><line stroke="#000" x2="-6"></line><text fill="#000" x="-9" dy="0.32em">1.1</text></g></g><text class="y label" text-anchor="middle" y="-50" x="-180" dy="0.8em" transform="rotate(-90)" style="font-size: 13px; font-family: Arial;">Total number of references</text><g class="axisRed" fill="none" font-size="10" font-family="sans-serif" text-anchor="start" visibility="hidden" transform="translate(700, 0)"><path class="domain" stroke="#000" d="M6,360.5H0.5V0.5H6"></path><g class="tick" opacity="1" transform="translate(0,360.5)"><line stroke="#000" x2="6"></line><text fill="#000" x="9" dy="0.32em">0</text></g><text text-anchor="start" dx="5.2em" dy="-2.6em" transform="rotate(90)" visibility="hidden" style="font-size: 12px; font-family: Arial; fill: #d7301f;">No recurrent (&gt;2) missense mutations!</text></g><g class="axisPurple" fill="none" font-size="10" font-family="sans-serif" text-anchor="start" visibility="hidden"><path class="domain" stroke="#000" d="M6,360.5H0.5V0.5H6"></path><g class="tick" opacity="1" transform="translate(0,357.52479338842977)"><line stroke="#000" x2="6"></line><text fill="#000" x="9" dy="0.32em"></text></g><g class="tick" opacity="1" transform="translate(0,327.77272727272725)"><line stroke="#000" x2="6"></line><text fill="#000" x="9" dy="0.32em">0</text></g><g class="tick" opacity="1" transform="translate(0,298.0206611570248)"><line stroke="#000" x2="6"></line><text fill="#000" x="9" dy="0.32em">0.1</text></g><g class="tick" opacity="1" transform="translate(0,268.2685950413223)"><line stroke="#000" x2="6"></line><text fill="#000" x="9" dy="0.32em">0.2</text></g><g class="tick" opacity="1" transform="translate(0,238.51652892561984)"><line stroke="#000" x2="6"></line><text fill="#000" x="9" dy="0.32em">0.3</text></g><g class="tick" opacity="1" transform="translate(0,208.76446280991738)"><line stroke="#000" x2="6"></line><text fill="#000" x="9" dy="0.32em">0.4</text></g><g class="tick" opacity="1" transform="translate(0,179.0123966942149)"><line stroke="#000" x2="6"></line><text fill="#000" x="9" dy="0.32em">0.5</text></g><g class="tick" opacity="1" transform="translate(0,149.26033057851242)"><line stroke="#000" x2="6"></line><text fill="#000" x="9" dy="0.32em">0.6</text></g><g class="tick" opacity="1" transform="translate(0,119.50826446280996)"><line stroke="#000" x2="6"></line><text fill="#000" x="9" dy="0.32em">0.7</text></g><g class="tick" opacity="1" transform="translate(0,89.75619834710744)"><line stroke="#000" x2="6"></line><text fill="#000" x="9" dy="0.32em">0.8</text></g><g class="tick" opacity="1" transform="translate(0,60.00413223140498)"><line stroke="#000" x2="6"></line><text fill="#000" x="9" dy="0.32em">0.9</text></g><g class="tick" opacity="1" transform="translate(0,30.25206611570252)"><line stroke="#000" x2="6"></line><text fill="#000" x="9" dy="0.32em">1</text></g><g class="tick" opacity="1" transform="translate(0,0.5)"><line stroke="#000" x2="6"></line><text fill="#000" x="9" dy="0.32em">1.1</text></g><text text-anchor="start" x="10" y="10" visibility="hidden" style="font-size: 12px; font-family: Arial; fill: #807dba;">No disease causing germline SNPs known!</text></g><circle cx="636" cy="15" r="10" class="compassNav" style="fill: #ffffff; stroke: #666666; stroke-width: 1px;"></circle><path d="M440.935 12.574l3.966 82.766C399.416 41.904 331.674 8 256 8 134.813 8 33.933 94.924 12.296 209.824 10.908 217.193 16.604 224 24.103 224h49.084c5.57 0 10.377-3.842 11.676-9.259C103.407 137.408 172.931 80 256 80c60.893 0 114.512 30.856 146.104 77.801l-101.53-4.865c-6.845-.328-12.574 5.133-12.574 11.986v47.411c0 6.627 5.373 12 12 12h200.333c6.627 0 12-5.373 12-12V12c0-6.627-5.373-12-12-12h-47.411c-6.853 0-12.315 5.729-11.987 12.574zM256 432c-60.895 0-114.517-30.858-146.109-77.805l101.868 4.871c6.845.327 12.573-5.134 12.573-11.986v-47.412c0-6.627-5.373-12-12-12H12c-6.627 0-12 5.373-12 12V500c0 6.627 5.373 12 12 12h47.385c6.863 0 12.328-5.745 11.985-12.599l-4.129-82.575C112.725 470.166 180.405 504 256 504c121.187 0 222.067-86.924 243.704-201.824 1.388-7.369-4.308-14.176-11.807-14.176h-49.084c-5.57 0-10.377 3.842-11.676 9.259C408.593 374.592 339.069 432 256 432z" class="compassNav" transform="translate(631, 10) scale(0.02)" style="fill: #666666; stroke: #666666; stroke-width: 1px;"></path><circle cx="658" cy="15" r="10" class="compassNav" style="fill: #ffffff; stroke: #666666; stroke-width: 1px;"></circle><line class="compassNav" stroke-width="2" stroke="#666666" x1="654" y1="15" x2="662" y2="15"></line><line class="compassNav" stroke-width="2" stroke="#666666" x1="658" y1="11" x2="658" y2="19"></line><circle cx="614" cy="15" r="10" class="compassNav" style="fill: #ffffff; stroke: #666666; stroke-width: 1px;"></circle><line class="compassNav" stroke-width="2" stroke="#666666" x1="610" y1="15" x2="618" y2="15"></line><path d="M582 14 l20 -12 a100,40 0 0,0 0,24z" class="compassNav" style="fill: #ffffff; stroke: #666666; stroke-width: 1px;"></path><path d="M690 14 l-20 -12 a100,40 0 0,1 0,24z" class="compassNav" style="fill: #ffffff; stroke: #666666; stroke-width: 1px;"></path><path d="M216 0h80c13.3 0 24 10.7 24 24v168h87.7c17.8 0 26.7 21.5 14.1 34.1L269.7 378.3c-7.5 7.5-19.8 7.5-27.3 0L90.1 226.1c-12.6-12.6-3.7-34.1 14.1-34.1H192V24c0-13.3 10.7-24 24-24zm296 376v112c0 13.3-10.7 24-24 24H24c-13.3 0-24-10.7-24-24V376c0-13.3 10.7-24 24-24h146.7l49 49c20.1 20.1 52.5 20.1 72.6 0l49-49H488c13.3 0 24 10.7 24 24zm-124 88c0-11-9-20-20-20s-20 9-20 20 9 20 20 20 20-9 20-20zm64 0c0-11-9-20-20-20s-20 9-20 20 9 20 20 20 20-9 20-20z" class="compassNav" transform="translate(552,0) scale(0.05)" style="fill: #336699; stroke: #336699; stroke-width: 1px; cursor: pointer;"></path></g></svg>