<svg width="800" height="400" style="background-color: white;"><g transform="translate(50,0)"><svg width="700" height="360"><g style="-webkit-tap-highlight-color: rgba(0, 0, 0, 0);"><rect width="700" height="360" style="fill: #ffffff;"></rect><g id="lines"><line class="line" stroke-width="1" stroke="#d7301f" x1="-519.8529411764706" y1="333" x2="-519.8529411764706" y2="360" visibility="hidden" style="stroke-dasharray: 3px, 3px;"></line></g><g><rect x="-524.8529411764706" y="355" width="10" height="10" visibility="hidden" style="fill: #ffffff; stroke: #d7301f;"></rect></g><g id="lines"><line class="line" stroke-width="1" stroke="#6a51a3" x1="-519.8529411764706" y1="333" x2="-519.8529411764706" y2="327.27272727272725" visibility="hidden" style="stroke-dasharray: 3px, 3px;"></line></g><g><rect x="-524.8529411764706" y="322.27272727272725" width="10" height="10" visibility="hidden" style="fill: #ffffff; stroke: #6a51a3;"></rect></g><g id="lines"><line class="line" stroke-width="1" stroke="#666666" x1="5.147058823529412" y1="333" x2="5.147058823529412" y2="321.5511760966306"></line><line class="line" stroke-width="1" stroke="#666666" x1="30.88235294117647" y1="333" x2="30.88235294117647" y2="324.41195168467897"></line><line class="line" stroke-width="1" stroke="#666666" x1="51.470588235294116" y1="333" x2="51.470588235294116" y2="324.41195168467897"></line><line class="line" stroke-width="1" stroke="#666666" x1="61.76470588235294" y1="333" x2="61.76470588235294" y2="324.41195168467897"></line><line class="line" stroke-width="1" stroke="#666666" x1="61.76470588235294" y1="333" x2="61.76470588235294" y2="324.41195168467897"></line><line class="line" stroke-width="1" stroke="#666666" x1="61.76470588235294" y1="333" x2="61.76470588235294" y2="324.41195168467897"></line><line class="line" stroke-width="1" stroke="#666666" x1="102.94117647058823" y1="333" x2="102.94117647058823" y2="29.75206611570252"></line><line class="line" stroke-width="1" stroke="#666666" x1="108.08823529411765" y1="333" x2="108.08823529411765" y2="287.2218690400509"></line><line class="line" stroke-width="1" stroke="#666666" x1="211.02941176470588" y1="333" x2="211.02941176470588" y2="324.41195168467897"></line><line class="line" stroke-width="1" stroke="#666666" x1="216.1764705882353" y1="333" x2="216.1764705882353" y2="324.41195168467897"></line><line class="line" stroke-width="1" stroke="#666666" x1="241.91176470588235" y1="333" x2="241.91176470588235" y2="324.41195168467897"></line><line class="line" stroke-width="1" stroke="#666666" x1="283.0882352941176" y1="333" x2="283.0882352941176" y2="321.5511760966306"></line><line class="line" stroke-width="1" stroke="#666666" x1="283.0882352941176" y1="333" x2="283.0882352941176" y2="324.41195168467897"></line><line class="line" stroke-width="1" stroke="#666666" x1="303.6764705882353" y1="333" x2="303.6764705882353" y2="324.41195168467897"></line><line class="line" stroke-width="1" stroke="#666666" x1="303.6764705882353" y1="333" x2="303.6764705882353" y2="324.41195168467897"></line><line class="line" stroke-width="1" stroke="#666666" x1="303.6764705882353" y1="333" x2="303.6764705882353" y2="321.5511760966306"></line><line class="line" stroke-width="1" stroke="#666666" x1="339.70588235294116" y1="333" x2="339.70588235294116" y2="318.69040050858234"></line><line class="line" stroke-width="1" stroke="#666666" x1="339.70588235294116" y1="333" x2="339.70588235294116" y2="321.5511760966306"></line><line class="line" stroke-width="1" stroke="#666666" x1="339.70588235294116" y1="333" x2="339.70588235294116" y2="324.41195168467897"></line><line class="line" stroke-width="1" stroke="#666666" x1="375.7352941176471" y1="333" x2="375.7352941176471" y2="324.41195168467897"></line><line class="line" stroke-width="1" stroke="#666666" x1="463.2352941176471" y1="333" x2="463.2352941176471" y2="321.5511760966306"></line><line class="line" stroke-width="1" stroke="#666666" x1="494.11764705882354" y1="333" x2="494.11764705882354" y2="324.41195168467897"></line><line class="line" stroke-width="1" stroke="#666666" x1="494.11764705882354" y1="333" x2="494.11764705882354" y2="324.41195168467897"></line><line class="line" stroke-width="1" stroke="#666666" x1="504.4117647058824" y1="333" x2="504.4117647058824" y2="324.41195168467897"></line><line class="line" stroke-width="1" stroke="#666666" x1="514.7058823529412" y1="333" x2="514.7058823529412" y2="318.69040050858234"></line><line class="line" stroke-width="1" stroke="#666666" x1="525" y1="333" x2="525" y2="307.2472981563891"></line><line class="line" stroke-width="1" stroke="#666666" x1="561.0294117647059" y1="333" x2="561.0294117647059" y2="187.09472345835982"></line><line class="line" stroke-width="1" stroke="#666666" x1="684.5588235294117" y1="333" x2="684.5588235294117" y2="315.829624920534"></line><line class="line" stroke-width="1" stroke="#666666" x1="684.5588235294117" y1="333" x2="684.5588235294117" y2="321.5511760966306"></line><line class="line" stroke-width="1" stroke="#666666" x1="684.5588235294117" y1="333" x2="684.5588235294117" y2="321.5511760966306"></line><line class="line" stroke-width="1" stroke="#666666" x1="694.8529411764706" y1="333" x2="694.8529411764706" y2="324.41195168467897"></line></g><g id="circles"><circle r="4" cx="5.147058823529412" cy="321.5511760966306" style="fill: #4393c3; stroke: #666666; stroke-width: 1px;"></circle><circle r="4" cx="30.88235294117647" cy="324.41195168467897" style="fill: #5aae61; stroke: #666666; stroke-width: 1px;"></circle><circle r="4" cx="51.470588235294116" cy="324.41195168467897" style="fill: #4393c3; stroke: #666666; stroke-width: 1px;"></circle><circle r="4" cx="61.76470588235294" cy="324.41195168467897" style="fill: #5aae61; stroke: #666666; stroke-width: 1px;"></circle><circle r="4" cx="61.76470588235294" cy="324.41195168467897" style="fill: #bf812d; stroke: #666666; stroke-width: 1px;"></circle><circle r="4" cx="61.76470588235294" cy="324.41195168467897" style="fill: #666666; stroke: #666666; stroke-width: 1px;"></circle><circle r="4" cx="102.94117647058823" cy="29.75206611570252" style="fill: #4393c3; stroke: #666666; stroke-width: 1px;"></circle><circle r="4" cx="108.08823529411765" cy="287.2218690400509" style="fill: #4393c3; stroke: #666666; stroke-width: 1px;"></circle><circle r="4" cx="211.02941176470588" cy="324.41195168467897" style="fill: #4393c3; stroke: #666666; stroke-width: 1px;"></circle><circle r="4" cx="216.1764705882353" cy="324.41195168467897" style="fill: #4393c3; stroke: #666666; stroke-width: 1px;"></circle><circle r="4" cx="241.91176470588235" cy="324.41195168467897" style="fill: #4393c3; stroke: #666666; stroke-width: 1px;"></circle><circle r="4" cx="283.0882352941176" cy="321.5511760966306" style="fill: #5aae61; stroke: #666666; stroke-width: 1px;"></circle><circle r="4" cx="283.0882352941176" cy="324.41195168467897" style="fill: #666666; stroke: #666666; stroke-width: 1px;"></circle><circle r="4" cx="303.6764705882353" cy="324.41195168467897" style="fill: #5aae61; stroke: #666666; stroke-width: 1px;"></circle><circle r="4" cx="303.6764705882353" cy="324.41195168467897" style="fill: #bf812d; stroke: #666666; stroke-width: 1px;"></circle><circle r="4" cx="303.6764705882353" cy="321.5511760966306" style="fill: #666666; stroke: #666666; stroke-width: 1px;"></circle><circle r="4" cx="339.70588235294116" cy="318.69040050858234" style="fill: #5aae61; stroke: #666666; stroke-width: 1px;"></circle><circle r="4" cx="339.70588235294116" cy="321.5511760966306" style="fill: #bf812d; stroke: #666666; stroke-width: 1px;"></circle><circle r="4" cx="339.70588235294116" cy="324.41195168467897" style="fill: #666666; stroke: #666666; stroke-width: 1px;"></circle><circle r="4" cx="375.7352941176471" cy="324.41195168467897" style="fill: #4393c3; stroke: #666666; stroke-width: 1px;"></circle><circle r="4" cx="463.2352941176471" cy="321.5511760966306" style="fill: #4393c3; stroke: #666666; stroke-width: 1px;"></circle><circle r="4" cx="494.11764705882354" cy="324.41195168467897" style="fill: #5aae61; stroke: #666666; stroke-width: 1px;"></circle><circle r="4" cx="494.11764705882354" cy="324.41195168467897" style="fill: #666666; stroke: #666666; stroke-width: 1px;"></circle><circle r="4" cx="504.4117647058824" cy="324.41195168467897" style="fill: #4393c3; stroke: #666666; stroke-width: 1px;"></circle><circle r="4" cx="514.7058823529412" cy="318.69040050858234" style="fill: #5aae61; stroke: #666666; stroke-width: 1px;"></circle><circle r="4" cx="525" cy="307.2472981563891" style="fill: #4393c3; stroke: #666666; stroke-width: 1px;"></circle><circle r="4" cx="561.0294117647059" cy="187.09472345835982" style="fill: #4393c3; stroke: #666666; stroke-width: 1px;"></circle><circle r="4" cx="684.5588235294117" cy="315.829624920534" style="fill: #5aae61; stroke: #666666; stroke-width: 1px;"></circle><circle r="4" cx="684.5588235294117" cy="321.5511760966306" style="fill: #bf812d; stroke: #666666; stroke-width: 1px;"></circle><circle r="4" cx="684.5588235294117" cy="321.5511760966306" style="fill: #666666; stroke: #666666; stroke-width: 1px;"></circle><circle r="4" cx="694.8529411764706" cy="324.41195168467897" style="fill: #4393c3; stroke: #666666; stroke-width: 1px;"></circle></g><g><rect x="0" y="333" width="700" height="12" style="fill: #ffffff; stroke-width: 1px; stroke: #666666;"></rect><rect x="51.470588235294116" y="333" width="607.3529411764706" height="12" style="fill: #aec7e8; stroke-width: 1px; stroke: #666666;"></rect></g><g><a target="_blank" xlink:href="http://pfam.xfam.org/family/"><text y="343" x="350" text-anchor="middle" style="color: rgb(102, 102, 102); font-weight: normal; font-size: 12px; font-family: Arial; cursor: pointer;"></text></a><a target="_blank" xlink:href="http://pfam.xfam.org/family/Ribonuc_L-PSP"><text y="343" x="355.14705882352945" text-anchor="middle" style="color: rgb(102, 102, 102); font-weight: normal; font-size: 12px; font-family: Arial; cursor: pointer;">Ribonuc_L-PSP</text></a></g><g><text y="358" x="0" text-anchor="middle" visibility="hidden" style="font-size: 13px;">M</text><text y="358" x="5.147058823529412" text-anchor="middle" visibility="hidden" style="font-size: 13px;">S</text><text y="358" x="10.294117647058824" text-anchor="middle" visibility="hidden" style="font-size: 13px;">S</text><text y="358" x="15.441176470588236" text-anchor="middle" visibility="hidden" style="font-size: 13px;">L</text><text y="358" x="20.58823529411765" text-anchor="middle" visibility="hidden" style="font-size: 13px;">I</text><text y="358" x="25.735294117647058" text-anchor="middle" visibility="hidden" style="font-size: 13px;">R</text><text y="358" x="30.88235294117647" text-anchor="middle" visibility="hidden" style="font-size: 13px;">R</text><text y="358" x="36.029411764705884" text-anchor="middle" visibility="hidden" style="font-size: 13px;">V</text><text y="358" x="41.1764705882353" text-anchor="middle" visibility="hidden" style="font-size: 13px;">I</text><text y="358" x="46.3235294117647" text-anchor="middle" visibility="hidden" style="font-size: 13px;">S</text><text y="358" x="51.470588235294116" text-anchor="middle" visibility="hidden" style="font-size: 13px;">T</text><text y="358" x="56.61764705882353" text-anchor="middle" visibility="hidden" style="font-size: 13px;">A</text><text y="358" x="61.76470588235294" text-anchor="middle" visibility="hidden" style="font-size: 13px;">K</text><text y="358" x="66.91176470588235" text-anchor="middle" visibility="hidden" style="font-size: 13px;">A</text><text y="358" x="72.05882352941177" text-anchor="middle" visibility="hidden" style="font-size: 13px;">P</text><text y="358" x="77.20588235294117" text-anchor="middle" visibility="hidden" style="font-size: 13px;">G</text><text y="358" x="82.3529411764706" text-anchor="middle" visibility="hidden" style="font-size: 13px;">A</text><text y="358" x="87.5" text-anchor="middle" visibility="hidden" style="font-size: 13px;">I</text><text y="358" x="92.6470588235294" text-anchor="middle" visibility="hidden" style="font-size: 13px;">G</text><text y="358" x="97.79411764705883" text-anchor="middle" visibility="hidden" style="font-size: 13px;">P</text><text y="358" x="102.94117647058823" text-anchor="middle" visibility="hidden" style="font-size: 13px;">Y</text><text y="358" x="108.08823529411765" text-anchor="middle" visibility="hidden" style="font-size: 13px;">S</text><text y="358" x="113.23529411764706" text-anchor="middle" visibility="hidden" style="font-size: 13px;">Q</text><text y="358" x="118.38235294117648" text-anchor="middle" visibility="hidden" style="font-size: 13px;">A</text><text y="358" x="123.52941176470588" text-anchor="middle" visibility="hidden" style="font-size: 13px;">V</text><text y="358" x="128.6764705882353" text-anchor="middle" visibility="hidden" style="font-size: 13px;">L</text><text y="358" x="133.8235294117647" text-anchor="middle" visibility="hidden" style="font-size: 13px;">V</text><text y="358" x="138.97058823529412" text-anchor="middle" visibility="hidden" style="font-size: 13px;">D</text><text y="358" x="144.11764705882354" text-anchor="middle" visibility="hidden" style="font-size: 13px;">R</text><text y="358" x="149.26470588235293" text-anchor="middle" visibility="hidden" style="font-size: 13px;">T</text><text y="358" x="154.41176470588235" text-anchor="middle" visibility="hidden" style="font-size: 13px;">I</text><text y="358" x="159.55882352941177" text-anchor="middle" visibility="hidden" style="font-size: 13px;">Y</text><text y="358" x="164.7058823529412" text-anchor="middle" visibility="hidden" style="font-size: 13px;">I</text><text y="358" x="169.85294117647058" text-anchor="middle" visibility="hidden" style="font-size: 13px;">S</text><text y="358" x="175" text-anchor="middle" visibility="hidden" style="font-size: 13px;">G</text><text y="358" x="180.1470588235294" text-anchor="middle" visibility="hidden" style="font-size: 13px;">Q</text><text y="358" x="185.2941176470588" text-anchor="middle" visibility="hidden" style="font-size: 13px;">I</text><text y="358" x="190.44117647058823" text-anchor="middle" visibility="hidden" style="font-size: 13px;">G</text><text y="358" x="195.58823529411765" text-anchor="middle" visibility="hidden" style="font-size: 13px;">M</text><text y="358" x="200.73529411764704" text-anchor="middle" visibility="hidden" style="font-size: 13px;">D</text><text y="358" x="205.88235294117646" text-anchor="middle" visibility="hidden" style="font-size: 13px;">P</text><text y="358" x="211.02941176470588" text-anchor="middle" visibility="hidden" style="font-size: 13px;">S</text><text y="358" x="216.1764705882353" text-anchor="middle" visibility="hidden" style="font-size: 13px;">S</text><text y="358" x="221.3235294117647" text-anchor="middle" visibility="hidden" style="font-size: 13px;">G</text><text y="358" x="226.47058823529412" text-anchor="middle" visibility="hidden" style="font-size: 13px;">Q</text><text y="358" x="231.61764705882354" text-anchor="middle" visibility="hidden" style="font-size: 13px;">L</text><text y="358" x="236.76470588235296" text-anchor="middle" visibility="hidden" style="font-size: 13px;">V</text><text y="358" x="241.91176470588235" text-anchor="middle" visibility="hidden" style="font-size: 13px;">S</text><text y="358" x="247.05882352941177" text-anchor="middle" visibility="hidden" style="font-size: 13px;">G</text><text y="358" x="252.2058823529412" text-anchor="middle" visibility="hidden" style="font-size: 13px;">G</text><text y="358" x="257.3529411764706" text-anchor="middle" visibility="hidden" style="font-size: 13px;">V</text><text y="358" x="262.5" text-anchor="middle" visibility="hidden" style="font-size: 13px;">A</text><text y="358" x="267.6470588235294" text-anchor="middle" visibility="hidden" style="font-size: 13px;">E</text><text y="358" x="272.79411764705884" text-anchor="middle" visibility="hidden" style="font-size: 13px;">E</text><text y="358" x="277.94117647058823" text-anchor="middle" visibility="hidden" style="font-size: 13px;">A</text><text y="358" x="283.0882352941176" text-anchor="middle" visibility="hidden" style="font-size: 13px;">K</text><text y="358" x="288.2352941176471" text-anchor="middle" visibility="hidden" style="font-size: 13px;">Q</text><text y="358" x="293.38235294117646" text-anchor="middle" visibility="hidden" style="font-size: 13px;">A</text><text y="358" x="298.52941176470586" text-anchor="middle" visibility="hidden" style="font-size: 13px;">L</text><text y="358" x="303.6764705882353" text-anchor="middle" visibility="hidden" style="font-size: 13px;">K</text><text y="358" x="308.8235294117647" text-anchor="middle" visibility="hidden" style="font-size: 13px;">N</text><text y="358" x="313.97058823529414" text-anchor="middle" visibility="hidden" style="font-size: 13px;">M</text><text y="358" x="319.11764705882354" text-anchor="middle" visibility="hidden" style="font-size: 13px;">G</text><text y="358" x="324.2647058823529" text-anchor="middle" visibility="hidden" style="font-size: 13px;">E</text><text y="358" x="329.4117647058824" text-anchor="middle" visibility="hidden" style="font-size: 13px;">I</text><text y="358" x="334.55882352941177" text-anchor="middle" visibility="hidden" style="font-size: 13px;">L</text><text y="358" x="339.70588235294116" text-anchor="middle" visibility="hidden" style="font-size: 13px;">K</text><text y="358" x="344.8529411764706" text-anchor="middle" visibility="hidden" style="font-size: 13px;">A</text><text y="358" x="350" text-anchor="middle" visibility="hidden" style="font-size: 13px;">A</text><text y="358" x="355.1470588235294" text-anchor="middle" visibility="hidden" style="font-size: 13px;">G</text><text y="358" x="360.2941176470588" text-anchor="middle" visibility="hidden" style="font-size: 13px;">C</text><text y="358" x="365.44117647058823" text-anchor="middle" visibility="hidden" style="font-size: 13px;">D</text><text y="358" x="370.5882352941176" text-anchor="middle" visibility="hidden" style="font-size: 13px;">F</text><text y="358" x="375.7352941176471" text-anchor="middle" visibility="hidden" style="font-size: 13px;">T</text><text y="358" x="380.88235294117646" text-anchor="middle" visibility="hidden" style="font-size: 13px;">N</text><text y="358" x="386.0294117647059" text-anchor="middle" visibility="hidden" style="font-size: 13px;">V</text><text y="358" x="391.1764705882353" text-anchor="middle" visibility="hidden" style="font-size: 13px;">V</text><text y="358" x="396.3235294117647" text-anchor="middle" visibility="hidden" style="font-size: 13px;">K</text><text y="358" x="401.4705882352941" text-anchor="middle" visibility="hidden" style="font-size: 13px;">T</text><text y="358" x="406.61764705882354" text-anchor="middle" visibility="hidden" style="font-size: 13px;">T</text><text y="358" x="411.7647058823529" text-anchor="middle" visibility="hidden" style="font-size: 13px;">V</text><text y="358" x="416.9117647058824" text-anchor="middle" visibility="hidden" style="font-size: 13px;">L</text><text y="358" x="422.05882352941177" text-anchor="middle" visibility="hidden" style="font-size: 13px;">L</text><text y="358" x="427.2058823529412" text-anchor="middle" visibility="hidden" style="font-size: 13px;">A</text><text y="358" x="432.3529411764706" text-anchor="middle" visibility="hidden" style="font-size: 13px;">D</text><text y="358" x="437.5" text-anchor="middle" visibility="hidden" style="font-size: 13px;">I</text><text y="358" x="442.6470588235294" text-anchor="middle" visibility="hidden" style="font-size: 13px;">N</text><text y="358" x="447.7941176470588" text-anchor="middle" visibility="hidden" style="font-size: 13px;">D</text><text y="358" x="452.94117647058823" text-anchor="middle" visibility="hidden" style="font-size: 13px;">F</text><text y="358" x="458.0882352941176" text-anchor="middle" visibility="hidden" style="font-size: 13px;">N</text><text y="358" x="463.2352941176471" text-anchor="middle" visibility="hidden" style="font-size: 13px;">T</text><text y="358" x="468.38235294117646" text-anchor="middle" visibility="hidden" style="font-size: 13px;">V</text><text y="358" x="473.5294117647059" text-anchor="middle" visibility="hidden" style="font-size: 13px;">N</text><text y="358" x="478.6764705882353" text-anchor="middle" visibility="hidden" style="font-size: 13px;">E</text><text y="358" x="483.8235294117647" text-anchor="middle" visibility="hidden" style="font-size: 13px;">I</text><text y="358" x="488.9705882352941" text-anchor="middle" visibility="hidden" style="font-size: 13px;">Y</text><text y="358" x="494.11764705882354" text-anchor="middle" visibility="hidden" style="font-size: 13px;">K</text><text y="358" x="499.2647058823529" text-anchor="middle" visibility="hidden" style="font-size: 13px;">Q</text><text y="358" x="504.4117647058824" text-anchor="middle" visibility="hidden" style="font-size: 13px;">Y</text><text y="358" x="509.55882352941177" text-anchor="middle" visibility="hidden" style="font-size: 13px;">F</text><text y="358" x="514.7058823529412" text-anchor="middle" visibility="hidden" style="font-size: 13px;">K</text><text y="358" x="519.8529411764706" text-anchor="middle" visibility="hidden" style="font-size: 13px;">S</text><text y="358" x="525" text-anchor="middle" visibility="hidden" style="font-size: 13px;">N</text><text y="358" x="530.1470588235294" text-anchor="middle" visibility="hidden" style="font-size: 13px;">F</text><text y="358" x="535.2941176470588" text-anchor="middle" visibility="hidden" style="font-size: 13px;">P</text><text y="358" x="540.4411764705883" text-anchor="middle" visibility="hidden" style="font-size: 13px;">A</text><text y="358" x="545.5882352941177" text-anchor="middle" visibility="hidden" style="font-size: 13px;">R</text><text y="358" x="550.7352941176471" text-anchor="middle" visibility="hidden" style="font-size: 13px;">A</text><text y="358" x="555.8823529411765" text-anchor="middle" visibility="hidden" style="font-size: 13px;">A</text><text y="358" x="561.0294117647059" text-anchor="middle" visibility="hidden" style="font-size: 13px;">Y</text><text y="358" x="566.1764705882352" text-anchor="middle" visibility="hidden" style="font-size: 13px;">Q</text><text y="358" x="571.3235294117648" text-anchor="middle" visibility="hidden" style="font-size: 13px;">V</text><text y="358" x="576.4705882352941" text-anchor="middle" visibility="hidden" style="font-size: 13px;">A</text><text y="358" x="581.6176470588235" text-anchor="middle" visibility="hidden" style="font-size: 13px;">A</text><text y="358" x="586.7647058823529" text-anchor="middle" visibility="hidden" style="font-size: 13px;">L</text><text y="358" x="591.9117647058823" text-anchor="middle" visibility="hidden" style="font-size: 13px;">P</text><text y="358" x="597.0588235294117" text-anchor="middle" visibility="hidden" style="font-size: 13px;">K</text><text y="358" x="602.2058823529412" text-anchor="middle" visibility="hidden" style="font-size: 13px;">G</text><text y="358" x="607.3529411764706" text-anchor="middle" visibility="hidden" style="font-size: 13px;">S</text><text y="358" x="612.5" text-anchor="middle" visibility="hidden" style="font-size: 13px;">R</text><text y="358" x="617.6470588235294" text-anchor="middle" visibility="hidden" style="font-size: 13px;">I</text><text y="358" x="622.7941176470588" text-anchor="middle" visibility="hidden" style="font-size: 13px;">E</text><text y="358" x="627.9411764705883" text-anchor="middle" visibility="hidden" style="font-size: 13px;">I</text><text y="358" x="633.0882352941177" text-anchor="middle" visibility="hidden" style="font-size: 13px;">E</text><text y="358" x="638.2352941176471" text-anchor="middle" visibility="hidden" style="font-size: 13px;">A</text><text y="358" x="643.3823529411765" text-anchor="middle" visibility="hidden" style="font-size: 13px;">V</text><text y="358" x="648.5294117647059" text-anchor="middle" visibility="hidden" style="font-size: 13px;">A</text><text y="358" x="653.6764705882352" text-anchor="middle" visibility="hidden" style="font-size: 13px;">I</text><text y="358" x="658.8235294117648" text-anchor="middle" visibility="hidden" style="font-size: 13px;">Q</text><text y="358" x="663.9705882352941" text-anchor="middle" visibility="hidden" style="font-size: 13px;">G</text><text y="358" x="669.1176470588235" text-anchor="middle" visibility="hidden" style="font-size: 13px;">P</text><text y="358" x="674.2647058823529" text-anchor="middle" visibility="hidden" style="font-size: 13px;">L</text><text y="358" x="679.4117647058823" text-anchor="middle" visibility="hidden" style="font-size: 13px;">T</text><text y="358" x="684.5588235294117" text-anchor="middle" visibility="hidden" style="font-size: 13px;">T</text><text y="358" x="689.7058823529412" text-anchor="middle" visibility="hidden" style="font-size: 13px;">A</text><text y="358" x="694.8529411764706" text-anchor="middle" visibility="hidden" style="font-size: 13px;">S</text><text y="358" x="700" text-anchor="middle" visibility="hidden" style="font-size: 13px;">L</text></g></g></svg><g class="xAxis" transform="translate(0,360)" fill="none" font-size="10" font-family="sans-serif" text-anchor="middle"><path class="domain" stroke="#000" d="M0.5,6V0.5H700.5V6"></path><g class="tick" opacity="1" transform="translate(46.8235294117647,0)"><line stroke="#000" y2="6"></line><text fill="#000" y="9" dy="0.71em">10</text></g><g class="tick" opacity="1" transform="translate(98.29411764705883,0)"><line stroke="#000" y2="6"></line><text fill="#000" y="9" dy="0.71em">20</text></g><g class="tick" opacity="1" transform="translate(149.76470588235293,0)"><line stroke="#000" y2="6"></line><text fill="#000" y="9" dy="0.71em">30</text></g><g class="tick" opacity="1" transform="translate(201.23529411764704,0)"><line stroke="#000" y2="6"></line><text fill="#000" y="9" dy="0.71em">40</text></g><g class="tick" opacity="1" transform="translate(252.7058823529412,0)"><line stroke="#000" y2="6"></line><text fill="#000" y="9" dy="0.71em">50</text></g><g class="tick" opacity="1" transform="translate(304.1764705882353,0)"><line stroke="#000" y2="6"></line><text fill="#000" y="9" dy="0.71em">60</text></g><g class="tick" opacity="1" transform="translate(355.6470588235294,0)"><line stroke="#000" y2="6"></line><text fill="#000" y="9" dy="0.71em">70</text></g><g class="tick" opacity="1" transform="translate(407.11764705882354,0)"><line stroke="#000" y2="6"></line><text fill="#000" y="9" dy="0.71em">80</text></g><g class="tick" opacity="1" transform="translate(458.5882352941176,0)"><line stroke="#000" y2="6"></line><text fill="#000" y="9" dy="0.71em">90</text></g><g class="tick" opacity="1" transform="translate(510.05882352941177,0)"><line stroke="#000" y2="6"></line><text fill="#000" y="9" dy="0.71em">100</text></g><g class="tick" opacity="1" transform="translate(561.5294117647059,0)"><line stroke="#000" y2="6"></line><text fill="#000" y="9" dy="0.71em">110</text></g><g class="tick" opacity="1" transform="translate(613,0)"><line stroke="#000" y2="6"></line><text fill="#000" y="9" dy="0.71em">120</text></g><g class="tick" opacity="1" transform="translate(664.4705882352941,0)"><line stroke="#000" y2="6"></line><text fill="#000" y="9" dy="0.71em">130</text></g></g><text class="x label" text-anchor="end" x="700" y="390" style="font-size: 13px; font-family: Arial;">Residue number</text><g class="yAxis" fill="none" font-size="10" font-family="sans-serif" text-anchor="end"><path class="domain" stroke="#000" d="M-6,360.5H0.5V0.5H-6"></path><g class="tick" opacity="1" transform="translate(0,356.38048315321043)"><line stroke="#000" x2="-6"></line><text fill="#000" x="-9" dy="0.32em"></text></g><g class="tick" opacity="1" transform="translate(0,327.77272727272725)"><line stroke="#000" x2="-6"></line><text fill="#000" x="-9" dy="0.32em">0</text></g><g class="tick" opacity="1" transform="translate(0,299.1649713922441)"><line stroke="#000" x2="-6"></line><text fill="#000" x="-9" dy="0.32em">10</text></g><g class="tick" opacity="1" transform="translate(0,270.55721551176094)"><line stroke="#000" x2="-6"></line><text fill="#000" x="-9" dy="0.32em">20</text></g><g class="tick" opacity="1" transform="translate(0,241.94945963127782)"><line stroke="#000" x2="-6"></line><text fill="#000" x="-9" dy="0.32em">30</text></g><g class="tick" opacity="1" transform="translate(0,213.3417037507947)"><line stroke="#000" x2="-6"></line><text fill="#000" x="-9" dy="0.32em">40</text></g><g class="tick" opacity="1" transform="translate(0,184.7339478703115)"><line stroke="#000" x2="-6"></line><text fill="#000" x="-9" dy="0.32em">50</text></g><g class="tick" opacity="1" transform="translate(0,156.12619198982836)"><line stroke="#000" x2="-6"></line><text fill="#000" x="-9" dy="0.32em">60</text></g><g class="tick" opacity="1" transform="translate(0,127.51843610934523)"><line stroke="#000" x2="-6"></line><text fill="#000" x="-9" dy="0.32em">70</text></g><g class="tick" opacity="1" transform="translate(0,98.91068022886208)"><line stroke="#000" x2="-6"></line><text fill="#000" x="-9" dy="0.32em">80</text></g><g class="tick" opacity="1" transform="translate(0,70.3029243483789)"><line stroke="#000" x2="-6"></line><text fill="#000" x="-9" dy="0.32em">90</text></g><g class="tick" opacity="1" transform="translate(0,41.69516846789577)"><line stroke="#000" x2="-6"></line><text fill="#000" x="-9" dy="0.32em">100</text></g><g class="tick" opacity="1" transform="translate(0,13.087412587412587)"><line stroke="#000" x2="-6"></line><text fill="#000" x="-9" dy="0.32em">110</text></g></g><text class="y label" text-anchor="middle" y="-50" x="-180" dy="0.8em" transform="rotate(-90)" style="font-size: 13px; font-family: Arial;">Total number of references</text><g class="axisRed" fill="none" font-size="10" font-family="sans-serif" text-anchor="start" visibility="hidden" transform="translate(700, 0)"><path class="domain" stroke="#000" d="M6,360.5H0.5V0.5H6"></path><g class="tick" opacity="1" transform="translate(0,360.5)"><line stroke="#000" x2="6"></line><text fill="#000" x="9" dy="0.32em">0</text></g><text text-anchor="start" dx="5.2em" dy="-2.6em" transform="rotate(90)" visibility="hidden" style="font-size: 12px; font-family: Arial; fill: #d7301f;">No recurrent (&gt;2) missense mutations!</text></g><g class="axisPurple" fill="none" font-size="10" font-family="sans-serif" text-anchor="start" visibility="hidden"><path class="domain" stroke="#000" d="M6,360.5H0.5V0.5H6"></path><g class="tick" opacity="1" transform="translate(0,357.52479338842977)"><line stroke="#000" x2="6"></line><text fill="#000" x="9" dy="0.32em"></text></g><g class="tick" opacity="1" transform="translate(0,327.77272727272725)"><line stroke="#000" x2="6"></line><text fill="#000" x="9" dy="0.32em">0</text></g><g class="tick" opacity="1" transform="translate(0,298.0206611570248)"><line stroke="#000" x2="6"></line><text fill="#000" x="9" dy="0.32em">0.1</text></g><g class="tick" opacity="1" transform="translate(0,268.2685950413223)"><line stroke="#000" x2="6"></line><text fill="#000" x="9" dy="0.32em">0.2</text></g><g class="tick" opacity="1" transform="translate(0,238.51652892561984)"><line stroke="#000" x2="6"></line><text fill="#000" x="9" dy="0.32em">0.3</text></g><g class="tick" opacity="1" transform="translate(0,208.76446280991738)"><line stroke="#000" x2="6"></line><text fill="#000" x="9" dy="0.32em">0.4</text></g><g class="tick" opacity="1" transform="translate(0,179.0123966942149)"><line stroke="#000" x2="6"></line><text fill="#000" x="9" dy="0.32em">0.5</text></g><g class="tick" opacity="1" transform="translate(0,149.26033057851242)"><line stroke="#000" x2="6"></line><text fill="#000" x="9" dy="0.32em">0.6</text></g><g class="tick" opacity="1" transform="translate(0,119.50826446280996)"><line stroke="#000" x2="6"></line><text fill="#000" x="9" dy="0.32em">0.7</text></g><g class="tick" opacity="1" transform="translate(0,89.75619834710744)"><line stroke="#000" x2="6"></line><text fill="#000" x="9" dy="0.32em">0.8</text></g><g class="tick" opacity="1" transform="translate(0,60.00413223140498)"><line stroke="#000" x2="6"></line><text fill="#000" x="9" dy="0.32em">0.9</text></g><g class="tick" opacity="1" transform="translate(0,30.25206611570252)"><line stroke="#000" x2="6"></line><text fill="#000" x="9" dy="0.32em">1</text></g><g class="tick" opacity="1" transform="translate(0,0.5)"><line stroke="#000" x2="6"></line><text fill="#000" x="9" dy="0.32em">1.1</text></g><text text-anchor="start" x="10" y="10" visibility="hidden" style="font-size: 12px; font-family: Arial; fill: #807dba;">No disease causing germline SNPs known!</text></g><circle cx="636" cy="15" r="10" class="compassNav" style="fill: #ffffff; stroke: #666666; stroke-width: 1px;"></circle><path d="M440.935 12.574l3.966 82.766C399.416 41.904 331.674 8 256 8 134.813 8 33.933 94.924 12.296 209.824 10.908 217.193 16.604 224 24.103 224h49.084c5.57 0 10.377-3.842 11.676-9.259C103.407 137.408 172.931 80 256 80c60.893 0 114.512 30.856 146.104 77.801l-101.53-4.865c-6.845-.328-12.574 5.133-12.574 11.986v47.411c0 6.627 5.373 12 12 12h200.333c6.627 0 12-5.373 12-12V12c0-6.627-5.373-12-12-12h-47.411c-6.853 0-12.315 5.729-11.987 12.574zM256 432c-60.895 0-114.517-30.858-146.109-77.805l101.868 4.871c6.845.327 12.573-5.134 12.573-11.986v-47.412c0-6.627-5.373-12-12-12H12c-6.627 0-12 5.373-12 12V500c0 6.627 5.373 12 12 12h47.385c6.863 0 12.328-5.745 11.985-12.599l-4.129-82.575C112.725 470.166 180.405 504 256 504c121.187 0 222.067-86.924 243.704-201.824 1.388-7.369-4.308-14.176-11.807-14.176h-49.084c-5.57 0-10.377 3.842-11.676 9.259C408.593 374.592 339.069 432 256 432z" class="compassNav" transform="translate(631, 10) scale(0.02)" style="fill: #666666; stroke: #666666; stroke-width: 1px;"></path><circle cx="658" cy="15" r="10" class="compassNav" style="fill: #ffffff; stroke: #666666; stroke-width: 1px;"></circle><line class="compassNav" stroke-width="2" stroke="#666666" x1="654" y1="15" x2="662" y2="15"></line><line class="compassNav" stroke-width="2" stroke="#666666" x1="658" y1="11" x2="658" y2="19"></line><circle cx="614" cy="15" r="10" class="compassNav" style="fill: #ffffff; stroke: #666666; stroke-width: 1px;"></circle><line class="compassNav" stroke-width="2" stroke="#666666" x1="610" y1="15" x2="618" y2="15"></line><path d="M582 14 l20 -12 a100,40 0 0,0 0,24z" class="compassNav" style="fill: #ffffff; stroke: #666666; stroke-width: 1px;"></path><path d="M690 14 l-20 -12 a100,40 0 0,1 0,24z" class="compassNav" style="fill: #ffffff; stroke: #666666; stroke-width: 1px;"></path><path d="M216 0h80c13.3 0 24 10.7 24 24v168h87.7c17.8 0 26.7 21.5 14.1 34.1L269.7 378.3c-7.5 7.5-19.8 7.5-27.3 0L90.1 226.1c-12.6-12.6-3.7-34.1 14.1-34.1H192V24c0-13.3 10.7-24 24-24zm296 376v112c0 13.3-10.7 24-24 24H24c-13.3 0-24-10.7-24-24V376c0-13.3 10.7-24 24-24h146.7l49 49c20.1 20.1 52.5 20.1 72.6 0l49-49H488c13.3 0 24 10.7 24 24zm-124 88c0-11-9-20-20-20s-20 9-20 20 9 20 20 20 20-9 20-20zm64 0c0-11-9-20-20-20s-20 9-20 20 9 20 20 20 20-9 20-20z" class="compassNav" transform="translate(552,0) scale(0.05)" style="fill: #336699; stroke: #336699; stroke-width: 1px; cursor: pointer;"></path></g></svg>