<svg width="800" height="400" style="background-color: white;"><g transform="translate(50,0)"><svg width="700" height="360"><g style="-webkit-tap-highlight-color: rgba(0, 0, 0, 0);"><rect width="700" height="360" style="fill: #ffffff;"></rect><g id="lines"><line class="line" stroke-width="1" stroke="#d7301f" x1="-254.31654676258995" y1="333" x2="-254.31654676258995" y2="360" visibility="hidden" style="stroke-dasharray: 3px, 3px;"></line></g><g><rect x="-259.31654676258995" y="355" width="10" height="10" visibility="hidden" style="fill: #ffffff; stroke: #d7301f;"></rect></g><g id="lines"><line class="line" stroke-width="1" stroke="#6a51a3" x1="-254.31654676258995" y1="333" x2="-254.31654676258995" y2="327.27272727272725" visibility="hidden" style="stroke-dasharray: 3px, 3px;"></line></g><g><rect x="-259.31654676258995" y="322.27272727272725" width="10" height="10" visibility="hidden" style="fill: #ffffff; stroke: #6a51a3;"></rect></g><g id="lines"><line class="line" stroke-width="1" stroke="#666666" x1="15.107913669064748" y1="333" x2="15.107913669064748" y2="199.76387249114524"></line><line class="line" stroke-width="1" stroke="#666666" x1="17.62589928057554" y1="333" x2="17.62589928057554" y2="284.7697756788666"></line><line class="line" stroke-width="1" stroke="#666666" x1="27.6978417266187" y1="333" x2="27.6978417266187" y2="263.51829988193623"></line><line class="line" stroke-width="1" stroke="#666666" x1="40.28776978417267" y1="333" x2="40.28776978417267" y2="306.02125147579693"></line><line class="line" stroke-width="1" stroke="#666666" x1="214.02877697841726" y1="333" x2="214.02877697841726" y2="93.50649350649354"></line><line class="line" stroke-width="1" stroke="#666666" x1="251.79856115107913" y1="333" x2="251.79856115107913" y2="306.02125147579693"></line><line class="line" stroke-width="1" stroke="#666666" x1="254.31654676258995" y1="333" x2="254.31654676258995" y2="306.02125147579693"></line><line class="line" stroke-width="1" stroke="#666666" x1="256.8345323741007" y1="333" x2="256.8345323741007" y2="306.02125147579693"></line><line class="line" stroke-width="1" stroke="#666666" x1="264.3884892086331" y1="333" x2="264.3884892086331" y2="306.02125147579693"></line><line class="line" stroke-width="1" stroke="#666666" x1="276.978417266187" y1="333" x2="276.978417266187" y2="29.75206611570252"></line><line class="line" stroke-width="1" stroke="#666666" x1="276.978417266187" y1="333" x2="276.978417266187" y2="284.7697756788666"></line><line class="line" stroke-width="1" stroke="#666666" x1="279.49640287769785" y1="333" x2="279.49640287769785" y2="284.7697756788666"></line><line class="line" stroke-width="1" stroke="#666666" x1="287.0503597122302" y1="333" x2="287.0503597122302" y2="263.51829988193623"></line><line class="line" stroke-width="1" stroke="#666666" x1="307.19424460431657" y1="333" x2="307.19424460431657" y2="306.02125147579693"></line><line class="line" stroke-width="1" stroke="#666666" x1="309.71223021582733" y1="333" x2="309.71223021582733" y2="306.02125147579693"></line><line class="line" stroke-width="1" stroke="#666666" x1="455.75539568345323" y1="333" x2="455.75539568345323" y2="157.26092089728456"></line><line class="line" stroke-width="1" stroke="#666666" x1="485.9712230215827" y1="333" x2="485.9712230215827" y2="242.2668240850059"></line><line class="line" stroke-width="1" stroke="#666666" x1="533.8129496402878" y1="333" x2="533.8129496402878" y2="284.7697756788666"></line><line class="line" stroke-width="1" stroke="#666666" x1="649.6402877697842" y1="333" x2="649.6402877697842" y2="199.76387249114524"></line><line class="line" stroke-width="1" stroke="#666666" x1="667.2661870503597" y1="333" x2="667.2661870503597" y2="306.02125147579693"></line></g><g id="circles"><circle r="4" cx="15.107913669064748" cy="199.76387249114524" style="fill: #bf812d; stroke: #666666; stroke-width: 1px;"></circle><circle r="4" cx="17.62589928057554" cy="284.7697756788666" style="fill: #4393c3; stroke: #666666; stroke-width: 1px;"></circle><circle r="4" cx="27.6978417266187" cy="263.51829988193623" style="fill: #4393c3; stroke: #666666; stroke-width: 1px;"></circle><circle r="4" cx="40.28776978417267" cy="306.02125147579693" style="fill: #bf812d; stroke: #666666; stroke-width: 1px;"></circle><circle r="4" cx="214.02877697841726" cy="93.50649350649354" style="fill: #bf812d; stroke: #666666; stroke-width: 1px;"></circle><circle r="4" cx="251.79856115107913" cy="306.02125147579693" style="fill: #4393c3; stroke: #666666; stroke-width: 1px;"></circle><circle r="4" cx="254.31654676258995" cy="306.02125147579693" style="fill: #4393c3; stroke: #666666; stroke-width: 1px;"></circle><circle r="4" cx="256.8345323741007" cy="306.02125147579693" style="fill: #4393c3; stroke: #666666; stroke-width: 1px;"></circle><circle r="4" cx="264.3884892086331" cy="306.02125147579693" style="fill: #4393c3; stroke: #666666; stroke-width: 1px;"></circle><circle r="4" cx="276.978417266187" cy="29.75206611570252" style="fill: #5aae61; stroke: #666666; stroke-width: 1px;"></circle><circle r="4" cx="276.978417266187" cy="284.7697756788666" style="fill: #bf812d; stroke: #666666; stroke-width: 1px;"></circle><circle r="4" cx="279.49640287769785" cy="284.7697756788666" style="fill: #5aae61; stroke: #666666; stroke-width: 1px;"></circle><circle r="4" cx="287.0503597122302" cy="263.51829988193623" style="fill: #bf812d; stroke: #666666; stroke-width: 1px;"></circle><circle r="4" cx="307.19424460431657" cy="306.02125147579693" style="fill: #bf812d; stroke: #666666; stroke-width: 1px;"></circle><circle r="4" cx="309.71223021582733" cy="306.02125147579693" style="fill: #666666; stroke: #666666; stroke-width: 1px;"></circle><circle r="4" cx="455.75539568345323" cy="157.26092089728456" style="fill: #bf812d; stroke: #666666; stroke-width: 1px;"></circle><circle r="4" cx="485.9712230215827" cy="242.2668240850059" style="fill: #bf812d; stroke: #666666; stroke-width: 1px;"></circle><circle r="4" cx="533.8129496402878" cy="284.7697756788666" style="fill: #bf812d; stroke: #666666; stroke-width: 1px;"></circle><circle r="4" cx="649.6402877697842" cy="199.76387249114524" style="fill: #bf812d; stroke: #666666; stroke-width: 1px;"></circle><circle r="4" cx="667.2661870503597" cy="306.02125147579693" style="fill: #bf812d; stroke: #666666; stroke-width: 1px;"></circle></g><g><rect x="0" y="333" width="700" height="12" style="fill: #ffffff; stroke-width: 1px; stroke: #666666;"></rect><rect x="12.589928057553957" y="333" width="672.3021582733813" height="12" style="fill: #aec7e8; stroke-width: 1px; stroke: #666666;"></rect><rect x="88.12949640287769" y="333" width="50.35971223021582" height="12" style="fill: #ffbb78; stroke-width: 1px; stroke: #666666;"></rect></g><g><a target="_blank" xlink:href="http://pfam.xfam.org/family/"><text y="343" x="350" text-anchor="middle" style="color: rgb(102, 102, 102); font-weight: normal; font-size: 12px; font-family: Arial; cursor: pointer;"></text></a><a target="_blank" xlink:href="http://pfam.xfam.org/family/Na_K-ATPase"><text y="343" x="348.7410071942446" text-anchor="middle" style="color: rgb(102, 102, 102); font-weight: normal; font-size: 12px; font-family: Arial; cursor: pointer;">Na_K-ATPase</text></a><a target="_blank" xlink:href="http://pfam.xfam.org/family/TM"><text y="343" x="113.3093525179856" text-anchor="middle" style="color: rgb(102, 102, 102); font-weight: normal; font-size: 12px; font-family: Arial; cursor: pointer;">TM</text></a></g><g><text y="358" x="0" text-anchor="middle" visibility="hidden" style="font-size: 13px;">M</text><text y="358" x="2.5179856115107917" text-anchor="middle" visibility="hidden" style="font-size: 13px;">T</text><text y="358" x="5.035971223021583" text-anchor="middle" visibility="hidden" style="font-size: 13px;">K</text><text y="358" x="7.553956834532374" text-anchor="middle" visibility="hidden" style="font-size: 13px;">N</text><text y="358" x="10.071942446043167" text-anchor="middle" visibility="hidden" style="font-size: 13px;">E</text><text y="358" x="12.589928057553957" text-anchor="middle" visibility="hidden" style="font-size: 13px;">K</text><text y="358" x="15.107913669064748" text-anchor="middle" visibility="hidden" style="font-size: 13px;">K</text><text y="358" x="17.62589928057554" text-anchor="middle" visibility="hidden" style="font-size: 13px;">S</text><text y="358" x="20.143884892086334" text-anchor="middle" visibility="hidden" style="font-size: 13px;">L</text><text y="358" x="22.66187050359712" text-anchor="middle" visibility="hidden" style="font-size: 13px;">N</text><text y="358" x="25.179856115107913" text-anchor="middle" visibility="hidden" style="font-size: 13px;">Q</text><text y="358" x="27.6978417266187" text-anchor="middle" visibility="hidden" style="font-size: 13px;">S</text><text y="358" x="30.215827338129497" text-anchor="middle" visibility="hidden" style="font-size: 13px;">L</text><text y="358" x="32.73381294964029" text-anchor="middle" visibility="hidden" style="font-size: 13px;">A</text><text y="358" x="35.25179856115108" text-anchor="middle" visibility="hidden" style="font-size: 13px;">E</text><text y="358" x="37.76978417266187" text-anchor="middle" visibility="hidden" style="font-size: 13px;">W</text><text y="358" x="40.28776978417267" text-anchor="middle" visibility="hidden" style="font-size: 13px;">K</text><text y="358" x="42.805755395683455" text-anchor="middle" visibility="hidden" style="font-size: 13px;">L</text><text y="358" x="45.32374100719424" text-anchor="middle" visibility="hidden" style="font-size: 13px;">F</text><text y="358" x="47.84172661870504" text-anchor="middle" visibility="hidden" style="font-size: 13px;">I</text><text y="358" x="50.35971223021583" text-anchor="middle" visibility="hidden" style="font-size: 13px;">Y</text><text y="358" x="52.87769784172662" text-anchor="middle" visibility="hidden" style="font-size: 13px;">N</text><text y="358" x="55.3956834532374" text-anchor="middle" visibility="hidden" style="font-size: 13px;">P</text><text y="358" x="57.9136690647482" text-anchor="middle" visibility="hidden" style="font-size: 13px;">T</text><text y="358" x="60.431654676258994" text-anchor="middle" visibility="hidden" style="font-size: 13px;">T</text><text y="358" x="62.94964028776978" text-anchor="middle" visibility="hidden" style="font-size: 13px;">G</text><text y="358" x="65.46762589928058" text-anchor="middle" visibility="hidden" style="font-size: 13px;">E</text><text y="358" x="67.98561151079137" text-anchor="middle" visibility="hidden" style="font-size: 13px;">F</text><text y="358" x="70.50359712230215" text-anchor="middle" visibility="hidden" style="font-size: 13px;">L</text><text y="358" x="73.02158273381295" text-anchor="middle" visibility="hidden" style="font-size: 13px;">G</text><text y="358" x="75.53956834532374" text-anchor="middle" visibility="hidden" style="font-size: 13px;">R</text><text y="358" x="78.05755395683454" text-anchor="middle" visibility="hidden" style="font-size: 13px;">T</text><text y="358" x="80.57553956834533" text-anchor="middle" visibility="hidden" style="font-size: 13px;">A</text><text y="358" x="83.09352517985612" text-anchor="middle" visibility="hidden" style="font-size: 13px;">K</text><text y="358" x="85.61151079136691" text-anchor="middle" visibility="hidden" style="font-size: 13px;">S</text><text y="358" x="88.12949640287769" text-anchor="middle" visibility="hidden" style="font-size: 13px;">W</text><text y="358" x="90.64748201438849" text-anchor="middle" visibility="hidden" style="font-size: 13px;">G</text><text y="358" x="93.16546762589928" text-anchor="middle" visibility="hidden" style="font-size: 13px;">L</text><text y="358" x="95.68345323741008" text-anchor="middle" visibility="hidden" style="font-size: 13px;">I</text><text y="358" x="98.20143884892086" text-anchor="middle" visibility="hidden" style="font-size: 13px;">L</text><text y="358" x="100.71942446043165" text-anchor="middle" visibility="hidden" style="font-size: 13px;">L</text><text y="358" x="103.23741007194245" text-anchor="middle" visibility="hidden" style="font-size: 13px;">F</text><text y="358" x="105.75539568345324" text-anchor="middle" visibility="hidden" style="font-size: 13px;">Y</text><text y="358" x="108.27338129496404" text-anchor="middle" visibility="hidden" style="font-size: 13px;">L</text><text y="358" x="110.7913669064748" text-anchor="middle" visibility="hidden" style="font-size: 13px;">V</text><text y="358" x="113.3093525179856" text-anchor="middle" visibility="hidden" style="font-size: 13px;">F</text><text y="358" x="115.8273381294964" text-anchor="middle" visibility="hidden" style="font-size: 13px;">Y</text><text y="358" x="118.34532374100719" text-anchor="middle" visibility="hidden" style="font-size: 13px;">G</text><text y="358" x="120.86330935251799" text-anchor="middle" visibility="hidden" style="font-size: 13px;">F</text><text y="358" x="123.38129496402877" text-anchor="middle" visibility="hidden" style="font-size: 13px;">L</text><text y="358" x="125.89928057553956" text-anchor="middle" visibility="hidden" style="font-size: 13px;">A</text><text y="358" x="128.41726618705036" text-anchor="middle" visibility="hidden" style="font-size: 13px;">A</text><text y="358" x="130.93525179856115" text-anchor="middle" visibility="hidden" style="font-size: 13px;">L</text><text y="358" x="133.45323741007195" text-anchor="middle" visibility="hidden" style="font-size: 13px;">F</text><text y="358" x="135.97122302158274" text-anchor="middle" visibility="hidden" style="font-size: 13px;">S</text><text y="358" x="138.4892086330935" text-anchor="middle" visibility="hidden" style="font-size: 13px;">F</text><text y="358" x="141.0071942446043" text-anchor="middle" visibility="hidden" style="font-size: 13px;">T</text><text y="358" x="143.5251798561151" text-anchor="middle" visibility="hidden" style="font-size: 13px;">M</text><text y="358" x="146.0431654676259" text-anchor="middle" visibility="hidden" style="font-size: 13px;">W</text><text y="358" x="148.5611510791367" text-anchor="middle" visibility="hidden" style="font-size: 13px;">V</text><text y="358" x="151.0791366906475" text-anchor="middle" visibility="hidden" style="font-size: 13px;">M</text><text y="358" x="153.59712230215828" text-anchor="middle" visibility="hidden" style="font-size: 13px;">L</text><text y="358" x="156.11510791366908" text-anchor="middle" visibility="hidden" style="font-size: 13px;">Q</text><text y="358" x="158.63309352517987" text-anchor="middle" visibility="hidden" style="font-size: 13px;">T</text><text y="358" x="161.15107913669067" text-anchor="middle" visibility="hidden" style="font-size: 13px;">L</text><text y="358" x="163.66906474820144" text-anchor="middle" visibility="hidden" style="font-size: 13px;">N</text><text y="358" x="166.18705035971223" text-anchor="middle" visibility="hidden" style="font-size: 13px;">D</text><text y="358" x="168.70503597122303" text-anchor="middle" visibility="hidden" style="font-size: 13px;">E</text><text y="358" x="171.22302158273382" text-anchor="middle" visibility="hidden" style="font-size: 13px;">V</text><text y="358" x="173.74100719424462" text-anchor="middle" visibility="hidden" style="font-size: 13px;">P</text><text y="358" x="176.25899280575538" text-anchor="middle" visibility="hidden" style="font-size: 13px;">K</text><text y="358" x="178.7769784172662" text-anchor="middle" visibility="hidden" style="font-size: 13px;">Y</text><text y="358" x="181.29496402877697" text-anchor="middle" visibility="hidden" style="font-size: 13px;">R</text><text y="358" x="183.81294964028774" text-anchor="middle" visibility="hidden" style="font-size: 13px;">D</text><text y="358" x="186.33093525179856" text-anchor="middle" visibility="hidden" style="font-size: 13px;">Q</text><text y="358" x="188.84892086330933" text-anchor="middle" visibility="hidden" style="font-size: 13px;">I</text><text y="358" x="191.36690647482015" text-anchor="middle" visibility="hidden" style="font-size: 13px;">P</text><text y="358" x="193.88489208633092" text-anchor="middle" visibility="hidden" style="font-size: 13px;">S</text><text y="358" x="196.40287769784172" text-anchor="middle" visibility="hidden" style="font-size: 13px;">P</text><text y="358" x="198.9208633093525" text-anchor="middle" visibility="hidden" style="font-size: 13px;">G</text><text y="358" x="201.4388489208633" text-anchor="middle" visibility="hidden" style="font-size: 13px;">L</text><text y="358" x="203.9568345323741" text-anchor="middle" visibility="hidden" style="font-size: 13px;">M</text><text y="358" x="206.4748201438849" text-anchor="middle" visibility="hidden" style="font-size: 13px;">V</text><text y="358" x="208.99280575539566" text-anchor="middle" visibility="hidden" style="font-size: 13px;">F</text><text y="358" x="211.5107913669065" text-anchor="middle" visibility="hidden" style="font-size: 13px;">P</text><text y="358" x="214.02877697841726" text-anchor="middle" visibility="hidden" style="font-size: 13px;">K</text><text y="358" x="216.54676258992808" text-anchor="middle" visibility="hidden" style="font-size: 13px;">P</text><text y="358" x="219.06474820143885" text-anchor="middle" visibility="hidden" style="font-size: 13px;">V</text><text y="358" x="221.5827338129496" text-anchor="middle" visibility="hidden" style="font-size: 13px;">T</text><text y="358" x="224.10071942446044" text-anchor="middle" visibility="hidden" style="font-size: 13px;">A</text><text y="358" x="226.6187050359712" text-anchor="middle" visibility="hidden" style="font-size: 13px;">L</text><text y="358" x="229.13669064748203" text-anchor="middle" visibility="hidden" style="font-size: 13px;">E</text><text y="358" x="231.6546762589928" text-anchor="middle" visibility="hidden" style="font-size: 13px;">Y</text><text y="358" x="234.1726618705036" text-anchor="middle" visibility="hidden" style="font-size: 13px;">T</text><text y="358" x="236.69064748201438" text-anchor="middle" visibility="hidden" style="font-size: 13px;">F</text><text y="358" x="239.20863309352518" text-anchor="middle" visibility="hidden" style="font-size: 13px;">S</text><text y="358" x="241.72661870503597" text-anchor="middle" visibility="hidden" style="font-size: 13px;">R</text><text y="358" x="244.24460431654677" text-anchor="middle" visibility="hidden" style="font-size: 13px;">S</text><text y="358" x="246.76258992805754" text-anchor="middle" visibility="hidden" style="font-size: 13px;">D</text><text y="358" x="249.28057553956836" text-anchor="middle" visibility="hidden" style="font-size: 13px;">P</text><text y="358" x="251.79856115107913" text-anchor="middle" visibility="hidden" style="font-size: 13px;">T</text><text y="358" x="254.31654676258995" text-anchor="middle" visibility="hidden" style="font-size: 13px;">S</text><text y="358" x="256.8345323741007" text-anchor="middle" visibility="hidden" style="font-size: 13px;">Y</text><text y="358" x="259.3525179856115" text-anchor="middle" visibility="hidden" style="font-size: 13px;">A</text><text y="358" x="261.8705035971223" text-anchor="middle" visibility="hidden" style="font-size: 13px;">G</text><text y="358" x="264.3884892086331" text-anchor="middle" visibility="hidden" style="font-size: 13px;">Y</text><text y="358" x="266.9064748201439" text-anchor="middle" visibility="hidden" style="font-size: 13px;">I</text><text y="358" x="269.42446043165467" text-anchor="middle" visibility="hidden" style="font-size: 13px;">E</text><text y="358" x="271.9424460431655" text-anchor="middle" visibility="hidden" style="font-size: 13px;">D</text><text y="358" x="274.46043165467626" text-anchor="middle" visibility="hidden" style="font-size: 13px;">L</text><text y="358" x="276.978417266187" text-anchor="middle" visibility="hidden" style="font-size: 13px;">K</text><text y="358" x="279.49640287769785" text-anchor="middle" visibility="hidden" style="font-size: 13px;">K</text><text y="358" x="282.0143884892086" text-anchor="middle" visibility="hidden" style="font-size: 13px;">F</text><text y="358" x="284.53237410071944" text-anchor="middle" visibility="hidden" style="font-size: 13px;">L</text><text y="358" x="287.0503597122302" text-anchor="middle" visibility="hidden" style="font-size: 13px;">K</text><text y="358" x="289.56834532374097" text-anchor="middle" visibility="hidden" style="font-size: 13px;">P</text><text y="358" x="292.0863309352518" text-anchor="middle" visibility="hidden" style="font-size: 13px;">Y</text><text y="358" x="294.60431654676256" text-anchor="middle" visibility="hidden" style="font-size: 13px;">T</text><text y="358" x="297.1223021582734" text-anchor="middle" visibility="hidden" style="font-size: 13px;">L</text><text y="358" x="299.64028776978415" text-anchor="middle" visibility="hidden" style="font-size: 13px;">E</text><text y="358" x="302.158273381295" text-anchor="middle" visibility="hidden" style="font-size: 13px;">E</text><text y="358" x="304.67625899280574" text-anchor="middle" visibility="hidden" style="font-size: 13px;">Q</text><text y="358" x="307.19424460431657" text-anchor="middle" visibility="hidden" style="font-size: 13px;">K</text><text y="358" x="309.71223021582733" text-anchor="middle" visibility="hidden" style="font-size: 13px;">N</text><text y="358" x="312.23021582733816" text-anchor="middle" visibility="hidden" style="font-size: 13px;">L</text><text y="358" x="314.7482014388489" text-anchor="middle" visibility="hidden" style="font-size: 13px;">T</text><text y="358" x="317.26618705035975" text-anchor="middle" visibility="hidden" style="font-size: 13px;">V</text><text y="358" x="319.7841726618705" text-anchor="middle" visibility="hidden" style="font-size: 13px;">C</text><text y="358" x="322.30215827338134" text-anchor="middle" visibility="hidden" style="font-size: 13px;">P</text><text y="358" x="324.8201438848921" text-anchor="middle" visibility="hidden" style="font-size: 13px;">D</text><text y="358" x="327.33812949640287" text-anchor="middle" visibility="hidden" style="font-size: 13px;">G</text><text y="358" x="329.8561151079137" text-anchor="middle" visibility="hidden" style="font-size: 13px;">A</text><text y="358" x="332.37410071942446" text-anchor="middle" visibility="hidden" style="font-size: 13px;">L</text><text y="358" x="334.8920863309353" text-anchor="middle" visibility="hidden" style="font-size: 13px;">F</text><text y="358" x="337.41007194244605" text-anchor="middle" visibility="hidden" style="font-size: 13px;">E</text><text y="358" x="339.9280575539568" text-anchor="middle" visibility="hidden" style="font-size: 13px;">Q</text><text y="358" x="342.44604316546764" text-anchor="middle" visibility="hidden" style="font-size: 13px;">K</text><text y="358" x="344.9640287769784" text-anchor="middle" visibility="hidden" style="font-size: 13px;">G</text><text y="358" x="347.48201438848923" text-anchor="middle" visibility="hidden" style="font-size: 13px;">P</text><text y="358" x="350" text-anchor="middle" visibility="hidden" style="font-size: 13px;">V</text><text y="358" x="352.51798561151077" text-anchor="middle" visibility="hidden" style="font-size: 13px;">Y</text><text y="358" x="355.03597122302153" text-anchor="middle" visibility="hidden" style="font-size: 13px;">V</text><text y="358" x="357.5539568345324" text-anchor="middle" visibility="hidden" style="font-size: 13px;">A</text><text y="358" x="360.0719424460432" text-anchor="middle" visibility="hidden" style="font-size: 13px;">C</text><text y="358" x="362.58992805755395" text-anchor="middle" visibility="hidden" style="font-size: 13px;">Q</text><text y="358" x="365.1079136690647" text-anchor="middle" visibility="hidden" style="font-size: 13px;">F</text><text y="358" x="367.6258992805755" text-anchor="middle" visibility="hidden" style="font-size: 13px;">P</text><text y="358" x="370.14388489208636" text-anchor="middle" visibility="hidden" style="font-size: 13px;">I</text><text y="358" x="372.66187050359713" text-anchor="middle" visibility="hidden" style="font-size: 13px;">S</text><text y="358" x="375.1798561151079" text-anchor="middle" visibility="hidden" style="font-size: 13px;">L</text><text y="358" x="377.69784172661866" text-anchor="middle" visibility="hidden" style="font-size: 13px;">L</text><text y="358" x="380.2158273381295" text-anchor="middle" visibility="hidden" style="font-size: 13px;">Q</text><text y="358" x="382.7338129496403" text-anchor="middle" visibility="hidden" style="font-size: 13px;">A</text><text y="358" x="385.2517985611511" text-anchor="middle" visibility="hidden" style="font-size: 13px;">C</text><text y="358" x="387.76978417266184" text-anchor="middle" visibility="hidden" style="font-size: 13px;">S</text><text y="358" x="390.28776978417267" text-anchor="middle" visibility="hidden" style="font-size: 13px;">G</text><text y="358" x="392.80575539568343" text-anchor="middle" visibility="hidden" style="font-size: 13px;">M</text><text y="358" x="395.32374100719426" text-anchor="middle" visibility="hidden" style="font-size: 13px;">N</text><text y="358" x="397.841726618705" text-anchor="middle" visibility="hidden" style="font-size: 13px;">D</text><text y="358" x="400.35971223021585" text-anchor="middle" visibility="hidden" style="font-size: 13px;">P</text><text y="358" x="402.8776978417266" text-anchor="middle" visibility="hidden" style="font-size: 13px;">D</text><text y="358" x="405.3956834532374" text-anchor="middle" visibility="hidden" style="font-size: 13px;">F</text><text y="358" x="407.9136690647482" text-anchor="middle" visibility="hidden" style="font-size: 13px;">G</text><text y="358" x="410.43165467625903" text-anchor="middle" visibility="hidden" style="font-size: 13px;">Y</text><text y="358" x="412.9496402877698" text-anchor="middle" visibility="hidden" style="font-size: 13px;">S</text><text y="358" x="415.46762589928056" text-anchor="middle" visibility="hidden" style="font-size: 13px;">Q</text><text y="358" x="417.98561151079133" text-anchor="middle" visibility="hidden" style="font-size: 13px;">G</text><text y="358" x="420.5035971223022" text-anchor="middle" visibility="hidden" style="font-size: 13px;">N</text><text y="358" x="423.021582733813" text-anchor="middle" visibility="hidden" style="font-size: 13px;">P</text><text y="358" x="425.53956834532374" text-anchor="middle" visibility="hidden" style="font-size: 13px;">C</text><text y="358" x="428.0575539568345" text-anchor="middle" visibility="hidden" style="font-size: 13px;">I</text><text y="358" x="430.5755395683453" text-anchor="middle" visibility="hidden" style="font-size: 13px;">L</text><text y="358" x="433.09352517985616" text-anchor="middle" visibility="hidden" style="font-size: 13px;">V</text><text y="358" x="435.6115107913669" text-anchor="middle" visibility="hidden" style="font-size: 13px;">K</text><text y="358" x="438.1294964028777" text-anchor="middle" visibility="hidden" style="font-size: 13px;">M</text><text y="358" x="440.64748201438846" text-anchor="middle" visibility="hidden" style="font-size: 13px;">N</text><text y="358" x="443.1654676258992" text-anchor="middle" visibility="hidden" style="font-size: 13px;">R</text><text y="358" x="445.6834532374101" text-anchor="middle" visibility="hidden" style="font-size: 13px;">I</text><text y="358" x="448.2014388489209" text-anchor="middle" visibility="hidden" style="font-size: 13px;">I</text><text y="358" x="450.71942446043164" text-anchor="middle" visibility="hidden" style="font-size: 13px;">G</text><text y="358" x="453.2374100719424" text-anchor="middle" visibility="hidden" style="font-size: 13px;">L</text><text y="358" x="455.75539568345323" text-anchor="middle" visibility="hidden" style="font-size: 13px;">K</text><text y="358" x="458.27338129496405" text-anchor="middle" visibility="hidden" style="font-size: 13px;">P</text><text y="358" x="460.7913669064748" text-anchor="middle" visibility="hidden" style="font-size: 13px;">E</text><text y="358" x="463.3093525179856" text-anchor="middle" visibility="hidden" style="font-size: 13px;">G</text><text y="358" x="465.82733812949635" text-anchor="middle" visibility="hidden" style="font-size: 13px;">V</text><text y="358" x="468.3453237410072" text-anchor="middle" visibility="hidden" style="font-size: 13px;">P</text><text y="358" x="470.863309352518" text-anchor="middle" visibility="hidden" style="font-size: 13px;">R</text><text y="358" x="473.38129496402877" text-anchor="middle" visibility="hidden" style="font-size: 13px;">I</text><text y="358" x="475.89928057553954" text-anchor="middle" visibility="hidden" style="font-size: 13px;">D</text><text y="358" x="478.41726618705036" text-anchor="middle" visibility="hidden" style="font-size: 13px;">C</text><text y="358" x="480.9352517985611" text-anchor="middle" visibility="hidden" style="font-size: 13px;">V</text><text y="358" x="483.45323741007195" text-anchor="middle" visibility="hidden" style="font-size: 13px;">S</text><text y="358" x="485.9712230215827" text-anchor="middle" visibility="hidden" style="font-size: 13px;">K</text><text y="358" x="488.48920863309354" text-anchor="middle" visibility="hidden" style="font-size: 13px;">N</text><text y="358" x="491.0071942446043" text-anchor="middle" visibility="hidden" style="font-size: 13px;">E</text><text y="358" x="493.5251798561151" text-anchor="middle" visibility="hidden" style="font-size: 13px;">D</text><text y="358" x="496.0431654676259" text-anchor="middle" visibility="hidden" style="font-size: 13px;">I</text><text y="358" x="498.5611510791367" text-anchor="middle" visibility="hidden" style="font-size: 13px;">P</text><text y="358" x="501.0791366906475" text-anchor="middle" visibility="hidden" style="font-size: 13px;">N</text><text y="358" x="503.59712230215825" text-anchor="middle" visibility="hidden" style="font-size: 13px;">V</text><text y="358" x="506.115107913669" text-anchor="middle" visibility="hidden" style="font-size: 13px;">A</text><text y="358" x="508.6330935251799" text-anchor="middle" visibility="hidden" style="font-size: 13px;">V</text><text y="358" x="511.15107913669067" text-anchor="middle" visibility="hidden" style="font-size: 13px;">Y</text><text y="358" x="513.6690647482014" text-anchor="middle" visibility="hidden" style="font-size: 13px;">P</text><text y="358" x="516.1870503597122" text-anchor="middle" visibility="hidden" style="font-size: 13px;">H</text><text y="358" x="518.705035971223" text-anchor="middle" visibility="hidden" style="font-size: 13px;">N</text><text y="358" x="521.2230215827338" text-anchor="middle" visibility="hidden" style="font-size: 13px;">G</text><text y="358" x="523.7410071942446" text-anchor="middle" visibility="hidden" style="font-size: 13px;">M</text><text y="358" x="526.2589928057554" text-anchor="middle" visibility="hidden" style="font-size: 13px;">I</text><text y="358" x="528.7769784172662" text-anchor="middle" visibility="hidden" style="font-size: 13px;">D</text><text y="358" x="531.294964028777" text-anchor="middle" visibility="hidden" style="font-size: 13px;">L</text><text y="358" x="533.8129496402878" text-anchor="middle" visibility="hidden" style="font-size: 13px;">K</text><text y="358" x="536.3309352517986" text-anchor="middle" visibility="hidden" style="font-size: 13px;">Y</text><text y="358" x="538.8489208633093" text-anchor="middle" visibility="hidden" style="font-size: 13px;">F</text><text y="358" x="541.3669064748201" text-anchor="middle" visibility="hidden" style="font-size: 13px;">P</text><text y="358" x="543.884892086331" text-anchor="middle" visibility="hidden" style="font-size: 13px;">Y</text><text y="358" x="546.4028776978417" text-anchor="middle" visibility="hidden" style="font-size: 13px;">Y</text><text y="358" x="548.9208633093525" text-anchor="middle" visibility="hidden" style="font-size: 13px;">G</text><text y="358" x="551.4388489208633" text-anchor="middle" visibility="hidden" style="font-size: 13px;">K</text><text y="358" x="553.956834532374" text-anchor="middle" visibility="hidden" style="font-size: 13px;">K</text><text y="358" x="556.4748201438849" text-anchor="middle" visibility="hidden" style="font-size: 13px;">L</text><text y="358" x="558.9928057553957" text-anchor="middle" visibility="hidden" style="font-size: 13px;">H</text><text y="358" x="561.5107913669065" text-anchor="middle" visibility="hidden" style="font-size: 13px;">V</text><text y="358" x="564.0287769784172" text-anchor="middle" visibility="hidden" style="font-size: 13px;">G</text><text y="358" x="566.546762589928" text-anchor="middle" visibility="hidden" style="font-size: 13px;">Y</text><text y="358" x="569.0647482014389" text-anchor="middle" visibility="hidden" style="font-size: 13px;">L</text><text y="358" x="571.5827338129496" text-anchor="middle" visibility="hidden" style="font-size: 13px;">Q</text><text y="358" x="574.1007194244604" text-anchor="middle" visibility="hidden" style="font-size: 13px;">P</text><text y="358" x="576.6187050359712" text-anchor="middle" visibility="hidden" style="font-size: 13px;">L</text><text y="358" x="579.1366906474819" text-anchor="middle" visibility="hidden" style="font-size: 13px;">V</text><text y="358" x="581.6546762589928" text-anchor="middle" visibility="hidden" style="font-size: 13px;">A</text><text y="358" x="584.1726618705036" text-anchor="middle" visibility="hidden" style="font-size: 13px;">V</text><text y="358" x="586.6906474820144" text-anchor="middle" visibility="hidden" style="font-size: 13px;">Q</text><text y="358" x="589.2086330935251" text-anchor="middle" visibility="hidden" style="font-size: 13px;">V</text><text y="358" x="591.7266187050359" text-anchor="middle" visibility="hidden" style="font-size: 13px;">S</text><text y="358" x="594.2446043165468" text-anchor="middle" visibility="hidden" style="font-size: 13px;">F</text><text y="358" x="596.7625899280575" text-anchor="middle" visibility="hidden" style="font-size: 13px;">A</text><text y="358" x="599.2805755395683" text-anchor="middle" visibility="hidden" style="font-size: 13px;">P</text><text y="358" x="601.7985611510791" text-anchor="middle" visibility="hidden" style="font-size: 13px;">N</text><text y="358" x="604.31654676259" text-anchor="middle" visibility="hidden" style="font-size: 13px;">N</text><text y="358" x="606.8345323741007" text-anchor="middle" visibility="hidden" style="font-size: 13px;">T</text><text y="358" x="609.3525179856115" text-anchor="middle" visibility="hidden" style="font-size: 13px;">G</text><text y="358" x="611.8705035971223" text-anchor="middle" visibility="hidden" style="font-size: 13px;">K</text><text y="358" x="614.3884892086331" text-anchor="middle" visibility="hidden" style="font-size: 13px;">E</text><text y="358" x="616.9064748201439" text-anchor="middle" visibility="hidden" style="font-size: 13px;">V</text><text y="358" x="619.4244604316547" text-anchor="middle" visibility="hidden" style="font-size: 13px;">T</text><text y="358" x="621.9424460431654" text-anchor="middle" visibility="hidden" style="font-size: 13px;">V</text><text y="358" x="624.4604316546763" text-anchor="middle" visibility="hidden" style="font-size: 13px;">E</text><text y="358" x="626.9784172661871" text-anchor="middle" visibility="hidden" style="font-size: 13px;">C</text><text y="358" x="629.4964028776978" text-anchor="middle" visibility="hidden" style="font-size: 13px;">K</text><text y="358" x="632.0143884892086" text-anchor="middle" visibility="hidden" style="font-size: 13px;">I</text><text y="358" x="634.5323741007195" text-anchor="middle" visibility="hidden" style="font-size: 13px;">D</text><text y="358" x="637.0503597122303" text-anchor="middle" visibility="hidden" style="font-size: 13px;">G</text><text y="358" x="639.568345323741" text-anchor="middle" visibility="hidden" style="font-size: 13px;">S</text><text y="358" x="642.0863309352518" text-anchor="middle" visibility="hidden" style="font-size: 13px;">A</text><text y="358" x="644.6043165467627" text-anchor="middle" visibility="hidden" style="font-size: 13px;">N</text><text y="358" x="647.1223021582734" text-anchor="middle" visibility="hidden" style="font-size: 13px;">L</text><text y="358" x="649.6402877697842" text-anchor="middle" visibility="hidden" style="font-size: 13px;">K</text><text y="358" x="652.158273381295" text-anchor="middle" visibility="hidden" style="font-size: 13px;">S</text><text y="358" x="654.6762589928057" text-anchor="middle" visibility="hidden" style="font-size: 13px;">Q</text><text y="358" x="657.1942446043166" text-anchor="middle" visibility="hidden" style="font-size: 13px;">D</text><text y="358" x="659.7122302158274" text-anchor="middle" visibility="hidden" style="font-size: 13px;">D</text><text y="358" x="662.2302158273382" text-anchor="middle" visibility="hidden" style="font-size: 13px;">R</text><text y="358" x="664.7482014388489" text-anchor="middle" visibility="hidden" style="font-size: 13px;">D</text><text y="358" x="667.2661870503597" text-anchor="middle" visibility="hidden" style="font-size: 13px;">K</text><text y="358" x="669.7841726618706" text-anchor="middle" visibility="hidden" style="font-size: 13px;">F</text><text y="358" x="672.3021582733813" text-anchor="middle" visibility="hidden" style="font-size: 13px;">L</text><text y="358" x="674.8201438848921" text-anchor="middle" visibility="hidden" style="font-size: 13px;">G</text><text y="358" x="677.3381294964029" text-anchor="middle" visibility="hidden" style="font-size: 13px;">R</text><text y="358" x="679.8561151079136" text-anchor="middle" visibility="hidden" style="font-size: 13px;">V</text><text y="358" x="682.3741007194245" text-anchor="middle" visibility="hidden" style="font-size: 13px;">M</text><text y="358" x="684.8920863309353" text-anchor="middle" visibility="hidden" style="font-size: 13px;">F</text><text y="358" x="687.410071942446" text-anchor="middle" visibility="hidden" style="font-size: 13px;">K</text><text y="358" x="689.9280575539568" text-anchor="middle" visibility="hidden" style="font-size: 13px;">I</text><text y="358" x="692.4460431654676" text-anchor="middle" visibility="hidden" style="font-size: 13px;">T</text><text y="358" x="694.9640287769785" text-anchor="middle" visibility="hidden" style="font-size: 13px;">A</text><text y="358" x="697.4820143884892" text-anchor="middle" visibility="hidden" style="font-size: 13px;">R</text><text y="358" x="700" text-anchor="middle" visibility="hidden" style="font-size: 13px;">A</text></g></g></svg><g class="xAxis" transform="translate(0,360)" fill="none" font-size="10" font-family="sans-serif" text-anchor="middle"><path class="domain" stroke="#000" d="M0.5,6V0.5H700.5V6"></path><g class="tick" opacity="1" transform="translate(48.34172661870504,0)"><line stroke="#000" y2="6"></line><text fill="#000" y="9" dy="0.71em">20</text></g><g class="tick" opacity="1" transform="translate(98.70143884892086,0)"><line stroke="#000" y2="6"></line><text fill="#000" y="9" dy="0.71em">40</text></g><g class="tick" opacity="1" transform="translate(149.0611510791367,0)"><line stroke="#000" y2="6"></line><text fill="#000" y="9" dy="0.71em">60</text></g><g class="tick" opacity="1" transform="translate(199.4208633093525,0)"><line stroke="#000" y2="6"></line><text fill="#000" y="9" dy="0.71em">80</text></g><g class="tick" opacity="1" transform="translate(249.78057553956836,0)"><line stroke="#000" y2="6"></line><text fill="#000" y="9" dy="0.71em">100</text></g><g class="tick" opacity="1" transform="translate(300.14028776978415,0)"><line stroke="#000" y2="6"></line><text fill="#000" y="9" dy="0.71em">120</text></g><g class="tick" opacity="1" transform="translate(350.5,0)"><line stroke="#000" y2="6"></line><text fill="#000" y="9" dy="0.71em">140</text></g><g class="tick" opacity="1" transform="translate(400.85971223021585,0)"><line stroke="#000" y2="6"></line><text fill="#000" y="9" dy="0.71em">160</text></g><g class="tick" opacity="1" transform="translate(451.21942446043164,0)"><line stroke="#000" y2="6"></line><text fill="#000" y="9" dy="0.71em">180</text></g><g class="tick" opacity="1" transform="translate(501.5791366906475,0)"><line stroke="#000" y2="6"></line><text fill="#000" y="9" dy="0.71em">200</text></g><g class="tick" opacity="1" transform="translate(551.9388489208633,0)"><line stroke="#000" y2="6"></line><text fill="#000" y="9" dy="0.71em">220</text></g><g class="tick" opacity="1" transform="translate(602.2985611510791,0)"><line stroke="#000" y2="6"></line><text fill="#000" y="9" dy="0.71em">240</text></g><g class="tick" opacity="1" transform="translate(652.658273381295,0)"><line stroke="#000" y2="6"></line><text fill="#000" y="9" dy="0.71em">260</text></g></g><text class="x label" text-anchor="end" x="700" y="390" style="font-size: 13px; font-family: Arial;">Residue number</text><g class="yAxis" fill="none" font-size="10" font-family="sans-serif" text-anchor="end"><path class="domain" stroke="#000" d="M-6,360.5H0.5V0.5H-6"></path><g class="tick" opacity="1" transform="translate(0,327.77272727272725)"><line stroke="#000" x2="-6"></line><text fill="#000" x="-9" dy="0.32em">0</text></g><g class="tick" opacity="1" transform="translate(0,285.2697756788666)"><line stroke="#000" x2="-6"></line><text fill="#000" x="-9" dy="0.32em">2</text></g><g class="tick" opacity="1" transform="translate(0,242.7668240850059)"><line stroke="#000" x2="-6"></line><text fill="#000" x="-9" dy="0.32em">4</text></g><g class="tick" opacity="1" transform="translate(0,200.26387249114524)"><line stroke="#000" x2="-6"></line><text fill="#000" x="-9" dy="0.32em">6</text></g><g class="tick" opacity="1" transform="translate(0,157.76092089728456)"><line stroke="#000" x2="-6"></line><text fill="#000" x="-9" dy="0.32em">8</text></g><g class="tick" opacity="1" transform="translate(0,115.25796930342389)"><line stroke="#000" x2="-6"></line><text fill="#000" x="-9" dy="0.32em">10</text></g><g class="tick" opacity="1" transform="translate(0,72.75501770956322)"><line stroke="#000" x2="-6"></line><text fill="#000" x="-9" dy="0.32em">12</text></g><g class="tick" opacity="1" transform="translate(0,30.25206611570252)"><line stroke="#000" x2="-6"></line><text fill="#000" x="-9" dy="0.32em">14</text></g></g><text class="y label" text-anchor="middle" y="-50" x="-180" dy="0.8em" transform="rotate(-90)" style="font-size: 13px; font-family: Arial;">Total number of references</text><g class="axisRed" fill="none" font-size="10" font-family="sans-serif" text-anchor="start" visibility="hidden" transform="translate(700, 0)"><path class="domain" stroke="#000" d="M6,360.5H0.5V0.5H6"></path><g class="tick" opacity="1" transform="translate(0,360.5)"><line stroke="#000" x2="6"></line><text fill="#000" x="9" dy="0.32em">0</text></g><text text-anchor="start" dx="5.2em" dy="-2.6em" transform="rotate(90)" visibility="hidden" style="font-size: 12px; font-family: Arial; fill: #d7301f;">No recurrent (&gt;2) missense mutations!</text></g><g class="axisPurple" fill="none" font-size="10" font-family="sans-serif" text-anchor="start" visibility="hidden"><path class="domain" stroke="#000" d="M6,360.5H0.5V0.5H6"></path><g class="tick" opacity="1" transform="translate(0,357.52479338842977)"><line stroke="#000" x2="6"></line><text fill="#000" x="9" dy="0.32em"></text></g><g class="tick" opacity="1" transform="translate(0,327.77272727272725)"><line stroke="#000" x2="6"></line><text fill="#000" x="9" dy="0.32em">0</text></g><g class="tick" opacity="1" transform="translate(0,298.0206611570248)"><line stroke="#000" x2="6"></line><text fill="#000" x="9" dy="0.32em">0.1</text></g><g class="tick" opacity="1" transform="translate(0,268.2685950413223)"><line stroke="#000" x2="6"></line><text fill="#000" x="9" dy="0.32em">0.2</text></g><g class="tick" opacity="1" transform="translate(0,238.51652892561984)"><line stroke="#000" x2="6"></line><text fill="#000" x="9" dy="0.32em">0.3</text></g><g class="tick" opacity="1" transform="translate(0,208.76446280991738)"><line stroke="#000" x2="6"></line><text fill="#000" x="9" dy="0.32em">0.4</text></g><g class="tick" opacity="1" transform="translate(0,179.0123966942149)"><line stroke="#000" x2="6"></line><text fill="#000" x="9" dy="0.32em">0.5</text></g><g class="tick" opacity="1" transform="translate(0,149.26033057851242)"><line stroke="#000" x2="6"></line><text fill="#000" x="9" dy="0.32em">0.6</text></g><g class="tick" opacity="1" transform="translate(0,119.50826446280996)"><line stroke="#000" x2="6"></line><text fill="#000" x="9" dy="0.32em">0.7</text></g><g class="tick" opacity="1" transform="translate(0,89.75619834710744)"><line stroke="#000" x2="6"></line><text fill="#000" x="9" dy="0.32em">0.8</text></g><g class="tick" opacity="1" transform="translate(0,60.00413223140498)"><line stroke="#000" x2="6"></line><text fill="#000" x="9" dy="0.32em">0.9</text></g><g class="tick" opacity="1" transform="translate(0,30.25206611570252)"><line stroke="#000" x2="6"></line><text fill="#000" x="9" dy="0.32em">1</text></g><g class="tick" opacity="1" transform="translate(0,0.5)"><line stroke="#000" x2="6"></line><text fill="#000" x="9" dy="0.32em">1.1</text></g><text text-anchor="start" x="10" y="10" visibility="hidden" style="font-size: 12px; font-family: Arial; fill: #807dba;">No disease causing germline SNPs known!</text></g><circle cx="636" cy="15" r="10" class="compassNav" style="fill: #ffffff; stroke: #666666; stroke-width: 1px;"></circle><path d="M440.935 12.574l3.966 82.766C399.416 41.904 331.674 8 256 8 134.813 8 33.933 94.924 12.296 209.824 10.908 217.193 16.604 224 24.103 224h49.084c5.57 0 10.377-3.842 11.676-9.259C103.407 137.408 172.931 80 256 80c60.893 0 114.512 30.856 146.104 77.801l-101.53-4.865c-6.845-.328-12.574 5.133-12.574 11.986v47.411c0 6.627 5.373 12 12 12h200.333c6.627 0 12-5.373 12-12V12c0-6.627-5.373-12-12-12h-47.411c-6.853 0-12.315 5.729-11.987 12.574zM256 432c-60.895 0-114.517-30.858-146.109-77.805l101.868 4.871c6.845.327 12.573-5.134 12.573-11.986v-47.412c0-6.627-5.373-12-12-12H12c-6.627 0-12 5.373-12 12V500c0 6.627 5.373 12 12 12h47.385c6.863 0 12.328-5.745 11.985-12.599l-4.129-82.575C112.725 470.166 180.405 504 256 504c121.187 0 222.067-86.924 243.704-201.824 1.388-7.369-4.308-14.176-11.807-14.176h-49.084c-5.57 0-10.377 3.842-11.676 9.259C408.593 374.592 339.069 432 256 432z" class="compassNav" transform="translate(631, 10) scale(0.02)" style="fill: #666666; stroke: #666666; stroke-width: 1px;"></path><circle cx="658" cy="15" r="10" class="compassNav" style="fill: #ffffff; stroke: #666666; stroke-width: 1px;"></circle><line class="compassNav" stroke-width="2" stroke="#666666" x1="654" y1="15" x2="662" y2="15"></line><line class="compassNav" stroke-width="2" stroke="#666666" x1="658" y1="11" x2="658" y2="19"></line><circle cx="614" cy="15" r="10" class="compassNav" style="fill: #ffffff; stroke: #666666; stroke-width: 1px;"></circle><line class="compassNav" stroke-width="2" stroke="#666666" x1="610" y1="15" x2="618" y2="15"></line><path d="M582 14 l20 -12 a100,40 0 0,0 0,24z" class="compassNav" style="fill: #ffffff; stroke: #666666; stroke-width: 1px;"></path><path d="M690 14 l-20 -12 a100,40 0 0,1 0,24z" class="compassNav" style="fill: #ffffff; stroke: #666666; stroke-width: 1px;"></path><path d="M216 0h80c13.3 0 24 10.7 24 24v168h87.7c17.8 0 26.7 21.5 14.1 34.1L269.7 378.3c-7.5 7.5-19.8 7.5-27.3 0L90.1 226.1c-12.6-12.6-3.7-34.1 14.1-34.1H192V24c0-13.3 10.7-24 24-24zm296 376v112c0 13.3-10.7 24-24 24H24c-13.3 0-24-10.7-24-24V376c0-13.3 10.7-24 24-24h146.7l49 49c20.1 20.1 52.5 20.1 72.6 0l49-49H488c13.3 0 24 10.7 24 24zm-124 88c0-11-9-20-20-20s-20 9-20 20 9 20 20 20 20-9 20-20zm64 0c0-11-9-20-20-20s-20 9-20 20 9 20 20 20 20-9 20-20z" class="compassNav" transform="translate(552,0) scale(0.05)" style="fill: #336699; stroke: #336699; stroke-width: 1px; cursor: pointer;"></path></g></svg>