<svg width="800" height="400" style="background-color: white;"><g transform="translate(50,0)"><svg width="700" height="360"><g style="-webkit-tap-highlight-color: rgba(0, 0, 0, 0);"><rect width="700" height="360" style="fill: #ffffff;"></rect><g id="lines"><line class="line" stroke-width="1" stroke="#d7301f" x1="-390.6077348066298" y1="333" x2="-390.6077348066298" y2="360" visibility="hidden" style="stroke-dasharray: 3px, 3px;"></line></g><g><rect x="-395.6077348066298" y="355" width="10" height="10" visibility="hidden" style="fill: #ffffff; stroke: #d7301f;"></rect></g><g id="lines"><line class="line" stroke-width="1" stroke="#6a51a3" x1="-390.6077348066298" y1="333" x2="-390.6077348066298" y2="327.27272727272725" visibility="hidden" style="stroke-dasharray: 3px, 3px;"></line></g><g><rect x="-395.6077348066298" y="322.27272727272725" width="10" height="10" visibility="hidden" style="fill: #ffffff; stroke: #6a51a3;"></rect></g><g id="lines"><line class="line" stroke-width="1" stroke="#666666" x1="23.204419889502763" y1="333" x2="23.204419889502763" y2="298.9374262101535"></line><line class="line" stroke-width="1" stroke="#666666" x1="61.87845303867403" y1="333" x2="61.87845303867403" y2="313.10507674144037"></line><line class="line" stroke-width="1" stroke="#666666" x1="170.1657458563536" y1="333" x2="170.1657458563536" y2="313.10507674144037"></line><line class="line" stroke-width="1" stroke="#666666" x1="170.1657458563536" y1="333" x2="170.1657458563536" y2="313.10507674144037"></line><line class="line" stroke-width="1" stroke="#666666" x1="197.2375690607735" y1="333" x2="197.2375690607735" y2="313.10507674144037"></line><line class="line" stroke-width="1" stroke="#666666" x1="290.0552486187845" y1="333" x2="290.0552486187845" y2="29.75206611570252"></line><line class="line" stroke-width="1" stroke="#666666" x1="359.6685082872928" y1="333" x2="359.6685082872928" y2="284.7697756788666"></line><line class="line" stroke-width="1" stroke="#666666" x1="359.6685082872928" y1="333" x2="359.6685082872928" y2="298.9374262101535"></line><line class="line" stroke-width="1" stroke="#666666" x1="460.2209944751381" y1="333" x2="460.2209944751381" y2="313.10507674144037"></line><line class="line" stroke-width="1" stroke="#666666" x1="464.08839779005524" y1="333" x2="464.08839779005524" y2="313.10507674144037"></line><line class="line" stroke-width="1" stroke="#666666" x1="471.8232044198895" y1="333" x2="471.8232044198895" y2="313.10507674144037"></line><line class="line" stroke-width="1" stroke="#666666" x1="491.16022099447514" y1="333" x2="491.16022099447514" y2="298.9374262101535"></line><line class="line" stroke-width="1" stroke="#666666" x1="495.02762430939225" y1="333" x2="495.02762430939225" y2="298.9374262101535"></line><line class="line" stroke-width="1" stroke="#666666" x1="510.4972375690608" y1="333" x2="510.4972375690608" y2="298.9374262101535"></line><line class="line" stroke-width="1" stroke="#666666" x1="510.4972375690608" y1="333" x2="510.4972375690608" y2="313.10507674144037"></line><line class="line" stroke-width="1" stroke="#666666" x1="653.5911602209944" y1="333" x2="653.5911602209944" y2="313.10507674144037"></line></g><g id="circles"><circle r="4" cx="23.204419889502763" cy="298.9374262101535" style="fill: #4393c3; stroke: #666666; stroke-width: 1px;"></circle><circle r="4" cx="61.87845303867403" cy="313.10507674144037" style="fill: #4393c3; stroke: #666666; stroke-width: 1px;"></circle><circle r="4" cx="170.1657458563536" cy="313.10507674144037" style="fill: #5aae61; stroke: #666666; stroke-width: 1px;"></circle><circle r="4" cx="170.1657458563536" cy="313.10507674144037" style="fill: #bf812d; stroke: #666666; stroke-width: 1px;"></circle><circle r="4" cx="197.2375690607735" cy="313.10507674144037" style="fill: #4393c3; stroke: #666666; stroke-width: 1px;"></circle><circle r="4" cx="290.0552486187845" cy="29.75206611570252" style="fill: #4393c3; stroke: #666666; stroke-width: 1px;"></circle><circle r="4" cx="359.6685082872928" cy="284.7697756788666" style="fill: #5aae61; stroke: #666666; stroke-width: 1px;"></circle><circle r="4" cx="359.6685082872928" cy="298.9374262101535" style="fill: #bf812d; stroke: #666666; stroke-width: 1px;"></circle><circle r="4" cx="460.2209944751381" cy="313.10507674144037" style="fill: #5aae61; stroke: #666666; stroke-width: 1px;"></circle><circle r="4" cx="464.08839779005524" cy="313.10507674144037" style="fill: #4393c3; stroke: #666666; stroke-width: 1px;"></circle><circle r="4" cx="471.8232044198895" cy="313.10507674144037" style="fill: #5aae61; stroke: #666666; stroke-width: 1px;"></circle><circle r="4" cx="491.16022099447514" cy="298.9374262101535" style="fill: #4393c3; stroke: #666666; stroke-width: 1px;"></circle><circle r="4" cx="495.02762430939225" cy="298.9374262101535" style="fill: #4393c3; stroke: #666666; stroke-width: 1px;"></circle><circle r="4" cx="510.4972375690608" cy="298.9374262101535" style="fill: #5aae61; stroke: #666666; stroke-width: 1px;"></circle><circle r="4" cx="510.4972375690608" cy="313.10507674144037" style="fill: #666666; stroke: #666666; stroke-width: 1px;"></circle><circle r="4" cx="653.5911602209944" cy="313.10507674144037" style="fill: #5aae61; stroke: #666666; stroke-width: 1px;"></circle></g><g><rect x="0" y="333" width="700" height="12" style="fill: #ffffff; stroke-width: 1px; stroke: #666666;"></rect><rect x="108.28729281767956" y="333" width="560.7734806629834" height="12" style="fill: #aec7e8; stroke-width: 1px; stroke: #666666;"></rect></g><g><a target="_blank" xlink:href="http://pfam.xfam.org/family/"><text y="343" x="350" text-anchor="middle" style="color: rgb(102, 102, 102); font-weight: normal; font-size: 12px; font-family: Arial; cursor: pointer;"></text></a><a target="_blank" xlink:href="http://pfam.xfam.org/family/Armet"><text y="343" x="388.6740331491713" text-anchor="middle" style="color: rgb(102, 102, 102); font-weight: normal; font-size: 12px; font-family: Arial; cursor: pointer;">Armet</text></a></g><g><text y="358" x="0" text-anchor="middle" visibility="hidden" style="font-size: 13px;">M</text><text y="358" x="3.867403314917127" text-anchor="middle" visibility="hidden" style="font-size: 13px;">R</text><text y="358" x="7.734806629834254" text-anchor="middle" visibility="hidden" style="font-size: 13px;">R</text><text y="358" x="11.602209944751381" text-anchor="middle" visibility="hidden" style="font-size: 13px;">M</text><text y="358" x="15.469613259668508" text-anchor="middle" visibility="hidden" style="font-size: 13px;">W</text><text y="358" x="19.337016574585636" text-anchor="middle" visibility="hidden" style="font-size: 13px;">A</text><text y="358" x="23.204419889502763" text-anchor="middle" visibility="hidden" style="font-size: 13px;">T</text><text y="358" x="27.07182320441989" text-anchor="middle" visibility="hidden" style="font-size: 13px;">Q</text><text y="358" x="30.939226519337016" text-anchor="middle" visibility="hidden" style="font-size: 13px;">G</text><text y="358" x="34.80662983425414" text-anchor="middle" visibility="hidden" style="font-size: 13px;">L</text><text y="358" x="38.67403314917127" text-anchor="middle" visibility="hidden" style="font-size: 13px;">A</text><text y="358" x="42.5414364640884" text-anchor="middle" visibility="hidden" style="font-size: 13px;">V</text><text y="358" x="46.408839779005525" text-anchor="middle" visibility="hidden" style="font-size: 13px;">A</text><text y="358" x="50.27624309392265" text-anchor="middle" visibility="hidden" style="font-size: 13px;">L</text><text y="358" x="54.14364640883978" text-anchor="middle" visibility="hidden" style="font-size: 13px;">A</text><text y="358" x="58.011049723756905" text-anchor="middle" visibility="hidden" style="font-size: 13px;">L</text><text y="358" x="61.87845303867403" text-anchor="middle" visibility="hidden" style="font-size: 13px;">S</text><text y="358" x="65.74585635359115" text-anchor="middle" visibility="hidden" style="font-size: 13px;">V</text><text y="358" x="69.61325966850828" text-anchor="middle" visibility="hidden" style="font-size: 13px;">L</text><text y="358" x="73.48066298342542" text-anchor="middle" visibility="hidden" style="font-size: 13px;">P</text><text y="358" x="77.34806629834254" text-anchor="middle" visibility="hidden" style="font-size: 13px;">G</text><text y="358" x="81.21546961325967" text-anchor="middle" visibility="hidden" style="font-size: 13px;">S</text><text y="358" x="85.0828729281768" text-anchor="middle" visibility="hidden" style="font-size: 13px;">R</text><text y="358" x="88.95027624309392" text-anchor="middle" visibility="hidden" style="font-size: 13px;">A</text><text y="358" x="92.81767955801105" text-anchor="middle" visibility="hidden" style="font-size: 13px;">L</text><text y="358" x="96.68508287292818" text-anchor="middle" visibility="hidden" style="font-size: 13px;">R</text><text y="358" x="100.5524861878453" text-anchor="middle" visibility="hidden" style="font-size: 13px;">P</text><text y="358" x="104.41988950276243" text-anchor="middle" visibility="hidden" style="font-size: 13px;">G</text><text y="358" x="108.28729281767956" text-anchor="middle" visibility="hidden" style="font-size: 13px;">D</text><text y="358" x="112.15469613259668" text-anchor="middle" visibility="hidden" style="font-size: 13px;">C</text><text y="358" x="116.02209944751381" text-anchor="middle" visibility="hidden" style="font-size: 13px;">E</text><text y="358" x="119.88950276243095" text-anchor="middle" visibility="hidden" style="font-size: 13px;">V</text><text y="358" x="123.75690607734806" text-anchor="middle" visibility="hidden" style="font-size: 13px;">C</text><text y="358" x="127.6243093922652" text-anchor="middle" visibility="hidden" style="font-size: 13px;">I</text><text y="358" x="131.4917127071823" text-anchor="middle" visibility="hidden" style="font-size: 13px;">S</text><text y="358" x="135.35911602209944" text-anchor="middle" visibility="hidden" style="font-size: 13px;">Y</text><text y="358" x="139.22651933701655" text-anchor="middle" visibility="hidden" style="font-size: 13px;">L</text><text y="358" x="143.0939226519337" text-anchor="middle" visibility="hidden" style="font-size: 13px;">G</text><text y="358" x="146.96132596685084" text-anchor="middle" visibility="hidden" style="font-size: 13px;">R</text><text y="358" x="150.82872928176795" text-anchor="middle" visibility="hidden" style="font-size: 13px;">F</text><text y="358" x="154.6961325966851" text-anchor="middle" visibility="hidden" style="font-size: 13px;">Y</text><text y="358" x="158.5635359116022" text-anchor="middle" visibility="hidden" style="font-size: 13px;">Q</text><text y="358" x="162.43093922651934" text-anchor="middle" visibility="hidden" style="font-size: 13px;">D</text><text y="358" x="166.29834254143645" text-anchor="middle" visibility="hidden" style="font-size: 13px;">L</text><text y="358" x="170.1657458563536" text-anchor="middle" visibility="hidden" style="font-size: 13px;">K</text><text y="358" x="174.0331491712707" text-anchor="middle" visibility="hidden" style="font-size: 13px;">D</text><text y="358" x="177.90055248618785" text-anchor="middle" visibility="hidden" style="font-size: 13px;">R</text><text y="358" x="181.76795580110496" text-anchor="middle" visibility="hidden" style="font-size: 13px;">D</text><text y="358" x="185.6353591160221" text-anchor="middle" visibility="hidden" style="font-size: 13px;">V</text><text y="358" x="189.5027624309392" text-anchor="middle" visibility="hidden" style="font-size: 13px;">T</text><text y="358" x="193.37016574585635" text-anchor="middle" visibility="hidden" style="font-size: 13px;">F</text><text y="358" x="197.2375690607735" text-anchor="middle" visibility="hidden" style="font-size: 13px;">S</text><text y="358" x="201.1049723756906" text-anchor="middle" visibility="hidden" style="font-size: 13px;">P</text><text y="358" x="204.97237569060772" text-anchor="middle" visibility="hidden" style="font-size: 13px;">A</text><text y="358" x="208.83977900552486" text-anchor="middle" visibility="hidden" style="font-size: 13px;">T</text><text y="358" x="212.707182320442" text-anchor="middle" visibility="hidden" style="font-size: 13px;">I</text><text y="358" x="216.5745856353591" text-anchor="middle" visibility="hidden" style="font-size: 13px;">E</text><text y="358" x="220.44198895027623" text-anchor="middle" visibility="hidden" style="font-size: 13px;">N</text><text y="358" x="224.30939226519337" text-anchor="middle" visibility="hidden" style="font-size: 13px;">E</text><text y="358" x="228.1767955801105" text-anchor="middle" visibility="hidden" style="font-size: 13px;">L</text><text y="358" x="232.04419889502762" text-anchor="middle" visibility="hidden" style="font-size: 13px;">I</text><text y="358" x="235.91160220994476" text-anchor="middle" visibility="hidden" style="font-size: 13px;">K</text><text y="358" x="239.7790055248619" text-anchor="middle" visibility="hidden" style="font-size: 13px;">F</text><text y="358" x="243.646408839779" text-anchor="middle" visibility="hidden" style="font-size: 13px;">C</text><text y="358" x="247.51381215469613" text-anchor="middle" visibility="hidden" style="font-size: 13px;">R</text><text y="358" x="251.38121546961327" text-anchor="middle" visibility="hidden" style="font-size: 13px;">E</text><text y="358" x="255.2486187845304" text-anchor="middle" visibility="hidden" style="font-size: 13px;">A</text><text y="358" x="259.1160220994475" text-anchor="middle" visibility="hidden" style="font-size: 13px;">R</text><text y="358" x="262.9834254143646" text-anchor="middle" visibility="hidden" style="font-size: 13px;">G</text><text y="358" x="266.8508287292818" text-anchor="middle" visibility="hidden" style="font-size: 13px;">K</text><text y="358" x="270.7182320441989" text-anchor="middle" visibility="hidden" style="font-size: 13px;">E</text><text y="358" x="274.585635359116" text-anchor="middle" visibility="hidden" style="font-size: 13px;">N</text><text y="358" x="278.4530386740331" text-anchor="middle" visibility="hidden" style="font-size: 13px;">R</text><text y="358" x="282.3204419889503" text-anchor="middle" visibility="hidden" style="font-size: 13px;">L</text><text y="358" x="286.1878453038674" text-anchor="middle" visibility="hidden" style="font-size: 13px;">C</text><text y="358" x="290.0552486187845" text-anchor="middle" visibility="hidden" style="font-size: 13px;">Y</text><text y="358" x="293.9226519337017" text-anchor="middle" visibility="hidden" style="font-size: 13px;">Y</text><text y="358" x="297.7900552486188" text-anchor="middle" visibility="hidden" style="font-size: 13px;">I</text><text y="358" x="301.6574585635359" text-anchor="middle" visibility="hidden" style="font-size: 13px;">G</text><text y="358" x="305.524861878453" text-anchor="middle" visibility="hidden" style="font-size: 13px;">A</text><text y="358" x="309.3922651933702" text-anchor="middle" visibility="hidden" style="font-size: 13px;">T</text><text y="358" x="313.2596685082873" text-anchor="middle" visibility="hidden" style="font-size: 13px;">D</text><text y="358" x="317.1270718232044" text-anchor="middle" visibility="hidden" style="font-size: 13px;">D</text><text y="358" x="320.9944751381215" text-anchor="middle" visibility="hidden" style="font-size: 13px;">A</text><text y="358" x="324.8618784530387" text-anchor="middle" visibility="hidden" style="font-size: 13px;">A</text><text y="358" x="328.7292817679558" text-anchor="middle" visibility="hidden" style="font-size: 13px;">T</text><text y="358" x="332.5966850828729" text-anchor="middle" visibility="hidden" style="font-size: 13px;">K</text><text y="358" x="336.4640883977901" text-anchor="middle" visibility="hidden" style="font-size: 13px;">I</text><text y="358" x="340.3314917127072" text-anchor="middle" visibility="hidden" style="font-size: 13px;">I</text><text y="358" x="344.1988950276243" text-anchor="middle" visibility="hidden" style="font-size: 13px;">N</text><text y="358" x="348.0662983425414" text-anchor="middle" visibility="hidden" style="font-size: 13px;">E</text><text y="358" x="351.9337016574586" text-anchor="middle" visibility="hidden" style="font-size: 13px;">V</text><text y="358" x="355.8011049723757" text-anchor="middle" visibility="hidden" style="font-size: 13px;">S</text><text y="358" x="359.6685082872928" text-anchor="middle" visibility="hidden" style="font-size: 13px;">K</text><text y="358" x="363.5359116022099" text-anchor="middle" visibility="hidden" style="font-size: 13px;">P</text><text y="358" x="367.4033149171271" text-anchor="middle" visibility="hidden" style="font-size: 13px;">L</text><text y="358" x="371.2707182320442" text-anchor="middle" visibility="hidden" style="font-size: 13px;">A</text><text y="358" x="375.1381215469613" text-anchor="middle" visibility="hidden" style="font-size: 13px;">H</text><text y="358" x="379.0055248618784" text-anchor="middle" visibility="hidden" style="font-size: 13px;">H</text><text y="358" x="382.8729281767956" text-anchor="middle" visibility="hidden" style="font-size: 13px;">I</text><text y="358" x="386.7403314917127" text-anchor="middle" visibility="hidden" style="font-size: 13px;">P</text><text y="358" x="390.6077348066298" text-anchor="middle" visibility="hidden" style="font-size: 13px;">V</text><text y="358" x="394.475138121547" text-anchor="middle" visibility="hidden" style="font-size: 13px;">E</text><text y="358" x="398.3425414364641" text-anchor="middle" visibility="hidden" style="font-size: 13px;">K</text><text y="358" x="402.2099447513812" text-anchor="middle" visibility="hidden" style="font-size: 13px;">I</text><text y="358" x="406.0773480662983" text-anchor="middle" visibility="hidden" style="font-size: 13px;">C</text><text y="358" x="409.94475138121544" text-anchor="middle" visibility="hidden" style="font-size: 13px;">E</text><text y="358" x="413.8121546961326" text-anchor="middle" visibility="hidden" style="font-size: 13px;">K</text><text y="358" x="417.6795580110497" text-anchor="middle" visibility="hidden" style="font-size: 13px;">L</text><text y="358" x="421.5469613259669" text-anchor="middle" visibility="hidden" style="font-size: 13px;">K</text><text y="358" x="425.414364640884" text-anchor="middle" visibility="hidden" style="font-size: 13px;">K</text><text y="358" x="429.2817679558011" text-anchor="middle" visibility="hidden" style="font-size: 13px;">K</text><text y="358" x="433.1491712707182" text-anchor="middle" visibility="hidden" style="font-size: 13px;">D</text><text y="358" x="437.01657458563534" text-anchor="middle" visibility="hidden" style="font-size: 13px;">S</text><text y="358" x="440.88397790055245" text-anchor="middle" visibility="hidden" style="font-size: 13px;">Q</text><text y="358" x="444.7513812154696" text-anchor="middle" visibility="hidden" style="font-size: 13px;">I</text><text y="358" x="448.61878453038673" text-anchor="middle" visibility="hidden" style="font-size: 13px;">C</text><text y="358" x="452.4861878453039" text-anchor="middle" visibility="hidden" style="font-size: 13px;">E</text><text y="358" x="456.353591160221" text-anchor="middle" visibility="hidden" style="font-size: 13px;">L</text><text y="358" x="460.2209944751381" text-anchor="middle" visibility="hidden" style="font-size: 13px;">K</text><text y="358" x="464.08839779005524" text-anchor="middle" visibility="hidden" style="font-size: 13px;">Y</text><text y="358" x="467.95580110497235" text-anchor="middle" visibility="hidden" style="font-size: 13px;">D</text><text y="358" x="471.8232044198895" text-anchor="middle" visibility="hidden" style="font-size: 13px;">K</text><text y="358" x="475.69060773480663" text-anchor="middle" visibility="hidden" style="font-size: 13px;">Q</text><text y="358" x="479.5580110497238" text-anchor="middle" visibility="hidden" style="font-size: 13px;">I</text><text y="358" x="483.4254143646409" text-anchor="middle" visibility="hidden" style="font-size: 13px;">D</text><text y="358" x="487.292817679558" text-anchor="middle" visibility="hidden" style="font-size: 13px;">L</text><text y="358" x="491.16022099447514" text-anchor="middle" visibility="hidden" style="font-size: 13px;">S</text><text y="358" x="495.02762430939225" text-anchor="middle" visibility="hidden" style="font-size: 13px;">T</text><text y="358" x="498.89502762430936" text-anchor="middle" visibility="hidden" style="font-size: 13px;">V</text><text y="358" x="502.76243093922653" text-anchor="middle" visibility="hidden" style="font-size: 13px;">D</text><text y="358" x="506.6298342541437" text-anchor="middle" visibility="hidden" style="font-size: 13px;">L</text><text y="358" x="510.4972375690608" text-anchor="middle" visibility="hidden" style="font-size: 13px;">K</text><text y="358" x="514.3646408839779" text-anchor="middle" visibility="hidden" style="font-size: 13px;">K</text><text y="358" x="518.232044198895" text-anchor="middle" visibility="hidden" style="font-size: 13px;">L</text><text y="358" x="522.0994475138122" text-anchor="middle" visibility="hidden" style="font-size: 13px;">R</text><text y="358" x="525.9668508287292" text-anchor="middle" visibility="hidden" style="font-size: 13px;">V</text><text y="358" x="529.8342541436464" text-anchor="middle" visibility="hidden" style="font-size: 13px;">K</text><text y="358" x="533.7016574585635" text-anchor="middle" visibility="hidden" style="font-size: 13px;">E</text><text y="358" x="537.5690607734807" text-anchor="middle" visibility="hidden" style="font-size: 13px;">L</text><text y="358" x="541.4364640883978" text-anchor="middle" visibility="hidden" style="font-size: 13px;">K</text><text y="358" x="545.3038674033149" text-anchor="middle" visibility="hidden" style="font-size: 13px;">K</text><text y="358" x="549.171270718232" text-anchor="middle" visibility="hidden" style="font-size: 13px;">I</text><text y="358" x="553.0386740331492" text-anchor="middle" visibility="hidden" style="font-size: 13px;">L</text><text y="358" x="556.9060773480662" text-anchor="middle" visibility="hidden" style="font-size: 13px;">D</text><text y="358" x="560.7734806629834" text-anchor="middle" visibility="hidden" style="font-size: 13px;">D</text><text y="358" x="564.6408839779006" text-anchor="middle" visibility="hidden" style="font-size: 13px;">W</text><text y="358" x="568.5082872928177" text-anchor="middle" visibility="hidden" style="font-size: 13px;">G</text><text y="358" x="572.3756906077348" text-anchor="middle" visibility="hidden" style="font-size: 13px;">E</text><text y="358" x="576.243093922652" text-anchor="middle" visibility="hidden" style="font-size: 13px;">T</text><text y="358" x="580.110497237569" text-anchor="middle" visibility="hidden" style="font-size: 13px;">C</text><text y="358" x="583.9779005524862" text-anchor="middle" visibility="hidden" style="font-size: 13px;">K</text><text y="358" x="587.8453038674033" text-anchor="middle" visibility="hidden" style="font-size: 13px;">G</text><text y="358" x="591.7127071823204" text-anchor="middle" visibility="hidden" style="font-size: 13px;">C</text><text y="358" x="595.5801104972376" text-anchor="middle" visibility="hidden" style="font-size: 13px;">A</text><text y="358" x="599.4475138121547" text-anchor="middle" visibility="hidden" style="font-size: 13px;">E</text><text y="358" x="603.3149171270718" text-anchor="middle" visibility="hidden" style="font-size: 13px;">K</text><text y="358" x="607.182320441989" text-anchor="middle" visibility="hidden" style="font-size: 13px;">S</text><text y="358" x="611.049723756906" text-anchor="middle" visibility="hidden" style="font-size: 13px;">D</text><text y="358" x="614.9171270718232" text-anchor="middle" visibility="hidden" style="font-size: 13px;">Y</text><text y="358" x="618.7845303867404" text-anchor="middle" visibility="hidden" style="font-size: 13px;">I</text><text y="358" x="622.6519337016574" text-anchor="middle" visibility="hidden" style="font-size: 13px;">R</text><text y="358" x="626.5193370165746" text-anchor="middle" visibility="hidden" style="font-size: 13px;">K</text><text y="358" x="630.3867403314918" text-anchor="middle" visibility="hidden" style="font-size: 13px;">I</text><text y="358" x="634.2541436464088" text-anchor="middle" visibility="hidden" style="font-size: 13px;">N</text><text y="358" x="638.121546961326" text-anchor="middle" visibility="hidden" style="font-size: 13px;">E</text><text y="358" x="641.988950276243" text-anchor="middle" visibility="hidden" style="font-size: 13px;">L</text><text y="358" x="645.8563535911602" text-anchor="middle" visibility="hidden" style="font-size: 13px;">M</text><text y="358" x="649.7237569060774" text-anchor="middle" visibility="hidden" style="font-size: 13px;">P</text><text y="358" x="653.5911602209944" text-anchor="middle" visibility="hidden" style="font-size: 13px;">K</text><text y="358" x="657.4585635359116" text-anchor="middle" visibility="hidden" style="font-size: 13px;">Y</text><text y="358" x="661.3259668508288" text-anchor="middle" visibility="hidden" style="font-size: 13px;">A</text><text y="358" x="665.1933701657458" text-anchor="middle" visibility="hidden" style="font-size: 13px;">P</text><text y="358" x="669.060773480663" text-anchor="middle" visibility="hidden" style="font-size: 13px;">K</text><text y="358" x="672.9281767955802" text-anchor="middle" visibility="hidden" style="font-size: 13px;">A</text><text y="358" x="676.7955801104972" text-anchor="middle" visibility="hidden" style="font-size: 13px;">A</text><text y="358" x="680.6629834254144" text-anchor="middle" visibility="hidden" style="font-size: 13px;">S</text><text y="358" x="684.5303867403314" text-anchor="middle" visibility="hidden" style="font-size: 13px;">A</text><text y="358" x="688.3977900552486" text-anchor="middle" visibility="hidden" style="font-size: 13px;">R</text><text y="358" x="692.2651933701658" text-anchor="middle" visibility="hidden" style="font-size: 13px;">T</text><text y="358" x="696.1325966850828" text-anchor="middle" visibility="hidden" style="font-size: 13px;">D</text><text y="358" x="700" text-anchor="middle" visibility="hidden" style="font-size: 13px;">L</text></g></g></svg><g class="xAxis" transform="translate(0,360)" fill="none" font-size="10" font-family="sans-serif" text-anchor="middle"><path class="domain" stroke="#000" d="M0.5,6V0.5H700.5V6"></path><g class="tick" opacity="1" transform="translate(73.98066298342542,0)"><line stroke="#000" y2="6"></line><text fill="#000" y="9" dy="0.71em">20</text></g><g class="tick" opacity="1" transform="translate(151.32872928176795,0)"><line stroke="#000" y2="6"></line><text fill="#000" y="9" dy="0.71em">40</text></g><g class="tick" opacity="1" transform="translate(228.6767955801105,0)"><line stroke="#000" y2="6"></line><text fill="#000" y="9" dy="0.71em">60</text></g><g class="tick" opacity="1" transform="translate(306.024861878453,0)"><line stroke="#000" y2="6"></line><text fill="#000" y="9" dy="0.71em">80</text></g><g class="tick" opacity="1" transform="translate(383.3729281767956,0)"><line stroke="#000" y2="6"></line><text fill="#000" y="9" dy="0.71em">100</text></g><g class="tick" opacity="1" transform="translate(460.7209944751381,0)"><line stroke="#000" y2="6"></line><text fill="#000" y="9" dy="0.71em">120</text></g><g class="tick" opacity="1" transform="translate(538.0690607734807,0)"><line stroke="#000" y2="6"></line><text fill="#000" y="9" dy="0.71em">140</text></g><g class="tick" opacity="1" transform="translate(615.4171270718232,0)"><line stroke="#000" y2="6"></line><text fill="#000" y="9" dy="0.71em">160</text></g><g class="tick" opacity="1" transform="translate(692.7651933701658,0)"><line stroke="#000" y2="6"></line><text fill="#000" y="9" dy="0.71em">180</text></g></g><text class="x label" text-anchor="end" x="700" y="390" style="font-size: 13px; font-family: Arial;">Residue number</text><g class="yAxis" fill="none" font-size="10" font-family="sans-serif" text-anchor="end"><path class="domain" stroke="#000" d="M-6,360.5H0.5V0.5H-6"></path><g class="tick" opacity="1" transform="translate(0,356.10802833530107)"><line stroke="#000" x2="-6"></line><text fill="#000" x="-9" dy="0.32em"></text></g><g class="tick" opacity="1" transform="translate(0,327.77272727272725)"><line stroke="#000" x2="-6"></line><text fill="#000" x="-9" dy="0.32em">0</text></g><g class="tick" opacity="1" transform="translate(0,299.4374262101535)"><line stroke="#000" x2="-6"></line><text fill="#000" x="-9" dy="0.32em">2</text></g><g class="tick" opacity="1" transform="translate(0,271.10212514757967)"><line stroke="#000" x2="-6"></line><text fill="#000" x="-9" dy="0.32em">4</text></g><g class="tick" opacity="1" transform="translate(0,242.7668240850059)"><line stroke="#000" x2="-6"></line><text fill="#000" x="-9" dy="0.32em">6</text></g><g class="tick" opacity="1" transform="translate(0,214.43152302243212)"><line stroke="#000" x2="-6"></line><text fill="#000" x="-9" dy="0.32em">8</text></g><g class="tick" opacity="1" transform="translate(0,186.09622195985833)"><line stroke="#000" x2="-6"></line><text fill="#000" x="-9" dy="0.32em">10</text></g><g class="tick" opacity="1" transform="translate(0,157.76092089728454)"><line stroke="#000" x2="-6"></line><text fill="#000" x="-9" dy="0.32em">12</text></g><g class="tick" opacity="1" transform="translate(0,129.42561983471077)"><line stroke="#000" x2="-6"></line><text fill="#000" x="-9" dy="0.32em">14</text></g><g class="tick" opacity="1" transform="translate(0,101.09031877213698)"><line stroke="#000" x2="-6"></line><text fill="#000" x="-9" dy="0.32em">16</text></g><g class="tick" opacity="1" transform="translate(0,72.75501770956322)"><line stroke="#000" x2="-6"></line><text fill="#000" x="-9" dy="0.32em">18</text></g><g class="tick" opacity="1" transform="translate(0,44.4197166469894)"><line stroke="#000" x2="-6"></line><text fill="#000" x="-9" dy="0.32em">20</text></g><g class="tick" opacity="1" transform="translate(0,16.084415584415638)"><line stroke="#000" x2="-6"></line><text fill="#000" x="-9" dy="0.32em">22</text></g></g><text class="y label" text-anchor="middle" y="-50" x="-180" dy="0.8em" transform="rotate(-90)" style="font-size: 13px; font-family: Arial;">Total number of references</text><g class="axisRed" fill="none" font-size="10" font-family="sans-serif" text-anchor="start" visibility="hidden" transform="translate(700, 0)"><path class="domain" stroke="#000" d="M6,360.5H0.5V0.5H6"></path><g class="tick" opacity="1" transform="translate(0,360.5)"><line stroke="#000" x2="6"></line><text fill="#000" x="9" dy="0.32em">0</text></g><text text-anchor="start" dx="5.2em" dy="-2.6em" transform="rotate(90)" visibility="hidden" style="font-size: 12px; font-family: Arial; fill: #d7301f;">No recurrent (&gt;2) missense mutations!</text></g><g class="axisPurple" fill="none" font-size="10" font-family="sans-serif" text-anchor="start" visibility="hidden"><path class="domain" stroke="#000" d="M6,360.5H0.5V0.5H6"></path><g class="tick" opacity="1" transform="translate(0,357.52479338842977)"><line stroke="#000" x2="6"></line><text fill="#000" x="9" dy="0.32em"></text></g><g class="tick" opacity="1" transform="translate(0,327.77272727272725)"><line stroke="#000" x2="6"></line><text fill="#000" x="9" dy="0.32em">0</text></g><g class="tick" opacity="1" transform="translate(0,298.0206611570248)"><line stroke="#000" x2="6"></line><text fill="#000" x="9" dy="0.32em">0.1</text></g><g class="tick" opacity="1" transform="translate(0,268.2685950413223)"><line stroke="#000" x2="6"></line><text fill="#000" x="9" dy="0.32em">0.2</text></g><g class="tick" opacity="1" transform="translate(0,238.51652892561984)"><line stroke="#000" x2="6"></line><text fill="#000" x="9" dy="0.32em">0.3</text></g><g class="tick" opacity="1" transform="translate(0,208.76446280991738)"><line stroke="#000" x2="6"></line><text fill="#000" x="9" dy="0.32em">0.4</text></g><g class="tick" opacity="1" transform="translate(0,179.0123966942149)"><line stroke="#000" x2="6"></line><text fill="#000" x="9" dy="0.32em">0.5</text></g><g class="tick" opacity="1" transform="translate(0,149.26033057851242)"><line stroke="#000" x2="6"></line><text fill="#000" x="9" dy="0.32em">0.6</text></g><g class="tick" opacity="1" transform="translate(0,119.50826446280996)"><line stroke="#000" x2="6"></line><text fill="#000" x="9" dy="0.32em">0.7</text></g><g class="tick" opacity="1" transform="translate(0,89.75619834710744)"><line stroke="#000" x2="6"></line><text fill="#000" x="9" dy="0.32em">0.8</text></g><g class="tick" opacity="1" transform="translate(0,60.00413223140498)"><line stroke="#000" x2="6"></line><text fill="#000" x="9" dy="0.32em">0.9</text></g><g class="tick" opacity="1" transform="translate(0,30.25206611570252)"><line stroke="#000" x2="6"></line><text fill="#000" x="9" dy="0.32em">1</text></g><g class="tick" opacity="1" transform="translate(0,0.5)"><line stroke="#000" x2="6"></line><text fill="#000" x="9" dy="0.32em">1.1</text></g><text text-anchor="start" x="10" y="10" visibility="hidden" style="font-size: 12px; font-family: Arial; fill: #807dba;">No disease causing germline SNPs known!</text></g><circle cx="636" cy="15" r="10" class="compassNav" style="fill: #ffffff; stroke: #666666; stroke-width: 1px;"></circle><path d="M440.935 12.574l3.966 82.766C399.416 41.904 331.674 8 256 8 134.813 8 33.933 94.924 12.296 209.824 10.908 217.193 16.604 224 24.103 224h49.084c5.57 0 10.377-3.842 11.676-9.259C103.407 137.408 172.931 80 256 80c60.893 0 114.512 30.856 146.104 77.801l-101.53-4.865c-6.845-.328-12.574 5.133-12.574 11.986v47.411c0 6.627 5.373 12 12 12h200.333c6.627 0 12-5.373 12-12V12c0-6.627-5.373-12-12-12h-47.411c-6.853 0-12.315 5.729-11.987 12.574zM256 432c-60.895 0-114.517-30.858-146.109-77.805l101.868 4.871c6.845.327 12.573-5.134 12.573-11.986v-47.412c0-6.627-5.373-12-12-12H12c-6.627 0-12 5.373-12 12V500c0 6.627 5.373 12 12 12h47.385c6.863 0 12.328-5.745 11.985-12.599l-4.129-82.575C112.725 470.166 180.405 504 256 504c121.187 0 222.067-86.924 243.704-201.824 1.388-7.369-4.308-14.176-11.807-14.176h-49.084c-5.57 0-10.377 3.842-11.676 9.259C408.593 374.592 339.069 432 256 432z" class="compassNav" transform="translate(631, 10) scale(0.02)" style="fill: #666666; stroke: #666666; stroke-width: 1px;"></path><circle cx="658" cy="15" r="10" class="compassNav" style="fill: #ffffff; stroke: #666666; stroke-width: 1px;"></circle><line class="compassNav" stroke-width="2" stroke="#666666" x1="654" y1="15" x2="662" y2="15"></line><line class="compassNav" stroke-width="2" stroke="#666666" x1="658" y1="11" x2="658" y2="19"></line><circle cx="614" cy="15" r="10" class="compassNav" style="fill: #ffffff; stroke: #666666; stroke-width: 1px;"></circle><line class="compassNav" stroke-width="2" stroke="#666666" x1="610" y1="15" x2="618" y2="15"></line><path d="M582 14 l20 -12 a100,40 0 0,0 0,24z" class="compassNav" style="fill: #ffffff; stroke: #666666; stroke-width: 1px;"></path><path d="M690 14 l-20 -12 a100,40 0 0,1 0,24z" class="compassNav" style="fill: #ffffff; stroke: #666666; stroke-width: 1px;"></path><path d="M216 0h80c13.3 0 24 10.7 24 24v168h87.7c17.8 0 26.7 21.5 14.1 34.1L269.7 378.3c-7.5 7.5-19.8 7.5-27.3 0L90.1 226.1c-12.6-12.6-3.7-34.1 14.1-34.1H192V24c0-13.3 10.7-24 24-24zm296 376v112c0 13.3-10.7 24-24 24H24c-13.3 0-24-10.7-24-24V376c0-13.3 10.7-24 24-24h146.7l49 49c20.1 20.1 52.5 20.1 72.6 0l49-49H488c13.3 0 24 10.7 24 24zm-124 88c0-11-9-20-20-20s-20 9-20 20 9 20 20 20 20-9 20-20zm64 0c0-11-9-20-20-20s-20 9-20 20 9 20 20 20 20-9 20-20z" class="compassNav" transform="translate(552,0) scale(0.05)" style="fill: #336699; stroke: #336699; stroke-width: 1px; cursor: pointer;"></path></g></svg>