<svg width="800" height="400" style="background-color: white;"><g transform="translate(50,0)"><svg width="700" height="360"><g style="-webkit-tap-highlight-color: rgba(0, 0, 0, 0);"><rect width="700" height="360" style="fill: #ffffff;"></rect><g id="lines"><line class="line" stroke-width="1" stroke="#d7301f" x1="-599.1525423728814" y1="333" x2="-599.1525423728814" y2="360" visibility="hidden" style="stroke-dasharray: 3px, 3px;"></line></g><g><rect x="-604.1525423728814" y="355" width="10" height="10" visibility="hidden" style="fill: #ffffff; stroke: #d7301f;"></rect></g><g id="lines"><line class="line" stroke-width="1" stroke="#6a51a3" x1="563.5593220338983" y1="333" x2="563.5593220338983" y2="327.27272727272725" visibility="hidden" style="stroke-dasharray: 3px, 3px;"></line><line class="line" stroke-width="1" stroke="#6a51a3" x1="59.32203389830508" y1="333" x2="59.32203389830508" y2="327.27272727272725" visibility="hidden" style="stroke-dasharray: 3px, 3px;"></line></g><g><rect x="558.5593220338983" y="322.27272727272725" width="10" height="10" visibility="hidden" style="fill: #ffffff; stroke: #6a51a3;"></rect><rect x="54.32203389830508" y="322.27272727272725" width="10" height="10" visibility="hidden" style="fill: #ffffff; stroke: #6a51a3;"></rect></g><g id="lines"><line class="line" stroke-width="1" stroke="#666666" x1="17.796610169491526" y1="333" x2="17.796610169491526" y2="267.7685950413223"></line><line class="line" stroke-width="1" stroke="#666666" x1="77.11864406779661" y1="333" x2="77.11864406779661" y2="267.7685950413223"></line><line class="line" stroke-width="1" stroke="#666666" x1="136.4406779661017" y1="333" x2="136.4406779661017" y2="267.7685950413223"></line><line class="line" stroke-width="1" stroke="#666666" x1="148.3050847457627" y1="333" x2="148.3050847457627" y2="267.7685950413223"></line><line class="line" stroke-width="1" stroke="#666666" x1="172.03389830508476" y1="333" x2="172.03389830508476" y2="89.25619834710744"></line><line class="line" stroke-width="1" stroke="#666666" x1="177.96610169491524" y1="333" x2="177.96610169491524" y2="267.7685950413223"></line><line class="line" stroke-width="1" stroke="#666666" x1="225.4237288135593" y1="333" x2="225.4237288135593" y2="267.7685950413223"></line><line class="line" stroke-width="1" stroke="#666666" x1="355.9322033898305" y1="333" x2="355.9322033898305" y2="29.75206611570252"></line><line class="line" stroke-width="1" stroke="#666666" x1="397.4576271186441" y1="333" x2="397.4576271186441" y2="208.26446280991735"></line><line class="line" stroke-width="1" stroke="#666666" x1="421.18644067796606" y1="333" x2="421.18644067796606" y2="267.7685950413223"></line><line class="line" stroke-width="1" stroke="#666666" x1="438.9830508474576" y1="333" x2="438.9830508474576" y2="208.26446280991735"></line><line class="line" stroke-width="1" stroke="#666666" x1="450.8474576271186" y1="333" x2="450.8474576271186" y2="267.7685950413223"></line><line class="line" stroke-width="1" stroke="#666666" x1="456.7796610169492" y1="333" x2="456.7796610169492" y2="267.7685950413223"></line><line class="line" stroke-width="1" stroke="#666666" x1="622.8813559322034" y1="333" x2="622.8813559322034" y2="267.7685950413223"></line><line class="line" stroke-width="1" stroke="#666666" x1="634.7457627118645" y1="333" x2="634.7457627118645" y2="267.7685950413223"></line><line class="line" stroke-width="1" stroke="#666666" x1="634.7457627118645" y1="333" x2="634.7457627118645" y2="267.7685950413223"></line><line class="line" stroke-width="1" stroke="#666666" x1="652.542372881356" y1="333" x2="652.542372881356" y2="267.7685950413223"></line><line class="line" stroke-width="1" stroke="#666666" x1="670.3389830508474" y1="333" x2="670.3389830508474" y2="148.76033057851242"></line></g><g id="circles"><circle r="4" cx="17.796610169491526" cy="267.7685950413223" style="fill: #4393c3; stroke: #666666; stroke-width: 1px;"></circle><circle r="4" cx="77.11864406779661" cy="267.7685950413223" style="fill: #4393c3; stroke: #666666; stroke-width: 1px;"></circle><circle r="4" cx="136.4406779661017" cy="267.7685950413223" style="fill: #4393c3; stroke: #666666; stroke-width: 1px;"></circle><circle r="4" cx="148.3050847457627" cy="267.7685950413223" style="fill: #bf812d; stroke: #666666; stroke-width: 1px;"></circle><circle r="4" cx="172.03389830508476" cy="89.25619834710744" style="fill: #4393c3; stroke: #666666; stroke-width: 1px;"></circle><circle r="4" cx="177.96610169491524" cy="267.7685950413223" style="fill: #4393c3; stroke: #666666; stroke-width: 1px;"></circle><circle r="4" cx="225.4237288135593" cy="267.7685950413223" style="fill: #bf812d; stroke: #666666; stroke-width: 1px;"></circle><circle r="4" cx="355.9322033898305" cy="29.75206611570252" style="fill: #bf812d; stroke: #666666; stroke-width: 1px;"></circle><circle r="4" cx="397.4576271186441" cy="208.26446280991735" style="fill: #bf812d; stroke: #666666; stroke-width: 1px;"></circle><circle r="4" cx="421.18644067796606" cy="267.7685950413223" style="fill: #4393c3; stroke: #666666; stroke-width: 1px;"></circle><circle r="4" cx="438.9830508474576" cy="208.26446280991735" style="fill: #4393c3; stroke: #666666; stroke-width: 1px;"></circle><circle r="4" cx="450.8474576271186" cy="267.7685950413223" style="fill: #4393c3; stroke: #666666; stroke-width: 1px;"></circle><circle r="4" cx="456.7796610169492" cy="267.7685950413223" style="fill: #666666; stroke: #666666; stroke-width: 1px;"></circle><circle r="4" cx="622.8813559322034" cy="267.7685950413223" style="fill: #666666; stroke: #666666; stroke-width: 1px;"></circle><circle r="4" cx="634.7457627118645" cy="267.7685950413223" style="fill: #5aae61; stroke: #666666; stroke-width: 1px;"></circle><circle r="4" cx="634.7457627118645" cy="267.7685950413223" style="fill: #4393c3; stroke: #666666; stroke-width: 1px;"></circle><circle r="4" cx="652.542372881356" cy="267.7685950413223" style="fill: #bf812d; stroke: #666666; stroke-width: 1px;"></circle><circle r="4" cx="670.3389830508474" cy="148.76033057851242" style="fill: #bf812d; stroke: #666666; stroke-width: 1px;"></circle></g><g><rect x="0" y="333" width="700" height="12" style="fill: #ffffff; stroke-width: 1px; stroke: #666666;"></rect><rect x="154.23728813559322" y="333" width="474.57627118644075" height="12" style="fill: #aec7e8; stroke-width: 1px; stroke: #666666;"></rect></g><g><a target="_blank" xlink:href="http://pfam.xfam.org/family/"><text y="343" x="350" text-anchor="middle" style="color: rgb(102, 102, 102); font-weight: normal; font-size: 12px; font-family: Arial; cursor: pointer;"></text></a><a target="_blank" xlink:href="http://pfam.xfam.org/family/C1-set"><text y="343" x="391.52542372881356" text-anchor="middle" style="color: rgb(102, 102, 102); font-weight: normal; font-size: 12px; font-family: Arial; cursor: pointer;">C1-set</text></a></g><g><text y="358" x="0" text-anchor="middle" visibility="hidden" style="font-size: 13px;">M</text><text y="358" x="5.932203389830509" text-anchor="middle" visibility="hidden" style="font-size: 13px;">S</text><text y="358" x="11.864406779661017" text-anchor="middle" visibility="hidden" style="font-size: 13px;">R</text><text y="358" x="17.796610169491526" text-anchor="middle" visibility="hidden" style="font-size: 13px;">S</text><text y="358" x="23.728813559322035" text-anchor="middle" visibility="hidden" style="font-size: 13px;">V</text><text y="358" x="29.66101694915254" text-anchor="middle" visibility="hidden" style="font-size: 13px;">A</text><text y="358" x="35.59322033898305" text-anchor="middle" visibility="hidden" style="font-size: 13px;">L</text><text y="358" x="41.52542372881356" text-anchor="middle" visibility="hidden" style="font-size: 13px;">A</text><text y="358" x="47.45762711864407" text-anchor="middle" visibility="hidden" style="font-size: 13px;">V</text><text y="358" x="53.38983050847458" text-anchor="middle" visibility="hidden" style="font-size: 13px;">L</text><text y="358" x="59.32203389830508" text-anchor="middle" visibility="hidden" style="font-size: 13px;">A</text><text y="358" x="65.2542372881356" text-anchor="middle" visibility="hidden" style="font-size: 13px;">L</text><text y="358" x="71.1864406779661" text-anchor="middle" visibility="hidden" style="font-size: 13px;">L</text><text y="358" x="77.11864406779661" text-anchor="middle" visibility="hidden" style="font-size: 13px;">S</text><text y="358" x="83.05084745762711" text-anchor="middle" visibility="hidden" style="font-size: 13px;">L</text><text y="358" x="88.98305084745762" text-anchor="middle" visibility="hidden" style="font-size: 13px;">S</text><text y="358" x="94.91525423728814" text-anchor="middle" visibility="hidden" style="font-size: 13px;">G</text><text y="358" x="100.84745762711864" text-anchor="middle" visibility="hidden" style="font-size: 13px;">L</text><text y="358" x="106.77966101694916" text-anchor="middle" visibility="hidden" style="font-size: 13px;">E</text><text y="358" x="112.71186440677965" text-anchor="middle" visibility="hidden" style="font-size: 13px;">A</text><text y="358" x="118.64406779661016" text-anchor="middle" visibility="hidden" style="font-size: 13px;">I</text><text y="358" x="124.57627118644068" text-anchor="middle" visibility="hidden" style="font-size: 13px;">Q</text><text y="358" x="130.5084745762712" text-anchor="middle" visibility="hidden" style="font-size: 13px;">R</text><text y="358" x="136.4406779661017" text-anchor="middle" visibility="hidden" style="font-size: 13px;">T</text><text y="358" x="142.3728813559322" text-anchor="middle" visibility="hidden" style="font-size: 13px;">P</text><text y="358" x="148.3050847457627" text-anchor="middle" visibility="hidden" style="font-size: 13px;">K</text><text y="358" x="154.23728813559322" text-anchor="middle" visibility="hidden" style="font-size: 13px;">I</text><text y="358" x="160.16949152542372" text-anchor="middle" visibility="hidden" style="font-size: 13px;">Q</text><text y="358" x="166.10169491525423" text-anchor="middle" visibility="hidden" style="font-size: 13px;">V</text><text y="358" x="172.03389830508476" text-anchor="middle" visibility="hidden" style="font-size: 13px;">Y</text><text y="358" x="177.96610169491524" text-anchor="middle" visibility="hidden" style="font-size: 13px;">S</text><text y="358" x="183.89830508474577" text-anchor="middle" visibility="hidden" style="font-size: 13px;">R</text><text y="358" x="189.83050847457628" text-anchor="middle" visibility="hidden" style="font-size: 13px;">H</text><text y="358" x="195.76271186440675" text-anchor="middle" visibility="hidden" style="font-size: 13px;">P</text><text y="358" x="201.6949152542373" text-anchor="middle" visibility="hidden" style="font-size: 13px;">A</text><text y="358" x="207.6271186440678" text-anchor="middle" visibility="hidden" style="font-size: 13px;">E</text><text y="358" x="213.55932203389833" text-anchor="middle" visibility="hidden" style="font-size: 13px;">N</text><text y="358" x="219.4915254237288" text-anchor="middle" visibility="hidden" style="font-size: 13px;">G</text><text y="358" x="225.4237288135593" text-anchor="middle" visibility="hidden" style="font-size: 13px;">K</text><text y="358" x="231.35593220338984" text-anchor="middle" visibility="hidden" style="font-size: 13px;">S</text><text y="358" x="237.28813559322032" text-anchor="middle" visibility="hidden" style="font-size: 13px;">N</text><text y="358" x="243.22033898305085" text-anchor="middle" visibility="hidden" style="font-size: 13px;">F</text><text y="358" x="249.15254237288136" text-anchor="middle" visibility="hidden" style="font-size: 13px;">L</text><text y="358" x="255.08474576271183" text-anchor="middle" visibility="hidden" style="font-size: 13px;">N</text><text y="358" x="261.0169491525424" text-anchor="middle" visibility="hidden" style="font-size: 13px;">C</text><text y="358" x="266.9491525423729" text-anchor="middle" visibility="hidden" style="font-size: 13px;">Y</text><text y="358" x="272.8813559322034" text-anchor="middle" visibility="hidden" style="font-size: 13px;">V</text><text y="358" x="278.8135593220339" text-anchor="middle" visibility="hidden" style="font-size: 13px;">S</text><text y="358" x="284.7457627118644" text-anchor="middle" visibility="hidden" style="font-size: 13px;">G</text><text y="358" x="290.6779661016949" text-anchor="middle" visibility="hidden" style="font-size: 13px;">F</text><text y="358" x="296.6101694915254" text-anchor="middle" visibility="hidden" style="font-size: 13px;">H</text><text y="358" x="302.54237288135596" text-anchor="middle" visibility="hidden" style="font-size: 13px;">P</text><text y="358" x="308.47457627118644" text-anchor="middle" visibility="hidden" style="font-size: 13px;">S</text><text y="358" x="314.40677966101697" text-anchor="middle" visibility="hidden" style="font-size: 13px;">D</text><text y="358" x="320.33898305084745" text-anchor="middle" visibility="hidden" style="font-size: 13px;">I</text><text y="358" x="326.271186440678" text-anchor="middle" visibility="hidden" style="font-size: 13px;">E</text><text y="358" x="332.20338983050846" text-anchor="middle" visibility="hidden" style="font-size: 13px;">V</text><text y="358" x="338.135593220339" text-anchor="middle" visibility="hidden" style="font-size: 13px;">D</text><text y="358" x="344.0677966101695" text-anchor="middle" visibility="hidden" style="font-size: 13px;">L</text><text y="358" x="350" text-anchor="middle" visibility="hidden" style="font-size: 13px;">L</text><text y="358" x="355.9322033898305" text-anchor="middle" visibility="hidden" style="font-size: 13px;">K</text><text y="358" x="361.864406779661" text-anchor="middle" visibility="hidden" style="font-size: 13px;">N</text><text y="358" x="367.79661016949154" text-anchor="middle" visibility="hidden" style="font-size: 13px;">G</text><text y="358" x="373.728813559322" text-anchor="middle" visibility="hidden" style="font-size: 13px;">E</text><text y="358" x="379.66101694915255" text-anchor="middle" visibility="hidden" style="font-size: 13px;">R</text><text y="358" x="385.59322033898303" text-anchor="middle" visibility="hidden" style="font-size: 13px;">I</text><text y="358" x="391.5254237288135" text-anchor="middle" visibility="hidden" style="font-size: 13px;">E</text><text y="358" x="397.4576271186441" text-anchor="middle" visibility="hidden" style="font-size: 13px;">K</text><text y="358" x="403.3898305084746" text-anchor="middle" visibility="hidden" style="font-size: 13px;">V</text><text y="358" x="409.3220338983051" text-anchor="middle" visibility="hidden" style="font-size: 13px;">E</text><text y="358" x="415.2542372881356" text-anchor="middle" visibility="hidden" style="font-size: 13px;">H</text><text y="358" x="421.18644067796606" text-anchor="middle" visibility="hidden" style="font-size: 13px;">S</text><text y="358" x="427.11864406779665" text-anchor="middle" visibility="hidden" style="font-size: 13px;">D</text><text y="358" x="433.0508474576271" text-anchor="middle" visibility="hidden" style="font-size: 13px;">L</text><text y="358" x="438.9830508474576" text-anchor="middle" visibility="hidden" style="font-size: 13px;">S</text><text y="358" x="444.91525423728814" text-anchor="middle" visibility="hidden" style="font-size: 13px;">F</text><text y="358" x="450.8474576271186" text-anchor="middle" visibility="hidden" style="font-size: 13px;">S</text><text y="358" x="456.7796610169492" text-anchor="middle" visibility="hidden" style="font-size: 13px;">K</text><text y="358" x="462.7118644067797" text-anchor="middle" visibility="hidden" style="font-size: 13px;">D</text><text y="358" x="468.64406779661016" text-anchor="middle" visibility="hidden" style="font-size: 13px;">W</text><text y="358" x="474.57627118644064" text-anchor="middle" visibility="hidden" style="font-size: 13px;">S</text><text y="358" x="480.50847457627117" text-anchor="middle" visibility="hidden" style="font-size: 13px;">F</text><text y="358" x="486.4406779661017" text-anchor="middle" visibility="hidden" style="font-size: 13px;">Y</text><text y="358" x="492.37288135593224" text-anchor="middle" visibility="hidden" style="font-size: 13px;">L</text><text y="358" x="498.3050847457627" text-anchor="middle" visibility="hidden" style="font-size: 13px;">L</text><text y="358" x="504.2372881355932" text-anchor="middle" visibility="hidden" style="font-size: 13px;">Y</text><text y="358" x="510.16949152542367" text-anchor="middle" visibility="hidden" style="font-size: 13px;">Y</text><text y="358" x="516.1016949152543" text-anchor="middle" visibility="hidden" style="font-size: 13px;">T</text><text y="358" x="522.0338983050848" text-anchor="middle" visibility="hidden" style="font-size: 13px;">E</text><text y="358" x="527.9661016949152" text-anchor="middle" visibility="hidden" style="font-size: 13px;">F</text><text y="358" x="533.8983050847457" text-anchor="middle" visibility="hidden" style="font-size: 13px;">T</text><text y="358" x="539.8305084745763" text-anchor="middle" visibility="hidden" style="font-size: 13px;">P</text><text y="358" x="545.7627118644068" text-anchor="middle" visibility="hidden" style="font-size: 13px;">T</text><text y="358" x="551.6949152542373" text-anchor="middle" visibility="hidden" style="font-size: 13px;">E</text><text y="358" x="557.6271186440678" text-anchor="middle" visibility="hidden" style="font-size: 13px;">K</text><text y="358" x="563.5593220338983" text-anchor="middle" visibility="hidden" style="font-size: 13px;">D</text><text y="358" x="569.4915254237288" text-anchor="middle" visibility="hidden" style="font-size: 13px;">E</text><text y="358" x="575.4237288135594" text-anchor="middle" visibility="hidden" style="font-size: 13px;">Y</text><text y="358" x="581.3559322033898" text-anchor="middle" visibility="hidden" style="font-size: 13px;">A</text><text y="358" x="587.2881355932203" text-anchor="middle" visibility="hidden" style="font-size: 13px;">C</text><text y="358" x="593.2203389830509" text-anchor="middle" visibility="hidden" style="font-size: 13px;">R</text><text y="358" x="599.1525423728814" text-anchor="middle" visibility="hidden" style="font-size: 13px;">V</text><text y="358" x="605.0847457627119" text-anchor="middle" visibility="hidden" style="font-size: 13px;">N</text><text y="358" x="611.0169491525423" text-anchor="middle" visibility="hidden" style="font-size: 13px;">H</text><text y="358" x="616.9491525423729" text-anchor="middle" visibility="hidden" style="font-size: 13px;">V</text><text y="358" x="622.8813559322034" text-anchor="middle" visibility="hidden" style="font-size: 13px;">T</text><text y="358" x="628.8135593220339" text-anchor="middle" visibility="hidden" style="font-size: 13px;">L</text><text y="358" x="634.7457627118645" text-anchor="middle" visibility="hidden" style="font-size: 13px;">S</text><text y="358" x="640.6779661016949" text-anchor="middle" visibility="hidden" style="font-size: 13px;">Q</text><text y="358" x="646.6101694915254" text-anchor="middle" visibility="hidden" style="font-size: 13px;">P</text><text y="358" x="652.542372881356" text-anchor="middle" visibility="hidden" style="font-size: 13px;">K</text><text y="358" x="658.4745762711865" text-anchor="middle" visibility="hidden" style="font-size: 13px;">I</text><text y="358" x="664.4067796610169" text-anchor="middle" visibility="hidden" style="font-size: 13px;">V</text><text y="358" x="670.3389830508474" text-anchor="middle" visibility="hidden" style="font-size: 13px;">K</text><text y="358" x="676.271186440678" text-anchor="middle" visibility="hidden" style="font-size: 13px;">W</text><text y="358" x="682.2033898305084" text-anchor="middle" visibility="hidden" style="font-size: 13px;">D</text><text y="358" x="688.135593220339" text-anchor="middle" visibility="hidden" style="font-size: 13px;">R</text><text y="358" x="694.0677966101695" text-anchor="middle" visibility="hidden" style="font-size: 13px;">D</text><text y="358" x="700" text-anchor="middle" visibility="hidden" style="font-size: 13px;">M</text></g></g></svg><g class="xAxis" transform="translate(0,360)" fill="none" font-size="10" font-family="sans-serif" text-anchor="middle"><path class="domain" stroke="#000" d="M0.5,6V0.5H700.5V6"></path><g class="tick" opacity="1" transform="translate(53.88983050847458,0)"><line stroke="#000" y2="6"></line><text fill="#000" y="9" dy="0.71em">10</text></g><g class="tick" opacity="1" transform="translate(113.21186440677965,0)"><line stroke="#000" y2="6"></line><text fill="#000" y="9" dy="0.71em">20</text></g><g class="tick" opacity="1" transform="translate(172.53389830508476,0)"><line stroke="#000" y2="6"></line><text fill="#000" y="9" dy="0.71em">30</text></g><g class="tick" opacity="1" transform="translate(231.85593220338984,0)"><line stroke="#000" y2="6"></line><text fill="#000" y="9" dy="0.71em">40</text></g><g class="tick" opacity="1" transform="translate(291.1779661016949,0)"><line stroke="#000" y2="6"></line><text fill="#000" y="9" dy="0.71em">50</text></g><g class="tick" opacity="1" transform="translate(350.5,0)"><line stroke="#000" y2="6"></line><text fill="#000" y="9" dy="0.71em">60</text></g><g class="tick" opacity="1" transform="translate(409.8220338983051,0)"><line stroke="#000" y2="6"></line><text fill="#000" y="9" dy="0.71em">70</text></g><g class="tick" opacity="1" transform="translate(469.14406779661016,0)"><line stroke="#000" y2="6"></line><text fill="#000" y="9" dy="0.71em">80</text></g><g class="tick" opacity="1" transform="translate(528.4661016949152,0)"><line stroke="#000" y2="6"></line><text fill="#000" y="9" dy="0.71em">90</text></g><g class="tick" opacity="1" transform="translate(587.7881355932203,0)"><line stroke="#000" y2="6"></line><text fill="#000" y="9" dy="0.71em">100</text></g><g class="tick" opacity="1" transform="translate(647.1101694915254,0)"><line stroke="#000" y2="6"></line><text fill="#000" y="9" dy="0.71em">110</text></g></g><text class="x label" text-anchor="end" x="700" y="390" style="font-size: 13px; font-family: Arial;">Residue number</text><g class="yAxis" fill="none" font-size="10" font-family="sans-serif" text-anchor="end"><path class="domain" stroke="#000" d="M-6,360.5H0.5V0.5H-6"></path><g class="tick" opacity="1" transform="translate(0,357.52479338842977)"><line stroke="#000" x2="-6"></line><text fill="#000" x="-9" dy="0.32em"></text></g><g class="tick" opacity="1" transform="translate(0,327.77272727272725)"><line stroke="#000" x2="-6"></line><text fill="#000" x="-9" dy="0.32em">0</text></g><g class="tick" opacity="1" transform="translate(0,298.0206611570248)"><line stroke="#000" x2="-6"></line><text fill="#000" x="-9" dy="0.32em">0.5</text></g><g class="tick" opacity="1" transform="translate(0,268.2685950413223)"><line stroke="#000" x2="-6"></line><text fill="#000" x="-9" dy="0.32em">1</text></g><g class="tick" opacity="1" transform="translate(0,238.51652892561984)"><line stroke="#000" x2="-6"></line><text fill="#000" x="-9" dy="0.32em">1.5</text></g><g class="tick" opacity="1" transform="translate(0,208.76446280991735)"><line stroke="#000" x2="-6"></line><text fill="#000" x="-9" dy="0.32em">2</text></g><g class="tick" opacity="1" transform="translate(0,179.01239669421489)"><line stroke="#000" x2="-6"></line><text fill="#000" x="-9" dy="0.32em">2.5</text></g><g class="tick" opacity="1" transform="translate(0,149.26033057851242)"><line stroke="#000" x2="-6"></line><text fill="#000" x="-9" dy="0.32em">3</text></g><g class="tick" opacity="1" transform="translate(0,119.50826446280993)"><line stroke="#000" x2="-6"></line><text fill="#000" x="-9" dy="0.32em">3.5</text></g><g class="tick" opacity="1" transform="translate(0,89.75619834710744)"><line stroke="#000" x2="-6"></line><text fill="#000" x="-9" dy="0.32em">4</text></g><g class="tick" opacity="1" transform="translate(0,60.00413223140498)"><line stroke="#000" x2="-6"></line><text fill="#000" x="-9" dy="0.32em">4.5</text></g><g class="tick" opacity="1" transform="translate(0,30.25206611570252)"><line stroke="#000" x2="-6"></line><text fill="#000" x="-9" dy="0.32em">5</text></g><g class="tick" opacity="1" transform="translate(0,0.5)"><line stroke="#000" x2="-6"></line><text fill="#000" x="-9" dy="0.32em">5.5</text></g></g><text class="y label" text-anchor="middle" y="-50" x="-180" dy="0.8em" transform="rotate(-90)" style="font-size: 13px; font-family: Arial;">Total number of references</text><g class="axisRed" fill="none" font-size="10" font-family="sans-serif" text-anchor="start" visibility="hidden" transform="translate(700, 0)"><path class="domain" stroke="#000" d="M6,360.5H0.5V0.5H6"></path><g class="tick" opacity="1" transform="translate(0,360.5)"><line stroke="#000" x2="6"></line><text fill="#000" x="9" dy="0.32em">0</text></g><text text-anchor="start" dx="5.2em" dy="-2.6em" transform="rotate(90)" visibility="hidden" style="font-size: 12px; font-family: Arial; fill: #d7301f;">No recurrent (&gt;2) missense mutations!</text></g><g class="axisPurple" fill="none" font-size="10" font-family="sans-serif" text-anchor="start" visibility="hidden"><path class="domain" stroke="#000" d="M6,360.5H0.5V0.5H6"></path><g class="tick" opacity="1" transform="translate(0,357.52479338842977)"><line stroke="#000" x2="6"></line><text fill="#000" x="9" dy="0.32em"></text></g><g class="tick" opacity="1" transform="translate(0,327.77272727272725)"><line stroke="#000" x2="6"></line><text fill="#000" x="9" dy="0.32em">0</text></g><g class="tick" opacity="1" transform="translate(0,298.0206611570248)"><line stroke="#000" x2="6"></line><text fill="#000" x="9" dy="0.32em">0.1</text></g><g class="tick" opacity="1" transform="translate(0,268.2685950413223)"><line stroke="#000" x2="6"></line><text fill="#000" x="9" dy="0.32em">0.2</text></g><g class="tick" opacity="1" transform="translate(0,238.51652892561984)"><line stroke="#000" x2="6"></line><text fill="#000" x="9" dy="0.32em">0.3</text></g><g class="tick" opacity="1" transform="translate(0,208.76446280991738)"><line stroke="#000" x2="6"></line><text fill="#000" x="9" dy="0.32em">0.4</text></g><g class="tick" opacity="1" transform="translate(0,179.0123966942149)"><line stroke="#000" x2="6"></line><text fill="#000" x="9" dy="0.32em">0.5</text></g><g class="tick" opacity="1" transform="translate(0,149.26033057851242)"><line stroke="#000" x2="6"></line><text fill="#000" x="9" dy="0.32em">0.6</text></g><g class="tick" opacity="1" transform="translate(0,119.50826446280996)"><line stroke="#000" x2="6"></line><text fill="#000" x="9" dy="0.32em">0.7</text></g><g class="tick" opacity="1" transform="translate(0,89.75619834710744)"><line stroke="#000" x2="6"></line><text fill="#000" x="9" dy="0.32em">0.8</text></g><g class="tick" opacity="1" transform="translate(0,60.00413223140498)"><line stroke="#000" x2="6"></line><text fill="#000" x="9" dy="0.32em">0.9</text></g><g class="tick" opacity="1" transform="translate(0,30.25206611570252)"><line stroke="#000" x2="6"></line><text fill="#000" x="9" dy="0.32em">1</text></g><g class="tick" opacity="1" transform="translate(0,0.5)"><line stroke="#000" x2="6"></line><text fill="#000" x="9" dy="0.32em">1.1</text></g><text text-anchor="start" x="10" y="10" visibility="hidden" style="font-size: 12px; font-family: Arial; fill: #807dba;">Minor Allele Frequency (MAF) %</text></g><circle cx="636" cy="15" r="10" class="compassNav" style="fill: #ffffff; stroke: #666666; stroke-width: 1px;"></circle><path d="M440.935 12.574l3.966 82.766C399.416 41.904 331.674 8 256 8 134.813 8 33.933 94.924 12.296 209.824 10.908 217.193 16.604 224 24.103 224h49.084c5.57 0 10.377-3.842 11.676-9.259C103.407 137.408 172.931 80 256 80c60.893 0 114.512 30.856 146.104 77.801l-101.53-4.865c-6.845-.328-12.574 5.133-12.574 11.986v47.411c0 6.627 5.373 12 12 12h200.333c6.627 0 12-5.373 12-12V12c0-6.627-5.373-12-12-12h-47.411c-6.853 0-12.315 5.729-11.987 12.574zM256 432c-60.895 0-114.517-30.858-146.109-77.805l101.868 4.871c6.845.327 12.573-5.134 12.573-11.986v-47.412c0-6.627-5.373-12-12-12H12c-6.627 0-12 5.373-12 12V500c0 6.627 5.373 12 12 12h47.385c6.863 0 12.328-5.745 11.985-12.599l-4.129-82.575C112.725 470.166 180.405 504 256 504c121.187 0 222.067-86.924 243.704-201.824 1.388-7.369-4.308-14.176-11.807-14.176h-49.084c-5.57 0-10.377 3.842-11.676 9.259C408.593 374.592 339.069 432 256 432z" class="compassNav" transform="translate(631, 10) scale(0.02)" style="fill: #666666; stroke: #666666; stroke-width: 1px;"></path><circle cx="658" cy="15" r="10" class="compassNav" style="fill: #ffffff; stroke: #666666; stroke-width: 1px;"></circle><line class="compassNav" stroke-width="2" stroke="#666666" x1="654" y1="15" x2="662" y2="15"></line><line class="compassNav" stroke-width="2" stroke="#666666" x1="658" y1="11" x2="658" y2="19"></line><circle cx="614" cy="15" r="10" class="compassNav" style="fill: #ffffff; stroke: #666666; stroke-width: 1px;"></circle><line class="compassNav" stroke-width="2" stroke="#666666" x1="610" y1="15" x2="618" y2="15"></line><path d="M582 14 l20 -12 a100,40 0 0,0 0,24z" class="compassNav" style="fill: #ffffff; stroke: #666666; stroke-width: 1px;"></path><path d="M690 14 l-20 -12 a100,40 0 0,1 0,24z" class="compassNav" style="fill: #ffffff; stroke: #666666; stroke-width: 1px;"></path><path d="M216 0h80c13.3 0 24 10.7 24 24v168h87.7c17.8 0 26.7 21.5 14.1 34.1L269.7 378.3c-7.5 7.5-19.8 7.5-27.3 0L90.1 226.1c-12.6-12.6-3.7-34.1 14.1-34.1H192V24c0-13.3 10.7-24 24-24zm296 376v112c0 13.3-10.7 24-24 24H24c-13.3 0-24-10.7-24-24V376c0-13.3 10.7-24 24-24h146.7l49 49c20.1 20.1 52.5 20.1 72.6 0l49-49H488c13.3 0 24 10.7 24 24zm-124 88c0-11-9-20-20-20s-20 9-20 20 9 20 20 20 20-9 20-20zm64 0c0-11-9-20-20-20s-20 9-20 20 9 20 20 20 20-9 20-20z" class="compassNav" transform="translate(552,0) scale(0.05)" style="fill: #336699; stroke: #336699; stroke-width: 1px; cursor: pointer;"></path></g></svg>