<svg width="800" height="400" style="background-color: white;"><g transform="translate(50,0)"><svg width="700" height="360"><g style="-webkit-tap-highlight-color: rgba(0, 0, 0, 0);"><rect width="700" height="360" style="fill: #ffffff;"></rect><g id="lines"><line class="line" stroke-width="1" stroke="#d7301f" x1="-341.54589371980677" y1="333" x2="-341.54589371980677" y2="360" visibility="hidden" style="stroke-dasharray: 3px, 3px;"></line></g><g><rect x="-346.54589371980677" y="355" width="10" height="10" visibility="hidden" style="fill: #ffffff; stroke: #d7301f;"></rect></g><g id="lines"><line class="line" stroke-width="1" stroke="#6a51a3" x1="-341.54589371980677" y1="333" x2="-341.54589371980677" y2="327.27272727272725" visibility="hidden" style="stroke-dasharray: 3px, 3px;"></line></g><g><rect x="-346.54589371980677" y="322.27272727272725" width="10" height="10" visibility="hidden" style="fill: #ffffff; stroke: #6a51a3;"></rect></g><g id="lines"><line class="line" stroke-width="1" stroke="#666666" x1="10.144927536231885" y1="333" x2="10.144927536231885" y2="314.6122736064709"></line><line class="line" stroke-width="1" stroke="#666666" x1="74.39613526570048" y1="333" x2="74.39613526570048" y2="320.9425004395991"></line><line class="line" stroke-width="1" stroke="#666666" x1="77.77777777777777" y1="333" x2="77.77777777777777" y2="314.6122736064709"></line><line class="line" stroke-width="1" stroke="#666666" x1="84.54106280193237" y1="333" x2="84.54106280193237" y2="308.2820467733427"></line><line class="line" stroke-width="1" stroke="#666666" x1="84.54106280193237" y1="333" x2="84.54106280193237" y2="320.9425004395991"></line><line class="line" stroke-width="1" stroke="#666666" x1="87.92270531400966" y1="333" x2="87.92270531400966" y2="320.9425004395991"></line><line class="line" stroke-width="1" stroke="#666666" x1="118.35748792270532" y1="333" x2="118.35748792270532" y2="320.9425004395991"></line><line class="line" stroke-width="1" stroke="#666666" x1="121.73913043478261" y1="333" x2="121.73913043478261" y2="320.9425004395991"></line><line class="line" stroke-width="1" stroke="#666666" x1="121.73913043478261" y1="333" x2="121.73913043478261" y2="276.6309126077018"></line><line class="line" stroke-width="1" stroke="#666666" x1="229.95169082125605" y1="333" x2="229.95169082125605" y2="320.9425004395991"></line><line class="line" stroke-width="1" stroke="#666666" x1="253.6231884057971" y1="333" x2="253.6231884057971" y2="320.9425004395991"></line><line class="line" stroke-width="1" stroke="#666666" x1="277.29468599033817" y1="333" x2="277.29468599033817" y2="213.3286442764199"></line><line class="line" stroke-width="1" stroke="#666666" x1="287.43961352657004" y1="333" x2="287.43961352657004" y2="308.2820467733427"></line><line class="line" stroke-width="1" stroke="#666666" x1="311.1111111111111" y1="333" x2="311.1111111111111" y2="320.9425004395991"></line><line class="line" stroke-width="1" stroke="#666666" x1="328.0193236714976" y1="333" x2="328.0193236714976" y2="308.2820467733427"></line><line class="line" stroke-width="1" stroke="#666666" x1="355.07246376811594" y1="333" x2="355.07246376811594" y2="314.6122736064709"></line><line class="line" stroke-width="1" stroke="#666666" x1="358.4541062801933" y1="333" x2="358.4541062801933" y2="308.2820467733427"></line><line class="line" stroke-width="1" stroke="#666666" x1="365.2173913043478" y1="333" x2="365.2173913043478" y2="320.9425004395991"></line><line class="line" stroke-width="1" stroke="#666666" x1="368.5990338164251" y1="333" x2="368.5990338164251" y2="320.9425004395991"></line><line class="line" stroke-width="1" stroke="#666666" x1="378.743961352657" y1="333" x2="378.743961352657" y2="301.95181994021453"></line><line class="line" stroke-width="1" stroke="#666666" x1="392.2705314009662" y1="333" x2="392.2705314009662" y2="238.64955160893265"></line><line class="line" stroke-width="1" stroke="#666666" x1="419.32367149758454" y1="333" x2="419.32367149758454" y2="320.9425004395991"></line><line class="line" stroke-width="1" stroke="#666666" x1="429.4685990338164" y1="333" x2="429.4685990338164" y2="308.2820467733427"></line><line class="line" stroke-width="1" stroke="#666666" x1="429.4685990338164" y1="333" x2="429.4685990338164" y2="143.69614911200983"></line><line class="line" stroke-width="1" stroke="#666666" x1="429.4685990338164" y1="333" x2="429.4685990338164" y2="320.9425004395991"></line><line class="line" stroke-width="1" stroke="#666666" x1="436.231884057971" y1="333" x2="436.231884057971" y2="112.04501494636892"></line><line class="line" stroke-width="1" stroke="#666666" x1="466.66666666666663" y1="333" x2="466.66666666666663" y2="314.6122736064709"></line><line class="line" stroke-width="1" stroke="#666666" x1="466.66666666666663" y1="333" x2="466.66666666666663" y2="320.9425004395991"></line><line class="line" stroke-width="1" stroke="#666666" x1="470.048309178744" y1="333" x2="470.048309178744" y2="320.9425004395991"></line><line class="line" stroke-width="1" stroke="#666666" x1="476.81159420289856" y1="333" x2="476.81159420289856" y2="320.9425004395991"></line><line class="line" stroke-width="1" stroke="#666666" x1="527.536231884058" y1="333" x2="527.536231884058" y2="276.6309126077018"></line><line class="line" stroke-width="1" stroke="#666666" x1="527.536231884058" y1="333" x2="527.536231884058" y2="320.9425004395991"></line><line class="line" stroke-width="1" stroke="#666666" x1="527.536231884058" y1="333" x2="527.536231884058" y2="320.9425004395991"></line><line class="line" stroke-width="1" stroke="#666666" x1="534.2995169082125" y1="333" x2="534.2995169082125" y2="314.6122736064709"></line><line class="line" stroke-width="1" stroke="#666666" x1="537.6811594202899" y1="333" x2="537.6811594202899" y2="200.66819061016355"></line><line class="line" stroke-width="1" stroke="#666666" x1="571.4975845410628" y1="333" x2="571.4975845410628" y2="289.29136627395815"></line><line class="line" stroke-width="1" stroke="#666666" x1="618.840579710145" y1="333" x2="618.840579710145" y2="320.9425004395991"></line><line class="line" stroke-width="1" stroke="#666666" x1="632.3671497584542" y1="333" x2="632.3671497584542" y2="320.9425004395991"></line><line class="line" stroke-width="1" stroke="#666666" x1="649.2753623188406" y1="333" x2="649.2753623188406" y2="29.75206611570252"></line><line class="line" stroke-width="1" stroke="#666666" x1="666.1835748792271" y1="333" x2="666.1835748792271" y2="320.9425004395991"></line><line class="line" stroke-width="1" stroke="#666666" x1="672.9468599033817" y1="333" x2="672.9468599033817" y2="320.9425004395991"></line></g><g id="circles"><circle r="4" cx="10.144927536231885" cy="314.6122736064709" style="fill: #4393c3; stroke: #666666; stroke-width: 1px;"></circle><circle r="4" cx="74.39613526570048" cy="320.9425004395991" style="fill: #5aae61; stroke: #666666; stroke-width: 1px;"></circle><circle r="4" cx="77.77777777777777" cy="314.6122736064709" style="fill: #5aae61; stroke: #666666; stroke-width: 1px;"></circle><circle r="4" cx="84.54106280193237" cy="308.2820467733427" style="fill: #bf812d; stroke: #666666; stroke-width: 1px;"></circle><circle r="4" cx="84.54106280193237" cy="320.9425004395991" style="fill: #666666; stroke: #666666; stroke-width: 1px;"></circle><circle r="4" cx="87.92270531400966" cy="320.9425004395991" style="fill: #4393c3; stroke: #666666; stroke-width: 1px;"></circle><circle r="4" cx="118.35748792270532" cy="320.9425004395991" style="fill: #4393c3; stroke: #666666; stroke-width: 1px;"></circle><circle r="4" cx="121.73913043478261" cy="320.9425004395991" style="fill: #5aae61; stroke: #666666; stroke-width: 1px;"></circle><circle r="4" cx="121.73913043478261" cy="276.6309126077018" style="fill: #bf812d; stroke: #666666; stroke-width: 1px;"></circle><circle r="4" cx="229.95169082125605" cy="320.9425004395991" style="fill: #4393c3; stroke: #666666; stroke-width: 1px;"></circle><circle r="4" cx="253.6231884057971" cy="320.9425004395991" style="fill: #4393c3; stroke: #666666; stroke-width: 1px;"></circle><circle r="4" cx="277.29468599033817" cy="213.3286442764199" style="fill: #4393c3; stroke: #666666; stroke-width: 1px;"></circle><circle r="4" cx="287.43961352657004" cy="308.2820467733427" style="fill: #4393c3; stroke: #666666; stroke-width: 1px;"></circle><circle r="4" cx="311.1111111111111" cy="320.9425004395991" style="fill: #4393c3; stroke: #666666; stroke-width: 1px;"></circle><circle r="4" cx="328.0193236714976" cy="308.2820467733427" style="fill: #bf812d; stroke: #666666; stroke-width: 1px;"></circle><circle r="4" cx="355.07246376811594" cy="314.6122736064709" style="fill: #4393c3; stroke: #666666; stroke-width: 1px;"></circle><circle r="4" cx="358.4541062801933" cy="308.2820467733427" style="fill: #4393c3; stroke: #666666; stroke-width: 1px;"></circle><circle r="4" cx="365.2173913043478" cy="320.9425004395991" style="fill: #4393c3; stroke: #666666; stroke-width: 1px;"></circle><circle r="4" cx="368.5990338164251" cy="320.9425004395991" style="fill: #666666; stroke: #666666; stroke-width: 1px;"></circle><circle r="4" cx="378.743961352657" cy="301.95181994021453" style="fill: #4393c3; stroke: #666666; stroke-width: 1px;"></circle><circle r="4" cx="392.2705314009662" cy="238.64955160893265" style="fill: #4393c3; stroke: #666666; stroke-width: 1px;"></circle><circle r="4" cx="419.32367149758454" cy="320.9425004395991" style="fill: #5aae61; stroke: #666666; stroke-width: 1px;"></circle><circle r="4" cx="429.4685990338164" cy="308.2820467733427" style="fill: #5aae61; stroke: #666666; stroke-width: 1px;"></circle><circle r="4" cx="429.4685990338164" cy="143.69614911200983" style="fill: #bf812d; stroke: #666666; stroke-width: 1px;"></circle><circle r="4" cx="429.4685990338164" cy="320.9425004395991" style="fill: #666666; stroke: #666666; stroke-width: 1px;"></circle><circle r="4" cx="436.231884057971" cy="112.04501494636892" style="fill: #4393c3; stroke: #666666; stroke-width: 1px;"></circle><circle r="4" cx="466.66666666666663" cy="314.6122736064709" style="fill: #5aae61; stroke: #666666; stroke-width: 1px;"></circle><circle r="4" cx="466.66666666666663" cy="320.9425004395991" style="fill: #bf812d; stroke: #666666; stroke-width: 1px;"></circle><circle r="4" cx="470.048309178744" cy="320.9425004395991" style="fill: #5aae61; stroke: #666666; stroke-width: 1px;"></circle><circle r="4" cx="476.81159420289856" cy="320.9425004395991" style="fill: #4393c3; stroke: #666666; stroke-width: 1px;"></circle><circle r="4" cx="527.536231884058" cy="276.6309126077018" style="fill: #bf812d; stroke: #666666; stroke-width: 1px;"></circle><circle r="4" cx="527.536231884058" cy="320.9425004395991" style="fill: #666666; stroke: #666666; stroke-width: 1px;"></circle><circle r="4" cx="527.536231884058" cy="320.9425004395991" style="fill: #666666; stroke: #666666; stroke-width: 1px;"></circle><circle r="4" cx="534.2995169082125" cy="314.6122736064709" style="fill: #4393c3; stroke: #666666; stroke-width: 1px;"></circle><circle r="4" cx="537.6811594202899" cy="200.66819061016355" style="fill: #4393c3; stroke: #666666; stroke-width: 1px;"></circle><circle r="4" cx="571.4975845410628" cy="289.29136627395815" style="fill: #bf812d; stroke: #666666; stroke-width: 1px;"></circle><circle r="4" cx="618.840579710145" cy="320.9425004395991" style="fill: #666666; stroke: #666666; stroke-width: 1px;"></circle><circle r="4" cx="632.3671497584542" cy="320.9425004395991" style="fill: #4393c3; stroke: #666666; stroke-width: 1px;"></circle><circle r="4" cx="649.2753623188406" cy="29.75206611570252" style="fill: #bf812d; stroke: #666666; stroke-width: 1px;"></circle><circle r="4" cx="666.1835748792271" cy="320.9425004395991" style="fill: #4393c3; stroke: #666666; stroke-width: 1px;"></circle><circle r="4" cx="672.9468599033817" cy="320.9425004395991" style="fill: #666666; stroke: #666666; stroke-width: 1px;"></circle></g><g><rect x="0" y="333" width="700" height="12" style="fill: #ffffff; stroke-width: 1px; stroke: #666666;"></rect><rect x="0" y="333" width="639.1304347826086" height="12" style="fill: #aec7e8; stroke-width: 1px; stroke: #666666;"></rect></g><g><a target="_blank" xlink:href="http://pfam.xfam.org/family/"><text y="343" x="350" text-anchor="middle" style="color: rgb(102, 102, 102); font-weight: normal; font-size: 12px; font-family: Arial; cursor: pointer;"></text></a><a target="_blank" xlink:href="http://pfam.xfam.org/family/Ribosomal_S8e"><text y="343" x="319.5652173913043" text-anchor="middle" style="color: rgb(102, 102, 102); font-weight: normal; font-size: 12px; font-family: Arial; cursor: pointer;">Ribosomal_S8e</text></a></g><g><text y="358" x="0" text-anchor="middle" visibility="hidden" style="font-size: 13px;">M</text><text y="358" x="3.3816425120772946" text-anchor="middle" visibility="hidden" style="font-size: 13px;">G</text><text y="358" x="6.763285024154589" text-anchor="middle" visibility="hidden" style="font-size: 13px;">I</text><text y="358" x="10.144927536231885" text-anchor="middle" visibility="hidden" style="font-size: 13px;">S</text><text y="358" x="13.526570048309178" text-anchor="middle" visibility="hidden" style="font-size: 13px;">R</text><text y="358" x="16.908212560386474" text-anchor="middle" visibility="hidden" style="font-size: 13px;">D</text><text y="358" x="20.28985507246377" text-anchor="middle" visibility="hidden" style="font-size: 13px;">N</text><text y="358" x="23.67149758454106" text-anchor="middle" visibility="hidden" style="font-size: 13px;">W</text><text y="358" x="27.053140096618357" text-anchor="middle" visibility="hidden" style="font-size: 13px;">H</text><text y="358" x="30.434782608695652" text-anchor="middle" visibility="hidden" style="font-size: 13px;">K</text><text y="358" x="33.81642512077295" text-anchor="middle" visibility="hidden" style="font-size: 13px;">R</text><text y="358" x="37.19806763285024" text-anchor="middle" visibility="hidden" style="font-size: 13px;">R</text><text y="358" x="40.57971014492754" text-anchor="middle" visibility="hidden" style="font-size: 13px;">K</text><text y="358" x="43.96135265700483" text-anchor="middle" visibility="hidden" style="font-size: 13px;">T</text><text y="358" x="47.34299516908212" text-anchor="middle" visibility="hidden" style="font-size: 13px;">G</text><text y="358" x="50.72463768115942" text-anchor="middle" visibility="hidden" style="font-size: 13px;">G</text><text y="358" x="54.106280193236714" text-anchor="middle" visibility="hidden" style="font-size: 13px;">K</text><text y="358" x="57.48792270531401" text-anchor="middle" visibility="hidden" style="font-size: 13px;">R</text><text y="358" x="60.869565217391305" text-anchor="middle" visibility="hidden" style="font-size: 13px;">K</text><text y="358" x="64.2512077294686" text-anchor="middle" visibility="hidden" style="font-size: 13px;">P</text><text y="358" x="67.6328502415459" text-anchor="middle" visibility="hidden" style="font-size: 13px;">Y</text><text y="358" x="71.01449275362319" text-anchor="middle" visibility="hidden" style="font-size: 13px;">H</text><text y="358" x="74.39613526570048" text-anchor="middle" visibility="hidden" style="font-size: 13px;">K</text><text y="358" x="77.77777777777777" text-anchor="middle" visibility="hidden" style="font-size: 13px;">K</text><text y="358" x="81.15942028985508" text-anchor="middle" visibility="hidden" style="font-size: 13px;">R</text><text y="358" x="84.54106280193237" text-anchor="middle" visibility="hidden" style="font-size: 13px;">K</text><text y="358" x="87.92270531400966" text-anchor="middle" visibility="hidden" style="font-size: 13px;">Y</text><text y="358" x="91.30434782608695" text-anchor="middle" visibility="hidden" style="font-size: 13px;">E</text><text y="358" x="94.68599033816425" text-anchor="middle" visibility="hidden" style="font-size: 13px;">L</text><text y="358" x="98.06763285024155" text-anchor="middle" visibility="hidden" style="font-size: 13px;">G</text><text y="358" x="101.44927536231884" text-anchor="middle" visibility="hidden" style="font-size: 13px;">R</text><text y="358" x="104.83091787439614" text-anchor="middle" visibility="hidden" style="font-size: 13px;">P</text><text y="358" x="108.21256038647343" text-anchor="middle" visibility="hidden" style="font-size: 13px;">A</text><text y="358" x="111.59420289855072" text-anchor="middle" visibility="hidden" style="font-size: 13px;">A</text><text y="358" x="114.97584541062803" text-anchor="middle" visibility="hidden" style="font-size: 13px;">N</text><text y="358" x="118.35748792270532" text-anchor="middle" visibility="hidden" style="font-size: 13px;">T</text><text y="358" x="121.73913043478261" text-anchor="middle" visibility="hidden" style="font-size: 13px;">K</text><text y="358" x="125.1207729468599" text-anchor="middle" visibility="hidden" style="font-size: 13px;">I</text><text y="358" x="128.5024154589372" text-anchor="middle" visibility="hidden" style="font-size: 13px;">G</text><text y="358" x="131.8840579710145" text-anchor="middle" visibility="hidden" style="font-size: 13px;">P</text><text y="358" x="135.2657004830918" text-anchor="middle" visibility="hidden" style="font-size: 13px;">R</text><text y="358" x="138.64734299516908" text-anchor="middle" visibility="hidden" style="font-size: 13px;">R</text><text y="358" x="142.02898550724638" text-anchor="middle" visibility="hidden" style="font-size: 13px;">I</text><text y="358" x="145.41062801932367" text-anchor="middle" visibility="hidden" style="font-size: 13px;">H</text><text y="358" x="148.79227053140096" text-anchor="middle" visibility="hidden" style="font-size: 13px;">T</text><text y="358" x="152.17391304347825" text-anchor="middle" visibility="hidden" style="font-size: 13px;">V</text><text y="358" x="155.55555555555554" text-anchor="middle" visibility="hidden" style="font-size: 13px;">R</text><text y="358" x="158.93719806763286" text-anchor="middle" visibility="hidden" style="font-size: 13px;">V</text><text y="358" x="162.31884057971016" text-anchor="middle" visibility="hidden" style="font-size: 13px;">R</text><text y="358" x="165.70048309178745" text-anchor="middle" visibility="hidden" style="font-size: 13px;">G</text><text y="358" x="169.08212560386474" text-anchor="middle" visibility="hidden" style="font-size: 13px;">G</text><text y="358" x="172.46376811594203" text-anchor="middle" visibility="hidden" style="font-size: 13px;">N</text><text y="358" x="175.84541062801932" text-anchor="middle" visibility="hidden" style="font-size: 13px;">K</text><text y="358" x="179.22705314009664" text-anchor="middle" visibility="hidden" style="font-size: 13px;">K</text><text y="358" x="182.6086956521739" text-anchor="middle" visibility="hidden" style="font-size: 13px;">Y</text><text y="358" x="185.99033816425123" text-anchor="middle" visibility="hidden" style="font-size: 13px;">R</text><text y="358" x="189.3719806763285" text-anchor="middle" visibility="hidden" style="font-size: 13px;">A</text><text y="358" x="192.7536231884058" text-anchor="middle" visibility="hidden" style="font-size: 13px;">L</text><text y="358" x="196.1352657004831" text-anchor="middle" visibility="hidden" style="font-size: 13px;">R</text><text y="358" x="199.51690821256037" text-anchor="middle" visibility="hidden" style="font-size: 13px;">L</text><text y="358" x="202.8985507246377" text-anchor="middle" visibility="hidden" style="font-size: 13px;">D</text><text y="358" x="206.28019323671495" text-anchor="middle" visibility="hidden" style="font-size: 13px;">V</text><text y="358" x="209.66183574879227" text-anchor="middle" visibility="hidden" style="font-size: 13px;">G</text><text y="358" x="213.0434782608696" text-anchor="middle" visibility="hidden" style="font-size: 13px;">N</text><text y="358" x="216.42512077294685" text-anchor="middle" visibility="hidden" style="font-size: 13px;">F</text><text y="358" x="219.80676328502415" text-anchor="middle" visibility="hidden" style="font-size: 13px;">S</text><text y="358" x="223.18840579710144" text-anchor="middle" visibility="hidden" style="font-size: 13px;">W</text><text y="358" x="226.57004830917873" text-anchor="middle" visibility="hidden" style="font-size: 13px;">G</text><text y="358" x="229.95169082125605" text-anchor="middle" visibility="hidden" style="font-size: 13px;">S</text><text y="358" x="233.33333333333331" text-anchor="middle" visibility="hidden" style="font-size: 13px;">E</text><text y="358" x="236.71497584541063" text-anchor="middle" visibility="hidden" style="font-size: 13px;">C</text><text y="358" x="240.09661835748793" text-anchor="middle" visibility="hidden" style="font-size: 13px;">C</text><text y="358" x="243.47826086956522" text-anchor="middle" visibility="hidden" style="font-size: 13px;">T</text><text y="358" x="246.8599033816425" text-anchor="middle" visibility="hidden" style="font-size: 13px;">R</text><text y="358" x="250.2415458937198" text-anchor="middle" visibility="hidden" style="font-size: 13px;">K</text><text y="358" x="253.6231884057971" text-anchor="middle" visibility="hidden" style="font-size: 13px;">T</text><text y="358" x="257.0048309178744" text-anchor="middle" visibility="hidden" style="font-size: 13px;">R</text><text y="358" x="260.3864734299517" text-anchor="middle" visibility="hidden" style="font-size: 13px;">I</text><text y="358" x="263.768115942029" text-anchor="middle" visibility="hidden" style="font-size: 13px;">I</text><text y="358" x="267.14975845410623" text-anchor="middle" visibility="hidden" style="font-size: 13px;">D</text><text y="358" x="270.5314009661836" text-anchor="middle" visibility="hidden" style="font-size: 13px;">V</text><text y="358" x="273.9130434782609" text-anchor="middle" visibility="hidden" style="font-size: 13px;">V</text><text y="358" x="277.29468599033817" text-anchor="middle" visibility="hidden" style="font-size: 13px;">Y</text><text y="358" x="280.67632850241546" text-anchor="middle" visibility="hidden" style="font-size: 13px;">N</text><text y="358" x="284.05797101449275" text-anchor="middle" visibility="hidden" style="font-size: 13px;">A</text><text y="358" x="287.43961352657004" text-anchor="middle" visibility="hidden" style="font-size: 13px;">S</text><text y="358" x="290.82125603864733" text-anchor="middle" visibility="hidden" style="font-size: 13px;">N</text><text y="358" x="294.2028985507246" text-anchor="middle" visibility="hidden" style="font-size: 13px;">N</text><text y="358" x="297.5845410628019" text-anchor="middle" visibility="hidden" style="font-size: 13px;">E</text><text y="358" x="300.96618357487927" text-anchor="middle" visibility="hidden" style="font-size: 13px;">L</text><text y="358" x="304.3478260869565" text-anchor="middle" visibility="hidden" style="font-size: 13px;">V</text><text y="358" x="307.72946859903385" text-anchor="middle" visibility="hidden" style="font-size: 13px;">R</text><text y="358" x="311.1111111111111" text-anchor="middle" visibility="hidden" style="font-size: 13px;">T</text><text y="358" x="314.4927536231884" text-anchor="middle" visibility="hidden" style="font-size: 13px;">K</text><text y="358" x="317.8743961352657" text-anchor="middle" visibility="hidden" style="font-size: 13px;">T</text><text y="358" x="321.25603864734296" text-anchor="middle" visibility="hidden" style="font-size: 13px;">L</text><text y="358" x="324.6376811594203" text-anchor="middle" visibility="hidden" style="font-size: 13px;">V</text><text y="358" x="328.0193236714976" text-anchor="middle" visibility="hidden" style="font-size: 13px;">K</text><text y="358" x="331.4009661835749" text-anchor="middle" visibility="hidden" style="font-size: 13px;">N</text><text y="358" x="334.7826086956522" text-anchor="middle" visibility="hidden" style="font-size: 13px;">C</text><text y="358" x="338.1642512077295" text-anchor="middle" visibility="hidden" style="font-size: 13px;">I</text><text y="358" x="341.54589371980677" text-anchor="middle" visibility="hidden" style="font-size: 13px;">V</text><text y="358" x="344.92753623188406" text-anchor="middle" visibility="hidden" style="font-size: 13px;">L</text><text y="358" x="348.30917874396135" text-anchor="middle" visibility="hidden" style="font-size: 13px;">I</text><text y="358" x="351.69082125603865" text-anchor="middle" visibility="hidden" style="font-size: 13px;">D</text><text y="358" x="355.07246376811594" text-anchor="middle" visibility="hidden" style="font-size: 13px;">S</text><text y="358" x="358.4541062801933" text-anchor="middle" visibility="hidden" style="font-size: 13px;">T</text><text y="358" x="361.8357487922705" text-anchor="middle" visibility="hidden" style="font-size: 13px;">P</text><text y="358" x="365.2173913043478" text-anchor="middle" visibility="hidden" style="font-size: 13px;">Y</text><text y="358" x="368.5990338164251" text-anchor="middle" visibility="hidden" style="font-size: 13px;">R</text><text y="358" x="371.98067632850245" text-anchor="middle" visibility="hidden" style="font-size: 13px;">Q</text><text y="358" x="375.36231884057975" text-anchor="middle" visibility="hidden" style="font-size: 13px;">W</text><text y="358" x="378.743961352657" text-anchor="middle" visibility="hidden" style="font-size: 13px;">Y</text><text y="358" x="382.1256038647343" text-anchor="middle" visibility="hidden" style="font-size: 13px;">E</text><text y="358" x="385.5072463768116" text-anchor="middle" visibility="hidden" style="font-size: 13px;">S</text><text y="358" x="388.8888888888889" text-anchor="middle" visibility="hidden" style="font-size: 13px;">H</text><text y="358" x="392.2705314009662" text-anchor="middle" visibility="hidden" style="font-size: 13px;">Y</text><text y="358" x="395.65217391304344" text-anchor="middle" visibility="hidden" style="font-size: 13px;">A</text><text y="358" x="399.03381642512073" text-anchor="middle" visibility="hidden" style="font-size: 13px;">L</text><text y="358" x="402.4154589371981" text-anchor="middle" visibility="hidden" style="font-size: 13px;">P</text><text y="358" x="405.7971014492754" text-anchor="middle" visibility="hidden" style="font-size: 13px;">L</text><text y="358" x="409.17874396135267" text-anchor="middle" visibility="hidden" style="font-size: 13px;">G</text><text y="358" x="412.5603864734299" text-anchor="middle" visibility="hidden" style="font-size: 13px;">R</text><text y="358" x="415.94202898550725" text-anchor="middle" visibility="hidden" style="font-size: 13px;">K</text><text y="358" x="419.32367149758454" text-anchor="middle" visibility="hidden" style="font-size: 13px;">K</text><text y="358" x="422.70531400966183" text-anchor="middle" visibility="hidden" style="font-size: 13px;">G</text><text y="358" x="426.0869565217392" text-anchor="middle" visibility="hidden" style="font-size: 13px;">A</text><text y="358" x="429.4685990338164" text-anchor="middle" visibility="hidden" style="font-size: 13px;">K</text><text y="358" x="432.8502415458937" text-anchor="middle" visibility="hidden" style="font-size: 13px;">L</text><text y="358" x="436.231884057971" text-anchor="middle" visibility="hidden" style="font-size: 13px;">T</text><text y="358" x="439.6135265700483" text-anchor="middle" visibility="hidden" style="font-size: 13px;">P</text><text y="358" x="442.99516908212564" text-anchor="middle" visibility="hidden" style="font-size: 13px;">E</text><text y="358" x="446.3768115942029" text-anchor="middle" visibility="hidden" style="font-size: 13px;">E</text><text y="358" x="449.75845410628017" text-anchor="middle" visibility="hidden" style="font-size: 13px;">E</text><text y="358" x="453.14009661835746" text-anchor="middle" visibility="hidden" style="font-size: 13px;">E</text><text y="358" x="456.5217391304348" text-anchor="middle" visibility="hidden" style="font-size: 13px;">I</text><text y="358" x="459.9033816425121" text-anchor="middle" visibility="hidden" style="font-size: 13px;">L</text><text y="358" x="463.2850241545894" text-anchor="middle" visibility="hidden" style="font-size: 13px;">N</text><text y="358" x="466.66666666666663" text-anchor="middle" visibility="hidden" style="font-size: 13px;">K</text><text y="358" x="470.048309178744" text-anchor="middle" visibility="hidden" style="font-size: 13px;">K</text><text y="358" x="473.42995169082127" text-anchor="middle" visibility="hidden" style="font-size: 13px;">R</text><text y="358" x="476.81159420289856" text-anchor="middle" visibility="hidden" style="font-size: 13px;">S</text><text y="358" x="480.19323671497585" text-anchor="middle" visibility="hidden" style="font-size: 13px;">K</text><text y="358" x="483.5748792270531" text-anchor="middle" visibility="hidden" style="font-size: 13px;">K</text><text y="358" x="486.95652173913044" text-anchor="middle" visibility="hidden" style="font-size: 13px;">I</text><text y="358" x="490.33816425120773" text-anchor="middle" visibility="hidden" style="font-size: 13px;">Q</text><text y="358" x="493.719806763285" text-anchor="middle" visibility="hidden" style="font-size: 13px;">K</text><text y="358" x="497.10144927536237" text-anchor="middle" visibility="hidden" style="font-size: 13px;">K</text><text y="358" x="500.4830917874396" text-anchor="middle" visibility="hidden" style="font-size: 13px;">Y</text><text y="358" x="503.8647342995169" text-anchor="middle" visibility="hidden" style="font-size: 13px;">D</text><text y="358" x="507.2463768115942" text-anchor="middle" visibility="hidden" style="font-size: 13px;">E</text><text y="358" x="510.62801932367154" text-anchor="middle" visibility="hidden" style="font-size: 13px;">R</text><text y="358" x="514.0096618357488" text-anchor="middle" visibility="hidden" style="font-size: 13px;">K</text><text y="358" x="517.391304347826" text-anchor="middle" visibility="hidden" style="font-size: 13px;">K</text><text y="358" x="520.7729468599034" text-anchor="middle" visibility="hidden" style="font-size: 13px;">N</text><text y="358" x="524.1545893719807" text-anchor="middle" visibility="hidden" style="font-size: 13px;">A</text><text y="358" x="527.536231884058" text-anchor="middle" visibility="hidden" style="font-size: 13px;">K</text><text y="358" x="530.9178743961353" text-anchor="middle" visibility="hidden" style="font-size: 13px;">I</text><text y="358" x="534.2995169082125" text-anchor="middle" visibility="hidden" style="font-size: 13px;">S</text><text y="358" x="537.6811594202899" text-anchor="middle" visibility="hidden" style="font-size: 13px;">S</text><text y="358" x="541.0628019323672" text-anchor="middle" visibility="hidden" style="font-size: 13px;">L</text><text y="358" x="544.4444444444445" text-anchor="middle" visibility="hidden" style="font-size: 13px;">L</text><text y="358" x="547.8260869565217" text-anchor="middle" visibility="hidden" style="font-size: 13px;">E</text><text y="358" x="551.207729468599" text-anchor="middle" visibility="hidden" style="font-size: 13px;">E</text><text y="358" x="554.5893719806763" text-anchor="middle" visibility="hidden" style="font-size: 13px;">Q</text><text y="358" x="557.9710144927536" text-anchor="middle" visibility="hidden" style="font-size: 13px;">F</text><text y="358" x="561.3526570048309" text-anchor="middle" visibility="hidden" style="font-size: 13px;">Q</text><text y="358" x="564.7342995169082" text-anchor="middle" visibility="hidden" style="font-size: 13px;">Q</text><text y="358" x="568.1159420289855" text-anchor="middle" visibility="hidden" style="font-size: 13px;">G</text><text y="358" x="571.4975845410628" text-anchor="middle" visibility="hidden" style="font-size: 13px;">K</text><text y="358" x="574.8792270531401" text-anchor="middle" visibility="hidden" style="font-size: 13px;">L</text><text y="358" x="578.2608695652174" text-anchor="middle" visibility="hidden" style="font-size: 13px;">L</text><text y="358" x="581.6425120772947" text-anchor="middle" visibility="hidden" style="font-size: 13px;">A</text><text y="358" x="585.024154589372" text-anchor="middle" visibility="hidden" style="font-size: 13px;">C</text><text y="358" x="588.4057971014493" text-anchor="middle" visibility="hidden" style="font-size: 13px;">I</text><text y="358" x="591.7874396135265" text-anchor="middle" visibility="hidden" style="font-size: 13px;">A</text><text y="358" x="595.1690821256038" text-anchor="middle" visibility="hidden" style="font-size: 13px;">S</text><text y="358" x="598.5507246376811" text-anchor="middle" visibility="hidden" style="font-size: 13px;">R</text><text y="358" x="601.9323671497585" text-anchor="middle" visibility="hidden" style="font-size: 13px;">P</text><text y="358" x="605.3140096618357" text-anchor="middle" visibility="hidden" style="font-size: 13px;">G</text><text y="358" x="608.695652173913" text-anchor="middle" visibility="hidden" style="font-size: 13px;">Q</text><text y="358" x="612.0772946859903" text-anchor="middle" visibility="hidden" style="font-size: 13px;">C</text><text y="358" x="615.4589371980677" text-anchor="middle" visibility="hidden" style="font-size: 13px;">G</text><text y="358" x="618.840579710145" text-anchor="middle" visibility="hidden" style="font-size: 13px;">R</text><text y="358" x="622.2222222222222" text-anchor="middle" visibility="hidden" style="font-size: 13px;">A</text><text y="358" x="625.6038647342995" text-anchor="middle" visibility="hidden" style="font-size: 13px;">D</text><text y="358" x="628.9855072463768" text-anchor="middle" visibility="hidden" style="font-size: 13px;">G</text><text y="358" x="632.3671497584542" text-anchor="middle" visibility="hidden" style="font-size: 13px;">Y</text><text y="358" x="635.7487922705315" text-anchor="middle" visibility="hidden" style="font-size: 13px;">V</text><text y="358" x="639.1304347826086" text-anchor="middle" visibility="hidden" style="font-size: 13px;">L</text><text y="358" x="642.5120772946859" text-anchor="middle" visibility="hidden" style="font-size: 13px;">E</text><text y="358" x="645.8937198067633" text-anchor="middle" visibility="hidden" style="font-size: 13px;">G</text><text y="358" x="649.2753623188406" text-anchor="middle" visibility="hidden" style="font-size: 13px;">K</text><text y="358" x="652.6570048309179" text-anchor="middle" visibility="hidden" style="font-size: 13px;">E</text><text y="358" x="656.0386473429952" text-anchor="middle" visibility="hidden" style="font-size: 13px;">L</text><text y="358" x="659.4202898550724" text-anchor="middle" visibility="hidden" style="font-size: 13px;">E</text><text y="358" x="662.8019323671498" text-anchor="middle" visibility="hidden" style="font-size: 13px;">F</text><text y="358" x="666.1835748792271" text-anchor="middle" visibility="hidden" style="font-size: 13px;">Y</text><text y="358" x="669.5652173913044" text-anchor="middle" visibility="hidden" style="font-size: 13px;">L</text><text y="358" x="672.9468599033817" text-anchor="middle" visibility="hidden" style="font-size: 13px;">R</text><text y="358" x="676.328502415459" text-anchor="middle" visibility="hidden" style="font-size: 13px;">K</text><text y="358" x="679.7101449275362" text-anchor="middle" visibility="hidden" style="font-size: 13px;">I</text><text y="358" x="683.0917874396135" text-anchor="middle" visibility="hidden" style="font-size: 13px;">K</text><text y="358" x="686.4734299516908" text-anchor="middle" visibility="hidden" style="font-size: 13px;">A</text><text y="358" x="689.8550724637681" text-anchor="middle" visibility="hidden" style="font-size: 13px;">R</text><text y="358" x="693.2367149758454" text-anchor="middle" visibility="hidden" style="font-size: 13px;">K</text><text y="358" x="696.6183574879227" text-anchor="middle" visibility="hidden" style="font-size: 13px;">G</text><text y="358" x="700" text-anchor="middle" visibility="hidden" style="font-size: 13px;">K</text></g></g></svg><g class="xAxis" transform="translate(0,360)" fill="none" font-size="10" font-family="sans-serif" text-anchor="middle"><path class="domain" stroke="#000" d="M0.5,6V0.5H700.5V6"></path><g class="tick" opacity="1" transform="translate(64.7512077294686,0)"><line stroke="#000" y2="6"></line><text fill="#000" y="9" dy="0.71em">20</text></g><g class="tick" opacity="1" transform="translate(132.3840579710145,0)"><line stroke="#000" y2="6"></line><text fill="#000" y="9" dy="0.71em">40</text></g><g class="tick" opacity="1" transform="translate(200.01690821256037,0)"><line stroke="#000" y2="6"></line><text fill="#000" y="9" dy="0.71em">60</text></g><g class="tick" opacity="1" transform="translate(267.64975845410623,0)"><line stroke="#000" y2="6"></line><text fill="#000" y="9" dy="0.71em">80</text></g><g class="tick" opacity="1" transform="translate(335.2826086956522,0)"><line stroke="#000" y2="6"></line><text fill="#000" y="9" dy="0.71em">100</text></g><g class="tick" opacity="1" transform="translate(402.9154589371981,0)"><line stroke="#000" y2="6"></line><text fill="#000" y="9" dy="0.71em">120</text></g><g class="tick" opacity="1" transform="translate(470.548309178744,0)"><line stroke="#000" y2="6"></line><text fill="#000" y="9" dy="0.71em">140</text></g><g class="tick" opacity="1" transform="translate(538.1811594202899,0)"><line stroke="#000" y2="6"></line><text fill="#000" y="9" dy="0.71em">160</text></g><g class="tick" opacity="1" transform="translate(605.8140096618357,0)"><line stroke="#000" y2="6"></line><text fill="#000" y="9" dy="0.71em">180</text></g><g class="tick" opacity="1" transform="translate(673.4468599033817,0)"><line stroke="#000" y2="6"></line><text fill="#000" y="9" dy="0.71em">200</text></g></g><text class="x label" text-anchor="end" x="700" y="390" style="font-size: 13px; font-family: Arial;">Residue number</text><g class="yAxis" fill="none" font-size="10" font-family="sans-serif" text-anchor="end"><path class="domain" stroke="#000" d="M-6,360.5H0.5V0.5H-6"></path><g class="tick" opacity="1" transform="translate(0,359.4238614383682)"><line stroke="#000" x2="-6"></line><text fill="#000" x="-9" dy="0.32em"></text></g><g class="tick" opacity="1" transform="translate(0,327.77272727272725)"><line stroke="#000" x2="-6"></line><text fill="#000" x="-9" dy="0.32em">0</text></g><g class="tick" opacity="1" transform="translate(0,296.12159310708637)"><line stroke="#000" x2="-6"></line><text fill="#000" x="-9" dy="0.32em">5</text></g><g class="tick" opacity="1" transform="translate(0,264.47045894144543)"><line stroke="#000" x2="-6"></line><text fill="#000" x="-9" dy="0.32em">10</text></g><g class="tick" opacity="1" transform="translate(0,232.81932477580446)"><line stroke="#000" x2="-6"></line><text fill="#000" x="-9" dy="0.32em">15</text></g><g class="tick" opacity="1" transform="translate(0,201.16819061016355)"><line stroke="#000" x2="-6"></line><text fill="#000" x="-9" dy="0.32em">20</text></g><g class="tick" opacity="1" transform="translate(0,169.5170564445226)"><line stroke="#000" x2="-6"></line><text fill="#000" x="-9" dy="0.32em">25</text></g><g class="tick" opacity="1" transform="translate(0,137.86592227888164)"><line stroke="#000" x2="-6"></line><text fill="#000" x="-9" dy="0.32em">30</text></g><g class="tick" opacity="1" transform="translate(0,106.21478811324073)"><line stroke="#000" x2="-6"></line><text fill="#000" x="-9" dy="0.32em">35</text></g><g class="tick" opacity="1" transform="translate(0,74.56365394759979)"><line stroke="#000" x2="-6"></line><text fill="#000" x="-9" dy="0.32em">40</text></g><g class="tick" opacity="1" transform="translate(0,42.91251978195885)"><line stroke="#000" x2="-6"></line><text fill="#000" x="-9" dy="0.32em">45</text></g><g class="tick" opacity="1" transform="translate(0,11.261385616317966)"><line stroke="#000" x2="-6"></line><text fill="#000" x="-9" dy="0.32em">50</text></g></g><text class="y label" text-anchor="middle" y="-50" x="-180" dy="0.8em" transform="rotate(-90)" style="font-size: 13px; font-family: Arial;">Total number of references</text><g class="axisRed" fill="none" font-size="10" font-family="sans-serif" text-anchor="start" visibility="hidden" transform="translate(700, 0)"><path class="domain" stroke="#000" d="M6,360.5H0.5V0.5H6"></path><g class="tick" opacity="1" transform="translate(0,360.5)"><line stroke="#000" x2="6"></line><text fill="#000" x="9" dy="0.32em">0</text></g><text text-anchor="start" dx="5.2em" dy="-2.6em" transform="rotate(90)" visibility="hidden" style="font-size: 12px; font-family: Arial; fill: #d7301f;">No recurrent (&gt;2) missense mutations!</text></g><g class="axisPurple" fill="none" font-size="10" font-family="sans-serif" text-anchor="start" visibility="hidden"><path class="domain" stroke="#000" d="M6,360.5H0.5V0.5H6"></path><g class="tick" opacity="1" transform="translate(0,357.52479338842977)"><line stroke="#000" x2="6"></line><text fill="#000" x="9" dy="0.32em"></text></g><g class="tick" opacity="1" transform="translate(0,327.77272727272725)"><line stroke="#000" x2="6"></line><text fill="#000" x="9" dy="0.32em">0</text></g><g class="tick" opacity="1" transform="translate(0,298.0206611570248)"><line stroke="#000" x2="6"></line><text fill="#000" x="9" dy="0.32em">0.1</text></g><g class="tick" opacity="1" transform="translate(0,268.2685950413223)"><line stroke="#000" x2="6"></line><text fill="#000" x="9" dy="0.32em">0.2</text></g><g class="tick" opacity="1" transform="translate(0,238.51652892561984)"><line stroke="#000" x2="6"></line><text fill="#000" x="9" dy="0.32em">0.3</text></g><g class="tick" opacity="1" transform="translate(0,208.76446280991738)"><line stroke="#000" x2="6"></line><text fill="#000" x="9" dy="0.32em">0.4</text></g><g class="tick" opacity="1" transform="translate(0,179.0123966942149)"><line stroke="#000" x2="6"></line><text fill="#000" x="9" dy="0.32em">0.5</text></g><g class="tick" opacity="1" transform="translate(0,149.26033057851242)"><line stroke="#000" x2="6"></line><text fill="#000" x="9" dy="0.32em">0.6</text></g><g class="tick" opacity="1" transform="translate(0,119.50826446280996)"><line stroke="#000" x2="6"></line><text fill="#000" x="9" dy="0.32em">0.7</text></g><g class="tick" opacity="1" transform="translate(0,89.75619834710744)"><line stroke="#000" x2="6"></line><text fill="#000" x="9" dy="0.32em">0.8</text></g><g class="tick" opacity="1" transform="translate(0,60.00413223140498)"><line stroke="#000" x2="6"></line><text fill="#000" x="9" dy="0.32em">0.9</text></g><g class="tick" opacity="1" transform="translate(0,30.25206611570252)"><line stroke="#000" x2="6"></line><text fill="#000" x="9" dy="0.32em">1</text></g><g class="tick" opacity="1" transform="translate(0,0.5)"><line stroke="#000" x2="6"></line><text fill="#000" x="9" dy="0.32em">1.1</text></g><text text-anchor="start" x="10" y="10" visibility="hidden" style="font-size: 12px; font-family: Arial; fill: #807dba;">No disease causing germline SNPs known!</text></g><circle cx="636" cy="15" r="10" class="compassNav" style="fill: #ffffff; stroke: #666666; stroke-width: 1px;"></circle><path d="M440.935 12.574l3.966 82.766C399.416 41.904 331.674 8 256 8 134.813 8 33.933 94.924 12.296 209.824 10.908 217.193 16.604 224 24.103 224h49.084c5.57 0 10.377-3.842 11.676-9.259C103.407 137.408 172.931 80 256 80c60.893 0 114.512 30.856 146.104 77.801l-101.53-4.865c-6.845-.328-12.574 5.133-12.574 11.986v47.411c0 6.627 5.373 12 12 12h200.333c6.627 0 12-5.373 12-12V12c0-6.627-5.373-12-12-12h-47.411c-6.853 0-12.315 5.729-11.987 12.574zM256 432c-60.895 0-114.517-30.858-146.109-77.805l101.868 4.871c6.845.327 12.573-5.134 12.573-11.986v-47.412c0-6.627-5.373-12-12-12H12c-6.627 0-12 5.373-12 12V500c0 6.627 5.373 12 12 12h47.385c6.863 0 12.328-5.745 11.985-12.599l-4.129-82.575C112.725 470.166 180.405 504 256 504c121.187 0 222.067-86.924 243.704-201.824 1.388-7.369-4.308-14.176-11.807-14.176h-49.084c-5.57 0-10.377 3.842-11.676 9.259C408.593 374.592 339.069 432 256 432z" class="compassNav" transform="translate(631, 10) scale(0.02)" style="fill: #666666; stroke: #666666; stroke-width: 1px;"></path><circle cx="658" cy="15" r="10" class="compassNav" style="fill: #ffffff; stroke: #666666; stroke-width: 1px;"></circle><line class="compassNav" stroke-width="2" stroke="#666666" x1="654" y1="15" x2="662" y2="15"></line><line class="compassNav" stroke-width="2" stroke="#666666" x1="658" y1="11" x2="658" y2="19"></line><circle cx="614" cy="15" r="10" class="compassNav" style="fill: #ffffff; stroke: #666666; stroke-width: 1px;"></circle><line class="compassNav" stroke-width="2" stroke="#666666" x1="610" y1="15" x2="618" y2="15"></line><path d="M582 14 l20 -12 a100,40 0 0,0 0,24z" class="compassNav" style="fill: #ffffff; stroke: #666666; stroke-width: 1px;"></path><path d="M690 14 l-20 -12 a100,40 0 0,1 0,24z" class="compassNav" style="fill: #ffffff; stroke: #666666; stroke-width: 1px;"></path><path d="M216 0h80c13.3 0 24 10.7 24 24v168h87.7c17.8 0 26.7 21.5 14.1 34.1L269.7 378.3c-7.5 7.5-19.8 7.5-27.3 0L90.1 226.1c-12.6-12.6-3.7-34.1 14.1-34.1H192V24c0-13.3 10.7-24 24-24zm296 376v112c0 13.3-10.7 24-24 24H24c-13.3 0-24-10.7-24-24V376c0-13.3 10.7-24 24-24h146.7l49 49c20.1 20.1 52.5 20.1 72.6 0l49-49H488c13.3 0 24 10.7 24 24zm-124 88c0-11-9-20-20-20s-20 9-20 20 9 20 20 20 20-9 20-20zm64 0c0-11-9-20-20-20s-20 9-20 20 9 20 20 20 20-9 20-20z" class="compassNav" transform="translate(552,0) scale(0.05)" style="fill: #336699; stroke: #336699; stroke-width: 1px; cursor: pointer;"></path></g></svg>