<svg width="800" height="400" style="background-color: white;"><g transform="translate(50,0)"><svg width="700" height="360"><g style="-webkit-tap-highlight-color: rgba(0, 0, 0, 0);"><rect width="700" height="360" style="fill: #ffffff;"></rect><g id="lines"><line class="line" stroke-width="1" stroke="#d7301f" x1="-401.70454545454544" y1="333" x2="-401.70454545454544" y2="360" visibility="hidden" style="stroke-dasharray: 3px, 3px;"></line></g><g><rect x="-406.70454545454544" y="355" width="10" height="10" visibility="hidden" style="fill: #ffffff; stroke: #d7301f;"></rect></g><g id="lines"><line class="line" stroke-width="1" stroke="#6a51a3" x1="-401.70454545454544" y1="333" x2="-401.70454545454544" y2="327.27272727272725" visibility="hidden" style="stroke-dasharray: 3px, 3px;"></line></g><g><rect x="-406.70454545454544" y="322.27272727272725" width="10" height="10" visibility="hidden" style="fill: #ffffff; stroke: #6a51a3;"></rect></g><g id="lines"><line class="line" stroke-width="1" stroke="#666666" x1="27.84090909090909" y1="333" x2="27.84090909090909" y2="324.5679939894816"></line><line class="line" stroke-width="1" stroke="#666666" x1="27.84090909090909" y1="333" x2="27.84090909090909" y2="324.5679939894816"></line><line class="line" stroke-width="1" stroke="#666666" x1="27.84090909090909" y1="333" x2="27.84090909090909" y2="324.5679939894816"></line><line class="line" stroke-width="1" stroke="#666666" x1="27.84090909090909" y1="333" x2="27.84090909090909" y2="316.45379413974456"></line><line class="line" stroke-width="1" stroke="#666666" x1="39.77272727272727" y1="333" x2="39.77272727272727" y2="324.5679939894816"></line><line class="line" stroke-width="1" stroke="#666666" x1="43.75" y1="333" x2="43.75" y2="321.8632607062359"></line><line class="line" stroke-width="1" stroke="#666666" x1="95.45454545454545" y1="333" x2="95.45454545454545" y2="319.15852742299023"></line><line class="line" stroke-width="1" stroke="#666666" x1="95.45454545454545" y1="333" x2="95.45454545454545" y2="321.8632607062359"></line><line class="line" stroke-width="1" stroke="#666666" x1="103.40909090909092" y1="333" x2="103.40909090909092" y2="319.15852742299023"></line><line class="line" stroke-width="1" stroke="#666666" x1="103.40909090909092" y1="333" x2="103.40909090909092" y2="321.8632607062359"></line><line class="line" stroke-width="1" stroke="#666666" x1="115.34090909090908" y1="333" x2="115.34090909090908" y2="321.8632607062359"></line><line class="line" stroke-width="1" stroke="#666666" x1="123.29545454545455" y1="333" x2="123.29545454545455" y2="313.7490608564989"></line><line class="line" stroke-width="1" stroke="#666666" x1="123.29545454545455" y1="333" x2="123.29545454545455" y2="308.3395942900075"></line><line class="line" stroke-width="1" stroke="#666666" x1="131.25" y1="333" x2="131.25" y2="302.93012772351614"></line><line class="line" stroke-width="1" stroke="#666666" x1="131.25" y1="333" x2="131.25" y2="308.3395942900075"></line><line class="line" stroke-width="1" stroke="#666666" x1="182.95454545454544" y1="333" x2="182.95454545454544" y2="313.7490608564989"></line><line class="line" stroke-width="1" stroke="#666666" x1="186.93181818181816" y1="333" x2="186.93181818181816" y2="321.8632607062359"></line><line class="line" stroke-width="1" stroke="#666666" x1="190.9090909090909" y1="333" x2="190.9090909090909" y2="300.22539444027046"></line><line class="line" stroke-width="1" stroke="#666666" x1="214.77272727272728" y1="333" x2="214.77272727272728" y2="29.75206611570252"></line><line class="line" stroke-width="1" stroke="#666666" x1="254.54545454545456" y1="333" x2="254.54545454545456" y2="324.5679939894816"></line><line class="line" stroke-width="1" stroke="#666666" x1="254.54545454545456" y1="333" x2="254.54545454545456" y2="324.5679939894816"></line><line class="line" stroke-width="1" stroke="#666666" x1="294.3181818181818" y1="333" x2="294.3181818181818" y2="313.7490608564989"></line><line class="line" stroke-width="1" stroke="#666666" x1="310.22727272727275" y1="333" x2="310.22727272727275" y2="278.587528174305"></line><line class="line" stroke-width="1" stroke="#666666" x1="334.0909090909091" y1="333" x2="334.0909090909091" y2="324.5679939894816"></line><line class="line" stroke-width="1" stroke="#666666" x1="389.77272727272725" y1="333" x2="389.77272727272725" y2="148.76033057851242"></line><line class="line" stroke-width="1" stroke="#666666" x1="405.6818181818182" y1="333" x2="405.6818181818182" y2="321.8632607062359"></line><line class="line" stroke-width="1" stroke="#666666" x1="405.6818181818182" y1="333" x2="405.6818181818182" y2="316.45379413974456"></line><line class="line" stroke-width="1" stroke="#666666" x1="465.3409090909091" y1="333" x2="465.3409090909091" y2="316.45379413974456"></line><line class="line" stroke-width="1" stroke="#666666" x1="473.29545454545456" y1="333" x2="473.29545454545456" y2="319.15852742299023"></line><line class="line" stroke-width="1" stroke="#666666" x1="477.27272727272725" y1="333" x2="477.27272727272725" y2="321.8632607062359"></line><line class="line" stroke-width="1" stroke="#666666" x1="513.0681818181818" y1="333" x2="513.0681818181818" y2="319.15852742299023"></line><line class="line" stroke-width="1" stroke="#666666" x1="564.7727272727273" y1="333" x2="564.7727272727273" y2="324.5679939894816"></line><line class="line" stroke-width="1" stroke="#666666" x1="596.5909090909091" y1="333" x2="596.5909090909091" y2="316.45379413974456"></line><line class="line" stroke-width="1" stroke="#666666" x1="600.5681818181818" y1="333" x2="600.5681818181818" y2="324.5679939894816"></line><line class="line" stroke-width="1" stroke="#666666" x1="628.4090909090909" y1="333" x2="628.4090909090909" y2="135.236664162284"></line><line class="line" stroke-width="1" stroke="#666666" x1="648.2954545454545" y1="333" x2="648.2954545454545" y2="321.8632607062359"></line><line class="line" stroke-width="1" stroke="#666666" x1="680.1136363636364" y1="333" x2="680.1136363636364" y2="289.4064613072877"></line><line class="line" stroke-width="1" stroke="#666666" x1="696.0227272727273" y1="333" x2="696.0227272727273" y2="319.15852742299023"></line></g><g id="circles"><circle r="4" cx="27.84090909090909" cy="324.5679939894816" style="fill: #5aae61; stroke: #666666; stroke-width: 1px;"></circle><circle r="4" cx="27.84090909090909" cy="324.5679939894816" style="fill: #666666; stroke: #666666; stroke-width: 1px;"></circle><circle r="4" cx="27.84090909090909" cy="324.5679939894816" style="fill: #666666; stroke: #666666; stroke-width: 1px;"></circle><circle r="4" cx="27.84090909090909" cy="316.45379413974456" style="fill: #bf812d; stroke: #666666; stroke-width: 1px;"></circle><circle r="4" cx="39.77272727272727" cy="324.5679939894816" style="fill: #666666; stroke: #666666; stroke-width: 1px;"></circle><circle r="4" cx="43.75" cy="321.8632607062359" style="fill: #4393c3; stroke: #666666; stroke-width: 1px;"></circle><circle r="4" cx="95.45454545454545" cy="319.15852742299023" style="fill: #666666; stroke: #666666; stroke-width: 1px;"></circle><circle r="4" cx="95.45454545454545" cy="321.8632607062359" style="fill: #666666; stroke: #666666; stroke-width: 1px;"></circle><circle r="4" cx="103.40909090909092" cy="319.15852742299023" style="fill: #666666; stroke: #666666; stroke-width: 1px;"></circle><circle r="4" cx="103.40909090909092" cy="321.8632607062359" style="fill: #666666; stroke: #666666; stroke-width: 1px;"></circle><circle r="4" cx="115.34090909090908" cy="321.8632607062359" style="fill: #666666; stroke: #666666; stroke-width: 1px;"></circle><circle r="4" cx="123.29545454545455" cy="313.7490608564989" style="fill: #666666; stroke: #666666; stroke-width: 1px;"></circle><circle r="4" cx="123.29545454545455" cy="308.3395942900075" style="fill: #666666; stroke: #666666; stroke-width: 1px;"></circle><circle r="4" cx="131.25" cy="302.93012772351614" style="fill: #666666; stroke: #666666; stroke-width: 1px;"></circle><circle r="4" cx="131.25" cy="308.3395942900075" style="fill: #666666; stroke: #666666; stroke-width: 1px;"></circle><circle r="4" cx="182.95454545454544" cy="313.7490608564989" style="fill: #4393c3; stroke: #666666; stroke-width: 1px;"></circle><circle r="4" cx="186.93181818181816" cy="321.8632607062359" style="fill: #4393c3; stroke: #666666; stroke-width: 1px;"></circle><circle r="4" cx="190.9090909090909" cy="300.22539444027046" style="fill: #4393c3; stroke: #666666; stroke-width: 1px;"></circle><circle r="4" cx="214.77272727272728" cy="29.75206611570252" style="fill: #4393c3; stroke: #666666; stroke-width: 1px;"></circle><circle r="4" cx="254.54545454545456" cy="324.5679939894816" style="fill: #5aae61; stroke: #666666; stroke-width: 1px;"></circle><circle r="4" cx="254.54545454545456" cy="324.5679939894816" style="fill: #bf812d; stroke: #666666; stroke-width: 1px;"></circle><circle r="4" cx="294.3181818181818" cy="313.7490608564989" style="fill: #4393c3; stroke: #666666; stroke-width: 1px;"></circle><circle r="4" cx="310.22727272727275" cy="278.587528174305" style="fill: #666666; stroke: #666666; stroke-width: 1px;"></circle><circle r="4" cx="334.0909090909091" cy="324.5679939894816" style="fill: #5aae61; stroke: #666666; stroke-width: 1px;"></circle><circle r="4" cx="389.77272727272725" cy="148.76033057851242" style="fill: #4393c3; stroke: #666666; stroke-width: 1px;"></circle><circle r="4" cx="405.6818181818182" cy="321.8632607062359" style="fill: #5aae61; stroke: #666666; stroke-width: 1px;"></circle><circle r="4" cx="405.6818181818182" cy="316.45379413974456" style="fill: #bf812d; stroke: #666666; stroke-width: 1px;"></circle><circle r="4" cx="465.3409090909091" cy="316.45379413974456" style="fill: #bf812d; stroke: #666666; stroke-width: 1px;"></circle><circle r="4" cx="473.29545454545456" cy="319.15852742299023" style="fill: #4393c3; stroke: #666666; stroke-width: 1px;"></circle><circle r="4" cx="477.27272727272725" cy="321.8632607062359" style="fill: #4393c3; stroke: #666666; stroke-width: 1px;"></circle><circle r="4" cx="513.0681818181818" cy="319.15852742299023" style="fill: #bf812d; stroke: #666666; stroke-width: 1px;"></circle><circle r="4" cx="564.7727272727273" cy="324.5679939894816" style="fill: #4393c3; stroke: #666666; stroke-width: 1px;"></circle><circle r="4" cx="596.5909090909091" cy="316.45379413974456" style="fill: #4393c3; stroke: #666666; stroke-width: 1px;"></circle><circle r="4" cx="600.5681818181818" cy="324.5679939894816" style="fill: #bf812d; stroke: #666666; stroke-width: 1px;"></circle><circle r="4" cx="628.4090909090909" cy="135.236664162284" style="fill: #4393c3; stroke: #666666; stroke-width: 1px;"></circle><circle r="4" cx="648.2954545454545" cy="321.8632607062359" style="fill: #4393c3; stroke: #666666; stroke-width: 1px;"></circle><circle r="4" cx="680.1136363636364" cy="289.4064613072877" style="fill: #4393c3; stroke: #666666; stroke-width: 1px;"></circle><circle r="4" cx="696.0227272727273" cy="319.15852742299023" style="fill: #4393c3; stroke: #666666; stroke-width: 1px;"></circle></g><g><rect x="0" y="333" width="700" height="12" style="fill: #ffffff; stroke-width: 1px; stroke: #666666;"></rect><rect x="11.931818181818182" y="333" width="67.61363636363636" height="12" style="fill: #aec7e8; stroke-width: 1px; stroke: #666666;"></rect><rect x="202.8409090909091" y="333" width="67.61363636363635" height="12" style="fill: #aec7e8; stroke-width: 1px; stroke: #666666;"></rect><rect x="282.3863636363636" y="333" width="67.61363636363637" height="12" style="fill: #aec7e8; stroke-width: 1px; stroke: #666666;"></rect><rect x="377.8409090909091" y="333" width="67.61363636363632" height="12" style="fill: #aec7e8; stroke-width: 1px; stroke: #666666;"></rect><rect x="461.3636363636363" y="333" width="67.61363636363643" height="12" style="fill: #aec7e8; stroke-width: 1px; stroke: #666666;"></rect><rect x="532.9545454545455" y="333" width="67.61363636363626" height="12" style="fill: #aec7e8; stroke-width: 1px; stroke: #666666;"></rect><rect x="616.4772727272727" y="333" width="67.61363636363637" height="12" style="fill: #aec7e8; stroke-width: 1px; stroke: #666666;"></rect></g><g><a target="_blank" xlink:href="http://pfam.xfam.org/family/"><text y="343" x="350" text-anchor="middle" style="color: rgb(102, 102, 102); font-weight: normal; font-size: 12px; font-family: Arial; cursor: pointer;"></text></a><a target="_blank" xlink:href="http://pfam.xfam.org/family/zf-CCHC"><text y="343" x="45.73863636363637" text-anchor="middle" style="color: rgb(102, 102, 102); font-weight: normal; font-size: 12px; font-family: Arial; cursor: pointer;">zf-CCHC</text></a><a target="_blank" xlink:href="http://pfam.xfam.org/family/zf-CCHC"><text y="343" x="236.64772727272725" text-anchor="middle" style="color: rgb(102, 102, 102); font-weight: normal; font-size: 12px; font-family: Arial; cursor: pointer;">zf-CCHC</text></a><a target="_blank" xlink:href="http://pfam.xfam.org/family/zf-CCHC"><text y="343" x="316.1931818181818" text-anchor="middle" style="color: rgb(102, 102, 102); font-weight: normal; font-size: 12px; font-family: Arial; cursor: pointer;">zf-CCHC</text></a><a target="_blank" xlink:href="http://pfam.xfam.org/family/zf-CCHC"><text y="343" x="411.64772727272725" text-anchor="middle" style="color: rgb(102, 102, 102); font-weight: normal; font-size: 12px; font-family: Arial; cursor: pointer;">zf-CCHC</text></a><a target="_blank" xlink:href="http://pfam.xfam.org/family/zf-CCHC"><text y="343" x="495.1704545454545" text-anchor="middle" style="color: rgb(102, 102, 102); font-weight: normal; font-size: 12px; font-family: Arial; cursor: pointer;">zf-CCHC</text></a><a target="_blank" xlink:href="http://pfam.xfam.org/family/zf-CCHC"><text y="343" x="566.7613636363636" text-anchor="middle" style="color: rgb(102, 102, 102); font-weight: normal; font-size: 12px; font-family: Arial; cursor: pointer;">zf-CCHC</text></a><a target="_blank" xlink:href="http://pfam.xfam.org/family/zf-CCHC"><text y="343" x="650.284090909091" text-anchor="middle" style="color: rgb(102, 102, 102); font-weight: normal; font-size: 12px; font-family: Arial; cursor: pointer;">zf-CCHC</text></a></g><g><text y="358" x="0" text-anchor="middle" visibility="hidden" style="font-size: 13px;">M</text><text y="358" x="3.9772727272727275" text-anchor="middle" visibility="hidden" style="font-size: 13px;">S</text><text y="358" x="7.954545454545455" text-anchor="middle" visibility="hidden" style="font-size: 13px;">S</text><text y="358" x="11.931818181818182" text-anchor="middle" visibility="hidden" style="font-size: 13px;">N</text><text y="358" x="15.90909090909091" text-anchor="middle" visibility="hidden" style="font-size: 13px;">E</text><text y="358" x="19.886363636363637" text-anchor="middle" visibility="hidden" style="font-size: 13px;">C</text><text y="358" x="23.863636363636363" text-anchor="middle" visibility="hidden" style="font-size: 13px;">F</text><text y="358" x="27.84090909090909" text-anchor="middle" visibility="hidden" style="font-size: 13px;">K</text><text y="358" x="31.81818181818182" text-anchor="middle" visibility="hidden" style="font-size: 13px;">C</text><text y="358" x="35.79545454545455" text-anchor="middle" visibility="hidden" style="font-size: 13px;">G</text><text y="358" x="39.77272727272727" text-anchor="middle" visibility="hidden" style="font-size: 13px;">R</text><text y="358" x="43.75" text-anchor="middle" visibility="hidden" style="font-size: 13px;">S</text><text y="358" x="47.72727272727273" text-anchor="middle" visibility="hidden" style="font-size: 13px;">G</text><text y="358" x="51.70454545454546" text-anchor="middle" visibility="hidden" style="font-size: 13px;">H</text><text y="358" x="55.68181818181818" text-anchor="middle" visibility="hidden" style="font-size: 13px;">W</text><text y="358" x="59.65909090909091" text-anchor="middle" visibility="hidden" style="font-size: 13px;">A</text><text y="358" x="63.63636363636364" text-anchor="middle" visibility="hidden" style="font-size: 13px;">R</text><text y="358" x="67.61363636363636" text-anchor="middle" visibility="hidden" style="font-size: 13px;">E</text><text y="358" x="71.5909090909091" text-anchor="middle" visibility="hidden" style="font-size: 13px;">C</text><text y="358" x="75.56818181818181" text-anchor="middle" visibility="hidden" style="font-size: 13px;">P</text><text y="358" x="79.54545454545455" text-anchor="middle" visibility="hidden" style="font-size: 13px;">T</text><text y="358" x="83.52272727272728" text-anchor="middle" visibility="hidden" style="font-size: 13px;">G</text><text y="358" x="87.5" text-anchor="middle" visibility="hidden" style="font-size: 13px;">G</text><text y="358" x="91.47727272727272" text-anchor="middle" visibility="hidden" style="font-size: 13px;">G</text><text y="358" x="95.45454545454545" text-anchor="middle" visibility="hidden" style="font-size: 13px;">R</text><text y="358" x="99.43181818181819" text-anchor="middle" visibility="hidden" style="font-size: 13px;">G</text><text y="358" x="103.40909090909092" text-anchor="middle" visibility="hidden" style="font-size: 13px;">R</text><text y="358" x="107.38636363636364" text-anchor="middle" visibility="hidden" style="font-size: 13px;">G</text><text y="358" x="111.36363636363636" text-anchor="middle" visibility="hidden" style="font-size: 13px;">M</text><text y="358" x="115.34090909090908" text-anchor="middle" visibility="hidden" style="font-size: 13px;">R</text><text y="358" x="119.31818181818181" text-anchor="middle" visibility="hidden" style="font-size: 13px;">S</text><text y="358" x="123.29545454545455" text-anchor="middle" visibility="hidden" style="font-size: 13px;">R</text><text y="358" x="127.27272727272728" text-anchor="middle" visibility="hidden" style="font-size: 13px;">G</text><text y="358" x="131.25" text-anchor="middle" visibility="hidden" style="font-size: 13px;">R</text><text y="358" x="135.22727272727272" text-anchor="middle" visibility="hidden" style="font-size: 13px;">G</text><text y="358" x="139.20454545454544" text-anchor="middle" visibility="hidden" style="font-size: 13px;">G</text><text y="358" x="143.1818181818182" text-anchor="middle" visibility="hidden" style="font-size: 13px;">F</text><text y="358" x="147.1590909090909" text-anchor="middle" visibility="hidden" style="font-size: 13px;">T</text><text y="358" x="151.13636363636363" text-anchor="middle" visibility="hidden" style="font-size: 13px;">S</text><text y="358" x="155.11363636363637" text-anchor="middle" visibility="hidden" style="font-size: 13px;">D</text><text y="358" x="159.0909090909091" text-anchor="middle" visibility="hidden" style="font-size: 13px;">R</text><text y="358" x="163.0681818181818" text-anchor="middle" visibility="hidden" style="font-size: 13px;">G</text><text y="358" x="167.04545454545456" text-anchor="middle" visibility="hidden" style="font-size: 13px;">F</text><text y="358" x="171.02272727272728" text-anchor="middle" visibility="hidden" style="font-size: 13px;">Q</text><text y="358" x="175" text-anchor="middle" visibility="hidden" style="font-size: 13px;">F</text><text y="358" x="178.97727272727272" text-anchor="middle" visibility="hidden" style="font-size: 13px;">V</text><text y="358" x="182.95454545454544" text-anchor="middle" visibility="hidden" style="font-size: 13px;">S</text><text y="358" x="186.93181818181816" text-anchor="middle" visibility="hidden" style="font-size: 13px;">S</text><text y="358" x="190.9090909090909" text-anchor="middle" visibility="hidden" style="font-size: 13px;">S</text><text y="358" x="194.88636363636363" text-anchor="middle" visibility="hidden" style="font-size: 13px;">L</text><text y="358" x="198.86363636363637" text-anchor="middle" visibility="hidden" style="font-size: 13px;">P</text><text y="358" x="202.8409090909091" text-anchor="middle" visibility="hidden" style="font-size: 13px;">D</text><text y="358" x="206.81818181818184" text-anchor="middle" visibility="hidden" style="font-size: 13px;">I</text><text y="358" x="210.79545454545456" text-anchor="middle" visibility="hidden" style="font-size: 13px;">C</text><text y="358" x="214.77272727272728" text-anchor="middle" visibility="hidden" style="font-size: 13px;">Y</text><text y="358" x="218.75" text-anchor="middle" visibility="hidden" style="font-size: 13px;">R</text><text y="358" x="222.72727272727272" text-anchor="middle" visibility="hidden" style="font-size: 13px;">C</text><text y="358" x="226.70454545454544" text-anchor="middle" visibility="hidden" style="font-size: 13px;">G</text><text y="358" x="230.68181818181816" text-anchor="middle" visibility="hidden" style="font-size: 13px;">E</text><text y="358" x="234.6590909090909" text-anchor="middle" visibility="hidden" style="font-size: 13px;">S</text><text y="358" x="238.63636363636363" text-anchor="middle" visibility="hidden" style="font-size: 13px;">G</text><text y="358" x="242.61363636363637" text-anchor="middle" visibility="hidden" style="font-size: 13px;">H</text><text y="358" x="246.5909090909091" text-anchor="middle" visibility="hidden" style="font-size: 13px;">L</text><text y="358" x="250.56818181818184" text-anchor="middle" visibility="hidden" style="font-size: 13px;">A</text><text y="358" x="254.54545454545456" text-anchor="middle" visibility="hidden" style="font-size: 13px;">K</text><text y="358" x="258.52272727272725" text-anchor="middle" visibility="hidden" style="font-size: 13px;">D</text><text y="358" x="262.5" text-anchor="middle" visibility="hidden" style="font-size: 13px;">C</text><text y="358" x="266.47727272727275" text-anchor="middle" visibility="hidden" style="font-size: 13px;">D</text><text y="358" x="270.45454545454544" text-anchor="middle" visibility="hidden" style="font-size: 13px;">L</text><text y="358" x="274.4318181818182" text-anchor="middle" visibility="hidden" style="font-size: 13px;">Q</text><text y="358" x="278.4090909090909" text-anchor="middle" visibility="hidden" style="font-size: 13px;">E</text><text y="358" x="282.3863636363636" text-anchor="middle" visibility="hidden" style="font-size: 13px;">D</text><text y="358" x="286.3636363636364" text-anchor="middle" visibility="hidden" style="font-size: 13px;">A</text><text y="358" x="290.3409090909091" text-anchor="middle" visibility="hidden" style="font-size: 13px;">C</text><text y="358" x="294.3181818181818" text-anchor="middle" visibility="hidden" style="font-size: 13px;">Y</text><text y="358" x="298.29545454545456" text-anchor="middle" visibility="hidden" style="font-size: 13px;">N</text><text y="358" x="302.27272727272725" text-anchor="middle" visibility="hidden" style="font-size: 13px;">C</text><text y="358" x="306.25" text-anchor="middle" visibility="hidden" style="font-size: 13px;">G</text><text y="358" x="310.22727272727275" text-anchor="middle" visibility="hidden" style="font-size: 13px;">R</text><text y="358" x="314.20454545454544" text-anchor="middle" visibility="hidden" style="font-size: 13px;">G</text><text y="358" x="318.1818181818182" text-anchor="middle" visibility="hidden" style="font-size: 13px;">G</text><text y="358" x="322.1590909090909" text-anchor="middle" visibility="hidden" style="font-size: 13px;">H</text><text y="358" x="326.1363636363636" text-anchor="middle" visibility="hidden" style="font-size: 13px;">I</text><text y="358" x="330.1136363636364" text-anchor="middle" visibility="hidden" style="font-size: 13px;">A</text><text y="358" x="334.0909090909091" text-anchor="middle" visibility="hidden" style="font-size: 13px;">K</text><text y="358" x="338.0681818181818" text-anchor="middle" visibility="hidden" style="font-size: 13px;">D</text><text y="358" x="342.04545454545456" text-anchor="middle" visibility="hidden" style="font-size: 13px;">C</text><text y="358" x="346.02272727272725" text-anchor="middle" visibility="hidden" style="font-size: 13px;">K</text><text y="358" x="350" text-anchor="middle" visibility="hidden" style="font-size: 13px;">E</text><text y="358" x="353.97727272727275" text-anchor="middle" visibility="hidden" style="font-size: 13px;">P</text><text y="358" x="357.95454545454544" text-anchor="middle" visibility="hidden" style="font-size: 13px;">K</text><text y="358" x="361.9318181818182" text-anchor="middle" visibility="hidden" style="font-size: 13px;">R</text><text y="358" x="365.9090909090909" text-anchor="middle" visibility="hidden" style="font-size: 13px;">E</text><text y="358" x="369.8863636363637" text-anchor="middle" visibility="hidden" style="font-size: 13px;">R</text><text y="358" x="373.8636363636363" text-anchor="middle" visibility="hidden" style="font-size: 13px;">E</text><text y="358" x="377.8409090909091" text-anchor="middle" visibility="hidden" style="font-size: 13px;">Q</text><text y="358" x="381.8181818181818" text-anchor="middle" visibility="hidden" style="font-size: 13px;">C</text><text y="358" x="385.79545454545456" text-anchor="middle" visibility="hidden" style="font-size: 13px;">C</text><text y="358" x="389.77272727272725" text-anchor="middle" visibility="hidden" style="font-size: 13px;">Y</text><text y="358" x="393.75" text-anchor="middle" visibility="hidden" style="font-size: 13px;">N</text><text y="358" x="397.72727272727275" text-anchor="middle" visibility="hidden" style="font-size: 13px;">C</text><text y="358" x="401.70454545454544" text-anchor="middle" visibility="hidden" style="font-size: 13px;">G</text><text y="358" x="405.6818181818182" text-anchor="middle" visibility="hidden" style="font-size: 13px;">K</text><text y="358" x="409.6590909090909" text-anchor="middle" visibility="hidden" style="font-size: 13px;">P</text><text y="358" x="413.6363636363637" text-anchor="middle" visibility="hidden" style="font-size: 13px;">G</text><text y="358" x="417.6136363636363" text-anchor="middle" visibility="hidden" style="font-size: 13px;">H</text><text y="358" x="421.5909090909091" text-anchor="middle" visibility="hidden" style="font-size: 13px;">L</text><text y="358" x="425.5681818181818" text-anchor="middle" visibility="hidden" style="font-size: 13px;">A</text><text y="358" x="429.54545454545456" text-anchor="middle" visibility="hidden" style="font-size: 13px;">R</text><text y="358" x="433.52272727272725" text-anchor="middle" visibility="hidden" style="font-size: 13px;">D</text><text y="358" x="437.5" text-anchor="middle" visibility="hidden" style="font-size: 13px;">C</text><text y="358" x="441.47727272727275" text-anchor="middle" visibility="hidden" style="font-size: 13px;">D</text><text y="358" x="445.45454545454544" text-anchor="middle" visibility="hidden" style="font-size: 13px;">H</text><text y="358" x="449.4318181818182" text-anchor="middle" visibility="hidden" style="font-size: 13px;">A</text><text y="358" x="453.4090909090909" text-anchor="middle" visibility="hidden" style="font-size: 13px;">D</text><text y="358" x="457.3863636363637" text-anchor="middle" visibility="hidden" style="font-size: 13px;">E</text><text y="358" x="461.3636363636363" text-anchor="middle" visibility="hidden" style="font-size: 13px;">Q</text><text y="358" x="465.3409090909091" text-anchor="middle" visibility="hidden" style="font-size: 13px;">K</text><text y="358" x="469.3181818181818" text-anchor="middle" visibility="hidden" style="font-size: 13px;">C</text><text y="358" x="473.29545454545456" text-anchor="middle" visibility="hidden" style="font-size: 13px;">Y</text><text y="358" x="477.27272727272725" text-anchor="middle" visibility="hidden" style="font-size: 13px;">S</text><text y="358" x="481.25" text-anchor="middle" visibility="hidden" style="font-size: 13px;">C</text><text y="358" x="485.22727272727275" text-anchor="middle" visibility="hidden" style="font-size: 13px;">G</text><text y="358" x="489.20454545454544" text-anchor="middle" visibility="hidden" style="font-size: 13px;">E</text><text y="358" x="493.1818181818182" text-anchor="middle" visibility="hidden" style="font-size: 13px;">F</text><text y="358" x="497.1590909090909" text-anchor="middle" visibility="hidden" style="font-size: 13px;">G</text><text y="358" x="501.1363636363637" text-anchor="middle" visibility="hidden" style="font-size: 13px;">H</text><text y="358" x="505.1136363636363" text-anchor="middle" visibility="hidden" style="font-size: 13px;">I</text><text y="358" x="509.0909090909091" text-anchor="middle" visibility="hidden" style="font-size: 13px;">Q</text><text y="358" x="513.0681818181818" text-anchor="middle" visibility="hidden" style="font-size: 13px;">K</text><text y="358" x="517.0454545454545" text-anchor="middle" visibility="hidden" style="font-size: 13px;">D</text><text y="358" x="521.0227272727273" text-anchor="middle" visibility="hidden" style="font-size: 13px;">C</text><text y="358" x="525" text-anchor="middle" visibility="hidden" style="font-size: 13px;">T</text><text y="358" x="528.9772727272727" text-anchor="middle" visibility="hidden" style="font-size: 13px;">K</text><text y="358" x="532.9545454545455" text-anchor="middle" visibility="hidden" style="font-size: 13px;">V</text><text y="358" x="536.9318181818182" text-anchor="middle" visibility="hidden" style="font-size: 13px;">K</text><text y="358" x="540.9090909090909" text-anchor="middle" visibility="hidden" style="font-size: 13px;">C</text><text y="358" x="544.8863636363636" text-anchor="middle" visibility="hidden" style="font-size: 13px;">Y</text><text y="358" x="548.8636363636364" text-anchor="middle" visibility="hidden" style="font-size: 13px;">R</text><text y="358" x="552.8409090909091" text-anchor="middle" visibility="hidden" style="font-size: 13px;">C</text><text y="358" x="556.8181818181818" text-anchor="middle" visibility="hidden" style="font-size: 13px;">G</text><text y="358" x="560.7954545454545" text-anchor="middle" visibility="hidden" style="font-size: 13px;">E</text><text y="358" x="564.7727272727273" text-anchor="middle" visibility="hidden" style="font-size: 13px;">T</text><text y="358" x="568.75" text-anchor="middle" visibility="hidden" style="font-size: 13px;">G</text><text y="358" x="572.7272727272727" text-anchor="middle" visibility="hidden" style="font-size: 13px;">H</text><text y="358" x="576.7045454545455" text-anchor="middle" visibility="hidden" style="font-size: 13px;">V</text><text y="358" x="580.6818181818182" text-anchor="middle" visibility="hidden" style="font-size: 13px;">A</text><text y="358" x="584.6590909090909" text-anchor="middle" visibility="hidden" style="font-size: 13px;">I</text><text y="358" x="588.6363636363636" text-anchor="middle" visibility="hidden" style="font-size: 13px;">N</text><text y="358" x="592.6136363636364" text-anchor="middle" visibility="hidden" style="font-size: 13px;">C</text><text y="358" x="596.5909090909091" text-anchor="middle" visibility="hidden" style="font-size: 13px;">S</text><text y="358" x="600.5681818181818" text-anchor="middle" visibility="hidden" style="font-size: 13px;">K</text><text y="358" x="604.5454545454545" text-anchor="middle" visibility="hidden" style="font-size: 13px;">T</text><text y="358" x="608.5227272727273" text-anchor="middle" visibility="hidden" style="font-size: 13px;">S</text><text y="358" x="612.5" text-anchor="middle" visibility="hidden" style="font-size: 13px;">E</text><text y="358" x="616.4772727272727" text-anchor="middle" visibility="hidden" style="font-size: 13px;">V</text><text y="358" x="620.4545454545455" text-anchor="middle" visibility="hidden" style="font-size: 13px;">N</text><text y="358" x="624.4318181818182" text-anchor="middle" visibility="hidden" style="font-size: 13px;">C</text><text y="358" x="628.4090909090909" text-anchor="middle" visibility="hidden" style="font-size: 13px;">Y</text><text y="358" x="632.3863636363636" text-anchor="middle" visibility="hidden" style="font-size: 13px;">R</text><text y="358" x="636.3636363636364" text-anchor="middle" visibility="hidden" style="font-size: 13px;">C</text><text y="358" x="640.3409090909091" text-anchor="middle" visibility="hidden" style="font-size: 13px;">G</text><text y="358" x="644.3181818181818" text-anchor="middle" visibility="hidden" style="font-size: 13px;">E</text><text y="358" x="648.2954545454545" text-anchor="middle" visibility="hidden" style="font-size: 13px;">S</text><text y="358" x="652.2727272727273" text-anchor="middle" visibility="hidden" style="font-size: 13px;">G</text><text y="358" x="656.25" text-anchor="middle" visibility="hidden" style="font-size: 13px;">H</text><text y="358" x="660.2272727272727" text-anchor="middle" visibility="hidden" style="font-size: 13px;">L</text><text y="358" x="664.2045454545455" text-anchor="middle" visibility="hidden" style="font-size: 13px;">A</text><text y="358" x="668.1818181818182" text-anchor="middle" visibility="hidden" style="font-size: 13px;">R</text><text y="358" x="672.1590909090909" text-anchor="middle" visibility="hidden" style="font-size: 13px;">E</text><text y="358" x="676.1363636363636" text-anchor="middle" visibility="hidden" style="font-size: 13px;">C</text><text y="358" x="680.1136363636364" text-anchor="middle" visibility="hidden" style="font-size: 13px;">T</text><text y="358" x="684.0909090909091" text-anchor="middle" visibility="hidden" style="font-size: 13px;">I</text><text y="358" x="688.0681818181818" text-anchor="middle" visibility="hidden" style="font-size: 13px;">E</text><text y="358" x="692.0454545454545" text-anchor="middle" visibility="hidden" style="font-size: 13px;">A</text><text y="358" x="696.0227272727273" text-anchor="middle" visibility="hidden" style="font-size: 13px;">T</text><text y="358" x="700" text-anchor="middle" visibility="hidden" style="font-size: 13px;">A</text></g></g></svg><g class="xAxis" transform="translate(0,360)" fill="none" font-size="10" font-family="sans-serif" text-anchor="middle"><path class="domain" stroke="#000" d="M0.5,6V0.5H700.5V6"></path><g class="tick" opacity="1" transform="translate(76.06818181818181,0)"><line stroke="#000" y2="6"></line><text fill="#000" y="9" dy="0.71em">20</text></g><g class="tick" opacity="1" transform="translate(155.61363636363637,0)"><line stroke="#000" y2="6"></line><text fill="#000" y="9" dy="0.71em">40</text></g><g class="tick" opacity="1" transform="translate(235.1590909090909,0)"><line stroke="#000" y2="6"></line><text fill="#000" y="9" dy="0.71em">60</text></g><g class="tick" opacity="1" transform="translate(314.70454545454544,0)"><line stroke="#000" y2="6"></line><text fill="#000" y="9" dy="0.71em">80</text></g><g class="tick" opacity="1" transform="translate(394.25,0)"><line stroke="#000" y2="6"></line><text fill="#000" y="9" dy="0.71em">100</text></g><g class="tick" opacity="1" transform="translate(473.79545454545456,0)"><line stroke="#000" y2="6"></line><text fill="#000" y="9" dy="0.71em">120</text></g><g class="tick" opacity="1" transform="translate(553.3409090909091,0)"><line stroke="#000" y2="6"></line><text fill="#000" y="9" dy="0.71em">140</text></g><g class="tick" opacity="1" transform="translate(632.8863636363636,0)"><line stroke="#000" y2="6"></line><text fill="#000" y="9" dy="0.71em">160</text></g></g><text class="x label" text-anchor="end" x="700" y="390" style="font-size: 13px; font-family: Arial;">Residue number</text><g class="yAxis" fill="none" font-size="10" font-family="sans-serif" text-anchor="end"><path class="domain" stroke="#000" d="M-6,360.5H0.5V0.5H-6"></path><g class="tick" opacity="1" transform="translate(0,354.8200601051841)"><line stroke="#000" x2="-6"></line><text fill="#000" x="-9" dy="0.32em"></text></g><g class="tick" opacity="1" transform="translate(0,327.77272727272725)"><line stroke="#000" x2="-6"></line><text fill="#000" x="-9" dy="0.32em">0</text></g><g class="tick" opacity="1" transform="translate(0,300.72539444027046)"><line stroke="#000" x2="-6"></line><text fill="#000" x="-9" dy="0.32em">10</text></g><g class="tick" opacity="1" transform="translate(0,273.6780616078137)"><line stroke="#000" x2="-6"></line><text fill="#000" x="-9" dy="0.32em">20</text></g><g class="tick" opacity="1" transform="translate(0,246.63072877535686)"><line stroke="#000" x2="-6"></line><text fill="#000" x="-9" dy="0.32em">30</text></g><g class="tick" opacity="1" transform="translate(0,219.58339594290007)"><line stroke="#000" x2="-6"></line><text fill="#000" x="-9" dy="0.32em">40</text></g><g class="tick" opacity="1" transform="translate(0,192.53606311044325)"><line stroke="#000" x2="-6"></line><text fill="#000" x="-9" dy="0.32em">50</text></g><g class="tick" opacity="1" transform="translate(0,165.4887302779865)"><line stroke="#000" x2="-6"></line><text fill="#000" x="-9" dy="0.32em">60</text></g><g class="tick" opacity="1" transform="translate(0,138.4413974455297)"><line stroke="#000" x2="-6"></line><text fill="#000" x="-9" dy="0.32em">70</text></g><g class="tick" opacity="1" transform="translate(0,111.39406461307289)"><line stroke="#000" x2="-6"></line><text fill="#000" x="-9" dy="0.32em">80</text></g><g class="tick" opacity="1" transform="translate(0,84.3467317806161)"><line stroke="#000" x2="-6"></line><text fill="#000" x="-9" dy="0.32em">90</text></g><g class="tick" opacity="1" transform="translate(0,57.29939894815925)"><line stroke="#000" x2="-6"></line><text fill="#000" x="-9" dy="0.32em">100</text></g><g class="tick" opacity="1" transform="translate(0,30.25206611570252)"><line stroke="#000" x2="-6"></line><text fill="#000" x="-9" dy="0.32em">110</text></g><g class="tick" opacity="1" transform="translate(0,3.204733283245673)"><line stroke="#000" x2="-6"></line><text fill="#000" x="-9" dy="0.32em">120</text></g></g><text class="y label" text-anchor="middle" y="-50" x="-180" dy="0.8em" transform="rotate(-90)" style="font-size: 13px; font-family: Arial;">Total number of references</text><g class="axisRed" fill="none" font-size="10" font-family="sans-serif" text-anchor="start" visibility="hidden" transform="translate(700, 0)"><path class="domain" stroke="#000" d="M6,360.5H0.5V0.5H6"></path><g class="tick" opacity="1" transform="translate(0,360.5)"><line stroke="#000" x2="6"></line><text fill="#000" x="9" dy="0.32em">0</text></g><text text-anchor="start" dx="5.2em" dy="-2.6em" transform="rotate(90)" visibility="hidden" style="font-size: 12px; font-family: Arial; fill: #d7301f;">No recurrent (&gt;2) missense mutations!</text></g><g class="axisPurple" fill="none" font-size="10" font-family="sans-serif" text-anchor="start" visibility="hidden"><path class="domain" stroke="#000" d="M6,360.5H0.5V0.5H6"></path><g class="tick" opacity="1" transform="translate(0,357.52479338842977)"><line stroke="#000" x2="6"></line><text fill="#000" x="9" dy="0.32em"></text></g><g class="tick" opacity="1" transform="translate(0,327.77272727272725)"><line stroke="#000" x2="6"></line><text fill="#000" x="9" dy="0.32em">0</text></g><g class="tick" opacity="1" transform="translate(0,298.0206611570248)"><line stroke="#000" x2="6"></line><text fill="#000" x="9" dy="0.32em">0.1</text></g><g class="tick" opacity="1" transform="translate(0,268.2685950413223)"><line stroke="#000" x2="6"></line><text fill="#000" x="9" dy="0.32em">0.2</text></g><g class="tick" opacity="1" transform="translate(0,238.51652892561984)"><line stroke="#000" x2="6"></line><text fill="#000" x="9" dy="0.32em">0.3</text></g><g class="tick" opacity="1" transform="translate(0,208.76446280991738)"><line stroke="#000" x2="6"></line><text fill="#000" x="9" dy="0.32em">0.4</text></g><g class="tick" opacity="1" transform="translate(0,179.0123966942149)"><line stroke="#000" x2="6"></line><text fill="#000" x="9" dy="0.32em">0.5</text></g><g class="tick" opacity="1" transform="translate(0,149.26033057851242)"><line stroke="#000" x2="6"></line><text fill="#000" x="9" dy="0.32em">0.6</text></g><g class="tick" opacity="1" transform="translate(0,119.50826446280996)"><line stroke="#000" x2="6"></line><text fill="#000" x="9" dy="0.32em">0.7</text></g><g class="tick" opacity="1" transform="translate(0,89.75619834710744)"><line stroke="#000" x2="6"></line><text fill="#000" x="9" dy="0.32em">0.8</text></g><g class="tick" opacity="1" transform="translate(0,60.00413223140498)"><line stroke="#000" x2="6"></line><text fill="#000" x="9" dy="0.32em">0.9</text></g><g class="tick" opacity="1" transform="translate(0,30.25206611570252)"><line stroke="#000" x2="6"></line><text fill="#000" x="9" dy="0.32em">1</text></g><g class="tick" opacity="1" transform="translate(0,0.5)"><line stroke="#000" x2="6"></line><text fill="#000" x="9" dy="0.32em">1.1</text></g><text text-anchor="start" x="10" y="10" visibility="hidden" style="font-size: 12px; font-family: Arial; fill: #807dba;">No disease causing germline SNPs known!</text></g><circle cx="636" cy="15" r="10" class="compassNav" style="fill: #ffffff; stroke: #666666; stroke-width: 1px;"></circle><path d="M440.935 12.574l3.966 82.766C399.416 41.904 331.674 8 256 8 134.813 8 33.933 94.924 12.296 209.824 10.908 217.193 16.604 224 24.103 224h49.084c5.57 0 10.377-3.842 11.676-9.259C103.407 137.408 172.931 80 256 80c60.893 0 114.512 30.856 146.104 77.801l-101.53-4.865c-6.845-.328-12.574 5.133-12.574 11.986v47.411c0 6.627 5.373 12 12 12h200.333c6.627 0 12-5.373 12-12V12c0-6.627-5.373-12-12-12h-47.411c-6.853 0-12.315 5.729-11.987 12.574zM256 432c-60.895 0-114.517-30.858-146.109-77.805l101.868 4.871c6.845.327 12.573-5.134 12.573-11.986v-47.412c0-6.627-5.373-12-12-12H12c-6.627 0-12 5.373-12 12V500c0 6.627 5.373 12 12 12h47.385c6.863 0 12.328-5.745 11.985-12.599l-4.129-82.575C112.725 470.166 180.405 504 256 504c121.187 0 222.067-86.924 243.704-201.824 1.388-7.369-4.308-14.176-11.807-14.176h-49.084c-5.57 0-10.377 3.842-11.676 9.259C408.593 374.592 339.069 432 256 432z" class="compassNav" transform="translate(631, 10) scale(0.02)" style="fill: #666666; stroke: #666666; stroke-width: 1px;"></path><circle cx="658" cy="15" r="10" class="compassNav" style="fill: #ffffff; stroke: #666666; stroke-width: 1px;"></circle><line class="compassNav" stroke-width="2" stroke="#666666" x1="654" y1="15" x2="662" y2="15"></line><line class="compassNav" stroke-width="2" stroke="#666666" x1="658" y1="11" x2="658" y2="19"></line><circle cx="614" cy="15" r="10" class="compassNav" style="fill: #ffffff; stroke: #666666; stroke-width: 1px;"></circle><line class="compassNav" stroke-width="2" stroke="#666666" x1="610" y1="15" x2="618" y2="15"></line><path d="M582 14 l20 -12 a100,40 0 0,0 0,24z" class="compassNav" style="fill: #ffffff; stroke: #666666; stroke-width: 1px;"></path><path d="M690 14 l-20 -12 a100,40 0 0,1 0,24z" class="compassNav" style="fill: #ffffff; stroke: #666666; stroke-width: 1px;"></path><path d="M216 0h80c13.3 0 24 10.7 24 24v168h87.7c17.8 0 26.7 21.5 14.1 34.1L269.7 378.3c-7.5 7.5-19.8 7.5-27.3 0L90.1 226.1c-12.6-12.6-3.7-34.1 14.1-34.1H192V24c0-13.3 10.7-24 24-24zm296 376v112c0 13.3-10.7 24-24 24H24c-13.3 0-24-10.7-24-24V376c0-13.3 10.7-24 24-24h146.7l49 49c20.1 20.1 52.5 20.1 72.6 0l49-49H488c13.3 0 24 10.7 24 24zm-124 88c0-11-9-20-20-20s-20 9-20 20 9 20 20 20 20-9 20-20zm64 0c0-11-9-20-20-20s-20 9-20 20 9 20 20 20 20-9 20-20z" class="compassNav" transform="translate(552,0) scale(0.05)" style="fill: #336699; stroke: #336699; stroke-width: 1px; cursor: pointer;"></path></g></svg>