<svg width="800" height="400" style="background-color: white;"><g transform="translate(50,0)"><svg width="700" height="360"><g style="-webkit-tap-highlight-color: rgba(0, 0, 0, 0);"><rect width="700" height="360" style="fill: #ffffff;"></rect><g id="lines"><line class="line" stroke-width="1" stroke="#d7301f" x1="-620.1754385964912" y1="333" x2="-620.1754385964912" y2="360" visibility="hidden" style="stroke-dasharray: 3px, 3px;"></line></g><g><rect x="-625.1754385964912" y="355" width="10" height="10" visibility="hidden" style="fill: #ffffff; stroke: #d7301f;"></rect></g><g id="lines"><line class="line" stroke-width="1" stroke="#6a51a3" x1="-620.1754385964912" y1="333" x2="-620.1754385964912" y2="327.27272727272725" visibility="hidden" style="stroke-dasharray: 3px, 3px;"></line></g><g><rect x="-625.1754385964912" y="322.27272727272725" width="10" height="10" visibility="hidden" style="fill: #ffffff; stroke: #6a51a3;"></rect></g><g id="lines"><line class="line" stroke-width="1" stroke="#666666" x1="30.70175438596491" y1="333" x2="30.70175438596491" y2="324.38417716440665"></line><line class="line" stroke-width="1" stroke="#666666" x1="42.98245614035088" y1="333" x2="42.98245614035088" y2="324.38417716440665"></line><line class="line" stroke-width="1" stroke="#666666" x1="42.98245614035088" y1="333" x2="42.98245614035088" y2="321.495627056086"></line><line class="line" stroke-width="1" stroke="#666666" x1="49.122807017543856" y1="333" x2="49.122807017543856" y2="324.38417716440665"></line><line class="line" stroke-width="1" stroke="#666666" x1="49.122807017543856" y1="333" x2="49.122807017543856" y2="156.84827088181015"></line><line class="line" stroke-width="1" stroke="#666666" x1="55.26315789473684" y1="333" x2="55.26315789473684" y2="220.396373264864"></line><line class="line" stroke-width="1" stroke="#666666" x1="73.68421052631578" y1="333" x2="73.68421052631578" y2="309.94142662280353"></line><line class="line" stroke-width="1" stroke="#666666" x1="92.10526315789473" y1="333" x2="92.10526315789473" y2="298.38722618952096"></line><line class="line" stroke-width="1" stroke="#666666" x1="135.08771929824562" y1="333" x2="135.08771929824562" y2="78.85741795715313"></line><line class="line" stroke-width="1" stroke="#666666" x1="153.50877192982455" y1="333" x2="153.50877192982455" y2="309.94142662280353"></line><line class="line" stroke-width="1" stroke="#666666" x1="153.50877192982455" y1="333" x2="153.50877192982455" y2="29.752066115702462"></line><line class="line" stroke-width="1" stroke="#666666" x1="159.64912280701753" y1="333" x2="159.64912280701753" y2="318.6070769477654"></line><line class="line" stroke-width="1" stroke="#666666" x1="184.21052631578945" y1="333" x2="184.21052631578945" y2="321.495627056086"></line><line class="line" stroke-width="1" stroke="#666666" x1="190.35087719298247" y1="333" x2="190.35087719298247" y2="324.38417716440665"></line><line class="line" stroke-width="1" stroke="#666666" x1="190.35087719298247" y1="333" x2="190.35087719298247" y2="324.38417716440665"></line><line class="line" stroke-width="1" stroke="#666666" x1="190.35087719298247" y1="333" x2="190.35087719298247" y2="272.3902752146353"></line><line class="line" stroke-width="1" stroke="#666666" x1="190.35087719298247" y1="333" x2="190.35087719298247" y2="324.38417716440665"></line><line class="line" stroke-width="1" stroke="#666666" x1="202.63157894736844" y1="333" x2="202.63157894736844" y2="324.38417716440665"></line><line class="line" stroke-width="1" stroke="#666666" x1="214.91228070175438" y1="333" x2="214.91228070175438" y2="318.6070769477654"></line><line class="line" stroke-width="1" stroke="#666666" x1="214.91228070175438" y1="333" x2="214.91228070175438" y2="315.71852683944473"></line><line class="line" stroke-width="1" stroke="#666666" x1="264.03508771929825" y1="333" x2="264.03508771929825" y2="257.94752467303215"></line><line class="line" stroke-width="1" stroke="#666666" x1="343.859649122807" y1="333" x2="343.859649122807" y2="318.6070769477654"></line><line class="line" stroke-width="1" stroke="#666666" x1="374.56140350877195" y1="333" x2="374.56140350877195" y2="324.38417716440665"></line><line class="line" stroke-width="1" stroke="#666666" x1="380.70175438596493" y1="333" x2="380.70175438596493" y2="324.38417716440665"></line><line class="line" stroke-width="1" stroke="#666666" x1="411.40350877192986" y1="333" x2="411.40350877192986" y2="269.50172510631467"></line><line class="line" stroke-width="1" stroke="#666666" x1="448.2456140350877" y1="333" x2="448.2456140350877" y2="324.38417716440665"></line><line class="line" stroke-width="1" stroke="#666666" x1="454.3859649122807" y1="333" x2="454.3859649122807" y2="324.38417716440665"></line><line class="line" stroke-width="1" stroke="#666666" x1="528.0701754385965" y1="333" x2="528.0701754385965" y2="312.82997673112413"></line><line class="line" stroke-width="1" stroke="#666666" x1="528.0701754385965" y1="333" x2="528.0701754385965" y2="298.38722618952096"></line><line class="line" stroke-width="1" stroke="#666666" x1="564.9122807017543" y1="333" x2="564.9122807017543" y2="324.38417716440665"></line><line class="line" stroke-width="1" stroke="#666666" x1="620.1754385964912" y1="333" x2="620.1754385964912" y2="321.495627056086"></line><line class="line" stroke-width="1" stroke="#666666" x1="644.7368421052631" y1="333" x2="644.7368421052631" y2="324.38417716440665"></line><line class="line" stroke-width="1" stroke="#666666" x1="650.8771929824561" y1="333" x2="650.8771929824561" y2="324.38417716440665"></line><line class="line" stroke-width="1" stroke="#666666" x1="700" y1="333" x2="700" y2="318.6070769477654"></line><line class="line" stroke-width="1" stroke="#666666" x1="700" y1="333" x2="700" y2="301.2757762978416"></line></g><g id="circles"><circle r="4" cx="30.70175438596491" cy="324.38417716440665" style="fill: #5aae61; stroke: #666666; stroke-width: 1px;"></circle><circle r="4" cx="42.98245614035088" cy="324.38417716440665" style="fill: #5aae61; stroke: #666666; stroke-width: 1px;"></circle><circle r="4" cx="42.98245614035088" cy="321.495627056086" style="fill: #bf812d; stroke: #666666; stroke-width: 1px;"></circle><circle r="4" cx="49.122807017543856" cy="324.38417716440665" style="fill: #5aae61; stroke: #666666; stroke-width: 1px;"></circle><circle r="4" cx="49.122807017543856" cy="156.84827088181015" style="fill: #bf812d; stroke: #666666; stroke-width: 1px;"></circle><circle r="4" cx="55.26315789473684" cy="220.396373264864" style="fill: #4393c3; stroke: #666666; stroke-width: 1px;"></circle><circle r="4" cx="73.68421052631578" cy="309.94142662280353" style="fill: #4393c3; stroke: #666666; stroke-width: 1px;"></circle><circle r="4" cx="92.10526315789473" cy="298.38722618952096" style="fill: #4393c3; stroke: #666666; stroke-width: 1px;"></circle><circle r="4" cx="135.08771929824562" cy="78.85741795715313" style="fill: #bf812d; stroke: #666666; stroke-width: 1px;"></circle><circle r="4" cx="153.50877192982455" cy="309.94142662280353" style="fill: #5aae61; stroke: #666666; stroke-width: 1px;"></circle><circle r="4" cx="153.50877192982455" cy="29.752066115702462" style="fill: #bf812d; stroke: #666666; stroke-width: 1px;"></circle><circle r="4" cx="159.64912280701753" cy="318.6070769477654" style="fill: #4393c3; stroke: #666666; stroke-width: 1px;"></circle><circle r="4" cx="184.21052631578945" cy="321.495627056086" style="fill: #4393c3; stroke: #666666; stroke-width: 1px;"></circle><circle r="4" cx="190.35087719298247" cy="324.38417716440665" style="fill: #5aae61; stroke: #666666; stroke-width: 1px;"></circle><circle r="4" cx="190.35087719298247" cy="324.38417716440665" style="fill: #666666; stroke: #666666; stroke-width: 1px;"></circle><circle r="4" cx="190.35087719298247" cy="272.3902752146353" style="fill: #bf812d; stroke: #666666; stroke-width: 1px;"></circle><circle r="4" cx="190.35087719298247" cy="324.38417716440665" style="fill: #666666; stroke: #666666; stroke-width: 1px;"></circle><circle r="4" cx="202.63157894736844" cy="324.38417716440665" style="fill: #4393c3; stroke: #666666; stroke-width: 1px;"></circle><circle r="4" cx="214.91228070175438" cy="318.6070769477654" style="fill: #5aae61; stroke: #666666; stroke-width: 1px;"></circle><circle r="4" cx="214.91228070175438" cy="315.71852683944473" style="fill: #bf812d; stroke: #666666; stroke-width: 1px;"></circle><circle r="4" cx="264.03508771929825" cy="257.94752467303215" style="fill: #bf812d; stroke: #666666; stroke-width: 1px;"></circle><circle r="4" cx="343.859649122807" cy="318.6070769477654" style="fill: #bf812d; stroke: #666666; stroke-width: 1px;"></circle><circle r="4" cx="374.56140350877195" cy="324.38417716440665" style="fill: #4393c3; stroke: #666666; stroke-width: 1px;"></circle><circle r="4" cx="380.70175438596493" cy="324.38417716440665" style="fill: #4393c3; stroke: #666666; stroke-width: 1px;"></circle><circle r="4" cx="411.40350877192986" cy="269.50172510631467" style="fill: #bf812d; stroke: #666666; stroke-width: 1px;"></circle><circle r="4" cx="448.2456140350877" cy="324.38417716440665" style="fill: #4393c3; stroke: #666666; stroke-width: 1px;"></circle><circle r="4" cx="454.3859649122807" cy="324.38417716440665" style="fill: #4393c3; stroke: #666666; stroke-width: 1px;"></circle><circle r="4" cx="528.0701754385965" cy="312.82997673112413" style="fill: #5aae61; stroke: #666666; stroke-width: 1px;"></circle><circle r="4" cx="528.0701754385965" cy="298.38722618952096" style="fill: #bf812d; stroke: #666666; stroke-width: 1px;"></circle><circle r="4" cx="564.9122807017543" cy="324.38417716440665" style="fill: #4393c3; stroke: #666666; stroke-width: 1px;"></circle><circle r="4" cx="620.1754385964912" cy="321.495627056086" style="fill: #4393c3; stroke: #666666; stroke-width: 1px;"></circle><circle r="4" cx="644.7368421052631" cy="324.38417716440665" style="fill: #666666; stroke: #666666; stroke-width: 1px;"></circle><circle r="4" cx="650.8771929824561" cy="324.38417716440665" style="fill: #4393c3; stroke: #666666; stroke-width: 1px;"></circle><circle r="4" cx="700" cy="318.6070769477654" style="fill: #5aae61; stroke: #666666; stroke-width: 1px;"></circle><circle r="4" cx="700" cy="301.2757762978416" style="fill: #bf812d; stroke: #666666; stroke-width: 1px;"></circle></g><g><rect x="0" y="333" width="700" height="12" style="fill: #ffffff; stroke-width: 1px; stroke: #666666;"></rect><rect x="67.54385964912281" y="333" width="577.1929824561403" height="12" style="fill: #aec7e8; stroke-width: 1px; stroke: #666666;"></rect></g><g><a target="_blank" xlink:href="http://pfam.xfam.org/family/"><text y="343" x="350" text-anchor="middle" style="color: rgb(102, 102, 102); font-weight: normal; font-size: 12px; font-family: Arial; cursor: pointer;"></text></a><a target="_blank" xlink:href="http://pfam.xfam.org/family/Ribosomal_L7Ae"><text y="343" x="356.140350877193" text-anchor="middle" style="color: rgb(102, 102, 102); font-weight: normal; font-size: 12px; font-family: Arial; cursor: pointer;">Ribosomal_L7Ae</text></a></g><g><text y="358" x="0" text-anchor="middle" visibility="hidden" style="font-size: 13px;">M</text><text y="358" x="6.140350877192982" text-anchor="middle" visibility="hidden" style="font-size: 13px;">V</text><text y="358" x="12.280701754385964" text-anchor="middle" visibility="hidden" style="font-size: 13px;">A</text><text y="358" x="18.421052631578945" text-anchor="middle" visibility="hidden" style="font-size: 13px;">A</text><text y="358" x="24.561403508771928" text-anchor="middle" visibility="hidden" style="font-size: 13px;">K</text><text y="358" x="30.70175438596491" text-anchor="middle" visibility="hidden" style="font-size: 13px;">K</text><text y="358" x="36.84210526315789" text-anchor="middle" visibility="hidden" style="font-size: 13px;">T</text><text y="358" x="42.98245614035088" text-anchor="middle" visibility="hidden" style="font-size: 13px;">K</text><text y="358" x="49.122807017543856" text-anchor="middle" visibility="hidden" style="font-size: 13px;">K</text><text y="358" x="55.26315789473684" text-anchor="middle" visibility="hidden" style="font-size: 13px;">S</text><text y="358" x="61.40350877192982" text-anchor="middle" visibility="hidden" style="font-size: 13px;">L</text><text y="358" x="67.54385964912281" text-anchor="middle" visibility="hidden" style="font-size: 13px;">E</text><text y="358" x="73.68421052631578" text-anchor="middle" visibility="hidden" style="font-size: 13px;">S</text><text y="358" x="79.82456140350877" text-anchor="middle" visibility="hidden" style="font-size: 13px;">I</text><text y="358" x="85.96491228070175" text-anchor="middle" visibility="hidden" style="font-size: 13px;">N</text><text y="358" x="92.10526315789473" text-anchor="middle" visibility="hidden" style="font-size: 13px;">S</text><text y="358" x="98.24561403508771" text-anchor="middle" visibility="hidden" style="font-size: 13px;">R</text><text y="358" x="104.3859649122807" text-anchor="middle" visibility="hidden" style="font-size: 13px;">L</text><text y="358" x="110.52631578947368" text-anchor="middle" visibility="hidden" style="font-size: 13px;">Q</text><text y="358" x="116.66666666666666" text-anchor="middle" visibility="hidden" style="font-size: 13px;">L</text><text y="358" x="122.80701754385964" text-anchor="middle" visibility="hidden" style="font-size: 13px;">V</text><text y="358" x="128.94736842105263" text-anchor="middle" visibility="hidden" style="font-size: 13px;">M</text><text y="358" x="135.08771929824562" text-anchor="middle" visibility="hidden" style="font-size: 13px;">K</text><text y="358" x="141.22807017543857" text-anchor="middle" visibility="hidden" style="font-size: 13px;">S</text><text y="358" x="147.36842105263156" text-anchor="middle" visibility="hidden" style="font-size: 13px;">G</text><text y="358" x="153.50877192982455" text-anchor="middle" visibility="hidden" style="font-size: 13px;">K</text><text y="358" x="159.64912280701753" text-anchor="middle" visibility="hidden" style="font-size: 13px;">Y</text><text y="358" x="165.78947368421052" text-anchor="middle" visibility="hidden" style="font-size: 13px;">V</text><text y="358" x="171.9298245614035" text-anchor="middle" visibility="hidden" style="font-size: 13px;">L</text><text y="358" x="178.0701754385965" text-anchor="middle" visibility="hidden" style="font-size: 13px;">G</text><text y="358" x="184.21052631578945" text-anchor="middle" visibility="hidden" style="font-size: 13px;">Y</text><text y="358" x="190.35087719298247" text-anchor="middle" visibility="hidden" style="font-size: 13px;">K</text><text y="358" x="196.49122807017542" text-anchor="middle" visibility="hidden" style="font-size: 13px;">Q</text><text y="358" x="202.63157894736844" text-anchor="middle" visibility="hidden" style="font-size: 13px;">T</text><text y="358" x="208.7719298245614" text-anchor="middle" visibility="hidden" style="font-size: 13px;">L</text><text y="358" x="214.91228070175438" text-anchor="middle" visibility="hidden" style="font-size: 13px;">K</text><text y="358" x="221.05263157894737" text-anchor="middle" visibility="hidden" style="font-size: 13px;">M</text><text y="358" x="227.19298245614036" text-anchor="middle" visibility="hidden" style="font-size: 13px;">I</text><text y="358" x="233.33333333333331" text-anchor="middle" visibility="hidden" style="font-size: 13px;">R</text><text y="358" x="239.47368421052633" text-anchor="middle" visibility="hidden" style="font-size: 13px;">Q</text><text y="358" x="245.6140350877193" text-anchor="middle" visibility="hidden" style="font-size: 13px;">G</text><text y="358" x="251.75438596491227" text-anchor="middle" visibility="hidden" style="font-size: 13px;">K</text><text y="358" x="257.89473684210526" text-anchor="middle" visibility="hidden" style="font-size: 13px;">A</text><text y="358" x="264.03508771929825" text-anchor="middle" visibility="hidden" style="font-size: 13px;">K</text><text y="358" x="270.17543859649123" text-anchor="middle" visibility="hidden" style="font-size: 13px;">L</text><text y="358" x="276.3157894736842" text-anchor="middle" visibility="hidden" style="font-size: 13px;">V</text><text y="358" x="282.45614035087715" text-anchor="middle" visibility="hidden" style="font-size: 13px;">I</text><text y="358" x="288.5964912280702" text-anchor="middle" visibility="hidden" style="font-size: 13px;">L</text><text y="358" x="294.7368421052631" text-anchor="middle" visibility="hidden" style="font-size: 13px;">A</text><text y="358" x="300.87719298245617" text-anchor="middle" visibility="hidden" style="font-size: 13px;">N</text><text y="358" x="307.0175438596491" text-anchor="middle" visibility="hidden" style="font-size: 13px;">N</text><text y="358" x="313.1578947368421" text-anchor="middle" visibility="hidden" style="font-size: 13px;">C</text><text y="358" x="319.29824561403507" text-anchor="middle" visibility="hidden" style="font-size: 13px;">P</text><text y="358" x="325.43859649122805" text-anchor="middle" visibility="hidden" style="font-size: 13px;">A</text><text y="358" x="331.57894736842104" text-anchor="middle" visibility="hidden" style="font-size: 13px;">L</text><text y="358" x="337.719298245614" text-anchor="middle" visibility="hidden" style="font-size: 13px;">R</text><text y="358" x="343.859649122807" text-anchor="middle" visibility="hidden" style="font-size: 13px;">K</text><text y="358" x="350" text-anchor="middle" visibility="hidden" style="font-size: 13px;">S</text><text y="358" x="356.140350877193" text-anchor="middle" visibility="hidden" style="font-size: 13px;">E</text><text y="358" x="362.28070175438603" text-anchor="middle" visibility="hidden" style="font-size: 13px;">I</text><text y="358" x="368.4210526315789" text-anchor="middle" visibility="hidden" style="font-size: 13px;">E</text><text y="358" x="374.56140350877195" text-anchor="middle" visibility="hidden" style="font-size: 13px;">Y</text><text y="358" x="380.70175438596493" text-anchor="middle" visibility="hidden" style="font-size: 13px;">Y</text><text y="358" x="386.8421052631579" text-anchor="middle" visibility="hidden" style="font-size: 13px;">A</text><text y="358" x="392.98245614035085" text-anchor="middle" visibility="hidden" style="font-size: 13px;">M</text><text y="358" x="399.12280701754383" text-anchor="middle" visibility="hidden" style="font-size: 13px;">L</text><text y="358" x="405.2631578947369" text-anchor="middle" visibility="hidden" style="font-size: 13px;">A</text><text y="358" x="411.40350877192986" text-anchor="middle" visibility="hidden" style="font-size: 13px;">K</text><text y="358" x="417.5438596491228" text-anchor="middle" visibility="hidden" style="font-size: 13px;">T</text><text y="358" x="423.6842105263158" text-anchor="middle" visibility="hidden" style="font-size: 13px;">G</text><text y="358" x="429.82456140350877" text-anchor="middle" visibility="hidden" style="font-size: 13px;">V</text><text y="358" x="435.9649122807018" text-anchor="middle" visibility="hidden" style="font-size: 13px;">H</text><text y="358" x="442.10526315789474" text-anchor="middle" visibility="hidden" style="font-size: 13px;">H</text><text y="358" x="448.2456140350877" text-anchor="middle" visibility="hidden" style="font-size: 13px;">Y</text><text y="358" x="454.3859649122807" text-anchor="middle" visibility="hidden" style="font-size: 13px;">S</text><text y="358" x="460.5263157894737" text-anchor="middle" visibility="hidden" style="font-size: 13px;">G</text><text y="358" x="466.66666666666663" text-anchor="middle" visibility="hidden" style="font-size: 13px;">N</text><text y="358" x="472.8070175438596" text-anchor="middle" visibility="hidden" style="font-size: 13px;">N</text><text y="358" x="478.94736842105266" text-anchor="middle" visibility="hidden" style="font-size: 13px;">I</text><text y="358" x="485.08771929824564" text-anchor="middle" visibility="hidden" style="font-size: 13px;">E</text><text y="358" x="491.2280701754386" text-anchor="middle" visibility="hidden" style="font-size: 13px;">L</text><text y="358" x="497.36842105263156" text-anchor="middle" visibility="hidden" style="font-size: 13px;">G</text><text y="358" x="503.50877192982455" text-anchor="middle" visibility="hidden" style="font-size: 13px;">T</text><text y="358" x="509.6491228070176" text-anchor="middle" visibility="hidden" style="font-size: 13px;">A</text><text y="358" x="515.7894736842105" text-anchor="middle" visibility="hidden" style="font-size: 13px;">C</text><text y="358" x="521.9298245614035" text-anchor="middle" visibility="hidden" style="font-size: 13px;">G</text><text y="358" x="528.0701754385965" text-anchor="middle" visibility="hidden" style="font-size: 13px;">K</text><text y="358" x="534.2105263157895" text-anchor="middle" visibility="hidden" style="font-size: 13px;">Y</text><text y="358" x="540.3508771929825" text-anchor="middle" visibility="hidden" style="font-size: 13px;">Y</text><text y="358" x="546.4912280701755" text-anchor="middle" visibility="hidden" style="font-size: 13px;">R</text><text y="358" x="552.6315789473684" text-anchor="middle" visibility="hidden" style="font-size: 13px;">V</text><text y="358" x="558.7719298245614" text-anchor="middle" visibility="hidden" style="font-size: 13px;">C</text><text y="358" x="564.9122807017543" text-anchor="middle" visibility="hidden" style="font-size: 13px;">T</text><text y="358" x="571.0526315789474" text-anchor="middle" visibility="hidden" style="font-size: 13px;">L</text><text y="358" x="577.1929824561404" text-anchor="middle" visibility="hidden" style="font-size: 13px;">A</text><text y="358" x="583.3333333333334" text-anchor="middle" visibility="hidden" style="font-size: 13px;">I</text><text y="358" x="589.4736842105262" text-anchor="middle" visibility="hidden" style="font-size: 13px;">I</text><text y="358" x="595.6140350877192" text-anchor="middle" visibility="hidden" style="font-size: 13px;">D</text><text y="358" x="601.7543859649123" text-anchor="middle" visibility="hidden" style="font-size: 13px;">P</text><text y="358" x="607.8947368421053" text-anchor="middle" visibility="hidden" style="font-size: 13px;">G</text><text y="358" x="614.0350877192982" text-anchor="middle" visibility="hidden" style="font-size: 13px;">D</text><text y="358" x="620.1754385964912" text-anchor="middle" visibility="hidden" style="font-size: 13px;">S</text><text y="358" x="626.3157894736842" text-anchor="middle" visibility="hidden" style="font-size: 13px;">D</text><text y="358" x="632.4561403508773" text-anchor="middle" visibility="hidden" style="font-size: 13px;">I</text><text y="358" x="638.5964912280701" text-anchor="middle" visibility="hidden" style="font-size: 13px;">I</text><text y="358" x="644.7368421052631" text-anchor="middle" visibility="hidden" style="font-size: 13px;">R</text><text y="358" x="650.8771929824561" text-anchor="middle" visibility="hidden" style="font-size: 13px;">S</text><text y="358" x="657.0175438596491" text-anchor="middle" visibility="hidden" style="font-size: 13px;">M</text><text y="358" x="663.1578947368421" text-anchor="middle" visibility="hidden" style="font-size: 13px;">P</text><text y="358" x="669.2982456140351" text-anchor="middle" visibility="hidden" style="font-size: 13px;">E</text><text y="358" x="675.438596491228" text-anchor="middle" visibility="hidden" style="font-size: 13px;">Q</text><text y="358" x="681.578947368421" text-anchor="middle" visibility="hidden" style="font-size: 13px;">T</text><text y="358" x="687.719298245614" text-anchor="middle" visibility="hidden" style="font-size: 13px;">G</text><text y="358" x="693.859649122807" text-anchor="middle" visibility="hidden" style="font-size: 13px;">E</text><text y="358" x="700" text-anchor="middle" visibility="hidden" style="font-size: 13px;">K</text></g></g></svg><g class="xAxis" transform="translate(0,360)" fill="none" font-size="10" font-family="sans-serif" text-anchor="middle"><path class="domain" stroke="#000" d="M0.5,6V0.5H700.5V6"></path><g class="tick" opacity="1" transform="translate(55.76315789473684,0)"><line stroke="#000" y2="6"></line><text fill="#000" y="9" dy="0.71em">10</text></g><g class="tick" opacity="1" transform="translate(117.16666666666666,0)"><line stroke="#000" y2="6"></line><text fill="#000" y="9" dy="0.71em">20</text></g><g class="tick" opacity="1" transform="translate(178.5701754385965,0)"><line stroke="#000" y2="6"></line><text fill="#000" y="9" dy="0.71em">30</text></g><g class="tick" opacity="1" transform="translate(239.97368421052633,0)"><line stroke="#000" y2="6"></line><text fill="#000" y="9" dy="0.71em">40</text></g><g class="tick" opacity="1" transform="translate(301.37719298245617,0)"><line stroke="#000" y2="6"></line><text fill="#000" y="9" dy="0.71em">50</text></g><g class="tick" opacity="1" transform="translate(362.78070175438603,0)"><line stroke="#000" y2="6"></line><text fill="#000" y="9" dy="0.71em">60</text></g><g class="tick" opacity="1" transform="translate(424.1842105263158,0)"><line stroke="#000" y2="6"></line><text fill="#000" y="9" dy="0.71em">70</text></g><g class="tick" opacity="1" transform="translate(485.58771929824564,0)"><line stroke="#000" y2="6"></line><text fill="#000" y="9" dy="0.71em">80</text></g><g class="tick" opacity="1" transform="translate(546.9912280701755,0)"><line stroke="#000" y2="6"></line><text fill="#000" y="9" dy="0.71em">90</text></g><g class="tick" opacity="1" transform="translate(608.3947368421053,0)"><line stroke="#000" y2="6"></line><text fill="#000" y="9" dy="0.71em">100</text></g><g class="tick" opacity="1" transform="translate(669.7982456140351,0)"><line stroke="#000" y2="6"></line><text fill="#000" y="9" dy="0.71em">110</text></g></g><text class="x label" text-anchor="end" x="700" y="390" style="font-size: 13px; font-family: Arial;">Residue number</text><g class="yAxis" fill="none" font-size="10" font-family="sans-serif" text-anchor="end"><path class="domain" stroke="#000" d="M-6,360.5H0.5V0.5H-6"></path><g class="tick" opacity="1" transform="translate(0,356.65822835593355)"><line stroke="#000" x2="-6"></line><text fill="#000" x="-9" dy="0.32em"></text></g><g class="tick" opacity="1" transform="translate(0,327.77272727272725)"><line stroke="#000" x2="-6"></line><text fill="#000" x="-9" dy="0.32em">0</text></g><g class="tick" opacity="1" transform="translate(0,298.88722618952096)"><line stroke="#000" x2="-6"></line><text fill="#000" x="-9" dy="0.32em">10</text></g><g class="tick" opacity="1" transform="translate(0,270.00172510631467)"><line stroke="#000" x2="-6"></line><text fill="#000" x="-9" dy="0.32em">20</text></g><g class="tick" opacity="1" transform="translate(0,241.11622402310843)"><line stroke="#000" x2="-6"></line><text fill="#000" x="-9" dy="0.32em">30</text></g><g class="tick" opacity="1" transform="translate(0,212.2307229399021)"><line stroke="#000" x2="-6"></line><text fill="#000" x="-9" dy="0.32em">40</text></g><g class="tick" opacity="1" transform="translate(0,183.34522185669582)"><line stroke="#000" x2="-6"></line><text fill="#000" x="-9" dy="0.32em">50</text></g><g class="tick" opacity="1" transform="translate(0,154.45972077348952)"><line stroke="#000" x2="-6"></line><text fill="#000" x="-9" dy="0.32em">60</text></g><g class="tick" opacity="1" transform="translate(0,125.57421969028326)"><line stroke="#000" x2="-6"></line><text fill="#000" x="-9" dy="0.32em">70</text></g><g class="tick" opacity="1" transform="translate(0,96.68871860707691)"><line stroke="#000" x2="-6"></line><text fill="#000" x="-9" dy="0.32em">80</text></g><g class="tick" opacity="1" transform="translate(0,67.80321752387067)"><line stroke="#000" x2="-6"></line><text fill="#000" x="-9" dy="0.32em">90</text></g><g class="tick" opacity="1" transform="translate(0,38.91771644066438)"><line stroke="#000" x2="-6"></line><text fill="#000" x="-9" dy="0.32em">100</text></g><g class="tick" opacity="1" transform="translate(0,10.032215357458085)"><line stroke="#000" x2="-6"></line><text fill="#000" x="-9" dy="0.32em">110</text></g></g><text class="y label" text-anchor="middle" y="-50" x="-180" dy="0.8em" transform="rotate(-90)" style="font-size: 13px; font-family: Arial;">Total number of references</text><g class="axisRed" fill="none" font-size="10" font-family="sans-serif" text-anchor="start" visibility="hidden" transform="translate(700, 0)"><path class="domain" stroke="#000" d="M6,360.5H0.5V0.5H6"></path><g class="tick" opacity="1" transform="translate(0,360.5)"><line stroke="#000" x2="6"></line><text fill="#000" x="9" dy="0.32em">0</text></g><text text-anchor="start" dx="5.2em" dy="-2.6em" transform="rotate(90)" visibility="hidden" style="font-size: 12px; font-family: Arial; fill: #d7301f;">No recurrent (&gt;2) missense mutations!</text></g><g class="axisPurple" fill="none" font-size="10" font-family="sans-serif" text-anchor="start" visibility="hidden"><path class="domain" stroke="#000" d="M6,360.5H0.5V0.5H6"></path><g class="tick" opacity="1" transform="translate(0,357.52479338842977)"><line stroke="#000" x2="6"></line><text fill="#000" x="9" dy="0.32em"></text></g><g class="tick" opacity="1" transform="translate(0,327.77272727272725)"><line stroke="#000" x2="6"></line><text fill="#000" x="9" dy="0.32em">0</text></g><g class="tick" opacity="1" transform="translate(0,298.0206611570248)"><line stroke="#000" x2="6"></line><text fill="#000" x="9" dy="0.32em">0.1</text></g><g class="tick" opacity="1" transform="translate(0,268.2685950413223)"><line stroke="#000" x2="6"></line><text fill="#000" x="9" dy="0.32em">0.2</text></g><g class="tick" opacity="1" transform="translate(0,238.51652892561984)"><line stroke="#000" x2="6"></line><text fill="#000" x="9" dy="0.32em">0.3</text></g><g class="tick" opacity="1" transform="translate(0,208.76446280991738)"><line stroke="#000" x2="6"></line><text fill="#000" x="9" dy="0.32em">0.4</text></g><g class="tick" opacity="1" transform="translate(0,179.0123966942149)"><line stroke="#000" x2="6"></line><text fill="#000" x="9" dy="0.32em">0.5</text></g><g class="tick" opacity="1" transform="translate(0,149.26033057851242)"><line stroke="#000" x2="6"></line><text fill="#000" x="9" dy="0.32em">0.6</text></g><g class="tick" opacity="1" transform="translate(0,119.50826446280996)"><line stroke="#000" x2="6"></line><text fill="#000" x="9" dy="0.32em">0.7</text></g><g class="tick" opacity="1" transform="translate(0,89.75619834710744)"><line stroke="#000" x2="6"></line><text fill="#000" x="9" dy="0.32em">0.8</text></g><g class="tick" opacity="1" transform="translate(0,60.00413223140498)"><line stroke="#000" x2="6"></line><text fill="#000" x="9" dy="0.32em">0.9</text></g><g class="tick" opacity="1" transform="translate(0,30.25206611570252)"><line stroke="#000" x2="6"></line><text fill="#000" x="9" dy="0.32em">1</text></g><g class="tick" opacity="1" transform="translate(0,0.5)"><line stroke="#000" x2="6"></line><text fill="#000" x="9" dy="0.32em">1.1</text></g><text text-anchor="start" x="10" y="10" visibility="hidden" style="font-size: 12px; font-family: Arial; fill: #807dba;">No disease causing germline SNPs known!</text></g><circle cx="636" cy="15" r="10" class="compassNav" style="fill: #ffffff; stroke: #666666; stroke-width: 1px;"></circle><path d="M440.935 12.574l3.966 82.766C399.416 41.904 331.674 8 256 8 134.813 8 33.933 94.924 12.296 209.824 10.908 217.193 16.604 224 24.103 224h49.084c5.57 0 10.377-3.842 11.676-9.259C103.407 137.408 172.931 80 256 80c60.893 0 114.512 30.856 146.104 77.801l-101.53-4.865c-6.845-.328-12.574 5.133-12.574 11.986v47.411c0 6.627 5.373 12 12 12h200.333c6.627 0 12-5.373 12-12V12c0-6.627-5.373-12-12-12h-47.411c-6.853 0-12.315 5.729-11.987 12.574zM256 432c-60.895 0-114.517-30.858-146.109-77.805l101.868 4.871c6.845.327 12.573-5.134 12.573-11.986v-47.412c0-6.627-5.373-12-12-12H12c-6.627 0-12 5.373-12 12V500c0 6.627 5.373 12 12 12h47.385c6.863 0 12.328-5.745 11.985-12.599l-4.129-82.575C112.725 470.166 180.405 504 256 504c121.187 0 222.067-86.924 243.704-201.824 1.388-7.369-4.308-14.176-11.807-14.176h-49.084c-5.57 0-10.377 3.842-11.676 9.259C408.593 374.592 339.069 432 256 432z" class="compassNav" transform="translate(631, 10) scale(0.02)" style="fill: #666666; stroke: #666666; stroke-width: 1px;"></path><circle cx="658" cy="15" r="10" class="compassNav" style="fill: #ffffff; stroke: #666666; stroke-width: 1px;"></circle><line class="compassNav" stroke-width="2" stroke="#666666" x1="654" y1="15" x2="662" y2="15"></line><line class="compassNav" stroke-width="2" stroke="#666666" x1="658" y1="11" x2="658" y2="19"></line><circle cx="614" cy="15" r="10" class="compassNav" style="fill: #ffffff; stroke: #666666; stroke-width: 1px;"></circle><line class="compassNav" stroke-width="2" stroke="#666666" x1="610" y1="15" x2="618" y2="15"></line><path d="M582 14 l20 -12 a100,40 0 0,0 0,24z" class="compassNav" style="fill: #ffffff; stroke: #666666; stroke-width: 1px;"></path><path d="M690 14 l-20 -12 a100,40 0 0,1 0,24z" class="compassNav" style="fill: #ffffff; stroke: #666666; stroke-width: 1px;"></path><path d="M216 0h80c13.3 0 24 10.7 24 24v168h87.7c17.8 0 26.7 21.5 14.1 34.1L269.7 378.3c-7.5 7.5-19.8 7.5-27.3 0L90.1 226.1c-12.6-12.6-3.7-34.1 14.1-34.1H192V24c0-13.3 10.7-24 24-24zm296 376v112c0 13.3-10.7 24-24 24H24c-13.3 0-24-10.7-24-24V376c0-13.3 10.7-24 24-24h146.7l49 49c20.1 20.1 52.5 20.1 72.6 0l49-49H488c13.3 0 24 10.7 24 24zm-124 88c0-11-9-20-20-20s-20 9-20 20 9 20 20 20 20-9 20-20zm64 0c0-11-9-20-20-20s-20 9-20 20 9 20 20 20 20-9 20-20z" class="compassNav" transform="translate(552,0) scale(0.05)" style="fill: #336699; stroke: #336699; stroke-width: 1px; cursor: pointer;"></path></g></svg>