<svg width="800" height="400" style="background-color: white;"><g transform="translate(50,0)"><svg width="700" height="360"><g style="-webkit-tap-highlight-color: rgba(0, 0, 0, 0);"><rect width="700" height="360" style="fill: #ffffff;"></rect><g id="lines"><line class="line" stroke-width="1" stroke="#d7301f" x1="-327.31481481481484" y1="333" x2="-327.31481481481484" y2="360" visibility="hidden" style="stroke-dasharray: 3px, 3px;"></line></g><g><rect x="-332.31481481481484" y="355" width="10" height="10" visibility="hidden" style="fill: #ffffff; stroke: #d7301f;"></rect></g><g id="lines"><line class="line" stroke-width="1" stroke="#6a51a3" x1="-327.31481481481484" y1="333" x2="-327.31481481481484" y2="327.27272727272725" visibility="hidden" style="stroke-dasharray: 3px, 3px;"></line></g><g><rect x="-332.31481481481484" y="322.27272727272725" width="10" height="10" visibility="hidden" style="fill: #ffffff; stroke: #6a51a3;"></rect></g><g id="lines"><line class="line" stroke-width="1" stroke="#666666" x1="16.203703703703702" y1="333" x2="16.203703703703702" y2="324.45262621910615"></line><line class="line" stroke-width="1" stroke="#666666" x1="19.444444444444443" y1="333" x2="19.444444444444443" y2="323.04257569229566"></line><line class="line" stroke-width="1" stroke="#666666" x1="29.166666666666664" y1="333" x2="29.166666666666664" y2="321.6325251654851"></line><line class="line" stroke-width="1" stroke="#666666" x1="55.092592592592595" y1="333" x2="55.092592592592595" y2="320.22247463867456"></line><line class="line" stroke-width="1" stroke="#666666" x1="61.574074074074076" y1="333" x2="61.574074074074076" y2="324.45262621910615"></line><line class="line" stroke-width="1" stroke="#666666" x1="116.66666666666666" y1="333" x2="116.66666666666666" y2="325.8626767459167"></line><line class="line" stroke-width="1" stroke="#666666" x1="119.90740740740742" y1="333" x2="119.90740740740742" y2="325.8626767459167"></line><line class="line" stroke-width="1" stroke="#666666" x1="119.90740740740742" y1="333" x2="119.90740740740742" y2="324.45262621910615"></line><line class="line" stroke-width="1" stroke="#666666" x1="139.35185185185185" y1="333" x2="139.35185185185185" y2="321.6325251654851"></line><line class="line" stroke-width="1" stroke="#666666" x1="158.7962962962963" y1="333" x2="158.7962962962963" y2="324.45262621910615"></line><line class="line" stroke-width="1" stroke="#666666" x1="165.27777777777777" y1="333" x2="165.27777777777777" y2="324.45262621910615"></line><line class="line" stroke-width="1" stroke="#666666" x1="178.24074074074076" y1="333" x2="178.24074074074076" y2="325.8626767459167"></line><line class="line" stroke-width="1" stroke="#666666" x1="204.16666666666669" y1="333" x2="204.16666666666669" y2="325.8626767459167"></line><line class="line" stroke-width="1" stroke="#666666" x1="220.37037037037038" y1="333" x2="220.37037037037038" y2="321.6325251654851"></line><line class="line" stroke-width="1" stroke="#666666" x1="243.05555555555554" y1="333" x2="243.05555555555554" y2="321.6325251654851"></line><line class="line" stroke-width="1" stroke="#666666" x1="249.537037037037" y1="333" x2="249.537037037037" y2="325.8626767459167"></line><line class="line" stroke-width="1" stroke="#666666" x1="281.94444444444446" y1="333" x2="281.94444444444446" y2="325.8626767459167"></line><line class="line" stroke-width="1" stroke="#666666" x1="288.4259259259259" y1="333" x2="288.4259259259259" y2="324.45262621910615"></line><line class="line" stroke-width="1" stroke="#666666" x1="350" y1="333" x2="350" y2="242.6696956640946"></line><line class="line" stroke-width="1" stroke="#666666" x1="350" y1="333" x2="350" y2="324.45262621910615"></line><line class="line" stroke-width="1" stroke="#666666" x1="375.925925925926" y1="333" x2="375.925925925926" y2="325.8626767459167"></line><line class="line" stroke-width="1" stroke="#666666" x1="512.0370370370371" y1="333" x2="512.0370370370371" y2="324.45262621910615"></line><line class="line" stroke-width="1" stroke="#666666" x1="515.2777777777778" y1="333" x2="515.2777777777778" y2="270.8707062003055"></line><line class="line" stroke-width="1" stroke="#666666" x1="674.074074074074" y1="333" x2="674.074074074074" y2="29.752066115702462"></line><line class="line" stroke-width="1" stroke="#666666" x1="680.5555555555555" y1="333" x2="680.5555555555555" y2="318.812424111864"></line><line class="line" stroke-width="1" stroke="#666666" x1="693.5185185185185" y1="333" x2="693.5185185185185" y2="325.8626767459167"></line></g><g id="circles"><circle r="4" cx="16.203703703703702" cy="324.45262621910615" style="fill: #5aae61; stroke: #666666; stroke-width: 1px;"></circle><circle r="4" cx="19.444444444444443" cy="323.04257569229566" style="fill: #4393c3; stroke: #666666; stroke-width: 1px;"></circle><circle r="4" cx="29.166666666666664" cy="321.6325251654851" style="fill: #bf812d; stroke: #666666; stroke-width: 1px;"></circle><circle r="4" cx="55.092592592592595" cy="320.22247463867456" style="fill: #4393c3; stroke: #666666; stroke-width: 1px;"></circle><circle r="4" cx="61.574074074074076" cy="324.45262621910615" style="fill: #bf812d; stroke: #666666; stroke-width: 1px;"></circle><circle r="4" cx="116.66666666666666" cy="325.8626767459167" style="fill: #4393c3; stroke: #666666; stroke-width: 1px;"></circle><circle r="4" cx="119.90740740740742" cy="325.8626767459167" style="fill: #bf812d; stroke: #666666; stroke-width: 1px;"></circle><circle r="4" cx="119.90740740740742" cy="324.45262621910615" style="fill: #5aae61; stroke: #666666; stroke-width: 1px;"></circle><circle r="4" cx="139.35185185185185" cy="321.6325251654851" style="fill: #bf812d; stroke: #666666; stroke-width: 1px;"></circle><circle r="4" cx="158.7962962962963" cy="324.45262621910615" style="fill: #5aae61; stroke: #666666; stroke-width: 1px;"></circle><circle r="4" cx="165.27777777777777" cy="324.45262621910615" style="fill: #4393c3; stroke: #666666; stroke-width: 1px;"></circle><circle r="4" cx="178.24074074074076" cy="325.8626767459167" style="fill: #bf812d; stroke: #666666; stroke-width: 1px;"></circle><circle r="4" cx="204.16666666666669" cy="325.8626767459167" style="fill: #5aae61; stroke: #666666; stroke-width: 1px;"></circle><circle r="4" cx="220.37037037037038" cy="321.6325251654851" style="fill: #bf812d; stroke: #666666; stroke-width: 1px;"></circle><circle r="4" cx="243.05555555555554" cy="321.6325251654851" style="fill: #bf812d; stroke: #666666; stroke-width: 1px;"></circle><circle r="4" cx="249.537037037037" cy="325.8626767459167" style="fill: #666666; stroke: #666666; stroke-width: 1px;"></circle><circle r="4" cx="281.94444444444446" cy="325.8626767459167" style="fill: #4393c3; stroke: #666666; stroke-width: 1px;"></circle><circle r="4" cx="288.4259259259259" cy="324.45262621910615" style="fill: #4393c3; stroke: #666666; stroke-width: 1px;"></circle><circle r="4" cx="350" cy="242.6696956640946" style="fill: #bf812d; stroke: #666666; stroke-width: 1px;"></circle><circle r="4" cx="350" cy="324.45262621910615" style="fill: #5aae61; stroke: #666666; stroke-width: 1px;"></circle><circle r="4" cx="375.925925925926" cy="325.8626767459167" style="fill: #5aae61; stroke: #666666; stroke-width: 1px;"></circle><circle r="4" cx="512.0370370370371" cy="324.45262621910615" style="fill: #4393c3; stroke: #666666; stroke-width: 1px;"></circle><circle r="4" cx="515.2777777777778" cy="270.8707062003055" style="fill: #4393c3; stroke: #666666; stroke-width: 1px;"></circle><circle r="4" cx="674.074074074074" cy="29.752066115702462" style="fill: #4393c3; stroke: #666666; stroke-width: 1px;"></circle><circle r="4" cx="680.5555555555555" cy="318.812424111864" style="fill: #4393c3; stroke: #666666; stroke-width: 1px;"></circle><circle r="4" cx="693.5185185185185" cy="325.8626767459167" style="fill: #666666; stroke: #666666; stroke-width: 1px;"></circle></g><g><rect x="0" y="333" width="700" height="12" style="fill: #ffffff; stroke-width: 1px; stroke: #666666;"></rect><rect x="9.722222222222221" y="333" width="149.07407407407408" height="12" style="fill: #aec7e8; stroke-width: 1px; stroke: #666666;"></rect><rect x="191.2037037037037" y="333" width="243.05555555555554" height="12" style="fill: #ffbb78; stroke-width: 1px; stroke: #666666;"></rect><rect x="521.7592592592592" y="333" width="145.83333333333337" height="12" style="fill: #aec7e8; stroke-width: 1px; stroke: #666666;"></rect></g><g><a target="_blank" xlink:href="http://pfam.xfam.org/family/"><text y="343" x="350" text-anchor="middle" style="color: rgb(102, 102, 102); font-weight: normal; font-size: 12px; font-family: Arial; cursor: pointer;"></text></a><a target="_blank" xlink:href="http://pfam.xfam.org/family/SH3_1"><text y="343" x="84.25925925925927" text-anchor="middle" style="color: rgb(102, 102, 102); font-weight: normal; font-size: 12px; font-family: Arial; cursor: pointer;">SH3_1</text></a><a target="_blank" xlink:href="http://pfam.xfam.org/family/SH2"><text y="343" x="312.73148148148147" text-anchor="middle" style="color: rgb(102, 102, 102); font-weight: normal; font-size: 12px; font-family: Arial; cursor: pointer;">SH2</text></a><a target="_blank" xlink:href="http://pfam.xfam.org/family/SH3_1"><text y="343" x="594.6759259259259" text-anchor="middle" style="color: rgb(102, 102, 102); font-weight: normal; font-size: 12px; font-family: Arial; cursor: pointer;">SH3_1</text></a></g><g><text y="358" x="0" text-anchor="middle" visibility="hidden" style="font-size: 13px;">M</text><text y="358" x="3.2407407407407405" text-anchor="middle" visibility="hidden" style="font-size: 13px;">E</text><text y="358" x="6.481481481481481" text-anchor="middle" visibility="hidden" style="font-size: 13px;">A</text><text y="358" x="9.722222222222221" text-anchor="middle" visibility="hidden" style="font-size: 13px;">I</text><text y="358" x="12.962962962962962" text-anchor="middle" visibility="hidden" style="font-size: 13px;">A</text><text y="358" x="16.203703703703702" text-anchor="middle" visibility="hidden" style="font-size: 13px;">K</text><text y="358" x="19.444444444444443" text-anchor="middle" visibility="hidden" style="font-size: 13px;">Y</text><text y="358" x="22.685185185185183" text-anchor="middle" visibility="hidden" style="font-size: 13px;">D</text><text y="358" x="25.925925925925924" text-anchor="middle" visibility="hidden" style="font-size: 13px;">F</text><text y="358" x="29.166666666666664" text-anchor="middle" visibility="hidden" style="font-size: 13px;">K</text><text y="358" x="32.407407407407405" text-anchor="middle" visibility="hidden" style="font-size: 13px;">A</text><text y="358" x="35.648148148148145" text-anchor="middle" visibility="hidden" style="font-size: 13px;">T</text><text y="358" x="38.888888888888886" text-anchor="middle" visibility="hidden" style="font-size: 13px;">A</text><text y="358" x="42.129629629629626" text-anchor="middle" visibility="hidden" style="font-size: 13px;">D</text><text y="358" x="45.37037037037037" text-anchor="middle" visibility="hidden" style="font-size: 13px;">D</text><text y="358" x="48.611111111111114" text-anchor="middle" visibility="hidden" style="font-size: 13px;">E</text><text y="358" x="51.85185185185185" text-anchor="middle" visibility="hidden" style="font-size: 13px;">L</text><text y="358" x="55.092592592592595" text-anchor="middle" visibility="hidden" style="font-size: 13px;">S</text><text y="358" x="58.33333333333333" text-anchor="middle" visibility="hidden" style="font-size: 13px;">F</text><text y="358" x="61.574074074074076" text-anchor="middle" visibility="hidden" style="font-size: 13px;">K</text><text y="358" x="64.81481481481481" text-anchor="middle" visibility="hidden" style="font-size: 13px;">R</text><text y="358" x="68.05555555555556" text-anchor="middle" visibility="hidden" style="font-size: 13px;">G</text><text y="358" x="71.29629629629629" text-anchor="middle" visibility="hidden" style="font-size: 13px;">D</text><text y="358" x="74.53703703703704" text-anchor="middle" visibility="hidden" style="font-size: 13px;">I</text><text y="358" x="77.77777777777777" text-anchor="middle" visibility="hidden" style="font-size: 13px;">L</text><text y="358" x="81.01851851851852" text-anchor="middle" visibility="hidden" style="font-size: 13px;">K</text><text y="358" x="84.25925925925925" text-anchor="middle" visibility="hidden" style="font-size: 13px;">V</text><text y="358" x="87.5" text-anchor="middle" visibility="hidden" style="font-size: 13px;">L</text><text y="358" x="90.74074074074073" text-anchor="middle" visibility="hidden" style="font-size: 13px;">N</text><text y="358" x="93.9814814814815" text-anchor="middle" visibility="hidden" style="font-size: 13px;">E</text><text y="358" x="97.22222222222223" text-anchor="middle" visibility="hidden" style="font-size: 13px;">E</text><text y="358" x="100.46296296296296" text-anchor="middle" visibility="hidden" style="font-size: 13px;">C</text><text y="358" x="103.7037037037037" text-anchor="middle" visibility="hidden" style="font-size: 13px;">D</text><text y="358" x="106.94444444444446" text-anchor="middle" visibility="hidden" style="font-size: 13px;">Q</text><text y="358" x="110.18518518518519" text-anchor="middle" visibility="hidden" style="font-size: 13px;">N</text><text y="358" x="113.42592592592592" text-anchor="middle" visibility="hidden" style="font-size: 13px;">W</text><text y="358" x="116.66666666666666" text-anchor="middle" visibility="hidden" style="font-size: 13px;">Y</text><text y="358" x="119.90740740740742" text-anchor="middle" visibility="hidden" style="font-size: 13px;">K</text><text y="358" x="123.14814814814815" text-anchor="middle" visibility="hidden" style="font-size: 13px;">A</text><text y="358" x="126.38888888888889" text-anchor="middle" visibility="hidden" style="font-size: 13px;">E</text><text y="358" x="129.62962962962962" text-anchor="middle" visibility="hidden" style="font-size: 13px;">L</text><text y="358" x="132.87037037037038" text-anchor="middle" visibility="hidden" style="font-size: 13px;">N</text><text y="358" x="136.11111111111111" text-anchor="middle" visibility="hidden" style="font-size: 13px;">G</text><text y="358" x="139.35185185185185" text-anchor="middle" visibility="hidden" style="font-size: 13px;">K</text><text y="358" x="142.59259259259258" text-anchor="middle" visibility="hidden" style="font-size: 13px;">D</text><text y="358" x="145.83333333333334" text-anchor="middle" visibility="hidden" style="font-size: 13px;">G</text><text y="358" x="149.07407407407408" text-anchor="middle" visibility="hidden" style="font-size: 13px;">F</text><text y="358" x="152.3148148148148" text-anchor="middle" visibility="hidden" style="font-size: 13px;">I</text><text y="358" x="155.55555555555554" text-anchor="middle" visibility="hidden" style="font-size: 13px;">P</text><text y="358" x="158.7962962962963" text-anchor="middle" visibility="hidden" style="font-size: 13px;">K</text><text y="358" x="162.03703703703704" text-anchor="middle" visibility="hidden" style="font-size: 13px;">N</text><text y="358" x="165.27777777777777" text-anchor="middle" visibility="hidden" style="font-size: 13px;">Y</text><text y="358" x="168.5185185185185" text-anchor="middle" visibility="hidden" style="font-size: 13px;">I</text><text y="358" x="171.75925925925927" text-anchor="middle" visibility="hidden" style="font-size: 13px;">E</text><text y="358" x="175" text-anchor="middle" visibility="hidden" style="font-size: 13px;">M</text><text y="358" x="178.24074074074076" text-anchor="middle" visibility="hidden" style="font-size: 13px;">K</text><text y="358" x="181.48148148148147" text-anchor="middle" visibility="hidden" style="font-size: 13px;">P</text><text y="358" x="184.72222222222223" text-anchor="middle" visibility="hidden" style="font-size: 13px;">H</text><text y="358" x="187.962962962963" text-anchor="middle" visibility="hidden" style="font-size: 13px;">P</text><text y="358" x="191.2037037037037" text-anchor="middle" visibility="hidden" style="font-size: 13px;">W</text><text y="358" x="194.44444444444446" text-anchor="middle" visibility="hidden" style="font-size: 13px;">F</text><text y="358" x="197.68518518518516" text-anchor="middle" visibility="hidden" style="font-size: 13px;">F</text><text y="358" x="200.92592592592592" text-anchor="middle" visibility="hidden" style="font-size: 13px;">G</text><text y="358" x="204.16666666666669" text-anchor="middle" visibility="hidden" style="font-size: 13px;">K</text><text y="358" x="207.4074074074074" text-anchor="middle" visibility="hidden" style="font-size: 13px;">I</text><text y="358" x="210.64814814814815" text-anchor="middle" visibility="hidden" style="font-size: 13px;">P</text><text y="358" x="213.8888888888889" text-anchor="middle" visibility="hidden" style="font-size: 13px;">R</text><text y="358" x="217.12962962962962" text-anchor="middle" visibility="hidden" style="font-size: 13px;">A</text><text y="358" x="220.37037037037038" text-anchor="middle" visibility="hidden" style="font-size: 13px;">K</text><text y="358" x="223.6111111111111" text-anchor="middle" visibility="hidden" style="font-size: 13px;">A</text><text y="358" x="226.85185185185185" text-anchor="middle" visibility="hidden" style="font-size: 13px;">E</text><text y="358" x="230.0925925925926" text-anchor="middle" visibility="hidden" style="font-size: 13px;">E</text><text y="358" x="233.33333333333331" text-anchor="middle" visibility="hidden" style="font-size: 13px;">M</text><text y="358" x="236.57407407407408" text-anchor="middle" visibility="hidden" style="font-size: 13px;">L</text><text y="358" x="239.81481481481484" text-anchor="middle" visibility="hidden" style="font-size: 13px;">S</text><text y="358" x="243.05555555555554" text-anchor="middle" visibility="hidden" style="font-size: 13px;">K</text><text y="358" x="246.2962962962963" text-anchor="middle" visibility="hidden" style="font-size: 13px;">Q</text><text y="358" x="249.537037037037" text-anchor="middle" visibility="hidden" style="font-size: 13px;">R</text><text y="358" x="252.77777777777777" text-anchor="middle" visibility="hidden" style="font-size: 13px;">H</text><text y="358" x="256.01851851851853" text-anchor="middle" visibility="hidden" style="font-size: 13px;">D</text><text y="358" x="259.25925925925924" text-anchor="middle" visibility="hidden" style="font-size: 13px;">G</text><text y="358" x="262.5" text-anchor="middle" visibility="hidden" style="font-size: 13px;">A</text><text y="358" x="265.74074074074076" text-anchor="middle" visibility="hidden" style="font-size: 13px;">F</text><text y="358" x="268.98148148148147" text-anchor="middle" visibility="hidden" style="font-size: 13px;">L</text><text y="358" x="272.22222222222223" text-anchor="middle" visibility="hidden" style="font-size: 13px;">I</text><text y="358" x="275.462962962963" text-anchor="middle" visibility="hidden" style="font-size: 13px;">R</text><text y="358" x="278.7037037037037" text-anchor="middle" visibility="hidden" style="font-size: 13px;">E</text><text y="358" x="281.94444444444446" text-anchor="middle" visibility="hidden" style="font-size: 13px;">S</text><text y="358" x="285.18518518518516" text-anchor="middle" visibility="hidden" style="font-size: 13px;">E</text><text y="358" x="288.4259259259259" text-anchor="middle" visibility="hidden" style="font-size: 13px;">S</text><text y="358" x="291.6666666666667" text-anchor="middle" visibility="hidden" style="font-size: 13px;">A</text><text y="358" x="294.9074074074074" text-anchor="middle" visibility="hidden" style="font-size: 13px;">P</text><text y="358" x="298.14814814814815" text-anchor="middle" visibility="hidden" style="font-size: 13px;">G</text><text y="358" x="301.3888888888889" text-anchor="middle" visibility="hidden" style="font-size: 13px;">D</text><text y="358" x="304.6296296296296" text-anchor="middle" visibility="hidden" style="font-size: 13px;">F</text><text y="358" x="307.8703703703704" text-anchor="middle" visibility="hidden" style="font-size: 13px;">S</text><text y="358" x="311.1111111111111" text-anchor="middle" visibility="hidden" style="font-size: 13px;">L</text><text y="358" x="314.35185185185185" text-anchor="middle" visibility="hidden" style="font-size: 13px;">S</text><text y="358" x="317.5925925925926" text-anchor="middle" visibility="hidden" style="font-size: 13px;">V</text><text y="358" x="320.8333333333333" text-anchor="middle" visibility="hidden" style="font-size: 13px;">K</text><text y="358" x="324.0740740740741" text-anchor="middle" visibility="hidden" style="font-size: 13px;">F</text><text y="358" x="327.31481481481484" text-anchor="middle" visibility="hidden" style="font-size: 13px;">G</text><text y="358" x="330.55555555555554" text-anchor="middle" visibility="hidden" style="font-size: 13px;">N</text><text y="358" x="333.7962962962963" text-anchor="middle" visibility="hidden" style="font-size: 13px;">D</text><text y="358" x="337.037037037037" text-anchor="middle" visibility="hidden" style="font-size: 13px;">V</text><text y="358" x="340.27777777777777" text-anchor="middle" visibility="hidden" style="font-size: 13px;">Q</text><text y="358" x="343.51851851851853" text-anchor="middle" visibility="hidden" style="font-size: 13px;">H</text><text y="358" x="346.75925925925924" text-anchor="middle" visibility="hidden" style="font-size: 13px;">F</text><text y="358" x="350" text-anchor="middle" visibility="hidden" style="font-size: 13px;">K</text><text y="358" x="353.24074074074076" text-anchor="middle" visibility="hidden" style="font-size: 13px;">V</text><text y="358" x="356.4814814814815" text-anchor="middle" visibility="hidden" style="font-size: 13px;">L</text><text y="358" x="359.7222222222222" text-anchor="middle" visibility="hidden" style="font-size: 13px;">R</text><text y="358" x="362.96296296296293" text-anchor="middle" visibility="hidden" style="font-size: 13px;">D</text><text y="358" x="366.2037037037037" text-anchor="middle" visibility="hidden" style="font-size: 13px;">G</text><text y="358" x="369.44444444444446" text-anchor="middle" visibility="hidden" style="font-size: 13px;">A</text><text y="358" x="372.6851851851852" text-anchor="middle" visibility="hidden" style="font-size: 13px;">G</text><text y="358" x="375.925925925926" text-anchor="middle" visibility="hidden" style="font-size: 13px;">K</text><text y="358" x="379.16666666666663" text-anchor="middle" visibility="hidden" style="font-size: 13px;">Y</text><text y="358" x="382.4074074074074" text-anchor="middle" visibility="hidden" style="font-size: 13px;">F</text><text y="358" x="385.64814814814815" text-anchor="middle" visibility="hidden" style="font-size: 13px;">L</text><text y="358" x="388.8888888888889" text-anchor="middle" visibility="hidden" style="font-size: 13px;">W</text><text y="358" x="392.1296296296297" text-anchor="middle" visibility="hidden" style="font-size: 13px;">V</text><text y="358" x="395.3703703703703" text-anchor="middle" visibility="hidden" style="font-size: 13px;">V</text><text y="358" x="398.6111111111111" text-anchor="middle" visibility="hidden" style="font-size: 13px;">K</text><text y="358" x="401.85185185185185" text-anchor="middle" visibility="hidden" style="font-size: 13px;">F</text><text y="358" x="405.0925925925926" text-anchor="middle" visibility="hidden" style="font-size: 13px;">N</text><text y="358" x="408.33333333333337" text-anchor="middle" visibility="hidden" style="font-size: 13px;">S</text><text y="358" x="411.574074074074" text-anchor="middle" visibility="hidden" style="font-size: 13px;">L</text><text y="358" x="414.8148148148148" text-anchor="middle" visibility="hidden" style="font-size: 13px;">N</text><text y="358" x="418.05555555555554" text-anchor="middle" visibility="hidden" style="font-size: 13px;">E</text><text y="358" x="421.2962962962963" text-anchor="middle" visibility="hidden" style="font-size: 13px;">L</text><text y="358" x="424.53703703703707" text-anchor="middle" visibility="hidden" style="font-size: 13px;">V</text><text y="358" x="427.7777777777778" text-anchor="middle" visibility="hidden" style="font-size: 13px;">D</text><text y="358" x="431.0185185185185" text-anchor="middle" visibility="hidden" style="font-size: 13px;">Y</text><text y="358" x="434.25925925925924" text-anchor="middle" visibility="hidden" style="font-size: 13px;">H</text><text y="358" x="437.5" text-anchor="middle" visibility="hidden" style="font-size: 13px;">R</text><text y="358" x="440.74074074074076" text-anchor="middle" visibility="hidden" style="font-size: 13px;">S</text><text y="358" x="443.9814814814815" text-anchor="middle" visibility="hidden" style="font-size: 13px;">T</text><text y="358" x="447.2222222222222" text-anchor="middle" visibility="hidden" style="font-size: 13px;">S</text><text y="358" x="450.46296296296293" text-anchor="middle" visibility="hidden" style="font-size: 13px;">V</text><text y="358" x="453.7037037037037" text-anchor="middle" visibility="hidden" style="font-size: 13px;">S</text><text y="358" x="456.94444444444446" text-anchor="middle" visibility="hidden" style="font-size: 13px;">R</text><text y="358" x="460.1851851851852" text-anchor="middle" visibility="hidden" style="font-size: 13px;">N</text><text y="358" x="463.425925925926" text-anchor="middle" visibility="hidden" style="font-size: 13px;">Q</text><text y="358" x="466.66666666666663" text-anchor="middle" visibility="hidden" style="font-size: 13px;">Q</text><text y="358" x="469.9074074074074" text-anchor="middle" visibility="hidden" style="font-size: 13px;">I</text><text y="358" x="473.14814814814815" text-anchor="middle" visibility="hidden" style="font-size: 13px;">F</text><text y="358" x="476.3888888888889" text-anchor="middle" visibility="hidden" style="font-size: 13px;">L</text><text y="358" x="479.6296296296297" text-anchor="middle" visibility="hidden" style="font-size: 13px;">R</text><text y="358" x="482.8703703703703" text-anchor="middle" visibility="hidden" style="font-size: 13px;">D</text><text y="358" x="486.1111111111111" text-anchor="middle" visibility="hidden" style="font-size: 13px;">I</text><text y="358" x="489.35185185185185" text-anchor="middle" visibility="hidden" style="font-size: 13px;">E</text><text y="358" x="492.5925925925926" text-anchor="middle" visibility="hidden" style="font-size: 13px;">Q</text><text y="358" x="495.83333333333337" text-anchor="middle" visibility="hidden" style="font-size: 13px;">V</text><text y="358" x="499.074074074074" text-anchor="middle" visibility="hidden" style="font-size: 13px;">P</text><text y="358" x="502.3148148148148" text-anchor="middle" visibility="hidden" style="font-size: 13px;">Q</text><text y="358" x="505.55555555555554" text-anchor="middle" visibility="hidden" style="font-size: 13px;">Q</text><text y="358" x="508.7962962962963" text-anchor="middle" visibility="hidden" style="font-size: 13px;">P</text><text y="358" x="512.0370370370371" text-anchor="middle" visibility="hidden" style="font-size: 13px;">T</text><text y="358" x="515.2777777777778" text-anchor="middle" visibility="hidden" style="font-size: 13px;">Y</text><text y="358" x="518.5185185185185" text-anchor="middle" visibility="hidden" style="font-size: 13px;">V</text><text y="358" x="521.7592592592592" text-anchor="middle" visibility="hidden" style="font-size: 13px;">Q</text><text y="358" x="525" text-anchor="middle" visibility="hidden" style="font-size: 13px;">A</text><text y="358" x="528.2407407407408" text-anchor="middle" visibility="hidden" style="font-size: 13px;">L</text><text y="358" x="531.4814814814815" text-anchor="middle" visibility="hidden" style="font-size: 13px;">F</text><text y="358" x="534.7222222222222" text-anchor="middle" visibility="hidden" style="font-size: 13px;">D</text><text y="358" x="537.9629629629629" text-anchor="middle" visibility="hidden" style="font-size: 13px;">F</text><text y="358" x="541.2037037037037" text-anchor="middle" visibility="hidden" style="font-size: 13px;">D</text><text y="358" x="544.4444444444445" text-anchor="middle" visibility="hidden" style="font-size: 13px;">P</text><text y="358" x="547.6851851851852" text-anchor="middle" visibility="hidden" style="font-size: 13px;">Q</text><text y="358" x="550.925925925926" text-anchor="middle" visibility="hidden" style="font-size: 13px;">E</text><text y="358" x="554.1666666666666" text-anchor="middle" visibility="hidden" style="font-size: 13px;">D</text><text y="358" x="557.4074074074074" text-anchor="middle" visibility="hidden" style="font-size: 13px;">G</text><text y="358" x="560.6481481481482" text-anchor="middle" visibility="hidden" style="font-size: 13px;">E</text><text y="358" x="563.8888888888889" text-anchor="middle" visibility="hidden" style="font-size: 13px;">L</text><text y="358" x="567.1296296296297" text-anchor="middle" visibility="hidden" style="font-size: 13px;">G</text><text y="358" x="570.3703703703703" text-anchor="middle" visibility="hidden" style="font-size: 13px;">F</text><text y="358" x="573.6111111111111" text-anchor="middle" visibility="hidden" style="font-size: 13px;">R</text><text y="358" x="576.8518518518518" text-anchor="middle" visibility="hidden" style="font-size: 13px;">R</text><text y="358" x="580.0925925925926" text-anchor="middle" visibility="hidden" style="font-size: 13px;">G</text><text y="358" x="583.3333333333334" text-anchor="middle" visibility="hidden" style="font-size: 13px;">D</text><text y="358" x="586.574074074074" text-anchor="middle" visibility="hidden" style="font-size: 13px;">F</text><text y="358" x="589.8148148148148" text-anchor="middle" visibility="hidden" style="font-size: 13px;">I</text><text y="358" x="593.0555555555555" text-anchor="middle" visibility="hidden" style="font-size: 13px;">H</text><text y="358" x="596.2962962962963" text-anchor="middle" visibility="hidden" style="font-size: 13px;">V</text><text y="358" x="599.5370370370371" text-anchor="middle" visibility="hidden" style="font-size: 13px;">M</text><text y="358" x="602.7777777777778" text-anchor="middle" visibility="hidden" style="font-size: 13px;">D</text><text y="358" x="606.0185185185185" text-anchor="middle" visibility="hidden" style="font-size: 13px;">N</text><text y="358" x="609.2592592592592" text-anchor="middle" visibility="hidden" style="font-size: 13px;">S</text><text y="358" x="612.5" text-anchor="middle" visibility="hidden" style="font-size: 13px;">D</text><text y="358" x="615.7407407407408" text-anchor="middle" visibility="hidden" style="font-size: 13px;">P</text><text y="358" x="618.9814814814815" text-anchor="middle" visibility="hidden" style="font-size: 13px;">N</text><text y="358" x="622.2222222222222" text-anchor="middle" visibility="hidden" style="font-size: 13px;">W</text><text y="358" x="625.4629629629629" text-anchor="middle" visibility="hidden" style="font-size: 13px;">W</text><text y="358" x="628.7037037037037" text-anchor="middle" visibility="hidden" style="font-size: 13px;">K</text><text y="358" x="631.9444444444445" text-anchor="middle" visibility="hidden" style="font-size: 13px;">G</text><text y="358" x="635.1851851851852" text-anchor="middle" visibility="hidden" style="font-size: 13px;">A</text><text y="358" x="638.425925925926" text-anchor="middle" visibility="hidden" style="font-size: 13px;">C</text><text y="358" x="641.6666666666666" text-anchor="middle" visibility="hidden" style="font-size: 13px;">H</text><text y="358" x="644.9074074074074" text-anchor="middle" visibility="hidden" style="font-size: 13px;">G</text><text y="358" x="648.1481481481482" text-anchor="middle" visibility="hidden" style="font-size: 13px;">Q</text><text y="358" x="651.3888888888889" text-anchor="middle" visibility="hidden" style="font-size: 13px;">T</text><text y="358" x="654.6296296296297" text-anchor="middle" visibility="hidden" style="font-size: 13px;">G</text><text y="358" x="657.8703703703703" text-anchor="middle" visibility="hidden" style="font-size: 13px;">M</text><text y="358" x="661.1111111111111" text-anchor="middle" visibility="hidden" style="font-size: 13px;">F</text><text y="358" x="664.3518518518518" text-anchor="middle" visibility="hidden" style="font-size: 13px;">P</text><text y="358" x="667.5925925925926" text-anchor="middle" visibility="hidden" style="font-size: 13px;">R</text><text y="358" x="670.8333333333334" text-anchor="middle" visibility="hidden" style="font-size: 13px;">N</text><text y="358" x="674.074074074074" text-anchor="middle" visibility="hidden" style="font-size: 13px;">Y</text><text y="358" x="677.3148148148148" text-anchor="middle" visibility="hidden" style="font-size: 13px;">V</text><text y="358" x="680.5555555555555" text-anchor="middle" visibility="hidden" style="font-size: 13px;">T</text><text y="358" x="683.7962962962963" text-anchor="middle" visibility="hidden" style="font-size: 13px;">P</text><text y="358" x="687.0370370370371" text-anchor="middle" visibility="hidden" style="font-size: 13px;">V</text><text y="358" x="690.2777777777778" text-anchor="middle" visibility="hidden" style="font-size: 13px;">N</text><text y="358" x="693.5185185185185" text-anchor="middle" visibility="hidden" style="font-size: 13px;">R</text><text y="358" x="696.7592592592592" text-anchor="middle" visibility="hidden" style="font-size: 13px;">N</text><text y="358" x="700" text-anchor="middle" visibility="hidden" style="font-size: 13px;">V</text></g></g></svg><g class="xAxis" transform="translate(0,360)" fill="none" font-size="10" font-family="sans-serif" text-anchor="middle"><path class="domain" stroke="#000" d="M0.5,6V0.5H700.5V6"></path><g class="tick" opacity="1" transform="translate(62.074074074074076,0)"><line stroke="#000" y2="6"></line><text fill="#000" y="9" dy="0.71em">20</text></g><g class="tick" opacity="1" transform="translate(126.88888888888889,0)"><line stroke="#000" y2="6"></line><text fill="#000" y="9" dy="0.71em">40</text></g><g class="tick" opacity="1" transform="translate(191.7037037037037,0)"><line stroke="#000" y2="6"></line><text fill="#000" y="9" dy="0.71em">60</text></g><g class="tick" opacity="1" transform="translate(256.51851851851853,0)"><line stroke="#000" y2="6"></line><text fill="#000" y="9" dy="0.71em">80</text></g><g class="tick" opacity="1" transform="translate(321.3333333333333,0)"><line stroke="#000" y2="6"></line><text fill="#000" y="9" dy="0.71em">100</text></g><g class="tick" opacity="1" transform="translate(386.14814814814815,0)"><line stroke="#000" y2="6"></line><text fill="#000" y="9" dy="0.71em">120</text></g><g class="tick" opacity="1" transform="translate(450.96296296296293,0)"><line stroke="#000" y2="6"></line><text fill="#000" y="9" dy="0.71em">140</text></g><g class="tick" opacity="1" transform="translate(515.7777777777778,0)"><line stroke="#000" y2="6"></line><text fill="#000" y="9" dy="0.71em">160</text></g><g class="tick" opacity="1" transform="translate(580.5925925925926,0)"><line stroke="#000" y2="6"></line><text fill="#000" y="9" dy="0.71em">180</text></g><g class="tick" opacity="1" transform="translate(645.4074074074074,0)"><line stroke="#000" y2="6"></line><text fill="#000" y="9" dy="0.71em">200</text></g></g><text class="x label" text-anchor="end" x="700" y="390" style="font-size: 13px; font-family: Arial;">Residue number</text><g class="yAxis" fill="none" font-size="10" font-family="sans-serif" text-anchor="end"><path class="domain" stroke="#000" d="M-6,360.5H0.5V0.5H-6"></path><g class="tick" opacity="1" transform="translate(0,355.97373780893815)"><line stroke="#000" x2="-6"></line><text fill="#000" x="-9" dy="0.32em"></text></g><g class="tick" opacity="1" transform="translate(0,327.77272727272725)"><line stroke="#000" x2="-6"></line><text fill="#000" x="-9" dy="0.32em">0</text></g><g class="tick" opacity="1" transform="translate(0,299.5717167365164)"><line stroke="#000" x2="-6"></line><text fill="#000" x="-9" dy="0.32em">20</text></g><g class="tick" opacity="1" transform="translate(0,271.3707062003055)"><line stroke="#000" x2="-6"></line><text fill="#000" x="-9" dy="0.32em">40</text></g><g class="tick" opacity="1" transform="translate(0,243.1696956640946)"><line stroke="#000" x2="-6"></line><text fill="#000" x="-9" dy="0.32em">60</text></g><g class="tick" opacity="1" transform="translate(0,214.96868512788373)"><line stroke="#000" x2="-6"></line><text fill="#000" x="-9" dy="0.32em">80</text></g><g class="tick" opacity="1" transform="translate(0,186.76767459167286)"><line stroke="#000" x2="-6"></line><text fill="#000" x="-9" dy="0.32em">100</text></g><g class="tick" opacity="1" transform="translate(0,158.56666405546196)"><line stroke="#000" x2="-6"></line><text fill="#000" x="-9" dy="0.32em">120</text></g><g class="tick" opacity="1" transform="translate(0,130.36565351925108)"><line stroke="#000" x2="-6"></line><text fill="#000" x="-9" dy="0.32em">140</text></g><g class="tick" opacity="1" transform="translate(0,102.16464298304021)"><line stroke="#000" x2="-6"></line><text fill="#000" x="-9" dy="0.32em">160</text></g><g class="tick" opacity="1" transform="translate(0,73.96363244682931)"><line stroke="#000" x2="-6"></line><text fill="#000" x="-9" dy="0.32em">180</text></g><g class="tick" opacity="1" transform="translate(0,45.76262191061846)"><line stroke="#000" x2="-6"></line><text fill="#000" x="-9" dy="0.32em">200</text></g><g class="tick" opacity="1" transform="translate(0,17.561611374407562)"><line stroke="#000" x2="-6"></line><text fill="#000" x="-9" dy="0.32em">220</text></g></g><text class="y label" text-anchor="middle" y="-50" x="-180" dy="0.8em" transform="rotate(-90)" style="font-size: 13px; font-family: Arial;">Total number of references</text><g class="axisRed" fill="none" font-size="10" font-family="sans-serif" text-anchor="start" visibility="hidden" transform="translate(700, 0)"><path class="domain" stroke="#000" d="M6,360.5H0.5V0.5H6"></path><g class="tick" opacity="1" transform="translate(0,360.5)"><line stroke="#000" x2="6"></line><text fill="#000" x="9" dy="0.32em">0</text></g><text text-anchor="start" dx="5.2em" dy="-2.6em" transform="rotate(90)" visibility="hidden" style="font-size: 12px; font-family: Arial; fill: #d7301f;">No recurrent (&gt;2) missense mutations!</text></g><g class="axisPurple" fill="none" font-size="10" font-family="sans-serif" text-anchor="start" visibility="hidden"><path class="domain" stroke="#000" d="M6,360.5H0.5V0.5H6"></path><g class="tick" opacity="1" transform="translate(0,357.52479338842977)"><line stroke="#000" x2="6"></line><text fill="#000" x="9" dy="0.32em"></text></g><g class="tick" opacity="1" transform="translate(0,327.77272727272725)"><line stroke="#000" x2="6"></line><text fill="#000" x="9" dy="0.32em">0</text></g><g class="tick" opacity="1" transform="translate(0,298.0206611570248)"><line stroke="#000" x2="6"></line><text fill="#000" x="9" dy="0.32em">0.1</text></g><g class="tick" opacity="1" transform="translate(0,268.2685950413223)"><line stroke="#000" x2="6"></line><text fill="#000" x="9" dy="0.32em">0.2</text></g><g class="tick" opacity="1" transform="translate(0,238.51652892561984)"><line stroke="#000" x2="6"></line><text fill="#000" x="9" dy="0.32em">0.3</text></g><g class="tick" opacity="1" transform="translate(0,208.76446280991738)"><line stroke="#000" x2="6"></line><text fill="#000" x="9" dy="0.32em">0.4</text></g><g class="tick" opacity="1" transform="translate(0,179.0123966942149)"><line stroke="#000" x2="6"></line><text fill="#000" x="9" dy="0.32em">0.5</text></g><g class="tick" opacity="1" transform="translate(0,149.26033057851242)"><line stroke="#000" x2="6"></line><text fill="#000" x="9" dy="0.32em">0.6</text></g><g class="tick" opacity="1" transform="translate(0,119.50826446280996)"><line stroke="#000" x2="6"></line><text fill="#000" x="9" dy="0.32em">0.7</text></g><g class="tick" opacity="1" transform="translate(0,89.75619834710744)"><line stroke="#000" x2="6"></line><text fill="#000" x="9" dy="0.32em">0.8</text></g><g class="tick" opacity="1" transform="translate(0,60.00413223140498)"><line stroke="#000" x2="6"></line><text fill="#000" x="9" dy="0.32em">0.9</text></g><g class="tick" opacity="1" transform="translate(0,30.25206611570252)"><line stroke="#000" x2="6"></line><text fill="#000" x="9" dy="0.32em">1</text></g><g class="tick" opacity="1" transform="translate(0,0.5)"><line stroke="#000" x2="6"></line><text fill="#000" x="9" dy="0.32em">1.1</text></g><text text-anchor="start" x="10" y="10" visibility="hidden" style="font-size: 12px; font-family: Arial; fill: #807dba;">No disease causing germline SNPs known!</text></g><circle cx="636" cy="15" r="10" class="compassNav" style="fill: #ffffff; stroke: #666666; stroke-width: 1px;"></circle><path d="M440.935 12.574l3.966 82.766C399.416 41.904 331.674 8 256 8 134.813 8 33.933 94.924 12.296 209.824 10.908 217.193 16.604 224 24.103 224h49.084c5.57 0 10.377-3.842 11.676-9.259C103.407 137.408 172.931 80 256 80c60.893 0 114.512 30.856 146.104 77.801l-101.53-4.865c-6.845-.328-12.574 5.133-12.574 11.986v47.411c0 6.627 5.373 12 12 12h200.333c6.627 0 12-5.373 12-12V12c0-6.627-5.373-12-12-12h-47.411c-6.853 0-12.315 5.729-11.987 12.574zM256 432c-60.895 0-114.517-30.858-146.109-77.805l101.868 4.871c6.845.327 12.573-5.134 12.573-11.986v-47.412c0-6.627-5.373-12-12-12H12c-6.627 0-12 5.373-12 12V500c0 6.627 5.373 12 12 12h47.385c6.863 0 12.328-5.745 11.985-12.599l-4.129-82.575C112.725 470.166 180.405 504 256 504c121.187 0 222.067-86.924 243.704-201.824 1.388-7.369-4.308-14.176-11.807-14.176h-49.084c-5.57 0-10.377 3.842-11.676 9.259C408.593 374.592 339.069 432 256 432z" class="compassNav" transform="translate(631, 10) scale(0.02)" style="fill: #666666; stroke: #666666; stroke-width: 1px;"></path><circle cx="658" cy="15" r="10" class="compassNav" style="fill: #ffffff; stroke: #666666; stroke-width: 1px;"></circle><line class="compassNav" stroke-width="2" stroke="#666666" x1="654" y1="15" x2="662" y2="15"></line><line class="compassNav" stroke-width="2" stroke="#666666" x1="658" y1="11" x2="658" y2="19"></line><circle cx="614" cy="15" r="10" class="compassNav" style="fill: #ffffff; stroke: #666666; stroke-width: 1px;"></circle><line class="compassNav" stroke-width="2" stroke="#666666" x1="610" y1="15" x2="618" y2="15"></line><path d="M582 14 l20 -12 a100,40 0 0,0 0,24z" class="compassNav" style="fill: #ffffff; stroke: #666666; stroke-width: 1px;"></path><path d="M690 14 l-20 -12 a100,40 0 0,1 0,24z" class="compassNav" style="fill: #ffffff; stroke: #666666; stroke-width: 1px;"></path><path d="M216 0h80c13.3 0 24 10.7 24 24v168h87.7c17.8 0 26.7 21.5 14.1 34.1L269.7 378.3c-7.5 7.5-19.8 7.5-27.3 0L90.1 226.1c-12.6-12.6-3.7-34.1 14.1-34.1H192V24c0-13.3 10.7-24 24-24zm296 376v112c0 13.3-10.7 24-24 24H24c-13.3 0-24-10.7-24-24V376c0-13.3 10.7-24 24-24h146.7l49 49c20.1 20.1 52.5 20.1 72.6 0l49-49H488c13.3 0 24 10.7 24 24zm-124 88c0-11-9-20-20-20s-20 9-20 20 9 20 20 20 20-9 20-20zm64 0c0-11-9-20-20-20s-20 9-20 20 9 20 20 20 20-9 20-20z" class="compassNav" transform="translate(552,0) scale(0.05)" style="fill: #336699; stroke: #336699; stroke-width: 1px; cursor: pointer;"></path></g></svg>