<svg width="800" height="400" style="background-color: white;"><g transform="translate(50,0)"><svg width="700" height="360"><g style="-webkit-tap-highlight-color: rgba(0, 0, 0, 0);"><rect width="700" height="360" style="fill: #ffffff;"></rect><g id="lines"><line class="line" stroke-width="1" stroke="#d7301f" x1="-450.3184713375796" y1="333" x2="-450.3184713375796" y2="360" visibility="hidden" style="stroke-dasharray: 3px, 3px;"></line></g><g><rect x="-455.3184713375796" y="355" width="10" height="10" visibility="hidden" style="fill: #ffffff; stroke: #d7301f;"></rect></g><g id="lines"><line class="line" stroke-width="1" stroke="#6a51a3" x1="-450.3184713375796" y1="333" x2="-450.3184713375796" y2="327.27272727272725" visibility="hidden" style="stroke-dasharray: 3px, 3px;"></line></g><g><rect x="-455.3184713375796" y="322.27272727272725" width="10" height="10" visibility="hidden" style="fill: #ffffff; stroke: #6a51a3;"></rect></g><g id="lines"><line class="line" stroke-width="1" stroke="#666666" x1="4.45859872611465" y1="333" x2="4.45859872611465" y2="287.60330578512395"></line><line class="line" stroke-width="1" stroke="#666666" x1="57.96178343949044" y1="333" x2="57.96178343949044" y2="267.7685950413223"></line><line class="line" stroke-width="1" stroke="#666666" x1="75.79617834394905" y1="333" x2="75.79617834394905" y2="188.4297520661157"></line><line class="line" stroke-width="1" stroke="#666666" x1="75.79617834394905" y1="333" x2="75.79617834394905" y2="307.43801652892563"></line><line class="line" stroke-width="1" stroke="#666666" x1="151.5923566878981" y1="333" x2="151.5923566878981" y2="287.60330578512395"></line><line class="line" stroke-width="1" stroke="#666666" x1="209.55414012738854" y1="333" x2="209.55414012738854" y2="307.43801652892563"></line><line class="line" stroke-width="1" stroke="#666666" x1="214.01273885350318" y1="333" x2="214.01273885350318" y2="148.76033057851237"></line><line class="line" stroke-width="1" stroke="#666666" x1="214.01273885350318" y1="333" x2="214.01273885350318" y2="208.26446280991735"></line><line class="line" stroke-width="1" stroke="#666666" x1="258.59872611464965" y1="333" x2="258.59872611464965" y2="247.93388429752065"></line><line class="line" stroke-width="1" stroke="#666666" x1="285.3503184713376" y1="333" x2="285.3503184713376" y2="228.099173553719"></line><line class="line" stroke-width="1" stroke="#666666" x1="285.3503184713376" y1="333" x2="285.3503184713376" y2="267.7685950413223"></line><line class="line" stroke-width="1" stroke="#666666" x1="285.3503184713376" y1="333" x2="285.3503184713376" y2="307.43801652892563"></line><line class="line" stroke-width="1" stroke="#666666" x1="285.3503184713376" y1="333" x2="285.3503184713376" y2="307.43801652892563"></line><line class="line" stroke-width="1" stroke="#666666" x1="307.64331210191085" y1="333" x2="307.64331210191085" y2="228.099173553719"></line><line class="line" stroke-width="1" stroke="#666666" x1="312.1019108280255" y1="333" x2="312.1019108280255" y2="29.75206611570252"></line><line class="line" stroke-width="1" stroke="#666666" x1="646.4968152866243" y1="333" x2="646.4968152866243" y2="307.43801652892563"></line><line class="line" stroke-width="1" stroke="#666666" x1="677.7070063694267" y1="333" x2="677.7070063694267" y2="267.7685950413223"></line><line class="line" stroke-width="1" stroke="#666666" x1="682.1656050955414" y1="333" x2="682.1656050955414" y2="307.43801652892563"></line><line class="line" stroke-width="1" stroke="#666666" x1="700" y1="333" x2="700" y2="307.43801652892563"></line></g><g id="circles"><circle r="4" cx="4.45859872611465" cy="287.60330578512395" style="fill: #4393c3; stroke: #666666; stroke-width: 1px;"></circle><circle r="4" cx="57.96178343949044" cy="267.7685950413223" style="fill: #666666; stroke: #666666; stroke-width: 1px;"></circle><circle r="4" cx="75.79617834394905" cy="188.4297520661157" style="fill: #bf812d; stroke: #666666; stroke-width: 1px;"></circle><circle r="4" cx="75.79617834394905" cy="307.43801652892563" style="fill: #666666; stroke: #666666; stroke-width: 1px;"></circle><circle r="4" cx="151.5923566878981" cy="287.60330578512395" style="fill: #4393c3; stroke: #666666; stroke-width: 1px;"></circle><circle r="4" cx="209.55414012738854" cy="307.43801652892563" style="fill: #666666; stroke: #666666; stroke-width: 1px;"></circle><circle r="4" cx="214.01273885350318" cy="148.76033057851237" style="fill: #bf812d; stroke: #666666; stroke-width: 1px;"></circle><circle r="4" cx="214.01273885350318" cy="208.26446280991735" style="fill: #666666; stroke: #666666; stroke-width: 1px;"></circle><circle r="4" cx="258.59872611464965" cy="247.93388429752065" style="fill: #bf812d; stroke: #666666; stroke-width: 1px;"></circle><circle r="4" cx="285.3503184713376" cy="228.099173553719" style="fill: #5aae61; stroke: #666666; stroke-width: 1px;"></circle><circle r="4" cx="285.3503184713376" cy="267.7685950413223" style="fill: #bf812d; stroke: #666666; stroke-width: 1px;"></circle><circle r="4" cx="285.3503184713376" cy="307.43801652892563" style="fill: #666666; stroke: #666666; stroke-width: 1px;"></circle><circle r="4" cx="285.3503184713376" cy="307.43801652892563" style="fill: #666666; stroke: #666666; stroke-width: 1px;"></circle><circle r="4" cx="307.64331210191085" cy="228.099173553719" style="fill: #4393c3; stroke: #666666; stroke-width: 1px;"></circle><circle r="4" cx="312.1019108280255" cy="29.75206611570252" style="fill: #4393c3; stroke: #666666; stroke-width: 1px;"></circle><circle r="4" cx="646.4968152866243" cy="307.43801652892563" style="fill: #666666; stroke: #666666; stroke-width: 1px;"></circle><circle r="4" cx="677.7070063694267" cy="267.7685950413223" style="fill: #666666; stroke: #666666; stroke-width: 1px;"></circle><circle r="4" cx="682.1656050955414" cy="307.43801652892563" style="fill: #666666; stroke: #666666; stroke-width: 1px;"></circle><circle r="4" cx="700" cy="307.43801652892563" style="fill: #4393c3; stroke: #666666; stroke-width: 1px;"></circle></g><g><rect x="0" y="333" width="700" height="12" style="fill: #ffffff; stroke-width: 1px; stroke: #666666;"></rect><rect x="31.210191082802545" y="333" width="642.0382165605096" height="12" style="fill: #aec7e8; stroke-width: 1px; stroke: #666666;"></rect></g><g><a target="_blank" xlink:href="http://pfam.xfam.org/family/"><text y="343" x="350" text-anchor="middle" style="color: rgb(102, 102, 102); font-weight: normal; font-size: 12px; font-family: Arial; cursor: pointer;"></text></a><a target="_blank" xlink:href="http://pfam.xfam.org/family/UQ_con"><text y="343" x="352.22929936305735" text-anchor="middle" style="color: rgb(102, 102, 102); font-weight: normal; font-size: 12px; font-family: Arial; cursor: pointer;">UQ_con</text></a></g><g><text y="358" x="0" text-anchor="middle" visibility="hidden" style="font-size: 13px;">M</text><text y="358" x="4.45859872611465" text-anchor="middle" visibility="hidden" style="font-size: 13px;">S</text><text y="358" x="8.9171974522293" text-anchor="middle" visibility="hidden" style="font-size: 13px;">G</text><text y="358" x="13.375796178343949" text-anchor="middle" visibility="hidden" style="font-size: 13px;">I</text><text y="358" x="17.8343949044586" text-anchor="middle" visibility="hidden" style="font-size: 13px;">A</text><text y="358" x="22.29299363057325" text-anchor="middle" visibility="hidden" style="font-size: 13px;">L</text><text y="358" x="26.751592356687897" text-anchor="middle" visibility="hidden" style="font-size: 13px;">S</text><text y="358" x="31.210191082802545" text-anchor="middle" visibility="hidden" style="font-size: 13px;">R</text><text y="358" x="35.6687898089172" text-anchor="middle" visibility="hidden" style="font-size: 13px;">L</text><text y="358" x="40.12738853503185" text-anchor="middle" visibility="hidden" style="font-size: 13px;">A</text><text y="358" x="44.5859872611465" text-anchor="middle" visibility="hidden" style="font-size: 13px;">Q</text><text y="358" x="49.044585987261144" text-anchor="middle" visibility="hidden" style="font-size: 13px;">E</text><text y="358" x="53.503184713375795" text-anchor="middle" visibility="hidden" style="font-size: 13px;">R</text><text y="358" x="57.96178343949044" text-anchor="middle" visibility="hidden" style="font-size: 13px;">K</text><text y="358" x="62.42038216560509" text-anchor="middle" visibility="hidden" style="font-size: 13px;">A</text><text y="358" x="66.87898089171975" text-anchor="middle" visibility="hidden" style="font-size: 13px;">W</text><text y="358" x="71.3375796178344" text-anchor="middle" visibility="hidden" style="font-size: 13px;">R</text><text y="358" x="75.79617834394905" text-anchor="middle" visibility="hidden" style="font-size: 13px;">K</text><text y="358" x="80.2547770700637" text-anchor="middle" visibility="hidden" style="font-size: 13px;">D</text><text y="358" x="84.71337579617834" text-anchor="middle" visibility="hidden" style="font-size: 13px;">H</text><text y="358" x="89.171974522293" text-anchor="middle" visibility="hidden" style="font-size: 13px;">P</text><text y="358" x="93.63057324840764" text-anchor="middle" visibility="hidden" style="font-size: 13px;">F</text><text y="358" x="98.08917197452229" text-anchor="middle" visibility="hidden" style="font-size: 13px;">G</text><text y="358" x="102.54777070063695" text-anchor="middle" visibility="hidden" style="font-size: 13px;">F</text><text y="358" x="107.00636942675159" text-anchor="middle" visibility="hidden" style="font-size: 13px;">V</text><text y="358" x="111.46496815286623" text-anchor="middle" visibility="hidden" style="font-size: 13px;">A</text><text y="358" x="115.92356687898088" text-anchor="middle" visibility="hidden" style="font-size: 13px;">V</text><text y="358" x="120.38216560509554" text-anchor="middle" visibility="hidden" style="font-size: 13px;">P</text><text y="358" x="124.84076433121018" text-anchor="middle" visibility="hidden" style="font-size: 13px;">T</text><text y="358" x="129.29936305732483" text-anchor="middle" visibility="hidden" style="font-size: 13px;">K</text><text y="358" x="133.7579617834395" text-anchor="middle" visibility="hidden" style="font-size: 13px;">N</text><text y="358" x="138.21656050955414" text-anchor="middle" visibility="hidden" style="font-size: 13px;">P</text><text y="358" x="142.6751592356688" text-anchor="middle" visibility="hidden" style="font-size: 13px;">D</text><text y="358" x="147.13375796178346" text-anchor="middle" visibility="hidden" style="font-size: 13px;">G</text><text y="358" x="151.5923566878981" text-anchor="middle" visibility="hidden" style="font-size: 13px;">T</text><text y="358" x="156.05095541401275" text-anchor="middle" visibility="hidden" style="font-size: 13px;">M</text><text y="358" x="160.5095541401274" text-anchor="middle" visibility="hidden" style="font-size: 13px;">N</text><text y="358" x="164.96815286624204" text-anchor="middle" visibility="hidden" style="font-size: 13px;">L</text><text y="358" x="169.42675159235668" text-anchor="middle" visibility="hidden" style="font-size: 13px;">M</text><text y="358" x="173.88535031847132" text-anchor="middle" visibility="hidden" style="font-size: 13px;">N</text><text y="358" x="178.343949044586" text-anchor="middle" visibility="hidden" style="font-size: 13px;">W</text><text y="358" x="182.80254777070064" text-anchor="middle" visibility="hidden" style="font-size: 13px;">E</text><text y="358" x="187.2611464968153" text-anchor="middle" visibility="hidden" style="font-size: 13px;">C</text><text y="358" x="191.71974522292993" text-anchor="middle" visibility="hidden" style="font-size: 13px;">A</text><text y="358" x="196.17834394904457" text-anchor="middle" visibility="hidden" style="font-size: 13px;">I</text><text y="358" x="200.63694267515922" text-anchor="middle" visibility="hidden" style="font-size: 13px;">P</text><text y="358" x="205.0955414012739" text-anchor="middle" visibility="hidden" style="font-size: 13px;">G</text><text y="358" x="209.55414012738854" text-anchor="middle" visibility="hidden" style="font-size: 13px;">K</text><text y="358" x="214.01273885350318" text-anchor="middle" visibility="hidden" style="font-size: 13px;">K</text><text y="358" x="218.47133757961782" text-anchor="middle" visibility="hidden" style="font-size: 13px;">G</text><text y="358" x="222.92993630573247" text-anchor="middle" visibility="hidden" style="font-size: 13px;">T</text><text y="358" x="227.3885350318471" text-anchor="middle" visibility="hidden" style="font-size: 13px;">P</text><text y="358" x="231.84713375796176" text-anchor="middle" visibility="hidden" style="font-size: 13px;">W</text><text y="358" x="236.30573248407643" text-anchor="middle" visibility="hidden" style="font-size: 13px;">E</text><text y="358" x="240.76433121019107" text-anchor="middle" visibility="hidden" style="font-size: 13px;">G</text><text y="358" x="245.22292993630572" text-anchor="middle" visibility="hidden" style="font-size: 13px;">G</text><text y="358" x="249.68152866242036" text-anchor="middle" visibility="hidden" style="font-size: 13px;">L</text><text y="358" x="254.140127388535" text-anchor="middle" visibility="hidden" style="font-size: 13px;">F</text><text y="358" x="258.59872611464965" text-anchor="middle" visibility="hidden" style="font-size: 13px;">K</text><text y="358" x="263.05732484076435" text-anchor="middle" visibility="hidden" style="font-size: 13px;">L</text><text y="358" x="267.515923566879" text-anchor="middle" visibility="hidden" style="font-size: 13px;">R</text><text y="358" x="271.97452229299364" text-anchor="middle" visibility="hidden" style="font-size: 13px;">M</text><text y="358" x="276.4331210191083" text-anchor="middle" visibility="hidden" style="font-size: 13px;">L</text><text y="358" x="280.89171974522293" text-anchor="middle" visibility="hidden" style="font-size: 13px;">F</text><text y="358" x="285.3503184713376" text-anchor="middle" visibility="hidden" style="font-size: 13px;">K</text><text y="358" x="289.8089171974522" text-anchor="middle" visibility="hidden" style="font-size: 13px;">D</text><text y="358" x="294.2675159235669" text-anchor="middle" visibility="hidden" style="font-size: 13px;">D</text><text y="358" x="298.72611464968156" text-anchor="middle" visibility="hidden" style="font-size: 13px;">Y</text><text y="358" x="303.1847133757962" text-anchor="middle" visibility="hidden" style="font-size: 13px;">P</text><text y="358" x="307.64331210191085" text-anchor="middle" visibility="hidden" style="font-size: 13px;">S</text><text y="358" x="312.1019108280255" text-anchor="middle" visibility="hidden" style="font-size: 13px;">S</text><text y="358" x="316.56050955414014" text-anchor="middle" visibility="hidden" style="font-size: 13px;">P</text><text y="358" x="321.0191082802548" text-anchor="middle" visibility="hidden" style="font-size: 13px;">P</text><text y="358" x="325.4777070063694" text-anchor="middle" visibility="hidden" style="font-size: 13px;">K</text><text y="358" x="329.9363057324841" text-anchor="middle" visibility="hidden" style="font-size: 13px;">C</text><text y="358" x="334.3949044585987" text-anchor="middle" visibility="hidden" style="font-size: 13px;">K</text><text y="358" x="338.85350318471336" text-anchor="middle" visibility="hidden" style="font-size: 13px;">F</text><text y="358" x="343.312101910828" text-anchor="middle" visibility="hidden" style="font-size: 13px;">E</text><text y="358" x="347.77070063694265" text-anchor="middle" visibility="hidden" style="font-size: 13px;">P</text><text y="358" x="352.22929936305735" text-anchor="middle" visibility="hidden" style="font-size: 13px;">P</text><text y="358" x="356.687898089172" text-anchor="middle" visibility="hidden" style="font-size: 13px;">L</text><text y="358" x="361.14649681528664" text-anchor="middle" visibility="hidden" style="font-size: 13px;">F</text><text y="358" x="365.6050955414013" text-anchor="middle" visibility="hidden" style="font-size: 13px;">H</text><text y="358" x="370.0636942675159" text-anchor="middle" visibility="hidden" style="font-size: 13px;">P</text><text y="358" x="374.5222929936306" text-anchor="middle" visibility="hidden" style="font-size: 13px;">N</text><text y="358" x="378.9808917197452" text-anchor="middle" visibility="hidden" style="font-size: 13px;">V</text><text y="358" x="383.43949044585986" text-anchor="middle" visibility="hidden" style="font-size: 13px;">Y</text><text y="358" x="387.8980891719745" text-anchor="middle" visibility="hidden" style="font-size: 13px;">P</text><text y="358" x="392.35668789808915" text-anchor="middle" visibility="hidden" style="font-size: 13px;">S</text><text y="358" x="396.8152866242038" text-anchor="middle" visibility="hidden" style="font-size: 13px;">G</text><text y="358" x="401.27388535031844" text-anchor="middle" visibility="hidden" style="font-size: 13px;">T</text><text y="358" x="405.7324840764331" text-anchor="middle" visibility="hidden" style="font-size: 13px;">V</text><text y="358" x="410.1910828025478" text-anchor="middle" visibility="hidden" style="font-size: 13px;">C</text><text y="358" x="414.6496815286624" text-anchor="middle" visibility="hidden" style="font-size: 13px;">L</text><text y="358" x="419.10828025477707" text-anchor="middle" visibility="hidden" style="font-size: 13px;">S</text><text y="358" x="423.5668789808917" text-anchor="middle" visibility="hidden" style="font-size: 13px;">I</text><text y="358" x="428.02547770700636" text-anchor="middle" visibility="hidden" style="font-size: 13px;">L</text><text y="358" x="432.484076433121" text-anchor="middle" visibility="hidden" style="font-size: 13px;">E</text><text y="358" x="436.94267515923565" text-anchor="middle" visibility="hidden" style="font-size: 13px;">E</text><text y="358" x="441.4012738853503" text-anchor="middle" visibility="hidden" style="font-size: 13px;">D</text><text y="358" x="445.85987261146494" text-anchor="middle" visibility="hidden" style="font-size: 13px;">K</text><text y="358" x="450.3184713375796" text-anchor="middle" visibility="hidden" style="font-size: 13px;">D</text><text y="358" x="454.7770700636942" text-anchor="middle" visibility="hidden" style="font-size: 13px;">W</text><text y="358" x="459.23566878980887" text-anchor="middle" visibility="hidden" style="font-size: 13px;">R</text><text y="358" x="463.6942675159235" text-anchor="middle" visibility="hidden" style="font-size: 13px;">P</text><text y="358" x="468.1528662420382" text-anchor="middle" visibility="hidden" style="font-size: 13px;">A</text><text y="358" x="472.61146496815286" text-anchor="middle" visibility="hidden" style="font-size: 13px;">I</text><text y="358" x="477.0700636942675" text-anchor="middle" visibility="hidden" style="font-size: 13px;">T</text><text y="358" x="481.52866242038215" text-anchor="middle" visibility="hidden" style="font-size: 13px;">I</text><text y="358" x="485.9872611464968" text-anchor="middle" visibility="hidden" style="font-size: 13px;">K</text><text y="358" x="490.44585987261144" text-anchor="middle" visibility="hidden" style="font-size: 13px;">Q</text><text y="358" x="494.9044585987261" text-anchor="middle" visibility="hidden" style="font-size: 13px;">I</text><text y="358" x="499.3630573248407" text-anchor="middle" visibility="hidden" style="font-size: 13px;">L</text><text y="358" x="503.82165605095537" text-anchor="middle" visibility="hidden" style="font-size: 13px;">L</text><text y="358" x="508.28025477707" text-anchor="middle" visibility="hidden" style="font-size: 13px;">G</text><text y="358" x="512.7388535031847" text-anchor="middle" visibility="hidden" style="font-size: 13px;">I</text><text y="358" x="517.1974522292993" text-anchor="middle" visibility="hidden" style="font-size: 13px;">Q</text><text y="358" x="521.656050955414" text-anchor="middle" visibility="hidden" style="font-size: 13px;">E</text><text y="358" x="526.1146496815287" text-anchor="middle" visibility="hidden" style="font-size: 13px;">L</text><text y="358" x="530.5732484076434" text-anchor="middle" visibility="hidden" style="font-size: 13px;">L</text><text y="358" x="535.031847133758" text-anchor="middle" visibility="hidden" style="font-size: 13px;">N</text><text y="358" x="539.4904458598727" text-anchor="middle" visibility="hidden" style="font-size: 13px;">E</text><text y="358" x="543.9490445859873" text-anchor="middle" visibility="hidden" style="font-size: 13px;">P</text><text y="358" x="548.407643312102" text-anchor="middle" visibility="hidden" style="font-size: 13px;">N</text><text y="358" x="552.8662420382166" text-anchor="middle" visibility="hidden" style="font-size: 13px;">I</text><text y="358" x="557.3248407643313" text-anchor="middle" visibility="hidden" style="font-size: 13px;">Q</text><text y="358" x="561.7834394904459" text-anchor="middle" visibility="hidden" style="font-size: 13px;">D</text><text y="358" x="566.2420382165606" text-anchor="middle" visibility="hidden" style="font-size: 13px;">P</text><text y="358" x="570.7006369426751" text-anchor="middle" visibility="hidden" style="font-size: 13px;">A</text><text y="358" x="575.1592356687898" text-anchor="middle" visibility="hidden" style="font-size: 13px;">Q</text><text y="358" x="579.6178343949044" text-anchor="middle" visibility="hidden" style="font-size: 13px;">A</text><text y="358" x="584.0764331210191" text-anchor="middle" visibility="hidden" style="font-size: 13px;">E</text><text y="358" x="588.5350318471338" text-anchor="middle" visibility="hidden" style="font-size: 13px;">A</text><text y="358" x="592.9936305732484" text-anchor="middle" visibility="hidden" style="font-size: 13px;">Y</text><text y="358" x="597.4522292993631" text-anchor="middle" visibility="hidden" style="font-size: 13px;">T</text><text y="358" x="601.9108280254777" text-anchor="middle" visibility="hidden" style="font-size: 13px;">I</text><text y="358" x="606.3694267515924" text-anchor="middle" visibility="hidden" style="font-size: 13px;">Y</text><text y="358" x="610.828025477707" text-anchor="middle" visibility="hidden" style="font-size: 13px;">C</text><text y="358" x="615.2866242038217" text-anchor="middle" visibility="hidden" style="font-size: 13px;">Q</text><text y="358" x="619.7452229299363" text-anchor="middle" visibility="hidden" style="font-size: 13px;">N</text><text y="358" x="624.203821656051" text-anchor="middle" visibility="hidden" style="font-size: 13px;">R</text><text y="358" x="628.6624203821656" text-anchor="middle" visibility="hidden" style="font-size: 13px;">V</text><text y="358" x="633.1210191082803" text-anchor="middle" visibility="hidden" style="font-size: 13px;">E</text><text y="358" x="637.5796178343949" text-anchor="middle" visibility="hidden" style="font-size: 13px;">Y</text><text y="358" x="642.0382165605096" text-anchor="middle" visibility="hidden" style="font-size: 13px;">E</text><text y="358" x="646.4968152866243" text-anchor="middle" visibility="hidden" style="font-size: 13px;">K</text><text y="358" x="650.9554140127389" text-anchor="middle" visibility="hidden" style="font-size: 13px;">R</text><text y="358" x="655.4140127388536" text-anchor="middle" visibility="hidden" style="font-size: 13px;">V</text><text y="358" x="659.8726114649681" text-anchor="middle" visibility="hidden" style="font-size: 13px;">R</text><text y="358" x="664.3312101910828" text-anchor="middle" visibility="hidden" style="font-size: 13px;">A</text><text y="358" x="668.7898089171974" text-anchor="middle" visibility="hidden" style="font-size: 13px;">Q</text><text y="358" x="673.2484076433121" text-anchor="middle" visibility="hidden" style="font-size: 13px;">A</text><text y="358" x="677.7070063694267" text-anchor="middle" visibility="hidden" style="font-size: 13px;">K</text><text y="358" x="682.1656050955414" text-anchor="middle" visibility="hidden" style="font-size: 13px;">K</text><text y="358" x="686.624203821656" text-anchor="middle" visibility="hidden" style="font-size: 13px;">F</text><text y="358" x="691.0828025477707" text-anchor="middle" visibility="hidden" style="font-size: 13px;">A</text><text y="358" x="695.5414012738853" text-anchor="middle" visibility="hidden" style="font-size: 13px;">P</text><text y="358" x="700" text-anchor="middle" visibility="hidden" style="font-size: 13px;">S</text></g></g></svg><g class="xAxis" transform="translate(0,360)" fill="none" font-size="10" font-family="sans-serif" text-anchor="middle"><path class="domain" stroke="#000" d="M0.5,6V0.5H700.5V6"></path><g class="tick" opacity="1" transform="translate(85.21337579617834,0)"><line stroke="#000" y2="6"></line><text fill="#000" y="9" dy="0.71em">20</text></g><g class="tick" opacity="1" transform="translate(174.38535031847132,0)"><line stroke="#000" y2="6"></line><text fill="#000" y="9" dy="0.71em">40</text></g><g class="tick" opacity="1" transform="translate(263.55732484076435,0)"><line stroke="#000" y2="6"></line><text fill="#000" y="9" dy="0.71em">60</text></g><g class="tick" opacity="1" transform="translate(352.72929936305735,0)"><line stroke="#000" y2="6"></line><text fill="#000" y="9" dy="0.71em">80</text></g><g class="tick" opacity="1" transform="translate(441.9012738853503,0)"><line stroke="#000" y2="6"></line><text fill="#000" y="9" dy="0.71em">100</text></g><g class="tick" opacity="1" transform="translate(531.0732484076434,0)"><line stroke="#000" y2="6"></line><text fill="#000" y="9" dy="0.71em">120</text></g><g class="tick" opacity="1" transform="translate(620.2452229299363,0)"><line stroke="#000" y2="6"></line><text fill="#000" y="9" dy="0.71em">140</text></g></g><text class="x label" text-anchor="end" x="700" y="390" style="font-size: 13px; font-family: Arial;">Residue number</text><g class="yAxis" fill="none" font-size="10" font-family="sans-serif" text-anchor="end"><path class="domain" stroke="#000" d="M-6,360.5H0.5V0.5H-6"></path><g class="tick" opacity="1" transform="translate(0,327.77272727272725)"><line stroke="#000" x2="-6"></line><text fill="#000" x="-9" dy="0.32em">0</text></g><g class="tick" opacity="1" transform="translate(0,288.10330578512395)"><line stroke="#000" x2="-6"></line><text fill="#000" x="-9" dy="0.32em">2</text></g><g class="tick" opacity="1" transform="translate(0,248.43388429752065)"><line stroke="#000" x2="-6"></line><text fill="#000" x="-9" dy="0.32em">4</text></g><g class="tick" opacity="1" transform="translate(0,208.76446280991735)"><line stroke="#000" x2="-6"></line><text fill="#000" x="-9" dy="0.32em">6</text></g><g class="tick" opacity="1" transform="translate(0,169.09504132231405)"><line stroke="#000" x2="-6"></line><text fill="#000" x="-9" dy="0.32em">8</text></g><g class="tick" opacity="1" transform="translate(0,129.42561983471072)"><line stroke="#000" x2="-6"></line><text fill="#000" x="-9" dy="0.32em">10</text></g><g class="tick" opacity="1" transform="translate(0,89.75619834710744)"><line stroke="#000" x2="-6"></line><text fill="#000" x="-9" dy="0.32em">12</text></g><g class="tick" opacity="1" transform="translate(0,50.08677685950414)"><line stroke="#000" x2="-6"></line><text fill="#000" x="-9" dy="0.32em">14</text></g><g class="tick" opacity="1" transform="translate(0,10.41735537190084)"><line stroke="#000" x2="-6"></line><text fill="#000" x="-9" dy="0.32em">16</text></g></g><text class="y label" text-anchor="middle" y="-50" x="-180" dy="0.8em" transform="rotate(-90)" style="font-size: 13px; font-family: Arial;">Total number of references</text><g class="axisRed" fill="none" font-size="10" font-family="sans-serif" text-anchor="start" visibility="hidden" transform="translate(700, 0)"><path class="domain" stroke="#000" d="M6,360.5H0.5V0.5H6"></path><g class="tick" opacity="1" transform="translate(0,360.5)"><line stroke="#000" x2="6"></line><text fill="#000" x="9" dy="0.32em">0</text></g><text text-anchor="start" dx="5.2em" dy="-2.6em" transform="rotate(90)" visibility="hidden" style="font-size: 12px; font-family: Arial; fill: #d7301f;">No recurrent (&gt;2) missense mutations!</text></g><g class="axisPurple" fill="none" font-size="10" font-family="sans-serif" text-anchor="start" visibility="hidden"><path class="domain" stroke="#000" d="M6,360.5H0.5V0.5H6"></path><g class="tick" opacity="1" transform="translate(0,357.52479338842977)"><line stroke="#000" x2="6"></line><text fill="#000" x="9" dy="0.32em"></text></g><g class="tick" opacity="1" transform="translate(0,327.77272727272725)"><line stroke="#000" x2="6"></line><text fill="#000" x="9" dy="0.32em">0</text></g><g class="tick" opacity="1" transform="translate(0,298.0206611570248)"><line stroke="#000" x2="6"></line><text fill="#000" x="9" dy="0.32em">0.1</text></g><g class="tick" opacity="1" transform="translate(0,268.2685950413223)"><line stroke="#000" x2="6"></line><text fill="#000" x="9" dy="0.32em">0.2</text></g><g class="tick" opacity="1" transform="translate(0,238.51652892561984)"><line stroke="#000" x2="6"></line><text fill="#000" x="9" dy="0.32em">0.3</text></g><g class="tick" opacity="1" transform="translate(0,208.76446280991738)"><line stroke="#000" x2="6"></line><text fill="#000" x="9" dy="0.32em">0.4</text></g><g class="tick" opacity="1" transform="translate(0,179.0123966942149)"><line stroke="#000" x2="6"></line><text fill="#000" x="9" dy="0.32em">0.5</text></g><g class="tick" opacity="1" transform="translate(0,149.26033057851242)"><line stroke="#000" x2="6"></line><text fill="#000" x="9" dy="0.32em">0.6</text></g><g class="tick" opacity="1" transform="translate(0,119.50826446280996)"><line stroke="#000" x2="6"></line><text fill="#000" x="9" dy="0.32em">0.7</text></g><g class="tick" opacity="1" transform="translate(0,89.75619834710744)"><line stroke="#000" x2="6"></line><text fill="#000" x="9" dy="0.32em">0.8</text></g><g class="tick" opacity="1" transform="translate(0,60.00413223140498)"><line stroke="#000" x2="6"></line><text fill="#000" x="9" dy="0.32em">0.9</text></g><g class="tick" opacity="1" transform="translate(0,30.25206611570252)"><line stroke="#000" x2="6"></line><text fill="#000" x="9" dy="0.32em">1</text></g><g class="tick" opacity="1" transform="translate(0,0.5)"><line stroke="#000" x2="6"></line><text fill="#000" x="9" dy="0.32em">1.1</text></g><text text-anchor="start" x="10" y="10" visibility="hidden" style="font-size: 12px; font-family: Arial; fill: #807dba;">No disease causing germline SNPs known!</text></g><circle cx="636" cy="15" r="10" class="compassNav" style="fill: #ffffff; stroke: #666666; stroke-width: 1px;"></circle><path d="M440.935 12.574l3.966 82.766C399.416 41.904 331.674 8 256 8 134.813 8 33.933 94.924 12.296 209.824 10.908 217.193 16.604 224 24.103 224h49.084c5.57 0 10.377-3.842 11.676-9.259C103.407 137.408 172.931 80 256 80c60.893 0 114.512 30.856 146.104 77.801l-101.53-4.865c-6.845-.328-12.574 5.133-12.574 11.986v47.411c0 6.627 5.373 12 12 12h200.333c6.627 0 12-5.373 12-12V12c0-6.627-5.373-12-12-12h-47.411c-6.853 0-12.315 5.729-11.987 12.574zM256 432c-60.895 0-114.517-30.858-146.109-77.805l101.868 4.871c6.845.327 12.573-5.134 12.573-11.986v-47.412c0-6.627-5.373-12-12-12H12c-6.627 0-12 5.373-12 12V500c0 6.627 5.373 12 12 12h47.385c6.863 0 12.328-5.745 11.985-12.599l-4.129-82.575C112.725 470.166 180.405 504 256 504c121.187 0 222.067-86.924 243.704-201.824 1.388-7.369-4.308-14.176-11.807-14.176h-49.084c-5.57 0-10.377 3.842-11.676 9.259C408.593 374.592 339.069 432 256 432z" class="compassNav" transform="translate(631, 10) scale(0.02)" style="fill: #666666; stroke: #666666; stroke-width: 1px;"></path><circle cx="658" cy="15" r="10" class="compassNav" style="fill: #ffffff; stroke: #666666; stroke-width: 1px;"></circle><line class="compassNav" stroke-width="2" stroke="#666666" x1="654" y1="15" x2="662" y2="15"></line><line class="compassNav" stroke-width="2" stroke="#666666" x1="658" y1="11" x2="658" y2="19"></line><circle cx="614" cy="15" r="10" class="compassNav" style="fill: #ffffff; stroke: #666666; stroke-width: 1px;"></circle><line class="compassNav" stroke-width="2" stroke="#666666" x1="610" y1="15" x2="618" y2="15"></line><path d="M582 14 l20 -12 a100,40 0 0,0 0,24z" class="compassNav" style="fill: #ffffff; stroke: #666666; stroke-width: 1px;"></path><path d="M690 14 l-20 -12 a100,40 0 0,1 0,24z" class="compassNav" style="fill: #ffffff; stroke: #666666; stroke-width: 1px;"></path><path d="M216 0h80c13.3 0 24 10.7 24 24v168h87.7c17.8 0 26.7 21.5 14.1 34.1L269.7 378.3c-7.5 7.5-19.8 7.5-27.3 0L90.1 226.1c-12.6-12.6-3.7-34.1 14.1-34.1H192V24c0-13.3 10.7-24 24-24zm296 376v112c0 13.3-10.7 24-24 24H24c-13.3 0-24-10.7-24-24V376c0-13.3 10.7-24 24-24h146.7l49 49c20.1 20.1 52.5 20.1 72.6 0l49-49H488c13.3 0 24 10.7 24 24zm-124 88c0-11-9-20-20-20s-20 9-20 20 9 20 20 20 20-9 20-20zm64 0c0-11-9-20-20-20s-20 9-20 20 9 20 20 20 20-9 20-20z" class="compassNav" transform="translate(552,0) scale(0.05)" style="fill: #336699; stroke: #336699; stroke-width: 1px; cursor: pointer;"></path></g></svg>