<svg width="800" height="400" style="background-color: white;"><g transform="translate(50,0)"><svg width="700" height="360"><g style="-webkit-tap-highlight-color: rgba(0, 0, 0, 0);"><rect width="700" height="360" style="fill: #ffffff;"></rect><g id="lines"><line class="line" stroke-width="1" stroke="#d7301f" x1="-501.4184397163121" y1="333" x2="-501.4184397163121" y2="360" visibility="hidden" style="stroke-dasharray: 3px, 3px;"></line></g><g><rect x="-506.4184397163121" y="355" width="10" height="10" visibility="hidden" style="fill: #ffffff; stroke: #d7301f;"></rect></g><g id="lines"><line class="line" stroke-width="1" stroke="#6a51a3" x1="-501.4184397163121" y1="333" x2="-501.4184397163121" y2="327.27272727272725" visibility="hidden" style="stroke-dasharray: 3px, 3px;"></line></g><g><rect x="-506.4184397163121" y="322.27272727272725" width="10" height="10" visibility="hidden" style="fill: #ffffff; stroke: #6a51a3;"></rect></g><g id="lines"><line class="line" stroke-width="1" stroke="#666666" x1="14.893617021276595" y1="333" x2="14.893617021276595" y2="324.5348070780307"></line><line class="line" stroke-width="1" stroke="#666666" x1="14.893617021276595" y1="333" x2="14.893617021276595" y2="327.04456725650255"></line><line class="line" stroke-width="1" stroke="#666666" x1="34.751773049645394" y1="333" x2="34.751773049645394" y2="326.3600872078284"></line><line class="line" stroke-width="1" stroke="#666666" x1="34.751773049645394" y1="333" x2="34.751773049645394" y2="324.306647061806"></line><line class="line" stroke-width="1" stroke="#666666" x1="39.716312056737586" y1="333" x2="39.716312056737586" y2="325.6756071591543"></line><line class="line" stroke-width="1" stroke="#666666" x1="54.60992907801418" y1="333" x2="54.60992907801418" y2="324.76296709425543"></line><line class="line" stroke-width="1" stroke="#666666" x1="54.60992907801418" y1="333" x2="54.60992907801418" y2="324.306647061806"></line><line class="line" stroke-width="1" stroke="#666666" x1="79.43262411347517" y1="333" x2="79.43262411347517" y2="324.76296709425543"></line><line class="line" stroke-width="1" stroke="#666666" x1="79.43262411347517" y1="333" x2="79.43262411347517" y2="325.6756071591543"></line><line class="line" stroke-width="1" stroke="#666666" x1="79.43262411347517" y1="333" x2="79.43262411347517" y2="327.04456725650255"></line><line class="line" stroke-width="1" stroke="#666666" x1="119.14893617021276" y1="333" x2="119.14893617021276" y2="29.75206611570252"></line><line class="line" stroke-width="1" stroke="#666666" x1="173.75886524822695" y1="333" x2="173.75886524822695" y2="324.76296709425543"></line><line class="line" stroke-width="1" stroke="#666666" x1="173.75886524822695" y1="333" x2="173.75886524822695" y2="327.04456725650255"></line><line class="line" stroke-width="1" stroke="#666666" x1="188.65248226950354" y1="333" x2="188.65248226950354" y2="326.81640724027784"></line><line class="line" stroke-width="1" stroke="#666666" x1="193.61702127659575" y1="333" x2="193.61702127659575" y2="326.81640724027784"></line><line class="line" stroke-width="1" stroke="#666666" x1="198.58156028368796" y1="333" x2="198.58156028368796" y2="322.709526948233"></line><line class="line" stroke-width="1" stroke="#666666" x1="198.58156028368796" y1="333" x2="198.58156028368796" y2="323.16584698068243"></line><line class="line" stroke-width="1" stroke="#666666" x1="198.58156028368796" y1="333" x2="198.58156028368796" y2="327.04456725650255"></line><line class="line" stroke-width="1" stroke="#666666" x1="203.54609929078012" y1="333" x2="203.54609929078012" y2="324.76296709425543"></line><line class="line" stroke-width="1" stroke="#666666" x1="208.51063829787233" y1="333" x2="208.51063829787233" y2="309.248085990975"></line><line class="line" stroke-width="1" stroke="#666666" x1="218.43971631205673" y1="333" x2="218.43971631205673" y2="327.04456725650255"></line><line class="line" stroke-width="1" stroke="#666666" x1="243.26241134751774" y1="333" x2="243.26241134751774" y2="325.6756071591543"></line><line class="line" stroke-width="1" stroke="#666666" x1="258.1560283687943" y1="333" x2="258.1560283687943" y2="325.903767175379"></line><line class="line" stroke-width="1" stroke="#666666" x1="278.01418439716315" y1="333" x2="278.01418439716315" y2="323.39400699690714"></line><line class="line" stroke-width="1" stroke="#666666" x1="278.01418439716315" y1="333" x2="278.01418439716315" y2="324.76296709425543"></line><line class="line" stroke-width="1" stroke="#666666" x1="297.87234042553195" y1="333" x2="297.87234042553195" y2="325.6756071591543"></line><line class="line" stroke-width="1" stroke="#666666" x1="297.87234042553195" y1="333" x2="297.87234042553195" y2="327.04456725650255"></line><line class="line" stroke-width="1" stroke="#666666" x1="302.83687943262413" y1="333" x2="302.83687943262413" y2="326.81640724027784"></line><line class="line" stroke-width="1" stroke="#666666" x1="302.83687943262413" y1="333" x2="302.83687943262413" y2="326.81640724027784"></line><line class="line" stroke-width="1" stroke="#666666" x1="302.83687943262413" y1="333" x2="302.83687943262413" y2="327.04456725650255"></line><line class="line" stroke-width="1" stroke="#666666" x1="302.83687943262413" y1="333" x2="302.83687943262413" y2="327.04456725650255"></line><line class="line" stroke-width="1" stroke="#666666" x1="337.5886524822695" y1="333" x2="337.5886524822695" y2="327.04456725650255"></line><line class="line" stroke-width="1" stroke="#666666" x1="402.1276595744681" y1="333" x2="402.1276595744681" y2="326.81640724027784"></line><line class="line" stroke-width="1" stroke="#666666" x1="446.8085106382979" y1="333" x2="446.8085106382979" y2="323.8503270293566"></line><line class="line" stroke-width="1" stroke="#666666" x1="446.8085106382979" y1="333" x2="446.8085106382979" y2="323.6221670131319"></line><line class="line" stroke-width="1" stroke="#666666" x1="446.8085106382979" y1="333" x2="446.8085106382979" y2="327.04456725650255"></line><line class="line" stroke-width="1" stroke="#666666" x1="491.48936170212767" y1="333" x2="491.48936170212767" y2="320.8842468184353"></line><line class="line" stroke-width="1" stroke="#666666" x1="491.48936170212767" y1="333" x2="491.48936170212767" y2="327.04456725650255"></line><line class="line" stroke-width="1" stroke="#666666" x1="536.1702127659574" y1="333" x2="536.1702127659574" y2="326.81640724027784"></line><line class="line" stroke-width="1" stroke="#666666" x1="650.354609929078" y1="333" x2="650.354609929078" y2="324.0784870455813"></line><line class="line" stroke-width="1" stroke="#666666" x1="660.2836879432624" y1="333" x2="660.2836879432624" y2="327.04456725650255"></line><line class="line" stroke-width="1" stroke="#666666" x1="660.2836879432624" y1="333" x2="660.2836879432624" y2="327.04456725650255"></line><line class="line" stroke-width="1" stroke="#666666" x1="665.2482269503546" y1="333" x2="665.2482269503546" y2="324.99112711048014"></line><line class="line" stroke-width="1" stroke="#666666" x1="680.1418439716311" y1="333" x2="680.1418439716311" y2="326.3600872078284"></line><line class="line" stroke-width="1" stroke="#666666" x1="685.1063829787233" y1="333" x2="685.1063829787233" y2="326.58824722405313"></line><line class="line" stroke-width="1" stroke="#666666" x1="690.0709219858156" y1="333" x2="690.0709219858156" y2="326.1319271916037"></line><line class="line" stroke-width="1" stroke="#666666" x1="690.0709219858156" y1="333" x2="690.0709219858156" y2="326.81640724027784"></line><line class="line" stroke-width="1" stroke="#666666" x1="695.0354609929078" y1="333" x2="695.0354609929078" y2="325.2192871267049"></line></g><g id="circles"><circle r="4" cx="14.893617021276595" cy="324.5348070780307" style="fill: #4393c3; stroke: #666666; stroke-width: 1px;"></circle><circle r="4" cx="14.893617021276595" cy="327.04456725650255" style="fill: #666666; stroke: #666666; stroke-width: 1px;"></circle><circle r="4" cx="34.751773049645394" cy="326.3600872078284" style="fill: #5aae61; stroke: #666666; stroke-width: 1px;"></circle><circle r="4" cx="34.751773049645394" cy="324.306647061806" style="fill: #bf812d; stroke: #666666; stroke-width: 1px;"></circle><circle r="4" cx="39.716312056737586" cy="325.6756071591543" style="fill: #4393c3; stroke: #666666; stroke-width: 1px;"></circle><circle r="4" cx="54.60992907801418" cy="324.76296709425543" style="fill: #5aae61; stroke: #666666; stroke-width: 1px;"></circle><circle r="4" cx="54.60992907801418" cy="324.306647061806" style="fill: #bf812d; stroke: #666666; stroke-width: 1px;"></circle><circle r="4" cx="79.43262411347517" cy="324.76296709425543" style="fill: #5aae61; stroke: #666666; stroke-width: 1px;"></circle><circle r="4" cx="79.43262411347517" cy="325.6756071591543" style="fill: #bf812d; stroke: #666666; stroke-width: 1px;"></circle><circle r="4" cx="79.43262411347517" cy="327.04456725650255" style="fill: #666666; stroke: #666666; stroke-width: 1px;"></circle><circle r="4" cx="119.14893617021276" cy="29.75206611570252" style="fill: #4393c3; stroke: #666666; stroke-width: 1px;"></circle><circle r="4" cx="173.75886524822695" cy="324.76296709425543" style="fill: #4393c3; stroke: #666666; stroke-width: 1px;"></circle><circle r="4" cx="173.75886524822695" cy="327.04456725650255" style="fill: #666666; stroke: #666666; stroke-width: 1px;"></circle><circle r="4" cx="188.65248226950354" cy="326.81640724027784" style="fill: #4393c3; stroke: #666666; stroke-width: 1px;"></circle><circle r="4" cx="193.61702127659575" cy="326.81640724027784" style="fill: #4393c3; stroke: #666666; stroke-width: 1px;"></circle><circle r="4" cx="198.58156028368796" cy="322.709526948233" style="fill: #5aae61; stroke: #666666; stroke-width: 1px;"></circle><circle r="4" cx="198.58156028368796" cy="323.16584698068243" style="fill: #bf812d; stroke: #666666; stroke-width: 1px;"></circle><circle r="4" cx="198.58156028368796" cy="327.04456725650255" style="fill: #666666; stroke: #666666; stroke-width: 1px;"></circle><circle r="4" cx="203.54609929078012" cy="324.76296709425543" style="fill: #4393c3; stroke: #666666; stroke-width: 1px;"></circle><circle r="4" cx="208.51063829787233" cy="309.248085990975" style="fill: #4393c3; stroke: #666666; stroke-width: 1px;"></circle><circle r="4" cx="218.43971631205673" cy="327.04456725650255" style="fill: #4393c3; stroke: #666666; stroke-width: 1px;"></circle><circle r="4" cx="243.26241134751774" cy="325.6756071591543" style="fill: #4393c3; stroke: #666666; stroke-width: 1px;"></circle><circle r="4" cx="258.1560283687943" cy="325.903767175379" style="fill: #4393c3; stroke: #666666; stroke-width: 1px;"></circle><circle r="4" cx="278.01418439716315" cy="323.39400699690714" style="fill: #5aae61; stroke: #666666; stroke-width: 1px;"></circle><circle r="4" cx="278.01418439716315" cy="324.76296709425543" style="fill: #bf812d; stroke: #666666; stroke-width: 1px;"></circle><circle r="4" cx="297.87234042553195" cy="325.6756071591543" style="fill: #5aae61; stroke: #666666; stroke-width: 1px;"></circle><circle r="4" cx="297.87234042553195" cy="327.04456725650255" style="fill: #bf812d; stroke: #666666; stroke-width: 1px;"></circle><circle r="4" cx="302.83687943262413" cy="326.81640724027784" style="fill: #5aae61; stroke: #666666; stroke-width: 1px;"></circle><circle r="4" cx="302.83687943262413" cy="326.81640724027784" style="fill: #666666; stroke: #666666; stroke-width: 1px;"></circle><circle r="4" cx="302.83687943262413" cy="327.04456725650255" style="fill: #bf812d; stroke: #666666; stroke-width: 1px;"></circle><circle r="4" cx="302.83687943262413" cy="327.04456725650255" style="fill: #666666; stroke: #666666; stroke-width: 1px;"></circle><circle r="4" cx="337.5886524822695" cy="327.04456725650255" style="fill: #5aae61; stroke: #666666; stroke-width: 1px;"></circle><circle r="4" cx="402.1276595744681" cy="326.81640724027784" style="fill: #4393c3; stroke: #666666; stroke-width: 1px;"></circle><circle r="4" cx="446.8085106382979" cy="323.8503270293566" style="fill: #5aae61; stroke: #666666; stroke-width: 1px;"></circle><circle r="4" cx="446.8085106382979" cy="323.6221670131319" style="fill: #bf812d; stroke: #666666; stroke-width: 1px;"></circle><circle r="4" cx="446.8085106382979" cy="327.04456725650255" style="fill: #666666; stroke: #666666; stroke-width: 1px;"></circle><circle r="4" cx="491.48936170212767" cy="320.8842468184353" style="fill: #5aae61; stroke: #666666; stroke-width: 1px;"></circle><circle r="4" cx="491.48936170212767" cy="327.04456725650255" style="fill: #bf812d; stroke: #666666; stroke-width: 1px;"></circle><circle r="4" cx="536.1702127659574" cy="326.81640724027784" style="fill: #4393c3; stroke: #666666; stroke-width: 1px;"></circle><circle r="4" cx="650.354609929078" cy="324.0784870455813" style="fill: #4393c3; stroke: #666666; stroke-width: 1px;"></circle><circle r="4" cx="660.2836879432624" cy="327.04456725650255" style="fill: #4393c3; stroke: #666666; stroke-width: 1px;"></circle><circle r="4" cx="660.2836879432624" cy="327.04456725650255" style="fill: #666666; stroke: #666666; stroke-width: 1px;"></circle><circle r="4" cx="665.2482269503546" cy="324.99112711048014" style="fill: #4393c3; stroke: #666666; stroke-width: 1px;"></circle><circle r="4" cx="680.1418439716311" cy="326.3600872078284" style="fill: #4393c3; stroke: #666666; stroke-width: 1px;"></circle><circle r="4" cx="685.1063829787233" cy="326.58824722405313" style="fill: #4393c3; stroke: #666666; stroke-width: 1px;"></circle><circle r="4" cx="690.0709219858156" cy="326.1319271916037" style="fill: #5aae61; stroke: #666666; stroke-width: 1px;"></circle><circle r="4" cx="690.0709219858156" cy="326.81640724027784" style="fill: #bf812d; stroke: #666666; stroke-width: 1px;"></circle><circle r="4" cx="695.0354609929078" cy="325.2192871267049" style="fill: #4393c3; stroke: #666666; stroke-width: 1px;"></circle></g><g><rect x="0" y="333" width="700" height="12" style="fill: #ffffff; stroke-width: 1px; stroke: #666666;"></rect><rect x="29.78723404255319" y="333" width="496.4539007092199" height="12" style="fill: #aec7e8; stroke-width: 1px; stroke: #666666;"></rect></g><g><a target="_blank" xlink:href="http://pfam.xfam.org/family/"><text y="343" x="350" text-anchor="middle" style="color: rgb(102, 102, 102); font-weight: normal; font-size: 12px; font-family: Arial; cursor: pointer;"></text></a><a target="_blank" xlink:href="http://pfam.xfam.org/family/Globin"><text y="343" x="278.01418439716315" text-anchor="middle" style="color: rgb(102, 102, 102); font-weight: normal; font-size: 12px; font-family: Arial; cursor: pointer;">Globin</text></a></g><g><text y="358" x="0" text-anchor="middle" visibility="hidden" style="font-size: 13px;">M</text><text y="358" x="4.964539007092198" text-anchor="middle" visibility="hidden" style="font-size: 13px;">V</text><text y="358" x="9.929078014184396" text-anchor="middle" visibility="hidden" style="font-size: 13px;">L</text><text y="358" x="14.893617021276595" text-anchor="middle" visibility="hidden" style="font-size: 13px;">S</text><text y="358" x="19.858156028368793" text-anchor="middle" visibility="hidden" style="font-size: 13px;">P</text><text y="358" x="24.822695035460995" text-anchor="middle" visibility="hidden" style="font-size: 13px;">A</text><text y="358" x="29.78723404255319" text-anchor="middle" visibility="hidden" style="font-size: 13px;">D</text><text y="358" x="34.751773049645394" text-anchor="middle" visibility="hidden" style="font-size: 13px;">K</text><text y="358" x="39.716312056737586" text-anchor="middle" visibility="hidden" style="font-size: 13px;">T</text><text y="358" x="44.680851063829785" text-anchor="middle" visibility="hidden" style="font-size: 13px;">N</text><text y="358" x="49.64539007092199" text-anchor="middle" visibility="hidden" style="font-size: 13px;">V</text><text y="358" x="54.60992907801418" text-anchor="middle" visibility="hidden" style="font-size: 13px;">K</text><text y="358" x="59.57446808510638" text-anchor="middle" visibility="hidden" style="font-size: 13px;">A</text><text y="358" x="64.53900709219857" text-anchor="middle" visibility="hidden" style="font-size: 13px;">A</text><text y="358" x="69.50354609929079" text-anchor="middle" visibility="hidden" style="font-size: 13px;">W</text><text y="358" x="74.46808510638299" text-anchor="middle" visibility="hidden" style="font-size: 13px;">G</text><text y="358" x="79.43262411347517" text-anchor="middle" visibility="hidden" style="font-size: 13px;">K</text><text y="358" x="84.39716312056737" text-anchor="middle" visibility="hidden" style="font-size: 13px;">V</text><text y="358" x="89.36170212765957" text-anchor="middle" visibility="hidden" style="font-size: 13px;">G</text><text y="358" x="94.32624113475177" text-anchor="middle" visibility="hidden" style="font-size: 13px;">A</text><text y="358" x="99.29078014184398" text-anchor="middle" visibility="hidden" style="font-size: 13px;">H</text><text y="358" x="104.25531914893617" text-anchor="middle" visibility="hidden" style="font-size: 13px;">A</text><text y="358" x="109.21985815602837" text-anchor="middle" visibility="hidden" style="font-size: 13px;">G</text><text y="358" x="114.18439716312058" text-anchor="middle" visibility="hidden" style="font-size: 13px;">E</text><text y="358" x="119.14893617021276" text-anchor="middle" visibility="hidden" style="font-size: 13px;">Y</text><text y="358" x="124.11347517730496" text-anchor="middle" visibility="hidden" style="font-size: 13px;">G</text><text y="358" x="129.07801418439715" text-anchor="middle" visibility="hidden" style="font-size: 13px;">A</text><text y="358" x="134.04255319148936" text-anchor="middle" visibility="hidden" style="font-size: 13px;">E</text><text y="358" x="139.00709219858157" text-anchor="middle" visibility="hidden" style="font-size: 13px;">A</text><text y="358" x="143.97163120567376" text-anchor="middle" visibility="hidden" style="font-size: 13px;">L</text><text y="358" x="148.93617021276597" text-anchor="middle" visibility="hidden" style="font-size: 13px;">E</text><text y="358" x="153.90070921985816" text-anchor="middle" visibility="hidden" style="font-size: 13px;">R</text><text y="358" x="158.86524822695034" text-anchor="middle" visibility="hidden" style="font-size: 13px;">M</text><text y="358" x="163.82978723404256" text-anchor="middle" visibility="hidden" style="font-size: 13px;">F</text><text y="358" x="168.79432624113474" text-anchor="middle" visibility="hidden" style="font-size: 13px;">L</text><text y="358" x="173.75886524822695" text-anchor="middle" visibility="hidden" style="font-size: 13px;">S</text><text y="358" x="178.72340425531914" text-anchor="middle" visibility="hidden" style="font-size: 13px;">F</text><text y="358" x="183.68794326241135" text-anchor="middle" visibility="hidden" style="font-size: 13px;">P</text><text y="358" x="188.65248226950354" text-anchor="middle" visibility="hidden" style="font-size: 13px;">T</text><text y="358" x="193.61702127659575" text-anchor="middle" visibility="hidden" style="font-size: 13px;">T</text><text y="358" x="198.58156028368796" text-anchor="middle" visibility="hidden" style="font-size: 13px;">K</text><text y="358" x="203.54609929078012" text-anchor="middle" visibility="hidden" style="font-size: 13px;">T</text><text y="358" x="208.51063829787233" text-anchor="middle" visibility="hidden" style="font-size: 13px;">Y</text><text y="358" x="213.47517730496455" text-anchor="middle" visibility="hidden" style="font-size: 13px;">F</text><text y="358" x="218.43971631205673" text-anchor="middle" visibility="hidden" style="font-size: 13px;">P</text><text y="358" x="223.40425531914894" text-anchor="middle" visibility="hidden" style="font-size: 13px;">H</text><text y="358" x="228.36879432624116" text-anchor="middle" visibility="hidden" style="font-size: 13px;">F</text><text y="358" x="233.33333333333331" text-anchor="middle" visibility="hidden" style="font-size: 13px;">D</text><text y="358" x="238.29787234042553" text-anchor="middle" visibility="hidden" style="font-size: 13px;">L</text><text y="358" x="243.26241134751774" text-anchor="middle" visibility="hidden" style="font-size: 13px;">S</text><text y="358" x="248.22695035460993" text-anchor="middle" visibility="hidden" style="font-size: 13px;">H</text><text y="358" x="253.19148936170214" text-anchor="middle" visibility="hidden" style="font-size: 13px;">G</text><text y="358" x="258.1560283687943" text-anchor="middle" visibility="hidden" style="font-size: 13px;">S</text><text y="358" x="263.12056737588654" text-anchor="middle" visibility="hidden" style="font-size: 13px;">A</text><text y="358" x="268.0851063829787" text-anchor="middle" visibility="hidden" style="font-size: 13px;">Q</text><text y="358" x="273.0496453900709" text-anchor="middle" visibility="hidden" style="font-size: 13px;">V</text><text y="358" x="278.01418439716315" text-anchor="middle" visibility="hidden" style="font-size: 13px;">K</text><text y="358" x="282.9787234042553" text-anchor="middle" visibility="hidden" style="font-size: 13px;">G</text><text y="358" x="287.9432624113475" text-anchor="middle" visibility="hidden" style="font-size: 13px;">H</text><text y="358" x="292.9078014184397" text-anchor="middle" visibility="hidden" style="font-size: 13px;">G</text><text y="358" x="297.87234042553195" text-anchor="middle" visibility="hidden" style="font-size: 13px;">K</text><text y="358" x="302.83687943262413" text-anchor="middle" visibility="hidden" style="font-size: 13px;">K</text><text y="358" x="307.8014184397163" text-anchor="middle" visibility="hidden" style="font-size: 13px;">V</text><text y="358" x="312.7659574468085" text-anchor="middle" visibility="hidden" style="font-size: 13px;">A</text><text y="358" x="317.7304964539007" text-anchor="middle" visibility="hidden" style="font-size: 13px;">D</text><text y="358" x="322.6950354609929" text-anchor="middle" visibility="hidden" style="font-size: 13px;">A</text><text y="358" x="327.6595744680851" text-anchor="middle" visibility="hidden" style="font-size: 13px;">L</text><text y="358" x="332.6241134751773" text-anchor="middle" visibility="hidden" style="font-size: 13px;">T</text><text y="358" x="337.5886524822695" text-anchor="middle" visibility="hidden" style="font-size: 13px;">N</text><text y="358" x="342.55319148936167" text-anchor="middle" visibility="hidden" style="font-size: 13px;">A</text><text y="358" x="347.5177304964539" text-anchor="middle" visibility="hidden" style="font-size: 13px;">V</text><text y="358" x="352.48226950354604" text-anchor="middle" visibility="hidden" style="font-size: 13px;">A</text><text y="358" x="357.4468085106383" text-anchor="middle" visibility="hidden" style="font-size: 13px;">H</text><text y="358" x="362.41134751773046" text-anchor="middle" visibility="hidden" style="font-size: 13px;">V</text><text y="358" x="367.3758865248227" text-anchor="middle" visibility="hidden" style="font-size: 13px;">D</text><text y="358" x="372.3404255319149" text-anchor="middle" visibility="hidden" style="font-size: 13px;">D</text><text y="358" x="377.3049645390071" text-anchor="middle" visibility="hidden" style="font-size: 13px;">M</text><text y="358" x="382.2695035460993" text-anchor="middle" visibility="hidden" style="font-size: 13px;">P</text><text y="358" x="387.2340425531915" text-anchor="middle" visibility="hidden" style="font-size: 13px;">N</text><text y="358" x="392.1985815602837" text-anchor="middle" visibility="hidden" style="font-size: 13px;">A</text><text y="358" x="397.1631205673759" text-anchor="middle" visibility="hidden" style="font-size: 13px;">L</text><text y="358" x="402.1276595744681" text-anchor="middle" visibility="hidden" style="font-size: 13px;">S</text><text y="358" x="407.09219858156024" text-anchor="middle" visibility="hidden" style="font-size: 13px;">A</text><text y="358" x="412.0567375886525" text-anchor="middle" visibility="hidden" style="font-size: 13px;">L</text><text y="358" x="417.02127659574467" text-anchor="middle" visibility="hidden" style="font-size: 13px;">S</text><text y="358" x="421.98581560283685" text-anchor="middle" visibility="hidden" style="font-size: 13px;">D</text><text y="358" x="426.9503546099291" text-anchor="middle" visibility="hidden" style="font-size: 13px;">L</text><text y="358" x="431.9148936170213" text-anchor="middle" visibility="hidden" style="font-size: 13px;">H</text><text y="358" x="436.87943262411346" text-anchor="middle" visibility="hidden" style="font-size: 13px;">A</text><text y="358" x="441.8439716312057" text-anchor="middle" visibility="hidden" style="font-size: 13px;">H</text><text y="358" x="446.8085106382979" text-anchor="middle" visibility="hidden" style="font-size: 13px;">K</text><text y="358" x="451.7730496453901" text-anchor="middle" visibility="hidden" style="font-size: 13px;">L</text><text y="358" x="456.7375886524823" text-anchor="middle" visibility="hidden" style="font-size: 13px;">R</text><text y="358" x="461.70212765957444" text-anchor="middle" visibility="hidden" style="font-size: 13px;">V</text><text y="358" x="466.66666666666663" text-anchor="middle" visibility="hidden" style="font-size: 13px;">D</text><text y="358" x="471.63120567375887" text-anchor="middle" visibility="hidden" style="font-size: 13px;">P</text><text y="358" x="476.59574468085106" text-anchor="middle" visibility="hidden" style="font-size: 13px;">V</text><text y="358" x="481.56028368794324" text-anchor="middle" visibility="hidden" style="font-size: 13px;">N</text><text y="358" x="486.5248226950355" text-anchor="middle" visibility="hidden" style="font-size: 13px;">F</text><text y="358" x="491.48936170212767" text-anchor="middle" visibility="hidden" style="font-size: 13px;">K</text><text y="358" x="496.45390070921985" text-anchor="middle" visibility="hidden" style="font-size: 13px;">L</text><text y="358" x="501.4184397163121" text-anchor="middle" visibility="hidden" style="font-size: 13px;">L</text><text y="358" x="506.3829787234043" text-anchor="middle" visibility="hidden" style="font-size: 13px;">S</text><text y="358" x="511.3475177304965" text-anchor="middle" visibility="hidden" style="font-size: 13px;">H</text><text y="358" x="516.3120567375886" text-anchor="middle" visibility="hidden" style="font-size: 13px;">C</text><text y="358" x="521.2765957446808" text-anchor="middle" visibility="hidden" style="font-size: 13px;">L</text><text y="358" x="526.2411347517731" text-anchor="middle" visibility="hidden" style="font-size: 13px;">L</text><text y="358" x="531.2056737588653" text-anchor="middle" visibility="hidden" style="font-size: 13px;">V</text><text y="358" x="536.1702127659574" text-anchor="middle" visibility="hidden" style="font-size: 13px;">T</text><text y="358" x="541.1347517730496" text-anchor="middle" visibility="hidden" style="font-size: 13px;">L</text><text y="358" x="546.0992907801418" text-anchor="middle" visibility="hidden" style="font-size: 13px;">A</text><text y="358" x="551.0638297872341" text-anchor="middle" visibility="hidden" style="font-size: 13px;">A</text><text y="358" x="556.0283687943263" text-anchor="middle" visibility="hidden" style="font-size: 13px;">H</text><text y="358" x="560.9929078014185" text-anchor="middle" visibility="hidden" style="font-size: 13px;">L</text><text y="358" x="565.9574468085106" text-anchor="middle" visibility="hidden" style="font-size: 13px;">P</text><text y="358" x="570.9219858156029" text-anchor="middle" visibility="hidden" style="font-size: 13px;">A</text><text y="358" x="575.886524822695" text-anchor="middle" visibility="hidden" style="font-size: 13px;">E</text><text y="358" x="580.8510638297872" text-anchor="middle" visibility="hidden" style="font-size: 13px;">F</text><text y="358" x="585.8156028368794" text-anchor="middle" visibility="hidden" style="font-size: 13px;">T</text><text y="358" x="590.7801418439716" text-anchor="middle" visibility="hidden" style="font-size: 13px;">P</text><text y="358" x="595.7446808510639" text-anchor="middle" visibility="hidden" style="font-size: 13px;">A</text><text y="358" x="600.7092198581561" text-anchor="middle" visibility="hidden" style="font-size: 13px;">V</text><text y="358" x="605.6737588652483" text-anchor="middle" visibility="hidden" style="font-size: 13px;">H</text><text y="358" x="610.6382978723404" text-anchor="middle" visibility="hidden" style="font-size: 13px;">A</text><text y="358" x="615.6028368794326" text-anchor="middle" visibility="hidden" style="font-size: 13px;">S</text><text y="358" x="620.5673758865248" text-anchor="middle" visibility="hidden" style="font-size: 13px;">L</text><text y="358" x="625.531914893617" text-anchor="middle" visibility="hidden" style="font-size: 13px;">D</text><text y="358" x="630.4964539007092" text-anchor="middle" visibility="hidden" style="font-size: 13px;">K</text><text y="358" x="635.4609929078014" text-anchor="middle" visibility="hidden" style="font-size: 13px;">F</text><text y="358" x="640.4255319148936" text-anchor="middle" visibility="hidden" style="font-size: 13px;">L</text><text y="358" x="645.3900709219859" text-anchor="middle" visibility="hidden" style="font-size: 13px;">A</text><text y="358" x="650.354609929078" text-anchor="middle" visibility="hidden" style="font-size: 13px;">S</text><text y="358" x="655.3191489361702" text-anchor="middle" visibility="hidden" style="font-size: 13px;">V</text><text y="358" x="660.2836879432624" text-anchor="middle" visibility="hidden" style="font-size: 13px;">S</text><text y="358" x="665.2482269503546" text-anchor="middle" visibility="hidden" style="font-size: 13px;">T</text><text y="358" x="670.2127659574469" text-anchor="middle" visibility="hidden" style="font-size: 13px;">V</text><text y="358" x="675.177304964539" text-anchor="middle" visibility="hidden" style="font-size: 13px;">L</text><text y="358" x="680.1418439716311" text-anchor="middle" visibility="hidden" style="font-size: 13px;">T</text><text y="358" x="685.1063829787233" text-anchor="middle" visibility="hidden" style="font-size: 13px;">S</text><text y="358" x="690.0709219858156" text-anchor="middle" visibility="hidden" style="font-size: 13px;">K</text><text y="358" x="695.0354609929078" text-anchor="middle" visibility="hidden" style="font-size: 13px;">Y</text><text y="358" x="700" text-anchor="middle" visibility="hidden" style="font-size: 13px;">R</text></g></g></svg><g class="xAxis" transform="translate(0,360)" fill="none" font-size="10" font-family="sans-serif" text-anchor="middle"><path class="domain" stroke="#000" d="M0.5,6V0.5H700.5V6"></path><g class="tick" opacity="1" transform="translate(45.180851063829785,0)"><line stroke="#000" y2="6"></line><text fill="#000" y="9" dy="0.71em">10</text></g><g class="tick" opacity="1" transform="translate(94.82624113475177,0)"><line stroke="#000" y2="6"></line><text fill="#000" y="9" dy="0.71em">20</text></g><g class="tick" opacity="1" transform="translate(144.47163120567376,0)"><line stroke="#000" y2="6"></line><text fill="#000" y="9" dy="0.71em">30</text></g><g class="tick" opacity="1" transform="translate(194.11702127659575,0)"><line stroke="#000" y2="6"></line><text fill="#000" y="9" dy="0.71em">40</text></g><g class="tick" opacity="1" transform="translate(243.76241134751774,0)"><line stroke="#000" y2="6"></line><text fill="#000" y="9" dy="0.71em">50</text></g><g class="tick" opacity="1" transform="translate(293.4078014184397,0)"><line stroke="#000" y2="6"></line><text fill="#000" y="9" dy="0.71em">60</text></g><g class="tick" opacity="1" transform="translate(343.05319148936167,0)"><line stroke="#000" y2="6"></line><text fill="#000" y="9" dy="0.71em">70</text></g><g class="tick" opacity="1" transform="translate(392.6985815602837,0)"><line stroke="#000" y2="6"></line><text fill="#000" y="9" dy="0.71em">80</text></g><g class="tick" opacity="1" transform="translate(442.3439716312057,0)"><line stroke="#000" y2="6"></line><text fill="#000" y="9" dy="0.71em">90</text></g><g class="tick" opacity="1" transform="translate(491.98936170212767,0)"><line stroke="#000" y2="6"></line><text fill="#000" y="9" dy="0.71em">100</text></g><g class="tick" opacity="1" transform="translate(541.6347517730496,0)"><line stroke="#000" y2="6"></line><text fill="#000" y="9" dy="0.71em">110</text></g><g class="tick" opacity="1" transform="translate(591.2801418439716,0)"><line stroke="#000" y2="6"></line><text fill="#000" y="9" dy="0.71em">120</text></g><g class="tick" opacity="1" transform="translate(640.9255319148936,0)"><line stroke="#000" y2="6"></line><text fill="#000" y="9" dy="0.71em">130</text></g><g class="tick" opacity="1" transform="translate(690.5709219858156,0)"><line stroke="#000" y2="6"></line><text fill="#000" y="9" dy="0.71em">140</text></g></g><text class="x label" text-anchor="end" x="700" y="390" style="font-size: 13px; font-family: Arial;">Residue number</text><g class="yAxis" fill="none" font-size="10" font-family="sans-serif" text-anchor="end"><path class="domain" stroke="#000" d="M-6,360.5H0.5V0.5H-6"></path><g class="tick" opacity="1" transform="translate(0,327.77272727272725)"><line stroke="#000" x2="-6"></line><text fill="#000" x="-9" dy="0.32em">0</text></g><g class="tick" opacity="1" transform="translate(0,282.1407240277848)"><line stroke="#000" x2="-6"></line><text fill="#000" x="-9" dy="0.32em">200</text></g><g class="tick" opacity="1" transform="translate(0,236.50872078284237)"><line stroke="#000" x2="-6"></line><text fill="#000" x="-9" dy="0.32em">400</text></g><g class="tick" opacity="1" transform="translate(0,190.87671753789994)"><line stroke="#000" x2="-6"></line><text fill="#000" x="-9" dy="0.32em">600</text></g><g class="tick" opacity="1" transform="translate(0,145.24471429295747)"><line stroke="#000" x2="-6"></line><text fill="#000" x="-9" dy="0.32em">800</text></g><g class="tick" opacity="1" transform="translate(0,99.612711048015)"><line stroke="#000" x2="-6"></line><text fill="#000" x="-9" dy="0.32em">1000</text></g><g class="tick" opacity="1" transform="translate(0,53.98070780307256)"><line stroke="#000" x2="-6"></line><text fill="#000" x="-9" dy="0.32em">1200</text></g><g class="tick" opacity="1" transform="translate(0,8.348704558130123)"><line stroke="#000" x2="-6"></line><text fill="#000" x="-9" dy="0.32em">1400</text></g></g><text class="y label" text-anchor="middle" y="-50" x="-180" dy="0.8em" transform="rotate(-90)" style="font-size: 13px; font-family: Arial;">Total number of references</text><g class="axisRed" fill="none" font-size="10" font-family="sans-serif" text-anchor="start" visibility="hidden" transform="translate(700, 0)"><path class="domain" stroke="#000" d="M6,360.5H0.5V0.5H6"></path><g class="tick" opacity="1" transform="translate(0,360.5)"><line stroke="#000" x2="6"></line><text fill="#000" x="9" dy="0.32em">0</text></g><text text-anchor="start" dx="5.2em" dy="-2.6em" transform="rotate(90)" visibility="hidden" style="font-size: 12px; font-family: Arial; fill: #d7301f;">No recurrent (&gt;2) missense mutations!</text></g><g class="axisPurple" fill="none" font-size="10" font-family="sans-serif" text-anchor="start" visibility="hidden"><path class="domain" stroke="#000" d="M6,360.5H0.5V0.5H6"></path><g class="tick" opacity="1" transform="translate(0,357.52479338842977)"><line stroke="#000" x2="6"></line><text fill="#000" x="9" dy="0.32em"></text></g><g class="tick" opacity="1" transform="translate(0,327.77272727272725)"><line stroke="#000" x2="6"></line><text fill="#000" x="9" dy="0.32em">0</text></g><g class="tick" opacity="1" transform="translate(0,298.0206611570248)"><line stroke="#000" x2="6"></line><text fill="#000" x="9" dy="0.32em">0.1</text></g><g class="tick" opacity="1" transform="translate(0,268.2685950413223)"><line stroke="#000" x2="6"></line><text fill="#000" x="9" dy="0.32em">0.2</text></g><g class="tick" opacity="1" transform="translate(0,238.51652892561984)"><line stroke="#000" x2="6"></line><text fill="#000" x="9" dy="0.32em">0.3</text></g><g class="tick" opacity="1" transform="translate(0,208.76446280991738)"><line stroke="#000" x2="6"></line><text fill="#000" x="9" dy="0.32em">0.4</text></g><g class="tick" opacity="1" transform="translate(0,179.0123966942149)"><line stroke="#000" x2="6"></line><text fill="#000" x="9" dy="0.32em">0.5</text></g><g class="tick" opacity="1" transform="translate(0,149.26033057851242)"><line stroke="#000" x2="6"></line><text fill="#000" x="9" dy="0.32em">0.6</text></g><g class="tick" opacity="1" transform="translate(0,119.50826446280996)"><line stroke="#000" x2="6"></line><text fill="#000" x="9" dy="0.32em">0.7</text></g><g class="tick" opacity="1" transform="translate(0,89.75619834710744)"><line stroke="#000" x2="6"></line><text fill="#000" x="9" dy="0.32em">0.8</text></g><g class="tick" opacity="1" transform="translate(0,60.00413223140498)"><line stroke="#000" x2="6"></line><text fill="#000" x="9" dy="0.32em">0.9</text></g><g class="tick" opacity="1" transform="translate(0,30.25206611570252)"><line stroke="#000" x2="6"></line><text fill="#000" x="9" dy="0.32em">1</text></g><g class="tick" opacity="1" transform="translate(0,0.5)"><line stroke="#000" x2="6"></line><text fill="#000" x="9" dy="0.32em">1.1</text></g><text text-anchor="start" x="10" y="10" visibility="hidden" style="font-size: 12px; font-family: Arial; fill: #807dba;">No disease causing germline SNPs known!</text></g><circle cx="636" cy="15" r="10" class="compassNav" style="fill: #ffffff; stroke: #666666; stroke-width: 1px;"></circle><path d="M440.935 12.574l3.966 82.766C399.416 41.904 331.674 8 256 8 134.813 8 33.933 94.924 12.296 209.824 10.908 217.193 16.604 224 24.103 224h49.084c5.57 0 10.377-3.842 11.676-9.259C103.407 137.408 172.931 80 256 80c60.893 0 114.512 30.856 146.104 77.801l-101.53-4.865c-6.845-.328-12.574 5.133-12.574 11.986v47.411c0 6.627 5.373 12 12 12h200.333c6.627 0 12-5.373 12-12V12c0-6.627-5.373-12-12-12h-47.411c-6.853 0-12.315 5.729-11.987 12.574zM256 432c-60.895 0-114.517-30.858-146.109-77.805l101.868 4.871c6.845.327 12.573-5.134 12.573-11.986v-47.412c0-6.627-5.373-12-12-12H12c-6.627 0-12 5.373-12 12V500c0 6.627 5.373 12 12 12h47.385c6.863 0 12.328-5.745 11.985-12.599l-4.129-82.575C112.725 470.166 180.405 504 256 504c121.187 0 222.067-86.924 243.704-201.824 1.388-7.369-4.308-14.176-11.807-14.176h-49.084c-5.57 0-10.377 3.842-11.676 9.259C408.593 374.592 339.069 432 256 432z" class="compassNav" transform="translate(631, 10) scale(0.02)" style="fill: #666666; stroke: #666666; stroke-width: 1px;"></path><circle cx="658" cy="15" r="10" class="compassNav" style="fill: #ffffff; stroke: #666666; stroke-width: 1px;"></circle><line class="compassNav" stroke-width="2" stroke="#666666" x1="654" y1="15" x2="662" y2="15"></line><line class="compassNav" stroke-width="2" stroke="#666666" x1="658" y1="11" x2="658" y2="19"></line><circle cx="614" cy="15" r="10" class="compassNav" style="fill: #ffffff; stroke: #666666; stroke-width: 1px;"></circle><line class="compassNav" stroke-width="2" stroke="#666666" x1="610" y1="15" x2="618" y2="15"></line><path d="M582 14 l20 -12 a100,40 0 0,0 0,24z" class="compassNav" style="fill: #ffffff; stroke: #666666; stroke-width: 1px;"></path><path d="M690 14 l-20 -12 a100,40 0 0,1 0,24z" class="compassNav" style="fill: #ffffff; stroke: #666666; stroke-width: 1px;"></path><path d="M216 0h80c13.3 0 24 10.7 24 24v168h87.7c17.8 0 26.7 21.5 14.1 34.1L269.7 378.3c-7.5 7.5-19.8 7.5-27.3 0L90.1 226.1c-12.6-12.6-3.7-34.1 14.1-34.1H192V24c0-13.3 10.7-24 24-24zm296 376v112c0 13.3-10.7 24-24 24H24c-13.3 0-24-10.7-24-24V376c0-13.3 10.7-24 24-24h146.7l49 49c20.1 20.1 52.5 20.1 72.6 0l49-49H488c13.3 0 24 10.7 24 24zm-124 88c0-11-9-20-20-20s-20 9-20 20 9 20 20 20 20-9 20-20zm64 0c0-11-9-20-20-20s-20 9-20 20 9 20 20 20 20-9 20-20z" class="compassNav" transform="translate(552,0) scale(0.05)" style="fill: #336699; stroke: #336699; stroke-width: 1px; cursor: pointer;"></path></g></svg>