<svg width="800" height="400" style="background-color: white;"><g transform="translate(50,0)"><svg width="700" height="360"><g style="-webkit-tap-highlight-color: rgba(0, 0, 0, 0);"><rect width="700" height="360" style="fill: #ffffff;"></rect><g id="lines"><line class="line" stroke-width="1" stroke="#d7301f" x1="359.37499999999994" y1="333" x2="359.37499999999994" y2="29.75206611570252" visibility="hidden" style="stroke-dasharray: 3px, 3px;"></line></g><g><rect x="354.37499999999994" y="24.75206611570252" width="10" height="10" visibility="hidden" style="fill: #ffffff; stroke: #d7301f;"></rect></g><g id="lines"><line class="line" stroke-width="1" stroke="#6a51a3" x1="96.875" y1="333" x2="96.875" y2="327.27272727272725" visibility="hidden" style="stroke-dasharray: 3px, 3px;"></line><line class="line" stroke-width="1" stroke="#6a51a3" x1="159.375" y1="333" x2="159.375" y2="327.27272727272725" visibility="hidden" style="stroke-dasharray: 3px, 3px;"></line></g><g><rect x="91.875" y="322.27272727272725" width="10" height="10" visibility="hidden" style="fill: #ffffff; stroke: #6a51a3;"></rect><rect x="154.375" y="322.27272727272725" width="10" height="10" visibility="hidden" style="fill: #ffffff; stroke: #6a51a3;"></rect></g><g id="lines"><line class="line" stroke-width="1" stroke="#666666" x1="6.25" y1="333" x2="6.25" y2="29.75206611570252"></line><line class="line" stroke-width="1" stroke="#666666" x1="181.25000000000003" y1="333" x2="181.25000000000003" y2="178.5123966942149"></line><line class="line" stroke-width="1" stroke="#666666" x1="271.875" y1="333" x2="271.875" y2="178.5123966942149"></line><line class="line" stroke-width="1" stroke="#666666" x1="490.62499999999994" y1="333" x2="490.62499999999994" y2="178.5123966942149"></line><line class="line" stroke-width="1" stroke="#666666" x1="521.875" y1="333" x2="521.875" y2="178.5123966942149"></line><line class="line" stroke-width="1" stroke="#666666" x1="653.125" y1="333" x2="653.125" y2="178.5123966942149"></line></g><g id="circles"><circle r="4" cx="6.25" cy="29.75206611570252" style="fill: #4393c3; stroke: #666666; stroke-width: 1px;"></circle><circle r="4" cx="181.25000000000003" cy="178.5123966942149" style="fill: #666666; stroke: #666666; stroke-width: 1px;"></circle><circle r="4" cx="271.875" cy="178.5123966942149" style="fill: #4393c3; stroke: #666666; stroke-width: 1px;"></circle><circle r="4" cx="490.62499999999994" cy="178.5123966942149" style="fill: #bf812d; stroke: #666666; stroke-width: 1px;"></circle><circle r="4" cx="521.875" cy="178.5123966942149" style="fill: #5aae61; stroke: #666666; stroke-width: 1px;"></circle><circle r="4" cx="653.125" cy="178.5123966942149" style="fill: #bf812d; stroke: #666666; stroke-width: 1px;"></circle></g><g><rect x="0" y="333" width="700" height="12" style="fill: #ffffff; stroke-width: 1px; stroke: #666666;"></rect><rect x="40.625" y="333" width="553.125" height="12" style="fill: #aec7e8; stroke-width: 1px; stroke: #666666;"></rect></g><g><a target="_blank" xlink:href="http://pfam.xfam.org/family/"><text y="343" x="350" text-anchor="middle" style="color: rgb(102, 102, 102); font-weight: normal; font-size: 12px; font-family: Arial; cursor: pointer;"></text></a><a target="_blank" xlink:href="http://pfam.xfam.org/family/Hydrolase"><text y="343" x="317.1875" text-anchor="middle" style="color: rgb(102, 102, 102); font-weight: normal; font-size: 12px; font-family: Arial; cursor: pointer;">Hydrolase</text></a></g><g><text y="358" x="0" text-anchor="middle" visibility="hidden" style="font-size: 13px;">M</text><text y="358" x="3.125" text-anchor="middle" visibility="hidden" style="font-size: 13px;">V</text><text y="358" x="6.25" text-anchor="middle" visibility="hidden" style="font-size: 13px;">S</text><text y="358" x="9.375" text-anchor="middle" visibility="hidden" style="font-size: 13px;">H</text><text y="358" x="12.5" text-anchor="middle" visibility="hidden" style="font-size: 13px;">S</text><text y="358" x="15.625" text-anchor="middle" visibility="hidden" style="font-size: 13px;">E</text><text y="358" x="18.75" text-anchor="middle" visibility="hidden" style="font-size: 13px;">L</text><text y="358" x="21.875" text-anchor="middle" visibility="hidden" style="font-size: 13px;">R</text><text y="358" x="25" text-anchor="middle" visibility="hidden" style="font-size: 13px;">K</text><text y="358" x="28.125000000000004" text-anchor="middle" visibility="hidden" style="font-size: 13px;">L</text><text y="358" x="31.25" text-anchor="middle" visibility="hidden" style="font-size: 13px;">F</text><text y="358" x="34.375" text-anchor="middle" visibility="hidden" style="font-size: 13px;">Y</text><text y="358" x="37.5" text-anchor="middle" visibility="hidden" style="font-size: 13px;">S</text><text y="358" x="40.625" text-anchor="middle" visibility="hidden" style="font-size: 13px;">A</text><text y="358" x="43.75" text-anchor="middle" visibility="hidden" style="font-size: 13px;">D</text><text y="358" x="46.875" text-anchor="middle" visibility="hidden" style="font-size: 13px;">A</text><text y="358" x="50" text-anchor="middle" visibility="hidden" style="font-size: 13px;">V</text><text y="358" x="53.12499999999999" text-anchor="middle" visibility="hidden" style="font-size: 13px;">C</text><text y="358" x="56.25000000000001" text-anchor="middle" visibility="hidden" style="font-size: 13px;">F</text><text y="358" x="59.375" text-anchor="middle" visibility="hidden" style="font-size: 13px;">D</text><text y="358" x="62.5" text-anchor="middle" visibility="hidden" style="font-size: 13px;">V</text><text y="358" x="65.625" text-anchor="middle" visibility="hidden" style="font-size: 13px;">D</text><text y="358" x="68.75" text-anchor="middle" visibility="hidden" style="font-size: 13px;">S</text><text y="358" x="71.875" text-anchor="middle" visibility="hidden" style="font-size: 13px;">T</text><text y="358" x="75" text-anchor="middle" visibility="hidden" style="font-size: 13px;">V</text><text y="358" x="78.125" text-anchor="middle" visibility="hidden" style="font-size: 13px;">I</text><text y="358" x="81.25" text-anchor="middle" visibility="hidden" style="font-size: 13px;">R</text><text y="358" x="84.375" text-anchor="middle" visibility="hidden" style="font-size: 13px;">E</text><text y="358" x="87.5" text-anchor="middle" visibility="hidden" style="font-size: 13px;">E</text><text y="358" x="90.62500000000001" text-anchor="middle" visibility="hidden" style="font-size: 13px;">G</text><text y="358" x="93.75" text-anchor="middle" visibility="hidden" style="font-size: 13px;">I</text><text y="358" x="96.875" text-anchor="middle" visibility="hidden" style="font-size: 13px;">D</text><text y="358" x="100" text-anchor="middle" visibility="hidden" style="font-size: 13px;">E</text><text y="358" x="103.125" text-anchor="middle" visibility="hidden" style="font-size: 13px;">L</text><text y="358" x="106.24999999999999" text-anchor="middle" visibility="hidden" style="font-size: 13px;">A</text><text y="358" x="109.375" text-anchor="middle" visibility="hidden" style="font-size: 13px;">K</text><text y="358" x="112.50000000000001" text-anchor="middle" visibility="hidden" style="font-size: 13px;">I</text><text y="358" x="115.625" text-anchor="middle" visibility="hidden" style="font-size: 13px;">C</text><text y="358" x="118.75" text-anchor="middle" visibility="hidden" style="font-size: 13px;">G</text><text y="358" x="121.875" text-anchor="middle" visibility="hidden" style="font-size: 13px;">V</text><text y="358" x="125" text-anchor="middle" visibility="hidden" style="font-size: 13px;">E</text><text y="358" x="128.125" text-anchor="middle" visibility="hidden" style="font-size: 13px;">D</text><text y="358" x="131.25" text-anchor="middle" visibility="hidden" style="font-size: 13px;">A</text><text y="358" x="134.375" text-anchor="middle" visibility="hidden" style="font-size: 13px;">V</text><text y="358" x="137.5" text-anchor="middle" visibility="hidden" style="font-size: 13px;">S</text><text y="358" x="140.625" text-anchor="middle" visibility="hidden" style="font-size: 13px;">E</text><text y="358" x="143.75" text-anchor="middle" visibility="hidden" style="font-size: 13px;">M</text><text y="358" x="146.875" text-anchor="middle" visibility="hidden" style="font-size: 13px;">T</text><text y="358" x="150" text-anchor="middle" visibility="hidden" style="font-size: 13px;">R</text><text y="358" x="153.125" text-anchor="middle" visibility="hidden" style="font-size: 13px;">R</text><text y="358" x="156.25" text-anchor="middle" visibility="hidden" style="font-size: 13px;">A</text><text y="358" x="159.375" text-anchor="middle" visibility="hidden" style="font-size: 13px;">M</text><text y="358" x="162.5" text-anchor="middle" visibility="hidden" style="font-size: 13px;">G</text><text y="358" x="165.625" text-anchor="middle" visibility="hidden" style="font-size: 13px;">G</text><text y="358" x="168.75" text-anchor="middle" visibility="hidden" style="font-size: 13px;">A</text><text y="358" x="171.875" text-anchor="middle" visibility="hidden" style="font-size: 13px;">V</text><text y="358" x="175" text-anchor="middle" visibility="hidden" style="font-size: 13px;">P</text><text y="358" x="178.125" text-anchor="middle" visibility="hidden" style="font-size: 13px;">F</text><text y="358" x="181.25000000000003" text-anchor="middle" visibility="hidden" style="font-size: 13px;">K</text><text y="358" x="184.375" text-anchor="middle" visibility="hidden" style="font-size: 13px;">A</text><text y="358" x="187.5" text-anchor="middle" visibility="hidden" style="font-size: 13px;">A</text><text y="358" x="190.62499999999997" text-anchor="middle" visibility="hidden" style="font-size: 13px;">L</text><text y="358" x="193.75" text-anchor="middle" visibility="hidden" style="font-size: 13px;">T</text><text y="358" x="196.875" text-anchor="middle" visibility="hidden" style="font-size: 13px;">E</text><text y="358" x="200" text-anchor="middle" visibility="hidden" style="font-size: 13px;">R</text><text y="358" x="203.12500000000003" text-anchor="middle" visibility="hidden" style="font-size: 13px;">L</text><text y="358" x="206.25" text-anchor="middle" visibility="hidden" style="font-size: 13px;">A</text><text y="358" x="209.375" text-anchor="middle" visibility="hidden" style="font-size: 13px;">L</text><text y="358" x="212.49999999999997" text-anchor="middle" visibility="hidden" style="font-size: 13px;">I</text><text y="358" x="215.625" text-anchor="middle" visibility="hidden" style="font-size: 13px;">Q</text><text y="358" x="218.75" text-anchor="middle" visibility="hidden" style="font-size: 13px;">P</text><text y="358" x="221.875" text-anchor="middle" visibility="hidden" style="font-size: 13px;">S</text><text y="358" x="225.00000000000003" text-anchor="middle" visibility="hidden" style="font-size: 13px;">R</text><text y="358" x="228.125" text-anchor="middle" visibility="hidden" style="font-size: 13px;">E</text><text y="358" x="231.25" text-anchor="middle" visibility="hidden" style="font-size: 13px;">Q</text><text y="358" x="234.37499999999997" text-anchor="middle" visibility="hidden" style="font-size: 13px;">V</text><text y="358" x="237.5" text-anchor="middle" visibility="hidden" style="font-size: 13px;">Q</text><text y="358" x="240.625" text-anchor="middle" visibility="hidden" style="font-size: 13px;">R</text><text y="358" x="243.75" text-anchor="middle" visibility="hidden" style="font-size: 13px;">L</text><text y="358" x="246.87500000000003" text-anchor="middle" visibility="hidden" style="font-size: 13px;">I</text><text y="358" x="250" text-anchor="middle" visibility="hidden" style="font-size: 13px;">A</text><text y="358" x="253.125" text-anchor="middle" visibility="hidden" style="font-size: 13px;">E</text><text y="358" x="256.25" text-anchor="middle" visibility="hidden" style="font-size: 13px;">Q</text><text y="358" x="259.375" text-anchor="middle" visibility="hidden" style="font-size: 13px;">P</text><text y="358" x="262.5" text-anchor="middle" visibility="hidden" style="font-size: 13px;">P</text><text y="358" x="265.625" text-anchor="middle" visibility="hidden" style="font-size: 13px;">H</text><text y="358" x="268.75" text-anchor="middle" visibility="hidden" style="font-size: 13px;">L</text><text y="358" x="271.875" text-anchor="middle" visibility="hidden" style="font-size: 13px;">T</text><text y="358" x="275" text-anchor="middle" visibility="hidden" style="font-size: 13px;">P</text><text y="358" x="278.125" text-anchor="middle" visibility="hidden" style="font-size: 13px;">G</text><text y="358" x="281.25" text-anchor="middle" visibility="hidden" style="font-size: 13px;">I</text><text y="358" x="284.375" text-anchor="middle" visibility="hidden" style="font-size: 13px;">R</text><text y="358" x="287.5" text-anchor="middle" visibility="hidden" style="font-size: 13px;">E</text><text y="358" x="290.625" text-anchor="middle" visibility="hidden" style="font-size: 13px;">L</text><text y="358" x="293.75" text-anchor="middle" visibility="hidden" style="font-size: 13px;">V</text><text y="358" x="296.875" text-anchor="middle" visibility="hidden" style="font-size: 13px;">S</text><text y="358" x="300" text-anchor="middle" visibility="hidden" style="font-size: 13px;">R</text><text y="358" x="303.125" text-anchor="middle" visibility="hidden" style="font-size: 13px;">L</text><text y="358" x="306.25" text-anchor="middle" visibility="hidden" style="font-size: 13px;">Q</text><text y="358" x="309.375" text-anchor="middle" visibility="hidden" style="font-size: 13px;">E</text><text y="358" x="312.5" text-anchor="middle" visibility="hidden" style="font-size: 13px;">R</text><text y="358" x="315.625" text-anchor="middle" visibility="hidden" style="font-size: 13px;">N</text><text y="358" x="318.75" text-anchor="middle" visibility="hidden" style="font-size: 13px;">V</text><text y="358" x="321.875" text-anchor="middle" visibility="hidden" style="font-size: 13px;">Q</text><text y="358" x="325" text-anchor="middle" visibility="hidden" style="font-size: 13px;">V</text><text y="358" x="328.125" text-anchor="middle" visibility="hidden" style="font-size: 13px;">F</text><text y="358" x="331.25" text-anchor="middle" visibility="hidden" style="font-size: 13px;">L</text><text y="358" x="334.375" text-anchor="middle" visibility="hidden" style="font-size: 13px;">I</text><text y="358" x="337.5" text-anchor="middle" visibility="hidden" style="font-size: 13px;">S</text><text y="358" x="340.625" text-anchor="middle" visibility="hidden" style="font-size: 13px;">G</text><text y="358" x="343.75" text-anchor="middle" visibility="hidden" style="font-size: 13px;">G</text><text y="358" x="346.875" text-anchor="middle" visibility="hidden" style="font-size: 13px;">F</text><text y="358" x="350" text-anchor="middle" visibility="hidden" style="font-size: 13px;">R</text><text y="358" x="353.125" text-anchor="middle" visibility="hidden" style="font-size: 13px;">S</text><text y="358" x="356.25" text-anchor="middle" visibility="hidden" style="font-size: 13px;">I</text><text y="358" x="359.37499999999994" text-anchor="middle" visibility="hidden" style="font-size: 13px;">V</text><text y="358" x="362.50000000000006" text-anchor="middle" visibility="hidden" style="font-size: 13px;">E</text><text y="358" x="365.625" text-anchor="middle" visibility="hidden" style="font-size: 13px;">H</text><text y="358" x="368.75" text-anchor="middle" visibility="hidden" style="font-size: 13px;">V</text><text y="358" x="371.875" text-anchor="middle" visibility="hidden" style="font-size: 13px;">A</text><text y="358" x="375" text-anchor="middle" visibility="hidden" style="font-size: 13px;">S</text><text y="358" x="378.125" text-anchor="middle" visibility="hidden" style="font-size: 13px;">K</text><text y="358" x="381.24999999999994" text-anchor="middle" visibility="hidden" style="font-size: 13px;">L</text><text y="358" x="384.37500000000006" text-anchor="middle" visibility="hidden" style="font-size: 13px;">N</text><text y="358" x="387.5" text-anchor="middle" visibility="hidden" style="font-size: 13px;">I</text><text y="358" x="390.625" text-anchor="middle" visibility="hidden" style="font-size: 13px;">P</text><text y="358" x="393.75" text-anchor="middle" visibility="hidden" style="font-size: 13px;">A</text><text y="358" x="396.875" text-anchor="middle" visibility="hidden" style="font-size: 13px;">T</text><text y="358" x="400" text-anchor="middle" visibility="hidden" style="font-size: 13px;">N</text><text y="358" x="403.12499999999994" text-anchor="middle" visibility="hidden" style="font-size: 13px;">V</text><text y="358" x="406.25000000000006" text-anchor="middle" visibility="hidden" style="font-size: 13px;">F</text><text y="358" x="409.375" text-anchor="middle" visibility="hidden" style="font-size: 13px;">A</text><text y="358" x="412.5" text-anchor="middle" visibility="hidden" style="font-size: 13px;">N</text><text y="358" x="415.625" text-anchor="middle" visibility="hidden" style="font-size: 13px;">R</text><text y="358" x="418.75" text-anchor="middle" visibility="hidden" style="font-size: 13px;">L</text><text y="358" x="421.875" text-anchor="middle" visibility="hidden" style="font-size: 13px;">K</text><text y="358" x="424.99999999999994" text-anchor="middle" visibility="hidden" style="font-size: 13px;">F</text><text y="358" x="428.12500000000006" text-anchor="middle" visibility="hidden" style="font-size: 13px;">Y</text><text y="358" x="431.25" text-anchor="middle" visibility="hidden" style="font-size: 13px;">F</text><text y="358" x="434.375" text-anchor="middle" visibility="hidden" style="font-size: 13px;">N</text><text y="358" x="437.5" text-anchor="middle" visibility="hidden" style="font-size: 13px;">G</text><text y="358" x="440.625" text-anchor="middle" visibility="hidden" style="font-size: 13px;">E</text><text y="358" x="443.75" text-anchor="middle" visibility="hidden" style="font-size: 13px;">Y</text><text y="358" x="446.87499999999994" text-anchor="middle" visibility="hidden" style="font-size: 13px;">A</text><text y="358" x="450.00000000000006" text-anchor="middle" visibility="hidden" style="font-size: 13px;">G</text><text y="358" x="453.125" text-anchor="middle" visibility="hidden" style="font-size: 13px;">F</text><text y="358" x="456.25" text-anchor="middle" visibility="hidden" style="font-size: 13px;">D</text><text y="358" x="459.375" text-anchor="middle" visibility="hidden" style="font-size: 13px;">E</text><text y="358" x="462.5" text-anchor="middle" visibility="hidden" style="font-size: 13px;">T</text><text y="358" x="465.625" text-anchor="middle" visibility="hidden" style="font-size: 13px;">Q</text><text y="358" x="468.74999999999994" text-anchor="middle" visibility="hidden" style="font-size: 13px;">P</text><text y="358" x="471.87500000000006" text-anchor="middle" visibility="hidden" style="font-size: 13px;">T</text><text y="358" x="475" text-anchor="middle" visibility="hidden" style="font-size: 13px;">A</text><text y="358" x="478.125" text-anchor="middle" visibility="hidden" style="font-size: 13px;">E</text><text y="358" x="481.25" text-anchor="middle" visibility="hidden" style="font-size: 13px;">S</text><text y="358" x="484.375" text-anchor="middle" visibility="hidden" style="font-size: 13px;">G</text><text y="358" x="487.5" text-anchor="middle" visibility="hidden" style="font-size: 13px;">G</text><text y="358" x="490.62499999999994" text-anchor="middle" visibility="hidden" style="font-size: 13px;">K</text><text y="358" x="493.75000000000006" text-anchor="middle" visibility="hidden" style="font-size: 13px;">G</text><text y="358" x="496.875" text-anchor="middle" visibility="hidden" style="font-size: 13px;">K</text><text y="358" x="500" text-anchor="middle" visibility="hidden" style="font-size: 13px;">V</text><text y="358" x="503.125" text-anchor="middle" visibility="hidden" style="font-size: 13px;">I</text><text y="358" x="506.25" text-anchor="middle" visibility="hidden" style="font-size: 13px;">K</text><text y="358" x="509.375" text-anchor="middle" visibility="hidden" style="font-size: 13px;">L</text><text y="358" x="512.5" text-anchor="middle" visibility="hidden" style="font-size: 13px;">L</text><text y="358" x="515.625" text-anchor="middle" visibility="hidden" style="font-size: 13px;">K</text><text y="358" x="518.75" text-anchor="middle" visibility="hidden" style="font-size: 13px;">E</text><text y="358" x="521.875" text-anchor="middle" visibility="hidden" style="font-size: 13px;">K</text><text y="358" x="525" text-anchor="middle" visibility="hidden" style="font-size: 13px;">F</text><text y="358" x="528.125" text-anchor="middle" visibility="hidden" style="font-size: 13px;">H</text><text y="358" x="531.25" text-anchor="middle" visibility="hidden" style="font-size: 13px;">F</text><text y="358" x="534.375" text-anchor="middle" visibility="hidden" style="font-size: 13px;">K</text><text y="358" x="537.5" text-anchor="middle" visibility="hidden" style="font-size: 13px;">K</text><text y="358" x="540.625" text-anchor="middle" visibility="hidden" style="font-size: 13px;">I</text><text y="358" x="543.75" text-anchor="middle" visibility="hidden" style="font-size: 13px;">I</text><text y="358" x="546.875" text-anchor="middle" visibility="hidden" style="font-size: 13px;">M</text><text y="358" x="550" text-anchor="middle" visibility="hidden" style="font-size: 13px;">I</text><text y="358" x="553.125" text-anchor="middle" visibility="hidden" style="font-size: 13px;">G</text><text y="358" x="556.25" text-anchor="middle" visibility="hidden" style="font-size: 13px;">D</text><text y="358" x="559.375" text-anchor="middle" visibility="hidden" style="font-size: 13px;">G</text><text y="358" x="562.5" text-anchor="middle" visibility="hidden" style="font-size: 13px;">A</text><text y="358" x="565.625" text-anchor="middle" visibility="hidden" style="font-size: 13px;">T</text><text y="358" x="568.75" text-anchor="middle" visibility="hidden" style="font-size: 13px;">D</text><text y="358" x="571.875" text-anchor="middle" visibility="hidden" style="font-size: 13px;">M</text><text y="358" x="575" text-anchor="middle" visibility="hidden" style="font-size: 13px;">E</text><text y="358" x="578.125" text-anchor="middle" visibility="hidden" style="font-size: 13px;">A</text><text y="358" x="581.25" text-anchor="middle" visibility="hidden" style="font-size: 13px;">C</text><text y="358" x="584.375" text-anchor="middle" visibility="hidden" style="font-size: 13px;">P</text><text y="358" x="587.5" text-anchor="middle" visibility="hidden" style="font-size: 13px;">P</text><text y="358" x="590.625" text-anchor="middle" visibility="hidden" style="font-size: 13px;">A</text><text y="358" x="593.75" text-anchor="middle" visibility="hidden" style="font-size: 13px;">D</text><text y="358" x="596.875" text-anchor="middle" visibility="hidden" style="font-size: 13px;">A</text><text y="358" x="600" text-anchor="middle" visibility="hidden" style="font-size: 13px;">F</text><text y="358" x="603.125" text-anchor="middle" visibility="hidden" style="font-size: 13px;">I</text><text y="358" x="606.25" text-anchor="middle" visibility="hidden" style="font-size: 13px;">G</text><text y="358" x="609.375" text-anchor="middle" visibility="hidden" style="font-size: 13px;">F</text><text y="358" x="612.5" text-anchor="middle" visibility="hidden" style="font-size: 13px;">G</text><text y="358" x="615.625" text-anchor="middle" visibility="hidden" style="font-size: 13px;">G</text><text y="358" x="618.75" text-anchor="middle" visibility="hidden" style="font-size: 13px;">N</text><text y="358" x="621.875" text-anchor="middle" visibility="hidden" style="font-size: 13px;">V</text><text y="358" x="625" text-anchor="middle" visibility="hidden" style="font-size: 13px;">I</text><text y="358" x="628.125" text-anchor="middle" visibility="hidden" style="font-size: 13px;">R</text><text y="358" x="631.25" text-anchor="middle" visibility="hidden" style="font-size: 13px;">Q</text><text y="358" x="634.375" text-anchor="middle" visibility="hidden" style="font-size: 13px;">Q</text><text y="358" x="637.5" text-anchor="middle" visibility="hidden" style="font-size: 13px;">V</text><text y="358" x="640.625" text-anchor="middle" visibility="hidden" style="font-size: 13px;">K</text><text y="358" x="643.75" text-anchor="middle" visibility="hidden" style="font-size: 13px;">D</text><text y="358" x="646.875" text-anchor="middle" visibility="hidden" style="font-size: 13px;">N</text><text y="358" x="650" text-anchor="middle" visibility="hidden" style="font-size: 13px;">A</text><text y="358" x="653.125" text-anchor="middle" visibility="hidden" style="font-size: 13px;">K</text><text y="358" x="656.25" text-anchor="middle" visibility="hidden" style="font-size: 13px;">W</text><text y="358" x="659.375" text-anchor="middle" visibility="hidden" style="font-size: 13px;">Y</text><text y="358" x="662.5" text-anchor="middle" visibility="hidden" style="font-size: 13px;">I</text><text y="358" x="665.625" text-anchor="middle" visibility="hidden" style="font-size: 13px;">T</text><text y="358" x="668.75" text-anchor="middle" visibility="hidden" style="font-size: 13px;">D</text><text y="358" x="671.875" text-anchor="middle" visibility="hidden" style="font-size: 13px;">F</text><text y="358" x="675" text-anchor="middle" visibility="hidden" style="font-size: 13px;">V</text><text y="358" x="678.125" text-anchor="middle" visibility="hidden" style="font-size: 13px;">E</text><text y="358" x="681.25" text-anchor="middle" visibility="hidden" style="font-size: 13px;">L</text><text y="358" x="684.375" text-anchor="middle" visibility="hidden" style="font-size: 13px;">L</text><text y="358" x="687.5" text-anchor="middle" visibility="hidden" style="font-size: 13px;">G</text><text y="358" x="690.625" text-anchor="middle" visibility="hidden" style="font-size: 13px;">E</text><text y="358" x="693.75" text-anchor="middle" visibility="hidden" style="font-size: 13px;">L</text><text y="358" x="696.875" text-anchor="middle" visibility="hidden" style="font-size: 13px;">E</text><text y="358" x="700" text-anchor="middle" visibility="hidden" style="font-size: 13px;">E</text></g></g></svg><g class="xAxis" transform="translate(0,360)" fill="none" font-size="10" font-family="sans-serif" text-anchor="middle"><path class="domain" stroke="#000" d="M0.5,6V0.5H700.5V6"></path><g class="tick" opacity="1" transform="translate(59.875,0)"><line stroke="#000" y2="6"></line><text fill="#000" y="9" dy="0.71em">20</text></g><g class="tick" opacity="1" transform="translate(122.375,0)"><line stroke="#000" y2="6"></line><text fill="#000" y="9" dy="0.71em">40</text></g><g class="tick" opacity="1" transform="translate(184.875,0)"><line stroke="#000" y2="6"></line><text fill="#000" y="9" dy="0.71em">60</text></g><g class="tick" opacity="1" transform="translate(247.37500000000003,0)"><line stroke="#000" y2="6"></line><text fill="#000" y="9" dy="0.71em">80</text></g><g class="tick" opacity="1" transform="translate(309.875,0)"><line stroke="#000" y2="6"></line><text fill="#000" y="9" dy="0.71em">100</text></g><g class="tick" opacity="1" transform="translate(372.375,0)"><line stroke="#000" y2="6"></line><text fill="#000" y="9" dy="0.71em">120</text></g><g class="tick" opacity="1" transform="translate(434.875,0)"><line stroke="#000" y2="6"></line><text fill="#000" y="9" dy="0.71em">140</text></g><g class="tick" opacity="1" transform="translate(497.375,0)"><line stroke="#000" y2="6"></line><text fill="#000" y="9" dy="0.71em">160</text></g><g class="tick" opacity="1" transform="translate(559.875,0)"><line stroke="#000" y2="6"></line><text fill="#000" y="9" dy="0.71em">180</text></g><g class="tick" opacity="1" transform="translate(622.375,0)"><line stroke="#000" y2="6"></line><text fill="#000" y="9" dy="0.71em">200</text></g><g class="tick" opacity="1" transform="translate(684.875,0)"><line stroke="#000" y2="6"></line><text fill="#000" y="9" dy="0.71em">220</text></g></g><text class="x label" text-anchor="end" x="700" y="390" style="font-size: 13px; font-family: Arial;">Residue number</text><g class="yAxis" fill="none" font-size="10" font-family="sans-serif" text-anchor="end"><path class="domain" stroke="#000" d="M-6,360.5H0.5V0.5H-6"></path><g class="tick" opacity="1" transform="translate(0,357.52479338842977)"><line stroke="#000" x2="-6"></line><text fill="#000" x="-9" dy="0.32em"></text></g><g class="tick" opacity="1" transform="translate(0,327.77272727272725)"><line stroke="#000" x2="-6"></line><text fill="#000" x="-9" dy="0.32em">0</text></g><g class="tick" opacity="1" transform="translate(0,298.0206611570248)"><line stroke="#000" x2="-6"></line><text fill="#000" x="-9" dy="0.32em">0.2</text></g><g class="tick" opacity="1" transform="translate(0,268.2685950413223)"><line stroke="#000" x2="-6"></line><text fill="#000" x="-9" dy="0.32em">0.4</text></g><g class="tick" opacity="1" transform="translate(0,238.51652892561984)"><line stroke="#000" x2="-6"></line><text fill="#000" x="-9" dy="0.32em">0.6</text></g><g class="tick" opacity="1" transform="translate(0,208.76446280991738)"><line stroke="#000" x2="-6"></line><text fill="#000" x="-9" dy="0.32em">0.8</text></g><g class="tick" opacity="1" transform="translate(0,179.0123966942149)"><line stroke="#000" x2="-6"></line><text fill="#000" x="-9" dy="0.32em">1</text></g><g class="tick" opacity="1" transform="translate(0,149.26033057851242)"><line stroke="#000" x2="-6"></line><text fill="#000" x="-9" dy="0.32em">1.2</text></g><g class="tick" opacity="1" transform="translate(0,119.50826446280996)"><line stroke="#000" x2="-6"></line><text fill="#000" x="-9" dy="0.32em">1.4</text></g><g class="tick" opacity="1" transform="translate(0,89.75619834710744)"><line stroke="#000" x2="-6"></line><text fill="#000" x="-9" dy="0.32em">1.6</text></g><g class="tick" opacity="1" transform="translate(0,60.00413223140498)"><line stroke="#000" x2="-6"></line><text fill="#000" x="-9" dy="0.32em">1.8</text></g><g class="tick" opacity="1" transform="translate(0,30.25206611570252)"><line stroke="#000" x2="-6"></line><text fill="#000" x="-9" dy="0.32em">2</text></g><g class="tick" opacity="1" transform="translate(0,0.5)"><line stroke="#000" x2="-6"></line><text fill="#000" x="-9" dy="0.32em">2.2</text></g></g><text class="y label" text-anchor="middle" y="-50" x="-180" dy="0.8em" transform="rotate(-90)" style="font-size: 13px; font-family: Arial;">Total number of references</text><g class="axisRed" fill="none" font-size="10" font-family="sans-serif" text-anchor="start" visibility="hidden" transform="translate(700, 0)"><path class="domain" stroke="#000" d="M6,360.5H0.5V0.5H6"></path><g class="tick" opacity="1" transform="translate(0,327.77272727272725)"><line stroke="#000" x2="6"></line><text fill="#000" x="9" dy="0.32em">0</text></g><g class="tick" opacity="1" transform="translate(0,290.58264462809916)"><line stroke="#000" x2="6"></line><text fill="#000" x="9" dy="0.32em">0.5</text></g><g class="tick" opacity="1" transform="translate(0,253.3925619834711)"><line stroke="#000" x2="6"></line><text fill="#000" x="9" dy="0.32em">1</text></g><g class="tick" opacity="1" transform="translate(0,216.202479338843)"><line stroke="#000" x2="6"></line><text fill="#000" x="9" dy="0.32em">1.5</text></g><g class="tick" opacity="1" transform="translate(0,179.0123966942149)"><line stroke="#000" x2="6"></line><text fill="#000" x="9" dy="0.32em">2</text></g><g class="tick" opacity="1" transform="translate(0,141.82231404958682)"><line stroke="#000" x2="6"></line><text fill="#000" x="9" dy="0.32em">2.5</text></g><g class="tick" opacity="1" transform="translate(0,104.63223140495873)"><line stroke="#000" x2="6"></line><text fill="#000" x="9" dy="0.32em">3</text></g><g class="tick" opacity="1" transform="translate(0,67.44214876033061)"><line stroke="#000" x2="6"></line><text fill="#000" x="9" dy="0.32em">3.5</text></g><g class="tick" opacity="1" transform="translate(0,30.25206611570252)"><line stroke="#000" x2="6"></line><text fill="#000" x="9" dy="0.32em">4</text></g><text text-anchor="start" dx="5.2em" dy="-2.6em" transform="rotate(90)" visibility="hidden" style="font-size: 12px; font-family: Arial; fill: #d7301f;">Number of tumor samples</text></g><g class="axisPurple" fill="none" font-size="10" font-family="sans-serif" text-anchor="start" visibility="hidden"><path class="domain" stroke="#000" d="M6,360.5H0.5V0.5H6"></path><g class="tick" opacity="1" transform="translate(0,357.52479338842977)"><line stroke="#000" x2="6"></line><text fill="#000" x="9" dy="0.32em"></text></g><g class="tick" opacity="1" transform="translate(0,327.77272727272725)"><line stroke="#000" x2="6"></line><text fill="#000" x="9" dy="0.32em">0</text></g><g class="tick" opacity="1" transform="translate(0,298.0206611570248)"><line stroke="#000" x2="6"></line><text fill="#000" x="9" dy="0.32em">0.1</text></g><g class="tick" opacity="1" transform="translate(0,268.2685950413223)"><line stroke="#000" x2="6"></line><text fill="#000" x="9" dy="0.32em">0.2</text></g><g class="tick" opacity="1" transform="translate(0,238.51652892561984)"><line stroke="#000" x2="6"></line><text fill="#000" x="9" dy="0.32em">0.3</text></g><g class="tick" opacity="1" transform="translate(0,208.76446280991738)"><line stroke="#000" x2="6"></line><text fill="#000" x="9" dy="0.32em">0.4</text></g><g class="tick" opacity="1" transform="translate(0,179.0123966942149)"><line stroke="#000" x2="6"></line><text fill="#000" x="9" dy="0.32em">0.5</text></g><g class="tick" opacity="1" transform="translate(0,149.26033057851242)"><line stroke="#000" x2="6"></line><text fill="#000" x="9" dy="0.32em">0.6</text></g><g class="tick" opacity="1" transform="translate(0,119.50826446280996)"><line stroke="#000" x2="6"></line><text fill="#000" x="9" dy="0.32em">0.7</text></g><g class="tick" opacity="1" transform="translate(0,89.75619834710744)"><line stroke="#000" x2="6"></line><text fill="#000" x="9" dy="0.32em">0.8</text></g><g class="tick" opacity="1" transform="translate(0,60.00413223140498)"><line stroke="#000" x2="6"></line><text fill="#000" x="9" dy="0.32em">0.9</text></g><g class="tick" opacity="1" transform="translate(0,30.25206611570252)"><line stroke="#000" x2="6"></line><text fill="#000" x="9" dy="0.32em">1</text></g><g class="tick" opacity="1" transform="translate(0,0.5)"><line stroke="#000" x2="6"></line><text fill="#000" x="9" dy="0.32em">1.1</text></g><text text-anchor="start" x="10" y="10" visibility="hidden" style="font-size: 12px; font-family: Arial; fill: #807dba;">Minor Allele Frequency (MAF) %</text></g><circle cx="636" cy="15" r="10" class="compassNav" style="fill: #ffffff; stroke: #666666; stroke-width: 1px;"></circle><path d="M440.935 12.574l3.966 82.766C399.416 41.904 331.674 8 256 8 134.813 8 33.933 94.924 12.296 209.824 10.908 217.193 16.604 224 24.103 224h49.084c5.57 0 10.377-3.842 11.676-9.259C103.407 137.408 172.931 80 256 80c60.893 0 114.512 30.856 146.104 77.801l-101.53-4.865c-6.845-.328-12.574 5.133-12.574 11.986v47.411c0 6.627 5.373 12 12 12h200.333c6.627 0 12-5.373 12-12V12c0-6.627-5.373-12-12-12h-47.411c-6.853 0-12.315 5.729-11.987 12.574zM256 432c-60.895 0-114.517-30.858-146.109-77.805l101.868 4.871c6.845.327 12.573-5.134 12.573-11.986v-47.412c0-6.627-5.373-12-12-12H12c-6.627 0-12 5.373-12 12V500c0 6.627 5.373 12 12 12h47.385c6.863 0 12.328-5.745 11.985-12.599l-4.129-82.575C112.725 470.166 180.405 504 256 504c121.187 0 222.067-86.924 243.704-201.824 1.388-7.369-4.308-14.176-11.807-14.176h-49.084c-5.57 0-10.377 3.842-11.676 9.259C408.593 374.592 339.069 432 256 432z" class="compassNav" transform="translate(631, 10) scale(0.02)" style="fill: #666666; stroke: #666666; stroke-width: 1px;"></path><circle cx="658" cy="15" r="10" class="compassNav" style="fill: #ffffff; stroke: #666666; stroke-width: 1px;"></circle><line class="compassNav" stroke-width="2" stroke="#666666" x1="654" y1="15" x2="662" y2="15"></line><line class="compassNav" stroke-width="2" stroke="#666666" x1="658" y1="11" x2="658" y2="19"></line><circle cx="614" cy="15" r="10" class="compassNav" style="fill: #ffffff; stroke: #666666; stroke-width: 1px;"></circle><line class="compassNav" stroke-width="2" stroke="#666666" x1="610" y1="15" x2="618" y2="15"></line><path d="M582 14 l20 -12 a100,40 0 0,0 0,24z" class="compassNav" style="fill: #ffffff; stroke: #666666; stroke-width: 1px;"></path><path d="M690 14 l-20 -12 a100,40 0 0,1 0,24z" class="compassNav" style="fill: #ffffff; stroke: #666666; stroke-width: 1px;"></path><path d="M216 0h80c13.3 0 24 10.7 24 24v168h87.7c17.8 0 26.7 21.5 14.1 34.1L269.7 378.3c-7.5 7.5-19.8 7.5-27.3 0L90.1 226.1c-12.6-12.6-3.7-34.1 14.1-34.1H192V24c0-13.3 10.7-24 24-24zm296 376v112c0 13.3-10.7 24-24 24H24c-13.3 0-24-10.7-24-24V376c0-13.3 10.7-24 24-24h146.7l49 49c20.1 20.1 52.5 20.1 72.6 0l49-49H488c13.3 0 24 10.7 24 24zm-124 88c0-11-9-20-20-20s-20 9-20 20 9 20 20 20 20-9 20-20zm64 0c0-11-9-20-20-20s-20 9-20 20 9 20 20 20 20-9 20-20z" class="compassNav" transform="translate(552,0) scale(0.05)" style="fill: #336699; stroke: #336699; stroke-width: 1px; cursor: pointer;"></path></g></svg>