<svg width="800" height="400" style="background-color: white;"><g transform="translate(50,0)"><svg width="700" height="360"><g style="-webkit-tap-highlight-color: rgba(0, 0, 0, 0);"><rect width="700" height="360" style="fill: #ffffff;"></rect><g id="lines"><line class="line" stroke-width="1" stroke="#d7301f" x1="-294.5833333333333" y1="333" x2="-294.5833333333333" y2="360" visibility="hidden" style="stroke-dasharray: 3px, 3px;"></line></g><g><rect x="-299.5833333333333" y="355" width="10" height="10" visibility="hidden" style="fill: #ffffff; stroke: #d7301f;"></rect></g><g id="lines"><line class="line" stroke-width="1" stroke="#6a51a3" x1="-294.5833333333333" y1="333" x2="-294.5833333333333" y2="327.27272727272725" visibility="hidden" style="stroke-dasharray: 3px, 3px;"></line></g><g><rect x="-299.5833333333333" y="322.27272727272725" width="10" height="10" visibility="hidden" style="fill: #ffffff; stroke: #6a51a3;"></rect></g><g id="lines"><line class="line" stroke-width="1" stroke="#666666" x1="20.416666666666668" y1="333" x2="20.416666666666668" y2="312.640563609267"></line><line class="line" stroke-width="1" stroke="#666666" x1="29.166666666666664" y1="333" x2="29.166666666666664" y2="273.6214605067064"></line><line class="line" stroke-width="1" stroke="#666666" x1="35" y1="333" x2="35" y2="322.3953393849072"></line><line class="line" stroke-width="1" stroke="#666666" x1="35" y1="333" x2="35" y2="317.5179514970871"></line><line class="line" stroke-width="1" stroke="#666666" x1="64.16666666666666" y1="333" x2="64.16666666666666" y2="317.5179514970871"></line><line class="line" stroke-width="1" stroke="#666666" x1="84.58333333333333" y1="333" x2="84.58333333333333" y2="322.3953393849072"></line><line class="line" stroke-width="1" stroke="#666666" x1="163.33333333333334" y1="333" x2="163.33333333333334" y2="302.88578783362686"></line><line class="line" stroke-width="1" stroke="#666666" x1="163.33333333333334" y1="333" x2="163.33333333333334" y2="322.3953393849072"></line><line class="line" stroke-width="1" stroke="#666666" x1="169.16666666666666" y1="333" x2="169.16666666666666" y2="317.5179514970871"></line><line class="line" stroke-width="1" stroke="#666666" x1="169.16666666666666" y1="333" x2="169.16666666666666" y2="317.5179514970871"></line><line class="line" stroke-width="1" stroke="#666666" x1="186.66666666666666" y1="333" x2="186.66666666666666" y2="317.5179514970871"></line><line class="line" stroke-width="1" stroke="#666666" x1="186.66666666666666" y1="333" x2="186.66666666666666" y2="322.3953393849072"></line><line class="line" stroke-width="1" stroke="#666666" x1="224.58333333333334" y1="333" x2="224.58333333333334" y2="288.25362417016663"></line><line class="line" stroke-width="1" stroke="#666666" x1="288.75" y1="333" x2="288.75" y2="322.3953393849072"></line><line class="line" stroke-width="1" stroke="#666666" x1="291.6666666666667" y1="333" x2="291.6666666666667" y2="322.3953393849072"></line><line class="line" stroke-width="1" stroke="#666666" x1="315" y1="333" x2="315" y2="322.3953393849072"></line><line class="line" stroke-width="1" stroke="#666666" x1="344.16666666666663" y1="333" x2="344.16666666666663" y2="322.3953393849072"></line><line class="line" stroke-width="1" stroke="#666666" x1="350" y1="333" x2="350" y2="317.5179514970871"></line><line class="line" stroke-width="1" stroke="#666666" x1="352.91666666666663" y1="333" x2="352.91666666666663" y2="322.3953393849072"></line><line class="line" stroke-width="1" stroke="#666666" x1="352.91666666666663" y1="333" x2="352.91666666666663" y2="322.3953393849072"></line><line class="line" stroke-width="1" stroke="#666666" x1="361.6666666666667" y1="333" x2="361.6666666666667" y2="307.76317572144694"></line><line class="line" stroke-width="1" stroke="#666666" x1="373.3333333333333" y1="333" x2="373.3333333333333" y2="302.88578783362686"></line><line class="line" stroke-width="1" stroke="#666666" x1="393.75" y1="333" x2="393.75" y2="322.3953393849072"></line><line class="line" stroke-width="1" stroke="#666666" x1="393.75" y1="333" x2="393.75" y2="322.3953393849072"></line><line class="line" stroke-width="1" stroke="#666666" x1="402.49999999999994" y1="333" x2="402.49999999999994" y2="298.0083999458068"></line><line class="line" stroke-width="1" stroke="#666666" x1="414.1666666666667" y1="333" x2="414.1666666666667" y2="322.3953393849072"></line><line class="line" stroke-width="1" stroke="#666666" x1="414.1666666666667" y1="333" x2="414.1666666666667" y2="317.5179514970871"></line><line class="line" stroke-width="1" stroke="#666666" x1="414.1666666666667" y1="333" x2="414.1666666666667" y2="322.3953393849072"></line><line class="line" stroke-width="1" stroke="#666666" x1="425.8333333333333" y1="333" x2="425.8333333333333" y2="322.3953393849072"></line><line class="line" stroke-width="1" stroke="#666666" x1="428.75000000000006" y1="333" x2="428.75000000000006" y2="322.3953393849072"></line><line class="line" stroke-width="1" stroke="#666666" x1="437.5" y1="333" x2="437.5" y2="312.640563609267"></line><line class="line" stroke-width="1" stroke="#666666" x1="437.5" y1="333" x2="437.5" y2="322.3953393849072"></line><line class="line" stroke-width="1" stroke="#666666" x1="440.41666666666663" y1="333" x2="440.41666666666663" y2="283.37623628234655"></line><line class="line" stroke-width="1" stroke="#666666" x1="440.41666666666663" y1="333" x2="440.41666666666663" y2="317.5179514970871"></line><line class="line" stroke-width="1" stroke="#666666" x1="463.75" y1="333" x2="463.75" y2="29.752066115702462"></line><line class="line" stroke-width="1" stroke="#666666" x1="463.75" y1="333" x2="463.75" y2="322.3953393849072"></line><line class="line" stroke-width="1" stroke="#666666" x1="463.75" y1="333" x2="463.75" y2="322.3953393849072"></line><line class="line" stroke-width="1" stroke="#666666" x1="466.66666666666663" y1="333" x2="466.66666666666663" y2="317.5179514970871"></line><line class="line" stroke-width="1" stroke="#666666" x1="545.4166666666666" y1="333" x2="545.4166666666666" y2="312.640563609267"></line><line class="line" stroke-width="1" stroke="#666666" x1="551.25" y1="333" x2="551.25" y2="322.3953393849072"></line><line class="line" stroke-width="1" stroke="#666666" x1="551.25" y1="333" x2="551.25" y2="322.3953393849072"></line><line class="line" stroke-width="1" stroke="#666666" x1="600.8333333333333" y1="333" x2="600.8333333333333" y2="322.3953393849072"></line><line class="line" stroke-width="1" stroke="#666666" x1="630" y1="333" x2="630" y2="322.3953393849072"></line><line class="line" stroke-width="1" stroke="#666666" x1="632.9166666666666" y1="333" x2="632.9166666666666" y2="322.3953393849072"></line><line class="line" stroke-width="1" stroke="#666666" x1="665" y1="333" x2="665" y2="312.640563609267"></line><line class="line" stroke-width="1" stroke="#666666" x1="676.6666666666666" y1="333" x2="676.6666666666666" y2="322.3953393849072"></line><line class="line" stroke-width="1" stroke="#666666" x1="694.1666666666667" y1="333" x2="694.1666666666667" y2="307.76317572144694"></line></g><g id="circles"><circle r="4" cx="20.416666666666668" cy="312.640563609267" style="fill: #4393c3; stroke: #666666; stroke-width: 1px;"></circle><circle r="4" cx="29.166666666666664" cy="273.6214605067064" style="fill: #bf812d; stroke: #666666; stroke-width: 1px;"></circle><circle r="4" cx="35" cy="322.3953393849072" style="fill: #666666; stroke: #666666; stroke-width: 1px;"></circle><circle r="4" cx="35" cy="317.5179514970871" style="fill: #4393c3; stroke: #666666; stroke-width: 1px;"></circle><circle r="4" cx="64.16666666666666" cy="317.5179514970871" style="fill: #4393c3; stroke: #666666; stroke-width: 1px;"></circle><circle r="4" cx="84.58333333333333" cy="322.3953393849072" style="fill: #666666; stroke: #666666; stroke-width: 1px;"></circle><circle r="4" cx="163.33333333333334" cy="302.88578783362686" style="fill: #5aae61; stroke: #666666; stroke-width: 1px;"></circle><circle r="4" cx="163.33333333333334" cy="322.3953393849072" style="fill: #666666; stroke: #666666; stroke-width: 1px;"></circle><circle r="4" cx="169.16666666666666" cy="317.5179514970871" style="fill: #5aae61; stroke: #666666; stroke-width: 1px;"></circle><circle r="4" cx="169.16666666666666" cy="317.5179514970871" style="fill: #bf812d; stroke: #666666; stroke-width: 1px;"></circle><circle r="4" cx="186.66666666666666" cy="317.5179514970871" style="fill: #5aae61; stroke: #666666; stroke-width: 1px;"></circle><circle r="4" cx="186.66666666666666" cy="322.3953393849072" style="fill: #bf812d; stroke: #666666; stroke-width: 1px;"></circle><circle r="4" cx="224.58333333333334" cy="288.25362417016663" style="fill: #4393c3; stroke: #666666; stroke-width: 1px;"></circle><circle r="4" cx="288.75" cy="322.3953393849072" style="fill: #5aae61; stroke: #666666; stroke-width: 1px;"></circle><circle r="4" cx="291.6666666666667" cy="322.3953393849072" style="fill: #bf812d; stroke: #666666; stroke-width: 1px;"></circle><circle r="4" cx="315" cy="322.3953393849072" style="fill: #666666; stroke: #666666; stroke-width: 1px;"></circle><circle r="4" cx="344.16666666666663" cy="322.3953393849072" style="fill: #4393c3; stroke: #666666; stroke-width: 1px;"></circle><circle r="4" cx="350" cy="317.5179514970871" style="fill: #4393c3; stroke: #666666; stroke-width: 1px;"></circle><circle r="4" cx="352.91666666666663" cy="322.3953393849072" style="fill: #5aae61; stroke: #666666; stroke-width: 1px;"></circle><circle r="4" cx="352.91666666666663" cy="322.3953393849072" style="fill: #bf812d; stroke: #666666; stroke-width: 1px;"></circle><circle r="4" cx="361.6666666666667" cy="307.76317572144694" style="fill: #4393c3; stroke: #666666; stroke-width: 1px;"></circle><circle r="4" cx="373.3333333333333" cy="302.88578783362686" style="fill: #4393c3; stroke: #666666; stroke-width: 1px;"></circle><circle r="4" cx="393.75" cy="322.3953393849072" style="fill: #bf812d; stroke: #666666; stroke-width: 1px;"></circle><circle r="4" cx="393.75" cy="322.3953393849072" style="fill: #666666; stroke: #666666; stroke-width: 1px;"></circle><circle r="4" cx="402.49999999999994" cy="298.0083999458068" style="fill: #4393c3; stroke: #666666; stroke-width: 1px;"></circle><circle r="4" cx="414.1666666666667" cy="322.3953393849072" style="fill: #5aae61; stroke: #666666; stroke-width: 1px;"></circle><circle r="4" cx="414.1666666666667" cy="317.5179514970871" style="fill: #bf812d; stroke: #666666; stroke-width: 1px;"></circle><circle r="4" cx="414.1666666666667" cy="322.3953393849072" style="fill: #666666; stroke: #666666; stroke-width: 1px;"></circle><circle r="4" cx="425.8333333333333" cy="322.3953393849072" style="fill: #bf812d; stroke: #666666; stroke-width: 1px;"></circle><circle r="4" cx="428.75000000000006" cy="322.3953393849072" style="fill: #5aae61; stroke: #666666; stroke-width: 1px;"></circle><circle r="4" cx="437.5" cy="312.640563609267" style="fill: #5aae61; stroke: #666666; stroke-width: 1px;"></circle><circle r="4" cx="437.5" cy="322.3953393849072" style="fill: #666666; stroke: #666666; stroke-width: 1px;"></circle><circle r="4" cx="440.41666666666663" cy="283.37623628234655" style="fill: #5aae61; stroke: #666666; stroke-width: 1px;"></circle><circle r="4" cx="440.41666666666663" cy="317.5179514970871" style="fill: #bf812d; stroke: #666666; stroke-width: 1px;"></circle><circle r="4" cx="463.75" cy="29.752066115702462" style="fill: #5aae61; stroke: #666666; stroke-width: 1px;"></circle><circle r="4" cx="463.75" cy="322.3953393849072" style="fill: #bf812d; stroke: #666666; stroke-width: 1px;"></circle><circle r="4" cx="463.75" cy="322.3953393849072" style="fill: #4393c3; stroke: #666666; stroke-width: 1px;"></circle><circle r="4" cx="466.66666666666663" cy="317.5179514970871" style="fill: #5aae61; stroke: #666666; stroke-width: 1px;"></circle><circle r="4" cx="545.4166666666666" cy="312.640563609267" style="fill: #bf812d; stroke: #666666; stroke-width: 1px;"></circle><circle r="4" cx="551.25" cy="322.3953393849072" style="fill: #5aae61; stroke: #666666; stroke-width: 1px;"></circle><circle r="4" cx="551.25" cy="322.3953393849072" style="fill: #bf812d; stroke: #666666; stroke-width: 1px;"></circle><circle r="4" cx="600.8333333333333" cy="322.3953393849072" style="fill: #bf812d; stroke: #666666; stroke-width: 1px;"></circle><circle r="4" cx="630" cy="322.3953393849072" style="fill: #4393c3; stroke: #666666; stroke-width: 1px;"></circle><circle r="4" cx="632.9166666666666" cy="322.3953393849072" style="fill: #4393c3; stroke: #666666; stroke-width: 1px;"></circle><circle r="4" cx="665" cy="312.640563609267" style="fill: #4393c3; stroke: #666666; stroke-width: 1px;"></circle><circle r="4" cx="676.6666666666666" cy="322.3953393849072" style="fill: #4393c3; stroke: #666666; stroke-width: 1px;"></circle><circle r="4" cx="694.1666666666667" cy="307.76317572144694" style="fill: #4393c3; stroke: #666666; stroke-width: 1px;"></circle></g><g><rect x="0" y="333" width="700" height="12" style="fill: #ffffff; stroke-width: 1px; stroke: #666666;"></rect><rect x="72.91666666666667" y="333" width="218.75" height="12" style="fill: #aec7e8; stroke-width: 1px; stroke: #666666;"></rect><rect x="323.75" y="333" width="312.08333333333337" height="12" style="fill: #ffbb78; stroke-width: 1px; stroke: #666666;"></rect></g><g><a target="_blank" xlink:href="http://pfam.xfam.org/family/"><text y="343" x="350" text-anchor="middle" style="color: rgb(102, 102, 102); font-weight: normal; font-size: 12px; font-family: Arial; cursor: pointer;"></text></a><a target="_blank" xlink:href="http://pfam.xfam.org/family/GST_N_3"><text y="343" x="182.29166666666669" text-anchor="middle" style="color: rgb(102, 102, 102); font-weight: normal; font-size: 12px; font-family: Arial; cursor: pointer;">GST_N_3</text></a><a target="_blank" xlink:href="http://pfam.xfam.org/family/GST_C_3"><text y="343" x="479.7916666666667" text-anchor="middle" style="color: rgb(102, 102, 102); font-weight: normal; font-size: 12px; font-family: Arial; cursor: pointer;">GST_C_3</text></a></g><g><text y="358" x="0" text-anchor="middle" visibility="hidden" style="font-size: 13px;">M</text><text y="358" x="2.9166666666666665" text-anchor="middle" visibility="hidden" style="font-size: 13px;">S</text><text y="358" x="5.833333333333333" text-anchor="middle" visibility="hidden" style="font-size: 13px;">G</text><text y="358" x="8.75" text-anchor="middle" visibility="hidden" style="font-size: 13px;">E</text><text y="358" x="11.666666666666666" text-anchor="middle" visibility="hidden" style="font-size: 13px;">S</text><text y="358" x="14.583333333333332" text-anchor="middle" visibility="hidden" style="font-size: 13px;">A</text><text y="358" x="17.5" text-anchor="middle" visibility="hidden" style="font-size: 13px;">R</text><text y="358" x="20.416666666666668" text-anchor="middle" visibility="hidden" style="font-size: 13px;">S</text><text y="358" x="23.333333333333332" text-anchor="middle" visibility="hidden" style="font-size: 13px;">L</text><text y="358" x="26.25" text-anchor="middle" visibility="hidden" style="font-size: 13px;">G</text><text y="358" x="29.166666666666664" text-anchor="middle" visibility="hidden" style="font-size: 13px;">K</text><text y="358" x="32.08333333333333" text-anchor="middle" visibility="hidden" style="font-size: 13px;">G</text><text y="358" x="35" text-anchor="middle" visibility="hidden" style="font-size: 13px;">S</text><text y="358" x="37.91666666666667" text-anchor="middle" visibility="hidden" style="font-size: 13px;">A</text><text y="358" x="40.833333333333336" text-anchor="middle" visibility="hidden" style="font-size: 13px;">P</text><text y="358" x="43.75" text-anchor="middle" visibility="hidden" style="font-size: 13px;">P</text><text y="358" x="46.666666666666664" text-anchor="middle" visibility="hidden" style="font-size: 13px;">G</text><text y="358" x="49.58333333333333" text-anchor="middle" visibility="hidden" style="font-size: 13px;">P</text><text y="358" x="52.5" text-anchor="middle" visibility="hidden" style="font-size: 13px;">V</text><text y="358" x="55.416666666666664" text-anchor="middle" visibility="hidden" style="font-size: 13px;">P</text><text y="358" x="58.33333333333333" text-anchor="middle" visibility="hidden" style="font-size: 13px;">E</text><text y="358" x="61.24999999999999" text-anchor="middle" visibility="hidden" style="font-size: 13px;">G</text><text y="358" x="64.16666666666666" text-anchor="middle" visibility="hidden" style="font-size: 13px;">S</text><text y="358" x="67.08333333333334" text-anchor="middle" visibility="hidden" style="font-size: 13px;">I</text><text y="358" x="70" text-anchor="middle" visibility="hidden" style="font-size: 13px;">R</text><text y="358" x="72.91666666666667" text-anchor="middle" visibility="hidden" style="font-size: 13px;">I</text><text y="358" x="75.83333333333334" text-anchor="middle" visibility="hidden" style="font-size: 13px;">Y</text><text y="358" x="78.75" text-anchor="middle" visibility="hidden" style="font-size: 13px;">S</text><text y="358" x="81.66666666666667" text-anchor="middle" visibility="hidden" style="font-size: 13px;">M</text><text y="358" x="84.58333333333333" text-anchor="middle" visibility="hidden" style="font-size: 13px;">R</text><text y="358" x="87.5" text-anchor="middle" visibility="hidden" style="font-size: 13px;">F</text><text y="358" x="90.41666666666667" text-anchor="middle" visibility="hidden" style="font-size: 13px;">C</text><text y="358" x="93.33333333333333" text-anchor="middle" visibility="hidden" style="font-size: 13px;">P</text><text y="358" x="96.25000000000001" text-anchor="middle" visibility="hidden" style="font-size: 13px;">F</text><text y="358" x="99.16666666666666" text-anchor="middle" visibility="hidden" style="font-size: 13px;">A</text><text y="358" x="102.08333333333334" text-anchor="middle" visibility="hidden" style="font-size: 13px;">E</text><text y="358" x="105" text-anchor="middle" visibility="hidden" style="font-size: 13px;">R</text><text y="358" x="107.91666666666667" text-anchor="middle" visibility="hidden" style="font-size: 13px;">T</text><text y="358" x="110.83333333333333" text-anchor="middle" visibility="hidden" style="font-size: 13px;">R</text><text y="358" x="113.75" text-anchor="middle" visibility="hidden" style="font-size: 13px;">L</text><text y="358" x="116.66666666666666" text-anchor="middle" visibility="hidden" style="font-size: 13px;">V</text><text y="358" x="119.58333333333334" text-anchor="middle" visibility="hidden" style="font-size: 13px;">L</text><text y="358" x="122.49999999999999" text-anchor="middle" visibility="hidden" style="font-size: 13px;">K</text><text y="358" x="125.41666666666667" text-anchor="middle" visibility="hidden" style="font-size: 13px;">A</text><text y="358" x="128.33333333333331" text-anchor="middle" visibility="hidden" style="font-size: 13px;">K</text><text y="358" x="131.25" text-anchor="middle" visibility="hidden" style="font-size: 13px;">G</text><text y="358" x="134.16666666666669" text-anchor="middle" visibility="hidden" style="font-size: 13px;">I</text><text y="358" x="137.08333333333334" text-anchor="middle" visibility="hidden" style="font-size: 13px;">R</text><text y="358" x="140" text-anchor="middle" visibility="hidden" style="font-size: 13px;">H</text><text y="358" x="142.91666666666666" text-anchor="middle" visibility="hidden" style="font-size: 13px;">E</text><text y="358" x="145.83333333333334" text-anchor="middle" visibility="hidden" style="font-size: 13px;">V</text><text y="358" x="148.75" text-anchor="middle" visibility="hidden" style="font-size: 13px;">I</text><text y="358" x="151.66666666666669" text-anchor="middle" visibility="hidden" style="font-size: 13px;">N</text><text y="358" x="154.58333333333331" text-anchor="middle" visibility="hidden" style="font-size: 13px;">I</text><text y="358" x="157.5" text-anchor="middle" visibility="hidden" style="font-size: 13px;">N</text><text y="358" x="160.41666666666666" text-anchor="middle" visibility="hidden" style="font-size: 13px;">L</text><text y="358" x="163.33333333333334" text-anchor="middle" visibility="hidden" style="font-size: 13px;">K</text><text y="358" x="166.25" text-anchor="middle" visibility="hidden" style="font-size: 13px;">N</text><text y="358" x="169.16666666666666" text-anchor="middle" visibility="hidden" style="font-size: 13px;">K</text><text y="358" x="172.08333333333331" text-anchor="middle" visibility="hidden" style="font-size: 13px;">P</text><text y="358" x="175" text-anchor="middle" visibility="hidden" style="font-size: 13px;">E</text><text y="358" x="177.91666666666666" text-anchor="middle" visibility="hidden" style="font-size: 13px;">W</text><text y="358" x="180.83333333333334" text-anchor="middle" visibility="hidden" style="font-size: 13px;">F</text><text y="358" x="183.75" text-anchor="middle" visibility="hidden" style="font-size: 13px;">F</text><text y="358" x="186.66666666666666" text-anchor="middle" visibility="hidden" style="font-size: 13px;">K</text><text y="358" x="189.58333333333331" text-anchor="middle" visibility="hidden" style="font-size: 13px;">K</text><text y="358" x="192.50000000000003" text-anchor="middle" visibility="hidden" style="font-size: 13px;">N</text><text y="358" x="195.41666666666669" text-anchor="middle" visibility="hidden" style="font-size: 13px;">P</text><text y="358" x="198.33333333333331" text-anchor="middle" visibility="hidden" style="font-size: 13px;">F</text><text y="358" x="201.24999999999997" text-anchor="middle" visibility="hidden" style="font-size: 13px;">G</text><text y="358" x="204.16666666666669" text-anchor="middle" visibility="hidden" style="font-size: 13px;">L</text><text y="358" x="207.08333333333334" text-anchor="middle" visibility="hidden" style="font-size: 13px;">V</text><text y="358" x="210" text-anchor="middle" visibility="hidden" style="font-size: 13px;">P</text><text y="358" x="212.91666666666666" text-anchor="middle" visibility="hidden" style="font-size: 13px;">V</text><text y="358" x="215.83333333333334" text-anchor="middle" visibility="hidden" style="font-size: 13px;">L</text><text y="358" x="218.75" text-anchor="middle" visibility="hidden" style="font-size: 13px;">E</text><text y="358" x="221.66666666666666" text-anchor="middle" visibility="hidden" style="font-size: 13px;">N</text><text y="358" x="224.58333333333334" text-anchor="middle" visibility="hidden" style="font-size: 13px;">S</text><text y="358" x="227.5" text-anchor="middle" visibility="hidden" style="font-size: 13px;">Q</text><text y="358" x="230.41666666666666" text-anchor="middle" visibility="hidden" style="font-size: 13px;">G</text><text y="358" x="233.33333333333331" text-anchor="middle" visibility="hidden" style="font-size: 13px;">Q</text><text y="358" x="236.25000000000003" text-anchor="middle" visibility="hidden" style="font-size: 13px;">L</text><text y="358" x="239.16666666666669" text-anchor="middle" visibility="hidden" style="font-size: 13px;">I</text><text y="358" x="242.08333333333331" text-anchor="middle" visibility="hidden" style="font-size: 13px;">Y</text><text y="358" x="244.99999999999997" text-anchor="middle" visibility="hidden" style="font-size: 13px;">E</text><text y="358" x="247.91666666666669" text-anchor="middle" visibility="hidden" style="font-size: 13px;">S</text><text y="358" x="250.83333333333334" text-anchor="middle" visibility="hidden" style="font-size: 13px;">A</text><text y="358" x="253.75" text-anchor="middle" visibility="hidden" style="font-size: 13px;">I</text><text y="358" x="256.66666666666663" text-anchor="middle" visibility="hidden" style="font-size: 13px;">T</text><text y="358" x="259.58333333333337" text-anchor="middle" visibility="hidden" style="font-size: 13px;">C</text><text y="358" x="262.5" text-anchor="middle" visibility="hidden" style="font-size: 13px;">E</text><text y="358" x="265.41666666666663" text-anchor="middle" visibility="hidden" style="font-size: 13px;">Y</text><text y="358" x="268.33333333333337" text-anchor="middle" visibility="hidden" style="font-size: 13px;">L</text><text y="358" x="271.25" text-anchor="middle" visibility="hidden" style="font-size: 13px;">D</text><text y="358" x="274.1666666666667" text-anchor="middle" visibility="hidden" style="font-size: 13px;">E</text><text y="358" x="277.0833333333333" text-anchor="middle" visibility="hidden" style="font-size: 13px;">A</text><text y="358" x="280" text-anchor="middle" visibility="hidden" style="font-size: 13px;">Y</text><text y="358" x="282.9166666666667" text-anchor="middle" visibility="hidden" style="font-size: 13px;">P</text><text y="358" x="285.8333333333333" text-anchor="middle" visibility="hidden" style="font-size: 13px;">G</text><text y="358" x="288.75" text-anchor="middle" visibility="hidden" style="font-size: 13px;">K</text><text y="358" x="291.6666666666667" text-anchor="middle" visibility="hidden" style="font-size: 13px;">K</text><text y="358" x="294.5833333333333" text-anchor="middle" visibility="hidden" style="font-size: 13px;">L</text><text y="358" x="297.5" text-anchor="middle" visibility="hidden" style="font-size: 13px;">L</text><text y="358" x="300.41666666666663" text-anchor="middle" visibility="hidden" style="font-size: 13px;">P</text><text y="358" x="303.33333333333337" text-anchor="middle" visibility="hidden" style="font-size: 13px;">D</text><text y="358" x="306.25" text-anchor="middle" visibility="hidden" style="font-size: 13px;">D</text><text y="358" x="309.16666666666663" text-anchor="middle" visibility="hidden" style="font-size: 13px;">P</text><text y="358" x="312.08333333333337" text-anchor="middle" visibility="hidden" style="font-size: 13px;">Y</text><text y="358" x="315" text-anchor="middle" visibility="hidden" style="font-size: 13px;">E</text><text y="358" x="317.9166666666667" text-anchor="middle" visibility="hidden" style="font-size: 13px;">K</text><text y="358" x="320.8333333333333" text-anchor="middle" visibility="hidden" style="font-size: 13px;">A</text><text y="358" x="323.75" text-anchor="middle" visibility="hidden" style="font-size: 13px;">C</text><text y="358" x="326.6666666666667" text-anchor="middle" visibility="hidden" style="font-size: 13px;">Q</text><text y="358" x="329.5833333333333" text-anchor="middle" visibility="hidden" style="font-size: 13px;">K</text><text y="358" x="332.5" text-anchor="middle" visibility="hidden" style="font-size: 13px;">M</text><text y="358" x="335.4166666666667" text-anchor="middle" visibility="hidden" style="font-size: 13px;">I</text><text y="358" x="338.3333333333333" text-anchor="middle" visibility="hidden" style="font-size: 13px;">L</text><text y="358" x="341.25" text-anchor="middle" visibility="hidden" style="font-size: 13px;">E</text><text y="358" x="344.16666666666663" text-anchor="middle" visibility="hidden" style="font-size: 13px;">L</text><text y="358" x="347.08333333333337" text-anchor="middle" visibility="hidden" style="font-size: 13px;">F</text><text y="358" x="350" text-anchor="middle" visibility="hidden" style="font-size: 13px;">S</text><text y="358" x="352.91666666666663" text-anchor="middle" visibility="hidden" style="font-size: 13px;">K</text><text y="358" x="355.8333333333333" text-anchor="middle" visibility="hidden" style="font-size: 13px;">V</text><text y="358" x="358.74999999999994" text-anchor="middle" visibility="hidden" style="font-size: 13px;">P</text><text y="358" x="361.6666666666667" text-anchor="middle" visibility="hidden" style="font-size: 13px;">S</text><text y="358" x="364.58333333333337" text-anchor="middle" visibility="hidden" style="font-size: 13px;">L</text><text y="358" x="367.5" text-anchor="middle" visibility="hidden" style="font-size: 13px;">V</text><text y="358" x="370.4166666666667" text-anchor="middle" visibility="hidden" style="font-size: 13px;">G</text><text y="358" x="373.3333333333333" text-anchor="middle" visibility="hidden" style="font-size: 13px;">S</text><text y="358" x="376.25" text-anchor="middle" visibility="hidden" style="font-size: 13px;">F</text><text y="358" x="379.16666666666663" text-anchor="middle" visibility="hidden" style="font-size: 13px;">I</text><text y="358" x="382.0833333333333" text-anchor="middle" visibility="hidden" style="font-size: 13px;">R</text><text y="358" x="385.00000000000006" text-anchor="middle" visibility="hidden" style="font-size: 13px;">S</text><text y="358" x="387.9166666666667" text-anchor="middle" visibility="hidden" style="font-size: 13px;">Q</text><text y="358" x="390.83333333333337" text-anchor="middle" visibility="hidden" style="font-size: 13px;">N</text><text y="358" x="393.75" text-anchor="middle" visibility="hidden" style="font-size: 13px;">K</text><text y="358" x="396.66666666666663" text-anchor="middle" visibility="hidden" style="font-size: 13px;">E</text><text y="358" x="399.5833333333333" text-anchor="middle" visibility="hidden" style="font-size: 13px;">D</text><text y="358" x="402.49999999999994" text-anchor="middle" visibility="hidden" style="font-size: 13px;">Y</text><text y="358" x="405.4166666666667" text-anchor="middle" visibility="hidden" style="font-size: 13px;">A</text><text y="358" x="408.33333333333337" text-anchor="middle" visibility="hidden" style="font-size: 13px;">G</text><text y="358" x="411.25" text-anchor="middle" visibility="hidden" style="font-size: 13px;">L</text><text y="358" x="414.1666666666667" text-anchor="middle" visibility="hidden" style="font-size: 13px;">K</text><text y="358" x="417.0833333333333" text-anchor="middle" visibility="hidden" style="font-size: 13px;">E</text><text y="358" x="420" text-anchor="middle" visibility="hidden" style="font-size: 13px;">E</text><text y="358" x="422.91666666666663" text-anchor="middle" visibility="hidden" style="font-size: 13px;">F</text><text y="358" x="425.8333333333333" text-anchor="middle" visibility="hidden" style="font-size: 13px;">R</text><text y="358" x="428.75000000000006" text-anchor="middle" visibility="hidden" style="font-size: 13px;">K</text><text y="358" x="431.6666666666667" text-anchor="middle" visibility="hidden" style="font-size: 13px;">E</text><text y="358" x="434.58333333333337" text-anchor="middle" visibility="hidden" style="font-size: 13px;">F</text><text y="358" x="437.5" text-anchor="middle" visibility="hidden" style="font-size: 13px;">T</text><text y="358" x="440.41666666666663" text-anchor="middle" visibility="hidden" style="font-size: 13px;">K</text><text y="358" x="443.3333333333333" text-anchor="middle" visibility="hidden" style="font-size: 13px;">L</text><text y="358" x="446.24999999999994" text-anchor="middle" visibility="hidden" style="font-size: 13px;">E</text><text y="358" x="449.1666666666667" text-anchor="middle" visibility="hidden" style="font-size: 13px;">E</text><text y="358" x="452.08333333333337" text-anchor="middle" visibility="hidden" style="font-size: 13px;">V</text><text y="358" x="455" text-anchor="middle" visibility="hidden" style="font-size: 13px;">L</text><text y="358" x="457.9166666666667" text-anchor="middle" visibility="hidden" style="font-size: 13px;">T</text><text y="358" x="460.8333333333333" text-anchor="middle" visibility="hidden" style="font-size: 13px;">N</text><text y="358" x="463.75" text-anchor="middle" visibility="hidden" style="font-size: 13px;">K</text><text y="358" x="466.66666666666663" text-anchor="middle" visibility="hidden" style="font-size: 13px;">K</text><text y="358" x="469.5833333333333" text-anchor="middle" visibility="hidden" style="font-size: 13px;">T</text><text y="358" x="472.50000000000006" text-anchor="middle" visibility="hidden" style="font-size: 13px;">T</text><text y="358" x="475.4166666666667" text-anchor="middle" visibility="hidden" style="font-size: 13px;">F</text><text y="358" x="478.33333333333337" text-anchor="middle" visibility="hidden" style="font-size: 13px;">F</text><text y="358" x="481.25" text-anchor="middle" visibility="hidden" style="font-size: 13px;">G</text><text y="358" x="484.16666666666663" text-anchor="middle" visibility="hidden" style="font-size: 13px;">G</text><text y="358" x="487.0833333333333" text-anchor="middle" visibility="hidden" style="font-size: 13px;">N</text><text y="358" x="489.99999999999994" text-anchor="middle" visibility="hidden" style="font-size: 13px;">S</text><text y="358" x="492.9166666666667" text-anchor="middle" visibility="hidden" style="font-size: 13px;">I</text><text y="358" x="495.83333333333337" text-anchor="middle" visibility="hidden" style="font-size: 13px;">S</text><text y="358" x="498.75" text-anchor="middle" visibility="hidden" style="font-size: 13px;">M</text><text y="358" x="501.6666666666667" text-anchor="middle" visibility="hidden" style="font-size: 13px;">I</text><text y="358" x="504.5833333333333" text-anchor="middle" visibility="hidden" style="font-size: 13px;">D</text><text y="358" x="507.5" text-anchor="middle" visibility="hidden" style="font-size: 13px;">Y</text><text y="358" x="510.41666666666663" text-anchor="middle" visibility="hidden" style="font-size: 13px;">L</text><text y="358" x="513.3333333333333" text-anchor="middle" visibility="hidden" style="font-size: 13px;">I</text><text y="358" x="516.25" text-anchor="middle" visibility="hidden" style="font-size: 13px;">W</text><text y="358" x="519.1666666666667" text-anchor="middle" visibility="hidden" style="font-size: 13px;">P</text><text y="358" x="522.0833333333334" text-anchor="middle" visibility="hidden" style="font-size: 13px;">W</text><text y="358" x="525" text-anchor="middle" visibility="hidden" style="font-size: 13px;">F</text><text y="358" x="527.9166666666666" text-anchor="middle" visibility="hidden" style="font-size: 13px;">E</text><text y="358" x="530.8333333333333" text-anchor="middle" visibility="hidden" style="font-size: 13px;">R</text><text y="358" x="533.75" text-anchor="middle" visibility="hidden" style="font-size: 13px;">L</text><text y="358" x="536.6666666666667" text-anchor="middle" visibility="hidden" style="font-size: 13px;">E</text><text y="358" x="539.5833333333334" text-anchor="middle" visibility="hidden" style="font-size: 13px;">A</text><text y="358" x="542.5" text-anchor="middle" visibility="hidden" style="font-size: 13px;">M</text><text y="358" x="545.4166666666666" text-anchor="middle" visibility="hidden" style="font-size: 13px;">K</text><text y="358" x="548.3333333333334" text-anchor="middle" visibility="hidden" style="font-size: 13px;">L</text><text y="358" x="551.25" text-anchor="middle" visibility="hidden" style="font-size: 13px;">N</text><text y="358" x="554.1666666666666" text-anchor="middle" visibility="hidden" style="font-size: 13px;">E</text><text y="358" x="557.0833333333333" text-anchor="middle" visibility="hidden" style="font-size: 13px;">C</text><text y="358" x="560" text-anchor="middle" visibility="hidden" style="font-size: 13px;">V</text><text y="358" x="562.9166666666667" text-anchor="middle" visibility="hidden" style="font-size: 13px;">D</text><text y="358" x="565.8333333333334" text-anchor="middle" visibility="hidden" style="font-size: 13px;">H</text><text y="358" x="568.75" text-anchor="middle" visibility="hidden" style="font-size: 13px;">T</text><text y="358" x="571.6666666666666" text-anchor="middle" visibility="hidden" style="font-size: 13px;">P</text><text y="358" x="574.5833333333333" text-anchor="middle" visibility="hidden" style="font-size: 13px;">K</text><text y="358" x="577.5" text-anchor="middle" visibility="hidden" style="font-size: 13px;">L</text><text y="358" x="580.4166666666667" text-anchor="middle" visibility="hidden" style="font-size: 13px;">K</text><text y="358" x="583.3333333333334" text-anchor="middle" visibility="hidden" style="font-size: 13px;">L</text><text y="358" x="586.25" text-anchor="middle" visibility="hidden" style="font-size: 13px;">W</text><text y="358" x="589.1666666666666" text-anchor="middle" visibility="hidden" style="font-size: 13px;">M</text><text y="358" x="592.0833333333334" text-anchor="middle" visibility="hidden" style="font-size: 13px;">A</text><text y="358" x="595" text-anchor="middle" visibility="hidden" style="font-size: 13px;">A</text><text y="358" x="597.9166666666666" text-anchor="middle" visibility="hidden" style="font-size: 13px;">M</text><text y="358" x="600.8333333333333" text-anchor="middle" visibility="hidden" style="font-size: 13px;">K</text><text y="358" x="603.75" text-anchor="middle" visibility="hidden" style="font-size: 13px;">E</text><text y="358" x="606.6666666666667" text-anchor="middle" visibility="hidden" style="font-size: 13px;">D</text><text y="358" x="609.5833333333334" text-anchor="middle" visibility="hidden" style="font-size: 13px;">P</text><text y="358" x="612.5" text-anchor="middle" visibility="hidden" style="font-size: 13px;">T</text><text y="358" x="615.4166666666666" text-anchor="middle" visibility="hidden" style="font-size: 13px;">V</text><text y="358" x="618.3333333333333" text-anchor="middle" visibility="hidden" style="font-size: 13px;">S</text><text y="358" x="621.25" text-anchor="middle" visibility="hidden" style="font-size: 13px;">A</text><text y="358" x="624.1666666666667" text-anchor="middle" visibility="hidden" style="font-size: 13px;">L</text><text y="358" x="627.0833333333334" text-anchor="middle" visibility="hidden" style="font-size: 13px;">L</text><text y="358" x="630" text-anchor="middle" visibility="hidden" style="font-size: 13px;">T</text><text y="358" x="632.9166666666666" text-anchor="middle" visibility="hidden" style="font-size: 13px;">S</text><text y="358" x="635.8333333333334" text-anchor="middle" visibility="hidden" style="font-size: 13px;">E</text><text y="358" x="638.75" text-anchor="middle" visibility="hidden" style="font-size: 13px;">K</text><text y="358" x="641.6666666666666" text-anchor="middle" visibility="hidden" style="font-size: 13px;">D</text><text y="358" x="644.5833333333333" text-anchor="middle" visibility="hidden" style="font-size: 13px;">W</text><text y="358" x="647.5" text-anchor="middle" visibility="hidden" style="font-size: 13px;">Q</text><text y="358" x="650.4166666666667" text-anchor="middle" visibility="hidden" style="font-size: 13px;">G</text><text y="358" x="653.3333333333334" text-anchor="middle" visibility="hidden" style="font-size: 13px;">F</text><text y="358" x="656.25" text-anchor="middle" visibility="hidden" style="font-size: 13px;">L</text><text y="358" x="659.1666666666666" text-anchor="middle" visibility="hidden" style="font-size: 13px;">E</text><text y="358" x="662.0833333333333" text-anchor="middle" visibility="hidden" style="font-size: 13px;">L</text><text y="358" x="665" text-anchor="middle" visibility="hidden" style="font-size: 13px;">Y</text><text y="358" x="667.9166666666667" text-anchor="middle" visibility="hidden" style="font-size: 13px;">L</text><text y="358" x="670.8333333333334" text-anchor="middle" visibility="hidden" style="font-size: 13px;">Q</text><text y="358" x="673.75" text-anchor="middle" visibility="hidden" style="font-size: 13px;">N</text><text y="358" x="676.6666666666666" text-anchor="middle" visibility="hidden" style="font-size: 13px;">S</text><text y="358" x="679.5833333333334" text-anchor="middle" visibility="hidden" style="font-size: 13px;">P</text><text y="358" x="682.5" text-anchor="middle" visibility="hidden" style="font-size: 13px;">E</text><text y="358" x="685.4166666666666" text-anchor="middle" visibility="hidden" style="font-size: 13px;">A</text><text y="358" x="688.3333333333333" text-anchor="middle" visibility="hidden" style="font-size: 13px;">C</text><text y="358" x="691.25" text-anchor="middle" visibility="hidden" style="font-size: 13px;">D</text><text y="358" x="694.1666666666667" text-anchor="middle" visibility="hidden" style="font-size: 13px;">Y</text><text y="358" x="697.0833333333334" text-anchor="middle" visibility="hidden" style="font-size: 13px;">G</text><text y="358" x="700" text-anchor="middle" visibility="hidden" style="font-size: 13px;">L</text></g></g></svg><g class="xAxis" transform="translate(0,360)" fill="none" font-size="10" font-family="sans-serif" text-anchor="middle"><path class="domain" stroke="#000" d="M0.5,6V0.5H700.5V6"></path><g class="tick" opacity="1" transform="translate(55.916666666666664,0)"><line stroke="#000" y2="6"></line><text fill="#000" y="9" dy="0.71em">20</text></g><g class="tick" opacity="1" transform="translate(114.25,0)"><line stroke="#000" y2="6"></line><text fill="#000" y="9" dy="0.71em">40</text></g><g class="tick" opacity="1" transform="translate(172.58333333333331,0)"><line stroke="#000" y2="6"></line><text fill="#000" y="9" dy="0.71em">60</text></g><g class="tick" opacity="1" transform="translate(230.91666666666666,0)"><line stroke="#000" y2="6"></line><text fill="#000" y="9" dy="0.71em">80</text></g><g class="tick" opacity="1" transform="translate(289.25,0)"><line stroke="#000" y2="6"></line><text fill="#000" y="9" dy="0.71em">100</text></g><g class="tick" opacity="1" transform="translate(347.58333333333337,0)"><line stroke="#000" y2="6"></line><text fill="#000" y="9" dy="0.71em">120</text></g><g class="tick" opacity="1" transform="translate(405.9166666666667,0)"><line stroke="#000" y2="6"></line><text fill="#000" y="9" dy="0.71em">140</text></g><g class="tick" opacity="1" transform="translate(464.25,0)"><line stroke="#000" y2="6"></line><text fill="#000" y="9" dy="0.71em">160</text></g><g class="tick" opacity="1" transform="translate(522.5833333333334,0)"><line stroke="#000" y2="6"></line><text fill="#000" y="9" dy="0.71em">180</text></g><g class="tick" opacity="1" transform="translate(580.9166666666667,0)"><line stroke="#000" y2="6"></line><text fill="#000" y="9" dy="0.71em">200</text></g><g class="tick" opacity="1" transform="translate(639.25,0)"><line stroke="#000" y2="6"></line><text fill="#000" y="9" dy="0.71em">220</text></g><g class="tick" opacity="1" transform="translate(697.5833333333334,0)"><line stroke="#000" y2="6"></line><text fill="#000" y="9" dy="0.71em">240</text></g></g><text class="x label" text-anchor="end" x="700" y="390" style="font-size: 13px; font-family: Arial;">Residue number</text><g class="yAxis" fill="none" font-size="10" font-family="sans-serif" text-anchor="end"><path class="domain" stroke="#000" d="M-6,360.5H0.5V0.5H-6"></path><g class="tick" opacity="1" transform="translate(0,327.77272727272725)"><line stroke="#000" x2="-6"></line><text fill="#000" x="-9" dy="0.32em">0</text></g><g class="tick" opacity="1" transform="translate(0,278.9988483945265)"><line stroke="#000" x2="-6"></line><text fill="#000" x="-9" dy="0.32em">10</text></g><g class="tick" opacity="1" transform="translate(0,230.22496951632567)"><line stroke="#000" x2="-6"></line><text fill="#000" x="-9" dy="0.32em">20</text></g><g class="tick" opacity="1" transform="translate(0,181.45109063812487)"><line stroke="#000" x2="-6"></line><text fill="#000" x="-9" dy="0.32em">30</text></g><g class="tick" opacity="1" transform="translate(0,132.6772117599241)"><line stroke="#000" x2="-6"></line><text fill="#000" x="-9" dy="0.32em">40</text></g><g class="tick" opacity="1" transform="translate(0,83.90333288172332)"><line stroke="#000" x2="-6"></line><text fill="#000" x="-9" dy="0.32em">50</text></g><g class="tick" opacity="1" transform="translate(0,35.12945400352254)"><line stroke="#000" x2="-6"></line><text fill="#000" x="-9" dy="0.32em">60</text></g></g><text class="y label" text-anchor="middle" y="-50" x="-180" dy="0.8em" transform="rotate(-90)" style="font-size: 13px; font-family: Arial;">Total number of references</text><g class="axisRed" fill="none" font-size="10" font-family="sans-serif" text-anchor="start" visibility="hidden" transform="translate(700, 0)"><path class="domain" stroke="#000" d="M6,360.5H0.5V0.5H6"></path><g class="tick" opacity="1" transform="translate(0,360.5)"><line stroke="#000" x2="6"></line><text fill="#000" x="9" dy="0.32em">0</text></g><text text-anchor="start" dx="5.2em" dy="-2.6em" transform="rotate(90)" visibility="hidden" style="font-size: 12px; font-family: Arial; fill: #d7301f;">No recurrent (&gt;2) missense mutations!</text></g><g class="axisPurple" fill="none" font-size="10" font-family="sans-serif" text-anchor="start" visibility="hidden"><path class="domain" stroke="#000" d="M6,360.5H0.5V0.5H6"></path><g class="tick" opacity="1" transform="translate(0,357.52479338842977)"><line stroke="#000" x2="6"></line><text fill="#000" x="9" dy="0.32em"></text></g><g class="tick" opacity="1" transform="translate(0,327.77272727272725)"><line stroke="#000" x2="6"></line><text fill="#000" x="9" dy="0.32em">0</text></g><g class="tick" opacity="1" transform="translate(0,298.0206611570248)"><line stroke="#000" x2="6"></line><text fill="#000" x="9" dy="0.32em">0.1</text></g><g class="tick" opacity="1" transform="translate(0,268.2685950413223)"><line stroke="#000" x2="6"></line><text fill="#000" x="9" dy="0.32em">0.2</text></g><g class="tick" opacity="1" transform="translate(0,238.51652892561984)"><line stroke="#000" x2="6"></line><text fill="#000" x="9" dy="0.32em">0.3</text></g><g class="tick" opacity="1" transform="translate(0,208.76446280991738)"><line stroke="#000" x2="6"></line><text fill="#000" x="9" dy="0.32em">0.4</text></g><g class="tick" opacity="1" transform="translate(0,179.0123966942149)"><line stroke="#000" x2="6"></line><text fill="#000" x="9" dy="0.32em">0.5</text></g><g class="tick" opacity="1" transform="translate(0,149.26033057851242)"><line stroke="#000" x2="6"></line><text fill="#000" x="9" dy="0.32em">0.6</text></g><g class="tick" opacity="1" transform="translate(0,119.50826446280996)"><line stroke="#000" x2="6"></line><text fill="#000" x="9" dy="0.32em">0.7</text></g><g class="tick" opacity="1" transform="translate(0,89.75619834710744)"><line stroke="#000" x2="6"></line><text fill="#000" x="9" dy="0.32em">0.8</text></g><g class="tick" opacity="1" transform="translate(0,60.00413223140498)"><line stroke="#000" x2="6"></line><text fill="#000" x="9" dy="0.32em">0.9</text></g><g class="tick" opacity="1" transform="translate(0,30.25206611570252)"><line stroke="#000" x2="6"></line><text fill="#000" x="9" dy="0.32em">1</text></g><g class="tick" opacity="1" transform="translate(0,0.5)"><line stroke="#000" x2="6"></line><text fill="#000" x="9" dy="0.32em">1.1</text></g><text text-anchor="start" x="10" y="10" visibility="hidden" style="font-size: 12px; font-family: Arial; fill: #807dba;">No disease causing germline SNPs known!</text></g><circle cx="636" cy="15" r="10" class="compassNav" style="fill: #ffffff; stroke: #666666; stroke-width: 1px;"></circle><path d="M440.935 12.574l3.966 82.766C399.416 41.904 331.674 8 256 8 134.813 8 33.933 94.924 12.296 209.824 10.908 217.193 16.604 224 24.103 224h49.084c5.57 0 10.377-3.842 11.676-9.259C103.407 137.408 172.931 80 256 80c60.893 0 114.512 30.856 146.104 77.801l-101.53-4.865c-6.845-.328-12.574 5.133-12.574 11.986v47.411c0 6.627 5.373 12 12 12h200.333c6.627 0 12-5.373 12-12V12c0-6.627-5.373-12-12-12h-47.411c-6.853 0-12.315 5.729-11.987 12.574zM256 432c-60.895 0-114.517-30.858-146.109-77.805l101.868 4.871c6.845.327 12.573-5.134 12.573-11.986v-47.412c0-6.627-5.373-12-12-12H12c-6.627 0-12 5.373-12 12V500c0 6.627 5.373 12 12 12h47.385c6.863 0 12.328-5.745 11.985-12.599l-4.129-82.575C112.725 470.166 180.405 504 256 504c121.187 0 222.067-86.924 243.704-201.824 1.388-7.369-4.308-14.176-11.807-14.176h-49.084c-5.57 0-10.377 3.842-11.676 9.259C408.593 374.592 339.069 432 256 432z" class="compassNav" transform="translate(631, 10) scale(0.02)" style="fill: #666666; stroke: #666666; stroke-width: 1px;"></path><circle cx="658" cy="15" r="10" class="compassNav" style="fill: #ffffff; stroke: #666666; stroke-width: 1px;"></circle><line class="compassNav" stroke-width="2" stroke="#666666" x1="654" y1="15" x2="662" y2="15"></line><line class="compassNav" stroke-width="2" stroke="#666666" x1="658" y1="11" x2="658" y2="19"></line><circle cx="614" cy="15" r="10" class="compassNav" style="fill: #ffffff; stroke: #666666; stroke-width: 1px;"></circle><line class="compassNav" stroke-width="2" stroke="#666666" x1="610" y1="15" x2="618" y2="15"></line><path d="M582 14 l20 -12 a100,40 0 0,0 0,24z" class="compassNav" style="fill: #ffffff; stroke: #666666; stroke-width: 1px;"></path><path d="M690 14 l-20 -12 a100,40 0 0,1 0,24z" class="compassNav" style="fill: #ffffff; stroke: #666666; stroke-width: 1px;"></path><path d="M216 0h80c13.3 0 24 10.7 24 24v168h87.7c17.8 0 26.7 21.5 14.1 34.1L269.7 378.3c-7.5 7.5-19.8 7.5-27.3 0L90.1 226.1c-12.6-12.6-3.7-34.1 14.1-34.1H192V24c0-13.3 10.7-24 24-24zm296 376v112c0 13.3-10.7 24-24 24H24c-13.3 0-24-10.7-24-24V376c0-13.3 10.7-24 24-24h146.7l49 49c20.1 20.1 52.5 20.1 72.6 0l49-49H488c13.3 0 24 10.7 24 24zm-124 88c0-11-9-20-20-20s-20 9-20 20 9 20 20 20 20-9 20-20zm64 0c0-11-9-20-20-20s-20 9-20 20 9 20 20 20 20-9 20-20z" class="compassNav" transform="translate(552,0) scale(0.05)" style="fill: #336699; stroke: #336699; stroke-width: 1px; cursor: pointer;"></path></g></svg>