<svg width="800" height="400" style="background-color: white;"><g transform="translate(50,0)"><svg width="700" height="360"><g style="-webkit-tap-highlight-color: rgba(0, 0, 0, 0);"><rect width="700" height="360" style="fill: #ffffff;"></rect><g id="lines"><line class="line" stroke-width="1" stroke="#d7301f" x1="-776.9230769230769" y1="333" x2="-776.9230769230769" y2="360" visibility="hidden" style="stroke-dasharray: 3px, 3px;"></line></g><g><rect x="-781.9230769230769" y="355" width="10" height="10" visibility="hidden" style="fill: #ffffff; stroke: #d7301f;"></rect></g><g id="lines"><line class="line" stroke-width="1" stroke="#6a51a3" x1="-776.9230769230769" y1="333" x2="-776.9230769230769" y2="327.27272727272725" visibility="hidden" style="stroke-dasharray: 3px, 3px;"></line></g><g><rect x="-781.9230769230769" y="322.27272727272725" width="10" height="10" visibility="hidden" style="fill: #ffffff; stroke: #6a51a3;"></rect></g><g id="lines"><line class="line" stroke-width="1" stroke="#666666" x1="200" y1="333" x2="200" y2="29.75206611570252"></line></g><g id="circles"><circle r="4" cx="200" cy="29.75206611570252" style="fill: #4393c3; stroke: #666666; stroke-width: 1px;"></circle></g><g><rect x="0" y="333" width="700" height="12" style="fill: #ffffff; stroke-width: 1px; stroke: #666666;"></rect><rect x="23.076923076923077" y="333" width="323.0769230769231" height="12" style="fill: #aec7e8; stroke-width: 1px; stroke: #666666;"></rect></g><g><a target="_blank" xlink:href="http://pfam.xfam.org/family/"><text y="343" x="350" text-anchor="middle" style="color: rgb(102, 102, 102); font-weight: normal; font-size: 12px; font-family: Arial; cursor: pointer;"></text></a><a target="_blank" xlink:href="http://pfam.xfam.org/family/S_100"><text y="343" x="184.61538461538464" text-anchor="middle" style="color: rgb(102, 102, 102); font-weight: normal; font-size: 12px; font-family: Arial; cursor: pointer;">S_100</text></a></g><g><text y="358" x="0" text-anchor="middle" visibility="hidden" style="font-size: 13px;">M</text><text y="358" x="7.6923076923076925" text-anchor="middle" visibility="hidden" style="font-size: 13px;">T</text><text y="358" x="15.384615384615385" text-anchor="middle" visibility="hidden" style="font-size: 13px;">K</text><text y="358" x="23.076923076923077" text-anchor="middle" visibility="hidden" style="font-size: 13px;">L</text><text y="358" x="30.76923076923077" text-anchor="middle" visibility="hidden" style="font-size: 13px;">E</text><text y="358" x="38.46153846153846" text-anchor="middle" visibility="hidden" style="font-size: 13px;">E</text><text y="358" x="46.15384615384615" text-anchor="middle" visibility="hidden" style="font-size: 13px;">H</text><text y="358" x="53.84615384615385" text-anchor="middle" visibility="hidden" style="font-size: 13px;">L</text><text y="358" x="61.53846153846154" text-anchor="middle" visibility="hidden" style="font-size: 13px;">E</text><text y="358" x="69.23076923076923" text-anchor="middle" visibility="hidden" style="font-size: 13px;">G</text><text y="358" x="76.92307692307692" text-anchor="middle" visibility="hidden" style="font-size: 13px;">I</text><text y="358" x="84.61538461538461" text-anchor="middle" visibility="hidden" style="font-size: 13px;">V</text><text y="358" x="92.3076923076923" text-anchor="middle" visibility="hidden" style="font-size: 13px;">N</text><text y="358" x="100" text-anchor="middle" visibility="hidden" style="font-size: 13px;">I</text><text y="358" x="107.6923076923077" text-anchor="middle" visibility="hidden" style="font-size: 13px;">F</text><text y="358" x="115.38461538461539" text-anchor="middle" visibility="hidden" style="font-size: 13px;">H</text><text y="358" x="123.07692307692308" text-anchor="middle" visibility="hidden" style="font-size: 13px;">Q</text><text y="358" x="130.76923076923077" text-anchor="middle" visibility="hidden" style="font-size: 13px;">Y</text><text y="358" x="138.46153846153845" text-anchor="middle" visibility="hidden" style="font-size: 13px;">S</text><text y="358" x="146.15384615384616" text-anchor="middle" visibility="hidden" style="font-size: 13px;">V</text><text y="358" x="153.84615384615384" text-anchor="middle" visibility="hidden" style="font-size: 13px;">R</text><text y="358" x="161.53846153846155" text-anchor="middle" visibility="hidden" style="font-size: 13px;">K</text><text y="358" x="169.23076923076923" text-anchor="middle" visibility="hidden" style="font-size: 13px;">G</text><text y="358" x="176.9230769230769" text-anchor="middle" visibility="hidden" style="font-size: 13px;">H</text><text y="358" x="184.6153846153846" text-anchor="middle" visibility="hidden" style="font-size: 13px;">F</text><text y="358" x="192.30769230769232" text-anchor="middle" visibility="hidden" style="font-size: 13px;">D</text><text y="358" x="200" text-anchor="middle" visibility="hidden" style="font-size: 13px;">T</text><text y="358" x="207.69230769230768" text-anchor="middle" visibility="hidden" style="font-size: 13px;">L</text><text y="358" x="215.3846153846154" text-anchor="middle" visibility="hidden" style="font-size: 13px;">S</text><text y="358" x="223.07692307692307" text-anchor="middle" visibility="hidden" style="font-size: 13px;">K</text><text y="358" x="230.76923076923077" text-anchor="middle" visibility="hidden" style="font-size: 13px;">G</text><text y="358" x="238.46153846153848" text-anchor="middle" visibility="hidden" style="font-size: 13px;">E</text><text y="358" x="246.15384615384616" text-anchor="middle" visibility="hidden" style="font-size: 13px;">L</text><text y="358" x="253.84615384615384" text-anchor="middle" visibility="hidden" style="font-size: 13px;">K</text><text y="358" x="261.53846153846155" text-anchor="middle" visibility="hidden" style="font-size: 13px;">Q</text><text y="358" x="269.2307692307692" text-anchor="middle" visibility="hidden" style="font-size: 13px;">L</text><text y="358" x="276.9230769230769" text-anchor="middle" visibility="hidden" style="font-size: 13px;">L</text><text y="358" x="284.61538461538464" text-anchor="middle" visibility="hidden" style="font-size: 13px;">T</text><text y="358" x="292.3076923076923" text-anchor="middle" visibility="hidden" style="font-size: 13px;">K</text><text y="358" x="300" text-anchor="middle" visibility="hidden" style="font-size: 13px;">E</text><text y="358" x="307.6923076923077" text-anchor="middle" visibility="hidden" style="font-size: 13px;">L</text><text y="358" x="315.3846153846154" text-anchor="middle" visibility="hidden" style="font-size: 13px;">A</text><text y="358" x="323.0769230769231" text-anchor="middle" visibility="hidden" style="font-size: 13px;">N</text><text y="358" x="330.7692307692308" text-anchor="middle" visibility="hidden" style="font-size: 13px;">T</text><text y="358" x="338.46153846153845" text-anchor="middle" visibility="hidden" style="font-size: 13px;">I</text><text y="358" x="346.1538461538462" text-anchor="middle" visibility="hidden" style="font-size: 13px;">K</text><text y="358" x="353.8461538461538" text-anchor="middle" visibility="hidden" style="font-size: 13px;">N</text><text y="358" x="361.53846153846155" text-anchor="middle" visibility="hidden" style="font-size: 13px;">I</text><text y="358" x="369.2307692307692" text-anchor="middle" visibility="hidden" style="font-size: 13px;">K</text><text y="358" x="376.9230769230769" text-anchor="middle" visibility="hidden" style="font-size: 13px;">D</text><text y="358" x="384.61538461538464" text-anchor="middle" visibility="hidden" style="font-size: 13px;">K</text><text y="358" x="392.3076923076923" text-anchor="middle" visibility="hidden" style="font-size: 13px;">A</text><text y="358" x="400" text-anchor="middle" visibility="hidden" style="font-size: 13px;">V</text><text y="358" x="407.69230769230774" text-anchor="middle" visibility="hidden" style="font-size: 13px;">I</text><text y="358" x="415.38461538461536" text-anchor="middle" visibility="hidden" style="font-size: 13px;">D</text><text y="358" x="423.07692307692304" text-anchor="middle" visibility="hidden" style="font-size: 13px;">E</text><text y="358" x="430.7692307692308" text-anchor="middle" visibility="hidden" style="font-size: 13px;">I</text><text y="358" x="438.46153846153845" text-anchor="middle" visibility="hidden" style="font-size: 13px;">F</text><text y="358" x="446.15384615384613" text-anchor="middle" visibility="hidden" style="font-size: 13px;">Q</text><text y="358" x="453.84615384615387" text-anchor="middle" visibility="hidden" style="font-size: 13px;">G</text><text y="358" x="461.53846153846155" text-anchor="middle" visibility="hidden" style="font-size: 13px;">L</text><text y="358" x="469.23076923076917" text-anchor="middle" visibility="hidden" style="font-size: 13px;">D</text><text y="358" x="476.92307692307696" text-anchor="middle" visibility="hidden" style="font-size: 13px;">A</text><text y="358" x="484.6153846153846" text-anchor="middle" visibility="hidden" style="font-size: 13px;">N</text><text y="358" x="492.3076923076923" text-anchor="middle" visibility="hidden" style="font-size: 13px;">Q</text><text y="358" x="500" text-anchor="middle" visibility="hidden" style="font-size: 13px;">D</text><text y="358" x="507.6923076923077" text-anchor="middle" visibility="hidden" style="font-size: 13px;">E</text><text y="358" x="515.3846153846155" text-anchor="middle" visibility="hidden" style="font-size: 13px;">Q</text><text y="358" x="523.0769230769231" text-anchor="middle" visibility="hidden" style="font-size: 13px;">V</text><text y="358" x="530.7692307692307" text-anchor="middle" visibility="hidden" style="font-size: 13px;">D</text><text y="358" x="538.4615384615385" text-anchor="middle" visibility="hidden" style="font-size: 13px;">F</text><text y="358" x="546.1538461538462" text-anchor="middle" visibility="hidden" style="font-size: 13px;">Q</text><text y="358" x="553.8461538461538" text-anchor="middle" visibility="hidden" style="font-size: 13px;">E</text><text y="358" x="561.5384615384615" text-anchor="middle" visibility="hidden" style="font-size: 13px;">F</text><text y="358" x="569.2307692307693" text-anchor="middle" visibility="hidden" style="font-size: 13px;">I</text><text y="358" x="576.9230769230769" text-anchor="middle" visibility="hidden" style="font-size: 13px;">S</text><text y="358" x="584.6153846153846" text-anchor="middle" visibility="hidden" style="font-size: 13px;">L</text><text y="358" x="592.3076923076923" text-anchor="middle" visibility="hidden" style="font-size: 13px;">V</text><text y="358" x="600" text-anchor="middle" visibility="hidden" style="font-size: 13px;">A</text><text y="358" x="607.6923076923077" text-anchor="middle" visibility="hidden" style="font-size: 13px;">I</text><text y="358" x="615.3846153846154" text-anchor="middle" visibility="hidden" style="font-size: 13px;">A</text><text y="358" x="623.0769230769231" text-anchor="middle" visibility="hidden" style="font-size: 13px;">L</text><text y="358" x="630.7692307692308" text-anchor="middle" visibility="hidden" style="font-size: 13px;">K</text><text y="358" x="638.4615384615385" text-anchor="middle" visibility="hidden" style="font-size: 13px;">A</text><text y="358" x="646.1538461538462" text-anchor="middle" visibility="hidden" style="font-size: 13px;">A</text><text y="358" x="653.8461538461538" text-anchor="middle" visibility="hidden" style="font-size: 13px;">H</text><text y="358" x="661.5384615384615" text-anchor="middle" visibility="hidden" style="font-size: 13px;">Y</text><text y="358" x="669.2307692307693" text-anchor="middle" visibility="hidden" style="font-size: 13px;">H</text><text y="358" x="676.9230769230769" text-anchor="middle" visibility="hidden" style="font-size: 13px;">T</text><text y="358" x="684.6153846153846" text-anchor="middle" visibility="hidden" style="font-size: 13px;">H</text><text y="358" x="692.3076923076924" text-anchor="middle" visibility="hidden" style="font-size: 13px;">K</text><text y="358" x="700" text-anchor="middle" visibility="hidden" style="font-size: 13px;">E</text></g></g></svg><g class="xAxis" transform="translate(0,360)" fill="none" font-size="10" font-family="sans-serif" text-anchor="middle"><path class="domain" stroke="#000" d="M0.5,6V0.5H700.5V6"></path><g class="tick" opacity="1" transform="translate(69.73076923076923,0)"><line stroke="#000" y2="6"></line><text fill="#000" y="9" dy="0.71em">10</text></g><g class="tick" opacity="1" transform="translate(146.65384615384616,0)"><line stroke="#000" y2="6"></line><text fill="#000" y="9" dy="0.71em">20</text></g><g class="tick" opacity="1" transform="translate(223.57692307692307,0)"><line stroke="#000" y2="6"></line><text fill="#000" y="9" dy="0.71em">30</text></g><g class="tick" opacity="1" transform="translate(300.5,0)"><line stroke="#000" y2="6"></line><text fill="#000" y="9" dy="0.71em">40</text></g><g class="tick" opacity="1" transform="translate(377.4230769230769,0)"><line stroke="#000" y2="6"></line><text fill="#000" y="9" dy="0.71em">50</text></g><g class="tick" opacity="1" transform="translate(454.34615384615387,0)"><line stroke="#000" y2="6"></line><text fill="#000" y="9" dy="0.71em">60</text></g><g class="tick" opacity="1" transform="translate(531.2692307692307,0)"><line stroke="#000" y2="6"></line><text fill="#000" y="9" dy="0.71em">70</text></g><g class="tick" opacity="1" transform="translate(608.1923076923077,0)"><line stroke="#000" y2="6"></line><text fill="#000" y="9" dy="0.71em">80</text></g><g class="tick" opacity="1" transform="translate(685.1153846153846,0)"><line stroke="#000" y2="6"></line><text fill="#000" y="9" dy="0.71em">90</text></g></g><text class="x label" text-anchor="end" x="700" y="390" style="font-size: 13px; font-family: Arial;">Residue number</text><g class="yAxis" fill="none" font-size="10" font-family="sans-serif" text-anchor="end"><path class="domain" stroke="#000" d="M-6,360.5H0.5V0.5H-6"></path><g class="tick" opacity="1" transform="translate(0,357.52479338842977)"><line stroke="#000" x2="-6"></line><text fill="#000" x="-9" dy="0.32em"></text></g><g class="tick" opacity="1" transform="translate(0,327.77272727272725)"><line stroke="#000" x2="-6"></line><text fill="#000" x="-9" dy="0.32em">0</text></g><g class="tick" opacity="1" transform="translate(0,298.0206611570248)"><line stroke="#000" x2="-6"></line><text fill="#000" x="-9" dy="0.32em">0.1</text></g><g class="tick" opacity="1" transform="translate(0,268.2685950413223)"><line stroke="#000" x2="-6"></line><text fill="#000" x="-9" dy="0.32em">0.2</text></g><g class="tick" opacity="1" transform="translate(0,238.51652892561984)"><line stroke="#000" x2="-6"></line><text fill="#000" x="-9" dy="0.32em">0.3</text></g><g class="tick" opacity="1" transform="translate(0,208.76446280991738)"><line stroke="#000" x2="-6"></line><text fill="#000" x="-9" dy="0.32em">0.4</text></g><g class="tick" opacity="1" transform="translate(0,179.0123966942149)"><line stroke="#000" x2="-6"></line><text fill="#000" x="-9" dy="0.32em">0.5</text></g><g class="tick" opacity="1" transform="translate(0,149.26033057851242)"><line stroke="#000" x2="-6"></line><text fill="#000" x="-9" dy="0.32em">0.6</text></g><g class="tick" opacity="1" transform="translate(0,119.50826446280996)"><line stroke="#000" x2="-6"></line><text fill="#000" x="-9" dy="0.32em">0.7</text></g><g class="tick" opacity="1" transform="translate(0,89.75619834710744)"><line stroke="#000" x2="-6"></line><text fill="#000" x="-9" dy="0.32em">0.8</text></g><g class="tick" opacity="1" transform="translate(0,60.00413223140498)"><line stroke="#000" x2="-6"></line><text fill="#000" x="-9" dy="0.32em">0.9</text></g><g class="tick" opacity="1" transform="translate(0,30.25206611570252)"><line stroke="#000" x2="-6"></line><text fill="#000" x="-9" dy="0.32em">1</text></g><g class="tick" opacity="1" transform="translate(0,0.5)"><line stroke="#000" x2="-6"></line><text fill="#000" x="-9" dy="0.32em">1.1</text></g></g><text class="y label" text-anchor="middle" y="-50" x="-180" dy="0.8em" transform="rotate(-90)" style="font-size: 13px; font-family: Arial;">Total number of references</text><g class="axisRed" fill="none" font-size="10" font-family="sans-serif" text-anchor="start" visibility="hidden" transform="translate(700, 0)"><path class="domain" stroke="#000" d="M6,360.5H0.5V0.5H6"></path><g class="tick" opacity="1" transform="translate(0,360.5)"><line stroke="#000" x2="6"></line><text fill="#000" x="9" dy="0.32em">0</text></g><text text-anchor="start" dx="5.2em" dy="-2.6em" transform="rotate(90)" visibility="hidden" style="font-size: 12px; font-family: Arial; fill: #d7301f;">No recurrent (&gt;2) missense mutations!</text></g><g class="axisPurple" fill="none" font-size="10" font-family="sans-serif" text-anchor="start" visibility="hidden"><path class="domain" stroke="#000" d="M6,360.5H0.5V0.5H6"></path><g class="tick" opacity="1" transform="translate(0,357.52479338842977)"><line stroke="#000" x2="6"></line><text fill="#000" x="9" dy="0.32em"></text></g><g class="tick" opacity="1" transform="translate(0,327.77272727272725)"><line stroke="#000" x2="6"></line><text fill="#000" x="9" dy="0.32em">0</text></g><g class="tick" opacity="1" transform="translate(0,298.0206611570248)"><line stroke="#000" x2="6"></line><text fill="#000" x="9" dy="0.32em">0.1</text></g><g class="tick" opacity="1" transform="translate(0,268.2685950413223)"><line stroke="#000" x2="6"></line><text fill="#000" x="9" dy="0.32em">0.2</text></g><g class="tick" opacity="1" transform="translate(0,238.51652892561984)"><line stroke="#000" x2="6"></line><text fill="#000" x="9" dy="0.32em">0.3</text></g><g class="tick" opacity="1" transform="translate(0,208.76446280991738)"><line stroke="#000" x2="6"></line><text fill="#000" x="9" dy="0.32em">0.4</text></g><g class="tick" opacity="1" transform="translate(0,179.0123966942149)"><line stroke="#000" x2="6"></line><text fill="#000" x="9" dy="0.32em">0.5</text></g><g class="tick" opacity="1" transform="translate(0,149.26033057851242)"><line stroke="#000" x2="6"></line><text fill="#000" x="9" dy="0.32em">0.6</text></g><g class="tick" opacity="1" transform="translate(0,119.50826446280996)"><line stroke="#000" x2="6"></line><text fill="#000" x="9" dy="0.32em">0.7</text></g><g class="tick" opacity="1" transform="translate(0,89.75619834710744)"><line stroke="#000" x2="6"></line><text fill="#000" x="9" dy="0.32em">0.8</text></g><g class="tick" opacity="1" transform="translate(0,60.00413223140498)"><line stroke="#000" x2="6"></line><text fill="#000" x="9" dy="0.32em">0.9</text></g><g class="tick" opacity="1" transform="translate(0,30.25206611570252)"><line stroke="#000" x2="6"></line><text fill="#000" x="9" dy="0.32em">1</text></g><g class="tick" opacity="1" transform="translate(0,0.5)"><line stroke="#000" x2="6"></line><text fill="#000" x="9" dy="0.32em">1.1</text></g><text text-anchor="start" x="10" y="10" visibility="hidden" style="font-size: 12px; font-family: Arial; fill: #807dba;">No disease causing germline SNPs known!</text></g><circle cx="636" cy="15" r="10" class="compassNav" style="fill: #ffffff; stroke: #666666; stroke-width: 1px;"></circle><path d="M440.935 12.574l3.966 82.766C399.416 41.904 331.674 8 256 8 134.813 8 33.933 94.924 12.296 209.824 10.908 217.193 16.604 224 24.103 224h49.084c5.57 0 10.377-3.842 11.676-9.259C103.407 137.408 172.931 80 256 80c60.893 0 114.512 30.856 146.104 77.801l-101.53-4.865c-6.845-.328-12.574 5.133-12.574 11.986v47.411c0 6.627 5.373 12 12 12h200.333c6.627 0 12-5.373 12-12V12c0-6.627-5.373-12-12-12h-47.411c-6.853 0-12.315 5.729-11.987 12.574zM256 432c-60.895 0-114.517-30.858-146.109-77.805l101.868 4.871c6.845.327 12.573-5.134 12.573-11.986v-47.412c0-6.627-5.373-12-12-12H12c-6.627 0-12 5.373-12 12V500c0 6.627 5.373 12 12 12h47.385c6.863 0 12.328-5.745 11.985-12.599l-4.129-82.575C112.725 470.166 180.405 504 256 504c121.187 0 222.067-86.924 243.704-201.824 1.388-7.369-4.308-14.176-11.807-14.176h-49.084c-5.57 0-10.377 3.842-11.676 9.259C408.593 374.592 339.069 432 256 432z" class="compassNav" transform="translate(631, 10) scale(0.02)" style="fill: #666666; stroke: #666666; stroke-width: 1px;"></path><circle cx="658" cy="15" r="10" class="compassNav" style="fill: #ffffff; stroke: #666666; stroke-width: 1px;"></circle><line class="compassNav" stroke-width="2" stroke="#666666" x1="654" y1="15" x2="662" y2="15"></line><line class="compassNav" stroke-width="2" stroke="#666666" x1="658" y1="11" x2="658" y2="19"></line><circle cx="614" cy="15" r="10" class="compassNav" style="fill: #ffffff; stroke: #666666; stroke-width: 1px;"></circle><line class="compassNav" stroke-width="2" stroke="#666666" x1="610" y1="15" x2="618" y2="15"></line><path d="M582 14 l20 -12 a100,40 0 0,0 0,24z" class="compassNav" style="fill: #ffffff; stroke: #666666; stroke-width: 1px;"></path><path d="M690 14 l-20 -12 a100,40 0 0,1 0,24z" class="compassNav" style="fill: #ffffff; stroke: #666666; stroke-width: 1px;"></path><path d="M216 0h80c13.3 0 24 10.7 24 24v168h87.7c17.8 0 26.7 21.5 14.1 34.1L269.7 378.3c-7.5 7.5-19.8 7.5-27.3 0L90.1 226.1c-12.6-12.6-3.7-34.1 14.1-34.1H192V24c0-13.3 10.7-24 24-24zm296 376v112c0 13.3-10.7 24-24 24H24c-13.3 0-24-10.7-24-24V376c0-13.3 10.7-24 24-24h146.7l49 49c20.1 20.1 52.5 20.1 72.6 0l49-49H488c13.3 0 24 10.7 24 24zm-124 88c0-11-9-20-20-20s-20 9-20 20 9 20 20 20 20-9 20-20zm64 0c0-11-9-20-20-20s-20 9-20 20 9 20 20 20 20-9 20-20z" class="compassNav" transform="translate(552,0) scale(0.05)" style="fill: #336699; stroke: #336699; stroke-width: 1px; cursor: pointer;"></path></g></svg>