<svg width="800" height="400" style="background-color: white;"><g transform="translate(50,0)"><svg width="700" height="360"><g style="-webkit-tap-highlight-color: rgba(0, 0, 0, 0);"><rect width="700" height="360" style="fill: #ffffff;"></rect><g id="lines"><line class="line" stroke-width="1" stroke="#d7301f" x1="-288.57142857142856" y1="333" x2="-288.57142857142856" y2="360" visibility="hidden" style="stroke-dasharray: 3px, 3px;"></line></g><g><rect x="-293.57142857142856" y="355" width="10" height="10" visibility="hidden" style="fill: #ffffff; stroke: #d7301f;"></rect></g><g id="lines"><line class="line" stroke-width="1" stroke="#6a51a3" x1="-288.57142857142856" y1="333" x2="-288.57142857142856" y2="327.27272727272725" visibility="hidden" style="stroke-dasharray: 3px, 3px;"></line></g><g><rect x="-293.57142857142856" y="322.27272727272725" width="10" height="10" visibility="hidden" style="fill: #ffffff; stroke: #6a51a3;"></rect></g><g id="lines"><line class="line" stroke-width="1" stroke="#666666" x1="240" y1="333" x2="240" y2="29.75206611570252"></line></g><g id="circles"><circle r="4" cx="240" cy="29.75206611570252" style="fill: #666666; stroke: #666666; stroke-width: 1px;"></circle></g><g><rect x="0" y="333" width="700" height="12" style="fill: #ffffff; stroke-width: 1px; stroke: #666666;"></rect><rect x="74.28571428571428" y="333" width="145.71428571428572" height="12" style="fill: #aec7e8; stroke-width: 1px; stroke: #666666;"></rect><rect x="174.28571428571428" y="333" width="165.71428571428572" height="12" style="fill: #aec7e8; stroke-width: 1px; stroke: #666666;"></rect><rect x="345.7142857142857" y="333" width="345.7142857142857" height="12" style="fill: #ffbb78; stroke-width: 1px; stroke: #666666;"></rect></g><g><a target="_blank" xlink:href="http://pfam.xfam.org/family/"><text y="343" x="350" text-anchor="middle" style="color: rgb(102, 102, 102); font-weight: normal; font-size: 12px; font-family: Arial; cursor: pointer;"></text></a><a target="_blank" xlink:href="http://pfam.xfam.org/family/Collagen"><text y="343" x="147.14285714285714" text-anchor="middle" style="color: rgb(102, 102, 102); font-weight: normal; font-size: 12px; font-family: Arial; cursor: pointer;">Collagen</text></a><a target="_blank" xlink:href="http://pfam.xfam.org/family/Collagen"><text y="343" x="257.1428571428571" text-anchor="middle" style="color: rgb(102, 102, 102); font-weight: normal; font-size: 12px; font-family: Arial; cursor: pointer;">Collagen</text></a><a target="_blank" xlink:href="http://pfam.xfam.org/family/C1q"><text y="343" x="518.5714285714286" text-anchor="middle" style="color: rgb(102, 102, 102); font-weight: normal; font-size: 12px; font-family: Arial; cursor: pointer;">C1q</text></a></g><g><text y="358" x="0" text-anchor="middle" visibility="hidden" style="font-size: 13px;">M</text><text y="358" x="2.857142857142857" text-anchor="middle" visibility="hidden" style="font-size: 13px;">V</text><text y="358" x="5.714285714285714" text-anchor="middle" visibility="hidden" style="font-size: 13px;">V</text><text y="358" x="8.571428571428571" text-anchor="middle" visibility="hidden" style="font-size: 13px;">G</text><text y="358" x="11.428571428571429" text-anchor="middle" visibility="hidden" style="font-size: 13px;">P</text><text y="358" x="14.285714285714285" text-anchor="middle" visibility="hidden" style="font-size: 13px;">S</text><text y="358" x="17.142857142857142" text-anchor="middle" visibility="hidden" style="font-size: 13px;">C</text><text y="358" x="20" text-anchor="middle" visibility="hidden" style="font-size: 13px;">Q</text><text y="358" x="22.857142857142858" text-anchor="middle" visibility="hidden" style="font-size: 13px;">P</text><text y="358" x="25.714285714285715" text-anchor="middle" visibility="hidden" style="font-size: 13px;">P</text><text y="358" x="28.57142857142857" text-anchor="middle" visibility="hidden" style="font-size: 13px;">C</text><text y="358" x="31.428571428571427" text-anchor="middle" visibility="hidden" style="font-size: 13px;">G</text><text y="358" x="34.285714285714285" text-anchor="middle" visibility="hidden" style="font-size: 13px;">L</text><text y="358" x="37.14285714285714" text-anchor="middle" visibility="hidden" style="font-size: 13px;">C</text><text y="358" x="40" text-anchor="middle" visibility="hidden" style="font-size: 13px;">L</text><text y="358" x="42.857142857142854" text-anchor="middle" visibility="hidden" style="font-size: 13px;">L</text><text y="358" x="45.714285714285715" text-anchor="middle" visibility="hidden" style="font-size: 13px;">L</text><text y="358" x="48.57142857142857" text-anchor="middle" visibility="hidden" style="font-size: 13px;">L</text><text y="358" x="51.42857142857143" text-anchor="middle" visibility="hidden" style="font-size: 13px;">F</text><text y="358" x="54.285714285714285" text-anchor="middle" visibility="hidden" style="font-size: 13px;">L</text><text y="358" x="57.14285714285714" text-anchor="middle" visibility="hidden" style="font-size: 13px;">L</text><text y="358" x="60" text-anchor="middle" visibility="hidden" style="font-size: 13px;">A</text><text y="358" x="62.857142857142854" text-anchor="middle" visibility="hidden" style="font-size: 13px;">L</text><text y="358" x="65.71428571428572" text-anchor="middle" visibility="hidden" style="font-size: 13px;">P</text><text y="358" x="68.57142857142857" text-anchor="middle" visibility="hidden" style="font-size: 13px;">L</text><text y="358" x="71.42857142857143" text-anchor="middle" visibility="hidden" style="font-size: 13px;">R</text><text y="358" x="74.28571428571428" text-anchor="middle" visibility="hidden" style="font-size: 13px;">S</text><text y="358" x="77.14285714285714" text-anchor="middle" visibility="hidden" style="font-size: 13px;">Q</text><text y="358" x="80" text-anchor="middle" visibility="hidden" style="font-size: 13px;">A</text><text y="358" x="82.85714285714286" text-anchor="middle" visibility="hidden" style="font-size: 13px;">S</text><text y="358" x="85.71428571428571" text-anchor="middle" visibility="hidden" style="font-size: 13px;">A</text><text y="358" x="88.57142857142857" text-anchor="middle" visibility="hidden" style="font-size: 13px;">G</text><text y="358" x="91.42857142857143" text-anchor="middle" visibility="hidden" style="font-size: 13px;">C</text><text y="358" x="94.28571428571429" text-anchor="middle" visibility="hidden" style="font-size: 13px;">Y</text><text y="358" x="97.14285714285714" text-anchor="middle" visibility="hidden" style="font-size: 13px;">G</text><text y="358" x="100" text-anchor="middle" visibility="hidden" style="font-size: 13px;">I</text><text y="358" x="102.85714285714286" text-anchor="middle" visibility="hidden" style="font-size: 13px;">P</text><text y="358" x="105.71428571428572" text-anchor="middle" visibility="hidden" style="font-size: 13px;">G</text><text y="358" x="108.57142857142857" text-anchor="middle" visibility="hidden" style="font-size: 13px;">M</text><text y="358" x="111.42857142857143" text-anchor="middle" visibility="hidden" style="font-size: 13px;">P</text><text y="358" x="114.28571428571428" text-anchor="middle" visibility="hidden" style="font-size: 13px;">G</text><text y="358" x="117.14285714285715" text-anchor="middle" visibility="hidden" style="font-size: 13px;">M</text><text y="358" x="120" text-anchor="middle" visibility="hidden" style="font-size: 13px;">P</text><text y="358" x="122.85714285714285" text-anchor="middle" visibility="hidden" style="font-size: 13px;">G</text><text y="358" x="125.71428571428571" text-anchor="middle" visibility="hidden" style="font-size: 13px;">A</text><text y="358" x="128.57142857142858" text-anchor="middle" visibility="hidden" style="font-size: 13px;">P</text><text y="358" x="131.42857142857144" text-anchor="middle" visibility="hidden" style="font-size: 13px;">G</text><text y="358" x="134.28571428571428" text-anchor="middle" visibility="hidden" style="font-size: 13px;">K</text><text y="358" x="137.14285714285714" text-anchor="middle" visibility="hidden" style="font-size: 13px;">D</text><text y="358" x="140" text-anchor="middle" visibility="hidden" style="font-size: 13px;">G</text><text y="358" x="142.85714285714286" text-anchor="middle" visibility="hidden" style="font-size: 13px;">H</text><text y="358" x="145.71428571428572" text-anchor="middle" visibility="hidden" style="font-size: 13px;">D</text><text y="358" x="148.57142857142856" text-anchor="middle" visibility="hidden" style="font-size: 13px;">G</text><text y="358" x="151.42857142857144" text-anchor="middle" visibility="hidden" style="font-size: 13px;">L</text><text y="358" x="154.28571428571428" text-anchor="middle" visibility="hidden" style="font-size: 13px;">Q</text><text y="358" x="157.14285714285714" text-anchor="middle" visibility="hidden" style="font-size: 13px;">G</text><text y="358" x="160" text-anchor="middle" visibility="hidden" style="font-size: 13px;">P</text><text y="358" x="162.85714285714286" text-anchor="middle" visibility="hidden" style="font-size: 13px;">K</text><text y="358" x="165.71428571428572" text-anchor="middle" visibility="hidden" style="font-size: 13px;">G</text><text y="358" x="168.57142857142858" text-anchor="middle" visibility="hidden" style="font-size: 13px;">E</text><text y="358" x="171.42857142857142" text-anchor="middle" visibility="hidden" style="font-size: 13px;">P</text><text y="358" x="174.28571428571428" text-anchor="middle" visibility="hidden" style="font-size: 13px;">G</text><text y="358" x="177.14285714285714" text-anchor="middle" visibility="hidden" style="font-size: 13px;">I</text><text y="358" x="179.99999999999997" text-anchor="middle" visibility="hidden" style="font-size: 13px;">P</text><text y="358" x="182.85714285714286" text-anchor="middle" visibility="hidden" style="font-size: 13px;">A</text><text y="358" x="185.71428571428572" text-anchor="middle" visibility="hidden" style="font-size: 13px;">V</text><text y="358" x="188.57142857142858" text-anchor="middle" visibility="hidden" style="font-size: 13px;">P</text><text y="358" x="191.42857142857144" text-anchor="middle" visibility="hidden" style="font-size: 13px;">G</text><text y="358" x="194.28571428571428" text-anchor="middle" visibility="hidden" style="font-size: 13px;">T</text><text y="358" x="197.14285714285714" text-anchor="middle" visibility="hidden" style="font-size: 13px;">R</text><text y="358" x="200" text-anchor="middle" visibility="hidden" style="font-size: 13px;">G</text><text y="358" x="202.85714285714283" text-anchor="middle" visibility="hidden" style="font-size: 13px;">P</text><text y="358" x="205.71428571428572" text-anchor="middle" visibility="hidden" style="font-size: 13px;">K</text><text y="358" x="208.57142857142858" text-anchor="middle" visibility="hidden" style="font-size: 13px;">G</text><text y="358" x="211.42857142857144" text-anchor="middle" visibility="hidden" style="font-size: 13px;">Q</text><text y="358" x="214.28571428571428" text-anchor="middle" visibility="hidden" style="font-size: 13px;">K</text><text y="358" x="217.14285714285714" text-anchor="middle" visibility="hidden" style="font-size: 13px;">G</text><text y="358" x="220" text-anchor="middle" visibility="hidden" style="font-size: 13px;">E</text><text y="358" x="222.85714285714286" text-anchor="middle" visibility="hidden" style="font-size: 13px;">P</text><text y="358" x="225.7142857142857" text-anchor="middle" visibility="hidden" style="font-size: 13px;">G</text><text y="358" x="228.57142857142856" text-anchor="middle" visibility="hidden" style="font-size: 13px;">M</text><text y="358" x="231.42857142857144" text-anchor="middle" visibility="hidden" style="font-size: 13px;">P</text><text y="358" x="234.2857142857143" text-anchor="middle" visibility="hidden" style="font-size: 13px;">G</text><text y="358" x="237.14285714285714" text-anchor="middle" visibility="hidden" style="font-size: 13px;">H</text><text y="358" x="240" text-anchor="middle" visibility="hidden" style="font-size: 13px;">R</text><text y="358" x="242.85714285714286" text-anchor="middle" visibility="hidden" style="font-size: 13px;">G</text><text y="358" x="245.7142857142857" text-anchor="middle" visibility="hidden" style="font-size: 13px;">K</text><text y="358" x="248.57142857142856" text-anchor="middle" visibility="hidden" style="font-size: 13px;">N</text><text y="358" x="251.42857142857142" text-anchor="middle" visibility="hidden" style="font-size: 13px;">G</text><text y="358" x="254.2857142857143" text-anchor="middle" visibility="hidden" style="font-size: 13px;">P</text><text y="358" x="257.14285714285717" text-anchor="middle" visibility="hidden" style="font-size: 13px;">R</text><text y="358" x="260" text-anchor="middle" visibility="hidden" style="font-size: 13px;">G</text><text y="358" x="262.8571428571429" text-anchor="middle" visibility="hidden" style="font-size: 13px;">T</text><text y="358" x="265.7142857142857" text-anchor="middle" visibility="hidden" style="font-size: 13px;">S</text><text y="358" x="268.57142857142856" text-anchor="middle" visibility="hidden" style="font-size: 13px;">G</text><text y="358" x="271.42857142857144" text-anchor="middle" visibility="hidden" style="font-size: 13px;">L</text><text y="358" x="274.2857142857143" text-anchor="middle" visibility="hidden" style="font-size: 13px;">P</text><text y="358" x="277.1428571428571" text-anchor="middle" visibility="hidden" style="font-size: 13px;">G</text><text y="358" x="280" text-anchor="middle" visibility="hidden" style="font-size: 13px;">D</text><text y="358" x="282.8571428571429" text-anchor="middle" visibility="hidden" style="font-size: 13px;">P</text><text y="358" x="285.7142857142857" text-anchor="middle" visibility="hidden" style="font-size: 13px;">G</text><text y="358" x="288.57142857142856" text-anchor="middle" visibility="hidden" style="font-size: 13px;">P</text><text y="358" x="291.42857142857144" text-anchor="middle" visibility="hidden" style="font-size: 13px;">R</text><text y="358" x="294.2857142857143" text-anchor="middle" visibility="hidden" style="font-size: 13px;">G</text><text y="358" x="297.1428571428571" text-anchor="middle" visibility="hidden" style="font-size: 13px;">P</text><text y="358" x="300" text-anchor="middle" visibility="hidden" style="font-size: 13px;">P</text><text y="358" x="302.8571428571429" text-anchor="middle" visibility="hidden" style="font-size: 13px;">G</text><text y="358" x="305.7142857142857" text-anchor="middle" visibility="hidden" style="font-size: 13px;">E</text><text y="358" x="308.57142857142856" text-anchor="middle" visibility="hidden" style="font-size: 13px;">P</text><text y="358" x="311.42857142857144" text-anchor="middle" visibility="hidden" style="font-size: 13px;">G</text><text y="358" x="314.2857142857143" text-anchor="middle" visibility="hidden" style="font-size: 13px;">V</text><text y="358" x="317.1428571428571" text-anchor="middle" visibility="hidden" style="font-size: 13px;">E</text><text y="358" x="320" text-anchor="middle" visibility="hidden" style="font-size: 13px;">G</text><text y="358" x="322.85714285714283" text-anchor="middle" visibility="hidden" style="font-size: 13px;">R</text><text y="358" x="325.7142857142857" text-anchor="middle" visibility="hidden" style="font-size: 13px;">Y</text><text y="358" x="328.5714285714286" text-anchor="middle" visibility="hidden" style="font-size: 13px;">K</text><text y="358" x="331.42857142857144" text-anchor="middle" visibility="hidden" style="font-size: 13px;">Q</text><text y="358" x="334.2857142857143" text-anchor="middle" visibility="hidden" style="font-size: 13px;">K</text><text y="358" x="337.14285714285717" text-anchor="middle" visibility="hidden" style="font-size: 13px;">H</text><text y="358" x="340" text-anchor="middle" visibility="hidden" style="font-size: 13px;">Q</text><text y="358" x="342.85714285714283" text-anchor="middle" visibility="hidden" style="font-size: 13px;">S</text><text y="358" x="345.7142857142857" text-anchor="middle" visibility="hidden" style="font-size: 13px;">V</text><text y="358" x="348.57142857142856" text-anchor="middle" visibility="hidden" style="font-size: 13px;">F</text><text y="358" x="351.42857142857144" text-anchor="middle" visibility="hidden" style="font-size: 13px;">T</text><text y="358" x="354.2857142857143" text-anchor="middle" visibility="hidden" style="font-size: 13px;">V</text><text y="358" x="357.14285714285717" text-anchor="middle" visibility="hidden" style="font-size: 13px;">T</text><text y="358" x="359.99999999999994" text-anchor="middle" visibility="hidden" style="font-size: 13px;">R</text><text y="358" x="362.85714285714283" text-anchor="middle" visibility="hidden" style="font-size: 13px;">Q</text><text y="358" x="365.7142857142857" text-anchor="middle" visibility="hidden" style="font-size: 13px;">T</text><text y="358" x="368.57142857142856" text-anchor="middle" visibility="hidden" style="font-size: 13px;">T</text><text y="358" x="371.42857142857144" text-anchor="middle" visibility="hidden" style="font-size: 13px;">Q</text><text y="358" x="374.2857142857143" text-anchor="middle" visibility="hidden" style="font-size: 13px;">Y</text><text y="358" x="377.14285714285717" text-anchor="middle" visibility="hidden" style="font-size: 13px;">P</text><text y="358" x="379.99999999999994" text-anchor="middle" visibility="hidden" style="font-size: 13px;">E</text><text y="358" x="382.8571428571429" text-anchor="middle" visibility="hidden" style="font-size: 13px;">A</text><text y="358" x="385.71428571428567" text-anchor="middle" visibility="hidden" style="font-size: 13px;">N</text><text y="358" x="388.57142857142856" text-anchor="middle" visibility="hidden" style="font-size: 13px;">A</text><text y="358" x="391.42857142857144" text-anchor="middle" visibility="hidden" style="font-size: 13px;">L</text><text y="358" x="394.2857142857143" text-anchor="middle" visibility="hidden" style="font-size: 13px;">V</text><text y="358" x="397.14285714285717" text-anchor="middle" visibility="hidden" style="font-size: 13px;">R</text><text y="358" x="400" text-anchor="middle" visibility="hidden" style="font-size: 13px;">F</text><text y="358" x="402.8571428571429" text-anchor="middle" visibility="hidden" style="font-size: 13px;">N</text><text y="358" x="405.71428571428567" text-anchor="middle" visibility="hidden" style="font-size: 13px;">S</text><text y="358" x="408.57142857142856" text-anchor="middle" visibility="hidden" style="font-size: 13px;">V</text><text y="358" x="411.42857142857144" text-anchor="middle" visibility="hidden" style="font-size: 13px;">V</text><text y="358" x="414.2857142857143" text-anchor="middle" visibility="hidden" style="font-size: 13px;">T</text><text y="358" x="417.14285714285717" text-anchor="middle" visibility="hidden" style="font-size: 13px;">N</text><text y="358" x="420" text-anchor="middle" visibility="hidden" style="font-size: 13px;">P</text><text y="358" x="422.8571428571429" text-anchor="middle" visibility="hidden" style="font-size: 13px;">Q</text><text y="358" x="425.71428571428567" text-anchor="middle" visibility="hidden" style="font-size: 13px;">G</text><text y="358" x="428.57142857142856" text-anchor="middle" visibility="hidden" style="font-size: 13px;">H</text><text y="358" x="431.4285714285714" text-anchor="middle" visibility="hidden" style="font-size: 13px;">Y</text><text y="358" x="434.2857142857143" text-anchor="middle" visibility="hidden" style="font-size: 13px;">N</text><text y="358" x="437.14285714285717" text-anchor="middle" visibility="hidden" style="font-size: 13px;">P</text><text y="358" x="440" text-anchor="middle" visibility="hidden" style="font-size: 13px;">S</text><text y="358" x="442.8571428571429" text-anchor="middle" visibility="hidden" style="font-size: 13px;">T</text><text y="358" x="445.7142857142857" text-anchor="middle" visibility="hidden" style="font-size: 13px;">G</text><text y="358" x="448.5714285714286" text-anchor="middle" visibility="hidden" style="font-size: 13px;">K</text><text y="358" x="451.4285714285714" text-anchor="middle" visibility="hidden" style="font-size: 13px;">F</text><text y="358" x="454.2857142857143" text-anchor="middle" visibility="hidden" style="font-size: 13px;">T</text><text y="358" x="457.1428571428571" text-anchor="middle" visibility="hidden" style="font-size: 13px;">C</text><text y="358" x="460" text-anchor="middle" visibility="hidden" style="font-size: 13px;">E</text><text y="358" x="462.8571428571429" text-anchor="middle" visibility="hidden" style="font-size: 13px;">V</text><text y="358" x="465.7142857142857" text-anchor="middle" visibility="hidden" style="font-size: 13px;">P</text><text y="358" x="468.5714285714286" text-anchor="middle" visibility="hidden" style="font-size: 13px;">G</text><text y="358" x="471.4285714285714" text-anchor="middle" visibility="hidden" style="font-size: 13px;">L</text><text y="358" x="474.2857142857143" text-anchor="middle" visibility="hidden" style="font-size: 13px;">Y</text><text y="358" x="477.1428571428571" text-anchor="middle" visibility="hidden" style="font-size: 13px;">Y</text><text y="358" x="480" text-anchor="middle" visibility="hidden" style="font-size: 13px;">F</text><text y="358" x="482.8571428571429" text-anchor="middle" visibility="hidden" style="font-size: 13px;">V</text><text y="358" x="485.7142857142857" text-anchor="middle" visibility="hidden" style="font-size: 13px;">Y</text><text y="358" x="488.5714285714286" text-anchor="middle" visibility="hidden" style="font-size: 13px;">Y</text><text y="358" x="491.4285714285714" text-anchor="middle" visibility="hidden" style="font-size: 13px;">T</text><text y="358" x="494.28571428571433" text-anchor="middle" visibility="hidden" style="font-size: 13px;">S</text><text y="358" x="497.1428571428571" text-anchor="middle" visibility="hidden" style="font-size: 13px;">H</text><text y="358" x="500" text-anchor="middle" visibility="hidden" style="font-size: 13px;">T</text><text y="358" x="502.85714285714283" text-anchor="middle" visibility="hidden" style="font-size: 13px;">A</text><text y="358" x="505.7142857142857" text-anchor="middle" visibility="hidden" style="font-size: 13px;">N</text><text y="358" x="508.5714285714286" text-anchor="middle" visibility="hidden" style="font-size: 13px;">L</text><text y="358" x="511.42857142857144" text-anchor="middle" visibility="hidden" style="font-size: 13px;">C</text><text y="358" x="514.2857142857143" text-anchor="middle" visibility="hidden" style="font-size: 13px;">V</text><text y="358" x="517.1428571428571" text-anchor="middle" visibility="hidden" style="font-size: 13px;">H</text><text y="358" x="520" text-anchor="middle" visibility="hidden" style="font-size: 13px;">L</text><text y="358" x="522.8571428571428" text-anchor="middle" visibility="hidden" style="font-size: 13px;">N</text><text y="358" x="525.7142857142858" text-anchor="middle" visibility="hidden" style="font-size: 13px;">L</text><text y="358" x="528.5714285714286" text-anchor="middle" visibility="hidden" style="font-size: 13px;">N</text><text y="358" x="531.4285714285714" text-anchor="middle" visibility="hidden" style="font-size: 13px;">L</text><text y="358" x="534.2857142857143" text-anchor="middle" visibility="hidden" style="font-size: 13px;">A</text><text y="358" x="537.1428571428571" text-anchor="middle" visibility="hidden" style="font-size: 13px;">R</text><text y="358" x="540" text-anchor="middle" visibility="hidden" style="font-size: 13px;">V</text><text y="358" x="542.8571428571429" text-anchor="middle" visibility="hidden" style="font-size: 13px;">A</text><text y="358" x="545.7142857142858" text-anchor="middle" visibility="hidden" style="font-size: 13px;">S</text><text y="358" x="548.5714285714286" text-anchor="middle" visibility="hidden" style="font-size: 13px;">F</text><text y="358" x="551.4285714285714" text-anchor="middle" visibility="hidden" style="font-size: 13px;">C</text><text y="358" x="554.2857142857142" text-anchor="middle" visibility="hidden" style="font-size: 13px;">D</text><text y="358" x="557.1428571428571" text-anchor="middle" visibility="hidden" style="font-size: 13px;">H</text><text y="358" x="560" text-anchor="middle" visibility="hidden" style="font-size: 13px;">M</text><text y="358" x="562.8571428571429" text-anchor="middle" visibility="hidden" style="font-size: 13px;">F</text><text y="358" x="565.7142857142858" text-anchor="middle" visibility="hidden" style="font-size: 13px;">N</text><text y="358" x="568.5714285714286" text-anchor="middle" visibility="hidden" style="font-size: 13px;">S</text><text y="358" x="571.4285714285714" text-anchor="middle" visibility="hidden" style="font-size: 13px;">K</text><text y="358" x="574.2857142857142" text-anchor="middle" visibility="hidden" style="font-size: 13px;">Q</text><text y="358" x="577.1428571428571" text-anchor="middle" visibility="hidden" style="font-size: 13px;">V</text><text y="358" x="580" text-anchor="middle" visibility="hidden" style="font-size: 13px;">S</text><text y="358" x="582.8571428571429" text-anchor="middle" visibility="hidden" style="font-size: 13px;">S</text><text y="358" x="585.7142857142858" text-anchor="middle" visibility="hidden" style="font-size: 13px;">G</text><text y="358" x="588.5714285714286" text-anchor="middle" visibility="hidden" style="font-size: 13px;">G</text><text y="358" x="591.4285714285714" text-anchor="middle" visibility="hidden" style="font-size: 13px;">V</text><text y="358" x="594.2857142857142" text-anchor="middle" visibility="hidden" style="font-size: 13px;">L</text><text y="358" x="597.1428571428571" text-anchor="middle" visibility="hidden" style="font-size: 13px;">L</text><text y="358" x="600" text-anchor="middle" visibility="hidden" style="font-size: 13px;">R</text><text y="358" x="602.8571428571429" text-anchor="middle" visibility="hidden" style="font-size: 13px;">L</text><text y="358" x="605.7142857142858" text-anchor="middle" visibility="hidden" style="font-size: 13px;">Q</text><text y="358" x="608.5714285714286" text-anchor="middle" visibility="hidden" style="font-size: 13px;">R</text><text y="358" x="611.4285714285714" text-anchor="middle" visibility="hidden" style="font-size: 13px;">G</text><text y="358" x="614.2857142857142" text-anchor="middle" visibility="hidden" style="font-size: 13px;">D</text><text y="358" x="617.1428571428571" text-anchor="middle" visibility="hidden" style="font-size: 13px;">E</text><text y="358" x="620" text-anchor="middle" visibility="hidden" style="font-size: 13px;">V</text><text y="358" x="622.8571428571429" text-anchor="middle" visibility="hidden" style="font-size: 13px;">W</text><text y="358" x="625.7142857142857" text-anchor="middle" visibility="hidden" style="font-size: 13px;">L</text><text y="358" x="628.5714285714286" text-anchor="middle" visibility="hidden" style="font-size: 13px;">S</text><text y="358" x="631.4285714285714" text-anchor="middle" visibility="hidden" style="font-size: 13px;">V</text><text y="358" x="634.2857142857142" text-anchor="middle" visibility="hidden" style="font-size: 13px;">N</text><text y="358" x="637.1428571428571" text-anchor="middle" visibility="hidden" style="font-size: 13px;">D</text><text y="358" x="640" text-anchor="middle" visibility="hidden" style="font-size: 13px;">Y</text><text y="358" x="642.8571428571429" text-anchor="middle" visibility="hidden" style="font-size: 13px;">N</text><text y="358" x="645.7142857142857" text-anchor="middle" visibility="hidden" style="font-size: 13px;">G</text><text y="358" x="648.5714285714286" text-anchor="middle" visibility="hidden" style="font-size: 13px;">M</text><text y="358" x="651.4285714285714" text-anchor="middle" visibility="hidden" style="font-size: 13px;">V</text><text y="358" x="654.2857142857143" text-anchor="middle" visibility="hidden" style="font-size: 13px;">G</text><text y="358" x="657.1428571428572" text-anchor="middle" visibility="hidden" style="font-size: 13px;">I</text><text y="358" x="660" text-anchor="middle" visibility="hidden" style="font-size: 13px;">E</text><text y="358" x="662.8571428571429" text-anchor="middle" visibility="hidden" style="font-size: 13px;">G</text><text y="358" x="665.7142857142857" text-anchor="middle" visibility="hidden" style="font-size: 13px;">S</text><text y="358" x="668.5714285714286" text-anchor="middle" visibility="hidden" style="font-size: 13px;">N</text><text y="358" x="671.4285714285714" text-anchor="middle" visibility="hidden" style="font-size: 13px;">S</text><text y="358" x="674.2857142857143" text-anchor="middle" visibility="hidden" style="font-size: 13px;">V</text><text y="358" x="677.1428571428572" text-anchor="middle" visibility="hidden" style="font-size: 13px;">F</text><text y="358" x="680" text-anchor="middle" visibility="hidden" style="font-size: 13px;">S</text><text y="358" x="682.8571428571429" text-anchor="middle" visibility="hidden" style="font-size: 13px;">G</text><text y="358" x="685.7142857142857" text-anchor="middle" visibility="hidden" style="font-size: 13px;">F</text><text y="358" x="688.5714285714286" text-anchor="middle" visibility="hidden" style="font-size: 13px;">L</text><text y="358" x="691.4285714285714" text-anchor="middle" visibility="hidden" style="font-size: 13px;">L</text><text y="358" x="694.2857142857143" text-anchor="middle" visibility="hidden" style="font-size: 13px;">F</text><text y="358" x="697.1428571428571" text-anchor="middle" visibility="hidden" style="font-size: 13px;">P</text><text y="358" x="700" text-anchor="middle" visibility="hidden" style="font-size: 13px;">D</text></g></g></svg><g class="xAxis" transform="translate(0,360)" fill="none" font-size="10" font-family="sans-serif" text-anchor="middle"><path class="domain" stroke="#000" d="M0.5,6V0.5H700.5V6"></path><g class="tick" opacity="1" transform="translate(54.785714285714285,0)"><line stroke="#000" y2="6"></line><text fill="#000" y="9" dy="0.71em">20</text></g><g class="tick" opacity="1" transform="translate(111.92857142857143,0)"><line stroke="#000" y2="6"></line><text fill="#000" y="9" dy="0.71em">40</text></g><g class="tick" opacity="1" transform="translate(169.07142857142858,0)"><line stroke="#000" y2="6"></line><text fill="#000" y="9" dy="0.71em">60</text></g><g class="tick" opacity="1" transform="translate(226.2142857142857,0)"><line stroke="#000" y2="6"></line><text fill="#000" y="9" dy="0.71em">80</text></g><g class="tick" opacity="1" transform="translate(283.3571428571429,0)"><line stroke="#000" y2="6"></line><text fill="#000" y="9" dy="0.71em">100</text></g><g class="tick" opacity="1" transform="translate(340.5,0)"><line stroke="#000" y2="6"></line><text fill="#000" y="9" dy="0.71em">120</text></g><g class="tick" opacity="1" transform="translate(397.64285714285717,0)"><line stroke="#000" y2="6"></line><text fill="#000" y="9" dy="0.71em">140</text></g><g class="tick" opacity="1" transform="translate(454.7857142857143,0)"><line stroke="#000" y2="6"></line><text fill="#000" y="9" dy="0.71em">160</text></g><g class="tick" opacity="1" transform="translate(511.92857142857144,0)"><line stroke="#000" y2="6"></line><text fill="#000" y="9" dy="0.71em">180</text></g><g class="tick" opacity="1" transform="translate(569.0714285714286,0)"><line stroke="#000" y2="6"></line><text fill="#000" y="9" dy="0.71em">200</text></g><g class="tick" opacity="1" transform="translate(626.2142857142857,0)"><line stroke="#000" y2="6"></line><text fill="#000" y="9" dy="0.71em">220</text></g><g class="tick" opacity="1" transform="translate(683.3571428571429,0)"><line stroke="#000" y2="6"></line><text fill="#000" y="9" dy="0.71em">240</text></g></g><text class="x label" text-anchor="end" x="700" y="390" style="font-size: 13px; font-family: Arial;">Residue number</text><g class="yAxis" fill="none" font-size="10" font-family="sans-serif" text-anchor="end"><path class="domain" stroke="#000" d="M-6,360.5H0.5V0.5H-6"></path><g class="tick" opacity="1" transform="translate(0,357.52479338842977)"><line stroke="#000" x2="-6"></line><text fill="#000" x="-9" dy="0.32em"></text></g><g class="tick" opacity="1" transform="translate(0,327.77272727272725)"><line stroke="#000" x2="-6"></line><text fill="#000" x="-9" dy="0.32em">0</text></g><g class="tick" opacity="1" transform="translate(0,298.0206611570248)"><line stroke="#000" x2="-6"></line><text fill="#000" x="-9" dy="0.32em">0.1</text></g><g class="tick" opacity="1" transform="translate(0,268.2685950413223)"><line stroke="#000" x2="-6"></line><text fill="#000" x="-9" dy="0.32em">0.2</text></g><g class="tick" opacity="1" transform="translate(0,238.51652892561984)"><line stroke="#000" x2="-6"></line><text fill="#000" x="-9" dy="0.32em">0.3</text></g><g class="tick" opacity="1" transform="translate(0,208.76446280991738)"><line stroke="#000" x2="-6"></line><text fill="#000" x="-9" dy="0.32em">0.4</text></g><g class="tick" opacity="1" transform="translate(0,179.0123966942149)"><line stroke="#000" x2="-6"></line><text fill="#000" x="-9" dy="0.32em">0.5</text></g><g class="tick" opacity="1" transform="translate(0,149.26033057851242)"><line stroke="#000" x2="-6"></line><text fill="#000" x="-9" dy="0.32em">0.6</text></g><g class="tick" opacity="1" transform="translate(0,119.50826446280996)"><line stroke="#000" x2="-6"></line><text fill="#000" x="-9" dy="0.32em">0.7</text></g><g class="tick" opacity="1" transform="translate(0,89.75619834710744)"><line stroke="#000" x2="-6"></line><text fill="#000" x="-9" dy="0.32em">0.8</text></g><g class="tick" opacity="1" transform="translate(0,60.00413223140498)"><line stroke="#000" x2="-6"></line><text fill="#000" x="-9" dy="0.32em">0.9</text></g><g class="tick" opacity="1" transform="translate(0,30.25206611570252)"><line stroke="#000" x2="-6"></line><text fill="#000" x="-9" dy="0.32em">1</text></g><g class="tick" opacity="1" transform="translate(0,0.5)"><line stroke="#000" x2="-6"></line><text fill="#000" x="-9" dy="0.32em">1.1</text></g></g><text class="y label" text-anchor="middle" y="-50" x="-180" dy="0.8em" transform="rotate(-90)" style="font-size: 13px; font-family: Arial;">Total number of references</text><g class="axisRed" fill="none" font-size="10" font-family="sans-serif" text-anchor="start" visibility="hidden" transform="translate(700, 0)"><path class="domain" stroke="#000" d="M6,360.5H0.5V0.5H6"></path><g class="tick" opacity="1" transform="translate(0,360.5)"><line stroke="#000" x2="6"></line><text fill="#000" x="9" dy="0.32em">0</text></g><text text-anchor="start" dx="5.2em" dy="-2.6em" transform="rotate(90)" visibility="hidden" style="font-size: 12px; font-family: Arial; fill: #d7301f;">No recurrent (&gt;2) missense mutations!</text></g><g class="axisPurple" fill="none" font-size="10" font-family="sans-serif" text-anchor="start" visibility="hidden"><path class="domain" stroke="#000" d="M6,360.5H0.5V0.5H6"></path><g class="tick" opacity="1" transform="translate(0,357.52479338842977)"><line stroke="#000" x2="6"></line><text fill="#000" x="9" dy="0.32em"></text></g><g class="tick" opacity="1" transform="translate(0,327.77272727272725)"><line stroke="#000" x2="6"></line><text fill="#000" x="9" dy="0.32em">0</text></g><g class="tick" opacity="1" transform="translate(0,298.0206611570248)"><line stroke="#000" x2="6"></line><text fill="#000" x="9" dy="0.32em">0.1</text></g><g class="tick" opacity="1" transform="translate(0,268.2685950413223)"><line stroke="#000" x2="6"></line><text fill="#000" x="9" dy="0.32em">0.2</text></g><g class="tick" opacity="1" transform="translate(0,238.51652892561984)"><line stroke="#000" x2="6"></line><text fill="#000" x="9" dy="0.32em">0.3</text></g><g class="tick" opacity="1" transform="translate(0,208.76446280991738)"><line stroke="#000" x2="6"></line><text fill="#000" x="9" dy="0.32em">0.4</text></g><g class="tick" opacity="1" transform="translate(0,179.0123966942149)"><line stroke="#000" x2="6"></line><text fill="#000" x="9" dy="0.32em">0.5</text></g><g class="tick" opacity="1" transform="translate(0,149.26033057851242)"><line stroke="#000" x2="6"></line><text fill="#000" x="9" dy="0.32em">0.6</text></g><g class="tick" opacity="1" transform="translate(0,119.50826446280996)"><line stroke="#000" x2="6"></line><text fill="#000" x="9" dy="0.32em">0.7</text></g><g class="tick" opacity="1" transform="translate(0,89.75619834710744)"><line stroke="#000" x2="6"></line><text fill="#000" x="9" dy="0.32em">0.8</text></g><g class="tick" opacity="1" transform="translate(0,60.00413223140498)"><line stroke="#000" x2="6"></line><text fill="#000" x="9" dy="0.32em">0.9</text></g><g class="tick" opacity="1" transform="translate(0,30.25206611570252)"><line stroke="#000" x2="6"></line><text fill="#000" x="9" dy="0.32em">1</text></g><g class="tick" opacity="1" transform="translate(0,0.5)"><line stroke="#000" x2="6"></line><text fill="#000" x="9" dy="0.32em">1.1</text></g><text text-anchor="start" x="10" y="10" visibility="hidden" style="font-size: 12px; font-family: Arial; fill: #807dba;">No disease causing germline SNPs known!</text></g><circle cx="636" cy="15" r="10" class="compassNav" style="fill: #ffffff; stroke: #666666; stroke-width: 1px;"></circle><path d="M440.935 12.574l3.966 82.766C399.416 41.904 331.674 8 256 8 134.813 8 33.933 94.924 12.296 209.824 10.908 217.193 16.604 224 24.103 224h49.084c5.57 0 10.377-3.842 11.676-9.259C103.407 137.408 172.931 80 256 80c60.893 0 114.512 30.856 146.104 77.801l-101.53-4.865c-6.845-.328-12.574 5.133-12.574 11.986v47.411c0 6.627 5.373 12 12 12h200.333c6.627 0 12-5.373 12-12V12c0-6.627-5.373-12-12-12h-47.411c-6.853 0-12.315 5.729-11.987 12.574zM256 432c-60.895 0-114.517-30.858-146.109-77.805l101.868 4.871c6.845.327 12.573-5.134 12.573-11.986v-47.412c0-6.627-5.373-12-12-12H12c-6.627 0-12 5.373-12 12V500c0 6.627 5.373 12 12 12h47.385c6.863 0 12.328-5.745 11.985-12.599l-4.129-82.575C112.725 470.166 180.405 504 256 504c121.187 0 222.067-86.924 243.704-201.824 1.388-7.369-4.308-14.176-11.807-14.176h-49.084c-5.57 0-10.377 3.842-11.676 9.259C408.593 374.592 339.069 432 256 432z" class="compassNav" transform="translate(631, 10) scale(0.02)" style="fill: #666666; stroke: #666666; stroke-width: 1px;"></path><circle cx="658" cy="15" r="10" class="compassNav" style="fill: #ffffff; stroke: #666666; stroke-width: 1px;"></circle><line class="compassNav" stroke-width="2" stroke="#666666" x1="654" y1="15" x2="662" y2="15"></line><line class="compassNav" stroke-width="2" stroke="#666666" x1="658" y1="11" x2="658" y2="19"></line><circle cx="614" cy="15" r="10" class="compassNav" style="fill: #ffffff; stroke: #666666; stroke-width: 1px;"></circle><line class="compassNav" stroke-width="2" stroke="#666666" x1="610" y1="15" x2="618" y2="15"></line><path d="M582 14 l20 -12 a100,40 0 0,0 0,24z" class="compassNav" style="fill: #ffffff; stroke: #666666; stroke-width: 1px;"></path><path d="M690 14 l-20 -12 a100,40 0 0,1 0,24z" class="compassNav" style="fill: #ffffff; stroke: #666666; stroke-width: 1px;"></path><path d="M216 0h80c13.3 0 24 10.7 24 24v168h87.7c17.8 0 26.7 21.5 14.1 34.1L269.7 378.3c-7.5 7.5-19.8 7.5-27.3 0L90.1 226.1c-12.6-12.6-3.7-34.1 14.1-34.1H192V24c0-13.3 10.7-24 24-24zm296 376v112c0 13.3-10.7 24-24 24H24c-13.3 0-24-10.7-24-24V376c0-13.3 10.7-24 24-24h146.7l49 49c20.1 20.1 52.5 20.1 72.6 0l49-49H488c13.3 0 24 10.7 24 24zm-124 88c0-11-9-20-20-20s-20 9-20 20 9 20 20 20 20-9 20-20zm64 0c0-11-9-20-20-20s-20 9-20 20 9 20 20 20 20-9 20-20z" class="compassNav" transform="translate(552,0) scale(0.05)" style="fill: #336699; stroke: #336699; stroke-width: 1px; cursor: pointer;"></path></g></svg>