<svg width="800" height="400" style="background-color: white;"><g transform="translate(50,0)"><svg width="700" height="360"><g style="-webkit-tap-highlight-color: rgba(0, 0, 0, 0);"><rect width="700" height="360" style="fill: #ffffff;"></rect><g id="lines"><line class="line" stroke-width="1" stroke="#d7301f" x1="-386.3387978142076" y1="333" x2="-386.3387978142076" y2="360" visibility="hidden" style="stroke-dasharray: 3px, 3px;"></line></g><g><rect x="-391.3387978142076" y="355" width="10" height="10" visibility="hidden" style="fill: #ffffff; stroke: #d7301f;"></rect></g><g id="lines"><line class="line" stroke-width="1" stroke="#6a51a3" x1="-386.3387978142076" y1="333" x2="-386.3387978142076" y2="327.27272727272725" visibility="hidden" style="stroke-dasharray: 3px, 3px;"></line></g><g><rect x="-391.3387978142076" y="322.27272727272725" width="10" height="10" visibility="hidden" style="fill: #ffffff; stroke: #6a51a3;"></rect></g><g id="lines"><line class="line" stroke-width="1" stroke="#666666" x1="130.05464480874318" y1="333" x2="130.05464480874318" y2="310.74380165289256"></line><line class="line" stroke-width="1" stroke="#666666" x1="141.53005464480876" y1="333" x2="141.53005464480876" y2="310.74380165289256"></line><line class="line" stroke-width="1" stroke="#666666" x1="164.4808743169399" y1="333" x2="164.4808743169399" y2="294.21487603305786"></line><line class="line" stroke-width="1" stroke="#666666" x1="168.30601092896174" y1="333" x2="168.30601092896174" y2="310.74380165289256"></line><line class="line" stroke-width="1" stroke="#666666" x1="210.38251366120218" y1="333" x2="210.38251366120218" y2="294.21487603305786"></line><line class="line" stroke-width="1" stroke="#666666" x1="225.68306010928964" y1="333" x2="225.68306010928964" y2="277.68595041322317"></line><line class="line" stroke-width="1" stroke="#666666" x1="244.8087431693989" y1="333" x2="244.8087431693989" y2="310.74380165289256"></line><line class="line" stroke-width="1" stroke="#666666" x1="332.7868852459016" y1="333" x2="332.7868852459016" y2="310.74380165289256"></line><line class="line" stroke-width="1" stroke="#666666" x1="332.7868852459016" y1="333" x2="332.7868852459016" y2="294.21487603305786"></line><line class="line" stroke-width="1" stroke="#666666" x1="363.3879781420765" y1="333" x2="363.3879781420765" y2="277.68595041322317"></line><line class="line" stroke-width="1" stroke="#666666" x1="405.4644808743169" y1="333" x2="405.4644808743169" y2="310.74380165289256"></line><line class="line" stroke-width="1" stroke="#666666" x1="516.3934426229508" y1="333" x2="516.3934426229508" y2="29.75206611570252"></line><line class="line" stroke-width="1" stroke="#666666" x1="520.2185792349727" y1="333" x2="520.2185792349727" y2="277.68595041322317"></line><line class="line" stroke-width="1" stroke="#666666" x1="531.6939890710382" y1="333" x2="531.6939890710382" y2="95.8677685950413"></line><line class="line" stroke-width="1" stroke="#666666" x1="531.6939890710382" y1="333" x2="531.6939890710382" y2="277.68595041322317"></line><line class="line" stroke-width="1" stroke="#666666" x1="562.2950819672132" y1="333" x2="562.2950819672132" y2="228.09917355371903"></line><line class="line" stroke-width="1" stroke="#666666" x1="562.2950819672132" y1="333" x2="562.2950819672132" y2="244.62809917355372"></line><line class="line" stroke-width="1" stroke="#666666" x1="596.7213114754098" y1="333" x2="596.7213114754098" y2="261.1570247933884"></line><line class="line" stroke-width="1" stroke="#666666" x1="604.3715846994535" y1="333" x2="604.3715846994535" y2="294.21487603305786"></line></g><g id="circles"><circle r="4" cx="130.05464480874318" cy="310.74380165289256" style="fill: #4393c3; stroke: #666666; stroke-width: 1px;"></circle><circle r="4" cx="141.53005464480876" cy="310.74380165289256" style="fill: #666666; stroke: #666666; stroke-width: 1px;"></circle><circle r="4" cx="164.4808743169399" cy="294.21487603305786" style="fill: #bf812d; stroke: #666666; stroke-width: 1px;"></circle><circle r="4" cx="168.30601092896174" cy="310.74380165289256" style="fill: #4393c3; stroke: #666666; stroke-width: 1px;"></circle><circle r="4" cx="210.38251366120218" cy="294.21487603305786" style="fill: #4393c3; stroke: #666666; stroke-width: 1px;"></circle><circle r="4" cx="225.68306010928964" cy="277.68595041322317" style="fill: #bf812d; stroke: #666666; stroke-width: 1px;"></circle><circle r="4" cx="244.8087431693989" cy="310.74380165289256" style="fill: #4393c3; stroke: #666666; stroke-width: 1px;"></circle><circle r="4" cx="332.7868852459016" cy="310.74380165289256" style="fill: #5aae61; stroke: #666666; stroke-width: 1px;"></circle><circle r="4" cx="332.7868852459016" cy="294.21487603305786" style="fill: #bf812d; stroke: #666666; stroke-width: 1px;"></circle><circle r="4" cx="363.3879781420765" cy="277.68595041322317" style="fill: #bf812d; stroke: #666666; stroke-width: 1px;"></circle><circle r="4" cx="405.4644808743169" cy="310.74380165289256" style="fill: #4393c3; stroke: #666666; stroke-width: 1px;"></circle><circle r="4" cx="516.3934426229508" cy="29.75206611570252" style="fill: #4393c3; stroke: #666666; stroke-width: 1px;"></circle><circle r="4" cx="520.2185792349727" cy="277.68595041322317" style="fill: #4393c3; stroke: #666666; stroke-width: 1px;"></circle><circle r="4" cx="531.6939890710382" cy="95.8677685950413" style="fill: #5aae61; stroke: #666666; stroke-width: 1px;"></circle><circle r="4" cx="531.6939890710382" cy="277.68595041322317" style="fill: #bf812d; stroke: #666666; stroke-width: 1px;"></circle><circle r="4" cx="562.2950819672132" cy="228.09917355371903" style="fill: #5aae61; stroke: #666666; stroke-width: 1px;"></circle><circle r="4" cx="562.2950819672132" cy="244.62809917355372" style="fill: #bf812d; stroke: #666666; stroke-width: 1px;"></circle><circle r="4" cx="596.7213114754098" cy="261.1570247933884" style="fill: #5aae61; stroke: #666666; stroke-width: 1px;"></circle><circle r="4" cx="604.3715846994535" cy="294.21487603305786" style="fill: #5aae61; stroke: #666666; stroke-width: 1px;"></circle></g><g><rect x="0" y="333" width="700" height="12" style="fill: #ffffff; stroke-width: 1px; stroke: #666666;"></rect><rect x="114.75409836065573" y="333" width="546.9945355191257" height="12" style="fill: #aec7e8; stroke-width: 1px; stroke: #666666;"></rect></g><g><a target="_blank" xlink:href="http://pfam.xfam.org/family/"><text y="343" x="350" text-anchor="middle" style="color: rgb(102, 102, 102); font-weight: normal; font-size: 12px; font-family: Arial; cursor: pointer;"></text></a><a target="_blank" xlink:href="http://pfam.xfam.org/family/Glyoxalase"><text y="343" x="388.25136612021856" text-anchor="middle" style="color: rgb(102, 102, 102); font-weight: normal; font-size: 12px; font-family: Arial; cursor: pointer;">Glyoxalase</text></a></g><g><text y="358" x="0" text-anchor="middle" visibility="hidden" style="font-size: 13px;">M</text><text y="358" x="3.8251366120218577" text-anchor="middle" visibility="hidden" style="font-size: 13px;">A</text><text y="358" x="7.6502732240437155" text-anchor="middle" visibility="hidden" style="font-size: 13px;">E</text><text y="358" x="11.475409836065575" text-anchor="middle" visibility="hidden" style="font-size: 13px;">P</text><text y="358" x="15.300546448087431" text-anchor="middle" visibility="hidden" style="font-size: 13px;">Q</text><text y="358" x="19.12568306010929" text-anchor="middle" visibility="hidden" style="font-size: 13px;">P</text><text y="358" x="22.95081967213115" text-anchor="middle" visibility="hidden" style="font-size: 13px;">P</text><text y="358" x="26.775956284153008" text-anchor="middle" visibility="hidden" style="font-size: 13px;">S</text><text y="358" x="30.601092896174862" text-anchor="middle" visibility="hidden" style="font-size: 13px;">G</text><text y="358" x="34.42622950819672" text-anchor="middle" visibility="hidden" style="font-size: 13px;">G</text><text y="358" x="38.25136612021858" text-anchor="middle" visibility="hidden" style="font-size: 13px;">L</text><text y="358" x="42.076502732240435" text-anchor="middle" visibility="hidden" style="font-size: 13px;">T</text><text y="358" x="45.9016393442623" text-anchor="middle" visibility="hidden" style="font-size: 13px;">D</text><text y="358" x="49.72677595628415" text-anchor="middle" visibility="hidden" style="font-size: 13px;">E</text><text y="358" x="53.551912568306015" text-anchor="middle" visibility="hidden" style="font-size: 13px;">A</text><text y="358" x="57.377049180327866" text-anchor="middle" visibility="hidden" style="font-size: 13px;">A</text><text y="358" x="61.202185792349724" text-anchor="middle" visibility="hidden" style="font-size: 13px;">L</text><text y="358" x="65.02732240437159" text-anchor="middle" visibility="hidden" style="font-size: 13px;">S</text><text y="358" x="68.85245901639344" text-anchor="middle" visibility="hidden" style="font-size: 13px;">C</text><text y="358" x="72.6775956284153" text-anchor="middle" visibility="hidden" style="font-size: 13px;">C</text><text y="358" x="76.50273224043715" text-anchor="middle" visibility="hidden" style="font-size: 13px;">S</text><text y="358" x="80.32786885245902" text-anchor="middle" visibility="hidden" style="font-size: 13px;">D</text><text y="358" x="84.15300546448087" text-anchor="middle" visibility="hidden" style="font-size: 13px;">A</text><text y="358" x="87.97814207650273" text-anchor="middle" visibility="hidden" style="font-size: 13px;">D</text><text y="358" x="91.8032786885246" text-anchor="middle" visibility="hidden" style="font-size: 13px;">P</text><text y="358" x="95.62841530054645" text-anchor="middle" visibility="hidden" style="font-size: 13px;">S</text><text y="358" x="99.4535519125683" text-anchor="middle" visibility="hidden" style="font-size: 13px;">T</text><text y="358" x="103.27868852459017" text-anchor="middle" visibility="hidden" style="font-size: 13px;">K</text><text y="358" x="107.10382513661203" text-anchor="middle" visibility="hidden" style="font-size: 13px;">D</text><text y="358" x="110.92896174863388" text-anchor="middle" visibility="hidden" style="font-size: 13px;">F</text><text y="358" x="114.75409836065573" text-anchor="middle" visibility="hidden" style="font-size: 13px;">L</text><text y="358" x="118.5792349726776" text-anchor="middle" visibility="hidden" style="font-size: 13px;">L</text><text y="358" x="122.40437158469945" text-anchor="middle" visibility="hidden" style="font-size: 13px;">Q</text><text y="358" x="126.22950819672131" text-anchor="middle" visibility="hidden" style="font-size: 13px;">Q</text><text y="358" x="130.05464480874318" text-anchor="middle" visibility="hidden" style="font-size: 13px;">T</text><text y="358" x="133.87978142076503" text-anchor="middle" visibility="hidden" style="font-size: 13px;">M</text><text y="358" x="137.70491803278688" text-anchor="middle" visibility="hidden" style="font-size: 13px;">L</text><text y="358" x="141.53005464480876" text-anchor="middle" visibility="hidden" style="font-size: 13px;">R</text><text y="358" x="145.3551912568306" text-anchor="middle" visibility="hidden" style="font-size: 13px;">V</text><text y="358" x="149.18032786885246" text-anchor="middle" visibility="hidden" style="font-size: 13px;">K</text><text y="358" x="153.0054644808743" text-anchor="middle" visibility="hidden" style="font-size: 13px;">D</text><text y="358" x="156.8306010928962" text-anchor="middle" visibility="hidden" style="font-size: 13px;">P</text><text y="358" x="160.65573770491804" text-anchor="middle" visibility="hidden" style="font-size: 13px;">K</text><text y="358" x="164.4808743169399" text-anchor="middle" visibility="hidden" style="font-size: 13px;">K</text><text y="358" x="168.30601092896174" text-anchor="middle" visibility="hidden" style="font-size: 13px;">S</text><text y="358" x="172.1311475409836" text-anchor="middle" visibility="hidden" style="font-size: 13px;">L</text><text y="358" x="175.95628415300547" text-anchor="middle" visibility="hidden" style="font-size: 13px;">D</text><text y="358" x="179.78142076502732" text-anchor="middle" visibility="hidden" style="font-size: 13px;">F</text><text y="358" x="183.6065573770492" text-anchor="middle" visibility="hidden" style="font-size: 13px;">Y</text><text y="358" x="187.43169398907105" text-anchor="middle" visibility="hidden" style="font-size: 13px;">T</text><text y="358" x="191.2568306010929" text-anchor="middle" visibility="hidden" style="font-size: 13px;">R</text><text y="358" x="195.08196721311475" text-anchor="middle" visibility="hidden" style="font-size: 13px;">V</text><text y="358" x="198.9071038251366" text-anchor="middle" visibility="hidden" style="font-size: 13px;">L</text><text y="358" x="202.73224043715845" text-anchor="middle" visibility="hidden" style="font-size: 13px;">G</text><text y="358" x="206.55737704918033" text-anchor="middle" visibility="hidden" style="font-size: 13px;">M</text><text y="358" x="210.38251366120218" text-anchor="middle" visibility="hidden" style="font-size: 13px;">T</text><text y="358" x="214.20765027322406" text-anchor="middle" visibility="hidden" style="font-size: 13px;">L</text><text y="358" x="218.0327868852459" text-anchor="middle" visibility="hidden" style="font-size: 13px;">I</text><text y="358" x="221.85792349726776" text-anchor="middle" visibility="hidden" style="font-size: 13px;">Q</text><text y="358" x="225.68306010928964" text-anchor="middle" visibility="hidden" style="font-size: 13px;">K</text><text y="358" x="229.50819672131146" text-anchor="middle" visibility="hidden" style="font-size: 13px;">C</text><text y="358" x="233.33333333333331" text-anchor="middle" visibility="hidden" style="font-size: 13px;">D</text><text y="358" x="237.1584699453552" text-anchor="middle" visibility="hidden" style="font-size: 13px;">F</text><text y="358" x="240.98360655737704" text-anchor="middle" visibility="hidden" style="font-size: 13px;">P</text><text y="358" x="244.8087431693989" text-anchor="middle" visibility="hidden" style="font-size: 13px;">I</text><text y="358" x="248.63387978142077" text-anchor="middle" visibility="hidden" style="font-size: 13px;">M</text><text y="358" x="252.45901639344262" text-anchor="middle" visibility="hidden" style="font-size: 13px;">K</text><text y="358" x="256.2841530054645" text-anchor="middle" visibility="hidden" style="font-size: 13px;">F</text><text y="358" x="260.10928961748635" text-anchor="middle" visibility="hidden" style="font-size: 13px;">S</text><text y="358" x="263.9344262295082" text-anchor="middle" visibility="hidden" style="font-size: 13px;">L</text><text y="358" x="267.75956284153006" text-anchor="middle" visibility="hidden" style="font-size: 13px;">Y</text><text y="358" x="271.5846994535519" text-anchor="middle" visibility="hidden" style="font-size: 13px;">F</text><text y="358" x="275.40983606557376" text-anchor="middle" visibility="hidden" style="font-size: 13px;">L</text><text y="358" x="279.23497267759564" text-anchor="middle" visibility="hidden" style="font-size: 13px;">A</text><text y="358" x="283.0601092896175" text-anchor="middle" visibility="hidden" style="font-size: 13px;">Y</text><text y="358" x="286.88524590163934" text-anchor="middle" visibility="hidden" style="font-size: 13px;">E</text><text y="358" x="290.7103825136612" text-anchor="middle" visibility="hidden" style="font-size: 13px;">D</text><text y="358" x="294.5355191256831" text-anchor="middle" visibility="hidden" style="font-size: 13px;">K</text><text y="358" x="298.3606557377049" text-anchor="middle" visibility="hidden" style="font-size: 13px;">N</text><text y="358" x="302.18579234972674" text-anchor="middle" visibility="hidden" style="font-size: 13px;">D</text><text y="358" x="306.0109289617486" text-anchor="middle" visibility="hidden" style="font-size: 13px;">I</text><text y="358" x="309.8360655737705" text-anchor="middle" visibility="hidden" style="font-size: 13px;">P</text><text y="358" x="313.6612021857924" text-anchor="middle" visibility="hidden" style="font-size: 13px;">K</text><text y="358" x="317.4863387978142" text-anchor="middle" visibility="hidden" style="font-size: 13px;">E</text><text y="358" x="321.3114754098361" text-anchor="middle" visibility="hidden" style="font-size: 13px;">K</text><text y="358" x="325.13661202185796" text-anchor="middle" visibility="hidden" style="font-size: 13px;">D</text><text y="358" x="328.9617486338798" text-anchor="middle" visibility="hidden" style="font-size: 13px;">E</text><text y="358" x="332.7868852459016" text-anchor="middle" visibility="hidden" style="font-size: 13px;">K</text><text y="358" x="336.6120218579235" text-anchor="middle" visibility="hidden" style="font-size: 13px;">I</text><text y="358" x="340.43715846994536" text-anchor="middle" visibility="hidden" style="font-size: 13px;">A</text><text y="358" x="344.2622950819672" text-anchor="middle" visibility="hidden" style="font-size: 13px;">W</text><text y="358" x="348.08743169398906" text-anchor="middle" visibility="hidden" style="font-size: 13px;">A</text><text y="358" x="351.91256830601094" text-anchor="middle" visibility="hidden" style="font-size: 13px;">L</text><text y="358" x="355.7377049180328" text-anchor="middle" visibility="hidden" style="font-size: 13px;">S</text><text y="358" x="359.56284153005464" text-anchor="middle" visibility="hidden" style="font-size: 13px;">R</text><text y="358" x="363.3879781420765" text-anchor="middle" visibility="hidden" style="font-size: 13px;">K</text><text y="358" x="367.2131147540984" text-anchor="middle" visibility="hidden" style="font-size: 13px;">A</text><text y="358" x="371.0382513661202" text-anchor="middle" visibility="hidden" style="font-size: 13px;">T</text><text y="358" x="374.8633879781421" text-anchor="middle" visibility="hidden" style="font-size: 13px;">L</text><text y="358" x="378.688524590164" text-anchor="middle" visibility="hidden" style="font-size: 13px;">E</text><text y="358" x="382.5136612021858" text-anchor="middle" visibility="hidden" style="font-size: 13px;">L</text><text y="358" x="386.3387978142076" text-anchor="middle" visibility="hidden" style="font-size: 13px;">T</text><text y="358" x="390.1639344262295" text-anchor="middle" visibility="hidden" style="font-size: 13px;">H</text><text y="358" x="393.9890710382513" text-anchor="middle" visibility="hidden" style="font-size: 13px;">N</text><text y="358" x="397.8142076502732" text-anchor="middle" visibility="hidden" style="font-size: 13px;">W</text><text y="358" x="401.6393442622951" text-anchor="middle" visibility="hidden" style="font-size: 13px;">G</text><text y="358" x="405.4644808743169" text-anchor="middle" visibility="hidden" style="font-size: 13px;">T</text><text y="358" x="409.2896174863388" text-anchor="middle" visibility="hidden" style="font-size: 13px;">E</text><text y="358" x="413.11475409836066" text-anchor="middle" visibility="hidden" style="font-size: 13px;">D</text><text y="358" x="416.9398907103825" text-anchor="middle" visibility="hidden" style="font-size: 13px;">D</text><text y="358" x="420.76502732240436" text-anchor="middle" visibility="hidden" style="font-size: 13px;">E</text><text y="358" x="424.59016393442624" text-anchor="middle" visibility="hidden" style="font-size: 13px;">T</text><text y="358" x="428.4153005464481" text-anchor="middle" visibility="hidden" style="font-size: 13px;">Q</text><text y="358" x="432.24043715846994" text-anchor="middle" visibility="hidden" style="font-size: 13px;">S</text><text y="358" x="436.0655737704918" text-anchor="middle" visibility="hidden" style="font-size: 13px;">Y</text><text y="358" x="439.8907103825137" text-anchor="middle" visibility="hidden" style="font-size: 13px;">H</text><text y="358" x="443.7158469945355" text-anchor="middle" visibility="hidden" style="font-size: 13px;">N</text><text y="358" x="447.5409836065574" text-anchor="middle" visibility="hidden" style="font-size: 13px;">G</text><text y="358" x="451.3661202185793" text-anchor="middle" visibility="hidden" style="font-size: 13px;">N</text><text y="358" x="455.19125683060105" text-anchor="middle" visibility="hidden" style="font-size: 13px;">S</text><text y="358" x="459.0163934426229" text-anchor="middle" visibility="hidden" style="font-size: 13px;">D</text><text y="358" x="462.8415300546448" text-anchor="middle" visibility="hidden" style="font-size: 13px;">P</text><text y="358" x="466.66666666666663" text-anchor="middle" visibility="hidden" style="font-size: 13px;">R</text><text y="358" x="470.4918032786885" text-anchor="middle" visibility="hidden" style="font-size: 13px;">G</text><text y="358" x="474.3169398907104" text-anchor="middle" visibility="hidden" style="font-size: 13px;">F</text><text y="358" x="478.1420765027322" text-anchor="middle" visibility="hidden" style="font-size: 13px;">G</text><text y="358" x="481.9672131147541" text-anchor="middle" visibility="hidden" style="font-size: 13px;">H</text><text y="358" x="485.79234972677597" text-anchor="middle" visibility="hidden" style="font-size: 13px;">I</text><text y="358" x="489.6174863387978" text-anchor="middle" visibility="hidden" style="font-size: 13px;">G</text><text y="358" x="493.44262295081967" text-anchor="middle" visibility="hidden" style="font-size: 13px;">I</text><text y="358" x="497.26775956284155" text-anchor="middle" visibility="hidden" style="font-size: 13px;">A</text><text y="358" x="501.0928961748634" text-anchor="middle" visibility="hidden" style="font-size: 13px;">V</text><text y="358" x="504.91803278688525" text-anchor="middle" visibility="hidden" style="font-size: 13px;">P</text><text y="358" x="508.7431693989071" text-anchor="middle" visibility="hidden" style="font-size: 13px;">D</text><text y="358" x="512.568306010929" text-anchor="middle" visibility="hidden" style="font-size: 13px;">V</text><text y="358" x="516.3934426229508" text-anchor="middle" visibility="hidden" style="font-size: 13px;">Y</text><text y="358" x="520.2185792349727" text-anchor="middle" visibility="hidden" style="font-size: 13px;">S</text><text y="358" x="524.0437158469946" text-anchor="middle" visibility="hidden" style="font-size: 13px;">A</text><text y="358" x="527.8688524590164" text-anchor="middle" visibility="hidden" style="font-size: 13px;">C</text><text y="358" x="531.6939890710382" text-anchor="middle" visibility="hidden" style="font-size: 13px;">K</text><text y="358" x="535.5191256830601" text-anchor="middle" visibility="hidden" style="font-size: 13px;">R</text><text y="358" x="539.344262295082" text-anchor="middle" visibility="hidden" style="font-size: 13px;">F</text><text y="358" x="543.1693989071038" text-anchor="middle" visibility="hidden" style="font-size: 13px;">E</text><text y="358" x="546.9945355191256" text-anchor="middle" visibility="hidden" style="font-size: 13px;">E</text><text y="358" x="550.8196721311475" text-anchor="middle" visibility="hidden" style="font-size: 13px;">L</text><text y="358" x="554.6448087431694" text-anchor="middle" visibility="hidden" style="font-size: 13px;">G</text><text y="358" x="558.4699453551913" text-anchor="middle" visibility="hidden" style="font-size: 13px;">V</text><text y="358" x="562.2950819672132" text-anchor="middle" visibility="hidden" style="font-size: 13px;">K</text><text y="358" x="566.120218579235" text-anchor="middle" visibility="hidden" style="font-size: 13px;">F</text><text y="358" x="569.9453551912568" text-anchor="middle" visibility="hidden" style="font-size: 13px;">V</text><text y="358" x="573.7704918032787" text-anchor="middle" visibility="hidden" style="font-size: 13px;">K</text><text y="358" x="577.5956284153006" text-anchor="middle" visibility="hidden" style="font-size: 13px;">K</text><text y="358" x="581.4207650273224" text-anchor="middle" visibility="hidden" style="font-size: 13px;">P</text><text y="358" x="585.2459016393443" text-anchor="middle" visibility="hidden" style="font-size: 13px;">D</text><text y="358" x="589.0710382513662" text-anchor="middle" visibility="hidden" style="font-size: 13px;">D</text><text y="358" x="592.8961748633881" text-anchor="middle" visibility="hidden" style="font-size: 13px;">G</text><text y="358" x="596.7213114754098" text-anchor="middle" visibility="hidden" style="font-size: 13px;">K</text><text y="358" x="600.5464480874317" text-anchor="middle" visibility="hidden" style="font-size: 13px;">M</text><text y="358" x="604.3715846994535" text-anchor="middle" visibility="hidden" style="font-size: 13px;">K</text><text y="358" x="608.1967213114754" text-anchor="middle" visibility="hidden" style="font-size: 13px;">G</text><text y="358" x="612.0218579234972" text-anchor="middle" visibility="hidden" style="font-size: 13px;">L</text><text y="358" x="615.8469945355191" text-anchor="middle" visibility="hidden" style="font-size: 13px;">A</text><text y="358" x="619.672131147541" text-anchor="middle" visibility="hidden" style="font-size: 13px;">F</text><text y="358" x="623.4972677595629" text-anchor="middle" visibility="hidden" style="font-size: 13px;">I</text><text y="358" x="627.3224043715848" text-anchor="middle" visibility="hidden" style="font-size: 13px;">Q</text><text y="358" x="631.1475409836065" text-anchor="middle" visibility="hidden" style="font-size: 13px;">D</text><text y="358" x="634.9726775956284" text-anchor="middle" visibility="hidden" style="font-size: 13px;">P</text><text y="358" x="638.7978142076503" text-anchor="middle" visibility="hidden" style="font-size: 13px;">D</text><text y="358" x="642.6229508196722" text-anchor="middle" visibility="hidden" style="font-size: 13px;">G</text><text y="358" x="646.448087431694" text-anchor="middle" visibility="hidden" style="font-size: 13px;">Y</text><text y="358" x="650.2732240437159" text-anchor="middle" visibility="hidden" style="font-size: 13px;">W</text><text y="358" x="654.0983606557377" text-anchor="middle" visibility="hidden" style="font-size: 13px;">I</text><text y="358" x="657.9234972677596" text-anchor="middle" visibility="hidden" style="font-size: 13px;">E</text><text y="358" x="661.7486338797814" text-anchor="middle" visibility="hidden" style="font-size: 13px;">I</text><text y="358" x="665.5737704918032" text-anchor="middle" visibility="hidden" style="font-size: 13px;">L</text><text y="358" x="669.3989071038251" text-anchor="middle" visibility="hidden" style="font-size: 13px;">N</text><text y="358" x="673.224043715847" text-anchor="middle" visibility="hidden" style="font-size: 13px;">P</text><text y="358" x="677.0491803278688" text-anchor="middle" visibility="hidden" style="font-size: 13px;">N</text><text y="358" x="680.8743169398907" text-anchor="middle" visibility="hidden" style="font-size: 13px;">K</text><text y="358" x="684.6994535519126" text-anchor="middle" visibility="hidden" style="font-size: 13px;">M</text><text y="358" x="688.5245901639344" text-anchor="middle" visibility="hidden" style="font-size: 13px;">A</text><text y="358" x="692.3497267759562" text-anchor="middle" visibility="hidden" style="font-size: 13px;">T</text><text y="358" x="696.1748633879781" text-anchor="middle" visibility="hidden" style="font-size: 13px;">L</text><text y="358" x="700" text-anchor="middle" visibility="hidden" style="font-size: 13px;">M</text></g></g></svg><g class="xAxis" transform="translate(0,360)" fill="none" font-size="10" font-family="sans-serif" text-anchor="middle"><path class="domain" stroke="#000" d="M0.5,6V0.5H700.5V6"></path><g class="tick" opacity="1" transform="translate(73.1775956284153,0)"><line stroke="#000" y2="6"></line><text fill="#000" y="9" dy="0.71em">20</text></g><g class="tick" opacity="1" transform="translate(149.68032786885246,0)"><line stroke="#000" y2="6"></line><text fill="#000" y="9" dy="0.71em">40</text></g><g class="tick" opacity="1" transform="translate(226.18306010928964,0)"><line stroke="#000" y2="6"></line><text fill="#000" y="9" dy="0.71em">60</text></g><g class="tick" opacity="1" transform="translate(302.68579234972674,0)"><line stroke="#000" y2="6"></line><text fill="#000" y="9" dy="0.71em">80</text></g><g class="tick" opacity="1" transform="translate(379.188524590164,0)"><line stroke="#000" y2="6"></line><text fill="#000" y="9" dy="0.71em">100</text></g><g class="tick" opacity="1" transform="translate(455.69125683060105,0)"><line stroke="#000" y2="6"></line><text fill="#000" y="9" dy="0.71em">120</text></g><g class="tick" opacity="1" transform="translate(532.1939890710382,0)"><line stroke="#000" y2="6"></line><text fill="#000" y="9" dy="0.71em">140</text></g><g class="tick" opacity="1" transform="translate(608.6967213114754,0)"><line stroke="#000" y2="6"></line><text fill="#000" y="9" dy="0.71em">160</text></g><g class="tick" opacity="1" transform="translate(685.1994535519126,0)"><line stroke="#000" y2="6"></line><text fill="#000" y="9" dy="0.71em">180</text></g></g><text class="x label" text-anchor="end" x="700" y="390" style="font-size: 13px; font-family: Arial;">Residue number</text><g class="yAxis" fill="none" font-size="10" font-family="sans-serif" text-anchor="end"><path class="domain" stroke="#000" d="M-6,360.5H0.5V0.5H-6"></path><g class="tick" opacity="1" transform="translate(0,327.77272727272725)"><line stroke="#000" x2="-6"></line><text fill="#000" x="-9" dy="0.32em">0</text></g><g class="tick" opacity="1" transform="translate(0,294.71487603305786)"><line stroke="#000" x2="-6"></line><text fill="#000" x="-9" dy="0.32em">2</text></g><g class="tick" opacity="1" transform="translate(0,261.6570247933884)"><line stroke="#000" x2="-6"></line><text fill="#000" x="-9" dy="0.32em">4</text></g><g class="tick" opacity="1" transform="translate(0,228.59917355371903)"><line stroke="#000" x2="-6"></line><text fill="#000" x="-9" dy="0.32em">6</text></g><g class="tick" opacity="1" transform="translate(0,195.54132231404958)"><line stroke="#000" x2="-6"></line><text fill="#000" x="-9" dy="0.32em">8</text></g><g class="tick" opacity="1" transform="translate(0,162.4834710743802)"><line stroke="#000" x2="-6"></line><text fill="#000" x="-9" dy="0.32em">10</text></g><g class="tick" opacity="1" transform="translate(0,129.42561983471077)"><line stroke="#000" x2="-6"></line><text fill="#000" x="-9" dy="0.32em">12</text></g><g class="tick" opacity="1" transform="translate(0,96.3677685950413)"><line stroke="#000" x2="-6"></line><text fill="#000" x="-9" dy="0.32em">14</text></g><g class="tick" opacity="1" transform="translate(0,63.30991735537191)"><line stroke="#000" x2="-6"></line><text fill="#000" x="-9" dy="0.32em">16</text></g><g class="tick" opacity="1" transform="translate(0,30.25206611570252)"><line stroke="#000" x2="-6"></line><text fill="#000" x="-9" dy="0.32em">18</text></g></g><text class="y label" text-anchor="middle" y="-50" x="-180" dy="0.8em" transform="rotate(-90)" style="font-size: 13px; font-family: Arial;">Total number of references</text><g class="axisRed" fill="none" font-size="10" font-family="sans-serif" text-anchor="start" visibility="hidden" transform="translate(700, 0)"><path class="domain" stroke="#000" d="M6,360.5H0.5V0.5H6"></path><g class="tick" opacity="1" transform="translate(0,360.5)"><line stroke="#000" x2="6"></line><text fill="#000" x="9" dy="0.32em">0</text></g><text text-anchor="start" dx="5.2em" dy="-2.6em" transform="rotate(90)" visibility="hidden" style="font-size: 12px; font-family: Arial; fill: #d7301f;">No recurrent (&gt;2) missense mutations!</text></g><g class="axisPurple" fill="none" font-size="10" font-family="sans-serif" text-anchor="start" visibility="hidden"><path class="domain" stroke="#000" d="M6,360.5H0.5V0.5H6"></path><g class="tick" opacity="1" transform="translate(0,357.52479338842977)"><line stroke="#000" x2="6"></line><text fill="#000" x="9" dy="0.32em"></text></g><g class="tick" opacity="1" transform="translate(0,327.77272727272725)"><line stroke="#000" x2="6"></line><text fill="#000" x="9" dy="0.32em">0</text></g><g class="tick" opacity="1" transform="translate(0,298.0206611570248)"><line stroke="#000" x2="6"></line><text fill="#000" x="9" dy="0.32em">0.1</text></g><g class="tick" opacity="1" transform="translate(0,268.2685950413223)"><line stroke="#000" x2="6"></line><text fill="#000" x="9" dy="0.32em">0.2</text></g><g class="tick" opacity="1" transform="translate(0,238.51652892561984)"><line stroke="#000" x2="6"></line><text fill="#000" x="9" dy="0.32em">0.3</text></g><g class="tick" opacity="1" transform="translate(0,208.76446280991738)"><line stroke="#000" x2="6"></line><text fill="#000" x="9" dy="0.32em">0.4</text></g><g class="tick" opacity="1" transform="translate(0,179.0123966942149)"><line stroke="#000" x2="6"></line><text fill="#000" x="9" dy="0.32em">0.5</text></g><g class="tick" opacity="1" transform="translate(0,149.26033057851242)"><line stroke="#000" x2="6"></line><text fill="#000" x="9" dy="0.32em">0.6</text></g><g class="tick" opacity="1" transform="translate(0,119.50826446280996)"><line stroke="#000" x2="6"></line><text fill="#000" x="9" dy="0.32em">0.7</text></g><g class="tick" opacity="1" transform="translate(0,89.75619834710744)"><line stroke="#000" x2="6"></line><text fill="#000" x="9" dy="0.32em">0.8</text></g><g class="tick" opacity="1" transform="translate(0,60.00413223140498)"><line stroke="#000" x2="6"></line><text fill="#000" x="9" dy="0.32em">0.9</text></g><g class="tick" opacity="1" transform="translate(0,30.25206611570252)"><line stroke="#000" x2="6"></line><text fill="#000" x="9" dy="0.32em">1</text></g><g class="tick" opacity="1" transform="translate(0,0.5)"><line stroke="#000" x2="6"></line><text fill="#000" x="9" dy="0.32em">1.1</text></g><text text-anchor="start" x="10" y="10" visibility="hidden" style="font-size: 12px; font-family: Arial; fill: #807dba;">No disease causing germline SNPs known!</text></g><circle cx="636" cy="15" r="10" class="compassNav" style="fill: #ffffff; stroke: #666666; stroke-width: 1px;"></circle><path d="M440.935 12.574l3.966 82.766C399.416 41.904 331.674 8 256 8 134.813 8 33.933 94.924 12.296 209.824 10.908 217.193 16.604 224 24.103 224h49.084c5.57 0 10.377-3.842 11.676-9.259C103.407 137.408 172.931 80 256 80c60.893 0 114.512 30.856 146.104 77.801l-101.53-4.865c-6.845-.328-12.574 5.133-12.574 11.986v47.411c0 6.627 5.373 12 12 12h200.333c6.627 0 12-5.373 12-12V12c0-6.627-5.373-12-12-12h-47.411c-6.853 0-12.315 5.729-11.987 12.574zM256 432c-60.895 0-114.517-30.858-146.109-77.805l101.868 4.871c6.845.327 12.573-5.134 12.573-11.986v-47.412c0-6.627-5.373-12-12-12H12c-6.627 0-12 5.373-12 12V500c0 6.627 5.373 12 12 12h47.385c6.863 0 12.328-5.745 11.985-12.599l-4.129-82.575C112.725 470.166 180.405 504 256 504c121.187 0 222.067-86.924 243.704-201.824 1.388-7.369-4.308-14.176-11.807-14.176h-49.084c-5.57 0-10.377 3.842-11.676 9.259C408.593 374.592 339.069 432 256 432z" class="compassNav" transform="translate(631, 10) scale(0.02)" style="fill: #666666; stroke: #666666; stroke-width: 1px;"></path><circle cx="658" cy="15" r="10" class="compassNav" style="fill: #ffffff; stroke: #666666; stroke-width: 1px;"></circle><line class="compassNav" stroke-width="2" stroke="#666666" x1="654" y1="15" x2="662" y2="15"></line><line class="compassNav" stroke-width="2" stroke="#666666" x1="658" y1="11" x2="658" y2="19"></line><circle cx="614" cy="15" r="10" class="compassNav" style="fill: #ffffff; stroke: #666666; stroke-width: 1px;"></circle><line class="compassNav" stroke-width="2" stroke="#666666" x1="610" y1="15" x2="618" y2="15"></line><path d="M582 14 l20 -12 a100,40 0 0,0 0,24z" class="compassNav" style="fill: #ffffff; stroke: #666666; stroke-width: 1px;"></path><path d="M690 14 l-20 -12 a100,40 0 0,1 0,24z" class="compassNav" style="fill: #ffffff; stroke: #666666; stroke-width: 1px;"></path><path d="M216 0h80c13.3 0 24 10.7 24 24v168h87.7c17.8 0 26.7 21.5 14.1 34.1L269.7 378.3c-7.5 7.5-19.8 7.5-27.3 0L90.1 226.1c-12.6-12.6-3.7-34.1 14.1-34.1H192V24c0-13.3 10.7-24 24-24zm296 376v112c0 13.3-10.7 24-24 24H24c-13.3 0-24-10.7-24-24V376c0-13.3 10.7-24 24-24h146.7l49 49c20.1 20.1 52.5 20.1 72.6 0l49-49H488c13.3 0 24 10.7 24 24zm-124 88c0-11-9-20-20-20s-20 9-20 20 9 20 20 20 20-9 20-20zm64 0c0-11-9-20-20-20s-20 9-20 20 9 20 20 20 20-9 20-20z" class="compassNav" transform="translate(552,0) scale(0.05)" style="fill: #336699; stroke: #336699; stroke-width: 1px; cursor: pointer;"></path></g></svg>