<svg width="800" height="400" style="background-color: white;"><g transform="translate(50,0)"><svg width="700" height="360"><g style="-webkit-tap-highlight-color: rgba(0, 0, 0, 0);"><rect width="700" height="360" style="fill: #ffffff;"></rect><g id="lines"><line class="line" stroke-width="1" stroke="#d7301f" x1="-480.95238095238096" y1="333" x2="-480.95238095238096" y2="360" visibility="hidden" style="stroke-dasharray: 3px, 3px;"></line></g><g><rect x="-485.95238095238096" y="355" width="10" height="10" visibility="hidden" style="fill: #ffffff; stroke: #d7301f;"></rect></g><g id="lines"><line class="line" stroke-width="1" stroke="#6a51a3" x1="-480.95238095238096" y1="333" x2="-480.95238095238096" y2="327.27272727272725" visibility="hidden" style="stroke-dasharray: 3px, 3px;"></line></g><g><rect x="-485.95238095238096" y="322.27272727272725" width="10" height="10" visibility="hidden" style="fill: #ffffff; stroke: #6a51a3;"></rect></g><g id="lines"><line class="line" stroke-width="1" stroke="#666666" x1="238.09523809523807" y1="333" x2="238.09523809523807" y2="326.09208972845335"></line><line class="line" stroke-width="1" stroke="#666666" x1="238.09523809523807" y1="333" x2="238.09523809523807" y2="324.3211334120425"></line><line class="line" stroke-width="1" stroke="#666666" x1="314.2857142857143" y1="333" x2="314.2857142857143" y2="322.5501770956316"></line><line class="line" stroke-width="1" stroke="#666666" x1="328.5714285714286" y1="333" x2="328.5714285714286" y2="325.5017709563164"></line><line class="line" stroke-width="1" stroke="#666666" x1="342.85714285714283" y1="333" x2="342.85714285714283" y2="29.752066115702405"></line><line class="line" stroke-width="1" stroke="#666666" x1="371.42857142857144" y1="333" x2="371.42857142857144" y2="322.5501770956316"></line><line class="line" stroke-width="1" stroke="#666666" x1="380.95238095238096" y1="333" x2="380.95238095238096" y2="326.6824085005903"></line><line class="line" stroke-width="1" stroke="#666666" x1="380.95238095238096" y1="333" x2="380.95238095238096" y2="323.1404958677686"></line><line class="line" stroke-width="1" stroke="#666666" x1="380.95238095238096" y1="333" x2="380.95238095238096" y2="326.6824085005903"></line><line class="line" stroke-width="1" stroke="#666666" x1="414.2857142857143" y1="333" x2="414.2857142857143" y2="326.6824085005903"></line><line class="line" stroke-width="1" stroke="#666666" x1="466.66666666666663" y1="333" x2="466.66666666666663" y2="306.61157024793386"></line><line class="line" stroke-width="1" stroke="#666666" x1="476.19047619047615" y1="333" x2="476.19047619047615" y2="323.73081463990553"></line><line class="line" stroke-width="1" stroke="#666666" x1="485.7142857142857" y1="333" x2="485.7142857142857" y2="324.91145218417944"></line><line class="line" stroke-width="1" stroke="#666666" x1="485.7142857142857" y1="333" x2="485.7142857142857" y2="326.6824085005903"></line><line class="line" stroke-width="1" stroke="#666666" x1="514.2857142857143" y1="333" x2="514.2857142857143" y2="326.6824085005903"></line><line class="line" stroke-width="1" stroke="#666666" x1="533.3333333333333" y1="333" x2="533.3333333333333" y2="321.9598583234947"></line><line class="line" stroke-width="1" stroke="#666666" x1="533.3333333333333" y1="333" x2="533.3333333333333" y2="326.6824085005903"></line><line class="line" stroke-width="1" stroke="#666666" x1="561.9047619047619" y1="333" x2="561.9047619047619" y2="324.91145218417944"></line><line class="line" stroke-width="1" stroke="#666666" x1="576.1904761904763" y1="333" x2="576.1904761904763" y2="326.6824085005903"></line><line class="line" stroke-width="1" stroke="#666666" x1="576.1904761904763" y1="333" x2="576.1904761904763" y2="324.91145218417944"></line><line class="line" stroke-width="1" stroke="#666666" x1="614.2857142857142" y1="333" x2="614.2857142857142" y2="326.09208972845335"></line><line class="line" stroke-width="1" stroke="#666666" x1="685.7142857142857" y1="333" x2="685.7142857142857" y2="326.09208972845335"></line></g><g id="circles"><circle r="4" cx="238.09523809523807" cy="326.09208972845335" style="fill: #5aae61; stroke: #666666; stroke-width: 1px;"></circle><circle r="4" cx="238.09523809523807" cy="324.3211334120425" style="fill: #bf812d; stroke: #666666; stroke-width: 1px;"></circle><circle r="4" cx="314.2857142857143" cy="322.5501770956316" style="fill: #4393c3; stroke: #666666; stroke-width: 1px;"></circle><circle r="4" cx="328.5714285714286" cy="325.5017709563164" style="fill: #4393c3; stroke: #666666; stroke-width: 1px;"></circle><circle r="4" cx="342.85714285714283" cy="29.752066115702405" style="fill: #4393c3; stroke: #666666; stroke-width: 1px;"></circle><circle r="4" cx="371.42857142857144" cy="322.5501770956316" style="fill: #4393c3; stroke: #666666; stroke-width: 1px;"></circle><circle r="4" cx="380.95238095238096" cy="326.6824085005903" style="fill: #5aae61; stroke: #666666; stroke-width: 1px;"></circle><circle r="4" cx="380.95238095238096" cy="323.1404958677686" style="fill: #bf812d; stroke: #666666; stroke-width: 1px;"></circle><circle r="4" cx="380.95238095238096" cy="326.6824085005903" style="fill: #666666; stroke: #666666; stroke-width: 1px;"></circle><circle r="4" cx="414.2857142857143" cy="326.6824085005903" style="fill: #4393c3; stroke: #666666; stroke-width: 1px;"></circle><circle r="4" cx="466.66666666666663" cy="306.61157024793386" style="fill: #4393c3; stroke: #666666; stroke-width: 1px;"></circle><circle r="4" cx="476.19047619047615" cy="323.73081463990553" style="fill: #4393c3; stroke: #666666; stroke-width: 1px;"></circle><circle r="4" cx="485.7142857142857" cy="324.91145218417944" style="fill: #5aae61; stroke: #666666; stroke-width: 1px;"></circle><circle r="4" cx="485.7142857142857" cy="326.6824085005903" style="fill: #666666; stroke: #666666; stroke-width: 1px;"></circle><circle r="4" cx="514.2857142857143" cy="326.6824085005903" style="fill: #4393c3; stroke: #666666; stroke-width: 1px;"></circle><circle r="4" cx="533.3333333333333" cy="321.9598583234947" style="fill: #5aae61; stroke: #666666; stroke-width: 1px;"></circle><circle r="4" cx="533.3333333333333" cy="326.6824085005903" style="fill: #666666; stroke: #666666; stroke-width: 1px;"></circle><circle r="4" cx="561.9047619047619" cy="324.91145218417944" style="fill: #4393c3; stroke: #666666; stroke-width: 1px;"></circle><circle r="4" cx="576.1904761904763" cy="326.6824085005903" style="fill: #5aae61; stroke: #666666; stroke-width: 1px;"></circle><circle r="4" cx="576.1904761904763" cy="324.91145218417944" style="fill: #bf812d; stroke: #666666; stroke-width: 1px;"></circle><circle r="4" cx="614.2857142857142" cy="326.09208972845335" style="fill: #4393c3; stroke: #666666; stroke-width: 1px;"></circle><circle r="4" cx="685.7142857142857" cy="326.09208972845335" style="fill: #bf812d; stroke: #666666; stroke-width: 1px;"></circle></g><g><rect x="0" y="333" width="700" height="12" style="fill: #ffffff; stroke-width: 1px; stroke: #666666;"></rect><rect x="138.0952380952381" y="333" width="523.8095238095239" height="12" style="fill: #aec7e8; stroke-width: 1px; stroke: #666666;"></rect></g><g><a target="_blank" xlink:href="http://pfam.xfam.org/family/"><text y="343" x="350" text-anchor="middle" style="color: rgb(102, 102, 102); font-weight: normal; font-size: 12px; font-family: Arial; cursor: pointer;"></text></a><a target="_blank" xlink:href="http://pfam.xfam.org/family/SSB"><text y="343" x="400" text-anchor="middle" style="color: rgb(102, 102, 102); font-weight: normal; font-size: 12px; font-family: Arial; cursor: pointer;">SSB</text></a></g><g><text y="358" x="0" text-anchor="middle" visibility="hidden" style="font-size: 13px;">M</text><text y="358" x="4.761904761904762" text-anchor="middle" visibility="hidden" style="font-size: 13px;">F</text><text y="358" x="9.523809523809524" text-anchor="middle" visibility="hidden" style="font-size: 13px;">R</text><text y="358" x="14.285714285714285" text-anchor="middle" visibility="hidden" style="font-size: 13px;">R</text><text y="358" x="19.047619047619047" text-anchor="middle" visibility="hidden" style="font-size: 13px;">P</text><text y="358" x="23.80952380952381" text-anchor="middle" visibility="hidden" style="font-size: 13px;">V</text><text y="358" x="28.57142857142857" text-anchor="middle" visibility="hidden" style="font-size: 13px;">L</text><text y="358" x="33.33333333333333" text-anchor="middle" visibility="hidden" style="font-size: 13px;">Q</text><text y="358" x="38.095238095238095" text-anchor="middle" visibility="hidden" style="font-size: 13px;">V</text><text y="358" x="42.857142857142854" text-anchor="middle" visibility="hidden" style="font-size: 13px;">L</text><text y="358" x="47.61904761904762" text-anchor="middle" visibility="hidden" style="font-size: 13px;">R</text><text y="358" x="52.38095238095238" text-anchor="middle" visibility="hidden" style="font-size: 13px;">Q</text><text y="358" x="57.14285714285714" text-anchor="middle" visibility="hidden" style="font-size: 13px;">F</text><text y="358" x="61.904761904761905" text-anchor="middle" visibility="hidden" style="font-size: 13px;">V</text><text y="358" x="66.66666666666666" text-anchor="middle" visibility="hidden" style="font-size: 13px;">R</text><text y="358" x="71.42857142857143" text-anchor="middle" visibility="hidden" style="font-size: 13px;">H</text><text y="358" x="76.19047619047619" text-anchor="middle" visibility="hidden" style="font-size: 13px;">E</text><text y="358" x="80.95238095238095" text-anchor="middle" visibility="hidden" style="font-size: 13px;">S</text><text y="358" x="85.71428571428571" text-anchor="middle" visibility="hidden" style="font-size: 13px;">E</text><text y="358" x="90.47619047619048" text-anchor="middle" visibility="hidden" style="font-size: 13px;">T</text><text y="358" x="95.23809523809524" text-anchor="middle" visibility="hidden" style="font-size: 13px;">T</text><text y="358" x="100" text-anchor="middle" visibility="hidden" style="font-size: 13px;">T</text><text y="358" x="104.76190476190476" text-anchor="middle" visibility="hidden" style="font-size: 13px;">S</text><text y="358" x="109.52380952380953" text-anchor="middle" visibility="hidden" style="font-size: 13px;">L</text><text y="358" x="114.28571428571428" text-anchor="middle" visibility="hidden" style="font-size: 13px;">V</text><text y="358" x="119.04761904761904" text-anchor="middle" visibility="hidden" style="font-size: 13px;">L</text><text y="358" x="123.80952380952381" text-anchor="middle" visibility="hidden" style="font-size: 13px;">E</text><text y="358" x="128.57142857142858" text-anchor="middle" visibility="hidden" style="font-size: 13px;">R</text><text y="358" x="133.33333333333331" text-anchor="middle" visibility="hidden" style="font-size: 13px;">S</text><text y="358" x="138.0952380952381" text-anchor="middle" visibility="hidden" style="font-size: 13px;">L</text><text y="358" x="142.85714285714286" text-anchor="middle" visibility="hidden" style="font-size: 13px;">N</text><text y="358" x="147.61904761904762" text-anchor="middle" visibility="hidden" style="font-size: 13px;">R</text><text y="358" x="152.38095238095238" text-anchor="middle" visibility="hidden" style="font-size: 13px;">V</text><text y="358" x="157.14285714285714" text-anchor="middle" visibility="hidden" style="font-size: 13px;">H</text><text y="358" x="161.9047619047619" text-anchor="middle" visibility="hidden" style="font-size: 13px;">L</text><text y="358" x="166.66666666666666" text-anchor="middle" visibility="hidden" style="font-size: 13px;">L</text><text y="358" x="171.42857142857142" text-anchor="middle" visibility="hidden" style="font-size: 13px;">G</text><text y="358" x="176.1904761904762" text-anchor="middle" visibility="hidden" style="font-size: 13px;">R</text><text y="358" x="180.95238095238096" text-anchor="middle" visibility="hidden" style="font-size: 13px;">V</text><text y="358" x="185.71428571428572" text-anchor="middle" visibility="hidden" style="font-size: 13px;">G</text><text y="358" x="190.47619047619048" text-anchor="middle" visibility="hidden" style="font-size: 13px;">Q</text><text y="358" x="195.2380952380952" text-anchor="middle" visibility="hidden" style="font-size: 13px;">D</text><text y="358" x="200" text-anchor="middle" visibility="hidden" style="font-size: 13px;">P</text><text y="358" x="204.76190476190476" text-anchor="middle" visibility="hidden" style="font-size: 13px;">V</text><text y="358" x="209.52380952380952" text-anchor="middle" visibility="hidden" style="font-size: 13px;">L</text><text y="358" x="214.28571428571428" text-anchor="middle" visibility="hidden" style="font-size: 13px;">R</text><text y="358" x="219.04761904761907" text-anchor="middle" visibility="hidden" style="font-size: 13px;">Q</text><text y="358" x="223.80952380952382" text-anchor="middle" visibility="hidden" style="font-size: 13px;">V</text><text y="358" x="228.57142857142856" text-anchor="middle" visibility="hidden" style="font-size: 13px;">E</text><text y="358" x="233.33333333333331" text-anchor="middle" visibility="hidden" style="font-size: 13px;">G</text><text y="358" x="238.09523809523807" text-anchor="middle" visibility="hidden" style="font-size: 13px;">K</text><text y="358" x="242.85714285714286" text-anchor="middle" visibility="hidden" style="font-size: 13px;">N</text><text y="358" x="247.61904761904762" text-anchor="middle" visibility="hidden" style="font-size: 13px;">P</text><text y="358" x="252.38095238095238" text-anchor="middle" visibility="hidden" style="font-size: 13px;">V</text><text y="358" x="257.14285714285717" text-anchor="middle" visibility="hidden" style="font-size: 13px;">T</text><text y="358" x="261.9047619047619" text-anchor="middle" visibility="hidden" style="font-size: 13px;">I</text><text y="358" x="266.66666666666663" text-anchor="middle" visibility="hidden" style="font-size: 13px;">F</text><text y="358" x="271.42857142857144" text-anchor="middle" visibility="hidden" style="font-size: 13px;">S</text><text y="358" x="276.1904761904762" text-anchor="middle" visibility="hidden" style="font-size: 13px;">L</text><text y="358" x="280.95238095238096" text-anchor="middle" visibility="hidden" style="font-size: 13px;">A</text><text y="358" x="285.7142857142857" text-anchor="middle" visibility="hidden" style="font-size: 13px;">T</text><text y="358" x="290.4761904761905" text-anchor="middle" visibility="hidden" style="font-size: 13px;">N</text><text y="358" x="295.23809523809524" text-anchor="middle" visibility="hidden" style="font-size: 13px;">E</text><text y="358" x="300" text-anchor="middle" visibility="hidden" style="font-size: 13px;">M</text><text y="358" x="304.76190476190476" text-anchor="middle" visibility="hidden" style="font-size: 13px;">W</text><text y="358" x="309.5238095238095" text-anchor="middle" visibility="hidden" style="font-size: 13px;">R</text><text y="358" x="314.2857142857143" text-anchor="middle" visibility="hidden" style="font-size: 13px;">S</text><text y="358" x="319.04761904761904" text-anchor="middle" visibility="hidden" style="font-size: 13px;">G</text><text y="358" x="323.8095238095238" text-anchor="middle" visibility="hidden" style="font-size: 13px;">D</text><text y="358" x="328.5714285714286" text-anchor="middle" visibility="hidden" style="font-size: 13px;">S</text><text y="358" x="333.3333333333333" text-anchor="middle" visibility="hidden" style="font-size: 13px;">E</text><text y="358" x="338.0952380952381" text-anchor="middle" visibility="hidden" style="font-size: 13px;">V</text><text y="358" x="342.85714285714283" text-anchor="middle" visibility="hidden" style="font-size: 13px;">Y</text><text y="358" x="347.6190476190476" text-anchor="middle" visibility="hidden" style="font-size: 13px;">Q</text><text y="358" x="352.3809523809524" text-anchor="middle" visibility="hidden" style="font-size: 13px;">L</text><text y="358" x="357.14285714285717" text-anchor="middle" visibility="hidden" style="font-size: 13px;">G</text><text y="358" x="361.9047619047619" text-anchor="middle" visibility="hidden" style="font-size: 13px;">D</text><text y="358" x="366.6666666666667" text-anchor="middle" visibility="hidden" style="font-size: 13px;">V</text><text y="358" x="371.42857142857144" text-anchor="middle" visibility="hidden" style="font-size: 13px;">S</text><text y="358" x="376.1904761904762" text-anchor="middle" visibility="hidden" style="font-size: 13px;">Q</text><text y="358" x="380.95238095238096" text-anchor="middle" visibility="hidden" style="font-size: 13px;">K</text><text y="358" x="385.71428571428567" text-anchor="middle" visibility="hidden" style="font-size: 13px;">T</text><text y="358" x="390.4761904761904" text-anchor="middle" visibility="hidden" style="font-size: 13px;">T</text><text y="358" x="395.2380952380952" text-anchor="middle" visibility="hidden" style="font-size: 13px;">W</text><text y="358" x="400" text-anchor="middle" visibility="hidden" style="font-size: 13px;">H</text><text y="358" x="404.76190476190476" text-anchor="middle" visibility="hidden" style="font-size: 13px;">R</text><text y="358" x="409.5238095238095" text-anchor="middle" visibility="hidden" style="font-size: 13px;">I</text><text y="358" x="414.2857142857143" text-anchor="middle" visibility="hidden" style="font-size: 13px;">S</text><text y="358" x="419.04761904761904" text-anchor="middle" visibility="hidden" style="font-size: 13px;">V</text><text y="358" x="423.8095238095238" text-anchor="middle" visibility="hidden" style="font-size: 13px;">F</text><text y="358" x="428.57142857142856" text-anchor="middle" visibility="hidden" style="font-size: 13px;">R</text><text y="358" x="433.33333333333337" text-anchor="middle" visibility="hidden" style="font-size: 13px;">P</text><text y="358" x="438.09523809523813" text-anchor="middle" visibility="hidden" style="font-size: 13px;">G</text><text y="358" x="442.8571428571429" text-anchor="middle" visibility="hidden" style="font-size: 13px;">L</text><text y="358" x="447.61904761904765" text-anchor="middle" visibility="hidden" style="font-size: 13px;">R</text><text y="358" x="452.3809523809524" text-anchor="middle" visibility="hidden" style="font-size: 13px;">D</text><text y="358" x="457.1428571428571" text-anchor="middle" visibility="hidden" style="font-size: 13px;">V</text><text y="358" x="461.90476190476187" text-anchor="middle" visibility="hidden" style="font-size: 13px;">A</text><text y="358" x="466.66666666666663" text-anchor="middle" visibility="hidden" style="font-size: 13px;">Y</text><text y="358" x="471.4285714285714" text-anchor="middle" visibility="hidden" style="font-size: 13px;">Q</text><text y="358" x="476.19047619047615" text-anchor="middle" visibility="hidden" style="font-size: 13px;">Y</text><text y="358" x="480.95238095238096" text-anchor="middle" visibility="hidden" style="font-size: 13px;">V</text><text y="358" x="485.7142857142857" text-anchor="middle" visibility="hidden" style="font-size: 13px;">K</text><text y="358" x="490.4761904761905" text-anchor="middle" visibility="hidden" style="font-size: 13px;">K</text><text y="358" x="495.23809523809524" text-anchor="middle" visibility="hidden" style="font-size: 13px;">G</text><text y="358" x="500" text-anchor="middle" visibility="hidden" style="font-size: 13px;">S</text><text y="358" x="504.76190476190476" text-anchor="middle" visibility="hidden" style="font-size: 13px;">R</text><text y="358" x="509.5238095238095" text-anchor="middle" visibility="hidden" style="font-size: 13px;">I</text><text y="358" x="514.2857142857143" text-anchor="middle" visibility="hidden" style="font-size: 13px;">Y</text><text y="358" x="519.047619047619" text-anchor="middle" visibility="hidden" style="font-size: 13px;">L</text><text y="358" x="523.8095238095239" text-anchor="middle" visibility="hidden" style="font-size: 13px;">E</text><text y="358" x="528.5714285714286" text-anchor="middle" visibility="hidden" style="font-size: 13px;">G</text><text y="358" x="533.3333333333333" text-anchor="middle" visibility="hidden" style="font-size: 13px;">K</text><text y="358" x="538.0952380952381" text-anchor="middle" visibility="hidden" style="font-size: 13px;">I</text><text y="358" x="542.8571428571429" text-anchor="middle" visibility="hidden" style="font-size: 13px;">D</text><text y="358" x="547.6190476190476" text-anchor="middle" visibility="hidden" style="font-size: 13px;">Y</text><text y="358" x="552.3809523809524" text-anchor="middle" visibility="hidden" style="font-size: 13px;">G</text><text y="358" x="557.1428571428571" text-anchor="middle" visibility="hidden" style="font-size: 13px;">E</text><text y="358" x="561.9047619047619" text-anchor="middle" visibility="hidden" style="font-size: 13px;">Y</text><text y="358" x="566.6666666666666" text-anchor="middle" visibility="hidden" style="font-size: 13px;">M</text><text y="358" x="571.4285714285714" text-anchor="middle" visibility="hidden" style="font-size: 13px;">D</text><text y="358" x="576.1904761904763" text-anchor="middle" visibility="hidden" style="font-size: 13px;">K</text><text y="358" x="580.952380952381" text-anchor="middle" visibility="hidden" style="font-size: 13px;">N</text><text y="358" x="585.7142857142858" text-anchor="middle" visibility="hidden" style="font-size: 13px;">N</text><text y="358" x="590.4761904761905" text-anchor="middle" visibility="hidden" style="font-size: 13px;">V</text><text y="358" x="595.2380952380952" text-anchor="middle" visibility="hidden" style="font-size: 13px;">R</text><text y="358" x="600" text-anchor="middle" visibility="hidden" style="font-size: 13px;">R</text><text y="358" x="604.7619047619047" text-anchor="middle" visibility="hidden" style="font-size: 13px;">Q</text><text y="358" x="609.5238095238095" text-anchor="middle" visibility="hidden" style="font-size: 13px;">A</text><text y="358" x="614.2857142857142" text-anchor="middle" visibility="hidden" style="font-size: 13px;">T</text><text y="358" x="619.047619047619" text-anchor="middle" visibility="hidden" style="font-size: 13px;">T</text><text y="358" x="623.8095238095239" text-anchor="middle" visibility="hidden" style="font-size: 13px;">I</text><text y="358" x="628.5714285714286" text-anchor="middle" visibility="hidden" style="font-size: 13px;">I</text><text y="358" x="633.3333333333334" text-anchor="middle" visibility="hidden" style="font-size: 13px;">A</text><text y="358" x="638.0952380952381" text-anchor="middle" visibility="hidden" style="font-size: 13px;">D</text><text y="358" x="642.8571428571429" text-anchor="middle" visibility="hidden" style="font-size: 13px;">N</text><text y="358" x="647.6190476190476" text-anchor="middle" visibility="hidden" style="font-size: 13px;">I</text><text y="358" x="652.3809523809524" text-anchor="middle" visibility="hidden" style="font-size: 13px;">I</text><text y="358" x="657.1428571428572" text-anchor="middle" visibility="hidden" style="font-size: 13px;">F</text><text y="358" x="661.9047619047619" text-anchor="middle" visibility="hidden" style="font-size: 13px;">L</text><text y="358" x="666.6666666666666" text-anchor="middle" visibility="hidden" style="font-size: 13px;">S</text><text y="358" x="671.4285714285714" text-anchor="middle" visibility="hidden" style="font-size: 13px;">D</text><text y="358" x="676.1904761904761" text-anchor="middle" visibility="hidden" style="font-size: 13px;">Q</text><text y="358" x="680.952380952381" text-anchor="middle" visibility="hidden" style="font-size: 13px;">T</text><text y="358" x="685.7142857142857" text-anchor="middle" visibility="hidden" style="font-size: 13px;">K</text><text y="358" x="690.4761904761905" text-anchor="middle" visibility="hidden" style="font-size: 13px;">E</text><text y="358" x="695.2380952380952" text-anchor="middle" visibility="hidden" style="font-size: 13px;">K</text><text y="358" x="700" text-anchor="middle" visibility="hidden" style="font-size: 13px;">E</text></g></g></svg><g class="xAxis" transform="translate(0,360)" fill="none" font-size="10" font-family="sans-serif" text-anchor="middle"><path class="domain" stroke="#000" d="M0.5,6V0.5H700.5V6"></path><g class="tick" opacity="1" transform="translate(90.97619047619048,0)"><line stroke="#000" y2="6"></line><text fill="#000" y="9" dy="0.71em">20</text></g><g class="tick" opacity="1" transform="translate(186.21428571428572,0)"><line stroke="#000" y2="6"></line><text fill="#000" y="9" dy="0.71em">40</text></g><g class="tick" opacity="1" transform="translate(281.45238095238096,0)"><line stroke="#000" y2="6"></line><text fill="#000" y="9" dy="0.71em">60</text></g><g class="tick" opacity="1" transform="translate(376.6904761904762,0)"><line stroke="#000" y2="6"></line><text fill="#000" y="9" dy="0.71em">80</text></g><g class="tick" opacity="1" transform="translate(471.9285714285714,0)"><line stroke="#000" y2="6"></line><text fill="#000" y="9" dy="0.71em">100</text></g><g class="tick" opacity="1" transform="translate(567.1666666666666,0)"><line stroke="#000" y2="6"></line><text fill="#000" y="9" dy="0.71em">120</text></g><g class="tick" opacity="1" transform="translate(662.4047619047619,0)"><line stroke="#000" y2="6"></line><text fill="#000" y="9" dy="0.71em">140</text></g></g><text class="x label" text-anchor="end" x="700" y="390" style="font-size: 13px; font-family: Arial;">Residue number</text><g class="yAxis" fill="none" font-size="10" font-family="sans-serif" text-anchor="end"><path class="domain" stroke="#000" d="M-6,360.5H0.5V0.5H-6"></path><g class="tick" opacity="1" transform="translate(0,357.288665879575)"><line stroke="#000" x2="-6"></line><text fill="#000" x="-9" dy="0.32em"></text></g><g class="tick" opacity="1" transform="translate(0,327.77272727272725)"><line stroke="#000" x2="-6"></line><text fill="#000" x="-9" dy="0.32em">0</text></g><g class="tick" opacity="1" transform="translate(0,298.2567886658796)"><line stroke="#000" x2="-6"></line><text fill="#000" x="-9" dy="0.32em">50</text></g><g class="tick" opacity="1" transform="translate(0,268.74085005903186)"><line stroke="#000" x2="-6"></line><text fill="#000" x="-9" dy="0.32em">100</text></g><g class="tick" opacity="1" transform="translate(0,239.2249114521842)"><line stroke="#000" x2="-6"></line><text fill="#000" x="-9" dy="0.32em">150</text></g><g class="tick" opacity="1" transform="translate(0,209.70897284533646)"><line stroke="#000" x2="-6"></line><text fill="#000" x="-9" dy="0.32em">200</text></g><g class="tick" opacity="1" transform="translate(0,180.19303423848876)"><line stroke="#000" x2="-6"></line><text fill="#000" x="-9" dy="0.32em">250</text></g><g class="tick" opacity="1" transform="translate(0,150.67709563164107)"><line stroke="#000" x2="-6"></line><text fill="#000" x="-9" dy="0.32em">300</text></g><g class="tick" opacity="1" transform="translate(0,121.16115702479337)"><line stroke="#000" x2="-6"></line><text fill="#000" x="-9" dy="0.32em">350</text></g><g class="tick" opacity="1" transform="translate(0,91.64521841794561)"><line stroke="#000" x2="-6"></line><text fill="#000" x="-9" dy="0.32em">400</text></g><g class="tick" opacity="1" transform="translate(0,62.129279811097945)"><line stroke="#000" x2="-6"></line><text fill="#000" x="-9" dy="0.32em">450</text></g><g class="tick" opacity="1" transform="translate(0,32.61334120425022)"><line stroke="#000" x2="-6"></line><text fill="#000" x="-9" dy="0.32em">500</text></g><g class="tick" opacity="1" transform="translate(0,3.0974025974025494)"><line stroke="#000" x2="-6"></line><text fill="#000" x="-9" dy="0.32em">550</text></g></g><text class="y label" text-anchor="middle" y="-50" x="-180" dy="0.8em" transform="rotate(-90)" style="font-size: 13px; font-family: Arial;">Total number of references</text><g class="axisRed" fill="none" font-size="10" font-family="sans-serif" text-anchor="start" visibility="hidden" transform="translate(700, 0)"><path class="domain" stroke="#000" d="M6,360.5H0.5V0.5H6"></path><g class="tick" opacity="1" transform="translate(0,360.5)"><line stroke="#000" x2="6"></line><text fill="#000" x="9" dy="0.32em">0</text></g><text text-anchor="start" dx="5.2em" dy="-2.6em" transform="rotate(90)" visibility="hidden" style="font-size: 12px; font-family: Arial; fill: #d7301f;">No recurrent (&gt;2) missense mutations!</text></g><g class="axisPurple" fill="none" font-size="10" font-family="sans-serif" text-anchor="start" visibility="hidden"><path class="domain" stroke="#000" d="M6,360.5H0.5V0.5H6"></path><g class="tick" opacity="1" transform="translate(0,357.52479338842977)"><line stroke="#000" x2="6"></line><text fill="#000" x="9" dy="0.32em"></text></g><g class="tick" opacity="1" transform="translate(0,327.77272727272725)"><line stroke="#000" x2="6"></line><text fill="#000" x="9" dy="0.32em">0</text></g><g class="tick" opacity="1" transform="translate(0,298.0206611570248)"><line stroke="#000" x2="6"></line><text fill="#000" x="9" dy="0.32em">0.1</text></g><g class="tick" opacity="1" transform="translate(0,268.2685950413223)"><line stroke="#000" x2="6"></line><text fill="#000" x="9" dy="0.32em">0.2</text></g><g class="tick" opacity="1" transform="translate(0,238.51652892561984)"><line stroke="#000" x2="6"></line><text fill="#000" x="9" dy="0.32em">0.3</text></g><g class="tick" opacity="1" transform="translate(0,208.76446280991738)"><line stroke="#000" x2="6"></line><text fill="#000" x="9" dy="0.32em">0.4</text></g><g class="tick" opacity="1" transform="translate(0,179.0123966942149)"><line stroke="#000" x2="6"></line><text fill="#000" x="9" dy="0.32em">0.5</text></g><g class="tick" opacity="1" transform="translate(0,149.26033057851242)"><line stroke="#000" x2="6"></line><text fill="#000" x="9" dy="0.32em">0.6</text></g><g class="tick" opacity="1" transform="translate(0,119.50826446280996)"><line stroke="#000" x2="6"></line><text fill="#000" x="9" dy="0.32em">0.7</text></g><g class="tick" opacity="1" transform="translate(0,89.75619834710744)"><line stroke="#000" x2="6"></line><text fill="#000" x="9" dy="0.32em">0.8</text></g><g class="tick" opacity="1" transform="translate(0,60.00413223140498)"><line stroke="#000" x2="6"></line><text fill="#000" x="9" dy="0.32em">0.9</text></g><g class="tick" opacity="1" transform="translate(0,30.25206611570252)"><line stroke="#000" x2="6"></line><text fill="#000" x="9" dy="0.32em">1</text></g><g class="tick" opacity="1" transform="translate(0,0.5)"><line stroke="#000" x2="6"></line><text fill="#000" x="9" dy="0.32em">1.1</text></g><text text-anchor="start" x="10" y="10" visibility="hidden" style="font-size: 12px; font-family: Arial; fill: #807dba;">No disease causing germline SNPs known!</text></g><circle cx="636" cy="15" r="10" class="compassNav" style="fill: #ffffff; stroke: #666666; stroke-width: 1px;"></circle><path d="M440.935 12.574l3.966 82.766C399.416 41.904 331.674 8 256 8 134.813 8 33.933 94.924 12.296 209.824 10.908 217.193 16.604 224 24.103 224h49.084c5.57 0 10.377-3.842 11.676-9.259C103.407 137.408 172.931 80 256 80c60.893 0 114.512 30.856 146.104 77.801l-101.53-4.865c-6.845-.328-12.574 5.133-12.574 11.986v47.411c0 6.627 5.373 12 12 12h200.333c6.627 0 12-5.373 12-12V12c0-6.627-5.373-12-12-12h-47.411c-6.853 0-12.315 5.729-11.987 12.574zM256 432c-60.895 0-114.517-30.858-146.109-77.805l101.868 4.871c6.845.327 12.573-5.134 12.573-11.986v-47.412c0-6.627-5.373-12-12-12H12c-6.627 0-12 5.373-12 12V500c0 6.627 5.373 12 12 12h47.385c6.863 0 12.328-5.745 11.985-12.599l-4.129-82.575C112.725 470.166 180.405 504 256 504c121.187 0 222.067-86.924 243.704-201.824 1.388-7.369-4.308-14.176-11.807-14.176h-49.084c-5.57 0-10.377 3.842-11.676 9.259C408.593 374.592 339.069 432 256 432z" class="compassNav" transform="translate(631, 10) scale(0.02)" style="fill: #666666; stroke: #666666; stroke-width: 1px;"></path><circle cx="658" cy="15" r="10" class="compassNav" style="fill: #ffffff; stroke: #666666; stroke-width: 1px;"></circle><line class="compassNav" stroke-width="2" stroke="#666666" x1="654" y1="15" x2="662" y2="15"></line><line class="compassNav" stroke-width="2" stroke="#666666" x1="658" y1="11" x2="658" y2="19"></line><circle cx="614" cy="15" r="10" class="compassNav" style="fill: #ffffff; stroke: #666666; stroke-width: 1px;"></circle><line class="compassNav" stroke-width="2" stroke="#666666" x1="610" y1="15" x2="618" y2="15"></line><path d="M582 14 l20 -12 a100,40 0 0,0 0,24z" class="compassNav" style="fill: #ffffff; stroke: #666666; stroke-width: 1px;"></path><path d="M690 14 l-20 -12 a100,40 0 0,1 0,24z" class="compassNav" style="fill: #ffffff; stroke: #666666; stroke-width: 1px;"></path><path d="M216 0h80c13.3 0 24 10.7 24 24v168h87.7c17.8 0 26.7 21.5 14.1 34.1L269.7 378.3c-7.5 7.5-19.8 7.5-27.3 0L90.1 226.1c-12.6-12.6-3.7-34.1 14.1-34.1H192V24c0-13.3 10.7-24 24-24zm296 376v112c0 13.3-10.7 24-24 24H24c-13.3 0-24-10.7-24-24V376c0-13.3 10.7-24 24-24h146.7l49 49c20.1 20.1 52.5 20.1 72.6 0l49-49H488c13.3 0 24 10.7 24 24zm-124 88c0-11-9-20-20-20s-20 9-20 20 9 20 20 20 20-9 20-20zm64 0c0-11-9-20-20-20s-20 9-20 20 9 20 20 20 20-9 20-20z" class="compassNav" transform="translate(552,0) scale(0.05)" style="fill: #336699; stroke: #336699; stroke-width: 1px; cursor: pointer;"></path></g></svg>