<svg width="800" height="400" style="background-color: white;"><g transform="translate(50,0)"><svg width="700" height="360"><g style="-webkit-tap-highlight-color: rgba(0, 0, 0, 0);"><rect width="700" height="360" style="fill: #ffffff;"></rect><g id="lines"><line class="line" stroke-width="1" stroke="#d7301f" x1="-285.08064516129036" y1="333" x2="-285.08064516129036" y2="360" visibility="hidden" style="stroke-dasharray: 3px, 3px;"></line></g><g><rect x="-290.08064516129036" y="355" width="10" height="10" visibility="hidden" style="fill: #ffffff; stroke: #d7301f;"></rect></g><g id="lines"><line class="line" stroke-width="1" stroke="#6a51a3" x1="-285.08064516129036" y1="333" x2="-285.08064516129036" y2="327.27272727272725" visibility="hidden" style="stroke-dasharray: 3px, 3px;"></line></g><g><rect x="-290.08064516129036" y="322.27272727272725" width="10" height="10" visibility="hidden" style="fill: #ffffff; stroke: #6a51a3;"></rect></g><g id="lines"><line class="line" stroke-width="1" stroke="#666666" x1="33.87096774193548" y1="333" x2="33.87096774193548" y2="306.02125147579693"></line><line class="line" stroke-width="1" stroke="#666666" x1="33.87096774193548" y1="333" x2="33.87096774193548" y2="242.2668240850059"></line><line class="line" stroke-width="1" stroke="#666666" x1="62.09677419354839" y1="333" x2="62.09677419354839" y2="306.02125147579693"></line><line class="line" stroke-width="1" stroke="#666666" x1="64.91935483870968" y1="333" x2="64.91935483870968" y2="242.2668240850059"></line><line class="line" stroke-width="1" stroke="#666666" x1="67.74193548387096" y1="333" x2="67.74193548387096" y2="306.02125147579693"></line><line class="line" stroke-width="1" stroke="#666666" x1="84.67741935483872" y1="333" x2="84.67741935483872" y2="306.02125147579693"></line><line class="line" stroke-width="1" stroke="#666666" x1="95.96774193548386" y1="333" x2="95.96774193548386" y2="221.0153482880756"></line><line class="line" stroke-width="1" stroke="#666666" x1="95.96774193548386" y1="333" x2="95.96774193548386" y2="221.0153482880756"></line><line class="line" stroke-width="1" stroke="#666666" x1="95.96774193548386" y1="333" x2="95.96774193548386" y2="306.02125147579693"></line><line class="line" stroke-width="1" stroke="#666666" x1="98.79032258064517" y1="333" x2="98.79032258064517" y2="284.7697756788666"></line><line class="line" stroke-width="1" stroke="#666666" x1="104.43548387096774" y1="333" x2="104.43548387096774" y2="306.02125147579693"></line><line class="line" stroke-width="1" stroke="#666666" x1="124.19354838709678" y1="333" x2="124.19354838709678" y2="306.02125147579693"></line><line class="line" stroke-width="1" stroke="#666666" x1="152.41935483870967" y1="333" x2="152.41935483870967" y2="284.7697756788666"></line><line class="line" stroke-width="1" stroke="#666666" x1="160.88709677419354" y1="333" x2="160.88709677419354" y2="306.02125147579693"></line><line class="line" stroke-width="1" stroke="#666666" x1="194.75806451612902" y1="333" x2="194.75806451612902" y2="306.02125147579693"></line><line class="line" stroke-width="1" stroke="#666666" x1="251.20967741935485" y1="333" x2="251.20967741935485" y2="306.02125147579693"></line><line class="line" stroke-width="1" stroke="#666666" x1="434.6774193548387" y1="333" x2="434.6774193548387" y2="306.02125147579693"></line><line class="line" stroke-width="1" stroke="#666666" x1="434.6774193548387" y1="333" x2="434.6774193548387" y2="284.7697756788666"></line><line class="line" stroke-width="1" stroke="#666666" x1="491.12903225806457" y1="333" x2="491.12903225806457" y2="306.02125147579693"></line><line class="line" stroke-width="1" stroke="#666666" x1="493.95161290322585" y1="333" x2="493.95161290322585" y2="263.51829988193623"></line><line class="line" stroke-width="1" stroke="#666666" x1="525" y1="333" x2="525" y2="306.02125147579693"></line><line class="line" stroke-width="1" stroke="#666666" x1="533.4677419354839" y1="333" x2="533.4677419354839" y2="306.02125147579693"></line><line class="line" stroke-width="1" stroke="#666666" x1="587.0967741935484" y1="333" x2="587.0967741935484" y2="306.02125147579693"></line><line class="line" stroke-width="1" stroke="#666666" x1="598.3870967741935" y1="333" x2="598.3870967741935" y2="306.02125147579693"></line><line class="line" stroke-width="1" stroke="#666666" x1="618.1451612903226" y1="333" x2="618.1451612903226" y2="306.02125147579693"></line><line class="line" stroke-width="1" stroke="#666666" x1="652.016129032258" y1="333" x2="652.016129032258" y2="29.75206611570252"></line><line class="line" stroke-width="1" stroke="#666666" x1="688.7096774193549" y1="333" x2="688.7096774193549" y2="263.51829988193623"></line><line class="line" stroke-width="1" stroke="#666666" x1="700" y1="333" x2="700" y2="306.02125147579693"></line></g><g id="circles"><circle r="4" cx="33.87096774193548" cy="306.02125147579693" style="fill: #5aae61; stroke: #666666; stroke-width: 1px;"></circle><circle r="4" cx="33.87096774193548" cy="242.2668240850059" style="fill: #bf812d; stroke: #666666; stroke-width: 1px;"></circle><circle r="4" cx="62.09677419354839" cy="306.02125147579693" style="fill: #4393c3; stroke: #666666; stroke-width: 1px;"></circle><circle r="4" cx="64.91935483870968" cy="242.2668240850059" style="fill: #bf812d; stroke: #666666; stroke-width: 1px;"></circle><circle r="4" cx="67.74193548387096" cy="306.02125147579693" style="fill: #4393c3; stroke: #666666; stroke-width: 1px;"></circle><circle r="4" cx="84.67741935483872" cy="306.02125147579693" style="fill: #4393c3; stroke: #666666; stroke-width: 1px;"></circle><circle r="4" cx="95.96774193548386" cy="221.0153482880756" style="fill: #5aae61; stroke: #666666; stroke-width: 1px;"></circle><circle r="4" cx="95.96774193548386" cy="221.0153482880756" style="fill: #bf812d; stroke: #666666; stroke-width: 1px;"></circle><circle r="4" cx="95.96774193548386" cy="306.02125147579693" style="fill: #666666; stroke: #666666; stroke-width: 1px;"></circle><circle r="4" cx="98.79032258064517" cy="284.7697756788666" style="fill: #bf812d; stroke: #666666; stroke-width: 1px;"></circle><circle r="4" cx="104.43548387096774" cy="306.02125147579693" style="fill: #4393c3; stroke: #666666; stroke-width: 1px;"></circle><circle r="4" cx="124.19354838709678" cy="306.02125147579693" style="fill: #5aae61; stroke: #666666; stroke-width: 1px;"></circle><circle r="4" cx="152.41935483870967" cy="284.7697756788666" style="fill: #4393c3; stroke: #666666; stroke-width: 1px;"></circle><circle r="4" cx="160.88709677419354" cy="306.02125147579693" style="fill: #666666; stroke: #666666; stroke-width: 1px;"></circle><circle r="4" cx="194.75806451612902" cy="306.02125147579693" style="fill: #bf812d; stroke: #666666; stroke-width: 1px;"></circle><circle r="4" cx="251.20967741935485" cy="306.02125147579693" style="fill: #5aae61; stroke: #666666; stroke-width: 1px;"></circle><circle r="4" cx="434.6774193548387" cy="306.02125147579693" style="fill: #5aae61; stroke: #666666; stroke-width: 1px;"></circle><circle r="4" cx="434.6774193548387" cy="284.7697756788666" style="fill: #bf812d; stroke: #666666; stroke-width: 1px;"></circle><circle r="4" cx="491.12903225806457" cy="306.02125147579693" style="fill: #4393c3; stroke: #666666; stroke-width: 1px;"></circle><circle r="4" cx="493.95161290322585" cy="263.51829988193623" style="fill: #bf812d; stroke: #666666; stroke-width: 1px;"></circle><circle r="4" cx="525" cy="306.02125147579693" style="fill: #bf812d; stroke: #666666; stroke-width: 1px;"></circle><circle r="4" cx="533.4677419354839" cy="306.02125147579693" style="fill: #bf812d; stroke: #666666; stroke-width: 1px;"></circle><circle r="4" cx="587.0967741935484" cy="306.02125147579693" style="fill: #4393c3; stroke: #666666; stroke-width: 1px;"></circle><circle r="4" cx="598.3870967741935" cy="306.02125147579693" style="fill: #666666; stroke: #666666; stroke-width: 1px;"></circle><circle r="4" cx="618.1451612903226" cy="306.02125147579693" style="fill: #666666; stroke: #666666; stroke-width: 1px;"></circle><circle r="4" cx="652.016129032258" cy="29.75206611570252" style="fill: #5aae61; stroke: #666666; stroke-width: 1px;"></circle><circle r="4" cx="688.7096774193549" cy="263.51829988193623" style="fill: #bf812d; stroke: #666666; stroke-width: 1px;"></circle><circle r="4" cx="700" cy="306.02125147579693" style="fill: #4393c3; stroke: #666666; stroke-width: 1px;"></circle></g><g><rect x="0" y="333" width="700" height="12" style="fill: #ffffff; stroke-width: 1px; stroke: #666666;"></rect><rect x="19.758064516129032" y="333" width="169.3548387096774" height="12" style="fill: #aec7e8; stroke-width: 1px; stroke: #666666;"></rect><rect x="287.90322580645164" y="333" width="406.4516129032258" height="12" style="fill: #ffbb78; stroke-width: 1px; stroke: #666666;"></rect></g><g><a target="_blank" xlink:href="http://pfam.xfam.org/family/"><text y="343" x="350" text-anchor="middle" style="color: rgb(102, 102, 102); font-weight: normal; font-size: 12px; font-family: Arial; cursor: pointer;"></text></a><a target="_blank" xlink:href="http://pfam.xfam.org/family/PA28_alpha"><text y="343" x="104.43548387096773" text-anchor="middle" style="color: rgb(102, 102, 102); font-weight: normal; font-size: 12px; font-family: Arial; cursor: pointer;">PA28_alpha</text></a><a target="_blank" xlink:href="http://pfam.xfam.org/family/PA28_beta"><text y="343" x="491.1290322580645" text-anchor="middle" style="color: rgb(102, 102, 102); font-weight: normal; font-size: 12px; font-family: Arial; cursor: pointer;">PA28_beta</text></a></g><g><text y="358" x="0" text-anchor="middle" visibility="hidden" style="font-size: 13px;">M</text><text y="358" x="2.82258064516129" text-anchor="middle" visibility="hidden" style="font-size: 13px;">A</text><text y="358" x="5.64516129032258" text-anchor="middle" visibility="hidden" style="font-size: 13px;">M</text><text y="358" x="8.46774193548387" text-anchor="middle" visibility="hidden" style="font-size: 13px;">L</text><text y="358" x="11.29032258064516" text-anchor="middle" visibility="hidden" style="font-size: 13px;">R</text><text y="358" x="14.112903225806452" text-anchor="middle" visibility="hidden" style="font-size: 13px;">V</text><text y="358" x="16.93548387096774" text-anchor="middle" visibility="hidden" style="font-size: 13px;">Q</text><text y="358" x="19.758064516129032" text-anchor="middle" visibility="hidden" style="font-size: 13px;">P</text><text y="358" x="22.58064516129032" text-anchor="middle" visibility="hidden" style="font-size: 13px;">E</text><text y="358" x="25.403225806451616" text-anchor="middle" visibility="hidden" style="font-size: 13px;">A</text><text y="358" x="28.225806451612904" text-anchor="middle" visibility="hidden" style="font-size: 13px;">Q</text><text y="358" x="31.048387096774196" text-anchor="middle" visibility="hidden" style="font-size: 13px;">A</text><text y="358" x="33.87096774193548" text-anchor="middle" visibility="hidden" style="font-size: 13px;">K</text><text y="358" x="36.693548387096776" text-anchor="middle" visibility="hidden" style="font-size: 13px;">V</text><text y="358" x="39.516129032258064" text-anchor="middle" visibility="hidden" style="font-size: 13px;">D</text><text y="358" x="42.33870967741936" text-anchor="middle" visibility="hidden" style="font-size: 13px;">V</text><text y="358" x="45.16129032258064" text-anchor="middle" visibility="hidden" style="font-size: 13px;">F</text><text y="358" x="47.98387096774193" text-anchor="middle" visibility="hidden" style="font-size: 13px;">R</text><text y="358" x="50.80645161290323" text-anchor="middle" visibility="hidden" style="font-size: 13px;">E</text><text y="358" x="53.62903225806452" text-anchor="middle" visibility="hidden" style="font-size: 13px;">D</text><text y="358" x="56.45161290322581" text-anchor="middle" visibility="hidden" style="font-size: 13px;">L</text><text y="358" x="59.274193548387096" text-anchor="middle" visibility="hidden" style="font-size: 13px;">C</text><text y="358" x="62.09677419354839" text-anchor="middle" visibility="hidden" style="font-size: 13px;">T</text><text y="358" x="64.91935483870968" text-anchor="middle" visibility="hidden" style="font-size: 13px;">K</text><text y="358" x="67.74193548387096" text-anchor="middle" visibility="hidden" style="font-size: 13px;">T</text><text y="358" x="70.56451612903226" text-anchor="middle" visibility="hidden" style="font-size: 13px;">E</text><text y="358" x="73.38709677419355" text-anchor="middle" visibility="hidden" style="font-size: 13px;">N</text><text y="358" x="76.20967741935483" text-anchor="middle" visibility="hidden" style="font-size: 13px;">L</text><text y="358" x="79.03225806451613" text-anchor="middle" visibility="hidden" style="font-size: 13px;">L</text><text y="358" x="81.85483870967741" text-anchor="middle" visibility="hidden" style="font-size: 13px;">G</text><text y="358" x="84.67741935483872" text-anchor="middle" visibility="hidden" style="font-size: 13px;">S</text><text y="358" x="87.5" text-anchor="middle" visibility="hidden" style="font-size: 13px;">Y</text><text y="358" x="90.32258064516128" text-anchor="middle" visibility="hidden" style="font-size: 13px;">F</text><text y="358" x="93.14516129032258" text-anchor="middle" visibility="hidden" style="font-size: 13px;">P</text><text y="358" x="95.96774193548386" text-anchor="middle" visibility="hidden" style="font-size: 13px;">K</text><text y="358" x="98.79032258064517" text-anchor="middle" visibility="hidden" style="font-size: 13px;">K</text><text y="358" x="101.61290322580646" text-anchor="middle" visibility="hidden" style="font-size: 13px;">I</text><text y="358" x="104.43548387096774" text-anchor="middle" visibility="hidden" style="font-size: 13px;">S</text><text y="358" x="107.25806451612904" text-anchor="middle" visibility="hidden" style="font-size: 13px;">E</text><text y="358" x="110.08064516129032" text-anchor="middle" visibility="hidden" style="font-size: 13px;">L</text><text y="358" x="112.90322580645162" text-anchor="middle" visibility="hidden" style="font-size: 13px;">D</text><text y="358" x="115.7258064516129" text-anchor="middle" visibility="hidden" style="font-size: 13px;">A</text><text y="358" x="118.54838709677419" text-anchor="middle" visibility="hidden" style="font-size: 13px;">F</text><text y="358" x="121.37096774193549" text-anchor="middle" visibility="hidden" style="font-size: 13px;">L</text><text y="358" x="124.19354838709678" text-anchor="middle" visibility="hidden" style="font-size: 13px;">K</text><text y="358" x="127.01612903225806" text-anchor="middle" visibility="hidden" style="font-size: 13px;">E</text><text y="358" x="129.83870967741936" text-anchor="middle" visibility="hidden" style="font-size: 13px;">P</text><text y="358" x="132.66129032258064" text-anchor="middle" visibility="hidden" style="font-size: 13px;">A</text><text y="358" x="135.48387096774192" text-anchor="middle" visibility="hidden" style="font-size: 13px;">L</text><text y="358" x="138.30645161290323" text-anchor="middle" visibility="hidden" style="font-size: 13px;">N</text><text y="358" x="141.1290322580645" text-anchor="middle" visibility="hidden" style="font-size: 13px;">E</text><text y="358" x="143.95161290322582" text-anchor="middle" visibility="hidden" style="font-size: 13px;">A</text><text y="358" x="146.7741935483871" text-anchor="middle" visibility="hidden" style="font-size: 13px;">N</text><text y="358" x="149.59677419354838" text-anchor="middle" visibility="hidden" style="font-size: 13px;">L</text><text y="358" x="152.41935483870967" text-anchor="middle" visibility="hidden" style="font-size: 13px;">S</text><text y="358" x="155.24193548387098" text-anchor="middle" visibility="hidden" style="font-size: 13px;">N</text><text y="358" x="158.06451612903226" text-anchor="middle" visibility="hidden" style="font-size: 13px;">L</text><text y="358" x="160.88709677419354" text-anchor="middle" visibility="hidden" style="font-size: 13px;">K</text><text y="358" x="163.70967741935482" text-anchor="middle" visibility="hidden" style="font-size: 13px;">A</text><text y="358" x="166.53225806451613" text-anchor="middle" visibility="hidden" style="font-size: 13px;">P</text><text y="358" x="169.35483870967744" text-anchor="middle" visibility="hidden" style="font-size: 13px;">L</text><text y="358" x="172.17741935483872" text-anchor="middle" visibility="hidden" style="font-size: 13px;">D</text><text y="358" x="175" text-anchor="middle" visibility="hidden" style="font-size: 13px;">I</text><text y="358" x="177.82258064516128" text-anchor="middle" visibility="hidden" style="font-size: 13px;">P</text><text y="358" x="180.64516129032256" text-anchor="middle" visibility="hidden" style="font-size: 13px;">V</text><text y="358" x="183.46774193548387" text-anchor="middle" visibility="hidden" style="font-size: 13px;">P</text><text y="358" x="186.29032258064515" text-anchor="middle" visibility="hidden" style="font-size: 13px;">D</text><text y="358" x="189.11290322580643" text-anchor="middle" visibility="hidden" style="font-size: 13px;">P</text><text y="358" x="191.93548387096772" text-anchor="middle" visibility="hidden" style="font-size: 13px;">V</text><text y="358" x="194.75806451612902" text-anchor="middle" visibility="hidden" style="font-size: 13px;">K</text><text y="358" x="197.58064516129033" text-anchor="middle" visibility="hidden" style="font-size: 13px;">E</text><text y="358" x="200.40322580645162" text-anchor="middle" visibility="hidden" style="font-size: 13px;">K</text><text y="358" x="203.22580645161293" text-anchor="middle" visibility="hidden" style="font-size: 13px;">E</text><text y="358" x="206.0483870967742" text-anchor="middle" visibility="hidden" style="font-size: 13px;">K</text><text y="358" x="208.8709677419355" text-anchor="middle" visibility="hidden" style="font-size: 13px;">E</text><text y="358" x="211.69354838709677" text-anchor="middle" visibility="hidden" style="font-size: 13px;">E</text><text y="358" x="214.51612903225808" text-anchor="middle" visibility="hidden" style="font-size: 13px;">R</text><text y="358" x="217.33870967741936" text-anchor="middle" visibility="hidden" style="font-size: 13px;">K</text><text y="358" x="220.16129032258064" text-anchor="middle" visibility="hidden" style="font-size: 13px;">K</text><text y="358" x="222.98387096774192" text-anchor="middle" visibility="hidden" style="font-size: 13px;">Q</text><text y="358" x="225.80645161290323" text-anchor="middle" visibility="hidden" style="font-size: 13px;">Q</text><text y="358" x="228.6290322580645" text-anchor="middle" visibility="hidden" style="font-size: 13px;">E</text><text y="358" x="231.4516129032258" text-anchor="middle" visibility="hidden" style="font-size: 13px;">K</text><text y="358" x="234.27419354838707" text-anchor="middle" visibility="hidden" style="font-size: 13px;">E</text><text y="358" x="237.09677419354838" text-anchor="middle" visibility="hidden" style="font-size: 13px;">D</text><text y="358" x="239.91935483870967" text-anchor="middle" visibility="hidden" style="font-size: 13px;">K</text><text y="358" x="242.74193548387098" text-anchor="middle" visibility="hidden" style="font-size: 13px;">D</text><text y="358" x="245.56451612903228" text-anchor="middle" visibility="hidden" style="font-size: 13px;">E</text><text y="358" x="248.38709677419357" text-anchor="middle" visibility="hidden" style="font-size: 13px;">K</text><text y="358" x="251.20967741935485" text-anchor="middle" visibility="hidden" style="font-size: 13px;">K</text><text y="358" x="254.03225806451613" text-anchor="middle" visibility="hidden" style="font-size: 13px;">K</text><text y="358" x="256.85483870967744" text-anchor="middle" visibility="hidden" style="font-size: 13px;">G</text><text y="358" x="259.6774193548387" text-anchor="middle" visibility="hidden" style="font-size: 13px;">E</text><text y="358" x="262.5" text-anchor="middle" visibility="hidden" style="font-size: 13px;">D</text><text y="358" x="265.3225806451613" text-anchor="middle" visibility="hidden" style="font-size: 13px;">E</text><text y="358" x="268.14516129032256" text-anchor="middle" visibility="hidden" style="font-size: 13px;">D</text><text y="358" x="270.96774193548384" text-anchor="middle" visibility="hidden" style="font-size: 13px;">K</text><text y="358" x="273.7903225806451" text-anchor="middle" visibility="hidden" style="font-size: 13px;">G</text><text y="358" x="276.61290322580646" text-anchor="middle" visibility="hidden" style="font-size: 13px;">P</text><text y="358" x="279.43548387096774" text-anchor="middle" visibility="hidden" style="font-size: 13px;">P</text><text y="358" x="282.258064516129" text-anchor="middle" visibility="hidden" style="font-size: 13px;">C</text><text y="358" x="285.08064516129036" text-anchor="middle" visibility="hidden" style="font-size: 13px;">G</text><text y="358" x="287.90322580645164" text-anchor="middle" visibility="hidden" style="font-size: 13px;">P</text><text y="358" x="290.7258064516129" text-anchor="middle" visibility="hidden" style="font-size: 13px;">V</text><text y="358" x="293.5483870967742" text-anchor="middle" visibility="hidden" style="font-size: 13px;">N</text><text y="358" x="296.3709677419355" text-anchor="middle" visibility="hidden" style="font-size: 13px;">C</text><text y="358" x="299.19354838709677" text-anchor="middle" visibility="hidden" style="font-size: 13px;">N</text><text y="358" x="302.01612903225805" text-anchor="middle" visibility="hidden" style="font-size: 13px;">E</text><text y="358" x="304.83870967741933" text-anchor="middle" visibility="hidden" style="font-size: 13px;">K</text><text y="358" x="307.66129032258067" text-anchor="middle" visibility="hidden" style="font-size: 13px;">I</text><text y="358" x="310.48387096774195" text-anchor="middle" visibility="hidden" style="font-size: 13px;">V</text><text y="358" x="313.30645161290323" text-anchor="middle" visibility="hidden" style="font-size: 13px;">V</text><text y="358" x="316.1290322580645" text-anchor="middle" visibility="hidden" style="font-size: 13px;">L</text><text y="358" x="318.9516129032258" text-anchor="middle" visibility="hidden" style="font-size: 13px;">L</text><text y="358" x="321.7741935483871" text-anchor="middle" visibility="hidden" style="font-size: 13px;">Q</text><text y="358" x="324.59677419354836" text-anchor="middle" visibility="hidden" style="font-size: 13px;">R</text><text y="358" x="327.41935483870964" text-anchor="middle" visibility="hidden" style="font-size: 13px;">L</text><text y="358" x="330.241935483871" text-anchor="middle" visibility="hidden" style="font-size: 13px;">K</text><text y="358" x="333.06451612903226" text-anchor="middle" visibility="hidden" style="font-size: 13px;">P</text><text y="358" x="335.88709677419354" text-anchor="middle" visibility="hidden" style="font-size: 13px;">E</text><text y="358" x="338.7096774193549" text-anchor="middle" visibility="hidden" style="font-size: 13px;">I</text><text y="358" x="341.53225806451616" text-anchor="middle" visibility="hidden" style="font-size: 13px;">K</text><text y="358" x="344.35483870967744" text-anchor="middle" visibility="hidden" style="font-size: 13px;">D</text><text y="358" x="347.1774193548387" text-anchor="middle" visibility="hidden" style="font-size: 13px;">V</text><text y="358" x="350" text-anchor="middle" visibility="hidden" style="font-size: 13px;">I</text><text y="358" x="352.8225806451613" text-anchor="middle" visibility="hidden" style="font-size: 13px;">E</text><text y="358" x="355.64516129032256" text-anchor="middle" visibility="hidden" style="font-size: 13px;">Q</text><text y="358" x="358.46774193548384" text-anchor="middle" visibility="hidden" style="font-size: 13px;">L</text><text y="358" x="361.2903225806451" text-anchor="middle" visibility="hidden" style="font-size: 13px;">N</text><text y="358" x="364.11290322580646" text-anchor="middle" visibility="hidden" style="font-size: 13px;">L</text><text y="358" x="366.93548387096774" text-anchor="middle" visibility="hidden" style="font-size: 13px;">V</text><text y="358" x="369.758064516129" text-anchor="middle" visibility="hidden" style="font-size: 13px;">T</text><text y="358" x="372.5806451612903" text-anchor="middle" visibility="hidden" style="font-size: 13px;">T</text><text y="358" x="375.4032258064516" text-anchor="middle" visibility="hidden" style="font-size: 13px;">W</text><text y="358" x="378.22580645161287" text-anchor="middle" visibility="hidden" style="font-size: 13px;">L</text><text y="358" x="381.04838709677415" text-anchor="middle" visibility="hidden" style="font-size: 13px;">Q</text><text y="358" x="383.87096774193543" text-anchor="middle" visibility="hidden" style="font-size: 13px;">L</text><text y="358" x="386.69354838709677" text-anchor="middle" visibility="hidden" style="font-size: 13px;">Q</text><text y="358" x="389.51612903225805" text-anchor="middle" visibility="hidden" style="font-size: 13px;">I</text><text y="358" x="392.33870967741933" text-anchor="middle" visibility="hidden" style="font-size: 13px;">P</text><text y="358" x="395.16129032258067" text-anchor="middle" visibility="hidden" style="font-size: 13px;">R</text><text y="358" x="397.98387096774195" text-anchor="middle" visibility="hidden" style="font-size: 13px;">I</text><text y="358" x="400.80645161290323" text-anchor="middle" visibility="hidden" style="font-size: 13px;">E</text><text y="358" x="403.62903225806457" text-anchor="middle" visibility="hidden" style="font-size: 13px;">D</text><text y="358" x="406.45161290322585" text-anchor="middle" visibility="hidden" style="font-size: 13px;">G</text><text y="358" x="409.27419354838713" text-anchor="middle" visibility="hidden" style="font-size: 13px;">N</text><text y="358" x="412.0967741935484" text-anchor="middle" visibility="hidden" style="font-size: 13px;">N</text><text y="358" x="414.9193548387097" text-anchor="middle" visibility="hidden" style="font-size: 13px;">F</text><text y="358" x="417.741935483871" text-anchor="middle" visibility="hidden" style="font-size: 13px;">G</text><text y="358" x="420.56451612903226" text-anchor="middle" visibility="hidden" style="font-size: 13px;">V</text><text y="358" x="423.38709677419354" text-anchor="middle" visibility="hidden" style="font-size: 13px;">A</text><text y="358" x="426.2096774193549" text-anchor="middle" visibility="hidden" style="font-size: 13px;">V</text><text y="358" x="429.03225806451616" text-anchor="middle" visibility="hidden" style="font-size: 13px;">Q</text><text y="358" x="431.85483870967744" text-anchor="middle" visibility="hidden" style="font-size: 13px;">E</text><text y="358" x="434.6774193548387" text-anchor="middle" visibility="hidden" style="font-size: 13px;">K</text><text y="358" x="437.5" text-anchor="middle" visibility="hidden" style="font-size: 13px;">V</text><text y="358" x="440.3225806451613" text-anchor="middle" visibility="hidden" style="font-size: 13px;">F</text><text y="358" x="443.14516129032256" text-anchor="middle" visibility="hidden" style="font-size: 13px;">E</text><text y="358" x="445.96774193548384" text-anchor="middle" visibility="hidden" style="font-size: 13px;">L</text><text y="358" x="448.7903225806451" text-anchor="middle" visibility="hidden" style="font-size: 13px;">M</text><text y="358" x="451.61290322580646" text-anchor="middle" visibility="hidden" style="font-size: 13px;">T</text><text y="358" x="454.43548387096774" text-anchor="middle" visibility="hidden" style="font-size: 13px;">S</text><text y="358" x="457.258064516129" text-anchor="middle" visibility="hidden" style="font-size: 13px;">L</text><text y="358" x="460.0806451612903" text-anchor="middle" visibility="hidden" style="font-size: 13px;">H</text><text y="358" x="462.9032258064516" text-anchor="middle" visibility="hidden" style="font-size: 13px;">T</text><text y="358" x="465.72580645161287" text-anchor="middle" visibility="hidden" style="font-size: 13px;">K</text><text y="358" x="468.54838709677415" text-anchor="middle" visibility="hidden" style="font-size: 13px;">L</text><text y="358" x="471.37096774193543" text-anchor="middle" visibility="hidden" style="font-size: 13px;">E</text><text y="358" x="474.19354838709677" text-anchor="middle" visibility="hidden" style="font-size: 13px;">G</text><text y="358" x="477.01612903225805" text-anchor="middle" visibility="hidden" style="font-size: 13px;">F</text><text y="358" x="479.83870967741933" text-anchor="middle" visibility="hidden" style="font-size: 13px;">H</text><text y="358" x="482.66129032258067" text-anchor="middle" visibility="hidden" style="font-size: 13px;">T</text><text y="358" x="485.48387096774195" text-anchor="middle" visibility="hidden" style="font-size: 13px;">Q</text><text y="358" x="488.30645161290323" text-anchor="middle" visibility="hidden" style="font-size: 13px;">I</text><text y="358" x="491.12903225806457" text-anchor="middle" visibility="hidden" style="font-size: 13px;">S</text><text y="358" x="493.95161290322585" text-anchor="middle" visibility="hidden" style="font-size: 13px;">K</text><text y="358" x="496.77419354838713" text-anchor="middle" visibility="hidden" style="font-size: 13px;">Y</text><text y="358" x="499.5967741935484" text-anchor="middle" visibility="hidden" style="font-size: 13px;">F</text><text y="358" x="502.4193548387097" text-anchor="middle" visibility="hidden" style="font-size: 13px;">S</text><text y="358" x="505.241935483871" text-anchor="middle" visibility="hidden" style="font-size: 13px;">E</text><text y="358" x="508.06451612903226" text-anchor="middle" visibility="hidden" style="font-size: 13px;">R</text><text y="358" x="510.88709677419354" text-anchor="middle" visibility="hidden" style="font-size: 13px;">G</text><text y="358" x="513.7096774193549" text-anchor="middle" visibility="hidden" style="font-size: 13px;">D</text><text y="358" x="516.5322580645161" text-anchor="middle" visibility="hidden" style="font-size: 13px;">A</text><text y="358" x="519.3548387096774" text-anchor="middle" visibility="hidden" style="font-size: 13px;">V</text><text y="358" x="522.1774193548387" text-anchor="middle" visibility="hidden" style="font-size: 13px;">T</text><text y="358" x="525" text-anchor="middle" visibility="hidden" style="font-size: 13px;">K</text><text y="358" x="527.8225806451613" text-anchor="middle" visibility="hidden" style="font-size: 13px;">A</text><text y="358" x="530.6451612903226" text-anchor="middle" visibility="hidden" style="font-size: 13px;">A</text><text y="358" x="533.4677419354839" text-anchor="middle" visibility="hidden" style="font-size: 13px;">K</text><text y="358" x="536.2903225806451" text-anchor="middle" visibility="hidden" style="font-size: 13px;">Q</text><text y="358" x="539.1129032258065" text-anchor="middle" visibility="hidden" style="font-size: 13px;">P</text><text y="358" x="541.9354838709677" text-anchor="middle" visibility="hidden" style="font-size: 13px;">H</text><text y="358" x="544.758064516129" text-anchor="middle" visibility="hidden" style="font-size: 13px;">V</text><text y="358" x="547.5806451612902" text-anchor="middle" visibility="hidden" style="font-size: 13px;">G</text><text y="358" x="550.4032258064516" text-anchor="middle" visibility="hidden" style="font-size: 13px;">D</text><text y="358" x="553.2258064516129" text-anchor="middle" visibility="hidden" style="font-size: 13px;">Y</text><text y="358" x="556.0483870967741" text-anchor="middle" visibility="hidden" style="font-size: 13px;">R</text><text y="358" x="558.8709677419355" text-anchor="middle" visibility="hidden" style="font-size: 13px;">Q</text><text y="358" x="561.6935483870967" text-anchor="middle" visibility="hidden" style="font-size: 13px;">L</text><text y="358" x="564.516129032258" text-anchor="middle" visibility="hidden" style="font-size: 13px;">V</text><text y="358" x="567.3387096774193" text-anchor="middle" visibility="hidden" style="font-size: 13px;">H</text><text y="358" x="570.1612903225807" text-anchor="middle" visibility="hidden" style="font-size: 13px;">E</text><text y="358" x="572.983870967742" text-anchor="middle" visibility="hidden" style="font-size: 13px;">L</text><text y="358" x="575.8064516129033" text-anchor="middle" visibility="hidden" style="font-size: 13px;">D</text><text y="358" x="578.6290322580645" text-anchor="middle" visibility="hidden" style="font-size: 13px;">E</text><text y="358" x="581.4516129032259" text-anchor="middle" visibility="hidden" style="font-size: 13px;">A</text><text y="358" x="584.2741935483871" text-anchor="middle" visibility="hidden" style="font-size: 13px;">E</text><text y="358" x="587.0967741935484" text-anchor="middle" visibility="hidden" style="font-size: 13px;">Y</text><text y="358" x="589.9193548387098" text-anchor="middle" visibility="hidden" style="font-size: 13px;">R</text><text y="358" x="592.741935483871" text-anchor="middle" visibility="hidden" style="font-size: 13px;">D</text><text y="358" x="595.5645161290323" text-anchor="middle" visibility="hidden" style="font-size: 13px;">I</text><text y="358" x="598.3870967741935" text-anchor="middle" visibility="hidden" style="font-size: 13px;">R</text><text y="358" x="601.2096774193549" text-anchor="middle" visibility="hidden" style="font-size: 13px;">L</text><text y="358" x="604.0322580645161" text-anchor="middle" visibility="hidden" style="font-size: 13px;">M</text><text y="358" x="606.8548387096774" text-anchor="middle" visibility="hidden" style="font-size: 13px;">V</text><text y="358" x="609.6774193548387" text-anchor="middle" visibility="hidden" style="font-size: 13px;">M</text><text y="358" x="612.5" text-anchor="middle" visibility="hidden" style="font-size: 13px;">E</text><text y="358" x="615.3225806451613" text-anchor="middle" visibility="hidden" style="font-size: 13px;">I</text><text y="358" x="618.1451612903226" text-anchor="middle" visibility="hidden" style="font-size: 13px;">R</text><text y="358" x="620.9677419354839" text-anchor="middle" visibility="hidden" style="font-size: 13px;">N</text><text y="358" x="623.7903225806451" text-anchor="middle" visibility="hidden" style="font-size: 13px;">A</text><text y="358" x="626.6129032258065" text-anchor="middle" visibility="hidden" style="font-size: 13px;">Y</text><text y="358" x="629.4354838709677" text-anchor="middle" visibility="hidden" style="font-size: 13px;">A</text><text y="358" x="632.258064516129" text-anchor="middle" visibility="hidden" style="font-size: 13px;">V</text><text y="358" x="635.0806451612902" text-anchor="middle" visibility="hidden" style="font-size: 13px;">L</text><text y="358" x="637.9032258064516" text-anchor="middle" visibility="hidden" style="font-size: 13px;">Y</text><text y="358" x="640.7258064516129" text-anchor="middle" visibility="hidden" style="font-size: 13px;">D</text><text y="358" x="643.5483870967741" text-anchor="middle" visibility="hidden" style="font-size: 13px;">I</text><text y="358" x="646.3709677419355" text-anchor="middle" visibility="hidden" style="font-size: 13px;">I</text><text y="358" x="649.1935483870967" text-anchor="middle" visibility="hidden" style="font-size: 13px;">L</text><text y="358" x="652.016129032258" text-anchor="middle" visibility="hidden" style="font-size: 13px;">K</text><text y="358" x="654.8387096774193" text-anchor="middle" visibility="hidden" style="font-size: 13px;">N</text><text y="358" x="657.6612903225807" text-anchor="middle" visibility="hidden" style="font-size: 13px;">F</text><text y="358" x="660.483870967742" text-anchor="middle" visibility="hidden" style="font-size: 13px;">E</text><text y="358" x="663.3064516129033" text-anchor="middle" visibility="hidden" style="font-size: 13px;">K</text><text y="358" x="666.1290322580645" text-anchor="middle" visibility="hidden" style="font-size: 13px;">L</text><text y="358" x="668.9516129032259" text-anchor="middle" visibility="hidden" style="font-size: 13px;">K</text><text y="358" x="671.7741935483871" text-anchor="middle" visibility="hidden" style="font-size: 13px;">K</text><text y="358" x="674.5967741935484" text-anchor="middle" visibility="hidden" style="font-size: 13px;">P</text><text y="358" x="677.4193548387098" text-anchor="middle" visibility="hidden" style="font-size: 13px;">R</text><text y="358" x="680.241935483871" text-anchor="middle" visibility="hidden" style="font-size: 13px;">G</text><text y="358" x="683.0645161290323" text-anchor="middle" visibility="hidden" style="font-size: 13px;">E</text><text y="358" x="685.8870967741935" text-anchor="middle" visibility="hidden" style="font-size: 13px;">T</text><text y="358" x="688.7096774193549" text-anchor="middle" visibility="hidden" style="font-size: 13px;">K</text><text y="358" x="691.5322580645161" text-anchor="middle" visibility="hidden" style="font-size: 13px;">G</text><text y="358" x="694.3548387096774" text-anchor="middle" visibility="hidden" style="font-size: 13px;">M</text><text y="358" x="697.1774193548387" text-anchor="middle" visibility="hidden" style="font-size: 13px;">I</text><text y="358" x="700" text-anchor="middle" visibility="hidden" style="font-size: 13px;">Y</text></g></g></svg><g class="xAxis" transform="translate(0,360)" fill="none" font-size="10" font-family="sans-serif" text-anchor="middle"><path class="domain" stroke="#000" d="M0.5,6V0.5H700.5V6"></path><g class="tick" opacity="1" transform="translate(54.12903225806452,0)"><line stroke="#000" y2="6"></line><text fill="#000" y="9" dy="0.71em">20</text></g><g class="tick" opacity="1" transform="translate(110.58064516129032,0)"><line stroke="#000" y2="6"></line><text fill="#000" y="9" dy="0.71em">40</text></g><g class="tick" opacity="1" transform="translate(167.03225806451613,0)"><line stroke="#000" y2="6"></line><text fill="#000" y="9" dy="0.71em">60</text></g><g class="tick" opacity="1" transform="translate(223.48387096774192,0)"><line stroke="#000" y2="6"></line><text fill="#000" y="9" dy="0.71em">80</text></g><g class="tick" opacity="1" transform="translate(279.93548387096774,0)"><line stroke="#000" y2="6"></line><text fill="#000" y="9" dy="0.71em">100</text></g><g class="tick" opacity="1" transform="translate(336.38709677419354,0)"><line stroke="#000" y2="6"></line><text fill="#000" y="9" dy="0.71em">120</text></g><g class="tick" opacity="1" transform="translate(392.83870967741933,0)"><line stroke="#000" y2="6"></line><text fill="#000" y="9" dy="0.71em">140</text></g><g class="tick" opacity="1" transform="translate(449.2903225806451,0)"><line stroke="#000" y2="6"></line><text fill="#000" y="9" dy="0.71em">160</text></g><g class="tick" opacity="1" transform="translate(505.741935483871,0)"><line stroke="#000" y2="6"></line><text fill="#000" y="9" dy="0.71em">180</text></g><g class="tick" opacity="1" transform="translate(562.1935483870967,0)"><line stroke="#000" y2="6"></line><text fill="#000" y="9" dy="0.71em">200</text></g><g class="tick" opacity="1" transform="translate(618.6451612903226,0)"><line stroke="#000" y2="6"></line><text fill="#000" y="9" dy="0.71em">220</text></g><g class="tick" opacity="1" transform="translate(675.0967741935484,0)"><line stroke="#000" y2="6"></line><text fill="#000" y="9" dy="0.71em">240</text></g></g><text class="x label" text-anchor="end" x="700" y="390" style="font-size: 13px; font-family: Arial;">Residue number</text><g class="yAxis" fill="none" font-size="10" font-family="sans-serif" text-anchor="end"><path class="domain" stroke="#000" d="M-6,360.5H0.5V0.5H-6"></path><g class="tick" opacity="1" transform="translate(0,327.77272727272725)"><line stroke="#000" x2="-6"></line><text fill="#000" x="-9" dy="0.32em">0</text></g><g class="tick" opacity="1" transform="translate(0,285.2697756788666)"><line stroke="#000" x2="-6"></line><text fill="#000" x="-9" dy="0.32em">2</text></g><g class="tick" opacity="1" transform="translate(0,242.7668240850059)"><line stroke="#000" x2="-6"></line><text fill="#000" x="-9" dy="0.32em">4</text></g><g class="tick" opacity="1" transform="translate(0,200.26387249114524)"><line stroke="#000" x2="-6"></line><text fill="#000" x="-9" dy="0.32em">6</text></g><g class="tick" opacity="1" transform="translate(0,157.76092089728456)"><line stroke="#000" x2="-6"></line><text fill="#000" x="-9" dy="0.32em">8</text></g><g class="tick" opacity="1" transform="translate(0,115.25796930342389)"><line stroke="#000" x2="-6"></line><text fill="#000" x="-9" dy="0.32em">10</text></g><g class="tick" opacity="1" transform="translate(0,72.75501770956322)"><line stroke="#000" x2="-6"></line><text fill="#000" x="-9" dy="0.32em">12</text></g><g class="tick" opacity="1" transform="translate(0,30.25206611570252)"><line stroke="#000" x2="-6"></line><text fill="#000" x="-9" dy="0.32em">14</text></g></g><text class="y label" text-anchor="middle" y="-50" x="-180" dy="0.8em" transform="rotate(-90)" style="font-size: 13px; font-family: Arial;">Total number of references</text><g class="axisRed" fill="none" font-size="10" font-family="sans-serif" text-anchor="start" visibility="hidden" transform="translate(700, 0)"><path class="domain" stroke="#000" d="M6,360.5H0.5V0.5H6"></path><g class="tick" opacity="1" transform="translate(0,360.5)"><line stroke="#000" x2="6"></line><text fill="#000" x="9" dy="0.32em">0</text></g><text text-anchor="start" dx="5.2em" dy="-2.6em" transform="rotate(90)" visibility="hidden" style="font-size: 12px; font-family: Arial; fill: #d7301f;">No recurrent (&gt;2) missense mutations!</text></g><g class="axisPurple" fill="none" font-size="10" font-family="sans-serif" text-anchor="start" visibility="hidden"><path class="domain" stroke="#000" d="M6,360.5H0.5V0.5H6"></path><g class="tick" opacity="1" transform="translate(0,357.52479338842977)"><line stroke="#000" x2="6"></line><text fill="#000" x="9" dy="0.32em"></text></g><g class="tick" opacity="1" transform="translate(0,327.77272727272725)"><line stroke="#000" x2="6"></line><text fill="#000" x="9" dy="0.32em">0</text></g><g class="tick" opacity="1" transform="translate(0,298.0206611570248)"><line stroke="#000" x2="6"></line><text fill="#000" x="9" dy="0.32em">0.1</text></g><g class="tick" opacity="1" transform="translate(0,268.2685950413223)"><line stroke="#000" x2="6"></line><text fill="#000" x="9" dy="0.32em">0.2</text></g><g class="tick" opacity="1" transform="translate(0,238.51652892561984)"><line stroke="#000" x2="6"></line><text fill="#000" x="9" dy="0.32em">0.3</text></g><g class="tick" opacity="1" transform="translate(0,208.76446280991738)"><line stroke="#000" x2="6"></line><text fill="#000" x="9" dy="0.32em">0.4</text></g><g class="tick" opacity="1" transform="translate(0,179.0123966942149)"><line stroke="#000" x2="6"></line><text fill="#000" x="9" dy="0.32em">0.5</text></g><g class="tick" opacity="1" transform="translate(0,149.26033057851242)"><line stroke="#000" x2="6"></line><text fill="#000" x="9" dy="0.32em">0.6</text></g><g class="tick" opacity="1" transform="translate(0,119.50826446280996)"><line stroke="#000" x2="6"></line><text fill="#000" x="9" dy="0.32em">0.7</text></g><g class="tick" opacity="1" transform="translate(0,89.75619834710744)"><line stroke="#000" x2="6"></line><text fill="#000" x="9" dy="0.32em">0.8</text></g><g class="tick" opacity="1" transform="translate(0,60.00413223140498)"><line stroke="#000" x2="6"></line><text fill="#000" x="9" dy="0.32em">0.9</text></g><g class="tick" opacity="1" transform="translate(0,30.25206611570252)"><line stroke="#000" x2="6"></line><text fill="#000" x="9" dy="0.32em">1</text></g><g class="tick" opacity="1" transform="translate(0,0.5)"><line stroke="#000" x2="6"></line><text fill="#000" x="9" dy="0.32em">1.1</text></g><text text-anchor="start" x="10" y="10" visibility="hidden" style="font-size: 12px; font-family: Arial; fill: #807dba;">No disease causing germline SNPs known!</text></g><circle cx="636" cy="15" r="10" class="compassNav" style="fill: #ffffff; stroke: #666666; stroke-width: 1px;"></circle><path d="M440.935 12.574l3.966 82.766C399.416 41.904 331.674 8 256 8 134.813 8 33.933 94.924 12.296 209.824 10.908 217.193 16.604 224 24.103 224h49.084c5.57 0 10.377-3.842 11.676-9.259C103.407 137.408 172.931 80 256 80c60.893 0 114.512 30.856 146.104 77.801l-101.53-4.865c-6.845-.328-12.574 5.133-12.574 11.986v47.411c0 6.627 5.373 12 12 12h200.333c6.627 0 12-5.373 12-12V12c0-6.627-5.373-12-12-12h-47.411c-6.853 0-12.315 5.729-11.987 12.574zM256 432c-60.895 0-114.517-30.858-146.109-77.805l101.868 4.871c6.845.327 12.573-5.134 12.573-11.986v-47.412c0-6.627-5.373-12-12-12H12c-6.627 0-12 5.373-12 12V500c0 6.627 5.373 12 12 12h47.385c6.863 0 12.328-5.745 11.985-12.599l-4.129-82.575C112.725 470.166 180.405 504 256 504c121.187 0 222.067-86.924 243.704-201.824 1.388-7.369-4.308-14.176-11.807-14.176h-49.084c-5.57 0-10.377 3.842-11.676 9.259C408.593 374.592 339.069 432 256 432z" class="compassNav" transform="translate(631, 10) scale(0.02)" style="fill: #666666; stroke: #666666; stroke-width: 1px;"></path><circle cx="658" cy="15" r="10" class="compassNav" style="fill: #ffffff; stroke: #666666; stroke-width: 1px;"></circle><line class="compassNav" stroke-width="2" stroke="#666666" x1="654" y1="15" x2="662" y2="15"></line><line class="compassNav" stroke-width="2" stroke="#666666" x1="658" y1="11" x2="658" y2="19"></line><circle cx="614" cy="15" r="10" class="compassNav" style="fill: #ffffff; stroke: #666666; stroke-width: 1px;"></circle><line class="compassNav" stroke-width="2" stroke="#666666" x1="610" y1="15" x2="618" y2="15"></line><path d="M582 14 l20 -12 a100,40 0 0,0 0,24z" class="compassNav" style="fill: #ffffff; stroke: #666666; stroke-width: 1px;"></path><path d="M690 14 l-20 -12 a100,40 0 0,1 0,24z" class="compassNav" style="fill: #ffffff; stroke: #666666; stroke-width: 1px;"></path><path d="M216 0h80c13.3 0 24 10.7 24 24v168h87.7c17.8 0 26.7 21.5 14.1 34.1L269.7 378.3c-7.5 7.5-19.8 7.5-27.3 0L90.1 226.1c-12.6-12.6-3.7-34.1 14.1-34.1H192V24c0-13.3 10.7-24 24-24zm296 376v112c0 13.3-10.7 24-24 24H24c-13.3 0-24-10.7-24-24V376c0-13.3 10.7-24 24-24h146.7l49 49c20.1 20.1 52.5 20.1 72.6 0l49-49H488c13.3 0 24 10.7 24 24zm-124 88c0-11-9-20-20-20s-20 9-20 20 9 20 20 20 20-9 20-20zm64 0c0-11-9-20-20-20s-20 9-20 20 9 20 20 20 20-9 20-20z" class="compassNav" transform="translate(552,0) scale(0.05)" style="fill: #336699; stroke: #336699; stroke-width: 1px; cursor: pointer;"></path></g></svg>