<svg width="800" height="400" style="background-color: white;"><g transform="translate(50,0)"><svg width="700" height="360"><g style="-webkit-tap-highlight-color: rgba(0, 0, 0, 0);"><rect width="700" height="360" style="fill: #ffffff;"></rect><g id="lines"><line class="line" stroke-width="1" stroke="#d7301f" x1="-223.02839116719244" y1="333" x2="-223.02839116719244" y2="360" visibility="hidden" style="stroke-dasharray: 3px, 3px;"></line></g><g><rect x="-228.02839116719244" y="355" width="10" height="10" visibility="hidden" style="fill: #ffffff; stroke: #d7301f;"></rect></g><g id="lines"><line class="line" stroke-width="1" stroke="#6a51a3" x1="-223.02839116719244" y1="333" x2="-223.02839116719244" y2="327.27272727272725" visibility="hidden" style="stroke-dasharray: 3px, 3px;"></line></g><g><rect x="-228.02839116719244" y="322.27272727272725" width="10" height="10" visibility="hidden" style="fill: #ffffff; stroke: #6a51a3;"></rect></g><g id="lines"><line class="line" stroke-width="1" stroke="#666666" x1="143.53312302839117" y1="333" x2="143.53312302839117" y2="29.75206611570252"></line><line class="line" stroke-width="1" stroke="#666666" x1="207.57097791798105" y1="333" x2="207.57097791798105" y2="29.75206611570252"></line><line class="line" stroke-width="1" stroke="#666666" x1="324.6056782334385" y1="333" x2="324.6056782334385" y2="29.75206611570252"></line><line class="line" stroke-width="1" stroke="#666666" x1="421.7665615141956" y1="333" x2="421.7665615141956" y2="29.75206611570252"></line><line class="line" stroke-width="1" stroke="#666666" x1="578.5488958990536" y1="333" x2="578.5488958990536" y2="29.75206611570252"></line></g><g id="circles"><circle r="4" cx="143.53312302839117" cy="29.75206611570252" style="fill: #666666; stroke: #666666; stroke-width: 1px;"></circle><circle r="4" cx="207.57097791798105" cy="29.75206611570252" style="fill: #666666; stroke: #666666; stroke-width: 1px;"></circle><circle r="4" cx="324.6056782334385" cy="29.75206611570252" style="fill: #666666; stroke: #666666; stroke-width: 1px;"></circle><circle r="4" cx="421.7665615141956" cy="29.75206611570252" style="fill: #666666; stroke: #666666; stroke-width: 1px;"></circle><circle r="4" cx="578.5488958990536" cy="29.75206611570252" style="fill: #4393c3; stroke: #666666; stroke-width: 1px;"></circle></g><g><rect x="0" y="333" width="700" height="12" style="fill: #ffffff; stroke-width: 1px; stroke: #666666;"></rect><rect x="86.1198738170347" y="333" width="529.9684542586751" height="12" style="fill: #aec7e8; stroke-width: 1px; stroke: #666666;"></rect></g><g><a target="_blank" xlink:href="http://pfam.xfam.org/family/"><text y="343" x="350" text-anchor="middle" style="color: rgb(102, 102, 102); font-weight: normal; font-size: 12px; font-family: Arial; cursor: pointer;"></text></a><a target="_blank" xlink:href="http://pfam.xfam.org/family/Rib_hydrolayse"><text y="343" x="351.1041009463722" text-anchor="middle" style="color: rgb(102, 102, 102); font-weight: normal; font-size: 12px; font-family: Arial; cursor: pointer;">Rib_hydrolayse</text></a></g><g><text y="358" x="0" text-anchor="middle" visibility="hidden" style="font-size: 13px;">M</text><text y="358" x="2.2082018927444795" text-anchor="middle" visibility="hidden" style="font-size: 13px;">A</text><text y="358" x="4.416403785488959" text-anchor="middle" visibility="hidden" style="font-size: 13px;">A</text><text y="358" x="6.624605678233438" text-anchor="middle" visibility="hidden" style="font-size: 13px;">Q</text><text y="358" x="8.832807570977918" text-anchor="middle" visibility="hidden" style="font-size: 13px;">G</text><text y="358" x="11.041009463722396" text-anchor="middle" visibility="hidden" style="font-size: 13px;">C</text><text y="358" x="13.249211356466876" text-anchor="middle" visibility="hidden" style="font-size: 13px;">A</text><text y="358" x="15.457413249211358" text-anchor="middle" visibility="hidden" style="font-size: 13px;">A</text><text y="358" x="17.665615141955836" text-anchor="middle" visibility="hidden" style="font-size: 13px;">S</text><text y="358" x="19.873817034700316" text-anchor="middle" visibility="hidden" style="font-size: 13px;">R</text><text y="358" x="22.082018927444793" text-anchor="middle" visibility="hidden" style="font-size: 13px;">L</text><text y="358" x="24.290220820189273" text-anchor="middle" visibility="hidden" style="font-size: 13px;">L</text><text y="358" x="26.498422712933753" text-anchor="middle" visibility="hidden" style="font-size: 13px;">Q</text><text y="358" x="28.706624605678236" text-anchor="middle" visibility="hidden" style="font-size: 13px;">L</text><text y="358" x="30.914826498422716" text-anchor="middle" visibility="hidden" style="font-size: 13px;">L</text><text y="358" x="33.12302839116719" text-anchor="middle" visibility="hidden" style="font-size: 13px;">L</text><text y="358" x="35.33123028391167" text-anchor="middle" visibility="hidden" style="font-size: 13px;">Q</text><text y="358" x="37.53943217665615" text-anchor="middle" visibility="hidden" style="font-size: 13px;">L</text><text y="358" x="39.74763406940063" text-anchor="middle" visibility="hidden" style="font-size: 13px;">L</text><text y="358" x="41.95583596214511" text-anchor="middle" visibility="hidden" style="font-size: 13px;">L</text><text y="358" x="44.164037854889585" text-anchor="middle" visibility="hidden" style="font-size: 13px;">L</text><text y="358" x="46.372239747634076" text-anchor="middle" visibility="hidden" style="font-size: 13px;">L</text><text y="358" x="48.580441640378545" text-anchor="middle" visibility="hidden" style="font-size: 13px;">L</text><text y="358" x="50.788643533123036" text-anchor="middle" visibility="hidden" style="font-size: 13px;">L</text><text y="358" x="52.996845425867505" text-anchor="middle" visibility="hidden" style="font-size: 13px;">L</text><text y="358" x="55.20504731861198" text-anchor="middle" visibility="hidden" style="font-size: 13px;">A</text><text y="358" x="57.41324921135647" text-anchor="middle" visibility="hidden" style="font-size: 13px;">A</text><text y="358" x="59.62145110410094" text-anchor="middle" visibility="hidden" style="font-size: 13px;">G</text><text y="358" x="61.82965299684543" text-anchor="middle" visibility="hidden" style="font-size: 13px;">G</text><text y="358" x="64.03785488958991" text-anchor="middle" visibility="hidden" style="font-size: 13px;">A</text><text y="358" x="66.24605678233438" text-anchor="middle" visibility="hidden" style="font-size: 13px;">R</text><text y="358" x="68.45425867507886" text-anchor="middle" visibility="hidden" style="font-size: 13px;">A</text><text y="358" x="70.66246056782335" text-anchor="middle" visibility="hidden" style="font-size: 13px;">R</text><text y="358" x="72.87066246056783" text-anchor="middle" visibility="hidden" style="font-size: 13px;">W</text><text y="358" x="75.0788643533123" text-anchor="middle" visibility="hidden" style="font-size: 13px;">R</text><text y="358" x="77.28706624605678" text-anchor="middle" visibility="hidden" style="font-size: 13px;">G</text><text y="358" x="79.49526813880126" text-anchor="middle" visibility="hidden" style="font-size: 13px;">E</text><text y="358" x="81.70347003154573" text-anchor="middle" visibility="hidden" style="font-size: 13px;">G</text><text y="358" x="83.91167192429022" text-anchor="middle" visibility="hidden" style="font-size: 13px;">T</text><text y="358" x="86.1198738170347" text-anchor="middle" visibility="hidden" style="font-size: 13px;">S</text><text y="358" x="88.32807570977917" text-anchor="middle" visibility="hidden" style="font-size: 13px;">A</text><text y="358" x="90.53627760252365" text-anchor="middle" visibility="hidden" style="font-size: 13px;">H</text><text y="358" x="92.74447949526815" text-anchor="middle" visibility="hidden" style="font-size: 13px;">L</text><text y="358" x="94.9526813880126" text-anchor="middle" visibility="hidden" style="font-size: 13px;">R</text><text y="358" x="97.16088328075709" text-anchor="middle" visibility="hidden" style="font-size: 13px;">D</text><text y="358" x="99.36908517350159" text-anchor="middle" visibility="hidden" style="font-size: 13px;">I</text><text y="358" x="101.57728706624607" text-anchor="middle" visibility="hidden" style="font-size: 13px;">F</text><text y="358" x="103.78548895899053" text-anchor="middle" visibility="hidden" style="font-size: 13px;">L</text><text y="358" x="105.99369085173501" text-anchor="middle" visibility="hidden" style="font-size: 13px;">G</text><text y="358" x="108.20189274447951" text-anchor="middle" visibility="hidden" style="font-size: 13px;">R</text><text y="358" x="110.41009463722396" text-anchor="middle" visibility="hidden" style="font-size: 13px;">C</text><text y="358" x="112.61829652996845" text-anchor="middle" visibility="hidden" style="font-size: 13px;">A</text><text y="358" x="114.82649842271294" text-anchor="middle" visibility="hidden" style="font-size: 13px;">E</text><text y="358" x="117.0347003154574" text-anchor="middle" visibility="hidden" style="font-size: 13px;">Y</text><text y="358" x="119.24290220820188" text-anchor="middle" visibility="hidden" style="font-size: 13px;">R</text><text y="358" x="121.45110410094638" text-anchor="middle" visibility="hidden" style="font-size: 13px;">A</text><text y="358" x="123.65930599369086" text-anchor="middle" visibility="hidden" style="font-size: 13px;">L</text><text y="358" x="125.86750788643532" text-anchor="middle" visibility="hidden" style="font-size: 13px;">L</text><text y="358" x="128.07570977917982" text-anchor="middle" visibility="hidden" style="font-size: 13px;">S</text><text y="358" x="130.2839116719243" text-anchor="middle" visibility="hidden" style="font-size: 13px;">P</text><text y="358" x="132.49211356466876" text-anchor="middle" visibility="hidden" style="font-size: 13px;">E</text><text y="358" x="134.70031545741324" text-anchor="middle" visibility="hidden" style="font-size: 13px;">Q</text><text y="358" x="136.90851735015772" text-anchor="middle" visibility="hidden" style="font-size: 13px;">R</text><text y="358" x="139.1167192429022" text-anchor="middle" visibility="hidden" style="font-size: 13px;">N</text><text y="358" x="141.3249211356467" text-anchor="middle" visibility="hidden" style="font-size: 13px;">K</text><text y="358" x="143.53312302839117" text-anchor="middle" visibility="hidden" style="font-size: 13px;">N</text><text y="358" x="145.74132492113566" text-anchor="middle" visibility="hidden" style="font-size: 13px;">C</text><text y="358" x="147.9495268138801" text-anchor="middle" visibility="hidden" style="font-size: 13px;">T</text><text y="358" x="150.1577287066246" text-anchor="middle" visibility="hidden" style="font-size: 13px;">A</text><text y="358" x="152.36593059936908" text-anchor="middle" visibility="hidden" style="font-size: 13px;">I</text><text y="358" x="154.57413249211356" text-anchor="middle" visibility="hidden" style="font-size: 13px;">W</text><text y="358" x="156.78233438485805" text-anchor="middle" visibility="hidden" style="font-size: 13px;">E</text><text y="358" x="158.99053627760253" text-anchor="middle" visibility="hidden" style="font-size: 13px;">A</text><text y="358" x="161.198738170347" text-anchor="middle" visibility="hidden" style="font-size: 13px;">F</text><text y="358" x="163.40694006309147" text-anchor="middle" visibility="hidden" style="font-size: 13px;">K</text><text y="358" x="165.61514195583595" text-anchor="middle" visibility="hidden" style="font-size: 13px;">V</text><text y="358" x="167.82334384858044" text-anchor="middle" visibility="hidden" style="font-size: 13px;">A</text><text y="358" x="170.03154574132492" text-anchor="middle" visibility="hidden" style="font-size: 13px;">L</text><text y="358" x="172.2397476340694" text-anchor="middle" visibility="hidden" style="font-size: 13px;">D</text><text y="358" x="174.4479495268139" text-anchor="middle" visibility="hidden" style="font-size: 13px;">K</text><text y="358" x="176.65615141955834" text-anchor="middle" visibility="hidden" style="font-size: 13px;">D</text><text y="358" x="178.86435331230285" text-anchor="middle" visibility="hidden" style="font-size: 13px;">P</text><text y="358" x="181.0725552050473" text-anchor="middle" visibility="hidden" style="font-size: 13px;">C</text><text y="358" x="183.2807570977918" text-anchor="middle" visibility="hidden" style="font-size: 13px;">S</text><text y="358" x="185.4889589905363" text-anchor="middle" visibility="hidden" style="font-size: 13px;">V</text><text y="358" x="187.69716088328076" text-anchor="middle" visibility="hidden" style="font-size: 13px;">L</text><text y="358" x="189.9053627760252" text-anchor="middle" visibility="hidden" style="font-size: 13px;">P</text><text y="358" x="192.11356466876973" text-anchor="middle" visibility="hidden" style="font-size: 13px;">S</text><text y="358" x="194.32176656151418" text-anchor="middle" visibility="hidden" style="font-size: 13px;">D</text><text y="358" x="196.52996845425866" text-anchor="middle" visibility="hidden" style="font-size: 13px;">Y</text><text y="358" x="198.73817034700318" text-anchor="middle" visibility="hidden" style="font-size: 13px;">D</text><text y="358" x="200.94637223974763" text-anchor="middle" visibility="hidden" style="font-size: 13px;">L</text><text y="358" x="203.15457413249214" text-anchor="middle" visibility="hidden" style="font-size: 13px;">F</text><text y="358" x="205.3627760252366" text-anchor="middle" visibility="hidden" style="font-size: 13px;">I</text><text y="358" x="207.57097791798105" text-anchor="middle" visibility="hidden" style="font-size: 13px;">N</text><text y="358" x="209.77917981072557" text-anchor="middle" visibility="hidden" style="font-size: 13px;">L</text><text y="358" x="211.98738170347002" text-anchor="middle" visibility="hidden" style="font-size: 13px;">S</text><text y="358" x="214.1955835962145" text-anchor="middle" visibility="hidden" style="font-size: 13px;">R</text><text y="358" x="216.40378548895902" text-anchor="middle" visibility="hidden" style="font-size: 13px;">H</text><text y="358" x="218.61198738170347" text-anchor="middle" visibility="hidden" style="font-size: 13px;">S</text><text y="358" x="220.82018927444793" text-anchor="middle" visibility="hidden" style="font-size: 13px;">I</text><text y="358" x="223.02839116719244" text-anchor="middle" visibility="hidden" style="font-size: 13px;">P</text><text y="358" x="225.2365930599369" text-anchor="middle" visibility="hidden" style="font-size: 13px;">R</text><text y="358" x="227.44479495268138" text-anchor="middle" visibility="hidden" style="font-size: 13px;">D</text><text y="358" x="229.6529968454259" text-anchor="middle" visibility="hidden" style="font-size: 13px;">K</text><text y="358" x="231.86119873817034" text-anchor="middle" visibility="hidden" style="font-size: 13px;">S</text><text y="358" x="234.0694006309148" text-anchor="middle" visibility="hidden" style="font-size: 13px;">L</text><text y="358" x="236.2776025236593" text-anchor="middle" visibility="hidden" style="font-size: 13px;">F</text><text y="358" x="238.48580441640377" text-anchor="middle" visibility="hidden" style="font-size: 13px;">W</text><text y="358" x="240.69400630914828" text-anchor="middle" visibility="hidden" style="font-size: 13px;">E</text><text y="358" x="242.90220820189276" text-anchor="middle" visibility="hidden" style="font-size: 13px;">N</text><text y="358" x="245.11041009463722" text-anchor="middle" visibility="hidden" style="font-size: 13px;">S</text><text y="358" x="247.31861198738173" text-anchor="middle" visibility="hidden" style="font-size: 13px;">H</text><text y="358" x="249.52681388012618" text-anchor="middle" visibility="hidden" style="font-size: 13px;">L</text><text y="358" x="251.73501577287064" text-anchor="middle" visibility="hidden" style="font-size: 13px;">L</text><text y="358" x="253.94321766561515" text-anchor="middle" visibility="hidden" style="font-size: 13px;">V</text><text y="358" x="256.15141955835963" text-anchor="middle" visibility="hidden" style="font-size: 13px;">N</text><text y="358" x="258.3596214511041" text-anchor="middle" visibility="hidden" style="font-size: 13px;">S</text><text y="358" x="260.5678233438486" text-anchor="middle" visibility="hidden" style="font-size: 13px;">F</text><text y="358" x="262.77602523659306" text-anchor="middle" visibility="hidden" style="font-size: 13px;">A</text><text y="358" x="264.9842271293375" text-anchor="middle" visibility="hidden" style="font-size: 13px;">D</text><text y="358" x="267.192429022082" text-anchor="middle" visibility="hidden" style="font-size: 13px;">N</text><text y="358" x="269.4006309148265" text-anchor="middle" visibility="hidden" style="font-size: 13px;">T</text><text y="358" x="271.60883280757093" text-anchor="middle" visibility="hidden" style="font-size: 13px;">R</text><text y="358" x="273.81703470031545" text-anchor="middle" visibility="hidden" style="font-size: 13px;">R</text><text y="358" x="276.02523659305996" text-anchor="middle" visibility="hidden" style="font-size: 13px;">F</text><text y="358" x="278.2334384858044" text-anchor="middle" visibility="hidden" style="font-size: 13px;">M</text><text y="358" x="280.4416403785489" text-anchor="middle" visibility="hidden" style="font-size: 13px;">P</text><text y="358" x="282.6498422712934" text-anchor="middle" visibility="hidden" style="font-size: 13px;">L</text><text y="358" x="284.8580441640379" text-anchor="middle" visibility="hidden" style="font-size: 13px;">S</text><text y="358" x="287.06624605678235" text-anchor="middle" visibility="hidden" style="font-size: 13px;">D</text><text y="358" x="289.2744479495268" text-anchor="middle" visibility="hidden" style="font-size: 13px;">V</text><text y="358" x="291.4826498422713" text-anchor="middle" visibility="hidden" style="font-size: 13px;">L</text><text y="358" x="293.69085173501577" text-anchor="middle" visibility="hidden" style="font-size: 13px;">Y</text><text y="358" x="295.8990536277602" text-anchor="middle" visibility="hidden" style="font-size: 13px;">G</text><text y="358" x="298.10725552050474" text-anchor="middle" visibility="hidden" style="font-size: 13px;">R</text><text y="358" x="300.3154574132492" text-anchor="middle" visibility="hidden" style="font-size: 13px;">V</text><text y="358" x="302.52365930599365" text-anchor="middle" visibility="hidden" style="font-size: 13px;">A</text><text y="358" x="304.73186119873816" text-anchor="middle" visibility="hidden" style="font-size: 13px;">D</text><text y="358" x="306.94006309148267" text-anchor="middle" visibility="hidden" style="font-size: 13px;">F</text><text y="358" x="309.1482649842271" text-anchor="middle" visibility="hidden" style="font-size: 13px;">L</text><text y="358" x="311.35646687697164" text-anchor="middle" visibility="hidden" style="font-size: 13px;">S</text><text y="358" x="313.5646687697161" text-anchor="middle" visibility="hidden" style="font-size: 13px;">W</text><text y="358" x="315.7728706624606" text-anchor="middle" visibility="hidden" style="font-size: 13px;">C</text><text y="358" x="317.98107255520506" text-anchor="middle" visibility="hidden" style="font-size: 13px;">R</text><text y="358" x="320.1892744479495" text-anchor="middle" visibility="hidden" style="font-size: 13px;">Q</text><text y="358" x="322.397476340694" text-anchor="middle" visibility="hidden" style="font-size: 13px;">K</text><text y="358" x="324.6056782334385" text-anchor="middle" visibility="hidden" style="font-size: 13px;">N</text><text y="358" x="326.81388012618294" text-anchor="middle" visibility="hidden" style="font-size: 13px;">D</text><text y="358" x="329.02208201892745" text-anchor="middle" visibility="hidden" style="font-size: 13px;">S</text><text y="358" x="331.2302839116719" text-anchor="middle" visibility="hidden" style="font-size: 13px;">G</text><text y="358" x="333.4384858044164" text-anchor="middle" visibility="hidden" style="font-size: 13px;">L</text><text y="358" x="335.64668769716087" text-anchor="middle" visibility="hidden" style="font-size: 13px;">D</text><text y="358" x="337.8548895899054" text-anchor="middle" visibility="hidden" style="font-size: 13px;">Y</text><text y="358" x="340.06309148264984" text-anchor="middle" visibility="hidden" style="font-size: 13px;">Q</text><text y="358" x="342.27129337539435" text-anchor="middle" visibility="hidden" style="font-size: 13px;">S</text><text y="358" x="344.4794952681388" text-anchor="middle" visibility="hidden" style="font-size: 13px;">C</text><text y="358" x="346.68769716088326" text-anchor="middle" visibility="hidden" style="font-size: 13px;">P</text><text y="358" x="348.8958990536278" text-anchor="middle" visibility="hidden" style="font-size: 13px;">T</text><text y="358" x="351.1041009463722" text-anchor="middle" visibility="hidden" style="font-size: 13px;">S</text><text y="358" x="353.3123028391167" text-anchor="middle" visibility="hidden" style="font-size: 13px;">E</text><text y="358" x="355.52050473186114" text-anchor="middle" visibility="hidden" style="font-size: 13px;">D</text><text y="358" x="357.7287066246057" text-anchor="middle" visibility="hidden" style="font-size: 13px;">C</text><text y="358" x="359.93690851735016" text-anchor="middle" visibility="hidden" style="font-size: 13px;">E</text><text y="358" x="362.1451104100946" text-anchor="middle" visibility="hidden" style="font-size: 13px;">N</text><text y="358" x="364.35331230283913" text-anchor="middle" visibility="hidden" style="font-size: 13px;">N</text><text y="358" x="366.5615141955836" text-anchor="middle" visibility="hidden" style="font-size: 13px;">P</text><text y="358" x="368.7697160883281" text-anchor="middle" visibility="hidden" style="font-size: 13px;">V</text><text y="358" x="370.9779179810726" text-anchor="middle" visibility="hidden" style="font-size: 13px;">D</text><text y="358" x="373.18611987381706" text-anchor="middle" visibility="hidden" style="font-size: 13px;">S</text><text y="358" x="375.3943217665615" text-anchor="middle" visibility="hidden" style="font-size: 13px;">F</text><text y="358" x="377.602523659306" text-anchor="middle" visibility="hidden" style="font-size: 13px;">W</text><text y="358" x="379.8107255520504" text-anchor="middle" visibility="hidden" style="font-size: 13px;">K</text><text y="358" x="382.018927444795" text-anchor="middle" visibility="hidden" style="font-size: 13px;">R</text><text y="358" x="384.22712933753945" text-anchor="middle" visibility="hidden" style="font-size: 13px;">A</text><text y="358" x="386.4353312302839" text-anchor="middle" visibility="hidden" style="font-size: 13px;">S</text><text y="358" x="388.64353312302836" text-anchor="middle" visibility="hidden" style="font-size: 13px;">I</text><text y="358" x="390.8517350157729" text-anchor="middle" visibility="hidden" style="font-size: 13px;">Q</text><text y="358" x="393.05993690851733" text-anchor="middle" visibility="hidden" style="font-size: 13px;">Y</text><text y="358" x="395.26813880126184" text-anchor="middle" visibility="hidden" style="font-size: 13px;">S</text><text y="358" x="397.47634069400635" text-anchor="middle" visibility="hidden" style="font-size: 13px;">K</text><text y="358" x="399.6845425867508" text-anchor="middle" visibility="hidden" style="font-size: 13px;">D</text><text y="358" x="401.89274447949526" text-anchor="middle" visibility="hidden" style="font-size: 13px;">S</text><text y="358" x="404.1009463722397" text-anchor="middle" visibility="hidden" style="font-size: 13px;">S</text><text y="358" x="406.3091482649843" text-anchor="middle" visibility="hidden" style="font-size: 13px;">G</text><text y="358" x="408.51735015772874" text-anchor="middle" visibility="hidden" style="font-size: 13px;">V</text><text y="358" x="410.7255520504732" text-anchor="middle" visibility="hidden" style="font-size: 13px;">I</text><text y="358" x="412.93375394321765" text-anchor="middle" visibility="hidden" style="font-size: 13px;">H</text><text y="358" x="415.1419558359621" text-anchor="middle" visibility="hidden" style="font-size: 13px;">V</text><text y="358" x="417.3501577287066" text-anchor="middle" visibility="hidden" style="font-size: 13px;">M</text><text y="358" x="419.55835962145113" text-anchor="middle" visibility="hidden" style="font-size: 13px;">L</text><text y="358" x="421.7665615141956" text-anchor="middle" visibility="hidden" style="font-size: 13px;">N</text><text y="358" x="423.97476340694004" text-anchor="middle" visibility="hidden" style="font-size: 13px;">G</text><text y="358" x="426.18296529968455" text-anchor="middle" visibility="hidden" style="font-size: 13px;">S</text><text y="358" x="428.391167192429" text-anchor="middle" visibility="hidden" style="font-size: 13px;">E</text><text y="358" x="430.59936908517346" text-anchor="middle" visibility="hidden" style="font-size: 13px;">P</text><text y="358" x="432.80757097791803" text-anchor="middle" visibility="hidden" style="font-size: 13px;">T</text><text y="358" x="435.0157728706625" text-anchor="middle" visibility="hidden" style="font-size: 13px;">G</text><text y="358" x="437.22397476340694" text-anchor="middle" visibility="hidden" style="font-size: 13px;">A</text><text y="358" x="439.4321766561514" text-anchor="middle" visibility="hidden" style="font-size: 13px;">Y</text><text y="358" x="441.64037854889585" text-anchor="middle" visibility="hidden" style="font-size: 13px;">P</text><text y="358" x="443.8485804416404" text-anchor="middle" visibility="hidden" style="font-size: 13px;">I</text><text y="358" x="446.0567823343849" text-anchor="middle" visibility="hidden" style="font-size: 13px;">K</text><text y="358" x="448.26498422712933" text-anchor="middle" visibility="hidden" style="font-size: 13px;">G</text><text y="358" x="450.4731861198738" text-anchor="middle" visibility="hidden" style="font-size: 13px;">F</text><text y="358" x="452.6813880126183" text-anchor="middle" visibility="hidden" style="font-size: 13px;">F</text><text y="358" x="454.88958990536275" text-anchor="middle" visibility="hidden" style="font-size: 13px;">A</text><text y="358" x="457.09779179810727" text-anchor="middle" visibility="hidden" style="font-size: 13px;">D</text><text y="358" x="459.3059936908518" text-anchor="middle" visibility="hidden" style="font-size: 13px;">Y</text><text y="358" x="461.51419558359623" text-anchor="middle" visibility="hidden" style="font-size: 13px;">E</text><text y="358" x="463.7223974763407" text-anchor="middle" visibility="hidden" style="font-size: 13px;">I</text><text y="358" x="465.93059936908514" text-anchor="middle" visibility="hidden" style="font-size: 13px;">P</text><text y="358" x="468.1388012618296" text-anchor="middle" visibility="hidden" style="font-size: 13px;">N</text><text y="358" x="470.34700315457417" text-anchor="middle" visibility="hidden" style="font-size: 13px;">L</text><text y="358" x="472.5552050473186" text-anchor="middle" visibility="hidden" style="font-size: 13px;">Q</text><text y="358" x="474.7634069400631" text-anchor="middle" visibility="hidden" style="font-size: 13px;">K</text><text y="358" x="476.97160883280753" text-anchor="middle" visibility="hidden" style="font-size: 13px;">E</text><text y="358" x="479.17981072555204" text-anchor="middle" visibility="hidden" style="font-size: 13px;">K</text><text y="358" x="481.38801261829656" text-anchor="middle" visibility="hidden" style="font-size: 13px;">I</text><text y="358" x="483.596214511041" text-anchor="middle" visibility="hidden" style="font-size: 13px;">T</text><text y="358" x="485.8044164037855" text-anchor="middle" visibility="hidden" style="font-size: 13px;">R</text><text y="358" x="488.01261829653" text-anchor="middle" visibility="hidden" style="font-size: 13px;">I</text><text y="358" x="490.22082018927443" text-anchor="middle" visibility="hidden" style="font-size: 13px;">E</text><text y="358" x="492.4290220820189" text-anchor="middle" visibility="hidden" style="font-size: 13px;">I</text><text y="358" x="494.63722397476346" text-anchor="middle" visibility="hidden" style="font-size: 13px;">W</text><text y="358" x="496.8454258675079" text-anchor="middle" visibility="hidden" style="font-size: 13px;">V</text><text y="358" x="499.05362776025237" text-anchor="middle" visibility="hidden" style="font-size: 13px;">M</text><text y="358" x="501.2618296529968" text-anchor="middle" visibility="hidden" style="font-size: 13px;">H</text><text y="358" x="503.4700315457413" text-anchor="middle" visibility="hidden" style="font-size: 13px;">E</text><text y="358" x="505.6782334384858" text-anchor="middle" visibility="hidden" style="font-size: 13px;">I</text><text y="358" x="507.8864353312303" text-anchor="middle" visibility="hidden" style="font-size: 13px;">G</text><text y="358" x="510.09463722397476" text-anchor="middle" visibility="hidden" style="font-size: 13px;">G</text><text y="358" x="512.3028391167193" text-anchor="middle" visibility="hidden" style="font-size: 13px;">P</text><text y="358" x="514.5110410094637" text-anchor="middle" visibility="hidden" style="font-size: 13px;">N</text><text y="358" x="516.7192429022082" text-anchor="middle" visibility="hidden" style="font-size: 13px;">V</text><text y="358" x="518.9274447949527" text-anchor="middle" visibility="hidden" style="font-size: 13px;">E</text><text y="358" x="521.1356466876972" text-anchor="middle" visibility="hidden" style="font-size: 13px;">S</text><text y="358" x="523.3438485804417" text-anchor="middle" visibility="hidden" style="font-size: 13px;">C</text><text y="358" x="525.5520504731861" text-anchor="middle" visibility="hidden" style="font-size: 13px;">G</text><text y="358" x="527.7602523659306" text-anchor="middle" visibility="hidden" style="font-size: 13px;">E</text><text y="358" x="529.968454258675" text-anchor="middle" visibility="hidden" style="font-size: 13px;">G</text><text y="358" x="532.1766561514196" text-anchor="middle" visibility="hidden" style="font-size: 13px;">S</text><text y="358" x="534.384858044164" text-anchor="middle" visibility="hidden" style="font-size: 13px;">M</text><text y="358" x="536.5930599369085" text-anchor="middle" visibility="hidden" style="font-size: 13px;">K</text><text y="358" x="538.801261829653" text-anchor="middle" visibility="hidden" style="font-size: 13px;">V</text><text y="358" x="541.0094637223974" text-anchor="middle" visibility="hidden" style="font-size: 13px;">L</text><text y="358" x="543.2176656151419" text-anchor="middle" visibility="hidden" style="font-size: 13px;">E</text><text y="358" x="545.4258675078864" text-anchor="middle" visibility="hidden" style="font-size: 13px;">K</text><text y="358" x="547.6340694006309" text-anchor="middle" visibility="hidden" style="font-size: 13px;">R</text><text y="358" x="549.8422712933753" text-anchor="middle" visibility="hidden" style="font-size: 13px;">L</text><text y="358" x="552.0504731861199" text-anchor="middle" visibility="hidden" style="font-size: 13px;">K</text><text y="358" x="554.2586750788644" text-anchor="middle" visibility="hidden" style="font-size: 13px;">D</text><text y="358" x="556.4668769716088" text-anchor="middle" visibility="hidden" style="font-size: 13px;">M</text><text y="358" x="558.6750788643533" text-anchor="middle" visibility="hidden" style="font-size: 13px;">G</text><text y="358" x="560.8832807570979" text-anchor="middle" visibility="hidden" style="font-size: 13px;">F</text><text y="358" x="563.0914826498423" text-anchor="middle" visibility="hidden" style="font-size: 13px;">Q</text><text y="358" x="565.2996845425868" text-anchor="middle" visibility="hidden" style="font-size: 13px;">Y</text><text y="358" x="567.5078864353312" text-anchor="middle" visibility="hidden" style="font-size: 13px;">S</text><text y="358" x="569.7160883280758" text-anchor="middle" visibility="hidden" style="font-size: 13px;">C</text><text y="358" x="571.9242902208202" text-anchor="middle" visibility="hidden" style="font-size: 13px;">I</text><text y="358" x="574.1324921135647" text-anchor="middle" visibility="hidden" style="font-size: 13px;">N</text><text y="358" x="576.3406940063091" text-anchor="middle" visibility="hidden" style="font-size: 13px;">D</text><text y="358" x="578.5488958990536" text-anchor="middle" visibility="hidden" style="font-size: 13px;">Y</text><text y="358" x="580.7570977917981" text-anchor="middle" visibility="hidden" style="font-size: 13px;">R</text><text y="358" x="582.9652996845426" text-anchor="middle" visibility="hidden" style="font-size: 13px;">P</text><text y="358" x="585.1735015772871" text-anchor="middle" visibility="hidden" style="font-size: 13px;">V</text><text y="358" x="587.3817034700315" text-anchor="middle" visibility="hidden" style="font-size: 13px;">K</text><text y="358" x="589.589905362776" text-anchor="middle" visibility="hidden" style="font-size: 13px;">L</text><text y="358" x="591.7981072555204" text-anchor="middle" visibility="hidden" style="font-size: 13px;">L</text><text y="358" x="594.006309148265" text-anchor="middle" visibility="hidden" style="font-size: 13px;">Q</text><text y="358" x="596.2145110410095" text-anchor="middle" visibility="hidden" style="font-size: 13px;">C</text><text y="358" x="598.4227129337539" text-anchor="middle" visibility="hidden" style="font-size: 13px;">V</text><text y="358" x="600.6309148264984" text-anchor="middle" visibility="hidden" style="font-size: 13px;">D</text><text y="358" x="602.8391167192428" text-anchor="middle" visibility="hidden" style="font-size: 13px;">H</text><text y="358" x="605.0473186119873" text-anchor="middle" visibility="hidden" style="font-size: 13px;">S</text><text y="358" x="607.2555205047319" text-anchor="middle" visibility="hidden" style="font-size: 13px;">T</text><text y="358" x="609.4637223974763" text-anchor="middle" visibility="hidden" style="font-size: 13px;">H</text><text y="358" x="611.6719242902208" text-anchor="middle" visibility="hidden" style="font-size: 13px;">P</text><text y="358" x="613.8801261829653" text-anchor="middle" visibility="hidden" style="font-size: 13px;">D</text><text y="358" x="616.0883280757098" text-anchor="middle" visibility="hidden" style="font-size: 13px;">C</text><text y="358" x="618.2965299684543" text-anchor="middle" visibility="hidden" style="font-size: 13px;">A</text><text y="358" x="620.5047318611988" text-anchor="middle" visibility="hidden" style="font-size: 13px;">L</text><text y="358" x="622.7129337539433" text-anchor="middle" visibility="hidden" style="font-size: 13px;">K</text><text y="358" x="624.9211356466877" text-anchor="middle" visibility="hidden" style="font-size: 13px;">S</text><text y="358" x="627.1293375394322" text-anchor="middle" visibility="hidden" style="font-size: 13px;">A</text><text y="358" x="629.3375394321766" text-anchor="middle" visibility="hidden" style="font-size: 13px;">A</text><text y="358" x="631.5457413249212" text-anchor="middle" visibility="hidden" style="font-size: 13px;">A</text><text y="358" x="633.7539432176657" text-anchor="middle" visibility="hidden" style="font-size: 13px;">A</text><text y="358" x="635.9621451104101" text-anchor="middle" visibility="hidden" style="font-size: 13px;">T</text><text y="358" x="638.1703470031546" text-anchor="middle" visibility="hidden" style="font-size: 13px;">Q</text><text y="358" x="640.378548895899" text-anchor="middle" visibility="hidden" style="font-size: 13px;">R</text><text y="358" x="642.5867507886435" text-anchor="middle" visibility="hidden" style="font-size: 13px;">K</text><text y="358" x="644.794952681388" text-anchor="middle" visibility="hidden" style="font-size: 13px;">A</text><text y="358" x="647.0031545741325" text-anchor="middle" visibility="hidden" style="font-size: 13px;">P</text><text y="358" x="649.211356466877" text-anchor="middle" visibility="hidden" style="font-size: 13px;">S</text><text y="358" x="651.4195583596214" text-anchor="middle" visibility="hidden" style="font-size: 13px;">L</text><text y="358" x="653.6277602523659" text-anchor="middle" visibility="hidden" style="font-size: 13px;">Y</text><text y="358" x="655.8359621451103" text-anchor="middle" visibility="hidden" style="font-size: 13px;">T</text><text y="358" x="658.0441640378549" text-anchor="middle" visibility="hidden" style="font-size: 13px;">E</text><text y="358" x="660.2523659305994" text-anchor="middle" visibility="hidden" style="font-size: 13px;">Q</text><text y="358" x="662.4605678233438" text-anchor="middle" visibility="hidden" style="font-size: 13px;">R</text><text y="358" x="664.6687697160883" text-anchor="middle" visibility="hidden" style="font-size: 13px;">A</text><text y="358" x="666.8769716088328" text-anchor="middle" visibility="hidden" style="font-size: 13px;">G</text><text y="358" x="669.0851735015773" text-anchor="middle" visibility="hidden" style="font-size: 13px;">L</text><text y="358" x="671.2933753943217" text-anchor="middle" visibility="hidden" style="font-size: 13px;">I</text><text y="358" x="673.5015772870663" text-anchor="middle" visibility="hidden" style="font-size: 13px;">I</text><text y="358" x="675.7097791798108" text-anchor="middle" visibility="hidden" style="font-size: 13px;">P</text><text y="358" x="677.9179810725552" text-anchor="middle" visibility="hidden" style="font-size: 13px;">L</text><text y="358" x="680.1261829652997" text-anchor="middle" visibility="hidden" style="font-size: 13px;">F</text><text y="358" x="682.3343848580442" text-anchor="middle" visibility="hidden" style="font-size: 13px;">L</text><text y="358" x="684.5425867507887" text-anchor="middle" visibility="hidden" style="font-size: 13px;">V</text><text y="358" x="686.7507886435332" text-anchor="middle" visibility="hidden" style="font-size: 13px;">L</text><text y="358" x="688.9589905362776" text-anchor="middle" visibility="hidden" style="font-size: 13px;">A</text><text y="358" x="691.1671924290221" text-anchor="middle" visibility="hidden" style="font-size: 13px;">S</text><text y="358" x="693.3753943217665" text-anchor="middle" visibility="hidden" style="font-size: 13px;">R</text><text y="358" x="695.5835962145111" text-anchor="middle" visibility="hidden" style="font-size: 13px;">T</text><text y="358" x="697.7917981072555" text-anchor="middle" visibility="hidden" style="font-size: 13px;">Q</text><text y="358" x="700" text-anchor="middle" visibility="hidden" style="font-size: 13px;">L</text></g></g></svg><g class="xAxis" transform="translate(0,360)" fill="none" font-size="10" font-family="sans-serif" text-anchor="middle"><path class="domain" stroke="#000" d="M0.5,6V0.5H700.5V6"></path><g class="tick" opacity="1" transform="translate(108.70189274447951,0)"><line stroke="#000" y2="6"></line><text fill="#000" y="9" dy="0.71em">50</text></g><g class="tick" opacity="1" transform="translate(219.11198738170347,0)"><line stroke="#000" y2="6"></line><text fill="#000" y="9" dy="0.71em">100</text></g><g class="tick" opacity="1" transform="translate(329.52208201892745,0)"><line stroke="#000" y2="6"></line><text fill="#000" y="9" dy="0.71em">150</text></g><g class="tick" opacity="1" transform="translate(439.9321766561514,0)"><line stroke="#000" y2="6"></line><text fill="#000" y="9" dy="0.71em">200</text></g><g class="tick" opacity="1" transform="translate(550.3422712933753,0)"><line stroke="#000" y2="6"></line><text fill="#000" y="9" dy="0.71em">250</text></g><g class="tick" opacity="1" transform="translate(660.7523659305994,0)"><line stroke="#000" y2="6"></line><text fill="#000" y="9" dy="0.71em">300</text></g></g><text class="x label" text-anchor="end" x="700" y="390" style="font-size: 13px; font-family: Arial;">Residue number</text><g class="yAxis" fill="none" font-size="10" font-family="sans-serif" text-anchor="end"><path class="domain" stroke="#000" d="M-6,360.5H0.5V0.5H-6"></path><g class="tick" opacity="1" transform="translate(0,357.52479338842977)"><line stroke="#000" x2="-6"></line><text fill="#000" x="-9" dy="0.32em"></text></g><g class="tick" opacity="1" transform="translate(0,327.77272727272725)"><line stroke="#000" x2="-6"></line><text fill="#000" x="-9" dy="0.32em">0</text></g><g class="tick" opacity="1" transform="translate(0,298.0206611570248)"><line stroke="#000" x2="-6"></line><text fill="#000" x="-9" dy="0.32em">0.1</text></g><g class="tick" opacity="1" transform="translate(0,268.2685950413223)"><line stroke="#000" x2="-6"></line><text fill="#000" x="-9" dy="0.32em">0.2</text></g><g class="tick" opacity="1" transform="translate(0,238.51652892561984)"><line stroke="#000" x2="-6"></line><text fill="#000" x="-9" dy="0.32em">0.3</text></g><g class="tick" opacity="1" transform="translate(0,208.76446280991738)"><line stroke="#000" x2="-6"></line><text fill="#000" x="-9" dy="0.32em">0.4</text></g><g class="tick" opacity="1" transform="translate(0,179.0123966942149)"><line stroke="#000" x2="-6"></line><text fill="#000" x="-9" dy="0.32em">0.5</text></g><g class="tick" opacity="1" transform="translate(0,149.26033057851242)"><line stroke="#000" x2="-6"></line><text fill="#000" x="-9" dy="0.32em">0.6</text></g><g class="tick" opacity="1" transform="translate(0,119.50826446280996)"><line stroke="#000" x2="-6"></line><text fill="#000" x="-9" dy="0.32em">0.7</text></g><g class="tick" opacity="1" transform="translate(0,89.75619834710744)"><line stroke="#000" x2="-6"></line><text fill="#000" x="-9" dy="0.32em">0.8</text></g><g class="tick" opacity="1" transform="translate(0,60.00413223140498)"><line stroke="#000" x2="-6"></line><text fill="#000" x="-9" dy="0.32em">0.9</text></g><g class="tick" opacity="1" transform="translate(0,30.25206611570252)"><line stroke="#000" x2="-6"></line><text fill="#000" x="-9" dy="0.32em">1</text></g><g class="tick" opacity="1" transform="translate(0,0.5)"><line stroke="#000" x2="-6"></line><text fill="#000" x="-9" dy="0.32em">1.1</text></g></g><text class="y label" text-anchor="middle" y="-50" x="-180" dy="0.8em" transform="rotate(-90)" style="font-size: 13px; font-family: Arial;">Total number of references</text><g class="axisRed" fill="none" font-size="10" font-family="sans-serif" text-anchor="start" visibility="hidden" transform="translate(700, 0)"><path class="domain" stroke="#000" d="M6,360.5H0.5V0.5H6"></path><g class="tick" opacity="1" transform="translate(0,360.5)"><line stroke="#000" x2="6"></line><text fill="#000" x="9" dy="0.32em">0</text></g><text text-anchor="start" dx="5.2em" dy="-2.6em" transform="rotate(90)" visibility="hidden" style="font-size: 12px; font-family: Arial; fill: #d7301f;">No recurrent (&gt;2) missense mutations!</text></g><g class="axisPurple" fill="none" font-size="10" font-family="sans-serif" text-anchor="start" visibility="hidden"><path class="domain" stroke="#000" d="M6,360.5H0.5V0.5H6"></path><g class="tick" opacity="1" transform="translate(0,357.52479338842977)"><line stroke="#000" x2="6"></line><text fill="#000" x="9" dy="0.32em"></text></g><g class="tick" opacity="1" transform="translate(0,327.77272727272725)"><line stroke="#000" x2="6"></line><text fill="#000" x="9" dy="0.32em">0</text></g><g class="tick" opacity="1" transform="translate(0,298.0206611570248)"><line stroke="#000" x2="6"></line><text fill="#000" x="9" dy="0.32em">0.1</text></g><g class="tick" opacity="1" transform="translate(0,268.2685950413223)"><line stroke="#000" x2="6"></line><text fill="#000" x="9" dy="0.32em">0.2</text></g><g class="tick" opacity="1" transform="translate(0,238.51652892561984)"><line stroke="#000" x2="6"></line><text fill="#000" x="9" dy="0.32em">0.3</text></g><g class="tick" opacity="1" transform="translate(0,208.76446280991738)"><line stroke="#000" x2="6"></line><text fill="#000" x="9" dy="0.32em">0.4</text></g><g class="tick" opacity="1" transform="translate(0,179.0123966942149)"><line stroke="#000" x2="6"></line><text fill="#000" x="9" dy="0.32em">0.5</text></g><g class="tick" opacity="1" transform="translate(0,149.26033057851242)"><line stroke="#000" x2="6"></line><text fill="#000" x="9" dy="0.32em">0.6</text></g><g class="tick" opacity="1" transform="translate(0,119.50826446280996)"><line stroke="#000" x2="6"></line><text fill="#000" x="9" dy="0.32em">0.7</text></g><g class="tick" opacity="1" transform="translate(0,89.75619834710744)"><line stroke="#000" x2="6"></line><text fill="#000" x="9" dy="0.32em">0.8</text></g><g class="tick" opacity="1" transform="translate(0,60.00413223140498)"><line stroke="#000" x2="6"></line><text fill="#000" x="9" dy="0.32em">0.9</text></g><g class="tick" opacity="1" transform="translate(0,30.25206611570252)"><line stroke="#000" x2="6"></line><text fill="#000" x="9" dy="0.32em">1</text></g><g class="tick" opacity="1" transform="translate(0,0.5)"><line stroke="#000" x2="6"></line><text fill="#000" x="9" dy="0.32em">1.1</text></g><text text-anchor="start" x="10" y="10" visibility="hidden" style="font-size: 12px; font-family: Arial; fill: #807dba;">No disease causing germline SNPs known!</text></g><circle cx="636" cy="15" r="10" class="compassNav" style="fill: #ffffff; stroke: #666666; stroke-width: 1px;"></circle><path d="M440.935 12.574l3.966 82.766C399.416 41.904 331.674 8 256 8 134.813 8 33.933 94.924 12.296 209.824 10.908 217.193 16.604 224 24.103 224h49.084c5.57 0 10.377-3.842 11.676-9.259C103.407 137.408 172.931 80 256 80c60.893 0 114.512 30.856 146.104 77.801l-101.53-4.865c-6.845-.328-12.574 5.133-12.574 11.986v47.411c0 6.627 5.373 12 12 12h200.333c6.627 0 12-5.373 12-12V12c0-6.627-5.373-12-12-12h-47.411c-6.853 0-12.315 5.729-11.987 12.574zM256 432c-60.895 0-114.517-30.858-146.109-77.805l101.868 4.871c6.845.327 12.573-5.134 12.573-11.986v-47.412c0-6.627-5.373-12-12-12H12c-6.627 0-12 5.373-12 12V500c0 6.627 5.373 12 12 12h47.385c6.863 0 12.328-5.745 11.985-12.599l-4.129-82.575C112.725 470.166 180.405 504 256 504c121.187 0 222.067-86.924 243.704-201.824 1.388-7.369-4.308-14.176-11.807-14.176h-49.084c-5.57 0-10.377 3.842-11.676 9.259C408.593 374.592 339.069 432 256 432z" class="compassNav" transform="translate(631, 10) scale(0.02)" style="fill: #666666; stroke: #666666; stroke-width: 1px;"></path><circle cx="658" cy="15" r="10" class="compassNav" style="fill: #ffffff; stroke: #666666; stroke-width: 1px;"></circle><line class="compassNav" stroke-width="2" stroke="#666666" x1="654" y1="15" x2="662" y2="15"></line><line class="compassNav" stroke-width="2" stroke="#666666" x1="658" y1="11" x2="658" y2="19"></line><circle cx="614" cy="15" r="10" class="compassNav" style="fill: #ffffff; stroke: #666666; stroke-width: 1px;"></circle><line class="compassNav" stroke-width="2" stroke="#666666" x1="610" y1="15" x2="618" y2="15"></line><path d="M582 14 l20 -12 a100,40 0 0,0 0,24z" class="compassNav" style="fill: #ffffff; stroke: #666666; stroke-width: 1px;"></path><path d="M690 14 l-20 -12 a100,40 0 0,1 0,24z" class="compassNav" style="fill: #ffffff; stroke: #666666; stroke-width: 1px;"></path><path d="M216 0h80c13.3 0 24 10.7 24 24v168h87.7c17.8 0 26.7 21.5 14.1 34.1L269.7 378.3c-7.5 7.5-19.8 7.5-27.3 0L90.1 226.1c-12.6-12.6-3.7-34.1 14.1-34.1H192V24c0-13.3 10.7-24 24-24zm296 376v112c0 13.3-10.7 24-24 24H24c-13.3 0-24-10.7-24-24V376c0-13.3 10.7-24 24-24h146.7l49 49c20.1 20.1 52.5 20.1 72.6 0l49-49H488c13.3 0 24 10.7 24 24zm-124 88c0-11-9-20-20-20s-20 9-20 20 9 20 20 20 20-9 20-20zm64 0c0-11-9-20-20-20s-20 9-20 20 9 20 20 20 20-9 20-20z" class="compassNav" transform="translate(552,0) scale(0.05)" style="fill: #336699; stroke: #336699; stroke-width: 1px; cursor: pointer;"></path></g></svg>