<svg width="800" height="400" style="background-color: white;"><g transform="translate(50,0)"><svg width="700" height="360"><g style="-webkit-tap-highlight-color: rgba(0, 0, 0, 0);"><rect width="700" height="360" style="fill: #ffffff;"></rect><g id="lines"><line class="line" stroke-width="1" stroke="#d7301f" x1="-388.46153846153845" y1="333" x2="-388.46153846153845" y2="360" visibility="hidden" style="stroke-dasharray: 3px, 3px;"></line></g><g><rect x="-393.46153846153845" y="355" width="10" height="10" visibility="hidden" style="fill: #ffffff; stroke: #d7301f;"></rect></g><g id="lines"><line class="line" stroke-width="1" stroke="#6a51a3" x1="-388.46153846153845" y1="333" x2="-388.46153846153845" y2="327.27272727272725" visibility="hidden" style="stroke-dasharray: 3px, 3px;"></line></g><g><rect x="-393.46153846153845" y="322.27272727272725" width="10" height="10" visibility="hidden" style="fill: #ffffff; stroke: #6a51a3;"></rect></g><g id="lines"><line class="line" stroke-width="1" stroke="#666666" x1="7.6923076923076925" y1="333" x2="7.6923076923076925" y2="324.772553649559"></line><line class="line" stroke-width="1" stroke="#666666" x1="15.384615384615385" y1="333" x2="15.384615384615385" y2="322.27238002639075"></line><line class="line" stroke-width="1" stroke="#666666" x1="15.384615384615385" y1="333" x2="15.384615384615385" y2="319.77220640322247"></line><line class="line" stroke-width="1" stroke="#666666" x1="15.384615384615385" y1="333" x2="15.384615384615385" y2="324.772553649559"></line><line class="line" stroke-width="1" stroke="#666666" x1="34.61538461538461" y1="333" x2="34.61538461538461" y2="324.772553649559"></line><line class="line" stroke-width="1" stroke="#666666" x1="34.61538461538461" y1="333" x2="34.61538461538461" y2="324.772553649559"></line><line class="line" stroke-width="1" stroke="#666666" x1="73.07692307692308" y1="333" x2="73.07692307692308" y2="324.772553649559"></line><line class="line" stroke-width="1" stroke="#666666" x1="76.92307692307692" y1="333" x2="76.92307692307692" y2="319.77220640322247"></line><line class="line" stroke-width="1" stroke="#666666" x1="76.92307692307692" y1="333" x2="76.92307692307692" y2="324.772553649559"></line><line class="line" stroke-width="1" stroke="#666666" x1="76.92307692307692" y1="333" x2="76.92307692307692" y2="319.77220640322247"></line><line class="line" stroke-width="1" stroke="#666666" x1="76.92307692307692" y1="333" x2="76.92307692307692" y2="324.772553649559"></line><line class="line" stroke-width="1" stroke="#666666" x1="126.92307692307692" y1="333" x2="126.92307692307692" y2="324.772553649559"></line><line class="line" stroke-width="1" stroke="#666666" x1="126.92307692307692" y1="333" x2="126.92307692307692" y2="287.2699493020349"></line><line class="line" stroke-width="1" stroke="#666666" x1="165.3846153846154" y1="333" x2="165.3846153846154" y2="274.7690811861935"></line><line class="line" stroke-width="1" stroke="#666666" x1="165.3846153846154" y1="333" x2="165.3846153846154" y2="324.772553649559"></line><line class="line" stroke-width="1" stroke="#666666" x1="165.3846153846154" y1="333" x2="165.3846153846154" y2="317.2720327800542"></line><line class="line" stroke-width="1" stroke="#666666" x1="165.3846153846154" y1="333" x2="165.3846153846154" y2="324.772553649559"></line><line class="line" stroke-width="1" stroke="#666666" x1="188.46153846153845" y1="333" x2="188.46153846153845" y2="322.27238002639075"></line><line class="line" stroke-width="1" stroke="#666666" x1="188.46153846153845" y1="333" x2="188.46153846153845" y2="322.27238002639075"></line><line class="line" stroke-width="1" stroke="#666666" x1="196.15384615384616" y1="333" x2="196.15384615384616" y2="297.27064379470795"></line><line class="line" stroke-width="1" stroke="#666666" x1="207.69230769230768" y1="333" x2="207.69230769230768" y2="324.772553649559"></line><line class="line" stroke-width="1" stroke="#666666" x1="226.92307692307693" y1="333" x2="226.92307692307693" y2="322.27238002639075"></line><line class="line" stroke-width="1" stroke="#666666" x1="300" y1="333" x2="300" y2="292.27029654837145"></line><line class="line" stroke-width="1" stroke="#666666" x1="307.6923076923077" y1="333" x2="307.6923076923077" y2="314.7718591568859"></line><line class="line" stroke-width="1" stroke="#666666" x1="319.2307692307692" y1="333" x2="319.2307692307692" y2="324.772553649559"></line><line class="line" stroke-width="1" stroke="#666666" x1="319.2307692307692" y1="333" x2="319.2307692307692" y2="312.27168553371763"></line><line class="line" stroke-width="1" stroke="#666666" x1="326.9230769230769" y1="333" x2="326.9230769230769" y2="324.772553649559"></line><line class="line" stroke-width="1" stroke="#666666" x1="338.46153846153845" y1="333" x2="338.46153846153845" y2="324.772553649559"></line><line class="line" stroke-width="1" stroke="#666666" x1="350" y1="333" x2="350" y2="322.27238002639075"></line><line class="line" stroke-width="1" stroke="#666666" x1="353.8461538461538" y1="333" x2="353.8461538461538" y2="29.75206611570252"></line><line class="line" stroke-width="1" stroke="#666666" x1="361.53846153846155" y1="333" x2="361.53846153846155" y2="102.25710118758246"></line><line class="line" stroke-width="1" stroke="#666666" x1="369.2307692307692" y1="333" x2="369.2307692307692" y2="204.76421973748177"></line><line class="line" stroke-width="1" stroke="#666666" x1="376.9230769230769" y1="333" x2="376.9230769230769" y2="242.2668240850059"></line><line class="line" stroke-width="1" stroke="#666666" x1="388.46153846153845" y1="333" x2="388.46153846153845" y2="312.27168553371763"></line><line class="line" stroke-width="1" stroke="#666666" x1="392.3076923076923" y1="333" x2="392.3076923076923" y2="322.27238002639075"></line><line class="line" stroke-width="1" stroke="#666666" x1="392.3076923076923" y1="333" x2="392.3076923076923" y2="314.7718591568859"></line><line class="line" stroke-width="1" stroke="#666666" x1="392.3076923076923" y1="333" x2="392.3076923076923" y2="324.772553649559"></line><line class="line" stroke-width="1" stroke="#666666" x1="396.15384615384613" y1="333" x2="396.15384615384613" y2="324.772553649559"></line><line class="line" stroke-width="1" stroke="#666666" x1="400" y1="333" x2="400" y2="319.77220640322247"></line><line class="line" stroke-width="1" stroke="#666666" x1="430.7692307692308" y1="333" x2="430.7692307692308" y2="317.2720327800542"></line><line class="line" stroke-width="1" stroke="#666666" x1="430.7692307692308" y1="333" x2="430.7692307692308" y2="324.772553649559"></line><line class="line" stroke-width="1" stroke="#666666" x1="453.84615384615387" y1="333" x2="453.84615384615387" y2="324.772553649559"></line><line class="line" stroke-width="1" stroke="#666666" x1="503.84615384615387" y1="333" x2="503.84615384615387" y2="314.7718591568859"></line><line class="line" stroke-width="1" stroke="#666666" x1="507.6923076923077" y1="333" x2="507.6923076923077" y2="324.772553649559"></line><line class="line" stroke-width="1" stroke="#666666" x1="546.1538461538462" y1="333" x2="546.1538461538462" y2="322.27238002639075"></line><line class="line" stroke-width="1" stroke="#666666" x1="546.1538461538462" y1="333" x2="546.1538461538462" y2="324.772553649559"></line><line class="line" stroke-width="1" stroke="#666666" x1="546.1538461538462" y1="333" x2="546.1538461538462" y2="314.7718591568859"></line><line class="line" stroke-width="1" stroke="#666666" x1="553.8461538461538" y1="333" x2="553.8461538461538" y2="324.772553649559"></line><line class="line" stroke-width="1" stroke="#666666" x1="588.4615384615385" y1="333" x2="588.4615384615385" y2="244.7669977081742"></line><line class="line" stroke-width="1" stroke="#666666" x1="607.6923076923077" y1="333" x2="607.6923076923077" y2="272.2689075630252"></line><line class="line" stroke-width="1" stroke="#666666" x1="661.5384615384615" y1="333" x2="661.5384615384615" y2="289.77012292520317"></line><line class="line" stroke-width="1" stroke="#666666" x1="673.0769230769231" y1="333" x2="673.0769230769231" y2="122.25849017292867"></line></g><g id="circles"><circle r="4" cx="7.6923076923076925" cy="324.772553649559" style="fill: #4393c3; stroke: #666666; stroke-width: 1px;"></circle><circle r="4" cx="15.384615384615385" cy="322.27238002639075" style="fill: #5aae61; stroke: #666666; stroke-width: 1px;"></circle><circle r="4" cx="15.384615384615385" cy="319.77220640322247" style="fill: #bf812d; stroke: #666666; stroke-width: 1px;"></circle><circle r="4" cx="15.384615384615385" cy="324.772553649559" style="fill: #666666; stroke: #666666; stroke-width: 1px;"></circle><circle r="4" cx="34.61538461538461" cy="324.772553649559" style="fill: #5aae61; stroke: #666666; stroke-width: 1px;"></circle><circle r="4" cx="34.61538461538461" cy="324.772553649559" style="fill: #666666; stroke: #666666; stroke-width: 1px;"></circle><circle r="4" cx="73.07692307692308" cy="324.772553649559" style="fill: #5aae61; stroke: #666666; stroke-width: 1px;"></circle><circle r="4" cx="76.92307692307692" cy="319.77220640322247" style="fill: #5aae61; stroke: #666666; stroke-width: 1px;"></circle><circle r="4" cx="76.92307692307692" cy="324.772553649559" style="fill: #666666; stroke: #666666; stroke-width: 1px;"></circle><circle r="4" cx="76.92307692307692" cy="319.77220640322247" style="fill: #bf812d; stroke: #666666; stroke-width: 1px;"></circle><circle r="4" cx="76.92307692307692" cy="324.772553649559" style="fill: #666666; stroke: #666666; stroke-width: 1px;"></circle><circle r="4" cx="126.92307692307692" cy="324.772553649559" style="fill: #5aae61; stroke: #666666; stroke-width: 1px;"></circle><circle r="4" cx="126.92307692307692" cy="287.2699493020349" style="fill: #bf812d; stroke: #666666; stroke-width: 1px;"></circle><circle r="4" cx="165.3846153846154" cy="274.7690811861935" style="fill: #5aae61; stroke: #666666; stroke-width: 1px;"></circle><circle r="4" cx="165.3846153846154" cy="324.772553649559" style="fill: #666666; stroke: #666666; stroke-width: 1px;"></circle><circle r="4" cx="165.3846153846154" cy="317.2720327800542" style="fill: #bf812d; stroke: #666666; stroke-width: 1px;"></circle><circle r="4" cx="165.3846153846154" cy="324.772553649559" style="fill: #666666; stroke: #666666; stroke-width: 1px;"></circle><circle r="4" cx="188.46153846153845" cy="322.27238002639075" style="fill: #5aae61; stroke: #666666; stroke-width: 1px;"></circle><circle r="4" cx="188.46153846153845" cy="322.27238002639075" style="fill: #bf812d; stroke: #666666; stroke-width: 1px;"></circle><circle r="4" cx="196.15384615384616" cy="297.27064379470795" style="fill: #bf812d; stroke: #666666; stroke-width: 1px;"></circle><circle r="4" cx="207.69230769230768" cy="324.772553649559" style="fill: #4393c3; stroke: #666666; stroke-width: 1px;"></circle><circle r="4" cx="226.92307692307693" cy="322.27238002639075" style="fill: #4393c3; stroke: #666666; stroke-width: 1px;"></circle><circle r="4" cx="300" cy="292.27029654837145" style="fill: #4393c3; stroke: #666666; stroke-width: 1px;"></circle><circle r="4" cx="307.6923076923077" cy="314.7718591568859" style="fill: #bf812d; stroke: #666666; stroke-width: 1px;"></circle><circle r="4" cx="319.2307692307692" cy="324.772553649559" style="fill: #5aae61; stroke: #666666; stroke-width: 1px;"></circle><circle r="4" cx="319.2307692307692" cy="312.27168553371763" style="fill: #bf812d; stroke: #666666; stroke-width: 1px;"></circle><circle r="4" cx="326.9230769230769" cy="324.772553649559" style="fill: #bf812d; stroke: #666666; stroke-width: 1px;"></circle><circle r="4" cx="338.46153846153845" cy="324.772553649559" style="fill: #4393c3; stroke: #666666; stroke-width: 1px;"></circle><circle r="4" cx="350" cy="322.27238002639075" style="fill: #bf812d; stroke: #666666; stroke-width: 1px;"></circle><circle r="4" cx="353.8461538461538" cy="29.75206611570252" style="fill: #4393c3; stroke: #666666; stroke-width: 1px;"></circle><circle r="4" cx="361.53846153846155" cy="102.25710118758246" style="fill: #4393c3; stroke: #666666; stroke-width: 1px;"></circle><circle r="4" cx="369.2307692307692" cy="204.76421973748177" style="fill: #4393c3; stroke: #666666; stroke-width: 1px;"></circle><circle r="4" cx="376.9230769230769" cy="242.2668240850059" style="fill: #4393c3; stroke: #666666; stroke-width: 1px;"></circle><circle r="4" cx="388.46153846153845" cy="312.27168553371763" style="fill: #4393c3; stroke: #666666; stroke-width: 1px;"></circle><circle r="4" cx="392.3076923076923" cy="322.27238002639075" style="fill: #5aae61; stroke: #666666; stroke-width: 1px;"></circle><circle r="4" cx="392.3076923076923" cy="314.7718591568859" style="fill: #bf812d; stroke: #666666; stroke-width: 1px;"></circle><circle r="4" cx="392.3076923076923" cy="324.772553649559" style="fill: #666666; stroke: #666666; stroke-width: 1px;"></circle><circle r="4" cx="396.15384615384613" cy="324.772553649559" style="fill: #4393c3; stroke: #666666; stroke-width: 1px;"></circle><circle r="4" cx="400" cy="319.77220640322247" style="fill: #bf812d; stroke: #666666; stroke-width: 1px;"></circle><circle r="4" cx="430.7692307692308" cy="317.2720327800542" style="fill: #5aae61; stroke: #666666; stroke-width: 1px;"></circle><circle r="4" cx="430.7692307692308" cy="324.772553649559" style="fill: #bf812d; stroke: #666666; stroke-width: 1px;"></circle><circle r="4" cx="453.84615384615387" cy="324.772553649559" style="fill: #666666; stroke: #666666; stroke-width: 1px;"></circle><circle r="4" cx="503.84615384615387" cy="314.7718591568859" style="fill: #4393c3; stroke: #666666; stroke-width: 1px;"></circle><circle r="4" cx="507.6923076923077" cy="324.772553649559" style="fill: #4393c3; stroke: #666666; stroke-width: 1px;"></circle><circle r="4" cx="546.1538461538462" cy="322.27238002639075" style="fill: #5aae61; stroke: #666666; stroke-width: 1px;"></circle><circle r="4" cx="546.1538461538462" cy="324.772553649559" style="fill: #666666; stroke: #666666; stroke-width: 1px;"></circle><circle r="4" cx="546.1538461538462" cy="314.7718591568859" style="fill: #bf812d; stroke: #666666; stroke-width: 1px;"></circle><circle r="4" cx="553.8461538461538" cy="324.772553649559" style="fill: #4393c3; stroke: #666666; stroke-width: 1px;"></circle><circle r="4" cx="588.4615384615385" cy="244.7669977081742" style="fill: #bf812d; stroke: #666666; stroke-width: 1px;"></circle><circle r="4" cx="607.6923076923077" cy="272.2689075630252" style="fill: #bf812d; stroke: #666666; stroke-width: 1px;"></circle><circle r="4" cx="661.5384615384615" cy="289.77012292520317" style="fill: #4393c3; stroke: #666666; stroke-width: 1px;"></circle><circle r="4" cx="673.0769230769231" cy="122.25849017292867" style="fill: #4393c3; stroke: #666666; stroke-width: 1px;"></circle></g><g><rect x="0" y="333" width="700" height="12" style="fill: #ffffff; stroke-width: 1px; stroke: #666666;"></rect><rect x="111.53846153846153" y="333" width="188.46153846153845" height="12" style="fill: #aec7e8; stroke-width: 1px; stroke: #666666;"></rect><rect x="465.38461538461536" y="333" width="200" height="12" style="fill: #ffbb78; stroke-width: 1px; stroke: #666666;"></rect></g><g><a target="_blank" xlink:href="http://pfam.xfam.org/family/"><text y="343" x="350" text-anchor="middle" style="color: rgb(102, 102, 102); font-weight: normal; font-size: 12px; font-family: Arial; cursor: pointer;"></text></a><a target="_blank" xlink:href="http://pfam.xfam.org/family/Chromo"><text y="343" x="205.76923076923077" text-anchor="middle" style="color: rgb(102, 102, 102); font-weight: normal; font-size: 12px; font-family: Arial; cursor: pointer;">Chromo</text></a><a target="_blank" xlink:href="http://pfam.xfam.org/family/Chromo_shadow"><text y="343" x="565.3846153846154" text-anchor="middle" style="color: rgb(102, 102, 102); font-weight: normal; font-size: 12px; font-family: Arial; cursor: pointer;">Chromo_shadow</text></a></g><g><text y="358" x="0" text-anchor="middle" visibility="hidden" style="font-size: 13px;">M</text><text y="358" x="3.8461538461538463" text-anchor="middle" visibility="hidden" style="font-size: 13px;">A</text><text y="358" x="7.6923076923076925" text-anchor="middle" visibility="hidden" style="font-size: 13px;">S</text><text y="358" x="11.538461538461538" text-anchor="middle" visibility="hidden" style="font-size: 13px;">N</text><text y="358" x="15.384615384615385" text-anchor="middle" visibility="hidden" style="font-size: 13px;">K</text><text y="358" x="19.23076923076923" text-anchor="middle" visibility="hidden" style="font-size: 13px;">T</text><text y="358" x="23.076923076923077" text-anchor="middle" visibility="hidden" style="font-size: 13px;">T</text><text y="358" x="26.923076923076923" text-anchor="middle" visibility="hidden" style="font-size: 13px;">L</text><text y="358" x="30.76923076923077" text-anchor="middle" visibility="hidden" style="font-size: 13px;">Q</text><text y="358" x="34.61538461538461" text-anchor="middle" visibility="hidden" style="font-size: 13px;">K</text><text y="358" x="38.46153846153846" text-anchor="middle" visibility="hidden" style="font-size: 13px;">M</text><text y="358" x="42.30769230769231" text-anchor="middle" visibility="hidden" style="font-size: 13px;">G</text><text y="358" x="46.15384615384615" text-anchor="middle" visibility="hidden" style="font-size: 13px;">K</text><text y="358" x="50" text-anchor="middle" visibility="hidden" style="font-size: 13px;">K</text><text y="358" x="53.84615384615385" text-anchor="middle" visibility="hidden" style="font-size: 13px;">Q</text><text y="358" x="57.69230769230769" text-anchor="middle" visibility="hidden" style="font-size: 13px;">N</text><text y="358" x="61.53846153846154" text-anchor="middle" visibility="hidden" style="font-size: 13px;">G</text><text y="358" x="65.38461538461539" text-anchor="middle" visibility="hidden" style="font-size: 13px;">K</text><text y="358" x="69.23076923076923" text-anchor="middle" visibility="hidden" style="font-size: 13px;">S</text><text y="358" x="73.07692307692308" text-anchor="middle" visibility="hidden" style="font-size: 13px;">K</text><text y="358" x="76.92307692307692" text-anchor="middle" visibility="hidden" style="font-size: 13px;">K</text><text y="358" x="80.76923076923077" text-anchor="middle" visibility="hidden" style="font-size: 13px;">V</text><text y="358" x="84.61538461538461" text-anchor="middle" visibility="hidden" style="font-size: 13px;">E</text><text y="358" x="88.46153846153845" text-anchor="middle" visibility="hidden" style="font-size: 13px;">E</text><text y="358" x="92.3076923076923" text-anchor="middle" visibility="hidden" style="font-size: 13px;">A</text><text y="358" x="96.15384615384616" text-anchor="middle" visibility="hidden" style="font-size: 13px;">E</text><text y="358" x="100" text-anchor="middle" visibility="hidden" style="font-size: 13px;">P</text><text y="358" x="103.84615384615384" text-anchor="middle" visibility="hidden" style="font-size: 13px;">E</text><text y="358" x="107.6923076923077" text-anchor="middle" visibility="hidden" style="font-size: 13px;">E</text><text y="358" x="111.53846153846153" text-anchor="middle" visibility="hidden" style="font-size: 13px;">F</text><text y="358" x="115.38461538461539" text-anchor="middle" visibility="hidden" style="font-size: 13px;">V</text><text y="358" x="119.23076923076924" text-anchor="middle" visibility="hidden" style="font-size: 13px;">V</text><text y="358" x="123.07692307692308" text-anchor="middle" visibility="hidden" style="font-size: 13px;">E</text><text y="358" x="126.92307692307692" text-anchor="middle" visibility="hidden" style="font-size: 13px;">K</text><text y="358" x="130.76923076923077" text-anchor="middle" visibility="hidden" style="font-size: 13px;">V</text><text y="358" x="134.6153846153846" text-anchor="middle" visibility="hidden" style="font-size: 13px;">L</text><text y="358" x="138.46153846153845" text-anchor="middle" visibility="hidden" style="font-size: 13px;">D</text><text y="358" x="142.30769230769232" text-anchor="middle" visibility="hidden" style="font-size: 13px;">R</text><text y="358" x="146.15384615384616" text-anchor="middle" visibility="hidden" style="font-size: 13px;">R</text><text y="358" x="150" text-anchor="middle" visibility="hidden" style="font-size: 13px;">V</text><text y="358" x="153.84615384615384" text-anchor="middle" visibility="hidden" style="font-size: 13px;">V</text><text y="358" x="157.6923076923077" text-anchor="middle" visibility="hidden" style="font-size: 13px;">N</text><text y="358" x="161.53846153846155" text-anchor="middle" visibility="hidden" style="font-size: 13px;">G</text><text y="358" x="165.3846153846154" text-anchor="middle" visibility="hidden" style="font-size: 13px;">K</text><text y="358" x="169.23076923076923" text-anchor="middle" visibility="hidden" style="font-size: 13px;">V</text><text y="358" x="173.0769230769231" text-anchor="middle" visibility="hidden" style="font-size: 13px;">E</text><text y="358" x="176.9230769230769" text-anchor="middle" visibility="hidden" style="font-size: 13px;">Y</text><text y="358" x="180.76923076923077" text-anchor="middle" visibility="hidden" style="font-size: 13px;">F</text><text y="358" x="184.6153846153846" text-anchor="middle" visibility="hidden" style="font-size: 13px;">L</text><text y="358" x="188.46153846153845" text-anchor="middle" visibility="hidden" style="font-size: 13px;">K</text><text y="358" x="192.30769230769232" text-anchor="middle" visibility="hidden" style="font-size: 13px;">W</text><text y="358" x="196.15384615384616" text-anchor="middle" visibility="hidden" style="font-size: 13px;">K</text><text y="358" x="200" text-anchor="middle" visibility="hidden" style="font-size: 13px;">G</text><text y="358" x="203.84615384615387" text-anchor="middle" visibility="hidden" style="font-size: 13px;">F</text><text y="358" x="207.69230769230768" text-anchor="middle" visibility="hidden" style="font-size: 13px;">T</text><text y="358" x="211.53846153846152" text-anchor="middle" visibility="hidden" style="font-size: 13px;">D</text><text y="358" x="215.3846153846154" text-anchor="middle" visibility="hidden" style="font-size: 13px;">A</text><text y="358" x="219.23076923076923" text-anchor="middle" visibility="hidden" style="font-size: 13px;">D</text><text y="358" x="223.07692307692307" text-anchor="middle" visibility="hidden" style="font-size: 13px;">N</text><text y="358" x="226.92307692307693" text-anchor="middle" visibility="hidden" style="font-size: 13px;">T</text><text y="358" x="230.76923076923077" text-anchor="middle" visibility="hidden" style="font-size: 13px;">W</text><text y="358" x="234.61538461538458" text-anchor="middle" visibility="hidden" style="font-size: 13px;">E</text><text y="358" x="238.46153846153848" text-anchor="middle" visibility="hidden" style="font-size: 13px;">P</text><text y="358" x="242.3076923076923" text-anchor="middle" visibility="hidden" style="font-size: 13px;">E</text><text y="358" x="246.15384615384616" text-anchor="middle" visibility="hidden" style="font-size: 13px;">E</text><text y="358" x="250" text-anchor="middle" visibility="hidden" style="font-size: 13px;">N</text><text y="358" x="253.84615384615384" text-anchor="middle" visibility="hidden" style="font-size: 13px;">L</text><text y="358" x="257.69230769230774" text-anchor="middle" visibility="hidden" style="font-size: 13px;">D</text><text y="358" x="261.53846153846155" text-anchor="middle" visibility="hidden" style="font-size: 13px;">C</text><text y="358" x="265.38461538461536" text-anchor="middle" visibility="hidden" style="font-size: 13px;">P</text><text y="358" x="269.2307692307692" text-anchor="middle" visibility="hidden" style="font-size: 13px;">E</text><text y="358" x="273.0769230769231" text-anchor="middle" visibility="hidden" style="font-size: 13px;">L</text><text y="358" x="276.9230769230769" text-anchor="middle" visibility="hidden" style="font-size: 13px;">I</text><text y="358" x="280.7692307692308" text-anchor="middle" visibility="hidden" style="font-size: 13px;">E</text><text y="358" x="284.61538461538464" text-anchor="middle" visibility="hidden" style="font-size: 13px;">A</text><text y="358" x="288.46153846153845" text-anchor="middle" visibility="hidden" style="font-size: 13px;">F</text><text y="358" x="292.3076923076923" text-anchor="middle" visibility="hidden" style="font-size: 13px;">L</text><text y="358" x="296.15384615384613" text-anchor="middle" visibility="hidden" style="font-size: 13px;">N</text><text y="358" x="300" text-anchor="middle" visibility="hidden" style="font-size: 13px;">S</text><text y="358" x="303.84615384615387" text-anchor="middle" visibility="hidden" style="font-size: 13px;">Q</text><text y="358" x="307.6923076923077" text-anchor="middle" visibility="hidden" style="font-size: 13px;">K</text><text y="358" x="311.53846153846155" text-anchor="middle" visibility="hidden" style="font-size: 13px;">A</text><text y="358" x="315.3846153846154" text-anchor="middle" visibility="hidden" style="font-size: 13px;">G</text><text y="358" x="319.2307692307692" text-anchor="middle" visibility="hidden" style="font-size: 13px;">K</text><text y="358" x="323.0769230769231" text-anchor="middle" visibility="hidden" style="font-size: 13px;">E</text><text y="358" x="326.9230769230769" text-anchor="middle" visibility="hidden" style="font-size: 13px;">K</text><text y="358" x="330.7692307692308" text-anchor="middle" visibility="hidden" style="font-size: 13px;">D</text><text y="358" x="334.61538461538464" text-anchor="middle" visibility="hidden" style="font-size: 13px;">G</text><text y="358" x="338.46153846153845" text-anchor="middle" visibility="hidden" style="font-size: 13px;">T</text><text y="358" x="342.3076923076923" text-anchor="middle" visibility="hidden" style="font-size: 13px;">K</text><text y="358" x="346.1538461538462" text-anchor="middle" visibility="hidden" style="font-size: 13px;">R</text><text y="358" x="350" text-anchor="middle" visibility="hidden" style="font-size: 13px;">K</text><text y="358" x="353.8461538461538" text-anchor="middle" visibility="hidden" style="font-size: 13px;">S</text><text y="358" x="357.6923076923077" text-anchor="middle" visibility="hidden" style="font-size: 13px;">L</text><text y="358" x="361.53846153846155" text-anchor="middle" visibility="hidden" style="font-size: 13px;">S</text><text y="358" x="365.3846153846154" text-anchor="middle" visibility="hidden" style="font-size: 13px;">D</text><text y="358" x="369.2307692307692" text-anchor="middle" visibility="hidden" style="font-size: 13px;">S</text><text y="358" x="373.0769230769231" text-anchor="middle" visibility="hidden" style="font-size: 13px;">E</text><text y="358" x="376.9230769230769" text-anchor="middle" visibility="hidden" style="font-size: 13px;">S</text><text y="358" x="380.7692307692307" text-anchor="middle" visibility="hidden" style="font-size: 13px;">D</text><text y="358" x="384.61538461538464" text-anchor="middle" visibility="hidden" style="font-size: 13px;">D</text><text y="358" x="388.46153846153845" text-anchor="middle" visibility="hidden" style="font-size: 13px;">S</text><text y="358" x="392.3076923076923" text-anchor="middle" visibility="hidden" style="font-size: 13px;">K</text><text y="358" x="396.15384615384613" text-anchor="middle" visibility="hidden" style="font-size: 13px;">S</text><text y="358" x="400" text-anchor="middle" visibility="hidden" style="font-size: 13px;">K</text><text y="358" x="403.8461538461538" text-anchor="middle" visibility="hidden" style="font-size: 13px;">K</text><text y="358" x="407.69230769230774" text-anchor="middle" visibility="hidden" style="font-size: 13px;">K</text><text y="358" x="411.53846153846155" text-anchor="middle" visibility="hidden" style="font-size: 13px;">R</text><text y="358" x="415.38461538461536" text-anchor="middle" visibility="hidden" style="font-size: 13px;">D</text><text y="358" x="419.2307692307692" text-anchor="middle" visibility="hidden" style="font-size: 13px;">A</text><text y="358" x="423.07692307692304" text-anchor="middle" visibility="hidden" style="font-size: 13px;">A</text><text y="358" x="426.92307692307696" text-anchor="middle" visibility="hidden" style="font-size: 13px;">D</text><text y="358" x="430.7692307692308" text-anchor="middle" visibility="hidden" style="font-size: 13px;">K</text><text y="358" x="434.61538461538464" text-anchor="middle" visibility="hidden" style="font-size: 13px;">P</text><text y="358" x="438.46153846153845" text-anchor="middle" visibility="hidden" style="font-size: 13px;">R</text><text y="358" x="442.30769230769226" text-anchor="middle" visibility="hidden" style="font-size: 13px;">G</text><text y="358" x="446.15384615384613" text-anchor="middle" visibility="hidden" style="font-size: 13px;">F</text><text y="358" x="450.00000000000006" text-anchor="middle" visibility="hidden" style="font-size: 13px;">A</text><text y="358" x="453.84615384615387" text-anchor="middle" visibility="hidden" style="font-size: 13px;">R</text><text y="358" x="457.6923076923077" text-anchor="middle" visibility="hidden" style="font-size: 13px;">G</text><text y="358" x="461.53846153846155" text-anchor="middle" visibility="hidden" style="font-size: 13px;">L</text><text y="358" x="465.38461538461536" text-anchor="middle" visibility="hidden" style="font-size: 13px;">D</text><text y="358" x="469.23076923076917" text-anchor="middle" visibility="hidden" style="font-size: 13px;">P</text><text y="358" x="473.0769230769231" text-anchor="middle" visibility="hidden" style="font-size: 13px;">E</text><text y="358" x="476.92307692307696" text-anchor="middle" visibility="hidden" style="font-size: 13px;">R</text><text y="358" x="480.7692307692308" text-anchor="middle" visibility="hidden" style="font-size: 13px;">I</text><text y="358" x="484.6153846153846" text-anchor="middle" visibility="hidden" style="font-size: 13px;">I</text><text y="358" x="488.46153846153845" text-anchor="middle" visibility="hidden" style="font-size: 13px;">G</text><text y="358" x="492.3076923076923" text-anchor="middle" visibility="hidden" style="font-size: 13px;">A</text><text y="358" x="496.1538461538462" text-anchor="middle" visibility="hidden" style="font-size: 13px;">T</text><text y="358" x="500" text-anchor="middle" visibility="hidden" style="font-size: 13px;">D</text><text y="358" x="503.84615384615387" text-anchor="middle" visibility="hidden" style="font-size: 13px;">S</text><text y="358" x="507.6923076923077" text-anchor="middle" visibility="hidden" style="font-size: 13px;">S</text><text y="358" x="511.5384615384615" text-anchor="middle" visibility="hidden" style="font-size: 13px;">G</text><text y="358" x="515.3846153846155" text-anchor="middle" visibility="hidden" style="font-size: 13px;">E</text><text y="358" x="519.2307692307693" text-anchor="middle" visibility="hidden" style="font-size: 13px;">L</text><text y="358" x="523.0769230769231" text-anchor="middle" visibility="hidden" style="font-size: 13px;">M</text><text y="358" x="526.9230769230769" text-anchor="middle" visibility="hidden" style="font-size: 13px;">F</text><text y="358" x="530.7692307692307" text-anchor="middle" visibility="hidden" style="font-size: 13px;">L</text><text y="358" x="534.6153846153845" text-anchor="middle" visibility="hidden" style="font-size: 13px;">M</text><text y="358" x="538.4615384615385" text-anchor="middle" visibility="hidden" style="font-size: 13px;">K</text><text y="358" x="542.3076923076924" text-anchor="middle" visibility="hidden" style="font-size: 13px;">W</text><text y="358" x="546.1538461538462" text-anchor="middle" visibility="hidden" style="font-size: 13px;">K</text><text y="358" x="550" text-anchor="middle" visibility="hidden" style="font-size: 13px;">D</text><text y="358" x="553.8461538461538" text-anchor="middle" visibility="hidden" style="font-size: 13px;">S</text><text y="358" x="557.6923076923076" text-anchor="middle" visibility="hidden" style="font-size: 13px;">D</text><text y="358" x="561.5384615384615" text-anchor="middle" visibility="hidden" style="font-size: 13px;">E</text><text y="358" x="565.3846153846154" text-anchor="middle" visibility="hidden" style="font-size: 13px;">A</text><text y="358" x="569.2307692307693" text-anchor="middle" visibility="hidden" style="font-size: 13px;">D</text><text y="358" x="573.0769230769231" text-anchor="middle" visibility="hidden" style="font-size: 13px;">L</text><text y="358" x="576.9230769230769" text-anchor="middle" visibility="hidden" style="font-size: 13px;">V</text><text y="358" x="580.7692307692308" text-anchor="middle" visibility="hidden" style="font-size: 13px;">L</text><text y="358" x="584.6153846153846" text-anchor="middle" visibility="hidden" style="font-size: 13px;">A</text><text y="358" x="588.4615384615385" text-anchor="middle" visibility="hidden" style="font-size: 13px;">K</text><text y="358" x="592.3076923076923" text-anchor="middle" visibility="hidden" style="font-size: 13px;">E</text><text y="358" x="596.1538461538462" text-anchor="middle" visibility="hidden" style="font-size: 13px;">A</text><text y="358" x="600" text-anchor="middle" visibility="hidden" style="font-size: 13px;">N</text><text y="358" x="603.8461538461539" text-anchor="middle" visibility="hidden" style="font-size: 13px;">M</text><text y="358" x="607.6923076923077" text-anchor="middle" visibility="hidden" style="font-size: 13px;">K</text><text y="358" x="611.5384615384615" text-anchor="middle" visibility="hidden" style="font-size: 13px;">C</text><text y="358" x="615.3846153846154" text-anchor="middle" visibility="hidden" style="font-size: 13px;">P</text><text y="358" x="619.2307692307692" text-anchor="middle" visibility="hidden" style="font-size: 13px;">Q</text><text y="358" x="623.0769230769231" text-anchor="middle" visibility="hidden" style="font-size: 13px;">I</text><text y="358" x="626.9230769230769" text-anchor="middle" visibility="hidden" style="font-size: 13px;">V</text><text y="358" x="630.7692307692308" text-anchor="middle" visibility="hidden" style="font-size: 13px;">I</text><text y="358" x="634.6153846153846" text-anchor="middle" visibility="hidden" style="font-size: 13px;">A</text><text y="358" x="638.4615384615385" text-anchor="middle" visibility="hidden" style="font-size: 13px;">F</text><text y="358" x="642.3076923076923" text-anchor="middle" visibility="hidden" style="font-size: 13px;">Y</text><text y="358" x="646.1538461538462" text-anchor="middle" visibility="hidden" style="font-size: 13px;">E</text><text y="358" x="650" text-anchor="middle" visibility="hidden" style="font-size: 13px;">E</text><text y="358" x="653.8461538461538" text-anchor="middle" visibility="hidden" style="font-size: 13px;">R</text><text y="358" x="657.6923076923077" text-anchor="middle" visibility="hidden" style="font-size: 13px;">L</text><text y="358" x="661.5384615384615" text-anchor="middle" visibility="hidden" style="font-size: 13px;">T</text><text y="358" x="665.3846153846154" text-anchor="middle" visibility="hidden" style="font-size: 13px;">W</text><text y="358" x="669.2307692307693" text-anchor="middle" visibility="hidden" style="font-size: 13px;">H</text><text y="358" x="673.0769230769231" text-anchor="middle" visibility="hidden" style="font-size: 13px;">S</text><text y="358" x="676.9230769230769" text-anchor="middle" visibility="hidden" style="font-size: 13px;">C</text><text y="358" x="680.7692307692307" text-anchor="middle" visibility="hidden" style="font-size: 13px;">P</text><text y="358" x="684.6153846153846" text-anchor="middle" visibility="hidden" style="font-size: 13px;">E</text><text y="358" x="688.4615384615385" text-anchor="middle" visibility="hidden" style="font-size: 13px;">D</text><text y="358" x="692.3076923076924" text-anchor="middle" visibility="hidden" style="font-size: 13px;">E</text><text y="358" x="696.1538461538462" text-anchor="middle" visibility="hidden" style="font-size: 13px;">A</text><text y="358" x="700" text-anchor="middle" visibility="hidden" style="font-size: 13px;">Q</text></g></g></svg><g class="xAxis" transform="translate(0,360)" fill="none" font-size="10" font-family="sans-serif" text-anchor="middle"><path class="domain" stroke="#000" d="M0.5,6V0.5H700.5V6"></path><g class="tick" opacity="1" transform="translate(73.57692307692308,0)"><line stroke="#000" y2="6"></line><text fill="#000" y="9" dy="0.71em">20</text></g><g class="tick" opacity="1" transform="translate(150.5,0)"><line stroke="#000" y2="6"></line><text fill="#000" y="9" dy="0.71em">40</text></g><g class="tick" opacity="1" transform="translate(227.42307692307693,0)"><line stroke="#000" y2="6"></line><text fill="#000" y="9" dy="0.71em">60</text></g><g class="tick" opacity="1" transform="translate(304.34615384615387,0)"><line stroke="#000" y2="6"></line><text fill="#000" y="9" dy="0.71em">80</text></g><g class="tick" opacity="1" transform="translate(381.2692307692307,0)"><line stroke="#000" y2="6"></line><text fill="#000" y="9" dy="0.71em">100</text></g><g class="tick" opacity="1" transform="translate(458.1923076923077,0)"><line stroke="#000" y2="6"></line><text fill="#000" y="9" dy="0.71em">120</text></g><g class="tick" opacity="1" transform="translate(535.1153846153845,0)"><line stroke="#000" y2="6"></line><text fill="#000" y="9" dy="0.71em">140</text></g><g class="tick" opacity="1" transform="translate(612.0384615384615,0)"><line stroke="#000" y2="6"></line><text fill="#000" y="9" dy="0.71em">160</text></g><g class="tick" opacity="1" transform="translate(688.9615384615385,0)"><line stroke="#000" y2="6"></line><text fill="#000" y="9" dy="0.71em">180</text></g></g><text class="x label" text-anchor="end" x="700" y="390" style="font-size: 13px; font-family: Arial;">Residue number</text><g class="yAxis" fill="none" font-size="10" font-family="sans-serif" text-anchor="end"><path class="domain" stroke="#000" d="M-6,360.5H0.5V0.5H-6"></path><g class="tick" opacity="1" transform="translate(0,327.77272727272725)"><line stroke="#000" x2="-6"></line><text fill="#000" x="-9" dy="0.32em">0</text></g><g class="tick" opacity="1" transform="translate(0,277.76925480936177)"><line stroke="#000" x2="-6"></line><text fill="#000" x="-9" dy="0.32em">20</text></g><g class="tick" opacity="1" transform="translate(0,227.76578234599626)"><line stroke="#000" x2="-6"></line><text fill="#000" x="-9" dy="0.32em">40</text></g><g class="tick" opacity="1" transform="translate(0,177.76230988263072)"><line stroke="#000" x2="-6"></line><text fill="#000" x="-9" dy="0.32em">60</text></g><g class="tick" opacity="1" transform="translate(0,127.75883741926526)"><line stroke="#000" x2="-6"></line><text fill="#000" x="-9" dy="0.32em">80</text></g><g class="tick" opacity="1" transform="translate(0,77.75536495589972)"><line stroke="#000" x2="-6"></line><text fill="#000" x="-9" dy="0.32em">100</text></g><g class="tick" opacity="1" transform="translate(0,27.75189249253424)"><line stroke="#000" x2="-6"></line><text fill="#000" x="-9" dy="0.32em">120</text></g></g><text class="y label" text-anchor="middle" y="-50" x="-180" dy="0.8em" transform="rotate(-90)" style="font-size: 13px; font-family: Arial;">Total number of references</text><g class="axisRed" fill="none" font-size="10" font-family="sans-serif" text-anchor="start" visibility="hidden" transform="translate(700, 0)"><path class="domain" stroke="#000" d="M6,360.5H0.5V0.5H6"></path><g class="tick" opacity="1" transform="translate(0,360.5)"><line stroke="#000" x2="6"></line><text fill="#000" x="9" dy="0.32em">0</text></g><text text-anchor="start" dx="5.2em" dy="-2.6em" transform="rotate(90)" visibility="hidden" style="font-size: 12px; font-family: Arial; fill: #d7301f;">No recurrent (&gt;2) missense mutations!</text></g><g class="axisPurple" fill="none" font-size="10" font-family="sans-serif" text-anchor="start" visibility="hidden"><path class="domain" stroke="#000" d="M6,360.5H0.5V0.5H6"></path><g class="tick" opacity="1" transform="translate(0,357.52479338842977)"><line stroke="#000" x2="6"></line><text fill="#000" x="9" dy="0.32em"></text></g><g class="tick" opacity="1" transform="translate(0,327.77272727272725)"><line stroke="#000" x2="6"></line><text fill="#000" x="9" dy="0.32em">0</text></g><g class="tick" opacity="1" transform="translate(0,298.0206611570248)"><line stroke="#000" x2="6"></line><text fill="#000" x="9" dy="0.32em">0.1</text></g><g class="tick" opacity="1" transform="translate(0,268.2685950413223)"><line stroke="#000" x2="6"></line><text fill="#000" x="9" dy="0.32em">0.2</text></g><g class="tick" opacity="1" transform="translate(0,238.51652892561984)"><line stroke="#000" x2="6"></line><text fill="#000" x="9" dy="0.32em">0.3</text></g><g class="tick" opacity="1" transform="translate(0,208.76446280991738)"><line stroke="#000" x2="6"></line><text fill="#000" x="9" dy="0.32em">0.4</text></g><g class="tick" opacity="1" transform="translate(0,179.0123966942149)"><line stroke="#000" x2="6"></line><text fill="#000" x="9" dy="0.32em">0.5</text></g><g class="tick" opacity="1" transform="translate(0,149.26033057851242)"><line stroke="#000" x2="6"></line><text fill="#000" x="9" dy="0.32em">0.6</text></g><g class="tick" opacity="1" transform="translate(0,119.50826446280996)"><line stroke="#000" x2="6"></line><text fill="#000" x="9" dy="0.32em">0.7</text></g><g class="tick" opacity="1" transform="translate(0,89.75619834710744)"><line stroke="#000" x2="6"></line><text fill="#000" x="9" dy="0.32em">0.8</text></g><g class="tick" opacity="1" transform="translate(0,60.00413223140498)"><line stroke="#000" x2="6"></line><text fill="#000" x="9" dy="0.32em">0.9</text></g><g class="tick" opacity="1" transform="translate(0,30.25206611570252)"><line stroke="#000" x2="6"></line><text fill="#000" x="9" dy="0.32em">1</text></g><g class="tick" opacity="1" transform="translate(0,0.5)"><line stroke="#000" x2="6"></line><text fill="#000" x="9" dy="0.32em">1.1</text></g><text text-anchor="start" x="10" y="10" visibility="hidden" style="font-size: 12px; font-family: Arial; fill: #807dba;">No disease causing germline SNPs known!</text></g><circle cx="636" cy="15" r="10" class="compassNav" style="fill: #ffffff; stroke: #666666; stroke-width: 1px;"></circle><path d="M440.935 12.574l3.966 82.766C399.416 41.904 331.674 8 256 8 134.813 8 33.933 94.924 12.296 209.824 10.908 217.193 16.604 224 24.103 224h49.084c5.57 0 10.377-3.842 11.676-9.259C103.407 137.408 172.931 80 256 80c60.893 0 114.512 30.856 146.104 77.801l-101.53-4.865c-6.845-.328-12.574 5.133-12.574 11.986v47.411c0 6.627 5.373 12 12 12h200.333c6.627 0 12-5.373 12-12V12c0-6.627-5.373-12-12-12h-47.411c-6.853 0-12.315 5.729-11.987 12.574zM256 432c-60.895 0-114.517-30.858-146.109-77.805l101.868 4.871c6.845.327 12.573-5.134 12.573-11.986v-47.412c0-6.627-5.373-12-12-12H12c-6.627 0-12 5.373-12 12V500c0 6.627 5.373 12 12 12h47.385c6.863 0 12.328-5.745 11.985-12.599l-4.129-82.575C112.725 470.166 180.405 504 256 504c121.187 0 222.067-86.924 243.704-201.824 1.388-7.369-4.308-14.176-11.807-14.176h-49.084c-5.57 0-10.377 3.842-11.676 9.259C408.593 374.592 339.069 432 256 432z" class="compassNav" transform="translate(631, 10) scale(0.02)" style="fill: #666666; stroke: #666666; stroke-width: 1px;"></path><circle cx="658" cy="15" r="10" class="compassNav" style="fill: #ffffff; stroke: #666666; stroke-width: 1px;"></circle><line class="compassNav" stroke-width="2" stroke="#666666" x1="654" y1="15" x2="662" y2="15"></line><line class="compassNav" stroke-width="2" stroke="#666666" x1="658" y1="11" x2="658" y2="19"></line><circle cx="614" cy="15" r="10" class="compassNav" style="fill: #ffffff; stroke: #666666; stroke-width: 1px;"></circle><line class="compassNav" stroke-width="2" stroke="#666666" x1="610" y1="15" x2="618" y2="15"></line><path d="M582 14 l20 -12 a100,40 0 0,0 0,24z" class="compassNav" style="fill: #ffffff; stroke: #666666; stroke-width: 1px;"></path><path d="M690 14 l-20 -12 a100,40 0 0,1 0,24z" class="compassNav" style="fill: #ffffff; stroke: #666666; stroke-width: 1px;"></path><path d="M216 0h80c13.3 0 24 10.7 24 24v168h87.7c17.8 0 26.7 21.5 14.1 34.1L269.7 378.3c-7.5 7.5-19.8 7.5-27.3 0L90.1 226.1c-12.6-12.6-3.7-34.1 14.1-34.1H192V24c0-13.3 10.7-24 24-24zm296 376v112c0 13.3-10.7 24-24 24H24c-13.3 0-24-10.7-24-24V376c0-13.3 10.7-24 24-24h146.7l49 49c20.1 20.1 52.5 20.1 72.6 0l49-49H488c13.3 0 24 10.7 24 24zm-124 88c0-11-9-20-20-20s-20 9-20 20 9 20 20 20 20-9 20-20zm64 0c0-11-9-20-20-20s-20 9-20 20 9 20 20 20 20-9 20-20z" class="compassNav" transform="translate(552,0) scale(0.05)" style="fill: #336699; stroke: #336699; stroke-width: 1px; cursor: pointer;"></path></g></svg>