<svg width="800" height="400" style="background-color: white;"><g transform="translate(50,0)"><svg width="700" height="360"><g style="-webkit-tap-highlight-color: rgba(0, 0, 0, 0);"><rect width="700" height="360" style="fill: #ffffff;"></rect><g id="lines"><line class="line" stroke-width="1" stroke="#d7301f" x1="-261.85185185185185" y1="333" x2="-261.85185185185185" y2="360" visibility="hidden" style="stroke-dasharray: 3px, 3px;"></line></g><g><rect x="-266.85185185185185" y="355" width="10" height="10" visibility="hidden" style="fill: #ffffff; stroke: #d7301f;"></rect></g><g id="lines"><line class="line" stroke-width="1" stroke="#6a51a3" x1="-261.85185185185185" y1="333" x2="-261.85185185185185" y2="327.27272727272725" visibility="hidden" style="stroke-dasharray: 3px, 3px;"></line></g><g><rect x="-266.85185185185185" y="322.27272727272725" width="10" height="10" visibility="hidden" style="fill: #ffffff; stroke: #6a51a3;"></rect></g><g id="lines"><line class="line" stroke-width="1" stroke="#666666" x1="173.7037037037037" y1="333" x2="173.7037037037037" y2="308.6776859504132"></line><line class="line" stroke-width="1" stroke="#666666" x1="210" y1="333" x2="210" y2="308.6776859504132"></line><line class="line" stroke-width="1" stroke="#666666" x1="212.59259259259258" y1="333" x2="212.59259259259258" y2="308.6776859504132"></line><line class="line" stroke-width="1" stroke="#666666" x1="222.96296296296296" y1="333" x2="222.96296296296296" y2="308.6776859504132"></line><line class="line" stroke-width="1" stroke="#666666" x1="233.33333333333331" y1="333" x2="233.33333333333331" y2="308.6776859504132"></line><line class="line" stroke-width="1" stroke="#666666" x1="254.0740740740741" y1="333" x2="254.0740740740741" y2="308.6776859504132"></line><line class="line" stroke-width="1" stroke="#666666" x1="261.85185185185185" y1="333" x2="261.85185185185185" y2="308.6776859504132"></line><line class="line" stroke-width="1" stroke="#666666" x1="445.9259259259259" y1="333" x2="445.9259259259259" y2="308.6776859504132"></line><line class="line" stroke-width="1" stroke="#666666" x1="479.6296296296297" y1="333" x2="479.6296296296297" y2="308.6776859504132"></line><line class="line" stroke-width="1" stroke="#666666" x1="484.8148148148148" y1="333" x2="484.8148148148148" y2="308.6776859504132"></line><line class="line" stroke-width="1" stroke="#666666" x1="492.5925925925926" y1="333" x2="492.5925925925926" y2="308.6776859504132"></line><line class="line" stroke-width="1" stroke="#666666" x1="536.6666666666667" y1="333" x2="536.6666666666667" y2="252.8925619834711"></line><line class="line" stroke-width="1" stroke="#666666" x1="536.6666666666667" y1="333" x2="536.6666666666667" y2="308.6776859504132"></line><line class="line" stroke-width="1" stroke="#666666" x1="536.6666666666667" y1="333" x2="536.6666666666667" y2="29.75206611570252"></line><line class="line" stroke-width="1" stroke="#666666" x1="593.7037037037037" y1="333" x2="593.7037037037037" y2="308.6776859504132"></line><line class="line" stroke-width="1" stroke="#666666" x1="619.6296296296297" y1="333" x2="619.6296296296297" y2="308.6776859504132"></line><line class="line" stroke-width="1" stroke="#666666" x1="684.4444444444445" y1="333" x2="684.4444444444445" y2="308.6776859504132"></line><line class="line" stroke-width="1" stroke="#666666" x1="684.4444444444445" y1="333" x2="684.4444444444445" y2="290.08264462809916"></line><line class="line" stroke-width="1" stroke="#666666" x1="687.0370370370371" y1="333" x2="687.0370370370371" y2="308.6776859504132"></line><line class="line" stroke-width="1" stroke="#666666" x1="694.8148148148148" y1="333" x2="694.8148148148148" y2="308.6776859504132"></line></g><g id="circles"><circle r="4" cx="173.7037037037037" cy="308.6776859504132" style="fill: #4393c3; stroke: #666666; stroke-width: 1px;"></circle><circle r="4" cx="210" cy="308.6776859504132" style="fill: #4393c3; stroke: #666666; stroke-width: 1px;"></circle><circle r="4" cx="212.59259259259258" cy="308.6776859504132" style="fill: #5aae61; stroke: #666666; stroke-width: 1px;"></circle><circle r="4" cx="222.96296296296296" cy="308.6776859504132" style="fill: #4393c3; stroke: #666666; stroke-width: 1px;"></circle><circle r="4" cx="233.33333333333331" cy="308.6776859504132" style="fill: #4393c3; stroke: #666666; stroke-width: 1px;"></circle><circle r="4" cx="254.0740740740741" cy="308.6776859504132" style="fill: #5aae61; stroke: #666666; stroke-width: 1px;"></circle><circle r="4" cx="261.85185185185185" cy="308.6776859504132" style="fill: #5aae61; stroke: #666666; stroke-width: 1px;"></circle><circle r="4" cx="445.9259259259259" cy="308.6776859504132" style="fill: #666666; stroke: #666666; stroke-width: 1px;"></circle><circle r="4" cx="479.6296296296297" cy="308.6776859504132" style="fill: #5aae61; stroke: #666666; stroke-width: 1px;"></circle><circle r="4" cx="484.8148148148148" cy="308.6776859504132" style="fill: #4393c3; stroke: #666666; stroke-width: 1px;"></circle><circle r="4" cx="492.5925925925926" cy="308.6776859504132" style="fill: #4393c3; stroke: #666666; stroke-width: 1px;"></circle><circle r="4" cx="536.6666666666667" cy="252.8925619834711" style="fill: #5aae61; stroke: #666666; stroke-width: 1px;"></circle><circle r="4" cx="536.6666666666667" cy="308.6776859504132" style="fill: #666666; stroke: #666666; stroke-width: 1px;"></circle><circle r="4" cx="536.6666666666667" cy="29.75206611570252" style="fill: #bf812d; stroke: #666666; stroke-width: 1px;"></circle><circle r="4" cx="593.7037037037037" cy="308.6776859504132" style="fill: #666666; stroke: #666666; stroke-width: 1px;"></circle><circle r="4" cx="619.6296296296297" cy="308.6776859504132" style="fill: #bf812d; stroke: #666666; stroke-width: 1px;"></circle><circle r="4" cx="684.4444444444445" cy="308.6776859504132" style="fill: #5aae61; stroke: #666666; stroke-width: 1px;"></circle><circle r="4" cx="684.4444444444445" cy="290.08264462809916" style="fill: #bf812d; stroke: #666666; stroke-width: 1px;"></circle><circle r="4" cx="687.0370370370371" cy="308.6776859504132" style="fill: #4393c3; stroke: #666666; stroke-width: 1px;"></circle><circle r="4" cx="694.8148148148148" cy="308.6776859504132" style="fill: #bf812d; stroke: #666666; stroke-width: 1px;"></circle></g><g><rect x="0" y="333" width="700" height="12" style="fill: #ffffff; stroke-width: 1px; stroke: #666666;"></rect><rect x="207.4074074074074" y="333" width="344.8148148148148" height="12" style="fill: #aec7e8; stroke-width: 1px; stroke: #666666;"></rect><rect x="604.074074074074" y="333" width="85.55555555555554" height="12" style="fill: #ffbb78; stroke-width: 1px; stroke: #666666;"></rect></g><g><a target="_blank" xlink:href="http://pfam.xfam.org/family/"><text y="343" x="350" text-anchor="middle" style="color: rgb(102, 102, 102); font-weight: normal; font-size: 12px; font-family: Arial; cursor: pointer;"></text></a><a target="_blank" xlink:href="http://pfam.xfam.org/family/AhpC-TSA"><text y="343" x="379.8148148148148" text-anchor="middle" style="color: rgb(102, 102, 102); font-weight: normal; font-size: 12px; font-family: Arial; cursor: pointer;">AhpC-TSA</text></a><a target="_blank" xlink:href="http://pfam.xfam.org/family/1-cysPrx_C"><text y="343" x="646.8518518518517" text-anchor="middle" style="color: rgb(102, 102, 102); font-weight: normal; font-size: 12px; font-family: Arial; cursor: pointer;">1-cysPrx_</text></a></g><g><text y="358" x="0" text-anchor="middle" visibility="hidden" style="font-size: 13px;">M</text><text y="358" x="2.5925925925925926" text-anchor="middle" visibility="hidden" style="font-size: 13px;">E</text><text y="358" x="5.185185185185185" text-anchor="middle" visibility="hidden" style="font-size: 13px;">A</text><text y="358" x="7.777777777777778" text-anchor="middle" visibility="hidden" style="font-size: 13px;">L</text><text y="358" x="10.37037037037037" text-anchor="middle" visibility="hidden" style="font-size: 13px;">P</text><text y="358" x="12.962962962962962" text-anchor="middle" visibility="hidden" style="font-size: 13px;">L</text><text y="358" x="15.555555555555555" text-anchor="middle" visibility="hidden" style="font-size: 13px;">L</text><text y="358" x="18.14814814814815" text-anchor="middle" visibility="hidden" style="font-size: 13px;">A</text><text y="358" x="20.74074074074074" text-anchor="middle" visibility="hidden" style="font-size: 13px;">A</text><text y="358" x="23.333333333333332" text-anchor="middle" visibility="hidden" style="font-size: 13px;">T</text><text y="358" x="25.925925925925924" text-anchor="middle" visibility="hidden" style="font-size: 13px;">T</text><text y="358" x="28.51851851851852" text-anchor="middle" visibility="hidden" style="font-size: 13px;">P</text><text y="358" x="31.11111111111111" text-anchor="middle" visibility="hidden" style="font-size: 13px;">D</text><text y="358" x="33.7037037037037" text-anchor="middle" visibility="hidden" style="font-size: 13px;">H</text><text y="358" x="36.2962962962963" text-anchor="middle" visibility="hidden" style="font-size: 13px;">G</text><text y="358" x="38.888888888888886" text-anchor="middle" visibility="hidden" style="font-size: 13px;">R</text><text y="358" x="41.48148148148148" text-anchor="middle" visibility="hidden" style="font-size: 13px;">H</text><text y="358" x="44.07407407407407" text-anchor="middle" visibility="hidden" style="font-size: 13px;">R</text><text y="358" x="46.666666666666664" text-anchor="middle" visibility="hidden" style="font-size: 13px;">R</text><text y="358" x="49.25925925925926" text-anchor="middle" visibility="hidden" style="font-size: 13px;">L</text><text y="358" x="51.85185185185185" text-anchor="middle" visibility="hidden" style="font-size: 13px;">L</text><text y="358" x="54.44444444444444" text-anchor="middle" visibility="hidden" style="font-size: 13px;">L</text><text y="358" x="57.03703703703704" text-anchor="middle" visibility="hidden" style="font-size: 13px;">L</text><text y="358" x="59.629629629629626" text-anchor="middle" visibility="hidden" style="font-size: 13px;">P</text><text y="358" x="62.22222222222222" text-anchor="middle" visibility="hidden" style="font-size: 13px;">L</text><text y="358" x="64.81481481481481" text-anchor="middle" visibility="hidden" style="font-size: 13px;">L</text><text y="358" x="67.4074074074074" text-anchor="middle" visibility="hidden" style="font-size: 13px;">L</text><text y="358" x="70" text-anchor="middle" visibility="hidden" style="font-size: 13px;">F</text><text y="358" x="72.5925925925926" text-anchor="middle" visibility="hidden" style="font-size: 13px;">L</text><text y="358" x="75.18518518518519" text-anchor="middle" visibility="hidden" style="font-size: 13px;">L</text><text y="358" x="77.77777777777777" text-anchor="middle" visibility="hidden" style="font-size: 13px;">P</text><text y="358" x="80.37037037037037" text-anchor="middle" visibility="hidden" style="font-size: 13px;">A</text><text y="358" x="82.96296296296296" text-anchor="middle" visibility="hidden" style="font-size: 13px;">G</text><text y="358" x="85.55555555555556" text-anchor="middle" visibility="hidden" style="font-size: 13px;">A</text><text y="358" x="88.14814814814814" text-anchor="middle" visibility="hidden" style="font-size: 13px;">V</text><text y="358" x="90.74074074074073" text-anchor="middle" visibility="hidden" style="font-size: 13px;">Q</text><text y="358" x="93.33333333333333" text-anchor="middle" visibility="hidden" style="font-size: 13px;">G</text><text y="358" x="95.92592592592592" text-anchor="middle" visibility="hidden" style="font-size: 13px;">W</text><text y="358" x="98.51851851851852" text-anchor="middle" visibility="hidden" style="font-size: 13px;">E</text><text y="358" x="101.1111111111111" text-anchor="middle" visibility="hidden" style="font-size: 13px;">T</text><text y="358" x="103.7037037037037" text-anchor="middle" visibility="hidden" style="font-size: 13px;">E</text><text y="358" x="106.29629629629629" text-anchor="middle" visibility="hidden" style="font-size: 13px;">E</text><text y="358" x="108.88888888888889" text-anchor="middle" visibility="hidden" style="font-size: 13px;">R</text><text y="358" x="111.48148148148148" text-anchor="middle" visibility="hidden" style="font-size: 13px;">P</text><text y="358" x="114.07407407407408" text-anchor="middle" visibility="hidden" style="font-size: 13px;">R</text><text y="358" x="116.66666666666666" text-anchor="middle" visibility="hidden" style="font-size: 13px;">T</text><text y="358" x="119.25925925925925" text-anchor="middle" visibility="hidden" style="font-size: 13px;">R</text><text y="358" x="121.85185185185185" text-anchor="middle" visibility="hidden" style="font-size: 13px;">E</text><text y="358" x="124.44444444444444" text-anchor="middle" visibility="hidden" style="font-size: 13px;">E</text><text y="358" x="127.03703703703705" text-anchor="middle" visibility="hidden" style="font-size: 13px;">E</text><text y="358" x="129.62962962962962" text-anchor="middle" visibility="hidden" style="font-size: 13px;">C</text><text y="358" x="132.22222222222223" text-anchor="middle" visibility="hidden" style="font-size: 13px;">H</text><text y="358" x="134.8148148148148" text-anchor="middle" visibility="hidden" style="font-size: 13px;">F</text><text y="358" x="137.40740740740742" text-anchor="middle" visibility="hidden" style="font-size: 13px;">Y</text><text y="358" x="140" text-anchor="middle" visibility="hidden" style="font-size: 13px;">A</text><text y="358" x="142.59259259259258" text-anchor="middle" visibility="hidden" style="font-size: 13px;">G</text><text y="358" x="145.1851851851852" text-anchor="middle" visibility="hidden" style="font-size: 13px;">G</text><text y="358" x="147.77777777777777" text-anchor="middle" visibility="hidden" style="font-size: 13px;">Q</text><text y="358" x="150.37037037037038" text-anchor="middle" visibility="hidden" style="font-size: 13px;">V</text><text y="358" x="152.96296296296296" text-anchor="middle" visibility="hidden" style="font-size: 13px;">Y</text><text y="358" x="155.55555555555554" text-anchor="middle" visibility="hidden" style="font-size: 13px;">P</text><text y="358" x="158.14814814814815" text-anchor="middle" visibility="hidden" style="font-size: 13px;">G</text><text y="358" x="160.74074074074073" text-anchor="middle" visibility="hidden" style="font-size: 13px;">E</text><text y="358" x="163.33333333333334" text-anchor="middle" visibility="hidden" style="font-size: 13px;">A</text><text y="358" x="165.92592592592592" text-anchor="middle" visibility="hidden" style="font-size: 13px;">S</text><text y="358" x="168.5185185185185" text-anchor="middle" visibility="hidden" style="font-size: 13px;">R</text><text y="358" x="171.11111111111111" text-anchor="middle" visibility="hidden" style="font-size: 13px;">V</text><text y="358" x="173.7037037037037" text-anchor="middle" visibility="hidden" style="font-size: 13px;">S</text><text y="358" x="176.29629629629628" text-anchor="middle" visibility="hidden" style="font-size: 13px;">V</text><text y="358" x="178.88888888888889" text-anchor="middle" visibility="hidden" style="font-size: 13px;">A</text><text y="358" x="181.48148148148147" text-anchor="middle" visibility="hidden" style="font-size: 13px;">D</text><text y="358" x="184.07407407407408" text-anchor="middle" visibility="hidden" style="font-size: 13px;">H</text><text y="358" x="186.66666666666666" text-anchor="middle" visibility="hidden" style="font-size: 13px;">S</text><text y="358" x="189.25925925925927" text-anchor="middle" visibility="hidden" style="font-size: 13px;">L</text><text y="358" x="191.85185185185185" text-anchor="middle" visibility="hidden" style="font-size: 13px;">H</text><text y="358" x="194.44444444444446" text-anchor="middle" visibility="hidden" style="font-size: 13px;">L</text><text y="358" x="197.03703703703704" text-anchor="middle" visibility="hidden" style="font-size: 13px;">S</text><text y="358" x="199.62962962962965" text-anchor="middle" visibility="hidden" style="font-size: 13px;">K</text><text y="358" x="202.2222222222222" text-anchor="middle" visibility="hidden" style="font-size: 13px;">A</text><text y="358" x="204.8148148148148" text-anchor="middle" visibility="hidden" style="font-size: 13px;">K</text><text y="358" x="207.4074074074074" text-anchor="middle" visibility="hidden" style="font-size: 13px;">I</text><text y="358" x="210" text-anchor="middle" visibility="hidden" style="font-size: 13px;">S</text><text y="358" x="212.59259259259258" text-anchor="middle" visibility="hidden" style="font-size: 13px;">K</text><text y="358" x="215.1851851851852" text-anchor="middle" visibility="hidden" style="font-size: 13px;">P</text><text y="358" x="217.77777777777777" text-anchor="middle" visibility="hidden" style="font-size: 13px;">A</text><text y="358" x="220.37037037037038" text-anchor="middle" visibility="hidden" style="font-size: 13px;">P</text><text y="358" x="222.96296296296296" text-anchor="middle" visibility="hidden" style="font-size: 13px;">Y</text><text y="358" x="225.55555555555557" text-anchor="middle" visibility="hidden" style="font-size: 13px;">W</text><text y="358" x="228.14814814814815" text-anchor="middle" visibility="hidden" style="font-size: 13px;">E</text><text y="358" x="230.74074074074073" text-anchor="middle" visibility="hidden" style="font-size: 13px;">G</text><text y="358" x="233.33333333333331" text-anchor="middle" visibility="hidden" style="font-size: 13px;">T</text><text y="358" x="235.92592592592592" text-anchor="middle" visibility="hidden" style="font-size: 13px;">A</text><text y="358" x="238.5185185185185" text-anchor="middle" visibility="hidden" style="font-size: 13px;">V</text><text y="358" x="241.11111111111111" text-anchor="middle" visibility="hidden" style="font-size: 13px;">I</text><text y="358" x="243.7037037037037" text-anchor="middle" visibility="hidden" style="font-size: 13px;">D</text><text y="358" x="246.2962962962963" text-anchor="middle" visibility="hidden" style="font-size: 13px;">G</text><text y="358" x="248.88888888888889" text-anchor="middle" visibility="hidden" style="font-size: 13px;">E</text><text y="358" x="251.4814814814815" text-anchor="middle" visibility="hidden" style="font-size: 13px;">F</text><text y="358" x="254.0740740740741" text-anchor="middle" visibility="hidden" style="font-size: 13px;">K</text><text y="358" x="256.66666666666663" text-anchor="middle" visibility="hidden" style="font-size: 13px;">E</text><text y="358" x="259.25925925925924" text-anchor="middle" visibility="hidden" style="font-size: 13px;">L</text><text y="358" x="261.85185185185185" text-anchor="middle" visibility="hidden" style="font-size: 13px;">K</text><text y="358" x="264.44444444444446" text-anchor="middle" visibility="hidden" style="font-size: 13px;">L</text><text y="358" x="267.037037037037" text-anchor="middle" visibility="hidden" style="font-size: 13px;">T</text><text y="358" x="269.6296296296296" text-anchor="middle" visibility="hidden" style="font-size: 13px;">D</text><text y="358" x="272.22222222222223" text-anchor="middle" visibility="hidden" style="font-size: 13px;">Y</text><text y="358" x="274.81481481481484" text-anchor="middle" visibility="hidden" style="font-size: 13px;">R</text><text y="358" x="277.40740740740745" text-anchor="middle" visibility="hidden" style="font-size: 13px;">G</text><text y="358" x="280" text-anchor="middle" visibility="hidden" style="font-size: 13px;">K</text><text y="358" x="282.5925925925926" text-anchor="middle" visibility="hidden" style="font-size: 13px;">Y</text><text y="358" x="285.18518518518516" text-anchor="middle" visibility="hidden" style="font-size: 13px;">L</text><text y="358" x="287.77777777777777" text-anchor="middle" visibility="hidden" style="font-size: 13px;">V</text><text y="358" x="290.3703703703704" text-anchor="middle" visibility="hidden" style="font-size: 13px;">F</text><text y="358" x="292.96296296296293" text-anchor="middle" visibility="hidden" style="font-size: 13px;">F</text><text y="358" x="295.55555555555554" text-anchor="middle" visibility="hidden" style="font-size: 13px;">F</text><text y="358" x="298.14814814814815" text-anchor="middle" visibility="hidden" style="font-size: 13px;">Y</text><text y="358" x="300.74074074074076" text-anchor="middle" visibility="hidden" style="font-size: 13px;">P</text><text y="358" x="303.33333333333337" text-anchor="middle" visibility="hidden" style="font-size: 13px;">L</text><text y="358" x="305.9259259259259" text-anchor="middle" visibility="hidden" style="font-size: 13px;">D</text><text y="358" x="308.51851851851853" text-anchor="middle" visibility="hidden" style="font-size: 13px;">F</text><text y="358" x="311.1111111111111" text-anchor="middle" visibility="hidden" style="font-size: 13px;">T</text><text y="358" x="313.7037037037037" text-anchor="middle" visibility="hidden" style="font-size: 13px;">F</text><text y="358" x="316.2962962962963" text-anchor="middle" visibility="hidden" style="font-size: 13px;">V</text><text y="358" x="318.88888888888886" text-anchor="middle" visibility="hidden" style="font-size: 13px;">C</text><text y="358" x="321.48148148148147" text-anchor="middle" visibility="hidden" style="font-size: 13px;">P</text><text y="358" x="324.0740740740741" text-anchor="middle" visibility="hidden" style="font-size: 13px;">T</text><text y="358" x="326.6666666666667" text-anchor="middle" visibility="hidden" style="font-size: 13px;">E</text><text y="358" x="329.2592592592593" text-anchor="middle" visibility="hidden" style="font-size: 13px;">I</text><text y="358" x="331.85185185185185" text-anchor="middle" visibility="hidden" style="font-size: 13px;">I</text><text y="358" x="334.44444444444446" text-anchor="middle" visibility="hidden" style="font-size: 13px;">A</text><text y="358" x="337.037037037037" text-anchor="middle" visibility="hidden" style="font-size: 13px;">F</text><text y="358" x="339.6296296296296" text-anchor="middle" visibility="hidden" style="font-size: 13px;">G</text><text y="358" x="342.22222222222223" text-anchor="middle" visibility="hidden" style="font-size: 13px;">D</text><text y="358" x="344.8148148148148" text-anchor="middle" visibility="hidden" style="font-size: 13px;">R</text><text y="358" x="347.4074074074074" text-anchor="middle" visibility="hidden" style="font-size: 13px;">L</text><text y="358" x="350" text-anchor="middle" visibility="hidden" style="font-size: 13px;">E</text><text y="358" x="352.59259259259255" text-anchor="middle" visibility="hidden" style="font-size: 13px;">E</text><text y="358" x="355.1851851851852" text-anchor="middle" visibility="hidden" style="font-size: 13px;">F</text><text y="358" x="357.77777777777777" text-anchor="middle" visibility="hidden" style="font-size: 13px;">R</text><text y="358" x="360.3703703703704" text-anchor="middle" visibility="hidden" style="font-size: 13px;">S</text><text y="358" x="362.96296296296293" text-anchor="middle" visibility="hidden" style="font-size: 13px;">I</text><text y="358" x="365.5555555555556" text-anchor="middle" visibility="hidden" style="font-size: 13px;">N</text><text y="358" x="368.14814814814815" text-anchor="middle" visibility="hidden" style="font-size: 13px;">T</text><text y="358" x="370.74074074074076" text-anchor="middle" visibility="hidden" style="font-size: 13px;">E</text><text y="358" x="373.3333333333333" text-anchor="middle" visibility="hidden" style="font-size: 13px;">V</text><text y="358" x="375.925925925926" text-anchor="middle" visibility="hidden" style="font-size: 13px;">V</text><text y="358" x="378.51851851851853" text-anchor="middle" visibility="hidden" style="font-size: 13px;">A</text><text y="358" x="381.1111111111111" text-anchor="middle" visibility="hidden" style="font-size: 13px;">C</text><text y="358" x="383.7037037037037" text-anchor="middle" visibility="hidden" style="font-size: 13px;">S</text><text y="358" x="386.29629629629625" text-anchor="middle" visibility="hidden" style="font-size: 13px;">V</text><text y="358" x="388.8888888888889" text-anchor="middle" visibility="hidden" style="font-size: 13px;">D</text><text y="358" x="391.48148148148147" text-anchor="middle" visibility="hidden" style="font-size: 13px;">S</text><text y="358" x="394.0740740740741" text-anchor="middle" visibility="hidden" style="font-size: 13px;">Q</text><text y="358" x="396.66666666666663" text-anchor="middle" visibility="hidden" style="font-size: 13px;">F</text><text y="358" x="399.2592592592593" text-anchor="middle" visibility="hidden" style="font-size: 13px;">T</text><text y="358" x="401.85185185185185" text-anchor="middle" visibility="hidden" style="font-size: 13px;">H</text><text y="358" x="404.4444444444444" text-anchor="middle" visibility="hidden" style="font-size: 13px;">L</text><text y="358" x="407.03703703703707" text-anchor="middle" visibility="hidden" style="font-size: 13px;">A</text><text y="358" x="409.6296296296296" text-anchor="middle" visibility="hidden" style="font-size: 13px;">W</text><text y="358" x="412.22222222222223" text-anchor="middle" visibility="hidden" style="font-size: 13px;">I</text><text y="358" x="414.8148148148148" text-anchor="middle" visibility="hidden" style="font-size: 13px;">N</text><text y="358" x="417.40740740740745" text-anchor="middle" visibility="hidden" style="font-size: 13px;">T</text><text y="358" x="420" text-anchor="middle" visibility="hidden" style="font-size: 13px;">P</text><text y="358" x="422.5925925925926" text-anchor="middle" visibility="hidden" style="font-size: 13px;">R</text><text y="358" x="425.18518518518516" text-anchor="middle" visibility="hidden" style="font-size: 13px;">R</text><text y="358" x="427.7777777777778" text-anchor="middle" visibility="hidden" style="font-size: 13px;">Q</text><text y="358" x="430.3703703703704" text-anchor="middle" visibility="hidden" style="font-size: 13px;">G</text><text y="358" x="432.96296296296293" text-anchor="middle" visibility="hidden" style="font-size: 13px;">G</text><text y="358" x="435.55555555555554" text-anchor="middle" visibility="hidden" style="font-size: 13px;">L</text><text y="358" x="438.1481481481481" text-anchor="middle" visibility="hidden" style="font-size: 13px;">G</text><text y="358" x="440.74074074074076" text-anchor="middle" visibility="hidden" style="font-size: 13px;">P</text><text y="358" x="443.3333333333333" text-anchor="middle" visibility="hidden" style="font-size: 13px;">I</text><text y="358" x="445.9259259259259" text-anchor="middle" visibility="hidden" style="font-size: 13px;">R</text><text y="358" x="448.51851851851853" text-anchor="middle" visibility="hidden" style="font-size: 13px;">I</text><text y="358" x="451.11111111111114" text-anchor="middle" visibility="hidden" style="font-size: 13px;">P</text><text y="358" x="453.7037037037037" text-anchor="middle" visibility="hidden" style="font-size: 13px;">L</text><text y="358" x="456.2962962962963" text-anchor="middle" visibility="hidden" style="font-size: 13px;">L</text><text y="358" x="458.8888888888889" text-anchor="middle" visibility="hidden" style="font-size: 13px;">S</text><text y="358" x="461.48148148148147" text-anchor="middle" visibility="hidden" style="font-size: 13px;">D</text><text y="358" x="464.0740740740741" text-anchor="middle" visibility="hidden" style="font-size: 13px;">L</text><text y="358" x="466.66666666666663" text-anchor="middle" visibility="hidden" style="font-size: 13px;">T</text><text y="358" x="469.2592592592593" text-anchor="middle" visibility="hidden" style="font-size: 13px;">H</text><text y="358" x="471.85185185185185" text-anchor="middle" visibility="hidden" style="font-size: 13px;">Q</text><text y="358" x="474.44444444444446" text-anchor="middle" visibility="hidden" style="font-size: 13px;">I</text><text y="358" x="477.037037037037" text-anchor="middle" visibility="hidden" style="font-size: 13px;">S</text><text y="358" x="479.6296296296297" text-anchor="middle" visibility="hidden" style="font-size: 13px;">K</text><text y="358" x="482.22222222222223" text-anchor="middle" visibility="hidden" style="font-size: 13px;">D</text><text y="358" x="484.8148148148148" text-anchor="middle" visibility="hidden" style="font-size: 13px;">Y</text><text y="358" x="487.4074074074074" text-anchor="middle" visibility="hidden" style="font-size: 13px;">G</text><text y="358" x="489.99999999999994" text-anchor="middle" visibility="hidden" style="font-size: 13px;">V</text><text y="358" x="492.5925925925926" text-anchor="middle" visibility="hidden" style="font-size: 13px;">Y</text><text y="358" x="495.18518518518516" text-anchor="middle" visibility="hidden" style="font-size: 13px;">L</text><text y="358" x="497.77777777777777" text-anchor="middle" visibility="hidden" style="font-size: 13px;">E</text><text y="358" x="500.3703703703704" text-anchor="middle" visibility="hidden" style="font-size: 13px;">D</text><text y="358" x="502.962962962963" text-anchor="middle" visibility="hidden" style="font-size: 13px;">S</text><text y="358" x="505.55555555555554" text-anchor="middle" visibility="hidden" style="font-size: 13px;">G</text><text y="358" x="508.1481481481482" text-anchor="middle" visibility="hidden" style="font-size: 13px;">H</text><text y="358" x="510.74074074074076" text-anchor="middle" visibility="hidden" style="font-size: 13px;">T</text><text y="358" x="513.3333333333333" text-anchor="middle" visibility="hidden" style="font-size: 13px;">L</text><text y="358" x="515.925925925926" text-anchor="middle" visibility="hidden" style="font-size: 13px;">R</text><text y="358" x="518.5185185185185" text-anchor="middle" visibility="hidden" style="font-size: 13px;">G</text><text y="358" x="521.1111111111111" text-anchor="middle" visibility="hidden" style="font-size: 13px;">L</text><text y="358" x="523.7037037037037" text-anchor="middle" visibility="hidden" style="font-size: 13px;">F</text><text y="358" x="526.2962962962963" text-anchor="middle" visibility="hidden" style="font-size: 13px;">I</text><text y="358" x="528.8888888888889" text-anchor="middle" visibility="hidden" style="font-size: 13px;">I</text><text y="358" x="531.4814814814815" text-anchor="middle" visibility="hidden" style="font-size: 13px;">D</text><text y="358" x="534.074074074074" text-anchor="middle" visibility="hidden" style="font-size: 13px;">D</text><text y="358" x="536.6666666666667" text-anchor="middle" visibility="hidden" style="font-size: 13px;">K</text><text y="358" x="539.2592592592592" text-anchor="middle" visibility="hidden" style="font-size: 13px;">G</text><text y="358" x="541.8518518518518" text-anchor="middle" visibility="hidden" style="font-size: 13px;">I</text><text y="358" x="544.4444444444445" text-anchor="middle" visibility="hidden" style="font-size: 13px;">L</text><text y="358" x="547.0370370370371" text-anchor="middle" visibility="hidden" style="font-size: 13px;">R</text><text y="358" x="549.6296296296297" text-anchor="middle" visibility="hidden" style="font-size: 13px;">Q</text><text y="358" x="552.2222222222222" text-anchor="middle" visibility="hidden" style="font-size: 13px;">I</text><text y="358" x="554.8148148148149" text-anchor="middle" visibility="hidden" style="font-size: 13px;">T</text><text y="358" x="557.4074074074074" text-anchor="middle" visibility="hidden" style="font-size: 13px;">L</text><text y="358" x="560" text-anchor="middle" visibility="hidden" style="font-size: 13px;">N</text><text y="358" x="562.5925925925926" text-anchor="middle" visibility="hidden" style="font-size: 13px;">D</text><text y="358" x="565.1851851851852" text-anchor="middle" visibility="hidden" style="font-size: 13px;">L</text><text y="358" x="567.7777777777778" text-anchor="middle" visibility="hidden" style="font-size: 13px;">P</text><text y="358" x="570.3703703703703" text-anchor="middle" visibility="hidden" style="font-size: 13px;">V</text><text y="358" x="572.9629629629629" text-anchor="middle" visibility="hidden" style="font-size: 13px;">G</text><text y="358" x="575.5555555555555" text-anchor="middle" visibility="hidden" style="font-size: 13px;">R</text><text y="358" x="578.1481481481482" text-anchor="middle" visibility="hidden" style="font-size: 13px;">S</text><text y="358" x="580.7407407407408" text-anchor="middle" visibility="hidden" style="font-size: 13px;">V</text><text y="358" x="583.3333333333334" text-anchor="middle" visibility="hidden" style="font-size: 13px;">D</text><text y="358" x="585.9259259259259" text-anchor="middle" visibility="hidden" style="font-size: 13px;">E</text><text y="358" x="588.5185185185186" text-anchor="middle" visibility="hidden" style="font-size: 13px;">T</text><text y="358" x="591.1111111111111" text-anchor="middle" visibility="hidden" style="font-size: 13px;">L</text><text y="358" x="593.7037037037037" text-anchor="middle" visibility="hidden" style="font-size: 13px;">R</text><text y="358" x="596.2962962962963" text-anchor="middle" visibility="hidden" style="font-size: 13px;">L</text><text y="358" x="598.8888888888889" text-anchor="middle" visibility="hidden" style="font-size: 13px;">V</text><text y="358" x="601.4814814814815" text-anchor="middle" visibility="hidden" style="font-size: 13px;">Q</text><text y="358" x="604.074074074074" text-anchor="middle" visibility="hidden" style="font-size: 13px;">A</text><text y="358" x="606.6666666666667" text-anchor="middle" visibility="hidden" style="font-size: 13px;">F</text><text y="358" x="609.2592592592592" text-anchor="middle" visibility="hidden" style="font-size: 13px;">Q</text><text y="358" x="611.8518518518518" text-anchor="middle" visibility="hidden" style="font-size: 13px;">Y</text><text y="358" x="614.4444444444445" text-anchor="middle" visibility="hidden" style="font-size: 13px;">T</text><text y="358" x="617.0370370370371" text-anchor="middle" visibility="hidden" style="font-size: 13px;">D</text><text y="358" x="619.6296296296297" text-anchor="middle" visibility="hidden" style="font-size: 13px;">K</text><text y="358" x="622.2222222222222" text-anchor="middle" visibility="hidden" style="font-size: 13px;">H</text><text y="358" x="624.8148148148148" text-anchor="middle" visibility="hidden" style="font-size: 13px;">G</text><text y="358" x="627.4074074074074" text-anchor="middle" visibility="hidden" style="font-size: 13px;">E</text><text y="358" x="630" text-anchor="middle" visibility="hidden" style="font-size: 13px;">V</text><text y="358" x="632.5925925925926" text-anchor="middle" visibility="hidden" style="font-size: 13px;">C</text><text y="358" x="635.1851851851852" text-anchor="middle" visibility="hidden" style="font-size: 13px;">P</text><text y="358" x="637.7777777777777" text-anchor="middle" visibility="hidden" style="font-size: 13px;">A</text><text y="358" x="640.3703703703704" text-anchor="middle" visibility="hidden" style="font-size: 13px;">G</text><text y="358" x="642.9629629629629" text-anchor="middle" visibility="hidden" style="font-size: 13px;">W</text><text y="358" x="645.5555555555555" text-anchor="middle" visibility="hidden" style="font-size: 13px;">K</text><text y="358" x="648.1481481481482" text-anchor="middle" visibility="hidden" style="font-size: 13px;">P</text><text y="358" x="650.7407407407408" text-anchor="middle" visibility="hidden" style="font-size: 13px;">G</text><text y="358" x="653.3333333333334" text-anchor="middle" visibility="hidden" style="font-size: 13px;">S</text><text y="358" x="655.9259259259259" text-anchor="middle" visibility="hidden" style="font-size: 13px;">E</text><text y="358" x="658.5185185185186" text-anchor="middle" visibility="hidden" style="font-size: 13px;">T</text><text y="358" x="661.1111111111111" text-anchor="middle" visibility="hidden" style="font-size: 13px;">I</text><text y="358" x="663.7037037037037" text-anchor="middle" visibility="hidden" style="font-size: 13px;">I</text><text y="358" x="666.2962962962963" text-anchor="middle" visibility="hidden" style="font-size: 13px;">P</text><text y="358" x="668.8888888888889" text-anchor="middle" visibility="hidden" style="font-size: 13px;">D</text><text y="358" x="671.4814814814815" text-anchor="middle" visibility="hidden" style="font-size: 13px;">P</text><text y="358" x="674.074074074074" text-anchor="middle" visibility="hidden" style="font-size: 13px;">A</text><text y="358" x="676.6666666666666" text-anchor="middle" visibility="hidden" style="font-size: 13px;">G</text><text y="358" x="679.2592592592592" text-anchor="middle" visibility="hidden" style="font-size: 13px;">K</text><text y="358" x="681.8518518518518" text-anchor="middle" visibility="hidden" style="font-size: 13px;">L</text><text y="358" x="684.4444444444445" text-anchor="middle" visibility="hidden" style="font-size: 13px;">K</text><text y="358" x="687.0370370370371" text-anchor="middle" visibility="hidden" style="font-size: 13px;">Y</text><text y="358" x="689.6296296296296" text-anchor="middle" visibility="hidden" style="font-size: 13px;">F</text><text y="358" x="692.2222222222223" text-anchor="middle" visibility="hidden" style="font-size: 13px;">D</text><text y="358" x="694.8148148148148" text-anchor="middle" visibility="hidden" style="font-size: 13px;">K</text><text y="358" x="697.4074074074074" text-anchor="middle" visibility="hidden" style="font-size: 13px;">L</text><text y="358" x="700" text-anchor="middle" visibility="hidden" style="font-size: 13px;">N</text></g></g></svg><g class="xAxis" transform="translate(0,360)" fill="none" font-size="10" font-family="sans-serif" text-anchor="middle"><path class="domain" stroke="#000" d="M0.5,6V0.5H700.5V6"></path><g class="tick" opacity="1" transform="translate(49.75925925925926,0)"><line stroke="#000" y2="6"></line><text fill="#000" y="9" dy="0.71em">20</text></g><g class="tick" opacity="1" transform="translate(101.6111111111111,0)"><line stroke="#000" y2="6"></line><text fill="#000" y="9" dy="0.71em">40</text></g><g class="tick" opacity="1" transform="translate(153.46296296296296,0)"><line stroke="#000" y2="6"></line><text fill="#000" y="9" dy="0.71em">60</text></g><g class="tick" opacity="1" transform="translate(205.3148148148148,0)"><line stroke="#000" y2="6"></line><text fill="#000" y="9" dy="0.71em">80</text></g><g class="tick" opacity="1" transform="translate(257.16666666666663,0)"><line stroke="#000" y2="6"></line><text fill="#000" y="9" dy="0.71em">100</text></g><g class="tick" opacity="1" transform="translate(309.01851851851853,0)"><line stroke="#000" y2="6"></line><text fill="#000" y="9" dy="0.71em">120</text></g><g class="tick" opacity="1" transform="translate(360.8703703703704,0)"><line stroke="#000" y2="6"></line><text fill="#000" y="9" dy="0.71em">140</text></g><g class="tick" opacity="1" transform="translate(412.72222222222223,0)"><line stroke="#000" y2="6"></line><text fill="#000" y="9" dy="0.71em">160</text></g><g class="tick" opacity="1" transform="translate(464.5740740740741,0)"><line stroke="#000" y2="6"></line><text fill="#000" y="9" dy="0.71em">180</text></g><g class="tick" opacity="1" transform="translate(516.425925925926,0)"><line stroke="#000" y2="6"></line><text fill="#000" y="9" dy="0.71em">200</text></g><g class="tick" opacity="1" transform="translate(568.2777777777778,0)"><line stroke="#000" y2="6"></line><text fill="#000" y="9" dy="0.71em">220</text></g><g class="tick" opacity="1" transform="translate(620.1296296296297,0)"><line stroke="#000" y2="6"></line><text fill="#000" y="9" dy="0.71em">240</text></g><g class="tick" opacity="1" transform="translate(671.9814814814815,0)"><line stroke="#000" y2="6"></line><text fill="#000" y="9" dy="0.71em">260</text></g></g><text class="x label" text-anchor="end" x="700" y="390" style="font-size: 13px; font-family: Arial;">Residue number</text><g class="yAxis" fill="none" font-size="10" font-family="sans-serif" text-anchor="end"><path class="domain" stroke="#000" d="M-6,360.5H0.5V0.5H-6"></path><g class="tick" opacity="1" transform="translate(0,327.77272727272725)"><line stroke="#000" x2="-6"></line><text fill="#000" x="-9" dy="0.32em">0</text></g><g class="tick" opacity="1" transform="translate(0,290.58264462809916)"><line stroke="#000" x2="-6"></line><text fill="#000" x="-9" dy="0.32em">2</text></g><g class="tick" opacity="1" transform="translate(0,253.3925619834711)"><line stroke="#000" x2="-6"></line><text fill="#000" x="-9" dy="0.32em">4</text></g><g class="tick" opacity="1" transform="translate(0,216.202479338843)"><line stroke="#000" x2="-6"></line><text fill="#000" x="-9" dy="0.32em">6</text></g><g class="tick" opacity="1" transform="translate(0,179.0123966942149)"><line stroke="#000" x2="-6"></line><text fill="#000" x="-9" dy="0.32em">8</text></g><g class="tick" opacity="1" transform="translate(0,141.82231404958682)"><line stroke="#000" x2="-6"></line><text fill="#000" x="-9" dy="0.32em">10</text></g><g class="tick" opacity="1" transform="translate(0,104.63223140495873)"><line stroke="#000" x2="-6"></line><text fill="#000" x="-9" dy="0.32em">12</text></g><g class="tick" opacity="1" transform="translate(0,67.44214876033061)"><line stroke="#000" x2="-6"></line><text fill="#000" x="-9" dy="0.32em">14</text></g><g class="tick" opacity="1" transform="translate(0,30.25206611570252)"><line stroke="#000" x2="-6"></line><text fill="#000" x="-9" dy="0.32em">16</text></g></g><text class="y label" text-anchor="middle" y="-50" x="-180" dy="0.8em" transform="rotate(-90)" style="font-size: 13px; font-family: Arial;">Total number of references</text><g class="axisRed" fill="none" font-size="10" font-family="sans-serif" text-anchor="start" visibility="hidden" transform="translate(700, 0)"><path class="domain" stroke="#000" d="M6,360.5H0.5V0.5H6"></path><g class="tick" opacity="1" transform="translate(0,360.5)"><line stroke="#000" x2="6"></line><text fill="#000" x="9" dy="0.32em">0</text></g><text text-anchor="start" dx="5.2em" dy="-2.6em" transform="rotate(90)" visibility="hidden" style="font-size: 12px; font-family: Arial; fill: #d7301f;">No recurrent (&gt;2) missense mutations!</text></g><g class="axisPurple" fill="none" font-size="10" font-family="sans-serif" text-anchor="start" visibility="hidden"><path class="domain" stroke="#000" d="M6,360.5H0.5V0.5H6"></path><g class="tick" opacity="1" transform="translate(0,357.52479338842977)"><line stroke="#000" x2="6"></line><text fill="#000" x="9" dy="0.32em"></text></g><g class="tick" opacity="1" transform="translate(0,327.77272727272725)"><line stroke="#000" x2="6"></line><text fill="#000" x="9" dy="0.32em">0</text></g><g class="tick" opacity="1" transform="translate(0,298.0206611570248)"><line stroke="#000" x2="6"></line><text fill="#000" x="9" dy="0.32em">0.1</text></g><g class="tick" opacity="1" transform="translate(0,268.2685950413223)"><line stroke="#000" x2="6"></line><text fill="#000" x="9" dy="0.32em">0.2</text></g><g class="tick" opacity="1" transform="translate(0,238.51652892561984)"><line stroke="#000" x2="6"></line><text fill="#000" x="9" dy="0.32em">0.3</text></g><g class="tick" opacity="1" transform="translate(0,208.76446280991738)"><line stroke="#000" x2="6"></line><text fill="#000" x="9" dy="0.32em">0.4</text></g><g class="tick" opacity="1" transform="translate(0,179.0123966942149)"><line stroke="#000" x2="6"></line><text fill="#000" x="9" dy="0.32em">0.5</text></g><g class="tick" opacity="1" transform="translate(0,149.26033057851242)"><line stroke="#000" x2="6"></line><text fill="#000" x="9" dy="0.32em">0.6</text></g><g class="tick" opacity="1" transform="translate(0,119.50826446280996)"><line stroke="#000" x2="6"></line><text fill="#000" x="9" dy="0.32em">0.7</text></g><g class="tick" opacity="1" transform="translate(0,89.75619834710744)"><line stroke="#000" x2="6"></line><text fill="#000" x="9" dy="0.32em">0.8</text></g><g class="tick" opacity="1" transform="translate(0,60.00413223140498)"><line stroke="#000" x2="6"></line><text fill="#000" x="9" dy="0.32em">0.9</text></g><g class="tick" opacity="1" transform="translate(0,30.25206611570252)"><line stroke="#000" x2="6"></line><text fill="#000" x="9" dy="0.32em">1</text></g><g class="tick" opacity="1" transform="translate(0,0.5)"><line stroke="#000" x2="6"></line><text fill="#000" x="9" dy="0.32em">1.1</text></g><text text-anchor="start" x="10" y="10" visibility="hidden" style="font-size: 12px; font-family: Arial; fill: #807dba;">No disease causing germline SNPs known!</text></g><circle cx="636" cy="15" r="10" class="compassNav" style="fill: #ffffff; stroke: #666666; stroke-width: 1px;"></circle><path d="M440.935 12.574l3.966 82.766C399.416 41.904 331.674 8 256 8 134.813 8 33.933 94.924 12.296 209.824 10.908 217.193 16.604 224 24.103 224h49.084c5.57 0 10.377-3.842 11.676-9.259C103.407 137.408 172.931 80 256 80c60.893 0 114.512 30.856 146.104 77.801l-101.53-4.865c-6.845-.328-12.574 5.133-12.574 11.986v47.411c0 6.627 5.373 12 12 12h200.333c6.627 0 12-5.373 12-12V12c0-6.627-5.373-12-12-12h-47.411c-6.853 0-12.315 5.729-11.987 12.574zM256 432c-60.895 0-114.517-30.858-146.109-77.805l101.868 4.871c6.845.327 12.573-5.134 12.573-11.986v-47.412c0-6.627-5.373-12-12-12H12c-6.627 0-12 5.373-12 12V500c0 6.627 5.373 12 12 12h47.385c6.863 0 12.328-5.745 11.985-12.599l-4.129-82.575C112.725 470.166 180.405 504 256 504c121.187 0 222.067-86.924 243.704-201.824 1.388-7.369-4.308-14.176-11.807-14.176h-49.084c-5.57 0-10.377 3.842-11.676 9.259C408.593 374.592 339.069 432 256 432z" class="compassNav" transform="translate(631, 10) scale(0.02)" style="fill: #666666; stroke: #666666; stroke-width: 1px;"></path><circle cx="658" cy="15" r="10" class="compassNav" style="fill: #ffffff; stroke: #666666; stroke-width: 1px;"></circle><line class="compassNav" stroke-width="2" stroke="#666666" x1="654" y1="15" x2="662" y2="15"></line><line class="compassNav" stroke-width="2" stroke="#666666" x1="658" y1="11" x2="658" y2="19"></line><circle cx="614" cy="15" r="10" class="compassNav" style="fill: #ffffff; stroke: #666666; stroke-width: 1px;"></circle><line class="compassNav" stroke-width="2" stroke="#666666" x1="610" y1="15" x2="618" y2="15"></line><path d="M582 14 l20 -12 a100,40 0 0,0 0,24z" class="compassNav" style="fill: #ffffff; stroke: #666666; stroke-width: 1px;"></path><path d="M690 14 l-20 -12 a100,40 0 0,1 0,24z" class="compassNav" style="fill: #ffffff; stroke: #666666; stroke-width: 1px;"></path><path d="M216 0h80c13.3 0 24 10.7 24 24v168h87.7c17.8 0 26.7 21.5 14.1 34.1L269.7 378.3c-7.5 7.5-19.8 7.5-27.3 0L90.1 226.1c-12.6-12.6-3.7-34.1 14.1-34.1H192V24c0-13.3 10.7-24 24-24zm296 376v112c0 13.3-10.7 24-24 24H24c-13.3 0-24-10.7-24-24V376c0-13.3 10.7-24 24-24h146.7l49 49c20.1 20.1 52.5 20.1 72.6 0l49-49H488c13.3 0 24 10.7 24 24zm-124 88c0-11-9-20-20-20s-20 9-20 20 9 20 20 20 20-9 20-20zm64 0c0-11-9-20-20-20s-20 9-20 20 9 20 20 20 20-9 20-20z" class="compassNav" transform="translate(552,0) scale(0.05)" style="fill: #336699; stroke: #336699; stroke-width: 1px; cursor: pointer;"></path></g></svg>