<svg width="800" height="400" style="background-color: white;"><g transform="translate(50,0)"><svg width="700" height="360"><g style="-webkit-tap-highlight-color: rgba(0, 0, 0, 0);"><rect width="700" height="360" style="fill: #ffffff;"></rect><g id="lines"><line class="line" stroke-width="1" stroke="#d7301f" x1="-321.3636363636364" y1="333" x2="-321.3636363636364" y2="360" visibility="hidden" style="stroke-dasharray: 3px, 3px;"></line></g><g><rect x="-326.3636363636364" y="355" width="10" height="10" visibility="hidden" style="fill: #ffffff; stroke: #d7301f;"></rect></g><g id="lines"><line class="line" stroke-width="1" stroke="#6a51a3" x1="-321.3636363636364" y1="333" x2="-321.3636363636364" y2="327.27272727272725" visibility="hidden" style="stroke-dasharray: 3px, 3px;"></line></g><g><rect x="-326.3636363636364" y="322.27272727272725" width="10" height="10" visibility="hidden" style="fill: #ffffff; stroke: #6a51a3;"></rect></g><g id="lines"><line class="line" stroke-width="1" stroke="#666666" x1="3.1818181818181817" y1="333" x2="3.1818181818181817" y2="322.8974234321828"></line><line class="line" stroke-width="1" stroke="#666666" x1="22.27272727272727" y1="333" x2="22.27272727272727" y2="326.54350996596986"></line><line class="line" stroke-width="1" stroke="#666666" x1="50.90909090909091" y1="333" x2="50.90909090909091" y2="323.6266407389402"></line><line class="line" stroke-width="1" stroke="#666666" x1="85.9090909090909" y1="333" x2="85.9090909090909" y2="323.6266407389402"></line><line class="line" stroke-width="1" stroke="#666666" x1="108.18181818181817" y1="333" x2="108.18181818181817" y2="325.085075352455"></line><line class="line" stroke-width="1" stroke="#666666" x1="111.36363636363636" y1="333" x2="111.36363636363636" y2="317.0636849781235"></line><line class="line" stroke-width="1" stroke="#666666" x1="111.36363636363636" y1="333" x2="111.36363636363636" y2="326.54350996596986"></line><line class="line" stroke-width="1" stroke="#666666" x1="143.1818181818182" y1="333" x2="143.1818181818182" y2="325.81429265921247"></line><line class="line" stroke-width="1" stroke="#666666" x1="197.27272727272725" y1="333" x2="197.27272727272725" y2="326.54350996596986"></line><line class="line" stroke-width="1" stroke="#666666" x1="219.54545454545456" y1="333" x2="219.54545454545456" y2="241.22508507535247"></line><line class="line" stroke-width="1" stroke="#666666" x1="235.45454545454547" y1="333" x2="235.45454545454547" y2="313.4175984443364"></line><line class="line" stroke-width="1" stroke="#666666" x1="276.8181818181818" y1="333" x2="276.8181818181818" y2="325.085075352455"></line><line class="line" stroke-width="1" stroke="#666666" x1="292.7272727272727" y1="333" x2="292.7272727272727" y2="322.1682061254254"></line><line class="line" stroke-width="1" stroke="#666666" x1="308.6363636363636" y1="333" x2="308.6363636363636" y2="323.6266407389402"></line><line class="line" stroke-width="1" stroke="#666666" x1="318.1818181818182" y1="333" x2="318.1818181818182" y2="325.81429265921247"></line><line class="line" stroke-width="1" stroke="#666666" x1="404.09090909090907" y1="333" x2="404.09090909090907" y2="324.35585804569763"></line><line class="line" stroke-width="1" stroke="#666666" x1="416.8181818181818" y1="333" x2="416.8181818181818" y2="326.54350996596986"></line><line class="line" stroke-width="1" stroke="#666666" x1="439.0909090909091" y1="333" x2="439.0909090909091" y2="325.085075352455"></line><line class="line" stroke-width="1" stroke="#666666" x1="455" y1="333" x2="455" y2="325.085075352455"></line><line class="line" stroke-width="1" stroke="#666666" x1="480.4545454545455" y1="333" x2="480.4545454545455" y2="326.54350996596986"></line><line class="line" stroke-width="1" stroke="#666666" x1="486.8181818181818" y1="333" x2="486.8181818181818" y2="326.54350996596986"></line><line class="line" stroke-width="1" stroke="#666666" x1="489.99999999999994" y1="333" x2="489.99999999999994" y2="325.085075352455"></line><line class="line" stroke-width="1" stroke="#666666" x1="505.90909090909093" y1="333" x2="505.90909090909093" y2="325.085075352455"></line><line class="line" stroke-width="1" stroke="#666666" x1="515.4545454545454" y1="333" x2="515.4545454545454" y2="326.54350996596986"></line><line class="line" stroke-width="1" stroke="#666666" x1="518.6363636363636" y1="333" x2="518.6363636363636" y2="326.54350996596986"></line><line class="line" stroke-width="1" stroke="#666666" x1="531.3636363636364" y1="333" x2="531.3636363636364" y2="326.54350996596986"></line><line class="line" stroke-width="1" stroke="#666666" x1="534.5454545454546" y1="333" x2="534.5454545454546" y2="324.35585804569763"></line><line class="line" stroke-width="1" stroke="#666666" x1="540.9090909090909" y1="333" x2="540.9090909090909" y2="326.54350996596986"></line><line class="line" stroke-width="1" stroke="#666666" x1="563.1818181818182" y1="333" x2="563.1818181818182" y2="324.35585804569763"></line><line class="line" stroke-width="1" stroke="#666666" x1="566.3636363636364" y1="333" x2="566.3636363636364" y2="289.35342732134177"></line><line class="line" stroke-width="1" stroke="#666666" x1="572.7272727272727" y1="333" x2="572.7272727272727" y2="326.54350996596986"></line><line class="line" stroke-width="1" stroke="#666666" x1="591.8181818181819" y1="333" x2="591.8181818181819" y2="325.81429265921247"></line><line class="line" stroke-width="1" stroke="#666666" x1="595" y1="333" x2="595" y2="326.54350996596986"></line><line class="line" stroke-width="1" stroke="#666666" x1="598.1818181818181" y1="333" x2="598.1818181818181" y2="288.6242100145844"></line><line class="line" stroke-width="1" stroke="#666666" x1="601.3636363636364" y1="333" x2="601.3636363636364" y2="325.81429265921247"></line><line class="line" stroke-width="1" stroke="#666666" x1="607.7272727272727" y1="333" x2="607.7272727272727" y2="324.35585804569763"></line><line class="line" stroke-width="1" stroke="#666666" x1="610.9090909090909" y1="333" x2="610.9090909090909" y2="310.50072921730674"></line><line class="line" stroke-width="1" stroke="#666666" x1="614.0909090909091" y1="333" x2="614.0909090909091" y2="325.085075352455"></line><line class="line" stroke-width="1" stroke="#666666" x1="617.2727272727273" y1="333" x2="617.2727272727273" y2="322.8974234321828"></line><line class="line" stroke-width="1" stroke="#666666" x1="623.6363636363636" y1="333" x2="623.6363636363636" y2="320.70977151191056"></line><line class="line" stroke-width="1" stroke="#666666" x1="630" y1="333" x2="630" y2="319.2513368983957"></line><line class="line" stroke-width="1" stroke="#666666" x1="645.9090909090909" y1="333" x2="645.9090909090909" y2="186.53378706854642"></line><line class="line" stroke-width="1" stroke="#666666" x1="652.2727272727273" y1="333" x2="652.2727272727273" y2="325.085075352455"></line><line class="line" stroke-width="1" stroke="#666666" x1="658.6363636363636" y1="333" x2="658.6363636363636" y2="317.7929022848809"></line><line class="line" stroke-width="1" stroke="#666666" x1="661.8181818181818" y1="333" x2="661.8181818181818" y2="324.35585804569763"></line><line class="line" stroke-width="1" stroke="#666666" x1="668.1818181818182" y1="333" x2="668.1818181818182" y2="29.75206611570252"></line><line class="line" stroke-width="1" stroke="#666666" x1="677.7272727272727" y1="333" x2="677.7272727272727" y2="220.8070004861449"></line><line class="line" stroke-width="1" stroke="#666666" x1="684.0909090909091" y1="333" x2="684.0909090909091" y2="219.34856587263005"></line><line class="line" stroke-width="1" stroke="#666666" x1="700" y1="333" x2="700" y2="320.70977151191056"></line></g><g id="circles"><circle r="4" cx="3.1818181818181817" cy="322.8974234321828" style="fill: #4393c3; stroke: #666666; stroke-width: 1px;"></circle><circle r="4" cx="22.27272727272727" cy="326.54350996596986" style="fill: #666666; stroke: #666666; stroke-width: 1px;"></circle><circle r="4" cx="50.90909090909091" cy="323.6266407389402" style="fill: #4393c3; stroke: #666666; stroke-width: 1px;"></circle><circle r="4" cx="85.9090909090909" cy="323.6266407389402" style="fill: #bf812d; stroke: #666666; stroke-width: 1px;"></circle><circle r="4" cx="108.18181818181817" cy="325.085075352455" style="fill: #4393c3; stroke: #666666; stroke-width: 1px;"></circle><circle r="4" cx="111.36363636363636" cy="317.0636849781235" style="fill: #bf812d; stroke: #666666; stroke-width: 1px;"></circle><circle r="4" cx="111.36363636363636" cy="326.54350996596986" style="fill: #5aae61; stroke: #666666; stroke-width: 1px;"></circle><circle r="4" cx="143.1818181818182" cy="325.81429265921247" style="fill: #bf812d; stroke: #666666; stroke-width: 1px;"></circle><circle r="4" cx="197.27272727272725" cy="326.54350996596986" style="fill: #666666; stroke: #666666; stroke-width: 1px;"></circle><circle r="4" cx="219.54545454545456" cy="241.22508507535247" style="fill: #4393c3; stroke: #666666; stroke-width: 1px;"></circle><circle r="4" cx="235.45454545454547" cy="313.4175984443364" style="fill: #4393c3; stroke: #666666; stroke-width: 1px;"></circle><circle r="4" cx="276.8181818181818" cy="325.085075352455" style="fill: #666666; stroke: #666666; stroke-width: 1px;"></circle><circle r="4" cx="292.7272727272727" cy="322.1682061254254" style="fill: #666666; stroke: #666666; stroke-width: 1px;"></circle><circle r="4" cx="308.6363636363636" cy="323.6266407389402" style="fill: #666666; stroke: #666666; stroke-width: 1px;"></circle><circle r="4" cx="318.1818181818182" cy="325.81429265921247" style="fill: #666666; stroke: #666666; stroke-width: 1px;"></circle><circle r="4" cx="404.09090909090907" cy="324.35585804569763" style="fill: #bf812d; stroke: #666666; stroke-width: 1px;"></circle><circle r="4" cx="416.8181818181818" cy="326.54350996596986" style="fill: #666666; stroke: #666666; stroke-width: 1px;"></circle><circle r="4" cx="439.0909090909091" cy="325.085075352455" style="fill: #4393c3; stroke: #666666; stroke-width: 1px;"></circle><circle r="4" cx="455" cy="325.085075352455" style="fill: #bf812d; stroke: #666666; stroke-width: 1px;"></circle><circle r="4" cx="480.4545454545455" cy="326.54350996596986" style="fill: #4393c3; stroke: #666666; stroke-width: 1px;"></circle><circle r="4" cx="486.8181818181818" cy="326.54350996596986" style="fill: #666666; stroke: #666666; stroke-width: 1px;"></circle><circle r="4" cx="489.99999999999994" cy="325.085075352455" style="fill: #bf812d; stroke: #666666; stroke-width: 1px;"></circle><circle r="4" cx="505.90909090909093" cy="325.085075352455" style="fill: #4393c3; stroke: #666666; stroke-width: 1px;"></circle><circle r="4" cx="515.4545454545454" cy="326.54350996596986" style="fill: #666666; stroke: #666666; stroke-width: 1px;"></circle><circle r="4" cx="518.6363636363636" cy="326.54350996596986" style="fill: #bf812d; stroke: #666666; stroke-width: 1px;"></circle><circle r="4" cx="531.3636363636364" cy="326.54350996596986" style="fill: #4393c3; stroke: #666666; stroke-width: 1px;"></circle><circle r="4" cx="534.5454545454546" cy="324.35585804569763" style="fill: #bf812d; stroke: #666666; stroke-width: 1px;"></circle><circle r="4" cx="540.9090909090909" cy="326.54350996596986" style="fill: #666666; stroke: #666666; stroke-width: 1px;"></circle><circle r="4" cx="563.1818181818182" cy="324.35585804569763" style="fill: #4393c3; stroke: #666666; stroke-width: 1px;"></circle><circle r="4" cx="566.3636363636364" cy="289.35342732134177" style="fill: #4393c3; stroke: #666666; stroke-width: 1px;"></circle><circle r="4" cx="572.7272727272727" cy="326.54350996596986" style="fill: #666666; stroke: #666666; stroke-width: 1px;"></circle><circle r="4" cx="591.8181818181819" cy="325.81429265921247" style="fill: #4393c3; stroke: #666666; stroke-width: 1px;"></circle><circle r="4" cx="595" cy="326.54350996596986" style="fill: #4393c3; stroke: #666666; stroke-width: 1px;"></circle><circle r="4" cx="598.1818181818181" cy="288.6242100145844" style="fill: #4393c3; stroke: #666666; stroke-width: 1px;"></circle><circle r="4" cx="601.3636363636364" cy="325.81429265921247" style="fill: #4393c3; stroke: #666666; stroke-width: 1px;"></circle><circle r="4" cx="607.7272727272727" cy="324.35585804569763" style="fill: #4393c3; stroke: #666666; stroke-width: 1px;"></circle><circle r="4" cx="610.9090909090909" cy="310.50072921730674" style="fill: #4393c3; stroke: #666666; stroke-width: 1px;"></circle><circle r="4" cx="614.0909090909091" cy="325.085075352455" style="fill: #666666; stroke: #666666; stroke-width: 1px;"></circle><circle r="4" cx="617.2727272727273" cy="322.8974234321828" style="fill: #4393c3; stroke: #666666; stroke-width: 1px;"></circle><circle r="4" cx="623.6363636363636" cy="320.70977151191056" style="fill: #4393c3; stroke: #666666; stroke-width: 1px;"></circle><circle r="4" cx="630" cy="319.2513368983957" style="fill: #4393c3; stroke: #666666; stroke-width: 1px;"></circle><circle r="4" cx="645.9090909090909" cy="186.53378706854642" style="fill: #4393c3; stroke: #666666; stroke-width: 1px;"></circle><circle r="4" cx="652.2727272727273" cy="325.085075352455" style="fill: #4393c3; stroke: #666666; stroke-width: 1px;"></circle><circle r="4" cx="658.6363636363636" cy="317.7929022848809" style="fill: #4393c3; stroke: #666666; stroke-width: 1px;"></circle><circle r="4" cx="661.8181818181818" cy="324.35585804569763" style="fill: #666666; stroke: #666666; stroke-width: 1px;"></circle><circle r="4" cx="668.1818181818182" cy="29.75206611570252" style="fill: #4393c3; stroke: #666666; stroke-width: 1px;"></circle><circle r="4" cx="677.7272727272727" cy="220.8070004861449" style="fill: #4393c3; stroke: #666666; stroke-width: 1px;"></circle><circle r="4" cx="684.0909090909091" cy="219.34856587263005" style="fill: #4393c3; stroke: #666666; stroke-width: 1px;"></circle><circle r="4" cx="700" cy="320.70977151191056" style="fill: #4393c3; stroke: #666666; stroke-width: 1px;"></circle></g><g><rect x="0" y="333" width="700" height="12" style="fill: #ffffff; stroke-width: 1px; stroke: #666666;"></rect><rect x="47.72727272727273" y="333" width="213.18181818181822" height="12" style="fill: #aec7e8; stroke-width: 1px; stroke: #666666;"></rect><rect x="356.3636363636363" y="333" width="200.45454545454544" height="12" style="fill: #aec7e8; stroke-width: 1px; stroke: #666666;"></rect></g><g><a target="_blank" xlink:href="http://pfam.xfam.org/family/"><text y="343" x="350" text-anchor="middle" style="color: rgb(102, 102, 102); font-weight: normal; font-size: 12px; font-family: Arial; cursor: pointer;"></text></a><a target="_blank" xlink:href="http://pfam.xfam.org/family/RRM_1"><text y="343" x="154.31818181818184" text-anchor="middle" style="color: rgb(102, 102, 102); font-weight: normal; font-size: 12px; font-family: Arial; cursor: pointer;">RRM_1</text></a><a target="_blank" xlink:href="http://pfam.xfam.org/family/RRM_1"><text y="343" x="456.590909090909" text-anchor="middle" style="color: rgb(102, 102, 102); font-weight: normal; font-size: 12px; font-family: Arial; cursor: pointer;">RRM_1</text></a></g><g><text y="358" x="0" text-anchor="middle" visibility="hidden" style="font-size: 13px;">M</text><text y="358" x="3.1818181818181817" text-anchor="middle" visibility="hidden" style="font-size: 13px;">S</text><text y="358" x="6.363636363636363" text-anchor="middle" visibility="hidden" style="font-size: 13px;">G</text><text y="358" x="9.545454545454545" text-anchor="middle" visibility="hidden" style="font-size: 13px;">W</text><text y="358" x="12.727272727272727" text-anchor="middle" visibility="hidden" style="font-size: 13px;">A</text><text y="358" x="15.90909090909091" text-anchor="middle" visibility="hidden" style="font-size: 13px;">D</text><text y="358" x="19.09090909090909" text-anchor="middle" visibility="hidden" style="font-size: 13px;">E</text><text y="358" x="22.27272727272727" text-anchor="middle" visibility="hidden" style="font-size: 13px;">R</text><text y="358" x="25.454545454545453" text-anchor="middle" visibility="hidden" style="font-size: 13px;">G</text><text y="358" x="28.636363636363637" text-anchor="middle" visibility="hidden" style="font-size: 13px;">G</text><text y="358" x="31.81818181818182" text-anchor="middle" visibility="hidden" style="font-size: 13px;">E</text><text y="358" x="35" text-anchor="middle" visibility="hidden" style="font-size: 13px;">G</text><text y="358" x="38.18181818181818" text-anchor="middle" visibility="hidden" style="font-size: 13px;">D</text><text y="358" x="41.36363636363636" text-anchor="middle" visibility="hidden" style="font-size: 13px;">G</text><text y="358" x="44.54545454545454" text-anchor="middle" visibility="hidden" style="font-size: 13px;">R</text><text y="358" x="47.72727272727273" text-anchor="middle" visibility="hidden" style="font-size: 13px;">I</text><text y="358" x="50.90909090909091" text-anchor="middle" visibility="hidden" style="font-size: 13px;">Y</text><text y="358" x="54.090909090909086" text-anchor="middle" visibility="hidden" style="font-size: 13px;">V</text><text y="358" x="57.27272727272727" text-anchor="middle" visibility="hidden" style="font-size: 13px;">G</text><text y="358" x="60.45454545454545" text-anchor="middle" visibility="hidden" style="font-size: 13px;">N</text><text y="358" x="63.63636363636364" text-anchor="middle" visibility="hidden" style="font-size: 13px;">L</text><text y="358" x="66.81818181818183" text-anchor="middle" visibility="hidden" style="font-size: 13px;">P</text><text y="358" x="70" text-anchor="middle" visibility="hidden" style="font-size: 13px;">T</text><text y="358" x="73.18181818181817" text-anchor="middle" visibility="hidden" style="font-size: 13px;">D</text><text y="358" x="76.36363636363636" text-anchor="middle" visibility="hidden" style="font-size: 13px;">V</text><text y="358" x="79.54545454545455" text-anchor="middle" visibility="hidden" style="font-size: 13px;">R</text><text y="358" x="82.72727272727272" text-anchor="middle" visibility="hidden" style="font-size: 13px;">E</text><text y="358" x="85.9090909090909" text-anchor="middle" visibility="hidden" style="font-size: 13px;">K</text><text y="358" x="89.09090909090908" text-anchor="middle" visibility="hidden" style="font-size: 13px;">D</text><text y="358" x="92.27272727272727" text-anchor="middle" visibility="hidden" style="font-size: 13px;">L</text><text y="358" x="95.45454545454545" text-anchor="middle" visibility="hidden" style="font-size: 13px;">E</text><text y="358" x="98.63636363636363" text-anchor="middle" visibility="hidden" style="font-size: 13px;">D</text><text y="358" x="101.81818181818181" text-anchor="middle" visibility="hidden" style="font-size: 13px;">L</text><text y="358" x="105" text-anchor="middle" visibility="hidden" style="font-size: 13px;">F</text><text y="358" x="108.18181818181817" text-anchor="middle" visibility="hidden" style="font-size: 13px;">Y</text><text y="358" x="111.36363636363636" text-anchor="middle" visibility="hidden" style="font-size: 13px;">K</text><text y="358" x="114.54545454545455" text-anchor="middle" visibility="hidden" style="font-size: 13px;">Y</text><text y="358" x="117.72727272727273" text-anchor="middle" visibility="hidden" style="font-size: 13px;">G</text><text y="358" x="120.9090909090909" text-anchor="middle" visibility="hidden" style="font-size: 13px;">R</text><text y="358" x="124.0909090909091" text-anchor="middle" visibility="hidden" style="font-size: 13px;">I</text><text y="358" x="127.27272727272728" text-anchor="middle" visibility="hidden" style="font-size: 13px;">R</text><text y="358" x="130.45454545454547" text-anchor="middle" visibility="hidden" style="font-size: 13px;">E</text><text y="358" x="133.63636363636365" text-anchor="middle" visibility="hidden" style="font-size: 13px;">I</text><text y="358" x="136.8181818181818" text-anchor="middle" visibility="hidden" style="font-size: 13px;">E</text><text y="358" x="140" text-anchor="middle" visibility="hidden" style="font-size: 13px;">L</text><text y="358" x="143.1818181818182" text-anchor="middle" visibility="hidden" style="font-size: 13px;">K</text><text y="358" x="146.36363636363635" text-anchor="middle" visibility="hidden" style="font-size: 13px;">N</text><text y="358" x="149.54545454545453" text-anchor="middle" visibility="hidden" style="font-size: 13px;">R</text><text y="358" x="152.72727272727272" text-anchor="middle" visibility="hidden" style="font-size: 13px;">H</text><text y="358" x="155.9090909090909" text-anchor="middle" visibility="hidden" style="font-size: 13px;">G</text><text y="358" x="159.0909090909091" text-anchor="middle" visibility="hidden" style="font-size: 13px;">L</text><text y="358" x="162.27272727272728" text-anchor="middle" visibility="hidden" style="font-size: 13px;">V</text><text y="358" x="165.45454545454544" text-anchor="middle" visibility="hidden" style="font-size: 13px;">P</text><text y="358" x="168.63636363636363" text-anchor="middle" visibility="hidden" style="font-size: 13px;">F</text><text y="358" x="171.8181818181818" text-anchor="middle" visibility="hidden" style="font-size: 13px;">A</text><text y="358" x="175" text-anchor="middle" visibility="hidden" style="font-size: 13px;">F</text><text y="358" x="178.18181818181816" text-anchor="middle" visibility="hidden" style="font-size: 13px;">V</text><text y="358" x="181.36363636363637" text-anchor="middle" visibility="hidden" style="font-size: 13px;">R</text><text y="358" x="184.54545454545453" text-anchor="middle" visibility="hidden" style="font-size: 13px;">F</text><text y="358" x="187.72727272727272" text-anchor="middle" visibility="hidden" style="font-size: 13px;">E</text><text y="358" x="190.9090909090909" text-anchor="middle" visibility="hidden" style="font-size: 13px;">D</text><text y="358" x="194.0909090909091" text-anchor="middle" visibility="hidden" style="font-size: 13px;">P</text><text y="358" x="197.27272727272725" text-anchor="middle" visibility="hidden" style="font-size: 13px;">R</text><text y="358" x="200.45454545454547" text-anchor="middle" visibility="hidden" style="font-size: 13px;">D</text><text y="358" x="203.63636363636363" text-anchor="middle" visibility="hidden" style="font-size: 13px;">A</text><text y="358" x="206.81818181818184" text-anchor="middle" visibility="hidden" style="font-size: 13px;">E</text><text y="358" x="210" text-anchor="middle" visibility="hidden" style="font-size: 13px;">D</text><text y="358" x="213.1818181818182" text-anchor="middle" visibility="hidden" style="font-size: 13px;">A</text><text y="358" x="216.36363636363635" text-anchor="middle" visibility="hidden" style="font-size: 13px;">I</text><text y="358" x="219.54545454545456" text-anchor="middle" visibility="hidden" style="font-size: 13px;">Y</text><text y="358" x="222.72727272727272" text-anchor="middle" visibility="hidden" style="font-size: 13px;">G</text><text y="358" x="225.90909090909093" text-anchor="middle" visibility="hidden" style="font-size: 13px;">R</text><text y="358" x="229.0909090909091" text-anchor="middle" visibility="hidden" style="font-size: 13px;">N</text><text y="358" x="232.27272727272728" text-anchor="middle" visibility="hidden" style="font-size: 13px;">G</text><text y="358" x="235.45454545454547" text-anchor="middle" visibility="hidden" style="font-size: 13px;">Y</text><text y="358" x="238.63636363636363" text-anchor="middle" visibility="hidden" style="font-size: 13px;">D</text><text y="358" x="241.8181818181818" text-anchor="middle" visibility="hidden" style="font-size: 13px;">Y</text><text y="358" x="244.99999999999997" text-anchor="middle" visibility="hidden" style="font-size: 13px;">G</text><text y="358" x="248.1818181818182" text-anchor="middle" visibility="hidden" style="font-size: 13px;">Q</text><text y="358" x="251.36363636363635" text-anchor="middle" visibility="hidden" style="font-size: 13px;">C</text><text y="358" x="254.54545454545456" text-anchor="middle" visibility="hidden" style="font-size: 13px;">R</text><text y="358" x="257.7272727272727" text-anchor="middle" visibility="hidden" style="font-size: 13px;">L</text><text y="358" x="260.90909090909093" text-anchor="middle" visibility="hidden" style="font-size: 13px;">R</text><text y="358" x="264.09090909090907" text-anchor="middle" visibility="hidden" style="font-size: 13px;">V</text><text y="358" x="267.2727272727273" text-anchor="middle" visibility="hidden" style="font-size: 13px;">E</text><text y="358" x="270.45454545454544" text-anchor="middle" visibility="hidden" style="font-size: 13px;">F</text><text y="358" x="273.6363636363636" text-anchor="middle" visibility="hidden" style="font-size: 13px;">P</text><text y="358" x="276.8181818181818" text-anchor="middle" visibility="hidden" style="font-size: 13px;">R</text><text y="358" x="280" text-anchor="middle" visibility="hidden" style="font-size: 13px;">T</text><text y="358" x="283.1818181818182" text-anchor="middle" visibility="hidden" style="font-size: 13px;">Y</text><text y="358" x="286.3636363636364" text-anchor="middle" visibility="hidden" style="font-size: 13px;">G</text><text y="358" x="289.54545454545456" text-anchor="middle" visibility="hidden" style="font-size: 13px;">G</text><text y="358" x="292.7272727272727" text-anchor="middle" visibility="hidden" style="font-size: 13px;">R</text><text y="358" x="295.90909090909093" text-anchor="middle" visibility="hidden" style="font-size: 13px;">G</text><text y="358" x="299.09090909090907" text-anchor="middle" visibility="hidden" style="font-size: 13px;">G</text><text y="358" x="302.27272727272725" text-anchor="middle" visibility="hidden" style="font-size: 13px;">W</text><text y="358" x="305.45454545454544" text-anchor="middle" visibility="hidden" style="font-size: 13px;">P</text><text y="358" x="308.6363636363636" text-anchor="middle" visibility="hidden" style="font-size: 13px;">R</text><text y="358" x="311.8181818181818" text-anchor="middle" visibility="hidden" style="font-size: 13px;">G</text><text y="358" x="315" text-anchor="middle" visibility="hidden" style="font-size: 13px;">G</text><text y="358" x="318.1818181818182" text-anchor="middle" visibility="hidden" style="font-size: 13px;">R</text><text y="358" x="321.3636363636364" text-anchor="middle" visibility="hidden" style="font-size: 13px;">N</text><text y="358" x="324.54545454545456" text-anchor="middle" visibility="hidden" style="font-size: 13px;">G</text><text y="358" x="327.72727272727275" text-anchor="middle" visibility="hidden" style="font-size: 13px;">P</text><text y="358" x="330.9090909090909" text-anchor="middle" visibility="hidden" style="font-size: 13px;">P</text><text y="358" x="334.0909090909091" text-anchor="middle" visibility="hidden" style="font-size: 13px;">T</text><text y="358" x="337.27272727272725" text-anchor="middle" visibility="hidden" style="font-size: 13px;">R</text><text y="358" x="340.4545454545455" text-anchor="middle" visibility="hidden" style="font-size: 13px;">R</text><text y="358" x="343.6363636363636" text-anchor="middle" visibility="hidden" style="font-size: 13px;">S</text><text y="358" x="346.8181818181818" text-anchor="middle" visibility="hidden" style="font-size: 13px;">D</text><text y="358" x="350" text-anchor="middle" visibility="hidden" style="font-size: 13px;">F</text><text y="358" x="353.1818181818182" text-anchor="middle" visibility="hidden" style="font-size: 13px;">R</text><text y="358" x="356.3636363636363" text-anchor="middle" visibility="hidden" style="font-size: 13px;">V</text><text y="358" x="359.54545454545456" text-anchor="middle" visibility="hidden" style="font-size: 13px;">L</text><text y="358" x="362.72727272727275" text-anchor="middle" visibility="hidden" style="font-size: 13px;">V</text><text y="358" x="365.9090909090909" text-anchor="middle" visibility="hidden" style="font-size: 13px;">S</text><text y="358" x="369.09090909090907" text-anchor="middle" visibility="hidden" style="font-size: 13px;">G</text><text y="358" x="372.2727272727273" text-anchor="middle" visibility="hidden" style="font-size: 13px;">L</text><text y="358" x="375.45454545454544" text-anchor="middle" visibility="hidden" style="font-size: 13px;">P</text><text y="358" x="378.6363636363636" text-anchor="middle" visibility="hidden" style="font-size: 13px;">P</text><text y="358" x="381.8181818181818" text-anchor="middle" visibility="hidden" style="font-size: 13px;">S</text><text y="358" x="385.00000000000006" text-anchor="middle" visibility="hidden" style="font-size: 13px;">G</text><text y="358" x="388.1818181818182" text-anchor="middle" visibility="hidden" style="font-size: 13px;">S</text><text y="358" x="391.3636363636364" text-anchor="middle" visibility="hidden" style="font-size: 13px;">W</text><text y="358" x="394.5454545454545" text-anchor="middle" visibility="hidden" style="font-size: 13px;">Q</text><text y="358" x="397.72727272727275" text-anchor="middle" visibility="hidden" style="font-size: 13px;">D</text><text y="358" x="400.90909090909093" text-anchor="middle" visibility="hidden" style="font-size: 13px;">L</text><text y="358" x="404.09090909090907" text-anchor="middle" visibility="hidden" style="font-size: 13px;">K</text><text y="358" x="407.27272727272725" text-anchor="middle" visibility="hidden" style="font-size: 13px;">D</text><text y="358" x="410.45454545454544" text-anchor="middle" visibility="hidden" style="font-size: 13px;">H</text><text y="358" x="413.6363636363637" text-anchor="middle" visibility="hidden" style="font-size: 13px;">M</text><text y="358" x="416.8181818181818" text-anchor="middle" visibility="hidden" style="font-size: 13px;">R</text><text y="358" x="420" text-anchor="middle" visibility="hidden" style="font-size: 13px;">E</text><text y="358" x="423.18181818181813" text-anchor="middle" visibility="hidden" style="font-size: 13px;">A</text><text y="358" x="426.3636363636364" text-anchor="middle" visibility="hidden" style="font-size: 13px;">G</text><text y="358" x="429.54545454545456" text-anchor="middle" visibility="hidden" style="font-size: 13px;">D</text><text y="358" x="432.7272727272727" text-anchor="middle" visibility="hidden" style="font-size: 13px;">V</text><text y="358" x="435.9090909090909" text-anchor="middle" visibility="hidden" style="font-size: 13px;">C</text><text y="358" x="439.0909090909091" text-anchor="middle" visibility="hidden" style="font-size: 13px;">Y</text><text y="358" x="442.2727272727273" text-anchor="middle" visibility="hidden" style="font-size: 13px;">A</text><text y="358" x="445.45454545454544" text-anchor="middle" visibility="hidden" style="font-size: 13px;">D</text><text y="358" x="448.6363636363636" text-anchor="middle" visibility="hidden" style="font-size: 13px;">V</text><text y="358" x="451.81818181818187" text-anchor="middle" visibility="hidden" style="font-size: 13px;">Q</text><text y="358" x="455" text-anchor="middle" visibility="hidden" style="font-size: 13px;">K</text><text y="358" x="458.1818181818182" text-anchor="middle" visibility="hidden" style="font-size: 13px;">D</text><text y="358" x="461.3636363636363" text-anchor="middle" visibility="hidden" style="font-size: 13px;">G</text><text y="358" x="464.54545454545456" text-anchor="middle" visibility="hidden" style="font-size: 13px;">V</text><text y="358" x="467.72727272727275" text-anchor="middle" visibility="hidden" style="font-size: 13px;">G</text><text y="358" x="470.90909090909093" text-anchor="middle" visibility="hidden" style="font-size: 13px;">M</text><text y="358" x="474.09090909090907" text-anchor="middle" visibility="hidden" style="font-size: 13px;">V</text><text y="358" x="477.27272727272725" text-anchor="middle" visibility="hidden" style="font-size: 13px;">E</text><text y="358" x="480.4545454545455" text-anchor="middle" visibility="hidden" style="font-size: 13px;">Y</text><text y="358" x="483.6363636363636" text-anchor="middle" visibility="hidden" style="font-size: 13px;">L</text><text y="358" x="486.8181818181818" text-anchor="middle" visibility="hidden" style="font-size: 13px;">R</text><text y="358" x="489.99999999999994" text-anchor="middle" visibility="hidden" style="font-size: 13px;">K</text><text y="358" x="493.1818181818182" text-anchor="middle" visibility="hidden" style="font-size: 13px;">E</text><text y="358" x="496.3636363636364" text-anchor="middle" visibility="hidden" style="font-size: 13px;">D</text><text y="358" x="499.54545454545456" text-anchor="middle" visibility="hidden" style="font-size: 13px;">M</text><text y="358" x="502.7272727272727" text-anchor="middle" visibility="hidden" style="font-size: 13px;">E</text><text y="358" x="505.90909090909093" text-anchor="middle" visibility="hidden" style="font-size: 13px;">Y</text><text y="358" x="509.0909090909091" text-anchor="middle" visibility="hidden" style="font-size: 13px;">A</text><text y="358" x="512.2727272727273" text-anchor="middle" visibility="hidden" style="font-size: 13px;">L</text><text y="358" x="515.4545454545454" text-anchor="middle" visibility="hidden" style="font-size: 13px;">R</text><text y="358" x="518.6363636363636" text-anchor="middle" visibility="hidden" style="font-size: 13px;">K</text><text y="358" x="521.8181818181819" text-anchor="middle" visibility="hidden" style="font-size: 13px;">L</text><text y="358" x="525" text-anchor="middle" visibility="hidden" style="font-size: 13px;">D</text><text y="358" x="528.1818181818181" text-anchor="middle" visibility="hidden" style="font-size: 13px;">D</text><text y="358" x="531.3636363636364" text-anchor="middle" visibility="hidden" style="font-size: 13px;">T</text><text y="358" x="534.5454545454546" text-anchor="middle" visibility="hidden" style="font-size: 13px;">K</text><text y="358" x="537.7272727272727" text-anchor="middle" visibility="hidden" style="font-size: 13px;">F</text><text y="358" x="540.9090909090909" text-anchor="middle" visibility="hidden" style="font-size: 13px;">R</text><text y="358" x="544.090909090909" text-anchor="middle" visibility="hidden" style="font-size: 13px;">S</text><text y="358" x="547.2727272727273" text-anchor="middle" visibility="hidden" style="font-size: 13px;">H</text><text y="358" x="550.4545454545455" text-anchor="middle" visibility="hidden" style="font-size: 13px;">E</text><text y="358" x="553.6363636363636" text-anchor="middle" visibility="hidden" style="font-size: 13px;">G</text><text y="358" x="556.8181818181818" text-anchor="middle" visibility="hidden" style="font-size: 13px;">E</text><text y="358" x="560" text-anchor="middle" visibility="hidden" style="font-size: 13px;">T</text><text y="358" x="563.1818181818182" text-anchor="middle" visibility="hidden" style="font-size: 13px;">S</text><text y="358" x="566.3636363636364" text-anchor="middle" visibility="hidden" style="font-size: 13px;">Y</text><text y="358" x="569.5454545454545" text-anchor="middle" visibility="hidden" style="font-size: 13px;">I</text><text y="358" x="572.7272727272727" text-anchor="middle" visibility="hidden" style="font-size: 13px;">R</text><text y="358" x="575.9090909090909" text-anchor="middle" visibility="hidden" style="font-size: 13px;">V</text><text y="358" x="579.0909090909091" text-anchor="middle" visibility="hidden" style="font-size: 13px;">Y</text><text y="358" x="582.2727272727273" text-anchor="middle" visibility="hidden" style="font-size: 13px;">P</text><text y="358" x="585.4545454545454" text-anchor="middle" visibility="hidden" style="font-size: 13px;">E</text><text y="358" x="588.6363636363636" text-anchor="middle" visibility="hidden" style="font-size: 13px;">R</text><text y="358" x="591.8181818181819" text-anchor="middle" visibility="hidden" style="font-size: 13px;">S</text><text y="358" x="595" text-anchor="middle" visibility="hidden" style="font-size: 13px;">T</text><text y="358" x="598.1818181818181" text-anchor="middle" visibility="hidden" style="font-size: 13px;">S</text><text y="358" x="601.3636363636364" text-anchor="middle" visibility="hidden" style="font-size: 13px;">Y</text><text y="358" x="604.5454545454545" text-anchor="middle" visibility="hidden" style="font-size: 13px;">G</text><text y="358" x="607.7272727272727" text-anchor="middle" visibility="hidden" style="font-size: 13px;">Y</text><text y="358" x="610.9090909090909" text-anchor="middle" visibility="hidden" style="font-size: 13px;">S</text><text y="358" x="614.0909090909091" text-anchor="middle" visibility="hidden" style="font-size: 13px;">R</text><text y="358" x="617.2727272727273" text-anchor="middle" visibility="hidden" style="font-size: 13px;">S</text><text y="358" x="620.4545454545455" text-anchor="middle" visibility="hidden" style="font-size: 13px;">R</text><text y="358" x="623.6363636363636" text-anchor="middle" visibility="hidden" style="font-size: 13px;">S</text><text y="358" x="626.8181818181819" text-anchor="middle" visibility="hidden" style="font-size: 13px;">G</text><text y="358" x="630" text-anchor="middle" visibility="hidden" style="font-size: 13px;">S</text><text y="358" x="633.1818181818181" text-anchor="middle" visibility="hidden" style="font-size: 13px;">R</text><text y="358" x="636.3636363636364" text-anchor="middle" visibility="hidden" style="font-size: 13px;">G</text><text y="358" x="639.5454545454546" text-anchor="middle" visibility="hidden" style="font-size: 13px;">R</text><text y="358" x="642.7272727272727" text-anchor="middle" visibility="hidden" style="font-size: 13px;">D</text><text y="358" x="645.9090909090909" text-anchor="middle" visibility="hidden" style="font-size: 13px;">S</text><text y="358" x="649.0909090909091" text-anchor="middle" visibility="hidden" style="font-size: 13px;">P</text><text y="358" x="652.2727272727273" text-anchor="middle" visibility="hidden" style="font-size: 13px;">Y</text><text y="358" x="655.4545454545455" text-anchor="middle" visibility="hidden" style="font-size: 13px;">Q</text><text y="358" x="658.6363636363636" text-anchor="middle" visibility="hidden" style="font-size: 13px;">S</text><text y="358" x="661.8181818181818" text-anchor="middle" visibility="hidden" style="font-size: 13px;">R</text><text y="358" x="665" text-anchor="middle" visibility="hidden" style="font-size: 13px;">G</text><text y="358" x="668.1818181818182" text-anchor="middle" visibility="hidden" style="font-size: 13px;">S</text><text y="358" x="671.3636363636364" text-anchor="middle" visibility="hidden" style="font-size: 13px;">P</text><text y="358" x="674.5454545454545" text-anchor="middle" visibility="hidden" style="font-size: 13px;">H</text><text y="358" x="677.7272727272727" text-anchor="middle" visibility="hidden" style="font-size: 13px;">Y</text><text y="358" x="680.909090909091" text-anchor="middle" visibility="hidden" style="font-size: 13px;">F</text><text y="358" x="684.0909090909091" text-anchor="middle" visibility="hidden" style="font-size: 13px;">S</text><text y="358" x="687.2727272727273" text-anchor="middle" visibility="hidden" style="font-size: 13px;">P</text><text y="358" x="690.4545454545454" text-anchor="middle" visibility="hidden" style="font-size: 13px;">F</text><text y="358" x="693.6363636363636" text-anchor="middle" visibility="hidden" style="font-size: 13px;">R</text><text y="358" x="696.8181818181819" text-anchor="middle" visibility="hidden" style="font-size: 13px;">P</text><text y="358" x="700" text-anchor="middle" visibility="hidden" style="font-size: 13px;">Y</text></g></g></svg><g class="xAxis" transform="translate(0,360)" fill="none" font-size="10" font-family="sans-serif" text-anchor="middle"><path class="domain" stroke="#000" d="M0.5,6V0.5H700.5V6"></path><g class="tick" opacity="1" transform="translate(60.95454545454545,0)"><line stroke="#000" y2="6"></line><text fill="#000" y="9" dy="0.71em">20</text></g><g class="tick" opacity="1" transform="translate(124.5909090909091,0)"><line stroke="#000" y2="6"></line><text fill="#000" y="9" dy="0.71em">40</text></g><g class="tick" opacity="1" transform="translate(188.22727272727272,0)"><line stroke="#000" y2="6"></line><text fill="#000" y="9" dy="0.71em">60</text></g><g class="tick" opacity="1" transform="translate(251.86363636363635,0)"><line stroke="#000" y2="6"></line><text fill="#000" y="9" dy="0.71em">80</text></g><g class="tick" opacity="1" transform="translate(315.5,0)"><line stroke="#000" y2="6"></line><text fill="#000" y="9" dy="0.71em">100</text></g><g class="tick" opacity="1" transform="translate(379.1363636363636,0)"><line stroke="#000" y2="6"></line><text fill="#000" y="9" dy="0.71em">120</text></g><g class="tick" opacity="1" transform="translate(442.7727272727273,0)"><line stroke="#000" y2="6"></line><text fill="#000" y="9" dy="0.71em">140</text></g><g class="tick" opacity="1" transform="translate(506.40909090909093,0)"><line stroke="#000" y2="6"></line><text fill="#000" y="9" dy="0.71em">160</text></g><g class="tick" opacity="1" transform="translate(570.0454545454545,0)"><line stroke="#000" y2="6"></line><text fill="#000" y="9" dy="0.71em">180</text></g><g class="tick" opacity="1" transform="translate(633.6818181818181,0)"><line stroke="#000" y2="6"></line><text fill="#000" y="9" dy="0.71em">200</text></g><g class="tick" opacity="1" transform="translate(697.3181818181819,0)"><line stroke="#000" y2="6"></line><text fill="#000" y="9" dy="0.71em">220</text></g></g><text class="x label" text-anchor="end" x="700" y="390" style="font-size: 13px; font-family: Arial;">Residue number</text><g class="yAxis" fill="none" font-size="10" font-family="sans-serif" text-anchor="end"><path class="domain" stroke="#000" d="M-6,360.5H0.5V0.5H-6"></path><g class="tick" opacity="1" transform="translate(0,327.77272727272725)"><line stroke="#000" x2="-6"></line><text fill="#000" x="-9" dy="0.32em">0</text></g><g class="tick" opacity="1" transform="translate(0,291.3118619348566)"><line stroke="#000" x2="-6"></line><text fill="#000" x="-9" dy="0.32em">50</text></g><g class="tick" opacity="1" transform="translate(0,254.8509965969859)"><line stroke="#000" x2="-6"></line><text fill="#000" x="-9" dy="0.32em">100</text></g><g class="tick" opacity="1" transform="translate(0,218.3901312591152)"><line stroke="#000" x2="-6"></line><text fill="#000" x="-9" dy="0.32em">150</text></g><g class="tick" opacity="1" transform="translate(0,181.92926592124454)"><line stroke="#000" x2="-6"></line><text fill="#000" x="-9" dy="0.32em">200</text></g><g class="tick" opacity="1" transform="translate(0,145.46840058337386)"><line stroke="#000" x2="-6"></line><text fill="#000" x="-9" dy="0.32em">250</text></g><g class="tick" opacity="1" transform="translate(0,109.00753524550319)"><line stroke="#000" x2="-6"></line><text fill="#000" x="-9" dy="0.32em">300</text></g><g class="tick" opacity="1" transform="translate(0,72.54666990763252)"><line stroke="#000" x2="-6"></line><text fill="#000" x="-9" dy="0.32em">350</text></g><g class="tick" opacity="1" transform="translate(0,36.08580456976182)"><line stroke="#000" x2="-6"></line><text fill="#000" x="-9" dy="0.32em">400</text></g></g><text class="y label" text-anchor="middle" y="-50" x="-180" dy="0.8em" transform="rotate(-90)" style="font-size: 13px; font-family: Arial;">Total number of references</text><g class="axisRed" fill="none" font-size="10" font-family="sans-serif" text-anchor="start" visibility="hidden" transform="translate(700, 0)"><path class="domain" stroke="#000" d="M6,360.5H0.5V0.5H6"></path><g class="tick" opacity="1" transform="translate(0,360.5)"><line stroke="#000" x2="6"></line><text fill="#000" x="9" dy="0.32em">0</text></g><text text-anchor="start" dx="5.2em" dy="-2.6em" transform="rotate(90)" visibility="hidden" style="font-size: 12px; font-family: Arial; fill: #d7301f;">No recurrent (&gt;2) missense mutations!</text></g><g class="axisPurple" fill="none" font-size="10" font-family="sans-serif" text-anchor="start" visibility="hidden"><path class="domain" stroke="#000" d="M6,360.5H0.5V0.5H6"></path><g class="tick" opacity="1" transform="translate(0,357.52479338842977)"><line stroke="#000" x2="6"></line><text fill="#000" x="9" dy="0.32em"></text></g><g class="tick" opacity="1" transform="translate(0,327.77272727272725)"><line stroke="#000" x2="6"></line><text fill="#000" x="9" dy="0.32em">0</text></g><g class="tick" opacity="1" transform="translate(0,298.0206611570248)"><line stroke="#000" x2="6"></line><text fill="#000" x="9" dy="0.32em">0.1</text></g><g class="tick" opacity="1" transform="translate(0,268.2685950413223)"><line stroke="#000" x2="6"></line><text fill="#000" x="9" dy="0.32em">0.2</text></g><g class="tick" opacity="1" transform="translate(0,238.51652892561984)"><line stroke="#000" x2="6"></line><text fill="#000" x="9" dy="0.32em">0.3</text></g><g class="tick" opacity="1" transform="translate(0,208.76446280991738)"><line stroke="#000" x2="6"></line><text fill="#000" x="9" dy="0.32em">0.4</text></g><g class="tick" opacity="1" transform="translate(0,179.0123966942149)"><line stroke="#000" x2="6"></line><text fill="#000" x="9" dy="0.32em">0.5</text></g><g class="tick" opacity="1" transform="translate(0,149.26033057851242)"><line stroke="#000" x2="6"></line><text fill="#000" x="9" dy="0.32em">0.6</text></g><g class="tick" opacity="1" transform="translate(0,119.50826446280996)"><line stroke="#000" x2="6"></line><text fill="#000" x="9" dy="0.32em">0.7</text></g><g class="tick" opacity="1" transform="translate(0,89.75619834710744)"><line stroke="#000" x2="6"></line><text fill="#000" x="9" dy="0.32em">0.8</text></g><g class="tick" opacity="1" transform="translate(0,60.00413223140498)"><line stroke="#000" x2="6"></line><text fill="#000" x="9" dy="0.32em">0.9</text></g><g class="tick" opacity="1" transform="translate(0,30.25206611570252)"><line stroke="#000" x2="6"></line><text fill="#000" x="9" dy="0.32em">1</text></g><g class="tick" opacity="1" transform="translate(0,0.5)"><line stroke="#000" x2="6"></line><text fill="#000" x="9" dy="0.32em">1.1</text></g><text text-anchor="start" x="10" y="10" visibility="hidden" style="font-size: 12px; font-family: Arial; fill: #807dba;">No disease causing germline SNPs known!</text></g><circle cx="636" cy="15" r="10" class="compassNav" style="fill: #ffffff; stroke: #666666; stroke-width: 1px;"></circle><path d="M440.935 12.574l3.966 82.766C399.416 41.904 331.674 8 256 8 134.813 8 33.933 94.924 12.296 209.824 10.908 217.193 16.604 224 24.103 224h49.084c5.57 0 10.377-3.842 11.676-9.259C103.407 137.408 172.931 80 256 80c60.893 0 114.512 30.856 146.104 77.801l-101.53-4.865c-6.845-.328-12.574 5.133-12.574 11.986v47.411c0 6.627 5.373 12 12 12h200.333c6.627 0 12-5.373 12-12V12c0-6.627-5.373-12-12-12h-47.411c-6.853 0-12.315 5.729-11.987 12.574zM256 432c-60.895 0-114.517-30.858-146.109-77.805l101.868 4.871c6.845.327 12.573-5.134 12.573-11.986v-47.412c0-6.627-5.373-12-12-12H12c-6.627 0-12 5.373-12 12V500c0 6.627 5.373 12 12 12h47.385c6.863 0 12.328-5.745 11.985-12.599l-4.129-82.575C112.725 470.166 180.405 504 256 504c121.187 0 222.067-86.924 243.704-201.824 1.388-7.369-4.308-14.176-11.807-14.176h-49.084c-5.57 0-10.377 3.842-11.676 9.259C408.593 374.592 339.069 432 256 432z" class="compassNav" transform="translate(631, 10) scale(0.02)" style="fill: #666666; stroke: #666666; stroke-width: 1px;"></path><circle cx="658" cy="15" r="10" class="compassNav" style="fill: #ffffff; stroke: #666666; stroke-width: 1px;"></circle><line class="compassNav" stroke-width="2" stroke="#666666" x1="654" y1="15" x2="662" y2="15"></line><line class="compassNav" stroke-width="2" stroke="#666666" x1="658" y1="11" x2="658" y2="19"></line><circle cx="614" cy="15" r="10" class="compassNav" style="fill: #ffffff; stroke: #666666; stroke-width: 1px;"></circle><line class="compassNav" stroke-width="2" stroke="#666666" x1="610" y1="15" x2="618" y2="15"></line><path d="M582 14 l20 -12 a100,40 0 0,0 0,24z" class="compassNav" style="fill: #ffffff; stroke: #666666; stroke-width: 1px;"></path><path d="M690 14 l-20 -12 a100,40 0 0,1 0,24z" class="compassNav" style="fill: #ffffff; stroke: #666666; stroke-width: 1px;"></path><path d="M216 0h80c13.3 0 24 10.7 24 24v168h87.7c17.8 0 26.7 21.5 14.1 34.1L269.7 378.3c-7.5 7.5-19.8 7.5-27.3 0L90.1 226.1c-12.6-12.6-3.7-34.1 14.1-34.1H192V24c0-13.3 10.7-24 24-24zm296 376v112c0 13.3-10.7 24-24 24H24c-13.3 0-24-10.7-24-24V376c0-13.3 10.7-24 24-24h146.7l49 49c20.1 20.1 52.5 20.1 72.6 0l49-49H488c13.3 0 24 10.7 24 24zm-124 88c0-11-9-20-20-20s-20 9-20 20 9 20 20 20 20-9 20-20zm64 0c0-11-9-20-20-20s-20 9-20 20 9 20 20 20 20-9 20-20z" class="compassNav" transform="translate(552,0) scale(0.05)" style="fill: #336699; stroke: #336699; stroke-width: 1px; cursor: pointer;"></path></g></svg>