<svg width="800" height="400" style="background-color: white;"><g transform="translate(50,0)"><svg width="700" height="360"><g style="-webkit-tap-highlight-color: rgba(0, 0, 0, 0);"><rect width="700" height="360" style="fill: #ffffff;"></rect><g id="lines"><line class="line" stroke-width="1" stroke="#d7301f" x1="-226.60256410256412" y1="333" x2="-226.60256410256412" y2="360" visibility="hidden" style="stroke-dasharray: 3px, 3px;"></line></g><g><rect x="-231.60256410256412" y="355" width="10" height="10" visibility="hidden" style="fill: #ffffff; stroke: #d7301f;"></rect></g><g id="lines"><line class="line" stroke-width="1" stroke="#6a51a3" x1="-226.60256410256412" y1="333" x2="-226.60256410256412" y2="327.27272727272725" visibility="hidden" style="stroke-dasharray: 3px, 3px;"></line></g><g><rect x="-231.60256410256412" y="322.27272727272725" width="10" height="10" visibility="hidden" style="fill: #ffffff; stroke: #6a51a3;"></rect></g><g id="lines"><line class="line" stroke-width="1" stroke="#666666" x1="-226.60256410256412" y1="333" x2="-226.60256410256412" y2="360"></line></g><g id="circles"><circle r="4" cx="-226.60256410256412" cy="360" style="fill: #4393c3; stroke: #666666; stroke-width: 1px;"></circle></g><g><rect x="0" y="333" width="700" height="12" style="fill: #ffffff; stroke-width: 1px; stroke: #666666;"></rect><rect x="85.25641025641025" y="333" width="132.3717948717949" height="12" style="fill: #aec7e8; stroke-width: 1px; stroke: #666666;"></rect><rect x="224.35897435897436" y="333" width="475.64102564102564" height="12" style="fill: #ffbb78; stroke-width: 1px; stroke: #666666;"></rect></g><g><a target="_blank" xlink:href="http://pfam.xfam.org/family/"><text y="343" x="350" text-anchor="middle" style="color: rgb(102, 102, 102); font-weight: normal; font-size: 12px; font-family: Arial; cursor: pointer;"></text></a><a target="_blank" xlink:href="http://pfam.xfam.org/family/Collagen"><text y="343" x="151.44230769230768" text-anchor="middle" style="color: rgb(102, 102, 102); font-weight: normal; font-size: 12px; font-family: Arial; cursor: pointer;">Collagen</text></a><a target="_blank" xlink:href="http://pfam.xfam.org/family/Fibrinogen_C"><text y="343" x="462.1794871794872" text-anchor="middle" style="color: rgb(102, 102, 102); font-weight: normal; font-size: 12px; font-family: Arial; cursor: pointer;">Fibrinogen_C</text></a></g><g><text y="358" x="0" text-anchor="middle" visibility="hidden" style="font-size: 13px;">M</text><text y="358" x="2.2435897435897436" text-anchor="middle" visibility="hidden" style="font-size: 13px;">E</text><text y="358" x="4.487179487179487" text-anchor="middle" visibility="hidden" style="font-size: 13px;">L</text><text y="358" x="6.730769230769231" text-anchor="middle" visibility="hidden" style="font-size: 13px;">D</text><text y="358" x="8.974358974358974" text-anchor="middle" visibility="hidden" style="font-size: 13px;">R</text><text y="358" x="11.217948717948717" text-anchor="middle" visibility="hidden" style="font-size: 13px;">A</text><text y="358" x="13.461538461538462" text-anchor="middle" visibility="hidden" style="font-size: 13px;">V</text><text y="358" x="15.705128205128204" text-anchor="middle" visibility="hidden" style="font-size: 13px;">G</text><text y="358" x="17.94871794871795" text-anchor="middle" visibility="hidden" style="font-size: 13px;">V</text><text y="358" x="20.192307692307693" text-anchor="middle" visibility="hidden" style="font-size: 13px;">L</text><text y="358" x="22.435897435897434" text-anchor="middle" visibility="hidden" style="font-size: 13px;">G</text><text y="358" x="24.67948717948718" text-anchor="middle" visibility="hidden" style="font-size: 13px;">A</text><text y="358" x="26.923076923076923" text-anchor="middle" visibility="hidden" style="font-size: 13px;">A</text><text y="358" x="29.166666666666664" text-anchor="middle" visibility="hidden" style="font-size: 13px;">T</text><text y="358" x="31.41025641025641" text-anchor="middle" visibility="hidden" style="font-size: 13px;">L</text><text y="358" x="33.65384615384615" text-anchor="middle" visibility="hidden" style="font-size: 13px;">L</text><text y="358" x="35.8974358974359" text-anchor="middle" visibility="hidden" style="font-size: 13px;">L</text><text y="358" x="38.14102564102564" text-anchor="middle" visibility="hidden" style="font-size: 13px;">S</text><text y="358" x="40.38461538461539" text-anchor="middle" visibility="hidden" style="font-size: 13px;">F</text><text y="358" x="42.628205128205124" text-anchor="middle" visibility="hidden" style="font-size: 13px;">L</text><text y="358" x="44.87179487179487" text-anchor="middle" visibility="hidden" style="font-size: 13px;">G</text><text y="358" x="47.11538461538461" text-anchor="middle" visibility="hidden" style="font-size: 13px;">M</text><text y="358" x="49.35897435897436" text-anchor="middle" visibility="hidden" style="font-size: 13px;">A</text><text y="358" x="51.6025641025641" text-anchor="middle" visibility="hidden" style="font-size: 13px;">W</text><text y="358" x="53.84615384615385" text-anchor="middle" visibility="hidden" style="font-size: 13px;">A</text><text y="358" x="56.08974358974359" text-anchor="middle" visibility="hidden" style="font-size: 13px;">L</text><text y="358" x="58.33333333333333" text-anchor="middle" visibility="hidden" style="font-size: 13px;">Q</text><text y="358" x="60.57692307692307" text-anchor="middle" visibility="hidden" style="font-size: 13px;">A</text><text y="358" x="62.82051282051282" text-anchor="middle" visibility="hidden" style="font-size: 13px;">A</text><text y="358" x="65.06410256410257" text-anchor="middle" visibility="hidden" style="font-size: 13px;">D</text><text y="358" x="67.3076923076923" text-anchor="middle" visibility="hidden" style="font-size: 13px;">T</text><text y="358" x="69.55128205128204" text-anchor="middle" visibility="hidden" style="font-size: 13px;">C</text><text y="358" x="71.7948717948718" text-anchor="middle" visibility="hidden" style="font-size: 13px;">P</text><text y="358" x="74.03846153846153" text-anchor="middle" visibility="hidden" style="font-size: 13px;">E</text><text y="358" x="76.28205128205128" text-anchor="middle" visibility="hidden" style="font-size: 13px;">V</text><text y="358" x="78.52564102564102" text-anchor="middle" visibility="hidden" style="font-size: 13px;">K</text><text y="358" x="80.76923076923077" text-anchor="middle" visibility="hidden" style="font-size: 13px;">M</text><text y="358" x="83.01282051282051" text-anchor="middle" visibility="hidden" style="font-size: 13px;">V</text><text y="358" x="85.25641025641025" text-anchor="middle" visibility="hidden" style="font-size: 13px;">G</text><text y="358" x="87.5" text-anchor="middle" visibility="hidden" style="font-size: 13px;">L</text><text y="358" x="89.74358974358974" text-anchor="middle" visibility="hidden" style="font-size: 13px;">E</text><text y="358" x="91.98717948717949" text-anchor="middle" visibility="hidden" style="font-size: 13px;">G</text><text y="358" x="94.23076923076923" text-anchor="middle" visibility="hidden" style="font-size: 13px;">S</text><text y="358" x="96.47435897435898" text-anchor="middle" visibility="hidden" style="font-size: 13px;">D</text><text y="358" x="98.71794871794872" text-anchor="middle" visibility="hidden" style="font-size: 13px;">K</text><text y="358" x="100.96153846153845" text-anchor="middle" visibility="hidden" style="font-size: 13px;">L</text><text y="358" x="103.2051282051282" text-anchor="middle" visibility="hidden" style="font-size: 13px;">T</text><text y="358" x="105.44871794871794" text-anchor="middle" visibility="hidden" style="font-size: 13px;">I</text><text y="358" x="107.6923076923077" text-anchor="middle" visibility="hidden" style="font-size: 13px;">L</text><text y="358" x="109.93589743589743" text-anchor="middle" visibility="hidden" style="font-size: 13px;">R</text><text y="358" x="112.17948717948718" text-anchor="middle" visibility="hidden" style="font-size: 13px;">G</text><text y="358" x="114.42307692307692" text-anchor="middle" visibility="hidden" style="font-size: 13px;">C</text><text y="358" x="116.66666666666666" text-anchor="middle" visibility="hidden" style="font-size: 13px;">P</text><text y="358" x="118.91025641025641" text-anchor="middle" visibility="hidden" style="font-size: 13px;">G</text><text y="358" x="121.15384615384615" text-anchor="middle" visibility="hidden" style="font-size: 13px;">L</text><text y="358" x="123.39743589743591" text-anchor="middle" visibility="hidden" style="font-size: 13px;">P</text><text y="358" x="125.64102564102564" text-anchor="middle" visibility="hidden" style="font-size: 13px;">G</text><text y="358" x="127.88461538461537" text-anchor="middle" visibility="hidden" style="font-size: 13px;">A</text><text y="358" x="130.12820512820514" text-anchor="middle" visibility="hidden" style="font-size: 13px;">P</text><text y="358" x="132.37179487179486" text-anchor="middle" visibility="hidden" style="font-size: 13px;">G</text><text y="358" x="134.6153846153846" text-anchor="middle" visibility="hidden" style="font-size: 13px;">P</text><text y="358" x="136.85897435897436" text-anchor="middle" visibility="hidden" style="font-size: 13px;">K</text><text y="358" x="139.1025641025641" text-anchor="middle" visibility="hidden" style="font-size: 13px;">G</text><text y="358" x="141.34615384615384" text-anchor="middle" visibility="hidden" style="font-size: 13px;">E</text><text y="358" x="143.5897435897436" text-anchor="middle" visibility="hidden" style="font-size: 13px;">A</text><text y="358" x="145.83333333333334" text-anchor="middle" visibility="hidden" style="font-size: 13px;">G</text><text y="358" x="148.07692307692307" text-anchor="middle" visibility="hidden" style="font-size: 13px;">T</text><text y="358" x="150.32051282051282" text-anchor="middle" visibility="hidden" style="font-size: 13px;">N</text><text y="358" x="152.56410256410257" text-anchor="middle" visibility="hidden" style="font-size: 13px;">G</text><text y="358" x="154.8076923076923" text-anchor="middle" visibility="hidden" style="font-size: 13px;">K</text><text y="358" x="157.05128205128204" text-anchor="middle" visibility="hidden" style="font-size: 13px;">R</text><text y="358" x="159.2948717948718" text-anchor="middle" visibility="hidden" style="font-size: 13px;">G</text><text y="358" x="161.53846153846155" text-anchor="middle" visibility="hidden" style="font-size: 13px;">E</text><text y="358" x="163.78205128205127" text-anchor="middle" visibility="hidden" style="font-size: 13px;">R</text><text y="358" x="166.02564102564102" text-anchor="middle" visibility="hidden" style="font-size: 13px;">G</text><text y="358" x="168.26923076923077" text-anchor="middle" visibility="hidden" style="font-size: 13px;">P</text><text y="358" x="170.5128205128205" text-anchor="middle" visibility="hidden" style="font-size: 13px;">P</text><text y="358" x="172.75641025641028" text-anchor="middle" visibility="hidden" style="font-size: 13px;">G</text><text y="358" x="175" text-anchor="middle" visibility="hidden" style="font-size: 13px;">P</text><text y="358" x="177.24358974358972" text-anchor="middle" visibility="hidden" style="font-size: 13px;">P</text><text y="358" x="179.48717948717947" text-anchor="middle" visibility="hidden" style="font-size: 13px;">G</text><text y="358" x="181.73076923076925" text-anchor="middle" visibility="hidden" style="font-size: 13px;">K</text><text y="358" x="183.97435897435898" text-anchor="middle" visibility="hidden" style="font-size: 13px;">A</text><text y="358" x="186.21794871794873" text-anchor="middle" visibility="hidden" style="font-size: 13px;">G</text><text y="358" x="188.46153846153845" text-anchor="middle" visibility="hidden" style="font-size: 13px;">P</text><text y="358" x="190.70512820512818" text-anchor="middle" visibility="hidden" style="font-size: 13px;">P</text><text y="358" x="192.94871794871796" text-anchor="middle" visibility="hidden" style="font-size: 13px;">G</text><text y="358" x="195.1923076923077" text-anchor="middle" visibility="hidden" style="font-size: 13px;">P</text><text y="358" x="197.43589743589743" text-anchor="middle" visibility="hidden" style="font-size: 13px;">N</text><text y="358" x="199.67948717948718" text-anchor="middle" visibility="hidden" style="font-size: 13px;">G</text><text y="358" x="201.9230769230769" text-anchor="middle" visibility="hidden" style="font-size: 13px;">A</text><text y="358" x="204.16666666666669" text-anchor="middle" visibility="hidden" style="font-size: 13px;">P</text><text y="358" x="206.4102564102564" text-anchor="middle" visibility="hidden" style="font-size: 13px;">G</text><text y="358" x="208.65384615384616" text-anchor="middle" visibility="hidden" style="font-size: 13px;">E</text><text y="358" x="210.89743589743588" text-anchor="middle" visibility="hidden" style="font-size: 13px;">P</text><text y="358" x="213.14102564102564" text-anchor="middle" visibility="hidden" style="font-size: 13px;">Q</text><text y="358" x="215.3846153846154" text-anchor="middle" visibility="hidden" style="font-size: 13px;">P</text><text y="358" x="217.62820512820514" text-anchor="middle" visibility="hidden" style="font-size: 13px;">C</text><text y="358" x="219.87179487179486" text-anchor="middle" visibility="hidden" style="font-size: 13px;">L</text><text y="358" x="222.1153846153846" text-anchor="middle" visibility="hidden" style="font-size: 13px;">T</text><text y="358" x="224.35897435897436" text-anchor="middle" visibility="hidden" style="font-size: 13px;">G</text><text y="358" x="226.60256410256412" text-anchor="middle" visibility="hidden" style="font-size: 13px;">P</text><text y="358" x="228.84615384615384" text-anchor="middle" visibility="hidden" style="font-size: 13px;">R</text><text y="358" x="231.0897435897436" text-anchor="middle" visibility="hidden" style="font-size: 13px;">T</text><text y="358" x="233.33333333333331" text-anchor="middle" visibility="hidden" style="font-size: 13px;">C</text><text y="358" x="235.5769230769231" text-anchor="middle" visibility="hidden" style="font-size: 13px;">K</text><text y="358" x="237.82051282051282" text-anchor="middle" visibility="hidden" style="font-size: 13px;">D</text><text y="358" x="240.06410256410257" text-anchor="middle" visibility="hidden" style="font-size: 13px;">L</text><text y="358" x="242.3076923076923" text-anchor="middle" visibility="hidden" style="font-size: 13px;">L</text><text y="358" x="244.55128205128204" text-anchor="middle" visibility="hidden" style="font-size: 13px;">D</text><text y="358" x="246.79487179487182" text-anchor="middle" visibility="hidden" style="font-size: 13px;">R</text><text y="358" x="249.03846153846155" text-anchor="middle" visibility="hidden" style="font-size: 13px;">G</text><text y="358" x="251.28205128205127" text-anchor="middle" visibility="hidden" style="font-size: 13px;">H</text><text y="358" x="253.52564102564102" text-anchor="middle" visibility="hidden" style="font-size: 13px;">F</text><text y="358" x="255.76923076923075" text-anchor="middle" visibility="hidden" style="font-size: 13px;">L</text><text y="358" x="258.01282051282055" text-anchor="middle" visibility="hidden" style="font-size: 13px;">S</text><text y="358" x="260.2564102564103" text-anchor="middle" visibility="hidden" style="font-size: 13px;">G</text><text y="358" x="262.5" text-anchor="middle" visibility="hidden" style="font-size: 13px;">W</text><text y="358" x="264.7435897435897" text-anchor="middle" visibility="hidden" style="font-size: 13px;">H</text><text y="358" x="266.98717948717945" text-anchor="middle" visibility="hidden" style="font-size: 13px;">T</text><text y="358" x="269.2307692307692" text-anchor="middle" visibility="hidden" style="font-size: 13px;">I</text><text y="358" x="271.474358974359" text-anchor="middle" visibility="hidden" style="font-size: 13px;">Y</text><text y="358" x="273.71794871794873" text-anchor="middle" visibility="hidden" style="font-size: 13px;">L</text><text y="358" x="275.96153846153845" text-anchor="middle" visibility="hidden" style="font-size: 13px;">P</text><text y="358" x="278.2051282051282" text-anchor="middle" visibility="hidden" style="font-size: 13px;">D</text><text y="358" x="280.44871794871796" text-anchor="middle" visibility="hidden" style="font-size: 13px;">C</text><text y="358" x="282.6923076923077" text-anchor="middle" visibility="hidden" style="font-size: 13px;">R</text><text y="358" x="284.93589743589746" text-anchor="middle" visibility="hidden" style="font-size: 13px;">P</text><text y="358" x="287.1794871794872" text-anchor="middle" visibility="hidden" style="font-size: 13px;">L</text><text y="358" x="289.4230769230769" text-anchor="middle" visibility="hidden" style="font-size: 13px;">T</text><text y="358" x="291.6666666666667" text-anchor="middle" visibility="hidden" style="font-size: 13px;">V</text><text y="358" x="293.9102564102564" text-anchor="middle" visibility="hidden" style="font-size: 13px;">L</text><text y="358" x="296.15384615384613" text-anchor="middle" visibility="hidden" style="font-size: 13px;">C</text><text y="358" x="298.3974358974359" text-anchor="middle" visibility="hidden" style="font-size: 13px;">D</text><text y="358" x="300.64102564102564" text-anchor="middle" visibility="hidden" style="font-size: 13px;">M</text><text y="358" x="302.8846153846154" text-anchor="middle" visibility="hidden" style="font-size: 13px;">D</text><text y="358" x="305.12820512820514" text-anchor="middle" visibility="hidden" style="font-size: 13px;">T</text><text y="358" x="307.37179487179486" text-anchor="middle" visibility="hidden" style="font-size: 13px;">D</text><text y="358" x="309.6153846153846" text-anchor="middle" visibility="hidden" style="font-size: 13px;">G</text><text y="358" x="311.85897435897436" text-anchor="middle" visibility="hidden" style="font-size: 13px;">G</text><text y="358" x="314.1025641025641" text-anchor="middle" visibility="hidden" style="font-size: 13px;">G</text><text y="358" x="316.34615384615387" text-anchor="middle" visibility="hidden" style="font-size: 13px;">W</text><text y="358" x="318.5897435897436" text-anchor="middle" visibility="hidden" style="font-size: 13px;">T</text><text y="358" x="320.8333333333333" text-anchor="middle" visibility="hidden" style="font-size: 13px;">V</text><text y="358" x="323.0769230769231" text-anchor="middle" visibility="hidden" style="font-size: 13px;">F</text><text y="358" x="325.3205128205128" text-anchor="middle" visibility="hidden" style="font-size: 13px;">Q</text><text y="358" x="327.56410256410254" text-anchor="middle" visibility="hidden" style="font-size: 13px;">R</text><text y="358" x="329.8076923076923" text-anchor="middle" visibility="hidden" style="font-size: 13px;">R</text><text y="358" x="332.05128205128204" text-anchor="middle" visibility="hidden" style="font-size: 13px;">V</text><text y="358" x="334.2948717948718" text-anchor="middle" visibility="hidden" style="font-size: 13px;">D</text><text y="358" x="336.53846153846155" text-anchor="middle" visibility="hidden" style="font-size: 13px;">G</text><text y="358" x="338.78205128205127" text-anchor="middle" visibility="hidden" style="font-size: 13px;">S</text><text y="358" x="341.025641025641" text-anchor="middle" visibility="hidden" style="font-size: 13px;">V</text><text y="358" x="343.2692307692308" text-anchor="middle" visibility="hidden" style="font-size: 13px;">D</text><text y="358" x="345.51282051282055" text-anchor="middle" visibility="hidden" style="font-size: 13px;">F</text><text y="358" x="347.7564102564103" text-anchor="middle" visibility="hidden" style="font-size: 13px;">Y</text><text y="358" x="350" text-anchor="middle" visibility="hidden" style="font-size: 13px;">R</text><text y="358" x="352.2435897435897" text-anchor="middle" visibility="hidden" style="font-size: 13px;">D</text><text y="358" x="354.48717948717945" text-anchor="middle" visibility="hidden" style="font-size: 13px;">W</text><text y="358" x="356.7307692307692" text-anchor="middle" visibility="hidden" style="font-size: 13px;">A</text><text y="358" x="358.97435897435895" text-anchor="middle" visibility="hidden" style="font-size: 13px;">T</text><text y="358" x="361.21794871794873" text-anchor="middle" visibility="hidden" style="font-size: 13px;">Y</text><text y="358" x="363.4615384615385" text-anchor="middle" visibility="hidden" style="font-size: 13px;">K</text><text y="358" x="365.70512820512823" text-anchor="middle" visibility="hidden" style="font-size: 13px;">Q</text><text y="358" x="367.94871794871796" text-anchor="middle" visibility="hidden" style="font-size: 13px;">G</text><text y="358" x="370.1923076923077" text-anchor="middle" visibility="hidden" style="font-size: 13px;">F</text><text y="358" x="372.43589743589746" text-anchor="middle" visibility="hidden" style="font-size: 13px;">G</text><text y="358" x="374.6794871794872" text-anchor="middle" visibility="hidden" style="font-size: 13px;">S</text><text y="358" x="376.9230769230769" text-anchor="middle" visibility="hidden" style="font-size: 13px;">R</text><text y="358" x="379.16666666666663" text-anchor="middle" visibility="hidden" style="font-size: 13px;">L</text><text y="358" x="381.41025641025635" text-anchor="middle" visibility="hidden" style="font-size: 13px;">G</text><text y="358" x="383.6538461538462" text-anchor="middle" visibility="hidden" style="font-size: 13px;">E</text><text y="358" x="385.8974358974359" text-anchor="middle" visibility="hidden" style="font-size: 13px;">F</text><text y="358" x="388.14102564102564" text-anchor="middle" visibility="hidden" style="font-size: 13px;">W</text><text y="358" x="390.3846153846154" text-anchor="middle" visibility="hidden" style="font-size: 13px;">L</text><text y="358" x="392.62820512820514" text-anchor="middle" visibility="hidden" style="font-size: 13px;">G</text><text y="358" x="394.87179487179486" text-anchor="middle" visibility="hidden" style="font-size: 13px;">N</text><text y="358" x="397.1153846153846" text-anchor="middle" visibility="hidden" style="font-size: 13px;">D</text><text y="358" x="399.35897435897436" text-anchor="middle" visibility="hidden" style="font-size: 13px;">N</text><text y="358" x="401.6025641025641" text-anchor="middle" visibility="hidden" style="font-size: 13px;">I</text><text y="358" x="403.8461538461538" text-anchor="middle" visibility="hidden" style="font-size: 13px;">H</text><text y="358" x="406.08974358974365" text-anchor="middle" visibility="hidden" style="font-size: 13px;">A</text><text y="358" x="408.33333333333337" text-anchor="middle" visibility="hidden" style="font-size: 13px;">L</text><text y="358" x="410.5769230769231" text-anchor="middle" visibility="hidden" style="font-size: 13px;">T</text><text y="358" x="412.8205128205128" text-anchor="middle" visibility="hidden" style="font-size: 13px;">A</text><text y="358" x="415.06410256410254" text-anchor="middle" visibility="hidden" style="font-size: 13px;">Q</text><text y="358" x="417.3076923076923" text-anchor="middle" visibility="hidden" style="font-size: 13px;">G</text><text y="358" x="419.55128205128204" text-anchor="middle" visibility="hidden" style="font-size: 13px;">T</text><text y="358" x="421.79487179487177" text-anchor="middle" visibility="hidden" style="font-size: 13px;">S</text><text y="358" x="424.0384615384615" text-anchor="middle" visibility="hidden" style="font-size: 13px;">E</text><text y="358" x="426.28205128205127" text-anchor="middle" visibility="hidden" style="font-size: 13px;">L</text><text y="358" x="428.52564102564105" text-anchor="middle" visibility="hidden" style="font-size: 13px;">R</text><text y="358" x="430.7692307692308" text-anchor="middle" visibility="hidden" style="font-size: 13px;">V</text><text y="358" x="433.01282051282055" text-anchor="middle" visibility="hidden" style="font-size: 13px;">D</text><text y="358" x="435.2564102564103" text-anchor="middle" visibility="hidden" style="font-size: 13px;">L</text><text y="358" x="437.5" text-anchor="middle" visibility="hidden" style="font-size: 13px;">V</text><text y="358" x="439.7435897435897" text-anchor="middle" visibility="hidden" style="font-size: 13px;">D</text><text y="358" x="441.98717948717945" text-anchor="middle" visibility="hidden" style="font-size: 13px;">F</text><text y="358" x="444.2307692307692" text-anchor="middle" visibility="hidden" style="font-size: 13px;">E</text><text y="358" x="446.47435897435895" text-anchor="middle" visibility="hidden" style="font-size: 13px;">D</text><text y="358" x="448.71794871794873" text-anchor="middle" visibility="hidden" style="font-size: 13px;">N</text><text y="358" x="450.9615384615385" text-anchor="middle" visibility="hidden" style="font-size: 13px;">Y</text><text y="358" x="453.20512820512823" text-anchor="middle" visibility="hidden" style="font-size: 13px;">Q</text><text y="358" x="455.44871794871796" text-anchor="middle" visibility="hidden" style="font-size: 13px;">F</text><text y="358" x="457.6923076923077" text-anchor="middle" visibility="hidden" style="font-size: 13px;">A</text><text y="358" x="459.93589743589746" text-anchor="middle" visibility="hidden" style="font-size: 13px;">K</text><text y="358" x="462.1794871794872" text-anchor="middle" visibility="hidden" style="font-size: 13px;">Y</text><text y="358" x="464.4230769230769" text-anchor="middle" visibility="hidden" style="font-size: 13px;">R</text><text y="358" x="466.66666666666663" text-anchor="middle" visibility="hidden" style="font-size: 13px;">S</text><text y="358" x="468.91025641025635" text-anchor="middle" visibility="hidden" style="font-size: 13px;">F</text><text y="358" x="471.1538461538462" text-anchor="middle" visibility="hidden" style="font-size: 13px;">K</text><text y="358" x="473.3974358974359" text-anchor="middle" visibility="hidden" style="font-size: 13px;">V</text><text y="358" x="475.64102564102564" text-anchor="middle" visibility="hidden" style="font-size: 13px;">A</text><text y="358" x="477.8846153846154" text-anchor="middle" visibility="hidden" style="font-size: 13px;">D</text><text y="358" x="480.12820512820514" text-anchor="middle" visibility="hidden" style="font-size: 13px;">E</text><text y="358" x="482.37179487179486" text-anchor="middle" visibility="hidden" style="font-size: 13px;">A</text><text y="358" x="484.6153846153846" text-anchor="middle" visibility="hidden" style="font-size: 13px;">E</text><text y="358" x="486.85897435897436" text-anchor="middle" visibility="hidden" style="font-size: 13px;">K</text><text y="358" x="489.1025641025641" text-anchor="middle" visibility="hidden" style="font-size: 13px;">Y</text><text y="358" x="491.3461538461538" text-anchor="middle" visibility="hidden" style="font-size: 13px;">N</text><text y="358" x="493.58974358974365" text-anchor="middle" visibility="hidden" style="font-size: 13px;">L</text><text y="358" x="495.83333333333337" text-anchor="middle" visibility="hidden" style="font-size: 13px;">V</text><text y="358" x="498.0769230769231" text-anchor="middle" visibility="hidden" style="font-size: 13px;">L</text><text y="358" x="500.3205128205128" text-anchor="middle" visibility="hidden" style="font-size: 13px;">G</text><text y="358" x="502.56410256410254" text-anchor="middle" visibility="hidden" style="font-size: 13px;">A</text><text y="358" x="504.8076923076923" text-anchor="middle" visibility="hidden" style="font-size: 13px;">F</text><text y="358" x="507.05128205128204" text-anchor="middle" visibility="hidden" style="font-size: 13px;">V</text><text y="358" x="509.29487179487177" text-anchor="middle" visibility="hidden" style="font-size: 13px;">E</text><text y="358" x="511.5384615384615" text-anchor="middle" visibility="hidden" style="font-size: 13px;">G</text><text y="358" x="513.7820512820513" text-anchor="middle" visibility="hidden" style="font-size: 13px;">S</text><text y="358" x="516.0256410256411" text-anchor="middle" visibility="hidden" style="font-size: 13px;">A</text><text y="358" x="518.2692307692308" text-anchor="middle" visibility="hidden" style="font-size: 13px;">G</text><text y="358" x="520.5128205128206" text-anchor="middle" visibility="hidden" style="font-size: 13px;">D</text><text y="358" x="522.7564102564103" text-anchor="middle" visibility="hidden" style="font-size: 13px;">S</text><text y="358" x="525" text-anchor="middle" visibility="hidden" style="font-size: 13px;">L</text><text y="358" x="527.2435897435897" text-anchor="middle" visibility="hidden" style="font-size: 13px;">T</text><text y="358" x="529.4871794871794" text-anchor="middle" visibility="hidden" style="font-size: 13px;">F</text><text y="358" x="531.7307692307692" text-anchor="middle" visibility="hidden" style="font-size: 13px;">H</text><text y="358" x="533.9743589743589" text-anchor="middle" visibility="hidden" style="font-size: 13px;">N</text><text y="358" x="536.2179487179487" text-anchor="middle" visibility="hidden" style="font-size: 13px;">N</text><text y="358" x="538.4615384615385" text-anchor="middle" visibility="hidden" style="font-size: 13px;">Q</text><text y="358" x="540.7051282051282" text-anchor="middle" visibility="hidden" style="font-size: 13px;">S</text><text y="358" x="542.948717948718" text-anchor="middle" visibility="hidden" style="font-size: 13px;">F</text><text y="358" x="545.1923076923077" text-anchor="middle" visibility="hidden" style="font-size: 13px;">S</text><text y="358" x="547.4358974358975" text-anchor="middle" visibility="hidden" style="font-size: 13px;">T</text><text y="358" x="549.6794871794872" text-anchor="middle" visibility="hidden" style="font-size: 13px;">K</text><text y="358" x="551.9230769230769" text-anchor="middle" visibility="hidden" style="font-size: 13px;">D</text><text y="358" x="554.1666666666666" text-anchor="middle" visibility="hidden" style="font-size: 13px;">Q</text><text y="358" x="556.4102564102564" text-anchor="middle" visibility="hidden" style="font-size: 13px;">D</text><text y="358" x="558.6538461538462" text-anchor="middle" visibility="hidden" style="font-size: 13px;">N</text><text y="358" x="560.8974358974359" text-anchor="middle" visibility="hidden" style="font-size: 13px;">D</text><text y="358" x="563.1410256410256" text-anchor="middle" visibility="hidden" style="font-size: 13px;">L</text><text y="358" x="565.3846153846154" text-anchor="middle" visibility="hidden" style="font-size: 13px;">N</text><text y="358" x="567.6282051282051" text-anchor="middle" visibility="hidden" style="font-size: 13px;">T</text><text y="358" x="569.8717948717949" text-anchor="middle" visibility="hidden" style="font-size: 13px;">G</text><text y="358" x="572.1153846153846" text-anchor="middle" visibility="hidden" style="font-size: 13px;">N</text><text y="358" x="574.3589743589744" text-anchor="middle" visibility="hidden" style="font-size: 13px;">C</text><text y="358" x="576.6025641025641" text-anchor="middle" visibility="hidden" style="font-size: 13px;">A</text><text y="358" x="578.8461538461538" text-anchor="middle" visibility="hidden" style="font-size: 13px;">V</text><text y="358" x="581.0897435897436" text-anchor="middle" visibility="hidden" style="font-size: 13px;">M</text><text y="358" x="583.3333333333334" text-anchor="middle" visibility="hidden" style="font-size: 13px;">F</text><text y="358" x="585.5769230769231" text-anchor="middle" visibility="hidden" style="font-size: 13px;">Q</text><text y="358" x="587.8205128205128" text-anchor="middle" visibility="hidden" style="font-size: 13px;">G</text><text y="358" x="590.0641025641025" text-anchor="middle" visibility="hidden" style="font-size: 13px;">A</text><text y="358" x="592.3076923076923" text-anchor="middle" visibility="hidden" style="font-size: 13px;">W</text><text y="358" x="594.551282051282" text-anchor="middle" visibility="hidden" style="font-size: 13px;">W</text><text y="358" x="596.7948717948718" text-anchor="middle" visibility="hidden" style="font-size: 13px;">Y</text><text y="358" x="599.0384615384615" text-anchor="middle" visibility="hidden" style="font-size: 13px;">K</text><text y="358" x="601.2820512820513" text-anchor="middle" visibility="hidden" style="font-size: 13px;">N</text><text y="358" x="603.5256410256411" text-anchor="middle" visibility="hidden" style="font-size: 13px;">C</text><text y="358" x="605.7692307692308" text-anchor="middle" visibility="hidden" style="font-size: 13px;">H</text><text y="358" x="608.0128205128206" text-anchor="middle" visibility="hidden" style="font-size: 13px;">V</text><text y="358" x="610.2564102564103" text-anchor="middle" visibility="hidden" style="font-size: 13px;">S</text><text y="358" x="612.5" text-anchor="middle" visibility="hidden" style="font-size: 13px;">N</text><text y="358" x="614.7435897435897" text-anchor="middle" visibility="hidden" style="font-size: 13px;">L</text><text y="358" x="616.9871794871794" text-anchor="middle" visibility="hidden" style="font-size: 13px;">N</text><text y="358" x="619.2307692307692" text-anchor="middle" visibility="hidden" style="font-size: 13px;">G</text><text y="358" x="621.4743589743589" text-anchor="middle" visibility="hidden" style="font-size: 13px;">R</text><text y="358" x="623.7179487179487" text-anchor="middle" visibility="hidden" style="font-size: 13px;">Y</text><text y="358" x="625.9615384615385" text-anchor="middle" visibility="hidden" style="font-size: 13px;">L</text><text y="358" x="628.2051282051282" text-anchor="middle" visibility="hidden" style="font-size: 13px;">R</text><text y="358" x="630.448717948718" text-anchor="middle" visibility="hidden" style="font-size: 13px;">G</text><text y="358" x="632.6923076923077" text-anchor="middle" visibility="hidden" style="font-size: 13px;">T</text><text y="358" x="634.9358974358975" text-anchor="middle" visibility="hidden" style="font-size: 13px;">H</text><text y="358" x="637.1794871794872" text-anchor="middle" visibility="hidden" style="font-size: 13px;">G</text><text y="358" x="639.4230769230769" text-anchor="middle" visibility="hidden" style="font-size: 13px;">S</text><text y="358" x="641.6666666666666" text-anchor="middle" visibility="hidden" style="font-size: 13px;">F</text><text y="358" x="643.9102564102564" text-anchor="middle" visibility="hidden" style="font-size: 13px;">A</text><text y="358" x="646.1538461538462" text-anchor="middle" visibility="hidden" style="font-size: 13px;">N</text><text y="358" x="648.3974358974359" text-anchor="middle" visibility="hidden" style="font-size: 13px;">G</text><text y="358" x="650.6410256410256" text-anchor="middle" visibility="hidden" style="font-size: 13px;">I</text><text y="358" x="652.8846153846154" text-anchor="middle" visibility="hidden" style="font-size: 13px;">N</text><text y="358" x="655.1282051282051" text-anchor="middle" visibility="hidden" style="font-size: 13px;">W</text><text y="358" x="657.3717948717949" text-anchor="middle" visibility="hidden" style="font-size: 13px;">K</text><text y="358" x="659.6153846153846" text-anchor="middle" visibility="hidden" style="font-size: 13px;">S</text><text y="358" x="661.8589743589744" text-anchor="middle" visibility="hidden" style="font-size: 13px;">G</text><text y="358" x="664.1025641025641" text-anchor="middle" visibility="hidden" style="font-size: 13px;">K</text><text y="358" x="666.3461538461538" text-anchor="middle" visibility="hidden" style="font-size: 13px;">G</text><text y="358" x="668.5897435897436" text-anchor="middle" visibility="hidden" style="font-size: 13px;">Y</text><text y="358" x="670.8333333333334" text-anchor="middle" visibility="hidden" style="font-size: 13px;">N</text><text y="358" x="673.0769230769231" text-anchor="middle" visibility="hidden" style="font-size: 13px;">Y</text><text y="358" x="675.3205128205128" text-anchor="middle" visibility="hidden" style="font-size: 13px;">S</text><text y="358" x="677.5641025641025" text-anchor="middle" visibility="hidden" style="font-size: 13px;">Y</text><text y="358" x="679.8076923076923" text-anchor="middle" visibility="hidden" style="font-size: 13px;">K</text><text y="358" x="682.051282051282" text-anchor="middle" visibility="hidden" style="font-size: 13px;">V</text><text y="358" x="684.2948717948718" text-anchor="middle" visibility="hidden" style="font-size: 13px;">S</text><text y="358" x="686.5384615384615" text-anchor="middle" visibility="hidden" style="font-size: 13px;">E</text><text y="358" x="688.7820512820513" text-anchor="middle" visibility="hidden" style="font-size: 13px;">M</text><text y="358" x="691.0256410256411" text-anchor="middle" visibility="hidden" style="font-size: 13px;">K</text><text y="358" x="693.2692307692308" text-anchor="middle" visibility="hidden" style="font-size: 13px;">V</text><text y="358" x="695.5128205128206" text-anchor="middle" visibility="hidden" style="font-size: 13px;">R</text><text y="358" x="697.7564102564103" text-anchor="middle" visibility="hidden" style="font-size: 13px;">P</text><text y="358" x="700" text-anchor="middle" visibility="hidden" style="font-size: 13px;">A</text></g></g></svg><g class="xAxis" transform="translate(0,360)" fill="none" font-size="10" font-family="sans-serif" text-anchor="middle"><path class="domain" stroke="#000" d="M0.5,6V0.5H700.5V6"></path><g class="tick" opacity="1" transform="translate(43.128205128205124,0)"><line stroke="#000" y2="6"></line><text fill="#000" y="9" dy="0.71em">20</text></g><g class="tick" opacity="1" transform="translate(88,0)"><line stroke="#000" y2="6"></line><text fill="#000" y="9" dy="0.71em">40</text></g><g class="tick" opacity="1" transform="translate(132.87179487179486,0)"><line stroke="#000" y2="6"></line><text fill="#000" y="9" dy="0.71em">60</text></g><g class="tick" opacity="1" transform="translate(177.74358974358972,0)"><line stroke="#000" y2="6"></line><text fill="#000" y="9" dy="0.71em">80</text></g><g class="tick" opacity="1" transform="translate(222.6153846153846,0)"><line stroke="#000" y2="6"></line><text fill="#000" y="9" dy="0.71em">100</text></g><g class="tick" opacity="1" transform="translate(267.48717948717945,0)"><line stroke="#000" y2="6"></line><text fill="#000" y="9" dy="0.71em">120</text></g><g class="tick" opacity="1" transform="translate(312.35897435897436,0)"><line stroke="#000" y2="6"></line><text fill="#000" y="9" dy="0.71em">140</text></g><g class="tick" opacity="1" transform="translate(357.2307692307692,0)"><line stroke="#000" y2="6"></line><text fill="#000" y="9" dy="0.71em">160</text></g><g class="tick" opacity="1" transform="translate(402.1025641025641,0)"><line stroke="#000" y2="6"></line><text fill="#000" y="9" dy="0.71em">180</text></g><g class="tick" opacity="1" transform="translate(446.97435897435895,0)"><line stroke="#000" y2="6"></line><text fill="#000" y="9" dy="0.71em">200</text></g><g class="tick" opacity="1" transform="translate(491.8461538461538,0)"><line stroke="#000" y2="6"></line><text fill="#000" y="9" dy="0.71em">220</text></g><g class="tick" opacity="1" transform="translate(536.7179487179487,0)"><line stroke="#000" y2="6"></line><text fill="#000" y="9" dy="0.71em">240</text></g><g class="tick" opacity="1" transform="translate(581.5897435897436,0)"><line stroke="#000" y2="6"></line><text fill="#000" y="9" dy="0.71em">260</text></g><g class="tick" opacity="1" transform="translate(626.4615384615385,0)"><line stroke="#000" y2="6"></line><text fill="#000" y="9" dy="0.71em">280</text></g><g class="tick" opacity="1" transform="translate(671.3333333333334,0)"><line stroke="#000" y2="6"></line><text fill="#000" y="9" dy="0.71em">300</text></g></g><text class="x label" text-anchor="end" x="700" y="390" style="font-size: 13px; font-family: Arial;">Residue number</text><g class="yAxis" fill="none" font-size="10" font-family="sans-serif" text-anchor="end"><path class="domain" stroke="#000" d="M-6,360.5H0.5V0.5H-6"></path><g class="tick" opacity="1" transform="translate(0,360.5)"><line stroke="#000" x2="-6"></line><text fill="#000" x="-9" dy="0.32em">0</text></g></g><text class="y label" text-anchor="middle" y="-50" x="-180" dy="0.8em" transform="rotate(-90)" style="font-size: 13px; font-family: Arial;">Total number of references</text><g class="axisRed" fill="none" font-size="10" font-family="sans-serif" text-anchor="start" visibility="hidden" transform="translate(700, 0)"><path class="domain" stroke="#000" d="M6,360.5H0.5V0.5H6"></path><g class="tick" opacity="1" transform="translate(0,360.5)"><line stroke="#000" x2="6"></line><text fill="#000" x="9" dy="0.32em">0</text></g><text text-anchor="start" dx="5.2em" dy="-2.6em" transform="rotate(90)" visibility="hidden" style="font-size: 12px; font-family: Arial; fill: #d7301f;">No recurrent (&gt;2) missense mutations!</text></g><g class="axisPurple" fill="none" font-size="10" font-family="sans-serif" text-anchor="start" visibility="hidden"><path class="domain" stroke="#000" d="M6,360.5H0.5V0.5H6"></path><g class="tick" opacity="1" transform="translate(0,357.52479338842977)"><line stroke="#000" x2="6"></line><text fill="#000" x="9" dy="0.32em"></text></g><g class="tick" opacity="1" transform="translate(0,327.77272727272725)"><line stroke="#000" x2="6"></line><text fill="#000" x="9" dy="0.32em">0</text></g><g class="tick" opacity="1" transform="translate(0,298.0206611570248)"><line stroke="#000" x2="6"></line><text fill="#000" x="9" dy="0.32em">0.1</text></g><g class="tick" opacity="1" transform="translate(0,268.2685950413223)"><line stroke="#000" x2="6"></line><text fill="#000" x="9" dy="0.32em">0.2</text></g><g class="tick" opacity="1" transform="translate(0,238.51652892561984)"><line stroke="#000" x2="6"></line><text fill="#000" x="9" dy="0.32em">0.3</text></g><g class="tick" opacity="1" transform="translate(0,208.76446280991738)"><line stroke="#000" x2="6"></line><text fill="#000" x="9" dy="0.32em">0.4</text></g><g class="tick" opacity="1" transform="translate(0,179.0123966942149)"><line stroke="#000" x2="6"></line><text fill="#000" x="9" dy="0.32em">0.5</text></g><g class="tick" opacity="1" transform="translate(0,149.26033057851242)"><line stroke="#000" x2="6"></line><text fill="#000" x="9" dy="0.32em">0.6</text></g><g class="tick" opacity="1" transform="translate(0,119.50826446280996)"><line stroke="#000" x2="6"></line><text fill="#000" x="9" dy="0.32em">0.7</text></g><g class="tick" opacity="1" transform="translate(0,89.75619834710744)"><line stroke="#000" x2="6"></line><text fill="#000" x="9" dy="0.32em">0.8</text></g><g class="tick" opacity="1" transform="translate(0,60.00413223140498)"><line stroke="#000" x2="6"></line><text fill="#000" x="9" dy="0.32em">0.9</text></g><g class="tick" opacity="1" transform="translate(0,30.25206611570252)"><line stroke="#000" x2="6"></line><text fill="#000" x="9" dy="0.32em">1</text></g><g class="tick" opacity="1" transform="translate(0,0.5)"><line stroke="#000" x2="6"></line><text fill="#000" x="9" dy="0.32em">1.1</text></g><text text-anchor="start" x="10" y="10" visibility="hidden" style="font-size: 12px; font-family: Arial; fill: #807dba;">No disease causing germline SNPs known!</text></g><circle cx="636" cy="15" r="10" class="compassNav" style="fill: #ffffff; stroke: #666666; stroke-width: 1px;"></circle><path d="M440.935 12.574l3.966 82.766C399.416 41.904 331.674 8 256 8 134.813 8 33.933 94.924 12.296 209.824 10.908 217.193 16.604 224 24.103 224h49.084c5.57 0 10.377-3.842 11.676-9.259C103.407 137.408 172.931 80 256 80c60.893 0 114.512 30.856 146.104 77.801l-101.53-4.865c-6.845-.328-12.574 5.133-12.574 11.986v47.411c0 6.627 5.373 12 12 12h200.333c6.627 0 12-5.373 12-12V12c0-6.627-5.373-12-12-12h-47.411c-6.853 0-12.315 5.729-11.987 12.574zM256 432c-60.895 0-114.517-30.858-146.109-77.805l101.868 4.871c6.845.327 12.573-5.134 12.573-11.986v-47.412c0-6.627-5.373-12-12-12H12c-6.627 0-12 5.373-12 12V500c0 6.627 5.373 12 12 12h47.385c6.863 0 12.328-5.745 11.985-12.599l-4.129-82.575C112.725 470.166 180.405 504 256 504c121.187 0 222.067-86.924 243.704-201.824 1.388-7.369-4.308-14.176-11.807-14.176h-49.084c-5.57 0-10.377 3.842-11.676 9.259C408.593 374.592 339.069 432 256 432z" class="compassNav" transform="translate(631, 10) scale(0.02)" style="fill: #666666; stroke: #666666; stroke-width: 1px;"></path><circle cx="658" cy="15" r="10" class="compassNav" style="fill: #ffffff; stroke: #666666; stroke-width: 1px;"></circle><line class="compassNav" stroke-width="2" stroke="#666666" x1="654" y1="15" x2="662" y2="15"></line><line class="compassNav" stroke-width="2" stroke="#666666" x1="658" y1="11" x2="658" y2="19"></line><circle cx="614" cy="15" r="10" class="compassNav" style="fill: #ffffff; stroke: #666666; stroke-width: 1px;"></circle><line class="compassNav" stroke-width="2" stroke="#666666" x1="610" y1="15" x2="618" y2="15"></line><path d="M582 14 l20 -12 a100,40 0 0,0 0,24z" class="compassNav" style="fill: #ffffff; stroke: #666666; stroke-width: 1px;"></path><path d="M690 14 l-20 -12 a100,40 0 0,1 0,24z" class="compassNav" style="fill: #ffffff; stroke: #666666; stroke-width: 1px;"></path><path d="M216 0h80c13.3 0 24 10.7 24 24v168h87.7c17.8 0 26.7 21.5 14.1 34.1L269.7 378.3c-7.5 7.5-19.8 7.5-27.3 0L90.1 226.1c-12.6-12.6-3.7-34.1 14.1-34.1H192V24c0-13.3 10.7-24 24-24zm296 376v112c0 13.3-10.7 24-24 24H24c-13.3 0-24-10.7-24-24V376c0-13.3 10.7-24 24-24h146.7l49 49c20.1 20.1 52.5 20.1 72.6 0l49-49H488c13.3 0 24 10.7 24 24zm-124 88c0-11-9-20-20-20s-20 9-20 20 9 20 20 20 20-9 20-20zm64 0c0-11-9-20-20-20s-20 9-20 20 9 20 20 20 20-9 20-20z" class="compassNav" transform="translate(552,0) scale(0.05)" style="fill: #336699; stroke: #336699; stroke-width: 1px; cursor: pointer;"></path></g></svg>