<svg width="800" height="400" style="background-color: white;"><g transform="translate(50,0)"><svg width="700" height="360"><g style="-webkit-tap-highlight-color: rgba(0, 0, 0, 0);"><rect width="700" height="360" style="fill: #ffffff;"></rect><g id="lines"><line class="line" stroke-width="1" stroke="#d7301f" x1="-287.3983739837399" y1="333" x2="-287.3983739837399" y2="360" visibility="hidden" style="stroke-dasharray: 3px, 3px;"></line></g><g><rect x="-292.3983739837399" y="355" width="10" height="10" visibility="hidden" style="fill: #ffffff; stroke: #d7301f;"></rect></g><g id="lines"><line class="line" stroke-width="1" stroke="#6a51a3" x1="-287.3983739837399" y1="333" x2="-287.3983739837399" y2="327.27272727272725" visibility="hidden" style="stroke-dasharray: 3px, 3px;"></line></g><g><rect x="-292.3983739837399" y="322.27272727272725" width="10" height="10" visibility="hidden" style="fill: #ffffff; stroke: #6a51a3;"></rect></g><g id="lines"><line class="line" stroke-width="1" stroke="#666666" x1="147.96747967479675" y1="333" x2="147.96747967479675" y2="29.75206611570252"></line><line class="line" stroke-width="1" stroke="#666666" x1="517.8861788617886" y1="333" x2="517.8861788617886" y2="29.75206611570252"></line></g><g id="circles"><circle r="4" cx="147.96747967479675" cy="29.75206611570252" style="fill: #666666; stroke: #666666; stroke-width: 1px;"></circle><circle r="4" cx="517.8861788617886" cy="29.75206611570252" style="fill: #5aae61; stroke: #666666; stroke-width: 1px;"></circle></g><g><rect x="0" y="333" width="700" height="12" style="fill: #ffffff; stroke-width: 1px; stroke: #666666;"></rect><rect x="110.97560975609757" y="333" width="204.8780487804878" height="12" style="fill: #aec7e8; stroke-width: 1px; stroke: #666666;"></rect><rect x="330.0813008130081" y="333" width="355.6910569105691" height="12" style="fill: #ffbb78; stroke-width: 1px; stroke: #666666;"></rect></g><g><a target="_blank" xlink:href="http://pfam.xfam.org/family/"><text y="343" x="350" text-anchor="middle" style="color: rgb(102, 102, 102); font-weight: normal; font-size: 12px; font-family: Arial; cursor: pointer;"></text></a><a target="_blank" xlink:href="http://pfam.xfam.org/family/Collagen"><text y="343" x="213.41463414634148" text-anchor="middle" style="color: rgb(102, 102, 102); font-weight: normal; font-size: 12px; font-family: Arial; cursor: pointer;">Collagen</text></a><a target="_blank" xlink:href="http://pfam.xfam.org/family/C1q"><text y="343" x="507.92682926829264" text-anchor="middle" style="color: rgb(102, 102, 102); font-weight: normal; font-size: 12px; font-family: Arial; cursor: pointer;">C1q</text></a></g><g><text y="358" x="0" text-anchor="middle" visibility="hidden" style="font-size: 13px;">M</text><text y="358" x="2.845528455284553" text-anchor="middle" visibility="hidden" style="font-size: 13px;">L</text><text y="358" x="5.691056910569106" text-anchor="middle" visibility="hidden" style="font-size: 13px;">L</text><text y="358" x="8.536585365853659" text-anchor="middle" visibility="hidden" style="font-size: 13px;">L</text><text y="358" x="11.382113821138212" text-anchor="middle" visibility="hidden" style="font-size: 13px;">Q</text><text y="358" x="14.227642276422763" text-anchor="middle" visibility="hidden" style="font-size: 13px;">A</text><text y="358" x="17.073170731707318" text-anchor="middle" visibility="hidden" style="font-size: 13px;">L</text><text y="358" x="19.91869918699187" text-anchor="middle" visibility="hidden" style="font-size: 13px;">L</text><text y="358" x="22.764227642276424" text-anchor="middle" visibility="hidden" style="font-size: 13px;">F</text><text y="358" x="25.609756097560975" text-anchor="middle" visibility="hidden" style="font-size: 13px;">L</text><text y="358" x="28.455284552845526" text-anchor="middle" visibility="hidden" style="font-size: 13px;">L</text><text y="358" x="31.30081300813008" text-anchor="middle" visibility="hidden" style="font-size: 13px;">I</text><text y="358" x="34.146341463414636" text-anchor="middle" visibility="hidden" style="font-size: 13px;">L</text><text y="358" x="36.99186991869919" text-anchor="middle" visibility="hidden" style="font-size: 13px;">P</text><text y="358" x="39.83739837398374" text-anchor="middle" visibility="hidden" style="font-size: 13px;">S</text><text y="358" x="42.68292682926829" text-anchor="middle" visibility="hidden" style="font-size: 13px;">H</text><text y="358" x="45.52845528455285" text-anchor="middle" visibility="hidden" style="font-size: 13px;">A</text><text y="358" x="48.3739837398374" text-anchor="middle" visibility="hidden" style="font-size: 13px;">E</text><text y="358" x="51.21951219512195" text-anchor="middle" visibility="hidden" style="font-size: 13px;">D</text><text y="358" x="54.06504065040651" text-anchor="middle" visibility="hidden" style="font-size: 13px;">D</text><text y="358" x="56.91056910569105" text-anchor="middle" visibility="hidden" style="font-size: 13px;">V</text><text y="358" x="59.75609756097561" text-anchor="middle" visibility="hidden" style="font-size: 13px;">T</text><text y="358" x="62.60162601626016" text-anchor="middle" visibility="hidden" style="font-size: 13px;">T</text><text y="358" x="65.4471544715447" text-anchor="middle" visibility="hidden" style="font-size: 13px;">T</text><text y="358" x="68.29268292682927" text-anchor="middle" visibility="hidden" style="font-size: 13px;">E</text><text y="358" x="71.13821138211382" text-anchor="middle" visibility="hidden" style="font-size: 13px;">E</text><text y="358" x="73.98373983739837" text-anchor="middle" visibility="hidden" style="font-size: 13px;">L</text><text y="358" x="76.82926829268293" text-anchor="middle" visibility="hidden" style="font-size: 13px;">A</text><text y="358" x="79.67479674796748" text-anchor="middle" visibility="hidden" style="font-size: 13px;">P</text><text y="358" x="82.52032520325203" text-anchor="middle" visibility="hidden" style="font-size: 13px;">A</text><text y="358" x="85.36585365853658" text-anchor="middle" visibility="hidden" style="font-size: 13px;">L</text><text y="358" x="88.21138211382113" text-anchor="middle" visibility="hidden" style="font-size: 13px;">V</text><text y="358" x="91.0569105691057" text-anchor="middle" visibility="hidden" style="font-size: 13px;">P</text><text y="358" x="93.90243902439025" text-anchor="middle" visibility="hidden" style="font-size: 13px;">P</text><text y="358" x="96.7479674796748" text-anchor="middle" visibility="hidden" style="font-size: 13px;">P</text><text y="358" x="99.59349593495935" text-anchor="middle" visibility="hidden" style="font-size: 13px;">K</text><text y="358" x="102.4390243902439" text-anchor="middle" visibility="hidden" style="font-size: 13px;">G</text><text y="358" x="105.28455284552847" text-anchor="middle" visibility="hidden" style="font-size: 13px;">T</text><text y="358" x="108.13008130081302" text-anchor="middle" visibility="hidden" style="font-size: 13px;">C</text><text y="358" x="110.97560975609757" text-anchor="middle" visibility="hidden" style="font-size: 13px;">A</text><text y="358" x="113.8211382113821" text-anchor="middle" visibility="hidden" style="font-size: 13px;">G</text><text y="358" x="116.66666666666666" text-anchor="middle" visibility="hidden" style="font-size: 13px;">W</text><text y="358" x="119.51219512195122" text-anchor="middle" visibility="hidden" style="font-size: 13px;">M</text><text y="358" x="122.35772357723577" text-anchor="middle" visibility="hidden" style="font-size: 13px;">A</text><text y="358" x="125.20325203252033" text-anchor="middle" visibility="hidden" style="font-size: 13px;">G</text><text y="358" x="128.04878048780486" text-anchor="middle" visibility="hidden" style="font-size: 13px;">I</text><text y="358" x="130.8943089430894" text-anchor="middle" visibility="hidden" style="font-size: 13px;">P</text><text y="358" x="133.739837398374" text-anchor="middle" visibility="hidden" style="font-size: 13px;">G</text><text y="358" x="136.58536585365854" text-anchor="middle" visibility="hidden" style="font-size: 13px;">H</text><text y="358" x="139.4308943089431" text-anchor="middle" visibility="hidden" style="font-size: 13px;">P</text><text y="358" x="142.27642276422765" text-anchor="middle" visibility="hidden" style="font-size: 13px;">G</text><text y="358" x="145.1219512195122" text-anchor="middle" visibility="hidden" style="font-size: 13px;">H</text><text y="358" x="147.96747967479675" text-anchor="middle" visibility="hidden" style="font-size: 13px;">N</text><text y="358" x="150.8130081300813" text-anchor="middle" visibility="hidden" style="font-size: 13px;">G</text><text y="358" x="153.65853658536585" text-anchor="middle" visibility="hidden" style="font-size: 13px;">T</text><text y="358" x="156.5040650406504" text-anchor="middle" visibility="hidden" style="font-size: 13px;">P</text><text y="358" x="159.34959349593495" text-anchor="middle" visibility="hidden" style="font-size: 13px;">G</text><text y="358" x="162.19512195121953" text-anchor="middle" visibility="hidden" style="font-size: 13px;">R</text><text y="358" x="165.04065040650406" text-anchor="middle" visibility="hidden" style="font-size: 13px;">D</text><text y="358" x="167.8861788617886" text-anchor="middle" visibility="hidden" style="font-size: 13px;">G</text><text y="358" x="170.73170731707316" text-anchor="middle" visibility="hidden" style="font-size: 13px;">R</text><text y="358" x="173.5772357723577" text-anchor="middle" visibility="hidden" style="font-size: 13px;">D</text><text y="358" x="176.42276422764226" text-anchor="middle" visibility="hidden" style="font-size: 13px;">G</text><text y="358" x="179.26829268292684" text-anchor="middle" visibility="hidden" style="font-size: 13px;">T</text><text y="358" x="182.1138211382114" text-anchor="middle" visibility="hidden" style="font-size: 13px;">P</text><text y="358" x="184.95934959349594" text-anchor="middle" visibility="hidden" style="font-size: 13px;">G</text><text y="358" x="187.8048780487805" text-anchor="middle" visibility="hidden" style="font-size: 13px;">E</text><text y="358" x="190.65040650406502" text-anchor="middle" visibility="hidden" style="font-size: 13px;">K</text><text y="358" x="193.4959349593496" text-anchor="middle" visibility="hidden" style="font-size: 13px;">G</text><text y="358" x="196.34146341463418" text-anchor="middle" visibility="hidden" style="font-size: 13px;">E</text><text y="358" x="199.1869918699187" text-anchor="middle" visibility="hidden" style="font-size: 13px;">K</text><text y="358" x="202.03252032520325" text-anchor="middle" visibility="hidden" style="font-size: 13px;">G</text><text y="358" x="204.8780487804878" text-anchor="middle" visibility="hidden" style="font-size: 13px;">D</text><text y="358" x="207.72357723577235" text-anchor="middle" visibility="hidden" style="font-size: 13px;">A</text><text y="358" x="210.56910569105693" text-anchor="middle" visibility="hidden" style="font-size: 13px;">G</text><text y="358" x="213.41463414634146" text-anchor="middle" visibility="hidden" style="font-size: 13px;">L</text><text y="358" x="216.26016260162604" text-anchor="middle" visibility="hidden" style="font-size: 13px;">L</text><text y="358" x="219.10569105691056" text-anchor="middle" visibility="hidden" style="font-size: 13px;">G</text><text y="358" x="221.95121951219514" text-anchor="middle" visibility="hidden" style="font-size: 13px;">P</text><text y="358" x="224.7967479674797" text-anchor="middle" visibility="hidden" style="font-size: 13px;">K</text><text y="358" x="227.6422764227642" text-anchor="middle" visibility="hidden" style="font-size: 13px;">G</text><text y="358" x="230.4878048780488" text-anchor="middle" visibility="hidden" style="font-size: 13px;">E</text><text y="358" x="233.33333333333331" text-anchor="middle" visibility="hidden" style="font-size: 13px;">T</text><text y="358" x="236.1788617886179" text-anchor="middle" visibility="hidden" style="font-size: 13px;">G</text><text y="358" x="239.02439024390245" text-anchor="middle" visibility="hidden" style="font-size: 13px;">D</text><text y="358" x="241.869918699187" text-anchor="middle" visibility="hidden" style="font-size: 13px;">V</text><text y="358" x="244.71544715447155" text-anchor="middle" visibility="hidden" style="font-size: 13px;">G</text><text y="358" x="247.56097560975607" text-anchor="middle" visibility="hidden" style="font-size: 13px;">M</text><text y="358" x="250.40650406504065" text-anchor="middle" visibility="hidden" style="font-size: 13px;">T</text><text y="358" x="253.25203252032523" text-anchor="middle" visibility="hidden" style="font-size: 13px;">G</text><text y="358" x="256.0975609756097" text-anchor="middle" visibility="hidden" style="font-size: 13px;">A</text><text y="358" x="258.9430894308943" text-anchor="middle" visibility="hidden" style="font-size: 13px;">E</text><text y="358" x="261.7886178861788" text-anchor="middle" visibility="hidden" style="font-size: 13px;">G</text><text y="358" x="264.6341463414634" text-anchor="middle" visibility="hidden" style="font-size: 13px;">P</text><text y="358" x="267.479674796748" text-anchor="middle" visibility="hidden" style="font-size: 13px;">R</text><text y="358" x="270.3252032520325" text-anchor="middle" visibility="hidden" style="font-size: 13px;">G</text><text y="358" x="273.1707317073171" text-anchor="middle" visibility="hidden" style="font-size: 13px;">F</text><text y="358" x="276.0162601626016" text-anchor="middle" visibility="hidden" style="font-size: 13px;">P</text><text y="358" x="278.8617886178862" text-anchor="middle" visibility="hidden" style="font-size: 13px;">G</text><text y="358" x="281.70731707317077" text-anchor="middle" visibility="hidden" style="font-size: 13px;">T</text><text y="358" x="284.5528455284553" text-anchor="middle" visibility="hidden" style="font-size: 13px;">P</text><text y="358" x="287.3983739837399" text-anchor="middle" visibility="hidden" style="font-size: 13px;">G</text><text y="358" x="290.2439024390244" text-anchor="middle" visibility="hidden" style="font-size: 13px;">R</text><text y="358" x="293.0894308943089" text-anchor="middle" visibility="hidden" style="font-size: 13px;">K</text><text y="358" x="295.9349593495935" text-anchor="middle" visibility="hidden" style="font-size: 13px;">G</text><text y="358" x="298.780487804878" text-anchor="middle" visibility="hidden" style="font-size: 13px;">E</text><text y="358" x="301.6260162601626" text-anchor="middle" visibility="hidden" style="font-size: 13px;">P</text><text y="358" x="304.4715447154471" text-anchor="middle" visibility="hidden" style="font-size: 13px;">G</text><text y="358" x="307.3170731707317" text-anchor="middle" visibility="hidden" style="font-size: 13px;">E</text><text y="358" x="310.1626016260163" text-anchor="middle" visibility="hidden" style="font-size: 13px;">A</text><text y="358" x="313.0081300813008" text-anchor="middle" visibility="hidden" style="font-size: 13px;">A</text><text y="358" x="315.8536585365854" text-anchor="middle" visibility="hidden" style="font-size: 13px;">Y</text><text y="358" x="318.6991869918699" text-anchor="middle" visibility="hidden" style="font-size: 13px;">V</text><text y="358" x="321.5447154471545" text-anchor="middle" visibility="hidden" style="font-size: 13px;">Y</text><text y="358" x="324.39024390243907" text-anchor="middle" visibility="hidden" style="font-size: 13px;">R</text><text y="358" x="327.2357723577236" text-anchor="middle" visibility="hidden" style="font-size: 13px;">S</text><text y="358" x="330.0813008130081" text-anchor="middle" visibility="hidden" style="font-size: 13px;">A</text><text y="358" x="332.9268292682927" text-anchor="middle" visibility="hidden" style="font-size: 13px;">F</text><text y="358" x="335.7723577235772" text-anchor="middle" visibility="hidden" style="font-size: 13px;">S</text><text y="358" x="338.6178861788618" text-anchor="middle" visibility="hidden" style="font-size: 13px;">V</text><text y="358" x="341.4634146341463" text-anchor="middle" visibility="hidden" style="font-size: 13px;">G</text><text y="358" x="344.3089430894309" text-anchor="middle" visibility="hidden" style="font-size: 13px;">L</text><text y="358" x="347.1544715447154" text-anchor="middle" visibility="hidden" style="font-size: 13px;">E</text><text y="358" x="350" text-anchor="middle" visibility="hidden" style="font-size: 13px;">T</text><text y="358" x="352.8455284552845" text-anchor="middle" visibility="hidden" style="font-size: 13px;">R</text><text y="358" x="355.69105691056916" text-anchor="middle" visibility="hidden" style="font-size: 13px;">V</text><text y="358" x="358.5365853658537" text-anchor="middle" visibility="hidden" style="font-size: 13px;">T</text><text y="358" x="361.3821138211382" text-anchor="middle" visibility="hidden" style="font-size: 13px;">V</text><text y="358" x="364.2276422764228" text-anchor="middle" visibility="hidden" style="font-size: 13px;">P</text><text y="358" x="367.0731707317073" text-anchor="middle" visibility="hidden" style="font-size: 13px;">N</text><text y="358" x="369.9186991869919" text-anchor="middle" visibility="hidden" style="font-size: 13px;">V</text><text y="358" x="372.7642276422764" text-anchor="middle" visibility="hidden" style="font-size: 13px;">P</text><text y="358" x="375.609756097561" text-anchor="middle" visibility="hidden" style="font-size: 13px;">I</text><text y="358" x="378.4552845528455" text-anchor="middle" visibility="hidden" style="font-size: 13px;">R</text><text y="358" x="381.30081300813004" text-anchor="middle" visibility="hidden" style="font-size: 13px;">F</text><text y="358" x="384.1463414634147" text-anchor="middle" visibility="hidden" style="font-size: 13px;">T</text><text y="358" x="386.9918699186992" text-anchor="middle" visibility="hidden" style="font-size: 13px;">K</text><text y="358" x="389.8373983739837" text-anchor="middle" visibility="hidden" style="font-size: 13px;">I</text><text y="358" x="392.68292682926835" text-anchor="middle" visibility="hidden" style="font-size: 13px;">F</text><text y="358" x="395.5284552845529" text-anchor="middle" visibility="hidden" style="font-size: 13px;">Y</text><text y="358" x="398.3739837398374" text-anchor="middle" visibility="hidden" style="font-size: 13px;">N</text><text y="358" x="401.2195121951219" text-anchor="middle" visibility="hidden" style="font-size: 13px;">Q</text><text y="358" x="404.0650406504065" text-anchor="middle" visibility="hidden" style="font-size: 13px;">Q</text><text y="358" x="406.9105691056911" text-anchor="middle" visibility="hidden" style="font-size: 13px;">N</text><text y="358" x="409.7560975609756" text-anchor="middle" visibility="hidden" style="font-size: 13px;">H</text><text y="358" x="412.6016260162602" text-anchor="middle" visibility="hidden" style="font-size: 13px;">Y</text><text y="358" x="415.4471544715447" text-anchor="middle" visibility="hidden" style="font-size: 13px;">D</text><text y="358" x="418.29268292682923" text-anchor="middle" visibility="hidden" style="font-size: 13px;">G</text><text y="358" x="421.13821138211387" text-anchor="middle" visibility="hidden" style="font-size: 13px;">S</text><text y="358" x="423.9837398373984" text-anchor="middle" visibility="hidden" style="font-size: 13px;">T</text><text y="358" x="426.8292682926829" text-anchor="middle" visibility="hidden" style="font-size: 13px;">G</text><text y="358" x="429.67479674796743" text-anchor="middle" visibility="hidden" style="font-size: 13px;">K</text><text y="358" x="432.52032520325207" text-anchor="middle" visibility="hidden" style="font-size: 13px;">F</text><text y="358" x="435.3658536585366" text-anchor="middle" visibility="hidden" style="font-size: 13px;">Y</text><text y="358" x="438.2113821138211" text-anchor="middle" visibility="hidden" style="font-size: 13px;">C</text><text y="358" x="441.0569105691057" text-anchor="middle" visibility="hidden" style="font-size: 13px;">N</text><text y="358" x="443.9024390243903" text-anchor="middle" visibility="hidden" style="font-size: 13px;">I</text><text y="358" x="446.7479674796748" text-anchor="middle" visibility="hidden" style="font-size: 13px;">P</text><text y="358" x="449.5934959349594" text-anchor="middle" visibility="hidden" style="font-size: 13px;">G</text><text y="358" x="452.4390243902439" text-anchor="middle" visibility="hidden" style="font-size: 13px;">L</text><text y="358" x="455.2845528455284" text-anchor="middle" visibility="hidden" style="font-size: 13px;">Y</text><text y="358" x="458.13008130081295" text-anchor="middle" visibility="hidden" style="font-size: 13px;">Y</text><text y="358" x="460.9756097560976" text-anchor="middle" visibility="hidden" style="font-size: 13px;">F</text><text y="358" x="463.8211382113821" text-anchor="middle" visibility="hidden" style="font-size: 13px;">S</text><text y="358" x="466.66666666666663" text-anchor="middle" visibility="hidden" style="font-size: 13px;">Y</text><text y="358" x="469.51219512195127" text-anchor="middle" visibility="hidden" style="font-size: 13px;">H</text><text y="358" x="472.3577235772358" text-anchor="middle" visibility="hidden" style="font-size: 13px;">I</text><text y="358" x="475.2032520325203" text-anchor="middle" visibility="hidden" style="font-size: 13px;">T</text><text y="358" x="478.0487804878049" text-anchor="middle" visibility="hidden" style="font-size: 13px;">V</text><text y="358" x="480.89430894308947" text-anchor="middle" visibility="hidden" style="font-size: 13px;">Y</text><text y="358" x="483.739837398374" text-anchor="middle" visibility="hidden" style="font-size: 13px;">M</text><text y="358" x="486.5853658536585" text-anchor="middle" visibility="hidden" style="font-size: 13px;">K</text><text y="358" x="489.4308943089431" text-anchor="middle" visibility="hidden" style="font-size: 13px;">D</text><text y="358" x="492.2764227642276" text-anchor="middle" visibility="hidden" style="font-size: 13px;">V</text><text y="358" x="495.12195121951214" text-anchor="middle" visibility="hidden" style="font-size: 13px;">K</text><text y="358" x="497.9674796747968" text-anchor="middle" visibility="hidden" style="font-size: 13px;">V</text><text y="358" x="500.8130081300813" text-anchor="middle" visibility="hidden" style="font-size: 13px;">S</text><text y="358" x="503.6585365853658" text-anchor="middle" visibility="hidden" style="font-size: 13px;">L</text><text y="358" x="506.50406504065046" text-anchor="middle" visibility="hidden" style="font-size: 13px;">F</text><text y="358" x="509.349593495935" text-anchor="middle" visibility="hidden" style="font-size: 13px;">K</text><text y="358" x="512.1951219512194" text-anchor="middle" visibility="hidden" style="font-size: 13px;">K</text><text y="358" x="515.040650406504" text-anchor="middle" visibility="hidden" style="font-size: 13px;">D</text><text y="358" x="517.8861788617886" text-anchor="middle" visibility="hidden" style="font-size: 13px;">K</text><text y="358" x="520.7317073170732" text-anchor="middle" visibility="hidden" style="font-size: 13px;">A</text><text y="358" x="523.5772357723577" text-anchor="middle" visibility="hidden" style="font-size: 13px;">V</text><text y="358" x="526.4227642276423" text-anchor="middle" visibility="hidden" style="font-size: 13px;">L</text><text y="358" x="529.2682926829268" text-anchor="middle" visibility="hidden" style="font-size: 13px;">F</text><text y="358" x="532.1138211382114" text-anchor="middle" visibility="hidden" style="font-size: 13px;">T</text><text y="358" x="534.959349593496" text-anchor="middle" visibility="hidden" style="font-size: 13px;">Y</text><text y="358" x="537.8048780487806" text-anchor="middle" visibility="hidden" style="font-size: 13px;">D</text><text y="358" x="540.650406504065" text-anchor="middle" visibility="hidden" style="font-size: 13px;">Q</text><text y="358" x="543.4959349593496" text-anchor="middle" visibility="hidden" style="font-size: 13px;">Y</text><text y="358" x="546.3414634146342" text-anchor="middle" visibility="hidden" style="font-size: 13px;">Q</text><text y="358" x="549.1869918699186" text-anchor="middle" visibility="hidden" style="font-size: 13px;">E</text><text y="358" x="552.0325203252032" text-anchor="middle" visibility="hidden" style="font-size: 13px;">K</text><text y="358" x="554.8780487804878" text-anchor="middle" visibility="hidden" style="font-size: 13px;">N</text><text y="358" x="557.7235772357724" text-anchor="middle" visibility="hidden" style="font-size: 13px;">V</text><text y="358" x="560.5691056910568" text-anchor="middle" visibility="hidden" style="font-size: 13px;">D</text><text y="358" x="563.4146341463415" text-anchor="middle" visibility="hidden" style="font-size: 13px;">Q</text><text y="358" x="566.260162601626" text-anchor="middle" visibility="hidden" style="font-size: 13px;">A</text><text y="358" x="569.1056910569106" text-anchor="middle" visibility="hidden" style="font-size: 13px;">S</text><text y="358" x="571.951219512195" text-anchor="middle" visibility="hidden" style="font-size: 13px;">G</text><text y="358" x="574.7967479674797" text-anchor="middle" visibility="hidden" style="font-size: 13px;">S</text><text y="358" x="577.6422764227642" text-anchor="middle" visibility="hidden" style="font-size: 13px;">V</text><text y="358" x="580.4878048780488" text-anchor="middle" visibility="hidden" style="font-size: 13px;">L</text><text y="358" x="583.3333333333334" text-anchor="middle" visibility="hidden" style="font-size: 13px;">L</text><text y="358" x="586.1788617886178" text-anchor="middle" visibility="hidden" style="font-size: 13px;">H</text><text y="358" x="589.0243902439024" text-anchor="middle" visibility="hidden" style="font-size: 13px;">L</text><text y="358" x="591.869918699187" text-anchor="middle" visibility="hidden" style="font-size: 13px;">E</text><text y="358" x="594.7154471544716" text-anchor="middle" visibility="hidden" style="font-size: 13px;">V</text><text y="358" x="597.560975609756" text-anchor="middle" visibility="hidden" style="font-size: 13px;">G</text><text y="358" x="600.4065040650406" text-anchor="middle" visibility="hidden" style="font-size: 13px;">D</text><text y="358" x="603.2520325203252" text-anchor="middle" visibility="hidden" style="font-size: 13px;">Q</text><text y="358" x="606.0975609756098" text-anchor="middle" visibility="hidden" style="font-size: 13px;">V</text><text y="358" x="608.9430894308942" text-anchor="middle" visibility="hidden" style="font-size: 13px;">W</text><text y="358" x="611.7886178861789" text-anchor="middle" visibility="hidden" style="font-size: 13px;">L</text><text y="358" x="614.6341463414634" text-anchor="middle" visibility="hidden" style="font-size: 13px;">Q</text><text y="358" x="617.479674796748" text-anchor="middle" visibility="hidden" style="font-size: 13px;">V</text><text y="358" x="620.3252032520326" text-anchor="middle" visibility="hidden" style="font-size: 13px;">Y</text><text y="358" x="623.170731707317" text-anchor="middle" visibility="hidden" style="font-size: 13px;">G</text><text y="358" x="626.0162601626016" text-anchor="middle" visibility="hidden" style="font-size: 13px;">D</text><text y="358" x="628.8617886178862" text-anchor="middle" visibility="hidden" style="font-size: 13px;">G</text><text y="358" x="631.7073170731708" text-anchor="middle" visibility="hidden" style="font-size: 13px;">D</text><text y="358" x="634.5528455284552" text-anchor="middle" visibility="hidden" style="font-size: 13px;">H</text><text y="358" x="637.3983739837398" text-anchor="middle" visibility="hidden" style="font-size: 13px;">N</text><text y="358" x="640.2439024390244" text-anchor="middle" visibility="hidden" style="font-size: 13px;">G</text><text y="358" x="643.089430894309" text-anchor="middle" visibility="hidden" style="font-size: 13px;">L</text><text y="358" x="645.9349593495934" text-anchor="middle" visibility="hidden" style="font-size: 13px;">Y</text><text y="358" x="648.7804878048781" text-anchor="middle" visibility="hidden" style="font-size: 13px;">A</text><text y="358" x="651.6260162601626" text-anchor="middle" visibility="hidden" style="font-size: 13px;">D</text><text y="358" x="654.4715447154472" text-anchor="middle" visibility="hidden" style="font-size: 13px;">N</text><text y="358" x="657.3170731707316" text-anchor="middle" visibility="hidden" style="font-size: 13px;">V</text><text y="358" x="660.1626016260162" text-anchor="middle" visibility="hidden" style="font-size: 13px;">N</text><text y="358" x="663.0081300813008" text-anchor="middle" visibility="hidden" style="font-size: 13px;">D</text><text y="358" x="665.8536585365854" text-anchor="middle" visibility="hidden" style="font-size: 13px;">S</text><text y="358" x="668.69918699187" text-anchor="middle" visibility="hidden" style="font-size: 13px;">T</text><text y="358" x="671.5447154471544" text-anchor="middle" visibility="hidden" style="font-size: 13px;">F</text><text y="358" x="674.390243902439" text-anchor="middle" visibility="hidden" style="font-size: 13px;">T</text><text y="358" x="677.2357723577236" text-anchor="middle" visibility="hidden" style="font-size: 13px;">G</text><text y="358" x="680.0813008130082" text-anchor="middle" visibility="hidden" style="font-size: 13px;">F</text><text y="358" x="682.9268292682926" text-anchor="middle" visibility="hidden" style="font-size: 13px;">L</text><text y="358" x="685.7723577235772" text-anchor="middle" visibility="hidden" style="font-size: 13px;">L</text><text y="358" x="688.6178861788618" text-anchor="middle" visibility="hidden" style="font-size: 13px;">Y</text><text y="358" x="691.4634146341464" text-anchor="middle" visibility="hidden" style="font-size: 13px;">H</text><text y="358" x="694.3089430894308" text-anchor="middle" visibility="hidden" style="font-size: 13px;">D</text><text y="358" x="697.1544715447154" text-anchor="middle" visibility="hidden" style="font-size: 13px;">T</text><text y="358" x="700" text-anchor="middle" visibility="hidden" style="font-size: 13px;">N</text></g></g></svg><g class="xAxis" transform="translate(0,360)" fill="none" font-size="10" font-family="sans-serif" text-anchor="middle"><path class="domain" stroke="#000" d="M0.5,6V0.5H700.5V6"></path><g class="tick" opacity="1" transform="translate(54.56504065040651,0)"><line stroke="#000" y2="6"></line><text fill="#000" y="9" dy="0.71em">20</text></g><g class="tick" opacity="1" transform="translate(111.47560975609757,0)"><line stroke="#000" y2="6"></line><text fill="#000" y="9" dy="0.71em">40</text></g><g class="tick" opacity="1" transform="translate(168.3861788617886,0)"><line stroke="#000" y2="6"></line><text fill="#000" y="9" dy="0.71em">60</text></g><g class="tick" opacity="1" transform="translate(225.2967479674797,0)"><line stroke="#000" y2="6"></line><text fill="#000" y="9" dy="0.71em">80</text></g><g class="tick" opacity="1" transform="translate(282.20731707317077,0)"><line stroke="#000" y2="6"></line><text fill="#000" y="9" dy="0.71em">100</text></g><g class="tick" opacity="1" transform="translate(339.1178861788618,0)"><line stroke="#000" y2="6"></line><text fill="#000" y="9" dy="0.71em">120</text></g><g class="tick" opacity="1" transform="translate(396.0284552845529,0)"><line stroke="#000" y2="6"></line><text fill="#000" y="9" dy="0.71em">140</text></g><g class="tick" opacity="1" transform="translate(452.9390243902439,0)"><line stroke="#000" y2="6"></line><text fill="#000" y="9" dy="0.71em">160</text></g><g class="tick" opacity="1" transform="translate(509.849593495935,0)"><line stroke="#000" y2="6"></line><text fill="#000" y="9" dy="0.71em">180</text></g><g class="tick" opacity="1" transform="translate(566.760162601626,0)"><line stroke="#000" y2="6"></line><text fill="#000" y="9" dy="0.71em">200</text></g><g class="tick" opacity="1" transform="translate(623.670731707317,0)"><line stroke="#000" y2="6"></line><text fill="#000" y="9" dy="0.71em">220</text></g><g class="tick" opacity="1" transform="translate(680.5813008130082,0)"><line stroke="#000" y2="6"></line><text fill="#000" y="9" dy="0.71em">240</text></g></g><text class="x label" text-anchor="end" x="700" y="390" style="font-size: 13px; font-family: Arial;">Residue number</text><g class="yAxis" fill="none" font-size="10" font-family="sans-serif" text-anchor="end"><path class="domain" stroke="#000" d="M-6,360.5H0.5V0.5H-6"></path><g class="tick" opacity="1" transform="translate(0,357.52479338842977)"><line stroke="#000" x2="-6"></line><text fill="#000" x="-9" dy="0.32em"></text></g><g class="tick" opacity="1" transform="translate(0,327.77272727272725)"><line stroke="#000" x2="-6"></line><text fill="#000" x="-9" dy="0.32em">0</text></g><g class="tick" opacity="1" transform="translate(0,298.0206611570248)"><line stroke="#000" x2="-6"></line><text fill="#000" x="-9" dy="0.32em">0.1</text></g><g class="tick" opacity="1" transform="translate(0,268.2685950413223)"><line stroke="#000" x2="-6"></line><text fill="#000" x="-9" dy="0.32em">0.2</text></g><g class="tick" opacity="1" transform="translate(0,238.51652892561984)"><line stroke="#000" x2="-6"></line><text fill="#000" x="-9" dy="0.32em">0.3</text></g><g class="tick" opacity="1" transform="translate(0,208.76446280991738)"><line stroke="#000" x2="-6"></line><text fill="#000" x="-9" dy="0.32em">0.4</text></g><g class="tick" opacity="1" transform="translate(0,179.0123966942149)"><line stroke="#000" x2="-6"></line><text fill="#000" x="-9" dy="0.32em">0.5</text></g><g class="tick" opacity="1" transform="translate(0,149.26033057851242)"><line stroke="#000" x2="-6"></line><text fill="#000" x="-9" dy="0.32em">0.6</text></g><g class="tick" opacity="1" transform="translate(0,119.50826446280996)"><line stroke="#000" x2="-6"></line><text fill="#000" x="-9" dy="0.32em">0.7</text></g><g class="tick" opacity="1" transform="translate(0,89.75619834710744)"><line stroke="#000" x2="-6"></line><text fill="#000" x="-9" dy="0.32em">0.8</text></g><g class="tick" opacity="1" transform="translate(0,60.00413223140498)"><line stroke="#000" x2="-6"></line><text fill="#000" x="-9" dy="0.32em">0.9</text></g><g class="tick" opacity="1" transform="translate(0,30.25206611570252)"><line stroke="#000" x2="-6"></line><text fill="#000" x="-9" dy="0.32em">1</text></g><g class="tick" opacity="1" transform="translate(0,0.5)"><line stroke="#000" x2="-6"></line><text fill="#000" x="-9" dy="0.32em">1.1</text></g></g><text class="y label" text-anchor="middle" y="-50" x="-180" dy="0.8em" transform="rotate(-90)" style="font-size: 13px; font-family: Arial;">Total number of references</text><g class="axisRed" fill="none" font-size="10" font-family="sans-serif" text-anchor="start" visibility="hidden" transform="translate(700, 0)"><path class="domain" stroke="#000" d="M6,360.5H0.5V0.5H6"></path><g class="tick" opacity="1" transform="translate(0,360.5)"><line stroke="#000" x2="6"></line><text fill="#000" x="9" dy="0.32em">0</text></g><text text-anchor="start" dx="5.2em" dy="-2.6em" transform="rotate(90)" visibility="hidden" style="font-size: 12px; font-family: Arial; fill: #d7301f;">No recurrent (&gt;2) missense mutations!</text></g><g class="axisPurple" fill="none" font-size="10" font-family="sans-serif" text-anchor="start" visibility="hidden"><path class="domain" stroke="#000" d="M6,360.5H0.5V0.5H6"></path><g class="tick" opacity="1" transform="translate(0,357.52479338842977)"><line stroke="#000" x2="6"></line><text fill="#000" x="9" dy="0.32em"></text></g><g class="tick" opacity="1" transform="translate(0,327.77272727272725)"><line stroke="#000" x2="6"></line><text fill="#000" x="9" dy="0.32em">0</text></g><g class="tick" opacity="1" transform="translate(0,298.0206611570248)"><line stroke="#000" x2="6"></line><text fill="#000" x="9" dy="0.32em">0.1</text></g><g class="tick" opacity="1" transform="translate(0,268.2685950413223)"><line stroke="#000" x2="6"></line><text fill="#000" x="9" dy="0.32em">0.2</text></g><g class="tick" opacity="1" transform="translate(0,238.51652892561984)"><line stroke="#000" x2="6"></line><text fill="#000" x="9" dy="0.32em">0.3</text></g><g class="tick" opacity="1" transform="translate(0,208.76446280991738)"><line stroke="#000" x2="6"></line><text fill="#000" x="9" dy="0.32em">0.4</text></g><g class="tick" opacity="1" transform="translate(0,179.0123966942149)"><line stroke="#000" x2="6"></line><text fill="#000" x="9" dy="0.32em">0.5</text></g><g class="tick" opacity="1" transform="translate(0,149.26033057851242)"><line stroke="#000" x2="6"></line><text fill="#000" x="9" dy="0.32em">0.6</text></g><g class="tick" opacity="1" transform="translate(0,119.50826446280996)"><line stroke="#000" x2="6"></line><text fill="#000" x="9" dy="0.32em">0.7</text></g><g class="tick" opacity="1" transform="translate(0,89.75619834710744)"><line stroke="#000" x2="6"></line><text fill="#000" x="9" dy="0.32em">0.8</text></g><g class="tick" opacity="1" transform="translate(0,60.00413223140498)"><line stroke="#000" x2="6"></line><text fill="#000" x="9" dy="0.32em">0.9</text></g><g class="tick" opacity="1" transform="translate(0,30.25206611570252)"><line stroke="#000" x2="6"></line><text fill="#000" x="9" dy="0.32em">1</text></g><g class="tick" opacity="1" transform="translate(0,0.5)"><line stroke="#000" x2="6"></line><text fill="#000" x="9" dy="0.32em">1.1</text></g><text text-anchor="start" x="10" y="10" visibility="hidden" style="font-size: 12px; font-family: Arial; fill: #807dba;">No disease causing germline SNPs known!</text></g><circle cx="636" cy="15" r="10" class="compassNav" style="fill: #ffffff; stroke: #666666; stroke-width: 1px;"></circle><path d="M440.935 12.574l3.966 82.766C399.416 41.904 331.674 8 256 8 134.813 8 33.933 94.924 12.296 209.824 10.908 217.193 16.604 224 24.103 224h49.084c5.57 0 10.377-3.842 11.676-9.259C103.407 137.408 172.931 80 256 80c60.893 0 114.512 30.856 146.104 77.801l-101.53-4.865c-6.845-.328-12.574 5.133-12.574 11.986v47.411c0 6.627 5.373 12 12 12h200.333c6.627 0 12-5.373 12-12V12c0-6.627-5.373-12-12-12h-47.411c-6.853 0-12.315 5.729-11.987 12.574zM256 432c-60.895 0-114.517-30.858-146.109-77.805l101.868 4.871c6.845.327 12.573-5.134 12.573-11.986v-47.412c0-6.627-5.373-12-12-12H12c-6.627 0-12 5.373-12 12V500c0 6.627 5.373 12 12 12h47.385c6.863 0 12.328-5.745 11.985-12.599l-4.129-82.575C112.725 470.166 180.405 504 256 504c121.187 0 222.067-86.924 243.704-201.824 1.388-7.369-4.308-14.176-11.807-14.176h-49.084c-5.57 0-10.377 3.842-11.676 9.259C408.593 374.592 339.069 432 256 432z" class="compassNav" transform="translate(631, 10) scale(0.02)" style="fill: #666666; stroke: #666666; stroke-width: 1px;"></path><circle cx="658" cy="15" r="10" class="compassNav" style="fill: #ffffff; stroke: #666666; stroke-width: 1px;"></circle><line class="compassNav" stroke-width="2" stroke="#666666" x1="654" y1="15" x2="662" y2="15"></line><line class="compassNav" stroke-width="2" stroke="#666666" x1="658" y1="11" x2="658" y2="19"></line><circle cx="614" cy="15" r="10" class="compassNav" style="fill: #ffffff; stroke: #666666; stroke-width: 1px;"></circle><line class="compassNav" stroke-width="2" stroke="#666666" x1="610" y1="15" x2="618" y2="15"></line><path d="M582 14 l20 -12 a100,40 0 0,0 0,24z" class="compassNav" style="fill: #ffffff; stroke: #666666; stroke-width: 1px;"></path><path d="M690 14 l-20 -12 a100,40 0 0,1 0,24z" class="compassNav" style="fill: #ffffff; stroke: #666666; stroke-width: 1px;"></path><path d="M216 0h80c13.3 0 24 10.7 24 24v168h87.7c17.8 0 26.7 21.5 14.1 34.1L269.7 378.3c-7.5 7.5-19.8 7.5-27.3 0L90.1 226.1c-12.6-12.6-3.7-34.1 14.1-34.1H192V24c0-13.3 10.7-24 24-24zm296 376v112c0 13.3-10.7 24-24 24H24c-13.3 0-24-10.7-24-24V376c0-13.3 10.7-24 24-24h146.7l49 49c20.1 20.1 52.5 20.1 72.6 0l49-49H488c13.3 0 24 10.7 24 24zm-124 88c0-11-9-20-20-20s-20 9-20 20 9 20 20 20 20-9 20-20zm64 0c0-11-9-20-20-20s-20 9-20 20 9 20 20 20 20-9 20-20z" class="compassNav" transform="translate(552,0) scale(0.05)" style="fill: #336699; stroke: #336699; stroke-width: 1px; cursor: pointer;"></path></g></svg>