<svg width="800" height="400" style="background-color: white;"><g transform="translate(50,0)"><svg width="700" height="360"><g style="-webkit-tap-highlight-color: rgba(0, 0, 0, 0);"><rect width="700" height="360" style="fill: #ffffff;"></rect><g id="lines"><line class="line" stroke-width="1" stroke="#d7301f" x1="-286.2348178137652" y1="333" x2="-286.2348178137652" y2="360" visibility="hidden" style="stroke-dasharray: 3px, 3px;"></line></g><g><rect x="-291.2348178137652" y="355" width="10" height="10" visibility="hidden" style="fill: #ffffff; stroke: #d7301f;"></rect></g><g id="lines"><line class="line" stroke-width="1" stroke="#6a51a3" x1="-286.2348178137652" y1="333" x2="-286.2348178137652" y2="327.27272727272725" visibility="hidden" style="stroke-dasharray: 3px, 3px;"></line></g><g><rect x="-291.2348178137652" y="322.27272727272725" width="10" height="10" visibility="hidden" style="fill: #ffffff; stroke: #6a51a3;"></rect></g><g id="lines"><line class="line" stroke-width="1" stroke="#666666" x1="518.6234817813765" y1="333" x2="518.6234817813765" y2="29.75206611570252"></line></g><g id="circles"><circle r="4" cx="518.6234817813765" cy="29.75206611570252" style="fill: #4393c3; stroke: #666666; stroke-width: 1px;"></circle></g><g><rect x="0" y="333" width="700" height="12" style="fill: #ffffff; stroke-width: 1px; stroke: #666666;"></rect><rect x="405.2631578947369" y="333" width="294.7368421052631" height="12" style="fill: #aec7e8; stroke-width: 1px; stroke: #666666;"></rect></g><g><a target="_blank" xlink:href="http://pfam.xfam.org/family/"><text y="343" x="350" text-anchor="middle" style="color: rgb(102, 102, 102); font-weight: normal; font-size: 12px; font-family: Arial; cursor: pointer;"></text></a><a target="_blank" xlink:href="http://pfam.xfam.org/family/Lectin_C"><text y="343" x="552.6315789473684" text-anchor="middle" style="color: rgb(102, 102, 102); font-weight: normal; font-size: 12px; font-family: Arial; cursor: pointer;">Lectin_C</text></a></g><g><text y="358" x="0" text-anchor="middle" visibility="hidden" style="font-size: 13px;">M</text><text y="358" x="2.834008097165992" text-anchor="middle" visibility="hidden" style="font-size: 13px;">W</text><text y="358" x="5.668016194331984" text-anchor="middle" visibility="hidden" style="font-size: 13px;">L</text><text y="358" x="8.502024291497976" text-anchor="middle" visibility="hidden" style="font-size: 13px;">C</text><text y="358" x="11.336032388663968" text-anchor="middle" visibility="hidden" style="font-size: 13px;">P</text><text y="358" x="14.17004048582996" text-anchor="middle" visibility="hidden" style="font-size: 13px;">L</text><text y="358" x="17.004048582995953" text-anchor="middle" visibility="hidden" style="font-size: 13px;">A</text><text y="358" x="19.838056680161944" text-anchor="middle" visibility="hidden" style="font-size: 13px;">L</text><text y="358" x="22.672064777327936" text-anchor="middle" visibility="hidden" style="font-size: 13px;">N</text><text y="358" x="25.506072874493924" text-anchor="middle" visibility="hidden" style="font-size: 13px;">L</text><text y="358" x="28.34008097165992" text-anchor="middle" visibility="hidden" style="font-size: 13px;">I</text><text y="358" x="31.174089068825907" text-anchor="middle" visibility="hidden" style="font-size: 13px;">L</text><text y="358" x="34.008097165991906" text-anchor="middle" visibility="hidden" style="font-size: 13px;">M</text><text y="358" x="36.84210526315789" text-anchor="middle" visibility="hidden" style="font-size: 13px;">A</text><text y="358" x="39.67611336032389" text-anchor="middle" visibility="hidden" style="font-size: 13px;">A</text><text y="358" x="42.51012145748987" text-anchor="middle" visibility="hidden" style="font-size: 13px;">S</text><text y="358" x="45.34412955465587" text-anchor="middle" visibility="hidden" style="font-size: 13px;">G</text><text y="358" x="48.178137651821864" text-anchor="middle" visibility="hidden" style="font-size: 13px;">A</text><text y="358" x="51.01214574898785" text-anchor="middle" visibility="hidden" style="font-size: 13px;">V</text><text y="358" x="53.84615384615385" text-anchor="middle" visibility="hidden" style="font-size: 13px;">C</text><text y="358" x="56.68016194331984" text-anchor="middle" visibility="hidden" style="font-size: 13px;">E</text><text y="358" x="59.51417004048583" text-anchor="middle" visibility="hidden" style="font-size: 13px;">V</text><text y="358" x="62.348178137651814" text-anchor="middle" visibility="hidden" style="font-size: 13px;">K</text><text y="358" x="65.18218623481782" text-anchor="middle" visibility="hidden" style="font-size: 13px;">D</text><text y="358" x="68.01619433198381" text-anchor="middle" visibility="hidden" style="font-size: 13px;">V</text><text y="358" x="70.85020242914979" text-anchor="middle" visibility="hidden" style="font-size: 13px;">C</text><text y="358" x="73.68421052631578" text-anchor="middle" visibility="hidden" style="font-size: 13px;">V</text><text y="358" x="76.51821862348179" text-anchor="middle" visibility="hidden" style="font-size: 13px;">G</text><text y="358" x="79.35222672064778" text-anchor="middle" visibility="hidden" style="font-size: 13px;">S</text><text y="358" x="82.18623481781377" text-anchor="middle" visibility="hidden" style="font-size: 13px;">P</text><text y="358" x="85.02024291497975" text-anchor="middle" visibility="hidden" style="font-size: 13px;">G</text><text y="358" x="87.85425101214574" text-anchor="middle" visibility="hidden" style="font-size: 13px;">I</text><text y="358" x="90.68825910931174" text-anchor="middle" visibility="hidden" style="font-size: 13px;">P</text><text y="358" x="93.52226720647774" text-anchor="middle" visibility="hidden" style="font-size: 13px;">G</text><text y="358" x="96.35627530364373" text-anchor="middle" visibility="hidden" style="font-size: 13px;">T</text><text y="358" x="99.19028340080972" text-anchor="middle" visibility="hidden" style="font-size: 13px;">P</text><text y="358" x="102.0242914979757" text-anchor="middle" visibility="hidden" style="font-size: 13px;">G</text><text y="358" x="104.8582995951417" text-anchor="middle" visibility="hidden" style="font-size: 13px;">S</text><text y="358" x="107.6923076923077" text-anchor="middle" visibility="hidden" style="font-size: 13px;">H</text><text y="358" x="110.52631578947368" text-anchor="middle" visibility="hidden" style="font-size: 13px;">G</text><text y="358" x="113.36032388663968" text-anchor="middle" visibility="hidden" style="font-size: 13px;">L</text><text y="358" x="116.19433198380568" text-anchor="middle" visibility="hidden" style="font-size: 13px;">P</text><text y="358" x="119.02834008097166" text-anchor="middle" visibility="hidden" style="font-size: 13px;">G</text><text y="358" x="121.86234817813765" text-anchor="middle" visibility="hidden" style="font-size: 13px;">R</text><text y="358" x="124.69635627530363" text-anchor="middle" visibility="hidden" style="font-size: 13px;">D</text><text y="358" x="127.53036437246963" text-anchor="middle" visibility="hidden" style="font-size: 13px;">G</text><text y="358" x="130.36437246963564" text-anchor="middle" visibility="hidden" style="font-size: 13px;">R</text><text y="358" x="133.1983805668016" text-anchor="middle" visibility="hidden" style="font-size: 13px;">D</text><text y="358" x="136.03238866396762" text-anchor="middle" visibility="hidden" style="font-size: 13px;">G</text><text y="358" x="138.86639676113361" text-anchor="middle" visibility="hidden" style="font-size: 13px;">L</text><text y="358" x="141.70040485829958" text-anchor="middle" visibility="hidden" style="font-size: 13px;">K</text><text y="358" x="144.5344129554656" text-anchor="middle" visibility="hidden" style="font-size: 13px;">G</text><text y="358" x="147.36842105263156" text-anchor="middle" visibility="hidden" style="font-size: 13px;">D</text><text y="358" x="150.20242914979758" text-anchor="middle" visibility="hidden" style="font-size: 13px;">P</text><text y="358" x="153.03643724696357" text-anchor="middle" visibility="hidden" style="font-size: 13px;">G</text><text y="358" x="155.87044534412954" text-anchor="middle" visibility="hidden" style="font-size: 13px;">P</text><text y="358" x="158.70445344129556" text-anchor="middle" visibility="hidden" style="font-size: 13px;">P</text><text y="358" x="161.53846153846155" text-anchor="middle" visibility="hidden" style="font-size: 13px;">G</text><text y="358" x="164.37246963562754" text-anchor="middle" visibility="hidden" style="font-size: 13px;">P</text><text y="358" x="167.20647773279353" text-anchor="middle" visibility="hidden" style="font-size: 13px;">M</text><text y="358" x="170.0404858299595" text-anchor="middle" visibility="hidden" style="font-size: 13px;">G</text><text y="358" x="172.8744939271255" text-anchor="middle" visibility="hidden" style="font-size: 13px;">P</text><text y="358" x="175.70850202429148" text-anchor="middle" visibility="hidden" style="font-size: 13px;">P</text><text y="358" x="178.5425101214575" text-anchor="middle" visibility="hidden" style="font-size: 13px;">G</text><text y="358" x="181.3765182186235" text-anchor="middle" visibility="hidden" style="font-size: 13px;">E</text><text y="358" x="184.21052631578945" text-anchor="middle" visibility="hidden" style="font-size: 13px;">M</text><text y="358" x="187.04453441295547" text-anchor="middle" visibility="hidden" style="font-size: 13px;">P</text><text y="358" x="189.87854251012146" text-anchor="middle" visibility="hidden" style="font-size: 13px;">C</text><text y="358" x="192.71255060728745" text-anchor="middle" visibility="hidden" style="font-size: 13px;">P</text><text y="358" x="195.54655870445347" text-anchor="middle" visibility="hidden" style="font-size: 13px;">P</text><text y="358" x="198.38056680161944" text-anchor="middle" visibility="hidden" style="font-size: 13px;">G</text><text y="358" x="201.21457489878543" text-anchor="middle" visibility="hidden" style="font-size: 13px;">N</text><text y="358" x="204.0485829959514" text-anchor="middle" visibility="hidden" style="font-size: 13px;">D</text><text y="358" x="206.8825910931174" text-anchor="middle" visibility="hidden" style="font-size: 13px;">G</text><text y="358" x="209.7165991902834" text-anchor="middle" visibility="hidden" style="font-size: 13px;">L</text><text y="358" x="212.55060728744937" text-anchor="middle" visibility="hidden" style="font-size: 13px;">P</text><text y="358" x="215.3846153846154" text-anchor="middle" visibility="hidden" style="font-size: 13px;">G</text><text y="358" x="218.21862348178138" text-anchor="middle" visibility="hidden" style="font-size: 13px;">A</text><text y="358" x="221.05263157894737" text-anchor="middle" visibility="hidden" style="font-size: 13px;">P</text><text y="358" x="223.88663967611336" text-anchor="middle" visibility="hidden" style="font-size: 13px;">G</text><text y="358" x="226.72064777327935" text-anchor="middle" visibility="hidden" style="font-size: 13px;">I</text><text y="358" x="229.55465587044534" text-anchor="middle" visibility="hidden" style="font-size: 13px;">P</text><text y="358" x="232.38866396761136" text-anchor="middle" visibility="hidden" style="font-size: 13px;">G</text><text y="358" x="235.22267206477733" text-anchor="middle" visibility="hidden" style="font-size: 13px;">E</text><text y="358" x="238.05668016194332" text-anchor="middle" visibility="hidden" style="font-size: 13px;">C</text><text y="358" x="240.89068825910928" text-anchor="middle" visibility="hidden" style="font-size: 13px;">G</text><text y="358" x="243.7246963562753" text-anchor="middle" visibility="hidden" style="font-size: 13px;">E</text><text y="358" x="246.5587044534413" text-anchor="middle" visibility="hidden" style="font-size: 13px;">K</text><text y="358" x="249.39271255060726" text-anchor="middle" visibility="hidden" style="font-size: 13px;">G</text><text y="358" x="252.22672064777328" text-anchor="middle" visibility="hidden" style="font-size: 13px;">E</text><text y="358" x="255.06072874493927" text-anchor="middle" visibility="hidden" style="font-size: 13px;">P</text><text y="358" x="257.89473684210526" text-anchor="middle" visibility="hidden" style="font-size: 13px;">G</text><text y="358" x="260.7287449392713" text-anchor="middle" visibility="hidden" style="font-size: 13px;">E</text><text y="358" x="263.56275303643724" text-anchor="middle" visibility="hidden" style="font-size: 13px;">R</text><text y="358" x="266.3967611336032" text-anchor="middle" visibility="hidden" style="font-size: 13px;">G</text><text y="358" x="269.2307692307692" text-anchor="middle" visibility="hidden" style="font-size: 13px;">P</text><text y="358" x="272.06477732793525" text-anchor="middle" visibility="hidden" style="font-size: 13px;">P</text><text y="358" x="274.8987854251012" text-anchor="middle" visibility="hidden" style="font-size: 13px;">G</text><text y="358" x="277.73279352226723" text-anchor="middle" visibility="hidden" style="font-size: 13px;">L</text><text y="358" x="280.5668016194332" text-anchor="middle" visibility="hidden" style="font-size: 13px;">P</text><text y="358" x="283.40080971659916" text-anchor="middle" visibility="hidden" style="font-size: 13px;">A</text><text y="358" x="286.2348178137652" text-anchor="middle" visibility="hidden" style="font-size: 13px;">H</text><text y="358" x="289.0688259109312" text-anchor="middle" visibility="hidden" style="font-size: 13px;">L</text><text y="358" x="291.90283400809716" text-anchor="middle" visibility="hidden" style="font-size: 13px;">D</text><text y="358" x="294.7368421052631" text-anchor="middle" visibility="hidden" style="font-size: 13px;">E</text><text y="358" x="297.57085020242914" text-anchor="middle" visibility="hidden" style="font-size: 13px;">E</text><text y="358" x="300.40485829959516" text-anchor="middle" visibility="hidden" style="font-size: 13px;">L</text><text y="358" x="303.2388663967611" text-anchor="middle" visibility="hidden" style="font-size: 13px;">Q</text><text y="358" x="306.07287449392715" text-anchor="middle" visibility="hidden" style="font-size: 13px;">A</text><text y="358" x="308.9068825910931" text-anchor="middle" visibility="hidden" style="font-size: 13px;">T</text><text y="358" x="311.74089068825907" text-anchor="middle" visibility="hidden" style="font-size: 13px;">L</text><text y="358" x="314.5748987854251" text-anchor="middle" visibility="hidden" style="font-size: 13px;">H</text><text y="358" x="317.4089068825911" text-anchor="middle" visibility="hidden" style="font-size: 13px;">D</text><text y="358" x="320.2429149797571" text-anchor="middle" visibility="hidden" style="font-size: 13px;">F</text><text y="358" x="323.0769230769231" text-anchor="middle" visibility="hidden" style="font-size: 13px;">R</text><text y="358" x="325.91093117408906" text-anchor="middle" visibility="hidden" style="font-size: 13px;">H</text><text y="358" x="328.7449392712551" text-anchor="middle" visibility="hidden" style="font-size: 13px;">Q</text><text y="358" x="331.57894736842104" text-anchor="middle" visibility="hidden" style="font-size: 13px;">I</text><text y="358" x="334.41295546558706" text-anchor="middle" visibility="hidden" style="font-size: 13px;">L</text><text y="358" x="337.246963562753" text-anchor="middle" visibility="hidden" style="font-size: 13px;">Q</text><text y="358" x="340.080971659919" text-anchor="middle" visibility="hidden" style="font-size: 13px;">T</text><text y="358" x="342.914979757085" text-anchor="middle" visibility="hidden" style="font-size: 13px;">R</text><text y="358" x="345.748987854251" text-anchor="middle" visibility="hidden" style="font-size: 13px;">G</text><text y="358" x="348.582995951417" text-anchor="middle" visibility="hidden" style="font-size: 13px;">A</text><text y="358" x="351.41700404858295" text-anchor="middle" visibility="hidden" style="font-size: 13px;">L</text><text y="358" x="354.251012145749" text-anchor="middle" visibility="hidden" style="font-size: 13px;">S</text><text y="358" x="357.085020242915" text-anchor="middle" visibility="hidden" style="font-size: 13px;">L</text><text y="358" x="359.91902834008096" text-anchor="middle" visibility="hidden" style="font-size: 13px;">Q</text><text y="358" x="362.753036437247" text-anchor="middle" visibility="hidden" style="font-size: 13px;">G</text><text y="358" x="365.587044534413" text-anchor="middle" visibility="hidden" style="font-size: 13px;">S</text><text y="358" x="368.4210526315789" text-anchor="middle" visibility="hidden" style="font-size: 13px;">I</text><text y="358" x="371.2550607287449" text-anchor="middle" visibility="hidden" style="font-size: 13px;">M</text><text y="358" x="374.08906882591094" text-anchor="middle" visibility="hidden" style="font-size: 13px;">T</text><text y="358" x="376.9230769230769" text-anchor="middle" visibility="hidden" style="font-size: 13px;">V</text><text y="358" x="379.7570850202429" text-anchor="middle" visibility="hidden" style="font-size: 13px;">G</text><text y="358" x="382.59109311740895" text-anchor="middle" visibility="hidden" style="font-size: 13px;">E</text><text y="358" x="385.4251012145749" text-anchor="middle" visibility="hidden" style="font-size: 13px;">K</text><text y="358" x="388.25910931174093" text-anchor="middle" visibility="hidden" style="font-size: 13px;">V</text><text y="358" x="391.09311740890695" text-anchor="middle" visibility="hidden" style="font-size: 13px;">F</text><text y="358" x="393.92712550607285" text-anchor="middle" visibility="hidden" style="font-size: 13px;">S</text><text y="358" x="396.7611336032389" text-anchor="middle" visibility="hidden" style="font-size: 13px;">S</text><text y="358" x="399.59514170040484" text-anchor="middle" visibility="hidden" style="font-size: 13px;">N</text><text y="358" x="402.42914979757086" text-anchor="middle" visibility="hidden" style="font-size: 13px;">G</text><text y="358" x="405.2631578947369" text-anchor="middle" visibility="hidden" style="font-size: 13px;">Q</text><text y="358" x="408.0971659919028" text-anchor="middle" visibility="hidden" style="font-size: 13px;">S</text><text y="358" x="410.9311740890688" text-anchor="middle" visibility="hidden" style="font-size: 13px;">I</text><text y="358" x="413.7651821862348" text-anchor="middle" visibility="hidden" style="font-size: 13px;">T</text><text y="358" x="416.5991902834008" text-anchor="middle" visibility="hidden" style="font-size: 13px;">F</text><text y="358" x="419.4331983805668" text-anchor="middle" visibility="hidden" style="font-size: 13px;">D</text><text y="358" x="422.2672064777328" text-anchor="middle" visibility="hidden" style="font-size: 13px;">A</text><text y="358" x="425.10121457489873" text-anchor="middle" visibility="hidden" style="font-size: 13px;">I</text><text y="358" x="427.93522267206475" text-anchor="middle" visibility="hidden" style="font-size: 13px;">Q</text><text y="358" x="430.7692307692308" text-anchor="middle" visibility="hidden" style="font-size: 13px;">E</text><text y="358" x="433.60323886639674" text-anchor="middle" visibility="hidden" style="font-size: 13px;">A</text><text y="358" x="436.43724696356276" text-anchor="middle" visibility="hidden" style="font-size: 13px;">C</text><text y="358" x="439.2712550607288" text-anchor="middle" visibility="hidden" style="font-size: 13px;">A</text><text y="358" x="442.10526315789474" text-anchor="middle" visibility="hidden" style="font-size: 13px;">R</text><text y="358" x="444.9392712550607" text-anchor="middle" visibility="hidden" style="font-size: 13px;">A</text><text y="358" x="447.7732793522267" text-anchor="middle" visibility="hidden" style="font-size: 13px;">G</text><text y="358" x="450.6072874493927" text-anchor="middle" visibility="hidden" style="font-size: 13px;">G</text><text y="358" x="453.4412955465587" text-anchor="middle" visibility="hidden" style="font-size: 13px;">R</text><text y="358" x="456.2753036437247" text-anchor="middle" visibility="hidden" style="font-size: 13px;">I</text><text y="358" x="459.1093117408907" text-anchor="middle" visibility="hidden" style="font-size: 13px;">A</text><text y="358" x="461.9433198380567" text-anchor="middle" visibility="hidden" style="font-size: 13px;">V</text><text y="358" x="464.77732793522273" text-anchor="middle" visibility="hidden" style="font-size: 13px;">P</text><text y="358" x="467.61133603238864" text-anchor="middle" visibility="hidden" style="font-size: 13px;">R</text><text y="358" x="470.44534412955466" text-anchor="middle" visibility="hidden" style="font-size: 13px;">N</text><text y="358" x="473.2793522267207" text-anchor="middle" visibility="hidden" style="font-size: 13px;">P</text><text y="358" x="476.11336032388664" text-anchor="middle" visibility="hidden" style="font-size: 13px;">E</text><text y="358" x="478.94736842105266" text-anchor="middle" visibility="hidden" style="font-size: 13px;">E</text><text y="358" x="481.78137651821856" text-anchor="middle" visibility="hidden" style="font-size: 13px;">N</text><text y="358" x="484.6153846153846" text-anchor="middle" visibility="hidden" style="font-size: 13px;">E</text><text y="358" x="487.4493927125506" text-anchor="middle" visibility="hidden" style="font-size: 13px;">A</text><text y="358" x="490.28340080971657" text-anchor="middle" visibility="hidden" style="font-size: 13px;">I</text><text y="358" x="493.1174089068826" text-anchor="middle" visibility="hidden" style="font-size: 13px;">A</text><text y="358" x="495.9514170040486" text-anchor="middle" visibility="hidden" style="font-size: 13px;">S</text><text y="358" x="498.7854251012145" text-anchor="middle" visibility="hidden" style="font-size: 13px;">F</text><text y="358" x="501.61943319838053" text-anchor="middle" visibility="hidden" style="font-size: 13px;">V</text><text y="358" x="504.45344129554655" text-anchor="middle" visibility="hidden" style="font-size: 13px;">K</text><text y="358" x="507.2874493927125" text-anchor="middle" visibility="hidden" style="font-size: 13px;">K</text><text y="358" x="510.12145748987854" text-anchor="middle" visibility="hidden" style="font-size: 13px;">Y</text><text y="358" x="512.9554655870445" text-anchor="middle" visibility="hidden" style="font-size: 13px;">N</text><text y="358" x="515.7894736842105" text-anchor="middle" visibility="hidden" style="font-size: 13px;">T</text><text y="358" x="518.6234817813765" text-anchor="middle" visibility="hidden" style="font-size: 13px;">Y</text><text y="358" x="521.4574898785426" text-anchor="middle" visibility="hidden" style="font-size: 13px;">A</text><text y="358" x="524.2914979757085" text-anchor="middle" visibility="hidden" style="font-size: 13px;">Y</text><text y="358" x="527.1255060728745" text-anchor="middle" visibility="hidden" style="font-size: 13px;">V</text><text y="358" x="529.9595141700405" text-anchor="middle" visibility="hidden" style="font-size: 13px;">G</text><text y="358" x="532.7935222672064" text-anchor="middle" visibility="hidden" style="font-size: 13px;">L</text><text y="358" x="535.6275303643724" text-anchor="middle" visibility="hidden" style="font-size: 13px;">T</text><text y="358" x="538.4615384615385" text-anchor="middle" visibility="hidden" style="font-size: 13px;">E</text><text y="358" x="541.2955465587045" text-anchor="middle" visibility="hidden" style="font-size: 13px;">G</text><text y="358" x="544.1295546558705" text-anchor="middle" visibility="hidden" style="font-size: 13px;">P</text><text y="358" x="546.9635627530365" text-anchor="middle" visibility="hidden" style="font-size: 13px;">S</text><text y="358" x="549.7975708502024" text-anchor="middle" visibility="hidden" style="font-size: 13px;">P</text><text y="358" x="552.6315789473684" text-anchor="middle" visibility="hidden" style="font-size: 13px;">G</text><text y="358" x="555.4655870445345" text-anchor="middle" visibility="hidden" style="font-size: 13px;">D</text><text y="358" x="558.2995951417004" text-anchor="middle" visibility="hidden" style="font-size: 13px;">F</text><text y="358" x="561.1336032388664" text-anchor="middle" visibility="hidden" style="font-size: 13px;">R</text><text y="358" x="563.9676113360324" text-anchor="middle" visibility="hidden" style="font-size: 13px;">Y</text><text y="358" x="566.8016194331983" text-anchor="middle" visibility="hidden" style="font-size: 13px;">S</text><text y="358" x="569.6356275303643" text-anchor="middle" visibility="hidden" style="font-size: 13px;">D</text><text y="358" x="572.4696356275304" text-anchor="middle" visibility="hidden" style="font-size: 13px;">G</text><text y="358" x="575.3036437246964" text-anchor="middle" visibility="hidden" style="font-size: 13px;">T</text><text y="358" x="578.1376518218624" text-anchor="middle" visibility="hidden" style="font-size: 13px;">P</text><text y="358" x="580.9716599190283" text-anchor="middle" visibility="hidden" style="font-size: 13px;">V</text><text y="358" x="583.8056680161943" text-anchor="middle" visibility="hidden" style="font-size: 13px;">N</text><text y="358" x="586.6396761133603" text-anchor="middle" visibility="hidden" style="font-size: 13px;">Y</text><text y="358" x="589.4736842105262" text-anchor="middle" visibility="hidden" style="font-size: 13px;">T</text><text y="358" x="592.3076923076923" text-anchor="middle" visibility="hidden" style="font-size: 13px;">N</text><text y="358" x="595.1417004048583" text-anchor="middle" visibility="hidden" style="font-size: 13px;">W</text><text y="358" x="597.9757085020243" text-anchor="middle" visibility="hidden" style="font-size: 13px;">Y</text><text y="358" x="600.8097165991903" text-anchor="middle" visibility="hidden" style="font-size: 13px;">R</text><text y="358" x="603.6437246963563" text-anchor="middle" visibility="hidden" style="font-size: 13px;">G</text><text y="358" x="606.4777327935223" text-anchor="middle" visibility="hidden" style="font-size: 13px;">E</text><text y="358" x="609.3117408906883" text-anchor="middle" visibility="hidden" style="font-size: 13px;">P</text><text y="358" x="612.1457489878543" text-anchor="middle" visibility="hidden" style="font-size: 13px;">A</text><text y="358" x="614.9797570850202" text-anchor="middle" visibility="hidden" style="font-size: 13px;">G</text><text y="358" x="617.8137651821862" text-anchor="middle" visibility="hidden" style="font-size: 13px;">R</text><text y="358" x="620.6477732793522" text-anchor="middle" visibility="hidden" style="font-size: 13px;">G</text><text y="358" x="623.4817813765181" text-anchor="middle" visibility="hidden" style="font-size: 13px;">K</text><text y="358" x="626.3157894736842" text-anchor="middle" visibility="hidden" style="font-size: 13px;">E</text><text y="358" x="629.1497975708502" text-anchor="middle" visibility="hidden" style="font-size: 13px;">Q</text><text y="358" x="631.9838056680162" text-anchor="middle" visibility="hidden" style="font-size: 13px;">C</text><text y="358" x="634.8178137651822" text-anchor="middle" visibility="hidden" style="font-size: 13px;">V</text><text y="358" x="637.6518218623482" text-anchor="middle" visibility="hidden" style="font-size: 13px;">E</text><text y="358" x="640.4858299595141" text-anchor="middle" visibility="hidden" style="font-size: 13px;">M</text><text y="358" x="643.3198380566802" text-anchor="middle" visibility="hidden" style="font-size: 13px;">Y</text><text y="358" x="646.1538461538462" text-anchor="middle" visibility="hidden" style="font-size: 13px;">T</text><text y="358" x="648.9878542510121" text-anchor="middle" visibility="hidden" style="font-size: 13px;">D</text><text y="358" x="651.8218623481781" text-anchor="middle" visibility="hidden" style="font-size: 13px;">G</text><text y="358" x="654.6558704453441" text-anchor="middle" visibility="hidden" style="font-size: 13px;">Q</text><text y="358" x="657.4898785425102" text-anchor="middle" visibility="hidden" style="font-size: 13px;">W</text><text y="358" x="660.3238866396762" text-anchor="middle" visibility="hidden" style="font-size: 13px;">N</text><text y="358" x="663.1578947368421" text-anchor="middle" visibility="hidden" style="font-size: 13px;">D</text><text y="358" x="665.9919028340081" text-anchor="middle" visibility="hidden" style="font-size: 13px;">R</text><text y="358" x="668.8259109311741" text-anchor="middle" visibility="hidden" style="font-size: 13px;">N</text><text y="358" x="671.65991902834" text-anchor="middle" visibility="hidden" style="font-size: 13px;">C</text><text y="358" x="674.493927125506" text-anchor="middle" visibility="hidden" style="font-size: 13px;">L</text><text y="358" x="677.3279352226721" text-anchor="middle" visibility="hidden" style="font-size: 13px;">Y</text><text y="358" x="680.161943319838" text-anchor="middle" visibility="hidden" style="font-size: 13px;">S</text><text y="358" x="682.995951417004" text-anchor="middle" visibility="hidden" style="font-size: 13px;">R</text><text y="358" x="685.82995951417" text-anchor="middle" visibility="hidden" style="font-size: 13px;">L</text><text y="358" x="688.663967611336" text-anchor="middle" visibility="hidden" style="font-size: 13px;">T</text><text y="358" x="691.497975708502" text-anchor="middle" visibility="hidden" style="font-size: 13px;">I</text><text y="358" x="694.3319838056681" text-anchor="middle" visibility="hidden" style="font-size: 13px;">C</text><text y="358" x="697.165991902834" text-anchor="middle" visibility="hidden" style="font-size: 13px;">E</text><text y="358" x="700" text-anchor="middle" visibility="hidden" style="font-size: 13px;">F</text></g></g></svg><g class="xAxis" transform="translate(0,360)" fill="none" font-size="10" font-family="sans-serif" text-anchor="middle"><path class="domain" stroke="#000" d="M0.5,6V0.5H700.5V6"></path><g class="tick" opacity="1" transform="translate(54.34615384615385,0)"><line stroke="#000" y2="6"></line><text fill="#000" y="9" dy="0.71em">20</text></g><g class="tick" opacity="1" transform="translate(111.02631578947368,0)"><line stroke="#000" y2="6"></line><text fill="#000" y="9" dy="0.71em">40</text></g><g class="tick" opacity="1" transform="translate(167.70647773279353,0)"><line stroke="#000" y2="6"></line><text fill="#000" y="9" dy="0.71em">60</text></g><g class="tick" opacity="1" transform="translate(224.38663967611336,0)"><line stroke="#000" y2="6"></line><text fill="#000" y="9" dy="0.71em">80</text></g><g class="tick" opacity="1" transform="translate(281.0668016194332,0)"><line stroke="#000" y2="6"></line><text fill="#000" y="9" dy="0.71em">100</text></g><g class="tick" opacity="1" transform="translate(337.746963562753,0)"><line stroke="#000" y2="6"></line><text fill="#000" y="9" dy="0.71em">120</text></g><g class="tick" opacity="1" transform="translate(394.42712550607285,0)"><line stroke="#000" y2="6"></line><text fill="#000" y="9" dy="0.71em">140</text></g><g class="tick" opacity="1" transform="translate(451.1072874493927,0)"><line stroke="#000" y2="6"></line><text fill="#000" y="9" dy="0.71em">160</text></g><g class="tick" opacity="1" transform="translate(507.7874493927125,0)"><line stroke="#000" y2="6"></line><text fill="#000" y="9" dy="0.71em">180</text></g><g class="tick" opacity="1" transform="translate(564.4676113360324,0)"><line stroke="#000" y2="6"></line><text fill="#000" y="9" dy="0.71em">200</text></g><g class="tick" opacity="1" transform="translate(621.1477732793522,0)"><line stroke="#000" y2="6"></line><text fill="#000" y="9" dy="0.71em">220</text></g><g class="tick" opacity="1" transform="translate(677.8279352226721,0)"><line stroke="#000" y2="6"></line><text fill="#000" y="9" dy="0.71em">240</text></g></g><text class="x label" text-anchor="end" x="700" y="390" style="font-size: 13px; font-family: Arial;">Residue number</text><g class="yAxis" fill="none" font-size="10" font-family="sans-serif" text-anchor="end"><path class="domain" stroke="#000" d="M-6,360.5H0.5V0.5H-6"></path><g class="tick" opacity="1" transform="translate(0,357.52479338842977)"><line stroke="#000" x2="-6"></line><text fill="#000" x="-9" dy="0.32em"></text></g><g class="tick" opacity="1" transform="translate(0,327.77272727272725)"><line stroke="#000" x2="-6"></line><text fill="#000" x="-9" dy="0.32em">0</text></g><g class="tick" opacity="1" transform="translate(0,298.0206611570248)"><line stroke="#000" x2="-6"></line><text fill="#000" x="-9" dy="0.32em">0.1</text></g><g class="tick" opacity="1" transform="translate(0,268.2685950413223)"><line stroke="#000" x2="-6"></line><text fill="#000" x="-9" dy="0.32em">0.2</text></g><g class="tick" opacity="1" transform="translate(0,238.51652892561984)"><line stroke="#000" x2="-6"></line><text fill="#000" x="-9" dy="0.32em">0.3</text></g><g class="tick" opacity="1" transform="translate(0,208.76446280991738)"><line stroke="#000" x2="-6"></line><text fill="#000" x="-9" dy="0.32em">0.4</text></g><g class="tick" opacity="1" transform="translate(0,179.0123966942149)"><line stroke="#000" x2="-6"></line><text fill="#000" x="-9" dy="0.32em">0.5</text></g><g class="tick" opacity="1" transform="translate(0,149.26033057851242)"><line stroke="#000" x2="-6"></line><text fill="#000" x="-9" dy="0.32em">0.6</text></g><g class="tick" opacity="1" transform="translate(0,119.50826446280996)"><line stroke="#000" x2="-6"></line><text fill="#000" x="-9" dy="0.32em">0.7</text></g><g class="tick" opacity="1" transform="translate(0,89.75619834710744)"><line stroke="#000" x2="-6"></line><text fill="#000" x="-9" dy="0.32em">0.8</text></g><g class="tick" opacity="1" transform="translate(0,60.00413223140498)"><line stroke="#000" x2="-6"></line><text fill="#000" x="-9" dy="0.32em">0.9</text></g><g class="tick" opacity="1" transform="translate(0,30.25206611570252)"><line stroke="#000" x2="-6"></line><text fill="#000" x="-9" dy="0.32em">1</text></g><g class="tick" opacity="1" transform="translate(0,0.5)"><line stroke="#000" x2="-6"></line><text fill="#000" x="-9" dy="0.32em">1.1</text></g></g><text class="y label" text-anchor="middle" y="-50" x="-180" dy="0.8em" transform="rotate(-90)" style="font-size: 13px; font-family: Arial;">Total number of references</text><g class="axisRed" fill="none" font-size="10" font-family="sans-serif" text-anchor="start" visibility="hidden" transform="translate(700, 0)"><path class="domain" stroke="#000" d="M6,360.5H0.5V0.5H6"></path><g class="tick" opacity="1" transform="translate(0,360.5)"><line stroke="#000" x2="6"></line><text fill="#000" x="9" dy="0.32em">0</text></g><text text-anchor="start" dx="5.2em" dy="-2.6em" transform="rotate(90)" visibility="hidden" style="font-size: 12px; font-family: Arial; fill: #d7301f;">No recurrent (&gt;2) missense mutations!</text></g><g class="axisPurple" fill="none" font-size="10" font-family="sans-serif" text-anchor="start" visibility="hidden"><path class="domain" stroke="#000" d="M6,360.5H0.5V0.5H6"></path><g class="tick" opacity="1" transform="translate(0,357.52479338842977)"><line stroke="#000" x2="6"></line><text fill="#000" x="9" dy="0.32em"></text></g><g class="tick" opacity="1" transform="translate(0,327.77272727272725)"><line stroke="#000" x2="6"></line><text fill="#000" x="9" dy="0.32em">0</text></g><g class="tick" opacity="1" transform="translate(0,298.0206611570248)"><line stroke="#000" x2="6"></line><text fill="#000" x="9" dy="0.32em">0.1</text></g><g class="tick" opacity="1" transform="translate(0,268.2685950413223)"><line stroke="#000" x2="6"></line><text fill="#000" x="9" dy="0.32em">0.2</text></g><g class="tick" opacity="1" transform="translate(0,238.51652892561984)"><line stroke="#000" x2="6"></line><text fill="#000" x="9" dy="0.32em">0.3</text></g><g class="tick" opacity="1" transform="translate(0,208.76446280991738)"><line stroke="#000" x2="6"></line><text fill="#000" x="9" dy="0.32em">0.4</text></g><g class="tick" opacity="1" transform="translate(0,179.0123966942149)"><line stroke="#000" x2="6"></line><text fill="#000" x="9" dy="0.32em">0.5</text></g><g class="tick" opacity="1" transform="translate(0,149.26033057851242)"><line stroke="#000" x2="6"></line><text fill="#000" x="9" dy="0.32em">0.6</text></g><g class="tick" opacity="1" transform="translate(0,119.50826446280996)"><line stroke="#000" x2="6"></line><text fill="#000" x="9" dy="0.32em">0.7</text></g><g class="tick" opacity="1" transform="translate(0,89.75619834710744)"><line stroke="#000" x2="6"></line><text fill="#000" x="9" dy="0.32em">0.8</text></g><g class="tick" opacity="1" transform="translate(0,60.00413223140498)"><line stroke="#000" x2="6"></line><text fill="#000" x="9" dy="0.32em">0.9</text></g><g class="tick" opacity="1" transform="translate(0,30.25206611570252)"><line stroke="#000" x2="6"></line><text fill="#000" x="9" dy="0.32em">1</text></g><g class="tick" opacity="1" transform="translate(0,0.5)"><line stroke="#000" x2="6"></line><text fill="#000" x="9" dy="0.32em">1.1</text></g><text text-anchor="start" x="10" y="10" visibility="hidden" style="font-size: 12px; font-family: Arial; fill: #807dba;">No disease causing germline SNPs known!</text></g><circle cx="636" cy="15" r="10" class="compassNav" style="fill: #ffffff; stroke: #666666; stroke-width: 1px;"></circle><path d="M440.935 12.574l3.966 82.766C399.416 41.904 331.674 8 256 8 134.813 8 33.933 94.924 12.296 209.824 10.908 217.193 16.604 224 24.103 224h49.084c5.57 0 10.377-3.842 11.676-9.259C103.407 137.408 172.931 80 256 80c60.893 0 114.512 30.856 146.104 77.801l-101.53-4.865c-6.845-.328-12.574 5.133-12.574 11.986v47.411c0 6.627 5.373 12 12 12h200.333c6.627 0 12-5.373 12-12V12c0-6.627-5.373-12-12-12h-47.411c-6.853 0-12.315 5.729-11.987 12.574zM256 432c-60.895 0-114.517-30.858-146.109-77.805l101.868 4.871c6.845.327 12.573-5.134 12.573-11.986v-47.412c0-6.627-5.373-12-12-12H12c-6.627 0-12 5.373-12 12V500c0 6.627 5.373 12 12 12h47.385c6.863 0 12.328-5.745 11.985-12.599l-4.129-82.575C112.725 470.166 180.405 504 256 504c121.187 0 222.067-86.924 243.704-201.824 1.388-7.369-4.308-14.176-11.807-14.176h-49.084c-5.57 0-10.377 3.842-11.676 9.259C408.593 374.592 339.069 432 256 432z" class="compassNav" transform="translate(631, 10) scale(0.02)" style="fill: #666666; stroke: #666666; stroke-width: 1px;"></path><circle cx="658" cy="15" r="10" class="compassNav" style="fill: #ffffff; stroke: #666666; stroke-width: 1px;"></circle><line class="compassNav" stroke-width="2" stroke="#666666" x1="654" y1="15" x2="662" y2="15"></line><line class="compassNav" stroke-width="2" stroke="#666666" x1="658" y1="11" x2="658" y2="19"></line><circle cx="614" cy="15" r="10" class="compassNav" style="fill: #ffffff; stroke: #666666; stroke-width: 1px;"></circle><line class="compassNav" stroke-width="2" stroke="#666666" x1="610" y1="15" x2="618" y2="15"></line><path d="M582 14 l20 -12 a100,40 0 0,0 0,24z" class="compassNav" style="fill: #ffffff; stroke: #666666; stroke-width: 1px;"></path><path d="M690 14 l-20 -12 a100,40 0 0,1 0,24z" class="compassNav" style="fill: #ffffff; stroke: #666666; stroke-width: 1px;"></path><path d="M216 0h80c13.3 0 24 10.7 24 24v168h87.7c17.8 0 26.7 21.5 14.1 34.1L269.7 378.3c-7.5 7.5-19.8 7.5-27.3 0L90.1 226.1c-12.6-12.6-3.7-34.1 14.1-34.1H192V24c0-13.3 10.7-24 24-24zm296 376v112c0 13.3-10.7 24-24 24H24c-13.3 0-24-10.7-24-24V376c0-13.3 10.7-24 24-24h146.7l49 49c20.1 20.1 52.5 20.1 72.6 0l49-49H488c13.3 0 24 10.7 24 24zm-124 88c0-11-9-20-20-20s-20 9-20 20 9 20 20 20 20-9 20-20zm64 0c0-11-9-20-20-20s-20 9-20 20 9 20 20 20 20-9 20-20z" class="compassNav" transform="translate(552,0) scale(0.05)" style="fill: #336699; stroke: #336699; stroke-width: 1px; cursor: pointer;"></path></g></svg>