<svg width="800" height="400" style="background-color: white;"><g transform="translate(50,0)"><svg width="700" height="360"><g style="-webkit-tap-highlight-color: rgba(0, 0, 0, 0);"><rect width="700" height="360" style="fill: #ffffff;"></rect><g id="lines"><line class="line" stroke-width="1" stroke="#d7301f" x1="-262.8252788104089" y1="333" x2="-262.8252788104089" y2="360" visibility="hidden" style="stroke-dasharray: 3px, 3px;"></line></g><g><rect x="-267.8252788104089" y="355" width="10" height="10" visibility="hidden" style="fill: #ffffff; stroke: #d7301f;"></rect></g><g id="lines"><line class="line" stroke-width="1" stroke="#6a51a3" x1="-262.8252788104089" y1="333" x2="-262.8252788104089" y2="327.27272727272725" visibility="hidden" style="stroke-dasharray: 3px, 3px;"></line></g><g><rect x="-267.8252788104089" y="322.27272727272725" width="10" height="10" visibility="hidden" style="fill: #ffffff; stroke: #6a51a3;"></rect></g><g id="lines"><line class="line" stroke-width="1" stroke="#666666" x1="5.204460966542751" y1="333" x2="5.204460966542751" y2="267.7685950413223"></line><line class="line" stroke-width="1" stroke="#666666" x1="41.63568773234201" y1="333" x2="41.63568773234201" y2="267.7685950413223"></line><line class="line" stroke-width="1" stroke="#666666" x1="52.044609665427515" y1="333" x2="52.044609665427515" y2="267.7685950413223"></line><line class="line" stroke-width="1" stroke="#666666" x1="54.646840148698885" y1="333" x2="54.646840148698885" y2="267.7685950413223"></line><line class="line" stroke-width="1" stroke="#666666" x1="132.71375464684016" y1="333" x2="132.71375464684016" y2="267.7685950413223"></line><line class="line" stroke-width="1" stroke="#666666" x1="137.9182156133829" y1="333" x2="137.9182156133829" y2="267.7685950413223"></line><line class="line" stroke-width="1" stroke="#666666" x1="463.19702602230484" y1="333" x2="463.19702602230484" y2="267.7685950413223"></line><line class="line" stroke-width="1" stroke="#666666" x1="546.4684014869888" y1="333" x2="546.4684014869888" y2="267.7685950413223"></line><line class="line" stroke-width="1" stroke="#666666" x1="663.5687732342008" y1="333" x2="663.5687732342008" y2="208.26446280991735"></line><line class="line" stroke-width="1" stroke="#666666" x1="671.3754646840149" y1="333" x2="671.3754646840149" y2="208.26446280991735"></line><line class="line" stroke-width="1" stroke="#666666" x1="686.9888475836432" y1="333" x2="686.9888475836432" y2="29.75206611570252"></line></g><g id="circles"><circle r="4" cx="5.204460966542751" cy="267.7685950413223" style="fill: #4393c3; stroke: #666666; stroke-width: 1px;"></circle><circle r="4" cx="41.63568773234201" cy="267.7685950413223" style="fill: #4393c3; stroke: #666666; stroke-width: 1px;"></circle><circle r="4" cx="52.044609665427515" cy="267.7685950413223" style="fill: #4393c3; stroke: #666666; stroke-width: 1px;"></circle><circle r="4" cx="54.646840148698885" cy="267.7685950413223" style="fill: #4393c3; stroke: #666666; stroke-width: 1px;"></circle><circle r="4" cx="132.71375464684016" cy="267.7685950413223" style="fill: #bf812d; stroke: #666666; stroke-width: 1px;"></circle><circle r="4" cx="137.9182156133829" cy="267.7685950413223" style="fill: #4393c3; stroke: #666666; stroke-width: 1px;"></circle><circle r="4" cx="463.19702602230484" cy="267.7685950413223" style="fill: #bf812d; stroke: #666666; stroke-width: 1px;"></circle><circle r="4" cx="546.4684014869888" cy="267.7685950413223" style="fill: #bf812d; stroke: #666666; stroke-width: 1px;"></circle><circle r="4" cx="663.5687732342008" cy="208.26446280991735" style="fill: #4393c3; stroke: #666666; stroke-width: 1px;"></circle><circle r="4" cx="671.3754646840149" cy="208.26446280991735" style="fill: #4393c3; stroke: #666666; stroke-width: 1px;"></circle><circle r="4" cx="686.9888475836432" cy="29.75206611570252" style="fill: #bf812d; stroke: #666666; stroke-width: 1px;"></circle></g><g><rect x="0" y="333" width="700" height="12" style="fill: #ffffff; stroke-width: 1px; stroke: #666666;"></rect><rect x="36.43122676579926" y="333" width="637.546468401487" height="12" style="fill: #aec7e8; stroke-width: 1px; stroke: #666666;"></rect><rect x="44.23791821561338" y="333" width="52.044609665427515" height="12" style="fill: #ffbb78; stroke-width: 1px; stroke: #666666;"></rect><rect x="158.73605947955392" y="333" width="52.044609665427515" height="12" style="fill: #ffbb78; stroke-width: 1px; stroke: #666666;"></rect><rect x="239.40520446096653" y="333" width="52.044609665427544" height="12" style="fill: #ffbb78; stroke-width: 1px; stroke: #666666;"></rect><rect x="603.7174721189591" y="333" width="52.044609665427515" height="12" style="fill: #ffbb78; stroke-width: 1px; stroke: #666666;"></rect></g><g><a target="_blank" xlink:href="http://pfam.xfam.org/family/"><text y="343" x="350" text-anchor="middle" style="color: rgb(102, 102, 102); font-weight: normal; font-size: 12px; font-family: Arial; cursor: pointer;"></text></a><a target="_blank" xlink:href="http://pfam.xfam.org/family/Tetraspannin"><text y="343" x="355.20446096654274" text-anchor="middle" style="color: rgb(102, 102, 102); font-weight: normal; font-size: 12px; font-family: Arial; cursor: pointer;">Tetraspannin</text></a><a target="_blank" xlink:href="http://pfam.xfam.org/family/TM"><text y="343" x="70.26022304832713" text-anchor="middle" style="color: rgb(102, 102, 102); font-weight: normal; font-size: 12px; font-family: Arial; cursor: pointer;">TM</text></a><a target="_blank" xlink:href="http://pfam.xfam.org/family/TM"><text y="343" x="184.75836431226767" text-anchor="middle" style="color: rgb(102, 102, 102); font-weight: normal; font-size: 12px; font-family: Arial; cursor: pointer;">TM</text></a><a target="_blank" xlink:href="http://pfam.xfam.org/family/TM"><text y="343" x="265.4275092936803" text-anchor="middle" style="color: rgb(102, 102, 102); font-weight: normal; font-size: 12px; font-family: Arial; cursor: pointer;">TM</text></a><a target="_blank" xlink:href="http://pfam.xfam.org/family/TM"><text y="343" x="629.7397769516729" text-anchor="middle" style="color: rgb(102, 102, 102); font-weight: normal; font-size: 12px; font-family: Arial; cursor: pointer;">TM</text></a></g><g><text y="358" x="0" text-anchor="middle" visibility="hidden" style="font-size: 13px;">M</text><text y="358" x="2.6022304832713754" text-anchor="middle" visibility="hidden" style="font-size: 13px;">H</text><text y="358" x="5.204460966542751" text-anchor="middle" visibility="hidden" style="font-size: 13px;">Y</text><text y="358" x="7.806691449814126" text-anchor="middle" visibility="hidden" style="font-size: 13px;">Y</text><text y="358" x="10.408921933085502" text-anchor="middle" visibility="hidden" style="font-size: 13px;">R</text><text y="358" x="13.011152416356879" text-anchor="middle" visibility="hidden" style="font-size: 13px;">Y</text><text y="358" x="15.613382899628252" text-anchor="middle" visibility="hidden" style="font-size: 13px;">S</text><text y="358" x="18.21561338289963" text-anchor="middle" visibility="hidden" style="font-size: 13px;">N</text><text y="358" x="20.817843866171003" text-anchor="middle" visibility="hidden" style="font-size: 13px;">A</text><text y="358" x="23.420074349442377" text-anchor="middle" visibility="hidden" style="font-size: 13px;">K</text><text y="358" x="26.022304832713758" text-anchor="middle" visibility="hidden" style="font-size: 13px;">V</text><text y="358" x="28.62453531598513" text-anchor="middle" visibility="hidden" style="font-size: 13px;">S</text><text y="358" x="31.226765799256505" text-anchor="middle" visibility="hidden" style="font-size: 13px;">C</text><text y="358" x="33.82899628252788" text-anchor="middle" visibility="hidden" style="font-size: 13px;">W</text><text y="358" x="36.43122676579926" text-anchor="middle" visibility="hidden" style="font-size: 13px;">Y</text><text y="358" x="39.03345724907063" text-anchor="middle" visibility="hidden" style="font-size: 13px;">K</text><text y="358" x="41.63568773234201" text-anchor="middle" visibility="hidden" style="font-size: 13px;">Y</text><text y="358" x="44.23791821561338" text-anchor="middle" visibility="hidden" style="font-size: 13px;">L</text><text y="358" x="46.840148698884754" text-anchor="middle" visibility="hidden" style="font-size: 13px;">L</text><text y="358" x="49.44237918215614" text-anchor="middle" visibility="hidden" style="font-size: 13px;">F</text><text y="358" x="52.044609665427515" text-anchor="middle" visibility="hidden" style="font-size: 13px;">S</text><text y="358" x="54.646840148698885" text-anchor="middle" visibility="hidden" style="font-size: 13px;">Y</text><text y="358" x="57.24907063197026" text-anchor="middle" visibility="hidden" style="font-size: 13px;">N</text><text y="358" x="59.85130111524163" text-anchor="middle" visibility="hidden" style="font-size: 13px;">I</text><text y="358" x="62.45353159851301" text-anchor="middle" visibility="hidden" style="font-size: 13px;">I</text><text y="358" x="65.05576208178438" text-anchor="middle" visibility="hidden" style="font-size: 13px;">F</text><text y="358" x="67.65799256505576" text-anchor="middle" visibility="hidden" style="font-size: 13px;">W</text><text y="358" x="70.26022304832713" text-anchor="middle" visibility="hidden" style="font-size: 13px;">L</text><text y="358" x="72.86245353159852" text-anchor="middle" visibility="hidden" style="font-size: 13px;">A</text><text y="358" x="75.46468401486989" text-anchor="middle" visibility="hidden" style="font-size: 13px;">G</text><text y="358" x="78.06691449814126" text-anchor="middle" visibility="hidden" style="font-size: 13px;">V</text><text y="358" x="80.66914498141264" text-anchor="middle" visibility="hidden" style="font-size: 13px;">V</text><text y="358" x="83.27137546468401" text-anchor="middle" visibility="hidden" style="font-size: 13px;">F</text><text y="358" x="85.8736059479554" text-anchor="middle" visibility="hidden" style="font-size: 13px;">L</text><text y="358" x="88.47583643122675" text-anchor="middle" visibility="hidden" style="font-size: 13px;">G</text><text y="358" x="91.07806691449814" text-anchor="middle" visibility="hidden" style="font-size: 13px;">V</text><text y="358" x="93.68029739776951" text-anchor="middle" visibility="hidden" style="font-size: 13px;">G</text><text y="358" x="96.28252788104089" text-anchor="middle" visibility="hidden" style="font-size: 13px;">L</text><text y="358" x="98.88475836431228" text-anchor="middle" visibility="hidden" style="font-size: 13px;">W</text><text y="358" x="101.48698884758365" text-anchor="middle" visibility="hidden" style="font-size: 13px;">A</text><text y="358" x="104.08921933085503" text-anchor="middle" visibility="hidden" style="font-size: 13px;">W</text><text y="358" x="106.69144981412639" text-anchor="middle" visibility="hidden" style="font-size: 13px;">S</text><text y="358" x="109.29368029739777" text-anchor="middle" visibility="hidden" style="font-size: 13px;">E</text><text y="358" x="111.89591078066914" text-anchor="middle" visibility="hidden" style="font-size: 13px;">K</text><text y="358" x="114.49814126394052" text-anchor="middle" visibility="hidden" style="font-size: 13px;">G</text><text y="358" x="117.10037174721191" text-anchor="middle" visibility="hidden" style="font-size: 13px;">V</text><text y="358" x="119.70260223048327" text-anchor="middle" visibility="hidden" style="font-size: 13px;">L</text><text y="358" x="122.30483271375465" text-anchor="middle" visibility="hidden" style="font-size: 13px;">S</text><text y="358" x="124.90706319702602" text-anchor="middle" visibility="hidden" style="font-size: 13px;">D</text><text y="358" x="127.5092936802974" text-anchor="middle" visibility="hidden" style="font-size: 13px;">L</text><text y="358" x="130.11152416356876" text-anchor="middle" visibility="hidden" style="font-size: 13px;">T</text><text y="358" x="132.71375464684016" text-anchor="middle" visibility="hidden" style="font-size: 13px;">K</text><text y="358" x="135.31598513011153" text-anchor="middle" visibility="hidden" style="font-size: 13px;">V</text><text y="358" x="137.9182156133829" text-anchor="middle" visibility="hidden" style="font-size: 13px;">T</text><text y="358" x="140.52044609665427" text-anchor="middle" visibility="hidden" style="font-size: 13px;">R</text><text y="358" x="143.12267657992564" text-anchor="middle" visibility="hidden" style="font-size: 13px;">M</text><text y="358" x="145.72490706319704" text-anchor="middle" visibility="hidden" style="font-size: 13px;">H</text><text y="358" x="148.3271375464684" text-anchor="middle" visibility="hidden" style="font-size: 13px;">G</text><text y="358" x="150.92936802973978" text-anchor="middle" visibility="hidden" style="font-size: 13px;">I</text><text y="358" x="153.53159851301115" text-anchor="middle" visibility="hidden" style="font-size: 13px;">D</text><text y="358" x="156.13382899628252" text-anchor="middle" visibility="hidden" style="font-size: 13px;">P</text><text y="358" x="158.73605947955392" text-anchor="middle" visibility="hidden" style="font-size: 13px;">V</text><text y="358" x="161.33828996282529" text-anchor="middle" visibility="hidden" style="font-size: 13px;">V</text><text y="358" x="163.94052044609666" text-anchor="middle" visibility="hidden" style="font-size: 13px;">L</text><text y="358" x="166.54275092936803" text-anchor="middle" visibility="hidden" style="font-size: 13px;">V</text><text y="358" x="169.1449814126394" text-anchor="middle" visibility="hidden" style="font-size: 13px;">L</text><text y="358" x="171.7472118959108" text-anchor="middle" visibility="hidden" style="font-size: 13px;">M</text><text y="358" x="174.34944237918216" text-anchor="middle" visibility="hidden" style="font-size: 13px;">V</text><text y="358" x="176.9516728624535" text-anchor="middle" visibility="hidden" style="font-size: 13px;">G</text><text y="358" x="179.5539033457249" text-anchor="middle" visibility="hidden" style="font-size: 13px;">V</text><text y="358" x="182.15613382899627" text-anchor="middle" visibility="hidden" style="font-size: 13px;">V</text><text y="358" x="184.75836431226767" text-anchor="middle" visibility="hidden" style="font-size: 13px;">M</text><text y="358" x="187.36059479553901" text-anchor="middle" visibility="hidden" style="font-size: 13px;">F</text><text y="358" x="189.96282527881039" text-anchor="middle" visibility="hidden" style="font-size: 13px;">T</text><text y="358" x="192.56505576208178" text-anchor="middle" visibility="hidden" style="font-size: 13px;">L</text><text y="358" x="195.16728624535315" text-anchor="middle" visibility="hidden" style="font-size: 13px;">G</text><text y="358" x="197.76951672862455" text-anchor="middle" visibility="hidden" style="font-size: 13px;">F</text><text y="358" x="200.3717472118959" text-anchor="middle" visibility="hidden" style="font-size: 13px;">A</text><text y="358" x="202.9739776951673" text-anchor="middle" visibility="hidden" style="font-size: 13px;">G</text><text y="358" x="205.57620817843866" text-anchor="middle" visibility="hidden" style="font-size: 13px;">C</text><text y="358" x="208.17843866171006" text-anchor="middle" visibility="hidden" style="font-size: 13px;">V</text><text y="358" x="210.78066914498143" text-anchor="middle" visibility="hidden" style="font-size: 13px;">G</text><text y="358" x="213.38289962825277" text-anchor="middle" visibility="hidden" style="font-size: 13px;">A</text><text y="358" x="215.98513011152417" text-anchor="middle" visibility="hidden" style="font-size: 13px;">L</text><text y="358" x="218.58736059479554" text-anchor="middle" visibility="hidden" style="font-size: 13px;">R</text><text y="358" x="221.18959107806694" text-anchor="middle" visibility="hidden" style="font-size: 13px;">E</text><text y="358" x="223.79182156133828" text-anchor="middle" visibility="hidden" style="font-size: 13px;">N</text><text y="358" x="226.39405204460965" text-anchor="middle" visibility="hidden" style="font-size: 13px;">I</text><text y="358" x="228.99628252788105" text-anchor="middle" visibility="hidden" style="font-size: 13px;">C</text><text y="358" x="231.59851301115242" text-anchor="middle" visibility="hidden" style="font-size: 13px;">L</text><text y="358" x="234.20074349442382" text-anchor="middle" visibility="hidden" style="font-size: 13px;">L</text><text y="358" x="236.80297397769516" text-anchor="middle" visibility="hidden" style="font-size: 13px;">N</text><text y="358" x="239.40520446096653" text-anchor="middle" visibility="hidden" style="font-size: 13px;">F</text><text y="358" x="242.00743494423793" text-anchor="middle" visibility="hidden" style="font-size: 13px;">F</text><text y="358" x="244.6096654275093" text-anchor="middle" visibility="hidden" style="font-size: 13px;">C</text><text y="358" x="247.2118959107807" text-anchor="middle" visibility="hidden" style="font-size: 13px;">G</text><text y="358" x="249.81412639405204" text-anchor="middle" visibility="hidden" style="font-size: 13px;">T</text><text y="358" x="252.4163568773234" text-anchor="middle" visibility="hidden" style="font-size: 13px;">I</text><text y="358" x="255.0185873605948" text-anchor="middle" visibility="hidden" style="font-size: 13px;">V</text><text y="358" x="257.6208178438662" text-anchor="middle" visibility="hidden" style="font-size: 13px;">L</text><text y="358" x="260.2230483271375" text-anchor="middle" visibility="hidden" style="font-size: 13px;">I</text><text y="358" x="262.8252788104089" text-anchor="middle" visibility="hidden" style="font-size: 13px;">F</text><text y="358" x="265.4275092936803" text-anchor="middle" visibility="hidden" style="font-size: 13px;">F</text><text y="358" x="268.02973977695166" text-anchor="middle" visibility="hidden" style="font-size: 13px;">L</text><text y="358" x="270.63197026022306" text-anchor="middle" visibility="hidden" style="font-size: 13px;">E</text><text y="358" x="273.2342007434944" text-anchor="middle" visibility="hidden" style="font-size: 13px;">L</text><text y="358" x="275.8364312267658" text-anchor="middle" visibility="hidden" style="font-size: 13px;">A</text><text y="358" x="278.4386617100372" text-anchor="middle" visibility="hidden" style="font-size: 13px;">V</text><text y="358" x="281.04089219330854" text-anchor="middle" visibility="hidden" style="font-size: 13px;">A</text><text y="358" x="283.6431226765799" text-anchor="middle" visibility="hidden" style="font-size: 13px;">V</text><text y="358" x="286.2453531598513" text-anchor="middle" visibility="hidden" style="font-size: 13px;">L</text><text y="358" x="288.8475836431227" text-anchor="middle" visibility="hidden" style="font-size: 13px;">A</text><text y="358" x="291.4498141263941" text-anchor="middle" visibility="hidden" style="font-size: 13px;">F</text><text y="358" x="294.0520446096654" text-anchor="middle" visibility="hidden" style="font-size: 13px;">L</text><text y="358" x="296.6542750929368" text-anchor="middle" visibility="hidden" style="font-size: 13px;">F</text><text y="358" x="299.25650557620816" text-anchor="middle" visibility="hidden" style="font-size: 13px;">Q</text><text y="358" x="301.85873605947955" text-anchor="middle" visibility="hidden" style="font-size: 13px;">D</text><text y="358" x="304.46096654275095" text-anchor="middle" visibility="hidden" style="font-size: 13px;">W</text><text y="358" x="307.0631970260223" text-anchor="middle" visibility="hidden" style="font-size: 13px;">V</text><text y="358" x="309.6654275092937" text-anchor="middle" visibility="hidden" style="font-size: 13px;">R</text><text y="358" x="312.26765799256503" text-anchor="middle" visibility="hidden" style="font-size: 13px;">D</text><text y="358" x="314.86988847583643" text-anchor="middle" visibility="hidden" style="font-size: 13px;">R</text><text y="358" x="317.47211895910783" text-anchor="middle" visibility="hidden" style="font-size: 13px;">F</text><text y="358" x="320.0743494423792" text-anchor="middle" visibility="hidden" style="font-size: 13px;">R</text><text y="358" x="322.67657992565057" text-anchor="middle" visibility="hidden" style="font-size: 13px;">E</text><text y="358" x="325.2788104089219" text-anchor="middle" visibility="hidden" style="font-size: 13px;">F</text><text y="358" x="327.8810408921933" text-anchor="middle" visibility="hidden" style="font-size: 13px;">F</text><text y="358" x="330.4832713754647" text-anchor="middle" visibility="hidden" style="font-size: 13px;">E</text><text y="358" x="333.08550185873605" text-anchor="middle" visibility="hidden" style="font-size: 13px;">S</text><text y="358" x="335.68773234200745" text-anchor="middle" visibility="hidden" style="font-size: 13px;">N</text><text y="358" x="338.2899628252788" text-anchor="middle" visibility="hidden" style="font-size: 13px;">I</text><text y="358" x="340.8921933085502" text-anchor="middle" visibility="hidden" style="font-size: 13px;">K</text><text y="358" x="343.4944237918216" text-anchor="middle" visibility="hidden" style="font-size: 13px;">S</text><text y="358" x="346.09665427509293" text-anchor="middle" visibility="hidden" style="font-size: 13px;">Y</text><text y="358" x="348.69888475836433" text-anchor="middle" visibility="hidden" style="font-size: 13px;">R</text><text y="358" x="351.30111524163567" text-anchor="middle" visibility="hidden" style="font-size: 13px;">D</text><text y="358" x="353.903345724907" text-anchor="middle" visibility="hidden" style="font-size: 13px;">D</text><text y="358" x="356.5055762081784" text-anchor="middle" visibility="hidden" style="font-size: 13px;">I</text><text y="358" x="359.1078066914498" text-anchor="middle" visibility="hidden" style="font-size: 13px;">D</text><text y="358" x="361.7100371747212" text-anchor="middle" visibility="hidden" style="font-size: 13px;">L</text><text y="358" x="364.31226765799255" text-anchor="middle" visibility="hidden" style="font-size: 13px;">Q</text><text y="358" x="366.91449814126395" text-anchor="middle" visibility="hidden" style="font-size: 13px;">N</text><text y="358" x="369.51672862453535" text-anchor="middle" visibility="hidden" style="font-size: 13px;">L</text><text y="358" x="372.11895910780675" text-anchor="middle" visibility="hidden" style="font-size: 13px;">I</text><text y="358" x="374.72118959107803" text-anchor="middle" visibility="hidden" style="font-size: 13px;">D</text><text y="358" x="377.32342007434943" text-anchor="middle" visibility="hidden" style="font-size: 13px;">S</text><text y="358" x="379.92565055762077" text-anchor="middle" visibility="hidden" style="font-size: 13px;">L</text><text y="358" x="382.52788104089217" text-anchor="middle" visibility="hidden" style="font-size: 13px;">Q</text><text y="358" x="385.13011152416357" text-anchor="middle" visibility="hidden" style="font-size: 13px;">K</text><text y="358" x="387.73234200743497" text-anchor="middle" visibility="hidden" style="font-size: 13px;">A</text><text y="358" x="390.3345724907063" text-anchor="middle" visibility="hidden" style="font-size: 13px;">N</text><text y="358" x="392.9368029739777" text-anchor="middle" visibility="hidden" style="font-size: 13px;">Q</text><text y="358" x="395.5390334572491" text-anchor="middle" visibility="hidden" style="font-size: 13px;">C</text><text y="358" x="398.1412639405205" text-anchor="middle" visibility="hidden" style="font-size: 13px;">C</text><text y="358" x="400.7434944237918" text-anchor="middle" visibility="hidden" style="font-size: 13px;">G</text><text y="358" x="403.3457249070632" text-anchor="middle" visibility="hidden" style="font-size: 13px;">A</text><text y="358" x="405.9479553903346" text-anchor="middle" visibility="hidden" style="font-size: 13px;">Y</text><text y="358" x="408.5501858736059" text-anchor="middle" visibility="hidden" style="font-size: 13px;">G</text><text y="358" x="411.1524163568773" text-anchor="middle" visibility="hidden" style="font-size: 13px;">P</text><text y="358" x="413.7546468401487" text-anchor="middle" visibility="hidden" style="font-size: 13px;">E</text><text y="358" x="416.3568773234201" text-anchor="middle" visibility="hidden" style="font-size: 13px;">D</text><text y="358" x="418.95910780669146" text-anchor="middle" visibility="hidden" style="font-size: 13px;">W</text><text y="358" x="421.56133828996286" text-anchor="middle" visibility="hidden" style="font-size: 13px;">D</text><text y="358" x="424.16356877323415" text-anchor="middle" visibility="hidden" style="font-size: 13px;">L</text><text y="358" x="426.76579925650555" text-anchor="middle" visibility="hidden" style="font-size: 13px;">N</text><text y="358" x="429.36802973977694" text-anchor="middle" visibility="hidden" style="font-size: 13px;">V</text><text y="358" x="431.97026022304834" text-anchor="middle" visibility="hidden" style="font-size: 13px;">Y</text><text y="358" x="434.5724907063197" text-anchor="middle" visibility="hidden" style="font-size: 13px;">F</text><text y="358" x="437.1747211895911" text-anchor="middle" visibility="hidden" style="font-size: 13px;">N</text><text y="358" x="439.7769516728625" text-anchor="middle" visibility="hidden" style="font-size: 13px;">C</text><text y="358" x="442.3791821561339" text-anchor="middle" visibility="hidden" style="font-size: 13px;">S</text><text y="358" x="444.9814126394052" text-anchor="middle" visibility="hidden" style="font-size: 13px;">G</text><text y="358" x="447.58364312267656" text-anchor="middle" visibility="hidden" style="font-size: 13px;">A</text><text y="358" x="450.1858736059479" text-anchor="middle" visibility="hidden" style="font-size: 13px;">S</text><text y="358" x="452.7881040892193" text-anchor="middle" visibility="hidden" style="font-size: 13px;">Y</text><text y="358" x="455.3903345724907" text-anchor="middle" visibility="hidden" style="font-size: 13px;">S</text><text y="358" x="457.9925650557621" text-anchor="middle" visibility="hidden" style="font-size: 13px;">R</text><text y="358" x="460.59479553903344" text-anchor="middle" visibility="hidden" style="font-size: 13px;">E</text><text y="358" x="463.19702602230484" text-anchor="middle" visibility="hidden" style="font-size: 13px;">K</text><text y="358" x="465.79925650557624" text-anchor="middle" visibility="hidden" style="font-size: 13px;">C</text><text y="358" x="468.40148698884764" text-anchor="middle" visibility="hidden" style="font-size: 13px;">G</text><text y="358" x="471.0037174721189" text-anchor="middle" visibility="hidden" style="font-size: 13px;">V</text><text y="358" x="473.6059479553903" text-anchor="middle" visibility="hidden" style="font-size: 13px;">P</text><text y="358" x="476.20817843866166" text-anchor="middle" visibility="hidden" style="font-size: 13px;">F</text><text y="358" x="478.81040892193306" text-anchor="middle" visibility="hidden" style="font-size: 13px;">S</text><text y="358" x="481.41263940520446" text-anchor="middle" visibility="hidden" style="font-size: 13px;">C</text><text y="358" x="484.01486988847586" text-anchor="middle" visibility="hidden" style="font-size: 13px;">C</text><text y="358" x="486.6171003717472" text-anchor="middle" visibility="hidden" style="font-size: 13px;">V</text><text y="358" x="489.2193308550186" text-anchor="middle" visibility="hidden" style="font-size: 13px;">P</text><text y="358" x="491.82156133829" text-anchor="middle" visibility="hidden" style="font-size: 13px;">D</text><text y="358" x="494.4237918215614" text-anchor="middle" visibility="hidden" style="font-size: 13px;">P</text><text y="358" x="497.0260223048327" text-anchor="middle" visibility="hidden" style="font-size: 13px;">A</text><text y="358" x="499.6282527881041" text-anchor="middle" visibility="hidden" style="font-size: 13px;">Q</text><text y="358" x="502.2304832713755" text-anchor="middle" visibility="hidden" style="font-size: 13px;">K</text><text y="358" x="504.8327137546468" text-anchor="middle" visibility="hidden" style="font-size: 13px;">V</text><text y="358" x="507.4349442379182" text-anchor="middle" visibility="hidden" style="font-size: 13px;">V</text><text y="358" x="510.0371747211896" text-anchor="middle" visibility="hidden" style="font-size: 13px;">N</text><text y="358" x="512.639405204461" text-anchor="middle" visibility="hidden" style="font-size: 13px;">T</text><text y="358" x="515.2416356877324" text-anchor="middle" visibility="hidden" style="font-size: 13px;">Q</text><text y="358" x="517.8438661710037" text-anchor="middle" visibility="hidden" style="font-size: 13px;">C</text><text y="358" x="520.446096654275" text-anchor="middle" visibility="hidden" style="font-size: 13px;">G</text><text y="358" x="523.0483271375465" text-anchor="middle" visibility="hidden" style="font-size: 13px;">Y</text><text y="358" x="525.6505576208178" text-anchor="middle" visibility="hidden" style="font-size: 13px;">D</text><text y="358" x="528.2527881040892" text-anchor="middle" visibility="hidden" style="font-size: 13px;">V</text><text y="358" x="530.8550185873606" text-anchor="middle" visibility="hidden" style="font-size: 13px;">R</text><text y="358" x="533.457249070632" text-anchor="middle" visibility="hidden" style="font-size: 13px;">I</text><text y="358" x="536.0594795539033" text-anchor="middle" visibility="hidden" style="font-size: 13px;">Q</text><text y="358" x="538.6617100371748" text-anchor="middle" visibility="hidden" style="font-size: 13px;">L</text><text y="358" x="541.2639405204461" text-anchor="middle" visibility="hidden" style="font-size: 13px;">K</text><text y="358" x="543.8661710037175" text-anchor="middle" visibility="hidden" style="font-size: 13px;">S</text><text y="358" x="546.4684014869888" text-anchor="middle" visibility="hidden" style="font-size: 13px;">K</text><text y="358" x="549.0706319702603" text-anchor="middle" visibility="hidden" style="font-size: 13px;">W</text><text y="358" x="551.6728624535316" text-anchor="middle" visibility="hidden" style="font-size: 13px;">D</text><text y="358" x="554.2750929368029" text-anchor="middle" visibility="hidden" style="font-size: 13px;">E</text><text y="358" x="556.8773234200744" text-anchor="middle" visibility="hidden" style="font-size: 13px;">S</text><text y="358" x="559.4795539033457" text-anchor="middle" visibility="hidden" style="font-size: 13px;">I</text><text y="358" x="562.0817843866171" text-anchor="middle" visibility="hidden" style="font-size: 13px;">F</text><text y="358" x="564.6840148698885" text-anchor="middle" visibility="hidden" style="font-size: 13px;">T</text><text y="358" x="567.2862453531598" text-anchor="middle" visibility="hidden" style="font-size: 13px;">K</text><text y="358" x="569.8884758364312" text-anchor="middle" visibility="hidden" style="font-size: 13px;">G</text><text y="358" x="572.4907063197026" text-anchor="middle" visibility="hidden" style="font-size: 13px;">C</text><text y="358" x="575.092936802974" text-anchor="middle" visibility="hidden" style="font-size: 13px;">I</text><text y="358" x="577.6951672862454" text-anchor="middle" visibility="hidden" style="font-size: 13px;">Q</text><text y="358" x="580.2973977695167" text-anchor="middle" visibility="hidden" style="font-size: 13px;">A</text><text y="358" x="582.8996282527881" text-anchor="middle" visibility="hidden" style="font-size: 13px;">L</text><text y="358" x="585.5018587360595" text-anchor="middle" visibility="hidden" style="font-size: 13px;">E</text><text y="358" x="588.1040892193308" text-anchor="middle" visibility="hidden" style="font-size: 13px;">S</text><text y="358" x="590.7063197026023" text-anchor="middle" visibility="hidden" style="font-size: 13px;">W</text><text y="358" x="593.3085501858736" text-anchor="middle" visibility="hidden" style="font-size: 13px;">L</text><text y="358" x="595.910780669145" text-anchor="middle" visibility="hidden" style="font-size: 13px;">P</text><text y="358" x="598.5130111524163" text-anchor="middle" visibility="hidden" style="font-size: 13px;">R</text><text y="358" x="601.1152416356878" text-anchor="middle" visibility="hidden" style="font-size: 13px;">N</text><text y="358" x="603.7174721189591" text-anchor="middle" visibility="hidden" style="font-size: 13px;">I</text><text y="358" x="606.3197026022304" text-anchor="middle" visibility="hidden" style="font-size: 13px;">Y</text><text y="358" x="608.9219330855019" text-anchor="middle" visibility="hidden" style="font-size: 13px;">I</text><text y="358" x="611.5241635687732" text-anchor="middle" visibility="hidden" style="font-size: 13px;">V</text><text y="358" x="614.1263940520446" text-anchor="middle" visibility="hidden" style="font-size: 13px;">A</text><text y="358" x="616.7286245353159" text-anchor="middle" visibility="hidden" style="font-size: 13px;">G</text><text y="358" x="619.3308550185874" text-anchor="middle" visibility="hidden" style="font-size: 13px;">V</text><text y="358" x="621.9330855018587" text-anchor="middle" visibility="hidden" style="font-size: 13px;">F</text><text y="358" x="624.5353159851301" text-anchor="middle" visibility="hidden" style="font-size: 13px;">I</text><text y="358" x="627.1375464684015" text-anchor="middle" visibility="hidden" style="font-size: 13px;">A</text><text y="358" x="629.7397769516729" text-anchor="middle" visibility="hidden" style="font-size: 13px;">I</text><text y="358" x="632.3420074349442" text-anchor="middle" visibility="hidden" style="font-size: 13px;">S</text><text y="358" x="634.9442379182157" text-anchor="middle" visibility="hidden" style="font-size: 13px;">L</text><text y="358" x="637.546468401487" text-anchor="middle" visibility="hidden" style="font-size: 13px;">L</text><text y="358" x="640.1486988847583" text-anchor="middle" visibility="hidden" style="font-size: 13px;">Q</text><text y="358" x="642.7509293680297" text-anchor="middle" visibility="hidden" style="font-size: 13px;">I</text><text y="358" x="645.3531598513011" text-anchor="middle" visibility="hidden" style="font-size: 13px;">F</text><text y="358" x="647.9553903345725" text-anchor="middle" visibility="hidden" style="font-size: 13px;">G</text><text y="358" x="650.5576208178438" text-anchor="middle" visibility="hidden" style="font-size: 13px;">I</text><text y="358" x="653.1598513011153" text-anchor="middle" visibility="hidden" style="font-size: 13px;">F</text><text y="358" x="655.7620817843866" text-anchor="middle" visibility="hidden" style="font-size: 13px;">L</text><text y="358" x="658.364312267658" text-anchor="middle" visibility="hidden" style="font-size: 13px;">A</text><text y="358" x="660.9665427509294" text-anchor="middle" visibility="hidden" style="font-size: 13px;">R</text><text y="358" x="663.5687732342008" text-anchor="middle" visibility="hidden" style="font-size: 13px;">T</text><text y="358" x="666.1710037174721" text-anchor="middle" visibility="hidden" style="font-size: 13px;">L</text><text y="358" x="668.7732342007434" text-anchor="middle" visibility="hidden" style="font-size: 13px;">I</text><text y="358" x="671.3754646840149" text-anchor="middle" visibility="hidden" style="font-size: 13px;">S</text><text y="358" x="673.9776951672862" text-anchor="middle" visibility="hidden" style="font-size: 13px;">D</text><text y="358" x="676.5799256505576" text-anchor="middle" visibility="hidden" style="font-size: 13px;">I</text><text y="358" x="679.182156133829" text-anchor="middle" visibility="hidden" style="font-size: 13px;">E</text><text y="358" x="681.7843866171004" text-anchor="middle" visibility="hidden" style="font-size: 13px;">A</text><text y="358" x="684.3866171003717" text-anchor="middle" visibility="hidden" style="font-size: 13px;">V</text><text y="358" x="686.9888475836432" text-anchor="middle" visibility="hidden" style="font-size: 13px;">K</text><text y="358" x="689.5910780669145" text-anchor="middle" visibility="hidden" style="font-size: 13px;">A</text><text y="358" x="692.1933085501859" text-anchor="middle" visibility="hidden" style="font-size: 13px;">G</text><text y="358" x="694.7955390334572" text-anchor="middle" visibility="hidden" style="font-size: 13px;">H</text><text y="358" x="697.3977695167287" text-anchor="middle" visibility="hidden" style="font-size: 13px;">H</text><text y="358" x="700" text-anchor="middle" visibility="hidden" style="font-size: 13px;">F</text></g></g></svg><g class="xAxis" transform="translate(0,360)" fill="none" font-size="10" font-family="sans-serif" text-anchor="middle"><path class="domain" stroke="#000" d="M0.5,6V0.5H700.5V6"></path><g class="tick" opacity="1" transform="translate(49.94237918215614,0)"><line stroke="#000" y2="6"></line><text fill="#000" y="9" dy="0.71em">20</text></g><g class="tick" opacity="1" transform="translate(101.98698884758365,0)"><line stroke="#000" y2="6"></line><text fill="#000" y="9" dy="0.71em">40</text></g><g class="tick" opacity="1" transform="translate(154.03159851301115,0)"><line stroke="#000" y2="6"></line><text fill="#000" y="9" dy="0.71em">60</text></g><g class="tick" opacity="1" transform="translate(206.07620817843866,0)"><line stroke="#000" y2="6"></line><text fill="#000" y="9" dy="0.71em">80</text></g><g class="tick" opacity="1" transform="translate(258.1208178438662,0)"><line stroke="#000" y2="6"></line><text fill="#000" y="9" dy="0.71em">100</text></g><g class="tick" opacity="1" transform="translate(310.1654275092937,0)"><line stroke="#000" y2="6"></line><text fill="#000" y="9" dy="0.71em">120</text></g><g class="tick" opacity="1" transform="translate(362.2100371747212,0)"><line stroke="#000" y2="6"></line><text fill="#000" y="9" dy="0.71em">140</text></g><g class="tick" opacity="1" transform="translate(414.2546468401487,0)"><line stroke="#000" y2="6"></line><text fill="#000" y="9" dy="0.71em">160</text></g><g class="tick" opacity="1" transform="translate(466.29925650557624,0)"><line stroke="#000" y2="6"></line><text fill="#000" y="9" dy="0.71em">180</text></g><g class="tick" opacity="1" transform="translate(518.3438661710037,0)"><line stroke="#000" y2="6"></line><text fill="#000" y="9" dy="0.71em">200</text></g><g class="tick" opacity="1" transform="translate(570.3884758364312,0)"><line stroke="#000" y2="6"></line><text fill="#000" y="9" dy="0.71em">220</text></g><g class="tick" opacity="1" transform="translate(622.4330855018587,0)"><line stroke="#000" y2="6"></line><text fill="#000" y="9" dy="0.71em">240</text></g><g class="tick" opacity="1" transform="translate(674.4776951672862,0)"><line stroke="#000" y2="6"></line><text fill="#000" y="9" dy="0.71em">260</text></g></g><text class="x label" text-anchor="end" x="700" y="390" style="font-size: 13px; font-family: Arial;">Residue number</text><g class="yAxis" fill="none" font-size="10" font-family="sans-serif" text-anchor="end"><path class="domain" stroke="#000" d="M-6,360.5H0.5V0.5H-6"></path><g class="tick" opacity="1" transform="translate(0,357.52479338842977)"><line stroke="#000" x2="-6"></line><text fill="#000" x="-9" dy="0.32em"></text></g><g class="tick" opacity="1" transform="translate(0,327.77272727272725)"><line stroke="#000" x2="-6"></line><text fill="#000" x="-9" dy="0.32em">0</text></g><g class="tick" opacity="1" transform="translate(0,298.0206611570248)"><line stroke="#000" x2="-6"></line><text fill="#000" x="-9" dy="0.32em">0.5</text></g><g class="tick" opacity="1" transform="translate(0,268.2685950413223)"><line stroke="#000" x2="-6"></line><text fill="#000" x="-9" dy="0.32em">1</text></g><g class="tick" opacity="1" transform="translate(0,238.51652892561984)"><line stroke="#000" x2="-6"></line><text fill="#000" x="-9" dy="0.32em">1.5</text></g><g class="tick" opacity="1" transform="translate(0,208.76446280991735)"><line stroke="#000" x2="-6"></line><text fill="#000" x="-9" dy="0.32em">2</text></g><g class="tick" opacity="1" transform="translate(0,179.01239669421489)"><line stroke="#000" x2="-6"></line><text fill="#000" x="-9" dy="0.32em">2.5</text></g><g class="tick" opacity="1" transform="translate(0,149.26033057851242)"><line stroke="#000" x2="-6"></line><text fill="#000" x="-9" dy="0.32em">3</text></g><g class="tick" opacity="1" transform="translate(0,119.50826446280993)"><line stroke="#000" x2="-6"></line><text fill="#000" x="-9" dy="0.32em">3.5</text></g><g class="tick" opacity="1" transform="translate(0,89.75619834710744)"><line stroke="#000" x2="-6"></line><text fill="#000" x="-9" dy="0.32em">4</text></g><g class="tick" opacity="1" transform="translate(0,60.00413223140498)"><line stroke="#000" x2="-6"></line><text fill="#000" x="-9" dy="0.32em">4.5</text></g><g class="tick" opacity="1" transform="translate(0,30.25206611570252)"><line stroke="#000" x2="-6"></line><text fill="#000" x="-9" dy="0.32em">5</text></g><g class="tick" opacity="1" transform="translate(0,0.5)"><line stroke="#000" x2="-6"></line><text fill="#000" x="-9" dy="0.32em">5.5</text></g></g><text class="y label" text-anchor="middle" y="-50" x="-180" dy="0.8em" transform="rotate(-90)" style="font-size: 13px; font-family: Arial;">Total number of references</text><g class="axisRed" fill="none" font-size="10" font-family="sans-serif" text-anchor="start" visibility="hidden" transform="translate(700, 0)"><path class="domain" stroke="#000" d="M6,360.5H0.5V0.5H6"></path><g class="tick" opacity="1" transform="translate(0,360.5)"><line stroke="#000" x2="6"></line><text fill="#000" x="9" dy="0.32em">0</text></g><text text-anchor="start" dx="5.2em" dy="-2.6em" transform="rotate(90)" visibility="hidden" style="font-size: 12px; font-family: Arial; fill: #d7301f;">No recurrent (&gt;2) missense mutations!</text></g><g class="axisPurple" fill="none" font-size="10" font-family="sans-serif" text-anchor="start" visibility="hidden"><path class="domain" stroke="#000" d="M6,360.5H0.5V0.5H6"></path><g class="tick" opacity="1" transform="translate(0,357.52479338842977)"><line stroke="#000" x2="6"></line><text fill="#000" x="9" dy="0.32em"></text></g><g class="tick" opacity="1" transform="translate(0,327.77272727272725)"><line stroke="#000" x2="6"></line><text fill="#000" x="9" dy="0.32em">0</text></g><g class="tick" opacity="1" transform="translate(0,298.0206611570248)"><line stroke="#000" x2="6"></line><text fill="#000" x="9" dy="0.32em">0.1</text></g><g class="tick" opacity="1" transform="translate(0,268.2685950413223)"><line stroke="#000" x2="6"></line><text fill="#000" x="9" dy="0.32em">0.2</text></g><g class="tick" opacity="1" transform="translate(0,238.51652892561984)"><line stroke="#000" x2="6"></line><text fill="#000" x="9" dy="0.32em">0.3</text></g><g class="tick" opacity="1" transform="translate(0,208.76446280991738)"><line stroke="#000" x2="6"></line><text fill="#000" x="9" dy="0.32em">0.4</text></g><g class="tick" opacity="1" transform="translate(0,179.0123966942149)"><line stroke="#000" x2="6"></line><text fill="#000" x="9" dy="0.32em">0.5</text></g><g class="tick" opacity="1" transform="translate(0,149.26033057851242)"><line stroke="#000" x2="6"></line><text fill="#000" x="9" dy="0.32em">0.6</text></g><g class="tick" opacity="1" transform="translate(0,119.50826446280996)"><line stroke="#000" x2="6"></line><text fill="#000" x="9" dy="0.32em">0.7</text></g><g class="tick" opacity="1" transform="translate(0,89.75619834710744)"><line stroke="#000" x2="6"></line><text fill="#000" x="9" dy="0.32em">0.8</text></g><g class="tick" opacity="1" transform="translate(0,60.00413223140498)"><line stroke="#000" x2="6"></line><text fill="#000" x="9" dy="0.32em">0.9</text></g><g class="tick" opacity="1" transform="translate(0,30.25206611570252)"><line stroke="#000" x2="6"></line><text fill="#000" x="9" dy="0.32em">1</text></g><g class="tick" opacity="1" transform="translate(0,0.5)"><line stroke="#000" x2="6"></line><text fill="#000" x="9" dy="0.32em">1.1</text></g><text text-anchor="start" x="10" y="10" visibility="hidden" style="font-size: 12px; font-family: Arial; fill: #807dba;">No disease causing germline SNPs known!</text></g><circle cx="636" cy="15" r="10" class="compassNav" style="fill: #ffffff; stroke: #666666; stroke-width: 1px;"></circle><path d="M440.935 12.574l3.966 82.766C399.416 41.904 331.674 8 256 8 134.813 8 33.933 94.924 12.296 209.824 10.908 217.193 16.604 224 24.103 224h49.084c5.57 0 10.377-3.842 11.676-9.259C103.407 137.408 172.931 80 256 80c60.893 0 114.512 30.856 146.104 77.801l-101.53-4.865c-6.845-.328-12.574 5.133-12.574 11.986v47.411c0 6.627 5.373 12 12 12h200.333c6.627 0 12-5.373 12-12V12c0-6.627-5.373-12-12-12h-47.411c-6.853 0-12.315 5.729-11.987 12.574zM256 432c-60.895 0-114.517-30.858-146.109-77.805l101.868 4.871c6.845.327 12.573-5.134 12.573-11.986v-47.412c0-6.627-5.373-12-12-12H12c-6.627 0-12 5.373-12 12V500c0 6.627 5.373 12 12 12h47.385c6.863 0 12.328-5.745 11.985-12.599l-4.129-82.575C112.725 470.166 180.405 504 256 504c121.187 0 222.067-86.924 243.704-201.824 1.388-7.369-4.308-14.176-11.807-14.176h-49.084c-5.57 0-10.377 3.842-11.676 9.259C408.593 374.592 339.069 432 256 432z" class="compassNav" transform="translate(631, 10) scale(0.02)" style="fill: #666666; stroke: #666666; stroke-width: 1px;"></path><circle cx="658" cy="15" r="10" class="compassNav" style="fill: #ffffff; stroke: #666666; stroke-width: 1px;"></circle><line class="compassNav" stroke-width="2" stroke="#666666" x1="654" y1="15" x2="662" y2="15"></line><line class="compassNav" stroke-width="2" stroke="#666666" x1="658" y1="11" x2="658" y2="19"></line><circle cx="614" cy="15" r="10" class="compassNav" style="fill: #ffffff; stroke: #666666; stroke-width: 1px;"></circle><line class="compassNav" stroke-width="2" stroke="#666666" x1="610" y1="15" x2="618" y2="15"></line><path d="M582 14 l20 -12 a100,40 0 0,0 0,24z" class="compassNav" style="fill: #ffffff; stroke: #666666; stroke-width: 1px;"></path><path d="M690 14 l-20 -12 a100,40 0 0,1 0,24z" class="compassNav" style="fill: #ffffff; stroke: #666666; stroke-width: 1px;"></path><path d="M216 0h80c13.3 0 24 10.7 24 24v168h87.7c17.8 0 26.7 21.5 14.1 34.1L269.7 378.3c-7.5 7.5-19.8 7.5-27.3 0L90.1 226.1c-12.6-12.6-3.7-34.1 14.1-34.1H192V24c0-13.3 10.7-24 24-24zm296 376v112c0 13.3-10.7 24-24 24H24c-13.3 0-24-10.7-24-24V376c0-13.3 10.7-24 24-24h146.7l49 49c20.1 20.1 52.5 20.1 72.6 0l49-49H488c13.3 0 24 10.7 24 24zm-124 88c0-11-9-20-20-20s-20 9-20 20 9 20 20 20 20-9 20-20zm64 0c0-11-9-20-20-20s-20 9-20 20 9 20 20 20 20-9 20-20z" class="compassNav" transform="translate(552,0) scale(0.05)" style="fill: #336699; stroke: #336699; stroke-width: 1px; cursor: pointer;"></path></g></svg>