<svg width="800" height="400" style="background-color: white;"><g transform="translate(50,0)"><svg width="700" height="360"><g style="-webkit-tap-highlight-color: rgba(0, 0, 0, 0);"><rect width="700" height="360" style="fill: #ffffff;"></rect><g id="lines"><line class="line" stroke-width="1" stroke="#d7301f" x1="329.4117647058824" y1="333" x2="329.4117647058824" y2="29.752066115702462" visibility="hidden" style="stroke-dasharray: 3px, 3px;"></line></g><g><rect x="324.4117647058824" y="24.752066115702462" width="10" height="10" visibility="hidden" style="fill: #ffffff; stroke: #d7301f;"></rect></g><g id="lines"><line class="line" stroke-width="1" stroke="#6a51a3" x1="-594.1176470588235" y1="333" x2="-594.1176470588235" y2="327.27272727272725" visibility="hidden" style="stroke-dasharray: 3px, 3px;"></line></g><g><rect x="-599.1176470588235" y="322.27272727272725" width="10" height="10" visibility="hidden" style="fill: #ffffff; stroke: #6a51a3;"></rect></g><g id="lines"><line class="line" stroke-width="1" stroke="#666666" x1="17.647058823529413" y1="333" x2="17.647058823529413" y2="326.08264462809916"></line><line class="line" stroke-width="1" stroke="#666666" x1="76.47058823529412" y1="333" x2="76.47058823529412" y2="323.702479338843"></line><line class="line" stroke-width="1" stroke="#666666" x1="82.3529411764706" y1="333" x2="82.3529411764706" y2="323.702479338843"></line><line class="line" stroke-width="1" stroke="#666666" x1="88.23529411764706" y1="333" x2="88.23529411764706" y2="261.8181818181818"></line><line class="line" stroke-width="1" stroke="#666666" x1="100" y1="333" x2="100" y2="324.89256198347107"></line><line class="line" stroke-width="1" stroke="#666666" x1="105.88235294117646" y1="333" x2="105.88235294117646" y2="309.42148760330576"></line><line class="line" stroke-width="1" stroke="#666666" x1="111.76470588235293" y1="333" x2="111.76470588235293" y2="321.3223140495868"></line><line class="line" stroke-width="1" stroke="#666666" x1="129.41176470588235" y1="333" x2="129.41176470588235" y2="190.41322314049586"></line><line class="line" stroke-width="1" stroke="#666666" x1="135.29411764705884" y1="333" x2="135.29411764705884" y2="29.752066115702462"></line><line class="line" stroke-width="1" stroke="#666666" x1="141.1764705882353" y1="333" x2="141.1764705882353" y2="252.29752066115702"></line><line class="line" stroke-width="1" stroke="#666666" x1="164.7058823529412" y1="333" x2="164.7058823529412" y2="252.29752066115702"></line><line class="line" stroke-width="1" stroke="#666666" x1="200" y1="333" x2="200" y2="326.08264462809916"></line><line class="line" stroke-width="1" stroke="#666666" x1="247.05882352941177" y1="333" x2="247.05882352941177" y2="326.08264462809916"></line><line class="line" stroke-width="1" stroke="#666666" x1="605.8823529411765" y1="333" x2="605.8823529411765" y2="326.08264462809916"></line><line class="line" stroke-width="1" stroke="#666666" x1="641.1764705882352" y1="333" x2="641.1764705882352" y2="326.08264462809916"></line><line class="line" stroke-width="1" stroke="#666666" x1="647.0588235294118" y1="333" x2="647.0588235294118" y2="326.08264462809916"></line><line class="line" stroke-width="1" stroke="#666666" x1="652.9411764705883" y1="333" x2="652.9411764705883" y2="326.08264462809916"></line></g><g id="circles"><circle r="4" cx="17.647058823529413" cy="326.08264462809916" style="fill: #4393c3; stroke: #666666; stroke-width: 1px;"></circle><circle r="4" cx="76.47058823529412" cy="323.702479338843" style="fill: #4393c3; stroke: #666666; stroke-width: 1px;"></circle><circle r="4" cx="82.3529411764706" cy="323.702479338843" style="fill: #4393c3; stroke: #666666; stroke-width: 1px;"></circle><circle r="4" cx="88.23529411764706" cy="261.8181818181818" style="fill: #bf812d; stroke: #666666; stroke-width: 1px;"></circle><circle r="4" cx="100" cy="324.89256198347107" style="fill: #bf812d; stroke: #666666; stroke-width: 1px;"></circle><circle r="4" cx="105.88235294117646" cy="309.42148760330576" style="fill: #4393c3; stroke: #666666; stroke-width: 1px;"></circle><circle r="4" cx="111.76470588235293" cy="321.3223140495868" style="fill: #4393c3; stroke: #666666; stroke-width: 1px;"></circle><circle r="4" cx="129.41176470588235" cy="190.41322314049586" style="fill: #4393c3; stroke: #666666; stroke-width: 1px;"></circle><circle r="4" cx="135.29411764705884" cy="29.752066115702462" style="fill: #4393c3; stroke: #666666; stroke-width: 1px;"></circle><circle r="4" cx="141.1764705882353" cy="252.29752066115702" style="fill: #4393c3; stroke: #666666; stroke-width: 1px;"></circle><circle r="4" cx="164.7058823529412" cy="252.29752066115702" style="fill: #4393c3; stroke: #666666; stroke-width: 1px;"></circle><circle r="4" cx="200" cy="326.08264462809916" style="fill: #bf812d; stroke: #666666; stroke-width: 1px;"></circle><circle r="4" cx="247.05882352941177" cy="326.08264462809916" style="fill: #4393c3; stroke: #666666; stroke-width: 1px;"></circle><circle r="4" cx="605.8823529411765" cy="326.08264462809916" style="fill: #4393c3; stroke: #666666; stroke-width: 1px;"></circle><circle r="4" cx="641.1764705882352" cy="326.08264462809916" style="fill: #4393c3; stroke: #666666; stroke-width: 1px;"></circle><circle r="4" cx="647.0588235294118" cy="326.08264462809916" style="fill: #4393c3; stroke: #666666; stroke-width: 1px;"></circle><circle r="4" cx="652.9411764705883" cy="326.08264462809916" style="fill: #4393c3; stroke: #666666; stroke-width: 1px;"></circle></g><g><rect x="0" y="333" width="700" height="12" style="fill: #ffffff; stroke-width: 1px; stroke: #666666;"></rect><rect x="5.88235294117647" y="333" width="682.3529411764706" height="12" style="fill: #aec7e8; stroke-width: 1px; stroke: #666666;"></rect><rect x="264.70588235294116" y="333" width="117.64705882352939" height="12" style="fill: #ffbb78; stroke-width: 1px; stroke: #666666;"></rect><rect x="458.8235294117647" y="333" width="117.64705882352945" height="12" style="fill: #ffbb78; stroke-width: 1px; stroke: #666666;"></rect></g><g><a target="_blank" xlink:href="http://pfam.xfam.org/family/"><text y="343" x="350" text-anchor="middle" style="color: rgb(102, 102, 102); font-weight: normal; font-size: 12px; font-family: Arial; cursor: pointer;"></text></a><a target="_blank" xlink:href="http://pfam.xfam.org/family/DUF872"><text y="343" x="347.05882352941177" text-anchor="middle" style="color: rgb(102, 102, 102); font-weight: normal; font-size: 12px; font-family: Arial; cursor: pointer;">DUF872</text></a><a target="_blank" xlink:href="http://pfam.xfam.org/family/TM"><text y="343" x="323.52941176470586" text-anchor="middle" style="color: rgb(102, 102, 102); font-weight: normal; font-size: 12px; font-family: Arial; cursor: pointer;">TM</text></a><a target="_blank" xlink:href="http://pfam.xfam.org/family/TM"><text y="343" x="517.6470588235294" text-anchor="middle" style="color: rgb(102, 102, 102); font-weight: normal; font-size: 12px; font-family: Arial; cursor: pointer;">TM</text></a></g><g><text y="358" x="0" text-anchor="middle" visibility="hidden" style="font-size: 13px;">M</text><text y="358" x="5.88235294117647" text-anchor="middle" visibility="hidden" style="font-size: 13px;">M</text><text y="358" x="11.76470588235294" text-anchor="middle" visibility="hidden" style="font-size: 13px;">P</text><text y="358" x="17.647058823529413" text-anchor="middle" visibility="hidden" style="font-size: 13px;">S</text><text y="358" x="23.52941176470588" text-anchor="middle" visibility="hidden" style="font-size: 13px;">R</text><text y="358" x="29.411764705882355" text-anchor="middle" visibility="hidden" style="font-size: 13px;">T</text><text y="358" x="35.294117647058826" text-anchor="middle" visibility="hidden" style="font-size: 13px;">N</text><text y="358" x="41.1764705882353" text-anchor="middle" visibility="hidden" style="font-size: 13px;">L</text><text y="358" x="47.05882352941176" text-anchor="middle" visibility="hidden" style="font-size: 13px;">A</text><text y="358" x="52.94117647058823" text-anchor="middle" visibility="hidden" style="font-size: 13px;">T</text><text y="358" x="58.82352941176471" text-anchor="middle" visibility="hidden" style="font-size: 13px;">G</text><text y="358" x="64.70588235294117" text-anchor="middle" visibility="hidden" style="font-size: 13px;">I</text><text y="358" x="70.58823529411765" text-anchor="middle" visibility="hidden" style="font-size: 13px;">P</text><text y="358" x="76.47058823529412" text-anchor="middle" visibility="hidden" style="font-size: 13px;">S</text><text y="358" x="82.3529411764706" text-anchor="middle" visibility="hidden" style="font-size: 13px;">S</text><text y="358" x="88.23529411764706" text-anchor="middle" visibility="hidden" style="font-size: 13px;">K</text><text y="358" x="94.11764705882352" text-anchor="middle" visibility="hidden" style="font-size: 13px;">V</text><text y="358" x="100" text-anchor="middle" visibility="hidden" style="font-size: 13px;">K</text><text y="358" x="105.88235294117646" text-anchor="middle" visibility="hidden" style="font-size: 13px;">Y</text><text y="358" x="111.76470588235293" text-anchor="middle" visibility="hidden" style="font-size: 13px;">S</text><text y="358" x="117.64705882352942" text-anchor="middle" visibility="hidden" style="font-size: 13px;">R</text><text y="358" x="123.52941176470588" text-anchor="middle" visibility="hidden" style="font-size: 13px;">L</text><text y="358" x="129.41176470588235" text-anchor="middle" visibility="hidden" style="font-size: 13px;">S</text><text y="358" x="135.29411764705884" text-anchor="middle" visibility="hidden" style="font-size: 13px;">S</text><text y="358" x="141.1764705882353" text-anchor="middle" visibility="hidden" style="font-size: 13px;">T</text><text y="358" x="147.05882352941177" text-anchor="middle" visibility="hidden" style="font-size: 13px;">D</text><text y="358" x="152.94117647058823" text-anchor="middle" visibility="hidden" style="font-size: 13px;">D</text><text y="358" x="158.8235294117647" text-anchor="middle" visibility="hidden" style="font-size: 13px;">G</text><text y="358" x="164.7058823529412" text-anchor="middle" visibility="hidden" style="font-size: 13px;">Y</text><text y="358" x="170.58823529411765" text-anchor="middle" visibility="hidden" style="font-size: 13px;">I</text><text y="358" x="176.47058823529412" text-anchor="middle" visibility="hidden" style="font-size: 13px;">D</text><text y="358" x="182.3529411764706" text-anchor="middle" visibility="hidden" style="font-size: 13px;">L</text><text y="358" x="188.23529411764704" text-anchor="middle" visibility="hidden" style="font-size: 13px;">Q</text><text y="358" x="194.11764705882354" text-anchor="middle" visibility="hidden" style="font-size: 13px;">F</text><text y="358" x="200" text-anchor="middle" visibility="hidden" style="font-size: 13px;">K</text><text y="358" x="205.88235294117646" text-anchor="middle" visibility="hidden" style="font-size: 13px;">K</text><text y="358" x="211.76470588235293" text-anchor="middle" visibility="hidden" style="font-size: 13px;">T</text><text y="358" x="217.64705882352942" text-anchor="middle" visibility="hidden" style="font-size: 13px;">P</text><text y="358" x="223.52941176470586" text-anchor="middle" visibility="hidden" style="font-size: 13px;">P</text><text y="358" x="229.41176470588235" text-anchor="middle" visibility="hidden" style="font-size: 13px;">K</text><text y="358" x="235.29411764705884" text-anchor="middle" visibility="hidden" style="font-size: 13px;">I</text><text y="358" x="241.1764705882353" text-anchor="middle" visibility="hidden" style="font-size: 13px;">P</text><text y="358" x="247.05882352941177" text-anchor="middle" visibility="hidden" style="font-size: 13px;">Y</text><text y="358" x="252.94117647058823" text-anchor="middle" visibility="hidden" style="font-size: 13px;">K</text><text y="358" x="258.8235294117647" text-anchor="middle" visibility="hidden" style="font-size: 13px;">A</text><text y="358" x="264.70588235294116" text-anchor="middle" visibility="hidden" style="font-size: 13px;">I</text><text y="358" x="270.5882352941177" text-anchor="middle" visibility="hidden" style="font-size: 13px;">A</text><text y="358" x="276.4705882352941" text-anchor="middle" visibility="hidden" style="font-size: 13px;">L</text><text y="358" x="282.3529411764706" text-anchor="middle" visibility="hidden" style="font-size: 13px;">A</text><text y="358" x="288.2352941176471" text-anchor="middle" visibility="hidden" style="font-size: 13px;">T</text><text y="358" x="294.11764705882354" text-anchor="middle" visibility="hidden" style="font-size: 13px;">V</text><text y="358" x="300" text-anchor="middle" visibility="hidden" style="font-size: 13px;">L</text><text y="358" x="305.88235294117646" text-anchor="middle" visibility="hidden" style="font-size: 13px;">F</text><text y="358" x="311.764705882353" text-anchor="middle" visibility="hidden" style="font-size: 13px;">L</text><text y="358" x="317.6470588235294" text-anchor="middle" visibility="hidden" style="font-size: 13px;">I</text><text y="358" x="323.5294117647059" text-anchor="middle" visibility="hidden" style="font-size: 13px;">G</text><text y="358" x="329.4117647058824" text-anchor="middle" visibility="hidden" style="font-size: 13px;">A</text><text y="358" x="335.29411764705884" text-anchor="middle" visibility="hidden" style="font-size: 13px;">F</text><text y="358" x="341.1764705882353" text-anchor="middle" visibility="hidden" style="font-size: 13px;">L</text><text y="358" x="347.05882352941177" text-anchor="middle" visibility="hidden" style="font-size: 13px;">I</text><text y="358" x="352.94117647058823" text-anchor="middle" visibility="hidden" style="font-size: 13px;">I</text><text y="358" x="358.8235294117647" text-anchor="middle" visibility="hidden" style="font-size: 13px;">I</text><text y="358" x="364.7058823529412" text-anchor="middle" visibility="hidden" style="font-size: 13px;">G</text><text y="358" x="370.5882352941176" text-anchor="middle" visibility="hidden" style="font-size: 13px;">S</text><text y="358" x="376.4705882352941" text-anchor="middle" visibility="hidden" style="font-size: 13px;">L</text><text y="358" x="382.35294117647055" text-anchor="middle" visibility="hidden" style="font-size: 13px;">L</text><text y="358" x="388.2352941176471" text-anchor="middle" visibility="hidden" style="font-size: 13px;">L</text><text y="358" x="394.11764705882354" text-anchor="middle" visibility="hidden" style="font-size: 13px;">S</text><text y="358" x="400" text-anchor="middle" visibility="hidden" style="font-size: 13px;">G</text><text y="358" x="405.8823529411765" text-anchor="middle" visibility="hidden" style="font-size: 13px;">Y</text><text y="358" x="411.7647058823529" text-anchor="middle" visibility="hidden" style="font-size: 13px;">I</text><text y="358" x="417.6470588235294" text-anchor="middle" visibility="hidden" style="font-size: 13px;">S</text><text y="358" x="423.52941176470586" text-anchor="middle" visibility="hidden" style="font-size: 13px;">K</text><text y="358" x="429.4117647058824" text-anchor="middle" visibility="hidden" style="font-size: 13px;">G</text><text y="358" x="435.29411764705884" text-anchor="middle" visibility="hidden" style="font-size: 13px;">G</text><text y="358" x="441.1764705882353" text-anchor="middle" visibility="hidden" style="font-size: 13px;">A</text><text y="358" x="447.0588235294117" text-anchor="middle" visibility="hidden" style="font-size: 13px;">D</text><text y="358" x="452.94117647058823" text-anchor="middle" visibility="hidden" style="font-size: 13px;">R</text><text y="358" x="458.8235294117647" text-anchor="middle" visibility="hidden" style="font-size: 13px;">A</text><text y="358" x="464.70588235294116" text-anchor="middle" visibility="hidden" style="font-size: 13px;">V</text><text y="358" x="470.5882352941177" text-anchor="middle" visibility="hidden" style="font-size: 13px;">P</text><text y="358" x="476.47058823529414" text-anchor="middle" visibility="hidden" style="font-size: 13px;">V</text><text y="358" x="482.3529411764706" text-anchor="middle" visibility="hidden" style="font-size: 13px;">L</text><text y="358" x="488.235294117647" text-anchor="middle" visibility="hidden" style="font-size: 13px;">I</text><text y="358" x="494.11764705882354" text-anchor="middle" visibility="hidden" style="font-size: 13px;">I</text><text y="358" x="500" text-anchor="middle" visibility="hidden" style="font-size: 13px;">G</text><text y="358" x="505.88235294117646" text-anchor="middle" visibility="hidden" style="font-size: 13px;">I</text><text y="358" x="511.7647058823529" text-anchor="middle" visibility="hidden" style="font-size: 13px;">L</text><text y="358" x="517.6470588235294" text-anchor="middle" visibility="hidden" style="font-size: 13px;">V</text><text y="358" x="523.5294117647059" text-anchor="middle" visibility="hidden" style="font-size: 13px;">F</text><text y="358" x="529.4117647058823" text-anchor="middle" visibility="hidden" style="font-size: 13px;">L</text><text y="358" x="535.2941176470588" text-anchor="middle" visibility="hidden" style="font-size: 13px;">P</text><text y="358" x="541.1764705882354" text-anchor="middle" visibility="hidden" style="font-size: 13px;">G</text><text y="358" x="547.0588235294117" text-anchor="middle" visibility="hidden" style="font-size: 13px;">F</text><text y="358" x="552.9411764705882" text-anchor="middle" visibility="hidden" style="font-size: 13px;">Y</text><text y="358" x="558.8235294117648" text-anchor="middle" visibility="hidden" style="font-size: 13px;">H</text><text y="358" x="564.7058823529412" text-anchor="middle" visibility="hidden" style="font-size: 13px;">L</text><text y="358" x="570.5882352941177" text-anchor="middle" visibility="hidden" style="font-size: 13px;">R</text><text y="358" x="576.4705882352941" text-anchor="middle" visibility="hidden" style="font-size: 13px;">I</text><text y="358" x="582.3529411764706" text-anchor="middle" visibility="hidden" style="font-size: 13px;">A</text><text y="358" x="588.2352941176471" text-anchor="middle" visibility="hidden" style="font-size: 13px;">Y</text><text y="358" x="594.1176470588235" text-anchor="middle" visibility="hidden" style="font-size: 13px;">Y</text><text y="358" x="600" text-anchor="middle" visibility="hidden" style="font-size: 13px;">A</text><text y="358" x="605.8823529411765" text-anchor="middle" visibility="hidden" style="font-size: 13px;">S</text><text y="358" x="611.7647058823529" text-anchor="middle" visibility="hidden" style="font-size: 13px;">K</text><text y="358" x="617.6470588235294" text-anchor="middle" visibility="hidden" style="font-size: 13px;">G</text><text y="358" x="623.529411764706" text-anchor="middle" visibility="hidden" style="font-size: 13px;">Y</text><text y="358" x="629.4117647058823" text-anchor="middle" visibility="hidden" style="font-size: 13px;">R</text><text y="358" x="635.2941176470588" text-anchor="middle" visibility="hidden" style="font-size: 13px;">G</text><text y="358" x="641.1764705882352" text-anchor="middle" visibility="hidden" style="font-size: 13px;">Y</text><text y="358" x="647.0588235294118" text-anchor="middle" visibility="hidden" style="font-size: 13px;">S</text><text y="358" x="652.9411764705883" text-anchor="middle" visibility="hidden" style="font-size: 13px;">Y</text><text y="358" x="658.8235294117648" text-anchor="middle" visibility="hidden" style="font-size: 13px;">D</text><text y="358" x="664.7058823529411" text-anchor="middle" visibility="hidden" style="font-size: 13px;">D</text><text y="358" x="670.5882352941177" text-anchor="middle" visibility="hidden" style="font-size: 13px;">I</text><text y="358" x="676.4705882352941" text-anchor="middle" visibility="hidden" style="font-size: 13px;">P</text><text y="358" x="682.3529411764706" text-anchor="middle" visibility="hidden" style="font-size: 13px;">D</text><text y="358" x="688.2352941176471" text-anchor="middle" visibility="hidden" style="font-size: 13px;">F</text><text y="358" x="694.1176470588235" text-anchor="middle" visibility="hidden" style="font-size: 13px;">D</text><text y="358" x="700" text-anchor="middle" visibility="hidden" style="font-size: 13px;">D</text></g></g></svg><g class="xAxis" transform="translate(0,360)" fill="none" font-size="10" font-family="sans-serif" text-anchor="middle"><path class="domain" stroke="#000" d="M0.5,6V0.5H700.5V6"></path><g class="tick" opacity="1" transform="translate(53.44117647058823,0)"><line stroke="#000" y2="6"></line><text fill="#000" y="9" dy="0.71em">10</text></g><g class="tick" opacity="1" transform="translate(112.26470588235293,0)"><line stroke="#000" y2="6"></line><text fill="#000" y="9" dy="0.71em">20</text></g><g class="tick" opacity="1" transform="translate(171.08823529411765,0)"><line stroke="#000" y2="6"></line><text fill="#000" y="9" dy="0.71em">30</text></g><g class="tick" opacity="1" transform="translate(229.91176470588235,0)"><line stroke="#000" y2="6"></line><text fill="#000" y="9" dy="0.71em">40</text></g><g class="tick" opacity="1" transform="translate(288.7352941176471,0)"><line stroke="#000" y2="6"></line><text fill="#000" y="9" dy="0.71em">50</text></g><g class="tick" opacity="1" transform="translate(347.55882352941177,0)"><line stroke="#000" y2="6"></line><text fill="#000" y="9" dy="0.71em">60</text></g><g class="tick" opacity="1" transform="translate(406.3823529411765,0)"><line stroke="#000" y2="6"></line><text fill="#000" y="9" dy="0.71em">70</text></g><g class="tick" opacity="1" transform="translate(465.20588235294116,0)"><line stroke="#000" y2="6"></line><text fill="#000" y="9" dy="0.71em">80</text></g><g class="tick" opacity="1" transform="translate(524.0294117647059,0)"><line stroke="#000" y2="6"></line><text fill="#000" y="9" dy="0.71em">90</text></g><g class="tick" opacity="1" transform="translate(582.8529411764706,0)"><line stroke="#000" y2="6"></line><text fill="#000" y="9" dy="0.71em">100</text></g><g class="tick" opacity="1" transform="translate(641.6764705882352,0)"><line stroke="#000" y2="6"></line><text fill="#000" y="9" dy="0.71em">110</text></g><g class="tick" opacity="1" transform="translate(700.5,0)"><line stroke="#000" y2="6"></line><text fill="#000" y="9" dy="0.71em">120</text></g></g><text class="x label" text-anchor="end" x="700" y="390" style="font-size: 13px; font-family: Arial;">Residue number</text><g class="yAxis" fill="none" font-size="10" font-family="sans-serif" text-anchor="end"><path class="domain" stroke="#000" d="M-6,360.5H0.5V0.5H-6"></path><g class="tick" opacity="1" transform="translate(0,351.57438016528926)"><line stroke="#000" x2="-6"></line><text fill="#000" x="-9" dy="0.32em"></text></g><g class="tick" opacity="1" transform="translate(0,327.77272727272725)"><line stroke="#000" x2="-6"></line><text fill="#000" x="-9" dy="0.32em">0</text></g><g class="tick" opacity="1" transform="translate(0,303.9710743801653)"><line stroke="#000" x2="-6"></line><text fill="#000" x="-9" dy="0.32em">20</text></g><g class="tick" opacity="1" transform="translate(0,280.1694214876033)"><line stroke="#000" x2="-6"></line><text fill="#000" x="-9" dy="0.32em">40</text></g><g class="tick" opacity="1" transform="translate(0,256.3677685950413)"><line stroke="#000" x2="-6"></line><text fill="#000" x="-9" dy="0.32em">60</text></g><g class="tick" opacity="1" transform="translate(0,232.56611570247935)"><line stroke="#000" x2="-6"></line><text fill="#000" x="-9" dy="0.32em">80</text></g><g class="tick" opacity="1" transform="translate(0,208.76446280991735)"><line stroke="#000" x2="-6"></line><text fill="#000" x="-9" dy="0.32em">100</text></g><g class="tick" opacity="1" transform="translate(0,184.96280991735537)"><line stroke="#000" x2="-6"></line><text fill="#000" x="-9" dy="0.32em">120</text></g><g class="tick" opacity="1" transform="translate(0,161.16115702479337)"><line stroke="#000" x2="-6"></line><text fill="#000" x="-9" dy="0.32em">140</text></g><g class="tick" opacity="1" transform="translate(0,137.3595041322314)"><line stroke="#000" x2="-6"></line><text fill="#000" x="-9" dy="0.32em">160</text></g><g class="tick" opacity="1" transform="translate(0,113.55785123966942)"><line stroke="#000" x2="-6"></line><text fill="#000" x="-9" dy="0.32em">180</text></g><g class="tick" opacity="1" transform="translate(0,89.75619834710744)"><line stroke="#000" x2="-6"></line><text fill="#000" x="-9" dy="0.32em">200</text></g><g class="tick" opacity="1" transform="translate(0,65.95454545454544)"><line stroke="#000" x2="-6"></line><text fill="#000" x="-9" dy="0.32em">220</text></g><g class="tick" opacity="1" transform="translate(0,42.152892561983435)"><line stroke="#000" x2="-6"></line><text fill="#000" x="-9" dy="0.32em">240</text></g><g class="tick" opacity="1" transform="translate(0,18.35123966942149)"><line stroke="#000" x2="-6"></line><text fill="#000" x="-9" dy="0.32em">260</text></g></g><text class="y label" text-anchor="middle" y="-50" x="-180" dy="0.8em" transform="rotate(-90)" style="font-size: 13px; font-family: Arial;">Total number of references</text><g class="axisRed" fill="none" font-size="10" font-family="sans-serif" text-anchor="start" visibility="hidden" transform="translate(700, 0)"><path class="domain" stroke="#000" d="M6,360.5H0.5V0.5H6"></path><g class="tick" opacity="1" transform="translate(0,327.77272727272725)"><line stroke="#000" x2="6"></line><text fill="#000" x="9" dy="0.32em">0</text></g><g class="tick" opacity="1" transform="translate(0,278.18595041322317)"><line stroke="#000" x2="6"></line><text fill="#000" x="9" dy="0.32em">0.5</text></g><g class="tick" opacity="1" transform="translate(0,228.599173553719)"><line stroke="#000" x2="6"></line><text fill="#000" x="9" dy="0.32em">1</text></g><g class="tick" opacity="1" transform="translate(0,179.01239669421489)"><line stroke="#000" x2="6"></line><text fill="#000" x="9" dy="0.32em">1.5</text></g><g class="tick" opacity="1" transform="translate(0,129.42561983471072)"><line stroke="#000" x2="6"></line><text fill="#000" x="9" dy="0.32em">2</text></g><g class="tick" opacity="1" transform="translate(0,79.8388429752066)"><line stroke="#000" x2="6"></line><text fill="#000" x="9" dy="0.32em">2.5</text></g><g class="tick" opacity="1" transform="translate(0,30.252066115702462)"><line stroke="#000" x2="6"></line><text fill="#000" x="9" dy="0.32em">3</text></g><text text-anchor="start" dx="5.2em" dy="-2.6em" transform="rotate(90)" visibility="hidden" style="font-size: 12px; font-family: Arial; fill: #d7301f;">Number of tumor samples</text></g><g class="axisPurple" fill="none" font-size="10" font-family="sans-serif" text-anchor="start" visibility="hidden"><path class="domain" stroke="#000" d="M6,360.5H0.5V0.5H6"></path><g class="tick" opacity="1" transform="translate(0,357.52479338842977)"><line stroke="#000" x2="6"></line><text fill="#000" x="9" dy="0.32em"></text></g><g class="tick" opacity="1" transform="translate(0,327.77272727272725)"><line stroke="#000" x2="6"></line><text fill="#000" x="9" dy="0.32em">0</text></g><g class="tick" opacity="1" transform="translate(0,298.0206611570248)"><line stroke="#000" x2="6"></line><text fill="#000" x="9" dy="0.32em">0.1</text></g><g class="tick" opacity="1" transform="translate(0,268.2685950413223)"><line stroke="#000" x2="6"></line><text fill="#000" x="9" dy="0.32em">0.2</text></g><g class="tick" opacity="1" transform="translate(0,238.51652892561984)"><line stroke="#000" x2="6"></line><text fill="#000" x="9" dy="0.32em">0.3</text></g><g class="tick" opacity="1" transform="translate(0,208.76446280991738)"><line stroke="#000" x2="6"></line><text fill="#000" x="9" dy="0.32em">0.4</text></g><g class="tick" opacity="1" transform="translate(0,179.0123966942149)"><line stroke="#000" x2="6"></line><text fill="#000" x="9" dy="0.32em">0.5</text></g><g class="tick" opacity="1" transform="translate(0,149.26033057851242)"><line stroke="#000" x2="6"></line><text fill="#000" x="9" dy="0.32em">0.6</text></g><g class="tick" opacity="1" transform="translate(0,119.50826446280996)"><line stroke="#000" x2="6"></line><text fill="#000" x="9" dy="0.32em">0.7</text></g><g class="tick" opacity="1" transform="translate(0,89.75619834710744)"><line stroke="#000" x2="6"></line><text fill="#000" x="9" dy="0.32em">0.8</text></g><g class="tick" opacity="1" transform="translate(0,60.00413223140498)"><line stroke="#000" x2="6"></line><text fill="#000" x="9" dy="0.32em">0.9</text></g><g class="tick" opacity="1" transform="translate(0,30.25206611570252)"><line stroke="#000" x2="6"></line><text fill="#000" x="9" dy="0.32em">1</text></g><g class="tick" opacity="1" transform="translate(0,0.5)"><line stroke="#000" x2="6"></line><text fill="#000" x="9" dy="0.32em">1.1</text></g><text text-anchor="start" x="10" y="10" visibility="hidden" style="font-size: 12px; font-family: Arial; fill: #807dba;">No disease causing germline SNPs known!</text></g><circle cx="636" cy="15" r="10" class="compassNav" style="fill: #ffffff; stroke: #666666; stroke-width: 1px;"></circle><path d="M440.935 12.574l3.966 82.766C399.416 41.904 331.674 8 256 8 134.813 8 33.933 94.924 12.296 209.824 10.908 217.193 16.604 224 24.103 224h49.084c5.57 0 10.377-3.842 11.676-9.259C103.407 137.408 172.931 80 256 80c60.893 0 114.512 30.856 146.104 77.801l-101.53-4.865c-6.845-.328-12.574 5.133-12.574 11.986v47.411c0 6.627 5.373 12 12 12h200.333c6.627 0 12-5.373 12-12V12c0-6.627-5.373-12-12-12h-47.411c-6.853 0-12.315 5.729-11.987 12.574zM256 432c-60.895 0-114.517-30.858-146.109-77.805l101.868 4.871c6.845.327 12.573-5.134 12.573-11.986v-47.412c0-6.627-5.373-12-12-12H12c-6.627 0-12 5.373-12 12V500c0 6.627 5.373 12 12 12h47.385c6.863 0 12.328-5.745 11.985-12.599l-4.129-82.575C112.725 470.166 180.405 504 256 504c121.187 0 222.067-86.924 243.704-201.824 1.388-7.369-4.308-14.176-11.807-14.176h-49.084c-5.57 0-10.377 3.842-11.676 9.259C408.593 374.592 339.069 432 256 432z" class="compassNav" transform="translate(631, 10) scale(0.02)" style="fill: #666666; stroke: #666666; stroke-width: 1px;"></path><circle cx="658" cy="15" r="10" class="compassNav" style="fill: #ffffff; stroke: #666666; stroke-width: 1px;"></circle><line class="compassNav" stroke-width="2" stroke="#666666" x1="654" y1="15" x2="662" y2="15"></line><line class="compassNav" stroke-width="2" stroke="#666666" x1="658" y1="11" x2="658" y2="19"></line><circle cx="614" cy="15" r="10" class="compassNav" style="fill: #ffffff; stroke: #666666; stroke-width: 1px;"></circle><line class="compassNav" stroke-width="2" stroke="#666666" x1="610" y1="15" x2="618" y2="15"></line><path d="M582 14 l20 -12 a100,40 0 0,0 0,24z" class="compassNav" style="fill: #ffffff; stroke: #666666; stroke-width: 1px;"></path><path d="M690 14 l-20 -12 a100,40 0 0,1 0,24z" class="compassNav" style="fill: #ffffff; stroke: #666666; stroke-width: 1px;"></path><path d="M216 0h80c13.3 0 24 10.7 24 24v168h87.7c17.8 0 26.7 21.5 14.1 34.1L269.7 378.3c-7.5 7.5-19.8 7.5-27.3 0L90.1 226.1c-12.6-12.6-3.7-34.1 14.1-34.1H192V24c0-13.3 10.7-24 24-24zm296 376v112c0 13.3-10.7 24-24 24H24c-13.3 0-24-10.7-24-24V376c0-13.3 10.7-24 24-24h146.7l49 49c20.1 20.1 52.5 20.1 72.6 0l49-49H488c13.3 0 24 10.7 24 24zm-124 88c0-11-9-20-20-20s-20 9-20 20 9 20 20 20 20-9 20-20zm64 0c0-11-9-20-20-20s-20 9-20 20 9 20 20 20 20-9 20-20z" class="compassNav" transform="translate(552,0) scale(0.05)" style="fill: #336699; stroke: #336699; stroke-width: 1px; cursor: pointer;"></path></g></svg>