<svg width="800" height="400" style="background-color: white;"><g transform="translate(50,0)"><svg width="700" height="360"><g style="-webkit-tap-highlight-color: rgba(0, 0, 0, 0);"><rect width="700" height="360" style="fill: #ffffff;"></rect><g id="lines"><line class="line" stroke-width="1" stroke="#d7301f" x1="-238.04713804713805" y1="333" x2="-238.04713804713805" y2="360" visibility="hidden" style="stroke-dasharray: 3px, 3px;"></line></g><g><rect x="-243.04713804713805" y="355" width="10" height="10" visibility="hidden" style="fill: #ffffff; stroke: #d7301f;"></rect></g><g id="lines"><line class="line" stroke-width="1" stroke="#6a51a3" x1="-238.04713804713805" y1="333" x2="-238.04713804713805" y2="327.27272727272725" visibility="hidden" style="stroke-dasharray: 3px, 3px;"></line></g><g><rect x="-243.04713804713805" y="322.27272727272725" width="10" height="10" visibility="hidden" style="fill: #ffffff; stroke: #6a51a3;"></rect></g><g id="lines"><line class="line" stroke-width="1" stroke="#666666" x1="306.3973063973064" y1="333" x2="306.3973063973064" y2="325.562838415503"></line><line class="line" stroke-width="1" stroke="#666666" x1="308.7542087542088" y1="333" x2="308.7542087542088" y2="322.1430607010544"></line><line class="line" stroke-width="1" stroke="#666666" x1="367.6767676767677" y1="333" x2="367.6767676767677" y2="323.85294955827874"></line><line class="line" stroke-width="1" stroke="#666666" x1="374.74747474747477" y1="333" x2="374.74747474747477" y2="29.75206611570252"></line><line class="line" stroke-width="1" stroke="#666666" x1="379.46127946127945" y1="333" x2="379.46127946127945" y2="325.562838415503"></line><line class="line" stroke-width="1" stroke="#666666" x1="379.46127946127945" y1="333" x2="379.46127946127945" y2="325.562838415503"></line><line class="line" stroke-width="1" stroke="#666666" x1="575.0841750841751" y1="333" x2="575.0841750841751" y2="325.562838415503"></line><line class="line" stroke-width="1" stroke="#666666" x1="655.2188552188552" y1="333" x2="655.2188552188552" y2="320.43317184383017"></line><line class="line" stroke-width="1" stroke="#666666" x1="671.7171717171717" y1="333" x2="671.7171717171717" y2="323.85294955827874"></line><line class="line" stroke-width="1" stroke="#666666" x1="676.4309764309764" y1="333" x2="676.4309764309764" y2="325.562838415503"></line><line class="line" stroke-width="1" stroke="#666666" x1="685.8585858585858" y1="333" x2="685.8585858585858" y2="325.562838415503"></line><line class="line" stroke-width="1" stroke="#666666" x1="695.2861952861953" y1="333" x2="695.2861952861953" y2="323.85294955827874"></line></g><g id="circles"><circle r="4" cx="306.3973063973064" cy="325.562838415503" style="fill: #5aae61; stroke: #666666; stroke-width: 1px;"></circle><circle r="4" cx="308.7542087542088" cy="322.1430607010544" style="fill: #4393c3; stroke: #666666; stroke-width: 1px;"></circle><circle r="4" cx="367.6767676767677" cy="323.85294955827874" style="fill: #4393c3; stroke: #666666; stroke-width: 1px;"></circle><circle r="4" cx="374.74747474747477" cy="29.75206611570252" style="fill: #4393c3; stroke: #666666; stroke-width: 1px;"></circle><circle r="4" cx="379.46127946127945" cy="325.562838415503" style="fill: #5aae61; stroke: #666666; stroke-width: 1px;"></circle><circle r="4" cx="379.46127946127945" cy="325.562838415503" style="fill: #bf812d; stroke: #666666; stroke-width: 1px;"></circle><circle r="4" cx="575.0841750841751" cy="325.562838415503" style="fill: #666666; stroke: #666666; stroke-width: 1px;"></circle><circle r="4" cx="655.2188552188552" cy="320.43317184383017" style="fill: #5aae61; stroke: #666666; stroke-width: 1px;"></circle><circle r="4" cx="671.7171717171717" cy="323.85294955827874" style="fill: #5aae61; stroke: #666666; stroke-width: 1px;"></circle><circle r="4" cx="676.4309764309764" cy="325.562838415503" style="fill: #4393c3; stroke: #666666; stroke-width: 1px;"></circle><circle r="4" cx="685.8585858585858" cy="325.562838415503" style="fill: #4393c3; stroke: #666666; stroke-width: 1px;"></circle><circle r="4" cx="695.2861952861953" cy="323.85294955827874" style="fill: #4393c3; stroke: #666666; stroke-width: 1px;"></circle></g><g><rect x="0" y="333" width="700" height="12" style="fill: #ffffff; stroke-width: 1px; stroke: #666666;"></rect><rect x="268.68686868686865" y="333" width="351.1784511784512" height="12" style="fill: #aec7e8; stroke-width: 1px; stroke: #666666;"></rect></g><g><a target="_blank" xlink:href="http://pfam.xfam.org/family/"><text y="343" x="350" text-anchor="middle" style="color: rgb(102, 102, 102); font-weight: normal; font-size: 12px; font-family: Arial; cursor: pointer;"></text></a><a target="_blank" xlink:href="http://pfam.xfam.org/family/Isochorismatase"><text y="343" x="444.2760942760942" text-anchor="middle" style="color: rgb(102, 102, 102); font-weight: normal; font-size: 12px; font-family: Arial; cursor: pointer;">Isochorismatase</text></a></g><g><text y="358" x="0" text-anchor="middle" visibility="hidden" style="font-size: 13px;">M</text><text y="358" x="2.356902356902357" text-anchor="middle" visibility="hidden" style="font-size: 13px;">A</text><text y="358" x="4.713804713804714" text-anchor="middle" visibility="hidden" style="font-size: 13px;">A</text><text y="358" x="7.070707070707071" text-anchor="middle" visibility="hidden" style="font-size: 13px;">A</text><text y="358" x="9.427609427609427" text-anchor="middle" visibility="hidden" style="font-size: 13px;">E</text><text y="358" x="11.784511784511784" text-anchor="middle" visibility="hidden" style="font-size: 13px;">P</text><text y="358" x="14.141414141414142" text-anchor="middle" visibility="hidden" style="font-size: 13px;">A</text><text y="358" x="16.4983164983165" text-anchor="middle" visibility="hidden" style="font-size: 13px;">V</text><text y="358" x="18.855218855218855" text-anchor="middle" visibility="hidden" style="font-size: 13px;">L</text><text y="358" x="21.21212121212121" text-anchor="middle" visibility="hidden" style="font-size: 13px;">A</text><text y="358" x="23.569023569023567" text-anchor="middle" visibility="hidden" style="font-size: 13px;">L</text><text y="358" x="25.925925925925924" text-anchor="middle" visibility="hidden" style="font-size: 13px;">P</text><text y="358" x="28.282828282828284" text-anchor="middle" visibility="hidden" style="font-size: 13px;">N</text><text y="358" x="30.63973063973064" text-anchor="middle" visibility="hidden" style="font-size: 13px;">S</text><text y="358" x="32.996632996633" text-anchor="middle" visibility="hidden" style="font-size: 13px;">G</text><text y="358" x="35.35353535353535" text-anchor="middle" visibility="hidden" style="font-size: 13px;">A</text><text y="358" x="37.71043771043771" text-anchor="middle" visibility="hidden" style="font-size: 13px;">G</text><text y="358" x="40.06734006734007" text-anchor="middle" visibility="hidden" style="font-size: 13px;">G</text><text y="358" x="42.42424242424242" text-anchor="middle" visibility="hidden" style="font-size: 13px;">A</text><text y="358" x="44.78114478114478" text-anchor="middle" visibility="hidden" style="font-size: 13px;">G</text><text y="358" x="47.138047138047135" text-anchor="middle" visibility="hidden" style="font-size: 13px;">A</text><text y="358" x="49.494949494949495" text-anchor="middle" visibility="hidden" style="font-size: 13px;">P</text><text y="358" x="51.85185185185185" text-anchor="middle" visibility="hidden" style="font-size: 13px;">S</text><text y="358" x="54.20875420875421" text-anchor="middle" visibility="hidden" style="font-size: 13px;">G</text><text y="358" x="56.56565656565657" text-anchor="middle" visibility="hidden" style="font-size: 13px;">T</text><text y="358" x="58.92255892255893" text-anchor="middle" visibility="hidden" style="font-size: 13px;">V</text><text y="358" x="61.27946127946128" text-anchor="middle" visibility="hidden" style="font-size: 13px;">P</text><text y="358" x="63.63636363636364" text-anchor="middle" visibility="hidden" style="font-size: 13px;">V</text><text y="358" x="65.993265993266" text-anchor="middle" visibility="hidden" style="font-size: 13px;">L</text><text y="358" x="68.35016835016835" text-anchor="middle" visibility="hidden" style="font-size: 13px;">F</text><text y="358" x="70.7070707070707" text-anchor="middle" visibility="hidden" style="font-size: 13px;">C</text><text y="358" x="73.06397306397307" text-anchor="middle" visibility="hidden" style="font-size: 13px;">F</text><text y="358" x="75.42087542087542" text-anchor="middle" visibility="hidden" style="font-size: 13px;">S</text><text y="358" x="77.77777777777777" text-anchor="middle" visibility="hidden" style="font-size: 13px;">V</text><text y="358" x="80.13468013468014" text-anchor="middle" visibility="hidden" style="font-size: 13px;">F</text><text y="358" x="82.49158249158249" text-anchor="middle" visibility="hidden" style="font-size: 13px;">A</text><text y="358" x="84.84848484848484" text-anchor="middle" visibility="hidden" style="font-size: 13px;">R</text><text y="358" x="87.20538720538721" text-anchor="middle" visibility="hidden" style="font-size: 13px;">P</text><text y="358" x="89.56228956228956" text-anchor="middle" visibility="hidden" style="font-size: 13px;">S</text><text y="358" x="91.91919191919193" text-anchor="middle" visibility="hidden" style="font-size: 13px;">S</text><text y="358" x="94.27609427609427" text-anchor="middle" visibility="hidden" style="font-size: 13px;">V</text><text y="358" x="96.63299663299664" text-anchor="middle" visibility="hidden" style="font-size: 13px;">P</text><text y="358" x="98.98989898989899" text-anchor="middle" visibility="hidden" style="font-size: 13px;">H</text><text y="358" x="101.34680134680136" text-anchor="middle" visibility="hidden" style="font-size: 13px;">G</text><text y="358" x="103.7037037037037" text-anchor="middle" visibility="hidden" style="font-size: 13px;">A</text><text y="358" x="106.06060606060606" text-anchor="middle" visibility="hidden" style="font-size: 13px;">G</text><text y="358" x="108.41750841750842" text-anchor="middle" visibility="hidden" style="font-size: 13px;">Y</text><text y="358" x="110.77441077441078" text-anchor="middle" visibility="hidden" style="font-size: 13px;">E</text><text y="358" x="113.13131313131314" text-anchor="middle" visibility="hidden" style="font-size: 13px;">L</text><text y="358" x="115.48821548821549" text-anchor="middle" visibility="hidden" style="font-size: 13px;">L</text><text y="358" x="117.84511784511785" text-anchor="middle" visibility="hidden" style="font-size: 13px;">I</text><text y="358" x="120.2020202020202" text-anchor="middle" visibility="hidden" style="font-size: 13px;">Q</text><text y="358" x="122.55892255892256" text-anchor="middle" visibility="hidden" style="font-size: 13px;">K</text><text y="358" x="124.91582491582491" text-anchor="middle" visibility="hidden" style="font-size: 13px;">F</text><text y="358" x="127.27272727272728" text-anchor="middle" visibility="hidden" style="font-size: 13px;">L</text><text y="358" x="129.62962962962962" text-anchor="middle" visibility="hidden" style="font-size: 13px;">S</text><text y="358" x="131.986531986532" text-anchor="middle" visibility="hidden" style="font-size: 13px;">L</text><text y="358" x="134.34343434343432" text-anchor="middle" visibility="hidden" style="font-size: 13px;">Y</text><text y="358" x="136.7003367003367" text-anchor="middle" visibility="hidden" style="font-size: 13px;">G</text><text y="358" x="139.05723905723906" text-anchor="middle" visibility="hidden" style="font-size: 13px;">D</text><text y="358" x="141.4141414141414" text-anchor="middle" visibility="hidden" style="font-size: 13px;">Q</text><text y="358" x="143.77104377104376" text-anchor="middle" visibility="hidden" style="font-size: 13px;">I</text><text y="358" x="146.12794612794613" text-anchor="middle" visibility="hidden" style="font-size: 13px;">D</text><text y="358" x="148.4848484848485" text-anchor="middle" visibility="hidden" style="font-size: 13px;">M</text><text y="358" x="150.84175084175084" text-anchor="middle" visibility="hidden" style="font-size: 13px;">H</text><text y="358" x="153.1986531986532" text-anchor="middle" visibility="hidden" style="font-size: 13px;">R</text><text y="358" x="155.55555555555554" text-anchor="middle" visibility="hidden" style="font-size: 13px;">K</text><text y="358" x="157.9124579124579" text-anchor="middle" visibility="hidden" style="font-size: 13px;">F</text><text y="358" x="160.26936026936028" text-anchor="middle" visibility="hidden" style="font-size: 13px;">V</text><text y="358" x="162.62626262626262" text-anchor="middle" visibility="hidden" style="font-size: 13px;">V</text><text y="358" x="164.98316498316498" text-anchor="middle" visibility="hidden" style="font-size: 13px;">Q</text><text y="358" x="167.34006734006735" text-anchor="middle" visibility="hidden" style="font-size: 13px;">L</text><text y="358" x="169.6969696969697" text-anchor="middle" visibility="hidden" style="font-size: 13px;">F</text><text y="358" x="172.05387205387206" text-anchor="middle" visibility="hidden" style="font-size: 13px;">A</text><text y="358" x="174.41077441077442" text-anchor="middle" visibility="hidden" style="font-size: 13px;">E</text><text y="358" x="176.7676767676768" text-anchor="middle" visibility="hidden" style="font-size: 13px;">E</text><text y="358" x="179.12457912457913" text-anchor="middle" visibility="hidden" style="font-size: 13px;">W</text><text y="358" x="181.48148148148147" text-anchor="middle" visibility="hidden" style="font-size: 13px;">G</text><text y="358" x="183.83838383838386" text-anchor="middle" visibility="hidden" style="font-size: 13px;">Q</text><text y="358" x="186.1952861952862" text-anchor="middle" visibility="hidden" style="font-size: 13px;">Y</text><text y="358" x="188.55218855218854" text-anchor="middle" visibility="hidden" style="font-size: 13px;">V</text><text y="358" x="190.9090909090909" text-anchor="middle" visibility="hidden" style="font-size: 13px;">D</text><text y="358" x="193.26599326599327" text-anchor="middle" visibility="hidden" style="font-size: 13px;">L</text><text y="358" x="195.6228956228956" text-anchor="middle" visibility="hidden" style="font-size: 13px;">P</text><text y="358" x="197.97979797979798" text-anchor="middle" visibility="hidden" style="font-size: 13px;">K</text><text y="358" x="200.33670033670032" text-anchor="middle" visibility="hidden" style="font-size: 13px;">G</text><text y="358" x="202.6936026936027" text-anchor="middle" visibility="hidden" style="font-size: 13px;">F</text><text y="358" x="205.05050505050505" text-anchor="middle" visibility="hidden" style="font-size: 13px;">A</text><text y="358" x="207.4074074074074" text-anchor="middle" visibility="hidden" style="font-size: 13px;">V</text><text y="358" x="209.7643097643098" text-anchor="middle" visibility="hidden" style="font-size: 13px;">S</text><text y="358" x="212.12121212121212" text-anchor="middle" visibility="hidden" style="font-size: 13px;">E</text><text y="358" x="214.47811447811446" text-anchor="middle" visibility="hidden" style="font-size: 13px;">R</text><text y="358" x="216.83501683501683" text-anchor="middle" visibility="hidden" style="font-size: 13px;">C</text><text y="358" x="219.1919191919192" text-anchor="middle" visibility="hidden" style="font-size: 13px;">K</text><text y="358" x="221.54882154882156" text-anchor="middle" visibility="hidden" style="font-size: 13px;">V</text><text y="358" x="223.9057239057239" text-anchor="middle" visibility="hidden" style="font-size: 13px;">R</text><text y="358" x="226.26262626262627" text-anchor="middle" visibility="hidden" style="font-size: 13px;">L</text><text y="358" x="228.61952861952864" text-anchor="middle" visibility="hidden" style="font-size: 13px;">V</text><text y="358" x="230.97643097643098" text-anchor="middle" visibility="hidden" style="font-size: 13px;">P</text><text y="358" x="233.33333333333331" text-anchor="middle" visibility="hidden" style="font-size: 13px;">L</text><text y="358" x="235.6902356902357" text-anchor="middle" visibility="hidden" style="font-size: 13px;">Q</text><text y="358" x="238.04713804713805" text-anchor="middle" visibility="hidden" style="font-size: 13px;">I</text><text y="358" x="240.4040404040404" text-anchor="middle" visibility="hidden" style="font-size: 13px;">Q</text><text y="358" x="242.76094276094275" text-anchor="middle" visibility="hidden" style="font-size: 13px;">L</text><text y="358" x="245.11784511784512" text-anchor="middle" visibility="hidden" style="font-size: 13px;">T</text><text y="358" x="247.4747474747475" text-anchor="middle" visibility="hidden" style="font-size: 13px;">T</text><text y="358" x="249.83164983164983" text-anchor="middle" visibility="hidden" style="font-size: 13px;">L</text><text y="358" x="252.1885521885522" text-anchor="middle" visibility="hidden" style="font-size: 13px;">G</text><text y="358" x="254.54545454545456" text-anchor="middle" visibility="hidden" style="font-size: 13px;">N</text><text y="358" x="256.90235690235687" text-anchor="middle" visibility="hidden" style="font-size: 13px;">L</text><text y="358" x="259.25925925925924" text-anchor="middle" visibility="hidden" style="font-size: 13px;">T</text><text y="358" x="261.6161616161616" text-anchor="middle" visibility="hidden" style="font-size: 13px;">P</text><text y="358" x="263.973063973064" text-anchor="middle" visibility="hidden" style="font-size: 13px;">S</text><text y="358" x="266.32996632996634" text-anchor="middle" visibility="hidden" style="font-size: 13px;">S</text><text y="358" x="268.68686868686865" text-anchor="middle" visibility="hidden" style="font-size: 13px;">T</text><text y="358" x="271.0437710437711" text-anchor="middle" visibility="hidden" style="font-size: 13px;">V</text><text y="358" x="273.4006734006734" text-anchor="middle" visibility="hidden" style="font-size: 13px;">F</text><text y="358" x="275.75757575757575" text-anchor="middle" visibility="hidden" style="font-size: 13px;">F</text><text y="358" x="278.1144781144781" text-anchor="middle" visibility="hidden" style="font-size: 13px;">C</text><text y="358" x="280.4713804713805" text-anchor="middle" visibility="hidden" style="font-size: 13px;">C</text><text y="358" x="282.8282828282828" text-anchor="middle" visibility="hidden" style="font-size: 13px;">D</text><text y="358" x="285.18518518518516" text-anchor="middle" visibility="hidden" style="font-size: 13px;">M</text><text y="358" x="287.54208754208753" text-anchor="middle" visibility="hidden" style="font-size: 13px;">Q</text><text y="358" x="289.8989898989899" text-anchor="middle" visibility="hidden" style="font-size: 13px;">E</text><text y="358" x="292.25589225589226" text-anchor="middle" visibility="hidden" style="font-size: 13px;">R</text><text y="358" x="294.61279461279463" text-anchor="middle" visibility="hidden" style="font-size: 13px;">F</text><text y="358" x="296.969696969697" text-anchor="middle" visibility="hidden" style="font-size: 13px;">R</text><text y="358" x="299.3265993265993" text-anchor="middle" visibility="hidden" style="font-size: 13px;">P</text><text y="358" x="301.6835016835017" text-anchor="middle" visibility="hidden" style="font-size: 13px;">A</text><text y="358" x="304.04040404040404" text-anchor="middle" visibility="hidden" style="font-size: 13px;">I</text><text y="358" x="306.3973063973064" text-anchor="middle" visibility="hidden" style="font-size: 13px;">K</text><text y="358" x="308.7542087542088" text-anchor="middle" visibility="hidden" style="font-size: 13px;">Y</text><text y="358" x="311.1111111111111" text-anchor="middle" visibility="hidden" style="font-size: 13px;">F</text><text y="358" x="313.46801346801345" text-anchor="middle" visibility="hidden" style="font-size: 13px;">G</text><text y="358" x="315.8249158249158" text-anchor="middle" visibility="hidden" style="font-size: 13px;">D</text><text y="358" x="318.1818181818182" text-anchor="middle" visibility="hidden" style="font-size: 13px;">I</text><text y="358" x="320.53872053872055" text-anchor="middle" visibility="hidden" style="font-size: 13px;">I</text><text y="358" x="322.8956228956229" text-anchor="middle" visibility="hidden" style="font-size: 13px;">S</text><text y="358" x="325.25252525252523" text-anchor="middle" visibility="hidden" style="font-size: 13px;">V</text><text y="358" x="327.6094276094276" text-anchor="middle" visibility="hidden" style="font-size: 13px;">G</text><text y="358" x="329.96632996632997" text-anchor="middle" visibility="hidden" style="font-size: 13px;">Q</text><text y="358" x="332.32323232323233" text-anchor="middle" visibility="hidden" style="font-size: 13px;">R</text><text y="358" x="334.6801346801347" text-anchor="middle" visibility="hidden" style="font-size: 13px;">L</text><text y="358" x="337.037037037037" text-anchor="middle" visibility="hidden" style="font-size: 13px;">L</text><text y="358" x="339.3939393939394" text-anchor="middle" visibility="hidden" style="font-size: 13px;">Q</text><text y="358" x="341.75084175084174" text-anchor="middle" visibility="hidden" style="font-size: 13px;">G</text><text y="358" x="344.1077441077441" text-anchor="middle" visibility="hidden" style="font-size: 13px;">A</text><text y="358" x="346.4646464646465" text-anchor="middle" visibility="hidden" style="font-size: 13px;">R</text><text y="358" x="348.82154882154884" text-anchor="middle" visibility="hidden" style="font-size: 13px;">I</text><text y="358" x="351.1784511784512" text-anchor="middle" visibility="hidden" style="font-size: 13px;">L</text><text y="358" x="353.5353535353536" text-anchor="middle" visibility="hidden" style="font-size: 13px;">G</text><text y="358" x="355.8922558922559" text-anchor="middle" visibility="hidden" style="font-size: 13px;">I</text><text y="358" x="358.24915824915826" text-anchor="middle" visibility="hidden" style="font-size: 13px;">P</text><text y="358" x="360.6060606060606" text-anchor="middle" visibility="hidden" style="font-size: 13px;">V</text><text y="358" x="362.96296296296293" text-anchor="middle" visibility="hidden" style="font-size: 13px;">I</text><text y="358" x="365.3198653198653" text-anchor="middle" visibility="hidden" style="font-size: 13px;">V</text><text y="358" x="367.6767676767677" text-anchor="middle" visibility="hidden" style="font-size: 13px;">T</text><text y="358" x="370.03367003367003" text-anchor="middle" visibility="hidden" style="font-size: 13px;">E</text><text y="358" x="372.3905723905724" text-anchor="middle" visibility="hidden" style="font-size: 13px;">Q</text><text y="358" x="374.74747474747477" text-anchor="middle" visibility="hidden" style="font-size: 13px;">Y</text><text y="358" x="377.1043771043771" text-anchor="middle" visibility="hidden" style="font-size: 13px;">P</text><text y="358" x="379.46127946127945" text-anchor="middle" visibility="hidden" style="font-size: 13px;">K</text><text y="358" x="381.8181818181818" text-anchor="middle" visibility="hidden" style="font-size: 13px;">G</text><text y="358" x="384.17508417508424" text-anchor="middle" visibility="hidden" style="font-size: 13px;">L</text><text y="358" x="386.53198653198655" text-anchor="middle" visibility="hidden" style="font-size: 13px;">G</text><text y="358" x="388.8888888888889" text-anchor="middle" visibility="hidden" style="font-size: 13px;">S</text><text y="358" x="391.2457912457912" text-anchor="middle" visibility="hidden" style="font-size: 13px;">T</text><text y="358" x="393.6026936026936" text-anchor="middle" visibility="hidden" style="font-size: 13px;">V</text><text y="358" x="395.95959595959596" text-anchor="middle" visibility="hidden" style="font-size: 13px;">Q</text><text y="358" x="398.31649831649827" text-anchor="middle" visibility="hidden" style="font-size: 13px;">E</text><text y="358" x="400.67340067340064" text-anchor="middle" visibility="hidden" style="font-size: 13px;">I</text><text y="358" x="403.03030303030306" text-anchor="middle" visibility="hidden" style="font-size: 13px;">D</text><text y="358" x="405.3872053872054" text-anchor="middle" visibility="hidden" style="font-size: 13px;">L</text><text y="358" x="407.74410774410774" text-anchor="middle" visibility="hidden" style="font-size: 13px;">T</text><text y="358" x="410.1010101010101" text-anchor="middle" visibility="hidden" style="font-size: 13px;">G</text><text y="358" x="412.45791245791247" text-anchor="middle" visibility="hidden" style="font-size: 13px;">V</text><text y="358" x="414.8148148148148" text-anchor="middle" visibility="hidden" style="font-size: 13px;">K</text><text y="358" x="417.17171717171715" text-anchor="middle" visibility="hidden" style="font-size: 13px;">L</text><text y="358" x="419.5286195286196" text-anchor="middle" visibility="hidden" style="font-size: 13px;">V</text><text y="358" x="421.8855218855219" text-anchor="middle" visibility="hidden" style="font-size: 13px;">L</text><text y="358" x="424.24242424242425" text-anchor="middle" visibility="hidden" style="font-size: 13px;">P</text><text y="358" x="426.5993265993266" text-anchor="middle" visibility="hidden" style="font-size: 13px;">K</text><text y="358" x="428.9562289562289" text-anchor="middle" visibility="hidden" style="font-size: 13px;">T</text><text y="358" x="431.3131313131313" text-anchor="middle" visibility="hidden" style="font-size: 13px;">K</text><text y="358" x="433.67003367003366" text-anchor="middle" visibility="hidden" style="font-size: 13px;">F</text><text y="358" x="436.0269360269361" text-anchor="middle" visibility="hidden" style="font-size: 13px;">S</text><text y="358" x="438.3838383838384" text-anchor="middle" visibility="hidden" style="font-size: 13px;">M</text><text y="358" x="440.74074074074076" text-anchor="middle" visibility="hidden" style="font-size: 13px;">V</text><text y="358" x="443.09764309764313" text-anchor="middle" visibility="hidden" style="font-size: 13px;">L</text><text y="358" x="445.45454545454544" text-anchor="middle" visibility="hidden" style="font-size: 13px;">P</text><text y="358" x="447.8114478114478" text-anchor="middle" visibility="hidden" style="font-size: 13px;">E</text><text y="358" x="450.1683501683501" text-anchor="middle" visibility="hidden" style="font-size: 13px;">V</text><text y="358" x="452.52525252525254" text-anchor="middle" visibility="hidden" style="font-size: 13px;">E</text><text y="358" x="454.8821548821549" text-anchor="middle" visibility="hidden" style="font-size: 13px;">A</text><text y="358" x="457.2390572390573" text-anchor="middle" visibility="hidden" style="font-size: 13px;">A</text><text y="358" x="459.5959595959596" text-anchor="middle" visibility="hidden" style="font-size: 13px;">L</text><text y="358" x="461.95286195286195" text-anchor="middle" visibility="hidden" style="font-size: 13px;">A</text><text y="358" x="464.3097643097643" text-anchor="middle" visibility="hidden" style="font-size: 13px;">E</text><text y="358" x="466.66666666666663" text-anchor="middle" visibility="hidden" style="font-size: 13px;">I</text><text y="358" x="469.023569023569" text-anchor="middle" visibility="hidden" style="font-size: 13px;">P</text><text y="358" x="471.3804713804714" text-anchor="middle" visibility="hidden" style="font-size: 13px;">G</text><text y="358" x="473.73737373737373" text-anchor="middle" visibility="hidden" style="font-size: 13px;">V</text><text y="358" x="476.0942760942761" text-anchor="middle" visibility="hidden" style="font-size: 13px;">R</text><text y="358" x="478.45117845117846" text-anchor="middle" visibility="hidden" style="font-size: 13px;">S</text><text y="358" x="480.8080808080808" text-anchor="middle" visibility="hidden" style="font-size: 13px;">V</text><text y="358" x="483.16498316498314" text-anchor="middle" visibility="hidden" style="font-size: 13px;">V</text><text y="358" x="485.5218855218855" text-anchor="middle" visibility="hidden" style="font-size: 13px;">L</text><text y="358" x="487.87878787878793" text-anchor="middle" visibility="hidden" style="font-size: 13px;">F</text><text y="358" x="490.23569023569024" text-anchor="middle" visibility="hidden" style="font-size: 13px;">G</text><text y="358" x="492.5925925925926" text-anchor="middle" visibility="hidden" style="font-size: 13px;">V</text><text y="358" x="494.949494949495" text-anchor="middle" visibility="hidden" style="font-size: 13px;">E</text><text y="358" x="497.3063973063973" text-anchor="middle" visibility="hidden" style="font-size: 13px;">T</text><text y="358" x="499.66329966329965" text-anchor="middle" visibility="hidden" style="font-size: 13px;">H</text><text y="358" x="502.02020202020196" text-anchor="middle" visibility="hidden" style="font-size: 13px;">V</text><text y="358" x="504.3771043771044" text-anchor="middle" visibility="hidden" style="font-size: 13px;">C</text><text y="358" x="506.73400673400675" text-anchor="middle" visibility="hidden" style="font-size: 13px;">I</text><text y="358" x="509.0909090909091" text-anchor="middle" visibility="hidden" style="font-size: 13px;">Q</text><text y="358" x="511.44781144781143" text-anchor="middle" visibility="hidden" style="font-size: 13px;">Q</text><text y="358" x="513.8047138047137" text-anchor="middle" visibility="hidden" style="font-size: 13px;">T</text><text y="358" x="516.1616161616162" text-anchor="middle" visibility="hidden" style="font-size: 13px;">A</text><text y="358" x="518.5185185185185" text-anchor="middle" visibility="hidden" style="font-size: 13px;">L</text><text y="358" x="520.8754208754209" text-anchor="middle" visibility="hidden" style="font-size: 13px;">E</text><text y="358" x="523.2323232323232" text-anchor="middle" visibility="hidden" style="font-size: 13px;">L</text><text y="358" x="525.5892255892256" text-anchor="middle" visibility="hidden" style="font-size: 13px;">V</text><text y="358" x="527.946127946128" text-anchor="middle" visibility="hidden" style="font-size: 13px;">G</text><text y="358" x="530.3030303030303" text-anchor="middle" visibility="hidden" style="font-size: 13px;">R</text><text y="358" x="532.6599326599327" text-anchor="middle" visibility="hidden" style="font-size: 13px;">G</text><text y="358" x="535.016835016835" text-anchor="middle" visibility="hidden" style="font-size: 13px;">V</text><text y="358" x="537.3737373737373" text-anchor="middle" visibility="hidden" style="font-size: 13px;">E</text><text y="358" x="539.7306397306397" text-anchor="middle" visibility="hidden" style="font-size: 13px;">V</text><text y="358" x="542.0875420875421" text-anchor="middle" visibility="hidden" style="font-size: 13px;">H</text><text y="358" x="544.4444444444445" text-anchor="middle" visibility="hidden" style="font-size: 13px;">I</text><text y="358" x="546.8013468013468" text-anchor="middle" visibility="hidden" style="font-size: 13px;">V</text><text y="358" x="549.1582491582492" text-anchor="middle" visibility="hidden" style="font-size: 13px;">A</text><text y="358" x="551.5151515151515" text-anchor="middle" visibility="hidden" style="font-size: 13px;">D</text><text y="358" x="553.8720538720538" text-anchor="middle" visibility="hidden" style="font-size: 13px;">A</text><text y="358" x="556.2289562289562" text-anchor="middle" visibility="hidden" style="font-size: 13px;">T</text><text y="358" x="558.5858585858587" text-anchor="middle" visibility="hidden" style="font-size: 13px;">S</text><text y="358" x="560.942760942761" text-anchor="middle" visibility="hidden" style="font-size: 13px;">S</text><text y="358" x="563.2996632996633" text-anchor="middle" visibility="hidden" style="font-size: 13px;">R</text><text y="358" x="565.6565656565656" text-anchor="middle" visibility="hidden" style="font-size: 13px;">S</text><text y="358" x="568.013468013468" text-anchor="middle" visibility="hidden" style="font-size: 13px;">M</text><text y="358" x="570.3703703703703" text-anchor="middle" visibility="hidden" style="font-size: 13px;">M</text><text y="358" x="572.7272727272727" text-anchor="middle" visibility="hidden" style="font-size: 13px;">D</text><text y="358" x="575.0841750841751" text-anchor="middle" visibility="hidden" style="font-size: 13px;">R</text><text y="358" x="577.4410774410775" text-anchor="middle" visibility="hidden" style="font-size: 13px;">M</text><text y="358" x="579.7979797979798" text-anchor="middle" visibility="hidden" style="font-size: 13px;">F</text><text y="358" x="582.1548821548821" text-anchor="middle" visibility="hidden" style="font-size: 13px;">A</text><text y="358" x="584.5117845117845" text-anchor="middle" visibility="hidden" style="font-size: 13px;">L</text><text y="358" x="586.8686868686868" text-anchor="middle" visibility="hidden" style="font-size: 13px;">E</text><text y="358" x="589.2255892255893" text-anchor="middle" visibility="hidden" style="font-size: 13px;">R</text><text y="358" x="591.5824915824916" text-anchor="middle" visibility="hidden" style="font-size: 13px;">L</text><text y="358" x="593.939393939394" text-anchor="middle" visibility="hidden" style="font-size: 13px;">A</text><text y="358" x="596.2962962962963" text-anchor="middle" visibility="hidden" style="font-size: 13px;">R</text><text y="358" x="598.6531986531986" text-anchor="middle" visibility="hidden" style="font-size: 13px;">T</text><text y="358" x="601.010101010101" text-anchor="middle" visibility="hidden" style="font-size: 13px;">G</text><text y="358" x="603.3670033670033" text-anchor="middle" visibility="hidden" style="font-size: 13px;">I</text><text y="358" x="605.7239057239057" text-anchor="middle" visibility="hidden" style="font-size: 13px;">I</text><text y="358" x="608.0808080808081" text-anchor="middle" visibility="hidden" style="font-size: 13px;">V</text><text y="358" x="610.4377104377105" text-anchor="middle" visibility="hidden" style="font-size: 13px;">T</text><text y="358" x="612.7946127946128" text-anchor="middle" visibility="hidden" style="font-size: 13px;">T</text><text y="358" x="615.1515151515151" text-anchor="middle" visibility="hidden" style="font-size: 13px;">S</text><text y="358" x="617.5084175084176" text-anchor="middle" visibility="hidden" style="font-size: 13px;">E</text><text y="358" x="619.8653198653199" text-anchor="middle" visibility="hidden" style="font-size: 13px;">A</text><text y="358" x="622.2222222222222" text-anchor="middle" visibility="hidden" style="font-size: 13px;">V</text><text y="358" x="624.5791245791246" text-anchor="middle" visibility="hidden" style="font-size: 13px;">L</text><text y="358" x="626.9360269360269" text-anchor="middle" visibility="hidden" style="font-size: 13px;">L</text><text y="358" x="629.2929292929293" text-anchor="middle" visibility="hidden" style="font-size: 13px;">Q</text><text y="358" x="631.6498316498316" text-anchor="middle" visibility="hidden" style="font-size: 13px;">L</text><text y="358" x="634.006734006734" text-anchor="middle" visibility="hidden" style="font-size: 13px;">V</text><text y="358" x="636.3636363636364" text-anchor="middle" visibility="hidden" style="font-size: 13px;">A</text><text y="358" x="638.7205387205387" text-anchor="middle" visibility="hidden" style="font-size: 13px;">D</text><text y="358" x="641.0774410774411" text-anchor="middle" visibility="hidden" style="font-size: 13px;">K</text><text y="358" x="643.4343434343434" text-anchor="middle" visibility="hidden" style="font-size: 13px;">D</text><text y="358" x="645.7912457912458" text-anchor="middle" visibility="hidden" style="font-size: 13px;">H</text><text y="358" x="648.1481481481482" text-anchor="middle" visibility="hidden" style="font-size: 13px;">P</text><text y="358" x="650.5050505050505" text-anchor="middle" visibility="hidden" style="font-size: 13px;">K</text><text y="358" x="652.8619528619529" text-anchor="middle" visibility="hidden" style="font-size: 13px;">F</text><text y="358" x="655.2188552188552" text-anchor="middle" visibility="hidden" style="font-size: 13px;">K</text><text y="358" x="657.5757575757576" text-anchor="middle" visibility="hidden" style="font-size: 13px;">E</text><text y="358" x="659.9326599326599" text-anchor="middle" visibility="hidden" style="font-size: 13px;">I</text><text y="358" x="662.2895622895624" text-anchor="middle" visibility="hidden" style="font-size: 13px;">Q</text><text y="358" x="664.6464646464647" text-anchor="middle" visibility="hidden" style="font-size: 13px;">N</text><text y="358" x="667.003367003367" text-anchor="middle" visibility="hidden" style="font-size: 13px;">L</text><text y="358" x="669.3602693602694" text-anchor="middle" visibility="hidden" style="font-size: 13px;">I</text><text y="358" x="671.7171717171717" text-anchor="middle" visibility="hidden" style="font-size: 13px;">K</text><text y="358" x="674.074074074074" text-anchor="middle" visibility="hidden" style="font-size: 13px;">A</text><text y="358" x="676.4309764309764" text-anchor="middle" visibility="hidden" style="font-size: 13px;">S</text><text y="358" x="678.7878787878788" text-anchor="middle" visibility="hidden" style="font-size: 13px;">A</text><text y="358" x="681.1447811447812" text-anchor="middle" visibility="hidden" style="font-size: 13px;">P</text><text y="358" x="683.5016835016835" text-anchor="middle" visibility="hidden" style="font-size: 13px;">E</text><text y="358" x="685.8585858585858" text-anchor="middle" visibility="hidden" style="font-size: 13px;">S</text><text y="358" x="688.2154882154882" text-anchor="middle" visibility="hidden" style="font-size: 13px;">G</text><text y="358" x="690.5723905723905" text-anchor="middle" visibility="hidden" style="font-size: 13px;">L</text><text y="358" x="692.929292929293" text-anchor="middle" visibility="hidden" style="font-size: 13px;">L</text><text y="358" x="695.2861952861953" text-anchor="middle" visibility="hidden" style="font-size: 13px;">S</text><text y="358" x="697.6430976430977" text-anchor="middle" visibility="hidden" style="font-size: 13px;">K</text><text y="358" x="700" text-anchor="middle" visibility="hidden" style="font-size: 13px;">V</text></g></g></svg><g class="xAxis" transform="translate(0,360)" fill="none" font-size="10" font-family="sans-serif" text-anchor="middle"><path class="domain" stroke="#000" d="M0.5,6V0.5H700.5V6"></path><g class="tick" opacity="1" transform="translate(45.28114478114478,0)"><line stroke="#000" y2="6"></line><text fill="#000" y="9" dy="0.71em">20</text></g><g class="tick" opacity="1" transform="translate(92.41919191919193,0)"><line stroke="#000" y2="6"></line><text fill="#000" y="9" dy="0.71em">40</text></g><g class="tick" opacity="1" transform="translate(139.55723905723906,0)"><line stroke="#000" y2="6"></line><text fill="#000" y="9" dy="0.71em">60</text></g><g class="tick" opacity="1" transform="translate(186.6952861952862,0)"><line stroke="#000" y2="6"></line><text fill="#000" y="9" dy="0.71em">80</text></g><g class="tick" opacity="1" transform="translate(233.83333333333331,0)"><line stroke="#000" y2="6"></line><text fill="#000" y="9" dy="0.71em">100</text></g><g class="tick" opacity="1" transform="translate(280.9713804713805,0)"><line stroke="#000" y2="6"></line><text fill="#000" y="9" dy="0.71em">120</text></g><g class="tick" opacity="1" transform="translate(328.1094276094276,0)"><line stroke="#000" y2="6"></line><text fill="#000" y="9" dy="0.71em">140</text></g><g class="tick" opacity="1" transform="translate(375.24747474747477,0)"><line stroke="#000" y2="6"></line><text fill="#000" y="9" dy="0.71em">160</text></g><g class="tick" opacity="1" transform="translate(422.3855218855219,0)"><line stroke="#000" y2="6"></line><text fill="#000" y="9" dy="0.71em">180</text></g><g class="tick" opacity="1" transform="translate(469.523569023569,0)"><line stroke="#000" y2="6"></line><text fill="#000" y="9" dy="0.71em">200</text></g><g class="tick" opacity="1" transform="translate(516.6616161616162,0)"><line stroke="#000" y2="6"></line><text fill="#000" y="9" dy="0.71em">220</text></g><g class="tick" opacity="1" transform="translate(563.7996632996633,0)"><line stroke="#000" y2="6"></line><text fill="#000" y="9" dy="0.71em">240</text></g><g class="tick" opacity="1" transform="translate(610.9377104377105,0)"><line stroke="#000" y2="6"></line><text fill="#000" y="9" dy="0.71em">260</text></g><g class="tick" opacity="1" transform="translate(658.0757575757576,0)"><line stroke="#000" y2="6"></line><text fill="#000" y="9" dy="0.71em">280</text></g></g><text class="x label" text-anchor="end" x="700" y="390" style="font-size: 13px; font-family: Arial;">Residue number</text><g class="yAxis" fill="none" font-size="10" font-family="sans-serif" text-anchor="end"><path class="domain" stroke="#000" d="M-6,360.5H0.5V0.5H-6"></path><g class="tick" opacity="1" transform="translate(0,327.77272727272725)"><line stroke="#000" x2="-6"></line><text fill="#000" x="-9" dy="0.32em">0</text></g><g class="tick" opacity="1" transform="translate(0,293.57495012824165)"><line stroke="#000" x2="-6"></line><text fill="#000" x="-9" dy="0.32em">20</text></g><g class="tick" opacity="1" transform="translate(0,259.37717298375605)"><line stroke="#000" x2="-6"></line><text fill="#000" x="-9" dy="0.32em">40</text></g><g class="tick" opacity="1" transform="translate(0,225.17939583927046)"><line stroke="#000" x2="-6"></line><text fill="#000" x="-9" dy="0.32em">60</text></g><g class="tick" opacity="1" transform="translate(0,190.98161869478486)"><line stroke="#000" x2="-6"></line><text fill="#000" x="-9" dy="0.32em">80</text></g><g class="tick" opacity="1" transform="translate(0,156.78384155029926)"><line stroke="#000" x2="-6"></line><text fill="#000" x="-9" dy="0.32em">100</text></g><g class="tick" opacity="1" transform="translate(0,122.58606440581366)"><line stroke="#000" x2="-6"></line><text fill="#000" x="-9" dy="0.32em">120</text></g><g class="tick" opacity="1" transform="translate(0,88.38828726132806)"><line stroke="#000" x2="-6"></line><text fill="#000" x="-9" dy="0.32em">140</text></g><g class="tick" opacity="1" transform="translate(0,54.19051011684246)"><line stroke="#000" x2="-6"></line><text fill="#000" x="-9" dy="0.32em">160</text></g><g class="tick" opacity="1" transform="translate(0,19.992732972356862)"><line stroke="#000" x2="-6"></line><text fill="#000" x="-9" dy="0.32em">180</text></g></g><text class="y label" text-anchor="middle" y="-50" x="-180" dy="0.8em" transform="rotate(-90)" style="font-size: 13px; font-family: Arial;">Total number of references</text><g class="axisRed" fill="none" font-size="10" font-family="sans-serif" text-anchor="start" visibility="hidden" transform="translate(700, 0)"><path class="domain" stroke="#000" d="M6,360.5H0.5V0.5H6"></path><g class="tick" opacity="1" transform="translate(0,360.5)"><line stroke="#000" x2="6"></line><text fill="#000" x="9" dy="0.32em">0</text></g><text text-anchor="start" dx="5.2em" dy="-2.6em" transform="rotate(90)" visibility="hidden" style="font-size: 12px; font-family: Arial; fill: #d7301f;">No recurrent (&gt;2) missense mutations!</text></g><g class="axisPurple" fill="none" font-size="10" font-family="sans-serif" text-anchor="start" visibility="hidden"><path class="domain" stroke="#000" d="M6,360.5H0.5V0.5H6"></path><g class="tick" opacity="1" transform="translate(0,357.52479338842977)"><line stroke="#000" x2="6"></line><text fill="#000" x="9" dy="0.32em"></text></g><g class="tick" opacity="1" transform="translate(0,327.77272727272725)"><line stroke="#000" x2="6"></line><text fill="#000" x="9" dy="0.32em">0</text></g><g class="tick" opacity="1" transform="translate(0,298.0206611570248)"><line stroke="#000" x2="6"></line><text fill="#000" x="9" dy="0.32em">0.1</text></g><g class="tick" opacity="1" transform="translate(0,268.2685950413223)"><line stroke="#000" x2="6"></line><text fill="#000" x="9" dy="0.32em">0.2</text></g><g class="tick" opacity="1" transform="translate(0,238.51652892561984)"><line stroke="#000" x2="6"></line><text fill="#000" x="9" dy="0.32em">0.3</text></g><g class="tick" opacity="1" transform="translate(0,208.76446280991738)"><line stroke="#000" x2="6"></line><text fill="#000" x="9" dy="0.32em">0.4</text></g><g class="tick" opacity="1" transform="translate(0,179.0123966942149)"><line stroke="#000" x2="6"></line><text fill="#000" x="9" dy="0.32em">0.5</text></g><g class="tick" opacity="1" transform="translate(0,149.26033057851242)"><line stroke="#000" x2="6"></line><text fill="#000" x="9" dy="0.32em">0.6</text></g><g class="tick" opacity="1" transform="translate(0,119.50826446280996)"><line stroke="#000" x2="6"></line><text fill="#000" x="9" dy="0.32em">0.7</text></g><g class="tick" opacity="1" transform="translate(0,89.75619834710744)"><line stroke="#000" x2="6"></line><text fill="#000" x="9" dy="0.32em">0.8</text></g><g class="tick" opacity="1" transform="translate(0,60.00413223140498)"><line stroke="#000" x2="6"></line><text fill="#000" x="9" dy="0.32em">0.9</text></g><g class="tick" opacity="1" transform="translate(0,30.25206611570252)"><line stroke="#000" x2="6"></line><text fill="#000" x="9" dy="0.32em">1</text></g><g class="tick" opacity="1" transform="translate(0,0.5)"><line stroke="#000" x2="6"></line><text fill="#000" x="9" dy="0.32em">1.1</text></g><text text-anchor="start" x="10" y="10" visibility="hidden" style="font-size: 12px; font-family: Arial; fill: #807dba;">No disease causing germline SNPs known!</text></g><circle cx="636" cy="15" r="10" class="compassNav" style="fill: #ffffff; stroke: #666666; stroke-width: 1px;"></circle><path d="M440.935 12.574l3.966 82.766C399.416 41.904 331.674 8 256 8 134.813 8 33.933 94.924 12.296 209.824 10.908 217.193 16.604 224 24.103 224h49.084c5.57 0 10.377-3.842 11.676-9.259C103.407 137.408 172.931 80 256 80c60.893 0 114.512 30.856 146.104 77.801l-101.53-4.865c-6.845-.328-12.574 5.133-12.574 11.986v47.411c0 6.627 5.373 12 12 12h200.333c6.627 0 12-5.373 12-12V12c0-6.627-5.373-12-12-12h-47.411c-6.853 0-12.315 5.729-11.987 12.574zM256 432c-60.895 0-114.517-30.858-146.109-77.805l101.868 4.871c6.845.327 12.573-5.134 12.573-11.986v-47.412c0-6.627-5.373-12-12-12H12c-6.627 0-12 5.373-12 12V500c0 6.627 5.373 12 12 12h47.385c6.863 0 12.328-5.745 11.985-12.599l-4.129-82.575C112.725 470.166 180.405 504 256 504c121.187 0 222.067-86.924 243.704-201.824 1.388-7.369-4.308-14.176-11.807-14.176h-49.084c-5.57 0-10.377 3.842-11.676 9.259C408.593 374.592 339.069 432 256 432z" class="compassNav" transform="translate(631, 10) scale(0.02)" style="fill: #666666; stroke: #666666; stroke-width: 1px;"></path><circle cx="658" cy="15" r="10" class="compassNav" style="fill: #ffffff; stroke: #666666; stroke-width: 1px;"></circle><line class="compassNav" stroke-width="2" stroke="#666666" x1="654" y1="15" x2="662" y2="15"></line><line class="compassNav" stroke-width="2" stroke="#666666" x1="658" y1="11" x2="658" y2="19"></line><circle cx="614" cy="15" r="10" class="compassNav" style="fill: #ffffff; stroke: #666666; stroke-width: 1px;"></circle><line class="compassNav" stroke-width="2" stroke="#666666" x1="610" y1="15" x2="618" y2="15"></line><path d="M582 14 l20 -12 a100,40 0 0,0 0,24z" class="compassNav" style="fill: #ffffff; stroke: #666666; stroke-width: 1px;"></path><path d="M690 14 l-20 -12 a100,40 0 0,1 0,24z" class="compassNav" style="fill: #ffffff; stroke: #666666; stroke-width: 1px;"></path><path d="M216 0h80c13.3 0 24 10.7 24 24v168h87.7c17.8 0 26.7 21.5 14.1 34.1L269.7 378.3c-7.5 7.5-19.8 7.5-27.3 0L90.1 226.1c-12.6-12.6-3.7-34.1 14.1-34.1H192V24c0-13.3 10.7-24 24-24zm296 376v112c0 13.3-10.7 24-24 24H24c-13.3 0-24-10.7-24-24V376c0-13.3 10.7-24 24-24h146.7l49 49c20.1 20.1 52.5 20.1 72.6 0l49-49H488c13.3 0 24 10.7 24 24zm-124 88c0-11-9-20-20-20s-20 9-20 20 9 20 20 20 20-9 20-20zm64 0c0-11-9-20-20-20s-20 9-20 20 9 20 20 20 20-9 20-20z" class="compassNav" transform="translate(552,0) scale(0.05)" style="fill: #336699; stroke: #336699; stroke-width: 1px; cursor: pointer;"></path></g></svg>