<svg width="800" height="400" style="background-color: white;"><g transform="translate(50,0)"><svg width="700" height="360"><g style="-webkit-tap-highlight-color: rgba(0, 0, 0, 0);"><rect width="700" height="360" style="fill: #ffffff;"></rect><g id="lines"><line class="line" stroke-width="1" stroke="#d7301f" x1="-318.4684684684685" y1="333" x2="-318.4684684684685" y2="360" visibility="hidden" style="stroke-dasharray: 3px, 3px;"></line></g><g><rect x="-323.4684684684685" y="355" width="10" height="10" visibility="hidden" style="fill: #ffffff; stroke: #d7301f;"></rect></g><g id="lines"><line class="line" stroke-width="1" stroke="#6a51a3" x1="-318.4684684684685" y1="333" x2="-318.4684684684685" y2="327.27272727272725" visibility="hidden" style="stroke-dasharray: 3px, 3px;"></line></g><g><rect x="-323.4684684684685" y="322.27272727272725" width="10" height="10" visibility="hidden" style="fill: #ffffff; stroke: #6a51a3;"></rect></g><g id="lines"><line class="line" stroke-width="1" stroke="#666666" x1="252.25225225225225" y1="333" x2="252.25225225225225" y2="178.5123966942149"></line><line class="line" stroke-width="1" stroke="#666666" x1="460.3603603603604" y1="333" x2="460.3603603603604" y2="178.5123966942149"></line><line class="line" stroke-width="1" stroke="#666666" x1="554.9549549549549" y1="333" x2="554.9549549549549" y2="29.75206611570252"></line><line class="line" stroke-width="1" stroke="#666666" x1="577.0270270270271" y1="333" x2="577.0270270270271" y2="178.5123966942149"></line><line class="line" stroke-width="1" stroke="#666666" x1="586.4864864864865" y1="333" x2="586.4864864864865" y2="178.5123966942149"></line><line class="line" stroke-width="1" stroke="#666666" x1="602.2522522522522" y1="333" x2="602.2522522522522" y2="178.5123966942149"></line><line class="line" stroke-width="1" stroke="#666666" x1="671.6216216216216" y1="333" x2="671.6216216216216" y2="178.5123966942149"></line><line class="line" stroke-width="1" stroke="#666666" x1="681.0810810810812" y1="333" x2="681.0810810810812" y2="178.5123966942149"></line></g><g id="circles"><circle r="4" cx="252.25225225225225" cy="178.5123966942149" style="fill: #666666; stroke: #666666; stroke-width: 1px;"></circle><circle r="4" cx="460.3603603603604" cy="178.5123966942149" style="fill: #666666; stroke: #666666; stroke-width: 1px;"></circle><circle r="4" cx="554.9549549549549" cy="29.75206611570252" style="fill: #4393c3; stroke: #666666; stroke-width: 1px;"></circle><circle r="4" cx="577.0270270270271" cy="178.5123966942149" style="fill: #4393c3; stroke: #666666; stroke-width: 1px;"></circle><circle r="4" cx="586.4864864864865" cy="178.5123966942149" style="fill: #4393c3; stroke: #666666; stroke-width: 1px;"></circle><circle r="4" cx="602.2522522522522" cy="178.5123966942149" style="fill: #bf812d; stroke: #666666; stroke-width: 1px;"></circle><circle r="4" cx="671.6216216216216" cy="178.5123966942149" style="fill: #bf812d; stroke: #666666; stroke-width: 1px;"></circle><circle r="4" cx="681.0810810810812" cy="178.5123966942149" style="fill: #bf812d; stroke: #666666; stroke-width: 1px;"></circle></g><g><rect x="0" y="333" width="700" height="12" style="fill: #ffffff; stroke-width: 1px; stroke: #666666;"></rect><rect x="268.018018018018" y="333" width="428.82882882882893" height="12" style="fill: #aec7e8; stroke-width: 1px; stroke: #666666;"></rect></g><g><a target="_blank" xlink:href="http://pfam.xfam.org/family/"><text y="343" x="350" text-anchor="middle" style="color: rgb(102, 102, 102); font-weight: normal; font-size: 12px; font-family: Arial; cursor: pointer;"></text></a><a target="_blank" xlink:href="http://pfam.xfam.org/family/Tsg"><text y="343" x="482.43243243243245" text-anchor="middle" style="color: rgb(102, 102, 102); font-weight: normal; font-size: 12px; font-family: Arial; cursor: pointer;">Tsg</text></a></g><g><text y="358" x="0" text-anchor="middle" visibility="hidden" style="font-size: 13px;">M</text><text y="358" x="3.153153153153153" text-anchor="middle" visibility="hidden" style="font-size: 13px;">K</text><text y="358" x="6.306306306306306" text-anchor="middle" visibility="hidden" style="font-size: 13px;">L</text><text y="358" x="9.45945945945946" text-anchor="middle" visibility="hidden" style="font-size: 13px;">H</text><text y="358" x="12.612612612612612" text-anchor="middle" visibility="hidden" style="font-size: 13px;">Y</text><text y="358" x="15.765765765765765" text-anchor="middle" visibility="hidden" style="font-size: 13px;">V</text><text y="358" x="18.91891891891892" text-anchor="middle" visibility="hidden" style="font-size: 13px;">A</text><text y="358" x="22.07207207207207" text-anchor="middle" visibility="hidden" style="font-size: 13px;">V</text><text y="358" x="25.225225225225223" text-anchor="middle" visibility="hidden" style="font-size: 13px;">L</text><text y="358" x="28.37837837837838" text-anchor="middle" visibility="hidden" style="font-size: 13px;">T</text><text y="358" x="31.53153153153153" text-anchor="middle" visibility="hidden" style="font-size: 13px;">L</text><text y="358" x="34.68468468468468" text-anchor="middle" visibility="hidden" style="font-size: 13px;">A</text><text y="358" x="37.83783783783784" text-anchor="middle" visibility="hidden" style="font-size: 13px;">I</text><text y="358" x="40.99099099099099" text-anchor="middle" visibility="hidden" style="font-size: 13px;">L</text><text y="358" x="44.14414414414414" text-anchor="middle" visibility="hidden" style="font-size: 13px;">M</text><text y="358" x="47.2972972972973" text-anchor="middle" visibility="hidden" style="font-size: 13px;">F</text><text y="358" x="50.45045045045045" text-anchor="middle" visibility="hidden" style="font-size: 13px;">L</text><text y="358" x="53.6036036036036" text-anchor="middle" visibility="hidden" style="font-size: 13px;">T</text><text y="358" x="56.75675675675676" text-anchor="middle" visibility="hidden" style="font-size: 13px;">W</text><text y="358" x="59.90990990990991" text-anchor="middle" visibility="hidden" style="font-size: 13px;">L</text><text y="358" x="63.06306306306306" text-anchor="middle" visibility="hidden" style="font-size: 13px;">P</text><text y="358" x="66.21621621621622" text-anchor="middle" visibility="hidden" style="font-size: 13px;">E</text><text y="358" x="69.36936936936937" text-anchor="middle" visibility="hidden" style="font-size: 13px;">S</text><text y="358" x="72.52252252252252" text-anchor="middle" visibility="hidden" style="font-size: 13px;">L</text><text y="358" x="75.67567567567568" text-anchor="middle" visibility="hidden" style="font-size: 13px;">S</text><text y="358" x="78.82882882882883" text-anchor="middle" visibility="hidden" style="font-size: 13px;">C</text><text y="358" x="81.98198198198197" text-anchor="middle" visibility="hidden" style="font-size: 13px;">N</text><text y="358" x="85.13513513513514" text-anchor="middle" visibility="hidden" style="font-size: 13px;">K</text><text y="358" x="88.28828828828829" text-anchor="middle" visibility="hidden" style="font-size: 13px;">A</text><text y="358" x="91.44144144144144" text-anchor="middle" visibility="hidden" style="font-size: 13px;">L</text><text y="358" x="94.5945945945946" text-anchor="middle" visibility="hidden" style="font-size: 13px;">C</text><text y="358" x="97.74774774774774" text-anchor="middle" visibility="hidden" style="font-size: 13px;">A</text><text y="358" x="100.9009009009009" text-anchor="middle" visibility="hidden" style="font-size: 13px;">S</text><text y="358" x="104.05405405405406" text-anchor="middle" visibility="hidden" style="font-size: 13px;">D</text><text y="358" x="107.2072072072072" text-anchor="middle" visibility="hidden" style="font-size: 13px;">V</text><text y="358" x="110.36036036036036" text-anchor="middle" visibility="hidden" style="font-size: 13px;">S</text><text y="358" x="113.51351351351352" text-anchor="middle" visibility="hidden" style="font-size: 13px;">K</text><text y="358" x="116.66666666666666" text-anchor="middle" visibility="hidden" style="font-size: 13px;">C</text><text y="358" x="119.81981981981983" text-anchor="middle" visibility="hidden" style="font-size: 13px;">L</text><text y="358" x="122.97297297297298" text-anchor="middle" visibility="hidden" style="font-size: 13px;">I</text><text y="358" x="126.12612612612612" text-anchor="middle" visibility="hidden" style="font-size: 13px;">Q</text><text y="358" x="129.27927927927928" text-anchor="middle" visibility="hidden" style="font-size: 13px;">E</text><text y="358" x="132.43243243243245" text-anchor="middle" visibility="hidden" style="font-size: 13px;">L</text><text y="358" x="135.5855855855856" text-anchor="middle" visibility="hidden" style="font-size: 13px;">C</text><text y="358" x="138.73873873873873" text-anchor="middle" visibility="hidden" style="font-size: 13px;">Q</text><text y="358" x="141.8918918918919" text-anchor="middle" visibility="hidden" style="font-size: 13px;">C</text><text y="358" x="145.04504504504504" text-anchor="middle" visibility="hidden" style="font-size: 13px;">R</text><text y="358" x="148.1981981981982" text-anchor="middle" visibility="hidden" style="font-size: 13px;">P</text><text y="358" x="151.35135135135135" text-anchor="middle" visibility="hidden" style="font-size: 13px;">G</text><text y="358" x="154.5045045045045" text-anchor="middle" visibility="hidden" style="font-size: 13px;">E</text><text y="358" x="157.65765765765767" text-anchor="middle" visibility="hidden" style="font-size: 13px;">G</text><text y="358" x="160.8108108108108" text-anchor="middle" visibility="hidden" style="font-size: 13px;">N</text><text y="358" x="163.96396396396395" text-anchor="middle" visibility="hidden" style="font-size: 13px;">C</text><text y="358" x="167.11711711711712" text-anchor="middle" visibility="hidden" style="font-size: 13px;">S</text><text y="358" x="170.2702702702703" text-anchor="middle" visibility="hidden" style="font-size: 13px;">C</text><text y="358" x="173.42342342342343" text-anchor="middle" visibility="hidden" style="font-size: 13px;">C</text><text y="358" x="176.57657657657657" text-anchor="middle" visibility="hidden" style="font-size: 13px;">K</text><text y="358" x="179.7297297297297" text-anchor="middle" visibility="hidden" style="font-size: 13px;">E</text><text y="358" x="182.88288288288288" text-anchor="middle" visibility="hidden" style="font-size: 13px;">C</text><text y="358" x="186.03603603603605" text-anchor="middle" visibility="hidden" style="font-size: 13px;">M</text><text y="358" x="189.1891891891892" text-anchor="middle" visibility="hidden" style="font-size: 13px;">L</text><text y="358" x="192.34234234234236" text-anchor="middle" visibility="hidden" style="font-size: 13px;">C</text><text y="358" x="195.49549549549548" text-anchor="middle" visibility="hidden" style="font-size: 13px;">L</text><text y="358" x="198.64864864864865" text-anchor="middle" visibility="hidden" style="font-size: 13px;">G</text><text y="358" x="201.8018018018018" text-anchor="middle" visibility="hidden" style="font-size: 13px;">A</text><text y="358" x="204.95495495495496" text-anchor="middle" visibility="hidden" style="font-size: 13px;">L</text><text y="358" x="208.10810810810813" text-anchor="middle" visibility="hidden" style="font-size: 13px;">W</text><text y="358" x="211.26126126126127" text-anchor="middle" visibility="hidden" style="font-size: 13px;">D</text><text y="358" x="214.4144144144144" text-anchor="middle" visibility="hidden" style="font-size: 13px;">E</text><text y="358" x="217.56756756756755" text-anchor="middle" visibility="hidden" style="font-size: 13px;">C</text><text y="358" x="220.72072072072072" text-anchor="middle" visibility="hidden" style="font-size: 13px;">C</text><text y="358" x="223.8738738738739" text-anchor="middle" visibility="hidden" style="font-size: 13px;">D</text><text y="358" x="227.02702702702703" text-anchor="middle" visibility="hidden" style="font-size: 13px;">C</text><text y="358" x="230.1801801801802" text-anchor="middle" visibility="hidden" style="font-size: 13px;">V</text><text y="358" x="233.33333333333331" text-anchor="middle" visibility="hidden" style="font-size: 13px;">G</text><text y="358" x="236.48648648648648" text-anchor="middle" visibility="hidden" style="font-size: 13px;">M</text><text y="358" x="239.63963963963965" text-anchor="middle" visibility="hidden" style="font-size: 13px;">C</text><text y="358" x="242.7927927927928" text-anchor="middle" visibility="hidden" style="font-size: 13px;">N</text><text y="358" x="245.94594594594597" text-anchor="middle" visibility="hidden" style="font-size: 13px;">P</text><text y="358" x="249.09909909909908" text-anchor="middle" visibility="hidden" style="font-size: 13px;">R</text><text y="358" x="252.25225225225225" text-anchor="middle" visibility="hidden" style="font-size: 13px;">N</text><text y="358" x="255.4054054054054" text-anchor="middle" visibility="hidden" style="font-size: 13px;">Y</text><text y="358" x="258.55855855855856" text-anchor="middle" visibility="hidden" style="font-size: 13px;">S</text><text y="358" x="261.7117117117117" text-anchor="middle" visibility="hidden" style="font-size: 13px;">D</text><text y="358" x="264.8648648648649" text-anchor="middle" visibility="hidden" style="font-size: 13px;">T</text><text y="358" x="268.018018018018" text-anchor="middle" visibility="hidden" style="font-size: 13px;">P</text><text y="358" x="271.1711711711712" text-anchor="middle" visibility="hidden" style="font-size: 13px;">P</text><text y="358" x="274.3243243243243" text-anchor="middle" visibility="hidden" style="font-size: 13px;">T</text><text y="358" x="277.47747747747746" text-anchor="middle" visibility="hidden" style="font-size: 13px;">S</text><text y="358" x="280.63063063063066" text-anchor="middle" visibility="hidden" style="font-size: 13px;">K</text><text y="358" x="283.7837837837838" text-anchor="middle" visibility="hidden" style="font-size: 13px;">S</text><text y="358" x="286.93693693693695" text-anchor="middle" visibility="hidden" style="font-size: 13px;">T</text><text y="358" x="290.0900900900901" text-anchor="middle" visibility="hidden" style="font-size: 13px;">V</text><text y="358" x="293.2432432432432" text-anchor="middle" visibility="hidden" style="font-size: 13px;">E</text><text y="358" x="296.3963963963964" text-anchor="middle" visibility="hidden" style="font-size: 13px;">E</text><text y="358" x="299.54954954954957" text-anchor="middle" visibility="hidden" style="font-size: 13px;">L</text><text y="358" x="302.7027027027027" text-anchor="middle" visibility="hidden" style="font-size: 13px;">H</text><text y="358" x="305.85585585585585" text-anchor="middle" visibility="hidden" style="font-size: 13px;">E</text><text y="358" x="309.009009009009" text-anchor="middle" visibility="hidden" style="font-size: 13px;">P</text><text y="358" x="312.16216216216213" text-anchor="middle" visibility="hidden" style="font-size: 13px;">I</text><text y="358" x="315.31531531531533" text-anchor="middle" visibility="hidden" style="font-size: 13px;">P</text><text y="358" x="318.4684684684685" text-anchor="middle" visibility="hidden" style="font-size: 13px;">S</text><text y="358" x="321.6216216216216" text-anchor="middle" visibility="hidden" style="font-size: 13px;">L</text><text y="358" x="324.77477477477476" text-anchor="middle" visibility="hidden" style="font-size: 13px;">F</text><text y="358" x="327.9279279279279" text-anchor="middle" visibility="hidden" style="font-size: 13px;">R</text><text y="358" x="331.0810810810811" text-anchor="middle" visibility="hidden" style="font-size: 13px;">A</text><text y="358" x="334.23423423423424" text-anchor="middle" visibility="hidden" style="font-size: 13px;">L</text><text y="358" x="337.3873873873874" text-anchor="middle" visibility="hidden" style="font-size: 13px;">T</text><text y="358" x="340.5405405405406" text-anchor="middle" visibility="hidden" style="font-size: 13px;">E</text><text y="358" x="343.69369369369366" text-anchor="middle" visibility="hidden" style="font-size: 13px;">G</text><text y="358" x="346.84684684684686" text-anchor="middle" visibility="hidden" style="font-size: 13px;">D</text><text y="358" x="350" text-anchor="middle" visibility="hidden" style="font-size: 13px;">T</text><text y="358" x="353.15315315315314" text-anchor="middle" visibility="hidden" style="font-size: 13px;">Q</text><text y="358" x="356.30630630630634" text-anchor="middle" visibility="hidden" style="font-size: 13px;">L</text><text y="358" x="359.4594594594594" text-anchor="middle" visibility="hidden" style="font-size: 13px;">N</text><text y="358" x="362.6126126126126" text-anchor="middle" visibility="hidden" style="font-size: 13px;">W</text><text y="358" x="365.76576576576576" text-anchor="middle" visibility="hidden" style="font-size: 13px;">N</text><text y="358" x="368.9189189189189" text-anchor="middle" visibility="hidden" style="font-size: 13px;">I</text><text y="358" x="372.0720720720721" text-anchor="middle" visibility="hidden" style="font-size: 13px;">V</text><text y="358" x="375.2252252252252" text-anchor="middle" visibility="hidden" style="font-size: 13px;">S</text><text y="358" x="378.3783783783784" text-anchor="middle" visibility="hidden" style="font-size: 13px;">F</text><text y="358" x="381.5315315315315" text-anchor="middle" visibility="hidden" style="font-size: 13px;">P</text><text y="358" x="384.6846846846847" text-anchor="middle" visibility="hidden" style="font-size: 13px;">V</text><text y="358" x="387.83783783783787" text-anchor="middle" visibility="hidden" style="font-size: 13px;">A</text><text y="358" x="390.99099099099095" text-anchor="middle" visibility="hidden" style="font-size: 13px;">E</text><text y="358" x="394.14414414414415" text-anchor="middle" visibility="hidden" style="font-size: 13px;">E</text><text y="358" x="397.2972972972973" text-anchor="middle" visibility="hidden" style="font-size: 13px;">L</text><text y="358" x="400.4504504504505" text-anchor="middle" visibility="hidden" style="font-size: 13px;">S</text><text y="358" x="403.6036036036036" text-anchor="middle" visibility="hidden" style="font-size: 13px;">H</text><text y="358" x="406.7567567567567" text-anchor="middle" visibility="hidden" style="font-size: 13px;">H</text><text y="358" x="409.9099099099099" text-anchor="middle" visibility="hidden" style="font-size: 13px;">E</text><text y="358" x="413.06306306306305" text-anchor="middle" visibility="hidden" style="font-size: 13px;">N</text><text y="358" x="416.21621621621625" text-anchor="middle" visibility="hidden" style="font-size: 13px;">L</text><text y="358" x="419.36936936936934" text-anchor="middle" visibility="hidden" style="font-size: 13px;">V</text><text y="358" x="422.52252252252254" text-anchor="middle" visibility="hidden" style="font-size: 13px;">S</text><text y="358" x="425.6756756756757" text-anchor="middle" visibility="hidden" style="font-size: 13px;">F</text><text y="358" x="428.8288288288288" text-anchor="middle" visibility="hidden" style="font-size: 13px;">L</text><text y="358" x="431.981981981982" text-anchor="middle" visibility="hidden" style="font-size: 13px;">E</text><text y="358" x="435.1351351351351" text-anchor="middle" visibility="hidden" style="font-size: 13px;">T</text><text y="358" x="438.2882882882883" text-anchor="middle" visibility="hidden" style="font-size: 13px;">V</text><text y="358" x="441.44144144144144" text-anchor="middle" visibility="hidden" style="font-size: 13px;">N</text><text y="358" x="444.5945945945946" text-anchor="middle" visibility="hidden" style="font-size: 13px;">Q</text><text y="358" x="447.7477477477478" text-anchor="middle" visibility="hidden" style="font-size: 13px;">P</text><text y="358" x="450.90090090090087" text-anchor="middle" visibility="hidden" style="font-size: 13px;">H</text><text y="358" x="454.05405405405406" text-anchor="middle" visibility="hidden" style="font-size: 13px;">H</text><text y="358" x="457.2072072072072" text-anchor="middle" visibility="hidden" style="font-size: 13px;">Q</text><text y="358" x="460.3603603603604" text-anchor="middle" visibility="hidden" style="font-size: 13px;">N</text><text y="358" x="463.51351351351354" text-anchor="middle" visibility="hidden" style="font-size: 13px;">V</text><text y="358" x="466.66666666666663" text-anchor="middle" visibility="hidden" style="font-size: 13px;">S</text><text y="358" x="469.8198198198198" text-anchor="middle" visibility="hidden" style="font-size: 13px;">V</text><text y="358" x="472.97297297297297" text-anchor="middle" visibility="hidden" style="font-size: 13px;">P</text><text y="358" x="476.12612612612617" text-anchor="middle" visibility="hidden" style="font-size: 13px;">S</text><text y="358" x="479.2792792792793" text-anchor="middle" visibility="hidden" style="font-size: 13px;">N</text><text y="358" x="482.4324324324324" text-anchor="middle" visibility="hidden" style="font-size: 13px;">N</text><text y="358" x="485.5855855855856" text-anchor="middle" visibility="hidden" style="font-size: 13px;">V</text><text y="358" x="488.73873873873873" text-anchor="middle" visibility="hidden" style="font-size: 13px;">H</text><text y="358" x="491.89189189189193" text-anchor="middle" visibility="hidden" style="font-size: 13px;">A</text><text y="358" x="495.045045045045" text-anchor="middle" visibility="hidden" style="font-size: 13px;">P</text><text y="358" x="498.19819819819816" text-anchor="middle" visibility="hidden" style="font-size: 13px;">Y</text><text y="358" x="501.35135135135135" text-anchor="middle" visibility="hidden" style="font-size: 13px;">S</text><text y="358" x="504.5045045045045" text-anchor="middle" visibility="hidden" style="font-size: 13px;">S</text><text y="358" x="507.6576576576577" text-anchor="middle" visibility="hidden" style="font-size: 13px;">D</text><text y="358" x="510.8108108108108" text-anchor="middle" visibility="hidden" style="font-size: 13px;">K</text><text y="358" x="513.963963963964" text-anchor="middle" visibility="hidden" style="font-size: 13px;">E</text><text y="358" x="517.1171171171171" text-anchor="middle" visibility="hidden" style="font-size: 13px;">H</text><text y="358" x="520.2702702702702" text-anchor="middle" visibility="hidden" style="font-size: 13px;">M</text><text y="358" x="523.4234234234234" text-anchor="middle" visibility="hidden" style="font-size: 13px;">C</text><text y="358" x="526.5765765765766" text-anchor="middle" visibility="hidden" style="font-size: 13px;">T</text><text y="358" x="529.7297297297298" text-anchor="middle" visibility="hidden" style="font-size: 13px;">V</text><text y="358" x="532.8828828828829" text-anchor="middle" visibility="hidden" style="font-size: 13px;">V</text><text y="358" x="536.036036036036" text-anchor="middle" visibility="hidden" style="font-size: 13px;">Y</text><text y="358" x="539.1891891891892" text-anchor="middle" visibility="hidden" style="font-size: 13px;">F</text><text y="358" x="542.3423423423424" text-anchor="middle" visibility="hidden" style="font-size: 13px;">D</text><text y="358" x="545.4954954954956" text-anchor="middle" visibility="hidden" style="font-size: 13px;">D</text><text y="358" x="548.6486486486486" text-anchor="middle" visibility="hidden" style="font-size: 13px;">C</text><text y="358" x="551.8018018018018" text-anchor="middle" visibility="hidden" style="font-size: 13px;">M</text><text y="358" x="554.9549549549549" text-anchor="middle" visibility="hidden" style="font-size: 13px;">S</text><text y="358" x="558.1081081081081" text-anchor="middle" visibility="hidden" style="font-size: 13px;">I</text><text y="358" x="561.2612612612613" text-anchor="middle" visibility="hidden" style="font-size: 13px;">H</text><text y="358" x="564.4144144144144" text-anchor="middle" visibility="hidden" style="font-size: 13px;">Q</text><text y="358" x="567.5675675675676" text-anchor="middle" visibility="hidden" style="font-size: 13px;">C</text><text y="358" x="570.7207207207207" text-anchor="middle" visibility="hidden" style="font-size: 13px;">K</text><text y="358" x="573.8738738738739" text-anchor="middle" visibility="hidden" style="font-size: 13px;">I</text><text y="358" x="577.0270270270271" text-anchor="middle" visibility="hidden" style="font-size: 13px;">S</text><text y="358" x="580.1801801801802" text-anchor="middle" visibility="hidden" style="font-size: 13px;">C</text><text y="358" x="583.3333333333334" text-anchor="middle" visibility="hidden" style="font-size: 13px;">E</text><text y="358" x="586.4864864864865" text-anchor="middle" visibility="hidden" style="font-size: 13px;">S</text><text y="358" x="589.6396396396397" text-anchor="middle" visibility="hidden" style="font-size: 13px;">M</text><text y="358" x="592.7927927927929" text-anchor="middle" visibility="hidden" style="font-size: 13px;">G</text><text y="358" x="595.9459459459459" text-anchor="middle" visibility="hidden" style="font-size: 13px;">A</text><text y="358" x="599.0990990990991" text-anchor="middle" visibility="hidden" style="font-size: 13px;">S</text><text y="358" x="602.2522522522522" text-anchor="middle" visibility="hidden" style="font-size: 13px;">K</text><text y="358" x="605.4054054054054" text-anchor="middle" visibility="hidden" style="font-size: 13px;">Y</text><text y="358" x="608.5585585585586" text-anchor="middle" visibility="hidden" style="font-size: 13px;">R</text><text y="358" x="611.7117117117117" text-anchor="middle" visibility="hidden" style="font-size: 13px;">W</text><text y="358" x="614.8648648648649" text-anchor="middle" visibility="hidden" style="font-size: 13px;">F</text><text y="358" x="618.018018018018" text-anchor="middle" visibility="hidden" style="font-size: 13px;">H</text><text y="358" x="621.1711711711712" text-anchor="middle" visibility="hidden" style="font-size: 13px;">N</text><text y="358" x="624.3243243243243" text-anchor="middle" visibility="hidden" style="font-size: 13px;">A</text><text y="358" x="627.4774774774775" text-anchor="middle" visibility="hidden" style="font-size: 13px;">C</text><text y="358" x="630.6306306306307" text-anchor="middle" visibility="hidden" style="font-size: 13px;">C</text><text y="358" x="633.7837837837837" text-anchor="middle" visibility="hidden" style="font-size: 13px;">E</text><text y="358" x="636.936936936937" text-anchor="middle" visibility="hidden" style="font-size: 13px;">C</text><text y="358" x="640.09009009009" text-anchor="middle" visibility="hidden" style="font-size: 13px;">I</text><text y="358" x="643.2432432432432" text-anchor="middle" visibility="hidden" style="font-size: 13px;">G</text><text y="358" x="646.3963963963964" text-anchor="middle" visibility="hidden" style="font-size: 13px;">P</text><text y="358" x="649.5495495495495" text-anchor="middle" visibility="hidden" style="font-size: 13px;">E</text><text y="358" x="652.7027027027027" text-anchor="middle" visibility="hidden" style="font-size: 13px;">C</text><text y="358" x="655.8558558558558" text-anchor="middle" visibility="hidden" style="font-size: 13px;">I</text><text y="358" x="659.009009009009" text-anchor="middle" visibility="hidden" style="font-size: 13px;">D</text><text y="358" x="662.1621621621622" text-anchor="middle" visibility="hidden" style="font-size: 13px;">Y</text><text y="358" x="665.3153153153153" text-anchor="middle" visibility="hidden" style="font-size: 13px;">G</text><text y="358" x="668.4684684684685" text-anchor="middle" visibility="hidden" style="font-size: 13px;">S</text><text y="358" x="671.6216216216216" text-anchor="middle" visibility="hidden" style="font-size: 13px;">K</text><text y="358" x="674.7747747747748" text-anchor="middle" visibility="hidden" style="font-size: 13px;">T</text><text y="358" x="677.927927927928" text-anchor="middle" visibility="hidden" style="font-size: 13px;">V</text><text y="358" x="681.0810810810812" text-anchor="middle" visibility="hidden" style="font-size: 13px;">K</text><text y="358" x="684.2342342342342" text-anchor="middle" visibility="hidden" style="font-size: 13px;">C</text><text y="358" x="687.3873873873873" text-anchor="middle" visibility="hidden" style="font-size: 13px;">M</text><text y="358" x="690.5405405405405" text-anchor="middle" visibility="hidden" style="font-size: 13px;">N</text><text y="358" x="693.6936936936937" text-anchor="middle" visibility="hidden" style="font-size: 13px;">C</text><text y="358" x="696.8468468468469" text-anchor="middle" visibility="hidden" style="font-size: 13px;">M</text><text y="358" x="700" text-anchor="middle" visibility="hidden" style="font-size: 13px;">F</text></g></g></svg><g class="xAxis" transform="translate(0,360)" fill="none" font-size="10" font-family="sans-serif" text-anchor="middle"><path class="domain" stroke="#000" d="M0.5,6V0.5H700.5V6"></path><g class="tick" opacity="1" transform="translate(60.40990990990991,0)"><line stroke="#000" y2="6"></line><text fill="#000" y="9" dy="0.71em">20</text></g><g class="tick" opacity="1" transform="translate(123.47297297297298,0)"><line stroke="#000" y2="6"></line><text fill="#000" y="9" dy="0.71em">40</text></g><g class="tick" opacity="1" transform="translate(186.53603603603605,0)"><line stroke="#000" y2="6"></line><text fill="#000" y="9" dy="0.71em">60</text></g><g class="tick" opacity="1" transform="translate(249.59909909909908,0)"><line stroke="#000" y2="6"></line><text fill="#000" y="9" dy="0.71em">80</text></g><g class="tick" opacity="1" transform="translate(312.66216216216213,0)"><line stroke="#000" y2="6"></line><text fill="#000" y="9" dy="0.71em">100</text></g><g class="tick" opacity="1" transform="translate(375.7252252252252,0)"><line stroke="#000" y2="6"></line><text fill="#000" y="9" dy="0.71em">120</text></g><g class="tick" opacity="1" transform="translate(438.7882882882883,0)"><line stroke="#000" y2="6"></line><text fill="#000" y="9" dy="0.71em">140</text></g><g class="tick" opacity="1" transform="translate(501.85135135135135,0)"><line stroke="#000" y2="6"></line><text fill="#000" y="9" dy="0.71em">160</text></g><g class="tick" opacity="1" transform="translate(564.9144144144144,0)"><line stroke="#000" y2="6"></line><text fill="#000" y="9" dy="0.71em">180</text></g><g class="tick" opacity="1" transform="translate(627.9774774774775,0)"><line stroke="#000" y2="6"></line><text fill="#000" y="9" dy="0.71em">200</text></g><g class="tick" opacity="1" transform="translate(691.0405405405405,0)"><line stroke="#000" y2="6"></line><text fill="#000" y="9" dy="0.71em">220</text></g></g><text class="x label" text-anchor="end" x="700" y="390" style="font-size: 13px; font-family: Arial;">Residue number</text><g class="yAxis" fill="none" font-size="10" font-family="sans-serif" text-anchor="end"><path class="domain" stroke="#000" d="M-6,360.5H0.5V0.5H-6"></path><g class="tick" opacity="1" transform="translate(0,357.52479338842977)"><line stroke="#000" x2="-6"></line><text fill="#000" x="-9" dy="0.32em"></text></g><g class="tick" opacity="1" transform="translate(0,327.77272727272725)"><line stroke="#000" x2="-6"></line><text fill="#000" x="-9" dy="0.32em">0</text></g><g class="tick" opacity="1" transform="translate(0,298.0206611570248)"><line stroke="#000" x2="-6"></line><text fill="#000" x="-9" dy="0.32em">0.2</text></g><g class="tick" opacity="1" transform="translate(0,268.2685950413223)"><line stroke="#000" x2="-6"></line><text fill="#000" x="-9" dy="0.32em">0.4</text></g><g class="tick" opacity="1" transform="translate(0,238.51652892561984)"><line stroke="#000" x2="-6"></line><text fill="#000" x="-9" dy="0.32em">0.6</text></g><g class="tick" opacity="1" transform="translate(0,208.76446280991738)"><line stroke="#000" x2="-6"></line><text fill="#000" x="-9" dy="0.32em">0.8</text></g><g class="tick" opacity="1" transform="translate(0,179.0123966942149)"><line stroke="#000" x2="-6"></line><text fill="#000" x="-9" dy="0.32em">1</text></g><g class="tick" opacity="1" transform="translate(0,149.26033057851242)"><line stroke="#000" x2="-6"></line><text fill="#000" x="-9" dy="0.32em">1.2</text></g><g class="tick" opacity="1" transform="translate(0,119.50826446280996)"><line stroke="#000" x2="-6"></line><text fill="#000" x="-9" dy="0.32em">1.4</text></g><g class="tick" opacity="1" transform="translate(0,89.75619834710744)"><line stroke="#000" x2="-6"></line><text fill="#000" x="-9" dy="0.32em">1.6</text></g><g class="tick" opacity="1" transform="translate(0,60.00413223140498)"><line stroke="#000" x2="-6"></line><text fill="#000" x="-9" dy="0.32em">1.8</text></g><g class="tick" opacity="1" transform="translate(0,30.25206611570252)"><line stroke="#000" x2="-6"></line><text fill="#000" x="-9" dy="0.32em">2</text></g><g class="tick" opacity="1" transform="translate(0,0.5)"><line stroke="#000" x2="-6"></line><text fill="#000" x="-9" dy="0.32em">2.2</text></g></g><text class="y label" text-anchor="middle" y="-50" x="-180" dy="0.8em" transform="rotate(-90)" style="font-size: 13px; font-family: Arial;">Total number of references</text><g class="axisRed" fill="none" font-size="10" font-family="sans-serif" text-anchor="start" visibility="hidden" transform="translate(700, 0)"><path class="domain" stroke="#000" d="M6,360.5H0.5V0.5H6"></path><g class="tick" opacity="1" transform="translate(0,360.5)"><line stroke="#000" x2="6"></line><text fill="#000" x="9" dy="0.32em">0</text></g><text text-anchor="start" dx="5.2em" dy="-2.6em" transform="rotate(90)" visibility="hidden" style="font-size: 12px; font-family: Arial; fill: #d7301f;">No recurrent (&gt;2) missense mutations!</text></g><g class="axisPurple" fill="none" font-size="10" font-family="sans-serif" text-anchor="start" visibility="hidden"><path class="domain" stroke="#000" d="M6,360.5H0.5V0.5H6"></path><g class="tick" opacity="1" transform="translate(0,357.52479338842977)"><line stroke="#000" x2="6"></line><text fill="#000" x="9" dy="0.32em"></text></g><g class="tick" opacity="1" transform="translate(0,327.77272727272725)"><line stroke="#000" x2="6"></line><text fill="#000" x="9" dy="0.32em">0</text></g><g class="tick" opacity="1" transform="translate(0,298.0206611570248)"><line stroke="#000" x2="6"></line><text fill="#000" x="9" dy="0.32em">0.1</text></g><g class="tick" opacity="1" transform="translate(0,268.2685950413223)"><line stroke="#000" x2="6"></line><text fill="#000" x="9" dy="0.32em">0.2</text></g><g class="tick" opacity="1" transform="translate(0,238.51652892561984)"><line stroke="#000" x2="6"></line><text fill="#000" x="9" dy="0.32em">0.3</text></g><g class="tick" opacity="1" transform="translate(0,208.76446280991738)"><line stroke="#000" x2="6"></line><text fill="#000" x="9" dy="0.32em">0.4</text></g><g class="tick" opacity="1" transform="translate(0,179.0123966942149)"><line stroke="#000" x2="6"></line><text fill="#000" x="9" dy="0.32em">0.5</text></g><g class="tick" opacity="1" transform="translate(0,149.26033057851242)"><line stroke="#000" x2="6"></line><text fill="#000" x="9" dy="0.32em">0.6</text></g><g class="tick" opacity="1" transform="translate(0,119.50826446280996)"><line stroke="#000" x2="6"></line><text fill="#000" x="9" dy="0.32em">0.7</text></g><g class="tick" opacity="1" transform="translate(0,89.75619834710744)"><line stroke="#000" x2="6"></line><text fill="#000" x="9" dy="0.32em">0.8</text></g><g class="tick" opacity="1" transform="translate(0,60.00413223140498)"><line stroke="#000" x2="6"></line><text fill="#000" x="9" dy="0.32em">0.9</text></g><g class="tick" opacity="1" transform="translate(0,30.25206611570252)"><line stroke="#000" x2="6"></line><text fill="#000" x="9" dy="0.32em">1</text></g><g class="tick" opacity="1" transform="translate(0,0.5)"><line stroke="#000" x2="6"></line><text fill="#000" x="9" dy="0.32em">1.1</text></g><text text-anchor="start" x="10" y="10" visibility="hidden" style="font-size: 12px; font-family: Arial; fill: #807dba;">No disease causing germline SNPs known!</text></g><circle cx="636" cy="15" r="10" class="compassNav" style="fill: #ffffff; stroke: #666666; stroke-width: 1px;"></circle><path d="M440.935 12.574l3.966 82.766C399.416 41.904 331.674 8 256 8 134.813 8 33.933 94.924 12.296 209.824 10.908 217.193 16.604 224 24.103 224h49.084c5.57 0 10.377-3.842 11.676-9.259C103.407 137.408 172.931 80 256 80c60.893 0 114.512 30.856 146.104 77.801l-101.53-4.865c-6.845-.328-12.574 5.133-12.574 11.986v47.411c0 6.627 5.373 12 12 12h200.333c6.627 0 12-5.373 12-12V12c0-6.627-5.373-12-12-12h-47.411c-6.853 0-12.315 5.729-11.987 12.574zM256 432c-60.895 0-114.517-30.858-146.109-77.805l101.868 4.871c6.845.327 12.573-5.134 12.573-11.986v-47.412c0-6.627-5.373-12-12-12H12c-6.627 0-12 5.373-12 12V500c0 6.627 5.373 12 12 12h47.385c6.863 0 12.328-5.745 11.985-12.599l-4.129-82.575C112.725 470.166 180.405 504 256 504c121.187 0 222.067-86.924 243.704-201.824 1.388-7.369-4.308-14.176-11.807-14.176h-49.084c-5.57 0-10.377 3.842-11.676 9.259C408.593 374.592 339.069 432 256 432z" class="compassNav" transform="translate(631, 10) scale(0.02)" style="fill: #666666; stroke: #666666; stroke-width: 1px;"></path><circle cx="658" cy="15" r="10" class="compassNav" style="fill: #ffffff; stroke: #666666; stroke-width: 1px;"></circle><line class="compassNav" stroke-width="2" stroke="#666666" x1="654" y1="15" x2="662" y2="15"></line><line class="compassNav" stroke-width="2" stroke="#666666" x1="658" y1="11" x2="658" y2="19"></line><circle cx="614" cy="15" r="10" class="compassNav" style="fill: #ffffff; stroke: #666666; stroke-width: 1px;"></circle><line class="compassNav" stroke-width="2" stroke="#666666" x1="610" y1="15" x2="618" y2="15"></line><path d="M582 14 l20 -12 a100,40 0 0,0 0,24z" class="compassNav" style="fill: #ffffff; stroke: #666666; stroke-width: 1px;"></path><path d="M690 14 l-20 -12 a100,40 0 0,1 0,24z" class="compassNav" style="fill: #ffffff; stroke: #666666; stroke-width: 1px;"></path><path d="M216 0h80c13.3 0 24 10.7 24 24v168h87.7c17.8 0 26.7 21.5 14.1 34.1L269.7 378.3c-7.5 7.5-19.8 7.5-27.3 0L90.1 226.1c-12.6-12.6-3.7-34.1 14.1-34.1H192V24c0-13.3 10.7-24 24-24zm296 376v112c0 13.3-10.7 24-24 24H24c-13.3 0-24-10.7-24-24V376c0-13.3 10.7-24 24-24h146.7l49 49c20.1 20.1 52.5 20.1 72.6 0l49-49H488c13.3 0 24 10.7 24 24zm-124 88c0-11-9-20-20-20s-20 9-20 20 9 20 20 20 20-9 20-20zm64 0c0-11-9-20-20-20s-20 9-20 20 9 20 20 20 20-9 20-20z" class="compassNav" transform="translate(552,0) scale(0.05)" style="fill: #336699; stroke: #336699; stroke-width: 1px; cursor: pointer;"></path></g></svg>