<svg width="800" height="400" style="background-color: white;"><g transform="translate(50,0)"><svg width="700" height="360"><g style="-webkit-tap-highlight-color: rgba(0, 0, 0, 0);"><rect width="700" height="360" style="fill: #ffffff;"></rect><g id="lines"><line class="line" stroke-width="1" stroke="#d7301f" x1="-408.67052023121386" y1="333" x2="-408.67052023121386" y2="360" visibility="hidden" style="stroke-dasharray: 3px, 3px;"></line></g><g><rect x="-413.67052023121386" y="355" width="10" height="10" visibility="hidden" style="fill: #ffffff; stroke: #d7301f;"></rect></g><g id="lines"><line class="line" stroke-width="1" stroke="#6a51a3" x1="-408.67052023121386" y1="333" x2="-408.67052023121386" y2="327.27272727272725" visibility="hidden" style="stroke-dasharray: 3px, 3px;"></line></g><g><rect x="-413.67052023121386" y="322.27272727272725" width="10" height="10" visibility="hidden" style="fill: #ffffff; stroke: #6a51a3;"></rect></g><g id="lines"><line class="line" stroke-width="1" stroke="#666666" x1="52.601156069364166" y1="333" x2="52.601156069364166" y2="219.08339594290007"></line><line class="line" stroke-width="1" stroke="#666666" x1="101.15606936416185" y1="333" x2="101.15606936416185" y2="300.22539444027046"></line><line class="line" stroke-width="1" stroke="#666666" x1="331.7919075144509" y1="333" x2="331.7919075144509" y2="313.7490608564989"></line><line class="line" stroke-width="1" stroke="#666666" x1="396.5317919075145" y1="333" x2="396.5317919075145" y2="313.7490608564989"></line><line class="line" stroke-width="1" stroke="#666666" x1="590.7514450867052" y1="333" x2="590.7514450867052" y2="313.7490608564989"></line><line class="line" stroke-width="1" stroke="#666666" x1="655.4913294797688" y1="333" x2="655.4913294797688" y2="29.752066115702405"></line><line class="line" stroke-width="1" stroke="#666666" x1="663.5838150289018" y1="333" x2="663.5838150289018" y2="110.89406461307283"></line><line class="line" stroke-width="1" stroke="#666666" x1="675.7225433526012" y1="333" x2="675.7225433526012" y2="164.98873027798646"></line></g><g id="circles"><circle r="4" cx="52.601156069364166" cy="219.08339594290007" style="fill: #4393c3; stroke: #666666; stroke-width: 1px;"></circle><circle r="4" cx="101.15606936416185" cy="300.22539444027046" style="fill: #4393c3; stroke: #666666; stroke-width: 1px;"></circle><circle r="4" cx="331.7919075144509" cy="313.7490608564989" style="fill: #4393c3; stroke: #666666; stroke-width: 1px;"></circle><circle r="4" cx="396.5317919075145" cy="313.7490608564989" style="fill: #4393c3; stroke: #666666; stroke-width: 1px;"></circle><circle r="4" cx="590.7514450867052" cy="313.7490608564989" style="fill: #4393c3; stroke: #666666; stroke-width: 1px;"></circle><circle r="4" cx="655.4913294797688" cy="29.752066115702405" style="fill: #4393c3; stroke: #666666; stroke-width: 1px;"></circle><circle r="4" cx="663.5838150289018" cy="110.89406461307283" style="fill: #4393c3; stroke: #666666; stroke-width: 1px;"></circle><circle r="4" cx="675.7225433526012" cy="164.98873027798646" style="fill: #4393c3; stroke: #666666; stroke-width: 1px;"></circle></g><g><rect x="0" y="333" width="700" height="12" style="fill: #ffffff; stroke-width: 1px; stroke: #666666;"></rect><rect x="109.2485549132948" y="333" width="586.7052023121387" height="12" style="fill: #aec7e8; stroke-width: 1px; stroke: #666666;"></rect></g><g><a target="_blank" xlink:href="http://pfam.xfam.org/family/"><text y="343" x="350" text-anchor="middle" style="color: rgb(102, 102, 102); font-weight: normal; font-size: 12px; font-family: Arial; cursor: pointer;"></text></a><a target="_blank" xlink:href="http://pfam.xfam.org/family/DUF4517"><text y="343" x="402.60115606936415" text-anchor="middle" style="color: rgb(102, 102, 102); font-weight: normal; font-size: 12px; font-family: Arial; cursor: pointer;">DUF4517</text></a></g><g><text y="358" x="0" text-anchor="middle" visibility="hidden" style="font-size: 13px;">M</text><text y="358" x="4.0462427745664735" text-anchor="middle" visibility="hidden" style="font-size: 13px;">A</text><text y="358" x="8.092485549132947" text-anchor="middle" visibility="hidden" style="font-size: 13px;">A</text><text y="358" x="12.138728323699421" text-anchor="middle" visibility="hidden" style="font-size: 13px;">A</text><text y="358" x="16.184971098265894" text-anchor="middle" visibility="hidden" style="font-size: 13px;">N</text><text y="358" x="20.23121387283237" text-anchor="middle" visibility="hidden" style="font-size: 13px;">K</text><text y="358" x="24.277456647398843" text-anchor="middle" visibility="hidden" style="font-size: 13px;">G</text><text y="358" x="28.32369942196532" text-anchor="middle" visibility="hidden" style="font-size: 13px;">N</text><text y="358" x="32.36994219653179" text-anchor="middle" visibility="hidden" style="font-size: 13px;">K</text><text y="358" x="36.41618497109827" text-anchor="middle" visibility="hidden" style="font-size: 13px;">P</text><text y="358" x="40.46242774566474" text-anchor="middle" visibility="hidden" style="font-size: 13px;">R</text><text y="358" x="44.50867052023121" text-anchor="middle" visibility="hidden" style="font-size: 13px;">V</text><text y="358" x="48.554913294797686" text-anchor="middle" visibility="hidden" style="font-size: 13px;">R</text><text y="358" x="52.601156069364166" text-anchor="middle" visibility="hidden" style="font-size: 13px;">S</text><text y="358" x="56.64739884393064" text-anchor="middle" visibility="hidden" style="font-size: 13px;">I</text><text y="358" x="60.69364161849711" text-anchor="middle" visibility="hidden" style="font-size: 13px;">R</text><text y="358" x="64.73988439306358" text-anchor="middle" visibility="hidden" style="font-size: 13px;">F</text><text y="358" x="68.78612716763006" text-anchor="middle" visibility="hidden" style="font-size: 13px;">A</text><text y="358" x="72.83236994219654" text-anchor="middle" visibility="hidden" style="font-size: 13px;">A</text><text y="358" x="76.878612716763" text-anchor="middle" visibility="hidden" style="font-size: 13px;">G</text><text y="358" x="80.92485549132948" text-anchor="middle" visibility="hidden" style="font-size: 13px;">H</text><text y="358" x="84.97109826589595" text-anchor="middle" visibility="hidden" style="font-size: 13px;">D</text><text y="358" x="89.01734104046243" text-anchor="middle" visibility="hidden" style="font-size: 13px;">A</text><text y="358" x="93.06358381502889" text-anchor="middle" visibility="hidden" style="font-size: 13px;">E</text><text y="358" x="97.10982658959537" text-anchor="middle" visibility="hidden" style="font-size: 13px;">G</text><text y="358" x="101.15606936416185" text-anchor="middle" visibility="hidden" style="font-size: 13px;">S</text><text y="358" x="105.20231213872833" text-anchor="middle" visibility="hidden" style="font-size: 13px;">H</text><text y="358" x="109.2485549132948" text-anchor="middle" visibility="hidden" style="font-size: 13px;">S</text><text y="358" x="113.29479768786128" text-anchor="middle" visibility="hidden" style="font-size: 13px;">H</text><text y="358" x="117.34104046242774" text-anchor="middle" visibility="hidden" style="font-size: 13px;">V</text><text y="358" x="121.38728323699422" text-anchor="middle" visibility="hidden" style="font-size: 13px;">H</text><text y="358" x="125.43352601156069" text-anchor="middle" visibility="hidden" style="font-size: 13px;">F</text><text y="358" x="129.47976878612715" text-anchor="middle" visibility="hidden" style="font-size: 13px;">D</text><text y="358" x="133.52601156069363" text-anchor="middle" visibility="hidden" style="font-size: 13px;">E</text><text y="358" x="137.5722543352601" text-anchor="middle" visibility="hidden" style="font-size: 13px;">K</text><text y="358" x="141.6184971098266" text-anchor="middle" visibility="hidden" style="font-size: 13px;">L</text><text y="358" x="145.66473988439307" text-anchor="middle" visibility="hidden" style="font-size: 13px;">H</text><text y="358" x="149.71098265895955" text-anchor="middle" visibility="hidden" style="font-size: 13px;">D</text><text y="358" x="153.757225433526" text-anchor="middle" visibility="hidden" style="font-size: 13px;">S</text><text y="358" x="157.80346820809248" text-anchor="middle" visibility="hidden" style="font-size: 13px;">V</text><text y="358" x="161.84971098265896" text-anchor="middle" visibility="hidden" style="font-size: 13px;">V</text><text y="358" x="165.89595375722544" text-anchor="middle" visibility="hidden" style="font-size: 13px;">M</text><text y="358" x="169.9421965317919" text-anchor="middle" visibility="hidden" style="font-size: 13px;">V</text><text y="358" x="173.98843930635837" text-anchor="middle" visibility="hidden" style="font-size: 13px;">T</text><text y="358" x="178.03468208092485" text-anchor="middle" visibility="hidden" style="font-size: 13px;">Q</text><text y="358" x="182.0809248554913" text-anchor="middle" visibility="hidden" style="font-size: 13px;">E</text><text y="358" x="186.12716763005778" text-anchor="middle" visibility="hidden" style="font-size: 13px;">S</text><text y="358" x="190.17341040462426" text-anchor="middle" visibility="hidden" style="font-size: 13px;">D</text><text y="358" x="194.21965317919074" text-anchor="middle" visibility="hidden" style="font-size: 13px;">S</text><text y="358" x="198.26589595375725" text-anchor="middle" visibility="hidden" style="font-size: 13px;">S</text><text y="358" x="202.3121387283237" text-anchor="middle" visibility="hidden" style="font-size: 13px;">F</text><text y="358" x="206.35838150289018" text-anchor="middle" visibility="hidden" style="font-size: 13px;">L</text><text y="358" x="210.40462427745666" text-anchor="middle" visibility="hidden" style="font-size: 13px;">V</text><text y="358" x="214.45086705202314" text-anchor="middle" visibility="hidden" style="font-size: 13px;">K</text><text y="358" x="218.4971098265896" text-anchor="middle" visibility="hidden" style="font-size: 13px;">V</text><text y="358" x="222.54335260115607" text-anchor="middle" visibility="hidden" style="font-size: 13px;">G</text><text y="358" x="226.58959537572255" text-anchor="middle" visibility="hidden" style="font-size: 13px;">F</text><text y="358" x="230.63583815028903" text-anchor="middle" visibility="hidden" style="font-size: 13px;">L</text><text y="358" x="234.68208092485548" text-anchor="middle" visibility="hidden" style="font-size: 13px;">K</text><text y="358" x="238.72832369942196" text-anchor="middle" visibility="hidden" style="font-size: 13px;">I</text><text y="358" x="242.77456647398844" text-anchor="middle" visibility="hidden" style="font-size: 13px;">L</text><text y="358" x="246.8208092485549" text-anchor="middle" visibility="hidden" style="font-size: 13px;">H</text><text y="358" x="250.86705202312137" text-anchor="middle" visibility="hidden" style="font-size: 13px;">R</text><text y="358" x="254.91329479768785" text-anchor="middle" visibility="hidden" style="font-size: 13px;">Y</text><text y="358" x="258.9595375722543" text-anchor="middle" visibility="hidden" style="font-size: 13px;">E</text><text y="358" x="263.0057803468208" text-anchor="middle" visibility="hidden" style="font-size: 13px;">I</text><text y="358" x="267.05202312138726" text-anchor="middle" visibility="hidden" style="font-size: 13px;">T</text><text y="358" x="271.0982658959537" text-anchor="middle" visibility="hidden" style="font-size: 13px;">F</text><text y="358" x="275.1445086705202" text-anchor="middle" visibility="hidden" style="font-size: 13px;">T</text><text y="358" x="279.19075144508673" text-anchor="middle" visibility="hidden" style="font-size: 13px;">L</text><text y="358" x="283.2369942196532" text-anchor="middle" visibility="hidden" style="font-size: 13px;">P</text><text y="358" x="287.2832369942197" text-anchor="middle" visibility="hidden" style="font-size: 13px;">P</text><text y="358" x="291.32947976878614" text-anchor="middle" visibility="hidden" style="font-size: 13px;">V</text><text y="358" x="295.3757225433526" text-anchor="middle" visibility="hidden" style="font-size: 13px;">H</text><text y="358" x="299.4219653179191" text-anchor="middle" visibility="hidden" style="font-size: 13px;">R</text><text y="358" x="303.46820809248555" text-anchor="middle" visibility="hidden" style="font-size: 13px;">L</text><text y="358" x="307.514450867052" text-anchor="middle" visibility="hidden" style="font-size: 13px;">S</text><text y="358" x="311.5606936416185" text-anchor="middle" visibility="hidden" style="font-size: 13px;">K</text><text y="358" x="315.60693641618496" text-anchor="middle" visibility="hidden" style="font-size: 13px;">D</text><text y="358" x="319.6531791907514" text-anchor="middle" visibility="hidden" style="font-size: 13px;">V</text><text y="358" x="323.6994219653179" text-anchor="middle" visibility="hidden" style="font-size: 13px;">R</text><text y="358" x="327.7456647398844" text-anchor="middle" visibility="hidden" style="font-size: 13px;">E</text><text y="358" x="331.7919075144509" text-anchor="middle" visibility="hidden" style="font-size: 13px;">A</text><text y="358" x="335.83815028901734" text-anchor="middle" visibility="hidden" style="font-size: 13px;">P</text><text y="358" x="339.8843930635838" text-anchor="middle" visibility="hidden" style="font-size: 13px;">V</text><text y="358" x="343.9306358381503" text-anchor="middle" visibility="hidden" style="font-size: 13px;">P</text><text y="358" x="347.97687861271675" text-anchor="middle" visibility="hidden" style="font-size: 13px;">S</text><text y="358" x="352.02312138728325" text-anchor="middle" visibility="hidden" style="font-size: 13px;">L</text><text y="358" x="356.0693641618497" text-anchor="middle" visibility="hidden" style="font-size: 13px;">H</text><text y="358" x="360.1156069364162" text-anchor="middle" visibility="hidden" style="font-size: 13px;">L</text><text y="358" x="364.1618497109826" text-anchor="middle" visibility="hidden" style="font-size: 13px;">K</text><text y="358" x="368.2080924855491" text-anchor="middle" visibility="hidden" style="font-size: 13px;">L</text><text y="358" x="372.25433526011557" text-anchor="middle" visibility="hidden" style="font-size: 13px;">L</text><text y="358" x="376.3005780346821" text-anchor="middle" visibility="hidden" style="font-size: 13px;">S</text><text y="358" x="380.3468208092485" text-anchor="middle" visibility="hidden" style="font-size: 13px;">V</text><text y="358" x="384.39306358381504" text-anchor="middle" visibility="hidden" style="font-size: 13px;">V</text><text y="358" x="388.4393063583815" text-anchor="middle" visibility="hidden" style="font-size: 13px;">P</text><text y="358" x="392.485549132948" text-anchor="middle" visibility="hidden" style="font-size: 13px;">V</text><text y="358" x="396.5317919075145" text-anchor="middle" visibility="hidden" style="font-size: 13px;">P</text><text y="358" x="400.5780346820809" text-anchor="middle" visibility="hidden" style="font-size: 13px;">E</text><text y="358" x="404.6242774566474" text-anchor="middle" visibility="hidden" style="font-size: 13px;">G</text><text y="358" x="408.67052023121386" text-anchor="middle" visibility="hidden" style="font-size: 13px;">Y</text><text y="358" x="412.71676300578036" text-anchor="middle" visibility="hidden" style="font-size: 13px;">S</text><text y="358" x="416.7630057803468" text-anchor="middle" visibility="hidden" style="font-size: 13px;">V</text><text y="358" x="420.8092485549133" text-anchor="middle" visibility="hidden" style="font-size: 13px;">K</text><text y="358" x="424.8554913294798" text-anchor="middle" visibility="hidden" style="font-size: 13px;">C</text><text y="358" x="428.9017341040463" text-anchor="middle" visibility="hidden" style="font-size: 13px;">E</text><text y="358" x="432.9479768786127" text-anchor="middle" visibility="hidden" style="font-size: 13px;">Y</text><text y="358" x="436.9942196531792" text-anchor="middle" visibility="hidden" style="font-size: 13px;">S</text><text y="358" x="441.04046242774564" text-anchor="middle" visibility="hidden" style="font-size: 13px;">A</text><text y="358" x="445.08670520231215" text-anchor="middle" visibility="hidden" style="font-size: 13px;">H</text><text y="358" x="449.1329479768786" text-anchor="middle" visibility="hidden" style="font-size: 13px;">K</text><text y="358" x="453.1791907514451" text-anchor="middle" visibility="hidden" style="font-size: 13px;">E</text><text y="358" x="457.2254335260115" text-anchor="middle" visibility="hidden" style="font-size: 13px;">G</text><text y="358" x="461.27167630057806" text-anchor="middle" visibility="hidden" style="font-size: 13px;">V</text><text y="358" x="465.31791907514446" text-anchor="middle" visibility="hidden" style="font-size: 13px;">L</text><text y="358" x="469.36416184971097" text-anchor="middle" visibility="hidden" style="font-size: 13px;">K</text><text y="358" x="473.4104046242775" text-anchor="middle" visibility="hidden" style="font-size: 13px;">E</text><text y="358" x="477.4566473988439" text-anchor="middle" visibility="hidden" style="font-size: 13px;">E</text><text y="358" x="481.50289017341044" text-anchor="middle" visibility="hidden" style="font-size: 13px;">I</text><text y="358" x="485.5491329479769" text-anchor="middle" visibility="hidden" style="font-size: 13px;">L</text><text y="358" x="489.5953757225434" text-anchor="middle" visibility="hidden" style="font-size: 13px;">L</text><text y="358" x="493.6416184971098" text-anchor="middle" visibility="hidden" style="font-size: 13px;">A</text><text y="358" x="497.6878612716763" text-anchor="middle" visibility="hidden" style="font-size: 13px;">C</text><text y="358" x="501.73410404624275" text-anchor="middle" visibility="hidden" style="font-size: 13px;">E</text><text y="358" x="505.78034682080926" text-anchor="middle" visibility="hidden" style="font-size: 13px;">G</text><text y="358" x="509.8265895953757" text-anchor="middle" visibility="hidden" style="font-size: 13px;">G</text><text y="358" x="513.8728323699422" text-anchor="middle" visibility="hidden" style="font-size: 13px;">T</text><text y="358" x="517.9190751445086" text-anchor="middle" visibility="hidden" style="font-size: 13px;">G</text><text y="358" x="521.9653179190751" text-anchor="middle" visibility="hidden" style="font-size: 13px;">T</text><text y="358" x="526.0115606936416" text-anchor="middle" visibility="hidden" style="font-size: 13px;">C</text><text y="358" x="530.0578034682081" text-anchor="middle" visibility="hidden" style="font-size: 13px;">V</text><text y="358" x="534.1040462427745" text-anchor="middle" visibility="hidden" style="font-size: 13px;">R</text><text y="358" x="538.150289017341" text-anchor="middle" visibility="hidden" style="font-size: 13px;">V</text><text y="358" x="542.1965317919074" text-anchor="middle" visibility="hidden" style="font-size: 13px;">T</text><text y="358" x="546.2427745664739" text-anchor="middle" visibility="hidden" style="font-size: 13px;">V</text><text y="358" x="550.2890173410404" text-anchor="middle" visibility="hidden" style="font-size: 13px;">Q</text><text y="358" x="554.335260115607" text-anchor="middle" visibility="hidden" style="font-size: 13px;">A</text><text y="358" x="558.3815028901735" text-anchor="middle" visibility="hidden" style="font-size: 13px;">R</text><text y="358" x="562.4277456647399" text-anchor="middle" visibility="hidden" style="font-size: 13px;">V</text><text y="358" x="566.4739884393064" text-anchor="middle" visibility="hidden" style="font-size: 13px;">M</text><text y="358" x="570.5202312138729" text-anchor="middle" visibility="hidden" style="font-size: 13px;">D</text><text y="358" x="574.5664739884394" text-anchor="middle" visibility="hidden" style="font-size: 13px;">R</text><text y="358" x="578.6127167630058" text-anchor="middle" visibility="hidden" style="font-size: 13px;">H</text><text y="358" x="582.6589595375723" text-anchor="middle" visibility="hidden" style="font-size: 13px;">H</text><text y="358" x="586.7052023121387" text-anchor="middle" visibility="hidden" style="font-size: 13px;">G</text><text y="358" x="590.7514450867052" text-anchor="middle" visibility="hidden" style="font-size: 13px;">T</text><text y="358" x="594.7976878612717" text-anchor="middle" visibility="hidden" style="font-size: 13px;">P</text><text y="358" x="598.8439306358382" text-anchor="middle" visibility="hidden" style="font-size: 13px;">M</text><text y="358" x="602.8901734104046" text-anchor="middle" visibility="hidden" style="font-size: 13px;">L</text><text y="358" x="606.9364161849711" text-anchor="middle" visibility="hidden" style="font-size: 13px;">L</text><text y="358" x="610.9826589595375" text-anchor="middle" visibility="hidden" style="font-size: 13px;">D</text><text y="358" x="615.028901734104" text-anchor="middle" visibility="hidden" style="font-size: 13px;">G</text><text y="358" x="619.0751445086705" text-anchor="middle" visibility="hidden" style="font-size: 13px;">V</text><text y="358" x="623.121387283237" text-anchor="middle" visibility="hidden" style="font-size: 13px;">K</text><text y="358" x="627.1676300578035" text-anchor="middle" visibility="hidden" style="font-size: 13px;">C</text><text y="358" x="631.2138728323699" text-anchor="middle" visibility="hidden" style="font-size: 13px;">V</text><text y="358" x="635.2601156069364" text-anchor="middle" visibility="hidden" style="font-size: 13px;">G</text><text y="358" x="639.3063583815028" text-anchor="middle" visibility="hidden" style="font-size: 13px;">A</text><text y="358" x="643.3526011560693" text-anchor="middle" visibility="hidden" style="font-size: 13px;">E</text><text y="358" x="647.3988439306358" text-anchor="middle" visibility="hidden" style="font-size: 13px;">L</text><text y="358" x="651.4450867052024" text-anchor="middle" visibility="hidden" style="font-size: 13px;">E</text><text y="358" x="655.4913294797688" text-anchor="middle" visibility="hidden" style="font-size: 13px;">Y</text><text y="358" x="659.5375722543353" text-anchor="middle" visibility="hidden" style="font-size: 13px;">D</text><text y="358" x="663.5838150289018" text-anchor="middle" visibility="hidden" style="font-size: 13px;">S</text><text y="358" x="667.6300578034683" text-anchor="middle" visibility="hidden" style="font-size: 13px;">E</text><text y="358" x="671.6763005780347" text-anchor="middle" visibility="hidden" style="font-size: 13px;">H</text><text y="358" x="675.7225433526012" text-anchor="middle" visibility="hidden" style="font-size: 13px;">S</text><text y="358" x="679.7687861271676" text-anchor="middle" visibility="hidden" style="font-size: 13px;">D</text><text y="358" x="683.8150289017341" text-anchor="middle" visibility="hidden" style="font-size: 13px;">W</text><text y="358" x="687.8612716763006" text-anchor="middle" visibility="hidden" style="font-size: 13px;">H</text><text y="358" x="691.9075144508671" text-anchor="middle" visibility="hidden" style="font-size: 13px;">G</text><text y="358" x="695.9537572254335" text-anchor="middle" visibility="hidden" style="font-size: 13px;">F</text><text y="358" x="700" text-anchor="middle" visibility="hidden" style="font-size: 13px;">D</text></g></g></svg><g class="xAxis" transform="translate(0,360)" fill="none" font-size="10" font-family="sans-serif" text-anchor="middle"><path class="domain" stroke="#000" d="M0.5,6V0.5H700.5V6"></path><g class="tick" opacity="1" transform="translate(77.378612716763,0)"><line stroke="#000" y2="6"></line><text fill="#000" y="9" dy="0.71em">20</text></g><g class="tick" opacity="1" transform="translate(158.30346820809248,0)"><line stroke="#000" y2="6"></line><text fill="#000" y="9" dy="0.71em">40</text></g><g class="tick" opacity="1" transform="translate(239.22832369942196,0)"><line stroke="#000" y2="6"></line><text fill="#000" y="9" dy="0.71em">60</text></g><g class="tick" opacity="1" transform="translate(320.1531791907514,0)"><line stroke="#000" y2="6"></line><text fill="#000" y="9" dy="0.71em">80</text></g><g class="tick" opacity="1" transform="translate(401.0780346820809,0)"><line stroke="#000" y2="6"></line><text fill="#000" y="9" dy="0.71em">100</text></g><g class="tick" opacity="1" transform="translate(482.00289017341044,0)"><line stroke="#000" y2="6"></line><text fill="#000" y="9" dy="0.71em">120</text></g><g class="tick" opacity="1" transform="translate(562.9277456647399,0)"><line stroke="#000" y2="6"></line><text fill="#000" y="9" dy="0.71em">140</text></g><g class="tick" opacity="1" transform="translate(643.8526011560693,0)"><line stroke="#000" y2="6"></line><text fill="#000" y="9" dy="0.71em">160</text></g></g><text class="x label" text-anchor="end" x="700" y="390" style="font-size: 13px; font-family: Arial;">Residue number</text><g class="yAxis" fill="none" font-size="10" font-family="sans-serif" text-anchor="end"><path class="domain" stroke="#000" d="M-6,360.5H0.5V0.5H-6"></path><g class="tick" opacity="1" transform="translate(0,354.8200601051841)"><line stroke="#000" x2="-6"></line><text fill="#000" x="-9" dy="0.32em"></text></g><g class="tick" opacity="1" transform="translate(0,327.77272727272725)"><line stroke="#000" x2="-6"></line><text fill="#000" x="-9" dy="0.32em">0</text></g><g class="tick" opacity="1" transform="translate(0,300.72539444027046)"><line stroke="#000" x2="-6"></line><text fill="#000" x="-9" dy="0.32em">2</text></g><g class="tick" opacity="1" transform="translate(0,273.6780616078137)"><line stroke="#000" x2="-6"></line><text fill="#000" x="-9" dy="0.32em">4</text></g><g class="tick" opacity="1" transform="translate(0,246.63072877535686)"><line stroke="#000" x2="-6"></line><text fill="#000" x="-9" dy="0.32em">6</text></g><g class="tick" opacity="1" transform="translate(0,219.58339594290007)"><line stroke="#000" x2="-6"></line><text fill="#000" x="-9" dy="0.32em">8</text></g><g class="tick" opacity="1" transform="translate(0,192.53606311044325)"><line stroke="#000" x2="-6"></line><text fill="#000" x="-9" dy="0.32em">10</text></g><g class="tick" opacity="1" transform="translate(0,165.48873027798646)"><line stroke="#000" x2="-6"></line><text fill="#000" x="-9" dy="0.32em">12</text></g><g class="tick" opacity="1" transform="translate(0,138.44139744552965)"><line stroke="#000" x2="-6"></line><text fill="#000" x="-9" dy="0.32em">14</text></g><g class="tick" opacity="1" transform="translate(0,111.39406461307283)"><line stroke="#000" x2="-6"></line><text fill="#000" x="-9" dy="0.32em">16</text></g><g class="tick" opacity="1" transform="translate(0,84.34673178061604)"><line stroke="#000" x2="-6"></line><text fill="#000" x="-9" dy="0.32em">18</text></g><g class="tick" opacity="1" transform="translate(0,57.29939894815925)"><line stroke="#000" x2="-6"></line><text fill="#000" x="-9" dy="0.32em">20</text></g><g class="tick" opacity="1" transform="translate(0,30.252066115702405)"><line stroke="#000" x2="-6"></line><text fill="#000" x="-9" dy="0.32em">22</text></g><g class="tick" opacity="1" transform="translate(0,3.2047332832456163)"><line stroke="#000" x2="-6"></line><text fill="#000" x="-9" dy="0.32em">24</text></g></g><text class="y label" text-anchor="middle" y="-50" x="-180" dy="0.8em" transform="rotate(-90)" style="font-size: 13px; font-family: Arial;">Total number of references</text><g class="axisRed" fill="none" font-size="10" font-family="sans-serif" text-anchor="start" visibility="hidden" transform="translate(700, 0)"><path class="domain" stroke="#000" d="M6,360.5H0.5V0.5H6"></path><g class="tick" opacity="1" transform="translate(0,360.5)"><line stroke="#000" x2="6"></line><text fill="#000" x="9" dy="0.32em">0</text></g><text text-anchor="start" dx="5.2em" dy="-2.6em" transform="rotate(90)" visibility="hidden" style="font-size: 12px; font-family: Arial; fill: #d7301f;">No recurrent (&gt;2) missense mutations!</text></g><g class="axisPurple" fill="none" font-size="10" font-family="sans-serif" text-anchor="start" visibility="hidden"><path class="domain" stroke="#000" d="M6,360.5H0.5V0.5H6"></path><g class="tick" opacity="1" transform="translate(0,357.52479338842977)"><line stroke="#000" x2="6"></line><text fill="#000" x="9" dy="0.32em"></text></g><g class="tick" opacity="1" transform="translate(0,327.77272727272725)"><line stroke="#000" x2="6"></line><text fill="#000" x="9" dy="0.32em">0</text></g><g class="tick" opacity="1" transform="translate(0,298.0206611570248)"><line stroke="#000" x2="6"></line><text fill="#000" x="9" dy="0.32em">0.1</text></g><g class="tick" opacity="1" transform="translate(0,268.2685950413223)"><line stroke="#000" x2="6"></line><text fill="#000" x="9" dy="0.32em">0.2</text></g><g class="tick" opacity="1" transform="translate(0,238.51652892561984)"><line stroke="#000" x2="6"></line><text fill="#000" x="9" dy="0.32em">0.3</text></g><g class="tick" opacity="1" transform="translate(0,208.76446280991738)"><line stroke="#000" x2="6"></line><text fill="#000" x="9" dy="0.32em">0.4</text></g><g class="tick" opacity="1" transform="translate(0,179.0123966942149)"><line stroke="#000" x2="6"></line><text fill="#000" x="9" dy="0.32em">0.5</text></g><g class="tick" opacity="1" transform="translate(0,149.26033057851242)"><line stroke="#000" x2="6"></line><text fill="#000" x="9" dy="0.32em">0.6</text></g><g class="tick" opacity="1" transform="translate(0,119.50826446280996)"><line stroke="#000" x2="6"></line><text fill="#000" x="9" dy="0.32em">0.7</text></g><g class="tick" opacity="1" transform="translate(0,89.75619834710744)"><line stroke="#000" x2="6"></line><text fill="#000" x="9" dy="0.32em">0.8</text></g><g class="tick" opacity="1" transform="translate(0,60.00413223140498)"><line stroke="#000" x2="6"></line><text fill="#000" x="9" dy="0.32em">0.9</text></g><g class="tick" opacity="1" transform="translate(0,30.25206611570252)"><line stroke="#000" x2="6"></line><text fill="#000" x="9" dy="0.32em">1</text></g><g class="tick" opacity="1" transform="translate(0,0.5)"><line stroke="#000" x2="6"></line><text fill="#000" x="9" dy="0.32em">1.1</text></g><text text-anchor="start" x="10" y="10" visibility="hidden" style="font-size: 12px; font-family: Arial; fill: #807dba;">No disease causing germline SNPs known!</text></g><circle cx="636" cy="15" r="10" class="compassNav" style="fill: #ffffff; stroke: #666666; stroke-width: 1px;"></circle><path d="M440.935 12.574l3.966 82.766C399.416 41.904 331.674 8 256 8 134.813 8 33.933 94.924 12.296 209.824 10.908 217.193 16.604 224 24.103 224h49.084c5.57 0 10.377-3.842 11.676-9.259C103.407 137.408 172.931 80 256 80c60.893 0 114.512 30.856 146.104 77.801l-101.53-4.865c-6.845-.328-12.574 5.133-12.574 11.986v47.411c0 6.627 5.373 12 12 12h200.333c6.627 0 12-5.373 12-12V12c0-6.627-5.373-12-12-12h-47.411c-6.853 0-12.315 5.729-11.987 12.574zM256 432c-60.895 0-114.517-30.858-146.109-77.805l101.868 4.871c6.845.327 12.573-5.134 12.573-11.986v-47.412c0-6.627-5.373-12-12-12H12c-6.627 0-12 5.373-12 12V500c0 6.627 5.373 12 12 12h47.385c6.863 0 12.328-5.745 11.985-12.599l-4.129-82.575C112.725 470.166 180.405 504 256 504c121.187 0 222.067-86.924 243.704-201.824 1.388-7.369-4.308-14.176-11.807-14.176h-49.084c-5.57 0-10.377 3.842-11.676 9.259C408.593 374.592 339.069 432 256 432z" class="compassNav" transform="translate(631, 10) scale(0.02)" style="fill: #666666; stroke: #666666; stroke-width: 1px;"></path><circle cx="658" cy="15" r="10" class="compassNav" style="fill: #ffffff; stroke: #666666; stroke-width: 1px;"></circle><line class="compassNav" stroke-width="2" stroke="#666666" x1="654" y1="15" x2="662" y2="15"></line><line class="compassNav" stroke-width="2" stroke="#666666" x1="658" y1="11" x2="658" y2="19"></line><circle cx="614" cy="15" r="10" class="compassNav" style="fill: #ffffff; stroke: #666666; stroke-width: 1px;"></circle><line class="compassNav" stroke-width="2" stroke="#666666" x1="610" y1="15" x2="618" y2="15"></line><path d="M582 14 l20 -12 a100,40 0 0,0 0,24z" class="compassNav" style="fill: #ffffff; stroke: #666666; stroke-width: 1px;"></path><path d="M690 14 l-20 -12 a100,40 0 0,1 0,24z" class="compassNav" style="fill: #ffffff; stroke: #666666; stroke-width: 1px;"></path><path d="M216 0h80c13.3 0 24 10.7 24 24v168h87.7c17.8 0 26.7 21.5 14.1 34.1L269.7 378.3c-7.5 7.5-19.8 7.5-27.3 0L90.1 226.1c-12.6-12.6-3.7-34.1 14.1-34.1H192V24c0-13.3 10.7-24 24-24zm296 376v112c0 13.3-10.7 24-24 24H24c-13.3 0-24-10.7-24-24V376c0-13.3 10.7-24 24-24h146.7l49 49c20.1 20.1 52.5 20.1 72.6 0l49-49H488c13.3 0 24 10.7 24 24zm-124 88c0-11-9-20-20-20s-20 9-20 20 9 20 20 20 20-9 20-20zm64 0c0-11-9-20-20-20s-20 9-20 20 9 20 20 20 20-9 20-20z" class="compassNav" transform="translate(552,0) scale(0.05)" style="fill: #336699; stroke: #336699; stroke-width: 1px; cursor: pointer;"></path></g></svg>