<svg width="800" height="400" style="background-color: white;"><g transform="translate(50,0)"><svg width="700" height="360"><g style="-webkit-tap-highlight-color: rgba(0, 0, 0, 0);"><rect width="700" height="360" style="fill: #ffffff;"></rect><g id="lines"><line class="line" stroke-width="1" stroke="#d7301f" x1="-290.94650205761315" y1="333" x2="-290.94650205761315" y2="360" visibility="hidden" style="stroke-dasharray: 3px, 3px;"></line></g><g><rect x="-295.94650205761315" y="355" width="10" height="10" visibility="hidden" style="fill: #ffffff; stroke: #d7301f;"></rect></g><g id="lines"><line class="line" stroke-width="1" stroke="#6a51a3" x1="-290.94650205761315" y1="333" x2="-290.94650205761315" y2="327.27272727272725" visibility="hidden" style="stroke-dasharray: 3px, 3px;"></line></g><g><rect x="-295.94650205761315" y="322.27272727272725" width="10" height="10" visibility="hidden" style="fill: #ffffff; stroke: #6a51a3;"></rect></g><g id="lines"><line class="line" stroke-width="1" stroke="#666666" x1="8.641975308641975" y1="333" x2="8.641975308641975" y2="308.6776859504132"></line><line class="line" stroke-width="1" stroke="#666666" x1="95.06172839506172" y1="333" x2="95.06172839506172" y2="252.8925619834711"></line><line class="line" stroke-width="1" stroke="#666666" x1="132.5102880658436" y1="333" x2="132.5102880658436" y2="308.6776859504132"></line><line class="line" stroke-width="1" stroke="#666666" x1="149.79423868312756" y1="333" x2="149.79423868312756" y2="308.6776859504132"></line><line class="line" stroke-width="1" stroke="#666666" x1="152.67489711934158" y1="333" x2="152.67489711934158" y2="290.08264462809916"></line><line class="line" stroke-width="1" stroke="#666666" x1="155.55555555555554" y1="333" x2="155.55555555555554" y2="290.08264462809916"></line><line class="line" stroke-width="1" stroke="#666666" x1="201.64609053497944" y1="333" x2="201.64609053497944" y2="308.6776859504132"></line><line class="line" stroke-width="1" stroke="#666666" x1="244.8559670781893" y1="333" x2="244.8559670781893" y2="252.8925619834711"></line><line class="line" stroke-width="1" stroke="#666666" x1="299.5884773662551" y1="333" x2="299.5884773662551" y2="29.75206611570252"></line><line class="line" stroke-width="1" stroke="#666666" x1="311.1111111111111" y1="333" x2="311.1111111111111" y2="308.6776859504132"></line><line class="line" stroke-width="1" stroke="#666666" x1="311.1111111111111" y1="333" x2="311.1111111111111" y2="234.29752066115702"></line><line class="line" stroke-width="1" stroke="#666666" x1="443.62139917695475" y1="333" x2="443.62139917695475" y2="308.6776859504132"></line><line class="line" stroke-width="1" stroke="#666666" x1="472.42798353909467" y1="333" x2="472.42798353909467" y2="308.6776859504132"></line><line class="line" stroke-width="1" stroke="#666666" x1="472.42798353909467" y1="333" x2="472.42798353909467" y2="308.6776859504132"></line><line class="line" stroke-width="1" stroke="#666666" x1="602.0576131687243" y1="333" x2="602.0576131687243" y2="308.6776859504132"></line><line class="line" stroke-width="1" stroke="#666666" x1="602.0576131687243" y1="333" x2="602.0576131687243" y2="308.6776859504132"></line><line class="line" stroke-width="1" stroke="#666666" x1="602.0576131687243" y1="333" x2="602.0576131687243" y2="308.6776859504132"></line><line class="line" stroke-width="1" stroke="#666666" x1="619.3415637860082" y1="333" x2="619.3415637860082" y2="308.6776859504132"></line><line class="line" stroke-width="1" stroke="#666666" x1="625.1028806584362" y1="333" x2="625.1028806584362" y2="271.4876033057851"></line><line class="line" stroke-width="1" stroke="#666666" x1="627.9835390946503" y1="333" x2="627.9835390946503" y2="308.6776859504132"></line><line class="line" stroke-width="1" stroke="#666666" x1="627.9835390946503" y1="333" x2="627.9835390946503" y2="290.08264462809916"></line><line class="line" stroke-width="1" stroke="#666666" x1="633.7448559670781" y1="333" x2="633.7448559670781" y2="308.6776859504132"></line></g><g id="circles"><circle r="4" cx="8.641975308641975" cy="308.6776859504132" style="fill: #4393c3; stroke: #666666; stroke-width: 1px;"></circle><circle r="4" cx="95.06172839506172" cy="252.8925619834711" style="fill: #bf812d; stroke: #666666; stroke-width: 1px;"></circle><circle r="4" cx="132.5102880658436" cy="308.6776859504132" style="fill: #4393c3; stroke: #666666; stroke-width: 1px;"></circle><circle r="4" cx="149.79423868312756" cy="308.6776859504132" style="fill: #4393c3; stroke: #666666; stroke-width: 1px;"></circle><circle r="4" cx="152.67489711934158" cy="290.08264462809916" style="fill: #5aae61; stroke: #666666; stroke-width: 1px;"></circle><circle r="4" cx="155.55555555555554" cy="290.08264462809916" style="fill: #bf812d; stroke: #666666; stroke-width: 1px;"></circle><circle r="4" cx="201.64609053497944" cy="308.6776859504132" style="fill: #bf812d; stroke: #666666; stroke-width: 1px;"></circle><circle r="4" cx="244.8559670781893" cy="252.8925619834711" style="fill: #bf812d; stroke: #666666; stroke-width: 1px;"></circle><circle r="4" cx="299.5884773662551" cy="29.75206611570252" style="fill: #bf812d; stroke: #666666; stroke-width: 1px;"></circle><circle r="4" cx="311.1111111111111" cy="308.6776859504132" style="fill: #5aae61; stroke: #666666; stroke-width: 1px;"></circle><circle r="4" cx="311.1111111111111" cy="234.29752066115702" style="fill: #bf812d; stroke: #666666; stroke-width: 1px;"></circle><circle r="4" cx="443.62139917695475" cy="308.6776859504132" style="fill: #5aae61; stroke: #666666; stroke-width: 1px;"></circle><circle r="4" cx="472.42798353909467" cy="308.6776859504132" style="fill: #5aae61; stroke: #666666; stroke-width: 1px;"></circle><circle r="4" cx="472.42798353909467" cy="308.6776859504132" style="fill: #bf812d; stroke: #666666; stroke-width: 1px;"></circle><circle r="4" cx="602.0576131687243" cy="308.6776859504132" style="fill: #5aae61; stroke: #666666; stroke-width: 1px;"></circle><circle r="4" cx="602.0576131687243" cy="308.6776859504132" style="fill: #bf812d; stroke: #666666; stroke-width: 1px;"></circle><circle r="4" cx="602.0576131687243" cy="308.6776859504132" style="fill: #666666; stroke: #666666; stroke-width: 1px;"></circle><circle r="4" cx="619.3415637860082" cy="308.6776859504132" style="fill: #4393c3; stroke: #666666; stroke-width: 1px;"></circle><circle r="4" cx="625.1028806584362" cy="271.4876033057851" style="fill: #4393c3; stroke: #666666; stroke-width: 1px;"></circle><circle r="4" cx="627.9835390946503" cy="308.6776859504132" style="fill: #5aae61; stroke: #666666; stroke-width: 1px;"></circle><circle r="4" cx="627.9835390946503" cy="290.08264462809916" style="fill: #bf812d; stroke: #666666; stroke-width: 1px;"></circle><circle r="4" cx="633.7448559670781" cy="308.6776859504132" style="fill: #5aae61; stroke: #666666; stroke-width: 1px;"></circle></g><g><rect x="0" y="333" width="700" height="12" style="fill: #ffffff; stroke-width: 1px; stroke: #666666;"></rect><rect x="213.1687242798354" y="333" width="279.42386831275724" height="12" style="fill: #aec7e8; stroke-width: 1px; stroke: #666666;"></rect></g><g><a target="_blank" xlink:href="http://pfam.xfam.org/family/"><text y="343" x="350" text-anchor="middle" style="color: rgb(102, 102, 102); font-weight: normal; font-size: 12px; font-family: Arial; cursor: pointer;"></text></a><a target="_blank" xlink:href="http://pfam.xfam.org/family/Methyltransf_11"><text y="343" x="352.880658436214" text-anchor="middle" style="color: rgb(102, 102, 102); font-weight: normal; font-size: 12px; font-family: Arial; cursor: pointer;">Methyltransf_11</text></a></g><g><text y="358" x="0" text-anchor="middle" visibility="hidden" style="font-size: 13px;">M</text><text y="358" x="2.880658436213992" text-anchor="middle" visibility="hidden" style="font-size: 13px;">E</text><text y="358" x="5.761316872427984" text-anchor="middle" visibility="hidden" style="font-size: 13px;">L</text><text y="358" x="8.641975308641975" text-anchor="middle" visibility="hidden" style="font-size: 13px;">T</text><text y="358" x="11.522633744855968" text-anchor="middle" visibility="hidden" style="font-size: 13px;">I</text><text y="358" x="14.40329218106996" text-anchor="middle" visibility="hidden" style="font-size: 13px;">F</text><text y="358" x="17.28395061728395" text-anchor="middle" visibility="hidden" style="font-size: 13px;">I</text><text y="358" x="20.164609053497944" text-anchor="middle" visibility="hidden" style="font-size: 13px;">L</text><text y="358" x="23.045267489711936" text-anchor="middle" visibility="hidden" style="font-size: 13px;">R</text><text y="358" x="25.925925925925924" text-anchor="middle" visibility="hidden" style="font-size: 13px;">L</text><text y="358" x="28.80658436213992" text-anchor="middle" visibility="hidden" style="font-size: 13px;">A</text><text y="358" x="31.68724279835391" text-anchor="middle" visibility="hidden" style="font-size: 13px;">I</text><text y="358" x="34.5679012345679" text-anchor="middle" visibility="hidden" style="font-size: 13px;">Y</text><text y="358" x="37.44855967078189" text-anchor="middle" visibility="hidden" style="font-size: 13px;">I</text><text y="358" x="40.32921810699589" text-anchor="middle" visibility="hidden" style="font-size: 13px;">L</text><text y="358" x="43.20987654320987" text-anchor="middle" visibility="hidden" style="font-size: 13px;">T</text><text y="358" x="46.09053497942387" text-anchor="middle" visibility="hidden" style="font-size: 13px;">F</text><text y="358" x="48.97119341563786" text-anchor="middle" visibility="hidden" style="font-size: 13px;">P</text><text y="358" x="51.85185185185185" text-anchor="middle" visibility="hidden" style="font-size: 13px;">L</text><text y="358" x="54.732510288065846" text-anchor="middle" visibility="hidden" style="font-size: 13px;">Y</text><text y="358" x="57.61316872427984" text-anchor="middle" visibility="hidden" style="font-size: 13px;">L</text><text y="358" x="60.49382716049382" text-anchor="middle" visibility="hidden" style="font-size: 13px;">L</text><text y="358" x="63.37448559670782" text-anchor="middle" visibility="hidden" style="font-size: 13px;">N</text><text y="358" x="66.2551440329218" text-anchor="middle" visibility="hidden" style="font-size: 13px;">F</text><text y="358" x="69.1358024691358" text-anchor="middle" visibility="hidden" style="font-size: 13px;">L</text><text y="358" x="72.0164609053498" text-anchor="middle" visibility="hidden" style="font-size: 13px;">G</text><text y="358" x="74.89711934156378" text-anchor="middle" visibility="hidden" style="font-size: 13px;">L</text><text y="358" x="77.77777777777777" text-anchor="middle" visibility="hidden" style="font-size: 13px;">W</text><text y="358" x="80.65843621399178" text-anchor="middle" visibility="hidden" style="font-size: 13px;">S</text><text y="358" x="83.53909465020575" text-anchor="middle" visibility="hidden" style="font-size: 13px;">W</text><text y="358" x="86.41975308641975" text-anchor="middle" visibility="hidden" style="font-size: 13px;">I</text><text y="358" x="89.30041152263375" text-anchor="middle" visibility="hidden" style="font-size: 13px;">C</text><text y="358" x="92.18106995884774" text-anchor="middle" visibility="hidden" style="font-size: 13px;">K</text><text y="358" x="95.06172839506172" text-anchor="middle" visibility="hidden" style="font-size: 13px;">K</text><text y="358" x="97.94238683127573" text-anchor="middle" visibility="hidden" style="font-size: 13px;">W</text><text y="358" x="100.82304526748972" text-anchor="middle" visibility="hidden" style="font-size: 13px;">F</text><text y="358" x="103.7037037037037" text-anchor="middle" visibility="hidden" style="font-size: 13px;">P</text><text y="358" x="106.5843621399177" text-anchor="middle" visibility="hidden" style="font-size: 13px;">Y</text><text y="358" x="109.46502057613169" text-anchor="middle" visibility="hidden" style="font-size: 13px;">F</text><text y="358" x="112.34567901234567" text-anchor="middle" visibility="hidden" style="font-size: 13px;">L</text><text y="358" x="115.22633744855968" text-anchor="middle" visibility="hidden" style="font-size: 13px;">V</text><text y="358" x="118.10699588477367" text-anchor="middle" visibility="hidden" style="font-size: 13px;">R</text><text y="358" x="120.98765432098764" text-anchor="middle" visibility="hidden" style="font-size: 13px;">F</text><text y="358" x="123.86831275720165" text-anchor="middle" visibility="hidden" style="font-size: 13px;">T</text><text y="358" x="126.74897119341564" text-anchor="middle" visibility="hidden" style="font-size: 13px;">V</text><text y="358" x="129.62962962962962" text-anchor="middle" visibility="hidden" style="font-size: 13px;">I</text><text y="358" x="132.5102880658436" text-anchor="middle" visibility="hidden" style="font-size: 13px;">Y</text><text y="358" x="135.39094650205763" text-anchor="middle" visibility="hidden" style="font-size: 13px;">N</text><text y="358" x="138.2716049382716" text-anchor="middle" visibility="hidden" style="font-size: 13px;">E</text><text y="358" x="141.15226337448559" text-anchor="middle" visibility="hidden" style="font-size: 13px;">Q</text><text y="358" x="144.0329218106996" text-anchor="middle" visibility="hidden" style="font-size: 13px;">M</text><text y="358" x="146.91358024691357" text-anchor="middle" visibility="hidden" style="font-size: 13px;">A</text><text y="358" x="149.79423868312756" text-anchor="middle" visibility="hidden" style="font-size: 13px;">S</text><text y="358" x="152.67489711934158" text-anchor="middle" visibility="hidden" style="font-size: 13px;">K</text><text y="358" x="155.55555555555554" text-anchor="middle" visibility="hidden" style="font-size: 13px;">K</text><text y="358" x="158.43621399176953" text-anchor="middle" visibility="hidden" style="font-size: 13px;">R</text><text y="358" x="161.31687242798355" text-anchor="middle" visibility="hidden" style="font-size: 13px;">E</text><text y="358" x="164.19753086419752" text-anchor="middle" visibility="hidden" style="font-size: 13px;">L</text><text y="358" x="167.0781893004115" text-anchor="middle" visibility="hidden" style="font-size: 13px;">F</text><text y="358" x="169.95884773662553" text-anchor="middle" visibility="hidden" style="font-size: 13px;">S</text><text y="358" x="172.8395061728395" text-anchor="middle" visibility="hidden" style="font-size: 13px;">N</text><text y="358" x="175.7201646090535" text-anchor="middle" visibility="hidden" style="font-size: 13px;">L</text><text y="358" x="178.6008230452675" text-anchor="middle" visibility="hidden" style="font-size: 13px;">Q</text><text y="358" x="181.48148148148147" text-anchor="middle" visibility="hidden" style="font-size: 13px;">E</text><text y="358" x="184.3621399176955" text-anchor="middle" visibility="hidden" style="font-size: 13px;">F</text><text y="358" x="187.24279835390948" text-anchor="middle" visibility="hidden" style="font-size: 13px;">A</text><text y="358" x="190.12345679012344" text-anchor="middle" visibility="hidden" style="font-size: 13px;">G</text><text y="358" x="193.00411522633746" text-anchor="middle" visibility="hidden" style="font-size: 13px;">P</text><text y="358" x="195.88477366255145" text-anchor="middle" visibility="hidden" style="font-size: 13px;">S</text><text y="358" x="198.76543209876542" text-anchor="middle" visibility="hidden" style="font-size: 13px;">G</text><text y="358" x="201.64609053497944" text-anchor="middle" visibility="hidden" style="font-size: 13px;">K</text><text y="358" x="204.52674897119343" text-anchor="middle" visibility="hidden" style="font-size: 13px;">L</text><text y="358" x="207.4074074074074" text-anchor="middle" visibility="hidden" style="font-size: 13px;">S</text><text y="358" x="210.2880658436214" text-anchor="middle" visibility="hidden" style="font-size: 13px;">L</text><text y="358" x="213.1687242798354" text-anchor="middle" visibility="hidden" style="font-size: 13px;">L</text><text y="358" x="216.04938271604937" text-anchor="middle" visibility="hidden" style="font-size: 13px;">E</text><text y="358" x="218.93004115226339" text-anchor="middle" visibility="hidden" style="font-size: 13px;">V</text><text y="358" x="221.81069958847738" text-anchor="middle" visibility="hidden" style="font-size: 13px;">G</text><text y="358" x="224.69135802469134" text-anchor="middle" visibility="hidden" style="font-size: 13px;">C</text><text y="358" x="227.57201646090536" text-anchor="middle" visibility="hidden" style="font-size: 13px;">G</text><text y="358" x="230.45267489711935" text-anchor="middle" visibility="hidden" style="font-size: 13px;">T</text><text y="358" x="233.33333333333331" text-anchor="middle" visibility="hidden" style="font-size: 13px;">G</text><text y="358" x="236.21399176954733" text-anchor="middle" visibility="hidden" style="font-size: 13px;">A</text><text y="358" x="239.09465020576133" text-anchor="middle" visibility="hidden" style="font-size: 13px;">N</text><text y="358" x="241.9753086419753" text-anchor="middle" visibility="hidden" style="font-size: 13px;">F</text><text y="358" x="244.8559670781893" text-anchor="middle" visibility="hidden" style="font-size: 13px;">K</text><text y="358" x="247.7366255144033" text-anchor="middle" visibility="hidden" style="font-size: 13px;">F</text><text y="358" x="250.61728395061726" text-anchor="middle" visibility="hidden" style="font-size: 13px;">Y</text><text y="358" x="253.49794238683128" text-anchor="middle" visibility="hidden" style="font-size: 13px;">P</text><text y="358" x="256.37860082304525" text-anchor="middle" visibility="hidden" style="font-size: 13px;">P</text><text y="358" x="259.25925925925924" text-anchor="middle" visibility="hidden" style="font-size: 13px;">G</text><text y="358" x="262.1399176954733" text-anchor="middle" visibility="hidden" style="font-size: 13px;">C</text><text y="358" x="265.0205761316872" text-anchor="middle" visibility="hidden" style="font-size: 13px;">R</text><text y="358" x="267.9012345679012" text-anchor="middle" visibility="hidden" style="font-size: 13px;">V</text><text y="358" x="270.78189300411526" text-anchor="middle" visibility="hidden" style="font-size: 13px;">T</text><text y="358" x="273.6625514403292" text-anchor="middle" visibility="hidden" style="font-size: 13px;">C</text><text y="358" x="276.5432098765432" text-anchor="middle" visibility="hidden" style="font-size: 13px;">I</text><text y="358" x="279.42386831275724" text-anchor="middle" visibility="hidden" style="font-size: 13px;">D</text><text y="358" x="282.30452674897117" text-anchor="middle" visibility="hidden" style="font-size: 13px;">P</text><text y="358" x="285.18518518518516" text-anchor="middle" visibility="hidden" style="font-size: 13px;">N</text><text y="358" x="288.0658436213992" text-anchor="middle" visibility="hidden" style="font-size: 13px;">P</text><text y="358" x="290.94650205761315" text-anchor="middle" visibility="hidden" style="font-size: 13px;">N</text><text y="358" x="293.82716049382714" text-anchor="middle" visibility="hidden" style="font-size: 13px;">F</text><text y="358" x="296.7078189300412" text-anchor="middle" visibility="hidden" style="font-size: 13px;">E</text><text y="358" x="299.5884773662551" text-anchor="middle" visibility="hidden" style="font-size: 13px;">K</text><text y="358" x="302.4691358024691" text-anchor="middle" visibility="hidden" style="font-size: 13px;">F</text><text y="358" x="305.34979423868316" text-anchor="middle" visibility="hidden" style="font-size: 13px;">L</text><text y="358" x="308.2304526748971" text-anchor="middle" visibility="hidden" style="font-size: 13px;">I</text><text y="358" x="311.1111111111111" text-anchor="middle" visibility="hidden" style="font-size: 13px;">K</text><text y="358" x="313.99176954732513" text-anchor="middle" visibility="hidden" style="font-size: 13px;">S</text><text y="358" x="316.87242798353907" text-anchor="middle" visibility="hidden" style="font-size: 13px;">I</text><text y="358" x="319.75308641975306" text-anchor="middle" visibility="hidden" style="font-size: 13px;">A</text><text y="358" x="322.6337448559671" text-anchor="middle" visibility="hidden" style="font-size: 13px;">E</text><text y="358" x="325.51440329218104" text-anchor="middle" visibility="hidden" style="font-size: 13px;">N</text><text y="358" x="328.39506172839504" text-anchor="middle" visibility="hidden" style="font-size: 13px;">R</text><text y="358" x="331.2757201646091" text-anchor="middle" visibility="hidden" style="font-size: 13px;">H</text><text y="358" x="334.156378600823" text-anchor="middle" visibility="hidden" style="font-size: 13px;">L</text><text y="358" x="337.037037037037" text-anchor="middle" visibility="hidden" style="font-size: 13px;">Q</text><text y="358" x="339.91769547325106" text-anchor="middle" visibility="hidden" style="font-size: 13px;">F</text><text y="358" x="342.798353909465" text-anchor="middle" visibility="hidden" style="font-size: 13px;">E</text><text y="358" x="345.679012345679" text-anchor="middle" visibility="hidden" style="font-size: 13px;">R</text><text y="358" x="348.55967078189303" text-anchor="middle" visibility="hidden" style="font-size: 13px;">F</text><text y="358" x="351.440329218107" text-anchor="middle" visibility="hidden" style="font-size: 13px;">V</text><text y="358" x="354.320987654321" text-anchor="middle" visibility="hidden" style="font-size: 13px;">V</text><text y="358" x="357.201646090535" text-anchor="middle" visibility="hidden" style="font-size: 13px;">A</text><text y="358" x="360.08230452674894" text-anchor="middle" visibility="hidden" style="font-size: 13px;">A</text><text y="358" x="362.96296296296293" text-anchor="middle" visibility="hidden" style="font-size: 13px;">G</text><text y="358" x="365.8436213991769" text-anchor="middle" visibility="hidden" style="font-size: 13px;">E</text><text y="358" x="368.724279835391" text-anchor="middle" visibility="hidden" style="font-size: 13px;">N</text><text y="358" x="371.60493827160496" text-anchor="middle" visibility="hidden" style="font-size: 13px;">M</text><text y="358" x="374.48559670781896" text-anchor="middle" visibility="hidden" style="font-size: 13px;">H</text><text y="358" x="377.3662551440329" text-anchor="middle" visibility="hidden" style="font-size: 13px;">Q</text><text y="358" x="380.2469135802469" text-anchor="middle" visibility="hidden" style="font-size: 13px;">V</text><text y="358" x="383.1275720164609" text-anchor="middle" visibility="hidden" style="font-size: 13px;">A</text><text y="358" x="386.0082304526749" text-anchor="middle" visibility="hidden" style="font-size: 13px;">D</text><text y="358" x="388.8888888888889" text-anchor="middle" visibility="hidden" style="font-size: 13px;">G</text><text y="358" x="391.7695473251029" text-anchor="middle" visibility="hidden" style="font-size: 13px;">S</text><text y="358" x="394.65020576131684" text-anchor="middle" visibility="hidden" style="font-size: 13px;">V</text><text y="358" x="397.53086419753083" text-anchor="middle" visibility="hidden" style="font-size: 13px;">D</text><text y="358" x="400.4115226337448" text-anchor="middle" visibility="hidden" style="font-size: 13px;">V</text><text y="358" x="403.2921810699589" text-anchor="middle" visibility="hidden" style="font-size: 13px;">V</text><text y="358" x="406.17283950617286" text-anchor="middle" visibility="hidden" style="font-size: 13px;">V</text><text y="358" x="409.05349794238685" text-anchor="middle" visibility="hidden" style="font-size: 13px;">C</text><text y="358" x="411.9341563786008" text-anchor="middle" visibility="hidden" style="font-size: 13px;">T</text><text y="358" x="414.8148148148148" text-anchor="middle" visibility="hidden" style="font-size: 13px;">L</text><text y="358" x="417.6954732510288" text-anchor="middle" visibility="hidden" style="font-size: 13px;">V</text><text y="358" x="420.5761316872428" text-anchor="middle" visibility="hidden" style="font-size: 13px;">L</text><text y="358" x="423.4567901234568" text-anchor="middle" visibility="hidden" style="font-size: 13px;">C</text><text y="358" x="426.3374485596708" text-anchor="middle" visibility="hidden" style="font-size: 13px;">S</text><text y="358" x="429.21810699588474" text-anchor="middle" visibility="hidden" style="font-size: 13px;">V</text><text y="358" x="432.09876543209873" text-anchor="middle" visibility="hidden" style="font-size: 13px;">K</text><text y="358" x="434.9794238683127" text-anchor="middle" visibility="hidden" style="font-size: 13px;">N</text><text y="358" x="437.86008230452677" text-anchor="middle" visibility="hidden" style="font-size: 13px;">Q</text><text y="358" x="440.74074074074076" text-anchor="middle" visibility="hidden" style="font-size: 13px;">E</text><text y="358" x="443.62139917695475" text-anchor="middle" visibility="hidden" style="font-size: 13px;">R</text><text y="358" x="446.5020576131687" text-anchor="middle" visibility="hidden" style="font-size: 13px;">I</text><text y="358" x="449.3827160493827" text-anchor="middle" visibility="hidden" style="font-size: 13px;">L</text><text y="358" x="452.26337448559667" text-anchor="middle" visibility="hidden" style="font-size: 13px;">R</text><text y="358" x="455.1440329218107" text-anchor="middle" visibility="hidden" style="font-size: 13px;">E</text><text y="358" x="458.0246913580247" text-anchor="middle" visibility="hidden" style="font-size: 13px;">V</text><text y="358" x="460.9053497942387" text-anchor="middle" visibility="hidden" style="font-size: 13px;">C</text><text y="358" x="463.78600823045264" text-anchor="middle" visibility="hidden" style="font-size: 13px;">R</text><text y="358" x="466.66666666666663" text-anchor="middle" visibility="hidden" style="font-size: 13px;">V</text><text y="358" x="469.5473251028807" text-anchor="middle" visibility="hidden" style="font-size: 13px;">L</text><text y="358" x="472.42798353909467" text-anchor="middle" visibility="hidden" style="font-size: 13px;">R</text><text y="358" x="475.30864197530866" text-anchor="middle" visibility="hidden" style="font-size: 13px;">P</text><text y="358" x="478.18930041152265" text-anchor="middle" visibility="hidden" style="font-size: 13px;">G</text><text y="358" x="481.0699588477366" text-anchor="middle" visibility="hidden" style="font-size: 13px;">G</text><text y="358" x="483.9506172839506" text-anchor="middle" visibility="hidden" style="font-size: 13px;">A</text><text y="358" x="486.8312757201646" text-anchor="middle" visibility="hidden" style="font-size: 13px;">F</text><text y="358" x="489.7119341563786" text-anchor="middle" visibility="hidden" style="font-size: 13px;">Y</text><text y="358" x="492.5925925925926" text-anchor="middle" visibility="hidden" style="font-size: 13px;">F</text><text y="358" x="495.4732510288066" text-anchor="middle" visibility="hidden" style="font-size: 13px;">M</text><text y="358" x="498.35390946502054" text-anchor="middle" visibility="hidden" style="font-size: 13px;">E</text><text y="358" x="501.2345679012345" text-anchor="middle" visibility="hidden" style="font-size: 13px;">H</text><text y="358" x="504.1152263374486" text-anchor="middle" visibility="hidden" style="font-size: 13px;">V</text><text y="358" x="506.99588477366257" text-anchor="middle" visibility="hidden" style="font-size: 13px;">A</text><text y="358" x="509.87654320987656" text-anchor="middle" visibility="hidden" style="font-size: 13px;">A</text><text y="358" x="512.7572016460905" text-anchor="middle" visibility="hidden" style="font-size: 13px;">E</text><text y="358" x="515.6378600823045" text-anchor="middle" visibility="hidden" style="font-size: 13px;">C</text><text y="358" x="518.5185185185185" text-anchor="middle" visibility="hidden" style="font-size: 13px;">S</text><text y="358" x="521.3991769547325" text-anchor="middle" visibility="hidden" style="font-size: 13px;">T</text><text y="358" x="524.2798353909466" text-anchor="middle" visibility="hidden" style="font-size: 13px;">W</text><text y="358" x="527.1604938271605" text-anchor="middle" visibility="hidden" style="font-size: 13px;">N</text><text y="358" x="530.0411522633744" text-anchor="middle" visibility="hidden" style="font-size: 13px;">Y</text><text y="358" x="532.9218106995885" text-anchor="middle" visibility="hidden" style="font-size: 13px;">F</text><text y="358" x="535.8024691358024" text-anchor="middle" visibility="hidden" style="font-size: 13px;">W</text><text y="358" x="538.6831275720165" text-anchor="middle" visibility="hidden" style="font-size: 13px;">Q</text><text y="358" x="541.5637860082305" text-anchor="middle" visibility="hidden" style="font-size: 13px;">Q</text><text y="358" x="544.4444444444445" text-anchor="middle" visibility="hidden" style="font-size: 13px;">V</text><text y="358" x="547.3251028806584" text-anchor="middle" visibility="hidden" style="font-size: 13px;">L</text><text y="358" x="550.2057613168724" text-anchor="middle" visibility="hidden" style="font-size: 13px;">D</text><text y="358" x="553.0864197530864" text-anchor="middle" visibility="hidden" style="font-size: 13px;">P</text><text y="358" x="555.9670781893004" text-anchor="middle" visibility="hidden" style="font-size: 13px;">A</text><text y="358" x="558.8477366255145" text-anchor="middle" visibility="hidden" style="font-size: 13px;">W</text><text y="358" x="561.7283950617284" text-anchor="middle" visibility="hidden" style="font-size: 13px;">H</text><text y="358" x="564.6090534979423" text-anchor="middle" visibility="hidden" style="font-size: 13px;">L</text><text y="358" x="567.4897119341564" text-anchor="middle" visibility="hidden" style="font-size: 13px;">L</text><text y="358" x="570.3703703703703" text-anchor="middle" visibility="hidden" style="font-size: 13px;">F</text><text y="358" x="573.2510288065844" text-anchor="middle" visibility="hidden" style="font-size: 13px;">D</text><text y="358" x="576.1316872427984" text-anchor="middle" visibility="hidden" style="font-size: 13px;">G</text><text y="358" x="579.0123456790124" text-anchor="middle" visibility="hidden" style="font-size: 13px;">C</text><text y="358" x="581.8930041152263" text-anchor="middle" visibility="hidden" style="font-size: 13px;">N</text><text y="358" x="584.7736625514403" text-anchor="middle" visibility="hidden" style="font-size: 13px;">L</text><text y="358" x="587.6543209876543" text-anchor="middle" visibility="hidden" style="font-size: 13px;">T</text><text y="358" x="590.5349794238683" text-anchor="middle" visibility="hidden" style="font-size: 13px;">R</text><text y="358" x="593.4156378600824" text-anchor="middle" visibility="hidden" style="font-size: 13px;">E</text><text y="358" x="596.2962962962963" text-anchor="middle" visibility="hidden" style="font-size: 13px;">S</text><text y="358" x="599.1769547325102" text-anchor="middle" visibility="hidden" style="font-size: 13px;">W</text><text y="358" x="602.0576131687243" text-anchor="middle" visibility="hidden" style="font-size: 13px;">K</text><text y="358" x="604.9382716049382" text-anchor="middle" visibility="hidden" style="font-size: 13px;">A</text><text y="358" x="607.8189300411523" text-anchor="middle" visibility="hidden" style="font-size: 13px;">L</text><text y="358" x="610.6995884773663" text-anchor="middle" visibility="hidden" style="font-size: 13px;">E</text><text y="358" x="613.5802469135803" text-anchor="middle" visibility="hidden" style="font-size: 13px;">R</text><text y="358" x="616.4609053497942" text-anchor="middle" visibility="hidden" style="font-size: 13px;">A</text><text y="358" x="619.3415637860082" text-anchor="middle" visibility="hidden" style="font-size: 13px;">S</text><text y="358" x="622.2222222222222" text-anchor="middle" visibility="hidden" style="font-size: 13px;">F</text><text y="358" x="625.1028806584362" text-anchor="middle" visibility="hidden" style="font-size: 13px;">S</text><text y="358" x="627.9835390946503" text-anchor="middle" visibility="hidden" style="font-size: 13px;">K</text><text y="358" x="630.8641975308642" text-anchor="middle" visibility="hidden" style="font-size: 13px;">L</text><text y="358" x="633.7448559670781" text-anchor="middle" visibility="hidden" style="font-size: 13px;">K</text><text y="358" x="636.6255144032922" text-anchor="middle" visibility="hidden" style="font-size: 13px;">L</text><text y="358" x="639.5061728395061" text-anchor="middle" visibility="hidden" style="font-size: 13px;">Q</text><text y="358" x="642.3868312757202" text-anchor="middle" visibility="hidden" style="font-size: 13px;">H</text><text y="358" x="645.2674897119342" text-anchor="middle" visibility="hidden" style="font-size: 13px;">I</text><text y="358" x="648.1481481481482" text-anchor="middle" visibility="hidden" style="font-size: 13px;">Q</text><text y="358" x="651.0288065843621" text-anchor="middle" visibility="hidden" style="font-size: 13px;">A</text><text y="358" x="653.9094650205761" text-anchor="middle" visibility="hidden" style="font-size: 13px;">P</text><text y="358" x="656.7901234567901" text-anchor="middle" visibility="hidden" style="font-size: 13px;">L</text><text y="358" x="659.6707818930041" text-anchor="middle" visibility="hidden" style="font-size: 13px;">S</text><text y="358" x="662.5514403292182" text-anchor="middle" visibility="hidden" style="font-size: 13px;">W</text><text y="358" x="665.4320987654321" text-anchor="middle" visibility="hidden" style="font-size: 13px;">E</text><text y="358" x="668.312757201646" text-anchor="middle" visibility="hidden" style="font-size: 13px;">L</text><text y="358" x="671.1934156378601" text-anchor="middle" visibility="hidden" style="font-size: 13px;">V</text><text y="358" x="674.074074074074" text-anchor="middle" visibility="hidden" style="font-size: 13px;">R</text><text y="358" x="676.9547325102881" text-anchor="middle" visibility="hidden" style="font-size: 13px;">P</text><text y="358" x="679.8353909465021" text-anchor="middle" visibility="hidden" style="font-size: 13px;">H</text><text y="358" x="682.716049382716" text-anchor="middle" visibility="hidden" style="font-size: 13px;">I</text><text y="358" x="685.59670781893" text-anchor="middle" visibility="hidden" style="font-size: 13px;">Y</text><text y="358" x="688.477366255144" text-anchor="middle" visibility="hidden" style="font-size: 13px;">G</text><text y="358" x="691.358024691358" text-anchor="middle" visibility="hidden" style="font-size: 13px;">Y</text><text y="358" x="694.238683127572" text-anchor="middle" visibility="hidden" style="font-size: 13px;">A</text><text y="358" x="697.1193415637861" text-anchor="middle" visibility="hidden" style="font-size: 13px;">V</text><text y="358" x="700" text-anchor="middle" visibility="hidden" style="font-size: 13px;">K</text></g></g></svg><g class="xAxis" transform="translate(0,360)" fill="none" font-size="10" font-family="sans-serif" text-anchor="middle"><path class="domain" stroke="#000" d="M0.5,6V0.5H700.5V6"></path><g class="tick" opacity="1" transform="translate(55.232510288065846,0)"><line stroke="#000" y2="6"></line><text fill="#000" y="9" dy="0.71em">20</text></g><g class="tick" opacity="1" transform="translate(112.84567901234567,0)"><line stroke="#000" y2="6"></line><text fill="#000" y="9" dy="0.71em">40</text></g><g class="tick" opacity="1" transform="translate(170.45884773662553,0)"><line stroke="#000" y2="6"></line><text fill="#000" y="9" dy="0.71em">60</text></g><g class="tick" opacity="1" transform="translate(228.07201646090536,0)"><line stroke="#000" y2="6"></line><text fill="#000" y="9" dy="0.71em">80</text></g><g class="tick" opacity="1" transform="translate(285.68518518518516,0)"><line stroke="#000" y2="6"></line><text fill="#000" y="9" dy="0.71em">100</text></g><g class="tick" opacity="1" transform="translate(343.298353909465,0)"><line stroke="#000" y2="6"></line><text fill="#000" y="9" dy="0.71em">120</text></g><g class="tick" opacity="1" transform="translate(400.9115226337448,0)"><line stroke="#000" y2="6"></line><text fill="#000" y="9" dy="0.71em">140</text></g><g class="tick" opacity="1" transform="translate(458.5246913580247,0)"><line stroke="#000" y2="6"></line><text fill="#000" y="9" dy="0.71em">160</text></g><g class="tick" opacity="1" transform="translate(516.1378600823045,0)"><line stroke="#000" y2="6"></line><text fill="#000" y="9" dy="0.71em">180</text></g><g class="tick" opacity="1" transform="translate(573.7510288065844,0)"><line stroke="#000" y2="6"></line><text fill="#000" y="9" dy="0.71em">200</text></g><g class="tick" opacity="1" transform="translate(631.3641975308642,0)"><line stroke="#000" y2="6"></line><text fill="#000" y="9" dy="0.71em">220</text></g><g class="tick" opacity="1" transform="translate(688.977366255144,0)"><line stroke="#000" y2="6"></line><text fill="#000" y="9" dy="0.71em">240</text></g></g><text class="x label" text-anchor="end" x="700" y="390" style="font-size: 13px; font-family: Arial;">Residue number</text><g class="yAxis" fill="none" font-size="10" font-family="sans-serif" text-anchor="end"><path class="domain" stroke="#000" d="M-6,360.5H0.5V0.5H-6"></path><g class="tick" opacity="1" transform="translate(0,327.77272727272725)"><line stroke="#000" x2="-6"></line><text fill="#000" x="-9" dy="0.32em">0</text></g><g class="tick" opacity="1" transform="translate(0,290.58264462809916)"><line stroke="#000" x2="-6"></line><text fill="#000" x="-9" dy="0.32em">2</text></g><g class="tick" opacity="1" transform="translate(0,253.3925619834711)"><line stroke="#000" x2="-6"></line><text fill="#000" x="-9" dy="0.32em">4</text></g><g class="tick" opacity="1" transform="translate(0,216.202479338843)"><line stroke="#000" x2="-6"></line><text fill="#000" x="-9" dy="0.32em">6</text></g><g class="tick" opacity="1" transform="translate(0,179.0123966942149)"><line stroke="#000" x2="-6"></line><text fill="#000" x="-9" dy="0.32em">8</text></g><g class="tick" opacity="1" transform="translate(0,141.82231404958682)"><line stroke="#000" x2="-6"></line><text fill="#000" x="-9" dy="0.32em">10</text></g><g class="tick" opacity="1" transform="translate(0,104.63223140495873)"><line stroke="#000" x2="-6"></line><text fill="#000" x="-9" dy="0.32em">12</text></g><g class="tick" opacity="1" transform="translate(0,67.44214876033061)"><line stroke="#000" x2="-6"></line><text fill="#000" x="-9" dy="0.32em">14</text></g><g class="tick" opacity="1" transform="translate(0,30.25206611570252)"><line stroke="#000" x2="-6"></line><text fill="#000" x="-9" dy="0.32em">16</text></g></g><text class="y label" text-anchor="middle" y="-50" x="-180" dy="0.8em" transform="rotate(-90)" style="font-size: 13px; font-family: Arial;">Total number of references</text><g class="axisRed" fill="none" font-size="10" font-family="sans-serif" text-anchor="start" visibility="hidden" transform="translate(700, 0)"><path class="domain" stroke="#000" d="M6,360.5H0.5V0.5H6"></path><g class="tick" opacity="1" transform="translate(0,360.5)"><line stroke="#000" x2="6"></line><text fill="#000" x="9" dy="0.32em">0</text></g><text text-anchor="start" dx="5.2em" dy="-2.6em" transform="rotate(90)" visibility="hidden" style="font-size: 12px; font-family: Arial; fill: #d7301f;">No recurrent (&gt;2) missense mutations!</text></g><g class="axisPurple" fill="none" font-size="10" font-family="sans-serif" text-anchor="start" visibility="hidden"><path class="domain" stroke="#000" d="M6,360.5H0.5V0.5H6"></path><g class="tick" opacity="1" transform="translate(0,357.52479338842977)"><line stroke="#000" x2="6"></line><text fill="#000" x="9" dy="0.32em"></text></g><g class="tick" opacity="1" transform="translate(0,327.77272727272725)"><line stroke="#000" x2="6"></line><text fill="#000" x="9" dy="0.32em">0</text></g><g class="tick" opacity="1" transform="translate(0,298.0206611570248)"><line stroke="#000" x2="6"></line><text fill="#000" x="9" dy="0.32em">0.1</text></g><g class="tick" opacity="1" transform="translate(0,268.2685950413223)"><line stroke="#000" x2="6"></line><text fill="#000" x="9" dy="0.32em">0.2</text></g><g class="tick" opacity="1" transform="translate(0,238.51652892561984)"><line stroke="#000" x2="6"></line><text fill="#000" x="9" dy="0.32em">0.3</text></g><g class="tick" opacity="1" transform="translate(0,208.76446280991738)"><line stroke="#000" x2="6"></line><text fill="#000" x="9" dy="0.32em">0.4</text></g><g class="tick" opacity="1" transform="translate(0,179.0123966942149)"><line stroke="#000" x2="6"></line><text fill="#000" x="9" dy="0.32em">0.5</text></g><g class="tick" opacity="1" transform="translate(0,149.26033057851242)"><line stroke="#000" x2="6"></line><text fill="#000" x="9" dy="0.32em">0.6</text></g><g class="tick" opacity="1" transform="translate(0,119.50826446280996)"><line stroke="#000" x2="6"></line><text fill="#000" x="9" dy="0.32em">0.7</text></g><g class="tick" opacity="1" transform="translate(0,89.75619834710744)"><line stroke="#000" x2="6"></line><text fill="#000" x="9" dy="0.32em">0.8</text></g><g class="tick" opacity="1" transform="translate(0,60.00413223140498)"><line stroke="#000" x2="6"></line><text fill="#000" x="9" dy="0.32em">0.9</text></g><g class="tick" opacity="1" transform="translate(0,30.25206611570252)"><line stroke="#000" x2="6"></line><text fill="#000" x="9" dy="0.32em">1</text></g><g class="tick" opacity="1" transform="translate(0,0.5)"><line stroke="#000" x2="6"></line><text fill="#000" x="9" dy="0.32em">1.1</text></g><text text-anchor="start" x="10" y="10" visibility="hidden" style="font-size: 12px; font-family: Arial; fill: #807dba;">No disease causing germline SNPs known!</text></g><circle cx="636" cy="15" r="10" class="compassNav" style="fill: #ffffff; stroke: #666666; stroke-width: 1px;"></circle><path d="M440.935 12.574l3.966 82.766C399.416 41.904 331.674 8 256 8 134.813 8 33.933 94.924 12.296 209.824 10.908 217.193 16.604 224 24.103 224h49.084c5.57 0 10.377-3.842 11.676-9.259C103.407 137.408 172.931 80 256 80c60.893 0 114.512 30.856 146.104 77.801l-101.53-4.865c-6.845-.328-12.574 5.133-12.574 11.986v47.411c0 6.627 5.373 12 12 12h200.333c6.627 0 12-5.373 12-12V12c0-6.627-5.373-12-12-12h-47.411c-6.853 0-12.315 5.729-11.987 12.574zM256 432c-60.895 0-114.517-30.858-146.109-77.805l101.868 4.871c6.845.327 12.573-5.134 12.573-11.986v-47.412c0-6.627-5.373-12-12-12H12c-6.627 0-12 5.373-12 12V500c0 6.627 5.373 12 12 12h47.385c6.863 0 12.328-5.745 11.985-12.599l-4.129-82.575C112.725 470.166 180.405 504 256 504c121.187 0 222.067-86.924 243.704-201.824 1.388-7.369-4.308-14.176-11.807-14.176h-49.084c-5.57 0-10.377 3.842-11.676 9.259C408.593 374.592 339.069 432 256 432z" class="compassNav" transform="translate(631, 10) scale(0.02)" style="fill: #666666; stroke: #666666; stroke-width: 1px;"></path><circle cx="658" cy="15" r="10" class="compassNav" style="fill: #ffffff; stroke: #666666; stroke-width: 1px;"></circle><line class="compassNav" stroke-width="2" stroke="#666666" x1="654" y1="15" x2="662" y2="15"></line><line class="compassNav" stroke-width="2" stroke="#666666" x1="658" y1="11" x2="658" y2="19"></line><circle cx="614" cy="15" r="10" class="compassNav" style="fill: #ffffff; stroke: #666666; stroke-width: 1px;"></circle><line class="compassNav" stroke-width="2" stroke="#666666" x1="610" y1="15" x2="618" y2="15"></line><path d="M582 14 l20 -12 a100,40 0 0,0 0,24z" class="compassNav" style="fill: #ffffff; stroke: #666666; stroke-width: 1px;"></path><path d="M690 14 l-20 -12 a100,40 0 0,1 0,24z" class="compassNav" style="fill: #ffffff; stroke: #666666; stroke-width: 1px;"></path><path d="M216 0h80c13.3 0 24 10.7 24 24v168h87.7c17.8 0 26.7 21.5 14.1 34.1L269.7 378.3c-7.5 7.5-19.8 7.5-27.3 0L90.1 226.1c-12.6-12.6-3.7-34.1 14.1-34.1H192V24c0-13.3 10.7-24 24-24zm296 376v112c0 13.3-10.7 24-24 24H24c-13.3 0-24-10.7-24-24V376c0-13.3 10.7-24 24-24h146.7l49 49c20.1 20.1 52.5 20.1 72.6 0l49-49H488c13.3 0 24 10.7 24 24zm-124 88c0-11-9-20-20-20s-20 9-20 20 9 20 20 20 20-9 20-20zm64 0c0-11-9-20-20-20s-20 9-20 20 9 20 20 20 20-9 20-20z" class="compassNav" transform="translate(552,0) scale(0.05)" style="fill: #336699; stroke: #336699; stroke-width: 1px; cursor: pointer;"></path></g></svg>