<svg width="800" height="400" style="background-color: white;"><g transform="translate(50,0)"><svg width="700" height="360"><g style="-webkit-tap-highlight-color: rgba(0, 0, 0, 0);"><rect width="700" height="360" style="fill: #ffffff;"></rect><g id="lines"><line class="line" stroke-width="1" stroke="#d7301f" x1="-237.248322147651" y1="333" x2="-237.248322147651" y2="360" visibility="hidden" style="stroke-dasharray: 3px, 3px;"></line></g><g><rect x="-242.248322147651" y="355" width="10" height="10" visibility="hidden" style="fill: #ffffff; stroke: #d7301f;"></rect></g><g id="lines"><line class="line" stroke-width="1" stroke="#6a51a3" x1="-237.248322147651" y1="333" x2="-237.248322147651" y2="327.27272727272725" visibility="hidden" style="stroke-dasharray: 3px, 3px;"></line></g><g><rect x="-242.248322147651" y="322.27272727272725" width="10" height="10" visibility="hidden" style="fill: #ffffff; stroke: #6a51a3;"></rect></g><g id="lines"><line class="line" stroke-width="1" stroke="#666666" x1="9.395973154362416" y1="333" x2="9.395973154362416" y2="267.7685950413223"></line><line class="line" stroke-width="1" stroke="#666666" x1="70.46979865771812" y1="333" x2="70.46979865771812" y2="267.7685950413223"></line><line class="line" stroke-width="1" stroke="#666666" x1="220.80536912751677" y1="333" x2="220.80536912751677" y2="267.7685950413223"></line><line class="line" stroke-width="1" stroke="#666666" x1="237.248322147651" y1="333" x2="237.248322147651" y2="267.7685950413223"></line><line class="line" stroke-width="1" stroke="#666666" x1="310.06711409395973" y1="333" x2="310.06711409395973" y2="148.76033057851242"></line><line class="line" stroke-width="1" stroke="#666666" x1="389.93288590604027" y1="333" x2="389.93288590604027" y2="267.7685950413223"></line><line class="line" stroke-width="1" stroke="#666666" x1="474.496644295302" y1="333" x2="474.496644295302" y2="208.26446280991735"></line><line class="line" stroke-width="1" stroke="#666666" x1="481.5436241610738" y1="333" x2="481.5436241610738" y2="208.26446280991735"></line><line class="line" stroke-width="1" stroke="#666666" x1="483.89261744966444" y1="333" x2="483.89261744966444" y2="267.7685950413223"></line><line class="line" stroke-width="1" stroke="#666666" x1="537.9194630872482" y1="333" x2="537.9194630872482" y2="208.26446280991735"></line><line class="line" stroke-width="1" stroke="#666666" x1="561.4093959731543" y1="333" x2="561.4093959731543" y2="267.7685950413223"></line><line class="line" stroke-width="1" stroke="#666666" x1="580.2013422818792" y1="333" x2="580.2013422818792" y2="208.26446280991735"></line><line class="line" stroke-width="1" stroke="#666666" x1="624.8322147651007" y1="333" x2="624.8322147651007" y2="267.7685950413223"></line><line class="line" stroke-width="1" stroke="#666666" x1="624.8322147651007" y1="333" x2="624.8322147651007" y2="208.26446280991735"></line><line class="line" stroke-width="1" stroke="#666666" x1="657.7181208053692" y1="333" x2="657.7181208053692" y2="29.75206611570252"></line></g><g id="circles"><circle r="4" cx="9.395973154362416" cy="267.7685950413223" style="fill: #666666; stroke: #666666; stroke-width: 1px;"></circle><circle r="4" cx="70.46979865771812" cy="267.7685950413223" style="fill: #bf812d; stroke: #666666; stroke-width: 1px;"></circle><circle r="4" cx="220.80536912751677" cy="267.7685950413223" style="fill: #bf812d; stroke: #666666; stroke-width: 1px;"></circle><circle r="4" cx="237.248322147651" cy="267.7685950413223" style="fill: #5aae61; stroke: #666666; stroke-width: 1px;"></circle><circle r="4" cx="310.06711409395973" cy="148.76033057851242" style="fill: #bf812d; stroke: #666666; stroke-width: 1px;"></circle><circle r="4" cx="389.93288590604027" cy="267.7685950413223" style="fill: #bf812d; stroke: #666666; stroke-width: 1px;"></circle><circle r="4" cx="474.496644295302" cy="208.26446280991735" style="fill: #bf812d; stroke: #666666; stroke-width: 1px;"></circle><circle r="4" cx="481.5436241610738" cy="208.26446280991735" style="fill: #bf812d; stroke: #666666; stroke-width: 1px;"></circle><circle r="4" cx="483.89261744966444" cy="267.7685950413223" style="fill: #4393c3; stroke: #666666; stroke-width: 1px;"></circle><circle r="4" cx="537.9194630872482" cy="208.26446280991735" style="fill: #bf812d; stroke: #666666; stroke-width: 1px;"></circle><circle r="4" cx="561.4093959731543" cy="267.7685950413223" style="fill: #bf812d; stroke: #666666; stroke-width: 1px;"></circle><circle r="4" cx="580.2013422818792" cy="208.26446280991735" style="fill: #bf812d; stroke: #666666; stroke-width: 1px;"></circle><circle r="4" cx="624.8322147651007" cy="267.7685950413223" style="fill: #5aae61; stroke: #666666; stroke-width: 1px;"></circle><circle r="4" cx="624.8322147651007" cy="208.26446280991735" style="fill: #bf812d; stroke: #666666; stroke-width: 1px;"></circle><circle r="4" cx="657.7181208053692" cy="29.75206611570252" style="fill: #bf812d; stroke: #666666; stroke-width: 1px;"></circle></g><g><rect x="0" y="333" width="700" height="12" style="fill: #ffffff; stroke-width: 1px; stroke: #666666;"></rect><rect x="14.093959731543624" y="333" width="542.6174496644296" height="12" style="fill: #aec7e8; stroke-width: 1px; stroke: #666666;"></rect></g><g><a target="_blank" xlink:href="http://pfam.xfam.org/family/"><text y="343" x="350" text-anchor="middle" style="color: rgb(102, 102, 102); font-weight: normal; font-size: 12px; font-family: Arial; cursor: pointer;"></text></a><a target="_blank" xlink:href="http://pfam.xfam.org/family/NmrA"><text y="343" x="285.4026845637584" text-anchor="middle" style="color: rgb(102, 102, 102); font-weight: normal; font-size: 12px; font-family: Arial; cursor: pointer;">NmrA</text></a></g><g><text y="358" x="0" text-anchor="middle" visibility="hidden" style="font-size: 13px;">M</text><text y="358" x="2.348993288590604" text-anchor="middle" visibility="hidden" style="font-size: 13px;">V</text><text y="358" x="4.697986577181208" text-anchor="middle" visibility="hidden" style="font-size: 13px;">D</text><text y="358" x="7.046979865771812" text-anchor="middle" visibility="hidden" style="font-size: 13px;">K</text><text y="358" x="9.395973154362416" text-anchor="middle" visibility="hidden" style="font-size: 13px;">K</text><text y="358" x="11.74496644295302" text-anchor="middle" visibility="hidden" style="font-size: 13px;">L</text><text y="358" x="14.093959731543624" text-anchor="middle" visibility="hidden" style="font-size: 13px;">V</text><text y="358" x="16.44295302013423" text-anchor="middle" visibility="hidden" style="font-size: 13px;">V</text><text y="358" x="18.79194630872483" text-anchor="middle" visibility="hidden" style="font-size: 13px;">V</text><text y="358" x="21.140939597315437" text-anchor="middle" visibility="hidden" style="font-size: 13px;">F</text><text y="358" x="23.48993288590604" text-anchor="middle" visibility="hidden" style="font-size: 13px;">G</text><text y="358" x="25.838926174496645" text-anchor="middle" visibility="hidden" style="font-size: 13px;">G</text><text y="358" x="28.187919463087248" text-anchor="middle" visibility="hidden" style="font-size: 13px;">T</text><text y="358" x="30.536912751677853" text-anchor="middle" visibility="hidden" style="font-size: 13px;">G</text><text y="358" x="32.88590604026846" text-anchor="middle" visibility="hidden" style="font-size: 13px;">A</text><text y="358" x="35.23489932885906" text-anchor="middle" visibility="hidden" style="font-size: 13px;">Q</text><text y="358" x="37.58389261744966" text-anchor="middle" visibility="hidden" style="font-size: 13px;">G</text><text y="358" x="39.93288590604027" text-anchor="middle" visibility="hidden" style="font-size: 13px;">G</text><text y="358" x="42.281879194630875" text-anchor="middle" visibility="hidden" style="font-size: 13px;">S</text><text y="358" x="44.63087248322148" text-anchor="middle" visibility="hidden" style="font-size: 13px;">V</text><text y="358" x="46.97986577181208" text-anchor="middle" visibility="hidden" style="font-size: 13px;">A</text><text y="358" x="49.32885906040268" text-anchor="middle" visibility="hidden" style="font-size: 13px;">R</text><text y="358" x="51.67785234899329" text-anchor="middle" visibility="hidden" style="font-size: 13px;">T</text><text y="358" x="54.02684563758389" text-anchor="middle" visibility="hidden" style="font-size: 13px;">L</text><text y="358" x="56.375838926174495" text-anchor="middle" visibility="hidden" style="font-size: 13px;">L</text><text y="358" x="58.7248322147651" text-anchor="middle" visibility="hidden" style="font-size: 13px;">E</text><text y="358" x="61.07382550335571" text-anchor="middle" visibility="hidden" style="font-size: 13px;">D</text><text y="358" x="63.422818791946305" text-anchor="middle" visibility="hidden" style="font-size: 13px;">G</text><text y="358" x="65.77181208053692" text-anchor="middle" visibility="hidden" style="font-size: 13px;">T</text><text y="358" x="68.12080536912751" text-anchor="middle" visibility="hidden" style="font-size: 13px;">F</text><text y="358" x="70.46979865771812" text-anchor="middle" visibility="hidden" style="font-size: 13px;">K</text><text y="358" x="72.81879194630872" text-anchor="middle" visibility="hidden" style="font-size: 13px;">V</text><text y="358" x="75.16778523489933" text-anchor="middle" visibility="hidden" style="font-size: 13px;">R</text><text y="358" x="77.51677852348993" text-anchor="middle" visibility="hidden" style="font-size: 13px;">V</text><text y="358" x="79.86577181208054" text-anchor="middle" visibility="hidden" style="font-size: 13px;">V</text><text y="358" x="82.21476510067114" text-anchor="middle" visibility="hidden" style="font-size: 13px;">T</text><text y="358" x="84.56375838926175" text-anchor="middle" visibility="hidden" style="font-size: 13px;">R</text><text y="358" x="86.91275167785236" text-anchor="middle" visibility="hidden" style="font-size: 13px;">N</text><text y="358" x="89.26174496644296" text-anchor="middle" visibility="hidden" style="font-size: 13px;">P</text><text y="358" x="91.61073825503357" text-anchor="middle" visibility="hidden" style="font-size: 13px;">R</text><text y="358" x="93.95973154362416" text-anchor="middle" visibility="hidden" style="font-size: 13px;">K</text><text y="358" x="96.30872483221476" text-anchor="middle" visibility="hidden" style="font-size: 13px;">K</text><text y="358" x="98.65771812080536" text-anchor="middle" visibility="hidden" style="font-size: 13px;">A</text><text y="358" x="101.00671140939598" text-anchor="middle" visibility="hidden" style="font-size: 13px;">A</text><text y="358" x="103.35570469798658" text-anchor="middle" visibility="hidden" style="font-size: 13px;">K</text><text y="358" x="105.70469798657719" text-anchor="middle" visibility="hidden" style="font-size: 13px;">E</text><text y="358" x="108.05369127516778" text-anchor="middle" visibility="hidden" style="font-size: 13px;">L</text><text y="358" x="110.40268456375838" text-anchor="middle" visibility="hidden" style="font-size: 13px;">R</text><text y="358" x="112.75167785234899" text-anchor="middle" visibility="hidden" style="font-size: 13px;">L</text><text y="358" x="115.10067114093961" text-anchor="middle" visibility="hidden" style="font-size: 13px;">Q</text><text y="358" x="117.4496644295302" text-anchor="middle" visibility="hidden" style="font-size: 13px;">G</text><text y="358" x="119.79865771812081" text-anchor="middle" visibility="hidden" style="font-size: 13px;">A</text><text y="358" x="122.14765100671141" text-anchor="middle" visibility="hidden" style="font-size: 13px;">E</text><text y="358" x="124.496644295302" text-anchor="middle" visibility="hidden" style="font-size: 13px;">V</text><text y="358" x="126.84563758389261" text-anchor="middle" visibility="hidden" style="font-size: 13px;">V</text><text y="358" x="129.19463087248323" text-anchor="middle" visibility="hidden" style="font-size: 13px;">Q</text><text y="358" x="131.54362416107384" text-anchor="middle" visibility="hidden" style="font-size: 13px;">G</text><text y="358" x="133.89261744966444" text-anchor="middle" visibility="hidden" style="font-size: 13px;">D</text><text y="358" x="136.24161073825502" text-anchor="middle" visibility="hidden" style="font-size: 13px;">Q</text><text y="358" x="138.59060402684563" text-anchor="middle" visibility="hidden" style="font-size: 13px;">D</text><text y="358" x="140.93959731543623" text-anchor="middle" visibility="hidden" style="font-size: 13px;">D</text><text y="358" x="143.28859060402687" text-anchor="middle" visibility="hidden" style="font-size: 13px;">Q</text><text y="358" x="145.63758389261744" text-anchor="middle" visibility="hidden" style="font-size: 13px;">V</text><text y="358" x="147.98657718120805" text-anchor="middle" visibility="hidden" style="font-size: 13px;">I</text><text y="358" x="150.33557046979865" text-anchor="middle" visibility="hidden" style="font-size: 13px;">M</text><text y="358" x="152.68456375838926" text-anchor="middle" visibility="hidden" style="font-size: 13px;">E</text><text y="358" x="155.03355704697987" text-anchor="middle" visibility="hidden" style="font-size: 13px;">L</text><text y="358" x="157.38255033557047" text-anchor="middle" visibility="hidden" style="font-size: 13px;">A</text><text y="358" x="159.73154362416108" text-anchor="middle" visibility="hidden" style="font-size: 13px;">L</text><text y="358" x="162.08053691275168" text-anchor="middle" visibility="hidden" style="font-size: 13px;">N</text><text y="358" x="164.4295302013423" text-anchor="middle" visibility="hidden" style="font-size: 13px;">G</text><text y="358" x="166.77852348993287" text-anchor="middle" visibility="hidden" style="font-size: 13px;">A</text><text y="358" x="169.1275167785235" text-anchor="middle" visibility="hidden" style="font-size: 13px;">Y</text><text y="358" x="171.4765100671141" text-anchor="middle" visibility="hidden" style="font-size: 13px;">A</text><text y="358" x="173.8255033557047" text-anchor="middle" visibility="hidden" style="font-size: 13px;">T</text><text y="358" x="176.17449664429532" text-anchor="middle" visibility="hidden" style="font-size: 13px;">F</text><text y="358" x="178.52348993288592" text-anchor="middle" visibility="hidden" style="font-size: 13px;">I</text><text y="358" x="180.87248322147653" text-anchor="middle" visibility="hidden" style="font-size: 13px;">V</text><text y="358" x="183.22147651006713" text-anchor="middle" visibility="hidden" style="font-size: 13px;">T</text><text y="358" x="185.5704697986577" text-anchor="middle" visibility="hidden" style="font-size: 13px;">N</text><text y="358" x="187.91946308724832" text-anchor="middle" visibility="hidden" style="font-size: 13px;">Y</text><text y="358" x="190.26845637583892" text-anchor="middle" visibility="hidden" style="font-size: 13px;">W</text><text y="358" x="192.61744966442953" text-anchor="middle" visibility="hidden" style="font-size: 13px;">E</text><text y="358" x="194.96644295302013" text-anchor="middle" visibility="hidden" style="font-size: 13px;">S</text><text y="358" x="197.3154362416107" text-anchor="middle" visibility="hidden" style="font-size: 13px;">C</text><text y="358" x="199.66442953020132" text-anchor="middle" visibility="hidden" style="font-size: 13px;">S</text><text y="358" x="202.01342281879195" text-anchor="middle" visibility="hidden" style="font-size: 13px;">Q</text><text y="358" x="204.36241610738256" text-anchor="middle" visibility="hidden" style="font-size: 13px;">E</text><text y="358" x="206.71140939597316" text-anchor="middle" visibility="hidden" style="font-size: 13px;">Q</text><text y="358" x="209.06040268456377" text-anchor="middle" visibility="hidden" style="font-size: 13px;">E</text><text y="358" x="211.40939597315437" text-anchor="middle" visibility="hidden" style="font-size: 13px;">V</text><text y="358" x="213.75838926174498" text-anchor="middle" visibility="hidden" style="font-size: 13px;">K</text><text y="358" x="216.10738255033556" text-anchor="middle" visibility="hidden" style="font-size: 13px;">Q</text><text y="358" x="218.45637583892616" text-anchor="middle" visibility="hidden" style="font-size: 13px;">G</text><text y="358" x="220.80536912751677" text-anchor="middle" visibility="hidden" style="font-size: 13px;">K</text><text y="358" x="223.15436241610738" text-anchor="middle" visibility="hidden" style="font-size: 13px;">L</text><text y="358" x="225.50335570469798" text-anchor="middle" visibility="hidden" style="font-size: 13px;">L</text><text y="358" x="227.8523489932886" text-anchor="middle" visibility="hidden" style="font-size: 13px;">A</text><text y="358" x="230.20134228187922" text-anchor="middle" visibility="hidden" style="font-size: 13px;">D</text><text y="358" x="232.55033557046983" text-anchor="middle" visibility="hidden" style="font-size: 13px;">L</text><text y="358" x="234.8993288590604" text-anchor="middle" visibility="hidden" style="font-size: 13px;">A</text><text y="358" x="237.248322147651" text-anchor="middle" visibility="hidden" style="font-size: 13px;">R</text><text y="358" x="239.59731543624162" text-anchor="middle" visibility="hidden" style="font-size: 13px;">R</text><text y="358" x="241.94630872483222" text-anchor="middle" visibility="hidden" style="font-size: 13px;">L</text><text y="358" x="244.29530201342283" text-anchor="middle" visibility="hidden" style="font-size: 13px;">G</text><text y="358" x="246.6442953020134" text-anchor="middle" visibility="hidden" style="font-size: 13px;">L</text><text y="358" x="248.993288590604" text-anchor="middle" visibility="hidden" style="font-size: 13px;">H</text><text y="358" x="251.34228187919462" text-anchor="middle" visibility="hidden" style="font-size: 13px;">Y</text><text y="358" x="253.69127516778522" text-anchor="middle" visibility="hidden" style="font-size: 13px;">V</text><text y="358" x="256.0402684563759" text-anchor="middle" visibility="hidden" style="font-size: 13px;">V</text><text y="358" x="258.38926174496646" text-anchor="middle" visibility="hidden" style="font-size: 13px;">Y</text><text y="358" x="260.73825503355704" text-anchor="middle" visibility="hidden" style="font-size: 13px;">S</text><text y="358" x="263.0872483221477" text-anchor="middle" visibility="hidden" style="font-size: 13px;">G</text><text y="358" x="265.43624161073825" text-anchor="middle" visibility="hidden" style="font-size: 13px;">L</text><text y="358" x="267.7852348993289" text-anchor="middle" visibility="hidden" style="font-size: 13px;">E</text><text y="358" x="270.13422818791946" text-anchor="middle" visibility="hidden" style="font-size: 13px;">N</text><text y="358" x="272.48322147651004" text-anchor="middle" visibility="hidden" style="font-size: 13px;">I</text><text y="358" x="274.8322147651007" text-anchor="middle" visibility="hidden" style="font-size: 13px;">K</text><text y="358" x="277.18120805369125" text-anchor="middle" visibility="hidden" style="font-size: 13px;">K</text><text y="358" x="279.5302013422819" text-anchor="middle" visibility="hidden" style="font-size: 13px;">L</text><text y="358" x="281.87919463087246" text-anchor="middle" visibility="hidden" style="font-size: 13px;">T</text><text y="358" x="284.2281879194631" text-anchor="middle" visibility="hidden" style="font-size: 13px;">A</text><text y="358" x="286.57718120805373" text-anchor="middle" visibility="hidden" style="font-size: 13px;">G</text><text y="358" x="288.9261744966443" text-anchor="middle" visibility="hidden" style="font-size: 13px;">R</text><text y="358" x="291.2751677852349" text-anchor="middle" visibility="hidden" style="font-size: 13px;">L</text><text y="358" x="293.6241610738255" text-anchor="middle" visibility="hidden" style="font-size: 13px;">A</text><text y="358" x="295.9731543624161" text-anchor="middle" visibility="hidden" style="font-size: 13px;">A</text><text y="358" x="298.32214765100673" text-anchor="middle" visibility="hidden" style="font-size: 13px;">A</text><text y="358" x="300.6711409395973" text-anchor="middle" visibility="hidden" style="font-size: 13px;">H</text><text y="358" x="303.0201342281879" text-anchor="middle" visibility="hidden" style="font-size: 13px;">F</text><text y="358" x="305.3691275167785" text-anchor="middle" visibility="hidden" style="font-size: 13px;">D</text><text y="358" x="307.7181208053691" text-anchor="middle" visibility="hidden" style="font-size: 13px;">G</text><text y="358" x="310.06711409395973" text-anchor="middle" visibility="hidden" style="font-size: 13px;">K</text><text y="358" x="312.41610738255036" text-anchor="middle" visibility="hidden" style="font-size: 13px;">G</text><text y="358" x="314.76510067114094" text-anchor="middle" visibility="hidden" style="font-size: 13px;">E</text><text y="358" x="317.1140939597316" text-anchor="middle" visibility="hidden" style="font-size: 13px;">V</text><text y="358" x="319.46308724832215" text-anchor="middle" visibility="hidden" style="font-size: 13px;">E</text><text y="358" x="321.81208053691273" text-anchor="middle" visibility="hidden" style="font-size: 13px;">E</text><text y="358" x="324.16107382550337" text-anchor="middle" visibility="hidden" style="font-size: 13px;">Y</text><text y="358" x="326.51006711409394" text-anchor="middle" visibility="hidden" style="font-size: 13px;">F</text><text y="358" x="328.8590604026846" text-anchor="middle" visibility="hidden" style="font-size: 13px;">R</text><text y="358" x="331.20805369127515" text-anchor="middle" visibility="hidden" style="font-size: 13px;">D</text><text y="358" x="333.55704697986573" text-anchor="middle" visibility="hidden" style="font-size: 13px;">I</text><text y="358" x="335.90604026845637" text-anchor="middle" visibility="hidden" style="font-size: 13px;">G</text><text y="358" x="338.255033557047" text-anchor="middle" visibility="hidden" style="font-size: 13px;">V</text><text y="358" x="340.6040268456376" text-anchor="middle" visibility="hidden" style="font-size: 13px;">P</text><text y="358" x="342.9530201342282" text-anchor="middle" visibility="hidden" style="font-size: 13px;">M</text><text y="358" x="345.3020134228188" text-anchor="middle" visibility="hidden" style="font-size: 13px;">T</text><text y="358" x="347.6510067114094" text-anchor="middle" visibility="hidden" style="font-size: 13px;">S</text><text y="358" x="350" text-anchor="middle" visibility="hidden" style="font-size: 13px;">V</text><text y="358" x="352.34899328859063" text-anchor="middle" visibility="hidden" style="font-size: 13px;">R</text><text y="358" x="354.6979865771812" text-anchor="middle" visibility="hidden" style="font-size: 13px;">L</text><text y="358" x="357.04697986577185" text-anchor="middle" visibility="hidden" style="font-size: 13px;">P</text><text y="358" x="359.3959731543624" text-anchor="middle" visibility="hidden" style="font-size: 13px;">C</text><text y="358" x="361.74496644295306" text-anchor="middle" visibility="hidden" style="font-size: 13px;">Y</text><text y="358" x="364.0939597315436" text-anchor="middle" visibility="hidden" style="font-size: 13px;">F</text><text y="358" x="366.44295302013427" text-anchor="middle" visibility="hidden" style="font-size: 13px;">E</text><text y="358" x="368.7919463087248" text-anchor="middle" visibility="hidden" style="font-size: 13px;">N</text><text y="358" x="371.1409395973154" text-anchor="middle" visibility="hidden" style="font-size: 13px;">L</text><text y="358" x="373.489932885906" text-anchor="middle" visibility="hidden" style="font-size: 13px;">L</text><text y="358" x="375.83892617449663" text-anchor="middle" visibility="hidden" style="font-size: 13px;">S</text><text y="358" x="378.18791946308727" text-anchor="middle" visibility="hidden" style="font-size: 13px;">H</text><text y="358" x="380.53691275167785" text-anchor="middle" visibility="hidden" style="font-size: 13px;">F</text><text y="358" x="382.8859060402685" text-anchor="middle" visibility="hidden" style="font-size: 13px;">L</text><text y="358" x="385.23489932885906" text-anchor="middle" visibility="hidden" style="font-size: 13px;">P</text><text y="358" x="387.5838926174497" text-anchor="middle" visibility="hidden" style="font-size: 13px;">Q</text><text y="358" x="389.93288590604027" text-anchor="middle" visibility="hidden" style="font-size: 13px;">K</text><text y="358" x="392.2818791946309" text-anchor="middle" visibility="hidden" style="font-size: 13px;">A</text><text y="358" x="394.6308724832214" text-anchor="middle" visibility="hidden" style="font-size: 13px;">P</text><text y="358" x="396.9798657718121" text-anchor="middle" visibility="hidden" style="font-size: 13px;">D</text><text y="358" x="399.32885906040264" text-anchor="middle" visibility="hidden" style="font-size: 13px;">G</text><text y="358" x="401.67785234899327" text-anchor="middle" visibility="hidden" style="font-size: 13px;">K</text><text y="358" x="404.0268456375839" text-anchor="middle" visibility="hidden" style="font-size: 13px;">S</text><text y="358" x="406.3758389261745" text-anchor="middle" visibility="hidden" style="font-size: 13px;">Y</text><text y="358" x="408.7248322147651" text-anchor="middle" visibility="hidden" style="font-size: 13px;">L</text><text y="358" x="411.0738255033557" text-anchor="middle" visibility="hidden" style="font-size: 13px;">L</text><text y="358" x="413.4228187919463" text-anchor="middle" visibility="hidden" style="font-size: 13px;">S</text><text y="358" x="415.7718120805369" text-anchor="middle" visibility="hidden" style="font-size: 13px;">L</text><text y="358" x="418.12080536912754" text-anchor="middle" visibility="hidden" style="font-size: 13px;">P</text><text y="358" x="420.4697986577181" text-anchor="middle" visibility="hidden" style="font-size: 13px;">T</text><text y="358" x="422.81879194630875" text-anchor="middle" visibility="hidden" style="font-size: 13px;">G</text><text y="358" x="425.16778523489927" text-anchor="middle" visibility="hidden" style="font-size: 13px;">D</text><text y="358" x="427.51677852348996" text-anchor="middle" visibility="hidden" style="font-size: 13px;">V</text><text y="358" x="429.8657718120805" text-anchor="middle" visibility="hidden" style="font-size: 13px;">P</text><text y="358" x="432.2147651006711" text-anchor="middle" visibility="hidden" style="font-size: 13px;">M</text><text y="358" x="434.5637583892618" text-anchor="middle" visibility="hidden" style="font-size: 13px;">D</text><text y="358" x="436.9127516778523" text-anchor="middle" visibility="hidden" style="font-size: 13px;">G</text><text y="358" x="439.26174496644296" text-anchor="middle" visibility="hidden" style="font-size: 13px;">M</text><text y="358" x="441.61073825503354" text-anchor="middle" visibility="hidden" style="font-size: 13px;">S</text><text y="358" x="443.9597315436242" text-anchor="middle" visibility="hidden" style="font-size: 13px;">V</text><text y="358" x="446.30872483221475" text-anchor="middle" visibility="hidden" style="font-size: 13px;">S</text><text y="358" x="448.6577181208054" text-anchor="middle" visibility="hidden" style="font-size: 13px;">D</text><text y="358" x="451.00671140939596" text-anchor="middle" visibility="hidden" style="font-size: 13px;">L</text><text y="358" x="453.3557046979866" text-anchor="middle" visibility="hidden" style="font-size: 13px;">G</text><text y="358" x="455.7046979865772" text-anchor="middle" visibility="hidden" style="font-size: 13px;">P</text><text y="358" x="458.0536912751678" text-anchor="middle" visibility="hidden" style="font-size: 13px;">V</text><text y="358" x="460.40268456375844" text-anchor="middle" visibility="hidden" style="font-size: 13px;">V</text><text y="358" x="462.75167785234896" text-anchor="middle" visibility="hidden" style="font-size: 13px;">L</text><text y="358" x="465.10067114093965" text-anchor="middle" visibility="hidden" style="font-size: 13px;">S</text><text y="358" x="467.4496644295302" text-anchor="middle" visibility="hidden" style="font-size: 13px;">L</text><text y="358" x="469.7986577181208" text-anchor="middle" visibility="hidden" style="font-size: 13px;">L</text><text y="358" x="472.1476510067114" text-anchor="middle" visibility="hidden" style="font-size: 13px;">K</text><text y="358" x="474.496644295302" text-anchor="middle" visibility="hidden" style="font-size: 13px;">M</text><text y="358" x="476.8456375838926" text-anchor="middle" visibility="hidden" style="font-size: 13px;">P</text><text y="358" x="479.19463087248323" text-anchor="middle" visibility="hidden" style="font-size: 13px;">E</text><text y="358" x="481.5436241610738" text-anchor="middle" visibility="hidden" style="font-size: 13px;">K</text><text y="358" x="483.89261744966444" text-anchor="middle" visibility="hidden" style="font-size: 13px;">Y</text><text y="358" x="486.2416107382551" text-anchor="middle" visibility="hidden" style="font-size: 13px;">V</text><text y="358" x="488.59060402684565" text-anchor="middle" visibility="hidden" style="font-size: 13px;">G</text><text y="358" x="490.9395973154363" text-anchor="middle" visibility="hidden" style="font-size: 13px;">Q</text><text y="358" x="493.2885906040268" text-anchor="middle" visibility="hidden" style="font-size: 13px;">N</text><text y="358" x="495.6375838926175" text-anchor="middle" visibility="hidden" style="font-size: 13px;">I</text><text y="358" x="497.986577181208" text-anchor="middle" visibility="hidden" style="font-size: 13px;">G</text><text y="358" x="500.33557046979865" text-anchor="middle" visibility="hidden" style="font-size: 13px;">L</text><text y="358" x="502.68456375838923" text-anchor="middle" visibility="hidden" style="font-size: 13px;">S</text><text y="358" x="505.03355704697987" text-anchor="middle" visibility="hidden" style="font-size: 13px;">T</text><text y="358" x="507.38255033557044" text-anchor="middle" visibility="hidden" style="font-size: 13px;">C</text><text y="358" x="509.7315436241611" text-anchor="middle" visibility="hidden" style="font-size: 13px;">R</text><text y="358" x="512.0805369127518" text-anchor="middle" visibility="hidden" style="font-size: 13px;">H</text><text y="358" x="514.4295302013422" text-anchor="middle" visibility="hidden" style="font-size: 13px;">T</text><text y="358" x="516.7785234899329" text-anchor="middle" visibility="hidden" style="font-size: 13px;">A</text><text y="358" x="519.1275167785235" text-anchor="middle" visibility="hidden" style="font-size: 13px;">E</text><text y="358" x="521.4765100671141" text-anchor="middle" visibility="hidden" style="font-size: 13px;">E</text><text y="358" x="523.8255033557047" text-anchor="middle" visibility="hidden" style="font-size: 13px;">Y</text><text y="358" x="526.1744966442953" text-anchor="middle" visibility="hidden" style="font-size: 13px;">A</text><text y="358" x="528.5234899328859" text-anchor="middle" visibility="hidden" style="font-size: 13px;">A</text><text y="358" x="530.8724832214765" text-anchor="middle" visibility="hidden" style="font-size: 13px;">L</text><text y="358" x="533.2214765100671" text-anchor="middle" visibility="hidden" style="font-size: 13px;">L</text><text y="358" x="535.5704697986578" text-anchor="middle" visibility="hidden" style="font-size: 13px;">T</text><text y="358" x="537.9194630872482" text-anchor="middle" visibility="hidden" style="font-size: 13px;">K</text><text y="358" x="540.2684563758389" text-anchor="middle" visibility="hidden" style="font-size: 13px;">H</text><text y="358" x="542.6174496644296" text-anchor="middle" visibility="hidden" style="font-size: 13px;">T</text><text y="358" x="544.9664429530201" text-anchor="middle" visibility="hidden" style="font-size: 13px;">R</text><text y="358" x="547.3154362416108" text-anchor="middle" visibility="hidden" style="font-size: 13px;">K</text><text y="358" x="549.6644295302013" text-anchor="middle" visibility="hidden" style="font-size: 13px;">V</text><text y="358" x="552.0134228187919" text-anchor="middle" visibility="hidden" style="font-size: 13px;">V</text><text y="358" x="554.3624161073825" text-anchor="middle" visibility="hidden" style="font-size: 13px;">H</text><text y="358" x="556.7114093959732" text-anchor="middle" visibility="hidden" style="font-size: 13px;">D</text><text y="358" x="559.0604026845638" text-anchor="middle" visibility="hidden" style="font-size: 13px;">A</text><text y="358" x="561.4093959731543" text-anchor="middle" visibility="hidden" style="font-size: 13px;">K</text><text y="358" x="563.7583892617449" text-anchor="middle" visibility="hidden" style="font-size: 13px;">M</text><text y="358" x="566.1073825503356" text-anchor="middle" visibility="hidden" style="font-size: 13px;">T</text><text y="358" x="568.4563758389262" text-anchor="middle" visibility="hidden" style="font-size: 13px;">P</text><text y="358" x="570.8053691275168" text-anchor="middle" visibility="hidden" style="font-size: 13px;">E</text><text y="358" x="573.1543624161075" text-anchor="middle" visibility="hidden" style="font-size: 13px;">D</text><text y="358" x="575.5033557046979" text-anchor="middle" visibility="hidden" style="font-size: 13px;">Y</text><text y="358" x="577.8523489932886" text-anchor="middle" visibility="hidden" style="font-size: 13px;">E</text><text y="358" x="580.2013422818792" text-anchor="middle" visibility="hidden" style="font-size: 13px;">K</text><text y="358" x="582.5503355704698" text-anchor="middle" visibility="hidden" style="font-size: 13px;">L</text><text y="358" x="584.8993288590603" text-anchor="middle" visibility="hidden" style="font-size: 13px;">G</text><text y="358" x="587.248322147651" text-anchor="middle" visibility="hidden" style="font-size: 13px;">F</text><text y="358" x="589.5973154362416" text-anchor="middle" visibility="hidden" style="font-size: 13px;">P</text><text y="358" x="591.9463087248322" text-anchor="middle" visibility="hidden" style="font-size: 13px;">G</text><text y="358" x="594.2953020134229" text-anchor="middle" visibility="hidden" style="font-size: 13px;">A</text><text y="358" x="596.6442953020135" text-anchor="middle" visibility="hidden" style="font-size: 13px;">R</text><text y="358" x="598.993288590604" text-anchor="middle" visibility="hidden" style="font-size: 13px;">D</text><text y="358" x="601.3422818791946" text-anchor="middle" visibility="hidden" style="font-size: 13px;">L</text><text y="358" x="603.6912751677853" text-anchor="middle" visibility="hidden" style="font-size: 13px;">A</text><text y="358" x="606.0402684563758" text-anchor="middle" visibility="hidden" style="font-size: 13px;">N</text><text y="358" x="608.3892617449665" text-anchor="middle" visibility="hidden" style="font-size: 13px;">M</text><text y="358" x="610.738255033557" text-anchor="middle" visibility="hidden" style="font-size: 13px;">F</text><text y="358" x="613.0872483221476" text-anchor="middle" visibility="hidden" style="font-size: 13px;">R</text><text y="358" x="615.4362416107382" text-anchor="middle" visibility="hidden" style="font-size: 13px;">F</text><text y="358" x="617.7852348993289" text-anchor="middle" visibility="hidden" style="font-size: 13px;">Y</text><text y="358" x="620.1342281879195" text-anchor="middle" visibility="hidden" style="font-size: 13px;">A</text><text y="358" x="622.48322147651" text-anchor="middle" visibility="hidden" style="font-size: 13px;">L</text><text y="358" x="624.8322147651007" text-anchor="middle" visibility="hidden" style="font-size: 13px;">R</text><text y="358" x="627.1812080536913" text-anchor="middle" visibility="hidden" style="font-size: 13px;">P</text><text y="358" x="629.5302013422819" text-anchor="middle" visibility="hidden" style="font-size: 13px;">D</text><text y="358" x="631.8791946308725" text-anchor="middle" visibility="hidden" style="font-size: 13px;">R</text><text y="358" x="634.2281879194632" text-anchor="middle" visibility="hidden" style="font-size: 13px;">D</text><text y="358" x="636.5771812080536" text-anchor="middle" visibility="hidden" style="font-size: 13px;">I</text><text y="358" x="638.9261744966443" text-anchor="middle" visibility="hidden" style="font-size: 13px;">E</text><text y="358" x="641.2751677852349" text-anchor="middle" visibility="hidden" style="font-size: 13px;">L</text><text y="358" x="643.6241610738255" text-anchor="middle" visibility="hidden" style="font-size: 13px;">T</text><text y="358" x="645.973154362416" text-anchor="middle" visibility="hidden" style="font-size: 13px;">L</text><text y="358" x="648.3221476510067" text-anchor="middle" visibility="hidden" style="font-size: 13px;">R</text><text y="358" x="650.6711409395973" text-anchor="middle" visibility="hidden" style="font-size: 13px;">L</text><text y="358" x="653.0201342281879" text-anchor="middle" visibility="hidden" style="font-size: 13px;">N</text><text y="358" x="655.3691275167786" text-anchor="middle" visibility="hidden" style="font-size: 13px;">P</text><text y="358" x="657.7181208053692" text-anchor="middle" visibility="hidden" style="font-size: 13px;">K</text><text y="358" x="660.0671140939597" text-anchor="middle" visibility="hidden" style="font-size: 13px;">A</text><text y="358" x="662.4161073825503" text-anchor="middle" visibility="hidden" style="font-size: 13px;">L</text><text y="358" x="664.765100671141" text-anchor="middle" visibility="hidden" style="font-size: 13px;">T</text><text y="358" x="667.1140939597315" text-anchor="middle" visibility="hidden" style="font-size: 13px;">L</text><text y="358" x="669.4630872483222" text-anchor="middle" visibility="hidden" style="font-size: 13px;">D</text><text y="358" x="671.8120805369127" text-anchor="middle" visibility="hidden" style="font-size: 13px;">Q</text><text y="358" x="674.1610738255033" text-anchor="middle" visibility="hidden" style="font-size: 13px;">W</text><text y="358" x="676.510067114094" text-anchor="middle" visibility="hidden" style="font-size: 13px;">L</text><text y="358" x="678.8590604026846" text-anchor="middle" visibility="hidden" style="font-size: 13px;">E</text><text y="358" x="681.2080536912752" text-anchor="middle" visibility="hidden" style="font-size: 13px;">Q</text><text y="358" x="683.5570469798657" text-anchor="middle" visibility="hidden" style="font-size: 13px;">H</text><text y="358" x="685.9060402684564" text-anchor="middle" visibility="hidden" style="font-size: 13px;">K</text><text y="358" x="688.255033557047" text-anchor="middle" visibility="hidden" style="font-size: 13px;">G</text><text y="358" x="690.6040268456376" text-anchor="middle" visibility="hidden" style="font-size: 13px;">D</text><text y="358" x="692.9530201342282" text-anchor="middle" visibility="hidden" style="font-size: 13px;">F</text><text y="358" x="695.3020134228188" text-anchor="middle" visibility="hidden" style="font-size: 13px;">N</text><text y="358" x="697.6510067114093" text-anchor="middle" visibility="hidden" style="font-size: 13px;">L</text><text y="358" x="700" text-anchor="middle" visibility="hidden" style="font-size: 13px;">L</text></g></g></svg><g class="xAxis" transform="translate(0,360)" fill="none" font-size="10" font-family="sans-serif" text-anchor="middle"><path class="domain" stroke="#000" d="M0.5,6V0.5H700.5V6"></path><g class="tick" opacity="1" transform="translate(45.13087248322148,0)"><line stroke="#000" y2="6"></line><text fill="#000" y="9" dy="0.71em">20</text></g><g class="tick" opacity="1" transform="translate(92.11073825503357,0)"><line stroke="#000" y2="6"></line><text fill="#000" y="9" dy="0.71em">40</text></g><g class="tick" opacity="1" transform="translate(139.09060402684563,0)"><line stroke="#000" y2="6"></line><text fill="#000" y="9" dy="0.71em">60</text></g><g class="tick" opacity="1" transform="translate(186.0704697986577,0)"><line stroke="#000" y2="6"></line><text fill="#000" y="9" dy="0.71em">80</text></g><g class="tick" opacity="1" transform="translate(233.05033557046983,0)"><line stroke="#000" y2="6"></line><text fill="#000" y="9" dy="0.71em">100</text></g><g class="tick" opacity="1" transform="translate(280.0302013422819,0)"><line stroke="#000" y2="6"></line><text fill="#000" y="9" dy="0.71em">120</text></g><g class="tick" opacity="1" transform="translate(327.01006711409394,0)"><line stroke="#000" y2="6"></line><text fill="#000" y="9" dy="0.71em">140</text></g><g class="tick" opacity="1" transform="translate(373.989932885906,0)"><line stroke="#000" y2="6"></line><text fill="#000" y="9" dy="0.71em">160</text></g><g class="tick" opacity="1" transform="translate(420.9697986577181,0)"><line stroke="#000" y2="6"></line><text fill="#000" y="9" dy="0.71em">180</text></g><g class="tick" opacity="1" transform="translate(467.9496644295302,0)"><line stroke="#000" y2="6"></line><text fill="#000" y="9" dy="0.71em">200</text></g><g class="tick" opacity="1" transform="translate(514.9295302013422,0)"><line stroke="#000" y2="6"></line><text fill="#000" y="9" dy="0.71em">220</text></g><g class="tick" opacity="1" transform="translate(561.9093959731543,0)"><line stroke="#000" y2="6"></line><text fill="#000" y="9" dy="0.71em">240</text></g><g class="tick" opacity="1" transform="translate(608.8892617449665,0)"><line stroke="#000" y2="6"></line><text fill="#000" y="9" dy="0.71em">260</text></g><g class="tick" opacity="1" transform="translate(655.8691275167786,0)"><line stroke="#000" y2="6"></line><text fill="#000" y="9" dy="0.71em">280</text></g></g><text class="x label" text-anchor="end" x="700" y="390" style="font-size: 13px; font-family: Arial;">Residue number</text><g class="yAxis" fill="none" font-size="10" font-family="sans-serif" text-anchor="end"><path class="domain" stroke="#000" d="M-6,360.5H0.5V0.5H-6"></path><g class="tick" opacity="1" transform="translate(0,357.52479338842977)"><line stroke="#000" x2="-6"></line><text fill="#000" x="-9" dy="0.32em"></text></g><g class="tick" opacity="1" transform="translate(0,327.77272727272725)"><line stroke="#000" x2="-6"></line><text fill="#000" x="-9" dy="0.32em">0</text></g><g class="tick" opacity="1" transform="translate(0,298.0206611570248)"><line stroke="#000" x2="-6"></line><text fill="#000" x="-9" dy="0.32em">0.5</text></g><g class="tick" opacity="1" transform="translate(0,268.2685950413223)"><line stroke="#000" x2="-6"></line><text fill="#000" x="-9" dy="0.32em">1</text></g><g class="tick" opacity="1" transform="translate(0,238.51652892561984)"><line stroke="#000" x2="-6"></line><text fill="#000" x="-9" dy="0.32em">1.5</text></g><g class="tick" opacity="1" transform="translate(0,208.76446280991735)"><line stroke="#000" x2="-6"></line><text fill="#000" x="-9" dy="0.32em">2</text></g><g class="tick" opacity="1" transform="translate(0,179.01239669421489)"><line stroke="#000" x2="-6"></line><text fill="#000" x="-9" dy="0.32em">2.5</text></g><g class="tick" opacity="1" transform="translate(0,149.26033057851242)"><line stroke="#000" x2="-6"></line><text fill="#000" x="-9" dy="0.32em">3</text></g><g class="tick" opacity="1" transform="translate(0,119.50826446280993)"><line stroke="#000" x2="-6"></line><text fill="#000" x="-9" dy="0.32em">3.5</text></g><g class="tick" opacity="1" transform="translate(0,89.75619834710744)"><line stroke="#000" x2="-6"></line><text fill="#000" x="-9" dy="0.32em">4</text></g><g class="tick" opacity="1" transform="translate(0,60.00413223140498)"><line stroke="#000" x2="-6"></line><text fill="#000" x="-9" dy="0.32em">4.5</text></g><g class="tick" opacity="1" transform="translate(0,30.25206611570252)"><line stroke="#000" x2="-6"></line><text fill="#000" x="-9" dy="0.32em">5</text></g><g class="tick" opacity="1" transform="translate(0,0.5)"><line stroke="#000" x2="-6"></line><text fill="#000" x="-9" dy="0.32em">5.5</text></g></g><text class="y label" text-anchor="middle" y="-50" x="-180" dy="0.8em" transform="rotate(-90)" style="font-size: 13px; font-family: Arial;">Total number of references</text><g class="axisRed" fill="none" font-size="10" font-family="sans-serif" text-anchor="start" visibility="hidden" transform="translate(700, 0)"><path class="domain" stroke="#000" d="M6,360.5H0.5V0.5H6"></path><g class="tick" opacity="1" transform="translate(0,360.5)"><line stroke="#000" x2="6"></line><text fill="#000" x="9" dy="0.32em">0</text></g><text text-anchor="start" dx="5.2em" dy="-2.6em" transform="rotate(90)" visibility="hidden" style="font-size: 12px; font-family: Arial; fill: #d7301f;">No recurrent (&gt;2) missense mutations!</text></g><g class="axisPurple" fill="none" font-size="10" font-family="sans-serif" text-anchor="start" visibility="hidden"><path class="domain" stroke="#000" d="M6,360.5H0.5V0.5H6"></path><g class="tick" opacity="1" transform="translate(0,357.52479338842977)"><line stroke="#000" x2="6"></line><text fill="#000" x="9" dy="0.32em"></text></g><g class="tick" opacity="1" transform="translate(0,327.77272727272725)"><line stroke="#000" x2="6"></line><text fill="#000" x="9" dy="0.32em">0</text></g><g class="tick" opacity="1" transform="translate(0,298.0206611570248)"><line stroke="#000" x2="6"></line><text fill="#000" x="9" dy="0.32em">0.1</text></g><g class="tick" opacity="1" transform="translate(0,268.2685950413223)"><line stroke="#000" x2="6"></line><text fill="#000" x="9" dy="0.32em">0.2</text></g><g class="tick" opacity="1" transform="translate(0,238.51652892561984)"><line stroke="#000" x2="6"></line><text fill="#000" x="9" dy="0.32em">0.3</text></g><g class="tick" opacity="1" transform="translate(0,208.76446280991738)"><line stroke="#000" x2="6"></line><text fill="#000" x="9" dy="0.32em">0.4</text></g><g class="tick" opacity="1" transform="translate(0,179.0123966942149)"><line stroke="#000" x2="6"></line><text fill="#000" x="9" dy="0.32em">0.5</text></g><g class="tick" opacity="1" transform="translate(0,149.26033057851242)"><line stroke="#000" x2="6"></line><text fill="#000" x="9" dy="0.32em">0.6</text></g><g class="tick" opacity="1" transform="translate(0,119.50826446280996)"><line stroke="#000" x2="6"></line><text fill="#000" x="9" dy="0.32em">0.7</text></g><g class="tick" opacity="1" transform="translate(0,89.75619834710744)"><line stroke="#000" x2="6"></line><text fill="#000" x="9" dy="0.32em">0.8</text></g><g class="tick" opacity="1" transform="translate(0,60.00413223140498)"><line stroke="#000" x2="6"></line><text fill="#000" x="9" dy="0.32em">0.9</text></g><g class="tick" opacity="1" transform="translate(0,30.25206611570252)"><line stroke="#000" x2="6"></line><text fill="#000" x="9" dy="0.32em">1</text></g><g class="tick" opacity="1" transform="translate(0,0.5)"><line stroke="#000" x2="6"></line><text fill="#000" x="9" dy="0.32em">1.1</text></g><text text-anchor="start" x="10" y="10" visibility="hidden" style="font-size: 12px; font-family: Arial; fill: #807dba;">No disease causing germline SNPs known!</text></g><circle cx="636" cy="15" r="10" class="compassNav" style="fill: #ffffff; stroke: #666666; stroke-width: 1px;"></circle><path d="M440.935 12.574l3.966 82.766C399.416 41.904 331.674 8 256 8 134.813 8 33.933 94.924 12.296 209.824 10.908 217.193 16.604 224 24.103 224h49.084c5.57 0 10.377-3.842 11.676-9.259C103.407 137.408 172.931 80 256 80c60.893 0 114.512 30.856 146.104 77.801l-101.53-4.865c-6.845-.328-12.574 5.133-12.574 11.986v47.411c0 6.627 5.373 12 12 12h200.333c6.627 0 12-5.373 12-12V12c0-6.627-5.373-12-12-12h-47.411c-6.853 0-12.315 5.729-11.987 12.574zM256 432c-60.895 0-114.517-30.858-146.109-77.805l101.868 4.871c6.845.327 12.573-5.134 12.573-11.986v-47.412c0-6.627-5.373-12-12-12H12c-6.627 0-12 5.373-12 12V500c0 6.627 5.373 12 12 12h47.385c6.863 0 12.328-5.745 11.985-12.599l-4.129-82.575C112.725 470.166 180.405 504 256 504c121.187 0 222.067-86.924 243.704-201.824 1.388-7.369-4.308-14.176-11.807-14.176h-49.084c-5.57 0-10.377 3.842-11.676 9.259C408.593 374.592 339.069 432 256 432z" class="compassNav" transform="translate(631, 10) scale(0.02)" style="fill: #666666; stroke: #666666; stroke-width: 1px;"></path><circle cx="658" cy="15" r="10" class="compassNav" style="fill: #ffffff; stroke: #666666; stroke-width: 1px;"></circle><line class="compassNav" stroke-width="2" stroke="#666666" x1="654" y1="15" x2="662" y2="15"></line><line class="compassNav" stroke-width="2" stroke="#666666" x1="658" y1="11" x2="658" y2="19"></line><circle cx="614" cy="15" r="10" class="compassNav" style="fill: #ffffff; stroke: #666666; stroke-width: 1px;"></circle><line class="compassNav" stroke-width="2" stroke="#666666" x1="610" y1="15" x2="618" y2="15"></line><path d="M582 14 l20 -12 a100,40 0 0,0 0,24z" class="compassNav" style="fill: #ffffff; stroke: #666666; stroke-width: 1px;"></path><path d="M690 14 l-20 -12 a100,40 0 0,1 0,24z" class="compassNav" style="fill: #ffffff; stroke: #666666; stroke-width: 1px;"></path><path d="M216 0h80c13.3 0 24 10.7 24 24v168h87.7c17.8 0 26.7 21.5 14.1 34.1L269.7 378.3c-7.5 7.5-19.8 7.5-27.3 0L90.1 226.1c-12.6-12.6-3.7-34.1 14.1-34.1H192V24c0-13.3 10.7-24 24-24zm296 376v112c0 13.3-10.7 24-24 24H24c-13.3 0-24-10.7-24-24V376c0-13.3 10.7-24 24-24h146.7l49 49c20.1 20.1 52.5 20.1 72.6 0l49-49H488c13.3 0 24 10.7 24 24zm-124 88c0-11-9-20-20-20s-20 9-20 20 9 20 20 20 20-9 20-20zm64 0c0-11-9-20-20-20s-20 9-20 20 9 20 20 20 20-9 20-20z" class="compassNav" transform="translate(552,0) scale(0.05)" style="fill: #336699; stroke: #336699; stroke-width: 1px; cursor: pointer;"></path></g></svg>