<svg width="800" height="400" style="background-color: white;"><g transform="translate(50,0)"><svg width="700" height="360"><g style="-webkit-tap-highlight-color: rgba(0, 0, 0, 0);"><rect width="700" height="360" style="fill: #ffffff;"></rect><g id="lines"><line class="line" stroke-width="1" stroke="#d7301f" x1="-360.71428571428567" y1="333" x2="-360.71428571428567" y2="360" visibility="hidden" style="stroke-dasharray: 3px, 3px;"></line></g><g><rect x="-365.71428571428567" y="355" width="10" height="10" visibility="hidden" style="fill: #ffffff; stroke: #d7301f;"></rect></g><g id="lines"><line class="line" stroke-width="1" stroke="#6a51a3" x1="3.571428571428571" y1="333" x2="3.571428571428571" y2="29.752066115702462" visibility="hidden" style="stroke-dasharray: 3px, 3px;"></line></g><g><rect x="-1.4285714285714288" y="24.752066115702462" width="10" height="10" visibility="hidden" style="fill: #ffffff; stroke: #6a51a3;"></rect></g><g id="lines"><line class="line" stroke-width="1" stroke="#666666" x1="96.42857142857142" y1="333" x2="96.42857142857142" y2="301.1170647534284"></line><line class="line" stroke-width="1" stroke="#666666" x1="167.85714285714286" y1="333" x2="167.85714285714286" y2="310.92543819816547"></line><line class="line" stroke-width="1" stroke="#666666" x1="253.57142857142858" y1="333" x2="253.57142857142858" y2="324.0032694578149"></line><line class="line" stroke-width="1" stroke="#666666" x1="321.42857142857144" y1="333" x2="321.42857142857144" y2="29.752066115702462"></line><line class="line" stroke-width="1" stroke="#666666" x1="482.14285714285717" y1="333" x2="482.14285714285717" y2="324.0032694578149"></line><line class="line" stroke-width="1" stroke="#666666" x1="500" y1="333" x2="500" y2="314.1948960130778"></line><line class="line" stroke-width="1" stroke="#666666" x1="553.5714285714286" y1="333" x2="553.5714285714286" y2="324.0032694578149"></line><line class="line" stroke-width="1" stroke="#666666" x1="646.4285714285714" y1="333" x2="646.4285714285714" y2="314.1948960130778"></line><line class="line" stroke-width="1" stroke="#666666" x1="653.5714285714286" y1="333" x2="653.5714285714286" y2="199.76387249114524"></line><line class="line" stroke-width="1" stroke="#666666" x1="678.5714285714286" y1="333" x2="678.5714285714286" y2="324.0032694578149"></line><line class="line" stroke-width="1" stroke="#666666" x1="678.5714285714286" y1="333" x2="678.5714285714286" y2="324.0032694578149"></line><line class="line" stroke-width="1" stroke="#666666" x1="682.1428571428571" y1="333" x2="682.1428571428571" y2="324.0032694578149"></line><line class="line" stroke-width="1" stroke="#666666" x1="689.2857142857143" y1="333" x2="689.2857142857143" y2="314.1948960130778"></line></g><g id="circles"><circle r="4" cx="96.42857142857142" cy="301.1170647534284" style="fill: #bf812d; stroke: #666666; stroke-width: 1px;"></circle><circle r="4" cx="167.85714285714286" cy="310.92543819816547" style="fill: #bf812d; stroke: #666666; stroke-width: 1px;"></circle><circle r="4" cx="253.57142857142858" cy="324.0032694578149" style="fill: #4393c3; stroke: #666666; stroke-width: 1px;"></circle><circle r="4" cx="321.42857142857144" cy="29.752066115702462" style="fill: #bf812d; stroke: #666666; stroke-width: 1px;"></circle><circle r="4" cx="482.14285714285717" cy="324.0032694578149" style="fill: #bf812d; stroke: #666666; stroke-width: 1px;"></circle><circle r="4" cx="500" cy="314.1948960130778" style="fill: #bf812d; stroke: #666666; stroke-width: 1px;"></circle><circle r="4" cx="553.5714285714286" cy="324.0032694578149" style="fill: #bf812d; stroke: #666666; stroke-width: 1px;"></circle><circle r="4" cx="646.4285714285714" cy="314.1948960130778" style="fill: #bf812d; stroke: #666666; stroke-width: 1px;"></circle><circle r="4" cx="653.5714285714286" cy="199.76387249114524" style="fill: #4393c3; stroke: #666666; stroke-width: 1px;"></circle><circle r="4" cx="678.5714285714286" cy="324.0032694578149" style="fill: #bf812d; stroke: #666666; stroke-width: 1px;"></circle><circle r="4" cx="678.5714285714286" cy="324.0032694578149" style="fill: #5aae61; stroke: #666666; stroke-width: 1px;"></circle><circle r="4" cx="682.1428571428571" cy="324.0032694578149" style="fill: #bf812d; stroke: #666666; stroke-width: 1px;"></circle><circle r="4" cx="689.2857142857143" cy="314.1948960130778" style="fill: #4393c3; stroke: #666666; stroke-width: 1px;"></circle></g><g><rect x="0" y="333" width="700" height="12" style="fill: #ffffff; stroke-width: 1px; stroke: #666666;"></rect><rect x="17.857142857142858" y="333" width="503.5714285714286" height="12" style="fill: #aec7e8; stroke-width: 1px; stroke: #666666;"></rect></g><g><a target="_blank" xlink:href="http://pfam.xfam.org/family/"><text y="343" x="350" text-anchor="middle" style="color: rgb(102, 102, 102); font-weight: normal; font-size: 12px; font-family: Arial; cursor: pointer;"></text></a><a target="_blank" xlink:href="http://pfam.xfam.org/family/UQ_con"><text y="343" x="269.64285714285717" text-anchor="middle" style="color: rgb(102, 102, 102); font-weight: normal; font-size: 12px; font-family: Arial; cursor: pointer;">UQ_con</text></a></g><g><text y="358" x="0" text-anchor="middle" visibility="hidden" style="font-size: 13px;">M</text><text y="358" x="3.571428571428571" text-anchor="middle" visibility="hidden" style="font-size: 13px;">Q</text><text y="358" x="7.142857142857142" text-anchor="middle" visibility="hidden" style="font-size: 13px;">R</text><text y="358" x="10.714285714285714" text-anchor="middle" visibility="hidden" style="font-size: 13px;">A</text><text y="358" x="14.285714285714285" text-anchor="middle" visibility="hidden" style="font-size: 13px;">S</text><text y="358" x="17.857142857142858" text-anchor="middle" visibility="hidden" style="font-size: 13px;">R</text><text y="358" x="21.428571428571427" text-anchor="middle" visibility="hidden" style="font-size: 13px;">L</text><text y="358" x="25" text-anchor="middle" visibility="hidden" style="font-size: 13px;">K</text><text y="358" x="28.57142857142857" text-anchor="middle" visibility="hidden" style="font-size: 13px;">R</text><text y="358" x="32.142857142857146" text-anchor="middle" visibility="hidden" style="font-size: 13px;">E</text><text y="358" x="35.714285714285715" text-anchor="middle" visibility="hidden" style="font-size: 13px;">L</text><text y="358" x="39.285714285714285" text-anchor="middle" visibility="hidden" style="font-size: 13px;">H</text><text y="358" x="42.857142857142854" text-anchor="middle" visibility="hidden" style="font-size: 13px;">M</text><text y="358" x="46.42857142857143" text-anchor="middle" visibility="hidden" style="font-size: 13px;">L</text><text y="358" x="50" text-anchor="middle" visibility="hidden" style="font-size: 13px;">A</text><text y="358" x="53.57142857142857" text-anchor="middle" visibility="hidden" style="font-size: 13px;">T</text><text y="358" x="57.14285714285714" text-anchor="middle" visibility="hidden" style="font-size: 13px;">E</text><text y="358" x="60.714285714285715" text-anchor="middle" visibility="hidden" style="font-size: 13px;">P</text><text y="358" x="64.28571428571429" text-anchor="middle" visibility="hidden" style="font-size: 13px;">P</text><text y="358" x="67.85714285714286" text-anchor="middle" visibility="hidden" style="font-size: 13px;">P</text><text y="358" x="71.42857142857143" text-anchor="middle" visibility="hidden" style="font-size: 13px;">G</text><text y="358" x="75" text-anchor="middle" visibility="hidden" style="font-size: 13px;">I</text><text y="358" x="78.57142857142857" text-anchor="middle" visibility="hidden" style="font-size: 13px;">T</text><text y="358" x="82.14285714285715" text-anchor="middle" visibility="hidden" style="font-size: 13px;">C</text><text y="358" x="85.71428571428571" text-anchor="middle" visibility="hidden" style="font-size: 13px;">W</text><text y="358" x="89.28571428571429" text-anchor="middle" visibility="hidden" style="font-size: 13px;">Q</text><text y="358" x="92.85714285714286" text-anchor="middle" visibility="hidden" style="font-size: 13px;">D</text><text y="358" x="96.42857142857142" text-anchor="middle" visibility="hidden" style="font-size: 13px;">K</text><text y="358" x="100" text-anchor="middle" visibility="hidden" style="font-size: 13px;">D</text><text y="358" x="103.57142857142857" text-anchor="middle" visibility="hidden" style="font-size: 13px;">Q</text><text y="358" x="107.14285714285714" text-anchor="middle" visibility="hidden" style="font-size: 13px;">M</text><text y="358" x="110.71428571428572" text-anchor="middle" visibility="hidden" style="font-size: 13px;">D</text><text y="358" x="114.28571428571428" text-anchor="middle" visibility="hidden" style="font-size: 13px;">D</text><text y="358" x="117.85714285714285" text-anchor="middle" visibility="hidden" style="font-size: 13px;">L</text><text y="358" x="121.42857142857143" text-anchor="middle" visibility="hidden" style="font-size: 13px;">R</text><text y="358" x="125" text-anchor="middle" visibility="hidden" style="font-size: 13px;">A</text><text y="358" x="128.57142857142858" text-anchor="middle" visibility="hidden" style="font-size: 13px;">Q</text><text y="358" x="132.14285714285714" text-anchor="middle" visibility="hidden" style="font-size: 13px;">I</text><text y="358" x="135.71428571428572" text-anchor="middle" visibility="hidden" style="font-size: 13px;">L</text><text y="358" x="139.28571428571428" text-anchor="middle" visibility="hidden" style="font-size: 13px;">G</text><text y="358" x="142.85714285714286" text-anchor="middle" visibility="hidden" style="font-size: 13px;">G</text><text y="358" x="146.42857142857144" text-anchor="middle" visibility="hidden" style="font-size: 13px;">A</text><text y="358" x="150" text-anchor="middle" visibility="hidden" style="font-size: 13px;">N</text><text y="358" x="153.57142857142856" text-anchor="middle" visibility="hidden" style="font-size: 13px;">T</text><text y="358" x="157.14285714285714" text-anchor="middle" visibility="hidden" style="font-size: 13px;">P</text><text y="358" x="160.71428571428572" text-anchor="middle" visibility="hidden" style="font-size: 13px;">Y</text><text y="358" x="164.2857142857143" text-anchor="middle" visibility="hidden" style="font-size: 13px;">E</text><text y="358" x="167.85714285714286" text-anchor="middle" visibility="hidden" style="font-size: 13px;">K</text><text y="358" x="171.42857142857142" text-anchor="middle" visibility="hidden" style="font-size: 13px;">G</text><text y="358" x="175" text-anchor="middle" visibility="hidden" style="font-size: 13px;">V</text><text y="358" x="178.57142857142858" text-anchor="middle" visibility="hidden" style="font-size: 13px;">F</text><text y="358" x="182.14285714285714" text-anchor="middle" visibility="hidden" style="font-size: 13px;">K</text><text y="358" x="185.71428571428572" text-anchor="middle" visibility="hidden" style="font-size: 13px;">L</text><text y="358" x="189.2857142857143" text-anchor="middle" visibility="hidden" style="font-size: 13px;">E</text><text y="358" x="192.85714285714283" text-anchor="middle" visibility="hidden" style="font-size: 13px;">V</text><text y="358" x="196.42857142857142" text-anchor="middle" visibility="hidden" style="font-size: 13px;">I</text><text y="358" x="200" text-anchor="middle" visibility="hidden" style="font-size: 13px;">I</text><text y="358" x="203.57142857142856" text-anchor="middle" visibility="hidden" style="font-size: 13px;">P</text><text y="358" x="207.14285714285714" text-anchor="middle" visibility="hidden" style="font-size: 13px;">E</text><text y="358" x="210.71428571428572" text-anchor="middle" visibility="hidden" style="font-size: 13px;">R</text><text y="358" x="214.28571428571428" text-anchor="middle" visibility="hidden" style="font-size: 13px;">Y</text><text y="358" x="217.85714285714286" text-anchor="middle" visibility="hidden" style="font-size: 13px;">P</text><text y="358" x="221.42857142857144" text-anchor="middle" visibility="hidden" style="font-size: 13px;">F</text><text y="358" x="225.00000000000003" text-anchor="middle" visibility="hidden" style="font-size: 13px;">E</text><text y="358" x="228.57142857142856" text-anchor="middle" visibility="hidden" style="font-size: 13px;">P</text><text y="358" x="232.14285714285714" text-anchor="middle" visibility="hidden" style="font-size: 13px;">P</text><text y="358" x="235.7142857142857" text-anchor="middle" visibility="hidden" style="font-size: 13px;">Q</text><text y="358" x="239.28571428571428" text-anchor="middle" visibility="hidden" style="font-size: 13px;">I</text><text y="358" x="242.85714285714286" text-anchor="middle" visibility="hidden" style="font-size: 13px;">R</text><text y="358" x="246.42857142857142" text-anchor="middle" visibility="hidden" style="font-size: 13px;">F</text><text y="358" x="250" text-anchor="middle" visibility="hidden" style="font-size: 13px;">L</text><text y="358" x="253.57142857142858" text-anchor="middle" visibility="hidden" style="font-size: 13px;">T</text><text y="358" x="257.14285714285717" text-anchor="middle" visibility="hidden" style="font-size: 13px;">P</text><text y="358" x="260.7142857142857" text-anchor="middle" visibility="hidden" style="font-size: 13px;">I</text><text y="358" x="264.2857142857143" text-anchor="middle" visibility="hidden" style="font-size: 13px;">Y</text><text y="358" x="267.85714285714283" text-anchor="middle" visibility="hidden" style="font-size: 13px;">H</text><text y="358" x="271.42857142857144" text-anchor="middle" visibility="hidden" style="font-size: 13px;">P</text><text y="358" x="275" text-anchor="middle" visibility="hidden" style="font-size: 13px;">N</text><text y="358" x="278.57142857142856" text-anchor="middle" visibility="hidden" style="font-size: 13px;">I</text><text y="358" x="282.14285714285717" text-anchor="middle" visibility="hidden" style="font-size: 13px;">D</text><text y="358" x="285.7142857142857" text-anchor="middle" visibility="hidden" style="font-size: 13px;">S</text><text y="358" x="289.2857142857143" text-anchor="middle" visibility="hidden" style="font-size: 13px;">A</text><text y="358" x="292.8571428571429" text-anchor="middle" visibility="hidden" style="font-size: 13px;">G</text><text y="358" x="296.42857142857144" text-anchor="middle" visibility="hidden" style="font-size: 13px;">R</text><text y="358" x="300" text-anchor="middle" visibility="hidden" style="font-size: 13px;">I</text><text y="358" x="303.57142857142856" text-anchor="middle" visibility="hidden" style="font-size: 13px;">C</text><text y="358" x="307.1428571428571" text-anchor="middle" visibility="hidden" style="font-size: 13px;">L</text><text y="358" x="310.7142857142857" text-anchor="middle" visibility="hidden" style="font-size: 13px;">D</text><text y="358" x="314.2857142857143" text-anchor="middle" visibility="hidden" style="font-size: 13px;">V</text><text y="358" x="317.85714285714283" text-anchor="middle" visibility="hidden" style="font-size: 13px;">L</text><text y="358" x="321.42857142857144" text-anchor="middle" visibility="hidden" style="font-size: 13px;">K</text><text y="358" x="325" text-anchor="middle" visibility="hidden" style="font-size: 13px;">L</text><text y="358" x="328.5714285714286" text-anchor="middle" visibility="hidden" style="font-size: 13px;">P</text><text y="358" x="332.14285714285717" text-anchor="middle" visibility="hidden" style="font-size: 13px;">P</text><text y="358" x="335.7142857142857" text-anchor="middle" visibility="hidden" style="font-size: 13px;">K</text><text y="358" x="339.2857142857143" text-anchor="middle" visibility="hidden" style="font-size: 13px;">G</text><text y="358" x="342.85714285714283" text-anchor="middle" visibility="hidden" style="font-size: 13px;">A</text><text y="358" x="346.42857142857144" text-anchor="middle" visibility="hidden" style="font-size: 13px;">W</text><text y="358" x="350" text-anchor="middle" visibility="hidden" style="font-size: 13px;">R</text><text y="358" x="353.57142857142856" text-anchor="middle" visibility="hidden" style="font-size: 13px;">P</text><text y="358" x="357.14285714285717" text-anchor="middle" visibility="hidden" style="font-size: 13px;">S</text><text y="358" x="360.71428571428567" text-anchor="middle" visibility="hidden" style="font-size: 13px;">L</text><text y="358" x="364.2857142857143" text-anchor="middle" visibility="hidden" style="font-size: 13px;">N</text><text y="358" x="367.85714285714283" text-anchor="middle" visibility="hidden" style="font-size: 13px;">I</text><text y="358" x="371.42857142857144" text-anchor="middle" visibility="hidden" style="font-size: 13px;">A</text><text y="358" x="375" text-anchor="middle" visibility="hidden" style="font-size: 13px;">T</text><text y="358" x="378.5714285714286" text-anchor="middle" visibility="hidden" style="font-size: 13px;">V</text><text y="358" x="382.14285714285717" text-anchor="middle" visibility="hidden" style="font-size: 13px;">L</text><text y="358" x="385.71428571428567" text-anchor="middle" visibility="hidden" style="font-size: 13px;">T</text><text y="358" x="389.2857142857143" text-anchor="middle" visibility="hidden" style="font-size: 13px;">S</text><text y="358" x="392.85714285714283" text-anchor="middle" visibility="hidden" style="font-size: 13px;">I</text><text y="358" x="396.42857142857144" text-anchor="middle" visibility="hidden" style="font-size: 13px;">Q</text><text y="358" x="400" text-anchor="middle" visibility="hidden" style="font-size: 13px;">L</text><text y="358" x="403.5714285714286" text-anchor="middle" visibility="hidden" style="font-size: 13px;">L</text><text y="358" x="407.1428571428571" text-anchor="middle" visibility="hidden" style="font-size: 13px;">M</text><text y="358" x="410.7142857142857" text-anchor="middle" visibility="hidden" style="font-size: 13px;">S</text><text y="358" x="414.2857142857143" text-anchor="middle" visibility="hidden" style="font-size: 13px;">E</text><text y="358" x="417.8571428571429" text-anchor="middle" visibility="hidden" style="font-size: 13px;">P</text><text y="358" x="421.42857142857144" text-anchor="middle" visibility="hidden" style="font-size: 13px;">N</text><text y="358" x="424.99999999999994" text-anchor="middle" visibility="hidden" style="font-size: 13px;">P</text><text y="358" x="428.57142857142856" text-anchor="middle" visibility="hidden" style="font-size: 13px;">D</text><text y="358" x="432.1428571428571" text-anchor="middle" visibility="hidden" style="font-size: 13px;">D</text><text y="358" x="435.7142857142857" text-anchor="middle" visibility="hidden" style="font-size: 13px;">P</text><text y="358" x="439.2857142857143" text-anchor="middle" visibility="hidden" style="font-size: 13px;">L</text><text y="358" x="442.8571428571429" text-anchor="middle" visibility="hidden" style="font-size: 13px;">M</text><text y="358" x="446.42857142857144" text-anchor="middle" visibility="hidden" style="font-size: 13px;">A</text><text y="358" x="450.00000000000006" text-anchor="middle" visibility="hidden" style="font-size: 13px;">D</text><text y="358" x="453.57142857142856" text-anchor="middle" visibility="hidden" style="font-size: 13px;">I</text><text y="358" x="457.1428571428571" text-anchor="middle" visibility="hidden" style="font-size: 13px;">S</text><text y="358" x="460.7142857142857" text-anchor="middle" visibility="hidden" style="font-size: 13px;">S</text><text y="358" x="464.2857142857143" text-anchor="middle" visibility="hidden" style="font-size: 13px;">E</text><text y="358" x="467.8571428571429" text-anchor="middle" visibility="hidden" style="font-size: 13px;">F</text><text y="358" x="471.4285714285714" text-anchor="middle" visibility="hidden" style="font-size: 13px;">K</text><text y="358" x="475" text-anchor="middle" visibility="hidden" style="font-size: 13px;">Y</text><text y="358" x="478.57142857142856" text-anchor="middle" visibility="hidden" style="font-size: 13px;">N</text><text y="358" x="482.14285714285717" text-anchor="middle" visibility="hidden" style="font-size: 13px;">K</text><text y="358" x="485.7142857142857" text-anchor="middle" visibility="hidden" style="font-size: 13px;">P</text><text y="358" x="489.28571428571433" text-anchor="middle" visibility="hidden" style="font-size: 13px;">A</text><text y="358" x="492.85714285714283" text-anchor="middle" visibility="hidden" style="font-size: 13px;">F</text><text y="358" x="496.4285714285714" text-anchor="middle" visibility="hidden" style="font-size: 13px;">L</text><text y="358" x="500" text-anchor="middle" visibility="hidden" style="font-size: 13px;">K</text><text y="358" x="503.57142857142856" text-anchor="middle" visibility="hidden" style="font-size: 13px;">N</text><text y="358" x="507.14285714285717" text-anchor="middle" visibility="hidden" style="font-size: 13px;">A</text><text y="358" x="510.7142857142857" text-anchor="middle" visibility="hidden" style="font-size: 13px;">R</text><text y="358" x="514.2857142857143" text-anchor="middle" visibility="hidden" style="font-size: 13px;">Q</text><text y="358" x="517.8571428571429" text-anchor="middle" visibility="hidden" style="font-size: 13px;">W</text><text y="358" x="521.4285714285714" text-anchor="middle" visibility="hidden" style="font-size: 13px;">T</text><text y="358" x="525" text-anchor="middle" visibility="hidden" style="font-size: 13px;">E</text><text y="358" x="528.5714285714286" text-anchor="middle" visibility="hidden" style="font-size: 13px;">K</text><text y="358" x="532.1428571428571" text-anchor="middle" visibility="hidden" style="font-size: 13px;">H</text><text y="358" x="535.7142857142857" text-anchor="middle" visibility="hidden" style="font-size: 13px;">A</text><text y="358" x="539.2857142857143" text-anchor="middle" visibility="hidden" style="font-size: 13px;">R</text><text y="358" x="542.8571428571429" text-anchor="middle" visibility="hidden" style="font-size: 13px;">Q</text><text y="358" x="546.4285714285714" text-anchor="middle" visibility="hidden" style="font-size: 13px;">K</text><text y="358" x="550" text-anchor="middle" visibility="hidden" style="font-size: 13px;">Q</text><text y="358" x="553.5714285714286" text-anchor="middle" visibility="hidden" style="font-size: 13px;">K</text><text y="358" x="557.1428571428571" text-anchor="middle" visibility="hidden" style="font-size: 13px;">A</text><text y="358" x="560.7142857142857" text-anchor="middle" visibility="hidden" style="font-size: 13px;">D</text><text y="358" x="564.2857142857143" text-anchor="middle" visibility="hidden" style="font-size: 13px;">E</text><text y="358" x="567.8571428571428" text-anchor="middle" visibility="hidden" style="font-size: 13px;">E</text><text y="358" x="571.4285714285714" text-anchor="middle" visibility="hidden" style="font-size: 13px;">E</text><text y="358" x="575" text-anchor="middle" visibility="hidden" style="font-size: 13px;">M</text><text y="358" x="578.5714285714286" text-anchor="middle" visibility="hidden" style="font-size: 13px;">L</text><text y="358" x="582.1428571428571" text-anchor="middle" visibility="hidden" style="font-size: 13px;">D</text><text y="358" x="585.7142857142858" text-anchor="middle" visibility="hidden" style="font-size: 13px;">N</text><text y="358" x="589.2857142857143" text-anchor="middle" visibility="hidden" style="font-size: 13px;">L</text><text y="358" x="592.8571428571429" text-anchor="middle" visibility="hidden" style="font-size: 13px;">P</text><text y="358" x="596.4285714285714" text-anchor="middle" visibility="hidden" style="font-size: 13px;">E</text><text y="358" x="600" text-anchor="middle" visibility="hidden" style="font-size: 13px;">A</text><text y="358" x="603.5714285714286" text-anchor="middle" visibility="hidden" style="font-size: 13px;">G</text><text y="358" x="607.1428571428571" text-anchor="middle" visibility="hidden" style="font-size: 13px;">D</text><text y="358" x="610.7142857142858" text-anchor="middle" visibility="hidden" style="font-size: 13px;">S</text><text y="358" x="614.2857142857142" text-anchor="middle" visibility="hidden" style="font-size: 13px;">R</text><text y="358" x="617.8571428571429" text-anchor="middle" visibility="hidden" style="font-size: 13px;">V</text><text y="358" x="621.4285714285714" text-anchor="middle" visibility="hidden" style="font-size: 13px;">H</text><text y="358" x="625" text-anchor="middle" visibility="hidden" style="font-size: 13px;">N</text><text y="358" x="628.5714285714286" text-anchor="middle" visibility="hidden" style="font-size: 13px;">S</text><text y="358" x="632.1428571428571" text-anchor="middle" visibility="hidden" style="font-size: 13px;">T</text><text y="358" x="635.7142857142857" text-anchor="middle" visibility="hidden" style="font-size: 13px;">Q</text><text y="358" x="639.2857142857142" text-anchor="middle" visibility="hidden" style="font-size: 13px;">K</text><text y="358" x="642.8571428571429" text-anchor="middle" visibility="hidden" style="font-size: 13px;">R</text><text y="358" x="646.4285714285714" text-anchor="middle" visibility="hidden" style="font-size: 13px;">K</text><text y="358" x="650" text-anchor="middle" visibility="hidden" style="font-size: 13px;">A</text><text y="358" x="653.5714285714286" text-anchor="middle" visibility="hidden" style="font-size: 13px;">S</text><text y="358" x="657.1428571428572" text-anchor="middle" visibility="hidden" style="font-size: 13px;">Q</text><text y="358" x="660.7142857142857" text-anchor="middle" visibility="hidden" style="font-size: 13px;">L</text><text y="358" x="664.2857142857143" text-anchor="middle" visibility="hidden" style="font-size: 13px;">V</text><text y="358" x="667.8571428571429" text-anchor="middle" visibility="hidden" style="font-size: 13px;">G</text><text y="358" x="671.4285714285714" text-anchor="middle" visibility="hidden" style="font-size: 13px;">I</text><text y="358" x="675" text-anchor="middle" visibility="hidden" style="font-size: 13px;">E</text><text y="358" x="678.5714285714286" text-anchor="middle" visibility="hidden" style="font-size: 13px;">K</text><text y="358" x="682.1428571428571" text-anchor="middle" visibility="hidden" style="font-size: 13px;">K</text><text y="358" x="685.7142857142857" text-anchor="middle" visibility="hidden" style="font-size: 13px;">F</text><text y="358" x="689.2857142857143" text-anchor="middle" visibility="hidden" style="font-size: 13px;">H</text><text y="358" x="692.8571428571429" text-anchor="middle" visibility="hidden" style="font-size: 13px;">P</text><text y="358" x="696.4285714285714" text-anchor="middle" visibility="hidden" style="font-size: 13px;">D</text><text y="358" x="700" text-anchor="middle" visibility="hidden" style="font-size: 13px;">V</text></g></g></svg><g class="xAxis" transform="translate(0,360)" fill="none" font-size="10" font-family="sans-serif" text-anchor="middle"><path class="domain" stroke="#000" d="M0.5,6V0.5H700.5V6"></path><g class="tick" opacity="1" transform="translate(68.35714285714286,0)"><line stroke="#000" y2="6"></line><text fill="#000" y="9" dy="0.71em">20</text></g><g class="tick" opacity="1" transform="translate(139.78571428571428,0)"><line stroke="#000" y2="6"></line><text fill="#000" y="9" dy="0.71em">40</text></g><g class="tick" opacity="1" transform="translate(211.21428571428572,0)"><line stroke="#000" y2="6"></line><text fill="#000" y="9" dy="0.71em">60</text></g><g class="tick" opacity="1" transform="translate(282.64285714285717,0)"><line stroke="#000" y2="6"></line><text fill="#000" y="9" dy="0.71em">80</text></g><g class="tick" opacity="1" transform="translate(354.07142857142856,0)"><line stroke="#000" y2="6"></line><text fill="#000" y="9" dy="0.71em">100</text></g><g class="tick" opacity="1" transform="translate(425.49999999999994,0)"><line stroke="#000" y2="6"></line><text fill="#000" y="9" dy="0.71em">120</text></g><g class="tick" opacity="1" transform="translate(496.9285714285714,0)"><line stroke="#000" y2="6"></line><text fill="#000" y="9" dy="0.71em">140</text></g><g class="tick" opacity="1" transform="translate(568.3571428571428,0)"><line stroke="#000" y2="6"></line><text fill="#000" y="9" dy="0.71em">160</text></g><g class="tick" opacity="1" transform="translate(639.7857142857142,0)"><line stroke="#000" y2="6"></line><text fill="#000" y="9" dy="0.71em">180</text></g></g><text class="x label" text-anchor="end" x="700" y="390" style="font-size: 13px; font-family: Arial;">Residue number</text><g class="yAxis" fill="none" font-size="10" font-family="sans-serif" text-anchor="end"><path class="domain" stroke="#000" d="M-6,360.5H0.5V0.5H-6"></path><g class="tick" opacity="1" transform="translate(0,360.4673054218509)"><line stroke="#000" x2="-6"></line><text fill="#000" x="-9" dy="0.32em"></text></g><g class="tick" opacity="1" transform="translate(0,327.77272727272725)"><line stroke="#000" x2="-6"></line><text fill="#000" x="-9" dy="0.32em">0</text></g><g class="tick" opacity="1" transform="translate(0,295.0781491236037)"><line stroke="#000" x2="-6"></line><text fill="#000" x="-9" dy="0.32em">10</text></g><g class="tick" opacity="1" transform="translate(0,262.3835709744801)"><line stroke="#000" x2="-6"></line><text fill="#000" x="-9" dy="0.32em">20</text></g><g class="tick" opacity="1" transform="translate(0,229.68899282535648)"><line stroke="#000" x2="-6"></line><text fill="#000" x="-9" dy="0.32em">30</text></g><g class="tick" opacity="1" transform="translate(0,196.99441467623288)"><line stroke="#000" x2="-6"></line><text fill="#000" x="-9" dy="0.32em">40</text></g><g class="tick" opacity="1" transform="translate(0,164.29983652710925)"><line stroke="#000" x2="-6"></line><text fill="#000" x="-9" dy="0.32em">50</text></g><g class="tick" opacity="1" transform="translate(0,131.60525837798562)"><line stroke="#000" x2="-6"></line><text fill="#000" x="-9" dy="0.32em">60</text></g><g class="tick" opacity="1" transform="translate(0,98.91068022886202)"><line stroke="#000" x2="-6"></line><text fill="#000" x="-9" dy="0.32em">70</text></g><g class="tick" opacity="1" transform="translate(0,66.21610207973839)"><line stroke="#000" x2="-6"></line><text fill="#000" x="-9" dy="0.32em">80</text></g><g class="tick" opacity="1" transform="translate(0,33.52152393061482)"><line stroke="#000" x2="-6"></line><text fill="#000" x="-9" dy="0.32em">90</text></g><g class="tick" opacity="1" transform="translate(0,0.8269457814912471)"><line stroke="#000" x2="-6"></line><text fill="#000" x="-9" dy="0.32em">100</text></g></g><text class="y label" text-anchor="middle" y="-50" x="-180" dy="0.8em" transform="rotate(-90)" style="font-size: 13px; font-family: Arial;">Total number of references</text><g class="axisRed" fill="none" font-size="10" font-family="sans-serif" text-anchor="start" visibility="hidden" transform="translate(700, 0)"><path class="domain" stroke="#000" d="M6,360.5H0.5V0.5H6"></path><g class="tick" opacity="1" transform="translate(0,360.5)"><line stroke="#000" x2="6"></line><text fill="#000" x="9" dy="0.32em">0</text></g><text text-anchor="start" dx="5.2em" dy="-2.6em" transform="rotate(90)" visibility="hidden" style="font-size: 12px; font-family: Arial; fill: #d7301f;">No recurrent (&gt;2) missense mutations!</text></g><g class="axisPurple" fill="none" font-size="10" font-family="sans-serif" text-anchor="start" visibility="hidden"><path class="domain" stroke="#000" d="M6,360.5H0.5V0.5H6"></path><g class="tick" opacity="1" transform="translate(0,327.77272727272725)"><line stroke="#000" x2="6"></line><text fill="#000" x="9" dy="0.32em">0</text></g><g class="tick" opacity="1" transform="translate(0,290.58264462809916)"><line stroke="#000" x2="6"></line><text fill="#000" x="9" dy="0.32em">0.0001</text></g><g class="tick" opacity="1" transform="translate(0,253.39256198347107)"><line stroke="#000" x2="6"></line><text fill="#000" x="9" dy="0.32em">0.0002</text></g><g class="tick" opacity="1" transform="translate(0,216.20247933884298)"><line stroke="#000" x2="6"></line><text fill="#000" x="9" dy="0.32em">0.0003</text></g><g class="tick" opacity="1" transform="translate(0,179.01239669421483)"><line stroke="#000" x2="6"></line><text fill="#000" x="9" dy="0.32em">0.0004</text></g><g class="tick" opacity="1" transform="translate(0,141.8223140495868)"><line stroke="#000" x2="6"></line><text fill="#000" x="9" dy="0.32em">0.0005</text></g><g class="tick" opacity="1" transform="translate(0,104.6322314049587)"><line stroke="#000" x2="6"></line><text fill="#000" x="9" dy="0.32em">0.0006</text></g><g class="tick" opacity="1" transform="translate(0,67.44214876033061)"><line stroke="#000" x2="6"></line><text fill="#000" x="9" dy="0.32em">0.0007</text></g><g class="tick" opacity="1" transform="translate(0,30.252066115702462)"><line stroke="#000" x2="6"></line><text fill="#000" x="9" dy="0.32em">0.0008</text></g><text text-anchor="start" x="10" y="10" visibility="hidden" style="font-size: 12px; font-family: Arial; fill: #807dba;">Minor Allele Frequency (MAF) %</text></g><circle cx="636" cy="15" r="10" class="compassNav" style="fill: #ffffff; stroke: #666666; stroke-width: 1px;"></circle><path d="M440.935 12.574l3.966 82.766C399.416 41.904 331.674 8 256 8 134.813 8 33.933 94.924 12.296 209.824 10.908 217.193 16.604 224 24.103 224h49.084c5.57 0 10.377-3.842 11.676-9.259C103.407 137.408 172.931 80 256 80c60.893 0 114.512 30.856 146.104 77.801l-101.53-4.865c-6.845-.328-12.574 5.133-12.574 11.986v47.411c0 6.627 5.373 12 12 12h200.333c6.627 0 12-5.373 12-12V12c0-6.627-5.373-12-12-12h-47.411c-6.853 0-12.315 5.729-11.987 12.574zM256 432c-60.895 0-114.517-30.858-146.109-77.805l101.868 4.871c6.845.327 12.573-5.134 12.573-11.986v-47.412c0-6.627-5.373-12-12-12H12c-6.627 0-12 5.373-12 12V500c0 6.627 5.373 12 12 12h47.385c6.863 0 12.328-5.745 11.985-12.599l-4.129-82.575C112.725 470.166 180.405 504 256 504c121.187 0 222.067-86.924 243.704-201.824 1.388-7.369-4.308-14.176-11.807-14.176h-49.084c-5.57 0-10.377 3.842-11.676 9.259C408.593 374.592 339.069 432 256 432z" class="compassNav" transform="translate(631, 10) scale(0.02)" style="fill: #666666; stroke: #666666; stroke-width: 1px;"></path><circle cx="658" cy="15" r="10" class="compassNav" style="fill: #ffffff; stroke: #666666; stroke-width: 1px;"></circle><line class="compassNav" stroke-width="2" stroke="#666666" x1="654" y1="15" x2="662" y2="15"></line><line class="compassNav" stroke-width="2" stroke="#666666" x1="658" y1="11" x2="658" y2="19"></line><circle cx="614" cy="15" r="10" class="compassNav" style="fill: #ffffff; stroke: #666666; stroke-width: 1px;"></circle><line class="compassNav" stroke-width="2" stroke="#666666" x1="610" y1="15" x2="618" y2="15"></line><path d="M582 14 l20 -12 a100,40 0 0,0 0,24z" class="compassNav" style="fill: #ffffff; stroke: #666666; stroke-width: 1px;"></path><path d="M690 14 l-20 -12 a100,40 0 0,1 0,24z" class="compassNav" style="fill: #ffffff; stroke: #666666; stroke-width: 1px;"></path><path d="M216 0h80c13.3 0 24 10.7 24 24v168h87.7c17.8 0 26.7 21.5 14.1 34.1L269.7 378.3c-7.5 7.5-19.8 7.5-27.3 0L90.1 226.1c-12.6-12.6-3.7-34.1 14.1-34.1H192V24c0-13.3 10.7-24 24-24zm296 376v112c0 13.3-10.7 24-24 24H24c-13.3 0-24-10.7-24-24V376c0-13.3 10.7-24 24-24h146.7l49 49c20.1 20.1 52.5 20.1 72.6 0l49-49H488c13.3 0 24 10.7 24 24zm-124 88c0-11-9-20-20-20s-20 9-20 20 9 20 20 20 20-9 20-20zm64 0c0-11-9-20-20-20s-20 9-20 20 9 20 20 20 20-9 20-20z" class="compassNav" transform="translate(552,0) scale(0.05)" style="fill: #336699; stroke: #336699; stroke-width: 1px; cursor: pointer;"></path></g></svg>