<svg width="800" height="400" style="background-color: white;"><g transform="translate(50,0)"><svg width="700" height="360"><g style="-webkit-tap-highlight-color: rgba(0, 0, 0, 0);"><rect width="700" height="360" style="fill: #ffffff;"></rect><g id="lines"><line class="line" stroke-width="1" stroke="#d7301f" x1="-257.09090909090907" y1="333" x2="-257.09090909090907" y2="360" visibility="hidden" style="stroke-dasharray: 3px, 3px;"></line></g><g><rect x="-262.09090909090907" y="355" width="10" height="10" visibility="hidden" style="fill: #ffffff; stroke: #d7301f;"></rect></g><g id="lines"><line class="line" stroke-width="1" stroke="#6a51a3" x1="-257.09090909090907" y1="333" x2="-257.09090909090907" y2="327.27272727272725" visibility="hidden" style="stroke-dasharray: 3px, 3px;"></line></g><g><rect x="-262.09090909090907" y="322.27272727272725" width="10" height="10" visibility="hidden" style="fill: #ffffff; stroke: #6a51a3;"></rect></g><g id="lines"><line class="line" stroke-width="1" stroke="#666666" x1="63.63636363636364" y1="333" x2="63.63636363636364" y2="291.20961682945153"></line><line class="line" stroke-width="1" stroke="#666666" x1="91.63636363636364" y1="333" x2="91.63636363636364" y2="318.2569496619083"></line><line class="line" stroke-width="1" stroke="#666666" x1="122.18181818181819" y1="333" x2="122.18181818181819" y2="219.0833959429001"></line><line class="line" stroke-width="1" stroke="#666666" x1="129.8181818181818" y1="333" x2="129.8181818181818" y2="309.2411720510894"></line><line class="line" stroke-width="1" stroke="#666666" x1="150.1818181818182" y1="333" x2="150.1818181818182" y2="318.2569496619083"></line><line class="line" stroke-width="1" stroke="#666666" x1="168" y1="333" x2="168" y2="318.2569496619083"></line><line class="line" stroke-width="1" stroke="#666666" x1="170.54545454545453" y1="333" x2="170.54545454545453" y2="282.1938392186326"></line><line class="line" stroke-width="1" stroke="#666666" x1="170.54545454545453" y1="333" x2="170.54545454545453" y2="318.2569496619083"></line><line class="line" stroke-width="1" stroke="#666666" x1="185.8181818181818" y1="333" x2="185.8181818181818" y2="318.2569496619083"></line><line class="line" stroke-width="1" stroke="#666666" x1="185.8181818181818" y1="333" x2="185.8181818181818" y2="318.2569496619083"></line><line class="line" stroke-width="1" stroke="#666666" x1="282.54545454545456" y1="333" x2="282.54545454545456" y2="309.2411720510894"></line><line class="line" stroke-width="1" stroke="#666666" x1="310.54545454545456" y1="333" x2="310.54545454545456" y2="318.2569496619083"></line><line class="line" stroke-width="1" stroke="#666666" x1="328.3636363636364" y1="333" x2="328.3636363636364" y2="309.2411720510894"></line><line class="line" stroke-width="1" stroke="#666666" x1="336" y1="333" x2="336" y2="318.2569496619083"></line><line class="line" stroke-width="1" stroke="#666666" x1="366.54545454545456" y1="333" x2="366.54545454545456" y2="29.752066115702462"></line><line class="line" stroke-width="1" stroke="#666666" x1="417.45454545454544" y1="333" x2="417.45454545454544" y2="318.2569496619083"></line><line class="line" stroke-width="1" stroke="#666666" x1="511.6363636363637" y1="333" x2="511.6363636363637" y2="318.2569496619083"></line><line class="line" stroke-width="1" stroke="#666666" x1="524.3636363636364" y1="333" x2="524.3636363636364" y2="318.2569496619083"></line><line class="line" stroke-width="1" stroke="#666666" x1="539.6363636363636" y1="333" x2="539.6363636363636" y2="309.2411720510894"></line><line class="line" stroke-width="1" stroke="#666666" x1="600.7272727272727" y1="333" x2="600.7272727272727" y2="318.2569496619083"></line><line class="line" stroke-width="1" stroke="#666666" x1="618.5454545454546" y1="333" x2="618.5454545454546" y2="318.2569496619083"></line><line class="line" stroke-width="1" stroke="#666666" x1="631.2727272727273" y1="333" x2="631.2727272727273" y2="119.90984222389181"></line><line class="line" stroke-width="1" stroke="#666666" x1="631.2727272727273" y1="333" x2="631.2727272727273" y2="318.2569496619083"></line><line class="line" stroke-width="1" stroke="#666666" x1="631.2727272727273" y1="333" x2="631.2727272727273" y2="318.2569496619083"></line><line class="line" stroke-width="1" stroke="#666666" x1="633.8181818181818" y1="333" x2="633.8181818181818" y2="291.20961682945153"></line><line class="line" stroke-width="1" stroke="#666666" x1="664.3636363636364" y1="333" x2="664.3636363636364" y2="318.2569496619083"></line><line class="line" stroke-width="1" stroke="#666666" x1="672" y1="333" x2="672" y2="318.2569496619083"></line><line class="line" stroke-width="1" stroke="#666666" x1="674.5454545454545" y1="333" x2="674.5454545454545" y2="309.2411720510894"></line><line class="line" stroke-width="1" stroke="#666666" x1="682.1818181818181" y1="333" x2="682.1818181818181" y2="282.1938392186326"></line><line class="line" stroke-width="1" stroke="#666666" x1="697.4545454545454" y1="333" x2="697.4545454545454" y2="318.2569496619083"></line></g><g id="circles"><circle r="4" cx="63.63636363636364" cy="291.20961682945153" style="fill: #4393c3; stroke: #666666; stroke-width: 1px;"></circle><circle r="4" cx="91.63636363636364" cy="318.2569496619083" style="fill: #bf812d; stroke: #666666; stroke-width: 1px;"></circle><circle r="4" cx="122.18181818181819" cy="219.0833959429001" style="fill: #4393c3; stroke: #666666; stroke-width: 1px;"></circle><circle r="4" cx="129.8181818181818" cy="309.2411720510894" style="fill: #bf812d; stroke: #666666; stroke-width: 1px;"></circle><circle r="4" cx="150.1818181818182" cy="318.2569496619083" style="fill: #bf812d; stroke: #666666; stroke-width: 1px;"></circle><circle r="4" cx="168" cy="318.2569496619083" style="fill: #5aae61; stroke: #666666; stroke-width: 1px;"></circle><circle r="4" cx="170.54545454545453" cy="282.1938392186326" style="fill: #5aae61; stroke: #666666; stroke-width: 1px;"></circle><circle r="4" cx="170.54545454545453" cy="318.2569496619083" style="fill: #bf812d; stroke: #666666; stroke-width: 1px;"></circle><circle r="4" cx="185.8181818181818" cy="318.2569496619083" style="fill: #5aae61; stroke: #666666; stroke-width: 1px;"></circle><circle r="4" cx="185.8181818181818" cy="318.2569496619083" style="fill: #bf812d; stroke: #666666; stroke-width: 1px;"></circle><circle r="4" cx="282.54545454545456" cy="309.2411720510894" style="fill: #bf812d; stroke: #666666; stroke-width: 1px;"></circle><circle r="4" cx="310.54545454545456" cy="318.2569496619083" style="fill: #5aae61; stroke: #666666; stroke-width: 1px;"></circle><circle r="4" cx="328.3636363636364" cy="309.2411720510894" style="fill: #bf812d; stroke: #666666; stroke-width: 1px;"></circle><circle r="4" cx="336" cy="318.2569496619083" style="fill: #4393c3; stroke: #666666; stroke-width: 1px;"></circle><circle r="4" cx="366.54545454545456" cy="29.752066115702462" style="fill: #4393c3; stroke: #666666; stroke-width: 1px;"></circle><circle r="4" cx="417.45454545454544" cy="318.2569496619083" style="fill: #4393c3; stroke: #666666; stroke-width: 1px;"></circle><circle r="4" cx="511.6363636363637" cy="318.2569496619083" style="fill: #4393c3; stroke: #666666; stroke-width: 1px;"></circle><circle r="4" cx="524.3636363636364" cy="318.2569496619083" style="fill: #4393c3; stroke: #666666; stroke-width: 1px;"></circle><circle r="4" cx="539.6363636363636" cy="309.2411720510894" style="fill: #5aae61; stroke: #666666; stroke-width: 1px;"></circle><circle r="4" cx="600.7272727272727" cy="318.2569496619083" style="fill: #4393c3; stroke: #666666; stroke-width: 1px;"></circle><circle r="4" cx="618.5454545454546" cy="318.2569496619083" style="fill: #4393c3; stroke: #666666; stroke-width: 1px;"></circle><circle r="4" cx="631.2727272727273" cy="119.90984222389181" style="fill: #5aae61; stroke: #666666; stroke-width: 1px;"></circle><circle r="4" cx="631.2727272727273" cy="318.2569496619083" style="fill: #bf812d; stroke: #666666; stroke-width: 1px;"></circle><circle r="4" cx="631.2727272727273" cy="318.2569496619083" style="fill: #666666; stroke: #666666; stroke-width: 1px;"></circle><circle r="4" cx="633.8181818181818" cy="291.20961682945153" style="fill: #5aae61; stroke: #666666; stroke-width: 1px;"></circle><circle r="4" cx="664.3636363636364" cy="318.2569496619083" style="fill: #5aae61; stroke: #666666; stroke-width: 1px;"></circle><circle r="4" cx="672" cy="318.2569496619083" style="fill: #666666; stroke: #666666; stroke-width: 1px;"></circle><circle r="4" cx="674.5454545454545" cy="309.2411720510894" style="fill: #4393c3; stroke: #666666; stroke-width: 1px;"></circle><circle r="4" cx="682.1818181818181" cy="282.1938392186326" style="fill: #4393c3; stroke: #666666; stroke-width: 1px;"></circle><circle r="4" cx="697.4545454545454" cy="318.2569496619083" style="fill: #5aae61; stroke: #666666; stroke-width: 1px;"></circle></g><g><rect x="0" y="333" width="700" height="12" style="fill: #ffffff; stroke-width: 1px; stroke: #666666;"></rect><rect x="10.181818181818182" y="333" width="638.909090909091" height="12" style="fill: #aec7e8; stroke-width: 1px; stroke: #666666;"></rect></g><g><a target="_blank" xlink:href="http://pfam.xfam.org/family/"><text y="343" x="350" text-anchor="middle" style="color: rgb(102, 102, 102); font-weight: normal; font-size: 12px; font-family: Arial; cursor: pointer;"></text></a><a target="_blank" xlink:href="http://pfam.xfam.org/family/CN_hydrolase"><text y="343" x="329.6363636363636" text-anchor="middle" style="color: rgb(102, 102, 102); font-weight: normal; font-size: 12px; font-family: Arial; cursor: pointer;">CN_hydrolase</text></a></g><g><text y="358" x="0" text-anchor="middle" visibility="hidden" style="font-size: 13px;">M</text><text y="358" x="2.5454545454545454" text-anchor="middle" visibility="hidden" style="font-size: 13px;">T</text><text y="358" x="5.090909090909091" text-anchor="middle" visibility="hidden" style="font-size: 13px;">S</text><text y="358" x="7.636363636363637" text-anchor="middle" visibility="hidden" style="font-size: 13px;">F</text><text y="358" x="10.181818181818182" text-anchor="middle" visibility="hidden" style="font-size: 13px;">R</text><text y="358" x="12.727272727272727" text-anchor="middle" visibility="hidden" style="font-size: 13px;">L</text><text y="358" x="15.272727272727273" text-anchor="middle" visibility="hidden" style="font-size: 13px;">A</text><text y="358" x="17.81818181818182" text-anchor="middle" visibility="hidden" style="font-size: 13px;">L</text><text y="358" x="20.363636363636363" text-anchor="middle" visibility="hidden" style="font-size: 13px;">I</text><text y="358" x="22.90909090909091" text-anchor="middle" visibility="hidden" style="font-size: 13px;">Q</text><text y="358" x="25.454545454545453" text-anchor="middle" visibility="hidden" style="font-size: 13px;">L</text><text y="358" x="28" text-anchor="middle" visibility="hidden" style="font-size: 13px;">Q</text><text y="358" x="30.545454545454547" text-anchor="middle" visibility="hidden" style="font-size: 13px;">I</text><text y="358" x="33.09090909090909" text-anchor="middle" visibility="hidden" style="font-size: 13px;">S</text><text y="358" x="35.63636363636364" text-anchor="middle" visibility="hidden" style="font-size: 13px;">S</text><text y="358" x="38.18181818181818" text-anchor="middle" visibility="hidden" style="font-size: 13px;">I</text><text y="358" x="40.72727272727273" text-anchor="middle" visibility="hidden" style="font-size: 13px;">K</text><text y="358" x="43.27272727272727" text-anchor="middle" visibility="hidden" style="font-size: 13px;">S</text><text y="358" x="45.81818181818182" text-anchor="middle" visibility="hidden" style="font-size: 13px;">D</text><text y="358" x="48.36363636363637" text-anchor="middle" visibility="hidden" style="font-size: 13px;">N</text><text y="358" x="50.90909090909091" text-anchor="middle" visibility="hidden" style="font-size: 13px;">V</text><text y="358" x="53.45454545454546" text-anchor="middle" visibility="hidden" style="font-size: 13px;">T</text><text y="358" x="56" text-anchor="middle" visibility="hidden" style="font-size: 13px;">R</text><text y="358" x="58.54545454545455" text-anchor="middle" visibility="hidden" style="font-size: 13px;">A</text><text y="358" x="61.09090909090909" text-anchor="middle" visibility="hidden" style="font-size: 13px;">C</text><text y="358" x="63.63636363636364" text-anchor="middle" visibility="hidden" style="font-size: 13px;">S</text><text y="358" x="66.18181818181819" text-anchor="middle" visibility="hidden" style="font-size: 13px;">F</text><text y="358" x="68.72727272727272" text-anchor="middle" visibility="hidden" style="font-size: 13px;">I</text><text y="358" x="71.27272727272728" text-anchor="middle" visibility="hidden" style="font-size: 13px;">R</text><text y="358" x="73.81818181818181" text-anchor="middle" visibility="hidden" style="font-size: 13px;">E</text><text y="358" x="76.36363636363636" text-anchor="middle" visibility="hidden" style="font-size: 13px;">A</text><text y="358" x="78.9090909090909" text-anchor="middle" visibility="hidden" style="font-size: 13px;">A</text><text y="358" x="81.45454545454545" text-anchor="middle" visibility="hidden" style="font-size: 13px;">T</text><text y="358" x="84" text-anchor="middle" visibility="hidden" style="font-size: 13px;">Q</text><text y="358" x="86.54545454545455" text-anchor="middle" visibility="hidden" style="font-size: 13px;">G</text><text y="358" x="89.09090909090908" text-anchor="middle" visibility="hidden" style="font-size: 13px;">A</text><text y="358" x="91.63636363636364" text-anchor="middle" visibility="hidden" style="font-size: 13px;">K</text><text y="358" x="94.18181818181819" text-anchor="middle" visibility="hidden" style="font-size: 13px;">I</text><text y="358" x="96.72727272727273" text-anchor="middle" visibility="hidden" style="font-size: 13px;">V</text><text y="358" x="99.27272727272727" text-anchor="middle" visibility="hidden" style="font-size: 13px;">S</text><text y="358" x="101.81818181818181" text-anchor="middle" visibility="hidden" style="font-size: 13px;">L</text><text y="358" x="104.36363636363636" text-anchor="middle" visibility="hidden" style="font-size: 13px;">P</text><text y="358" x="106.90909090909092" text-anchor="middle" visibility="hidden" style="font-size: 13px;">E</text><text y="358" x="109.45454545454545" text-anchor="middle" visibility="hidden" style="font-size: 13px;">C</text><text y="358" x="112" text-anchor="middle" visibility="hidden" style="font-size: 13px;">F</text><text y="358" x="114.54545454545455" text-anchor="middle" visibility="hidden" style="font-size: 13px;">N</text><text y="358" x="117.0909090909091" text-anchor="middle" visibility="hidden" style="font-size: 13px;">S</text><text y="358" x="119.63636363636363" text-anchor="middle" visibility="hidden" style="font-size: 13px;">P</text><text y="358" x="122.18181818181819" text-anchor="middle" visibility="hidden" style="font-size: 13px;">Y</text><text y="358" x="124.72727272727273" text-anchor="middle" visibility="hidden" style="font-size: 13px;">G</text><text y="358" x="127.27272727272728" text-anchor="middle" visibility="hidden" style="font-size: 13px;">A</text><text y="358" x="129.8181818181818" text-anchor="middle" visibility="hidden" style="font-size: 13px;">K</text><text y="358" x="132.36363636363637" text-anchor="middle" visibility="hidden" style="font-size: 13px;">Y</text><text y="358" x="134.9090909090909" text-anchor="middle" visibility="hidden" style="font-size: 13px;">F</text><text y="358" x="137.45454545454544" text-anchor="middle" visibility="hidden" style="font-size: 13px;">P</text><text y="358" x="140" text-anchor="middle" visibility="hidden" style="font-size: 13px;">E</text><text y="358" x="142.54545454545456" text-anchor="middle" visibility="hidden" style="font-size: 13px;">Y</text><text y="358" x="145.0909090909091" text-anchor="middle" visibility="hidden" style="font-size: 13px;">A</text><text y="358" x="147.63636363636363" text-anchor="middle" visibility="hidden" style="font-size: 13px;">E</text><text y="358" x="150.1818181818182" text-anchor="middle" visibility="hidden" style="font-size: 13px;">K</text><text y="358" x="152.72727272727272" text-anchor="middle" visibility="hidden" style="font-size: 13px;">I</text><text y="358" x="155.27272727272728" text-anchor="middle" visibility="hidden" style="font-size: 13px;">P</text><text y="358" x="157.8181818181818" text-anchor="middle" visibility="hidden" style="font-size: 13px;">G</text><text y="358" x="160.36363636363637" text-anchor="middle" visibility="hidden" style="font-size: 13px;">E</text><text y="358" x="162.9090909090909" text-anchor="middle" visibility="hidden" style="font-size: 13px;">S</text><text y="358" x="165.45454545454544" text-anchor="middle" visibility="hidden" style="font-size: 13px;">T</text><text y="358" x="168" text-anchor="middle" visibility="hidden" style="font-size: 13px;">Q</text><text y="358" x="170.54545454545453" text-anchor="middle" visibility="hidden" style="font-size: 13px;">K</text><text y="358" x="173.0909090909091" text-anchor="middle" visibility="hidden" style="font-size: 13px;">L</text><text y="358" x="175.63636363636365" text-anchor="middle" visibility="hidden" style="font-size: 13px;">S</text><text y="358" x="178.18181818181816" text-anchor="middle" visibility="hidden" style="font-size: 13px;">E</text><text y="358" x="180.72727272727272" text-anchor="middle" visibility="hidden" style="font-size: 13px;">V</text><text y="358" x="183.27272727272728" text-anchor="middle" visibility="hidden" style="font-size: 13px;">A</text><text y="358" x="185.8181818181818" text-anchor="middle" visibility="hidden" style="font-size: 13px;">K</text><text y="358" x="188.36363636363637" text-anchor="middle" visibility="hidden" style="font-size: 13px;">E</text><text y="358" x="190.9090909090909" text-anchor="middle" visibility="hidden" style="font-size: 13px;">C</text><text y="358" x="193.45454545454547" text-anchor="middle" visibility="hidden" style="font-size: 13px;">S</text><text y="358" x="196.00000000000003" text-anchor="middle" visibility="hidden" style="font-size: 13px;">I</text><text y="358" x="198.54545454545453" text-anchor="middle" visibility="hidden" style="font-size: 13px;">Y</text><text y="358" x="201.0909090909091" text-anchor="middle" visibility="hidden" style="font-size: 13px;">L</text><text y="358" x="203.63636363636363" text-anchor="middle" visibility="hidden" style="font-size: 13px;">I</text><text y="358" x="206.1818181818182" text-anchor="middle" visibility="hidden" style="font-size: 13px;">G</text><text y="358" x="208.72727272727272" text-anchor="middle" visibility="hidden" style="font-size: 13px;">G</text><text y="358" x="211.27272727272728" text-anchor="middle" visibility="hidden" style="font-size: 13px;">S</text><text y="358" x="213.81818181818184" text-anchor="middle" visibility="hidden" style="font-size: 13px;">I</text><text y="358" x="216.36363636363635" text-anchor="middle" visibility="hidden" style="font-size: 13px;">P</text><text y="358" x="218.9090909090909" text-anchor="middle" visibility="hidden" style="font-size: 13px;">E</text><text y="358" x="221.45454545454544" text-anchor="middle" visibility="hidden" style="font-size: 13px;">E</text><text y="358" x="224" text-anchor="middle" visibility="hidden" style="font-size: 13px;">D</text><text y="358" x="226.54545454545453" text-anchor="middle" visibility="hidden" style="font-size: 13px;">A</text><text y="358" x="229.0909090909091" text-anchor="middle" visibility="hidden" style="font-size: 13px;">G</text><text y="358" x="231.63636363636365" text-anchor="middle" visibility="hidden" style="font-size: 13px;">K</text><text y="358" x="234.1818181818182" text-anchor="middle" visibility="hidden" style="font-size: 13px;">L</text><text y="358" x="236.72727272727275" text-anchor="middle" visibility="hidden" style="font-size: 13px;">Y</text><text y="358" x="239.27272727272725" text-anchor="middle" visibility="hidden" style="font-size: 13px;">N</text><text y="358" x="241.8181818181818" text-anchor="middle" visibility="hidden" style="font-size: 13px;">T</text><text y="358" x="244.36363636363637" text-anchor="middle" visibility="hidden" style="font-size: 13px;">C</text><text y="358" x="246.9090909090909" text-anchor="middle" visibility="hidden" style="font-size: 13px;">A</text><text y="358" x="249.45454545454547" text-anchor="middle" visibility="hidden" style="font-size: 13px;">V</text><text y="358" x="252" text-anchor="middle" visibility="hidden" style="font-size: 13px;">F</text><text y="358" x="254.54545454545456" text-anchor="middle" visibility="hidden" style="font-size: 13px;">G</text><text y="358" x="257.09090909090907" text-anchor="middle" visibility="hidden" style="font-size: 13px;">P</text><text y="358" x="259.6363636363636" text-anchor="middle" visibility="hidden" style="font-size: 13px;">D</text><text y="358" x="262.1818181818182" text-anchor="middle" visibility="hidden" style="font-size: 13px;">G</text><text y="358" x="264.72727272727275" text-anchor="middle" visibility="hidden" style="font-size: 13px;">T</text><text y="358" x="267.2727272727273" text-anchor="middle" visibility="hidden" style="font-size: 13px;">L</text><text y="358" x="269.8181818181818" text-anchor="middle" visibility="hidden" style="font-size: 13px;">L</text><text y="358" x="272.3636363636364" text-anchor="middle" visibility="hidden" style="font-size: 13px;">A</text><text y="358" x="274.9090909090909" text-anchor="middle" visibility="hidden" style="font-size: 13px;">K</text><text y="358" x="277.45454545454544" text-anchor="middle" visibility="hidden" style="font-size: 13px;">Y</text><text y="358" x="280" text-anchor="middle" visibility="hidden" style="font-size: 13px;">R</text><text y="358" x="282.54545454545456" text-anchor="middle" visibility="hidden" style="font-size: 13px;">K</text><text y="358" x="285.0909090909091" text-anchor="middle" visibility="hidden" style="font-size: 13px;">I</text><text y="358" x="287.6363636363636" text-anchor="middle" visibility="hidden" style="font-size: 13px;">H</text><text y="358" x="290.1818181818182" text-anchor="middle" visibility="hidden" style="font-size: 13px;">L</text><text y="358" x="292.7272727272727" text-anchor="middle" visibility="hidden" style="font-size: 13px;">F</text><text y="358" x="295.27272727272725" text-anchor="middle" visibility="hidden" style="font-size: 13px;">D</text><text y="358" x="297.8181818181818" text-anchor="middle" visibility="hidden" style="font-size: 13px;">I</text><text y="358" x="300.3636363636364" text-anchor="middle" visibility="hidden" style="font-size: 13px;">D</text><text y="358" x="302.90909090909093" text-anchor="middle" visibility="hidden" style="font-size: 13px;">V</text><text y="358" x="305.45454545454544" text-anchor="middle" visibility="hidden" style="font-size: 13px;">P</text><text y="358" x="308" text-anchor="middle" visibility="hidden" style="font-size: 13px;">G</text><text y="358" x="310.54545454545456" text-anchor="middle" visibility="hidden" style="font-size: 13px;">K</text><text y="358" x="313.09090909090907" text-anchor="middle" visibility="hidden" style="font-size: 13px;">I</text><text y="358" x="315.6363636363636" text-anchor="middle" visibility="hidden" style="font-size: 13px;">T</text><text y="358" x="318.1818181818182" text-anchor="middle" visibility="hidden" style="font-size: 13px;">F</text><text y="358" x="320.72727272727275" text-anchor="middle" visibility="hidden" style="font-size: 13px;">Q</text><text y="358" x="323.27272727272725" text-anchor="middle" visibility="hidden" style="font-size: 13px;">E</text><text y="358" x="325.8181818181818" text-anchor="middle" visibility="hidden" style="font-size: 13px;">S</text><text y="358" x="328.3636363636364" text-anchor="middle" visibility="hidden" style="font-size: 13px;">K</text><text y="358" x="330.9090909090909" text-anchor="middle" visibility="hidden" style="font-size: 13px;">T</text><text y="358" x="333.45454545454544" text-anchor="middle" visibility="hidden" style="font-size: 13px;">L</text><text y="358" x="336" text-anchor="middle" visibility="hidden" style="font-size: 13px;">S</text><text y="358" x="338.54545454545456" text-anchor="middle" visibility="hidden" style="font-size: 13px;">P</text><text y="358" x="341.09090909090907" text-anchor="middle" visibility="hidden" style="font-size: 13px;">G</text><text y="358" x="343.6363636363636" text-anchor="middle" visibility="hidden" style="font-size: 13px;">D</text><text y="358" x="346.1818181818182" text-anchor="middle" visibility="hidden" style="font-size: 13px;">S</text><text y="358" x="348.7272727272727" text-anchor="middle" visibility="hidden" style="font-size: 13px;">F</text><text y="358" x="351.2727272727273" text-anchor="middle" visibility="hidden" style="font-size: 13px;">S</text><text y="358" x="353.81818181818187" text-anchor="middle" visibility="hidden" style="font-size: 13px;">T</text><text y="358" x="356.3636363636363" text-anchor="middle" visibility="hidden" style="font-size: 13px;">F</text><text y="358" x="358.9090909090909" text-anchor="middle" visibility="hidden" style="font-size: 13px;">D</text><text y="358" x="361.45454545454544" text-anchor="middle" visibility="hidden" style="font-size: 13px;">T</text><text y="358" x="364" text-anchor="middle" visibility="hidden" style="font-size: 13px;">P</text><text y="358" x="366.54545454545456" text-anchor="middle" visibility="hidden" style="font-size: 13px;">Y</text><text y="358" x="369.09090909090907" text-anchor="middle" visibility="hidden" style="font-size: 13px;">C</text><text y="358" x="371.6363636363636" text-anchor="middle" visibility="hidden" style="font-size: 13px;">R</text><text y="358" x="374.1818181818182" text-anchor="middle" visibility="hidden" style="font-size: 13px;">V</text><text y="358" x="376.72727272727275" text-anchor="middle" visibility="hidden" style="font-size: 13px;">G</text><text y="358" x="379.2727272727273" text-anchor="middle" visibility="hidden" style="font-size: 13px;">L</text><text y="358" x="381.8181818181818" text-anchor="middle" visibility="hidden" style="font-size: 13px;">G</text><text y="358" x="384.3636363636364" text-anchor="middle" visibility="hidden" style="font-size: 13px;">I</text><text y="358" x="386.90909090909093" text-anchor="middle" visibility="hidden" style="font-size: 13px;">C</text><text y="358" x="389.4545454545455" text-anchor="middle" visibility="hidden" style="font-size: 13px;">Y</text><text y="358" x="392.00000000000006" text-anchor="middle" visibility="hidden" style="font-size: 13px;">D</text><text y="358" x="394.5454545454545" text-anchor="middle" visibility="hidden" style="font-size: 13px;">M</text><text y="358" x="397.09090909090907" text-anchor="middle" visibility="hidden" style="font-size: 13px;">R</text><text y="358" x="399.6363636363636" text-anchor="middle" visibility="hidden" style="font-size: 13px;">F</text><text y="358" x="402.1818181818182" text-anchor="middle" visibility="hidden" style="font-size: 13px;">A</text><text y="358" x="404.7272727272727" text-anchor="middle" visibility="hidden" style="font-size: 13px;">E</text><text y="358" x="407.27272727272725" text-anchor="middle" visibility="hidden" style="font-size: 13px;">L</text><text y="358" x="409.8181818181818" text-anchor="middle" visibility="hidden" style="font-size: 13px;">A</text><text y="358" x="412.3636363636364" text-anchor="middle" visibility="hidden" style="font-size: 13px;">Q</text><text y="358" x="414.90909090909093" text-anchor="middle" visibility="hidden" style="font-size: 13px;">I</text><text y="358" x="417.45454545454544" text-anchor="middle" visibility="hidden" style="font-size: 13px;">Y</text><text y="358" x="420" text-anchor="middle" visibility="hidden" style="font-size: 13px;">A</text><text y="358" x="422.54545454545456" text-anchor="middle" visibility="hidden" style="font-size: 13px;">Q</text><text y="358" x="425.0909090909091" text-anchor="middle" visibility="hidden" style="font-size: 13px;">R</text><text y="358" x="427.6363636363637" text-anchor="middle" visibility="hidden" style="font-size: 13px;">G</text><text y="358" x="430.18181818181813" text-anchor="middle" visibility="hidden" style="font-size: 13px;">C</text><text y="358" x="432.7272727272727" text-anchor="middle" visibility="hidden" style="font-size: 13px;">Q</text><text y="358" x="435.27272727272725" text-anchor="middle" visibility="hidden" style="font-size: 13px;">L</text><text y="358" x="437.8181818181818" text-anchor="middle" visibility="hidden" style="font-size: 13px;">L</text><text y="358" x="440.3636363636364" text-anchor="middle" visibility="hidden" style="font-size: 13px;">V</text><text y="358" x="442.9090909090909" text-anchor="middle" visibility="hidden" style="font-size: 13px;">Y</text><text y="358" x="445.45454545454544" text-anchor="middle" visibility="hidden" style="font-size: 13px;">P</text><text y="358" x="448" text-anchor="middle" visibility="hidden" style="font-size: 13px;">G</text><text y="358" x="450.54545454545456" text-anchor="middle" visibility="hidden" style="font-size: 13px;">A</text><text y="358" x="453.09090909090907" text-anchor="middle" visibility="hidden" style="font-size: 13px;">F</text><text y="358" x="455.6363636363636" text-anchor="middle" visibility="hidden" style="font-size: 13px;">N</text><text y="358" x="458.1818181818182" text-anchor="middle" visibility="hidden" style="font-size: 13px;">L</text><text y="358" x="460.72727272727275" text-anchor="middle" visibility="hidden" style="font-size: 13px;">T</text><text y="358" x="463.2727272727273" text-anchor="middle" visibility="hidden" style="font-size: 13px;">T</text><text y="358" x="465.8181818181818" text-anchor="middle" visibility="hidden" style="font-size: 13px;">G</text><text y="358" x="468.3636363636364" text-anchor="middle" visibility="hidden" style="font-size: 13px;">P</text><text y="358" x="470.90909090909093" text-anchor="middle" visibility="hidden" style="font-size: 13px;">A</text><text y="358" x="473.4545454545455" text-anchor="middle" visibility="hidden" style="font-size: 13px;">H</text><text y="358" x="476.00000000000006" text-anchor="middle" visibility="hidden" style="font-size: 13px;">W</text><text y="358" x="478.5454545454545" text-anchor="middle" visibility="hidden" style="font-size: 13px;">E</text><text y="358" x="481.09090909090907" text-anchor="middle" visibility="hidden" style="font-size: 13px;">L</text><text y="358" x="483.6363636363636" text-anchor="middle" visibility="hidden" style="font-size: 13px;">L</text><text y="358" x="486.1818181818182" text-anchor="middle" visibility="hidden" style="font-size: 13px;">Q</text><text y="358" x="488.72727272727275" text-anchor="middle" visibility="hidden" style="font-size: 13px;">R</text><text y="358" x="491.27272727272725" text-anchor="middle" visibility="hidden" style="font-size: 13px;">S</text><text y="358" x="493.8181818181818" text-anchor="middle" visibility="hidden" style="font-size: 13px;">R</text><text y="358" x="496.3636363636364" text-anchor="middle" visibility="hidden" style="font-size: 13px;">A</text><text y="358" x="498.90909090909093" text-anchor="middle" visibility="hidden" style="font-size: 13px;">V</text><text y="358" x="501.45454545454544" text-anchor="middle" visibility="hidden" style="font-size: 13px;">D</text><text y="358" x="504" text-anchor="middle" visibility="hidden" style="font-size: 13px;">N</text><text y="358" x="506.54545454545456" text-anchor="middle" visibility="hidden" style="font-size: 13px;">Q</text><text y="358" x="509.0909090909091" text-anchor="middle" visibility="hidden" style="font-size: 13px;">V</text><text y="358" x="511.6363636363637" text-anchor="middle" visibility="hidden" style="font-size: 13px;">Y</text><text y="358" x="514.1818181818181" text-anchor="middle" visibility="hidden" style="font-size: 13px;">V</text><text y="358" x="516.7272727272727" text-anchor="middle" visibility="hidden" style="font-size: 13px;">A</text><text y="358" x="519.2727272727273" text-anchor="middle" visibility="hidden" style="font-size: 13px;">T</text><text y="358" x="521.8181818181819" text-anchor="middle" visibility="hidden" style="font-size: 13px;">A</text><text y="358" x="524.3636363636364" text-anchor="middle" visibility="hidden" style="font-size: 13px;">S</text><text y="358" x="526.9090909090909" text-anchor="middle" visibility="hidden" style="font-size: 13px;">P</text><text y="358" x="529.4545454545455" text-anchor="middle" visibility="hidden" style="font-size: 13px;">A</text><text y="358" x="532" text-anchor="middle" visibility="hidden" style="font-size: 13px;">R</text><text y="358" x="534.5454545454546" text-anchor="middle" visibility="hidden" style="font-size: 13px;">D</text><text y="358" x="537.090909090909" text-anchor="middle" visibility="hidden" style="font-size: 13px;">D</text><text y="358" x="539.6363636363636" text-anchor="middle" visibility="hidden" style="font-size: 13px;">K</text><text y="358" x="542.1818181818181" text-anchor="middle" visibility="hidden" style="font-size: 13px;">A</text><text y="358" x="544.7272727272727" text-anchor="middle" visibility="hidden" style="font-size: 13px;">S</text><text y="358" x="547.2727272727273" text-anchor="middle" visibility="hidden" style="font-size: 13px;">Y</text><text y="358" x="549.8181818181818" text-anchor="middle" visibility="hidden" style="font-size: 13px;">V</text><text y="358" x="552.3636363636364" text-anchor="middle" visibility="hidden" style="font-size: 13px;">A</text><text y="358" x="554.9090909090909" text-anchor="middle" visibility="hidden" style="font-size: 13px;">W</text><text y="358" x="557.4545454545455" text-anchor="middle" visibility="hidden" style="font-size: 13px;">G</text><text y="358" x="560" text-anchor="middle" visibility="hidden" style="font-size: 13px;">H</text><text y="358" x="562.5454545454545" text-anchor="middle" visibility="hidden" style="font-size: 13px;">S</text><text y="358" x="565.0909090909091" text-anchor="middle" visibility="hidden" style="font-size: 13px;">T</text><text y="358" x="567.6363636363636" text-anchor="middle" visibility="hidden" style="font-size: 13px;">V</text><text y="358" x="570.1818181818182" text-anchor="middle" visibility="hidden" style="font-size: 13px;">V</text><text y="358" x="572.7272727272727" text-anchor="middle" visibility="hidden" style="font-size: 13px;">N</text><text y="358" x="575.2727272727273" text-anchor="middle" visibility="hidden" style="font-size: 13px;">P</text><text y="358" x="577.8181818181818" text-anchor="middle" visibility="hidden" style="font-size: 13px;">W</text><text y="358" x="580.3636363636364" text-anchor="middle" visibility="hidden" style="font-size: 13px;">G</text><text y="358" x="582.9090909090909" text-anchor="middle" visibility="hidden" style="font-size: 13px;">E</text><text y="358" x="585.4545454545454" text-anchor="middle" visibility="hidden" style="font-size: 13px;">V</text><text y="358" x="588" text-anchor="middle" visibility="hidden" style="font-size: 13px;">L</text><text y="358" x="590.5454545454545" text-anchor="middle" visibility="hidden" style="font-size: 13px;">A</text><text y="358" x="593.0909090909091" text-anchor="middle" visibility="hidden" style="font-size: 13px;">K</text><text y="358" x="595.6363636363636" text-anchor="middle" visibility="hidden" style="font-size: 13px;">A</text><text y="358" x="598.1818181818181" text-anchor="middle" visibility="hidden" style="font-size: 13px;">G</text><text y="358" x="600.7272727272727" text-anchor="middle" visibility="hidden" style="font-size: 13px;">T</text><text y="358" x="603.2727272727273" text-anchor="middle" visibility="hidden" style="font-size: 13px;">E</text><text y="358" x="605.8181818181819" text-anchor="middle" visibility="hidden" style="font-size: 13px;">E</text><text y="358" x="608.3636363636364" text-anchor="middle" visibility="hidden" style="font-size: 13px;">A</text><text y="358" x="610.9090909090909" text-anchor="middle" visibility="hidden" style="font-size: 13px;">I</text><text y="358" x="613.4545454545455" text-anchor="middle" visibility="hidden" style="font-size: 13px;">V</text><text y="358" x="616" text-anchor="middle" visibility="hidden" style="font-size: 13px;">Y</text><text y="358" x="618.5454545454546" text-anchor="middle" visibility="hidden" style="font-size: 13px;">S</text><text y="358" x="621.0909090909091" text-anchor="middle" visibility="hidden" style="font-size: 13px;">D</text><text y="358" x="623.6363636363636" text-anchor="middle" visibility="hidden" style="font-size: 13px;">I</text><text y="358" x="626.1818181818181" text-anchor="middle" visibility="hidden" style="font-size: 13px;">D</text><text y="358" x="628.7272727272727" text-anchor="middle" visibility="hidden" style="font-size: 13px;">L</text><text y="358" x="631.2727272727273" text-anchor="middle" visibility="hidden" style="font-size: 13px;">K</text><text y="358" x="633.8181818181818" text-anchor="middle" visibility="hidden" style="font-size: 13px;">K</text><text y="358" x="636.3636363636364" text-anchor="middle" visibility="hidden" style="font-size: 13px;">L</text><text y="358" x="638.9090909090909" text-anchor="middle" visibility="hidden" style="font-size: 13px;">A</text><text y="358" x="641.4545454545455" text-anchor="middle" visibility="hidden" style="font-size: 13px;">E</text><text y="358" x="644" text-anchor="middle" visibility="hidden" style="font-size: 13px;">I</text><text y="358" x="646.5454545454545" text-anchor="middle" visibility="hidden" style="font-size: 13px;">R</text><text y="358" x="649.0909090909091" text-anchor="middle" visibility="hidden" style="font-size: 13px;">Q</text><text y="358" x="651.6363636363636" text-anchor="middle" visibility="hidden" style="font-size: 13px;">Q</text><text y="358" x="654.1818181818182" text-anchor="middle" visibility="hidden" style="font-size: 13px;">I</text><text y="358" x="656.7272727272727" text-anchor="middle" visibility="hidden" style="font-size: 13px;">P</text><text y="358" x="659.2727272727273" text-anchor="middle" visibility="hidden" style="font-size: 13px;">V</text><text y="358" x="661.8181818181818" text-anchor="middle" visibility="hidden" style="font-size: 13px;">F</text><text y="358" x="664.3636363636364" text-anchor="middle" visibility="hidden" style="font-size: 13px;">R</text><text y="358" x="666.9090909090909" text-anchor="middle" visibility="hidden" style="font-size: 13px;">Q</text><text y="358" x="669.4545454545455" text-anchor="middle" visibility="hidden" style="font-size: 13px;">K</text><text y="358" x="672" text-anchor="middle" visibility="hidden" style="font-size: 13px;">R</text><text y="358" x="674.5454545454545" text-anchor="middle" visibility="hidden" style="font-size: 13px;">S</text><text y="358" x="677.0909090909091" text-anchor="middle" visibility="hidden" style="font-size: 13px;">D</text><text y="358" x="679.6363636363636" text-anchor="middle" visibility="hidden" style="font-size: 13px;">L</text><text y="358" x="682.1818181818181" text-anchor="middle" visibility="hidden" style="font-size: 13px;">Y</text><text y="358" x="684.7272727272727" text-anchor="middle" visibility="hidden" style="font-size: 13px;">A</text><text y="358" x="687.2727272727273" text-anchor="middle" visibility="hidden" style="font-size: 13px;">V</text><text y="358" x="689.8181818181819" text-anchor="middle" visibility="hidden" style="font-size: 13px;">E</text><text y="358" x="692.3636363636364" text-anchor="middle" visibility="hidden" style="font-size: 13px;">M</text><text y="358" x="694.9090909090909" text-anchor="middle" visibility="hidden" style="font-size: 13px;">K</text><text y="358" x="697.4545454545454" text-anchor="middle" visibility="hidden" style="font-size: 13px;">K</text><text y="358" x="700" text-anchor="middle" visibility="hidden" style="font-size: 13px;">P</text></g></g></svg><g class="xAxis" transform="translate(0,360)" fill="none" font-size="10" font-family="sans-serif" text-anchor="middle"><path class="domain" stroke="#000" d="M0.5,6V0.5H700.5V6"></path><g class="tick" opacity="1" transform="translate(48.86363636363637,0)"><line stroke="#000" y2="6"></line><text fill="#000" y="9" dy="0.71em">20</text></g><g class="tick" opacity="1" transform="translate(99.77272727272727,0)"><line stroke="#000" y2="6"></line><text fill="#000" y="9" dy="0.71em">40</text></g><g class="tick" opacity="1" transform="translate(150.6818181818182,0)"><line stroke="#000" y2="6"></line><text fill="#000" y="9" dy="0.71em">60</text></g><g class="tick" opacity="1" transform="translate(201.5909090909091,0)"><line stroke="#000" y2="6"></line><text fill="#000" y="9" dy="0.71em">80</text></g><g class="tick" opacity="1" transform="translate(252.5,0)"><line stroke="#000" y2="6"></line><text fill="#000" y="9" dy="0.71em">100</text></g><g class="tick" opacity="1" transform="translate(303.40909090909093,0)"><line stroke="#000" y2="6"></line><text fill="#000" y="9" dy="0.71em">120</text></g><g class="tick" opacity="1" transform="translate(354.31818181818187,0)"><line stroke="#000" y2="6"></line><text fill="#000" y="9" dy="0.71em">140</text></g><g class="tick" opacity="1" transform="translate(405.2272727272727,0)"><line stroke="#000" y2="6"></line><text fill="#000" y="9" dy="0.71em">160</text></g><g class="tick" opacity="1" transform="translate(456.1363636363636,0)"><line stroke="#000" y2="6"></line><text fill="#000" y="9" dy="0.71em">180</text></g><g class="tick" opacity="1" transform="translate(507.04545454545456,0)"><line stroke="#000" y2="6"></line><text fill="#000" y="9" dy="0.71em">200</text></g><g class="tick" opacity="1" transform="translate(557.9545454545455,0)"><line stroke="#000" y2="6"></line><text fill="#000" y="9" dy="0.71em">220</text></g><g class="tick" opacity="1" transform="translate(608.8636363636364,0)"><line stroke="#000" y2="6"></line><text fill="#000" y="9" dy="0.71em">240</text></g><g class="tick" opacity="1" transform="translate(659.7727272727273,0)"><line stroke="#000" y2="6"></line><text fill="#000" y="9" dy="0.71em">260</text></g></g><text class="x label" text-anchor="end" x="700" y="390" style="font-size: 13px; font-family: Arial;">Residue number</text><g class="yAxis" fill="none" font-size="10" font-family="sans-serif" text-anchor="end"><path class="domain" stroke="#000" d="M-6,360.5H0.5V0.5H-6"></path><g class="tick" opacity="1" transform="translate(0,327.77272727272725)"><line stroke="#000" x2="-6"></line><text fill="#000" x="-9" dy="0.32em">0</text></g><g class="tick" opacity="1" transform="translate(0,282.6938392186326)"><line stroke="#000" x2="-6"></line><text fill="#000" x="-9" dy="0.32em">5</text></g><g class="tick" opacity="1" transform="translate(0,237.61495116453796)"><line stroke="#000" x2="-6"></line><text fill="#000" x="-9" dy="0.32em">10</text></g><g class="tick" opacity="1" transform="translate(0,192.53606311044328)"><line stroke="#000" x2="-6"></line><text fill="#000" x="-9" dy="0.32em">15</text></g><g class="tick" opacity="1" transform="translate(0,147.4571750563486)"><line stroke="#000" x2="-6"></line><text fill="#000" x="-9" dy="0.32em">20</text></g><g class="tick" opacity="1" transform="translate(0,102.37828700225396)"><line stroke="#000" x2="-6"></line><text fill="#000" x="-9" dy="0.32em">25</text></g><g class="tick" opacity="1" transform="translate(0,57.29939894815925)"><line stroke="#000" x2="-6"></line><text fill="#000" x="-9" dy="0.32em">30</text></g><g class="tick" opacity="1" transform="translate(0,12.220510894064603)"><line stroke="#000" x2="-6"></line><text fill="#000" x="-9" dy="0.32em">35</text></g></g><text class="y label" text-anchor="middle" y="-50" x="-180" dy="0.8em" transform="rotate(-90)" style="font-size: 13px; font-family: Arial;">Total number of references</text><g class="axisRed" fill="none" font-size="10" font-family="sans-serif" text-anchor="start" visibility="hidden" transform="translate(700, 0)"><path class="domain" stroke="#000" d="M6,360.5H0.5V0.5H6"></path><g class="tick" opacity="1" transform="translate(0,360.5)"><line stroke="#000" x2="6"></line><text fill="#000" x="9" dy="0.32em">0</text></g><text text-anchor="start" dx="5.2em" dy="-2.6em" transform="rotate(90)" visibility="hidden" style="font-size: 12px; font-family: Arial; fill: #d7301f;">No recurrent (&gt;2) missense mutations!</text></g><g class="axisPurple" fill="none" font-size="10" font-family="sans-serif" text-anchor="start" visibility="hidden"><path class="domain" stroke="#000" d="M6,360.5H0.5V0.5H6"></path><g class="tick" opacity="1" transform="translate(0,357.52479338842977)"><line stroke="#000" x2="6"></line><text fill="#000" x="9" dy="0.32em"></text></g><g class="tick" opacity="1" transform="translate(0,327.77272727272725)"><line stroke="#000" x2="6"></line><text fill="#000" x="9" dy="0.32em">0</text></g><g class="tick" opacity="1" transform="translate(0,298.0206611570248)"><line stroke="#000" x2="6"></line><text fill="#000" x="9" dy="0.32em">0.1</text></g><g class="tick" opacity="1" transform="translate(0,268.2685950413223)"><line stroke="#000" x2="6"></line><text fill="#000" x="9" dy="0.32em">0.2</text></g><g class="tick" opacity="1" transform="translate(0,238.51652892561984)"><line stroke="#000" x2="6"></line><text fill="#000" x="9" dy="0.32em">0.3</text></g><g class="tick" opacity="1" transform="translate(0,208.76446280991738)"><line stroke="#000" x2="6"></line><text fill="#000" x="9" dy="0.32em">0.4</text></g><g class="tick" opacity="1" transform="translate(0,179.0123966942149)"><line stroke="#000" x2="6"></line><text fill="#000" x="9" dy="0.32em">0.5</text></g><g class="tick" opacity="1" transform="translate(0,149.26033057851242)"><line stroke="#000" x2="6"></line><text fill="#000" x="9" dy="0.32em">0.6</text></g><g class="tick" opacity="1" transform="translate(0,119.50826446280996)"><line stroke="#000" x2="6"></line><text fill="#000" x="9" dy="0.32em">0.7</text></g><g class="tick" opacity="1" transform="translate(0,89.75619834710744)"><line stroke="#000" x2="6"></line><text fill="#000" x="9" dy="0.32em">0.8</text></g><g class="tick" opacity="1" transform="translate(0,60.00413223140498)"><line stroke="#000" x2="6"></line><text fill="#000" x="9" dy="0.32em">0.9</text></g><g class="tick" opacity="1" transform="translate(0,30.25206611570252)"><line stroke="#000" x2="6"></line><text fill="#000" x="9" dy="0.32em">1</text></g><g class="tick" opacity="1" transform="translate(0,0.5)"><line stroke="#000" x2="6"></line><text fill="#000" x="9" dy="0.32em">1.1</text></g><text text-anchor="start" x="10" y="10" visibility="hidden" style="font-size: 12px; font-family: Arial; fill: #807dba;">No disease causing germline SNPs known!</text></g><circle cx="636" cy="15" r="10" class="compassNav" style="fill: #ffffff; stroke: #666666; stroke-width: 1px;"></circle><path d="M440.935 12.574l3.966 82.766C399.416 41.904 331.674 8 256 8 134.813 8 33.933 94.924 12.296 209.824 10.908 217.193 16.604 224 24.103 224h49.084c5.57 0 10.377-3.842 11.676-9.259C103.407 137.408 172.931 80 256 80c60.893 0 114.512 30.856 146.104 77.801l-101.53-4.865c-6.845-.328-12.574 5.133-12.574 11.986v47.411c0 6.627 5.373 12 12 12h200.333c6.627 0 12-5.373 12-12V12c0-6.627-5.373-12-12-12h-47.411c-6.853 0-12.315 5.729-11.987 12.574zM256 432c-60.895 0-114.517-30.858-146.109-77.805l101.868 4.871c6.845.327 12.573-5.134 12.573-11.986v-47.412c0-6.627-5.373-12-12-12H12c-6.627 0-12 5.373-12 12V500c0 6.627 5.373 12 12 12h47.385c6.863 0 12.328-5.745 11.985-12.599l-4.129-82.575C112.725 470.166 180.405 504 256 504c121.187 0 222.067-86.924 243.704-201.824 1.388-7.369-4.308-14.176-11.807-14.176h-49.084c-5.57 0-10.377 3.842-11.676 9.259C408.593 374.592 339.069 432 256 432z" class="compassNav" transform="translate(631, 10) scale(0.02)" style="fill: #666666; stroke: #666666; stroke-width: 1px;"></path><circle cx="658" cy="15" r="10" class="compassNav" style="fill: #ffffff; stroke: #666666; stroke-width: 1px;"></circle><line class="compassNav" stroke-width="2" stroke="#666666" x1="654" y1="15" x2="662" y2="15"></line><line class="compassNav" stroke-width="2" stroke="#666666" x1="658" y1="11" x2="658" y2="19"></line><circle cx="614" cy="15" r="10" class="compassNav" style="fill: #ffffff; stroke: #666666; stroke-width: 1px;"></circle><line class="compassNav" stroke-width="2" stroke="#666666" x1="610" y1="15" x2="618" y2="15"></line><path d="M582 14 l20 -12 a100,40 0 0,0 0,24z" class="compassNav" style="fill: #ffffff; stroke: #666666; stroke-width: 1px;"></path><path d="M690 14 l-20 -12 a100,40 0 0,1 0,24z" class="compassNav" style="fill: #ffffff; stroke: #666666; stroke-width: 1px;"></path><path d="M216 0h80c13.3 0 24 10.7 24 24v168h87.7c17.8 0 26.7 21.5 14.1 34.1L269.7 378.3c-7.5 7.5-19.8 7.5-27.3 0L90.1 226.1c-12.6-12.6-3.7-34.1 14.1-34.1H192V24c0-13.3 10.7-24 24-24zm296 376v112c0 13.3-10.7 24-24 24H24c-13.3 0-24-10.7-24-24V376c0-13.3 10.7-24 24-24h146.7l49 49c20.1 20.1 52.5 20.1 72.6 0l49-49H488c13.3 0 24 10.7 24 24zm-124 88c0-11-9-20-20-20s-20 9-20 20 9 20 20 20 20-9 20-20zm64 0c0-11-9-20-20-20s-20 9-20 20 9 20 20 20 20-9 20-20z" class="compassNav" transform="translate(552,0) scale(0.05)" style="fill: #336699; stroke: #336699; stroke-width: 1px; cursor: pointer;"></path></g></svg>