<svg width="800" height="400" style="background-color: white;"><g transform="translate(50,0)"><svg width="700" height="360"><g style="-webkit-tap-highlight-color: rgba(0, 0, 0, 0);"><rect width="700" height="360" style="fill: #ffffff;"></rect><g id="lines"><line class="line" stroke-width="1" stroke="#d7301f" x1="-351.7412935323383" y1="333" x2="-351.7412935323383" y2="360" visibility="hidden" style="stroke-dasharray: 3px, 3px;"></line></g><g><rect x="-356.7412935323383" y="355" width="10" height="10" visibility="hidden" style="fill: #ffffff; stroke: #d7301f;"></rect></g><g id="lines"><line class="line" stroke-width="1" stroke="#6a51a3" x1="-351.7412935323383" y1="333" x2="-351.7412935323383" y2="327.27272727272725" visibility="hidden" style="stroke-dasharray: 3px, 3px;"></line></g><g><rect x="-356.7412935323383" y="322.27272727272725" width="10" height="10" visibility="hidden" style="fill: #ffffff; stroke: #6a51a3;"></rect></g><g id="lines"><line class="line" stroke-width="1" stroke="#666666" x1="6.965174129353234" y1="333" x2="6.965174129353234" y2="310.74380165289256"></line><line class="line" stroke-width="1" stroke="#666666" x1="383.0845771144278" y1="333" x2="383.0845771144278" y2="294.21487603305786"></line><line class="line" stroke-width="1" stroke="#666666" x1="403.9800995024876" y1="333" x2="403.9800995024876" y2="277.68595041322317"></line><line class="line" stroke-width="1" stroke="#666666" x1="445.771144278607" y1="333" x2="445.771144278607" y2="211.5702479338843"></line><line class="line" stroke-width="1" stroke="#666666" x1="445.771144278607" y1="333" x2="445.771144278607" y2="294.21487603305786"></line><line class="line" stroke-width="1" stroke="#666666" x1="619.9004975124378" y1="333" x2="619.9004975124378" y2="178.51239669421489"></line><line class="line" stroke-width="1" stroke="#666666" x1="686.0696517412936" y1="333" x2="686.0696517412936" y2="29.75206611570252"></line></g><g id="circles"><circle r="4" cx="6.965174129353234" cy="310.74380165289256" style="fill: #bf812d; stroke: #666666; stroke-width: 1px;"></circle><circle r="4" cx="383.0845771144278" cy="294.21487603305786" style="fill: #4393c3; stroke: #666666; stroke-width: 1px;"></circle><circle r="4" cx="403.9800995024876" cy="277.68595041322317" style="fill: #4393c3; stroke: #666666; stroke-width: 1px;"></circle><circle r="4" cx="445.771144278607" cy="211.5702479338843" style="fill: #bf812d; stroke: #666666; stroke-width: 1px;"></circle><circle r="4" cx="445.771144278607" cy="294.21487603305786" style="fill: #666666; stroke: #666666; stroke-width: 1px;"></circle><circle r="4" cx="619.9004975124378" cy="178.51239669421489" style="fill: #4393c3; stroke: #666666; stroke-width: 1px;"></circle><circle r="4" cx="686.0696517412936" cy="29.75206611570252" style="fill: #4393c3; stroke: #666666; stroke-width: 1px;"></circle></g><g><rect x="0" y="333" width="700" height="12" style="fill: #ffffff; stroke-width: 1px; stroke: #666666;"></rect><rect x="0" y="333" width="532.8358208955224" height="12" style="fill: #aec7e8; stroke-width: 1px; stroke: #666666;"></rect></g><g><a target="_blank" xlink:href="http://pfam.xfam.org/family/"><text y="343" x="350" text-anchor="middle" style="color: rgb(102, 102, 102); font-weight: normal; font-size: 12px; font-family: Arial; cursor: pointer;"></text></a><a target="_blank" xlink:href="http://pfam.xfam.org/family/ASF1_hist_chap"><text y="343" x="266.4179104477612" text-anchor="middle" style="color: rgb(102, 102, 102); font-weight: normal; font-size: 12px; font-family: Arial; cursor: pointer;">ASF1_hist_chap</text></a></g><g><text y="358" x="0" text-anchor="middle" visibility="hidden" style="font-size: 13px;">M</text><text y="358" x="3.482587064676617" text-anchor="middle" visibility="hidden" style="font-size: 13px;">A</text><text y="358" x="6.965174129353234" text-anchor="middle" visibility="hidden" style="font-size: 13px;">K</text><text y="358" x="10.44776119402985" text-anchor="middle" visibility="hidden" style="font-size: 13px;">V</text><text y="358" x="13.930348258706468" text-anchor="middle" visibility="hidden" style="font-size: 13px;">S</text><text y="358" x="17.412935323383085" text-anchor="middle" visibility="hidden" style="font-size: 13px;">V</text><text y="358" x="20.8955223880597" text-anchor="middle" visibility="hidden" style="font-size: 13px;">L</text><text y="358" x="24.378109452736318" text-anchor="middle" visibility="hidden" style="font-size: 13px;">N</text><text y="358" x="27.860696517412936" text-anchor="middle" visibility="hidden" style="font-size: 13px;">V</text><text y="358" x="31.34328358208955" text-anchor="middle" visibility="hidden" style="font-size: 13px;">A</text><text y="358" x="34.82587064676617" text-anchor="middle" visibility="hidden" style="font-size: 13px;">V</text><text y="358" x="38.308457711442784" text-anchor="middle" visibility="hidden" style="font-size: 13px;">L</text><text y="358" x="41.7910447761194" text-anchor="middle" visibility="hidden" style="font-size: 13px;">E</text><text y="358" x="45.27363184079602" text-anchor="middle" visibility="hidden" style="font-size: 13px;">N</text><text y="358" x="48.756218905472636" text-anchor="middle" visibility="hidden" style="font-size: 13px;">P</text><text y="358" x="52.23880597014925" text-anchor="middle" visibility="hidden" style="font-size: 13px;">S</text><text y="358" x="55.72139303482587" text-anchor="middle" visibility="hidden" style="font-size: 13px;">P</text><text y="358" x="59.20398009950249" text-anchor="middle" visibility="hidden" style="font-size: 13px;">F</text><text y="358" x="62.6865671641791" text-anchor="middle" visibility="hidden" style="font-size: 13px;">H</text><text y="358" x="66.16915422885572" text-anchor="middle" visibility="hidden" style="font-size: 13px;">S</text><text y="358" x="69.65174129353234" text-anchor="middle" visibility="hidden" style="font-size: 13px;">P</text><text y="358" x="73.13432835820895" text-anchor="middle" visibility="hidden" style="font-size: 13px;">F</text><text y="358" x="76.61691542288557" text-anchor="middle" visibility="hidden" style="font-size: 13px;">R</text><text y="358" x="80.09950248756219" text-anchor="middle" visibility="hidden" style="font-size: 13px;">F</text><text y="358" x="83.5820895522388" text-anchor="middle" visibility="hidden" style="font-size: 13px;">E</text><text y="358" x="87.06467661691542" text-anchor="middle" visibility="hidden" style="font-size: 13px;">I</text><text y="358" x="90.54726368159204" text-anchor="middle" visibility="hidden" style="font-size: 13px;">S</text><text y="358" x="94.02985074626865" text-anchor="middle" visibility="hidden" style="font-size: 13px;">F</text><text y="358" x="97.51243781094527" text-anchor="middle" visibility="hidden" style="font-size: 13px;">E</text><text y="358" x="100.9950248756219" text-anchor="middle" visibility="hidden" style="font-size: 13px;">C</text><text y="358" x="104.4776119402985" text-anchor="middle" visibility="hidden" style="font-size: 13px;">S</text><text y="358" x="107.96019900497512" text-anchor="middle" visibility="hidden" style="font-size: 13px;">E</text><text y="358" x="111.44278606965175" text-anchor="middle" visibility="hidden" style="font-size: 13px;">A</text><text y="358" x="114.92537313432835" text-anchor="middle" visibility="hidden" style="font-size: 13px;">L</text><text y="358" x="118.40796019900498" text-anchor="middle" visibility="hidden" style="font-size: 13px;">A</text><text y="358" x="121.8905472636816" text-anchor="middle" visibility="hidden" style="font-size: 13px;">D</text><text y="358" x="125.3731343283582" text-anchor="middle" visibility="hidden" style="font-size: 13px;">D</text><text y="358" x="128.85572139303483" text-anchor="middle" visibility="hidden" style="font-size: 13px;">L</text><text y="358" x="132.33830845771143" text-anchor="middle" visibility="hidden" style="font-size: 13px;">E</text><text y="358" x="135.82089552238807" text-anchor="middle" visibility="hidden" style="font-size: 13px;">W</text><text y="358" x="139.30348258706468" text-anchor="middle" visibility="hidden" style="font-size: 13px;">K</text><text y="358" x="142.7860696517413" text-anchor="middle" visibility="hidden" style="font-size: 13px;">I</text><text y="358" x="146.2686567164179" text-anchor="middle" visibility="hidden" style="font-size: 13px;">I</text><text y="358" x="149.75124378109453" text-anchor="middle" visibility="hidden" style="font-size: 13px;">Y</text><text y="358" x="153.23383084577114" text-anchor="middle" visibility="hidden" style="font-size: 13px;">V</text><text y="358" x="156.71641791044777" text-anchor="middle" visibility="hidden" style="font-size: 13px;">G</text><text y="358" x="160.19900497512438" text-anchor="middle" visibility="hidden" style="font-size: 13px;">S</text><text y="358" x="163.681592039801" text-anchor="middle" visibility="hidden" style="font-size: 13px;">A</text><text y="358" x="167.1641791044776" text-anchor="middle" visibility="hidden" style="font-size: 13px;">E</text><text y="358" x="170.64676616915423" text-anchor="middle" visibility="hidden" style="font-size: 13px;">S</text><text y="358" x="174.12935323383084" text-anchor="middle" visibility="hidden" style="font-size: 13px;">E</text><text y="358" x="177.61194029850748" text-anchor="middle" visibility="hidden" style="font-size: 13px;">E</text><text y="358" x="181.09452736318408" text-anchor="middle" visibility="hidden" style="font-size: 13px;">F</text><text y="358" x="184.57711442786072" text-anchor="middle" visibility="hidden" style="font-size: 13px;">D</text><text y="358" x="188.0597014925373" text-anchor="middle" visibility="hidden" style="font-size: 13px;">Q</text><text y="358" x="191.5422885572139" text-anchor="middle" visibility="hidden" style="font-size: 13px;">I</text><text y="358" x="195.02487562189054" text-anchor="middle" visibility="hidden" style="font-size: 13px;">L</text><text y="358" x="198.50746268656715" text-anchor="middle" visibility="hidden" style="font-size: 13px;">D</text><text y="358" x="201.9900497512438" text-anchor="middle" visibility="hidden" style="font-size: 13px;">S</text><text y="358" x="205.4726368159204" text-anchor="middle" visibility="hidden" style="font-size: 13px;">V</text><text y="358" x="208.955223880597" text-anchor="middle" visibility="hidden" style="font-size: 13px;">L</text><text y="358" x="212.43781094527364" text-anchor="middle" visibility="hidden" style="font-size: 13px;">V</text><text y="358" x="215.92039800995025" text-anchor="middle" visibility="hidden" style="font-size: 13px;">G</text><text y="358" x="219.40298507462688" text-anchor="middle" visibility="hidden" style="font-size: 13px;">P</text><text y="358" x="222.8855721393035" text-anchor="middle" visibility="hidden" style="font-size: 13px;">V</text><text y="358" x="226.36815920398013" text-anchor="middle" visibility="hidden" style="font-size: 13px;">P</text><text y="358" x="229.8507462686567" text-anchor="middle" visibility="hidden" style="font-size: 13px;">A</text><text y="358" x="233.33333333333331" text-anchor="middle" visibility="hidden" style="font-size: 13px;">G</text><text y="358" x="236.81592039800995" text-anchor="middle" visibility="hidden" style="font-size: 13px;">R</text><text y="358" x="240.29850746268656" text-anchor="middle" visibility="hidden" style="font-size: 13px;">H</text><text y="358" x="243.7810945273632" text-anchor="middle" visibility="hidden" style="font-size: 13px;">M</text><text y="358" x="247.2636815920398" text-anchor="middle" visibility="hidden" style="font-size: 13px;">F</text><text y="358" x="250.7462686567164" text-anchor="middle" visibility="hidden" style="font-size: 13px;">V</text><text y="358" x="254.22885572139305" text-anchor="middle" visibility="hidden" style="font-size: 13px;">F</text><text y="358" x="257.71144278606965" text-anchor="middle" visibility="hidden" style="font-size: 13px;">Q</text><text y="358" x="261.1940298507463" text-anchor="middle" visibility="hidden" style="font-size: 13px;">A</text><text y="358" x="264.67661691542287" text-anchor="middle" visibility="hidden" style="font-size: 13px;">D</text><text y="358" x="268.1592039800995" text-anchor="middle" visibility="hidden" style="font-size: 13px;">A</text><text y="358" x="271.64179104477614" text-anchor="middle" visibility="hidden" style="font-size: 13px;">P</text><text y="358" x="275.1243781094527" text-anchor="middle" visibility="hidden" style="font-size: 13px;">N</text><text y="358" x="278.60696517412936" text-anchor="middle" visibility="hidden" style="font-size: 13px;">P</text><text y="358" x="282.089552238806" text-anchor="middle" visibility="hidden" style="font-size: 13px;">S</text><text y="358" x="285.5721393034826" text-anchor="middle" visibility="hidden" style="font-size: 13px;">L</text><text y="358" x="289.0547263681592" text-anchor="middle" visibility="hidden" style="font-size: 13px;">I</text><text y="358" x="292.5373134328358" text-anchor="middle" visibility="hidden" style="font-size: 13px;">P</text><text y="358" x="296.0199004975124" text-anchor="middle" visibility="hidden" style="font-size: 13px;">E</text><text y="358" x="299.50248756218906" text-anchor="middle" visibility="hidden" style="font-size: 13px;">T</text><text y="358" x="302.98507462686564" text-anchor="middle" visibility="hidden" style="font-size: 13px;">D</text><text y="358" x="306.4676616915423" text-anchor="middle" visibility="hidden" style="font-size: 13px;">A</text><text y="358" x="309.9502487562189" text-anchor="middle" visibility="hidden" style="font-size: 13px;">V</text><text y="358" x="313.43283582089555" text-anchor="middle" visibility="hidden" style="font-size: 13px;">G</text><text y="358" x="316.9154228855721" text-anchor="middle" visibility="hidden" style="font-size: 13px;">V</text><text y="358" x="320.39800995024876" text-anchor="middle" visibility="hidden" style="font-size: 13px;">T</text><text y="358" x="323.8805970149254" text-anchor="middle" visibility="hidden" style="font-size: 13px;">V</text><text y="358" x="327.363184079602" text-anchor="middle" visibility="hidden" style="font-size: 13px;">V</text><text y="358" x="330.8457711442786" text-anchor="middle" visibility="hidden" style="font-size: 13px;">L</text><text y="358" x="334.3283582089552" text-anchor="middle" visibility="hidden" style="font-size: 13px;">I</text><text y="358" x="337.81094527363183" text-anchor="middle" visibility="hidden" style="font-size: 13px;">T</text><text y="358" x="341.29353233830847" text-anchor="middle" visibility="hidden" style="font-size: 13px;">C</text><text y="358" x="344.77611940298505" text-anchor="middle" visibility="hidden" style="font-size: 13px;">T</text><text y="358" x="348.2587064676617" text-anchor="middle" visibility="hidden" style="font-size: 13px;">Y</text><text y="358" x="351.7412935323383" text-anchor="middle" visibility="hidden" style="font-size: 13px;">H</text><text y="358" x="355.22388059701495" text-anchor="middle" visibility="hidden" style="font-size: 13px;">G</text><text y="358" x="358.70646766169153" text-anchor="middle" visibility="hidden" style="font-size: 13px;">Q</text><text y="358" x="362.18905472636817" text-anchor="middle" visibility="hidden" style="font-size: 13px;">E</text><text y="358" x="365.67164179104475" text-anchor="middle" visibility="hidden" style="font-size: 13px;">F</text><text y="358" x="369.15422885572144" text-anchor="middle" visibility="hidden" style="font-size: 13px;">I</text><text y="358" x="372.636815920398" text-anchor="middle" visibility="hidden" style="font-size: 13px;">R</text><text y="358" x="376.1194029850746" text-anchor="middle" visibility="hidden" style="font-size: 13px;">V</text><text y="358" x="379.60199004975124" text-anchor="middle" visibility="hidden" style="font-size: 13px;">G</text><text y="358" x="383.0845771144278" text-anchor="middle" visibility="hidden" style="font-size: 13px;">Y</text><text y="358" x="386.5671641791045" text-anchor="middle" visibility="hidden" style="font-size: 13px;">Y</text><text y="358" x="390.0497512437811" text-anchor="middle" visibility="hidden" style="font-size: 13px;">V</text><text y="358" x="393.5323383084577" text-anchor="middle" visibility="hidden" style="font-size: 13px;">N</text><text y="358" x="397.0149253731343" text-anchor="middle" visibility="hidden" style="font-size: 13px;">N</text><text y="358" x="400.4975124378109" text-anchor="middle" visibility="hidden" style="font-size: 13px;">E</text><text y="358" x="403.9800995024876" text-anchor="middle" visibility="hidden" style="font-size: 13px;">Y</text><text y="358" x="407.4626865671642" text-anchor="middle" visibility="hidden" style="font-size: 13px;">L</text><text y="358" x="410.9452736318408" text-anchor="middle" visibility="hidden" style="font-size: 13px;">N</text><text y="358" x="414.42786069651737" text-anchor="middle" visibility="hidden" style="font-size: 13px;">P</text><text y="358" x="417.910447761194" text-anchor="middle" visibility="hidden" style="font-size: 13px;">E</text><text y="358" x="421.3930348258707" text-anchor="middle" visibility="hidden" style="font-size: 13px;">L</text><text y="358" x="424.8756218905473" text-anchor="middle" visibility="hidden" style="font-size: 13px;">R</text><text y="358" x="428.35820895522386" text-anchor="middle" visibility="hidden" style="font-size: 13px;">E</text><text y="358" x="431.8407960199005" text-anchor="middle" visibility="hidden" style="font-size: 13px;">N</text><text y="358" x="435.3233830845771" text-anchor="middle" visibility="hidden" style="font-size: 13px;">P</text><text y="358" x="438.80597014925377" text-anchor="middle" visibility="hidden" style="font-size: 13px;">P</text><text y="358" x="442.28855721393035" text-anchor="middle" visibility="hidden" style="font-size: 13px;">M</text><text y="358" x="445.771144278607" text-anchor="middle" visibility="hidden" style="font-size: 13px;">K</text><text y="358" x="449.25373134328356" text-anchor="middle" visibility="hidden" style="font-size: 13px;">P</text><text y="358" x="452.73631840796025" text-anchor="middle" visibility="hidden" style="font-size: 13px;">D</text><text y="358" x="456.21890547263683" text-anchor="middle" visibility="hidden" style="font-size: 13px;">F</text><text y="358" x="459.7014925373134" text-anchor="middle" visibility="hidden" style="font-size: 13px;">S</text><text y="358" x="463.18407960199005" text-anchor="middle" visibility="hidden" style="font-size: 13px;">Q</text><text y="358" x="466.66666666666663" text-anchor="middle" visibility="hidden" style="font-size: 13px;">L</text><text y="358" x="470.1492537313433" text-anchor="middle" visibility="hidden" style="font-size: 13px;">Q</text><text y="358" x="473.6318407960199" text-anchor="middle" visibility="hidden" style="font-size: 13px;">R</text><text y="358" x="477.11442786069654" text-anchor="middle" visibility="hidden" style="font-size: 13px;">N</text><text y="358" x="480.5970149253731" text-anchor="middle" visibility="hidden" style="font-size: 13px;">I</text><text y="358" x="484.0796019900497" text-anchor="middle" visibility="hidden" style="font-size: 13px;">L</text><text y="358" x="487.5621890547264" text-anchor="middle" visibility="hidden" style="font-size: 13px;">A</text><text y="358" x="491.044776119403" text-anchor="middle" visibility="hidden" style="font-size: 13px;">S</text><text y="358" x="494.5273631840796" text-anchor="middle" visibility="hidden" style="font-size: 13px;">N</text><text y="358" x="498.0099502487562" text-anchor="middle" visibility="hidden" style="font-size: 13px;">P</text><text y="358" x="501.4925373134328" text-anchor="middle" visibility="hidden" style="font-size: 13px;">R</text><text y="358" x="504.9751243781095" text-anchor="middle" visibility="hidden" style="font-size: 13px;">V</text><text y="358" x="508.4577114427861" text-anchor="middle" visibility="hidden" style="font-size: 13px;">T</text><text y="358" x="511.94029850746267" text-anchor="middle" visibility="hidden" style="font-size: 13px;">R</text><text y="358" x="515.4228855721393" text-anchor="middle" visibility="hidden" style="font-size: 13px;">F</text><text y="358" x="518.905472636816" text-anchor="middle" visibility="hidden" style="font-size: 13px;">H</text><text y="358" x="522.3880597014926" text-anchor="middle" visibility="hidden" style="font-size: 13px;">I</text><text y="358" x="525.8706467661692" text-anchor="middle" visibility="hidden" style="font-size: 13px;">N</text><text y="358" x="529.3532338308457" text-anchor="middle" visibility="hidden" style="font-size: 13px;">W</text><text y="358" x="532.8358208955224" text-anchor="middle" visibility="hidden" style="font-size: 13px;">D</text><text y="358" x="536.318407960199" text-anchor="middle" visibility="hidden" style="font-size: 13px;">N</text><text y="358" x="539.8009950248756" text-anchor="middle" visibility="hidden" style="font-size: 13px;">N</text><text y="358" x="543.2835820895523" text-anchor="middle" visibility="hidden" style="font-size: 13px;">M</text><text y="358" x="546.7661691542288" text-anchor="middle" visibility="hidden" style="font-size: 13px;">D</text><text y="358" x="550.2487562189054" text-anchor="middle" visibility="hidden" style="font-size: 13px;">R</text><text y="358" x="553.7313432835821" text-anchor="middle" visibility="hidden" style="font-size: 13px;">L</text><text y="358" x="557.2139303482587" text-anchor="middle" visibility="hidden" style="font-size: 13px;">E</text><text y="358" x="560.6965174129353" text-anchor="middle" visibility="hidden" style="font-size: 13px;">A</text><text y="358" x="564.179104477612" text-anchor="middle" visibility="hidden" style="font-size: 13px;">I</text><text y="358" x="567.6616915422885" text-anchor="middle" visibility="hidden" style="font-size: 13px;">E</text><text y="358" x="571.1442786069651" text-anchor="middle" visibility="hidden" style="font-size: 13px;">T</text><text y="358" x="574.6268656716418" text-anchor="middle" visibility="hidden" style="font-size: 13px;">Q</text><text y="358" x="578.1094527363184" text-anchor="middle" visibility="hidden" style="font-size: 13px;">D</text><text y="358" x="581.592039800995" text-anchor="middle" visibility="hidden" style="font-size: 13px;">P</text><text y="358" x="585.0746268656716" text-anchor="middle" visibility="hidden" style="font-size: 13px;">S</text><text y="358" x="588.5572139303482" text-anchor="middle" visibility="hidden" style="font-size: 13px;">L</text><text y="358" x="592.0398009950248" text-anchor="middle" visibility="hidden" style="font-size: 13px;">G</text><text y="358" x="595.5223880597015" text-anchor="middle" visibility="hidden" style="font-size: 13px;">C</text><text y="358" x="599.0049751243781" text-anchor="middle" visibility="hidden" style="font-size: 13px;">G</text><text y="358" x="602.4875621890548" text-anchor="middle" visibility="hidden" style="font-size: 13px;">L</text><text y="358" x="605.9701492537313" text-anchor="middle" visibility="hidden" style="font-size: 13px;">P</text><text y="358" x="609.452736318408" text-anchor="middle" visibility="hidden" style="font-size: 13px;">L</text><text y="358" x="612.9353233830846" text-anchor="middle" visibility="hidden" style="font-size: 13px;">N</text><text y="358" x="616.4179104477612" text-anchor="middle" visibility="hidden" style="font-size: 13px;">C</text><text y="358" x="619.9004975124378" text-anchor="middle" visibility="hidden" style="font-size: 13px;">T</text><text y="358" x="623.3830845771145" text-anchor="middle" visibility="hidden" style="font-size: 13px;">P</text><text y="358" x="626.8656716417911" text-anchor="middle" visibility="hidden" style="font-size: 13px;">I</text><text y="358" x="630.3482587064676" text-anchor="middle" visibility="hidden" style="font-size: 13px;">K</text><text y="358" x="633.8308457711443" text-anchor="middle" visibility="hidden" style="font-size: 13px;">G</text><text y="358" x="637.3134328358209" text-anchor="middle" visibility="hidden" style="font-size: 13px;">L</text><text y="358" x="640.7960199004975" text-anchor="middle" visibility="hidden" style="font-size: 13px;">G</text><text y="358" x="644.2786069651742" text-anchor="middle" visibility="hidden" style="font-size: 13px;">L</text><text y="358" x="647.7611940298508" text-anchor="middle" visibility="hidden" style="font-size: 13px;">P</text><text y="358" x="651.2437810945273" text-anchor="middle" visibility="hidden" style="font-size: 13px;">G</text><text y="358" x="654.726368159204" text-anchor="middle" visibility="hidden" style="font-size: 13px;">C</text><text y="358" x="658.2089552238806" text-anchor="middle" visibility="hidden" style="font-size: 13px;">I</text><text y="358" x="661.6915422885572" text-anchor="middle" visibility="hidden" style="font-size: 13px;">P</text><text y="358" x="665.1741293532339" text-anchor="middle" visibility="hidden" style="font-size: 13px;">G</text><text y="358" x="668.6567164179104" text-anchor="middle" visibility="hidden" style="font-size: 13px;">L</text><text y="358" x="672.139303482587" text-anchor="middle" visibility="hidden" style="font-size: 13px;">L</text><text y="358" x="675.6218905472637" text-anchor="middle" visibility="hidden" style="font-size: 13px;">P</text><text y="358" x="679.1044776119403" text-anchor="middle" visibility="hidden" style="font-size: 13px;">E</text><text y="358" x="682.5870646766169" text-anchor="middle" visibility="hidden" style="font-size: 13px;">N</text><text y="358" x="686.0696517412936" text-anchor="middle" visibility="hidden" style="font-size: 13px;">S</text><text y="358" x="689.5522388059701" text-anchor="middle" visibility="hidden" style="font-size: 13px;">M</text><text y="358" x="693.0348258706468" text-anchor="middle" visibility="hidden" style="font-size: 13px;">D</text><text y="358" x="696.5174129353234" text-anchor="middle" visibility="hidden" style="font-size: 13px;">C</text><text y="358" x="700" text-anchor="middle" visibility="hidden" style="font-size: 13px;">I</text></g></g></svg><g class="xAxis" transform="translate(0,360)" fill="none" font-size="10" font-family="sans-serif" text-anchor="middle"><path class="domain" stroke="#000" d="M0.5,6V0.5H700.5V6"></path><g class="tick" opacity="1" transform="translate(66.66915422885572,0)"><line stroke="#000" y2="6"></line><text fill="#000" y="9" dy="0.71em">20</text></g><g class="tick" opacity="1" transform="translate(136.32089552238807,0)"><line stroke="#000" y2="6"></line><text fill="#000" y="9" dy="0.71em">40</text></g><g class="tick" opacity="1" transform="translate(205.9726368159204,0)"><line stroke="#000" y2="6"></line><text fill="#000" y="9" dy="0.71em">60</text></g><g class="tick" opacity="1" transform="translate(275.6243781094527,0)"><line stroke="#000" y2="6"></line><text fill="#000" y="9" dy="0.71em">80</text></g><g class="tick" opacity="1" transform="translate(345.27611940298505,0)"><line stroke="#000" y2="6"></line><text fill="#000" y="9" dy="0.71em">100</text></g><g class="tick" opacity="1" transform="translate(414.92786069651737,0)"><line stroke="#000" y2="6"></line><text fill="#000" y="9" dy="0.71em">120</text></g><g class="tick" opacity="1" transform="translate(484.5796019900497,0)"><line stroke="#000" y2="6"></line><text fill="#000" y="9" dy="0.71em">140</text></g><g class="tick" opacity="1" transform="translate(554.2313432835821,0)"><line stroke="#000" y2="6"></line><text fill="#000" y="9" dy="0.71em">160</text></g><g class="tick" opacity="1" transform="translate(623.8830845771145,0)"><line stroke="#000" y2="6"></line><text fill="#000" y="9" dy="0.71em">180</text></g><g class="tick" opacity="1" transform="translate(693.5348258706468,0)"><line stroke="#000" y2="6"></line><text fill="#000" y="9" dy="0.71em">200</text></g></g><text class="x label" text-anchor="end" x="700" y="390" style="font-size: 13px; font-family: Arial;">Residue number</text><g class="yAxis" fill="none" font-size="10" font-family="sans-serif" text-anchor="end"><path class="domain" stroke="#000" d="M-6,360.5H0.5V0.5H-6"></path><g class="tick" opacity="1" transform="translate(0,327.77272727272725)"><line stroke="#000" x2="-6"></line><text fill="#000" x="-9" dy="0.32em">0</text></g><g class="tick" opacity="1" transform="translate(0,294.71487603305786)"><line stroke="#000" x2="-6"></line><text fill="#000" x="-9" dy="0.32em">2</text></g><g class="tick" opacity="1" transform="translate(0,261.6570247933884)"><line stroke="#000" x2="-6"></line><text fill="#000" x="-9" dy="0.32em">4</text></g><g class="tick" opacity="1" transform="translate(0,228.59917355371903)"><line stroke="#000" x2="-6"></line><text fill="#000" x="-9" dy="0.32em">6</text></g><g class="tick" opacity="1" transform="translate(0,195.54132231404958)"><line stroke="#000" x2="-6"></line><text fill="#000" x="-9" dy="0.32em">8</text></g><g class="tick" opacity="1" transform="translate(0,162.4834710743802)"><line stroke="#000" x2="-6"></line><text fill="#000" x="-9" dy="0.32em">10</text></g><g class="tick" opacity="1" transform="translate(0,129.42561983471077)"><line stroke="#000" x2="-6"></line><text fill="#000" x="-9" dy="0.32em">12</text></g><g class="tick" opacity="1" transform="translate(0,96.3677685950413)"><line stroke="#000" x2="-6"></line><text fill="#000" x="-9" dy="0.32em">14</text></g><g class="tick" opacity="1" transform="translate(0,63.30991735537191)"><line stroke="#000" x2="-6"></line><text fill="#000" x="-9" dy="0.32em">16</text></g><g class="tick" opacity="1" transform="translate(0,30.25206611570252)"><line stroke="#000" x2="-6"></line><text fill="#000" x="-9" dy="0.32em">18</text></g></g><text class="y label" text-anchor="middle" y="-50" x="-180" dy="0.8em" transform="rotate(-90)" style="font-size: 13px; font-family: Arial;">Total number of references</text><g class="axisRed" fill="none" font-size="10" font-family="sans-serif" text-anchor="start" visibility="hidden" transform="translate(700, 0)"><path class="domain" stroke="#000" d="M6,360.5H0.5V0.5H6"></path><g class="tick" opacity="1" transform="translate(0,360.5)"><line stroke="#000" x2="6"></line><text fill="#000" x="9" dy="0.32em">0</text></g><text text-anchor="start" dx="5.2em" dy="-2.6em" transform="rotate(90)" visibility="hidden" style="font-size: 12px; font-family: Arial; fill: #d7301f;">No recurrent (&gt;2) missense mutations!</text></g><g class="axisPurple" fill="none" font-size="10" font-family="sans-serif" text-anchor="start" visibility="hidden"><path class="domain" stroke="#000" d="M6,360.5H0.5V0.5H6"></path><g class="tick" opacity="1" transform="translate(0,357.52479338842977)"><line stroke="#000" x2="6"></line><text fill="#000" x="9" dy="0.32em"></text></g><g class="tick" opacity="1" transform="translate(0,327.77272727272725)"><line stroke="#000" x2="6"></line><text fill="#000" x="9" dy="0.32em">0</text></g><g class="tick" opacity="1" transform="translate(0,298.0206611570248)"><line stroke="#000" x2="6"></line><text fill="#000" x="9" dy="0.32em">0.1</text></g><g class="tick" opacity="1" transform="translate(0,268.2685950413223)"><line stroke="#000" x2="6"></line><text fill="#000" x="9" dy="0.32em">0.2</text></g><g class="tick" opacity="1" transform="translate(0,238.51652892561984)"><line stroke="#000" x2="6"></line><text fill="#000" x="9" dy="0.32em">0.3</text></g><g class="tick" opacity="1" transform="translate(0,208.76446280991738)"><line stroke="#000" x2="6"></line><text fill="#000" x="9" dy="0.32em">0.4</text></g><g class="tick" opacity="1" transform="translate(0,179.0123966942149)"><line stroke="#000" x2="6"></line><text fill="#000" x="9" dy="0.32em">0.5</text></g><g class="tick" opacity="1" transform="translate(0,149.26033057851242)"><line stroke="#000" x2="6"></line><text fill="#000" x="9" dy="0.32em">0.6</text></g><g class="tick" opacity="1" transform="translate(0,119.50826446280996)"><line stroke="#000" x2="6"></line><text fill="#000" x="9" dy="0.32em">0.7</text></g><g class="tick" opacity="1" transform="translate(0,89.75619834710744)"><line stroke="#000" x2="6"></line><text fill="#000" x="9" dy="0.32em">0.8</text></g><g class="tick" opacity="1" transform="translate(0,60.00413223140498)"><line stroke="#000" x2="6"></line><text fill="#000" x="9" dy="0.32em">0.9</text></g><g class="tick" opacity="1" transform="translate(0,30.25206611570252)"><line stroke="#000" x2="6"></line><text fill="#000" x="9" dy="0.32em">1</text></g><g class="tick" opacity="1" transform="translate(0,0.5)"><line stroke="#000" x2="6"></line><text fill="#000" x="9" dy="0.32em">1.1</text></g><text text-anchor="start" x="10" y="10" visibility="hidden" style="font-size: 12px; font-family: Arial; fill: #807dba;">No disease causing germline SNPs known!</text></g><circle cx="636" cy="15" r="10" class="compassNav" style="fill: #ffffff; stroke: #666666; stroke-width: 1px;"></circle><path d="M440.935 12.574l3.966 82.766C399.416 41.904 331.674 8 256 8 134.813 8 33.933 94.924 12.296 209.824 10.908 217.193 16.604 224 24.103 224h49.084c5.57 0 10.377-3.842 11.676-9.259C103.407 137.408 172.931 80 256 80c60.893 0 114.512 30.856 146.104 77.801l-101.53-4.865c-6.845-.328-12.574 5.133-12.574 11.986v47.411c0 6.627 5.373 12 12 12h200.333c6.627 0 12-5.373 12-12V12c0-6.627-5.373-12-12-12h-47.411c-6.853 0-12.315 5.729-11.987 12.574zM256 432c-60.895 0-114.517-30.858-146.109-77.805l101.868 4.871c6.845.327 12.573-5.134 12.573-11.986v-47.412c0-6.627-5.373-12-12-12H12c-6.627 0-12 5.373-12 12V500c0 6.627 5.373 12 12 12h47.385c6.863 0 12.328-5.745 11.985-12.599l-4.129-82.575C112.725 470.166 180.405 504 256 504c121.187 0 222.067-86.924 243.704-201.824 1.388-7.369-4.308-14.176-11.807-14.176h-49.084c-5.57 0-10.377 3.842-11.676 9.259C408.593 374.592 339.069 432 256 432z" class="compassNav" transform="translate(631, 10) scale(0.02)" style="fill: #666666; stroke: #666666; stroke-width: 1px;"></path><circle cx="658" cy="15" r="10" class="compassNav" style="fill: #ffffff; stroke: #666666; stroke-width: 1px;"></circle><line class="compassNav" stroke-width="2" stroke="#666666" x1="654" y1="15" x2="662" y2="15"></line><line class="compassNav" stroke-width="2" stroke="#666666" x1="658" y1="11" x2="658" y2="19"></line><circle cx="614" cy="15" r="10" class="compassNav" style="fill: #ffffff; stroke: #666666; stroke-width: 1px;"></circle><line class="compassNav" stroke-width="2" stroke="#666666" x1="610" y1="15" x2="618" y2="15"></line><path d="M582 14 l20 -12 a100,40 0 0,0 0,24z" class="compassNav" style="fill: #ffffff; stroke: #666666; stroke-width: 1px;"></path><path d="M690 14 l-20 -12 a100,40 0 0,1 0,24z" class="compassNav" style="fill: #ffffff; stroke: #666666; stroke-width: 1px;"></path><path d="M216 0h80c13.3 0 24 10.7 24 24v168h87.7c17.8 0 26.7 21.5 14.1 34.1L269.7 378.3c-7.5 7.5-19.8 7.5-27.3 0L90.1 226.1c-12.6-12.6-3.7-34.1 14.1-34.1H192V24c0-13.3 10.7-24 24-24zm296 376v112c0 13.3-10.7 24-24 24H24c-13.3 0-24-10.7-24-24V376c0-13.3 10.7-24 24-24h146.7l49 49c20.1 20.1 52.5 20.1 72.6 0l49-49H488c13.3 0 24 10.7 24 24zm-124 88c0-11-9-20-20-20s-20 9-20 20 9 20 20 20 20-9 20-20zm64 0c0-11-9-20-20-20s-20 9-20 20 9 20 20 20 20-9 20-20z" class="compassNav" transform="translate(552,0) scale(0.05)" style="fill: #336699; stroke: #336699; stroke-width: 1px; cursor: pointer;"></path></g></svg>