<svg width="800" height="400" style="background-color: white;"><g transform="translate(50,0)"><svg width="700" height="360"><g style="-webkit-tap-highlight-color: rgba(0, 0, 0, 0);"><rect width="700" height="360" style="fill: #ffffff;"></rect><g id="lines"><line class="line" stroke-width="1" stroke="#d7301f" x1="-232.56578947368422" y1="333" x2="-232.56578947368422" y2="360" visibility="hidden" style="stroke-dasharray: 3px, 3px;"></line></g><g><rect x="-237.56578947368422" y="355" width="10" height="10" visibility="hidden" style="fill: #ffffff; stroke: #d7301f;"></rect></g><g id="lines"><line class="line" stroke-width="1" stroke="#6a51a3" x1="241.77631578947367" y1="333" x2="241.77631578947367" y2="29.75206611570252" visibility="hidden" style="stroke-dasharray: 3px, 3px;"></line><line class="line" stroke-width="1" stroke="#6a51a3" x1="287.82894736842104" y1="333" x2="287.82894736842104" y2="169.7617890131259" visibility="hidden" style="stroke-dasharray: 3px, 3px;"></line></g><g><rect x="236.77631578947367" y="24.75206611570252" width="10" height="10" visibility="hidden" style="fill: #ffffff; stroke: #6a51a3;"></rect><rect x="282.82894736842104" y="164.7617890131259" width="10" height="10" visibility="hidden" style="fill: #ffffff; stroke: #6a51a3;"></rect></g><g id="lines"><line class="line" stroke-width="1" stroke="#666666" x1="32.23684210526316" y1="333" x2="32.23684210526316" y2="29.75206611570252"></line><line class="line" stroke-width="1" stroke="#666666" x1="200.32894736842104" y1="333" x2="200.32894736842104" y2="29.75206611570252"></line><line class="line" stroke-width="1" stroke="#666666" x1="303.94736842105266" y1="333" x2="303.94736842105266" y2="29.75206611570252"></line><line class="line" stroke-width="1" stroke="#666666" x1="474.3421052631579" y1="333" x2="474.3421052631579" y2="29.75206611570252"></line><line class="line" stroke-width="1" stroke="#666666" x1="580.2631578947369" y1="333" x2="580.2631578947369" y2="29.75206611570252"></line><line class="line" stroke-width="1" stroke="#666666" x1="621.7105263157895" y1="333" x2="621.7105263157895" y2="29.75206611570252"></line><line class="line" stroke-width="1" stroke="#666666" x1="628.6184210526316" y1="333" x2="628.6184210526316" y2="29.75206611570252"></line><line class="line" stroke-width="1" stroke="#666666" x1="633.2236842105262" y1="333" x2="633.2236842105262" y2="29.75206611570252"></line><line class="line" stroke-width="1" stroke="#666666" x1="635.5263157894738" y1="333" x2="635.5263157894738" y2="29.75206611570252"></line><line class="line" stroke-width="1" stroke="#666666" x1="656.25" y1="333" x2="656.25" y2="29.75206611570252"></line><line class="line" stroke-width="1" stroke="#666666" x1="667.7631578947369" y1="333" x2="667.7631578947369" y2="29.75206611570252"></line></g><g id="circles"><circle r="4" cx="32.23684210526316" cy="29.75206611570252" style="fill: #4393c3; stroke: #666666; stroke-width: 1px;"></circle><circle r="4" cx="200.32894736842104" cy="29.75206611570252" style="fill: #666666; stroke: #666666; stroke-width: 1px;"></circle><circle r="4" cx="303.94736842105266" cy="29.75206611570252" style="fill: #4393c3; stroke: #666666; stroke-width: 1px;"></circle><circle r="4" cx="474.3421052631579" cy="29.75206611570252" style="fill: #bf812d; stroke: #666666; stroke-width: 1px;"></circle><circle r="4" cx="580.2631578947369" cy="29.75206611570252" style="fill: #4393c3; stroke: #666666; stroke-width: 1px;"></circle><circle r="4" cx="621.7105263157895" cy="29.75206611570252" style="fill: #666666; stroke: #666666; stroke-width: 1px;"></circle><circle r="4" cx="628.6184210526316" cy="29.75206611570252" style="fill: #666666; stroke: #666666; stroke-width: 1px;"></circle><circle r="4" cx="633.2236842105262" cy="29.75206611570252" style="fill: #666666; stroke: #666666; stroke-width: 1px;"></circle><circle r="4" cx="635.5263157894738" cy="29.75206611570252" style="fill: #666666; stroke: #666666; stroke-width: 1px;"></circle><circle r="4" cx="656.25" cy="29.75206611570252" style="fill: #666666; stroke: #666666; stroke-width: 1px;"></circle><circle r="4" cx="667.7631578947369" cy="29.75206611570252" style="fill: #666666; stroke: #666666; stroke-width: 1px;"></circle></g><g><rect x="0" y="333" width="700" height="12" style="fill: #ffffff; stroke-width: 1px; stroke: #666666;"></rect><rect x="108.22368421052632" y="333" width="375.32894736842104" height="12" style="fill: #aec7e8; stroke-width: 1px; stroke: #666666;"></rect></g><g><a target="_blank" xlink:href="http://pfam.xfam.org/family/"><text y="343" x="350" text-anchor="middle" style="color: rgb(102, 102, 102); font-weight: normal; font-size: 12px; font-family: Arial; cursor: pointer;"></text></a><a target="_blank" xlink:href="http://pfam.xfam.org/family/PRKCSH_1"><text y="343" x="295.8881578947368" text-anchor="middle" style="color: rgb(102, 102, 102); font-weight: normal; font-size: 12px; font-family: Arial; cursor: pointer;">PRKCSH_1</text></a></g><g><text y="358" x="0" text-anchor="middle" visibility="hidden" style="font-size: 13px;">M</text><text y="358" x="2.302631578947368" text-anchor="middle" visibility="hidden" style="font-size: 13px;">A</text><text y="358" x="4.605263157894736" text-anchor="middle" visibility="hidden" style="font-size: 13px;">A</text><text y="358" x="6.907894736842105" text-anchor="middle" visibility="hidden" style="font-size: 13px;">G</text><text y="358" x="9.210526315789473" text-anchor="middle" visibility="hidden" style="font-size: 13px;">L</text><text y="358" x="11.51315789473684" text-anchor="middle" visibility="hidden" style="font-size: 13px;">A</text><text y="358" x="13.81578947368421" text-anchor="middle" visibility="hidden" style="font-size: 13px;">R</text><text y="358" x="16.11842105263158" text-anchor="middle" visibility="hidden" style="font-size: 13px;">L</text><text y="358" x="18.421052631578945" text-anchor="middle" visibility="hidden" style="font-size: 13px;">L</text><text y="358" x="20.723684210526315" text-anchor="middle" visibility="hidden" style="font-size: 13px;">L</text><text y="358" x="23.02631578947368" text-anchor="middle" visibility="hidden" style="font-size: 13px;">L</text><text y="358" x="25.328947368421055" text-anchor="middle" visibility="hidden" style="font-size: 13px;">L</text><text y="358" x="27.63157894736842" text-anchor="middle" visibility="hidden" style="font-size: 13px;">G</text><text y="358" x="29.93421052631579" text-anchor="middle" visibility="hidden" style="font-size: 13px;">L</text><text y="358" x="32.23684210526316" text-anchor="middle" visibility="hidden" style="font-size: 13px;">S</text><text y="358" x="34.53947368421053" text-anchor="middle" visibility="hidden" style="font-size: 13px;">A</text><text y="358" x="36.84210526315789" text-anchor="middle" visibility="hidden" style="font-size: 13px;">G</text><text y="358" x="39.14473684210526" text-anchor="middle" visibility="hidden" style="font-size: 13px;">G</text><text y="358" x="41.44736842105263" text-anchor="middle" visibility="hidden" style="font-size: 13px;">P</text><text y="358" x="43.75" text-anchor="middle" visibility="hidden" style="font-size: 13px;">A</text><text y="358" x="46.05263157894736" text-anchor="middle" visibility="hidden" style="font-size: 13px;">P</text><text y="358" x="48.35526315789474" text-anchor="middle" visibility="hidden" style="font-size: 13px;">A</text><text y="358" x="50.65789473684211" text-anchor="middle" visibility="hidden" style="font-size: 13px;">G</text><text y="358" x="52.96052631578947" text-anchor="middle" visibility="hidden" style="font-size: 13px;">A</text><text y="358" x="55.26315789473684" text-anchor="middle" visibility="hidden" style="font-size: 13px;">A</text><text y="358" x="57.56578947368421" text-anchor="middle" visibility="hidden" style="font-size: 13px;">K</text><text y="358" x="59.86842105263158" text-anchor="middle" visibility="hidden" style="font-size: 13px;">M</text><text y="358" x="62.171052631578945" text-anchor="middle" visibility="hidden" style="font-size: 13px;">K</text><text y="358" x="64.47368421052632" text-anchor="middle" visibility="hidden" style="font-size: 13px;">V</text><text y="358" x="66.77631578947368" text-anchor="middle" visibility="hidden" style="font-size: 13px;">V</text><text y="358" x="69.07894736842105" text-anchor="middle" visibility="hidden" style="font-size: 13px;">E</text><text y="358" x="71.38157894736842" text-anchor="middle" visibility="hidden" style="font-size: 13px;">E</text><text y="358" x="73.68421052631578" text-anchor="middle" visibility="hidden" style="font-size: 13px;">P</text><text y="358" x="75.98684210526316" text-anchor="middle" visibility="hidden" style="font-size: 13px;">N</text><text y="358" x="78.28947368421052" text-anchor="middle" visibility="hidden" style="font-size: 13px;">A</text><text y="358" x="80.59210526315789" text-anchor="middle" visibility="hidden" style="font-size: 13px;">F</text><text y="358" x="82.89473684210526" text-anchor="middle" visibility="hidden" style="font-size: 13px;">G</text><text y="358" x="85.19736842105263" text-anchor="middle" visibility="hidden" style="font-size: 13px;">V</text><text y="358" x="87.5" text-anchor="middle" visibility="hidden" style="font-size: 13px;">N</text><text y="358" x="89.80263157894737" text-anchor="middle" visibility="hidden" style="font-size: 13px;">N</text><text y="358" x="92.10526315789473" text-anchor="middle" visibility="hidden" style="font-size: 13px;">P</text><text y="358" x="94.40789473684211" text-anchor="middle" visibility="hidden" style="font-size: 13px;">F</text><text y="358" x="96.71052631578948" text-anchor="middle" visibility="hidden" style="font-size: 13px;">L</text><text y="358" x="99.01315789473684" text-anchor="middle" visibility="hidden" style="font-size: 13px;">P</text><text y="358" x="101.31578947368422" text-anchor="middle" visibility="hidden" style="font-size: 13px;">Q</text><text y="358" x="103.61842105263158" text-anchor="middle" visibility="hidden" style="font-size: 13px;">A</text><text y="358" x="105.92105263157895" text-anchor="middle" visibility="hidden" style="font-size: 13px;">S</text><text y="358" x="108.22368421052632" text-anchor="middle" visibility="hidden" style="font-size: 13px;">R</text><text y="358" x="110.52631578947368" text-anchor="middle" visibility="hidden" style="font-size: 13px;">L</text><text y="358" x="112.82894736842105" text-anchor="middle" visibility="hidden" style="font-size: 13px;">Q</text><text y="358" x="115.13157894736842" text-anchor="middle" visibility="hidden" style="font-size: 13px;">A</text><text y="358" x="117.43421052631578" text-anchor="middle" visibility="hidden" style="font-size: 13px;">K</text><text y="358" x="119.73684210526316" text-anchor="middle" visibility="hidden" style="font-size: 13px;">R</text><text y="358" x="122.03947368421052" text-anchor="middle" visibility="hidden" style="font-size: 13px;">D</text><text y="358" x="124.34210526315789" text-anchor="middle" visibility="hidden" style="font-size: 13px;">P</text><text y="358" x="126.64473684210527" text-anchor="middle" visibility="hidden" style="font-size: 13px;">S</text><text y="358" x="128.94736842105263" text-anchor="middle" visibility="hidden" style="font-size: 13px;">P</text><text y="358" x="131.25" text-anchor="middle" visibility="hidden" style="font-size: 13px;">V</text><text y="358" x="133.55263157894737" text-anchor="middle" visibility="hidden" style="font-size: 13px;">S</text><text y="358" x="135.85526315789474" text-anchor="middle" visibility="hidden" style="font-size: 13px;">G</text><text y="358" x="138.1578947368421" text-anchor="middle" visibility="hidden" style="font-size: 13px;">P</text><text y="358" x="140.46052631578948" text-anchor="middle" visibility="hidden" style="font-size: 13px;">V</text><text y="358" x="142.76315789473685" text-anchor="middle" visibility="hidden" style="font-size: 13px;">H</text><text y="358" x="145.06578947368422" text-anchor="middle" visibility="hidden" style="font-size: 13px;">L</text><text y="358" x="147.36842105263156" text-anchor="middle" visibility="hidden" style="font-size: 13px;">F</text><text y="358" x="149.67105263157896" text-anchor="middle" visibility="hidden" style="font-size: 13px;">R</text><text y="358" x="151.97368421052633" text-anchor="middle" visibility="hidden" style="font-size: 13px;">L</text><text y="358" x="154.27631578947367" text-anchor="middle" visibility="hidden" style="font-size: 13px;">S</text><text y="358" x="156.57894736842104" text-anchor="middle" visibility="hidden" style="font-size: 13px;">G</text><text y="358" x="158.88157894736844" text-anchor="middle" visibility="hidden" style="font-size: 13px;">K</text><text y="358" x="161.18421052631578" text-anchor="middle" visibility="hidden" style="font-size: 13px;">C</text><text y="358" x="163.48684210526315" text-anchor="middle" visibility="hidden" style="font-size: 13px;">F</text><text y="358" x="165.78947368421052" text-anchor="middle" visibility="hidden" style="font-size: 13px;">S</text><text y="358" x="168.0921052631579" text-anchor="middle" visibility="hidden" style="font-size: 13px;">L</text><text y="358" x="170.39473684210526" text-anchor="middle" visibility="hidden" style="font-size: 13px;">V</text><text y="358" x="172.69736842105263" text-anchor="middle" visibility="hidden" style="font-size: 13px;">E</text><text y="358" x="175" text-anchor="middle" visibility="hidden" style="font-size: 13px;">S</text><text y="358" x="177.30263157894737" text-anchor="middle" visibility="hidden" style="font-size: 13px;">T</text><text y="358" x="179.60526315789474" text-anchor="middle" visibility="hidden" style="font-size: 13px;">Y</text><text y="358" x="181.9078947368421" text-anchor="middle" visibility="hidden" style="font-size: 13px;">K</text><text y="358" x="184.21052631578945" text-anchor="middle" visibility="hidden" style="font-size: 13px;">Y</text><text y="358" x="186.51315789473685" text-anchor="middle" visibility="hidden" style="font-size: 13px;">E</text><text y="358" x="188.81578947368422" text-anchor="middle" visibility="hidden" style="font-size: 13px;">F</text><text y="358" x="191.11842105263156" text-anchor="middle" visibility="hidden" style="font-size: 13px;">C</text><text y="358" x="193.42105263157896" text-anchor="middle" visibility="hidden" style="font-size: 13px;">P</text><text y="358" x="195.72368421052633" text-anchor="middle" visibility="hidden" style="font-size: 13px;">F</text><text y="358" x="198.02631578947367" text-anchor="middle" visibility="hidden" style="font-size: 13px;">H</text><text y="358" x="200.32894736842104" text-anchor="middle" visibility="hidden" style="font-size: 13px;">N</text><text y="358" x="202.63157894736844" text-anchor="middle" visibility="hidden" style="font-size: 13px;">V</text><text y="358" x="204.93421052631578" text-anchor="middle" visibility="hidden" style="font-size: 13px;">T</text><text y="358" x="207.23684210526315" text-anchor="middle" visibility="hidden" style="font-size: 13px;">Q</text><text y="358" x="209.53947368421055" text-anchor="middle" visibility="hidden" style="font-size: 13px;">H</text><text y="358" x="211.8421052631579" text-anchor="middle" visibility="hidden" style="font-size: 13px;">E</text><text y="358" x="214.14473684210526" text-anchor="middle" visibility="hidden" style="font-size: 13px;">Q</text><text y="358" x="216.44736842105263" text-anchor="middle" visibility="hidden" style="font-size: 13px;">T</text><text y="358" x="218.75" text-anchor="middle" visibility="hidden" style="font-size: 13px;">F</text><text y="358" x="221.05263157894737" text-anchor="middle" visibility="hidden" style="font-size: 13px;">R</text><text y="358" x="223.35526315789474" text-anchor="middle" visibility="hidden" style="font-size: 13px;">W</text><text y="358" x="225.6578947368421" text-anchor="middle" visibility="hidden" style="font-size: 13px;">N</text><text y="358" x="227.96052631578945" text-anchor="middle" visibility="hidden" style="font-size: 13px;">A</text><text y="358" x="230.26315789473685" text-anchor="middle" visibility="hidden" style="font-size: 13px;">Y</text><text y="358" x="232.56578947368422" text-anchor="middle" visibility="hidden" style="font-size: 13px;">S</text><text y="358" x="234.86842105263156" text-anchor="middle" visibility="hidden" style="font-size: 13px;">G</text><text y="358" x="237.17105263157896" text-anchor="middle" visibility="hidden" style="font-size: 13px;">I</text><text y="358" x="239.47368421052633" text-anchor="middle" visibility="hidden" style="font-size: 13px;">L</text><text y="358" x="241.77631578947367" text-anchor="middle" visibility="hidden" style="font-size: 13px;">G</text><text y="358" x="244.07894736842104" text-anchor="middle" visibility="hidden" style="font-size: 13px;">I</text><text y="358" x="246.38157894736844" text-anchor="middle" visibility="hidden" style="font-size: 13px;">W</text><text y="358" x="248.68421052631578" text-anchor="middle" visibility="hidden" style="font-size: 13px;">H</text><text y="358" x="250.98684210526315" text-anchor="middle" visibility="hidden" style="font-size: 13px;">E</text><text y="358" x="253.28947368421055" text-anchor="middle" visibility="hidden" style="font-size: 13px;">W</text><text y="358" x="255.5921052631579" text-anchor="middle" visibility="hidden" style="font-size: 13px;">E</text><text y="358" x="257.89473684210526" text-anchor="middle" visibility="hidden" style="font-size: 13px;">I</text><text y="358" x="260.19736842105266" text-anchor="middle" visibility="hidden" style="font-size: 13px;">A</text><text y="358" x="262.5" text-anchor="middle" visibility="hidden" style="font-size: 13px;">N</text><text y="358" x="264.80263157894734" text-anchor="middle" visibility="hidden" style="font-size: 13px;">N</text><text y="358" x="267.10526315789474" text-anchor="middle" visibility="hidden" style="font-size: 13px;">T</text><text y="358" x="269.4078947368421" text-anchor="middle" visibility="hidden" style="font-size: 13px;">F</text><text y="358" x="271.7105263157895" text-anchor="middle" visibility="hidden" style="font-size: 13px;">T</text><text y="358" x="274.0131578947369" text-anchor="middle" visibility="hidden" style="font-size: 13px;">G</text><text y="358" x="276.3157894736842" text-anchor="middle" visibility="hidden" style="font-size: 13px;">M</text><text y="358" x="278.61842105263156" text-anchor="middle" visibility="hidden" style="font-size: 13px;">W</text><text y="358" x="280.92105263157896" text-anchor="middle" visibility="hidden" style="font-size: 13px;">M</text><text y="358" x="283.2236842105263" text-anchor="middle" visibility="hidden" style="font-size: 13px;">R</text><text y="358" x="285.5263157894737" text-anchor="middle" visibility="hidden" style="font-size: 13px;">D</text><text y="358" x="287.82894736842104" text-anchor="middle" visibility="hidden" style="font-size: 13px;">G</text><text y="358" x="290.13157894736844" text-anchor="middle" visibility="hidden" style="font-size: 13px;">D</text><text y="358" x="292.4342105263158" text-anchor="middle" visibility="hidden" style="font-size: 13px;">A</text><text y="358" x="294.7368421052631" text-anchor="middle" visibility="hidden" style="font-size: 13px;">C</text><text y="358" x="297.0394736842105" text-anchor="middle" visibility="hidden" style="font-size: 13px;">R</text><text y="358" x="299.3421052631579" text-anchor="middle" visibility="hidden" style="font-size: 13px;">S</text><text y="358" x="301.64473684210526" text-anchor="middle" visibility="hidden" style="font-size: 13px;">R</text><text y="358" x="303.94736842105266" text-anchor="middle" visibility="hidden" style="font-size: 13px;">S</text><text y="358" x="306.25" text-anchor="middle" visibility="hidden" style="font-size: 13px;">R</text><text y="358" x="308.55263157894734" text-anchor="middle" visibility="hidden" style="font-size: 13px;">Q</text><text y="358" x="310.85526315789474" text-anchor="middle" visibility="hidden" style="font-size: 13px;">S</text><text y="358" x="313.1578947368421" text-anchor="middle" visibility="hidden" style="font-size: 13px;">K</text><text y="358" x="315.4605263157895" text-anchor="middle" visibility="hidden" style="font-size: 13px;">V</text><text y="358" x="317.7631578947369" text-anchor="middle" visibility="hidden" style="font-size: 13px;">E</text><text y="358" x="320.0657894736842" text-anchor="middle" visibility="hidden" style="font-size: 13px;">L</text><text y="358" x="322.36842105263156" text-anchor="middle" visibility="hidden" style="font-size: 13px;">A</text><text y="358" x="324.67105263157896" text-anchor="middle" visibility="hidden" style="font-size: 13px;">C</text><text y="358" x="326.9736842105263" text-anchor="middle" visibility="hidden" style="font-size: 13px;">G</text><text y="358" x="329.2763157894737" text-anchor="middle" visibility="hidden" style="font-size: 13px;">K</text><text y="358" x="331.57894736842104" text-anchor="middle" visibility="hidden" style="font-size: 13px;">S</text><text y="358" x="333.88157894736844" text-anchor="middle" visibility="hidden" style="font-size: 13px;">N</text><text y="358" x="336.1842105263158" text-anchor="middle" visibility="hidden" style="font-size: 13px;">R</text><text y="358" x="338.4868421052631" text-anchor="middle" visibility="hidden" style="font-size: 13px;">L</text><text y="358" x="340.7894736842105" text-anchor="middle" visibility="hidden" style="font-size: 13px;">A</text><text y="358" x="343.0921052631579" text-anchor="middle" visibility="hidden" style="font-size: 13px;">H</text><text y="358" x="345.39473684210526" text-anchor="middle" visibility="hidden" style="font-size: 13px;">V</text><text y="358" x="347.69736842105266" text-anchor="middle" visibility="hidden" style="font-size: 13px;">S</text><text y="358" x="350" text-anchor="middle" visibility="hidden" style="font-size: 13px;">E</text><text y="358" x="352.30263157894734" text-anchor="middle" visibility="hidden" style="font-size: 13px;">P</text><text y="358" x="354.60526315789474" text-anchor="middle" visibility="hidden" style="font-size: 13px;">S</text><text y="358" x="356.9078947368421" text-anchor="middle" visibility="hidden" style="font-size: 13px;">T</text><text y="358" x="359.2105263157895" text-anchor="middle" visibility="hidden" style="font-size: 13px;">C</text><text y="358" x="361.5131578947369" text-anchor="middle" visibility="hidden" style="font-size: 13px;">V</text><text y="358" x="363.8157894736842" text-anchor="middle" visibility="hidden" style="font-size: 13px;">Y</text><text y="358" x="366.11842105263156" text-anchor="middle" visibility="hidden" style="font-size: 13px;">A</text><text y="358" x="368.4210526315789" text-anchor="middle" visibility="hidden" style="font-size: 13px;">L</text><text y="358" x="370.7236842105263" text-anchor="middle" visibility="hidden" style="font-size: 13px;">T</text><text y="358" x="373.0263157894737" text-anchor="middle" visibility="hidden" style="font-size: 13px;">F</text><text y="358" x="375.3289473684211" text-anchor="middle" visibility="hidden" style="font-size: 13px;">E</text><text y="358" x="377.63157894736844" text-anchor="middle" visibility="hidden" style="font-size: 13px;">T</text><text y="358" x="379.9342105263158" text-anchor="middle" visibility="hidden" style="font-size: 13px;">P</text><text y="358" x="382.2368421052631" text-anchor="middle" visibility="hidden" style="font-size: 13px;">L</text><text y="358" x="384.5394736842105" text-anchor="middle" visibility="hidden" style="font-size: 13px;">V</text><text y="358" x="386.8421052631579" text-anchor="middle" visibility="hidden" style="font-size: 13px;">C</text><text y="358" x="389.14473684210526" text-anchor="middle" visibility="hidden" style="font-size: 13px;">H</text><text y="358" x="391.44736842105266" text-anchor="middle" visibility="hidden" style="font-size: 13px;">P</text><text y="358" x="393.75" text-anchor="middle" visibility="hidden" style="font-size: 13px;">H</text><text y="358" x="396.05263157894734" text-anchor="middle" visibility="hidden" style="font-size: 13px;">A</text><text y="358" x="398.35526315789474" text-anchor="middle" visibility="hidden" style="font-size: 13px;">L</text><text y="358" x="400.6578947368421" text-anchor="middle" visibility="hidden" style="font-size: 13px;">L</text><text y="358" x="402.9605263157895" text-anchor="middle" visibility="hidden" style="font-size: 13px;">V</text><text y="358" x="405.2631578947369" text-anchor="middle" visibility="hidden" style="font-size: 13px;">Y</text><text y="358" x="407.5657894736842" text-anchor="middle" visibility="hidden" style="font-size: 13px;">P</text><text y="358" x="409.86842105263156" text-anchor="middle" visibility="hidden" style="font-size: 13px;">T</text><text y="358" x="412.1710526315789" text-anchor="middle" visibility="hidden" style="font-size: 13px;">L</text><text y="358" x="414.4736842105263" text-anchor="middle" visibility="hidden" style="font-size: 13px;">P</text><text y="358" x="416.7763157894737" text-anchor="middle" visibility="hidden" style="font-size: 13px;">E</text><text y="358" x="419.0789473684211" text-anchor="middle" visibility="hidden" style="font-size: 13px;">A</text><text y="358" x="421.38157894736844" text-anchor="middle" visibility="hidden" style="font-size: 13px;">L</text><text y="358" x="423.6842105263158" text-anchor="middle" visibility="hidden" style="font-size: 13px;">Q</text><text y="358" x="425.9868421052631" text-anchor="middle" visibility="hidden" style="font-size: 13px;">R</text><text y="358" x="428.2894736842105" text-anchor="middle" visibility="hidden" style="font-size: 13px;">Q</text><text y="358" x="430.5921052631579" text-anchor="middle" visibility="hidden" style="font-size: 13px;">W</text><text y="358" x="432.89473684210526" text-anchor="middle" visibility="hidden" style="font-size: 13px;">D</text><text y="358" x="435.19736842105266" text-anchor="middle" visibility="hidden" style="font-size: 13px;">Q</text><text y="358" x="437.5" text-anchor="middle" visibility="hidden" style="font-size: 13px;">V</text><text y="358" x="439.80263157894734" text-anchor="middle" visibility="hidden" style="font-size: 13px;">E</text><text y="358" x="442.10526315789474" text-anchor="middle" visibility="hidden" style="font-size: 13px;">Q</text><text y="358" x="444.4078947368421" text-anchor="middle" visibility="hidden" style="font-size: 13px;">D</text><text y="358" x="446.7105263157895" text-anchor="middle" visibility="hidden" style="font-size: 13px;">L</text><text y="358" x="449.0131578947369" text-anchor="middle" visibility="hidden" style="font-size: 13px;">A</text><text y="358" x="451.3157894736842" text-anchor="middle" visibility="hidden" style="font-size: 13px;">D</text><text y="358" x="453.61842105263156" text-anchor="middle" visibility="hidden" style="font-size: 13px;">E</text><text y="358" x="455.9210526315789" text-anchor="middle" visibility="hidden" style="font-size: 13px;">L</text><text y="358" x="458.2236842105263" text-anchor="middle" visibility="hidden" style="font-size: 13px;">I</text><text y="358" x="460.5263157894737" text-anchor="middle" visibility="hidden" style="font-size: 13px;">T</text><text y="358" x="462.8289473684211" text-anchor="middle" visibility="hidden" style="font-size: 13px;">P</text><text y="358" x="465.13157894736844" text-anchor="middle" visibility="hidden" style="font-size: 13px;">Q</text><text y="358" x="467.4342105263158" text-anchor="middle" visibility="hidden" style="font-size: 13px;">G</text><text y="358" x="469.7368421052631" text-anchor="middle" visibility="hidden" style="font-size: 13px;">H</text><text y="358" x="472.0394736842105" text-anchor="middle" visibility="hidden" style="font-size: 13px;">E</text><text y="358" x="474.3421052631579" text-anchor="middle" visibility="hidden" style="font-size: 13px;">K</text><text y="358" x="476.64473684210526" text-anchor="middle" visibility="hidden" style="font-size: 13px;">L</text><text y="358" x="478.94736842105266" text-anchor="middle" visibility="hidden" style="font-size: 13px;">L</text><text y="358" x="481.25" text-anchor="middle" visibility="hidden" style="font-size: 13px;">R</text><text y="358" x="483.55263157894734" text-anchor="middle" visibility="hidden" style="font-size: 13px;">T</text><text y="358" x="485.85526315789474" text-anchor="middle" visibility="hidden" style="font-size: 13px;">L</text><text y="358" x="488.1578947368421" text-anchor="middle" visibility="hidden" style="font-size: 13px;">F</text><text y="358" x="490.4605263157895" text-anchor="middle" visibility="hidden" style="font-size: 13px;">E</text><text y="358" x="492.7631578947369" text-anchor="middle" visibility="hidden" style="font-size: 13px;">D</text><text y="358" x="495.0657894736842" text-anchor="middle" visibility="hidden" style="font-size: 13px;">A</text><text y="358" x="497.36842105263156" text-anchor="middle" visibility="hidden" style="font-size: 13px;">G</text><text y="358" x="499.6710526315789" text-anchor="middle" visibility="hidden" style="font-size: 13px;">Y</text><text y="358" x="501.9736842105263" text-anchor="middle" visibility="hidden" style="font-size: 13px;">L</text><text y="358" x="504.2763157894737" text-anchor="middle" visibility="hidden" style="font-size: 13px;">K</text><text y="358" x="506.5789473684211" text-anchor="middle" visibility="hidden" style="font-size: 13px;">T</text><text y="358" x="508.88157894736844" text-anchor="middle" visibility="hidden" style="font-size: 13px;">P</text><text y="358" x="511.1842105263158" text-anchor="middle" visibility="hidden" style="font-size: 13px;">E</text><text y="358" x="513.4868421052631" text-anchor="middle" visibility="hidden" style="font-size: 13px;">E</text><text y="358" x="515.7894736842105" text-anchor="middle" visibility="hidden" style="font-size: 13px;">N</text><text y="358" x="518.0921052631579" text-anchor="middle" visibility="hidden" style="font-size: 13px;">E</text><text y="358" x="520.3947368421053" text-anchor="middle" visibility="hidden" style="font-size: 13px;">P</text><text y="358" x="522.6973684210526" text-anchor="middle" visibility="hidden" style="font-size: 13px;">T</text><text y="358" x="525" text-anchor="middle" visibility="hidden" style="font-size: 13px;">Q</text><text y="358" x="527.3026315789474" text-anchor="middle" visibility="hidden" style="font-size: 13px;">L</text><text y="358" x="529.6052631578947" text-anchor="middle" visibility="hidden" style="font-size: 13px;">E</text><text y="358" x="531.9078947368421" text-anchor="middle" visibility="hidden" style="font-size: 13px;">G</text><text y="358" x="534.2105263157895" text-anchor="middle" visibility="hidden" style="font-size: 13px;">G</text><text y="358" x="536.5131578947369" text-anchor="middle" visibility="hidden" style="font-size: 13px;">P</text><text y="358" x="538.8157894736842" text-anchor="middle" visibility="hidden" style="font-size: 13px;">D</text><text y="358" x="541.1184210526316" text-anchor="middle" visibility="hidden" style="font-size: 13px;">S</text><text y="358" x="543.421052631579" text-anchor="middle" visibility="hidden" style="font-size: 13px;">L</text><text y="358" x="545.7236842105262" text-anchor="middle" visibility="hidden" style="font-size: 13px;">G</text><text y="358" x="548.0263157894738" text-anchor="middle" visibility="hidden" style="font-size: 13px;">F</text><text y="358" x="550.328947368421" text-anchor="middle" visibility="hidden" style="font-size: 13px;">E</text><text y="358" x="552.6315789473684" text-anchor="middle" visibility="hidden" style="font-size: 13px;">T</text><text y="358" x="554.9342105263158" text-anchor="middle" visibility="hidden" style="font-size: 13px;">L</text><text y="358" x="557.2368421052631" text-anchor="middle" visibility="hidden" style="font-size: 13px;">E</text><text y="358" x="559.5394736842105" text-anchor="middle" visibility="hidden" style="font-size: 13px;">N</text><text y="358" x="561.8421052631579" text-anchor="middle" visibility="hidden" style="font-size: 13px;">C</text><text y="358" x="564.1447368421053" text-anchor="middle" visibility="hidden" style="font-size: 13px;">R</text><text y="358" x="566.4473684210526" text-anchor="middle" visibility="hidden" style="font-size: 13px;">K</text><text y="358" x="568.75" text-anchor="middle" visibility="hidden" style="font-size: 13px;">A</text><text y="358" x="571.0526315789474" text-anchor="middle" visibility="hidden" style="font-size: 13px;">H</text><text y="358" x="573.3552631578947" text-anchor="middle" visibility="hidden" style="font-size: 13px;">K</text><text y="358" x="575.6578947368421" text-anchor="middle" visibility="hidden" style="font-size: 13px;">E</text><text y="358" x="577.9605263157895" text-anchor="middle" visibility="hidden" style="font-size: 13px;">L</text><text y="358" x="580.2631578947369" text-anchor="middle" visibility="hidden" style="font-size: 13px;">S</text><text y="358" x="582.5657894736842" text-anchor="middle" visibility="hidden" style="font-size: 13px;">K</text><text y="358" x="584.8684210526316" text-anchor="middle" visibility="hidden" style="font-size: 13px;">E</text><text y="358" x="587.171052631579" text-anchor="middle" visibility="hidden" style="font-size: 13px;">I</text><text y="358" x="589.4736842105262" text-anchor="middle" visibility="hidden" style="font-size: 13px;">K</text><text y="358" x="591.7763157894738" text-anchor="middle" visibility="hidden" style="font-size: 13px;">R</text><text y="358" x="594.078947368421" text-anchor="middle" visibility="hidden" style="font-size: 13px;">L</text><text y="358" x="596.3815789473684" text-anchor="middle" visibility="hidden" style="font-size: 13px;">K</text><text y="358" x="598.6842105263158" text-anchor="middle" visibility="hidden" style="font-size: 13px;">G</text><text y="358" x="600.9868421052631" text-anchor="middle" visibility="hidden" style="font-size: 13px;">L</text><text y="358" x="603.2894736842105" text-anchor="middle" visibility="hidden" style="font-size: 13px;">L</text><text y="358" x="605.5921052631579" text-anchor="middle" visibility="hidden" style="font-size: 13px;">T</text><text y="358" x="607.8947368421053" text-anchor="middle" visibility="hidden" style="font-size: 13px;">Q</text><text y="358" x="610.1973684210526" text-anchor="middle" visibility="hidden" style="font-size: 13px;">H</text><text y="358" x="612.5" text-anchor="middle" visibility="hidden" style="font-size: 13px;">G</text><text y="358" x="614.8026315789474" text-anchor="middle" visibility="hidden" style="font-size: 13px;">I</text><text y="358" x="617.1052631578947" text-anchor="middle" visibility="hidden" style="font-size: 13px;">P</text><text y="358" x="619.4078947368421" text-anchor="middle" visibility="hidden" style="font-size: 13px;">Y</text><text y="358" x="621.7105263157895" text-anchor="middle" visibility="hidden" style="font-size: 13px;">T</text><text y="358" x="624.0131578947369" text-anchor="middle" visibility="hidden" style="font-size: 13px;">R</text><text y="358" x="626.3157894736842" text-anchor="middle" visibility="hidden" style="font-size: 13px;">P</text><text y="358" x="628.6184210526316" text-anchor="middle" visibility="hidden" style="font-size: 13px;">T</text><text y="358" x="630.921052631579" text-anchor="middle" visibility="hidden" style="font-size: 13px;">E</text><text y="358" x="633.2236842105262" text-anchor="middle" visibility="hidden" style="font-size: 13px;">T</text><text y="358" x="635.5263157894738" text-anchor="middle" visibility="hidden" style="font-size: 13px;">S</text><text y="358" x="637.828947368421" text-anchor="middle" visibility="hidden" style="font-size: 13px;">N</text><text y="358" x="640.1315789473684" text-anchor="middle" visibility="hidden" style="font-size: 13px;">L</text><text y="358" x="642.4342105263158" text-anchor="middle" visibility="hidden" style="font-size: 13px;">E</text><text y="358" x="644.7368421052631" text-anchor="middle" visibility="hidden" style="font-size: 13px;">H</text><text y="358" x="647.0394736842105" text-anchor="middle" visibility="hidden" style="font-size: 13px;">L</text><text y="358" x="649.3421052631579" text-anchor="middle" visibility="hidden" style="font-size: 13px;">G</text><text y="358" x="651.6447368421053" text-anchor="middle" visibility="hidden" style="font-size: 13px;">H</text><text y="358" x="653.9473684210526" text-anchor="middle" visibility="hidden" style="font-size: 13px;">E</text><text y="358" x="656.25" text-anchor="middle" visibility="hidden" style="font-size: 13px;">T</text><text y="358" x="658.5526315789474" text-anchor="middle" visibility="hidden" style="font-size: 13px;">P</text><text y="358" x="660.8552631578947" text-anchor="middle" visibility="hidden" style="font-size: 13px;">R</text><text y="358" x="663.1578947368421" text-anchor="middle" visibility="hidden" style="font-size: 13px;">A</text><text y="358" x="665.4605263157895" text-anchor="middle" visibility="hidden" style="font-size: 13px;">K</text><text y="358" x="667.7631578947369" text-anchor="middle" visibility="hidden" style="font-size: 13px;">S</text><text y="358" x="670.0657894736842" text-anchor="middle" visibility="hidden" style="font-size: 13px;">P</text><text y="358" x="672.3684210526316" text-anchor="middle" visibility="hidden" style="font-size: 13px;">E</text><text y="358" x="674.671052631579" text-anchor="middle" visibility="hidden" style="font-size: 13px;">Q</text><text y="358" x="676.9736842105262" text-anchor="middle" visibility="hidden" style="font-size: 13px;">L</text><text y="358" x="679.2763157894738" text-anchor="middle" visibility="hidden" style="font-size: 13px;">R</text><text y="358" x="681.578947368421" text-anchor="middle" visibility="hidden" style="font-size: 13px;">G</text><text y="358" x="683.8815789473684" text-anchor="middle" visibility="hidden" style="font-size: 13px;">D</text><text y="358" x="686.1842105263158" text-anchor="middle" visibility="hidden" style="font-size: 13px;">P</text><text y="358" x="688.4868421052631" text-anchor="middle" visibility="hidden" style="font-size: 13px;">G</text><text y="358" x="690.7894736842105" text-anchor="middle" visibility="hidden" style="font-size: 13px;">L</text><text y="358" x="693.0921052631579" text-anchor="middle" visibility="hidden" style="font-size: 13px;">R</text><text y="358" x="695.3947368421053" text-anchor="middle" visibility="hidden" style="font-size: 13px;">G</text><text y="358" x="697.6973684210526" text-anchor="middle" visibility="hidden" style="font-size: 13px;">S</text><text y="358" x="700" text-anchor="middle" visibility="hidden" style="font-size: 13px;">L</text></g></g></svg><g class="xAxis" transform="translate(0,360)" fill="none" font-size="10" font-family="sans-serif" text-anchor="middle"><path class="domain" stroke="#000" d="M0.5,6V0.5H700.5V6"></path><g class="tick" opacity="1" transform="translate(44.25,0)"><line stroke="#000" y2="6"></line><text fill="#000" y="9" dy="0.71em">20</text></g><g class="tick" opacity="1" transform="translate(90.30263157894737,0)"><line stroke="#000" y2="6"></line><text fill="#000" y="9" dy="0.71em">40</text></g><g class="tick" opacity="1" transform="translate(136.35526315789474,0)"><line stroke="#000" y2="6"></line><text fill="#000" y="9" dy="0.71em">60</text></g><g class="tick" opacity="1" transform="translate(182.4078947368421,0)"><line stroke="#000" y2="6"></line><text fill="#000" y="9" dy="0.71em">80</text></g><g class="tick" opacity="1" transform="translate(228.46052631578945,0)"><line stroke="#000" y2="6"></line><text fill="#000" y="9" dy="0.71em">100</text></g><g class="tick" opacity="1" transform="translate(274.5131578947369,0)"><line stroke="#000" y2="6"></line><text fill="#000" y="9" dy="0.71em">120</text></g><g class="tick" opacity="1" transform="translate(320.5657894736842,0)"><line stroke="#000" y2="6"></line><text fill="#000" y="9" dy="0.71em">140</text></g><g class="tick" opacity="1" transform="translate(366.61842105263156,0)"><line stroke="#000" y2="6"></line><text fill="#000" y="9" dy="0.71em">160</text></g><g class="tick" opacity="1" transform="translate(412.6710526315789,0)"><line stroke="#000" y2="6"></line><text fill="#000" y="9" dy="0.71em">180</text></g><g class="tick" opacity="1" transform="translate(458.7236842105263,0)"><line stroke="#000" y2="6"></line><text fill="#000" y="9" dy="0.71em">200</text></g><g class="tick" opacity="1" transform="translate(504.7763157894737,0)"><line stroke="#000" y2="6"></line><text fill="#000" y="9" dy="0.71em">220</text></g><g class="tick" opacity="1" transform="translate(550.828947368421,0)"><line stroke="#000" y2="6"></line><text fill="#000" y="9" dy="0.71em">240</text></g><g class="tick" opacity="1" transform="translate(596.8815789473684,0)"><line stroke="#000" y2="6"></line><text fill="#000" y="9" dy="0.71em">260</text></g><g class="tick" opacity="1" transform="translate(642.9342105263158,0)"><line stroke="#000" y2="6"></line><text fill="#000" y="9" dy="0.71em">280</text></g><g class="tick" opacity="1" transform="translate(688.9868421052631,0)"><line stroke="#000" y2="6"></line><text fill="#000" y="9" dy="0.71em">300</text></g></g><text class="x label" text-anchor="end" x="700" y="390" style="font-size: 13px; font-family: Arial;">Residue number</text><g class="yAxis" fill="none" font-size="10" font-family="sans-serif" text-anchor="end"><path class="domain" stroke="#000" d="M-6,360.5H0.5V0.5H-6"></path><g class="tick" opacity="1" transform="translate(0,357.52479338842977)"><line stroke="#000" x2="-6"></line><text fill="#000" x="-9" dy="0.32em"></text></g><g class="tick" opacity="1" transform="translate(0,327.77272727272725)"><line stroke="#000" x2="-6"></line><text fill="#000" x="-9" dy="0.32em">0</text></g><g class="tick" opacity="1" transform="translate(0,298.0206611570248)"><line stroke="#000" x2="-6"></line><text fill="#000" x="-9" dy="0.32em">0.1</text></g><g class="tick" opacity="1" transform="translate(0,268.2685950413223)"><line stroke="#000" x2="-6"></line><text fill="#000" x="-9" dy="0.32em">0.2</text></g><g class="tick" opacity="1" transform="translate(0,238.51652892561984)"><line stroke="#000" x2="-6"></line><text fill="#000" x="-9" dy="0.32em">0.3</text></g><g class="tick" opacity="1" transform="translate(0,208.76446280991738)"><line stroke="#000" x2="-6"></line><text fill="#000" x="-9" dy="0.32em">0.4</text></g><g class="tick" opacity="1" transform="translate(0,179.0123966942149)"><line stroke="#000" x2="-6"></line><text fill="#000" x="-9" dy="0.32em">0.5</text></g><g class="tick" opacity="1" transform="translate(0,149.26033057851242)"><line stroke="#000" x2="-6"></line><text fill="#000" x="-9" dy="0.32em">0.6</text></g><g class="tick" opacity="1" transform="translate(0,119.50826446280996)"><line stroke="#000" x2="-6"></line><text fill="#000" x="-9" dy="0.32em">0.7</text></g><g class="tick" opacity="1" transform="translate(0,89.75619834710744)"><line stroke="#000" x2="-6"></line><text fill="#000" x="-9" dy="0.32em">0.8</text></g><g class="tick" opacity="1" transform="translate(0,60.00413223140498)"><line stroke="#000" x2="-6"></line><text fill="#000" x="-9" dy="0.32em">0.9</text></g><g class="tick" opacity="1" transform="translate(0,30.25206611570252)"><line stroke="#000" x2="-6"></line><text fill="#000" x="-9" dy="0.32em">1</text></g><g class="tick" opacity="1" transform="translate(0,0.5)"><line stroke="#000" x2="-6"></line><text fill="#000" x="-9" dy="0.32em">1.1</text></g></g><text class="y label" text-anchor="middle" y="-50" x="-180" dy="0.8em" transform="rotate(-90)" style="font-size: 13px; font-family: Arial;">Total number of references</text><g class="axisRed" fill="none" font-size="10" font-family="sans-serif" text-anchor="start" visibility="hidden" transform="translate(700, 0)"><path class="domain" stroke="#000" d="M6,360.5H0.5V0.5H6"></path><g class="tick" opacity="1" transform="translate(0,360.5)"><line stroke="#000" x2="6"></line><text fill="#000" x="9" dy="0.32em">0</text></g><text text-anchor="start" dx="5.2em" dy="-2.6em" transform="rotate(90)" visibility="hidden" style="font-size: 12px; font-family: Arial; fill: #d7301f;">No recurrent (&gt;2) missense mutations!</text></g><g class="axisPurple" fill="none" font-size="10" font-family="sans-serif" text-anchor="start" visibility="hidden"><path class="domain" stroke="#000" d="M6,360.5H0.5V0.5H6"></path><g class="tick" opacity="1" transform="translate(0,327.77272727272725)"><line stroke="#000" x2="6"></line><text fill="#000" x="9" dy="0.32em">0</text></g><g class="tick" opacity="1" transform="translate(0,284.0196888672824)"><line stroke="#000" x2="6"></line><text fill="#000" x="9" dy="0.32em">0.0005</text></g><g class="tick" opacity="1" transform="translate(0,240.26665046183763)"><line stroke="#000" x2="6"></line><text fill="#000" x="9" dy="0.32em">0.001</text></g><g class="tick" opacity="1" transform="translate(0,196.5136120563928)"><line stroke="#000" x2="6"></line><text fill="#000" x="9" dy="0.32em">0.0015</text></g><g class="tick" opacity="1" transform="translate(0,152.76057365094795)"><line stroke="#000" x2="6"></line><text fill="#000" x="9" dy="0.32em">0.002</text></g><g class="tick" opacity="1" transform="translate(0,109.00753524550314)"><line stroke="#000" x2="6"></line><text fill="#000" x="9" dy="0.32em">0.0025</text></g><g class="tick" opacity="1" transform="translate(0,65.25449684005827)"><line stroke="#000" x2="6"></line><text fill="#000" x="9" dy="0.32em">0.003</text></g><g class="tick" opacity="1" transform="translate(0,21.501458434613482)"><line stroke="#000" x2="6"></line><text fill="#000" x="9" dy="0.32em">0.0035</text></g><text text-anchor="start" x="10" y="10" visibility="hidden" style="font-size: 12px; font-family: Arial; fill: #807dba;">Minor Allele Frequency (MAF) %</text></g><circle cx="636" cy="15" r="10" class="compassNav" style="fill: #ffffff; stroke: #666666; stroke-width: 1px;"></circle><path d="M440.935 12.574l3.966 82.766C399.416 41.904 331.674 8 256 8 134.813 8 33.933 94.924 12.296 209.824 10.908 217.193 16.604 224 24.103 224h49.084c5.57 0 10.377-3.842 11.676-9.259C103.407 137.408 172.931 80 256 80c60.893 0 114.512 30.856 146.104 77.801l-101.53-4.865c-6.845-.328-12.574 5.133-12.574 11.986v47.411c0 6.627 5.373 12 12 12h200.333c6.627 0 12-5.373 12-12V12c0-6.627-5.373-12-12-12h-47.411c-6.853 0-12.315 5.729-11.987 12.574zM256 432c-60.895 0-114.517-30.858-146.109-77.805l101.868 4.871c6.845.327 12.573-5.134 12.573-11.986v-47.412c0-6.627-5.373-12-12-12H12c-6.627 0-12 5.373-12 12V500c0 6.627 5.373 12 12 12h47.385c6.863 0 12.328-5.745 11.985-12.599l-4.129-82.575C112.725 470.166 180.405 504 256 504c121.187 0 222.067-86.924 243.704-201.824 1.388-7.369-4.308-14.176-11.807-14.176h-49.084c-5.57 0-10.377 3.842-11.676 9.259C408.593 374.592 339.069 432 256 432z" class="compassNav" transform="translate(631, 10) scale(0.02)" style="fill: #666666; stroke: #666666; stroke-width: 1px;"></path><circle cx="658" cy="15" r="10" class="compassNav" style="fill: #ffffff; stroke: #666666; stroke-width: 1px;"></circle><line class="compassNav" stroke-width="2" stroke="#666666" x1="654" y1="15" x2="662" y2="15"></line><line class="compassNav" stroke-width="2" stroke="#666666" x1="658" y1="11" x2="658" y2="19"></line><circle cx="614" cy="15" r="10" class="compassNav" style="fill: #ffffff; stroke: #666666; stroke-width: 1px;"></circle><line class="compassNav" stroke-width="2" stroke="#666666" x1="610" y1="15" x2="618" y2="15"></line><path d="M582 14 l20 -12 a100,40 0 0,0 0,24z" class="compassNav" style="fill: #ffffff; stroke: #666666; stroke-width: 1px;"></path><path d="M690 14 l-20 -12 a100,40 0 0,1 0,24z" class="compassNav" style="fill: #ffffff; stroke: #666666; stroke-width: 1px;"></path><path d="M216 0h80c13.3 0 24 10.7 24 24v168h87.7c17.8 0 26.7 21.5 14.1 34.1L269.7 378.3c-7.5 7.5-19.8 7.5-27.3 0L90.1 226.1c-12.6-12.6-3.7-34.1 14.1-34.1H192V24c0-13.3 10.7-24 24-24zm296 376v112c0 13.3-10.7 24-24 24H24c-13.3 0-24-10.7-24-24V376c0-13.3 10.7-24 24-24h146.7l49 49c20.1 20.1 52.5 20.1 72.6 0l49-49H488c13.3 0 24 10.7 24 24zm-124 88c0-11-9-20-20-20s-20 9-20 20 9 20 20 20 20-9 20-20zm64 0c0-11-9-20-20-20s-20 9-20 20 9 20 20 20 20-9 20-20z" class="compassNav" transform="translate(552,0) scale(0.05)" style="fill: #336699; stroke: #336699; stroke-width: 1px; cursor: pointer;"></path></g></svg>