<svg width="800" height="400" style="background-color: white;"><g transform="translate(50,0)"><svg width="700" height="360"><g style="-webkit-tap-highlight-color: rgba(0, 0, 0, 0);"><rect width="700" height="360" style="fill: #ffffff;"></rect><g id="lines"><line class="line" stroke-width="1" stroke="#d7301f" x1="-298.3122362869198" y1="333" x2="-298.3122362869198" y2="360" visibility="hidden" style="stroke-dasharray: 3px, 3px;"></line></g><g><rect x="-303.3122362869198" y="355" width="10" height="10" visibility="hidden" style="fill: #ffffff; stroke: #d7301f;"></rect></g><g id="lines"><line class="line" stroke-width="1" stroke="#6a51a3" x1="-298.3122362869198" y1="333" x2="-298.3122362869198" y2="327.27272727272725" visibility="hidden" style="stroke-dasharray: 3px, 3px;"></line></g><g><rect x="-303.3122362869198" y="322.27272727272725" width="10" height="10" visibility="hidden" style="fill: #ffffff; stroke: #6a51a3;"></rect></g><g id="lines"><line class="line" stroke-width="1" stroke="#666666" x1="135.86497890295357" y1="333" x2="135.86497890295357" y2="29.75206611570252"></line><line class="line" stroke-width="1" stroke="#666666" x1="186.07594936708858" y1="333" x2="186.07594936708858" y2="29.75206611570252"></line><line class="line" stroke-width="1" stroke="#666666" x1="475.5274261603376" y1="333" x2="475.5274261603376" y2="29.75206611570252"></line><line class="line" stroke-width="1" stroke="#666666" x1="572.9957805907173" y1="333" x2="572.9957805907173" y2="29.75206611570252"></line><line class="line" stroke-width="1" stroke="#666666" x1="599.57805907173" y1="333" x2="599.57805907173" y2="29.75206611570252"></line><line class="line" stroke-width="1" stroke="#666666" x1="688.1856540084389" y1="333" x2="688.1856540084389" y2="29.75206611570252"></line></g><g id="circles"><circle r="4" cx="135.86497890295357" cy="29.75206611570252" style="fill: #666666; stroke: #666666; stroke-width: 1px;"></circle><circle r="4" cx="186.07594936708858" cy="29.75206611570252" style="fill: #666666; stroke: #666666; stroke-width: 1px;"></circle><circle r="4" cx="475.5274261603376" cy="29.75206611570252" style="fill: #666666; stroke: #666666; stroke-width: 1px;"></circle><circle r="4" cx="572.9957805907173" cy="29.75206611570252" style="fill: #4393c3; stroke: #666666; stroke-width: 1px;"></circle><circle r="4" cx="599.57805907173" cy="29.75206611570252" style="fill: #4393c3; stroke: #666666; stroke-width: 1px;"></circle><circle r="4" cx="688.1856540084389" cy="29.75206611570252" style="fill: #4393c3; stroke: #666666; stroke-width: 1px;"></circle></g><g><rect x="0" y="333" width="700" height="12" style="fill: #ffffff; stroke-width: 1px; stroke: #666666;"></rect><rect x="0" y="333" width="584.8101265822785" height="12" style="fill: #aec7e8; stroke-width: 1px; stroke: #666666;"></rect><rect x="620.253164556962" y="333" width="59.07172995780593" height="12" style="fill: #ffbb78; stroke-width: 1px; stroke: #666666;"></rect></g><g><a target="_blank" xlink:href="http://pfam.xfam.org/family/"><text y="343" x="350" text-anchor="middle" style="color: rgb(102, 102, 102); font-weight: normal; font-size: 12px; font-family: Arial; cursor: pointer;"></text></a><a target="_blank" xlink:href="http://pfam.xfam.org/family/MHC_I_3"><text y="343" x="292.40506329113924" text-anchor="middle" style="color: rgb(102, 102, 102); font-weight: normal; font-size: 12px; font-family: Arial; cursor: pointer;">MHC_I_3</text></a><a target="_blank" xlink:href="http://pfam.xfam.org/family/TM"><text y="343" x="649.789029535865" text-anchor="middle" style="color: rgb(102, 102, 102); font-weight: normal; font-size: 12px; font-family: Arial; cursor: pointer;">TM</text></a></g><g><text y="358" x="0" text-anchor="middle" visibility="hidden" style="font-size: 13px;">M</text><text y="358" x="2.9535864978902953" text-anchor="middle" visibility="hidden" style="font-size: 13px;">L</text><text y="358" x="5.9071729957805905" text-anchor="middle" visibility="hidden" style="font-size: 13px;">T</text><text y="358" x="8.860759493670885" text-anchor="middle" visibility="hidden" style="font-size: 13px;">T</text><text y="358" x="11.814345991561181" text-anchor="middle" visibility="hidden" style="font-size: 13px;">L</text><text y="358" x="14.767932489451477" text-anchor="middle" visibility="hidden" style="font-size: 13px;">L</text><text y="358" x="17.72151898734177" text-anchor="middle" visibility="hidden" style="font-size: 13px;">P</text><text y="358" x="20.675105485232066" text-anchor="middle" visibility="hidden" style="font-size: 13px;">I</text><text y="358" x="23.628691983122362" text-anchor="middle" visibility="hidden" style="font-size: 13px;">L</text><text y="358" x="26.582278481012658" text-anchor="middle" visibility="hidden" style="font-size: 13px;">L</text><text y="358" x="29.535864978902953" text-anchor="middle" visibility="hidden" style="font-size: 13px;">L</text><text y="358" x="32.48945147679325" text-anchor="middle" visibility="hidden" style="font-size: 13px;">S</text><text y="358" x="35.44303797468354" text-anchor="middle" visibility="hidden" style="font-size: 13px;">G</text><text y="358" x="38.39662447257384" text-anchor="middle" visibility="hidden" style="font-size: 13px;">W</text><text y="358" x="41.35021097046413" text-anchor="middle" visibility="hidden" style="font-size: 13px;">A</text><text y="358" x="44.30379746835443" text-anchor="middle" visibility="hidden" style="font-size: 13px;">F</text><text y="358" x="47.257383966244724" text-anchor="middle" visibility="hidden" style="font-size: 13px;">C</text><text y="358" x="50.21097046413502" text-anchor="middle" visibility="hidden" style="font-size: 13px;">S</text><text y="358" x="53.164556962025316" text-anchor="middle" visibility="hidden" style="font-size: 13px;">Q</text><text y="358" x="56.118143459915615" text-anchor="middle" visibility="hidden" style="font-size: 13px;">D</text><text y="358" x="59.07172995780591" text-anchor="middle" visibility="hidden" style="font-size: 13px;">A</text><text y="358" x="62.025316455696206" text-anchor="middle" visibility="hidden" style="font-size: 13px;">S</text><text y="358" x="64.9789029535865" text-anchor="middle" visibility="hidden" style="font-size: 13px;">D</text><text y="358" x="67.93248945147678" text-anchor="middle" visibility="hidden" style="font-size: 13px;">G</text><text y="358" x="70.88607594936708" text-anchor="middle" visibility="hidden" style="font-size: 13px;">L</text><text y="358" x="73.83966244725738" text-anchor="middle" visibility="hidden" style="font-size: 13px;">Q</text><text y="358" x="76.79324894514768" text-anchor="middle" visibility="hidden" style="font-size: 13px;">R</text><text y="358" x="79.74683544303797" text-anchor="middle" visibility="hidden" style="font-size: 13px;">L</text><text y="358" x="82.70042194092827" text-anchor="middle" visibility="hidden" style="font-size: 13px;">H</text><text y="358" x="85.65400843881856" text-anchor="middle" visibility="hidden" style="font-size: 13px;">M</text><text y="358" x="88.60759493670886" text-anchor="middle" visibility="hidden" style="font-size: 13px;">L</text><text y="358" x="91.56118143459916" text-anchor="middle" visibility="hidden" style="font-size: 13px;">Q</text><text y="358" x="94.51476793248945" text-anchor="middle" visibility="hidden" style="font-size: 13px;">I</text><text y="358" x="97.46835443037975" text-anchor="middle" visibility="hidden" style="font-size: 13px;">S</text><text y="358" x="100.42194092827005" text-anchor="middle" visibility="hidden" style="font-size: 13px;">Y</text><text y="358" x="103.37552742616033" text-anchor="middle" visibility="hidden" style="font-size: 13px;">F</text><text y="358" x="106.32911392405063" text-anchor="middle" visibility="hidden" style="font-size: 13px;">R</text><text y="358" x="109.28270042194093" text-anchor="middle" visibility="hidden" style="font-size: 13px;">D</text><text y="358" x="112.23628691983123" text-anchor="middle" visibility="hidden" style="font-size: 13px;">P</text><text y="358" x="115.18987341772151" text-anchor="middle" visibility="hidden" style="font-size: 13px;">Y</text><text y="358" x="118.14345991561181" text-anchor="middle" visibility="hidden" style="font-size: 13px;">H</text><text y="358" x="121.09704641350211" text-anchor="middle" visibility="hidden" style="font-size: 13px;">V</text><text y="358" x="124.05063291139241" text-anchor="middle" visibility="hidden" style="font-size: 13px;">W</text><text y="358" x="127.0042194092827" text-anchor="middle" visibility="hidden" style="font-size: 13px;">Y</text><text y="358" x="129.957805907173" text-anchor="middle" visibility="hidden" style="font-size: 13px;">Q</text><text y="358" x="132.9113924050633" text-anchor="middle" visibility="hidden" style="font-size: 13px;">G</text><text y="358" x="135.86497890295357" text-anchor="middle" visibility="hidden" style="font-size: 13px;">N</text><text y="358" x="138.81856540084388" text-anchor="middle" visibility="hidden" style="font-size: 13px;">A</text><text y="358" x="141.77215189873417" text-anchor="middle" visibility="hidden" style="font-size: 13px;">S</text><text y="358" x="144.72573839662448" text-anchor="middle" visibility="hidden" style="font-size: 13px;">L</text><text y="358" x="147.67932489451476" text-anchor="middle" visibility="hidden" style="font-size: 13px;">G</text><text y="358" x="150.63291139240508" text-anchor="middle" visibility="hidden" style="font-size: 13px;">G</text><text y="358" x="153.58649789029536" text-anchor="middle" visibility="hidden" style="font-size: 13px;">H</text><text y="358" x="156.54008438818565" text-anchor="middle" visibility="hidden" style="font-size: 13px;">L</text><text y="358" x="159.49367088607593" text-anchor="middle" visibility="hidden" style="font-size: 13px;">T</text><text y="358" x="162.44725738396625" text-anchor="middle" visibility="hidden" style="font-size: 13px;">H</text><text y="358" x="165.40084388185653" text-anchor="middle" visibility="hidden" style="font-size: 13px;">V</text><text y="358" x="168.35443037974684" text-anchor="middle" visibility="hidden" style="font-size: 13px;">L</text><text y="358" x="171.30801687763713" text-anchor="middle" visibility="hidden" style="font-size: 13px;">E</text><text y="358" x="174.26160337552744" text-anchor="middle" visibility="hidden" style="font-size: 13px;">G</text><text y="358" x="177.21518987341773" text-anchor="middle" visibility="hidden" style="font-size: 13px;">P</text><text y="358" x="180.16877637130804" text-anchor="middle" visibility="hidden" style="font-size: 13px;">D</text><text y="358" x="183.12236286919833" text-anchor="middle" visibility="hidden" style="font-size: 13px;">T</text><text y="358" x="186.07594936708858" text-anchor="middle" visibility="hidden" style="font-size: 13px;">N</text><text y="358" x="189.0295358649789" text-anchor="middle" visibility="hidden" style="font-size: 13px;">T</text><text y="358" x="191.98312236286918" text-anchor="middle" visibility="hidden" style="font-size: 13px;">T</text><text y="358" x="194.9367088607595" text-anchor="middle" visibility="hidden" style="font-size: 13px;">I</text><text y="358" x="197.89029535864978" text-anchor="middle" visibility="hidden" style="font-size: 13px;">I</text><text y="358" x="200.8438818565401" text-anchor="middle" visibility="hidden" style="font-size: 13px;">Q</text><text y="358" x="203.79746835443038" text-anchor="middle" visibility="hidden" style="font-size: 13px;">L</text><text y="358" x="206.75105485232066" text-anchor="middle" visibility="hidden" style="font-size: 13px;">Q</text><text y="358" x="209.70464135021098" text-anchor="middle" visibility="hidden" style="font-size: 13px;">P</text><text y="358" x="212.65822784810126" text-anchor="middle" visibility="hidden" style="font-size: 13px;">L</text><text y="358" x="215.61181434599158" text-anchor="middle" visibility="hidden" style="font-size: 13px;">Q</text><text y="358" x="218.56540084388186" text-anchor="middle" visibility="hidden" style="font-size: 13px;">E</text><text y="358" x="221.51898734177217" text-anchor="middle" visibility="hidden" style="font-size: 13px;">P</text><text y="358" x="224.47257383966246" text-anchor="middle" visibility="hidden" style="font-size: 13px;">E</text><text y="358" x="227.42616033755272" text-anchor="middle" visibility="hidden" style="font-size: 13px;">S</text><text y="358" x="230.37974683544303" text-anchor="middle" visibility="hidden" style="font-size: 13px;">W</text><text y="358" x="233.33333333333331" text-anchor="middle" visibility="hidden" style="font-size: 13px;">A</text><text y="358" x="236.28691983122363" text-anchor="middle" visibility="hidden" style="font-size: 13px;">R</text><text y="358" x="239.2405063291139" text-anchor="middle" visibility="hidden" style="font-size: 13px;">T</text><text y="358" x="242.19409282700423" text-anchor="middle" visibility="hidden" style="font-size: 13px;">Q</text><text y="358" x="245.1476793248945" text-anchor="middle" visibility="hidden" style="font-size: 13px;">S</text><text y="358" x="248.10126582278482" text-anchor="middle" visibility="hidden" style="font-size: 13px;">G</text><text y="358" x="251.0548523206751" text-anchor="middle" visibility="hidden" style="font-size: 13px;">L</text><text y="358" x="254.0084388185654" text-anchor="middle" visibility="hidden" style="font-size: 13px;">Q</text><text y="358" x="256.9620253164557" text-anchor="middle" visibility="hidden" style="font-size: 13px;">S</text><text y="358" x="259.915611814346" text-anchor="middle" visibility="hidden" style="font-size: 13px;">Y</text><text y="358" x="262.8691983122363" text-anchor="middle" visibility="hidden" style="font-size: 13px;">L</text><text y="358" x="265.8227848101266" text-anchor="middle" visibility="hidden" style="font-size: 13px;">L</text><text y="358" x="268.77637130801685" text-anchor="middle" visibility="hidden" style="font-size: 13px;">Q</text><text y="358" x="271.72995780590713" text-anchor="middle" visibility="hidden" style="font-size: 13px;">F</text><text y="358" x="274.6835443037975" text-anchor="middle" visibility="hidden" style="font-size: 13px;">H</text><text y="358" x="277.63713080168776" text-anchor="middle" visibility="hidden" style="font-size: 13px;">G</text><text y="358" x="280.59071729957805" text-anchor="middle" visibility="hidden" style="font-size: 13px;">L</text><text y="358" x="283.54430379746833" text-anchor="middle" visibility="hidden" style="font-size: 13px;">V</text><text y="358" x="286.4978902953587" text-anchor="middle" visibility="hidden" style="font-size: 13px;">R</text><text y="358" x="289.45147679324896" text-anchor="middle" visibility="hidden" style="font-size: 13px;">L</text><text y="358" x="292.40506329113924" text-anchor="middle" visibility="hidden" style="font-size: 13px;">V</text><text y="358" x="295.3586497890295" text-anchor="middle" visibility="hidden" style="font-size: 13px;">H</text><text y="358" x="298.3122362869198" text-anchor="middle" visibility="hidden" style="font-size: 13px;">Q</text><text y="358" x="301.26582278481015" text-anchor="middle" visibility="hidden" style="font-size: 13px;">E</text><text y="358" x="304.21940928270044" text-anchor="middle" visibility="hidden" style="font-size: 13px;">R</text><text y="358" x="307.1729957805907" text-anchor="middle" visibility="hidden" style="font-size: 13px;">T</text><text y="358" x="310.126582278481" text-anchor="middle" visibility="hidden" style="font-size: 13px;">L</text><text y="358" x="313.0801687763713" text-anchor="middle" visibility="hidden" style="font-size: 13px;">A</text><text y="358" x="316.0337552742616" text-anchor="middle" visibility="hidden" style="font-size: 13px;">F</text><text y="358" x="318.98734177215186" text-anchor="middle" visibility="hidden" style="font-size: 13px;">P</text><text y="358" x="321.9409282700422" text-anchor="middle" visibility="hidden" style="font-size: 13px;">L</text><text y="358" x="324.8945147679325" text-anchor="middle" visibility="hidden" style="font-size: 13px;">T</text><text y="358" x="327.8481012658228" text-anchor="middle" visibility="hidden" style="font-size: 13px;">I</text><text y="358" x="330.80168776371306" text-anchor="middle" visibility="hidden" style="font-size: 13px;">R</text><text y="358" x="333.7552742616034" text-anchor="middle" visibility="hidden" style="font-size: 13px;">C</text><text y="358" x="336.7088607594937" text-anchor="middle" visibility="hidden" style="font-size: 13px;">F</text><text y="358" x="339.662447257384" text-anchor="middle" visibility="hidden" style="font-size: 13px;">L</text><text y="358" x="342.61603375527426" text-anchor="middle" visibility="hidden" style="font-size: 13px;">G</text><text y="358" x="345.56962025316454" text-anchor="middle" visibility="hidden" style="font-size: 13px;">C</text><text y="358" x="348.5232067510549" text-anchor="middle" visibility="hidden" style="font-size: 13px;">E</text><text y="358" x="351.4767932489451" text-anchor="middle" visibility="hidden" style="font-size: 13px;">L</text><text y="358" x="354.43037974683546" text-anchor="middle" visibility="hidden" style="font-size: 13px;">P</text><text y="358" x="357.38396624472574" text-anchor="middle" visibility="hidden" style="font-size: 13px;">P</text><text y="358" x="360.3375527426161" text-anchor="middle" visibility="hidden" style="font-size: 13px;">E</text><text y="358" x="363.2911392405063" text-anchor="middle" visibility="hidden" style="font-size: 13px;">G</text><text y="358" x="366.24472573839665" text-anchor="middle" visibility="hidden" style="font-size: 13px;">S</text><text y="358" x="369.19831223628694" text-anchor="middle" visibility="hidden" style="font-size: 13px;">R</text><text y="358" x="372.15189873417717" text-anchor="middle" visibility="hidden" style="font-size: 13px;">A</text><text y="358" x="375.1054852320675" text-anchor="middle" visibility="hidden" style="font-size: 13px;">H</text><text y="358" x="378.0590717299578" text-anchor="middle" visibility="hidden" style="font-size: 13px;">V</text><text y="358" x="381.01265822784814" text-anchor="middle" visibility="hidden" style="font-size: 13px;">F</text><text y="358" x="383.96624472573836" text-anchor="middle" visibility="hidden" style="font-size: 13px;">F</text><text y="358" x="386.9198312236287" text-anchor="middle" visibility="hidden" style="font-size: 13px;">E</text><text y="358" x="389.873417721519" text-anchor="middle" visibility="hidden" style="font-size: 13px;">V</text><text y="358" x="392.82700421940933" text-anchor="middle" visibility="hidden" style="font-size: 13px;">A</text><text y="358" x="395.78059071729956" text-anchor="middle" visibility="hidden" style="font-size: 13px;">V</text><text y="358" x="398.7341772151899" text-anchor="middle" visibility="hidden" style="font-size: 13px;">N</text><text y="358" x="401.6877637130802" text-anchor="middle" visibility="hidden" style="font-size: 13px;">G</text><text y="358" x="404.6413502109705" text-anchor="middle" visibility="hidden" style="font-size: 13px;">S</text><text y="358" x="407.59493670886076" text-anchor="middle" visibility="hidden" style="font-size: 13px;">S</text><text y="358" x="410.5485232067511" text-anchor="middle" visibility="hidden" style="font-size: 13px;">F</text><text y="358" x="413.5021097046413" text-anchor="middle" visibility="hidden" style="font-size: 13px;">V</text><text y="358" x="416.4556962025316" text-anchor="middle" visibility="hidden" style="font-size: 13px;">S</text><text y="358" x="419.40928270042195" text-anchor="middle" visibility="hidden" style="font-size: 13px;">F</text><text y="358" x="422.3628691983122" text-anchor="middle" visibility="hidden" style="font-size: 13px;">R</text><text y="358" x="425.3164556962025" text-anchor="middle" visibility="hidden" style="font-size: 13px;">P</text><text y="358" x="428.2700421940928" text-anchor="middle" visibility="hidden" style="font-size: 13px;">E</text><text y="358" x="431.22362869198315" text-anchor="middle" visibility="hidden" style="font-size: 13px;">R</text><text y="358" x="434.1772151898734" text-anchor="middle" visibility="hidden" style="font-size: 13px;">A</text><text y="358" x="437.1308016877637" text-anchor="middle" visibility="hidden" style="font-size: 13px;">L</text><text y="358" x="440.084388185654" text-anchor="middle" visibility="hidden" style="font-size: 13px;">W</text><text y="358" x="443.03797468354435" text-anchor="middle" visibility="hidden" style="font-size: 13px;">Q</text><text y="358" x="445.9915611814346" text-anchor="middle" visibility="hidden" style="font-size: 13px;">A</text><text y="358" x="448.9451476793249" text-anchor="middle" visibility="hidden" style="font-size: 13px;">D</text><text y="358" x="451.8987341772152" text-anchor="middle" visibility="hidden" style="font-size: 13px;">T</text><text y="358" x="454.85232067510543" text-anchor="middle" visibility="hidden" style="font-size: 13px;">Q</text><text y="358" x="457.8059071729958" text-anchor="middle" visibility="hidden" style="font-size: 13px;">V</text><text y="358" x="460.75949367088606" text-anchor="middle" visibility="hidden" style="font-size: 13px;">T</text><text y="358" x="463.7130801687764" text-anchor="middle" visibility="hidden" style="font-size: 13px;">S</text><text y="358" x="466.66666666666663" text-anchor="middle" visibility="hidden" style="font-size: 13px;">G</text><text y="358" x="469.62025316455697" text-anchor="middle" visibility="hidden" style="font-size: 13px;">V</text><text y="358" x="472.57383966244726" text-anchor="middle" visibility="hidden" style="font-size: 13px;">V</text><text y="358" x="475.5274261603376" text-anchor="middle" visibility="hidden" style="font-size: 13px;">T</text><text y="358" x="478.4810126582278" text-anchor="middle" visibility="hidden" style="font-size: 13px;">F</text><text y="358" x="481.43459915611817" text-anchor="middle" visibility="hidden" style="font-size: 13px;">T</text><text y="358" x="484.38818565400845" text-anchor="middle" visibility="hidden" style="font-size: 13px;">L</text><text y="358" x="487.3417721518988" text-anchor="middle" visibility="hidden" style="font-size: 13px;">Q</text><text y="358" x="490.295358649789" text-anchor="middle" visibility="hidden" style="font-size: 13px;">Q</text><text y="358" x="493.24894514767936" text-anchor="middle" visibility="hidden" style="font-size: 13px;">L</text><text y="358" x="496.20253164556965" text-anchor="middle" visibility="hidden" style="font-size: 13px;">N</text><text y="358" x="499.1561181434599" text-anchor="middle" visibility="hidden" style="font-size: 13px;">A</text><text y="358" x="502.1097046413502" text-anchor="middle" visibility="hidden" style="font-size: 13px;">Y</text><text y="358" x="505.0632911392405" text-anchor="middle" visibility="hidden" style="font-size: 13px;">N</text><text y="358" x="508.0168776371308" text-anchor="middle" visibility="hidden" style="font-size: 13px;">R</text><text y="358" x="510.9704641350211" text-anchor="middle" visibility="hidden" style="font-size: 13px;">T</text><text y="358" x="513.9240506329114" text-anchor="middle" visibility="hidden" style="font-size: 13px;">R</text><text y="358" x="516.8776371308016" text-anchor="middle" visibility="hidden" style="font-size: 13px;">Y</text><text y="358" x="519.831223628692" text-anchor="middle" visibility="hidden" style="font-size: 13px;">E</text><text y="358" x="522.7848101265822" text-anchor="middle" visibility="hidden" style="font-size: 13px;">L</text><text y="358" x="525.7383966244726" text-anchor="middle" visibility="hidden" style="font-size: 13px;">R</text><text y="358" x="528.6919831223629" text-anchor="middle" visibility="hidden" style="font-size: 13px;">E</text><text y="358" x="531.6455696202532" text-anchor="middle" visibility="hidden" style="font-size: 13px;">F</text><text y="358" x="534.5991561181435" text-anchor="middle" visibility="hidden" style="font-size: 13px;">L</text><text y="358" x="537.5527426160337" text-anchor="middle" visibility="hidden" style="font-size: 13px;">E</text><text y="358" x="540.506329113924" text-anchor="middle" visibility="hidden" style="font-size: 13px;">D</text><text y="358" x="543.4599156118143" text-anchor="middle" visibility="hidden" style="font-size: 13px;">T</text><text y="358" x="546.4135021097046" text-anchor="middle" visibility="hidden" style="font-size: 13px;">C</text><text y="358" x="549.367088607595" text-anchor="middle" visibility="hidden" style="font-size: 13px;">V</text><text y="358" x="552.3206751054853" text-anchor="middle" visibility="hidden" style="font-size: 13px;">Q</text><text y="358" x="555.2742616033755" text-anchor="middle" visibility="hidden" style="font-size: 13px;">Y</text><text y="358" x="558.2278481012659" text-anchor="middle" visibility="hidden" style="font-size: 13px;">V</text><text y="358" x="561.1814345991561" text-anchor="middle" visibility="hidden" style="font-size: 13px;">Q</text><text y="358" x="564.1350210970464" text-anchor="middle" visibility="hidden" style="font-size: 13px;">K</text><text y="358" x="567.0886075949367" text-anchor="middle" visibility="hidden" style="font-size: 13px;">H</text><text y="358" x="570.042194092827" text-anchor="middle" visibility="hidden" style="font-size: 13px;">I</text><text y="358" x="572.9957805907173" text-anchor="middle" visibility="hidden" style="font-size: 13px;">S</text><text y="358" x="575.9493670886077" text-anchor="middle" visibility="hidden" style="font-size: 13px;">A</text><text y="358" x="578.9029535864979" text-anchor="middle" visibility="hidden" style="font-size: 13px;">E</text><text y="358" x="581.8565400843881" text-anchor="middle" visibility="hidden" style="font-size: 13px;">N</text><text y="358" x="584.8101265822785" text-anchor="middle" visibility="hidden" style="font-size: 13px;">T</text><text y="358" x="587.7637130801687" text-anchor="middle" visibility="hidden" style="font-size: 13px;">K</text><text y="358" x="590.717299578059" text-anchor="middle" visibility="hidden" style="font-size: 13px;">G</text><text y="358" x="593.6708860759494" text-anchor="middle" visibility="hidden" style="font-size: 13px;">S</text><text y="358" x="596.6244725738396" text-anchor="middle" visibility="hidden" style="font-size: 13px;">Q</text><text y="358" x="599.57805907173" text-anchor="middle" visibility="hidden" style="font-size: 13px;">T</text><text y="358" x="602.5316455696203" text-anchor="middle" visibility="hidden" style="font-size: 13px;">S</text><text y="358" x="605.4852320675105" text-anchor="middle" visibility="hidden" style="font-size: 13px;">R</text><text y="358" x="608.4388185654009" text-anchor="middle" visibility="hidden" style="font-size: 13px;">S</text><text y="358" x="611.3924050632911" text-anchor="middle" visibility="hidden" style="font-size: 13px;">Y</text><text y="358" x="614.3459915611814" text-anchor="middle" visibility="hidden" style="font-size: 13px;">T</text><text y="358" x="617.2995780590717" text-anchor="middle" visibility="hidden" style="font-size: 13px;">S</text><text y="358" x="620.253164556962" text-anchor="middle" visibility="hidden" style="font-size: 13px;">L</text><text y="358" x="623.2067510548524" text-anchor="middle" visibility="hidden" style="font-size: 13px;">V</text><text y="358" x="626.1603375527426" text-anchor="middle" visibility="hidden" style="font-size: 13px;">L</text><text y="358" x="629.1139240506329" text-anchor="middle" visibility="hidden" style="font-size: 13px;">G</text><text y="358" x="632.0675105485232" text-anchor="middle" visibility="hidden" style="font-size: 13px;">V</text><text y="358" x="635.0210970464135" text-anchor="middle" visibility="hidden" style="font-size: 13px;">L</text><text y="358" x="637.9746835443037" text-anchor="middle" visibility="hidden" style="font-size: 13px;">V</text><text y="358" x="640.9282700421941" text-anchor="middle" visibility="hidden" style="font-size: 13px;">G</text><text y="358" x="643.8818565400844" text-anchor="middle" visibility="hidden" style="font-size: 13px;">S</text><text y="358" x="646.8354430379748" text-anchor="middle" visibility="hidden" style="font-size: 13px;">F</text><text y="358" x="649.789029535865" text-anchor="middle" visibility="hidden" style="font-size: 13px;">I</text><text y="358" x="652.7426160337553" text-anchor="middle" visibility="hidden" style="font-size: 13px;">I</text><text y="358" x="655.6962025316456" text-anchor="middle" visibility="hidden" style="font-size: 13px;">A</text><text y="358" x="658.6497890295359" text-anchor="middle" visibility="hidden" style="font-size: 13px;">G</text><text y="358" x="661.6033755274261" text-anchor="middle" visibility="hidden" style="font-size: 13px;">V</text><text y="358" x="664.5569620253165" text-anchor="middle" visibility="hidden" style="font-size: 13px;">A</text><text y="358" x="667.5105485232068" text-anchor="middle" visibility="hidden" style="font-size: 13px;">V</text><text y="358" x="670.464135021097" text-anchor="middle" visibility="hidden" style="font-size: 13px;">G</text><text y="358" x="673.4177215189874" text-anchor="middle" visibility="hidden" style="font-size: 13px;">I</text><text y="358" x="676.3713080168776" text-anchor="middle" visibility="hidden" style="font-size: 13px;">F</text><text y="358" x="679.324894514768" text-anchor="middle" visibility="hidden" style="font-size: 13px;">L</text><text y="358" x="682.2784810126582" text-anchor="middle" visibility="hidden" style="font-size: 13px;">C</text><text y="358" x="685.2320675105485" text-anchor="middle" visibility="hidden" style="font-size: 13px;">T</text><text y="358" x="688.1856540084389" text-anchor="middle" visibility="hidden" style="font-size: 13px;">G</text><text y="358" x="691.1392405063291" text-anchor="middle" visibility="hidden" style="font-size: 13px;">G</text><text y="358" x="694.0928270042194" text-anchor="middle" visibility="hidden" style="font-size: 13px;">R</text><text y="358" x="697.0464135021098" text-anchor="middle" visibility="hidden" style="font-size: 13px;">R</text><text y="358" x="700" text-anchor="middle" visibility="hidden" style="font-size: 13px;">C</text></g></g></svg><g class="xAxis" transform="translate(0,360)" fill="none" font-size="10" font-family="sans-serif" text-anchor="middle"><path class="domain" stroke="#000" d="M0.5,6V0.5H700.5V6"></path><g class="tick" opacity="1" transform="translate(56.618143459915615,0)"><line stroke="#000" y2="6"></line><text fill="#000" y="9" dy="0.71em">20</text></g><g class="tick" opacity="1" transform="translate(115.68987341772151,0)"><line stroke="#000" y2="6"></line><text fill="#000" y="9" dy="0.71em">40</text></g><g class="tick" opacity="1" transform="translate(174.76160337552744,0)"><line stroke="#000" y2="6"></line><text fill="#000" y="9" dy="0.71em">60</text></g><g class="tick" opacity="1" transform="translate(233.83333333333331,0)"><line stroke="#000" y2="6"></line><text fill="#000" y="9" dy="0.71em">80</text></g><g class="tick" opacity="1" transform="translate(292.90506329113924,0)"><line stroke="#000" y2="6"></line><text fill="#000" y="9" dy="0.71em">100</text></g><g class="tick" opacity="1" transform="translate(351.9767932489451,0)"><line stroke="#000" y2="6"></line><text fill="#000" y="9" dy="0.71em">120</text></g><g class="tick" opacity="1" transform="translate(411.0485232067511,0)"><line stroke="#000" y2="6"></line><text fill="#000" y="9" dy="0.71em">140</text></g><g class="tick" opacity="1" transform="translate(470.12025316455697,0)"><line stroke="#000" y2="6"></line><text fill="#000" y="9" dy="0.71em">160</text></g><g class="tick" opacity="1" transform="translate(529.1919831223629,0)"><line stroke="#000" y2="6"></line><text fill="#000" y="9" dy="0.71em">180</text></g><g class="tick" opacity="1" transform="translate(588.2637130801687,0)"><line stroke="#000" y2="6"></line><text fill="#000" y="9" dy="0.71em">200</text></g><g class="tick" opacity="1" transform="translate(647.3354430379748,0)"><line stroke="#000" y2="6"></line><text fill="#000" y="9" dy="0.71em">220</text></g></g><text class="x label" text-anchor="end" x="700" y="390" style="font-size: 13px; font-family: Arial;">Residue number</text><g class="yAxis" fill="none" font-size="10" font-family="sans-serif" text-anchor="end"><path class="domain" stroke="#000" d="M-6,360.5H0.5V0.5H-6"></path><g class="tick" opacity="1" transform="translate(0,357.52479338842977)"><line stroke="#000" x2="-6"></line><text fill="#000" x="-9" dy="0.32em"></text></g><g class="tick" opacity="1" transform="translate(0,327.77272727272725)"><line stroke="#000" x2="-6"></line><text fill="#000" x="-9" dy="0.32em">0</text></g><g class="tick" opacity="1" transform="translate(0,298.0206611570248)"><line stroke="#000" x2="-6"></line><text fill="#000" x="-9" dy="0.32em">0.1</text></g><g class="tick" opacity="1" transform="translate(0,268.2685950413223)"><line stroke="#000" x2="-6"></line><text fill="#000" x="-9" dy="0.32em">0.2</text></g><g class="tick" opacity="1" transform="translate(0,238.51652892561984)"><line stroke="#000" x2="-6"></line><text fill="#000" x="-9" dy="0.32em">0.3</text></g><g class="tick" opacity="1" transform="translate(0,208.76446280991738)"><line stroke="#000" x2="-6"></line><text fill="#000" x="-9" dy="0.32em">0.4</text></g><g class="tick" opacity="1" transform="translate(0,179.0123966942149)"><line stroke="#000" x2="-6"></line><text fill="#000" x="-9" dy="0.32em">0.5</text></g><g class="tick" opacity="1" transform="translate(0,149.26033057851242)"><line stroke="#000" x2="-6"></line><text fill="#000" x="-9" dy="0.32em">0.6</text></g><g class="tick" opacity="1" transform="translate(0,119.50826446280996)"><line stroke="#000" x2="-6"></line><text fill="#000" x="-9" dy="0.32em">0.7</text></g><g class="tick" opacity="1" transform="translate(0,89.75619834710744)"><line stroke="#000" x2="-6"></line><text fill="#000" x="-9" dy="0.32em">0.8</text></g><g class="tick" opacity="1" transform="translate(0,60.00413223140498)"><line stroke="#000" x2="-6"></line><text fill="#000" x="-9" dy="0.32em">0.9</text></g><g class="tick" opacity="1" transform="translate(0,30.25206611570252)"><line stroke="#000" x2="-6"></line><text fill="#000" x="-9" dy="0.32em">1</text></g><g class="tick" opacity="1" transform="translate(0,0.5)"><line stroke="#000" x2="-6"></line><text fill="#000" x="-9" dy="0.32em">1.1</text></g></g><text class="y label" text-anchor="middle" y="-50" x="-180" dy="0.8em" transform="rotate(-90)" style="font-size: 13px; font-family: Arial;">Total number of references</text><g class="axisRed" fill="none" font-size="10" font-family="sans-serif" text-anchor="start" visibility="hidden" transform="translate(700, 0)"><path class="domain" stroke="#000" d="M6,360.5H0.5V0.5H6"></path><g class="tick" opacity="1" transform="translate(0,360.5)"><line stroke="#000" x2="6"></line><text fill="#000" x="9" dy="0.32em">0</text></g><text text-anchor="start" dx="5.2em" dy="-2.6em" transform="rotate(90)" visibility="hidden" style="font-size: 12px; font-family: Arial; fill: #d7301f;">No recurrent (&gt;2) missense mutations!</text></g><g class="axisPurple" fill="none" font-size="10" font-family="sans-serif" text-anchor="start" visibility="hidden"><path class="domain" stroke="#000" d="M6,360.5H0.5V0.5H6"></path><g class="tick" opacity="1" transform="translate(0,357.52479338842977)"><line stroke="#000" x2="6"></line><text fill="#000" x="9" dy="0.32em"></text></g><g class="tick" opacity="1" transform="translate(0,327.77272727272725)"><line stroke="#000" x2="6"></line><text fill="#000" x="9" dy="0.32em">0</text></g><g class="tick" opacity="1" transform="translate(0,298.0206611570248)"><line stroke="#000" x2="6"></line><text fill="#000" x="9" dy="0.32em">0.1</text></g><g class="tick" opacity="1" transform="translate(0,268.2685950413223)"><line stroke="#000" x2="6"></line><text fill="#000" x="9" dy="0.32em">0.2</text></g><g class="tick" opacity="1" transform="translate(0,238.51652892561984)"><line stroke="#000" x2="6"></line><text fill="#000" x="9" dy="0.32em">0.3</text></g><g class="tick" opacity="1" transform="translate(0,208.76446280991738)"><line stroke="#000" x2="6"></line><text fill="#000" x="9" dy="0.32em">0.4</text></g><g class="tick" opacity="1" transform="translate(0,179.0123966942149)"><line stroke="#000" x2="6"></line><text fill="#000" x="9" dy="0.32em">0.5</text></g><g class="tick" opacity="1" transform="translate(0,149.26033057851242)"><line stroke="#000" x2="6"></line><text fill="#000" x="9" dy="0.32em">0.6</text></g><g class="tick" opacity="1" transform="translate(0,119.50826446280996)"><line stroke="#000" x2="6"></line><text fill="#000" x="9" dy="0.32em">0.7</text></g><g class="tick" opacity="1" transform="translate(0,89.75619834710744)"><line stroke="#000" x2="6"></line><text fill="#000" x="9" dy="0.32em">0.8</text></g><g class="tick" opacity="1" transform="translate(0,60.00413223140498)"><line stroke="#000" x2="6"></line><text fill="#000" x="9" dy="0.32em">0.9</text></g><g class="tick" opacity="1" transform="translate(0,30.25206611570252)"><line stroke="#000" x2="6"></line><text fill="#000" x="9" dy="0.32em">1</text></g><g class="tick" opacity="1" transform="translate(0,0.5)"><line stroke="#000" x2="6"></line><text fill="#000" x="9" dy="0.32em">1.1</text></g><text text-anchor="start" x="10" y="10" visibility="hidden" style="font-size: 12px; font-family: Arial; fill: #807dba;">No disease causing germline SNPs known!</text></g><circle cx="636" cy="15" r="10" class="compassNav" style="fill: #ffffff; stroke: #666666; stroke-width: 1px;"></circle><path d="M440.935 12.574l3.966 82.766C399.416 41.904 331.674 8 256 8 134.813 8 33.933 94.924 12.296 209.824 10.908 217.193 16.604 224 24.103 224h49.084c5.57 0 10.377-3.842 11.676-9.259C103.407 137.408 172.931 80 256 80c60.893 0 114.512 30.856 146.104 77.801l-101.53-4.865c-6.845-.328-12.574 5.133-12.574 11.986v47.411c0 6.627 5.373 12 12 12h200.333c6.627 0 12-5.373 12-12V12c0-6.627-5.373-12-12-12h-47.411c-6.853 0-12.315 5.729-11.987 12.574zM256 432c-60.895 0-114.517-30.858-146.109-77.805l101.868 4.871c6.845.327 12.573-5.134 12.573-11.986v-47.412c0-6.627-5.373-12-12-12H12c-6.627 0-12 5.373-12 12V500c0 6.627 5.373 12 12 12h47.385c6.863 0 12.328-5.745 11.985-12.599l-4.129-82.575C112.725 470.166 180.405 504 256 504c121.187 0 222.067-86.924 243.704-201.824 1.388-7.369-4.308-14.176-11.807-14.176h-49.084c-5.57 0-10.377 3.842-11.676 9.259C408.593 374.592 339.069 432 256 432z" class="compassNav" transform="translate(631, 10) scale(0.02)" style="fill: #666666; stroke: #666666; stroke-width: 1px;"></path><circle cx="658" cy="15" r="10" class="compassNav" style="fill: #ffffff; stroke: #666666; stroke-width: 1px;"></circle><line class="compassNav" stroke-width="2" stroke="#666666" x1="654" y1="15" x2="662" y2="15"></line><line class="compassNav" stroke-width="2" stroke="#666666" x1="658" y1="11" x2="658" y2="19"></line><circle cx="614" cy="15" r="10" class="compassNav" style="fill: #ffffff; stroke: #666666; stroke-width: 1px;"></circle><line class="compassNav" stroke-width="2" stroke="#666666" x1="610" y1="15" x2="618" y2="15"></line><path d="M582 14 l20 -12 a100,40 0 0,0 0,24z" class="compassNav" style="fill: #ffffff; stroke: #666666; stroke-width: 1px;"></path><path d="M690 14 l-20 -12 a100,40 0 0,1 0,24z" class="compassNav" style="fill: #ffffff; stroke: #666666; stroke-width: 1px;"></path><path d="M216 0h80c13.3 0 24 10.7 24 24v168h87.7c17.8 0 26.7 21.5 14.1 34.1L269.7 378.3c-7.5 7.5-19.8 7.5-27.3 0L90.1 226.1c-12.6-12.6-3.7-34.1 14.1-34.1H192V24c0-13.3 10.7-24 24-24zm296 376v112c0 13.3-10.7 24-24 24H24c-13.3 0-24-10.7-24-24V376c0-13.3 10.7-24 24-24h146.7l49 49c20.1 20.1 52.5 20.1 72.6 0l49-49H488c13.3 0 24 10.7 24 24zm-124 88c0-11-9-20-20-20s-20 9-20 20 9 20 20 20 20-9 20-20zm64 0c0-11-9-20-20-20s-20 9-20 20 9 20 20 20 20-9 20-20z" class="compassNav" transform="translate(552,0) scale(0.05)" style="fill: #336699; stroke: #336699; stroke-width: 1px; cursor: pointer;"></path></g></svg>