<svg width="800" height="400" style="background-color: white;"><g transform="translate(50,0)"><svg width="700" height="360"><g style="-webkit-tap-highlight-color: rgba(0, 0, 0, 0);"><rect width="700" height="360" style="fill: #ffffff;"></rect><g id="lines"><line class="line" stroke-width="1" stroke="#d7301f" x1="-220.2492211838006" y1="333" x2="-220.2492211838006" y2="360" visibility="hidden" style="stroke-dasharray: 3px, 3px;"></line></g><g><rect x="-225.2492211838006" y="355" width="10" height="10" visibility="hidden" style="fill: #ffffff; stroke: #d7301f;"></rect></g><g id="lines"><line class="line" stroke-width="1" stroke="#6a51a3" x1="-220.2492211838006" y1="333" x2="-220.2492211838006" y2="327.27272727272725" visibility="hidden" style="stroke-dasharray: 3px, 3px;"></line></g><g><rect x="-225.2492211838006" y="322.27272727272725" width="10" height="10" visibility="hidden" style="fill: #ffffff; stroke: #6a51a3;"></rect></g><g id="lines"><line class="line" stroke-width="1" stroke="#666666" x1="89.40809968847351" y1="333" x2="89.40809968847351" y2="178.5123966942149"></line><line class="line" stroke-width="1" stroke="#666666" x1="113.39563862928348" y1="333" x2="113.39563862928348" y2="178.5123966942149"></line><line class="line" stroke-width="1" stroke="#666666" x1="117.75700934579439" y1="333" x2="117.75700934579439" y2="178.5123966942149"></line><line class="line" stroke-width="1" stroke="#666666" x1="143.92523364485982" y1="333" x2="143.92523364485982" y2="178.5123966942149"></line><line class="line" stroke-width="1" stroke="#666666" x1="163.55140186915887" y1="333" x2="163.55140186915887" y2="178.5123966942149"></line><line class="line" stroke-width="1" stroke="#666666" x1="316.1993769470405" y1="333" x2="316.1993769470405" y2="178.5123966942149"></line><line class="line" stroke-width="1" stroke="#666666" x1="608.411214953271" y1="333" x2="608.411214953271" y2="29.75206611570252"></line><line class="line" stroke-width="1" stroke="#666666" x1="610.5919003115265" y1="333" x2="610.5919003115265" y2="178.5123966942149"></line><line class="line" stroke-width="1" stroke="#666666" x1="647.6635514018692" y1="333" x2="647.6635514018692" y2="178.5123966942149"></line></g><g id="circles"><circle r="4" cx="89.40809968847351" cy="178.5123966942149" style="fill: #4393c3; stroke: #666666; stroke-width: 1px;"></circle><circle r="4" cx="113.39563862928348" cy="178.5123966942149" style="fill: #666666; stroke: #666666; stroke-width: 1px;"></circle><circle r="4" cx="117.75700934579439" cy="178.5123966942149" style="fill: #4393c3; stroke: #666666; stroke-width: 1px;"></circle><circle r="4" cx="143.92523364485982" cy="178.5123966942149" style="fill: #4393c3; stroke: #666666; stroke-width: 1px;"></circle><circle r="4" cx="163.55140186915887" cy="178.5123966942149" style="fill: #4393c3; stroke: #666666; stroke-width: 1px;"></circle><circle r="4" cx="316.1993769470405" cy="178.5123966942149" style="fill: #4393c3; stroke: #666666; stroke-width: 1px;"></circle><circle r="4" cx="608.411214953271" cy="29.75206611570252" style="fill: #4393c3; stroke: #666666; stroke-width: 1px;"></circle><circle r="4" cx="610.5919003115265" cy="178.5123966942149" style="fill: #bf812d; stroke: #666666; stroke-width: 1px;"></circle><circle r="4" cx="647.6635514018692" cy="178.5123966942149" style="fill: #666666; stroke: #666666; stroke-width: 1px;"></circle></g><g><rect x="0" y="333" width="700" height="12" style="fill: #ffffff; stroke-width: 1px; stroke: #666666;"></rect><rect x="87.22741433021807" y="333" width="191.90031152647973" height="12" style="fill: #aec7e8; stroke-width: 1px; stroke: #666666;"></rect><rect x="519.0031152647975" y="333" width="43.61370716510896" height="12" style="fill: #ffbb78; stroke-width: 1px; stroke: #666666;"></rect></g><g><a target="_blank" xlink:href="http://pfam.xfam.org/family/"><text y="343" x="350" text-anchor="middle" style="color: rgb(102, 102, 102); font-weight: normal; font-size: 12px; font-family: Arial; cursor: pointer;"></text></a><a target="_blank" xlink:href="http://pfam.xfam.org/family/Xlink"><text y="343" x="183.17757009345792" text-anchor="middle" style="color: rgb(102, 102, 102); font-weight: normal; font-size: 12px; font-family: Arial; cursor: pointer;">Xlink</text></a><a target="_blank" xlink:href="http://pfam.xfam.org/family/TM"><text y="343" x="540.809968847352" text-anchor="middle" style="color: rgb(102, 102, 102); font-weight: normal; font-size: 12px; font-family: Arial; cursor: pointer;">TM</text></a></g><g><text y="358" x="0" text-anchor="middle" visibility="hidden" style="font-size: 13px;">M</text><text y="358" x="2.1806853582554515" text-anchor="middle" visibility="hidden" style="font-size: 13px;">A</text><text y="358" x="4.361370716510903" text-anchor="middle" visibility="hidden" style="font-size: 13px;">R</text><text y="358" x="6.5420560747663545" text-anchor="middle" visibility="hidden" style="font-size: 13px;">C</text><text y="358" x="8.722741433021806" text-anchor="middle" visibility="hidden" style="font-size: 13px;">F</text><text y="358" x="10.903426791277258" text-anchor="middle" visibility="hidden" style="font-size: 13px;">S</text><text y="358" x="13.084112149532709" text-anchor="middle" visibility="hidden" style="font-size: 13px;">L</text><text y="358" x="15.264797507788161" text-anchor="middle" visibility="hidden" style="font-size: 13px;">V</text><text y="358" x="17.445482866043612" text-anchor="middle" visibility="hidden" style="font-size: 13px;">L</text><text y="358" x="19.626168224299064" text-anchor="middle" visibility="hidden" style="font-size: 13px;">L</text><text y="358" x="21.806853582554517" text-anchor="middle" visibility="hidden" style="font-size: 13px;">L</text><text y="358" x="23.987538940809966" text-anchor="middle" visibility="hidden" style="font-size: 13px;">T</text><text y="358" x="26.168224299065418" text-anchor="middle" visibility="hidden" style="font-size: 13px;">S</text><text y="358" x="28.34890965732087" text-anchor="middle" visibility="hidden" style="font-size: 13px;">I</text><text y="358" x="30.529595015576323" text-anchor="middle" visibility="hidden" style="font-size: 13px;">W</text><text y="358" x="32.71028037383177" text-anchor="middle" visibility="hidden" style="font-size: 13px;">T</text><text y="358" x="34.890965732087224" text-anchor="middle" visibility="hidden" style="font-size: 13px;">T</text><text y="358" x="37.07165109034268" text-anchor="middle" visibility="hidden" style="font-size: 13px;">R</text><text y="358" x="39.25233644859813" text-anchor="middle" visibility="hidden" style="font-size: 13px;">L</text><text y="358" x="41.43302180685358" text-anchor="middle" visibility="hidden" style="font-size: 13px;">L</text><text y="358" x="43.613707165109034" text-anchor="middle" visibility="hidden" style="font-size: 13px;">V</text><text y="358" x="45.79439252336448" text-anchor="middle" visibility="hidden" style="font-size: 13px;">Q</text><text y="358" x="47.97507788161993" text-anchor="middle" visibility="hidden" style="font-size: 13px;">G</text><text y="358" x="50.155763239875384" text-anchor="middle" visibility="hidden" style="font-size: 13px;">S</text><text y="358" x="52.336448598130836" text-anchor="middle" visibility="hidden" style="font-size: 13px;">L</text><text y="358" x="54.51713395638629" text-anchor="middle" visibility="hidden" style="font-size: 13px;">R</text><text y="358" x="56.69781931464174" text-anchor="middle" visibility="hidden" style="font-size: 13px;">A</text><text y="358" x="58.87850467289719" text-anchor="middle" visibility="hidden" style="font-size: 13px;">E</text><text y="358" x="61.059190031152646" text-anchor="middle" visibility="hidden" style="font-size: 13px;">E</text><text y="358" x="63.2398753894081" text-anchor="middle" visibility="hidden" style="font-size: 13px;">L</text><text y="358" x="65.42056074766354" text-anchor="middle" visibility="hidden" style="font-size: 13px;">S</text><text y="358" x="67.601246105919" text-anchor="middle" visibility="hidden" style="font-size: 13px;">I</text><text y="358" x="69.78193146417445" text-anchor="middle" visibility="hidden" style="font-size: 13px;">Q</text><text y="358" x="71.96261682242991" text-anchor="middle" visibility="hidden" style="font-size: 13px;">V</text><text y="358" x="74.14330218068535" text-anchor="middle" visibility="hidden" style="font-size: 13px;">S</text><text y="358" x="76.32398753894081" text-anchor="middle" visibility="hidden" style="font-size: 13px;">C</text><text y="358" x="78.50467289719626" text-anchor="middle" visibility="hidden" style="font-size: 13px;">R</text><text y="358" x="80.68535825545172" text-anchor="middle" visibility="hidden" style="font-size: 13px;">I</text><text y="358" x="82.86604361370716" text-anchor="middle" visibility="hidden" style="font-size: 13px;">M</text><text y="358" x="85.04672897196262" text-anchor="middle" visibility="hidden" style="font-size: 13px;">G</text><text y="358" x="87.22741433021807" text-anchor="middle" visibility="hidden" style="font-size: 13px;">I</text><text y="358" x="89.40809968847351" text-anchor="middle" visibility="hidden" style="font-size: 13px;">T</text><text y="358" x="91.58878504672896" text-anchor="middle" visibility="hidden" style="font-size: 13px;">L</text><text y="358" x="93.76947040498442" text-anchor="middle" visibility="hidden" style="font-size: 13px;">V</text><text y="358" x="95.95015576323986" text-anchor="middle" visibility="hidden" style="font-size: 13px;">S</text><text y="358" x="98.13084112149532" text-anchor="middle" visibility="hidden" style="font-size: 13px;">K</text><text y="358" x="100.31152647975077" text-anchor="middle" visibility="hidden" style="font-size: 13px;">K</text><text y="358" x="102.49221183800623" text-anchor="middle" visibility="hidden" style="font-size: 13px;">A</text><text y="358" x="104.67289719626167" text-anchor="middle" visibility="hidden" style="font-size: 13px;">N</text><text y="358" x="106.85358255451713" text-anchor="middle" visibility="hidden" style="font-size: 13px;">Q</text><text y="358" x="109.03426791277258" text-anchor="middle" visibility="hidden" style="font-size: 13px;">Q</text><text y="358" x="111.21495327102804" text-anchor="middle" visibility="hidden" style="font-size: 13px;">L</text><text y="358" x="113.39563862928348" text-anchor="middle" visibility="hidden" style="font-size: 13px;">N</text><text y="358" x="115.57632398753893" text-anchor="middle" visibility="hidden" style="font-size: 13px;">F</text><text y="358" x="117.75700934579439" text-anchor="middle" visibility="hidden" style="font-size: 13px;">T</text><text y="358" x="119.93769470404983" text-anchor="middle" visibility="hidden" style="font-size: 13px;">E</text><text y="358" x="122.11838006230529" text-anchor="middle" visibility="hidden" style="font-size: 13px;">A</text><text y="358" x="124.29906542056074" text-anchor="middle" visibility="hidden" style="font-size: 13px;">K</text><text y="358" x="126.4797507788162" text-anchor="middle" visibility="hidden" style="font-size: 13px;">E</text><text y="358" x="128.66043613707166" text-anchor="middle" visibility="hidden" style="font-size: 13px;">A</text><text y="358" x="130.8411214953271" text-anchor="middle" visibility="hidden" style="font-size: 13px;">C</text><text y="358" x="133.02180685358255" text-anchor="middle" visibility="hidden" style="font-size: 13px;">R</text><text y="358" x="135.202492211838" text-anchor="middle" visibility="hidden" style="font-size: 13px;">L</text><text y="358" x="137.38317757009347" text-anchor="middle" visibility="hidden" style="font-size: 13px;">L</text><text y="358" x="139.5638629283489" text-anchor="middle" visibility="hidden" style="font-size: 13px;">G</text><text y="358" x="141.74454828660436" text-anchor="middle" visibility="hidden" style="font-size: 13px;">L</text><text y="358" x="143.92523364485982" text-anchor="middle" visibility="hidden" style="font-size: 13px;">S</text><text y="358" x="146.10591900311528" text-anchor="middle" visibility="hidden" style="font-size: 13px;">L</text><text y="358" x="148.2866043613707" text-anchor="middle" visibility="hidden" style="font-size: 13px;">A</text><text y="358" x="150.46728971962617" text-anchor="middle" visibility="hidden" style="font-size: 13px;">G</text><text y="358" x="152.64797507788163" text-anchor="middle" visibility="hidden" style="font-size: 13px;">K</text><text y="358" x="154.82866043613706" text-anchor="middle" visibility="hidden" style="font-size: 13px;">D</text><text y="358" x="157.00934579439252" text-anchor="middle" visibility="hidden" style="font-size: 13px;">Q</text><text y="358" x="159.19003115264798" text-anchor="middle" visibility="hidden" style="font-size: 13px;">V</text><text y="358" x="161.37071651090343" text-anchor="middle" visibility="hidden" style="font-size: 13px;">E</text><text y="358" x="163.55140186915887" text-anchor="middle" visibility="hidden" style="font-size: 13px;">T</text><text y="358" x="165.73208722741433" text-anchor="middle" visibility="hidden" style="font-size: 13px;">A</text><text y="358" x="167.91277258566979" text-anchor="middle" visibility="hidden" style="font-size: 13px;">L</text><text y="358" x="170.09345794392524" text-anchor="middle" visibility="hidden" style="font-size: 13px;">K</text><text y="358" x="172.27414330218068" text-anchor="middle" visibility="hidden" style="font-size: 13px;">A</text><text y="358" x="174.45482866043614" text-anchor="middle" visibility="hidden" style="font-size: 13px;">S</text><text y="358" x="176.63551401869157" text-anchor="middle" visibility="hidden" style="font-size: 13px;">F</text><text y="358" x="178.81619937694703" text-anchor="middle" visibility="hidden" style="font-size: 13px;">E</text><text y="358" x="180.99688473520249" text-anchor="middle" visibility="hidden" style="font-size: 13px;">T</text><text y="358" x="183.17757009345792" text-anchor="middle" visibility="hidden" style="font-size: 13px;">C</text><text y="358" x="185.35825545171338" text-anchor="middle" visibility="hidden" style="font-size: 13px;">S</text><text y="358" x="187.53894080996884" text-anchor="middle" visibility="hidden" style="font-size: 13px;">Y</text><text y="358" x="189.7196261682243" text-anchor="middle" visibility="hidden" style="font-size: 13px;">G</text><text y="358" x="191.90031152647973" text-anchor="middle" visibility="hidden" style="font-size: 13px;">W</text><text y="358" x="194.08099688473519" text-anchor="middle" visibility="hidden" style="font-size: 13px;">V</text><text y="358" x="196.26168224299064" text-anchor="middle" visibility="hidden" style="font-size: 13px;">G</text><text y="358" x="198.44236760124608" text-anchor="middle" visibility="hidden" style="font-size: 13px;">D</text><text y="358" x="200.62305295950154" text-anchor="middle" visibility="hidden" style="font-size: 13px;">G</text><text y="358" x="202.803738317757" text-anchor="middle" visibility="hidden" style="font-size: 13px;">F</text><text y="358" x="204.98442367601245" text-anchor="middle" visibility="hidden" style="font-size: 13px;">V</text><text y="358" x="207.16510903426789" text-anchor="middle" visibility="hidden" style="font-size: 13px;">V</text><text y="358" x="209.34579439252335" text-anchor="middle" visibility="hidden" style="font-size: 13px;">I</text><text y="358" x="211.5264797507788" text-anchor="middle" visibility="hidden" style="font-size: 13px;">S</text><text y="358" x="213.70716510903426" text-anchor="middle" visibility="hidden" style="font-size: 13px;">R</text><text y="358" x="215.8878504672897" text-anchor="middle" visibility="hidden" style="font-size: 13px;">I</text><text y="358" x="218.06853582554515" text-anchor="middle" visibility="hidden" style="font-size: 13px;">S</text><text y="358" x="220.2492211838006" text-anchor="middle" visibility="hidden" style="font-size: 13px;">P</text><text y="358" x="222.42990654205607" text-anchor="middle" visibility="hidden" style="font-size: 13px;">N</text><text y="358" x="224.6105919003115" text-anchor="middle" visibility="hidden" style="font-size: 13px;">P</text><text y="358" x="226.79127725856696" text-anchor="middle" visibility="hidden" style="font-size: 13px;">K</text><text y="358" x="228.97196261682242" text-anchor="middle" visibility="hidden" style="font-size: 13px;">C</text><text y="358" x="231.15264797507785" text-anchor="middle" visibility="hidden" style="font-size: 13px;">G</text><text y="358" x="233.33333333333331" text-anchor="middle" visibility="hidden" style="font-size: 13px;">K</text><text y="358" x="235.51401869158877" text-anchor="middle" visibility="hidden" style="font-size: 13px;">N</text><text y="358" x="237.69470404984423" text-anchor="middle" visibility="hidden" style="font-size: 13px;">G</text><text y="358" x="239.87538940809966" text-anchor="middle" visibility="hidden" style="font-size: 13px;">V</text><text y="358" x="242.05607476635512" text-anchor="middle" visibility="hidden" style="font-size: 13px;">G</text><text y="358" x="244.23676012461058" text-anchor="middle" visibility="hidden" style="font-size: 13px;">V</text><text y="358" x="246.41744548286604" text-anchor="middle" visibility="hidden" style="font-size: 13px;">L</text><text y="358" x="248.59813084112147" text-anchor="middle" visibility="hidden" style="font-size: 13px;">I</text><text y="358" x="250.77881619937693" text-anchor="middle" visibility="hidden" style="font-size: 13px;">W</text><text y="358" x="252.9595015576324" text-anchor="middle" visibility="hidden" style="font-size: 13px;">K</text><text y="358" x="255.14018691588785" text-anchor="middle" visibility="hidden" style="font-size: 13px;">V</text><text y="358" x="257.3208722741433" text-anchor="middle" visibility="hidden" style="font-size: 13px;">P</text><text y="358" x="259.5015576323988" text-anchor="middle" visibility="hidden" style="font-size: 13px;">V</text><text y="358" x="261.6822429906542" text-anchor="middle" visibility="hidden" style="font-size: 13px;">S</text><text y="358" x="263.86292834890963" text-anchor="middle" visibility="hidden" style="font-size: 13px;">R</text><text y="358" x="266.0436137071651" text-anchor="middle" visibility="hidden" style="font-size: 13px;">Q</text><text y="358" x="268.22429906542055" text-anchor="middle" visibility="hidden" style="font-size: 13px;">F</text><text y="358" x="270.404984423676" text-anchor="middle" visibility="hidden" style="font-size: 13px;">A</text><text y="358" x="272.5856697819315" text-anchor="middle" visibility="hidden" style="font-size: 13px;">A</text><text y="358" x="274.76635514018693" text-anchor="middle" visibility="hidden" style="font-size: 13px;">Y</text><text y="358" x="276.94704049844233" text-anchor="middle" visibility="hidden" style="font-size: 13px;">C</text><text y="358" x="279.1277258566978" text-anchor="middle" visibility="hidden" style="font-size: 13px;">Y</text><text y="358" x="281.30841121495325" text-anchor="middle" visibility="hidden" style="font-size: 13px;">N</text><text y="358" x="283.4890965732087" text-anchor="middle" visibility="hidden" style="font-size: 13px;">S</text><text y="358" x="285.6697819314642" text-anchor="middle" visibility="hidden" style="font-size: 13px;">S</text><text y="358" x="287.85046728971963" text-anchor="middle" visibility="hidden" style="font-size: 13px;">D</text><text y="358" x="290.0311526479751" text-anchor="middle" visibility="hidden" style="font-size: 13px;">T</text><text y="358" x="292.21183800623055" text-anchor="middle" visibility="hidden" style="font-size: 13px;">W</text><text y="358" x="294.39252336448595" text-anchor="middle" visibility="hidden" style="font-size: 13px;">T</text><text y="358" x="296.5732087227414" text-anchor="middle" visibility="hidden" style="font-size: 13px;">N</text><text y="358" x="298.7538940809969" text-anchor="middle" visibility="hidden" style="font-size: 13px;">S</text><text y="358" x="300.93457943925233" text-anchor="middle" visibility="hidden" style="font-size: 13px;">C</text><text y="358" x="303.1152647975078" text-anchor="middle" visibility="hidden" style="font-size: 13px;">I</text><text y="358" x="305.29595015576325" text-anchor="middle" visibility="hidden" style="font-size: 13px;">P</text><text y="358" x="307.4766355140187" text-anchor="middle" visibility="hidden" style="font-size: 13px;">E</text><text y="358" x="309.6573208722741" text-anchor="middle" visibility="hidden" style="font-size: 13px;">I</text><text y="358" x="311.8380062305296" text-anchor="middle" visibility="hidden" style="font-size: 13px;">I</text><text y="358" x="314.01869158878503" text-anchor="middle" visibility="hidden" style="font-size: 13px;">T</text><text y="358" x="316.1993769470405" text-anchor="middle" visibility="hidden" style="font-size: 13px;">T</text><text y="358" x="318.38006230529595" text-anchor="middle" visibility="hidden" style="font-size: 13px;">K</text><text y="358" x="320.5607476635514" text-anchor="middle" visibility="hidden" style="font-size: 13px;">D</text><text y="358" x="322.74143302180687" text-anchor="middle" visibility="hidden" style="font-size: 13px;">P</text><text y="358" x="324.92211838006233" text-anchor="middle" visibility="hidden" style="font-size: 13px;">I</text><text y="358" x="327.10280373831773" text-anchor="middle" visibility="hidden" style="font-size: 13px;">F</text><text y="358" x="329.2834890965732" text-anchor="middle" visibility="hidden" style="font-size: 13px;">N</text><text y="358" x="331.46417445482865" text-anchor="middle" visibility="hidden" style="font-size: 13px;">T</text><text y="358" x="333.6448598130841" text-anchor="middle" visibility="hidden" style="font-size: 13px;">Q</text><text y="358" x="335.82554517133957" text-anchor="middle" visibility="hidden" style="font-size: 13px;">T</text><text y="358" x="338.00623052959503" text-anchor="middle" visibility="hidden" style="font-size: 13px;">A</text><text y="358" x="340.1869158878505" text-anchor="middle" visibility="hidden" style="font-size: 13px;">T</text><text y="358" x="342.3676012461059" text-anchor="middle" visibility="hidden" style="font-size: 13px;">Q</text><text y="358" x="344.54828660436135" text-anchor="middle" visibility="hidden" style="font-size: 13px;">T</text><text y="358" x="346.7289719626168" text-anchor="middle" visibility="hidden" style="font-size: 13px;">T</text><text y="358" x="348.90965732087227" text-anchor="middle" visibility="hidden" style="font-size: 13px;">E</text><text y="358" x="351.0903426791277" text-anchor="middle" visibility="hidden" style="font-size: 13px;">F</text><text y="358" x="353.27102803738313" text-anchor="middle" visibility="hidden" style="font-size: 13px;">I</text><text y="358" x="355.4517133956386" text-anchor="middle" visibility="hidden" style="font-size: 13px;">V</text><text y="358" x="357.63239875389405" text-anchor="middle" visibility="hidden" style="font-size: 13px;">S</text><text y="358" x="359.8130841121495" text-anchor="middle" visibility="hidden" style="font-size: 13px;">D</text><text y="358" x="361.99376947040497" text-anchor="middle" visibility="hidden" style="font-size: 13px;">S</text><text y="358" x="364.1744548286604" text-anchor="middle" visibility="hidden" style="font-size: 13px;">T</text><text y="358" x="366.35514018691583" text-anchor="middle" visibility="hidden" style="font-size: 13px;">Y</text><text y="358" x="368.5358255451713" text-anchor="middle" visibility="hidden" style="font-size: 13px;">S</text><text y="358" x="370.71651090342675" text-anchor="middle" visibility="hidden" style="font-size: 13px;">V</text><text y="358" x="372.8971962616822" text-anchor="middle" visibility="hidden" style="font-size: 13px;">A</text><text y="358" x="375.07788161993767" text-anchor="middle" visibility="hidden" style="font-size: 13px;">S</text><text y="358" x="377.25856697819313" text-anchor="middle" visibility="hidden" style="font-size: 13px;">P</text><text y="358" x="379.4392523364486" text-anchor="middle" visibility="hidden" style="font-size: 13px;">Y</text><text y="358" x="381.619937694704" text-anchor="middle" visibility="hidden" style="font-size: 13px;">S</text><text y="358" x="383.80062305295945" text-anchor="middle" visibility="hidden" style="font-size: 13px;">T</text><text y="358" x="385.9813084112149" text-anchor="middle" visibility="hidden" style="font-size: 13px;">I</text><text y="358" x="388.16199376947037" text-anchor="middle" visibility="hidden" style="font-size: 13px;">P</text><text y="358" x="390.34267912772583" text-anchor="middle" visibility="hidden" style="font-size: 13px;">A</text><text y="358" x="392.5233644859813" text-anchor="middle" visibility="hidden" style="font-size: 13px;">P</text><text y="358" x="394.70404984423675" text-anchor="middle" visibility="hidden" style="font-size: 13px;">T</text><text y="358" x="396.88473520249215" text-anchor="middle" visibility="hidden" style="font-size: 13px;">T</text><text y="358" x="399.0654205607476" text-anchor="middle" visibility="hidden" style="font-size: 13px;">T</text><text y="358" x="401.24610591900307" text-anchor="middle" visibility="hidden" style="font-size: 13px;">P</text><text y="358" x="403.42679127725853" text-anchor="middle" visibility="hidden" style="font-size: 13px;">P</text><text y="358" x="405.607476635514" text-anchor="middle" visibility="hidden" style="font-size: 13px;">A</text><text y="358" x="407.78816199376945" text-anchor="middle" visibility="hidden" style="font-size: 13px;">P</text><text y="358" x="409.9688473520249" text-anchor="middle" visibility="hidden" style="font-size: 13px;">A</text><text y="358" x="412.14953271028037" text-anchor="middle" visibility="hidden" style="font-size: 13px;">S</text><text y="358" x="414.33021806853577" text-anchor="middle" visibility="hidden" style="font-size: 13px;">T</text><text y="358" x="416.51090342679123" text-anchor="middle" visibility="hidden" style="font-size: 13px;">S</text><text y="358" x="418.6915887850467" text-anchor="middle" visibility="hidden" style="font-size: 13px;">I</text><text y="358" x="420.87227414330215" text-anchor="middle" visibility="hidden" style="font-size: 13px;">P</text><text y="358" x="423.0529595015576" text-anchor="middle" visibility="hidden" style="font-size: 13px;">R</text><text y="358" x="425.23364485981307" text-anchor="middle" visibility="hidden" style="font-size: 13px;">R</text><text y="358" x="427.4143302180685" text-anchor="middle" visibility="hidden" style="font-size: 13px;">K</text><text y="358" x="429.59501557632393" text-anchor="middle" visibility="hidden" style="font-size: 13px;">K</text><text y="358" x="431.7757009345794" text-anchor="middle" visibility="hidden" style="font-size: 13px;">L</text><text y="358" x="433.95638629283485" text-anchor="middle" visibility="hidden" style="font-size: 13px;">I</text><text y="358" x="436.1370716510903" text-anchor="middle" visibility="hidden" style="font-size: 13px;">C</text><text y="358" x="438.31775700934577" text-anchor="middle" visibility="hidden" style="font-size: 13px;">V</text><text y="358" x="440.4984423676012" text-anchor="middle" visibility="hidden" style="font-size: 13px;">T</text><text y="358" x="442.6791277258567" text-anchor="middle" visibility="hidden" style="font-size: 13px;">E</text><text y="358" x="444.85981308411215" text-anchor="middle" visibility="hidden" style="font-size: 13px;">V</text><text y="358" x="447.04049844236755" text-anchor="middle" visibility="hidden" style="font-size: 13px;">F</text><text y="358" x="449.221183800623" text-anchor="middle" visibility="hidden" style="font-size: 13px;">M</text><text y="358" x="451.40186915887847" text-anchor="middle" visibility="hidden" style="font-size: 13px;">E</text><text y="358" x="453.58255451713393" text-anchor="middle" visibility="hidden" style="font-size: 13px;">T</text><text y="358" x="455.7632398753894" text-anchor="middle" visibility="hidden" style="font-size: 13px;">S</text><text y="358" x="457.94392523364485" text-anchor="middle" visibility="hidden" style="font-size: 13px;">T</text><text y="358" x="460.1246105919003" text-anchor="middle" visibility="hidden" style="font-size: 13px;">M</text><text y="358" x="462.3052959501557" text-anchor="middle" visibility="hidden" style="font-size: 13px;">S</text><text y="358" x="464.48598130841117" text-anchor="middle" visibility="hidden" style="font-size: 13px;">T</text><text y="358" x="466.66666666666663" text-anchor="middle" visibility="hidden" style="font-size: 13px;">E</text><text y="358" x="468.8473520249221" text-anchor="middle" visibility="hidden" style="font-size: 13px;">T</text><text y="358" x="471.02803738317755" text-anchor="middle" visibility="hidden" style="font-size: 13px;">E</text><text y="358" x="473.208722741433" text-anchor="middle" visibility="hidden" style="font-size: 13px;">P</text><text y="358" x="475.38940809968847" text-anchor="middle" visibility="hidden" style="font-size: 13px;">F</text><text y="358" x="477.5700934579439" text-anchor="middle" visibility="hidden" style="font-size: 13px;">V</text><text y="358" x="479.75077881619933" text-anchor="middle" visibility="hidden" style="font-size: 13px;">E</text><text y="358" x="481.9314641744548" text-anchor="middle" visibility="hidden" style="font-size: 13px;">N</text><text y="358" x="484.11214953271025" text-anchor="middle" visibility="hidden" style="font-size: 13px;">K</text><text y="358" x="486.2928348909657" text-anchor="middle" visibility="hidden" style="font-size: 13px;">A</text><text y="358" x="488.47352024922117" text-anchor="middle" visibility="hidden" style="font-size: 13px;">A</text><text y="358" x="490.6542056074766" text-anchor="middle" visibility="hidden" style="font-size: 13px;">F</text><text y="358" x="492.8348909657321" text-anchor="middle" visibility="hidden" style="font-size: 13px;">K</text><text y="358" x="495.0155763239875" text-anchor="middle" visibility="hidden" style="font-size: 13px;">N</text><text y="358" x="497.19626168224295" text-anchor="middle" visibility="hidden" style="font-size: 13px;">E</text><text y="358" x="499.3769470404984" text-anchor="middle" visibility="hidden" style="font-size: 13px;">A</text><text y="358" x="501.55763239875387" text-anchor="middle" visibility="hidden" style="font-size: 13px;">A</text><text y="358" x="503.7383177570093" text-anchor="middle" visibility="hidden" style="font-size: 13px;">G</text><text y="358" x="505.9190031152648" text-anchor="middle" visibility="hidden" style="font-size: 13px;">F</text><text y="358" x="508.09968847352025" text-anchor="middle" visibility="hidden" style="font-size: 13px;">G</text><text y="358" x="510.2803738317757" text-anchor="middle" visibility="hidden" style="font-size: 13px;">G</text><text y="358" x="512.4610591900312" text-anchor="middle" visibility="hidden" style="font-size: 13px;">V</text><text y="358" x="514.6417445482866" text-anchor="middle" visibility="hidden" style="font-size: 13px;">P</text><text y="358" x="516.8224299065421" text-anchor="middle" visibility="hidden" style="font-size: 13px;">T</text><text y="358" x="519.0031152647975" text-anchor="middle" visibility="hidden" style="font-size: 13px;">A</text><text y="358" x="521.1838006230529" text-anchor="middle" visibility="hidden" style="font-size: 13px;">L</text><text y="358" x="523.3644859813083" text-anchor="middle" visibility="hidden" style="font-size: 13px;">L</text><text y="358" x="525.5451713395638" text-anchor="middle" visibility="hidden" style="font-size: 13px;">V</text><text y="358" x="527.7258566978193" text-anchor="middle" visibility="hidden" style="font-size: 13px;">L</text><text y="358" x="529.9065420560747" text-anchor="middle" visibility="hidden" style="font-size: 13px;">A</text><text y="358" x="532.0872274143302" text-anchor="middle" visibility="hidden" style="font-size: 13px;">L</text><text y="358" x="534.2679127725856" text-anchor="middle" visibility="hidden" style="font-size: 13px;">L</text><text y="358" x="536.4485981308411" text-anchor="middle" visibility="hidden" style="font-size: 13px;">F</text><text y="358" x="538.6292834890966" text-anchor="middle" visibility="hidden" style="font-size: 13px;">F</text><text y="358" x="540.809968847352" text-anchor="middle" visibility="hidden" style="font-size: 13px;">G</text><text y="358" x="542.9906542056075" text-anchor="middle" visibility="hidden" style="font-size: 13px;">A</text><text y="358" x="545.171339563863" text-anchor="middle" visibility="hidden" style="font-size: 13px;">A</text><text y="358" x="547.3520249221184" text-anchor="middle" visibility="hidden" style="font-size: 13px;">A</text><text y="358" x="549.5327102803739" text-anchor="middle" visibility="hidden" style="font-size: 13px;">G</text><text y="358" x="551.7133956386293" text-anchor="middle" visibility="hidden" style="font-size: 13px;">L</text><text y="358" x="553.8940809968847" text-anchor="middle" visibility="hidden" style="font-size: 13px;">G</text><text y="358" x="556.0747663551401" text-anchor="middle" visibility="hidden" style="font-size: 13px;">F</text><text y="358" x="558.2554517133956" text-anchor="middle" visibility="hidden" style="font-size: 13px;">C</text><text y="358" x="560.436137071651" text-anchor="middle" visibility="hidden" style="font-size: 13px;">Y</text><text y="358" x="562.6168224299065" text-anchor="middle" visibility="hidden" style="font-size: 13px;">V</text><text y="358" x="564.797507788162" text-anchor="middle" visibility="hidden" style="font-size: 13px;">K</text><text y="358" x="566.9781931464174" text-anchor="middle" visibility="hidden" style="font-size: 13px;">R</text><text y="358" x="569.1588785046729" text-anchor="middle" visibility="hidden" style="font-size: 13px;">Y</text><text y="358" x="571.3395638629283" text-anchor="middle" visibility="hidden" style="font-size: 13px;">V</text><text y="358" x="573.5202492211838" text-anchor="middle" visibility="hidden" style="font-size: 13px;">K</text><text y="358" x="575.7009345794393" text-anchor="middle" visibility="hidden" style="font-size: 13px;">A</text><text y="358" x="577.8816199376947" text-anchor="middle" visibility="hidden" style="font-size: 13px;">F</text><text y="358" x="580.0623052959502" text-anchor="middle" visibility="hidden" style="font-size: 13px;">P</text><text y="358" x="582.2429906542056" text-anchor="middle" visibility="hidden" style="font-size: 13px;">F</text><text y="358" x="584.4236760124611" text-anchor="middle" visibility="hidden" style="font-size: 13px;">T</text><text y="358" x="586.6043613707164" text-anchor="middle" visibility="hidden" style="font-size: 13px;">N</text><text y="358" x="588.7850467289719" text-anchor="middle" visibility="hidden" style="font-size: 13px;">K</text><text y="358" x="590.9657320872274" text-anchor="middle" visibility="hidden" style="font-size: 13px;">N</text><text y="358" x="593.1464174454828" text-anchor="middle" visibility="hidden" style="font-size: 13px;">Q</text><text y="358" x="595.3271028037383" text-anchor="middle" visibility="hidden" style="font-size: 13px;">Q</text><text y="358" x="597.5077881619937" text-anchor="middle" visibility="hidden" style="font-size: 13px;">K</text><text y="358" x="599.6884735202492" text-anchor="middle" visibility="hidden" style="font-size: 13px;">E</text><text y="358" x="601.8691588785047" text-anchor="middle" visibility="hidden" style="font-size: 13px;">M</text><text y="358" x="604.0498442367601" text-anchor="middle" visibility="hidden" style="font-size: 13px;">I</text><text y="358" x="606.2305295950156" text-anchor="middle" visibility="hidden" style="font-size: 13px;">E</text><text y="358" x="608.411214953271" text-anchor="middle" visibility="hidden" style="font-size: 13px;">T</text><text y="358" x="610.5919003115265" text-anchor="middle" visibility="hidden" style="font-size: 13px;">K</text><text y="358" x="612.772585669782" text-anchor="middle" visibility="hidden" style="font-size: 13px;">V</text><text y="358" x="614.9532710280374" text-anchor="middle" visibility="hidden" style="font-size: 13px;">V</text><text y="358" x="617.1339563862929" text-anchor="middle" visibility="hidden" style="font-size: 13px;">K</text><text y="358" x="619.3146417445482" text-anchor="middle" visibility="hidden" style="font-size: 13px;">E</text><text y="358" x="621.4953271028037" text-anchor="middle" visibility="hidden" style="font-size: 13px;">E</text><text y="358" x="623.6760124610591" text-anchor="middle" visibility="hidden" style="font-size: 13px;">K</text><text y="358" x="625.8566978193146" text-anchor="middle" visibility="hidden" style="font-size: 13px;">A</text><text y="358" x="628.0373831775701" text-anchor="middle" visibility="hidden" style="font-size: 13px;">N</text><text y="358" x="630.2180685358255" text-anchor="middle" visibility="hidden" style="font-size: 13px;">D</text><text y="358" x="632.398753894081" text-anchor="middle" visibility="hidden" style="font-size: 13px;">S</text><text y="358" x="634.5794392523364" text-anchor="middle" visibility="hidden" style="font-size: 13px;">N</text><text y="358" x="636.7601246105919" text-anchor="middle" visibility="hidden" style="font-size: 13px;">P</text><text y="358" x="638.9408099688474" text-anchor="middle" visibility="hidden" style="font-size: 13px;">N</text><text y="358" x="641.1214953271028" text-anchor="middle" visibility="hidden" style="font-size: 13px;">E</text><text y="358" x="643.3021806853583" text-anchor="middle" visibility="hidden" style="font-size: 13px;">E</text><text y="358" x="645.4828660436137" text-anchor="middle" visibility="hidden" style="font-size: 13px;">S</text><text y="358" x="647.6635514018692" text-anchor="middle" visibility="hidden" style="font-size: 13px;">K</text><text y="358" x="649.8442367601247" text-anchor="middle" visibility="hidden" style="font-size: 13px;">K</text><text y="358" x="652.02492211838" text-anchor="middle" visibility="hidden" style="font-size: 13px;">T</text><text y="358" x="654.2056074766355" text-anchor="middle" visibility="hidden" style="font-size: 13px;">D</text><text y="358" x="656.3862928348909" text-anchor="middle" visibility="hidden" style="font-size: 13px;">K</text><text y="358" x="658.5669781931464" text-anchor="middle" visibility="hidden" style="font-size: 13px;">N</text><text y="358" x="660.7476635514018" text-anchor="middle" visibility="hidden" style="font-size: 13px;">P</text><text y="358" x="662.9283489096573" text-anchor="middle" visibility="hidden" style="font-size: 13px;">E</text><text y="358" x="665.1090342679128" text-anchor="middle" visibility="hidden" style="font-size: 13px;">E</text><text y="358" x="667.2897196261682" text-anchor="middle" visibility="hidden" style="font-size: 13px;">S</text><text y="358" x="669.4704049844237" text-anchor="middle" visibility="hidden" style="font-size: 13px;">K</text><text y="358" x="671.6510903426791" text-anchor="middle" visibility="hidden" style="font-size: 13px;">S</text><text y="358" x="673.8317757009346" text-anchor="middle" visibility="hidden" style="font-size: 13px;">P</text><text y="358" x="676.0124610591901" text-anchor="middle" visibility="hidden" style="font-size: 13px;">S</text><text y="358" x="678.1931464174455" text-anchor="middle" visibility="hidden" style="font-size: 13px;">K</text><text y="358" x="680.373831775701" text-anchor="middle" visibility="hidden" style="font-size: 13px;">T</text><text y="358" x="682.5545171339564" text-anchor="middle" visibility="hidden" style="font-size: 13px;">T</text><text y="358" x="684.7352024922118" text-anchor="middle" visibility="hidden" style="font-size: 13px;">V</text><text y="358" x="686.9158878504672" text-anchor="middle" visibility="hidden" style="font-size: 13px;">R</text><text y="358" x="689.0965732087227" text-anchor="middle" visibility="hidden" style="font-size: 13px;">C</text><text y="358" x="691.2772585669782" text-anchor="middle" visibility="hidden" style="font-size: 13px;">L</text><text y="358" x="693.4579439252336" text-anchor="middle" visibility="hidden" style="font-size: 13px;">E</text><text y="358" x="695.6386292834891" text-anchor="middle" visibility="hidden" style="font-size: 13px;">A</text><text y="358" x="697.8193146417445" text-anchor="middle" visibility="hidden" style="font-size: 13px;">E</text><text y="358" x="700" text-anchor="middle" visibility="hidden" style="font-size: 13px;">V</text></g></g></svg><g class="xAxis" transform="translate(0,360)" fill="none" font-size="10" font-family="sans-serif" text-anchor="middle"><path class="domain" stroke="#000" d="M0.5,6V0.5H700.5V6"></path><g class="tick" opacity="1" transform="translate(107.35358255451713,0)"><line stroke="#000" y2="6"></line><text fill="#000" y="9" dy="0.71em">50</text></g><g class="tick" opacity="1" transform="translate(216.3878504672897,0)"><line stroke="#000" y2="6"></line><text fill="#000" y="9" dy="0.71em">100</text></g><g class="tick" opacity="1" transform="translate(325.42211838006233,0)"><line stroke="#000" y2="6"></line><text fill="#000" y="9" dy="0.71em">150</text></g><g class="tick" opacity="1" transform="translate(434.45638629283485,0)"><line stroke="#000" y2="6"></line><text fill="#000" y="9" dy="0.71em">200</text></g><g class="tick" opacity="1" transform="translate(543.4906542056075,0)"><line stroke="#000" y2="6"></line><text fill="#000" y="9" dy="0.71em">250</text></g><g class="tick" opacity="1" transform="translate(652.52492211838,0)"><line stroke="#000" y2="6"></line><text fill="#000" y="9" dy="0.71em">300</text></g></g><text class="x label" text-anchor="end" x="700" y="390" style="font-size: 13px; font-family: Arial;">Residue number</text><g class="yAxis" fill="none" font-size="10" font-family="sans-serif" text-anchor="end"><path class="domain" stroke="#000" d="M-6,360.5H0.5V0.5H-6"></path><g class="tick" opacity="1" transform="translate(0,357.52479338842977)"><line stroke="#000" x2="-6"></line><text fill="#000" x="-9" dy="0.32em"></text></g><g class="tick" opacity="1" transform="translate(0,327.77272727272725)"><line stroke="#000" x2="-6"></line><text fill="#000" x="-9" dy="0.32em">0</text></g><g class="tick" opacity="1" transform="translate(0,298.0206611570248)"><line stroke="#000" x2="-6"></line><text fill="#000" x="-9" dy="0.32em">0.2</text></g><g class="tick" opacity="1" transform="translate(0,268.2685950413223)"><line stroke="#000" x2="-6"></line><text fill="#000" x="-9" dy="0.32em">0.4</text></g><g class="tick" opacity="1" transform="translate(0,238.51652892561984)"><line stroke="#000" x2="-6"></line><text fill="#000" x="-9" dy="0.32em">0.6</text></g><g class="tick" opacity="1" transform="translate(0,208.76446280991738)"><line stroke="#000" x2="-6"></line><text fill="#000" x="-9" dy="0.32em">0.8</text></g><g class="tick" opacity="1" transform="translate(0,179.0123966942149)"><line stroke="#000" x2="-6"></line><text fill="#000" x="-9" dy="0.32em">1</text></g><g class="tick" opacity="1" transform="translate(0,149.26033057851242)"><line stroke="#000" x2="-6"></line><text fill="#000" x="-9" dy="0.32em">1.2</text></g><g class="tick" opacity="1" transform="translate(0,119.50826446280996)"><line stroke="#000" x2="-6"></line><text fill="#000" x="-9" dy="0.32em">1.4</text></g><g class="tick" opacity="1" transform="translate(0,89.75619834710744)"><line stroke="#000" x2="-6"></line><text fill="#000" x="-9" dy="0.32em">1.6</text></g><g class="tick" opacity="1" transform="translate(0,60.00413223140498)"><line stroke="#000" x2="-6"></line><text fill="#000" x="-9" dy="0.32em">1.8</text></g><g class="tick" opacity="1" transform="translate(0,30.25206611570252)"><line stroke="#000" x2="-6"></line><text fill="#000" x="-9" dy="0.32em">2</text></g><g class="tick" opacity="1" transform="translate(0,0.5)"><line stroke="#000" x2="-6"></line><text fill="#000" x="-9" dy="0.32em">2.2</text></g></g><text class="y label" text-anchor="middle" y="-50" x="-180" dy="0.8em" transform="rotate(-90)" style="font-size: 13px; font-family: Arial;">Total number of references</text><g class="axisRed" fill="none" font-size="10" font-family="sans-serif" text-anchor="start" visibility="hidden" transform="translate(700, 0)"><path class="domain" stroke="#000" d="M6,360.5H0.5V0.5H6"></path><g class="tick" opacity="1" transform="translate(0,360.5)"><line stroke="#000" x2="6"></line><text fill="#000" x="9" dy="0.32em">0</text></g><text text-anchor="start" dx="5.2em" dy="-2.6em" transform="rotate(90)" visibility="hidden" style="font-size: 12px; font-family: Arial; fill: #d7301f;">No recurrent (&gt;2) missense mutations!</text></g><g class="axisPurple" fill="none" font-size="10" font-family="sans-serif" text-anchor="start" visibility="hidden"><path class="domain" stroke="#000" d="M6,360.5H0.5V0.5H6"></path><g class="tick" opacity="1" transform="translate(0,357.52479338842977)"><line stroke="#000" x2="6"></line><text fill="#000" x="9" dy="0.32em"></text></g><g class="tick" opacity="1" transform="translate(0,327.77272727272725)"><line stroke="#000" x2="6"></line><text fill="#000" x="9" dy="0.32em">0</text></g><g class="tick" opacity="1" transform="translate(0,298.0206611570248)"><line stroke="#000" x2="6"></line><text fill="#000" x="9" dy="0.32em">0.1</text></g><g class="tick" opacity="1" transform="translate(0,268.2685950413223)"><line stroke="#000" x2="6"></line><text fill="#000" x="9" dy="0.32em">0.2</text></g><g class="tick" opacity="1" transform="translate(0,238.51652892561984)"><line stroke="#000" x2="6"></line><text fill="#000" x="9" dy="0.32em">0.3</text></g><g class="tick" opacity="1" transform="translate(0,208.76446280991738)"><line stroke="#000" x2="6"></line><text fill="#000" x="9" dy="0.32em">0.4</text></g><g class="tick" opacity="1" transform="translate(0,179.0123966942149)"><line stroke="#000" x2="6"></line><text fill="#000" x="9" dy="0.32em">0.5</text></g><g class="tick" opacity="1" transform="translate(0,149.26033057851242)"><line stroke="#000" x2="6"></line><text fill="#000" x="9" dy="0.32em">0.6</text></g><g class="tick" opacity="1" transform="translate(0,119.50826446280996)"><line stroke="#000" x2="6"></line><text fill="#000" x="9" dy="0.32em">0.7</text></g><g class="tick" opacity="1" transform="translate(0,89.75619834710744)"><line stroke="#000" x2="6"></line><text fill="#000" x="9" dy="0.32em">0.8</text></g><g class="tick" opacity="1" transform="translate(0,60.00413223140498)"><line stroke="#000" x2="6"></line><text fill="#000" x="9" dy="0.32em">0.9</text></g><g class="tick" opacity="1" transform="translate(0,30.25206611570252)"><line stroke="#000" x2="6"></line><text fill="#000" x="9" dy="0.32em">1</text></g><g class="tick" opacity="1" transform="translate(0,0.5)"><line stroke="#000" x2="6"></line><text fill="#000" x="9" dy="0.32em">1.1</text></g><text text-anchor="start" x="10" y="10" visibility="hidden" style="font-size: 12px; font-family: Arial; fill: #807dba;">No disease causing germline SNPs known!</text></g><circle cx="636" cy="15" r="10" class="compassNav" style="fill: #ffffff; stroke: #666666; stroke-width: 1px;"></circle><path d="M440.935 12.574l3.966 82.766C399.416 41.904 331.674 8 256 8 134.813 8 33.933 94.924 12.296 209.824 10.908 217.193 16.604 224 24.103 224h49.084c5.57 0 10.377-3.842 11.676-9.259C103.407 137.408 172.931 80 256 80c60.893 0 114.512 30.856 146.104 77.801l-101.53-4.865c-6.845-.328-12.574 5.133-12.574 11.986v47.411c0 6.627 5.373 12 12 12h200.333c6.627 0 12-5.373 12-12V12c0-6.627-5.373-12-12-12h-47.411c-6.853 0-12.315 5.729-11.987 12.574zM256 432c-60.895 0-114.517-30.858-146.109-77.805l101.868 4.871c6.845.327 12.573-5.134 12.573-11.986v-47.412c0-6.627-5.373-12-12-12H12c-6.627 0-12 5.373-12 12V500c0 6.627 5.373 12 12 12h47.385c6.863 0 12.328-5.745 11.985-12.599l-4.129-82.575C112.725 470.166 180.405 504 256 504c121.187 0 222.067-86.924 243.704-201.824 1.388-7.369-4.308-14.176-11.807-14.176h-49.084c-5.57 0-10.377 3.842-11.676 9.259C408.593 374.592 339.069 432 256 432z" class="compassNav" transform="translate(631, 10) scale(0.02)" style="fill: #666666; stroke: #666666; stroke-width: 1px;"></path><circle cx="658" cy="15" r="10" class="compassNav" style="fill: #ffffff; stroke: #666666; stroke-width: 1px;"></circle><line class="compassNav" stroke-width="2" stroke="#666666" x1="654" y1="15" x2="662" y2="15"></line><line class="compassNav" stroke-width="2" stroke="#666666" x1="658" y1="11" x2="658" y2="19"></line><circle cx="614" cy="15" r="10" class="compassNav" style="fill: #ffffff; stroke: #666666; stroke-width: 1px;"></circle><line class="compassNav" stroke-width="2" stroke="#666666" x1="610" y1="15" x2="618" y2="15"></line><path d="M582 14 l20 -12 a100,40 0 0,0 0,24z" class="compassNav" style="fill: #ffffff; stroke: #666666; stroke-width: 1px;"></path><path d="M690 14 l-20 -12 a100,40 0 0,1 0,24z" class="compassNav" style="fill: #ffffff; stroke: #666666; stroke-width: 1px;"></path><path d="M216 0h80c13.3 0 24 10.7 24 24v168h87.7c17.8 0 26.7 21.5 14.1 34.1L269.7 378.3c-7.5 7.5-19.8 7.5-27.3 0L90.1 226.1c-12.6-12.6-3.7-34.1 14.1-34.1H192V24c0-13.3 10.7-24 24-24zm296 376v112c0 13.3-10.7 24-24 24H24c-13.3 0-24-10.7-24-24V376c0-13.3 10.7-24 24-24h146.7l49 49c20.1 20.1 52.5 20.1 72.6 0l49-49H488c13.3 0 24 10.7 24 24zm-124 88c0-11-9-20-20-20s-20 9-20 20 9 20 20 20 20-9 20-20zm64 0c0-11-9-20-20-20s-20 9-20 20 9 20 20 20 20-9 20-20z" class="compassNav" transform="translate(552,0) scale(0.05)" style="fill: #336699; stroke: #336699; stroke-width: 1px; cursor: pointer;"></path></g></svg>